<?xml version="1.0" encoding="utf-8"?>
<!-- Generator: Adobe Illustrator 24.0.1, SVG Export Plug-In . SVG Version: 6.00 Build 0)  -->
<svg version="1.1" xmlns="http://www.w3.org/2000/svg" xmlns:xlink="http://www.w3.org/1999/xlink" x="0px" y="0px"
	 viewBox="0 0 254.33 243.67" style="enable-background:new 0 0 254.33 243.67;" xml:space="preserve">
<style type="text/css">
	.st0{fill:#A5A4A4;}
	.st1{fill:#C9C9C9;}
	.st2{fill:#C11F3A;}
	.st3{fill:#A5A3A4;}
	.st4{fill:none;stroke:#A5A3A4;stroke-width:3;stroke-miterlimit:10;}
	.st5{fill:#DBAC34;}
	.st6{fill:#6B472C;}
	.st7{fill:#4B2B16;}
	.st8{fill:#DDBE65;}
	.st9{fill:#DDDDDD;}
	.st10{fill:#C57629;}
	.st11{fill:#FFFFFF;}
	.st12{font-family:'MyriadPro-Bold';}
	.st13{font-size:9.6531px;}
	.st14{fill:#B88F2E;}
</style>
<g id="Layer_2">
	<g>
		<g>
			<path class="st0" d="M207.14,189.51c-0.21,21.32,0.17,42.64,1.15,63.94c0.44,9.61,15.44,9.67,15,0
				c-0.98-21.3-1.36-42.62-1.15-63.94C222.23,179.85,207.23,179.85,207.14,189.51L207.14,189.51z"/>
		</g>
	</g>
	<g>
		<g>
			<path class="st0" d="M207.4-9.78c0.39,22.82,0.69,45.64,0.89,68.46c0.1,11.25,0.17,22.49,0.23,33.74
				c0.03,5.62,0.05,11.25,0.06,16.87c0.01,4.49-1.12,10.46,2.52,13.87c3.75,3.51,8.96,2.49,11.78-1.52c0.05-0.07,0.1-0.14,0.15-0.22
				c2.39-3.4,0.5-8.24-2.69-10.26c-0.05-0.03-0.1-0.07-0.16-0.1c-8.18-5.18-15.71,7.79-7.57,12.95c0.05,0.03,0.1,0.07,0.16,0.1
				c-0.9-3.42-1.79-6.84-2.69-10.26c-0.05,0.07-0.1,0.14-0.15,0.22c3.93-0.51,7.85-1.01,11.78-1.52c1.64,3.43,2.26,3.67,1.88,0.71
				c0-1.32-0.01-2.65-0.01-3.97c-0.01-2.65-0.02-5.29-0.02-7.94c-0.02-5.29-0.04-10.58-0.07-15.88
				c-0.06-10.58-0.14-21.17-0.24-31.75c-0.2-21.17-0.48-42.34-0.84-63.5C222.23-19.42,207.23-19.45,207.4-9.78L207.4-9.78z"/>
		</g>
	</g>
</g>
<g id="Layer_3">
	<g>
		<g>
			<path d="M200.27,115.35c2.93,0.98,6.15,0.82,9.19,1.12c3.39,0.33,6.75,0.88,10.08,1.61c3.17,0.7,6.41,1.5,9.45,2.66
				c3.08,1.17,3.67,4.16,4.2,7.1c2.4,13.21-1.3,26.66-1.7,39.89c-0.24,7.75,0.21,15.49,0.66,23.22c0.07,1.28,2.08,1.29,2,0
				c-0.42-7.24-0.84-14.48-0.7-21.74c0.14-7.04,1.08-14,1.8-21c0.7-6.79,1.1-13.67-0.05-20.44c-0.45-2.66-1-5.82-3.2-7.64
				c-0.93-0.77-2.08-1.19-3.21-1.57c-1.81-0.61-3.64-1.14-5.48-1.62c-3.62-0.95-7.3-1.65-11.01-2.14c-1.89-0.25-3.79-0.44-5.69-0.56
				c-1.97-0.13-3.92-0.18-5.81-0.81C199.58,113.01,199.06,114.94,200.27,115.35L200.27,115.35z"/>
		</g>
	</g>
	<g>
		<g>
			<path d="M234.66,138.65c0.3,11.97,0.29,23.94-0.05,35.91c-0.09,2.99-0.19,5.98-0.32,8.97c-0.09,2.08,0.26,5.18-1.11,6.94
				c-0.79,1.01-2.26,1.17-3.43,1.43c-1.49,0.32-2.98,0.62-4.48,0.87c-2.91,0.5-5.85,0.85-8.8,1.08c-3.2,0.24-6.4,0.33-9.61,0.26
				c-2.42-0.05-7.08,0.39-7.73-2.78c-0.26-1.26-2.19-0.73-1.93,0.53c0.5,2.44,2.79,3.66,5.07,3.99c2.99,0.43,6.14,0.33,9.16,0.25
				c6.42-0.16,12.82-0.94,19.09-2.33c2.5-0.55,4.46-1.43,5.22-4.06c0.77-2.65,0.55-5.7,0.66-8.43c0.26-6.73,0.42-13.46,0.48-20.19
				c0.06-7.48-0.01-14.96-0.2-22.44C236.63,137.37,234.63,137.36,234.66,138.65L234.66,138.65z"/>
		</g>
	</g>
	<g>
		<g>
			<path d="M197.91,115.77c3.89,0.74,7.84,1.18,11.8,1.26c4.04,0.08,8.13-0.33,12.1,0.6c1.25,0.29,1.79-1.63,0.53-1.93
				c-3.86-0.9-7.79-0.63-11.72-0.66c-4.09-0.03-8.16-0.44-12.18-1.2C197.19,113.61,196.65,115.53,197.91,115.77L197.91,115.77z"/>
		</g>
	</g>
	<g>
		<g>
			<path d="M232.2,121.28c-0.02-3.13-3.1-5.38-5.82-6.21c-3.83-1.17-8.23-0.64-12.18-0.61c-3.94,0.03-8.01-0.22-11.93,0.25
				c-3.21,0.39-6.11,1.66-7.92,4.44c-1.69,2.59-2.14,5.81-2.42,8.83c-0.38,4.2-0.57,8.42-0.62,12.63
				c-0.09,8.45,0.47,16.89,1.63,25.25c0.66,4.74,1.59,9.45,1.77,14.24c0.14,3.79-0.55,7.94,1.66,11.29
				c0.71,1.07,2.44,0.07,1.73-1.01c-1.86-2.82-1.3-6.37-1.37-9.57c-0.08-3.6-0.6-7.17-1.15-10.72c-1.15-7.5-1.99-15.01-2.21-22.6
				c-0.12-3.93-0.1-7.86,0.06-11.79c0.14-3.44,0.23-6.97,0.83-10.37c0.49-2.79,1.47-5.75,4-7.32c2.79-1.73,6.4-1.48,9.54-1.5
				c4.25-0.03,8.5-0.09,12.75-0.08c2.09,0,4.27,0.06,6.21,0.91c1.53,0.67,3.44,2.1,3.45,3.95
				C230.2,122.57,232.2,122.57,232.2,121.28L232.2,121.28z"/>
		</g>
	</g>
	<g>
		<g>
			<path d="M233.12,124.25c-1.49-6.85-9.33-7.83-15.11-7.96c-1.21-0.03-1.25,1.57-0.27,1.96c2.48,1.01,5.04,1.72,7.68,2.14
				c0.87,0.14,1.83-0.96,0.97-1.67c-1.9-1.59-4.09-2.49-6.56-2.68c0.09,0.65,0.18,1.31,0.27,1.96c4.11-0.71,8.28,0.89,10.98,4.03
				c0.53,0.62,1.81,0.15,1.71-0.71c-0.91-7.45-11.16-7.68-16.78-7.92c-7.4-0.31-15.07-0.39-21.85,3.01
				c0.34,0.58,0.67,1.15,1.01,1.73c2.18-1.44,4.57-2.34,7.16-2.72c1.11-0.16,0.86-2.05-0.27-1.96c-4.76,0.37-8.53,3.8-10.44,8.03
				c-2.33,5.16-2.59,11.25-2.72,16.83c-0.28,12.38,1.84,24.66,4.05,36.79c1.15,6.32,2.21,12.75,5.19,18.52
				c0.59,1.14,2.32,0.13,1.73-1.01c-2.45-4.75-3.51-10.01-4.47-15.23c-1.03-5.62-2.06-11.24-2.88-16.89
				c-0.84-5.73-1.44-11.51-1.6-17.3c-0.14-5.48-0.05-11.17,1.13-16.55c1.11-5.07,4.24-10.75,10.02-11.2
				c-0.09-0.65-0.18-1.31-0.27-1.96c-2.74,0.4-5.32,1.4-7.64,2.92c-1.08,0.71-0.14,2.3,1.01,1.73c5.9-2.96,12.64-3.04,19.1-2.81
				c3.28,0.12,6.64,0.13,9.86,0.88c2.61,0.61,6.28,2,6.66,5.11c0.57-0.24,1.14-0.47,1.71-0.71c-3.19-3.7-8.14-5.37-12.93-4.54
				c-1.18,0.2-0.78,1.88,0.27,1.96c1.9,0.15,3.68,0.87,5.14,2.1c0.32-0.56,0.65-1.11,0.97-1.67c-2.64-0.42-5.2-1.13-7.68-2.14
				c-0.09,0.65-0.18,1.31-0.27,1.96c4.86,0.11,11.91,0.62,13.18,6.49C231.46,126.04,233.39,125.5,233.12,124.25L233.12,124.25z"/>
		</g>
	</g>
	<g>
		<g>
			<path d="M219.1,156.02c6.56-10.73,5.42-24.97-8.13-28.92c1.75,1.75,3.49,3.49,5.24,5.24c-0.07-0.19-0.14-0.38-0.21-0.57
				c0,1.33,0,2.66,0,3.99c-2.25,1.23-2.54,1.79-0.88,1.66c0.93,0.04,1.87,0.12,2.8,0.23c1.29,0.02,2.54-0.03,3.82-0.26
				c3.13-0.56,5.26-2.04,7.73-3.98c-1.77,0.73-3.54,1.46-5.3,2.2c0.31,0,0.62-0.01,0.93-0.01c-1.77-0.73-3.54-1.46-5.3-2.2
				c-0.3-0.84-0.37-0.81-0.22,0.09c0.08,0.8,0.13,1.61,0.15,2.42c0.05,1.43,0.02,2.87-0.02,4.31c-0.1,3.18-0.4,6.34-0.59,9.51
				c-0.38,6.37-0.18,12.7,1.67,18.85c2.52,8.35,14.11,6.32,14.73-1.99c0.36-4.83-0.06-9.5-0.99-14.25
				c-1.64-8.4-14.79-6.33-14.73,1.99c0.07,10.31,0.03,20.61-0.12,30.92c2.5-2.5,5-5,7.5-7.5c-8.23,0.16-16.44-0.07-24.66-0.68
				c-4.35-0.32-7.09,3.72-7.5,7.5c-1.29,11.85,13.84,10.25,21.15,10.06c4.04-0.11,7.52-3.35,7.5-7.5
				c-0.03-6.22-0.19-12.46-1.4-18.58c-1.19-6.04-4.18-11.45-5.73-17.38c-0.91-3.5-2.55-11.18,0.89-13.49
				c4.89-3.29,11.66-2.2,14.91-8.06c3.09-5.57-1.12-11.61-6.56-13.32c-5.7-1.8-12.47-0.84-18.35-0.67
				c-6.2,0.18-11.3,1.71-13.51,8.12c-2.07,6-1.89,12.38-0.86,18.55c1.37,8.29,15.34,6.42,14.73-1.99c-0.13-1.87-0.27-3.74-0.4-5.61
				c-0.31-4.32-3.2-7.12-7.5-7.5c-18.54-1.64-7.14,42.23-5.71,50.96c0.6,3.67,5.76,6.67,9.23,5.24c1.87-0.77,3.32-1.53,4.84-2.89
				c7.21-6.45-3.43-17.03-10.61-10.61c0.59-0.32,1.19-0.65,1.78-0.97c3.08,1.75,6.15,3.49,9.23,5.24
				c-1.03-6.28-2.09-12.55-3.08-18.83c-0.43-2.74-0.8-5.47-0.93-8.25c-0.07-1.47-0.12-2.96,0-4.43c0.07-0.84,1.26-3.87-0.06-2.72
				c-1.77,0.73-3.54,1.46-5.3,2.2c0.21,0.02,0.41,0.04,0.62,0.05c-2.5-2.5-5-5-7.5-7.5c0.13,1.87,0.27,3.74,0.4,5.61
				c4.91-0.66,9.82-1.33,14.73-1.99c-0.35-2.13-0.43-4.4-0.14-6.54c0.19-1.16,0.46-2.31,0.79-3.44c-3.29,2-3.54,2.76-0.74,2.3
				c2.02,0.53,5.12-0.13,7.21-0.17c1.22-0.03,2.44-0.06,3.66-0.07c2.55,0.59,2.66-0.26,0.33-2.55c0.25-1.93,0.5-3.85,0.76-5.78
				c1.89-2.56-0.86-0.66-2.26-0.16c-1.53,0.55-3.09,1.07-4.61,1.67c-2.94,1.16-5.46,2.6-7.51,5.05c-4.1,4.89-4.74,11.9-4.32,18.04
				c0.48,6.87,2.86,12.7,5.16,19.08c2.53,7.02,2.77,14.04,2.81,21.42c2.5-2.5,5-5,7.5-7.5c-1.95,0.05-3.9,0.1-5.85,0.16
				c-0.65,0.02-1.3,0.03-1.95,0.05c-2.85-0.32-2.67,0.3,0.52,1.86c0.34,1.26,0.68,2.52,1.02,3.79c0.03-0.31,0.07-0.61,0.1-0.92
				c-2.5,2.5-5,5-7.5,7.5c8.21,0.61,16.42,0.84,24.66,0.68c4.1-0.08,7.44-3.37,7.5-7.5c0.15-10.31,0.19-20.61,0.12-30.92
				c-4.91,0.66-9.82,1.33-14.73,1.99c0.67,3.43,0.72,6.78,0.45,10.26c4.91-0.66,9.82-1.33,14.73-1.99
				c-2.66-8.82-0.45-17.95-0.49-26.96c-0.04-7.33-2.74-20.9-13.48-16.38c-0.93,0.3-1.73,0.82-2.41,1.55
				c0.94-0.19,0.62-0.24-0.94-0.15c-2.53,0.29-4.96-0.46-7.56,0.16c-4.36,1.04-7.92,4.59-8.82,8.96c-0.44,2.17-0.2,4.42,0.97,6.35
				c1.36,2.24,3.11,2.11,4.88,3.56c2.09,1.71,0.09,4.61-1.23,6.77C201.1,156.71,214.06,164.25,219.1,156.02L219.1,156.02z"/>
		</g>
	</g>
	<g>
		<g>
			<path d="M190.19,150.69c-0.19,12.48,0.33,24.92,1.58,37.34c0.4,4.03,3.16,7.5,7.5,7.5c3.74,0,7.91-3.44,7.5-7.5
				c-1.24-12.42-1.77-24.86-1.58-37.34C205.34,141.03,190.34,141.03,190.19,150.69L190.19,150.69z"/>
		</g>
	</g>
</g>
<g id="Layer_4">
	<g>
		<g>
			<path class="st1" d="M190.37,133.94c5.39,0.3,10.79,0.47,16.19,0.51c2.62,0.02,5.24,0.01,7.85-0.03c1.91-0.03,4.65-0.58,5.05,1.9
				c0.41,2.55,0.37,5.26,0.49,7.83c0.12,2.62,0.2,5.24,0.16,7.86c-0.01,0.66-0.02,1.31-0.05,1.97c-0.02,0.49,0.09,1.31-0.22,1.72
				c-0.63,0.82-2.44,0.96-3.36,1.07c-2.67,0.33-5.37,0.49-8.05,0.62c-6.09,0.3-12.19,0.21-18.27-0.24c-1.93-0.14-1.92,2.86,0,3
				c6.16,0.45,12.35,0.54,18.52,0.23c2.95-0.15,5.94-0.3,8.86-0.74c2.52-0.38,5.17-1.38,5.46-4.24c0.31-3.05,0.15-6.22,0.04-9.27
				c-0.11-2.95-0.27-5.9-0.48-8.84c-0.18-2.46-0.88-4.75-3.47-5.56c-1.03-0.32-2.14-0.33-3.2-0.32c-1.64,0.02-3.27,0.05-4.91,0.06
				c-6.87,0.04-13.75-0.14-20.61-0.52C188.44,130.83,188.45,133.84,190.37,133.94L190.37,133.94z"/>
		</g>
	</g>
	<g>
		<g>
			<path class="st1" d="M221.39,133.98c-3.06-4.69-8.53-5.89-13.74-6.56c-5.74-0.73-11.63-1.2-17.15,0.93
				c-1.78,0.69-1.01,3.59,0.8,2.89c4.83-1.87,9.92-1.59,14.97-0.99c4.44,0.53,9.86,1.14,12.53,5.24
				C219.85,137.11,222.45,135.61,221.39,133.98L221.39,133.98z"/>
		</g>
	</g>
	<g>
		<g>
			<path class="st1" d="M190.61,168.86c1.41,0.26,2.82,0.52,4.23,0.78c1.12,0.21,2.31,0.38,3.32,0.92c1.17,0.63,1.57,1.72,1.8,2.97
				c0.27,1.48,0.44,2.98,0.58,4.48c0.13,1.41,0.21,2.83,0.24,4.24c0.02,1.12,0.36,3.07-0.28,4.07c-0.34,0.53-1.08,0.62-1.65,0.76
				c-0.79,0.19-1.58,0.36-2.38,0.5c-1.51,0.27-3.03,0.44-4.56,0.53c-1.28,0.08-1.29,2.08,0,2c1.84-0.11,3.68-0.33,5.49-0.68
				c1.37-0.26,3.22-0.42,4.28-1.43c1.13-1.06,1.1-2.71,1.11-4.14c0.01-1.82-0.07-3.64-0.22-5.46c-0.15-1.75-0.34-3.51-0.65-5.24
				c-0.26-1.45-0.75-2.82-1.92-3.78c-1.04-0.85-2.36-1.23-3.65-1.5c-1.73-0.36-3.47-0.65-5.21-0.97
				C189.89,166.7,189.35,168.62,190.61,168.86L190.61,168.86z"/>
		</g>
	</g>
	<g>
		<g>
			<path class="st1" d="M191.44,169.85c0.39,1.76,0.65,3.53,0.77,5.33c0.42-0.32,0.84-0.64,1.27-0.96
				c-1.06-0.29-1.26-1.62-1.34-2.56c-0.11-1.25-0.18-2.41-0.74-3.56c-0.37-0.76-1.65-0.58-1.83,0.24c-0.29,1.34-0.07,2.62,0.13,3.95
				c0.22,1.44,0.45,2.89,0.67,4.33c0.09,0.56,0.75,0.79,1.23,0.7c2.28-0.45,4.51,1.01,4.94,3.31c0.59,3.1-2.43,3.39-4.72,3.31
				c-0.54-0.02-1,0.47-1,1c0,0.95-0.01,1.91-0.01,2.86c0,0.5,0.46,1.06,1,1c3.25-0.34,10.56-1.42,9.61-6.18
				c-0.14-0.71-1.2-1-1.67-0.44c-0.91,1.06-1.92,2.02-3.07,2.82c-0.64,0.44-2.36,1.78-3.14,1.05c-0.07,0.52-0.13,1.05-0.2,1.57
				c2.34-1.06,7.27,1.51,8.07-2.14c0.77-3.52-0.44-7.38-1.44-10.72c-0.73-2.43-2.46-6.24-5.7-5.58c-3.74,0.75-0.1,5.83,1.11,7.34
				c0.7,0.88,1.8-0.12,1.67-0.97c-0.2-1.33-0.48-2.64-0.83-3.93c-0.49,0.38-0.98,0.75-1.47,1.13c0.81,0.57,1.46,1.32,1.93,2.19
				c0.21,0.39,0.37,0.8,0.5,1.23c0.07,0.23,0.13,0.46,0.16,0.7c0.01,0.1,0.03,0.2,0.04,0.3c-0.01,0.37,0.02,0.38,0.11,0.05
				c0.24-0.1,0.47-0.2,0.71-0.29c-0.15,0.01-0.72-0.7-0.84-0.81c-0.31-0.31-0.63-0.62-0.94-0.93c-0.67-0.67-1.34-1.33-2.01-2
				c-0.78-0.78-2.24,0.26-1.57,1.21c1.86,2.66,5.75,4.91,5.63,8.52c0.57-0.24,1.14-0.47,1.71-0.71c-0.23-0.22-0.46-0.45-0.7-0.67
				c0.1,0.24,0.2,0.47,0.29,0.71c0.27-2.41,0.26-4.83-0.06-7.24c-0.07-0.57-0.16-1.14-0.26-1.7c-0.04-0.24-0.09-0.48-0.14-0.71
				c-0.13-0.6,0.02-0.79-0.65-0.49c-0.71,0.31-0.4,0.38-0.2,0.95c0.09,0.28,0.18,0.55,0.25,0.84c0.17,0.65,0.26,1.3,0.3,1.97
				c0.08,1.28,2.08,1.29,2,0c-0.06-0.96-0.2-1.92-0.47-2.84c-0.21-0.72-0.46-1.65-0.99-2.21c-0.47-0.5-1.22-0.68-1.81-0.26
				c-0.59,0.41-0.66,1.11-0.54,1.77c0.34,1.99,0.72,3.91,0.76,5.94c0.02,0.97-0.01,1.94-0.08,2.9c-0.04,0.46-0.21,1.02-0.02,1.47
				c0.17,0.4,0.6,0.7,0.9,1c0.63,0.62,1.68,0.16,1.71-0.71c0.14-4.25-3.74-6.43-5.9-9.53c-0.52,0.4-1.05,0.81-1.57,1.21
				c1.24,1.24,2.44,2.58,3.75,3.74c0.87,0.77,2.39,0.9,2.63-0.55c0.19-1.19-0.38-2.68-0.91-3.72c-0.64-1.24-1.58-2.24-2.71-3.04
				c-0.74-0.52-1.69,0.34-1.47,1.13c0.36,1.3,0.63,2.61,0.83,3.93c0.56-0.32,1.11-0.65,1.67-0.97c-0.78-0.97-1.43-2.06-1.9-3.21
				c-0.18-0.45-0.54-0.83,0.1-0.75c0.48,0.06,0.95,0.37,1.3,0.68c0.87,0.79,1.27,1.93,1.61,3.02c0.38,1.2,0.73,2.42,1.03,3.64
				c0.32,1.29,0.57,2.59,0.65,3.92c0.03,0.61,0.03,1.22-0.02,1.83c-0.05,0.57,0.01,1.15-0.63,1.25c-1.1,0.17-2.26-0.08-3.36-0.14
				c-1.14-0.06-2.19,0.09-3.24,0.56c-0.58,0.26-0.64,1.16-0.2,1.57c1.3,1.21,3.05,0.77,4.46-0.03c1.74-0.99,3.29-2.31,4.58-3.83
				c-0.56-0.15-1.11-0.29-1.67-0.44c0.31,1.56-1.87,2.26-2.98,2.63c-1.53,0.51-3.1,0.85-4.71,1.02c0.33,0.33,0.67,0.67,1,1
				c0-0.95,0.01-1.91,0.01-2.86c-0.33,0.33-0.67,0.67-1,1c1.76,0.07,3.62,0.04,5.09-1.04c1.44-1.06,1.88-2.79,1.6-4.51
				c-0.56-3.55-4.02-5.68-7.45-4.99c0.41,0.23,0.82,0.47,1.23,0.7c-0.18-1.19-0.37-2.39-0.55-3.58c-0.18-1.19-0.51-2.44-0.25-3.64
				c-0.61,0.08-1.22,0.16-1.83,0.24c0.68,1.37,0.31,3.01,0.79,4.45c0.41,1.22,1.21,2.24,2.48,2.59c0.59,0.16,1.31-0.31,1.27-0.96
				c-0.13-1.97-0.41-3.93-0.84-5.86C193.09,168.06,191.16,168.6,191.44,169.85L191.44,169.85z"/>
		</g>
	</g>
	<g>
		<g>
			<path class="st1" d="M213.66,135.03c0.28,0.1,0.56,0.2,0.83,0.3c0.13,0.04,0.27,0.05,0.4,0.02c0.13-0.01,0.26-0.05,0.37-0.12
				c0.12-0.06,0.21-0.15,0.28-0.26c0.09-0.1,0.15-0.21,0.18-0.34c0.01-0.09,0.02-0.18,0.04-0.27c0-0.18-0.05-0.35-0.14-0.5
				c-0.05-0.07-0.1-0.13-0.16-0.2c-0.12-0.12-0.27-0.21-0.44-0.26c-0.28-0.1-0.56-0.2-0.83-0.3c-0.13-0.04-0.27-0.05-0.4-0.02
				c-0.13,0.01-0.26,0.05-0.37,0.12c-0.12,0.06-0.21,0.15-0.28,0.26c-0.09,0.1-0.15,0.21-0.18,0.34c-0.01,0.09-0.02,0.18-0.04,0.27
				c0,0.18,0.05,0.35,0.14,0.5c0.05,0.07,0.1,0.13,0.16,0.2C213.35,134.89,213.5,134.98,213.66,135.03L213.66,135.03z"/>
		</g>
	</g>
	<g>
		<g>
			<path class="st1" d="M220.83,137.55c-0.42-2.69-3.18-3.74-5.61-3.76c-2.87-0.02-5.34,1.14-7.56,2.88
				c-2.59,2.04-5.31,3.38-8.54,4.12c-2.87,0.66-6.43,0.49-8.36-2.07c-0.76-1.02-2.5-0.02-1.73,1.01c3.58,4.78,9.97,3.6,14.79,1.64
				c1.31-0.54,2.53-1.18,3.67-2.03c1.16-0.88,2.24-1.88,3.55-2.55c2.08-1.07,7.33-2.1,7.86,1.29
				C219.1,139.35,221.03,138.81,220.83,137.55L220.83,137.55z"/>
		</g>
	</g>
	<g>
		<g>
			<path class="st1" d="M206.09,146c1.04-1.3,2.72-2.02,4.38-1.74c1.8,0.3,3.55,1.86,4.06,3.61c0.23,0.8,0.21,1.71-0.21,2.45
				c-0.47,0.83-1.32,1.21-2.21,1.46c-1.87,0.52-4.16,0.79-5.68-0.67c-1.3-1.26-1.36-3.53,0.36-4.46c1.13-0.61,0.12-2.34-1.01-1.73
				c-2.29,1.23-2.95,4.29-1.65,6.48c1.55,2.59,4.57,3.09,7.32,2.58c1.33-0.25,2.69-0.64,3.72-1.55c0.98-0.87,1.48-2.2,1.51-3.5
				c0.05-2.74-2.1-5.23-4.53-6.24c-2.55-1.06-5.74-0.27-7.47,1.9c-0.34,0.42-0.41,1,0,1.41C205.03,146.35,205.75,146.43,206.09,146
				L206.09,146z"/>
		</g>
	</g>
	<g>
		<g>
			<path class="st1" d="M188.8,145.1c1.41,1.13,2.92,2.4,3.31,4.25c0.3,1.42-0.54,3.02-2.06,3.22c-0.54,0.07-1,0.41-1,1
				c0,0.49,0.46,1.07,1,1c2.45-0.31,4.32-2.37,4.12-4.9c-0.21-2.59-2.02-4.44-3.95-5.98c-0.42-0.34-1-0.41-1.41,0
				C188.45,144.03,188.37,144.76,188.8,145.1L188.8,145.1z"/>
		</g>
	</g>
	<g>
		<g>
			<path class="st1" d="M200.53,148.39c0.07-0.22,0.14-0.44,0.21-0.66c-0.62,0.35-1.23,0.7-1.85,1.05c1.34,0.28,2.53-0.12,3.49-1.11
				c0.83-0.85,1.25-1.87,2.37-2.41c1.97-0.96,3.96-1.22,5.31-3.13c0.82-1.15-0.53-2.45-1.69-2.2c-3.4,0.72-6.29,3.83-9.87,3.57
				c0,1,0,2,0,3c2.61,0.06,5.05-0.92,6.91-2.74c1.01-0.99,0.16-2.43-1.06-2.56c-2.48-0.26-4.38,1.36-6.72,1.76
				c-1.05,0.18-2.16,0.07-3.17-0.27c-0.58-0.2-1.06-0.58-1.62-0.8c-0.23-0.09-0.53-0.18-0.78-0.1c-0.27,0-0.27,0.04,0.02,0.11
				c0.29,0.17,0.31,0.08,0.07-0.27c-0.56-1.54-2.92-1.37-2.95,0.4c0,0.25-0.01,0.5-0.01,0.75c0.98-0.13,1.96-0.27,2.95-0.4
				c-0.16-0.85-0.46-1.63-0.87-2.4c-0.71-1.34-2.79-0.69-2.8,0.76c0,0.77-0.01,1.54-0.01,2.3c-0.01,1.93,2.98,1.93,3,0
				c0.01-0.44,0.01-0.88,0.02-1.32c-0.85,0.35-1.71,0.71-2.56,1.06c1.69,2.14,3.95,3.82,5.47,6.09c1.27,1.91,2.03,4.59,0.14,6.38
				c0.84,0.22,1.67,0.44,2.51,0.66c-0.64-1.69-0.98-3.39-1.01-5.19c-1,0-2,0-3,0c0.05,2.26-0.18,4.45-0.73,6.65
				c0.91-0.12,1.83-0.24,2.74-0.36c-0.52-0.99-0.77-1.98-0.8-3.09c-0.05-1.76-2.36-1.95-2.95-0.4c-0.48,1.26-0.73,2.54-0.87,3.87
				c1,0,2,0,3,0c-0.09-1.08-0.18-2.16-0.27-3.24c-0.12-1.49-1.94-2.04-2.8-0.76c-0.65,0.97-0.95,2.03-1,3.19c1,0,2,0,3,0
				c-0.04-0.61-0.09-1.23-0.13-1.84c-0.14-1.93-2.86-1.93-3,0c-0.14,1.97,0.41,4.1,2.4,4.9c2.1,0.85,3.61-0.7,4.83-2.22
				c1.32-1.66,2.42-3.45,3.26-5.4c0.86-1.99,1.79-4.3,1.2-6.48c-0.27-1-1.78-1.57-2.51-0.66c-3.15,3.91-2.35,9.48,1.99,12.14
				c0.76,0.47,2.05,0.06,2.2-0.9c0.53-3.19,0.94-6.4,1.25-9.61c-1,0-2,0-3,0c0.07,1.8,0.14,3.6,0.21,5.41
				c0.85-0.35,1.71-0.71,2.56-1.06c-1.88-1.84-3.77-3.68-5.65-5.52c-1.23-1.2-3.17,0.32-2.36,1.82c1.15,2.13,1.91,4.38,2.33,6.77
				c0.25,1.44,2.63,1.43,2.89,0c0.57-3.1,2.07-5.76,4.44-7.83c-0.84-0.49-1.67-0.97-2.51-1.46c-0.3,0.73-0.6,1.47-0.9,2.2
				c-0.21,0.51-0.45,1.69-0.98,1.95c-0.93,0.46-2.94-0.63-3.79-0.91c-1.29-0.43-2.72-0.57-3.39,0.91c-0.57,1.26,0.12,2.66,0.74,3.77
				c1.12,2.01,3.49,4.81,6.02,4.83c1.24,0.01,2.37-0.82,2.94-1.88c0.78-1.46,0.48-3.1,0.09-4.62c-0.84,0.49-1.67,0.97-2.51,1.46
				c2.38,1.9,4.95,3.73,7.96,4.44c3.41,0.8,6.77-0.12,10.02-1.14c1.86-0.59,1.08-3.23-0.8-2.89c-7.25,1.31-14.45,2.8-21.84,3.04
				c-1.95,0.06-1.91,2.85,0,3c2.75,0.22,5.27-0.82,7.74-1.9c0.68-0.3,0.87-1.26,0.61-1.87c-0.31-0.74-1.02-0.98-1.77-0.87
				c-1.31,0.19-2.58,0.48-3.84,0.89c-1.17,0.37-1.54,2.11-0.36,2.74c3.61,1.92,7.74,1.46,11.49,0.18c3.51-1.2,7.26-3.02,9.04-6.47
				c1.88-3.65,0.88-7.46-2.14-10.13c-1.33-1.18-2.93-2.13-4.69-2.49c-2.21-0.46-4.27,0.14-6.33,0.92c0.39,0.91,0.77,1.83,1.16,2.74
				c1.47-0.79,2.98-1.52,4.53-2.13c1.17-0.46,3.33-1.7,4.42-0.77c2.15,1.82,2.94,4.9,2.67,7.6c0.85-0.35,1.71-0.71,2.56-1.06
				c-0.99-1.26-1.04-3.1-1.65-4.54c-0.62-1.47-1.7-2.9-3.29-3.38c-1.4-0.43-3.46,0.02-3.66,1.76c-0.2,1.78,1.77,3.02,3.08,3.83
				c1.04,0.64,2.17-0.21,2.26-1.3c0.09-1.01-0.31-1.71-0.49-2.65c-0.2,0.34-0.17,0.37,0.1,0.11c0.2-0.11,0.41-0.23,0.6-0.35
				c0.29-0.19,0.59-0.41,0.82-0.66c1.29-1.41,0.6-3.58-1.16-4.19c-1.76-0.61-3.97,0.29-5.6,0.96c-1.88,0.77-3.56,1.82-5.08,3.17
				c-0.56,0.5-0.61,1.63,0,2.12c2.39,1.94,5.18,3.46,7.42,5.56c1.02,0.96,1.85,2.08,2.15,3.48c0.38,1.77,0,3.62-0.34,5.36
				c-0.19,0.98,0.69,2.33,1.85,1.85c2.18-0.91,2.73-2.94,2.87-5.13c-0.93,0.25-1.86,0.5-2.8,0.76c0.48,0.94-1.92,1.84-2.45,1.97
				c-1.2,0.31-2.44,0.33-3.67,0.33c-1.93,0.01-1.93,3.01,0,3c2.17-0.01,4.47-0.12,6.41-1.2c1.99-1.11,3.44-3.4,2.3-5.61
				c-0.73-1.41-2.71-0.63-2.8,0.76c-0.03,0.54-0.05,1.98-0.67,2.24c0.62,0.62,1.23,1.23,1.85,1.85c0.74-3.79,1.04-7.52-1.57-10.67
				c-2.27-2.75-5.69-4.42-8.43-6.64c0,0.71,0,1.41,0,2.12c1.06-0.94,2.25-1.71,3.54-2.3c0.58-0.27,1.19-0.49,1.8-0.68
				c0.44-0.14,1.67-0.23,2.01-0.48c0.22,0.05,0.26-0.04,0.1-0.27c0-0.34-0.13-0.37-0.38-0.08c-0.2,0.06-0.42,0.24-0.59,0.36
				c-0.49,0.35-0.9,0.8-1.15,1.35c-0.59,1.32,0.44,2.27,0.33,3.59c0.75-0.43,1.5-0.86,2.26-1.3c-0.43-0.26-0.91-0.8-1.35-0.99
				c-0.43-0.59-0.68-0.32-0.74,0.81c0.16,0,0.31,0.04,0.45,0.12c0.63,0.57,1.06,1.08,1.36,1.91c0.67,1.85,0.91,3.6,2.16,5.2
				c0.9,1.14,2.45,0.07,2.56-1.06c0.37-3.67-1.08-8-4.17-10.23c-1.86-1.34-3.95-0.52-5.88,0.19c-2.09,0.77-4.13,1.7-6.09,2.75
				c-1.47,0.79-0.46,3.35,1.16,2.74c1.51-0.57,3.1-1.21,4.74-0.92c1.25,0.22,2.42,0.89,3.37,1.72c1.11,0.98,2.14,2.23,2.27,3.76
				c0.11,1.33-0.43,2.68-1.21,3.73c-1.68,2.28-4.62,3.47-7.23,4.3c-2.78,0.88-5.9,1.36-8.58-0.07c-0.12,0.91-0.24,1.83-0.36,2.74
				c1.26-0.4,2.53-0.7,3.84-0.89c-0.39-0.91-0.77-1.83-1.16-2.74c-2,0.87-4.01,1.67-6.23,1.49c0,1,0,2,0,3
				c7.65-0.25,15.12-1.79,22.64-3.14c-0.27-0.96-0.53-1.93-0.8-2.89c-2.7,0.85-5.58,1.8-8.42,1.14c-2.49-0.58-4.67-2.09-6.64-3.67
				c-1.11-0.89-2.91-0.1-2.51,1.46c0.15,0.58,0.79,2.73-0.31,2.64c-0.77-0.07-1.79-1.29-2.25-1.83c-0.26-0.3-0.49-0.61-0.7-0.94
				c-0.25-0.39-0.43-1.05-0.73-1.38c-0.11-0.64-0.37-0.49-0.76,0.45c0.15,0.05,0.31,0.1,0.46,0.15c0.42,0.32,1.33,0.45,1.84,0.61
				c1.55,0.49,3.34,0.79,4.7-0.3c0.7-0.56,1.04-1.31,1.38-2.12c0.49-1.17,0.96-2.35,1.44-3.52c0.62-1.51-1.5-2.34-2.51-1.46
				c-2.71,2.37-4.56,5.61-5.21,9.15c0.96,0,1.93,0,2.89,0c-0.46-2.63-1.36-5.13-2.63-7.48c-0.79,0.61-1.57,1.21-2.36,1.82
				c1.88,1.84,3.77,3.68,5.65,5.52c0.9,0.88,2.61,0.27,2.56-1.06c-0.07-1.8-0.14-3.6-0.21-5.41c-0.08-1.96-2.82-1.9-3,0
				c-0.28,2.95-0.66,5.89-1.14,8.82c0.73-0.3,1.47-0.6,2.2-0.9c-2.57-1.58-3.32-5.03-1.39-7.43c-0.84-0.22-1.67-0.44-2.51-0.66
				c0.33,1.2-0.31,2.64-0.74,3.76c-0.46,1.22-1.07,2.39-1.76,3.49c-0.65,1.03-1.37,2.08-2.25,2.93c-1.08,1.06-1.1-1.11-1.05-1.79
				c-1,0-2,0-3,0c0.04,0.61,0.09,1.23,0.13,1.84c0.13,1.92,2.91,1.94,3,0c0.03-0.66,0.24-1.14,0.59-1.68
				c-0.93-0.25-1.86-0.5-2.8-0.76c0.09,1.08,0.18,2.16,0.27,3.24c0.16,1.94,2.81,1.92,3,0c0.11-1.07,0.38-2.07,0.76-3.07
				c-0.98-0.13-1.96-0.27-2.95-0.4c0.04,1.65,0.44,3.15,1.21,4.61c0.6,1.14,2.44,0.87,2.74-0.36c0.61-2.44,0.89-4.93,0.83-7.45
				c-0.04-1.93-3.03-1.94-3,0c0.03,2.06,0.39,4.06,1.11,5.99c0.4,1.05,1.63,1.49,2.51,0.66c2.38-2.25,2.46-5.73,1.15-8.56
				c-1.51-3.26-4.58-5.38-6.76-8.15c-0.84-1.07-2.55-0.13-2.56,1.06c-0.01,0.44-0.01,0.88-0.02,1.32c1,0,2,0,3,0
				c0-0.77,0.01-1.54,0.01-2.3c-0.93,0.25-1.86,0.5-2.8,0.76c0.29,0.55,0.45,1.08,0.57,1.68c0.32,1.7,2.92,1.25,2.95-0.4
				c0-0.25,0.01-0.5,0.01-0.75c-0.98,0.13-1.96,0.27-2.95,0.4c0.54,1.48,1.67,2.83,3.4,2.28c-0.39-0.05-0.77-0.1-1.16-0.15
				c1.89,1.18,4.12,1.69,6.33,1.39c2.23-0.3,4.25-1.98,6.52-1.74c-0.35-0.85-0.71-1.71-1.06-2.56c-1.32,1.28-2.95,1.91-4.79,1.86
				c-1.95-0.05-1.91,2.86,0,3c4.03,0.29,6.92-2.89,10.66-3.68c-0.56-0.73-1.13-1.47-1.69-2.2c-0.81,1.13-2.76,1.37-3.96,1.92
				c-0.67,0.31-1.31,0.71-1.84,1.23c-0.39,0.39-1.35,2.25-1.98,2.12c-0.82-0.17-1.59,0.23-1.85,1.05c-0.07,0.22-0.14,0.44-0.21,0.66
				C197.06,149.44,199.95,150.23,200.53,148.39L200.53,148.39z"/>
		</g>
	</g>
	<g>
		<g>
			<path class="st1" d="M214.2,131.15c-3.56-1.74-7.48-2.05-11.39-1.87c-4.36,0.2-8.72,0.77-13,1.63c0.63,0.48,1.27,0.96,1.9,1.45
				c-0.03-0.74-0.06-1.47-0.09-2.21c-0.08-1.92-3.08-1.93-3,0c0.03,0.74,0.06,1.47,0.09,2.21c0.04,1.02,0.92,1.64,1.9,1.45
				c3.89-0.78,7.83-1.3,11.8-1.5c3.47-0.18,7.09-0.12,10.28,1.44C214.42,134.58,215.94,132,214.2,131.15L214.2,131.15z"/>
		</g>
	</g>
	<g>
		<g>
			<path class="st1" d="M188.45,131.8c-0.35,2.72-0.4,5.47-0.15,8.2c0.07,0.78,0.64,1.54,1.5,1.5c0.75-0.03,1.58-0.66,1.5-1.5
				c-0.25-2.73-0.2-5.48,0.15-8.2c0.1-0.78-0.76-1.53-1.5-1.5C189.05,130.34,188.56,130.96,188.45,131.8L188.45,131.8z"/>
		</g>
	</g>
</g>
<g id="Layer_5">
	<g>
		<g>
			<path class="st2" d="M207.75,44.4c0.05,8.98,0.08,17.96,0.18,26.94c0.11,9.65,15.01,9.67,15,0c0-2.35,0-4.7-0.01-7.04
				c-5,0-10,0-15,0c0.06,10.26,0.11,20.52,0.18,30.77c0.07,9.65,14.95,9.67,15,0c0-0.83,0.01-1.66,0.01-2.48c-5,0-10,0-15,0
				c0.05,2.63,0.08,5.26,0.09,7.9c5,0,10,0,15,0c-0.03-0.25-0.06-0.5-0.09-0.76c-1.06-9.37-14.76-9.89-15,0
				c-0.04,1.11-0.05,2.22-0.03,3.33c5,0,10,0,15,0c-0.01-0.64-0.02-1.28-0.03-1.92c-0.15-9.64-15.15-9.67-15,0
				c0.01,0.64,0.02,1.28,0.03,1.92c0.15,9.64,15.06,9.68,15,0c-0.02-1.11-0.01-2.22,0.03-3.33c-5,0-10,0-15,0
				c0.03,0.25,0.06,0.5,0.09,0.76c1.06,9.35,15.03,9.9,15,0c-0.01-2.63-0.04-5.26-0.09-7.9c-0.2-9.64-14.95-9.68-15,0
				c0,0.83-0.01,1.66-0.01,2.48c5,0,10,0,15,0c-0.07-10.26-0.12-20.52-0.18-30.77c-0.06-9.65-15.01-9.67-15,0
				c0,2.35,0,4.7,0.01,7.04c5,0,10,0,15,0c-0.1-8.98-0.13-17.96-0.18-26.94C222.7,34.75,207.7,34.73,207.75,44.4L207.75,44.4z"/>
		</g>
	</g>
	<g>
		<g>
			<path class="st3" d="M222.83,40.73c-2.38-1.32-5.12-1.82-7.82-1.68c-1.35,0.07-2.7,0.28-4.01,0.6c-1.32,0.32-2.6,0.75-3.36,1.96
				c0.91,0.39,1.83,0.77,2.74,1.16c0.27-0.98,0.54-2.07,1.15-2.88c0.66-0.88,1.76-1.08,2.81-1.1c2.32-0.05,4.54,0.89,6.14,2.56
				c0.49-0.84,0.97-1.67,1.46-2.51c-1.76-0.64-3.59-1.04-5.45-1.24c-1.69-0.18-3.37-0.02-4.68,1.16c-0.6,0.54-0.55,1.57,0,2.12
				c0.6,0.6,1.52,0.54,2.12,0c0.66-0.6,2.07-0.35,2.96-0.23c1.45,0.2,2.88,0.58,4.25,1.08c1.47,0.54,2.44-1.49,1.46-2.51
				c-2.22-2.3-5.47-3.63-8.68-3.42c-1.7,0.11-3.38,0.63-4.52,1.96c-1.02,1.2-1.51,2.71-1.92,4.2c-0.46,1.66,1.84,2.59,2.74,1.16
				c0.03-0.04,0.12-0.12,0.24-0.18c0.16-0.09,0.3-0.12,0.51-0.18c0.48-0.14,0.97-0.26,1.46-0.36c0.99-0.21,1.99-0.33,3.01-0.36
				c2.04-0.06,4.07,0.28,5.87,1.28C223.01,44.26,224.52,41.67,222.83,40.73L222.83,40.73z"/>
		</g>
	</g>
	<line class="st4" x1="222.02" y1="41.54" x2="222.07" y2="109.72"/>
	<line class="st4" x1="152.63" y1="26.97" x2="152.53" y2="26.97"/>
	<g>
		<g>
			<path class="st3" d="M220.98,99.09c-1.1,0.26-2.15,0.84-3.18,1.29c-1.09,0.48-2.18,0.97-3.28,1.45s-2.18,0.97-3.28,1.45
				c-0.51,0.23-1.02,0.45-1.53,0.68c-0.55,0.24-1.1,0.44-1.46,0.95c-0.68,0.93-0.41,2.45-0.38,3.54c0.02,0.65,0.14,1.25,0.63,1.72
				c0.57,0.56,1.36,0.61,2.1,0.45c2.1-0.45,4.18-1.34,6.09-2.29c2.16-1.07,4.36-2.34,5.76-4.36c0.77-1.11-0.5-2.53-1.69-2.2
				c-2.45,0.67-4.54,2.12-6.79,3.23c-0.48,0.24-0.96,0.45-1.46,0.62c-0.66,0.23-1.36,0.35-1.93,0.78c-1.21,0.91-1.23,2.57-0.46,3.77
				c1.44,2.25,4.55,2.44,6.9,1.92c1.13-0.25,2.26-0.7,3.19-1.4c1.03-0.77,2.06-1.94,2.11-3.3c0.03-0.86-0.37-1.75-1.13-2.2
				c-0.87-0.52-1.79-0.31-2.64,0.11c-1.4,0.69-2.68,1.59-3.9,2.54c-0.52,0.4-0.54,1.3-0.23,1.82c0.33,0.56,1.06,0.89,1.69,0.69
				c1.23-0.38,2.43-0.9,3.54-1.55c1.67-0.98,0.16-3.57-1.51-2.59c-0.9,0.53-1.83,0.94-2.82,1.25c0.49,0.84,0.97,1.67,1.46,2.51
				c0.71-0.56,1.48-1.05,2.26-1.51c0.14-0.08,1.02-0.45,1.03-0.57c0-0.03-1.57-0.84-0.35-0.19c-0.11-0.06-0.21-0.11-0.32-0.17
				c-0.02-0.1-0.05-0.21-0.07-0.31c-0.05-0.04,0.2-0.1,0,0.04c0.01-0.01-0.07,0.14-0.07,0.14c-0.61,1.16-2.19,1.71-3.55,1.9
				c-0.56,0.08-1.37,0.07-1.93-0.09c-0.35-0.1-0.54-0.16-0.85-0.39c0.01,0.01-0.18-0.16-0.23-0.21c0.1,0.12-0.16-0.36-0.09-0.18
				c-0.09-0.24,0.04-0.09-0.01,0.05c-0.01,0.02-0.18,0.29-0.17,0.3c0.04,0.05-0.39-0.1,0.07-0.01c0.13,0.03,0.42-0.12,0.55-0.16
				c0.25-0.08,0.5-0.17,0.75-0.26c0.86-0.33,1.7-0.73,2.51-1.16c1.72-0.92,3.38-2,5.28-2.52c-0.56-0.73-1.13-1.47-1.69-2.2
				c-1.04,1.51-3,2.44-4.59,3.23c-0.88,0.44-1.78,0.83-2.71,1.17c-0.47,0.17-0.95,0.33-1.43,0.48c-0.27,0.09-0.55,0.17-0.83,0.24
				c-0.14,0.04-0.28,0.08-0.42,0.11c0.05,0.01,0.09,0.01,0.14,0c0.22,0.13,0.44,0.26,0.66,0.39c0.17,0.14,0.14,0.73,0.19,0.24
				c0.02-0.15,0-0.31-0.01-0.45c0-0.3-0.01-0.6-0.01-0.9c0-0.14,0.02-0.31-0.01-0.45c0.04-0.34-0.03-0.31-0.21,0.08
				c-0.26,0.28-0.31,0.37-0.13,0.27c0.22,0.01,0.63-0.28,0.84-0.37c1.2-0.53,2.4-1.06,3.61-1.6c1.17-0.52,2.33-1.03,3.5-1.55
				c1.08-0.48,2.18-1.1,3.33-1.38C223.65,101.53,222.86,98.64,220.98,99.09L220.98,99.09z"/>
		</g>
	</g>
	<g>
		<g>
			<path class="st2" d="M219.54,42.47c-2.02-1.4-4.52-1.74-6.91-1.84c-1.27-0.06-2.73-0.2-3.92,0.33c-1.31,0.58-1.33,2.01-0.88,3.18
				c0.31,0.79,1.35,1.02,1.83,0.24c0.38-0.61,1.37-0.49,1.98-0.47c1.29,0.05,1.29-1.95,0-2c-1.42-0.05-2.89,0.14-3.71,1.46
				c0.61,0.08,1.22,0.16,1.83,0.24c-0.09-0.24-0.27-0.6-0.23-0.86c0-0.01-0.11,0.11-0.05,0.04c0.05-0.05,0.2-0.07,0.27-0.08
				c0.23-0.06,0.46-0.09,0.69-0.1c1-0.07,2.03,0,3.03,0.07c1.79,0.13,3.57,0.48,5.06,1.52c0.44,0.31,1.11,0.08,1.37-0.36
				C220.19,43.34,219.98,42.78,219.54,42.47L219.54,42.47z"/>
		</g>
	</g>
</g>
<g id="Layer_7">
	<g>
		<g>
			<path class="st5" d="M34.13,102.14c15.69,0,30.73-13.8,30-30c-0.73-16.25-13.18-30-30-30c-15.69,0-30.73,13.8-30,30
				C4.85,88.39,17.31,102.14,34.13,102.14L34.13,102.14z"/>
		</g>
	</g>
	<g>
		<g>
			<path class="st5" d="M-4.62,99.71c1,5.02,2.37,9.89,4.15,14.69c4.46,12.05,15.06,22.65,28.93,22.02
				c12.8-0.57,25.94-8.83,28.93-22.02c0.62-2.75,1.45-5.36,2.52-7.96c-1.01,2.39-2.02,4.78-3.02,7.17c0.82-1.78,1.69-3.51,2.72-5.18
				c3.76-6.06-3.91,4.34-0.15,0.08c-17.07-7.07-34.14-14.14-51.21-21.21c0.25,3.25,0.49,6.49,0.74,9.74
				c0.92,12.2,6.8,22.5,18.44,27.42c10.33,4.36,25.03,2.87,32.77-6.2c1.1-1.29,2.19-2.57,3.29-3.86
				c-16.71-4.41-33.43-8.83-50.14-13.24c0.08,0.45,0.17,0.89,0.25,1.34c0-5.32,0-10.63,0-15.95c-0.1,0.44-0.2,0.89-0.31,1.33
				c-3.38,14.67,3.33,29.46,17.37,35.39c14.07,5.94,29.25,0.4,37.46-12.27c-3.29,3.86-3.88,4.65-1.79,2.39
				c-16.71-9.73-33.43-19.46-50.14-29.19c-3.16,7.75-2.03,16.17-2.58,24.28c0.36-2.66,0.71-5.32,1.07-7.98
				c-0.32,2.29-0.92,4.32-1.78,6.46c1.01-2.39,2.02-4.78,3.02-7.17c-4.3,9.36-9.07,18.36-11.04,28.58
				c-1.98,10.23-2.71,20.66-4.04,30.99c0.36-2.66,0.71-5.32,1.07-7.98c-0.79,5.68-1.89,11.23-3.77,16.65
				c18.28-2.39,36.55-4.78,54.83-7.17c-1.18-2-2.2-4.02-3.11-6.15c1.01,2.39,2.02,4.78,3.02,7.17c-1.67-4.36-2.72-8.8-3.41-13.41
				c0.36,2.66,0.71,5.32,1.07,7.98c-1.44-11.51-0.53-23.11-1.22-34.66c-19.64,2.66-39.29,5.32-58.93,7.98
				c1.1,4.89,2.01,9.8,2.72,14.77c-0.36-2.66-0.71-5.32-1.07-7.98c1.97,14.95,2.01,29.96,0.11,44.92c0.36-2.66,0.71-5.32,1.07-7.98
				c-1.51,10.88-5.26,21.92-3.78,32.93c1.16,8.6,4.22,16.23,10.33,22.57c7.24,7.52,15.81,10.06,25.93,11.12
				c-2.66-19.64-5.32-39.29-7.98-58.93c-8.41,1.65-15.83,6.44-22.02,12.19c15.71,12.12,31.41,24.24,47.12,36.35
				c9-15.07,15.84-31.78,19.73-48.91c-16.71,4.41-33.43,8.83-50.14,13.24c-5.8-7.22-1.79-1.95-0.75,0.49
				c-1.01-2.39-2.02-4.78-3.02-7.17c0.17,0.48,0.34,0.97,0.51,1.45c5,14.21,17.52,23.56,32.92,21.49
				c15.11-2.03,25.29-14.39,26.01-29.46c0.24-4.95,0.48-9.91,0.72-14.86c-18.63,5.05-37.27,10.09-55.9,15.14
				c0.88,1.43,1.61,2.81,2.3,4.35c-1.01-2.39-2.02-4.78-3.02-7.17c1.19,3.13,1.91,6.28,2.41,9.58c-0.36-2.66-0.71-5.32-1.07-7.98
				c2.05,16.55,0.93,34.67,11.67,48.68c4.74,6.19,9.86,11.95,17.93,13.79c6.71,1.53,13.16,1.18,19.53-1.51
				c14.03-5.92,20.75-20.64,17.37-35.39c-2.05-8.94-4.37-17.8-6.97-26.59c-18.28,7.71-36.55,15.41-54.83,23.12
				c1.01,2.18,1.99,4.37,2.93,6.58c-1.01-2.39-2.02-4.78-3.02-7.17c1.54,3.86,2.73,7.67,3.32,11.79c-0.36-2.66-0.71-5.32-1.07-7.98
				c1.33,11.8,1.41,23.98,8.55,34.14c7.43,10.58,20.58,18.09,33.88,13.79c4.95-1.6,9.41-4.2,13.24-7.72
				c4.98-4.57,9.51-14.34,8.79-21.21c-0.84-7.93-2.13-14.92-4.99-22.29c-1.99-5.12-4.03-10.15-4.86-15.61
				c0.36,2.66,0.71,5.32,1.07,7.98c-0.15-1.57-0.21-3.04-0.18-4.62c-18.63,5.05-37.27,10.09-55.9,15.14
				c0.91,1.38,1.62,2.69,2.29,4.2c-1.01-2.39-2.02-4.78-3.02-7.17c0.93,2.56,1.51,5.12,1.93,7.81c-0.36-2.66-0.71-5.32-1.07-7.98
				c1.07,8.27,1.54,16.62,3.25,24.8c1.75,8.37,5.11,16.21,8.6,23.98c2.77,6.17,11.51,12.33,17.93,13.79
				c6.71,1.53,13.16,1.18,19.53-1.51c14.4-6.08,20.21-20.48,17.37-35.39c-1.92-10.06-4.77-19.85-8.55-29.36
				c-2.99-7.52-6.55-13.69-13.79-17.93c-6.43-3.76-15.91-5.36-23.12-3.02c-7.26,2.35-14.26,6.85-17.93,13.79
				c-3.53,6.69-5.95,15.76-3.02,23.12c3.78,9.52,6.63,19.3,8.55,29.36c18.28-7.71,36.55-15.41,54.83-23.12
				c-0.5-1.07-0.97-2.16-1.42-3.25c1.01,2.39,2.02,4.78,3.02,7.17c-2.41-6.1-4.09-12.32-5.07-18.81c0.36,2.66,0.71,5.32,1.07,7.98
				c-1.71-13.41-1.87-27.01-9.58-38.73c-7.07-10.76-20.86-18-33.88-13.79c-12.82,4.15-21.7,15.26-22.02,28.93
				c-0.19,8.1,1.52,16.24,4.38,23.78c2.15,5.66,4.53,11.17,5.49,17.19c-0.36-2.66-0.71-5.32-1.07-7.98
				c0.05,0.52,0.11,1.03,0.16,1.55c18.63-5.05,37.27-10.09,55.9-15.14c-0.9-1.28-1.55-2.45-2.17-3.88c1.01,2.39,2.02,4.78,3.02,7.17
				c-0.65-1.93-1.07-3.83-1.38-5.84c0.36,2.66,0.71,5.32,1.07,7.98c-0.84-7.13-1.05-14.4-2.74-21.4
				c-1.79-7.43-5.32-14.48-8.51-21.39c-2.85-6.17-11.45-12.31-17.93-13.79c-6.71-1.53-13.16-1.18-19.53,1.51
				c-13.42,5.66-21.63,20.94-17.37,35.39c2.59,8.79,4.92,17.65,6.97,26.59c18.28-7.71,36.55-15.41,54.83-23.12
				c-1.27-1.66-2.3-3.33-3.21-5.21c1.01,2.39,2.02,4.78,3.02,7.17c-1.42-3.4-2.24-6.83-2.8-10.47c0.36,2.66,0.71,5.32,1.07,7.98
				c-2.06-16.26-1.4-32.39-10.37-46.93c-6.73-10.91-21.12-17.92-33.88-13.79c-13.04,4.22-21.36,15.22-22.02,28.93
				c-0.24,4.95-0.48,9.91-0.72,14.86c19.64-2.66,39.29-5.32,58.93-7.98c-3.1-8.8-6.37-14.02-12.17-21.25
				c-6.49-8.08-19.74-10.32-29.19-7.72c-9.73,2.68-18.67,10.89-20.95,20.95c-1.87,8.25-4.42,16.25-7.67,24.06
				c1.01-2.39,2.02-4.78,3.02-7.17c-2.63,6.1-5.63,11.98-9.03,17.68c-7.69,12.89-3.88,29.73,7.73,38.7
				c12.01,9.28,28.33,7.93,39.39-2.35c-5.55,5.15-4.14,2.83-1.4,1.43c-2.39,1.01-4.78,2.02-7.17,3.02c1.39-0.56,2.64-0.93,4.11-1.21
				c6.77-1.33,14.75-7.76,17.93-13.79c3.2-6.06,4.48-12.31,3.56-19.13c-0.85-6.29-3.43-12.8-8.25-17.23
				c-6.2-5.69-12.87-7.92-21.21-8.79c-0.45-0.05-0.9-0.09-1.35-0.14c2.66,0.36,5.32,0.71,7.98,1.07c-0.42-0.16-0.83-0.31-1.25-0.47
				c2.39,1.01,4.78,2.02,7.17,3.02c7.19,8.92,9.59,11.13,7.2,6.63c1.01,2.39,2.02,4.78,3.02,7.17c-0.36-0.94-0.58-1.92-0.64-2.93
				c0.36,2.66,0.71,5.32,1.07,7.98c-0.07-1.07-0.04-2.15,0.1-3.21c-0.36,2.66-0.71,5.32-1.07,7.98c2.33-15.45,5.52-30.6,5.66-46.31
				c0.14-15.76-1.88-31.72-5.35-47.07c-3.28-14.56-18.87-23.38-32.92-21.49c-13.94,1.87-26.91,14.51-26.01,29.46
				c0.63,10.39-0.15,20.83,0.83,31.2c1.28,13.58,3.97,26.27,11.01,38.17c6.16,10.4,18.05,15.91,29.89,14.32
				C43.3,203.82,52,195.48,56,183.98c4.64-13.36,5.01-27.82,6.85-41.74c-0.36,2.66-0.71,5.32-1.07,7.98
				c0.89-6.22,2.17-12.25,4.51-18.09c-1.01,2.39-2.02,4.78-3.02,7.17c2.98-6.72,7.16-13.18,8.84-20.39
				c1.74-7.45,1.13-14.62,1.71-22.07c-0.36,2.66-0.71,5.32-1.07,7.98c0.27-1.7,0.64-3.06,1.29-4.66c0.36-2.66,0.71-5.32,1.07-7.98
				c0.16-4.13-0.71-7.98-2.58-11.56c-2.43-5.76-6.59-11.34-12.27-14.35c-11.6-6.13-26.96-5.24-36.35,4.69
				c-2.83,2.99-5.35,6.31-7.59,9.76c18.28,7.71,36.55,15.41,54.83,23.12c1.58-6.83,1.35-11.78,0.05-18.62
				c-4.07-21.45-36.02-29.81-50.14-13.24c-1.1,1.29-2.19,2.57-3.29,3.86c17.07,7.07,34.14,14.14,51.21,21.21
				c-0.25-3.25-0.49-6.49-0.74-9.74c-0.92-12.2-6.8-22.5-18.44-27.42c-10.47-4.42-24.86-2.78-32.77,6.2
				c-8.3,9.42-14.7,20-17.5,32.38c19.29,0,38.57,0,57.86,0c-1.78-4.8-3.15-9.67-4.15-14.69c-3.06-15.42-22.27-25.69-36.9-20.95
				C-0.06,68.11-7.9,83.18-4.62,99.71L-4.62,99.71z"/>
		</g>
	</g>
	<g>
		<g>
			<path class="st5" d="M71.72,40.68c-0.61-0.87-1.14-1.78-1.6-2.73c1.01,2.39,2.02,4.78,3.02,7.17c-0.16-0.5-0.33-0.99-0.49-1.49
				c0.36,2.66,0.71,5.32,1.07,7.98c-0.03-0.4-0.07-0.79-0.1-1.19c-0.36,2.66-0.71,5.32-1.07,7.98c0.06-0.39,0.12-0.79,0.18-1.18
				c-1.01,2.39-2.02,4.78-3.02,7.17c-2.78,2.77-5.57,5.55-8.35,8.32c-5.05,1.37-10.09,2.73-15.14,4.1c0.41-0.03,0.82-0.07,1.22-0.1
				c-2.66-0.36-5.32-0.71-7.98-1.07c2.29,0.36,4.42,1.29,6.72,1.61c8.36,1.15,15.51,1.43,23.12-3.02
				c6.22-3.64,12.16-10.78,13.79-17.93c3.86-16.93-5.14-31.13-20.95-36.9c-0.46-0.17-0.93-0.34-1.39-0.51
				c2.39,1.01,4.78,2.02,7.17,3.02c-1.37-0.59-2.63-1.35-3.98-1.97c-4.71-2.18,5.49,5.19,0.81,0.62c-4.44-4.33,2.33,4.03,0.91,1.53
				c-0.86-1.52-1.74-2.95-2.47-4.54c1.01,2.39,2.02,4.78,3.02,7.17c-0.18-0.46-0.36-0.92-0.54-1.38
				C63.2,17.01,60.4,11.96,54.92,7.72c-5.06-3.91-11.61-6.74-18.18-6.44C23.71,1.86,11.13,10.14,7.81,23.3
				c-1.33,5.27-3.02,10.39-5.09,15.41c19.64,2.66,39.29,5.32,58.93,7.98c0.26-2.35,0.51-4.7,0.77-7.04
				c0.75-6.86-3.83-16.66-8.79-21.21c-4.96-4.55-10.53-7.35-17.23-8.25C21.57,8.19,7.83,17.24,3.49,31.67
				c-4.13,13.74-6.34,28.1-7.19,42.41c-0.93,15.69,14.47,30.7,30,30c17.05-0.76,29-13.19,30-30c0.22-3.69,0.56-7.36,1.01-11.02
				c-0.36,2.66-0.71,5.32-1.07,7.98c1.1-7.94,2.79-15.73,5.1-23.41C41.7,44.96,22.06,42.3,2.42,39.64c-0.26,2.35-0.51,4.7-0.77,7.04
				C0.9,53.54,5.48,63.35,10.43,67.9c4.96,4.55,10.53,7.35,17.23,8.25c6.4,0.86,13.54,0.04,19.13-3.56
				c7-4.52,10.63-10.29,13.79-17.93c2.07-5.02,3.76-10.14,5.09-15.41c-19.29,0-38.57,0-57.86,0c3.54,9.03,7.44,16.8,14.51,23.71
				c7,6.84,14.77,10.94,23.86,14.26c5.32-19.29,10.63-38.57,15.95-57.86c-5.16-0.71-9.13-2.61-14.7-2.68
				c-8.76-0.1-17.8,3.65-23.98,9.85c-11.89,11.94-12.44,30.61-3.55,44.43c8.48,13.19,27.03,19.8,41.05,10.76
				C74.14,73.23,80.8,54.8,71.72,40.68L71.72,40.68z"/>
		</g>
	</g>
	<g>
		<g>
			<path class="st5" d="M94.69,87.14c-0.8-4.27-1.6-8.53-2.4-12.8c-8.36,4.86-16.71,9.73-25.07,14.59c1.21,1.38,1.83,2.24,3.03,4.13
				c3.98,6.27,11.78,9.19,18.73,6.14c6.42-2.82,11.2-10.53,8.68-17.7c-3.91-11.15-7.03-22.55-9.19-34.17
				c-2.36-12.71-6.81-25.16-20.75-28.86C60.14,16.46,51.08,21,49.27,28.95c-1.79,7.87,2.36,16.3,10.48,18.45
				c-0.66-0.33-1.26-0.74-1.81-1.23c-0.83-1.22-0.8-1.08,0.1,0.42c-0.25-1.86,0.32,2.2,0.42,2.65c0.94,4.51,1.61,9.07,2.61,13.57
				c2,9.04,4.59,17.93,7.66,26.66c9.14-3.85,18.28-7.71,27.42-11.56c-2.28-3.6-4.9-7-7.72-10.2c-4.35-4.94-12.7-5.55-18.18-2.35
				c-6.05,3.54-8.13,10.34-6.89,16.94c0.8,4.27,1.6,8.53,2.4,12.8c1.5,7.97,11.11,12.5,18.45,10.48
				C92.56,103.3,96.19,95.13,94.69,87.14L94.69,87.14z"/>
		</g>
	</g>
	<g>
		<g>
			<path class="st5" d="M92.04,118.88c1.36,0.03,0.58-0.07,1.89,0.28c3.92,1.03,8.14-1.3,9.23-5.24c1.15-4.2-1.43-7.8-5.24-9.23
				c-2.46-0.92-4.92-1.84-7.38-2.76c-1.92-0.72-4.29-1.25-5.98-2.42c0.9,0.9,1.79,1.79,2.69,2.69c-0.14-0.23-0.29-0.47-0.43-0.7
				c-2.82,3.67-5.65,7.34-8.47,11.02c4.29,1.12,8.19,2.7,12.03,4.93c8.37,4.85,15.93-8.1,7.57-12.95
				c-4.88-2.83-10.15-5.02-15.61-6.44c-6.17-1.6-11.98,5.34-8.47,11.02c2.32,3.75,5.94,4.8,9.84,6.26
				c3.41,1.28,6.81,2.55,10.22,3.83c1.33-4.82,2.66-9.64,3.99-14.46c-1.91-0.5-3.9-0.77-5.88-0.81
				C82.38,103.67,82.39,118.67,92.04,118.88L92.04,118.88z"/>
		</g>
	</g>
	<g>
		<g>
			<path class="st5" d="M90.35,117.81c5.74,3.02,11.21,6.47,16.23,10.58c3.03-3.93,6.06-7.85,9.09-11.78
				c-5.85-3.53-11.71-7.07-17.56-10.6c-1.93,4.57-3.85,9.14-5.78,13.71c6.66,2.39,13.33,4.78,19.99,7.17
				c2.88,1.03,5.68,2.13,8.75,2.42c3.38,0.32,6.63-0.76,10-0.36c6.54,0.77,9.79-8.67,5.3-12.8c-6.09-5.61-13.31-8.62-20.58-12.3
				c-7.08-3.59-12.58-8.27-16.55-15.23c-2.82,3.67-5.65,7.34-8.47,11.02c-1.17-0.48-0.86-1.02-0.66-0.09
				c0.21,0.96,1.99,2.64,2.66,3.46c1.54,1.9,3.21,3.69,5.03,5.32c3.75,3.37,8.07,5.6,12.09,8.54c3.44,2.51,4.97,7.23,7.49,10.62
				c3.05,4.11,6.2,8.83,11.06,10.75c2.3,0.91,5.7-0.11,7.3-1.93c0.09-0.11,0.19-0.21,0.28-0.32c-4.18-1.1-8.36-2.21-12.54-3.31
				c0.02,0.72,0.02,1.43-0.02,2.15c-0.16,6.01,6.4,8.91,11.29,6.48c1.71-0.85,2.91-2.06,3.77-3.76c4.45-8.74-7.32-15.29-12.95-7.57
				c-0.98,1.34-1.49,2.66-2.03,4.23c4.18-1.1,8.36-2.21,12.54-3.31c-7.06-5.89-14.7-10.27-23.4-13.29
				c-9.14-3.17-13.06,11.31-3.99,14.46c6.11,2.12,11.81,5.29,16.78,9.44c4.46,3.72,10.58,2.29,12.54-3.31
				c0.17-0.21,0.35-0.43,0.52-0.64c-4.32-2.52-8.63-5.05-12.95-7.57c0.54-0.54,1.07-1.08,1.61-1.62c3.76,2.16,7.52,4.32,11.29,6.48
				c0.05-2.09-0.21-4.07-0.51-6.14c-0.81-5.53-9.08-7.25-12.54-3.31c-0.09,0.11-0.19,0.21-0.28,0.32c2.43-0.64,4.86-1.29,7.3-1.93
				c1.93,0.76,1.18,0.33,0.41-0.86c-0.71-1.09-1.77-2.06-2.57-3.11c-1.49-1.94-2.71-4.01-3.93-6.13
				c-2.62-4.56-5.76-7.82-10.22-10.61c-3.89-2.43-7.46-4.82-10.6-8.21c-3.6-3.87-5.63-7.6-10.75-9.69
				c-6.37-2.6-11.43,5.82-8.47,11.02c4.29,7.53,10.31,13.85,17.74,18.33c7.1,4.28,15.55,6.55,21.73,12.24
				c1.77-4.27,3.54-8.54,5.3-12.8c-2.92-0.34-5.71,0.77-8.57,0.51c-2.62-0.25-5.48-1.77-7.93-2.65c-6.08-2.18-12.17-4.36-18.25-6.54
				c-8.18-2.93-12.87,9.43-5.78,13.71c5.85,3.53,11.71,7.07,17.56,10.6c7.1,4.29,15.81-6.27,9.09-11.78
				c-6.03-4.94-12.36-9.3-19.26-12.93C89.38,100.38,81.79,113.32,90.35,117.81L90.35,117.81z"/>
		</g>
	</g>
	<g>
		<g>
			<path class="st5" d="M44.82-3.27C41.93-3.85,39-4.28,36.06-4.51c-1.24-0.1-2.48-0.14-3.73-0.16c-0.55-0.01-1.1-0.01-1.65,0
				c-1.33-0.11-1.37-0.05-0.12,0.2c-3.65-1.74-8.1-1.01-10.26,2.69c-1.91,3.27-0.98,8.51,2.69,10.26
				c5.59,2.67,11.88,1.52,17.84,2.72c3.97,0.79,8.1-1.14,9.23-5.24C51.08,2.26,48.81-2.47,44.82-3.27L44.82-3.27z"/>
		</g>
	</g>
	<g>
		<g>
			<path class="st5" d="M50.36,12.79c0.77-0.06,1.53-0.09,2.31-0.07c0.38,0.01,2.69,0.3,0.96,0.02c1.33-4.82,2.66-9.64,3.99-14.46
				c-2.98-0.46-5.94-1.04-8.88-1.73c-3.81-0.9-8.3,1.19-9.23,5.24c-0.88,3.84,1.15,8.26,5.24,9.23c2.94,0.69,5.9,1.27,8.88,1.73
				c3.86,0.6,8.26-0.98,9.23-5.24c0.82-3.59-1.09-8.57-5.24-9.23c-2.43-0.38-4.8-0.67-7.25-0.48c-3.9,0.29-7.69,3.24-7.5,7.5
				C43.03,9.11,46.17,13.11,50.36,12.79L50.36,12.79z"/>
		</g>
	</g>
	<g>
		<g>
			<path class="st5" d="M54.73,135.93c1.91,5.93,3.46,12,4.27,18.19c4.91-0.66,9.82-1.33,14.73-1.99c-0.45-3.03-0.9-6.06-1.35-9.09
				c-0.18-1.21-0.36-2.42-0.54-3.63c-0.11-0.74-0.12-3.98-0.77-3.13c-4.66-1.26-9.32-2.52-13.98-3.79
				c1.17,10.61,2.35,21.23,3.52,31.84c1.05,9.51,14.25,9.77,15,0c0.17-2.24,0.34-4.48,0.52-6.72c-3.76,2.16-7.52,4.32-11.29,6.48
				c6.19,2.73,9.96,9.55,15.48,13.45c6.09,4.3,14.39-4.19,10.26-10.26c-4.2-6.17-9.03-11.68-14.82-16.39
				c-7.49-6.11-16.81,3.12-10.61,10.61c5.19,6.26,12.81,9.79,18.52,15.55c5.54,5.59,11.11,12.85,10.42,21.1
				c4.66-1.26,9.32-2.52,13.98-3.79c-7.75-11.79-17.02-22.39-27.86-31.44c-7.36-6.14-18.03,4.41-10.61,10.61
				c9.86,8.23,18.46,17.66,25.52,28.4c4.23,6.44,13.36,3.62,13.98-3.79c0.89-10.68-4.95-20.31-11.59-28.18
				c-6.32-7.5-15.58-11.63-21.74-19.07c-3.54,3.54-7.07,7.07-10.61,10.61c4.78,3.9,9,8.25,12.47,13.36
				c3.42-3.42,6.84-6.84,10.26-10.26c-5.74-4.05-8.76-10.48-15.48-13.45c-5.36-2.37-10.82,0.43-11.29,6.48
				c-0.17,2.24-0.34,4.48-0.52,6.72c5,0,10,0,15,0c-1.17-10.61-2.35-21.23-3.52-31.84c-0.85-7.69-9.34-9.83-13.98-3.79
				c-2.91,3.79-1.66,8.53-1.01,12.87c0.72,4.85,1.44,9.69,2.16,14.54c1.23,8.27,15.83,6.4,14.73-1.99
				c-0.99-7.56-2.46-14.9-4.8-22.17C66.25,122.79,51.76,126.7,54.73,135.93L54.73,135.93z"/>
		</g>
	</g>
	<g>
		<g>
			<path class="st5" d="M25.74,242.79c-4.19-0.47-8.38-0.94-12.57-1.4c-1.93-0.22-3.87-0.43-5.8-0.65c-0.97-0.11-1.93-0.22-2.9-0.32
				c-2.21-0.51-1.83,0.3,1.11,2.43c-0.73,1.77-1.46,3.54-2.2,5.3c0.11-0.09,0.21-0.19,0.32-0.28c-2.43,0.64-4.86,1.29-7.3,1.93
				c0.13,0.02,0.26,0.04,0.39,0.06c4.04,0.59,8.01-1.01,9.23-5.24c1.01-3.52-1.23-8.64-5.24-9.23
				c-11.07-1.63-13.51,12.65-4.97,17.88c3.87,2.37,9.1,2.19,13.49,2.68c5.48,0.61,10.96,1.22,16.43,1.83c4.03,0.45,7.5-3.77,7.5-7.5
				C33.24,245.86,29.78,243.24,25.74,242.79L25.74,242.79z"/>
		</g>
	</g>
	<g>
		<g>
			<path class="st5" d="M74.59,233.66c0.97,6.37,2.16,12.7,3.58,18.99c2.13,9.41,16.59,5.43,14.46-3.99
				c-1.42-6.29-2.61-12.61-3.58-18.99c-0.61-4.01-5.65-6.22-9.23-5.24C75.54,225.61,73.98,229.64,74.59,233.66L74.59,233.66z"/>
		</g>
	</g>
	<g>
		<g>
			<path class="st5" d="M62.28,4.36c0.08,0.03,0.18,0.04,0.27,0.05c0.26,0.03,0.37,0.06,0.66-0.03c0.01,0,0.02,0,0.03-0.01
				c0.04-0.01,0.33-0.13,0.37-0.15c0,0,0.01,0,0.01-0.01c0.13-0.07,0.24-0.17,0.34-0.27c0.04-0.04,0.19-0.24,0.13-0.16
				c-0.05,0.07,0.09-0.11,0.12-0.16c0.01-0.01,0.01-0.02,0.02-0.03c0.06-0.1,0.12-0.27,0.16-0.38c0-0.01,0.01-0.03,0.01-0.04
				c0-0.01,0.01-0.03,0.01-0.04c0.03-0.14,0.04-0.28,0.06-0.42c0-0.03,0.01-0.06,0-0.09c-0.01-0.16-0.03-0.32-0.06-0.47
				c-0.01-0.03-0.01-0.06-0.02-0.09c-0.05-0.18-0.12-0.36-0.22-0.52c-0.01-0.01-0.01-0.02-0.02-0.03c-0.07-0.11-0.17-0.23-0.25-0.33
				c-0.02-0.03-0.04-0.05-0.07-0.07c-0.1-0.08-0.21-0.18-0.32-0.25c-0.01-0.01-0.03-0.02-0.04-0.02C63.31,0.76,63.15,0.7,63,0.65
				c-0.18-0.07-0.36-0.11-0.54-0.19c0.12,0.05,0.24,0.1,0.36,0.15c-0.08-0.03-0.15-0.07-0.22-0.12c0.1,0.08,0.2,0.16,0.3,0.23
				c-0.04-0.03-0.07-0.06-0.1-0.1c0.08,0.1,0.16,0.2,0.23,0.3c-0.02-0.03-0.04-0.06-0.05-0.09c0.05,0.12,0.1,0.24,0.15,0.36
				c-0.01-0.03-0.02-0.06-0.03-0.09c-0.05-0.2-0.14-0.37-0.27-0.51c-0.11-0.16-0.25-0.29-0.42-0.39c-0.17-0.11-0.36-0.17-0.56-0.18
				c-0.2-0.04-0.4-0.04-0.6,0.03c-0.12,0.05-0.24,0.1-0.36,0.15c-0.23,0.13-0.4,0.31-0.54,0.54c-0.05,0.12-0.1,0.24-0.15,0.36
				c-0.07,0.27-0.07,0.53,0,0.8c0.01,0.03,0.01,0.05,0.02,0.08c0.04,0.12,0.1,0.26,0.16,0.37c0.01,0.01,0.01,0.02,0.02,0.03
				c0.08,0.15,0.19,0.29,0.31,0.41c0.15,0.16,0.34,0.3,0.55,0.39c0.22,0.1,0.43,0.19,0.65,0.26c0.11,0.04,0.22,0.07,0.33,0.12
				c-0.12-0.05-0.24-0.1-0.36-0.15c0.03,0.01,0.06,0.03,0.09,0.05c-0.1-0.08-0.2-0.16-0.3-0.23c0.03,0.02,0.06,0.05,0.08,0.08
				c-0.08-0.1-0.16-0.2-0.23-0.3c0.03,0.04,0.05,0.08,0.07,0.13c-0.05-0.12-0.1-0.24-0.15-0.36c0.02,0.05,0.04,0.11,0.05,0.17
				c-0.02-0.13-0.04-0.27-0.05-0.4c0.01,0.05,0.01,0.11,0,0.16c0.02-0.13,0.04-0.27,0.05-0.4c-0.01,0.04-0.01,0.07-0.03,0.11
				c0.05-0.12,0.1-0.24,0.15-0.36c-0.01,0.02-0.02,0.03-0.03,0.05c0.08-0.1,0.16-0.2,0.23-0.3c-0.01,0.01-0.02,0.02-0.03,0.03
				c0.1-0.08,0.2-0.16,0.3-0.23c-0.01,0.01-0.02,0.01-0.03,0.02c0.12-0.05,0.24-0.1,0.36-0.15c-0.01,0.01-0.03,0.01-0.04,0.01
				c0.13-0.02,0.27-0.04,0.4-0.05c-0.02,0-0.03,0-0.05,0c0.13,0.02,0.27,0.04,0.4,0.05c-0.02,0-0.05-0.01-0.07-0.02
				c-0.2-0.06-0.4-0.07-0.6-0.03c-0.2,0.01-0.39,0.07-0.56,0.18C61.75,1.71,61.61,1.84,61.5,2c-0.13,0.14-0.22,0.31-0.27,0.51
				c-0.02,0.13-0.04,0.27-0.05,0.4c0,0.27,0.07,0.52,0.2,0.76c0.08,0.1,0.16,0.2,0.23,0.3C61.8,4.16,62.02,4.29,62.28,4.36
				L62.28,4.36z"/>
		</g>
	</g>
	<g>
		<g>
			<path class="st5" d="M134.18,119.76c2.02,0.81,4.1,1.44,6.23,1.87c0.77,0.15,1.66-0.22,1.85-1.05c0.19-0.84-0.25-1.57-1.05-1.85
				c-0.15-0.05-0.31-0.11-0.46-0.17c-0.08-0.03-0.17-0.06-0.25-0.1c0.09,0.04,0.23,0.1,0.06,0.02c-0.31-0.14-0.62-0.29-0.92-0.46
				c-0.59-0.32-1.14-0.69-1.67-1.1c-0.5,0.86-1.01,1.73-1.51,2.59c0.92,0.58,1.98,0.87,3.06,0.92c-0.48-0.63-0.96-1.27-1.45-1.9
				c-0.05,0.19-0.1,0.37-0.16,0.55c-0.03,0.09-0.07,0.18-0.1,0.27c-0.1,0.27,0.14-0.29,0-0.01c-0.17,0.33-0.34,0.65-0.55,0.96
				c-0.01,0.01-0.14,0.2-0.14,0.19c0.14-0.18,0.16-0.2,0.06-0.08c-0.02,0.02-0.04,0.05-0.06,0.07c-0.12,0.15-0.26,0.29-0.39,0.42
				c-0.14,0.13-0.28,0.26-0.43,0.38c-0.21,0.18,0.19-0.13,0.04-0.03c-0.09,0.06-0.18,0.13-0.28,0.19c-0.66,0.43-0.99,1.35-0.54,2.05
				c0.42,0.65,1.35,1,2.05,0.54c1.67-1.09,2.92-2.77,3.4-4.72c0.24-0.97-0.46-1.86-1.45-1.9c-0.06,0-0.27-0.04-0.32-0.02
				c0.06-0.02,0.3,0.05,0.08,0.01c-0.19-0.04-0.38-0.08-0.57-0.14c-0.08-0.03-0.17-0.06-0.25-0.09c-0.26-0.09,0.18,0.09,0.02,0.01
				c-0.17-0.09-0.34-0.18-0.51-0.28c-0.67-0.42-1.68-0.16-2.05,0.54c-0.18,0.35-0.28,0.77-0.15,1.16c0.13,0.4,0.36,0.64,0.69,0.9
				c1.2,0.92,2.54,1.61,3.96,2.11c0.27-0.96,0.53-1.93,0.8-2.89c-2.13-0.43-4.22-1.05-6.23-1.87c-0.34-0.14-0.86-0.02-1.16,0.15
				c-0.31,0.18-0.61,0.54-0.69,0.9C132.94,118.78,133.4,119.44,134.18,119.76L134.18,119.76z"/>
		</g>
	</g>
	<g>
		<g>
			<path class="st5" d="M25.76-5.4c-0.55-0.76-1.32-1.35-2.27-1.5c-0.98-0.16-1.91-0.03-2.79,0.43c-1.76,0.9-2.41,3.09-1.83,4.91
				c0.36,1.12,1.05,2.03,2.01,2.71c0.3,0.21,0.81,0.25,1.16,0.15c0.35-0.1,0.72-0.36,0.9-0.69c0.18-0.35,0.28-0.77,0.15-1.16
				c-0.13-0.39-0.35-0.66-0.69-0.9c-0.05-0.04-0.1-0.07-0.15-0.11c0.1,0.08,0.2,0.16,0.3,0.23c-0.23-0.18-0.43-0.38-0.6-0.61
				c0.08,0.1,0.16,0.2,0.23,0.3c-0.19-0.25-0.34-0.51-0.46-0.8c0.05,0.12,0.1,0.24,0.15,0.36c-0.12-0.29-0.2-0.58-0.24-0.88
				c0.02,0.13,0.04,0.27,0.05,0.4c-0.03-0.26-0.03-0.52,0-0.78c-0.02,0.13-0.04,0.27-0.05,0.4c0.03-0.24,0.1-0.47,0.19-0.69
				c-0.05,0.12-0.1,0.24-0.15,0.36c0.08-0.17,0.17-0.34,0.28-0.49c-0.08,0.1-0.16,0.2-0.23,0.3c0.12-0.15,0.25-0.29,0.41-0.41
				c-0.1,0.08-0.2,0.16-0.3,0.23C22-3.77,22.19-3.88,22.4-3.97c-0.12,0.05-0.24,0.1-0.36,0.15c0.23-0.09,0.47-0.16,0.71-0.19
				c-0.13,0.02-0.27,0.04-0.4,0.05c0.23-0.03,0.45-0.03,0.68,0c-0.13-0.02-0.27-0.04-0.4-0.05c0.2,0.03,0.4,0.08,0.59,0.16
				c-0.12-0.05-0.24-0.1-0.36-0.15c0.16,0.07,0.3,0.15,0.44,0.25c-0.1-0.08-0.2-0.16-0.3-0.23c0.12,0.1,0.23,0.2,0.33,0.32
				c-0.08-0.1-0.16-0.2-0.23-0.3c0.02,0.03,0.04,0.06,0.06,0.08c0.23,0.33,0.5,0.58,0.9,0.69c0.36,0.1,0.84,0.05,1.16-0.15
				C25.85-3.76,26.25-4.72,25.76-5.4L25.76-5.4z"/>
		</g>
	</g>
	<g>
		<g>
			<path class="st5" d="M-81.78,11.89c1.93,0,1.93-3,0-3C-83.71,8.89-83.71,11.89-81.78,11.89L-81.78,11.89z"/>
		</g>
	</g>
	<g>
		<g>
			<path class="st5" d="M70.19,126.68c0.27-1.59,0.55-3.17,0.82-4.76c0.07-0.4,0.13-0.8,0.2-1.19c0.02-0.09,0.12-0.36,0.11-0.44
				c0.04,0.26-1.32,0.17-1.45,0.27c-0.17,0.12,0-0.51-0.05,0.03c0-0.03,0.03,0.21,0.02,0.15c0.07,0.43,0.08,0.88,0.11,1.31
				c0.23,3.22,0.12,6.46-0.31,9.66c-0.11,0.8,0.77,1.5,1.5,1.5c0.9,0,1.39-0.69,1.5-1.5c0.28-2.06,0.42-4.12,0.43-6.2
				c0-1.04-0.03-2.07-0.1-3.11c-0.06-0.92-0.05-1.96-0.34-2.85c-0.32-0.98-1.11-1.77-2.2-1.75c-1.11,0.02-1.86,0.97-2.09,1.97
				c-0.46,2-0.7,4.07-1.05,6.1c-0.14,0.8,0.21,1.62,1.05,1.85C69.07,127.92,70.05,127.48,70.19,126.68L70.19,126.68z"/>
		</g>
	</g>
	<g>
		<g>
			<path class="st5" d="M67.01,2.32c-0.06-1.92-2.37-2.64-3.7-1.39c-0.51,0.48-0.8,1.15-1.11,1.76c-0.33,0.66-0.66,1.33-0.97,2.01
				c-1.23,2.65-2.29,5.38-3.17,8.17c-0.24,0.77,0.29,1.64,1.05,1.85c0.81,0.22,1.6-0.27,1.85-1.05c0.61-1.93,1.3-3.84,2.09-5.71
				c0.4-0.94,0.83-1.88,1.28-2.8c0.22-0.45,0.44-0.89,0.66-1.33c0.06-0.12,0.38-0.55,0.36-0.68c-0.02,0.02-0.05,0.03-0.08,0.04
				c-0.66,0.23-1.08-0.06-1.25-0.87c0.02,0.81,0.67,1.5,1.5,1.5C66.3,3.82,67.03,3.13,67.01,2.32L67.01,2.32z"/>
		</g>
	</g>
	<g>
		<g>
			<path class="st5" d="M60.53,17.78c0.68,0.22,1.35,0.47,2.01,0.75c-0.3-0.13,0.21,0.09,0.26,0.12c0.12,0.05,0.24,0.11,0.37,0.17
				c0.32,0.15,0.65,0.31,0.97,0.47c1.24,0.63,2.42,1.36,3.55,2.18c0.64,0.46,1.7,0.13,2.05-0.54c0.41-0.78,0.14-1.56-0.54-2.05
				c-2.4-1.73-5.06-3.06-7.87-3.98c-0.75-0.25-1.67,0.29-1.85,1.05C59.29,16.76,59.73,17.52,60.53,17.78L60.53,17.78z"/>
		</g>
	</g>
	<g>
		<g>
			<path class="st5" d="M79.3,27.06c2.36,1.44,3.48,4,4.19,6.56c0.91,3.26,1.37,6.66,1.98,9.99c1.38,7.54,2.77,15.08,4.15,22.62
				c0.35,1.9,3.24,1.09,2.89-0.8c-1.47-8.03-2.95-16.05-4.42-24.08c-1.08-5.87-1.62-13.44-7.28-16.88
				C79.16,23.47,77.65,26.06,79.3,27.06L79.3,27.06z"/>
		</g>
	</g>
	<g>
		<g>
			<path class="st5" d="M97.02,88.63c1.02,1.8,2.26,3.48,3.7,4.95c1.53,1.56,3.32,2.8,4.98,4.2c3.42,2.88,6.45,6.29,9.59,9.46
				c1.36,1.37,3.48-0.75,2.12-2.12c-3.07-3.1-6.03-6.4-9.33-9.25c-1.57-1.36-3.3-2.53-4.79-3.98c-1.46-1.42-2.68-3.02-3.68-4.79
				C98.66,85.43,96.07,86.94,97.02,88.63L97.02,88.63z"/>
		</g>
	</g>
	<g>
		<g>
			<path class="st5" d="M107.4,126.46c-6.39-3.86-13.17-7.07-19.83-10.43c-1.72-0.87-3.24,1.72-1.51,2.59
				c6.66,3.36,13.44,6.57,19.83,10.43C107.54,130.05,109.05,127.46,107.4,126.46L107.4,126.46z"/>
		</g>
	</g>
	<g>
		<g>
			<path class="st5" d="M20.86,5.85c-0.04,0.1-0.07,0.2-0.11,0.3c-0.84-0.49-1.67-0.97-2.51-1.46c-1.8,4.31-4.31,8.32-7.37,11.85
				c-1.25,1.44,0.74,3.51,2.12,2.12c2.1-2.12,3.81-4.57,5.03-7.3c0.55-1.24-0.35-2.43-1.69-2.2c-2.91,0.5-4.68,3.03-6.22,5.32
				c-2.02,3.01-4.21,5.97-6.03,9.1c-1.79,3.07-2.38,6.5-3.08,9.94c-0.77,3.77-1.53,7.54-2.3,11.32c-0.38,1.88,2.51,2.69,2.89,0.8
				c0.69-3.37,1.37-6.74,2.06-10.11c0.65-3.22,1.04-6.72,2.59-9.66c1.49-2.84,3.49-5.45,5.28-8.1c1.4-2.09,2.88-5.24,5.61-5.71
				c-0.56-0.73-1.13-1.47-1.69-2.2c-1.12,2.51-2.62,4.74-4.56,6.69c0.71,0.71,1.41,1.41,2.12,2.12c3.43-3.94,6.14-8.35,8.15-13.17
				c0.57-1.37-1.58-2.58-2.51-1.46c-0.67,0.81-0.89,1.58-0.66,2.62C18.39,8.53,21.28,7.73,20.86,5.85L20.86,5.85z"/>
		</g>
	</g>
	<g>
		<g>
			<path class="st5" d="M107.38,205.44c1.93,0,1.93-3,0-3C105.45,202.44,105.45,205.44,107.38,205.44L107.38,205.44z"/>
		</g>
	</g>
	<g>
		<g>
			<path class="st5" d="M72.62,177.88c1.94,4.29,2.79,9,3.79,13.57c1.04,4.76,2.09,9.52,3.13,14.28c0.96-0.27,1.93-0.53,2.89-0.8
				c-1.43-5.11-2.56-10.3-3.37-15.54c-0.96,0.27-1.93,0.53-2.89,0.8c5.59,14.83,8.02,30.55,10.4,46.15c0.29,1.9,3.18,1.09,2.89-0.8
				c-2.38-15.6-4.81-31.32-10.4-46.15c-0.69-1.83-3.19-1.11-2.89,0.8c0.81,5.25,1.94,10.43,3.37,15.54c0.52,1.87,3.3,1.08,2.89-0.8
				c-1.08-4.92-2.16-9.84-3.23-14.76c-1.03-4.7-2-9.4-3.99-13.81C74.41,174.61,71.83,176.13,72.62,177.88L72.62,177.88z"/>
		</g>
	</g>
</g>
<g id="Layer_8">
	<g>
		<g>
			<path class="st6" d="M142.06,122.66c2.24,0.94,4.63,0.77,7,0.76c2.76-0.01,4.94,0.74,7.26,2.2c1.12,0.71,2.23,1.44,3.34,2.16
				c1.09,0.71,2.53,1.37,3.35,2.39c0.8,1,1.2,2.4,1.71,3.56c0.26,0.59,0.52,1.19,0.78,1.78c0.27,0.62,1,1.73,0.92,2.41
				c0.1-0.24,0.2-0.47,0.29-0.71c-0.38,0.4-2.21-0.27-2.72-0.51c-0.99-0.48-1.83-1.23-2.44-2.15c-1.16-1.73-1.78-3.19-3.84-3.98
				c-1.14-0.44-2.31-0.78-3.46-1.17c-0.84-0.28-2-0.94-2.92-0.68c-1.77,0.51-0.94,2.77-0.4,3.86c0.92,1.87,2.46,3.39,3.84,4.91
				c0.73,0.81,1.43,1.75,2.31,2.4c0.86,0.64,1.92,0.89,2.93,1.2c2.47,0.77,4.93,1.6,7.36,2.46c1.22,0.43,2.44,0.88,3.65,1.34
				c0.44,0.17,3.07,0.85,2.95,1.6c0.23-0.23,0.47-0.47,0.7-0.7c-2.26,0.92-4.71,0.63-7.09,0.45c-1.32-0.1-2.64-0.21-3.96-0.33
				c-1.3-0.12-2.71-0.12-3.96-0.49c-1.17-0.35-2.12-1.23-3.07-1.96c-1.06-0.8-2.12-1.61-3.17-2.41c-2.18-1.66-4.36-3.31-6.55-4.97
				c-1.03-0.78-2.02,0.96-1.01,1.73c3.63,2.75,7.23,5.54,10.88,8.26c1.54,1.14,3.04,1.46,4.91,1.65c2.31,0.23,4.62,0.43,6.93,0.59
				c1.71,0.12,9.48,0.55,6.99-3.14c-0.93-1.39-3.01-1.84-4.46-2.39c-2.05-0.77-4.1-1.5-6.17-2.2c-1-0.34-1.99-0.67-3-0.99
				c-1.06-0.34-2.36-0.57-3.34-1.11c-0.83-0.47-1.47-1.38-2.1-2.07c-0.68-0.76-1.38-1.51-2.04-2.28c-0.6-0.69-1.16-1.42-1.61-2.22
				c-0.2-0.36-0.31-1.17-0.58-1.4c-0.06,0.03-0.13,0.06-0.19,0.09c-0.27,0.08-0.25,0.13,0.04,0.17c0.15,0.16,0.71,0.24,0.92,0.31
				c1.81,0.61,4.57,0.98,5.73,2.64c0.97,1.4,1.56,2.8,2.95,3.87c1.33,1.02,2.99,1.67,4.68,1.64c1.47-0.03,2.42-0.89,1.86-2.4
				c-0.73-2-1.73-3.95-2.59-5.9c-0.45-1.01-0.88-1.95-1.73-2.69c-0.81-0.7-1.77-1.23-2.66-1.81c-1.95-1.27-3.87-2.68-5.96-3.72
				c-1.86-0.92-3.76-1.3-5.83-1.32c-2.35-0.02-4.68,0.25-6.9-0.69C141.4,120.23,140.89,122.17,142.06,122.66L142.06,122.66z"/>
		</g>
	</g>
	<g>
		<g>
			<path class="st6" d="M171.32,147.81c-0.68,1.63-4.3,1.01-5.6,0.98c-2.47-0.06-4.97,0-7.42-0.28c-4.89-0.55-9.11-3.94-13.02-6.69
				c-1.05-0.74-2.05,0.99-1.01,1.73c2.4,1.69,4.83,3.37,7.38,4.82c2.52,1.43,5.15,2.09,8.03,2.26c2.87,0.17,5.79,0.24,8.67,0.22
				c2.02-0.01,4.05-0.49,4.89-2.51C173.74,147.15,171.81,146.63,171.32,147.81L171.32,147.81z"/>
		</g>
	</g>
	<g>
		<g>
			<path class="st6" d="M166.38,150.5c-0.65,2.14-4.59,1.35-6.21,1.15c-2.37-0.29-4.71-0.82-7.02-1.4
				c-4.06-1.01-8.17-2.31-11.4-5.08c-0.97-0.83-2.39,0.58-1.41,1.41c3.99,3.41,9.06,4.87,14.07,6.02c2.84,0.65,5.74,1.2,8.66,1.26
				c2.19,0.05,4.53-0.5,5.24-2.84C168.68,149.8,166.75,149.27,166.38,150.5L166.38,150.5z"/>
		</g>
	</g>
	<g>
		<g>
			<path class="st6" d="M160.11,152.42c-2.19,1.7-5.17,0.25-7.31-0.75c-2.4-1.13-4.77-2.31-7.11-3.56
				c-4.68-2.49-9.24-5.21-13.66-8.14c-1.08-0.71-2.08,1.02-1.01,1.73c5.07,3.36,10.32,6.45,15.73,9.23c2.5,1.28,5.04,2.66,7.68,3.62
				c2.42,0.89,4.99,0.92,7.09-0.71C162.54,153.04,161.11,151.63,160.11,152.42L160.11,152.42z"/>
		</g>
	</g>
	<g>
		<g>
			<path class="st6" d="M131.9,141.72c2.43,1.54,4.78,3.2,7.03,5c0.42,0.34,1,0.41,1.41,0c0.35-0.35,0.42-1.08,0-1.41
				c-2.38-1.9-4.86-3.68-7.43-5.31c-0.46-0.29-1.1-0.1-1.37,0.36C131.26,140.84,131.44,141.43,131.9,141.72L131.9,141.72z"/>
		</g>
	</g>
	<g>
		<g>
			<path class="st6" d="M132.41,140.85c1.61,1.67,3.41,3.15,5.33,4.44c0.44,0.29,1.13,0.1,1.37-0.36c0.27-0.5,0.11-1.06-0.36-1.37
				c-0.45-0.3-0.9-0.61-1.33-0.94c-0.11-0.08-0.22-0.17-0.33-0.25c-0.06-0.04-0.1-0.08-0.02-0.01c-0.06-0.05-0.12-0.1-0.18-0.14
				c-0.22-0.17-0.44-0.35-0.65-0.53c-0.84-0.71-1.65-1.46-2.41-2.25c-0.36-0.38-1.05-0.39-1.41,0
				C132.03,139.84,132.02,140.45,132.41,140.85L132.41,140.85z"/>
		</g>
	</g>
	<g>
		<g>
			<path class="st6" d="M144.02,138c-0.02-0.33-0.04-0.65-0.06-0.98c-0.01-0.23-0.07-0.42-0.21-0.61c-0.12-0.16-0.32-0.33-0.52-0.36
				c-0.29-0.05-0.49-0.06-0.79,0c-0.17,0.03-0.35,0.11-0.5,0.2c-0.32,0.19-0.58,0.48-0.78,0.79c-0.36,0.59-0.39,1.26-0.48,1.93
				c0.01-0.09,0.02-0.18,0.04-0.27c-0.03,0.23-0.08,0.45-0.17,0.66c0.03-0.08,0.07-0.16,0.1-0.24c-0.02,0.06-0.05,0.11-0.08,0.16
				c-0.25,0.46-0.13,1.11,0.36,1.37c0.47,0.25,1.1,0.13,1.37-0.36c0.33-0.59,0.37-1.23,0.45-1.89c-0.01,0.09-0.02,0.18-0.04,0.27
				c0.03-0.21,0.07-0.42,0.15-0.62c-0.03,0.08-0.07,0.16-0.1,0.24c0.06-0.13,0.13-0.26,0.22-0.38c-0.05,0.07-0.1,0.13-0.16,0.2
				c0.07-0.09,0.15-0.17,0.24-0.24c-0.07,0.05-0.13,0.1-0.2,0.16c0.06-0.04,0.12-0.08,0.19-0.11c-0.08,0.03-0.16,0.07-0.24,0.1
				c0.07-0.03,0.13-0.05,0.2-0.06c-0.09,0.01-0.18,0.02-0.27,0.04c0.06-0.01,0.12-0.01,0.18,0c-0.09-0.01-0.18-0.02-0.27-0.04
				c0.01,0,0.02,0,0.04,0.01c-0.24-0.32-0.49-0.64-0.73-0.96c0.02,0.33,0.04,0.65,0.06,0.98c0.02,0.27,0.1,0.51,0.29,0.71
				c0.17,0.17,0.46,0.3,0.71,0.29C143.53,138.98,144.05,138.56,144.02,138L144.02,138z"/>
		</g>
	</g>
	<g>
		<g>
			<path class="st6" d="M142.9,132.87c-1.09,1.57-1.47,2.94-1.75,4.82c-0.8,5.35,7.14,7.84,8.32,2.29c0.46-2.15,0.64-4.16,0.4-6.35
				c-2.75,1.14-5.51,2.28-8.26,3.42c1.31,1.65,2.75,3.18,4.07,4.83c4.11,5.15,11.55-1.41,8.76-6.76c-0.89-1.71-1.98-3.14-3.33-4.51
				c-4.24-4.31-12.24,1.42-8.6,6.64c2.62,3.75,4.73,8.5,7.93,11.8c2.86,2.94,7.18,3.29,10.98,4.09c0.49-3.65,0.99-7.31,1.48-10.96
				c-3.97-0.01-8.04-0.29-11.71-1.96c-2.98-1.36-5.31-3.98-7.98-5.86c0.93,1.21,1.86,2.42,2.79,3.63c-0.23-1.14,1.86-4.23,2.57-5.08
				c5.17-6.14-3.32-14.99-8.95-8.95c-3.01,3.22-5.01,6.72-5.57,11.12c-0.62,4.93,0.34,7.67,4.29,10.57
				c3.35,2.46,6.33,4.68,10.41,5.91c4.56,1.38,9.44,1.36,14.15,1.78c6.46,0.57,7.29-9.19,1.48-10.96c-2.3-0.7-4.52-1.09-6.34-2.58
				c-2.45-2-4.42-5.42-6.08-8.07c-2.87,2.21-5.73,4.42-8.6,6.64c0.66,0.69,1.14,1.49,1.45,2.4c2.92-2.25,5.84-4.51,8.76-6.76
				c-1.9-1.69-3.84-3.34-6.09-4.54c-3.55-1.89-8.44,1.26-7.11,5.46c0.44,1.38,0.61,2.46,0.63,3.91c2.88,0,5.75,0,8.63,0
				c-0.1-1.41-0.04-2.79-0.18-4.2C149.11,131.14,144.96,129.9,142.9,132.87L142.9,132.87z"/>
		</g>
	</g>
	<g>
		<g>
			<path class="st6" d="M150.44,127.38c-0.46,0.19-0.51,0.27-0.13,0.23c0.11,0.01,0.23,0.04,0.34,0.07
				c0.42,0.09,0.83,0.28,1.23,0.43c0.88,0.33,1.74,0.69,2.58,1.1c1.71,0.82,3.35,1.77,4.92,2.83c1.62,1.1,3.05-1.47,1.51-2.59
				c-2.55-1.86-5.28-3.04-8.47-2.43c-0.64,0.12-1.27,0.32-1.92,0.33c-0.25,0-1.25-0.1-1.26-0.54c0,0.03,0.37-0.22,0.56-0.26
				c0.68-0.15,1.52,0.17,2.16,0.34c2.8,0.76,5.42,2,7.82,3.63c1.15,0.79,2.25,1.67,3.2,2.69c1.06,1.14,1.76,2.51,2.47,3.88
				c0.3-0.73,0.6-1.47,0.9-2.2c-1.48,0.52-3.28-2.03-4.14-2.95c-1.37-1.48-2.82-2.8-4.64-3.71c-1.75-0.88-3.62-1.5-5.22-2.65
				c-1.63-1.17-3.06-2.47-5.18-2.49c0.13,0.98,0.27,1.96,0.4,2.95c1.44-0.2,2.91-0.09,4.32,0.23c1.88,0.44,2.68-2.46,0.8-2.89
				c-1.98-0.46-3.91-0.51-5.92-0.23c-1.71,0.24-1.24,2.93,0.4,2.95c1.77,0.02,3.28,1.94,4.74,2.78c1.8,1.03,3.83,1.61,5.56,2.77
				c2.82,1.87,5.58,7.62,9.68,6.16c0.94-0.33,1.36-1.3,0.9-2.2c-1.38-2.67-3-4.82-5.39-6.66c-2.32-1.79-4.9-3.19-7.65-4.21
				c-2.4-0.88-5.97-2.19-7.97,0.13c-2.17,2.51,0.59,5.45,3.3,5.51c1.59,0.03,3.11-0.75,4.71-0.48c1.62,0.27,3.04,1.23,4.34,2.18
				c0.5-0.86,1.01-1.73,1.51-2.59c-2.17-1.47-4.48-2.7-6.9-3.71c-1.95-0.81-4.64-2.07-6.15,0.13
				C146.76,127.46,149.36,128.96,150.44,127.38L150.44,127.38z"/>
		</g>
	</g>
	<g>
		<g>
			<path class="st6" d="M164.54,145.93c0.74-0.01,1.48,0,2.21,0.06c0.32,0.03,0.63,0.06,0.94,0.1c-0.23-0.03,0.33,0.05,0.38,0.06
				c0.16,0.03,0.31,0.05,0.47,0.08c1.4,0.26,2.77,0.67,4.1,1.2c0-0.96,0-1.93,0-2.89c-0.83,0.12-1.66,0.24-2.49,0.36
				c-0.73,0.11-1.52,0.12-2.17,0.51c-1.04,0.62-1.26,2.03-0.42,2.91c0.53,0.56,1.35,0.94,2,1.35c0-0.86,0-1.73,0-2.59
				c0.22-0.09-0.08,0.02-0.13,0.04c-0.12,0.04-0.24,0.08-0.35,0.11c-0.12,0.03-0.24,0.06-0.36,0.09c-0.05,0.01-0.38,0.06-0.11,0.03
				c-0.49,0.06-0.99,0.05-1.48-0.02c-0.78-0.1-1.53,0.76-1.5,1.5c0.04,0.9,0.66,1.39,1.5,1.5c1.37,0.17,2.69-0.12,3.95-0.65
				c0.47-0.2,0.74-0.82,0.74-1.3c0-0.54-0.29-1.01-0.74-1.3c-0.44-0.28-0.87-0.55-1.31-0.83c-0.45-0.29-0.22-0.28-0.24,0.8
				c0.28,0.55,0.25,0.88-0.11,0.98c-0.12,0.04-0.12,0.04,0.01,0c0.23-0.05,0.46-0.08,0.7-0.11c1.11-0.16,2.21-0.32,3.32-0.48
				c0.62-0.09,1.13-0.85,1.1-1.45c-0.03-0.71-0.46-1.19-1.1-1.45c-2.82-1.13-5.87-1.67-8.9-1.6c-0.78,0.02-1.54,0.68-1.5,1.5
				C163.08,145.23,163.7,145.94,164.54,145.93L164.54,145.93z"/>
		</g>
	</g>
	<g>
		<g>
			<path class="st7" d="M172,146.82c-4.44-1.47-9.1-1.75-13.57-3.07c-4.02-1.18-7.7-3.31-10.78-6.15c-0.94-0.87-2.36,0.54-1.41,1.41
				c3.13,2.89,6.83,5.1,10.89,6.43c4.68,1.53,9.66,1.76,14.35,3.31C172.69,149.15,173.22,147.22,172,146.82L172,146.82z"/>
		</g>
	</g>
	<g>
		<g>
			<path class="st7" d="M168.62,149.12c-7.34-1.54-14.85-3.16-21.15-7.43c-1.07-0.72-2.07,1.01-1.01,1.73
				c6.44,4.36,14.14,6.06,21.63,7.64C169.34,151.32,169.88,149.39,168.62,149.12L168.62,149.12z"/>
		</g>
	</g>
	<g>
		<g>
			<path class="st7" d="M161.12,152.53c-5.26-1.44-10.81-2.98-14.82-6.89c-0.92-0.9-2.34,0.51-1.41,1.41
				c4.26,4.16,10.1,5.87,15.7,7.41C161.83,154.8,162.36,152.87,161.12,152.53L161.12,152.53z"/>
		</g>
	</g>
	<g>
		<g>
			<path class="st6" d="M137.5,133.51c-0.36-0.8-1.13-1.54-2.08-1.32c-1.03,0.24-1.32,1.45-1.66,2.3c-0.71,1.8-1.28,3.65-1.72,5.54
				c0.64,0,1.29,0,1.93,0c-0.13-0.61,0.03-1.23,0.18-1.81c0.17-0.67,0.36-1.34,0.57-2c0.42-1.29,0.92-2.55,1.51-3.78
				c-0.61-0.26-1.22-0.51-1.83-0.77c-1.11,2.91-2.06,5.89-2.83,8.91c-0.32,1.25,1.61,1.78,1.93,0.53c0.77-3.02,1.71-6,2.83-8.91
				c0.4-1.05-1.34-1.79-1.83-0.77c-0.69,1.43-1.28,2.9-1.76,4.41c-0.47,1.5-1.02,3.14-0.7,4.72c0.2,0.97,1.71,0.94,1.93,0
				c0.32-1.39,0.72-2.77,1.19-4.12c0.23-0.66,0.48-1.32,0.75-1.96c0.03-0.08,0.12-0.25,0.15-0.34c0.08-0.09,0.09-0.12,0.04-0.11
				c-0.16,0.03-0.32,0.07-0.47,0.1c0,0-0.09-0.01-0.08-0.04c-0.01,0.05,0.2,0.36,0.23,0.43c0.22,0.49,0.94,0.61,1.37,0.36
				C137.65,134.58,137.72,134,137.5,133.51L137.5,133.51z"/>
		</g>
	</g>
</g>
<g id="Layer_9">
	<g>
		<g>
			<path class="st8" d="M166.16,147.23c-0.73,0.64-1.46,1.29-2.19,1.93c-0.36,0.31-0.71,0.63-1.07,0.94
				c-0.19,0.16-0.37,0.33-0.56,0.49c-0.08,0.07-0.16,0.14-0.23,0.21c-0.05,0.04-0.09,0.08-0.14,0.12c-0.11,0.09-0.13,0.11-0.05,0.06
				c0.09,0,0.18,0,0.27,0c-0.28-0.04-0.59-0.29-0.84-0.42c-0.29-0.16-0.58-0.31-0.86-0.47c-0.57-0.31-1.07,0.55-0.5,0.86
				c0.32,0.18,0.65,0.35,0.97,0.53c0.29,0.16,0.6,0.38,0.92,0.46c0.37,0.09,0.6-0.12,0.86-0.35c0.28-0.25,0.56-0.49,0.84-0.74
				c1.1-0.97,2.2-1.94,3.31-2.91C167.35,147.51,166.64,146.81,166.16,147.23L166.16,147.23z"/>
		</g>
	</g>
	<g>
		<g>
			<path class="st8" d="M162.82,146.86c-1.1,0.98-2.14,2.03-3.12,3.14c-0.17,0.2-0.21,0.52,0,0.71c0.19,0.17,0.52,0.21,0.71,0
				c0.98-1.11,2.02-2.15,3.12-3.14c0.2-0.17,0.19-0.53,0-0.71C163.31,146.67,163.03,146.67,162.82,146.86L162.82,146.86z"/>
		</g>
	</g>
	<g>
		<g>
			<path class="st8" d="M165.96,147.18c-0.81-0.26-1.79-0.46-2.64-0.32c-0.44,0.08-0.76,0.39-1.06,0.7
				c-0.29,0.28-0.56,0.58-0.81,0.89c-0.27,0.33-0.53,0.68-0.77,1.03c-0.25,0.37-0.52,0.81-0.28,1.25c0.51,0.94,1.62-0.02,2.15-0.39
				c0.83-0.6,1.67-1.19,2.5-1.79c0.38-0.27,0.28-0.93-0.25-0.93c-0.42,0-0.85-0.02-1.27,0.01c-0.48,0.03-0.79,0.26-1.12,0.59
				c-0.63,0.62-1.19,1.29-1.7,2.01c-0.21,0.29,0.03,0.62,0.3,0.73c0.5,0.21,1.01-0.05,1.4-0.36c0.42-0.33,0.8-0.71,1.19-1.06
				c-0.28-0.07-0.56-0.15-0.84-0.22c-0.02-0.15-0.01-0.09-0.07-0.01c-0.05,0.06-0.11,0.12-0.16,0.18c-0.12,0.13-0.23,0.27-0.35,0.4
				c-0.23,0.27-0.47,0.53-0.7,0.8c-0.18,0.2-0.2,0.51,0,0.71c0.18,0.18,0.53,0.2,0.71,0c0.32-0.36,0.64-0.72,0.95-1.08
				c0.34-0.38,0.66-0.7,0.58-1.25c-0.06-0.4-0.59-0.44-0.84-0.22c-0.31,0.28-0.62,0.56-0.94,0.85c-0.18,0.16-0.42,0.43-0.68,0.32
				c0.1,0.24,0.2,0.49,0.3,0.73c0.42-0.6,0.9-1.16,1.41-1.68c0.21-0.21,0.36-0.42,0.66-0.43c0.38-0.01,0.76,0,1.14,0
				c-0.08-0.31-0.17-0.62-0.25-0.93c-0.74,0.53-1.48,1.06-2.22,1.59c-0.36,0.26-0.71,0.54-1.09,0.77c-0.02,0.02-0.18,0.07-0.2,0.09
				c0.09-0.12,0.19,0.25,0.29,0.18c0.07-0.05,0.14-0.22,0.19-0.3c0.06-0.09,0.12-0.17,0.18-0.26c0.23-0.33,0.49-0.65,0.76-0.95
				c0.27-0.3,0.55-0.64,0.87-0.89c0.27-0.21,0.8-0.1,1.11-0.07c0.44,0.04,0.86,0.15,1.28,0.28
				C166.31,148.34,166.57,147.38,165.96,147.18L165.96,147.18z"/>
		</g>
	</g>
	<g>
		<g>
			<path class="st8" d="M171.31,141.4c-0.33,0.24-0.64,0.5-0.93,0.8c-0.09,0.09-0.15,0.22-0.15,0.35c0,0.12,0.05,0.27,0.15,0.35
				c0.1,0.09,0.22,0.15,0.35,0.15c0.13-0.01,0.26-0.05,0.35-0.15c0.21-0.22,0.44-0.42,0.68-0.61c-0.03,0.03-0.07,0.05-0.1,0.08
				c0.05-0.04,0.1-0.07,0.15-0.11c0.06-0.03,0.11-0.07,0.14-0.13c0.04-0.05,0.07-0.1,0.09-0.17c0.03-0.12,0.02-0.28-0.05-0.39
				c-0.07-0.11-0.17-0.2-0.3-0.23C171.57,141.32,171.41,141.32,171.31,141.4L171.31,141.4z"/>
		</g>
	</g>
	<g>
		<g>
			<path class="st8" d="M171.65,141.27c-0.65-0.2-1.31-0.39-1.97-0.57c-0.38-0.1-0.76-0.21-1.1,0.05c-0.25,0.19-0.47,0.42-0.67,0.66
				c-0.17,0.21-0.2,0.5,0,0.71c0.18,0.18,0.53,0.21,0.71,0c0.17-0.2,0.35-0.4,0.55-0.56c0.09-0.07-0.04,0.01-0.06,0.02
				c-0.04,0-0.03,0,0.03,0.01c0.02,0.01,0.04,0.01,0.06,0.02c0.15,0.04,0.3,0.08,0.46,0.12c0.58,0.16,1.15,0.33,1.72,0.5
				c0.25,0.08,0.56-0.09,0.62-0.35C172.06,141.61,171.92,141.35,171.65,141.27L171.65,141.27z"/>
		</g>
	</g>
	<g>
		<g>
			<path class="st8" d="M170.78,142.01c-0.67-0.19-1.34-0.41-1.99-0.67c-0.11-0.04-0.28-0.01-0.39,0.05c-0.1,0.06-0.2,0.18-0.23,0.3
				c-0.07,0.29,0.09,0.51,0.35,0.62c0.65,0.26,1.31,0.48,1.99,0.67c0.25,0.07,0.56-0.09,0.62-0.35
				C171.19,142.36,171.05,142.08,170.78,142.01L170.78,142.01z"/>
		</g>
	</g>
	<g>
		<g>
			<path class="st9" d="M175,137.19c-0.83-0.15-1.65-0.37-2.46-0.64c-0.25-0.08-0.56,0.1-0.62,0.35c-0.06,0.28,0.08,0.53,0.35,0.62
				c0.8,0.27,1.62,0.49,2.46,0.64c0.26,0.05,0.55-0.07,0.62-0.35C175.41,137.56,175.28,137.24,175,137.19L175,137.19z"/>
		</g>
	</g>
	<g>
		<g>
			<path class="st9" d="M171.9,136.63c-0.6,0.55-1.17,1.11-1.6,1.8c-0.2,0.32-0.39,0.67-0.62,0.97c-0.06,0.08,0.07-0.08-0.04,0.05
				c-0.02,0.03-0.05,0.06-0.07,0.08c-0.06,0.07-0.12,0.13-0.19,0.19c-0.08,0.07-0.06,0.06-0.15,0.12c-0.08,0.05-0.15,0.09-0.24,0.13
				c-0.24,0.12-0.31,0.46-0.18,0.68c0.14,0.25,0.44,0.3,0.68,0.18c0.74-0.36,1.16-1.08,1.57-1.75c0.2-0.34,0.41-0.62,0.67-0.91
				c0.28-0.3,0.58-0.57,0.88-0.85c0.2-0.18,0.18-0.52,0-0.71C172.41,136.43,172.1,136.44,171.9,136.63L171.9,136.63z"/>
		</g>
	</g>
	<g>
		<g>
			<path class="st9" d="M174.55,137.56c-1.06,1.26-2.06,2.56-3,3.91c-0.15,0.22-0.04,0.56,0.18,0.68c0.25,0.15,0.53,0.04,0.68-0.18
				c0.89-1.28,1.84-2.52,2.84-3.71c0.17-0.21,0.2-0.5,0-0.71C175.08,137.39,174.72,137.36,174.55,137.56L174.55,137.56z"/>
		</g>
	</g>
	<g>
		<g>
			<path class="st10" d="M171.99,137.89c0.64,0,0.64-1,0-1C171.35,136.89,171.35,137.89,171.99,137.89L171.99,137.89z"/>
		</g>
	</g>
	<g>
		<g>
			<path class="st10" d="M173.49,137.17c0-0.15,0-0.3,0-0.45c0-0.07-0.01-0.13-0.04-0.19c-0.02-0.06-0.05-0.12-0.1-0.16
				c-0.05-0.05-0.1-0.08-0.16-0.1c-0.06-0.03-0.12-0.05-0.19-0.04c-0.13,0.01-0.26,0.05-0.35,0.15c-0.03,0.03-0.05,0.07-0.08,0.1
				c-0.05,0.08-0.07,0.16-0.07,0.25c-0.01,0.16,0,0.31,0.01,0.47c0,0.07,0.01,0.15,0.03,0.22c0.01,0.04,0.04,0.1,0.06,0.13
				c0.02,0.04,0.05,0.08,0.09,0.11c0.03,0.03,0.08,0.07,0.11,0.09c0.04,0.02,0.08,0.03,0.12,0.05c0.02,0.01,0.05,0.01,0.07,0.01
				c0.08,0.01,0.11,0.02,0.2-0.01c0.03-0.01,0.04-0.02,0.07-0.03c0.02-0.01,0.05-0.02,0.06-0.03c0.03-0.03,0.07-0.05,0.1-0.08
				c0.02-0.02,0.03-0.04,0.05-0.06c0.02-0.02,0.03-0.03,0.04-0.06c0.02-0.04,0.03-0.08,0.05-0.12c0.01-0.04,0.02-0.09,0.02-0.14
				c0-0.09-0.03-0.17-0.07-0.25c-0.02-0.04-0.05-0.08-0.08-0.11c-0.09-0.09-0.22-0.15-0.35-0.15c-0.07,0-0.13,0.01-0.19,0.04
				c-0.06,0.02-0.12,0.05-0.16,0.1c-0.09,0.1-0.15,0.22-0.15,0.35c0.01,0.13,0.05,0.26,0.15,0.35c0,0,0,0,0,0
				c-0.03-0.03-0.05-0.07-0.08-0.1c0,0,0,0,0,0c-0.02-0.08-0.05-0.17-0.07-0.25c0,0,0,0,0,0c0.01-0.04,0.01-0.09,0.02-0.13
				c0,0,0,0,0,0c0.02-0.04,0.03-0.08,0.05-0.12c0,0,0,0,0,0c0.03-0.03,0.05-0.07,0.08-0.1c0,0,0,0.01-0.01,0.01
				c0.03-0.03,0.07-0.05,0.1-0.08c0,0,0,0,0,0c0.04-0.02,0.08-0.03,0.12-0.05c0,0-0.01,0-0.01,0c0.04-0.01,0.09-0.01,0.13-0.02
				c0,0,0,0-0.01,0c0.04,0.01,0.09,0.01,0.13,0.02c0,0,0,0-0.01,0c0.04,0.02,0.08,0.03,0.12,0.05c0,0,0,0-0.01,0
				c0.03,0.03,0.07,0.05,0.1,0.08c0,0,0,0-0.01-0.01c0.03,0.03,0.05,0.07,0.08,0.1c0,0-0.01-0.01-0.01-0.01
				c0.02,0.04,0.03,0.08,0.05,0.12c0-0.01,0-0.02-0.01-0.02c0.01,0.04,0.01,0.09,0.02,0.13c-0.01-0.09-0.01-0.18-0.01-0.26
				c0-0.09,0-0.18,0-0.27c-0.33,0-0.67,0-1,0c0,0.15,0,0.3,0,0.45c0,0.07,0.01,0.13,0.04,0.19c0.02,0.06,0.05,0.12,0.1,0.16
				c0.05,0.05,0.1,0.08,0.16,0.1c0.06,0.03,0.12,0.05,0.19,0.04c0.13-0.01,0.26-0.05,0.35-0.15
				C173.44,137.42,173.49,137.3,173.49,137.17L173.49,137.17z"/>
		</g>
	</g>
	<g>
		<g>
			<path class="st10" d="M173.9,137.92c0.64,0,0.64-1,0-1C173.25,136.92,173.25,137.92,173.9,137.92L173.9,137.92z"/>
		</g>
	</g>
	<g>
		<g>
			<path class="st10" d="M174.93,138.18c0.64,0,0.64-1,0-1C174.29,137.18,174.29,138.18,174.93,138.18L174.93,138.18z"/>
		</g>
	</g>
	<g>
		<g>
			<path class="st10" d="M174.93,137.41c0.64,0,0.64-1,0-1C174.29,136.41,174.29,137.41,174.93,137.41L174.93,137.41z"/>
		</g>
	</g>
	<g>
		<g>
			<path class="st10" d="M174.03,137.25c0.64,0,0.64-1,0-1C173.38,136.25,173.38,137.25,174.03,137.25L174.03,137.25z"/>
		</g>
	</g>
	<g>
		<g>
			<path class="st10" d="M175,137.01c-0.42-0.07-0.84-0.1-1.26-0.08c-0.13,0.01-0.26,0.05-0.35,0.15c-0.09,0.09-0.15,0.23-0.15,0.35
				c0.01,0.13,0.05,0.26,0.15,0.35c0.1,0.09,0.22,0.15,0.35,0.15c0.33-0.01,0.67,0,1,0.05c-0.04-0.01-0.09-0.01-0.13-0.02
				c0.04,0.01,0.09,0.01,0.13,0.02c0.14,0.02,0.26,0.02,0.39-0.05c0.1-0.06,0.2-0.18,0.23-0.3c0.03-0.13,0.02-0.27-0.05-0.39
				C175.23,137.13,175.12,137.03,175,137.01L175,137.01z"/>
		</g>
	</g>
	<g>
		<g>
			<path class="st10" d="M172.91,136.78c0-0.08-0.02-0.15-0.03-0.23c0-0.03-0.01-0.07-0.02-0.1c-0.03-0.11-0.07-0.21-0.12-0.31
				c-0.03-0.06-0.07-0.11-0.13-0.14c-0.05-0.04-0.1-0.07-0.17-0.09c-0.07-0.02-0.13-0.02-0.2-0.01c-0.07,0-0.13,0.02-0.19,0.06
				c-0.03,0.03-0.07,0.05-0.1,0.08c-0.06,0.06-0.1,0.14-0.13,0.22c-0.01,0.04-0.01,0.09-0.02,0.13c0,0.09,0.02,0.17,0.07,0.25
				c0,0.01,0.01,0.02,0.01,0.03c-0.02-0.04-0.03-0.08-0.05-0.12c0.04,0.08,0.06,0.17,0.07,0.26c-0.01-0.04-0.01-0.09-0.02-0.13
				c0,0.03,0.01,0.06,0.01,0.09c0,0.07,0.01,0.13,0.04,0.19c0.02,0.06,0.05,0.12,0.1,0.16c0.05,0.05,0.1,0.08,0.16,0.1
				c0.06,0.03,0.12,0.05,0.19,0.04c0.04-0.01,0.09-0.01,0.13-0.02c0.08-0.02,0.16-0.07,0.22-0.13c0.03-0.03,0.05-0.07,0.08-0.1
				C172.89,136.95,172.91,136.87,172.91,136.78L172.91,136.78z"/>
		</g>
	</g>
	<g>
		<g>
			<path class="st10" d="M175.83,137.99c0.64,0,0.64-1,0-1C175.19,136.99,175.19,137.99,175.83,137.99L175.83,137.99z"/>
		</g>
	</g>
	<g>
		<g>
			<path class="st9" d="M177.67,135.69c-0.06-1.46,1.3-2.26,2.37-2.94c0.92-0.58,1.8-1.23,2.47-2.1c1.24-1.61,1.47-4.05-0.27-5.4
				c-1.43-1.12-3.37-1.02-4.98-1.72c-2.2-0.94-2.38-3.41-1.51-5.37c0.5-1.11,0.93-2.19,0.51-3.41c-0.37-1.07-1.19-1.88-2.25-2.25
				c-0.61-0.21-0.87,0.75-0.27,0.96c0.98,0.34,1.69,1.31,1.7,2.35c0.01,1.12-0.79,2.09-1.05,3.16c-0.43,1.76-0.02,3.8,1.49,4.92
				c1.39,1.03,3.19,1.04,4.77,1.62c0.87,0.32,1.61,0.9,1.81,1.86c0.23,1.13-0.32,2.26-1.08,3.07c-1.57,1.66-4.83,2.49-4.72,5.26
				C176.69,136.33,177.69,136.34,177.67,135.69L177.67,135.69z"/>
		</g>
	</g>
	<g>
		<g>
			<path class="st9" d="M175.39,133.88c0.16-0.94,0.78-1.66,1.52-2.22c0.75-0.56,1.73-0.93,2.29-1.71c0.55-0.76,0.35-1.75-0.32-2.36
				c-0.77-0.7-1.83-0.71-2.81-0.66c-0.64,0.03-0.64,1.03,0,1c0.75-0.04,1.74-0.13,2.26,0.53c0.49,0.62-0.07,1.14-0.6,1.47
				c-1.41,0.9-3.01,1.88-3.31,3.69c-0.04,0.27,0.07,0.54,0.35,0.62C175.02,134.3,175.35,134.15,175.39,133.88L175.39,133.88z"/>
		</g>
	</g>
	<g>
		<g>
			<path class="st9" d="M171.89,134.14c-0.9-1.24-0.97-2.83-0.15-4.13c0.68-1.09,1.73-2.39,0.97-3.72
				c-0.64-1.14-2.23-1.27-3.36-1.54c-1.52-0.36-3.07-0.78-4.39-1.65c-1.1-0.73-2.07-1.81-2.37-3.12c-0.47-2.04,1.4-2.4,2.98-2.33
				c1.43,0.07,2.76,0.03,3.95-0.85c0.98-0.73,1.7-1.83,1.86-3.05c0.23-1.76-1.29-2.41-2.66-2.99c-1.43-0.6-3.74-1.62-3.27-3.58
				c0.15-0.63-0.82-0.89-0.96-0.27c-0.32,1.35,0.36,2.63,1.4,3.47c1.2,0.96,2.81,1.16,4.03,2.06c1.35,0.99-0.2,3.07-1.19,3.69
				c-1.43,0.9-3.03,0.32-4.6,0.55c-1.25,0.18-2.41,0.91-2.59,2.24c-0.18,1.31,0.48,2.64,1.3,3.62c0.9,1.07,2.11,1.8,3.39,2.31
				c1.48,0.59,3.05,0.81,4.57,1.26c1.04,0.31,1.46,1.05,0.94,2.08c-0.38,0.75-0.97,1.36-1.27,2.15c-0.54,1.42-0.31,3.07,0.58,4.3
				C171.4,135.16,172.27,134.66,171.89,134.14L171.89,134.14z"/>
		</g>
	</g>
	<g>
		<g>
			<path class="st9" d="M178.84,120.02c-0.36-0.66-0.84-1.47-0.63-2.25c0.18-0.69,0.83-1.27,1.4-1.65c1.17-0.77,2.85-1.13,4.07-0.28
				c0.53,0.37,1.03-0.5,0.5-0.86c-1.55-1.08-3.79-0.66-5.24,0.39c-0.74,0.53-1.49,1.28-1.71,2.19c-0.25,1.06,0.25,2.07,0.74,2.96
				C178.29,121.09,179.15,120.59,178.84,120.02L178.84,120.02z"/>
		</g>
	</g>
</g>
<g id="Layer_6">
	<text transform="matrix(5.989614e-03 -1 1 5.989614e-03 214.8967 98.1561)"><tspan x="0" y="0" class="st11 st12 st13">gum </tspan><tspan x="21.53" y="0" class="st12 st13">+ </tspan><tspan x="29.23" y="0" class="st11 st12 st13">butts</tspan></text>
	<g>
		<g>
			<path class="st14" d="M51.45,10.23c5.62,2.04,10.89,4.88,16.07,7.85c5.36,3.07,10.7,6.2,16.04,9.3c1.12,0.65,2.12-1.08,1.01-1.73
				c-5.48-3.18-10.94-6.39-16.45-9.53c-5.2-2.97-10.5-5.77-16.14-7.82C50.77,7.86,50.25,9.8,51.45,10.23L51.45,10.23z"/>
		</g>
	</g>
	<g>
		<g>
			<path class="st14" d="M82.9,26.61c6.26,15.43,7.78,32.15,12.08,48.13c1.21,4.51,2.66,8.94,4.46,13.25
				c0.49,1.17,2.43,0.66,1.93-0.53c-6.44-15.36-8.01-32.08-12.19-48.08c-1.18-4.52-2.59-8.97-4.34-13.3
				C84.35,24.9,82.41,25.42,82.9,26.61L82.9,26.61z"/>
		</g>
	</g>
	<g>
		<g>
			<path class="st14" d="M100.41,85.51c-4.68-3.25-10.06-5.43-15.68-6.35c-1.26-0.21-1.8,1.72-0.53,1.93
				c5.47,0.89,10.65,2.98,15.2,6.15C100.46,87.97,101.47,86.24,100.41,85.51L100.41,85.51z"/>
		</g>
	</g>
	<g>
		<g>
			<path class="st14" d="M94.83,86.57c-2.66-0.78-5.36-1.33-8.1-1.7c-0.54-0.07-1,0.51-1,1c0,0.6,0.46,0.93,1,1
				c2.56,0.34,5.09,0.9,7.57,1.63C95.54,88.86,96.07,86.94,94.83,86.57L94.83,86.57z"/>
		</g>
	</g>
	<g>
		<g>
			<path class="st14" d="M99.87,88.94c12.95,12.36,27.75,22.72,43.8,30.64c1.15,0.57,2.16-1.16,1.01-1.73
				c-15.91-7.85-30.56-18.08-43.4-30.32C100.35,86.64,98.93,88.05,99.87,88.94L99.87,88.94z"/>
		</g>
	</g>
	<g>
		<g>
			<path class="st14" d="M144.19,118.58c-8.3,3.66-12.03,12.53-14.14,20.76c-0.32,1.25,1.61,1.78,1.93,0.53
				c2-7.78,5.38-16.11,13.23-19.57C146.38,119.79,145.36,118.06,144.19,118.58L144.19,118.58z"/>
		</g>
	</g>
	<g>
		<g>
			<path class="st14" d="M136.22,115.56c-0.04-0.89-0.74-1.56-1.66-1.38c-0.93,0.18-1.61,1.33-2.14,2.01
				c-1.4,1.79-2.55,3.74-3.44,5.83c-0.2,0.48-0.4,0.96-0.57,1.44c-0.13,0.36-0.27,1.35-0.52,1.6c-0.27,0.25-1.03,0.23-1.37,0.32
				c-0.51,0.13-1,0.32-1.48,0.54c-2.02,0.92-3.67,2.52-5.23,4.06c0.47,0,0.94,0,1.41,0c-0.71-0.83-1.42-1.67-2.13-2.5
				c-0.36-0.42-0.71-0.83-1.07-1.25c-0.17-0.2-0.74-0.66-0.8-0.94c-0.09-0.44,0.34-1,0.53-1.37c0.23-0.46,0.46-0.93,0.7-1.39
				c0.44-0.86,0.9-1.72,1.37-2.57c1.91-3.46,4.02-6.79,6.31-10c0.75-1.05-0.99-2.05-1.73-1.01c-2.63,3.69-5.02,7.54-7.14,11.54
				c-0.51,0.97-1.01,1.95-1.5,2.94c-0.39,0.8-0.83,1.61-0.47,2.5c0.4,0.97,1.43,1.86,2.11,2.65c0.8,0.94,1.6,1.88,2.4,2.82
				c0.35,0.41,1.05,0.36,1.41,0c1.3-1.28,2.62-2.58,4.24-3.45c1.38-0.74,3.54-0.52,4.26-2.11c0.36-0.8,0.55-1.68,0.87-2.5
				c0.36-0.91,0.79-1.8,1.26-2.66c0.46-0.83,0.96-1.64,1.51-2.41c0.29-0.41,0.6-0.82,0.92-1.21c0.15-0.18,0.3-0.36,0.46-0.54
				c0.38-0.26,0.3-0.41-0.22-0.44c-0.1-0.24-0.2-0.47-0.29-0.71c0,0.07,0.01,0.14,0.01,0.21
				C134.28,116.84,136.28,116.85,136.22,115.56L136.22,115.56z"/>
		</g>
	</g>
	<g>
		<g>
			<path class="st14" d="M124.77,120c0.04,0,0.09,0,0.13,0.01c0.16,0.01-0.27-0.05-0.07-0.01c0.03,0.01,0.26,0.08,0.26,0.08
				c-0.02,0.02-0.27-0.13-0.07-0.02c0.04,0.02,0.07,0.04,0.11,0.06c0.04,0.02,0.07,0.05,0.11,0.07c0.16,0.11-0.15-0.14-0.05-0.04
				c0.07,0.06,0.14,0.13,0.2,0.2c0.03,0.03,0.13,0.16,0.02,0.01c-0.12-0.15,0.01,0.01,0.04,0.06c0.05,0.07,0.09,0.15,0.13,0.23
				c0.01,0.02,0.08,0.13,0.07,0.14c-0.01,0.01-0.08-0.22-0.06-0.14c0.01,0.03,0.02,0.05,0.03,0.08c0.03,0.09,0.06,0.18,0.08,0.27
				c0,0.02,0.01,0.12,0.02,0.13c0,0-0.02-0.24-0.02-0.16c0,0.03,0.01,0.06,0.01,0.09c0.01,0.09,0.01,0.19,0,0.28
				c0,0.02-0.01,0.04-0.01,0.06c0,0.08,0.02-0.16,0.02-0.16c-0.02,0.01-0.02,0.12-0.03,0.15c-0.01,0.05-0.03,0.1-0.04,0.14
				c-0.01,0.02-0.02,0.04-0.02,0.06c-0.02,0.08,0.05-0.14,0.06-0.14c0.01,0-0.14,0.25-0.15,0.27c-0.08,0.14,0.15-0.17,0.05-0.06
				c-0.03,0.03-0.06,0.07-0.09,0.1c-0.03,0.03-0.06,0.06-0.09,0.09c0,0-0.06,0.06-0.07,0.06c0,0,0.21-0.15,0.1-0.08
				c-0.07,0.05-0.15,0.1-0.22,0.14c-0.04,0.02-0.21,0.1-0.04,0.02c0.18-0.07,0,0-0.04,0.01c-0.09,0.03-0.18,0.06-0.28,0.07
				c-0.04,0.01-0.21,0.03-0.02,0.01c0.2-0.03,0,0-0.04,0c-0.1,0.01-0.19,0.01-0.29,0c-0.04,0-0.09-0.01-0.13-0.01
				c-0.2-0.02,0.21,0.04,0.07,0.01c-0.1-0.02-0.19-0.04-0.28-0.07c-0.04-0.01-0.09-0.03-0.13-0.04c-0.02-0.01-0.04-0.02-0.06-0.02
				c-0.16-0.06,0.18,0.09,0.1,0.04c-0.08-0.04-0.16-0.08-0.23-0.13c-0.04-0.03-0.09-0.06-0.13-0.09c-0.12-0.08,0.19,0.17,0.05,0.03
				c-0.07-0.06-0.13-0.12-0.19-0.19c-0.14-0.15,0.11,0.17,0.03,0.04c-0.03-0.05-0.06-0.09-0.09-0.13c-0.02-0.04-0.04-0.08-0.07-0.12
				c-0.1-0.19,0.07,0.19,0.02,0.05c-0.03-0.09-0.06-0.19-0.09-0.29c-0.01-0.02-0.04-0.15-0.03-0.16c0.01-0.01,0.02,0.25,0.02,0.15
				c0-0.02,0-0.05-0.01-0.07c-0.01-0.11-0.01-0.22,0-0.32c0-0.05,0.01-0.11,0.01-0.16c0.01-0.1-0.01,0.16-0.02,0.15
				c-0.01-0.01,0.01-0.08,0.02-0.09c0.02-0.11,0.05-0.23,0.09-0.34c0.01-0.04,0.03-0.13,0.06-0.15c0.02-0.01-0.1,0.22-0.06,0.13
				c0.02-0.03,0.03-0.07,0.05-0.11c0.05-0.1,0.1-0.19,0.16-0.28c0.03-0.05,0.06-0.12,0.11-0.15c0.02-0.02-0.16,0.19-0.08,0.11
				c0.02-0.02,0.04-0.05,0.06-0.07c0.08-0.09,0.16-0.16,0.25-0.24c0.11-0.1-0.2,0.14-0.04,0.03c0.05-0.03,0.09-0.06,0.14-0.09
				c0.05-0.03,0.11-0.06,0.16-0.09c0.02-0.01,0.04-0.02,0.06-0.03c0.09-0.05-0.25,0.1-0.09,0.04c0.25-0.1,0.46-0.22,0.6-0.46
				c0.13-0.21,0.18-0.53,0.1-0.77c-0.15-0.47-0.71-0.9-1.23-0.7c-0.67,0.26-1.2,0.66-1.63,1.23c-0.33,0.43-0.56,0.96-0.65,1.49
				c-0.1,0.61-0.1,1.24,0.13,1.82c0.26,0.65,0.67,1.17,1.26,1.54c1.02,0.64,2.4,0.67,3.45,0.1c0.5-0.27,0.96-0.73,1.19-1.26
				c0.28-0.63,0.33-1.28,0.19-1.96c-0.29-1.33-1.46-2.44-2.85-2.46c-0.52-0.01-1.02,0.47-1,1C123.8,119.55,124.21,119.99,124.77,120
				L124.77,120z"/>
		</g>
	</g>
	<g>
		<g>
			<path class="st14" d="M130.94,143.67c-2.89-1.68-5.78-3.36-8.68-5.03c-1.12-0.65-2.12,1.08-1.01,1.73
				c2.89,1.68,5.78,3.36,8.68,5.03C131.04,146.04,132.05,144.31,130.94,143.67L130.94,143.67z"/>
		</g>
	</g>
	<g>
		<g>
			<path class="st14" d="M127.46,129.35c-0.28-0.26-0.57-0.53-0.85-0.79c-0.68-0.64-1.61-0.13-1.71,0.71
				c-0.41,3.39-1,6.75-1.76,10.08c-0.28,1.25,1.64,1.79,1.93,0.53c0.8-3.5,1.4-7.04,1.83-10.61c-0.57,0.24-1.14,0.47-1.71,0.71
				c0.28,0.26,0.57,0.53,0.85,0.79C126.98,131.64,128.4,130.23,127.46,129.35L127.46,129.35z"/>
		</g>
	</g>
	<g>
		<g>
			<path class="st14" d="M115.25,127.39c0.03,0,0.06-0.01,0.1-0.01c-0.18,0-0.35,0-0.53,0c-0.18-0.05-0.29-0.15-0.31-0.29
				c0.02,0.12,0.04,0.15,0.03,0.09c0,0.06,0.02,0.38,0.03,0.52c0.02,0.36,0.03,0.72,0.03,1.09c0,0.78-0.03,1.57-0.09,2.35
				c-0.12,1.54-0.4,3.05-0.79,4.54c-0.33,1.25,1.6,1.78,1.93,0.53c0.52-1.98,0.83-4.02,0.92-6.07c0.04-0.99,0.06-2-0.03-2.98
				c-0.1-1.03-0.7-1.84-1.82-1.68c-0.54,0.08-0.83,0.76-0.7,1.23C114.18,127.26,114.72,127.46,115.25,127.39L115.25,127.39z"/>
		</g>
	</g>
	<g>
		<g>
			<path class="st14" d="M124.53,138.83c-17.34-8.02-33.66-18.17-48.48-30.23c-0.99-0.81-2.41,0.6-1.41,1.41
				c11.63,9.46,24.16,17.81,37.4,24.85c3.77,2,7.6,3.9,11.48,5.69C124.68,141.1,125.7,139.37,124.53,138.83L124.53,138.83z"/>
		</g>
	</g>
	<g>
		<g>
			<path class="st14" d="M76.95,30.31c-4.52,1.34-8.85,3.32-12.77,5.94c-3.44,2.29-6.98,5.13-8.05,9.32
				c-0.32,1.25,1.61,1.78,1.93,0.53c0.99-3.88,4.52-6.45,7.72-8.51c3.63-2.34,7.56-4.13,11.7-5.35
				C78.72,31.88,78.19,29.95,76.95,30.31L76.95,30.31z"/>
		</g>
	</g>
	<g>
		<g>
			<path class="st14" d="M57.54,53.08C64.5,70.23,69.62,88.1,72.8,106.33c0.22,1.27,2.15,0.73,1.93-0.53
				c-3.18-18.23-8.3-36.1-15.26-53.25C58.99,51.37,57.06,51.89,57.54,53.08L57.54,53.08z"/>
		</g>
	</g>
	<g>
		<g>
			<path class="st14" d="M66.28,0.28c-2.62,3.71-4.55,7.88-5.69,12.27c-0.32,1.25,1.6,1.78,1.93,0.53c1.1-4.24,2.96-8.22,5.49-11.8
				C68.75,0.23,67.02-0.77,66.28,0.28L66.28,0.28z"/>
		</g>
	</g>
	<g>
		<g>
			<path class="st14" d="M67.43,0.33c-13.85-5.91-29.13-7.79-43.99-5.4c-1.27,0.2-0.73,2.13,0.53,1.93
				c14.28-2.29,29.15-0.48,42.45,5.2C67.6,2.56,68.62,0.84,67.43,0.33L67.43,0.33z"/>
		</g>
	</g>
	<g>
		<g>
			<path class="st14" d="M50.61,8.26c-9.11-1.81-18.39-2.7-27.68-2.62c-1.29,0.01-1.29,2.01,0,2c9.12-0.08,18.21,0.77,27.15,2.55
				C51.34,10.44,51.88,8.51,50.61,8.26L50.61,8.26z"/>
		</g>
	</g>
	<g>
		<g>
			<path class="st14" d="M17.74-5.09c-0.26,2.88-0.36,5.78-0.28,8.67c0.03,1.28,2.03,1.29,2,0c-0.08-2.89,0.02-5.79,0.28-8.67
				c0.05-0.54-0.49-1-1-1C18.15-6.09,17.79-5.63,17.74-5.09L17.74-5.09z"/>
		</g>
	</g>
	<g>
		<g>
			<path class="st14" d="M17.03,4.41C8.12,12.68,1.69,23.42-1.4,35.18c-0.33,1.25,1.6,1.78,1.93,0.53
				C3.53,24.27,9.78,13.87,18.45,5.82C19.39,4.95,17.98,3.53,17.03,4.41L17.03,4.41z"/>
		</g>
	</g>
	<g>
		<g>
			<path class="st14" d="M72.58,105.99c0.49,1.85,1.46,3.56,2.81,4.92c0.37,0.37,1.05,0.4,1.41,0c0.37-0.4,0.39-1.02,0-1.41
				c-0.15-0.15-0.29-0.3-0.43-0.46c-0.07-0.07-0.13-0.15-0.19-0.23c-0.02-0.03-0.12-0.12-0.12-0.14c0,0.04,0.11,0.14,0.02,0.03
				c-0.25-0.34-0.49-0.69-0.69-1.06c-0.1-0.17-0.19-0.35-0.28-0.53c-0.05-0.1-0.1-0.2-0.14-0.3c-0.02-0.05-0.04-0.09-0.06-0.14
				c-0.06-0.13,0.07,0.17,0.01,0.03c-0.16-0.41-0.3-0.81-0.41-1.24c-0.13-0.51-0.72-0.86-1.23-0.7
				C72.76,104.93,72.44,105.45,72.58,105.99L72.58,105.99z"/>
		</g>
	</g>
	<g>
		<g>
			<path class="st14" d="M73.94,109.35c-2.61,11.47-3.18,23.32-1.65,34.98c0.17,1.26,2.17,1.27,2,0
				c-1.51-11.48-0.99-23.15,1.58-34.45C76.16,108.63,74.23,108.1,73.94,109.35L73.94,109.35z"/>
		</g>
	</g>
	<g>
		<g>
			<path class="st14" d="M63.57,142.76c0.03-0.03,0.06-0.05,0.09-0.08c-0.32,0.09-0.65,0.17-0.97,0.26
				c-0.34-0.61-0.49-0.66-0.45-0.14c-0.01,0.11-0.02,0.22-0.03,0.33c-0.03,0.38-0.06,0.77-0.09,1.15c-0.05,0.66-0.11,1.32-0.16,1.98
				c-0.11,1.37-0.23,2.74-0.34,4.12c-0.23,2.74-0.45,5.49-0.68,8.23c-0.11,1.28,1.9,1.28,2,0c0.26-3.18,0.52-6.37,0.78-9.55
				c0.13-1.54,0.25-3.07,0.38-4.61c0.1-1.18,0.58-2.93-0.88-3.43c-0.35-0.12-0.72,0.03-0.97,0.26c-0.03,0.03-0.06,0.05-0.09,0.08
				C61.19,142.2,62.61,143.61,63.57,142.76L63.57,142.76z"/>
		</g>
	</g>
	<g>
		<g>
			<path class="st14" d="M57.41,141.54c0.06,5.37-0.37,10.73-1.31,16.01c-0.22,1.26,1.7,1.8,1.93,0.53c0.97-5.46,1.45-11,1.38-16.54
				C59.4,140.25,57.4,140.25,57.41,141.54L57.41,141.54z"/>
		</g>
	</g>
	<g>
		<g>
			<path class="st14" d="M64.33,145.05c14.5,7.11,27.19,17.79,36.65,30.88c2.7,3.73,5.12,7.65,7.27,11.72
				c0.6,1.14,2.33,0.13,1.73-1.01c-7.68-14.52-18.96-27.05-32.54-36.29c-3.86-2.63-7.91-4.97-12.1-7.03
				C64.19,142.76,63.17,144.49,64.33,145.05L64.33,145.05z"/>
		</g>
	</g>
	<g>
		<g>
			<path class="st14" d="M108.68,187.16c-0.85,6.24-1.12,12.53-0.77,18.82c0.42-0.32,0.84-0.64,1.27-0.96
				c-4.58-1.27-9.34-1.47-14.03-0.66c-1.27,0.22-0.73,2.15,0.53,1.93c4.32-0.75,8.74-0.5,12.96,0.66c0.6,0.17,1.3-0.31,1.27-0.96
				c-0.34-6.1-0.12-12.23,0.7-18.29C110.78,186.43,108.85,185.88,108.68,187.16L108.68,187.16z"/>
		</g>
	</g>
	<g>
		<g>
			<path class="st14" d="M97.31,205.05c-1.22-4.46-4.03-8.2-6.75-11.85c-2.81-3.77-5.76-7.43-8.86-10.97
				c-6.28-7.17-13.14-13.83-20.48-19.91c-0.98-0.81-2.41,0.59-1.41,1.41c7.11,5.89,13.77,12.32,19.89,19.24
				c3.1,3.51,6.06,7.13,8.87,10.88c2.7,3.61,5.6,7.32,6.81,11.73C95.72,206.82,97.65,206.3,97.31,205.05L97.31,205.05z"/>
		</g>
	</g>
	<g>
		<g>
			<path class="st14" d="M61.66,157.48c-0.23,3.61-0.88,7.18-1.92,10.65c-0.37,1.24,1.56,1.76,1.93,0.53
				c1.09-3.64,1.75-7.39,1.99-11.18C63.74,156.2,61.74,156.2,61.66,157.48L61.66,157.48z"/>
		</g>
	</g>
	<g>
		<g>
			<path class="st14" d="M56.9,155.25c0.01,3.62-0.53,7.2-1.59,10.66c-0.38,1.23,1.55,1.76,1.93,0.53
				c1.11-3.62,1.67-7.41,1.66-11.19C58.9,153.96,56.9,153.96,56.9,155.25L56.9,155.25z"/>
		</g>
	</g>
	<g>
		<g>
			<path class="st14" d="M11.88,133.14c-0.21,5.88-0.02,11.77,0.57,17.63c0.13,1.27,2.13,1.28,2,0c-0.59-5.86-0.78-11.74-0.57-17.63
				C13.92,131.85,11.92,131.86,11.88,133.14L11.88,133.14z"/>
		</g>
	</g>
	<g>
		<g>
			<path class="st14" d="M7.63,132.86c0.75,6.6,1.14,13.23,1.18,19.86c0.01,1.29,2.01,1.29,2,0c-0.04-6.64-0.43-13.27-1.18-19.86
				C9.49,131.6,7.49,131.58,7.63,132.86L7.63,132.86z"/>
		</g>
	</g>
	<g>
		<g>
			<path class="st14" d="M58.23,142.61c-14.11-3.63-28.58-5.82-43.13-6.54c-1.29-0.06-1.28,1.94,0,2
				c14.38,0.71,28.65,2.89,42.6,6.47C58.94,144.86,59.48,142.94,58.23,142.61L58.23,142.61z"/>
		</g>
	</g>
	<g>
		<g>
			<path class="st14" d="M59.57,160.77c-14.13-5.78-28.95-11.7-44.51-10.56c-1.28,0.09-1.29,2.09,0,2
				c15.39-1.12,30.02,4.77,43.98,10.49C60.23,163.19,60.75,161.26,59.57,160.77L59.57,160.77z"/>
		</g>
	</g>
	<g>
		<g>
			<path class="st14" d="M13.51,149.93c0.06,3.09,0.39,6.17,0.95,9.21c0.1,0.53,0.74,0.83,1.23,0.7c0.56-0.15,0.8-0.7,0.7-1.23
				c-0.53-2.87-0.82-5.76-0.88-8.68C15.49,148.64,13.49,148.64,13.51,149.93L13.51,149.93z"/>
		</g>
	</g>
	<g>
		<g>
			<path class="st14" d="M9.91,151.61c-0.12,2.52-0.03,5.05,0.28,7.55c0.07,0.54,0.41,1,1,1c0.49,0,1.07-0.46,1-1
				c-0.31-2.51-0.4-5.03-0.28-7.55c0.03-0.54-0.48-1-1-1C10.35,150.61,9.94,151.07,9.91,151.61L9.91,151.61z"/>
		</g>
	</g>
	<g>
		<g>
			<path class="st14" d="M10.04,153.49c-5.42-1.31-10.98-1.57-16.5-0.83c-0.54,0.07-0.82,0.76-0.7,1.23c0.15,0.58,0.7,0.77,1.23,0.7
				c5.14-0.69,10.4-0.39,15.44,0.83C10.76,155.72,11.29,153.79,10.04,153.49L10.04,153.49z"/>
		</g>
	</g>
	<g>
		<g>
			<path class="st14" d="M8.66,134.9c-4.71-0.96-9.49-1.09-14.25-0.42c-0.54,0.08-0.82,0.76-0.7,1.23c0.15,0.58,0.7,0.77,1.23,0.7
				c4.38-0.61,8.86-0.46,13.18,0.42C9.39,137.09,9.93,135.16,8.66,134.9L8.66,134.9z"/>
		</g>
	</g>
	<g>
		<g>
			<path class="st14" d="M73.7,143.77c-0.11,2.17,0.18,4.36,0.85,6.43c0.16,0.5,0.7,0.87,1.23,0.7c0.5-0.16,0.87-0.7,0.7-1.23
				c-0.64-1.97-0.89-3.83-0.78-5.9c0.03-0.52-0.48-1.02-1-1C74.14,142.8,73.73,143.21,73.7,143.77L73.7,143.77z"/>
		</g>
	</g>
	<g>
		<g>
			<path class="st14" d="M76.53,179.77c5.6,17.09,9.67,34.66,12.16,52.48c0.18,1.27,2.1,0.73,1.93-0.53
				c-2.49-17.81-6.56-35.38-12.16-52.48C78.06,178.02,76.13,178.54,76.53,179.77L76.53,179.77z"/>
		</g>
	</g>
	<g>
		<g>
			<path class="st14" d="M67.22,179.31c-1.15,5.5-5.22,9.62-9.53,12.93c-4.85,3.72-10.17,7.14-15.94,9.21
				c-1.2,0.43-0.68,2.37,0.53,1.93c6.15-2.21,11.79-5.8,16.93-9.81c4.53-3.52,8.73-7.94,9.94-13.73
				C69.41,178.59,67.49,178.05,67.22,179.31L67.22,179.31z"/>
		</g>
	</g>
	<g>
		<g>
			<path class="st14" d="M68.54,184.67c-3.83,9.38-13.48,14.22-22.03,18.46c-1.15,0.57-0.14,2.3,1.01,1.73
				c9.13-4.53,18.89-9.7,22.95-19.66C70.95,184.01,69.02,183.49,68.54,184.67L68.54,184.67z"/>
		</g>
	</g>
</g>
</svg>
