<?xml version="1.0" encoding="utf-8"?>
<!-- Generator: Adobe Illustrator 19.0.0, SVG Export Plug-In . SVG Version: 6.00 Build 0)  -->
<svg version="1.1" xmlns="http://www.w3.org/2000/svg" xmlns:xlink="http://www.w3.org/1999/xlink" x="0px" y="0px"
	 viewBox="0 0 442.5 234.5" style="enable-background:new 0 0 442.5 234.5;" xml:space="preserve">
<style type="text/css">
	.st0{fill:#EBBAB9;}
	.st1{fill:#F8D4D4;}
	.st2{fill:#EBC160;}
	.st3{fill:#F9D48A;}
	.st4{fill:#4F4F4F;}
	.st5{fill:#ADDEE8;}
	.st6{fill:#BEE5EE;}
</style>
<g id="wings">
	<g id="XMLID_91_">
		<g id="XMLID_109_">
			<path id="XMLID_113_" class="st0" d="M331.7,155.1c9-12.5,23.3-19.7,38.5-20.4c7.3-0.3,15,0.5,21.7,3.5c3.4,1.6,8,4.2,9.4,7.9
				c3,7.8-5.8,8.9-10.9,9c-1.5,0-1.6,1.9-0.3,2.5c6.2,2.5,5.5,12.7-1.3,13.9c-3.2,0.6-7.4-1-10.4-2c-1-0.4-2,0.9-1.4,1.8
				c4.6,7.3-5,15.9-10.5,8.4c-0.9-1.3-3.1-0.1-2.2,1.3c2.5,3.5,1.1,8.1-3.2,9.3c-3.9,1.2-7.4-1.2-9.5-4.3c-0.7-1-2.3-0.7-2.3,0.6
				c0,1.9,0,4.7-1.3,6.2c-2.9,3.7-7.8,3.6-10.4-0.4c-0.9-1.4-2.9-0.2-2.2,1.3c1.3,3.6,0.3,4.9-3.1,3.6c-2.9,0.9-4.1-0.1-3.6-3.1
				c0.1-1.6-2.4-1.6-2.5,0c-0.2,4.2,3.3,8.6,7.8,7.3c4-1.1,5.4-5.8,3.6-9.2c-0.7,0.4-1.4,0.8-2.2,1.3c2.4,3.8,6.6,5.7,10.9,3.8
				c4.3-1.9,5.4-6.5,5.4-10.8c-0.8,0.2-1.6,0.4-2.3,0.6c3.1,4.5,8.5,7.4,13.9,4.9c4.8-2.3,6.2-8.1,3.2-12.4
				c-0.7,0.4-1.4,0.8-2.2,1.3c7.4,10,21.3-0.7,14.8-11c-0.5,0.6-0.9,1.2-1.4,1.8c5.7,2,15.1,4.6,18.2-2.7c2.2-5.3,0.2-11.8-5.2-14
				c-0.1,0.8-0.2,1.6-0.3,2.5c6.3-0.2,16.1-2.5,13.9-11.1c-2.2-8.4-13.7-12.2-21.1-13.5c-20.4-3.6-41.4,3.9-53.6,20.8
				C328.6,155.1,330.8,156.4,331.7,155.1L331.7,155.1z"/>
		</g>
	</g>
	<g id="XMLID_90_">
		<g id="XMLID_104_">
			<path id="XMLID_108_" class="st0" d="M366.1,167.5c0.5-1,0.5-1.1,1.6-1.3c-2.8-3.7-5.6-7.3-8.5-11c-2.6,3.9-6.2,7.2-10.5,9
				c3.1,3.1,6.2,6.2,9.2,9.2c1.3-6.9,6.5-11.3,11.6-15.7c5.8-5-0.4-14.5-7.3-12.5c-4.5,1.3-8.6,3.2-12.3,6c3,3.9,6.1,7.9,9.1,11.8
				c3.2-4.2,6.1-8.4,8.5-13.1c2.8-5.5-1.9-13.2-8.5-11c-5.8,1.9-10.8,4.9-14.8,9.5c3.9,3,7.9,6.1,11.8,9.1c1.5-2.7,3-5.5,4.4-8.2
				c3.1-5.7-2-12.7-8.5-11c-4.5,1.2-8.1,3.2-11.6,6.1c-6.6,5.3,2.1,16.7,9.1,11.8c13-9.2,28.9-9.7,42.2-1c7.4,4.8,14.6-5.7,9.1-11.8
				c-7.8-8.7-22.1-7.8-28.3,2.3c-2.8,4.5-3.8,10.9,0.8,14.6c2.4,1.9,5.2,2.3,8.1,1.3c2.3-0.8,3.6-2.7,5.7-3.7
				c-1.3,0.3-2.5,0.7-3.8,1c0.1,0,0.2,0,0.3-0.1c-1.1-4.2-2.2-8.4-3.3-12.5c-2.6,2.5-5.8,5.1-5.8,9.1c0,1.8,0.7,3.7,1.8,5.2
				c0.1,0.1,1.8,1.8,1.6,1.4c0.5,1.1,0.1,2.9,0.5,4.2c0.7,2.1,2.1,3.9,4,5c3.6,2,7.3,1,10.3-1.5c5.7-4.6,0.3-12.1-5.3-12.8
				c-6.1-0.7-15-3.7-20.4,0.5c-5.9,4.6-2.8,12.1-4.7,18.3c-1.9,5.9,5.6,12.3,11,8.5c4.6-3.2,6.5-7.7,5.8-13.3
				c-0.7-5.7-1.7-10,0-15.7c1.1-3.6-1.3-8.5-5.2-9.2c-10.9-2-14.8,11.1-19.1,18.8c-2,3.7-5,7.6-6,11.8c-0.5,2.1-0.5,4.3,0.3,6.3
				c0.7,1.9,2.1,2.8,3,4.4c-0.3-1.9-0.5-3.9-0.8-5.8c-0.1,0.4-0.1,0.7-0.2,1.1c4.8,0,9.6,0,14.5,0c-2.3-6.5-6.9-12.8-13.8-14.7
				c-9-2.5-12.6,5.2-16.3,11.7c-2.2,3.9-0.4,10.1,4.5,11c2.1,0.4,3.8,0.5,5.9-0.1c-3.1-3.1-6.2-6.2-9.2-9.2
				c-0.4,1.7-0.8,2.5-1.8,3.9c4.3,2.5,8.6,5,13,7.6c4.6-6.8,0.6-16.4-7.7-17.4c-3.9-0.5-7.5,0.9-10.1,3.9c-2.5,2.9-1.6,6.2-3.2,9.3
				c-4.4,8.6,7.7,15.7,13,7.6c3.4-5.2,5.8-11,7.4-17c1-4,0.6-11.3,3.8-14.2c2.9-2.6,2.9-8.1,0-10.6c1.1,1,0.6,3.2,0.9,0.1
				c0.1-1.2,0-2.7-0.3-3.9c-0.6-2.4-2.3-4.5-4.6-5.4c-4.6-2-8.8,0.4-11.8,3.8c-6.5,7.6-4.6,17.2-6.9,26.2c-2.4,9.4,12.1,13.3,14.5,4
				c1.1-4.2,1.3-8.4,1.7-12.7c0.2-2.3,0.3-6.9,2.7-8.2c-1.9,0.3-3.9,0.5-5.8,0.8c0.2,0.1,0.5,0.1,0.7,0.2c-1.5-1.1-3-2.3-4.5-3.4
				c0.1,0.2,0.2,0.4,0.3,0.6c-0.3-1.3-0.7-2.5-1-3.8c0,4.7-0.5,8.9,3.5,12.4c0-3.5,0-7.1,0-10.6c-4.8,4.2-5.6,10-6.6,15.9
				c-1.2,6.6-3.3,12.7-6.9,18.3c4.3,2.5,8.6,5,13,7.6c0.8-1.6,1.4-3.1,1.8-4.8c0.1-0.9,0.3-1.8,0.4-2.7c0.8-2.8-1.5-4-7-3.5
				c-5.4,8.1,7.5,15.4,13,7.6c1.6-2.3,2.7-4.8,3.3-7.5c1.4-5.5-3.6-10.7-9.2-9.2c-0.3,0.1-0.6,0.2-1,0.3c1.3,0,2.7,0,4,0
				c-0.3-0.1-0.7-0.1-1-0.2c1.5,3.7,3,7.3,4.5,11c0.7-1.3,1.5-2.6,2.2-4c0.3-0.5,0.6-1.1,0.9-1.6c0.6-1,0.6-1.1,0.1-0.2
				c-1.3,0.3-2.5,0.7-3.8,1c1.4,0,2.9,3,3.3,4.1c2.2,6.2,13.3,8,14.5,0c0.5-3.3,0.4-6-1.8-8.6c-3.2-4,0,2-0.4,2
				c0.3-0.1,2.3-4.2,2.5-4.6c1.5-2.7,3-5.5,4.6-8.2c1-1.7,1.9-3.4,2.9-5.1c0.5-1,3.5-4.1,1.1-2.6c-1.9,0.3-3.9,0.5-5.8,0.8
				c0.4,0.1,0.7,0.1,1.1,0.2c-1.7-3.1-3.5-6.2-5.2-9.2c-1.2,3.9-1.9,8.1-1.8,12.3c0.1,1.8,0.3,3.7,0.6,5.5c0.2,1.1,0.4,2.2,0.7,3.3
				c0.3,1.2,0.8,0.8,1.5-1c3.7,2.8,7.3,5.6,11,8.5c0.8-2.5,1.3-5,1.5-7.7c0.1-1.1,0.1-2.2,0-3.3c0-0.5-0.1-1-0.1-1.5
				c0-1.7-0.6-1-1.8,2.1c-1.3,0.3-2.5,0.7-3.8,1c4.8-0.4,10.1,1,14.9,1.5c-1.8-4.3-3.5-8.5-5.3-12.8c-0.2,0.1-0.3,0.3-0.5,0.4
				c1.8-0.7,3.5-1.5,5.3-2.2c-0.2,0-0.5-0.1-0.7-0.1c1.8,0.7,3.5,1.5,5.3,2.2c1.4,1.2,1.7,4.2,1.1,0.4c-0.2-1.5-0.6-2.6-1.2-4
				c-0.4-0.8-0.8-1.4-1.3-2.1c-1.3-1.9-2.4-4.1-0.9-0.2c-0.3,1.9-0.5,3.9-0.8,5.8c0.4-0.7,1.9-1.7,2.4-2.2c4.2-4.1,2-10.9-3.3-12.5
				c-2.8-0.9-5.5-0.7-8.1,0.5c-1.8,0.8-3.1,2.5-4.8,3.3c2.5,0,5,0,7.6,0c-0.2-0.1-0.4-0.2-0.6-0.4c1.1,1.5,2.3,3,3.4,4.5
				c0.9,2.6-0.2,0,2.2-0.2c1.4-0.1,2.2,0.9,3,1.8c3-3.9,6.1-7.9,9.1-11.8c-17.4-11.4-40.3-11.1-57.4,1c3,3.9,6.1,7.9,9.1,11.8
				c1.5-1.2,3.2-1.8,5-2.2c-2.8-3.7-5.6-7.3-8.5-11c-1.5,2.7-3,5.5-4.4,8.2c-3.9,7.2,6,15.7,11.8,9.1c2.3-2.7,4.8-4.5,8.2-5.7
				c-2.8-3.7-5.6-7.3-8.5-11c-1.8,3.5-3.8,6.9-6.2,10.1c-2.3,3-3.1,6.6-0.6,9.8c2,2.7,6.7,4.2,9.7,1.9c2.7-2.1,5.4-3.6,8.7-4.5
				c-2.4-4.2-4.9-8.4-7.3-12.5c-6.9,6-13.8,12.9-15.5,22.3c-0.9,4.9,3.4,11.6,9.2,9.2c8.2-3.4,14.6-8.5,19.5-15.9
				c3.7-5.6-2.4-12.7-8.5-11c-4.6,1.2-8.3,4-10.6,8.2C348.5,168.4,361.5,176,366.1,167.5L366.1,167.5z"/>
		</g>
	</g>
	<g id="XMLID_9_">
		<g id="XMLID_70_">
			<path id="XMLID_96_" class="st0" d="M223.8,139.6c-6.4-19.1-23.4-32.3-43.2-35.5c-8-1.3-19.8-1.4-25.4,5.7
				c-6,7.5,3.2,13.3,9.4,15.5c0.1-0.8,0.2-1.6,0.3-2.5c-5.8,0.5-9.6,6.2-9,11.9c0.8,7.9,10.5,8.1,16.6,7.9c-0.3-0.7-0.6-1.4-0.9-2.1
				c-9,7.7,0.8,22.3,10.7,15c-0.5-0.7-1-1.3-1.5-2c-4.2,3.2-4.5,9.2-0.6,12.8c4.4,4,10.4,2.8,14.7-0.6c-0.7-0.4-1.4-0.8-2.1-1.2
				c-1.3,4.4-1.5,9.3,2.6,12.4c3.6,2.6,7.8,1.8,11-0.9c-0.6-0.6-1.2-1.2-1.8-1.8c-2.8,2.7-2.7,7.6,0.8,9.8c4,2.5,8.6-0.7,9.6-4.8
				c0.4-1.6-2-2.2-2.4-0.7c-0.9,3.5-2.5,4.1-4.8,1.7c-3.2-0.5-3.6-2-1.4-4.3c1.2-1.1-0.6-2.8-1.8-1.8c-1.4,0.6-2.7,1.2-4.1,1.8
				c-2.6,0.1-4.2-1-4.7-3.6c-1.6-3-1.5-4.2-0.6-7.3c0.4-1.3-1.2-1.9-2.1-1.2c-3.2,2.5-7.8,3.7-11.1,0.6c-3-2.7-2.5-6.9,0.6-9.3
				c1.1-0.9-0.4-2.8-1.5-2c-7.5,5.6-14.6-5.1-7.7-11c0.8-0.7,0.2-2.2-0.9-2.1c-3.3,0.1-8.6,0.6-11.4-1.5c-4.9-3.7-2.4-12.7,3.9-13.3
				c1.4-0.1,1.7-2,0.3-2.5c-5.4-1.9-14.2-7.9-5.9-13.5c3.4-2.3,7.8-3.1,11.8-3.3c7.4-0.4,15.1,1.4,21.9,4.2
				c13.3,5.6,23.8,16.3,28.3,30C221.9,141.7,224.3,141.1,223.8,139.6L223.8,139.6z"/>
		</g>
	</g>
	<g id="XMLID_11_">
		<g id="XMLID_62_">
			<path id="XMLID_66_" class="st0" d="M199.4,138.2c-0.9-4.7-3.8-8.3-7.8-10.9c-5.6-3.5-12.8,2.3-11,8.5
				c2.2,7.7,6.4,14.5,12.6,19.7c5.3,4.4,12,1.3,12.8-5.3c1.1-9.5-3.5-18.1-8.3-25.9c-3.4,3.4-6.8,6.8-10.3,10.3
				c2.3,1.5,4.2,3.2,5.7,5.4c4.5,6.4,16.9,2.7,13.7-5.8c-1.6-4.3-2.8-8.7-3.6-13.2c-3.7,2.8-7.3,5.6-11,8.5c2.9,2.1,4.6,4.8,6,7.9
				c3.6,8.2,15.3,2.1,13.7-5.8c-0.6-3-1.2-6.1-1.8-9.1c-3.7,2.8-7.3,5.6-11,8.5c1.7,1,2.9,2.1,4,3.7c4.3-2.5,8.6-5,13-7.6
				c-13.2-17.3-34.5-25.2-55.7-19.1c1.9,4.6,3.9,9.1,5.8,13.7c1.1-0.6,2.1-1.2,3.3-0.5c1.5,0.8,0.7,2.3,1.6,1c1.5-1.1,3-2.3,4.5-3.4
				c-0.2,0.1-0.5,0.1-0.7,0.2c2.4,0.6,4.9,1.3,7.3,1.9c-1.4-1.3-2.1-3.3-3.6-4.6c-2.1-1.9-4.7-2.7-7.6-2.7c-5.8,0-9.2,6.3-6.5,11.3
				c0.4,0.8,1.3,2,1.6,2.9c0.3-1.9,0.5-3.9,0.8-5.8c1.2-1.5,2.4-2.4,0-1c-1.1,0.6-2.1,1.5-2.9,2.5c-0.7,0.8-1.4,1.7-1.9,2.6
				c-0.3,0.8-0.7,1.6-1,2.4c-0.7,1.4-0.1,0.9,1.6-1.6c1.9-0.3,3.9-0.5,5.8-0.8c-0.2,0-0.5-0.1-0.7-0.1c1.5,1.1,3,2.3,4.5,3.4
				c-0.1-0.2-0.2-0.4-0.4-0.5c-2.8,3.7-5.6,7.3-8.5,11c2.4,0.4,4.8,0.9,7.2,1.3c1.2,0.2,2.4,0.4,3.6,0.6c2.5,0.5,3.9,1.9,1.2-1.7
				c-2.1-2.9-1.6-2.6-2.5-0.4c-0.4,1-0.7,2.1-1,3.2c-0.6,2.5-0.8,5.2-0.8,7.8c4.7-1.3,9.3-2.5,14-3.8c-0.4,1.6-0.3,1.5,0.4-0.1
				c0.6-1,1.1-2,1.7-3c0.8-1.6,1.5-3.3,2.1-5c1.3-3.9,1.9-8.1,1.9-12.3c-2.5,2.5-5,5-7.5,7.5c0.3,0,0.6,0,0.8,0
				c-1.8-0.7-3.5-1.5-5.3-2.2c-0.5-1.2-0.5-1.1-0.2,0.1c0.2,1,0.4,1.9,0.6,2.9c0.3,1.3,0.5,2.6,0.8,3.8c0.7,3.4,1.4,6.8,2.1,10.2
				c0.3,1.3,0.4,3,0.9,4.3c0.1,0.6,0.2,1.1,0.4,1.7c2.4-2.8,2.8-3.8,1.2-3c-2.6,0.6-4.7,4.3-5,6.6c-1.3,8.5,8.5,12.8,13.7,5.8
				c0.1-0.1,4.5-3.3,4.4-2.8c-1.2-0.8-2.4-1.5-3.6-2.3c0.1,0.6,0.2,1.2,0.4,1.8c0,1.6,0.8,3.8,1.1,5.3c2.4-3.2,4.8-6.3,7.2-9.5
				c-0.3,0-0.7-0.1-1-0.1c1.3,0.3,2.5,0.7,3.8,1c-0.3-0.2-0.6-0.4-0.8-0.5c-5.1-3.2-11,1.1-11.3,6.5c-0.2,2.8,0.2,5.5,1,8.2
				c2.9,9.2,17.2,5.3,14.5-4c-4.8-1.7-7.4-1.1-7.7,1.7c-0.1,0.8-0.2,1.5-0.3,2.3c-0.2,1.9,0,3.6,0.3,5.5c4.8-1.3,9.6-2.7,14.5-4
				c-1.8-6.3-1.9-12.7-1.1-19.1c0.8-6.3,1.6-11.9-1.8-17.6c-0.9,3.4-1.8,6.8-2.7,10.3c2.3-1,3.8-2.8,5-5.1c0.4-0.9,0.8-1.8,1-2.7
				c0.4-1.7,1.3-2.5-0.7-0.2c-1.8,0.7-3.5,1.5-5.3,2.2c0.2,0,0.5,0,0.7,0.1c-1.8-0.7-3.5-1.5-5.3-2.2c1.8,1.7,0.3,6.6-0.1,8.6
				c-0.9,4.2-1.9,8.3-2.1,12.6c-0.5,9.6,14.5,9.6,15,0c0.5-9.6,5.3-18.4,0.7-27.8c-2-4.1-6-7.4-10.9-6c-2,0.6-3.8,2.1-4.9,3.9
				c-0.6,1-1.1,2.5-1.3,3.6c-0.1,0.4-0.2,0.8-0.2,1.3c-0.3,1.3,0,0.9,0.9-1.2c-3.7,1.6-4.6,7.1-2.7,10.3c1.1,1.8,0.5,4,0.2,6
				c-0.4,3.1-0.8,6.1-1,9.2c-0.3,6,0.5,12.1,2.1,18c2.7,9.4,16.1,5.4,14.5-4c-0.4-2.5,1.1-5.8,0-8.9c-1.4-4-4.8-6.7-9-7.4
				c-8.4-1.4-14.5,6.9-12.2,14.7c4.8-1.3,9.6-2.7,14.5-4c-0.5-1.7-0.6-2.5-0.5-4.2c-3.8,2.2-7.5,4.3-11.3,6.5
				c1.8,1.2,3.5,1.4,5.6,1.7c5.2,0.6,8.1-5.3,7.2-9.5c-1.5-7.3-2.8-15.6-12.2-15.7c-7.3-0.1-13.3,4.6-17.5,10.2
				c4.6,1.9,9.1,3.9,13.7,5.8c-0.2,1.2-2.5,2.6-0.3,1.5c1.1-0.5,2-1.7,2.7-2.7c1.2-1.7,1.9-3.8,2-5.9c0.2-4.6-1.6-9.6-2.5-14
				c-1.6-7.7-1.8-22.4-12.6-22.4c-4.1,0-7.5,3.4-7.5,7.5c0,5.6-2,9.3-4.4,14.1c-2.1,4.4-2.7,9.7,0.4,13.8c4.2,5.5,14,4.3,14-3.8
				c0-6.5,5.4-12.8,0.7-18.9c-4.1-5.3-13.3-5.2-19.4-6.3c-5.9-1.1-12.4,5.1-8.5,11c2.1,3.2,5.6,5.1,9.5,4.1c1.8-0.5,3.4-1.5,4.6-3
				c1.1-1.3,1.2-3.5,2.2-4.6c-1.3,1.4,0.9,0.1,1.4-0.2c1.8-1,3.3-3,3.8-5c1.1-3.8-1.4-7.3-3.1-10.4c-2.2,3.8-4.3,7.5-6.5,11.3
				c0.4,0,0.8,0,1.2,0c-1.3-0.3-2.5-0.7-3.8-1c0-0.6,0.1-0.6,0.3,0.1c0.2,0.4,0.4,0.7,0.6,1c0.7,1,1.3,1.9,2.3,2.7
				c2.3,1.9,5.1,2.7,8,1.8c6-2,7.1-8.9,5.6-14.3c-3.2-11.6-16.5-16.1-26.6-10.1c-7.2,4.3-2.5,16.1,5.8,13.7
				c14.2-4,29.7,0.3,38.8,12.2c2.5,3.2,6.4,4.9,10.3,2.7c3.3-1.9,5-6.9,2.7-10.3c-2.6-3.8-5.5-6.7-9.4-9.1c-5.9-3.7-12.2,2.4-11,8.5
				c0.6,3,1.2,6.1,1.8,9.1c4.6-1.9,9.1-3.9,13.7-5.8c-2.5-5.6-6.5-9.8-11.4-13.3c-5.9-4.2-12,2.7-11,8.5c0.8,4.5,2,8.9,3.6,13.2
				c4.6-1.9,9.1-3.9,13.7-5.8c-3.1-4.4-6.6-7.9-11.1-10.8c-6.3-4.1-14.1,4-10.3,10.3c3.6,5.8,7.1,11.4,6.3,18.4
				c4.3-1.8,8.5-3.5,12.8-5.3c-4.3-3.6-7.2-7.7-8.7-13.1c-3.7,2.8-7.3,5.6-11,8.5c1,0.6,0.7,0.6,0.9,1.9
				C186.8,151.6,201.3,147.6,199.4,138.2L199.4,138.2z"/>
		</g>
	</g>
	<g id="XMLID_10_">
		<g id="XMLID_123_">
			<path id="XMLID_127_" class="st1" d="M211.9,136.8c-11.1-9.1-25.3-12.5-39.3-9.4c-1.6,0.3-0.9,2.8,0.7,2.4
				c13-2.9,26.5,0.3,36.8,8.7C211.4,139.6,213.2,137.9,211.9,136.8L211.9,136.8z"/>
		</g>
	</g>
	<g id="XMLID_12_">
		<g id="XMLID_130_">
			<path id="XMLID_134_" class="st1" d="M206.6,142.3c-8-3.8-16.7-4.1-24.9-0.7c-1.5,0.6-0.8,3,0.7,2.4c7.5-3.1,15.6-3,23,0.5
				C206.7,145.1,208,143,206.6,142.3L206.6,142.3z"/>
		</g>
	</g>
	<g id="XMLID_13_">
		<g id="XMLID_137_">
			<path id="XMLID_141_" class="st1" d="M208.3,153.3c-6.1-1.2-12.3,1-16.1,5.9c-1,1.3,0.8,3,1.8,1.8c3.3-4.2,8.4-6.3,13.7-5.3
				C209.2,156.1,209.9,153.7,208.3,153.3L208.3,153.3z"/>
		</g>
	</g>
	<g id="XMLID_14_">
		<g id="XMLID_144_">
			<path id="XMLID_148_" class="st1" d="M211.2,163.6c-4,1-7.2,4.1-8.3,8.1c-0.4,1.6,2,2.2,2.4,0.7c0.9-3.2,3.4-5.5,6.6-6.3
				C213.4,165.6,212.7,163.2,211.2,163.6L211.2,163.6z"/>
		</g>
	</g>
	<g id="XMLID_15_">
		<g id="XMLID_151_">
			<path id="XMLID_155_" class="st1" d="M338.9,154.8c14.4-6.3,30.9-5,44.3,3.1c1.4,0.8,2.6-1.3,1.3-2.2
				c-14.2-8.6-31.6-9.7-46.8-3.1C336.2,153.3,337.4,155.5,338.9,154.8L338.9,154.8z"/>
		</g>
	</g>
	<g id="XMLID_50_">
		<g id="XMLID_158_">
			<path id="XMLID_162_" class="st1" d="M338,164.5c9.5-0.2,19.7-0.3,27.1,6.7c1.2,1.1,2.9-0.7,1.8-1.8c-7.9-7.4-18.6-7.6-28.9-7.4
				C336.4,162.1,336.4,164.6,338,164.5L338,164.5z"/>
		</g>
	</g>
	<g id="XMLID_58_">
		<g id="XMLID_165_">
			<path id="XMLID_169_" class="st1" d="M337.7,174.5c6.1,1.1,11.2,5.1,13.6,10.9c0.6,1.5,3,0.8,2.4-0.7
				c-2.7-6.6-8.3-11.3-15.3-12.6C336.8,171.8,336.1,174.2,337.7,174.5L337.7,174.5z"/>
		</g>
	</g>
	<g id="XMLID_114_">
		<g id="XMLID_172_">
			<path id="XMLID_176_" class="st1" d="M336.3,184.4c1.9,2,2.8,4.6,2.7,7.3c-0.1,1.6,2.4,1.6,2.5,0c0.2-3.4-1-6.7-3.4-9.1
				C337,181.5,335.2,183.2,336.3,184.4L336.3,184.4z"/>
		</g>
	</g>
</g>
<g id="letter">
	<g id="XMLID_1_">
		<g id="XMLID_97_">
			<path id="XMLID_103_" class="st2" d="M333.5,140.2c-18.3-0.8-36.2-3.3-54.2-6.2c-8.3-1.3-16.5-2.3-24.9-3
				c-8.9-0.7-18.3-0.5-26.9-3.5c-3-1.1-4.4,3.8-1.3,4.8c7.8,2.7,16.2,2.7,24.3,3.3c9.9,0.7,19.6,1.8,29.4,3.4
				c17.8,2.9,35.6,5.3,53.6,6C336.7,145.4,336.7,140.4,333.5,140.2L333.5,140.2z"/>
		</g>
	</g>
	<g id="XMLID_2_">
		<g id="XMLID_59_">
			<path id="XMLID_95_" class="st2" d="M331.3,143.5c-3.2,13.4-5.5,27-6.9,40.7c-0.4,3.5-0.6,7.1-0.9,10.6c-0.1,1.6-0.1,3.2-0.3,4.8
				c-0.3,2.6,0.2,2-2.6,1.8c-7.3-0.5-14.4-1.7-21.6-3.1c-27.6-5.2-55.7-7.2-83.2-13.4c-3.1-0.7-4.5,4.1-1.3,4.8
				c15,3.4,30.2,5.9,45.5,7.7c15.8,1.9,31.3,4.9,47,7.4c3.3,0.5,6.6,1,9.9,1.3c2.5,0.2,5.8,1,8.2,0.1c4.4-1.7,3.1-8.7,3.4-12.4
				c1.1-16.5,3.7-32.9,7.5-49C336.9,141.7,332.1,140.3,331.3,143.5L331.3,143.5z"/>
		</g>
	</g>
	<g id="XMLID_3_">
		<g id="XMLID_51_">
			<path id="XMLID_57_" class="st2" d="M222.4,129c-3.9,19.2-8.9,38.5-10.4,58.1c-0.3,3.2,4.7,3.2,5,0c1.5-19.1,6.4-38,10.2-56.7
				C227.9,127.2,223,125.9,222.4,129L222.4,129z"/>
		</g>
	</g>
	<g id="XMLID_4_">
		<g id="XMLID_43_">
			<path id="XMLID_49_" class="st2" d="M245.8,160.8c8.9-6.1,0.5-22.9-9.9-18.1c-4.6,2.1-6.4,8.4-7.3,12.9
				c-1.2,6.4-0.7,12.9,1.5,19.1c1.8,4.9,7.8,4.6,9.6,0c6.1-14.9,6.5-34.7-9.4-43.6c-3.6-2-7.1,0.6-7.5,4.3
				c-2,15.4-3.3,31.1-6.1,46.4c-0.6,3.5,1.4,5.9,4.8,6.3c16.9,2,33.8,3.9,50.7,6.4c15.9,2.4,32.9,3.7,47.9,9.9
				c2.9,1.2,6.5-1.9,6.3-4.8c-0.2-3.4,0.2-7.5-0.8-10.8c-0.9-3-3.2-4.1-6-5.2c-6.5-2.6-13.4-4.2-20.3-5.4
				c-13.9-2.3-28.2-2.8-41.9-6.5c-6.9-1.8-12.5-5.1-18.9-8c-5.3-2.4-12.1-1.8-15,3.9c-2.6,5.2,0,11.7,4.8,14.7
				c5.9,3.7,13.9,3,20.6,3.4c18.7,1.1,37.3,2.6,55.4,7.6c3.1,0.9,6.4-1.6,6.3-4.8c-0.1-6.8-4.7-14.9-8.1-20.8
				c-3.9-6.8-9.2-12.4-16-16.4c-6.8-4-14.5-6.6-21.8-9.5c-4.8-1.9-9.5-3.8-14.3-5.7c-3.8-1.5-7.7-3.6-11.9-3.9
				c-6.7-0.6-14.3,4.3-12.7,11.9c1.7,8.2,10.3,7.2,16.5,6.6c9-0.9,17.7,3,25.2,7.5c5.7,3.4,14.6,8.8,15.6,16
				c0.4-1.6,0.9-3.2,1.3-4.9c-0.2,0.2-0.4,0.4-0.7,0.7c1.2-0.5,2.4-1,3.5-1.5c-3.1,0.1-8.5-5-10.9-6.8c-3.6-2.6-7.2-5.2-11-7.5
				c-6.1-3.6-14.3-7.4-20.8-2.4c-12.9,10,6.9,29.7,18.8,22.1c13.2-8.4-3.3-31.1-16.3-26c-7.4,3-7,10.9-2.7,16.2
				c5.4,6.6,14.2,10,22.4,11.4c4,0.7,8.2-3.3,5.6-7.3c-3.1-4.9-7-8.7-12-11.6c-5.6-3.2-10.6,5.4-5,8.6c10.4,5.9,23.8,6.5,33,14.2
				c1.6-2.8,3.2-5.6,4.9-8.4c-9.1-1.6-18.1-3.7-27-6.1c-0.9,3.2-1.8,6.4-2.7,9.6c6.6,1.7,13.5,3.3,20.3,1.5c5.9-1.6,10.4-5.7,15.4-9
				c9.9-6.6,22.2-7.4,31.7-14.9c3.6-2.8,0.4-8.4-3.5-8.5c-14.1-0.4-28.8,0-42.8-2c-13.6-1.9-24.9-10.1-39.1-8
				c-6.1,0.9-3.7,9.2,1.3,9.8c9.8,1.3,19.7,1.9,29.5,2.7c5.1,0.4,10.2,0.9,15.2,1.6c4.3,0.7,10.3,1,14.2,3c-0.8-1-1.5-2-2.3-3
				c0,0.3,0.1,0.6,0.1,0.9c0.2-1.3,0.3-2.6,0.5-3.9c0.6-0.8-2.8,1.1-3.5,1.3c-2,0.8-4,1.4-6,2c-4,1.1-7.9,1.8-12,2.1
				c-6.4,0.5-6.4,9.6,0,10c14.8,1,31.3,4.4,45.5-1c-2.1-2.1-4.1-4.1-6.2-6.2c-1.7,11-2.5,22.9-6.2,33.4c2.8-0.7,5.6-1.5,8.4-2.2
				c-1.6-1.6-0.9-5.6-1-7.6c-0.1-2.7,0-5.5-0.6-8.2c-1-4.7-4.6-8.7-9.7-8.4c-5,0.3-8.8,4.4-9.7,9.1c-1.2,6.4,3.1,11.4,4.4,17.3
				c3-1.3,6.1-2.6,9.1-3.9c-3.4-7.7-7.6-14.9-12.5-21.8c-1.7-2.4-5.6-3.6-7.9-1c-5.5,6.3,1,12,7.5,12.7c8,0.9,14.5-3.8,20.4-8.6
				c5-4.1-2.1-11.1-7.1-7.1c-2.6,2.1-11,9-14.3,4.8c0.5,1.2,1,2.4,1.5,3.5c0-0.4,0-0.7-0.1-1.1c-0.5,1.2-1,2.4-1.5,3.5
				c0.2-0.3,0.4-0.5,0.7-0.8c-2.6-0.3-5.2-0.7-7.9-1c4.9,6.9,9.1,14.1,12.5,21.8c2.4,5.4,10.3,1.4,9.1-3.9c-0.8-3.4-2.6-6.3-3.7-9.6
				c-0.6-1.3-0.7-2.6-0.4-3.9c-0.2-0.1-0.4-0.3-0.6-0.4c-0.3,1.2,0.4,3.9,0.5,5.2c0.2,5.8-0.3,11.9,4,16.4c2.8,2.9,7.1,1.2,8.4-2.2
				c3.8-10.6,4.5-22.4,6.2-33.4c0.5-3.3-2.2-7.7-6.2-6.2c-13.2,5-29.1,1.6-42.9,0.6c0,3.3,0,6.7,0,10c8.9-0.6,19.1-2.4,26.9-7.1
				c2.8-1.7,4.8-4.6,3.7-8c-1.2-3.8-5.6-4.4-8.9-5.2c-18.8-4.4-38.3-4-57.3-6.5c0.4,3.3,0.9,6.5,1.3,9.8c7.1-1,13.9,1.9,20.4,4.3
				c5.9,2.2,11.8,3.7,18.1,4.3c13.5,1.4,27.2,1.3,40.7,1.8c-1.2-2.8-2.4-5.7-3.5-8.5c-7.8,6.1-18.5,6.9-27.1,11.7
				c-4.4,2.4-8,6.1-12.5,8.4c-5.9,3-12,1.4-18.1-0.2c-6.2-1.6-8.9,8-2.7,9.6c8.9,2.4,17.9,4.4,27,6.1c4.4,0.8,9.1-4.8,4.9-8.4
				c-10.3-8.6-23.7-9.3-35.1-15.8c-1.7,2.9-3.4,5.8-5,8.6c3.6,2,6.2,4.5,8.4,8c1.9-2.4,3.8-4.9,5.6-7.3c-4.5-0.7-8.8-1.9-12.7-4.2
				c-1.6-1-2.9-2.1-4.3-3.4c-2.5-2.2,0.2-0.7,1.5,0.2c1.8,1.2,6.9,8.5,1.7,6.7c-3.1-1.1-8-7-1.7-5.4c8.1,2.1,15.3,9.5,22.1,14
				c4.1,2.7,15.4,9.2,16.7-0.2c0.9-6.5-6.5-13.8-11-17.5c-6.2-5-13.2-9.1-20.6-12.1c-3.9-1.6-7.9-2.6-12.1-3.1c-2-0.2-4-0.3-6-0.2
				c-1.7,0.1-5.6-0.1-6.9,0.8c-0.3,0-0.6,0-0.9,0c0.7,0.5,1.6,0.8,2.5,0.8c1,0.3,1.9,0.4,2.8,0.8c2.4,0.8,4.7,1.9,7.1,2.8
				c4.8,1.9,9.5,3.8,14.3,5.7c8.7,3.5,18.7,6.4,25.6,13.1c3.3,3.1,5.7,7,7.7,11c1.8,3.6,5.2,8.9,5.2,13c2.1-1.6,4.2-3.2,6.3-4.8
				c-14.7-4-29.8-5.9-44.9-7.1c-7.7-0.6-15.5-0.6-23.2-1.4c-1.5-0.2-8-2.4-5.6-2.8c1.8-0.3,6.5,3.4,8.2,4.2
				c11.7,5.4,24.3,7.3,36.9,8.9c6.6,0.8,13.2,1.5,19.8,2.7c6.2,1.1,14.5,2.2,19.9,5.8c-0.8-1-1.5-2-2.3-3c0.7,2.7,0.4,5.9,0.6,8.6
				c2.1-1.6,4.2-3.2,6.3-4.8c-15.6-6.4-33.3-7.8-49.8-10.2c-17.1-2.5-34.3-4.5-51.5-6.5c1.6,2.1,3.2,4.2,4.8,6.3
				c3-16.2,4.4-32.7,6.5-49c-2.5,1.4-5,2.9-7.5,4.3c11.9,6.7,9.1,21.8,4.9,32.3c3.2,0,6.4,0,9.6,0c-1.5-4.2-2.2-8.4-1.6-12.8
				c0.3-2,1.3-3.9,1.5-5.8c1.1-1.4,1-1.8-0.3-1.1c0.4,0.8,0.4,1.5,0,2.3c0.8-1,1.5-2,2.3-3c-0.3,0.2-0.6,0.4-0.9,0.6
				C235.4,155.8,240.4,164.4,245.8,160.8L245.8,160.8z"/>
		</g>
	</g>
	<g id="XMLID_5_">
		<g id="XMLID_36_">
			<path id="XMLID_41_" class="st3" d="M332.7,143.2c0-0.1,0.1-0.2,0.1-0.3c-0.5,0.3-1,0.6-1.5,0.9c0.1,0,0.2,0.1,0.3,0.1
				c-0.3-0.5-0.6-1-0.9-1.5c-0.3,0.7-4.4,2.2-5.3,2.6c-2.6,1.3-5.3,2.6-7.9,4c-5,2.5-10,5-15,7.4c-5,2.5-10,4.9-15,7.4
				c-2.1,1-4.8,3-7.1,3.4c-3.4,0.6-6-2.2-8.4-4.3c-7-5.8-14-11.7-21.8-16.4c-8.6-5.2-18.1-9-25.1-16.3c-1.1-1.2-2.9,0.6-1.8,1.8
				c7.4,7.7,17.4,11.6,26.4,17.2c5.3,3.3,10.3,7.1,15.2,11.1c2.3,1.8,4.5,3.7,6.7,5.6c1.5,1.3,3.3,3.5,5.2,4.2
				c3.4,1.3,7.3-1.8,10.2-3.3c5.9-2.9,11.8-5.8,17.7-8.7c5.9-2.9,11.8-5.8,17.6-8.8c2.9-1.4,6-2.7,8.8-4.4c1.1-0.7,1.6-0.7,2-1.9
				c0.2-0.7-0.3-1.3-0.9-1.5c-0.1,0-0.2-0.1-0.3-0.1c-0.7-0.2-1.3,0.3-1.5,0.9c0,0.1-0.1,0.2-0.1,0.3
				C329.8,144.1,332.2,144.7,332.7,143.2L332.7,143.2z"/>
		</g>
	</g>
	<g id="XMLID_6_">
		<g id="XMLID_29_">
			<path id="XMLID_34_" class="st3" d="M256.5,156.6c-5.3,6.1-11.4,10.9-18.1,15.3c-2.5,1.6-4.9,3.1-7.2,5
				c-3.4,2.7-6.1,6.3-10.3,7.9c-1.5,0.6-0.8,3,0.7,2.4c3.1-1.2,5.4-3.1,7.9-5.4c3.2-2.9,6.6-5.4,10.2-7.7c7-4.5,13.2-9.4,18.7-15.7
				C259.3,157.2,257.5,155.4,256.5,156.6L256.5,156.6z"/>
		</g>
	</g>
	<g id="XMLID_7_">
		<g id="XMLID_22_">
			<path id="XMLID_27_" class="st3" d="M295.1,164.5c6.8,14,15.1,27,25,39.1c1,1.2,2.8-0.5,1.8-1.8c-9.7-11.9-17.9-24.8-24.6-38.5
				C296.5,161.8,294.4,163.1,295.1,164.5L295.1,164.5z"/>
		</g>
	</g>
	<g id="XMLID_121_">
		<g id="XMLID_179_">
			<path id="XMLID_183_" class="st4" d="M306.2,159.4c-0.2,0-0.3,0-0.5,0c-1.3,0-2.6,1.1-2.5,2.5c0.1,1.4,1.1,2.5,2.5,2.5
				c0.2,0,0.3,0,0.5,0c1.3,0,2.6-1.1,2.5-2.5C308.7,160.5,307.7,159.4,306.2,159.4L306.2,159.4z"/>
		</g>
	</g>
	<g id="XMLID_128_">
		<g id="XMLID_186_">
			<path id="XMLID_190_" class="st4" d="M251.8,158.2c0.1,0,0.2,0,0.2,0c1.3,0,2.6-1.1,2.5-2.5c-0.1-1.4-1.1-2.5-2.5-2.5
				c-0.1,0-0.2,0-0.2,0c-1.3,0-2.6,1.1-2.5,2.5C249.3,157.1,250.3,158.2,251.8,158.2L251.8,158.2z"/>
		</g>
	</g>
	<g id="XMLID_135_">
		<g id="XMLID_193_">
			<path id="XMLID_197_" class="st4" d="M273.6,179.9c0,1-0.9,2.2-2,2c-1.1-0.2-1.5-1.5-1.2-2.4c0.7-2.3-2.9-3.3-3.6-1
				c-0.9,3,1,6.5,4.2,7.1c3.4,0.6,6.5-2.3,6.4-5.6C277.3,177.5,273.6,177.5,273.6,179.9L273.6,179.9z"/>
		</g>
	</g>
	<g id="XMLID_8_">
		<g id="XMLID_177_">
			<path id="XMLID_192_" class="st5" d="M220.2,196.9c-9.5,5.6-20.8,5.7-31.5,5.1c-9.7-0.5-19.3-2-28.6-4.6
				c-18.1-5-35.2-14.4-47.7-28.5c-6.8-7.7-16-21.6-3.9-29.1c3.8-2.3,8.6-3.3,13-3.4c2.7-0.1,10.5,1.1,9.6,5.8
				c-1,4.6-6.2,5.6-10.1,5.4c-12-0.7-20.3-12.5-26.6-21.4c-6.1-8.6-11.7-17.6-18.1-26C63.8,83.9,45.7,69,23.9,71.1
				c-2.4,0.2-2.4,4,0,3.8c29.6-2.8,47.8,24.7,62.3,46c6.7,9.9,14,22.1,25,27.7c6.5,3.3,21.8,5.4,23.5-5c2.8-17-38.9-13.1-35.7,9
				c1.5,10.6,10.9,20.2,18.7,26.9c8.1,7.1,17.4,12.6,27.3,16.7c11.8,4.9,24.3,7.9,37,9.2c13.3,1.3,28.2,1.8,40.1-5.1
				C224.2,198.9,222.3,195.7,220.2,196.9L220.2,196.9z"/>
		</g>
	</g>
	<g id="XMLID_54_">
		<g id="XMLID_200_">
			<path id="XMLID_204_" class="st5" d="M87.9,102.4c-7.6-9.2-15.3-18.2-25.1-25.2c-2-1.4-3.8,1.8-1.9,3.2
				c9.5,6.8,16.9,15.7,24.3,24.6C86.8,106.9,89.4,104.2,87.9,102.4L87.9,102.4z"/>
		</g>
	</g>
	<g id="XMLID_116_">
		<g id="XMLID_207_">
			<path id="XMLID_211_" class="st5" d="M110.2,191.4c-8.4-4.6-15-11.3-19.5-19.7c-1.1-2.1-4.4-0.2-3.2,1.9
				c4.8,8.9,12,16.2,20.9,21.1C110.4,195.8,112.3,192.5,110.2,191.4L110.2,191.4z"/>
		</g>
	</g>
	<g id="XMLID_117_">
		<g id="XMLID_214_">
			<path id="XMLID_218_" class="st5" d="M90.9,192.4c-2.7-2-4.8-4.6-6.3-7.6c-1.1-2.1-4.4-0.2-3.2,1.9c1.9,3.6,4.5,6.5,7.7,8.9
				C91,197.1,92.8,193.8,90.9,192.4L90.9,192.4z"/>
		</g>
	</g>
	<g id="XMLID_118_">
		<g id="XMLID_221_">
			<path id="XMLID_225_" class="st5" d="M391.7,85.2c4.9-14-10.2-25.9-22.8-18.2c0.9,0.4,1.8,0.7,2.8,1.1
				c-1.6-9.5-10.1-17.2-19.9-17.1c-9.8,0.1-18.1,8.1-19.4,17.6c0.9-0.4,1.8-0.7,2.8-1.1c-4.5-2-9.8-3-13.8,0.6
				c-4.4,4-2.5,9.5-0.2,14.1c0.5-0.9,1.1-1.9,1.6-2.8c-3.6,0-7.1,1.8-8.5,5.3c-1.2,2.9-0.7,6.5,2.3,8c4.4,2.2,11.5,1.6,16.2,1.7
				c7,0.2,14-0.1,21-0.5c6.7-0.4,13.4-0.8,20.1-1.1c3.5-0.1,7-0.2,10.5-0.2c3.1,0,6.5,0.7,9.5,0.4c7.1-0.8,3.4-12.4-3-12.5
				c-2.4,0-2.4,3.7,0,3.8c3.3,1.4,3.9,2.7,2,4c-0.6,1-1.6,1.3-2.8,0.8c-1.2,0.1-2.6-0.1-3.8-0.1c-3.5-0.1-7,0-10.5,0.1
				c-6.7,0.2-13.4,0.7-20.1,1c-6.4,0.4-12.7,0.7-19.1,0.6c-3.5,0-7-0.1-10.5-0.4c-1.6-0.1-3.2-0.2-4.7-0.4c-0.8-0.1-1.7-0.2-2.5-0.3
				c-1.1-4.4,0.2-6.5,3.9-6.3c1.5,0,2.2-1.6,1.6-2.8c-1.6-3.2-3.4-7.4,0.4-9.9c2.7-1.8,5.8-0.9,8.5,0.3c1,0.4,2.6,0.2,2.8-1.1
				c1.1-7.8,7.6-14.7,15.8-14.8c8.2-0.1,14.9,6.5,16.3,14.3c0.2,1.2,1.8,1.7,2.8,1.1c9.9-6.1,21.1,3.1,17.3,14
				C387.2,86.5,390.9,87.5,391.7,85.2L391.7,85.2z"/>
		</g>
	</g>
	<g id="XMLID_119_">
		<g id="XMLID_228_">
			<path id="XMLID_232_" class="st5" d="M133.6,45.6c0.8-5.4-4.4-11.8-9.8-12.9c-2.9-0.6-3.8,0.8-6.1,1.6c-2.6,0.8-5.8-1.4-8.8-1
				c-2.8,0.4-5.5,1.8-7.1,4.1c-1.3,2-0.9,2.8-3.2,4.3c-1.1,0.8-2.2,1.2-3.1,2.2c-3.4,3.6-3.2,9.7,1.2,12.4c2,1.3,4.3,1.3,6.5,0.5
				c1.1-0.4,3.3-2.7,4.3-2.8c1-0.1,2.8,1.5,3.7,2c2.9,1.4,6.3,1.8,9.5,1.2c1.7-0.3,3-1.2,4.5-1.5c2.3-0.5,3.6,0.2,5.7,0.5
				c3.9,0.5,13.7-0.3,14.6-5.4c1.2-6.5-11.1-6.4-14.8-5.9c-2.4,0.3-1.4,4,1,3.6c1.2-0.2,9.5-1.1,8.8,2.3c-0.3,1.5-6.8,1.8-7.8,1.8
				c-3.1-0.2-5.3-1.7-8.3-0.7c-2.5,0.8-4.4,2-7.1,1.8c-2.9-0.1-4.6-1.4-7.1-2.7c-1.8-0.9-2.6-1.3-4.5-0.4c-2,1-6.3,7.1-8.7,0.3
				c-1.9-5.2,3.7-4.8,5.8-6.9c2.9-2.9,1.9-6.7,7.4-6.9c3-0.2,5.5,2.1,8.4,1.3c2.6-0.8,2.8-3.1,6.1-1.3c2.3,1.3,5.6,4.7,5.2,7.5
				C129.7,46.9,133.3,48,133.6,45.6L133.6,45.6z"/>
		</g>
	</g>
	<g id="XMLID_120_">
		<g id="XMLID_235_">
			<path id="XMLID_239_" class="st6" d="M115,43.7c1.8,1.2,1.8,2,0.1,2.4c-0.7,0.9-1.4,1.8-2.1,2.8c0.6,0.7,1.2,1.3,1.7,2
				c0.5,2,3.8,1.6,3.7-0.5c0.1-0.9,0.3-1.8,0.4-2.7c-1.1,0-2.2,0-3.2,0c0.1,0.2,0.1,0.3,0.2,0.5c0.9-0.2,1.7-0.4,2.6-0.7
				c-0.1-0.4-0.1-0.7-0.2-1.1c-1,0.1-2,0.3-2.9,0.4c0.3,0.6,0.5,1.2,0.8,1.7c0.5,2.4,3.9,1.3,3.6-1c0.8-5.5,2.7-6.3,5.8-2.6
				c-1.6,2.5-2.6,2.5-2.8,0c2.9-4.7,3.8-4.5,2.8,0.8c-1.9-1.4-2.6-3.3-2-5.5c-1,0.3-2.1,0.6-3.1,0.8c1.4,1.5,2.2,2.6,2.9,4.5
				c0.6,1.5,0.3,3.2,0.9,4.7c0.3,0.8,0.5,1.8,1.4,2.2c3.6,1.9,10.4-4,13.5,0.4c0.4-0.9,0.7-1.8,1.1-2.8c-4.5,0.9-7.5-3.8-12.3-1.3
				c-1.1,0.5-1.2,2.2-0.4,2.9c2.3,2.2,4.8,2.8,7.9,1.9c1.6-0.5,1.8-2.6,0.4-3.4c-1.3-0.8-2.4-1-3.9-1c-2.6,0.1-4.1-0.9-6.4-1.5
				c-1.8-0.5-3.2,0.4-4.9,0.9c-4,1.1-7.8,0.1-10.1-3.6c-0.8-1.3-2.4-1.1-3.2,0c-2.4,3.2-0.8,7.1,2.6,8.7c4.5,2.1,9.5,0.5,13-2.6
				c-1-0.8-2-1.5-2.9-2.3c-1.6,2-3.3,2.2-5.2,0.8c-0.3,1.2-0.6,2.3-0.9,3.5c4,0.4,7.7,0,11.6-1.2c-0.6-1-1.2-2.1-1.8-3.1
				c-1.3,1.4-3.3-2.1-3.4-3.2c0-0.8,1.7-2.4,2.1-3c1.1-1.6,1.9-3,2.4-4.9c0.3-1.1-0.6-2.4-1.8-2.4c-5.8,0.3-10.1,4.9-9.6,10.8
				c0.2,2.1,3,2.5,3.7,0.5c3.7-10.5-13.5-12.4-12.7-2.2c0.3,3.6,4.3,6.7,7.7,5c3.5-1.8,5.5-8.5,3.6-11.9c-2.5-4.3-7.1-2.1-9.2,1.3
				c-1.6,2.6-0.9,8.1,3.5,6.9c3.3-0.9,3-5.9,0.4-7.3c-3.5-1.8-5.5,2.6-3.7,5.3c2.2,3.3,7.5,0.2,5.4-3.2c-2.1-3.5-6.9-0.5-5.5,3
				c0.7,1.8,3.8,1.8,3.7-0.5c-0.2-3.2-3.3-5.6-6.4-3.7c-3.7,2.4-2.1,6.8,0,9.5c1.2,1.5,3.7-0.1,3.1-1.8c-1.7-5.3-8.6-5.1-10.4,0.1
				c-1.7,4.9,4.8,9.1,8.3,5c3.3-3.9-0.9-9.5-5.5-7.5c-5.4,2.2-2.3,9.3,2.8,9c2.4-0.2,2.4-3.9,0-3.8c0.4-0.6,0.8-1.2,1.2-1.8
				c1-0.6,2.1-1.2,3.1-1.8c0-1.1,0-2.2,0-3.2c1.2-0.2,2.5-0.3,3.7-0.5c-0.5-2.8-0.1-3.3,1.2-1.5c1.2,0.6,1.4,1.4,0.6,2.5
				c-0.3,0.6-0.5,1.2-0.8,1.8c2.5-2.7,3.3-2.6,2.3,0.4c1.2,0.2,2.5,0.3,3.7,0.5c-0.3-3.7,1.9-6.8,5.9-7.1c-0.6-0.8-1.2-1.6-1.8-2.4
				c-1.2,4.8-8.7,9.9-4.2,15.3c2.6,3.2,6.8,2.3,9.3-0.5c1.2-1.3,0.1-3.7-1.8-3.1c-3.5,1.1-6.9,1.5-10.6,1.1c-2-0.2-2.3,2.5-0.9,3.5
				c3.6,2.5,7.9,1.4,10.3-2.1c1.2-1.8-1.4-3.6-2.9-2.3c-1.5,1.3-3,2.2-5,2.4c-1.2,0.1-7.5,0-4.6-3.9c-1.1,0-2.2,0-3.2,0
				c2.6,3.9,6.8,6.4,11.5,5.9c1.1-0.1,2-0.5,3-0.7c2.2-0.4,3-0.1,4.7,0.4c2.2,0.6,5.7-0.4,7.5,0.8c0.1-1.1,0.3-2.3,0.4-3.4
				c-1.4-0.3-2.8-0.6-4.3-0.9c-0.1,1-0.3,2-0.4,2.9c2.2-1.1,4.6,0.9,6.6,1.5c1.8,0.6,2.9,0.6,4.7,0.2c1.1-0.2,1.8-1.8,1.1-2.8
				c-2.6-3.7-7.5-3.4-11.6-2.8c-0.8,0.1-1.6,0.2-2.3,0.4c-0.6,1-0.8,1-0.7,0c-0.5-0.6-0.4-2.7-0.6-3.5c-0.8-2.6-2.2-4.7-4.1-6.6
				c-0.9-1-2.8-0.6-3.1,0.8c-0.9,4.2,0.8,8.8,5.1,10.3c3.7,1.3,7.2-1.5,6.6-5.5c-0.6-3.7-5.1-8.2-9.1-7c-4.4,1.3-4.4,6.9-2.9,10.4
				c1.4,3.4,5.7,5.8,8.5,2.3c2.5-3.1,1.1-8.6-2.4-10.3c-3.3-1.7-8,0.1-8.6,4c-0.5,3.3,2.7,7,6.1,5.9c4.2-1.4,2.8-7.6-0.5-9.2
				c-5.7-2.8-7.2,4.5-6.7,8.4c1.2-0.3,2.4-0.7,3.6-1c-0.4-1.8-0.6-2-1.7-3.4c-0.8-0.9-2.4-0.6-2.9,0.4c-1.4,2.5-0.8,4.7,1.5,6.2
				c0.8,0.5,2.1,0.2,2.6-0.7c0.8-1.6,0.9-2.8-0.2-4.3c-0.7-1-2.6-1.4-3.2,0c-0.7,1.6-1,2.9-0.9,4.6c1.2-0.2,2.5-0.3,3.7-0.5
				c-0.6-2.5-2-3.8-4.3-4.6c-1.7-0.6-2.8,1.4-2.1,2.8c3.6,7.9,14.9,1.6,10.1-4.4c-4.8-6-12.5,3.2-6.1,7.8c6.5,4.7,9.5-6.1,2.6-9.1
				c-2.3-1-7.3-0.9-7.6,2.6c-0.3,3.6,4,3.4,6,2.1C118.9,45.6,117,42.3,115,43.7L115,43.7z"/>
		</g>
	</g>
	<g id="XMLID_149_">
		<g id="XMLID_242_">
			<path id="XMLID_246_" class="st6" d="M104,45.8c-1.1,1.1-3.9,2.2-3.5,4.1c0.1,0.2,0,0.4-0.1,0.6c0.8,0.8,1.2,0.8,1.4,0.2
				c0.4-0.3,0.6-1,1.1-1.4c0.3-0.2,0.9-0.5,0.9-0.5c0.3,0.4-1.4,1.3-1.6,1.4c-0.6,0.3-3.4,1.7-3.4,0.1c0-2.4-3.8-2.4-3.8,0
				c0,2.2,1.5,3.9,3.6,4.3c2.3,0.5,4.9-0.7,6.7-2c1.8-1.4,2.9-3.9,1.5-5.9c-1.3-1.8-3.9-1.9-5.7-0.8c-1.6,1-3.2,3.1-3.3,5.1
				c-0.1,2.1,1.8,3.8,3.9,3.1c4.5-1.6,2.2-9.8-2.2-7.3c-2.1,1.2-2.2,4.3,0.3,5.1c2.5,0.8,5.2-1.8,6.8-3.3
				C108.4,46.8,105.8,44.1,104,45.8L104,45.8z"/>
		</g>
	</g>
	<g id="XMLID_163_">
		<g id="XMLID_249_">
			<path id="XMLID_253_" class="st6" d="M358.4,73.3c-1.6-0.6-3.1-1.5-4.4-2.7c-0.5-0.4-2.5-3.3-2-3.1c1.5,0.6,2.2,4.3,2.1,5.5
				c0,1.9-0.8,3.9-2.6,4.8c-1.9,0.9-3.7-0.1-4.6-1.8c-0.6-1-1.5-3.9-0.4-4.7c2.4-1.7,4.6,7.9,4.5,7.9c0.6,0.1,1.3,0.2,1.9,0.3
				c-3-1.3-3.6-7.2-4-10c-1.5,0.6-3,1.3-4.6,1.9c0.8,1.8,3,6.3,1.8,8.2c1.3-0.2,2.6-0.3,3.9-0.5c-1-1.1-1.5-2.4-1-3.9
				c-0.6,0.6-1.2,1.2-1.7,1.7c0.3-0.1,0.5-0.1,0.8-0.2c-0.6-0.1-1.3-0.2-1.9-0.3c0.3,0.2,0.7,0.5,1,0.7c2.2,2.3,5.8-1.2,3.5-3.5
				c-1.9-2-5-2.7-6.4,0.2c-1.4,3,0.3,6.5,2.2,8.8c1.1,1.2,3.2,0.8,3.9-0.5c2.3-4.1-0.1-9.4-1.8-13.3c-1.2-2.8-4.9-0.6-4.6,1.9
				c0.6,4.1,1.7,9.6,5.2,12.3c3,2.3,6.2-0.1,6.4-3.5c0.3-4.3-1.9-9-4.9-12c-2.8-2.8-6.7-3.4-8.9,0.6c-3.9,7,3,17.5,11.1,14.2
				c7.8-3.1,8-16.9,0-20.1c-4.3-1.7-7.8,2.3-6.5,6.5c1.5,4.5,6.2,7.6,10.4,9.2C360.1,79.2,361.4,74.4,358.4,73.3L358.4,73.3z"/>
		</g>
	</g>
	<g id="XMLID_198_">
		<g id="XMLID_256_">
			<path id="XMLID_260_" class="st6" d="M356.7,82.1c-2.1-1.8-2.8-3.3-3.3-6c0-0.5,0.1-0.9,0.1-1.4c-0.1,0.4-0.3,0.9-0.4,1.3
				c0.3,1.1,1.4,3.1,2.2,2.4c1.3-1.1-2-6.9,1.7-7.4c2.8-0.4,2.7,5,3.3,6.9c-0.6,1.2-0.3,1.6,1,1.1c1,0.3,1.4,0.1,1.1-0.6
				c0.4-0.5,0.1-2.3,0.6-3.1c1.2-2,3.2-2.9,4-5.1c1.5-3.9,0.1-8.3-2.4-11.5c-5.6-7.2-16.4-7.5-22.9-1.4c-7.8,7.3-6.7,19.6-6.5,29.2
				c0.1,3.5,3.1,5.4,6.3,4.8c14.6-2.5,29.4-3.4,44.2-2.9c3.6,0.1,5.2-3.3,4.8-6.3c-0.9-6.3-4.7-12.6-11.1-14.6
				c-6.1-1.8-12.3,0.5-15.7,5.8c-1.6,2.5-0.2,6.9,3,7.3c2.8,0.4,5.6,0.2,7.6,2.2c2.2,2.2,4,4.1,6.8,5.6c0.8-3.1,1.7-6.2,2.5-9.3
				c-20.7,1.6-41.5,2.4-62.2,2.5c0,3.3,0,6.7,0,10c6.4-0.2,14.6-2.6,16.2-9.8c1.3-5.8-2.4-11.1-7.7-13c-2.4-0.8-5.7,1-6.2,3.5
				c-1.1,5.8,2.9,11.4,9.2,10.4c5.3-0.8,9.6-7.7,6.6-12.6c-3-5-10.9-3.7-14.4-0.1c-4.1,4.3-3.3,11,0.9,14.9c2-2.6,4-5.2,6.1-7.9
				c-0.9-0.7-1.2-2.8-1.4-3.8c-2.4,1.9-4.9,3.8-7.3,5.6c4.7,3.2,9.9,5.2,15.5,6c6.1,0.8,11.4-0.8,17.4-1.8c6.1-1,10.9,3.3,16.7,4.4
				c2.8,0.5,5.5,0.7,8.2,1.9c2.9,1.3,4.9,2.5,8.2,2.7c5,0.4,6.8-7.1,2.5-9.3c-1.3-0.7-2.2-1.1-3.6-1.3c-6.3-1-9,8.7-2.7,9.6
				c0.4,0.1,0.8,0.2,1.2,0.3c0.8-3.1,1.7-6.2,2.5-9.3c-2.4-0.2-4.9-2.5-7.2-3.2c-2.6-0.8-5.4-0.8-8.1-1.5c-4.9-1.2-8.9-4.5-14.1-4.7
				c-5.3-0.3-10.3,2.1-15.5,2.4c-5.9,0.3-11.2-1.6-16-4.9c-3.8-2.6-8.3,1.7-7.3,5.6c1,4.1,2.6,7.2,6,9.8c4.6,3.4,10.2-4,6.1-7.9
				c-0.9-0.6-1-0.9-0.3-0.9c-0.8-1-1.5-2-2.3-3c1,0.3,1.9,0.7,2.9,1c-2.1,1.2-4.1,2.3-6.2,3.5c3.2,1.1-5.5,3.1-5.8,3.1
				c-6.4,0.2-6.5,10,0,10c20.8-0.1,41.5-0.9,62.2-2.5c4.6-0.4,7.2-6.8,2.5-9.3c-3.2-1.7-4.5-4.8-7.4-6.7c-2.7-1.7-6.3-1.7-9.4-2.2
				c1,2.4,2,4.9,3,7.3c1.3-2,4-1.7,5.7-0.3c2,1.6,2.5,4.4,2.8,6.7c1.6-2.1,3.2-4.2,4.8-6.3c-15.7-0.5-31.3,0.6-46.8,3.2
				c2.1,1.6,4.2,3.2,6.3,4.8c-0.1-6.2-2.2-20.5,5.6-23.3c1.7-0.6,3.4-0.5,4.9,0.6c0.6,0.4,1.1,0.9,1.6,1.6c0.3,0.5,0.2,2,0.6,0.9
				c-0.4,1-2.4,2.4-3.1,3.4c-1,1.5-1.7,3.1-2.1,4.9c-1.3,5.8,1.3,13.3,8,14.1c7.6,0.8,10.3-7.7,9.4-13.8c-1-6.8-5.3-14.2-13-14
				c-7.3,0.2-12,7-11.9,13.8c0.1,6.7,4.6,14.5,12.3,13.4c7.3-1.1,8.5-9.6,5.6-15.2c-3.1-6.1-12.6-11.1-17.7-4.2
				c-4.6,6.2-1.1,15.9,4.2,20.4C354.5,93.3,361.6,86.3,356.7,82.1L356.7,82.1z"/>
		</g>
	</g>
</g>
</svg>
