<?xml version="1.0" encoding="utf-8"?>
<!-- Generator: Adobe Illustrator 19.0.0, SVG Export Plug-In . SVG Version: 6.00 Build 0)  -->
<svg version="1.1" xmlns="http://www.w3.org/2000/svg" xmlns:xlink="http://www.w3.org/1999/xlink" x="0px" y="0px"
	 viewBox="0 0 310.3 216.3" style="enable-background:new 0 0 310.3 216.3;" xml:space="preserve">
<style type="text/css">
	.st0{fill:#E8E6A9;}
	.st1{fill:#B1DDCA;}
	.st2{fill:#DFF2F9;}
	.st3{fill:#7DCAAC;}
	.st4{fill:#151515;}
	.st5{fill:#FFFFFF;}
	.st6{fill:#191919;}
	.st7{fill:#3D3D3D;}
</style>
<g id="Layer_3">
	<g id="XMLID_2_">
		<g id="XMLID_26_">
			<path id="XMLID_30_" class="st0" d="M184.5,156.6c-0.8,0-1.4,0.1-2.1,0.2c0.8,1.4,1.6,2.8,2.4,4.2c2.4-1.9,6.2-1.7,8.8-3.3
				c2-1.2,1.3-3.8-0.6-4.6c-2.2-0.9-4.3-0.5-6.5-0.1c-2.7,0.5-5.2,0.9-7.9,1c-2.3,0-3.2,2.7-1.8,4.3c1.3,1.5,2.3,3.2,3.1,5
				c0.6,1.5,2.9,2.8,4.2,1.1c0.6-0.8,1.2-1.3,2.1-1.8c2.9-1.5,0.3-5.8-2.5-4.3c-1.3,0.7-2.3,1.5-3.1,2.6c1.4,0.4,2.8,0.7,4.2,1.1
				c-1.1-2.7-2.5-5-4.4-7.2c-0.6,1.4-1.2,2.8-1.8,4.3c2.2,0,4.3-0.2,6.5-0.6c2.2-0.4,4.5-1.4,6.6-0.5c-0.2-1.5-0.4-3-0.6-4.6
				c-3.2,1.9-6.8,1.7-9.8,4.1c-2.1,1.7,0.2,4.6,2.4,4.2c0.3,0,0.5,0,0.8,0C187.7,161.7,187.7,156.7,184.5,156.6L184.5,156.6z"/>
		</g>
	</g>
	<g id="XMLID_3_">
		<g id="XMLID_35_">
			<path id="XMLID_41_" class="st0" d="M112.5,180.2c5.3-1.2,10.5-2.9,15.5-5c2.4-1,2.4-5.1-0.7-4.9c-10.8,0.6-21.6,3.3-32.3,1.3
				c-3.1-0.6-4.5,3.9-1.3,4.8c6.7,1.9,13.3,3.9,19.3,7.6c1.2,0.7,2.7,0.2,3.4-0.9c0.3-0.3,0.6-0.7,0.8-1c2.3-2.2-1.2-5.8-3.5-3.5
				c-0.7,0.7-1.1,1.2-1.6,2c1.1-0.3,2.3-0.6,3.4-0.9c-6.3-3.9-13.4-6.1-20.5-8.1c-0.4,1.6-0.9,3.2-1.3,4.8
				c11.3,2.2,22.4-0.5,33.6-1.1c-0.2-1.6-0.4-3.3-0.7-4.9c-5,2.1-10.2,3.7-15.5,5C108,176.1,109.3,180.9,112.5,180.2L112.5,180.2z"
				/>
		</g>
	</g>
	<g id="XMLID_4_">
		<g id="XMLID_44_">
			<path id="XMLID_74_" class="st0" d="M175.2,131.2c5.8-2.5,10.3-6.3,13.9-11.4c1.3-1.8-0.8-4.2-2.8-3.7c-6,1.7-12.4,5.1-17.4,8.8
				c-6,4.4-8.6,10.7-13.3,16.2c-1.8,2.1,0.5,5.5,3,3.9c4.8-2.9,10-5.7,14.5-9.1c2.1-1.6,3.6-3.4,3.1-6.1c-0.1-0.9-1-1.5-1.7-1.7
				c-3.7-1.4-7.6,2.7-10.5,4.6c-2.7,1.8-0.2,6.1,2.5,4.3c1-0.6,5.5-4.5,6.6-4.1c-0.6-0.6-1.2-1.2-1.7-1.7c0.1,0.5-7.3,4.6-7.8,4.9
				c-2.5,1.6-5,3.1-7.5,4.6c1,1.3,2,2.6,3,3.9c4.2-4.9,6.8-11,12-15.1c4.7-3.7,10.9-7,16.6-8.6c-0.9-1.2-1.9-2.4-2.8-3.7
				c-3.1,4.4-7.1,7.6-12.1,9.7C169.8,128.1,172.3,132.4,175.2,131.2L175.2,131.2z"/>
		</g>
	</g>
	<g id="XMLID_5_">
		<g id="XMLID_102_">
			<path id="XMLID_125_" class="st0" d="M152.4,148.7c4.7-2.1,8.1-5.5,10.2-10.2c0.9-2-1.1-5-3.4-3.4c-7,4.7-15,6.7-22.3,10.7
				c-7.9,4.3-15.4,8.5-23.9,11.8c-2.5,1-2.3,4.8,0.7,4.9c13.9,0.4,27-4.8,37.1-14.3c1.9-1.8-0.1-4.7-2.4-4.2
				c-6.4,1.4-12.3,4-18.1,6.8c-2.9,1.4-0.4,5.7,2.5,4.3c5.5-2.6,11-5,16.9-6.3c-0.8-1.4-1.6-2.8-2.4-4.2
				c-9.1,8.7-20.9,13.2-33.5,12.9c0.2,1.6,0.4,3.3,0.7,4.9c8.3-3.3,15.9-7.1,23.6-11.5c7.7-4.4,16.3-6.5,23.7-11.5
				c-1.1-1.1-2.3-2.3-3.4-3.4c-1.8,4-4.4,6.6-8.4,8.4C146.9,145.7,149.5,150,152.4,148.7L152.4,148.7z"/>
		</g>
	</g>
	<g id="XMLID_10_">
		<g id="XMLID_128_">
			<path id="XMLID_134_" class="st0" d="M115,156.1c-3.6,0.4-7.3,0.6-10.9,0.8c0,1.7,0,3.3,0,5c5.3-0.4,10.4-1.3,15.4-2.9
				c3.1-1,1.8-5.5-1.3-4.8c-7.9,1.7-15.9,2.2-23.9,1.3c-7.8-0.9-17-2.7-24.1-6.3c-2.3-1.2-4.5,1.2-3.4,3.4c6,13,26.5,11.7,38.2,11.1
				c3.2-0.1,3.2-5.2,0-5c-9.9,0.5-28.9,2.3-33.9-8.7c-1.1,1.1-2.3,2.3-3.4,3.4c7.4,3.8,16.5,5.6,24.7,6.7c9.1,1.2,18.2,0.7,27.1-1.2
				c-0.4-1.6-0.9-3.2-1.3-4.8c-4.6,1.5-9.2,2.4-14.1,2.8c-3.2,0.2-3.3,5.1,0,5c3.7-0.1,7.3-0.4,10.9-0.8
				C118.2,160.8,118.2,155.8,115,156.1L115,156.1z"/>
		</g>
	</g>
	<g id="XMLID_11_">
		<g id="XMLID_82_">
			<path id="XMLID_89_" class="st0" d="M172,135.7c3.1-1.8,5.7-3.8,8.2-6.3c2.3-2.3-1.1-5.6-3.5-3.5c-3.2,2.8-6.3,5.5-9.5,8.3
				c-2.4,2.1,1.1,5.6,3.5,3.5c3-2.5,5.8-5.1,8.5-8c-1.3-1-2.6-2-3.9-3c-6,8.2-14.4,14-24.1,16.9c-3.1,0.9-1.8,5.7,1.3,4.8
				c11-3.3,20.3-9.9,27.1-19.2c1.7-2.3-2-5.1-3.9-3c-2.7,2.8-5.5,5.5-8.5,8c1.2,1.2,2.4,2.4,3.5,3.5c3.2-2.8,6.3-5.5,9.5-8.3
				c-1.2-1.2-2.4-2.4-3.5-3.5c-2.2,2.2-4.6,4-7.2,5.5C166.7,132.9,169.2,137.3,172,135.7L172,135.7z"/>
		</g>
	</g>
	<g id="XMLID_12_">
		<g id="XMLID_126_">
			<path id="XMLID_136_" class="st0" d="M136.4,153.6c-3.1,4.9-11.6,3-16.4,3.3c-5.2,0.4-10.3,1-15.5,1.5c-3.2,0.3-3.2,5.3,0,5
				c7.7-0.8,15.4-1.6,23.2-1.6c5.3,0,10.1-1,13.1-5.7C142.5,153.4,138.2,150.9,136.4,153.6L136.4,153.6z"/>
		</g>
	</g>
</g>
<g id="Layer_2">
	<g id="XMLID_39_">
		<g id="XMLID_188_">
			<path id="XMLID_192_" class="st1" d="M218.5,128.3c-0.9-1.2-1.9-2.3-2.8-3.5c-0.5,3.9-1,7.9-1.5,11.8c0.3-0.2,0.6-0.4,1-0.5
				c-1.3,0.3-2.5,0.7-3.8,1c-1.1-0.7-2.2-1.5-3.3-2.2c0-1.3,0-2.7,0-4c1.3-0.7,1.4-1,0.3-1c0.3,2.4,0.8,2.9,1.5,1.6
				c0.7,0,2-1.3,3-1.4c1.1-0.1,2.2,0.3,3.2,0.8c0.7,0.3,1.3,0.8,1.7,1.4c1.2,1.8,1.7,0.6,1.4-3.5c1.8-0.7,3.5-1.5,5.3-2.2
				c-0.5,0-0.9,0-1.4,0.1c1.3,0.3,2.5,0.7,3.8,1c-0.8-0.5-1.3-1.8-1.6-2.6c-0.1-0.5-0.3-0.9-0.4-1.4c-0.6-2.4-2-1.3-4.3,3.6
				c-1.3-0.3-2.5-0.7-3.8-1c2.3,1.1,3.8,3.6,5.3,5.6c0.8,1,3.8,7.2,4.8,7.4c0.7-1.1,1.4-2.1,2.1-3.2c-0.8,0.1-1.5,0.2-2.3,0.2
				c-1.6,0.2-3.2,0.4-4.8,0.5c-3.9,0.4-7.7,0.9-11.6,1.3c-5.8,0.6-10.7,8.1-5.3,12.8c6.8,5.9,15.1,3.6,23.3,2.7
				c4-0.5,7.5-3.1,7.5-7.5c0-3.9-3.4-7.7-7.5-7.5c-8.7,0.4-17.4,0.4-26.1,0c-5.8-0.2-9.2,6.5-6.5,11.3c4.4,7.8,17.5,5.8,25.1,6.2
				c0-5,0-10,0-15c-3.1,0.3-5.4-2.4-7.8-4.1c-2.9-2-6-3.6-9.4-4.5c-7.5-2.1-14.9-1-21.9,2.2c3,3.9,6.1,7.9,9.1,11.8
				c4-4.5,6.1-10.4,10.9-14.3c4.1-3.3,9.1-5,14.3-5c7.2-0.1,10.6-10.4,3.8-14c-4.9-2.6-10.3-2.9-15.5-1c-5.6,2.1-9.4,6.4-14.2,9.6
				c-2.2,1.5-4.5,2.6-6.6,4.2c-2.2,1.8-3.9,4-5.7,6.2c-3.7,4.4-7.6,8-12.8,10.5c3,3.9,6.1,7.9,9.1,11.8c2.7-2.2,5.3-4.3,8-6.5
				c-3.5-3.5-7.1-7.1-10.6-10.6c-3,2.6-6.4,4.9-10,6.4c-4.6,1.9-6.9,6.3-4.5,11c2.2,4.3,3.9,8.8,5.3,13.4c2.2,7.4,12,6.8,14.5,0
				c1.1-3,0.7-6-0.3-9c-4.2,2.4-8.4,4.9-12.5,7.3c0-0.2-0.1-0.4-0.1-0.6c4.3-1.8,8.5-3.5,12.8-5.3c-4.5-3.7,0.5-5.5,4-6.8
				c3.9-1.5,10.3-5.2,13.8-1.2c1.8-4.3,3.5-8.5,5.3-12.8c-6.4-0.6-12.9-1.1-19.3,0.3c-5.8,1.2-11.2,6.3-17.1,6.1
				c-3.2-0.1-5.3-0.5-8.5,0.6c-3.1,1.1-6.2,2.4-9,4.2c-2.3,1.4-4.6,3.2-6.6,5c-1.7,1.6-3.8,5.2-5.9,6c-6.1,2.4-8,13,0,14.5
				c0.5,0.1,1,0.2,1.5,0.3c0.6-1.6,1.3-3.1,1.9-4.7c-0.3-0.3-2.5,0-2.9,0c-2.3,0.2-4.5,0.9-6.5,2.1c-2.4,1.5-4.7,5.3-7.4,6
				c-9.6,2.6-5.3,15.8,4,14.5c10.3-1.5,21.4-2.1,31.1-6.2c4.5-1.9,8.8-4.2,13.2-6.4c4.4-2.2,9.1-4.2,11.1-9
				c4.8-11.7-8.6-15.7-17.4-16.4c-4.7-0.4-9.8,0.2-13.3,3.7c-1.3,1.3-2.4,2.9-3.2,4.5c-0.3,0.5-1.3,2.2-1.4,2.8c0,1.3-2,1.3,1,0.2
				c2.4,0.6,4.9,1.3,7.3,1.9c-1-0.8-1.7-1.7-2.5-2.7c-2.5-3.2-7.9-2.6-10.6,0c-3.2,3.1-2.5,7.4,0,10.6c5,6.3,12.3,6.1,16.8-0.8
				c0.7-1.1,1.2-2.2,1.7-3.3c0.3-0.6,2-2.6,0.5-1.9c1-0.5,3.2,0,4.4,0.2c0.9,0.1,1.9,0.3,2.8,0.5c2.2,0.9,2.2,0.4-0.1-1.4
				c0-1.3,0-2.7,0-4c0.6-0.6,0.3-0.5-1,0.3c-1,0.5-2.1,1-3.1,1.6c-1.6,0.8-3.1,1.6-4.7,2.3c-3.5,1.8-7,3.7-10.8,4.9
				c-8.3,2.5-17.5,3-26,4.3c1.3,4.8,2.7,9.6,4,14.5c4.5-1.2,6.6-4.2,10.1-6.8c2.8-2,7.4-0.4,11-3.3c9.1-7.6,2.6-20.6-7.7-22.5
				c0,4.8,0,9.6,0,14.5c5.3-2,8-5.5,12-9.3c3.6-3.4,7.9-5.5,12.7-6.7c-1.3,0-2.7,0-4,0c8.1,1.7,13.9-0.6,21.1-4
				c6.5-3.1,13.8-2.2,20.7-1.5c7,0.7,9.2-8.4,5.3-12.8c-9.2-10.4-24.2-5.1-34.8-0.2c-11.5,5.4-14.4,21-4.2,29.4
				c4.7,3.9,12.9,1.7,12.8-5.3c-0.1-4-1.3-7.3-4.3-10c-5.1-4.7-15.2-0.2-12.5,7.3c0.5,1.3,0.6,1.7,0.3,1c4.8,0,9.6,0,14.5,0
				c-1.8-5.9-4.1-11.5-6.8-17c-1.5,3.7-3,7.3-4.5,11c6.2-2.6,11.6-5.8,16.6-10.2c7.4-6.5-3.2-16.6-10.6-10.6c-2.7,2.2-5.3,4.3-8,6.5
				c-7,5.7,1.9,15.2,9.1,11.8c4-1.9,7.6-4.5,10.8-7.5c3.4-3.1,5.8-7.3,9.2-10.2c3.2-2.7,7.2-4.7,10.5-7.4c2-1.7,6.2-6,9.1-4.4
				c1.3-4.7,2.5-9.3,3.8-14c-7.5,0.1-14.9,2.2-21,6.5c-3,2.1-5.6,4.4-7.9,7.2c-2.5,3.2-4.1,7-6.8,10c-5.9,6.6,1.4,15.2,9.1,11.8
				c12.7-5.7,19.5,9.7,31.6,8.5c9.5-1,9.8-14.5,0-15c-2.6-0.1-5.2-0.3-7.9-0.4c-1.3-0.1-2.6-0.1-3.9-0.2c-2.6-0.6-2.7,0-0.4,1.8
				c-2.2,3.8-4.3,7.5-6.5,11.3c8.7,0.3,17.4,0.3,26.1,0c0-5,0-10,0-15c-2.5,0.3-5.1,0.6-7.6,0.9c-1.1,0.1-2.2,0.3-3.3,0.4
				c-0.5,0-2.6-0.2-1.9,0.5c-1.8,4.3-3.5,8.5-5.3,12.8c4.5-0.5,9-1,13.5-1.5c4.4-0.5,9.7-0.3,13.4-3c8.3-5.8,3.8-15.6-0.7-22.2
				c-4.1-6-10.4-16.1-19.1-14.1c-9.4,2.3-8.5,13-5.3,19.9c1.6,3.3,3.8,6.7,7.2,8.4c4.4,2.1,9.8,0.8,12.4-3.4
				c4.5-7.2-2.1-15.8-8.2-19.3c-6.8-4-15.4-3.7-21.8,0.9c-6.7,4.8-10.6,15-4.1,21.7c6.4,6.6,19.4,6.3,23.8-2.4
				c5-9.7-5.5-19.6-14.8-14.4c-4.6,2.6-4.4,8.1-1.5,11.8c0.9,1.2,1.9,2.3,2.8,3.5c2.6,3.2,7.9,2.6,10.6,0
				C221.7,135.8,221,131.5,218.5,128.3L218.5,128.3z"/>
		</g>
	</g>
	<g id="XMLID_61_">
		<g id="XMLID_195_">
			<path id="XMLID_199_" class="st1" d="M237.8,128.8c4.2,0,7.3-2.7,10.5-4.4c4-2.2,5.7-5.8,7.1-10c1.3-4.1,3.2-7.7,3.6-12
				c0.5-5.1-0.7-9.8-2.9-14.3c-3.7-7.8-15.9-2.3-13.7,5.8c1,3.5,2.1,7,0.1,10.3c4.6,0.6,9.1,1.2,13.7,1.8c-0.4-2-0.4-3.9-0.3-6
				c-4.9,0.7-9.8,1.3-14.7,2c1.8,6.2,4.2,15.4,12.1,15.5c9.7,0,9.7-15,0-15c-0.2,0-0.5,0-0.7,0c1.8,0.7,3.5,1.5,5.3,2.2
				c-1.2-1.4-1.8-4.9-2.3-6.6c-2.4-8.3-14.3-6.4-14.7,2c-0.2,3.4,0.2,6.6,0.8,9.9c1.3,6.6,10.5,6.9,13.7,1.8
				c4.2-6.9,3.5-14.4,1.4-21.9c-4.6,1.9-9.1,3.9-13.7,5.8c2.2,4.7-0.1,8.5-1.7,12.9c-0.3,0.8-0.6,1.7-0.8,2.5
				c-0.3,1.4-0.8,1,0.1,0.3c-1.7,1.2-3.9,2.4-5.7,3.5c1.3-0.3,2.5-0.7,3.8-1c-0.4,0-0.7,0-1.1,0
				C228.1,113.8,228.1,128.8,237.8,128.8L237.8,128.8z"/>
		</g>
	</g>
	<g id="XMLID_68_">
		<g id="XMLID_202_">
			<path id="XMLID_206_" class="st1" d="M68.5,175.1c3.9-0.1,10.6,0,12.5-4.3c1.6-3.8-1.3-7.8-4.6-9.5c-4.4-2.3-8.8-0.7-13.3-0.1
				c-5,0.7-9.7,0.5-13.9,3.6c-3.5,2.5-2.9,10,2.5,9.3c5-0.6,9.4,1.5,14.3,1.2c6.4-0.3,6.4-10.3,0-10c-4.8,0.2-9.3-1.8-14.3-1.2
				c0.8,3.1,1.7,6.2,2.5,9.3c2.7-1.9,5.7-1.9,8.9-2.2c1.8-0.2,8.2-0.6,8.3-2.3c0.8-1.4,1.7-2.9,2.5-4.3c-1.3,0.7-4,0.5-5.4,0.6
				C62.1,165.3,62.1,175.3,68.5,175.1L68.5,175.1z"/>
		</g>
	</g>
	<g id="XMLID_69_">
		<g id="XMLID_209_">
			<path id="XMLID_213_" class="st1" d="M68,166.1c4.6,2.6,9.1,4.8,14.4,5.5c5.8,0.7,11.7,0.6,17.5,0.7c11.9,0.2,23.7-0.4,35.3-3.1
				c6.3-1.4,3.6-11.1-2.7-9.6c-10.1,2.3-20.4,2.8-30.8,2.7c-4.9,0-9.9-0.2-14.8-0.4c-5.3-0.2-9.3-1.9-13.9-4.5
				C67.4,154.3,62.4,162.9,68,166.1L68,166.1z"/>
		</g>
	</g>
	<g id="XMLID_18_">
		<g id="XMLID_145_">
			<path id="XMLID_162_" class="st1" d="M142.4,160.3c0-0.5,0.1-1.1,0.1-1.6c0.1-1.7-2.1-2.4-3.2-1.3c-1.8,1.7-3.8,2.7-6.2,3.2
				c0.5,1.1,1,2.3,1.4,3.4c2.2-1.3,4.2-2.8,6.1-4.5c1.2-1,0.3-3.3-1.3-3.2c-3.4,0.3-6.3,2.6-9.1,4.3c-2.1,1.2-0.2,4.5,1.9,3.2
				c1.2-0.7,2.5-1.5,3.7-2.2c1.1-0.7,2.2-1.5,3.5-1.6c-0.4-1.1-0.9-2.1-1.3-3.2c-1.7,1.5-3.4,2.8-5.3,3.9c-1.9,1.1-0.6,3.8,1.4,3.4
				c3-0.6,5.7-2,7.9-4.1c-1.1-0.4-2.1-0.9-3.2-1.3c0,0.5-0.1,1.1-0.1,1.6C138.5,162.7,142.2,162.7,142.4,160.3L142.4,160.3z"/>
		</g>
	</g>
	<g id="XMLID_19_">
		<g id="XMLID_167_">
			<path id="XMLID_171_" class="st1" d="M183.5,128.4c0.1,0.1,0.2,0.2,0.3,0.3c0.6,0.6,1.6,0.7,2.3,0.3c0.1-0.1,0.3-0.2,0.4-0.3
				c0.9-0.6,1.1-1.6,0.7-2.6c-2.6-5.1-9.6,5-11.4,6.6c-7,6.3-15.1,11.2-23.7,14.8c-2.2,0.9-1.2,4.5,1,3.6c6.1-2.5,12-5.6,17.4-9.4
				c2.7-1.9,15.2-10.3,13.5-13.6c0.2-0.9,0.4-1.7,0.7-2.6c-0.1,0.1-0.3,0.2-0.4,0.3c0.8,0.1,1.5,0.2,2.3,0.3
				c-0.1-0.1-0.2-0.2-0.3-0.3C184.4,124.1,181.7,126.7,183.5,128.4L183.5,128.4z"/>
		</g>
	</g>
	<g id="XMLID_21_">
		<g id="XMLID_193_">
			<path id="XMLID_208_" class="st1" d="M142.8,157.1c0.1-0.2,0.2-0.5,0.2-0.7c0.4-1.3-1-2.9-2.3-2.3c-2.7,1.1-4.3,3.3-6.8,4.7
				c-3.1,1.8-7,2.7-10.4,3.9c-2.3,0.8-1.3,4.4,1,3.6c3.2-1.1,6.4-2.1,9.5-3.4c2.9-1.2,4.8-4,7.7-5.1c-0.8-0.8-1.5-1.5-2.3-2.3
				c-0.1,0.2-0.2,0.5-0.2,0.7C138.4,158.4,142,159.3,142.8,157.1L142.8,157.1z"/>
		</g>
	</g>
	<g id="XMLID_23_">
		<g id="XMLID_216_">
			<path id="XMLID_220_" class="st1" d="M135,159.2c-2.6,0.4-5.1,1.2-7.5,2.3c0.6,1.1,1.3,2.2,1.9,3.2c1.9-1.2,3.8-2.5,5.7-3.7
				c-0.8-1-1.5-2-2.3-2.9c-3.2,2.6-7.5,2.8-11.5,3c-2.4,0.1-2.4,3.9,0,3.8c5.1-0.2,10.1-0.7,14.1-4.1c1.6-1.3-0.5-4.1-2.3-2.9
				c-1.9,1.2-3.8,2.5-5.7,3.7c-2,1.3-0.3,4.2,1.9,3.2c2.1-1,4.3-1.6,6.6-1.9C138.4,162.5,137.4,158.9,135,159.2L135,159.2z"/>
		</g>
	</g>
</g>
<g id="main_turtle">
	<g id="XMLID_287_">
		<g id="XMLID_521_">
			<path id="XMLID_525_" class="st2" d="M270.6,62.7c9.7,0,9.7-15,0-15C260.9,47.7,260.9,62.7,270.6,62.7L270.6,62.7z"/>
		</g>
	</g>
	<g id="XMLID_1_">
		<g id="XMLID_13_">
			<path id="XMLID_17_" class="st3" d="M194.2,118.8c8.4-4.8,19.7-9.4,28.9-4.2c7.4,4.2,13,12.2,15.6,20.1c0.5,1.6,1.3,3.5,1.4,5.2
				c0.3,4.7-2.1,6.4-5.3,8.7c-3.1,2.2-6.6,3.8-10.2,4.9c-7.9,2.3-16.1,2-23.7-0.9c-2.3-0.8-3.2,2.8-1,3.6c9.7,3.6,20.4,3.4,29.9-0.6
				c4.2-1.8,8.8-4.4,11.9-7.8c3.3-3.8,2.5-8.1,1.2-12.6c-2.8-9.7-9.5-19.3-18.5-24.2c-10.3-5.5-22.6-0.8-32,4.6
				C190.2,116.8,192.1,120,194.2,118.8L194.2,118.8z"/>
		</g>
	</g>
	<g id="XMLID_6_">
		<g id="XMLID_48_">
			<path id="XMLID_52_" class="st3" d="M240.5,129.1c17.2-4.8,29.1-24.9,16.6-40.5c-3.8-4.7-12.3-10.5-15.8-2.5
				c-4.3,9.9,1.6,25.9-10.8,31.3c-2.2,1-0.3,4.2,1.9,3.2c5.6-2.4,8.6-7.9,9.8-13.6c0.9-4,0.8-8.2,1.2-12.2c0.2-1.9,0.1-4.7,1.1-6.3
				c0.3-2.3,1.8-2.9,4.3-2c1,0.5,2,1.1,2.9,1.8c6,4.9,8.3,13.6,6.1,20.9c-2.6,8.3-10,14-18.2,16.3
				C237.1,126.1,238.1,129.7,240.5,129.1L240.5,129.1z"/>
		</g>
	</g>
	<g id="XMLID_7_">
		<g id="XMLID_55_">
			<path id="XMLID_59_" class="st3" d="M199.7,153.5c-3.4-0.1-6.2,1.3-8.9,3.3c-3.5,2.6-6.9,5.3-10.7,7.5c-2.1,1.2-0.2,4.4,1.9,3.2
				c3-1.7,5.8-3.5,8.4-5.6c2.8-2.2,5.5-4.8,9.3-4.6C202.1,157.3,202.1,153.6,199.7,153.5L199.7,153.5z"/>
		</g>
	</g>
	<g id="XMLID_9_">
		<g id="XMLID_62_">
			<path id="XMLID_66_" class="st3" d="M192,115.9c-2.9,1.9-5.3,4.3-7.4,7.1c-1.4,2,1.8,3.8,3.2,1.9c1.6-2.3,3.7-4.2,6-5.7
				C195.9,117.8,194,114.6,192,115.9L192,115.9z"/>
		</g>
	</g>
	<g id="XMLID_76_">
		<g id="XMLID_158_">
			<path id="XMLID_173_" class="st3" d="M191.8,114.8c-6.2-3.2-12.7,2-17.7,5.4c-6.4,4.3-12.5,9-18.8,13.5
				c-6.2,4.4-12.7,8.6-19.6,11.8c-8.5,4-17.8,5.4-26.9,7.6c-2.3,0.6-1.4,4.2,1,3.6c7.6-1.8,15.5-2.9,22.8-5.8
				c6.5-2.6,12.6-6,18.5-9.9c6-3.9,11.7-8.2,17.4-12.4c2.9-2.1,5.8-4.2,8.8-6.2c3.2-2.2,8.5-6.6,12.5-4.5
				C192,119.2,193.9,115.9,191.8,114.8L191.8,114.8z"/>
		</g>
	</g>
	<g id="XMLID_32_">
		<g id="XMLID_90_">
			<path id="XMLID_94_" class="st3" d="M183.9,114c-22.2-18.9-54.3-10.2-78,1.1c-12.6,6-24.8,13.8-34.9,23.4
				c-3.6,3.5-6.8,7.8-5.8,13.1c0.8,4.6,4.1,8,8.5,9.5c2.3,0.8,3.3-2.8,1-3.6c-7.9-2.7-6.5-11-1.6-15.8c4-3.9,8.6-7.4,13.1-10.7
				c8.9-6.4,18.6-11.8,28.8-15.9c20.7-8.4,47.5-14.4,66.3,1.5C183.1,118.3,185.8,115.6,183.9,114L183.9,114z"/>
		</g>
	</g>
	<g id="XMLID_54_">
		<g id="XMLID_107_">
			<path id="XMLID_113_" class="st3" d="M78.8,147.1c2.4-10.7,10.5-18.6,19.8-23.9c2.1-1.2,0.2-4.4-1.9-3.2
				c-10.1,5.7-18.9,14.5-21.5,26.1C74.6,148.5,78.2,149.5,78.8,147.1L78.8,147.1z"/>
		</g>
	</g>
	<g id="XMLID_60_">
		<g id="XMLID_118_">
			<path id="XMLID_122_" class="st3" d="M177.4,145.5c-3.3,3.7-5.3,7.4-3.3,12.3c1.2,3,3.5,5.3,3.7,8.7c0.3,4.1-2.2,8-5,10.6
				c-10.1,9.5-26.5,13.9-39.9,15.1c-3.4,0.3-6.8,0.4-10.3,0.3c-1.4-0.1-3,0.1-4.2-0.4c-4.6-1.9-2.7-5.8-0.6-8.1
				c4.3-4.8,10.4-7.8,16.1-10.6c10.2-5,21.3-9.9,26.4-20.8c1-2.2-2.2-4.1-3.2-1.9c-7,15-25.3,17.4-37.4,26.6
				c-3.9,3-10.2,8.6-7.7,14.3c2,4.7,8.2,4.7,12.5,4.7c15.6,0.2,31.6-3.8,45-11.9c5.4-3.3,10.6-7.7,12-14.2c0.6-2.6,0.4-5.2-0.5-7.7
				c-0.7-1.7-1.7-3.2-2.6-4.9c-1.9-3.8-0.6-6.5,2-9.4C181.7,146.3,179,143.7,177.4,145.5L177.4,145.5z"/>
		</g>
	</g>
	<g id="XMLID_81_">
		<g id="XMLID_139_">
			<path id="XMLID_143_" class="st3" d="M114.7,182.4c-5.5-0.5-10.8-5.4-15.8-7.6c-4.5-2-9.2-3.5-14-4.6c-2.4-0.5-3.4,3.1-1,3.6
				c6.3,1.4,12.3,3.5,17.9,6.6c4.3,2.4,7.9,5.3,12.9,5.8C117.1,186.4,117.1,182.6,114.7,182.4L114.7,182.4z"/>
		</g>
	</g>
	<g id="XMLID_88_">
		<g id="XMLID_146_">
			<path id="XMLID_150_" class="st3" d="M83.4,168.3c-4.8,4.2-10.9,5.8-17.2,5.6c-3.3-0.1-6.6-0.6-9.9-1.3c-1.6-0.4-8.4-1.1-8.8-3
				c-0.4-2.4-4.1-1.4-3.6,1c0.5,2.6,2.6,3.3,4.9,4c4.7,1.4,9.6,2.5,14.5,2.9c8.2,0.8,16.4-1,22.7-6.5
				C87.8,169.4,85.2,166.8,83.4,168.3L83.4,168.3z"/>
		</g>
	</g>
	<g id="XMLID_95_">
		<g id="XMLID_153_">
			<path id="XMLID_157_" class="st3" d="M69.2,156.3c-9.2,2-22.9,4.2-25.6,14.9c-0.6,2.3,3,3.3,3.6,1c2.2-8.9,15.4-10.6,22.9-12.3
				C72.5,159.4,71.5,155.7,69.2,156.3L69.2,156.3z"/>
		</g>
	</g>
	<g id="XMLID_53_">
		<g id="XMLID_100_">
			<path id="XMLID_106_" class="st3" d="M91.2,155.5c15.5,1.1,30.7-3,45.4-7.8c6.9-2.3,11.6-7.2,17.3-11.6
				c5.7-4.3,11.7-8.4,18.4-10.9c6.1-2.3,7.4-10,1.8-13.7c-3-1.9-6.2-3.7-9.9-3.1c-4,0.6-7,4-6.9,8c0.1,7.4,8.8,10.8,15,8.8
				c6.3-2,7.3-10.2,1.8-13.7c-6.9-4.5-15.2-6.2-23.4-6.4c-7.1-0.2-16.1,0-22,4.4c-6.7,5-7,14.3,0.2,19.1c7.4,4.9,17,3.5,23.2-2.6
				c-3.9-3-7.9-6.1-11.8-9.1c0.5,0.4,0.2,0.7-0.9,0.8c-8.4,4.7-0.9,17.7,7.6,13c2.7-1.5,5-3.4,6.3-6.2c3.6-7.4-5.4-15.3-11.8-9.1
				c-1,1-1.8,0.7-2.9,1.3c-2.1-0.8-2.4,0.8-0.9,4.7c0.1,0,0.2-0.1,0.3-0.1c0.7,0.2,2.9-0.7,3.8-0.8c1.7-0.2,3.4-0.3,5.2-0.4
				c6.9-0.3,13.7,0.5,19.6,4.3c0.6-4.6,1.2-9.1,1.8-13.7c-1.4,0.4-1.2,0.5,0.8,0.3c2,0.7,3,2.4,3.2,5.1c-0.3,1.3-0.7,2.5-1,3.8
				c-0.8,0.8-1.5,1.6-2.3,2.3c-1.3,0.3-2.5,0.7-3.8,1c-2.1,0.1-0.1,0.3,1.3,1.2c0.6-4.6,1.2-9.1,1.8-13.7
				c-6.5,2.4-12.4,5.6-18.1,9.6c-2.8,2-5.6,4.1-8.3,6.3c-2.3,1.8-5.7,5.3-7.8,6.2c-5.5,2.5-13.8,4.3-20.3,5.8
				c-7.5,1.7-15,2.4-22.6,1.9C81.5,139.8,81.6,154.8,91.2,155.5L91.2,155.5z"/>
		</g>
	</g>
	<g id="XMLID_46_">
		<g id="XMLID_97_">
			<path id="XMLID_151_" class="st3" d="M134.1,127c-12-2.2-22.9,2.8-30.8,11.8c-5.5,6.3,1.4,16,9.1,11.8c8.3-4.6,30.4-21.2,16-31.1
				c-7.2-5-19.7-1-27.1,2c-4.6,1.9-9.8,4.8-10,10.5c-0.2,6.7,6.2,9.5,12,9.6c14.4,0.3,23.2-11.1,33.5-19.2c4.2-3.3,2-11.7-3.3-12.5
				c-8.3-1.2-14.9,2.1-21.7,6.4c-7.7,4.8-15.8,8.9-23.8,13.2c-6.1,3.4-3.8,14.9,3.8,14c9.6-1.2,16.5-6.3,23.5-12.6
				c4-3.7,2.2-11.4-3.3-12.5c-15.4-3.1-24.6,14.1-37.5,18.9c-5.8,2.2-7.7,10.3-1.8,13.7c4.2,2.4,8.6,2.6,13.4,2.4
				c5.5-0.3,11.1-0.1,16.6-0.2c-1.3-4.7-2.5-9.3-3.8-14c-2.6,1.4-4.8,1.6-7.6,1.3c-4-0.4-7.5,3.8-7.5,7.5c0,4.4,3.5,7.1,7.5,7.5
				c5.4,0.6,10.5-0.7,15.2-3.3c6.6-3.6,3.5-14-3.8-14c-4.6,0-9.3-0.1-13.9,0.1c-2.5,0.1-6.2,1-8.4-0.2c-0.6,4.6-1.2,9.1-1.8,13.7
				c7.3-2.7,12.9-7.2,18.9-11.9c1.8-1.4,3.7-2.9,5.6-4.1c0.8-0.5,4.1-3,5-2.8c-1.1-4.2-2.2-8.4-3.3-12.5c-3.5,3.3-7.8,7.6-12.9,8.3
				c1.3,4.7,2.5,9.3,3.8,14c6.8-3.7,13.7-7.3,20.4-11.2c3.3-1.9,9.4-7.5,13.5-6.9c-1.1-4.2-2.2-8.4-3.3-12.5
				c-4.9,3.8-9,8.8-14.3,12.1c-1.8,1.1-3.8,2.2-5.9,2.6c-0.9,0.2-1.8-0.1-2.7,0.1c-2.4,0.5-0.1-2.7,2,2.1c0.3,1.3,0.7,2.5,1,3.8
				c-0.2,8.4-4,4.1-0.9,3.5c-0.6,0.1,2.5-1,1.8-0.8c1.9-0.7,4-1.3,5.9-1.8c1.4-0.4,2.9-0.8,4.3-1c0.4,0,0.7-0.1,1.1-0.1
				c4.1-0.4,0.3,0.9-0.3-2.4c0-1.3,0-2.7,0-4c-0.5,2.1-3.6,4.4-5.1,5.8c-2.5,2.4-5.3,4.2-8.4,5.8c3,3.9,6.1,7.9,9.1,11.8
				c4-4.6,9.7-9.1,16.2-7.9C139.5,143.2,143.6,128.7,134.1,127L134.1,127z"/>
		</g>
	</g>
	<g id="XMLID_123_">
		<g id="XMLID_181_">
			<path id="XMLID_185_" class="st3" d="M169.5,120.9c2.3,0.1,4.5,0.3,6.8,0.4c2.6,0.2,5.1-2.4,5-5c-0.1-2.8-2.2-4.8-5-5
				c-2.3-0.1-4.5-0.3-6.8-0.4c-2.6-0.2-5.1,2.4-5,5C164.6,118.8,166.7,120.8,169.5,120.9L169.5,120.9z"/>
		</g>
	</g>
	<g id="XMLID_25_">
		<g id="XMLID_176_">
			<path id="XMLID_180_" class="st3" d="M107.2,154.8c1,0,2,0.1,3,0.1c-0.4-1.6-0.8-3.1-1.3-4.7c-3.1,1.5-6.5,1.1-9.9,1.2
				c-3,0.1-6.1,0.3-9.1,0.2c-7-0.3-13.7-2.2-20-5.3c-2.9-1.4-5.4,2.9-2.5,4.3c7.1,3.5,14.6,5.6,22.5,6c6.6,0.3,15.4,0.9,21.5-2
				c2.4-1.1,1.1-4.6-1.3-4.7c-1,0-2-0.1-3-0.1C104,149.7,104,154.7,107.2,154.8L107.2,154.8z"/>
		</g>
	</g>
	<g id="XMLID_285_">
		<g id="XMLID_297_">
			<path id="XMLID_301_" class="st2" d="M58.1,97.3c-0.3,0-0.7,0-1,0c-1.9,0-3.9,0.8-5.3,2.2c-0.7,0.7-1.2,1.5-1.6,2.4
				c-0.5,0.9-0.7,1.9-0.6,2.9c0.1,1.9,0.7,4,2.2,5.3c1.5,1.3,3.3,2.2,5.3,2.2c0.3,0,0.7,0,1,0c1.9,0,3.9-0.8,5.3-2.2
				c0.7-0.7,1.2-1.5,1.6-2.4c0.5-0.9,0.7-1.9,0.6-2.9c-0.1-1.9-0.7-4-2.2-5.3C61.9,98.2,60.1,97.3,58.1,97.3L58.1,97.3z"/>
		</g>
	</g>
	<g id="XMLID_286_">
		<g id="XMLID_304_">
			<path id="XMLID_308_" class="st2" d="M81,55.2c9.7,0,9.7-15,0-15C71.3,40.2,71.3,55.2,81,55.2L81,55.2z"/>
		</g>
	</g>
	<g id="XMLID_289_">
		<g id="XMLID_325_">
			<path id="XMLID_329_" class="st2" d="M273.7,175.5c9.7,0,9.7-15,0-15C264,160.5,264,175.5,273.7,175.5L273.7,175.5z"/>
		</g>
	</g>
	<g id="XMLID_291_">
		<g id="XMLID_339_">
			<path id="XMLID_343_" class="st2" d="M270.6,62.7c9.7,0,9.7-15,0-15C260.9,47.7,260.9,62.7,270.6,62.7L270.6,62.7z"/>
		</g>
	</g>
	<g id="XMLID_302_">
		<g id="XMLID_360_">
			<path id="XMLID_364_" class="st2" d="M89.2,105.3c0,0.1,0,0.2,0,0.3c0,1.3,1.1,2.6,2.5,2.5c1.4-0.1,2.5-1.1,2.5-2.5
				c0-0.1,0-0.2,0-0.3c0-1.3-1.1-2.6-2.5-2.5C90.3,102.9,89.2,103.9,89.2,105.3L89.2,105.3z"/>
		</g>
	</g>
	<g id="XMLID_323_">
		<g id="XMLID_381_">
			<path id="XMLID_385_" class="st2" d="M286.2,138.2c-0.1,0.1-0.2,0.2-0.3,0.3c-0.9,0.9-1,2.6,0,3.5c1,0.9,2.5,1,3.5,0
				c0.1-0.1,0.2-0.2,0.3-0.3c0.9-0.9,1-2.6,0-3.5C288.8,137.3,287.2,137.2,286.2,138.2L286.2,138.2z"/>
		</g>
	</g>
	<g id="XMLID_330_">
		<g id="XMLID_388_">
			<path id="XMLID_392_" class="st2" d="M184.2,177.7c0,0.1,0,0.2,0,0.3c0,1.3,1.1,2.6,2.5,2.5c1.4-0.1,2.5-1.1,2.5-2.5
				c0-0.1,0-0.2,0-0.3c0-1.3-1.1-2.6-2.5-2.5C185.3,175.2,184.2,176.3,184.2,177.7L184.2,177.7z"/>
		</g>
	</g>
	<g id="XMLID_337_">
		<g id="XMLID_395_">
			<path id="XMLID_399_" class="st2" d="M55.3,207.8c3.2,0,3.2-5,0-5C52.1,202.8,52.1,207.8,55.3,207.8L55.3,207.8z"/>
		</g>
	</g>
	<g id="XMLID_344_">
		<g id="XMLID_402_">
			<path id="XMLID_406_" class="st2" d="M83,198.8c3.2,0,3.2-5,0-5C79.8,193.8,79.8,198.8,83,198.8L83,198.8z"/>
		</g>
	</g>
	<g id="XMLID_351_">
		<g id="XMLID_409_">
			<path id="XMLID_413_" class="st2" d="M34.6,83.9c0.1-0.1,0.2-0.2,0.3-0.3c1.5-1.4,2.5-3,3.1-4.8c0.9-1.8,1.4-3.7,1.3-5.8
				c0.1-2.1-0.4-4-1.3-5.8c-0.6-1.9-1.6-3.5-3.1-4.8c-1-0.8-2-1.6-3-2.3c-2.3-1.4-4.9-2-7.6-2c-1.3,0.2-2.7,0.4-4,0.5
				c-2.5,0.7-4.7,2-6.6,3.9c-0.1,0.1-0.2,0.2-0.3,0.3c-1.5,1.4-2.5,3-3.1,4.8c-0.9,1.8-1.4,3.7-1.3,5.8c-0.1,2.1,0.4,4,1.3,5.8
				c0.6,1.9,1.6,3.5,3.1,4.8c1,0.8,2,1.6,3,2.3c2.3,1.4,4.9,2,7.6,2c1.3-0.2,2.7-0.4,4-0.5C30.5,87.1,32.7,85.8,34.6,83.9L34.6,83.9
				z"/>
		</g>
	</g>
	<g id="XMLID_288_">
		<g id="XMLID_333_">
			<path id="XMLID_346_" class="st2" d="M160.5,40.1c0.1-0.1,0.2-0.2,0.4-0.3c1.5-1.4,2.5-3,3.1-4.8c0.9-1.8,1.4-3.7,1.3-5.8
				c0.1-2.1-0.4-4-1.3-5.8c-0.6-1.9-1.6-3.5-3.1-4.8c-1-0.8-2-1.6-3-2.3c-2.3-1.4-4.9-2-7.6-2c-1.3,0.2-2.7,0.4-4,0.5
				c-2.5,0.7-4.7,2-6.6,3.9c-0.1,0.1-0.2,0.2-0.4,0.3c-1.5,1.4-2.5,3-3.1,4.8c-0.9,1.8-1.4,3.7-1.3,5.8c-0.1,2.1,0.4,4,1.3,5.8
				c0.6,1.9,1.6,3.5,3.1,4.8c1,0.8,2,1.6,3,2.3c2.3,1.4,4.9,2,7.6,2c1.3-0.2,2.7-0.4,4-0.5C156.4,43.3,158.6,42,160.5,40.1
				L160.5,40.1z"/>
		</g>
	</g>
	<g id="XMLID_293_">
		<g id="XMLID_393_">
			<path id="XMLID_408_" class="st2" d="M121.7,70.3c-0.1,0-0.2,0-0.3,0c-1.4-0.1-2.7,0.2-3.9,0.9c-1.2,0.4-2.3,1.1-3.2,2.1
				c-1,0.9-1.7,2-2.1,3.2c-0.6,1.2-0.9,2.5-0.9,3.9c0.1,0.9,0.2,1.8,0.4,2.7c0.5,1.7,1.3,3.2,2.6,4.4c2,1.8,4.4,2.9,7.1,2.9
				c0.1,0,0.2,0,0.3,0c1.4,0.1,2.7-0.2,3.9-0.9c1.2-0.4,2.3-1.1,3.2-2.1c1-0.9,1.7-2,2.1-3.2c0.6-1.2,0.9-2.5,0.9-3.9
				c-0.1-0.9-0.2-1.8-0.4-2.7c-0.5-1.7-1.3-3.2-2.6-4.4C126.8,71.5,124.4,70.3,121.7,70.3L121.7,70.3z"/>
		</g>
	</g>
	<g id="XMLID_317_">
		<g id="XMLID_423_">
			<path id="XMLID_427_" class="st2" d="M232.2,16.2c-0.1,0.1-0.2,0.2-0.3,0.3c-0.9,0.9-1,2.6,0,3.5c1,0.9,2.5,1,3.5,0
				c0.1-0.1,0.2-0.2,0.3-0.3c0.9-0.9,1-2.6,0-3.5C234.8,15.3,233.2,15.2,232.2,16.2L232.2,16.2z"/>
		</g>
	</g>
	<g id="XMLID_318_">
		<g id="XMLID_430_">
			<path id="XMLID_434_" class="st2" d="M19.3,130.8c-0.1,0-0.2,0-0.3,0c-1.3,0-2.6,1.1-2.5,2.5c0.1,1.4,1.1,2.5,2.5,2.5
				c0.1,0,0.2,0,0.3,0c1.3,0,2.6-1.1,2.5-2.5C21.8,132,20.7,130.8,19.3,130.8L19.3,130.8z"/>
		</g>
	</g>
	<g id="XMLID_319_">
		<g id="XMLID_437_">
			<path id="XMLID_441_" class="st2" d="M207.2,197c0-0.1,0-0.2,0-0.3c0-1.3-1.1-2.6-2.5-2.5c-1.4,0.1-2.5,1.1-2.5,2.5
				c0,0.1,0,0.2,0,0.3c0,1.3,1.1,2.6,2.5,2.5C206,199.4,207.2,198.4,207.2,197L207.2,197z"/>
		</g>
	</g>
</g>
<g id="thank_you_bubble">
	<g id="XMLID_321_">
		<g id="XMLID_448_">
			<path id="XMLID_454_" class="st4" d="M172.4,37c4.1-9.8,19-12.1,28.3-12.2c9.9-0.1,19.7,2.3,28.2,7.6c0.4,0.2,0.9,0.2,1.3,0
				c4.9-2.9,15.2-1.2,12.6,6.7c-0.2,0.7,0.4,1.7,1.2,1.6c7.9-0.8,16.7,1.6,21.5,8.3c9,12.7-13.9,14-21.1,13.6
				c-0.5,0-1.1,0.4-1.2,0.9c-3,11.6-14.9,18-26.1,18.8c-1,0.1-1.5,1-1.1,1.9c1.9,4.2,1.9,8.3,0,12.6c0.8,0.1,1.5,0.2,2.3,0.3
				c-0.8-4.9-5.5-14.3-11.4-12.2c-9.6,3.4-20.9,2.8-28.5-4.8c-0.6-0.6-1.5-0.4-2,0.3c-6.4,8.5-24,1.4-29.3-4.9
				c-9-10.9,2.6-20.4,13.4-21.5c1.1-0.1,1.7-1.3,0.9-2.1c-3.3-3.5-7.8-8.7-3.6-13.3c3.5-4,10-3.5,13.9-0.4c1.2,1,3-0.8,1.8-1.8
				c-5-4-12.8-4.6-17.4,0.4c-5.4,5.7-0.6,12.2,3.6,16.9c0.3-0.7,0.6-1.4,0.9-2.1c-12.3,1.2-25.3,12.2-15.9,24.8
				c6.3,8.5,26.3,15.6,34,5.4c-0.7,0.1-1.3,0.2-2,0.3c5.2,5.2,12.4,7.6,19.6,7.6c3.7,0,7-0.8,10.5-1.9c5.1-1.5,8.5,5.9,9.1,10.2
				c0.2,1,1.9,1.3,2.3,0.3c2.2-5.1,2.2-10,0-15.1c-0.4,0.6-0.7,1.3-1.1,1.9c8.9-0.7,17.7-4.2,23.6-11.1c1.9-2.2,3.4-7.4,5.5-8.5
				c1-0.5,3.3,0,4.4,0c1.5-0.1,2.9-0.2,4.4-0.4c2.7-0.4,5.3-0.9,7.9-1.8c7.7-2.7,9.4-9,4.6-15.5c-5.2-7.2-14.9-10.1-23.4-9.2
				c0.4,0.5,0.8,1.1,1.2,1.6c1.9-6-2.8-11-8.7-11.4c-2-0.1-3.5,0.4-5.4,0.8c-2.1,0.5-2.9-0.1-4.8-1.1c-4-2-8.3-3.5-12.7-4.4
				c-13.3-2.8-37.3-2.2-43.6,12.8C169.4,37.8,171.8,38.4,172.4,37L172.4,37z"/>
		</g>
	</g>
	<g id="XMLID_331_">
		<g id="XMLID_455_">
			<path id="XMLID_461_" class="st4" d="M175.5,54c-3.8,1.1-7.4,2.8-10.6,5.1c-1.3,0.9-0.1,3.1,1.3,2.2c3.1-2.2,6.4-3.8,10-4.8
				C177.8,56,177.1,53.6,175.5,54L175.5,54z"/>
		</g>
	</g>
	<g id="XMLID_347_">
		<g id="XMLID_462_">
			<path id="XMLID_468_" class="st4" d="M169.6,57.8c0.3,3.7,1,7.2,2.2,10.7c0.5,1.5,2.9,0.9,2.4-0.7c-1.1-3.3-1.8-6.6-2.1-10.1
				C172,56.2,169.5,56.2,169.6,57.8L169.6,57.8z"/>
		</g>
	</g>
	<g id="XMLID_379_">
		<g id="XMLID_469_">
			<path id="XMLID_475_" class="st4" d="M174.3,57.5c-0.2,3,0.2,5.9,1.1,8.7c0.4,1.3,2.4,1.1,2.5-0.3c0-1.2-0.2-3.5,0.6-4.5
				c0.8-1.1,1.2,0.6,1.4,1.2c0.3,0.8,0.4,1.6,0.5,2.4c0.2,1.6,2.7,1.6,2.5,0c-0.2-2.3-1.1-7-4.4-6.4c-3.1,0.6-3.1,5-3.1,7.4
				c0.8-0.1,1.6-0.2,2.5-0.3c-0.8-2.6-1.1-5.3-1-8.1C176.9,55.9,174.4,55.9,174.3,57.5L174.3,57.5z"/>
		</g>
	</g>
	<g id="XMLID_414_">
		<g id="XMLID_476_">
			<path id="XMLID_482_" class="st4" d="M188,59c0-1.8-1.2-4.1-3.3-3c-1.8,0.9-2.3,3.4-2.3,5.2c0,1.8,1.2,4,3.3,3.6
				c2.2-0.4,2.5-3.8,3-5.5c-0.8,0.1-1.5,0.2-2.3,0.3c0.6,1.4,1.4,2.7,2.4,3.9c1,1.3,2.8-0.5,1.8-1.8c-0.8-1-1.5-2.2-2-3.4
				c-0.4-1-2-0.7-2.3,0.3c-0.2,0.8-0.4,1.6-0.7,2.4c0,0.1-0.2,1-0.4,1.1c-0.3,0.1-0.3-0.3-0.3-0.7c0-0.6,0.1-1.3,0.2-1.9
				c0.1-0.3,0.2-0.7,0.4-1c0-0.1,0-0.1-0.1-0.2c0,0.2,0,0.5,0,0.7C185.5,60.6,188,60.6,188,59L188,59z"/>
		</g>
	</g>
	<g id="XMLID_421_">
		<g id="XMLID_483_">
			<path id="XMLID_488_" class="st4" d="M190,55.6c0.5,2,1.1,3.9,1.6,5.9c0.4,1.3,2.5,1.1,2.5-0.3c0-0.8,0-1.6,0.1-2.3
				c0.1-0.4,0.3-1.1,0.3-1.5c0-0.2,0.1-0.3,0.1-0.5c-0.6-0.3-0.7-0.2-0.5,0.2c0,0.2,0.4,1,0.4,1.1c0.1,0.4,0.3,0.8,0.4,1.1
				c0.3,0.8,0.6,1.7,0.9,2.5c0.6,1.5,3,0.9,2.4-0.7c-0.6-1.5-1.1-3.1-1.7-4.6c-0.4-1.1-1-2.4-2.4-2.3c-2.7,0.2-2.7,5-2.6,6.9
				c0.8-0.1,1.6-0.2,2.5-0.3c-0.5-2-1.1-3.9-1.6-5.9C192,53.4,189.6,54,190,55.6L190,55.6z"/>
		</g>
	</g>
	<g id="XMLID_428_">
		<g id="XMLID_489_">
			<path id="XMLID_493_" class="st4" d="M197,48.7c0,3.9,0.6,7.7,1.9,11.4c0.5,1.5,2.9,0.9,2.4-0.7c-1.1-3.5-1.7-7-1.8-10.7
				C199.4,47.1,196.9,47.1,197,48.7L197,48.7z"/>
		</g>
	</g>
	<g id="XMLID_435_">
		<g id="XMLID_494_">
			<path id="XMLID_499_" class="st4" d="M201.2,51.5c-1.3,1.1-3.5,2.4-3.1,4.3c0.3,1.8,2.4,3.5,3.6,4.7c1.1,1.1,2.9-0.6,1.8-1.8
				c-0.9-0.9-1.8-1.8-2.5-2.8c-0.5-0.7-0.2-0.7,0.4-1.2c0.6-0.5,1.1-1,1.7-1.5C204.2,52.2,202.4,50.4,201.2,51.5L201.2,51.5z"/>
		</g>
	</g>
	<g id="XMLID_442_">
		<g id="XMLID_500_">
			<path id="XMLID_504_" class="st4" d="M206.5,52.3c0.5,2.6,1.6,5.5,3.8,7.1c0.4,0.3,0.9,0.2,1.3,0c2.5-1.1,2.4-6,2.5-8.4
				c-0.8,0-1.7,0-2.5,0c0.2,5.5,0.3,11.1,0.3,16.6c0,1.6,2.5,1.6,2.5,0c0-5.5-0.1-11.1-0.3-16.6c-0.1-1.6-2.4-1.6-2.5,0
				c0,0.8,0.1,4.8-0.7,5.2c-0.5,0.3-1.8-3.8-2-4.6C208.5,50.1,206.1,50.8,206.5,52.3L206.5,52.3z"/>
		</g>
	</g>
	<g id="XMLID_449_">
		<g id="XMLID_507_">
			<path id="XMLID_511_" class="st4" d="M219.3,57.1C219.3,57.1,219.2,57,219.3,57.1c0.3,0.1,0.3,0.2,0.4,0.4
				c0.1,0.5-0.2,1.7-0.7,1.9c-0.4,0.1-0.9-0.4-1-0.8c-0.3-0.8,0.2-1.8,0.6-2.4c0.8-1.4-1.3-2.6-2.2-1.3c-1,1.7-1.6,4.1-0.2,5.7
				c1.2,1.4,3.5,1.7,4.8,0.2c1.2-1.4,1.6-4,0.3-5.4c-1.1-1.2-3.4-1.2-4.2,0.4C216.4,57.3,218.6,58.6,219.3,57.1L219.3,57.1z"/>
		</g>
	</g>
	<g id="XMLID_456_">
		<g id="XMLID_514_">
			<path id="XMLID_518_" class="st4" d="M221.7,53.7c0.5,2.1,2.1,6.5,5,5.8c2.9-0.7,2.2-6,1.7-8c-0.4-1.6-2.8-0.9-2.4,0.7
				c0.2,0.8,0.3,1.6,0.3,2.5c0,0.4,0,2.2-0.3,2.4c-0.5,0.3-1.8-3.5-1.9-4C223.8,51.5,221.3,52.2,221.7,53.7L221.7,53.7z"/>
		</g>
	</g>
	<g id="XMLID_463_">
		<g id="XMLID_498_">
			<path id="XMLID_513_" class="st4" d="M229.8,44.3c0.5,3.2,0.9,6.5,1.4,9.7c0.2,1.6,2.6,0.9,2.4-0.7c-0.5-3.2-0.9-6.5-1.4-9.7
				C232,42.1,229.6,42.8,229.8,44.3L229.8,44.3z"/>
		</g>
	</g>
	<g id="XMLID_470_">
		<g id="XMLID_418_">
			<path id="XMLID_484_" class="st4" d="M233.8,60.7c1.6,0,1.6-2.5,0-2.5C232.2,58.2,232.2,60.7,233.8,60.7L233.8,60.7z"/>
		</g>
	</g>
</g>
<g id="eye_nose_lips">
	<g id="XMLID_31_">
		<g id="XMLID_223_">
			<path id="XMLID_227_" class="st5" d="M205.8,138.1c0.1,0,0.2,0,0.2,0c1.3,0,2.6-0.6,3.5-1.5c0.9-0.9,1.5-2.3,1.5-3.5
				c-0.1-1.3-0.5-2.6-1.5-3.5c-1-0.9-2.2-1.5-3.5-1.5c-0.1,0-0.2,0-0.2,0c-1.3,0-2.6,0.6-3.5,1.5c-0.9,0.9-1.5,2.3-1.5,3.5
				c0.1,1.3,0.5,2.6,1.5,3.5C203.2,137.5,204.4,138.1,205.8,138.1L205.8,138.1z"/>
		</g>
	</g>
	<g id="XMLID_71_">
		<g id="XMLID_230_">
			<path id="XMLID_234_" class="st6" d="M205.5,134.7c0.1,0,0.2,0,0.2,0c1,0,1.9-0.9,1.9-1.9c0-1-0.8-1.9-1.9-1.9
				c-0.1,0-0.2,0-0.2,0c-1,0-1.9,0.9-1.9,1.9C203.7,133.8,204.4,134.7,205.5,134.7L205.5,134.7z"/>
		</g>
	</g>
	<g id="XMLID_115_">
		<g id="XMLID_244_">
			<path id="XMLID_248_" class="st7" d="M227,133.1c-0.9-0.4-1.8-0.9-2.7-1.3c-0.7-0.4-1.4,0.7-0.6,1.1c0.9,0.4,1.8,0.9,2.7,1.3
				C227.1,134.6,227.7,133.5,227,133.1L227,133.1z"/>
		</g>
	</g>
	<g id="XMLID_137_">
		<g id="XMLID_251_">
			<path id="XMLID_255_" class="st7" d="M230.8,132.2c0.2-0.8,0.4-1.7,0.6-2.5c0.2-0.8-1-1.1-1.2-0.3c-0.2,0.8-0.4,1.7-0.6,2.5
				C229.4,132.7,230.6,133,230.8,132.2L230.8,132.2z"/>
		</g>
	</g>
	<g id="XMLID_79_">
		<g id="XMLID_241_">
			<path id="XMLID_250_" class="st7" d="M233.5,138.6c-3.7,2.8-8.2,3.8-12.7,4.8c-0.5,0.1-0.5,0.7-0.3,1c1.7,2.1,4.9,3.6,7.6,2.9
				c2.1-0.5,3.5-2.5,2.8-4.6c-0.2-0.8-1.4-0.4-1.2,0.3c1,3.2-3.1,3.4-5,2.8c-1.4-0.4-2.4-1.2-3.3-2.3c-0.1,0.3-0.2,0.7-0.3,1
				c4.6-1,9.2-2,13-4.9C234.7,139.2,234.1,138.1,233.5,138.6L233.5,138.6z"/>
		</g>
	</g>
</g>
</svg>
