<?xml version="1.0" encoding="UTF-8"?>
<svg enable-background="new 0 0 865 202" version="1.1" viewBox="0 0 865 202" xml:space="preserve" xmlns="http://www.w3.org/2000/svg">
<style type="text/css">
	.st0{fill:#E6A69B;stroke:#010101;stroke-miterlimit:10;}
	.st1{fill:#D1877D;}
	.st2{fill:#E6A69C;}
	.st3{fill:#D1867C;}
	.st4{fill:#CE7B6F;}
</style>


	<rect class="st0" x="-4.7" y="-3" width="872.7" height="208"/>
	
		
			<path class="st1" d="m794.8 5.1c-41.9 8.7-83.9 17.4-125.7 26-0.3 0.1-2.6 0.5-2.4 1 9.6 24.7 14.7 50.6 20.2 76.4 5.4 25.5 10.8 51.2 16.2 76.7 0.2 0.9 3.6 0.3 4.2 0.3 20.1-3.2 39.8-6.8 59.5-12 21.5-5.6 42.5-10.1 64.6-11.4 2.5-0.2 6.3-1.9 1.7-1.7-20.2 1.1-40.1 4.5-59.8 9.5-22.5 5.8-44.7 10.6-67.8 14.3 1.4 0.1 2.7 0.2 4.2 0.3-5.4-25.5-10.8-51.2-16.2-76.7-5.4-25.7-10.6-51.6-20.2-76.4-0.7 0.3-1.6 0.7-2.4 1 41.9-8.7 83.9-17.4 125.7-26 4.4-1 0.7-1.9-1.8-1.3z"/>
		
	
	
		
			<path class="st1" d="m687.8 36.1c1.2 11.6 3.3 22.9 6.4 34.1 0.4 1.7 5.3 2.3 4.9 0.5-3.1-11.2-5.2-22.6-6.4-34.1-0.2-1.9-5.1-2.6-4.9-0.5z"/>
		
	
	
		
			<path class="st1" d="m689.3 37.7c7.2 9.4 14.7 18.5 22.5 27.5 0.6 0.7 5 1.5 4.7-0.1-1.7-11.1-6.2-21.4-7.5-32.6-0.2-1.8-5.2-2-5-0.6 1.3 11.2 5.8 21.5 7.5 32.6 1.5 0 3.1-0.1 4.7-0.1-7.7-9-15.2-18.1-22.5-27.5-0.9-1.2-5.7-1-4.4 0.8z"/>
		
	
	
		
			<path class="st1" d="m731.5 26.8c-5.9 1.6-11.9 2.9-17.7 4.2-0.9 0.2-1.6 1.2-1.3 2.1 2.2 9.9 4.8 19.8 7.6 29.5 0.4 1.6 1.9 2.2 3.4 2 6-0.9 11.9-2.3 17.6-4.3 2.9-1.1 0.5-5-2-4.1-5.7 2-11.5 3.5-17.6 4.3 1.2 0.7 2.3 1.3 3.4 2-2.8-9.7-5.3-19.5-7.6-29.5-0.5 0.7-0.9 1.4-1.3 2.1 6-1.2 11.9-2.6 17.7-4.2 3-0.8 0.5-4.7-2.2-4.1z"/>
		
	
	
		
			<path class="st1" d="m729.4 44c-3.7 0.4-7.3 0.9-10.9 1.4-0.4 0.1-2.5 0.3-2.4 1 0 0.7 2.3 0.4 2.5 0.3 3.7-0.5 7.2-1 10.9-1.4 0.4-0.1 2.5-0.3 2.4-1 0-0.5-2.3-0.2-2.5-0.3z"/>
		
	
	
		
			<path class="st1" d="m728.7 43.4c-3.5 0.6-6.9 1.2-10.3 2.1-0.8 0.2-1.6 0.6-0.9 1.4s2.6 0.7 3.4 0.6c3.4-0.8 6.9-1.4 10.3-2.1 0.8-0.2 1.6-0.6 0.9-1.4-0.6-0.9-2.6-0.8-3.4-0.6z"/>
		
	
	
		
			<path class="st1" d="m737.5 27.7c1.5 10.3 4.3 20.1 8.7 29.6 0.3 0.7 3.8 3.3 4.3 1.8 1.8-5.5 2.8-11 3.5-16.8-1.4-0.5-3-1.1-4.4-1.6 2.6 5.3 5.7 10.2 9.6 14.6 0.4 0.4 3.7 2.9 4.1 1.5 2.7-11.2 3.8-22.5 2.8-34.1-0.1-1.6-4.6-3.4-4.4-1.9 0.9 11.2 0 22.5-2.7 33.4 1.3 0.5 2.7 1 4.1 1.5-3.7-4.3-6.7-8.8-9.1-13.9-0.4-0.8-4.2-3.5-4.4-1.6-0.6 5.5-1.5 10.9-3.3 16.2 1.4 0.6 2.9 1.3 4.3 1.8-4.3-9.3-7-18.9-8.5-28.9-0.3-1.3-4.8-3-4.6-1.6z"/>
		
	
	
		
			<path class="st1" d="m771.3 60.4c-14.1-0.2-27.8 2.8-41.3 6.4-14.1 3.8-28.1 7.7-42.3 11.5-3 0.8-2.3 4.5 0.7 3.7 13.5-3.6 26.9-7.4 40.3-11 13.7-3.7 27.6-6.9 41.9-6.7 3 0 4-3.9 0.7-3.9z"/>
		
	
	
		
			<path class="st1" d="m691.2 88.6c2.4 12.8 5.5 25.4 9.2 37.9 0.7 2.5 4.8-0.2 4.2-2.5-3.6-12.1-6.6-24.5-8.9-36.9-0.7-2.9-4.9-0.8-4.5 1.5z"/>
		
	
	
		
			<path class="st1" d="m694.5 88.7c11.1-3.9 22.4-6.8 33.9-8.9-0.5-0.2-1.1-0.3-1.5-0.5 3.4 13.3 6.8 26.7 10.2 40 0.9-0.8 1.6-1.5 2.5-2.3-6.1 1.5-12.1 3.1-18.3 4.6-2.9 0.8-5.7 1.4-8.6 2.2-2.7 0.6-6.4 2.5-9.1 2.2 0.4 0.2 0.7 0.6 1.1 0.8v-0.3c-0.8 0.7-1.7 1.3-2.5 2h0.2c2.2-0.5 3.6-3.5 0.3-2.6h-0.2c-0.8 0.2-2.5 1-2.5 2v0.3c0 0.6 0.6 0.8 1.1 0.8 2.2 0.2 4.5-0.8 6.6-1.3 3.5-0.9 7.1-1.8 10.6-2.7 7.1-1.8 14.1-3.6 21.2-5.4 0.9-0.2 2.7-1.1 2.5-2.3-3.4-13.3-6.8-26.7-10.2-40-0.1-0.6-1.1-0.6-1.5-0.5-12 2.2-23.8 5.2-35.2 9.2-2.4 0.9-3.7 3.9-0.6 2.7z"/>
		
	
	
		
			<path class="st1" d="m790.6 64.3c-7.8 1.7-16 2.8-23.9 4.6-8.5 1.9-16.3 4.7-24.9 5.9-6.7 1 0.9 2.3 4.2 1.8 9-1.2 17.1-4.1 26-6.1 8.3-1.8 16.6-3 24.9-4.9 5.8-1.2-3.4-2-6.3-1.3z"/>
		
	
	
		
			<path class="st1" d="m791.5 69.5c-16.3 3.8-32.8 7.3-49.2 10.6-5.5 1.1 2.6 2.5 5.9 1.9 16.4-3.3 32.9-6.8 49.2-10.6 5.7-1.3-2.4-2.7-5.9-1.9z"/>
		
	
	
		
			<path class="st1" d="m795.6 76.6c-15.8 3.1-31.4 6.2-47.2 9.5-6.2 1.3-6.3 2.3 0.2 1 14.7-3.1 29.4-6 44.1-8.9 4.2-0.9 10.7-3.1 2.9-1.6z"/>
		
	
	
		
			<path class="st1" d="m793.5 87.1c-16.1 3.6-32.6 6.7-48.8 9.5-4.6 0.8 4.4 1.3 6.3 0.9 16.9-2.9 33.7-6.2 50.4-9.7 2.4-0.5-5.5-1.2-7.9-0.7z"/>
		
	
	
		
			<path class="st1" d="m796.3 78.3c-16.6 2.9-32.9 6.3-49.3 10.2-6.3 1.5-6 6.2 0.9 4.5 15.3-3.7 30.9-6.9 46.4-9.7 6.4-1.1 9-6.3 2-5z"/>
		
	
	
		
			<path class="st1" d="m799.8 91.8c-15.2 2.8-30.7 5.6-45.9 8.3-2.7 0.5-9.5 5.1-5.5 4.4 15.2-2.8 30.7-5.6 45.9-8.3 2.6-0.5 9.2-5.2 5.5-4.4z"/>
		
	
	
		
			<path class="st1" d="m798.8 97.5c-14.9 2.7-29.8 5.5-44.9 8.6-6.5 1.3-7.8 5.9-0.7 4.5 14.9-3 29.8-5.8 44.9-8.6 6.5-1.2 7.9-5.7 0.7-4.5z"/>
		
	
	
		
			<path class="st1" d="m798.5 103.6c-16.1 3.8-32.6 7.3-48.8 10.4-0.2 0 2.8 4 5.5 3.5 16.3-3.2 32.7-6.7 48.8-10.4 0.4-0.1-2.9-4.1-5.5-3.5z"/>
		
	
	
		
			<path class="st1" d="m742.3 126.8c-11.1 2.7-22 5.3-33.1 8-1.9 0.5-5 2.2-1.1 1.2 11.1-2.7 22-5.3 33.1-8 1.8-0.4 4.9-2.1 1.1-1.2z"/>
		
	
	
		
			<path class="st1" d="m741.4 134.2c0.6 0 1.1-0.1 1.7-0.1-0.8-1.4-1.5-2.8-2.3-4.1-10.5 2.9-20.9 5.3-31.6 7.5-2.3 0.5 0.6 4.6 2.7 4.2 10.6-2.2 21.1-4.7 31.6-7.5 2.4-0.7-0.6-4.3-2.3-4.1-0.6 0-1.1 0.1-1.7 0.1-2.8 0-0.1 4.2 1.9 4z"/>
		
	
	
		
			<path class="st1" d="m742.3 137.6c-11.1 2.4-22 4.8-33.1 7.2-0.3 0.1 2.9 3.2 4.4 2.8 11.1-2.4 22-4.8 33.1-7.2 0.4-0.1-2.9-3.1-4.4-2.8z"/>
		
	
	
		
			<path class="st1" d="m744.2 144.5c-10.9 2.3-22 4.6-32.9 7-2 0.5 0.8 2.7 2.6 2.3 10.9-2.4 21.9-4.8 32.9-7 2-0.4-0.7-2.8-2.6-2.3z"/>
		
	
	
		
			<path class="st1" d="m744.4 150.2c-10.3 2.7-20.7 5.3-31.1 7.5-3 0.7 1.6 2.8 3.3 2.5 10.4-2.2 20.8-4.8 31.1-7.5 3.1-0.8-1.6-2.9-3.3-2.5z"/>
		
	
	
		
			<path class="st1" d="m747.3 156c-11.1 2.7-22.1 5.2-33.2 7.9-0.2 0 2 4.2 3.4 3.8 11.1-2.7 22.1-5.2 33.2-7.9 0.2 0.1-2-4.1-3.4-3.8z"/>
		
	
	
		
			<path class="st1" d="m782.7 115.1c-10.2 2.1-20.4 4.2-30.5 6.2-1.3 0.2-2.1 1.1-1.9 2.4 2.4 13.4 4.9 26.7 7.3 40 0.2 1.2 1.8 2.1 2.9 1.9 10.4-2.2 20.8-4.4 31.3-6.2 3.1-0.6 1.7-4.8-1.2-4.4-10.4 1.9-20.8 4-31.3 6.2 0.9 0.6 2 1.2 2.9 1.9-2.4-13.4-4.9-26.7-7.3-40-0.7 0.8-1.2 1.7-1.9 2.4 10.2-2.1 20.4-4.2 30.5-6.2 3.5-0.5 2-4.8-0.8-4.2z"/>
		
	
	
		
			<path class="st1" d="m672.5 39.1c-4 1.1-7.9 2.2-12 3.3-0.9 0.3-3.6 2.1-3.2 3.3 9.4 32.2 20.6 63.8 33.4 94.9 0.2 0.6 4.2-2.1 3.6-3.5-12.8-30.9-23.8-62.4-33.2-94.5-1.1 1.1-2.1 2.1-3.2 3.3 4-1.1 7.9-2.2 12-3.3 1.1-0.2 3.9-3.8 2.6-3.5z"/>
		
	
	
		
			<path class="st1" d="m712.1 183.8c1.9 4.7 4.3 9.2 7.3 13.7 0.7 0.9 6.1 0.4 7.5 0.2 40-9.3 80.1-18.6 119.9-27.9-0.9 0.2-5.1-0.7-7.2-0.2-40 9.3-80.1 18.6-119.9 27.9 2.5 0 4.9 0.1 7.5 0.2-2.9-4.4-5.4-8.9-7.3-13.7-0.6-1.1-7.7-0.1-7.8-0.2z"/>
		
	
	
		
			<path class="st1" d="m111.1 36.3c-36.2-8.2-72.6-15-109.3-20.4-3.1-0.5-1.8 4 0.5 4.3 36.7 5.5 73.1 12.3 109.3 20.5 3 0.6 1.8-3.9-0.5-4.4z"/>
		
	
	
		
			<path class="st1" d="m110.2 39.8c-12.4 25.5-14.2 54-20.1 81.4-3.1 14.2-7.9 27.9-12.1 41.8-2.1 6.9-4 14-5.2 21.1-0.6 3.6-1.1 7.1-1.4 10.7-0.2 2-0.9 4.6 0.4 6.3 0.8 1.1 2.7 1.1 3.9 0.7 0.2-0.1 0.3-0.1 0.5-0.2 0.6-0.2 0.9-0.8 0.8-1.4 0-0.1-0.1-0.3-0.1-0.4-0.4-1.9-5.4-1.9-4.9 0.4 0 0.1 0.1 0.3 0.1 0.4 0.3-0.5 0.5-1 0.8-1.4-0.2 0.1-0.3 0.1-0.5 0.2 1.3 0.2 2.6 0.5 3.9 0.7-1.1-1.5 0.4-7.2 0.6-9.2 0.4-3.3 1-6.5 1.7-9.8 1.4-6.8 3.3-13.5 5.3-20.2 4.1-13.3 8.5-26.4 11.5-40 5.7-26.8 7.5-54.7 19.7-79.7 0.8-2.2-4.1-3.2-4.9-1.4z"/>
		
	
	
		
			<path class="st1" d="m109.1 48.4c3.4 0.2 6.8 0.4 10.3 0.7-0.6-0.3-1.2-0.5-1.9-0.8-7.7 28.4-16.4 56.4-26 84.2-0.3 0.7 4.5 1.3 5-0.2 9.7-27.7 18.4-55.8 26-84.2 0.2-0.6-1.6-0.8-1.9-0.8-3.4-0.2-6.8-0.4-10.3-0.7-1.9 0-4.6 1.6-1.2 1.8z"/>
		
	
	
		
			<path class="st1" d="m13.5 30.1c-2.4-0.2-4.7-0.6-7-1.2-1.1-0.3-2.6-0.2-3 1.1-0.4 1.1 0.6 2.4 1.7 2.7 2.7 0.7 5.5 1.2 8.3 1.5 3.2 0.2 2.9-3.9 0-4.1z"/>
		
	
	
		
			<path class="st1" d="m12.1 37.6c-2.1-0.7-4.3-1.4-6.4-2.1-1-0.3-2.5-0.5-3 0.6s0.7 2.3 1.6 2.6c2.1 0.7 4.3 1.4 6.4 2.1 1 0.3 2.5 0.5 3-0.6 0.5-1-0.6-2.2-1.6-2.6z"/>
		
	
	
		
			<path class="st1" d="m8 46.6c-1-0.4-2.1-0.8-3.1-1.2-0.8-0.3-2.5-0.4-2.8 0.6-0.4 1.1 1.2 1.9 1.9 2.2 1 0.4 2.1 0.8 3.1 1.2 0.8 0.3 2.5 0.4 2.8-0.6 0.4-1.2-1.1-1.9-1.9-2.2z"/>
		
	
	
		
			<path class="st1" d="m17.7 33.4c-3 5.6-5.6 11.3-8 17.1-0.1 0.3 4.5 1.4 5 0.2 2.4-5.8 5-11.5 8-17.1 0.1-0.1-4.3-1.3-5-0.2z"/>
		
	
	
		
			<path class="st1" d="m18.5 36.1c0.6 6.5 1.8 12.8 3.7 19 0.2 0.8 4.8-1 4.5-2.2-1.9-6.2-3.1-12.6-3.7-19-0.1-0.6-4.7 0.8-4.5 2.2z"/>
		
	
	
		
			<path class="st1" d="m24 46.5c-2.6-0.5-5.3-1-7.9-1.4-0.9-0.2-2.6-0.6-3.5-0.1-0.8 0.5 0.3 0.7 0.8 0.8 2.6 0.5 5.3 1 7.9 1.4 0.9 0.2 2.6 0.6 3.4 0.1 0.9-0.5-0.2-0.7-0.7-0.8z"/>
		
	
	
		
			<path class="st1" d="m29.7 36.2c-1.3 6.3-2 12.7-2.1 19.2 0 0.6 4.8 0 4.8-1.3 0-6.3 0.7-12.6 2-18.8 0.3-0.9-4.4-0.2-4.7 0.9z"/>
		
	
	
		
			<path class="st1" d="m39.9 37.9c-2.6 1.7-5.4 2.8-8.5 3-3.2 0.2-3 4.7 0.1 4.5 3.9-0.3 7.6-1.3 10.9-3.5 2.6-1.7-0.1-5.5-2.5-4z"/>
		
	
	
		
			<path class="st1" d="m30.8 44.7c2.7 3.7 4.9 7.6 6.6 11.8 0.5 1.2 5.2-0.4 4.8-1.4-1.8-4.2-4-8.1-6.6-11.8-0.9-1.1-5.2 0.8-4.8 1.4z"/>
		
	
	
		
			<path class="st1" d="m46.2 39.9c-1.9 5.6-3.4 11.2-4.7 17-0.6 2.6 3.8 4.7 4.5 1.7 1.3-5.7 2.8-11.4 4.7-17 0.8-2.5-3.6-4.6-4.5-1.7z"/>
		
	
	
		
			<path class="st1" d="m52.4 42.2c-0.7 5.4-1.8 10.6-3.5 15.7-0.6 1.6 3.8 4 4.2 2.7 1.8-5.3 3-10.7 3.7-16.3 0.2-1.5-4.2-3.8-4.4-2.1z"/>
		
	
	
		
			<path class="st1" d="m55.6 46.5c1.2 1.4 1.8 4.4 2.6 6.2 1.1 2.4 2.2 4.7 3.4 6.9 0.2 0.4 2.4 3.4 2.5 2.7 1-5.4 2.6-10.5 5-15.5 0.6-1.2-2.8-4.2-2.8-4.2-2.4 5-4.2 10.3-5.2 15.8 0.8 0.9 1.7 1.8 2.5 2.7-1.8-3.4-3.5-6.9-5-10.5-1-2.5-2-4.8-3.9-6.8-1.7-2.3 0.2 1.9 0.9 2.7z"/>
		
	
	
		
			<path class="st1" d="m86.6 47.8c-6.2-5.4-16.8 0.7-19.7 7.1-3.9 8.5 7.6 11.1 13.4 8 2.9-1.6 0-4.3-2.5-3-1.1 0.6-4 0.4-5.1-0.1-2.5-1-1.7-3.8-0.5-5.5 1.7-2.4 7.3-6.6 10.2-4 1.9 1.7 6.2-0.8 4.2-2.5z"/>
		
	
	
		
			<path class="st1" d="m83.9 54.8c-2.8-0.6-5.5-0.9-8.3-0.9-1.2 0-2.1 1.2-1.9 2.4 0.3 1.4 1.7 2 2.9 2 2.4 0 4.7 0.4 7.1 0.9 1.2 0.3 2.5-0.6 2.6-1.8 0-1.5-1.3-2.4-2.4-2.6z"/>
		
	
	
		
			<path class="st1" d="m79.8 58.8c-0.8 2.6-1.6 5.2-2.4 7.7-0.3 0.8 1.8 0 2-0.1 0.8-0.4 2.1-1 2.4-2 0.8-2.6 1.6-5.2 2.4-7.7 0.3-0.8-1.8 0-2 0.1-0.8 0.4-2.2 1-2.4 2z"/>
		
	
	
		
			<path class="st1" d="m80.9 75.7c-2.4-8.4-22.9-8-20.7 2.1 1 4.7 6.7 4.8 10.4 5.5 2.1 0.4 4.1 0.4 5 2.7 0.8 2.2-0.1 5.5-1.3 7.3-3.1 4.5-12.9 6.5-12.3-2.5 0.1-1.5-4.1-3.9-4.2-2.4-0.8 11.8 17.8 17.8 21.8 5.3 1.5-4.8-0.4-10.3-5.2-12.3-1.2-0.5-2.6-0.8-3.9-1.1-0.5-0.1-6.1-0.6-6.3-1-1.3-2 4-5.2 5-5.6 0.8-0.3 7.3-1 7.7 0.3 0.2 1.3 4.5 3.5 4 1.7z"/>
		
	
	
		
			<path class="st1" d="m56.8 68.4c-4.6 8.3-9.7 16.2-15.2 23.8 1.5 0.2 2.9 0.4 4.4 0.6-1-3.7-1.7-7.3-2.1-11.1-0.2-2.3-3.3-1.8-4.4-0.6-2.9 3.3-5.7 6.6-8.6 10 1.5 0.4 2.9 0.8 4.4 1.2 0.2-10.3 1.2-20.5 2.8-30.7 0.5-3-4.4-2.8-4.8-0.1-1.6 10.2-2.6 20.4-2.8 30.7-0.1 2.6 3 2.8 4.4 1.2 2.9-3.3 5.7-6.6 8.6-10-1.5-0.2-2.9-0.4-4.4-0.6 0.4 3.8 1.1 7.4 2.1 11.1 0.6 2 3.2 2.2 4.4 0.6 5.8-8 11.1-16.3 15.8-24.9 1.4-2.8-3.3-3.7-4.6-1.2z"/>
		
	
	
		
			<path class="st1" d="m28.2 60.5c-4.1-0.9-8.5-2.3-12.7-2.7-1.7-0.1-2.8 0-3.7 1.7-1.4 2.8-1 7.4-1.5 10.4-0.7 4.6-1.6 9.2-2.6 13.8-0.3 1.6 0.7 3.6 2.5 3.5 3.9-0.2 7.4 0.3 11.1 1.7 2.9 1.1 2.7-3.6 0.3-4.6-4-1.5-7.9-2.1-12.2-1.9 0.8 1.2 1.7 2.3 2.5 3.5 1.2-5.5 2.3-11.1 3.1-16.8 0.4-2.6-0.2-6 2.8-6.3 2.8-0.2 7.3 1.5 10 2.1 3.2 0.8 3-3.9 0.4-4.4z"/>
		
	
	
		
			<path class="st1" d="m20.7 72.4c-3-0.4-5.9-1.1-8.8-2-1.1-0.4-2.6-0.2-3.3 0.9-0.6 1.1 0.2 2.4 1.3 2.8 3.3 1.1 6.7 1.9 10.1 2.4 3.2 0.4 3.8-3.7 0.7-4.1z"/>
		
	
	
		
			<path class="st1" d="m73.2 108.4c-13.4-3.2-27.6-2.7-40.5-8.1-1.4-0.6-2.3 1.3-0.9 1.9 13.1 5.5 27.5 5 41.2 8.3 1.6 0.3 1.7-1.8 0.2-2.1z"/>
		
	
	
		
			<path class="st1" d="m69.9 112.7c-12.1-0.2-24-2.1-35.6-5.7-1.4-0.4-2.3 1.7-0.8 2.2 11.8 3.7 23.9 5.6 36.2 5.8 1.6-0.1 1.9-2.3 0.2-2.3z"/>
		
	
	
		
			<path class="st1" d="m69.8 120.5c-12.3-1-24.2-3.4-35.9-7.4-1.5-0.5-2 1.6-0.6 2.1 11.8 4 24 6.6 36.5 7.5 1.7 0.2 1.5-2.1 0-2.2z"/>
		
	
	
		
			<path class="st1" d="m67 126.6c-11-2-22-4-33.1-6-1.6-0.3-1.2 1.4 0.1 1.6 11 2 22 4 33.1 6 1.6 0.3 1.2-1.4-0.1-1.6z"/>
		
	
	
		
			<path class="st1" d="m68.2 132.4c-11.6-2.1-23.1-4.3-34.6-6.8-1-0.2-2.7 1.6-1.4 1.8 11.5 2.5 23.1 4.7 34.6 6.8 1 0.2 2.7-1.6 1.4-1.8z"/>
		
	
	
		
			<path class="st1" d="m4.4 94.3c4.9 0.8 9.9 1.6 14.8 2.4 2.2 0.4 6.2-0.1 6.7 2.9 0.3 1.7-1.4 5-1.9 6.7l-9 30.3c0.4-0.1 0.9-0.1 1.3-0.2-4.4-0.7-8.7-1.6-13-2.7-0.6-0.1-2.8 0-1.3 0.4 4.7 1.2 9.4 2.2 14.2 3 0.2 0 1.2 0.2 1.3-0.2 1.9-6.3 3.7-12.6 5.6-18.9 0.9-3.2 1.9-6.3 2.8-9.5 0.7-2.4 2.6-6 2.5-8.6-0.1-2.4-1.7-2.6-3.8-3-6.4-1.2-12.9-2.1-19.4-3.2-1-0.1-2.5 0.3-0.8 0.6z"/>
		
	
	
		
			<path class="st1" d="m66.8 139.9c-6.5-1-13.1-1.9-19.6-2.8-3.1-0.4-6.2-0.8-9.4-1.2-1.4-0.2-6.4-1.6-7.6-0.7-1.5 1.1-1.5 5.3-1.9 7-0.7 3.2-1.3 6.4-2 9.6-1.4 7-2.9 14-4.3 21-0.1 0.6 1.8 1.6 1.8 1.7 1.3-6.4 2.6-12.8 3.9-19.1 0.7-3.2 1.3-6.4 2-9.6 0.3-1.7 0.5-7.1 1.8-8.4 1.7-1.6 6.8 0.1 8.9 0.4 2.8 0.4 5.6 0.7 8.4 1.1 6.6 0.9 13.1 1.8 19.6 2.8-0.1 0-0.9-1.7-1.6-1.8z"/>
		
	
	
		
			<path class="st1" d="m66.2 141.7c-1.7 5.5-3.3 10.9-5 16.4-0.9 3-1.8 6.1-2.8 9.1-0.8 2.5-1.2 5.9-2.5 8.2-1.6 3-4.3 1.6-7.3 1-2.8-0.5-5.6-1.1-8.4-1.6-5.9-1.1-11.9-2.3-17.8-3.5-1.5-0.3-1.7 0.9-0.2 1.2 7.2 1.4 14.3 2.8 21.5 4.2 3.3 0.6 6.9 1.7 10.3 1.9 1 0.1 2.2 0.4 3.1-0.3 1.3-0.9 1.5-3.2 1.9-4.4 1-3.3 2-6.7 3-10 2.2-7.3 4.4-14.5 6.6-21.8 0.3-0.8-2.1-1.3-2.4-0.4z"/>
		
	
	
		
			<path class="st1" d="m56.3 184.3c-6.5-0.4-13-0.8-19.5-1.5-1.6-0.2-16.4-1-16.6-2.2-0.2-1.4-2.7-1.4-2.5 0.1 0.2 1.2 0.6 1.6 1.7 2.1 2.9 1.6 8.9 1.3 12.1 1.6 8.3 0.9 16.6 1.6 24.9 2 1.5 0.2 1.4-2.1-0.1-2.1z"/>
		
	
	
		
			<path class="st1" d="m54.2 189.7c-5.8-0.6-11.6-1.2-17.4-1.8-2.6-0.3-5.1-0.5-7.7-0.8-1.6-0.2-9.6-0.1-10.5-1.7-0.5-0.9-2.7 0.3-2.2 1.1 0.8 1.5 2.2 1.3 3.9 1.5 3.5 0.4 7.1 0.7 10.6 1.1 7.4 0.8 14.8 1.5 22.2 2.3 1 0.2 2.6-1.5 1.1-1.7z"/>
		
	
	
		
			<path class="st1" d="m54.6 196.7c-5.6-0.6-11.3-1.2-16.9-1.8-2.5-0.3-5-0.5-7.5-0.8-3.1-0.3-8.5-0.1-11.2-1.7-0.6-0.3-2.3 0.3-2.4 0.3 4.1 2.4 11 1.7 15.6 2.2 6.9 0.7 13.8 1.5 20.7 2.2 0.3 0.1 2.7-0.3 1.7-0.4z"/>
		
	
	
		
			<path class="st1" d="m16.9 144.4c-3.7-1.3-7.5-2.5-11.2-3.8-0.8-0.3-2.9 1.1-1.8 1.4 3.7 1.3 7.5 2.5 11.2 3.8 0.9 0.3 2.9-1.1 1.8-1.4z"/>
		
	
	
		
			<path class="st1" d="m15 150.1c-3-0.2-5.9-1.1-8.7-2.4-0.4-0.2-1.2-0.3-1.7-0.2-0.1 0-0.9 0.1-0.5 0.3 3.4 1.6 7 2.4 10.8 2.8 1.5 0.1 1.6-0.4 0.1-0.5z"/>
		
	
	
		
			<path class="st1" d="m15.4 156.3c-3.1-1.1-6.1-2.2-9.2-3.3-1.3-0.5-2.8 1.5-1.3 2 3.1 1.1 6.1 2.2 9.2 3.3 1.2 0.5 2.7-1.5 1.3-2z"/>
		
	
	
		
			<path class="st1" d="m10.9 160.9c-2.4-0.4-4.8-1-7.2-1.8-0.3-0.1 0.1 0.9 0.2 0.9 0.2 0.4 0.5 1.1 1 1.2 2.3 0.8 4.7 1.4 7.2 1.8 0.1 0.1-0.6-2-1.2-2.1z"/>
		
	
	
		
			<path class="st1" d="m8.2 166.7c-1.8-0.5-3.6-1-5.4-1.6 0 0 0.4 1 0.5 1.2 0.1 0.3 0.4 0.9 0.7 1 1.8 0.5 3.6 1 5.4 1.6 0 0-0.4-1-0.5-1.2s-0.3-0.9-0.7-1z"/>
		
	
	
		
			<path class="st1" d="m8 172.2c-1.5-0.3-3.1-0.7-4.6-1-0.6-0.1-1.1 0.4-1.1 1 0 0.7 0.6 1.2 1.2 1.3 1.5 0.3 3.1 0.7 4.6 1 0.6 0.1 1.1-0.4 1.1-1 0-0.7-0.6-1.2-1.2-1.3z"/>
		
	
	
		
			<path class="st1" d="m20.7 104.2v-0.4c-1.9 1.5-3.8 3-5.7 4.4h0.2c-1.4-1-2.8-1.9-4.2-2.9-0.2-0.6-1.9 4.4-2.1 5.3-0.8 3-1.5 6-2.1 9-0.7 3.6-2.8 9.3 0.6 12.2 2.4 2 6.9 1.4 8.5-1.3 4.5-7.8 7.9-16.1 10.2-24.7 1.3-4.9-8.6-4.9-9.8-0.4-2.2 8.1-5.4 15.6-9.5 22.9 2.8-0.4 5.7-0.9 8.5-1.3 0.3 0.9 0.4 0.5 0.4-1.3l0.6-3.6c0.4-2.4 1-4.8 1.5-7.2 0.5-2.2 0.9-4.6 1.7-6.7 0.4-1.1 1.8-2.7 1.3-4.1-0.6-1.8-2.2-2.9-4.2-2.9h-0.2c-2.6 0-5.8 1.4-5.7 4.4v0.4c0.3 4.5 10.2 3.1 10-1.8z"/>
		
	
	
		
			<path class="st1" d="m22.4 99.8c-4.3-1.3-8.7-2.2-13.1-2.6-2.9-0.3-7.3 1.9-6.5 5.5 1.1 5.1 1.6 10.2 1.3 15.4-0.4 5.9 9.2 4.5 9.5-0.5 0.4-5.9 0-11.7-1.3-17.5-2.2 1.8-4.4 3.7-6.5 5.5 4.5 0.4 8.8 1.3 13.1 2.6 4.8 1.4 9.5-6.6 3.5-8.4z"/>
		
	
	
		
			<path class="st1" d="m17.9 102.1c0.1 0.7 0.8 1.3 1.4 1.6 1.8 1 7.4 2.2 8.4-0.6 1.6-4.4-2.9-5.2-6.2-5.9-5.1-1.2-10.1-2-15.4-2.4-1.6-0.1-5 0.2-5.2 2.4-0.1 2.2 3.3 3 4.8 3.1 2.9 0.2 5.8 0.4 8.7 1 1.2 0.2 2.4 0.6 3.7 0.9 0.5 0.1 4.6 1.3 2.1 0.4-0.7-0.6-1.5-1.2-2.2-1.8 0.1 0.1 0.1 0.2 0.2 0.3l8.4-0.6 1 1c-0.6-3.6-10.5-3.7-9.7 0.6z"/>
		
	
	
		
			<path class="st1" d="m9.5 127.8c-0.1 0.4-0.1 0.7-0.2 1.1 0 0.1 0 0.3-0.1 0.4 0 0.4-0.1 0.3 0-0.2 1.1-0.8 2.2-1.7 3.4-2.5 0.5 0.1 0.5 0.1 0.2 0.1-0.2 0-0.5-0.1-0.7-0.1-0.5-0.1-1-0.1-1.5-0.2-1-0.1-1.9-0.3-2.9-0.5-2.3-0.4-4.7 1-4.7 3.5 0 2.4 1.7 5.2 4.2 5.7 2.1 0.4 4.3 0.7 6.4 0.9 1.9 0.2 3.6-0.7 4.2-2.6 0.4-1.1 0.4-2.4 0.6-3.5 0.4-2.4-1.9-5.2-4.2-5.7-2.6-0.4-4.3 1.1-4.7 3.6z"/>
		
	
	
		
			<path class="st1" d="m52.5 147.5c-0.9-0.6-1.8-1.1-2.8-1.5-0.5-0.2-1.3-0.2-1.7 0.2s0 0.9 0.4 1.1c0.8 0.4 1.6 0.8 2.3 1.3 0.5 0.3 1.2 0.4 1.8 0.1 0.4-0.4 0.5-0.9 0-1.2z"/>
		
	
	
		
			<path class="st1" d="m51.9 147.9c-0.4 0.5-0.7 1.1-1 1.7-0.1 0.3-0.2 0.7-0.3 1 0.1 0.4-0.1 0.5-0.3 0.3-0.2 0-0.5-0.1-0.7-0.3-1.4-0.6-2.7-1.2-4.2-1.6-0.1 0 0.3 1 0.6 1.1 0.9 0.2 1.7 0.5 2.5 0.8 0.5 0.2 1 0.4 1.5 0.7 0.1 0 0.7 0.5 0.8 0.4 0.4-0.1 0.3 0.1 0.4-0.5 0.3-0.9 0.7-1.8 1.2-2.6 0.3-0.2-0.5-1.1-0.5-1z"/>
		
	
	
		
			<path class="st1" d="m50 152.2c1.3 2.2 2 4.5 1.2 7-0.7 2-2.3 2.9-3.5 4.4-2.9 3.6-2 8.3-4.7 12 0 0 1 0.1 1.2-0.1 2.6-3.5 2-7.7 4.4-11.4 1-1.5 2.5-2.3 3.4-3.9 1.5-2.8 0.9-5.6-0.7-8.2-0.2-0.2-1.3 0.2-1.3 0.2z"/>
		
	
	
		
			<path class="st1" d="m44.6 149.4c-2.7 0.3-4 1.6-5.4 4-1.5 2.7-0.8 4.5-0.8 7.5-0.2 7-8.1 6.6-10.2 12.4-0.1 0.2 1.1 0.5 1.2 0.2 1.7-4.6 6.6-4.4 9-8.1 3-4.8-1.9-14.4 7.1-15.6 0.5-0.1-0.6-0.5-0.9-0.4z"/>
		
	
	
		
			<path class="st1" d="m782.3 133c0.2 1.6 0.3 3.2 0.3 4.8 0 1.8-1 2.9-2.5 3.9-0.9 0.6 0.8 2.4 1.5 1.9 1.5-0.9 2.7-1.9 3-3.6 0.3-1.9 0-4-0.1-6-0.2-0.9-2.3-2.1-2.2-1z"/>
		
	
	
		
			<path class="st1" d="m784.3 132.3c-4.2-7.4-14.9-1.9-14.3 5.6 0.4 4.5 7.9 7 3.2 11.5-3.5 3.3-6.2 5.6-6.7 10.9-0.1 1 2.4 0.7 2.4-0.3 0.4-4.7 2.7-7.5 6.4-10.1 1.3-1 1.9-1.1 2.1-2.8 0.3-1.8-0.6-3.6-1.6-4.7-1.8-2-3.5-2.9-3.2-6.2 0.4-4.4 7-7.8 9.6-3.1 0.3 0.8 2.7 0.1 2.1-0.8z"/>
		
	
	
		
			<path class="st1" d="m780 142.6c-0.2 1.5 0 4.1 1.6 4.7 1.1 0.4 2.2 0.2 3.3 0.7 1.1 0.6 2 1.4 2.7 2.6 0.4 0.7 2.7 0 2.4-0.6-0.9-1.6-2.2-2.7-3.8-3.4-0.8-0.3-1.5-0.3-2.2-0.5-1.5-0.4-1.7-2.4-1.5-3.8 0-0.8-2.3-0.5-2.5 0.3z"/>
		
	
	
		
			<path class="st1" d="m788 150.5c1.1 1.6 1.3 3.8 0.9 5.7-0.1 0.5 2.4 0.6 2.5-0.1 0.3-2 0.1-4.3-1-6-0.4-0.5-2.7-0.1-2.4 0.4z"/>
		
	
	
		
			<path class="st1" d="m714.9 97c1 2.1 2.1 4.4 2.8 6.6 1.1 2.8 0.4 3.8 0 6.6-0.6 4.1 3 9 5 12.4 0.1 0.2 1.2-0.4 1.1-0.5-1.3-2.2-2.5-4.4-3.6-6.7-1.4-3.1-1.4-3.8-0.7-7.1 0.8-3.8-1.9-8.3-3.6-11.7 0.1-0.3-1.1 0.2-1 0.4z"/>
		
	
	
		
			<path class="st1" d="m715.9 96.3c-0.8 0.3-1.8 0.7-2.3 1.5-0.5 1 0.5 2.2 0.9 3.2 0.4 0.8 1 1.8 1.1 2.7 0.2 0.4 0.2 0.7 0 1-0.1 0.6-0.3 0.6-0.5-0.1-0.3-0.3-0.4-0.7-0.6-1.1-0.9-1.7-1.9-3.4-2.7-5.1-0.2-0.5-1.3 0.2-1.1 0.5 0.9 2 2 3.8 3 5.6 0.5 0.8 0.8 1.9 1.9 1.4 1-0.4 1.4-1.5 1.2-2.5-0.1-0.9-0.6-1.7-1-2.6-0.5-1.2-2.2-3.2-0.2-3.9 0.8-0.1 1-0.8 0.3-0.6z"/>
		
	
	
		
			<path class="st1" d="m710.8 98.4c-1.2 0.5-2.3 0.9-1.7 2.3 0.4 1.2 1.4 2.4 2.1 3.5 0.7 1.2 1.5 2.4 2.1 3.7 0.3 0.6 1.4-0.2 1-0.7-0.9-1.4-1.7-2.8-2.5-4.2-0.3-0.6-0.7-1.2-1.1-1.8-0.6-0.9-0.9-1.1 0.2-1.7 0.6-0.2 0.6-1.3-0.1-1.1z"/>
		
	
	
		
			<path class="st1" d="m713.4 107.1c-1.1 0.6-1.3 0.2-2.1-0.7l-1.2-1.5c-0.9-1.3-1.5-2.6-2-4-0.2-0.7-1.3-0.4-1 0.4 0.7 2.2 1.9 4.2 3.5 6 1.3 1.5 1.8 1.8 3.5 0.8 0.6-0.4-0.1-1.4-0.7-1z"/>
		
	
	
		
			<path class="st1" d="m707 100.4c-0.6 0.3-2 0.8-2.2 1.6-0.3 1.1 1.3 3.1 1.8 3.9 1.5 3 2.8 5 6.2 5.6 0.7 0.2 0.4-1-0.1-1.1-2.8-0.6-3.9-2.2-5.1-4.5-0.3-0.6-0.8-1.5-1-2.2-0.5-1.4-0.1-1.7 1.2-2.4 0.3-0.2-0.4-1.2-0.8-0.9z"/>
		
	
	
		
			<path class="st1" d="m711.9 110.7c3.3 3.7 5.3 8.1 7.2 12.7 0.2 0.3 1.3 0.3 1.3 0.2-1.9-4.5-3.8-8.9-7.2-12.7-0.3-0.4-1.3-0.3-1.3-0.2z"/>
		
	
	
		
			<path class="st1" d="m725.9 96.8c-3.6 0.8-5.5 5.2-6.1 8.5-0.6 3.2 0.7 6.1 3.7 7.3 0.8 0.4 0.4-0.4 0-0.6-5.7-2.5-1.5-13.5 3.3-14.5 0.5-0.2-0.5-0.9-0.9-0.7z"/>
		
	
	
		
			<path class="st1" d="m726.1 97.9c3.7 0.9 3.5 7.2 2.6 9.8-0.7 2-2.2 3.5-3.9 4.5-0.4 0.2 0.3 1.3 0.7 1 3.7-2.1 5.1-6.1 4.4-10.2-0.4-2.6-1.5-5.5-4.3-6.2-0.4-0.1 0.1 1 0.5 1.1z"/>
		
	
	
		
			<path class="st1" d="m724.6 112.5c-0.1 3.1-0.3 6.2-0.6 9.3 0 0.3 1 0.9 1 0.6 0.3-3.1 0.6-6.1 0.6-9.3 0.1-0.4-0.9-0.9-1-0.6z"/>
		
	
	
		
			<path class="st1" d="m724.1 112.7v-0.2c0-0.5-1.1-0.2-1.2 0.2-0.7 2.3-1.4 4.5-2.2 6.7-0.1 0.4 1.1 0.2 1.2-0.2 0.8-2.2 1.6-4.5 2.2-6.7-0.4 0.1-0.8 0.2-1.2 0.2v0.2c0 0.6 1.2 0.3 1.2-0.2z"/>
		
	
	
		
			<path class="st1" d="m722.1 86.1v0c-0.2 0.1-0.4 0.3-0.4 0.4h0.1c-0.2 0-0.4 0.1-0.7 0.1 0.4 1.1 0.1 3 0.1 4.3 0.1 1 0.1 2.1 0.3 3.1 0.2 2.1 0.6 4.2 1 6.2 0 0.2 1.2-0.2 1.1-0.5-0.5-2.7-1-5.4-1.2-8.1-0.1-1.8 0.4-4.2-0.3-5.5 0-0.3-0.5-0.1-0.6 0h-0.1c-0.2 0-0.6 0.3-0.4 0.5v0.1c0.1 0.2 1.3-0.2 1.1-0.6z"/>
		
	
	
		
			<path class="st1" d="m721.2 86.5c-2 1.9-2.9 4.2-3.1 7 0 1.8 0.2 3.6 0.4 5.4 0.2 1.6 0 4.4 1.6 5.4 0.2 0.2 1.1-0.6 1.1-0.6-1.8-1.2-1.6-5.5-1.8-7.5-0.4-3.6-0.1-7.2 2.7-9.9 0.3-0.4-0.7 0.1-0.9 0.2z"/>
		
	
	
		
			<path class="st1" d="m726.1 112.8c0.4 2.9 0.8 5.8 1.6 8.6 0 0 1.1-0.4 1-0.7-0.7-2.8-1.2-5.7-1.6-8.6 0 0-1 0.5-1 0.7z"/>
		
	
	
		
			<path class="st1" d="m49.4 146.6c0.1-0.8-1.5-1.1-2.1-1.3-0.3-0.1-0.9 0.1-1 0.4-0.6 1.2-1.1 2.4-1.7 3.7-0.2 0.5 1 0.2 1.1-0.1 0.6-1.2 1.1-2.4 1.7-3.7-0.3 0.1-0.7 0.3-1 0.4 0.3 0.1 1.8 0.5 1.8 0.9s1.2 0.1 1.2-0.3z"/>
		
	
	
		
			<path class="st1" d="m55.2 150.7c0 2-0.2 3.6-0.6 5.5 1.4 0.7 2.8 1.5 4.2 2.2-0.5-2.2-0.6-4.3-0.6-6.5 0-1.2-2.4-3.5-3.7-2.7-0.4 0.3-0.9 0.5-1.3 0.8 1.2 1.1 2.4 2.1 3.6 3.2l0.6-3.6c0.3-1.7-3.2-4.7-4.1-2.6-0.7 1.4-1.3 2.8-2 4.2 1.4 0.9 2.8 1.7 4.1 2.6 0.1-0.3 0.2-0.6 0.4-0.9-1.4-0.7-2.8-1.5-4.2-2.2 0 2.3 1 4.2 1.1 6.4 0.1 1.4 4 4.1 4.2 2.2 0.2-2.6-0.4-4.3-2.1-6.3-0.8-0.9-4.2-2.4-3.4 0.2 2.6 7.5-2.9 11.3-3.9 18.1-0.3 2.5 0.1 4.5 2.6 5.5 8.8 3.6 10-11.2 9.6-16.6-0.1-1.1-3-4.1-4-2.5-0.7 1.1-5.3 12-4.7 12.2l2.4 1.8c-1.4-2.6 1-7.2 2.1-9.6 0.7-1.5-2.7-4.2-4-2.9-2.5 2.6-3.7 5.7-4.9 9.1 1.4 0.9 2.8 1.7 4.1 2.6 0.3-0.9 0.6-1.9 0.8-2.8 0.5-1.7-3.4-4.6-4.1-2.6-0.8 2.3-0.8 6-2.6 7.8 1.3 1 2.6 2 4 2.9 0.6-1.2 0.9-2.2 1.1-3.5 0.3-1.8-3.8-4.6-4.1-2.6-0.2 1.3-0.5 2.3-1.1 3.5-0.7 1.5 2.7 4.2 4 2.9 2-2.1 2-5.8 2.9-8.5-1.4-0.9-2.8-1.7-4.1-2.6-0.3 0.9-0.6 1.9-0.8 2.8-0.5 1.7 3.4 4.6 4.1 2.6 1.1-3.1 2.2-6 4.6-8.4-1.3-1-2.6-2-4-2.9-1.9 4.2-5 12.5 1.5 14.3 0.4 0.1 0.9 0 1.2-0.3 2.8-3.3 3-8.9 5.3-12.6-1.3-0.8-2.7-1.7-4-2.5 0.2 3.4-0.5 6.5-1.4 9.8-0.2 0.9-0.4 2.3-0.9 3.1-0.5 0.7-2.7 2.4-3.8 1.9 0.8 0.9 1.5 1.7 2.3 2.6-0.8-4.3 2.4-7.8 3.9-11.5 1.4-3.5 0.9-6.8-0.3-10.3-1.1 0.1-2.2 0.1-3.4 0.2 0.2 0.8 0.5 1.7 0.7 2.5 1.4 0.7 2.8 1.5 4.2 2.2-0.1-2.1-1.1-4.3-1.1-6.4 0-1.4-3.4-4.2-4.2-2.2-0.1 0.3-0.2 0.6-0.4 0.9-0.7 1.7 3.2 4.6 4.1 2.6 0.7-1.4 1.3-2.8 2-4.2-1.4-0.9-2.8-1.7-4.1-2.6l-0.6 3.6c-0.2 1.4 2.2 4.1 3.6 3.2 0.4-0.3 0.9-0.5 1.3-0.8-1.2-0.9-2.4-1.8-3.7-2.7-0.1 2.2 0.1 4.3 0.6 6.5 0.2 1.1 3.6 4.5 4.2 2.2 0.5-2.1 0.7-4.2 0.7-6.3 0.3-2-3.9-4.5-3.9-2z"/>
		
	
	
		
			<path class="st1" d="m61.5 147.9c0.6-0.2 0.8-0.5 0.6-1v-0.1c-0.3-1-3.1-2.8-4.1-1.9-1.1 0.9-1.6 3-2.1 4.3l4.5 2.1c-0.3-2-1.4-4.2 0.7-5.7 1.5-1 3.7-1.1 5.4-1.8-1.4-0.9-2.8-1.7-4.2-2.6-1.7 3.3-3.1 6.7-3.9 10.3-0.8 3.4-0.7 7-1.6 10.4 1.5 0.8 2.9 1.6 4.4 2.4 1-4.4 1.6-9.4 3.7-13.5l-4.5-2.1c0 0.2 0.1 0.5 0.1 0.7 0.1 1.2 4.1 3.5 4.5 2.1 0.3-1.2 0.5-2.4 0.8-3.6 0.4-1.7-4.1-3.6-4.4-2.4s-0.5 2.4-0.8 3.6l4.5 2.1c0-0.2-0.1-0.5-0.1-0.7-0.1-1.2-3.7-3.6-4.5-2.1-2.1 4-2.7 9.1-3.7 13.5-0.4 1.7 4 3.7 4.4 2.4 0.9-3.4 0.8-7 1.6-10.4 0.8-3.6 2.2-7 3.9-10.3 0.8-1.6-3.1-3-4.2-2.6-2.2 0.8-5.4 0.9-7 2.9-1.5 1.9-0.1 3.4 0.3 5.7 0.2 1.1 3.8 3.6 4.5 2.1 0.3-0.7 1.1-3.3 1.7-3.8-1.4-0.6-2.8-1.3-4.1-1.9v0.1c0.2-0.3 0.4-0.7 0.5-1h-0.1c-2.1 0.3 1.8 3.2 3.2 2.8z"/>
		
	
	
		
			<path class="st1" d="m66.8 144 0.4-0.4c1.2-1.3-2.3-3.4-3.3-3.3-2.5 0.3-5.1 0.5-7.6 0.1-2.4-0.4-4.6-1.4-7-1.7-2-0.2-4.1 0-6.1-0.3-2.6-0.4-5.1-1.3-7.8-1.5 0.7 1.2 1.5 2.4 2.2 3.6 3.4 0.1 6.4 1.3 9.8 1.1 2.3-0.1-0.9-3.2-1.7-3.4-2.9-1-6.7-2.4-9.8-1.8-0.6 0.1-0.8 0.4-0.8 1 0.2 3.1 4.3 5.5 6.8 6.6s5.2 1.5 7.7 2.5c1.1 0.4 3.6 2.3 5.1 2 2.7-0.5 2.8-3.8 1.4-5.6-2.7-3.4-9.7-2.8-13.4-3.2-2.9-0.3 0.2 3 1.2 3.4 3.6 1.6 7.2 2.7 11 3.3 0.7 0.1 1.4-0.2 1.2-1-0.4-2.2-1.2-3.8-2.5-5.6-0.3 0.6-0.5 1.3-0.8 1.9 2.8 0.5 5.6 1.1 8.4 1.6 2.7 0.5-0.2-3.2-1.8-3.5-2.8-0.5-5.6-1.1-8.4-1.6-1.4-0.3-1.4 1-0.8 1.9 1 1.1 1.5 2.4 1.6 3.8 0.4-0.3 0.8-0.7 1.2-1-3.5-0.6-6.7-1.6-10-3 0.4 1.1 0.8 2.3 1.2 3.4 2.6 0.3 5.1 0.6 7.7 0.9 5.2 0.8-2.1-0.5-3.3-0.9-2.1-0.8-4.3-1.2-6.4-1.9-9.2-3.2 2.3-0.4 3.8 0.1-0.6-1.1-1.1-2.3-1.7-3.4-3.4 0.2-6.5-1.1-9.8-1.1-2.1 0 0.9 3.5 2.2 3.6 2.5 0.2 4.7 1 7.1 1.5 3 0.5 5.9 0.1 8.9 0.8 4.7 1.1 8.5 1.7 13.4 1.2l-3.3-3.3-0.4 0.4c-0.7 1 3.2 4.1 4.4 2.8z"/>
		
	
	
		
			<path class="st1" d="m36.4 139.9c-1.9 6.2-6 11.9-9.3 17.4 1.6-0.1 3.3-0.2 4.9-0.2-0.1-3.3 1-6.4 1.5-9.6 0.2-1 0.4-9.6 0.9-9.8-1.2-0.1-2.5-0.1-3.7-0.2 2.1 2.2 1.4 6.1 0.1 8.5-0.6 1 4.2 1.3 4.8 0 1.5-2.7 2.2-6.9-0.2-9.4-0.8-0.8-2.8-0.5-3.7-0.2-3.1 1.1-2.5 4.6-2.8 7.5-0.4 4.6-2.2 9.2-2 13.7 0.1 1.4 4.4 0.6 4.9-0.2 3.3-5.6 7.4-11.2 9.3-17.4 0.6-1.4-4.3-1.3-4.7-0.1z"/>
		
	
	
		
			<path class="st1" d="m38.8 142.2c-0.7 3.2-2.3 6.2-3.7 9.2-0.7 1.5 3.7 3.3 4.6 1.9 0.7-1 1.5-1.8 2.5-2.4 0.8-0.6 2-0.9 2.8-1.5 1.4-1.2 1.8-4 1.7-5.6-0.1-1.5-4.8-3-4.7-1.3 0.1 1.3-0.3 2.4-0.8 3.6-0.5 1.1-1 1.2-2 1.7-1.7 0.9-3.1 2.1-4.1 3.7 1.5 0.6 3.1 1.3 4.6 1.9 1.4-3 2.9-6 3.7-9.2 0.4-1.7-4.3-3.4-4.6-2z"/>
		
	
	
		
			<path class="st1" d="m47.9 175.5c-0.1 0.1-0.1 0.2-0.2 0.3 1 0 2.1 0.1 3.1 0.1-2-0.3-4.2-0.8-6.4-0.7 1.4 0.2 2.8 0.5 4.2 0.7 0.8-1.1 1.8-2.2 2.3-3.5 0.6-1.4 0-3 0.5-4.4 0-0.1-4.6-1.4-5-0.6-0.6 1.4 0 3-0.5 4.4-0.5 1.3-1.5 2.4-2.3 3.5-0.1 0.1 3.8 0.7 4.2 0.7 0.8 0 4.5 1.4 5 0 0.1 0-4.6-1.3-4.9-0.5z"/>
		
	
	
		
			<path class="st1" d="m29.8 155.9c-0.2 2.7 0.1 8.2 3 9.7 3 1.5 4.5-3.8 5-5.7-0.9-0.1-1.7-0.2-2.6-0.3 1 1.4-1.6 3.3-2.3 3.8 1 1.1 2 2.2 3 3.2 0.2-2.2 1.4-4.4 1.9-6.6 0.4-1.8 0.5-3.6 1.7-5.1l-3.3-3-0.6 6c1.1 0.3 2.2 0.6 3.3 0.9-1-2.4 0-5-1-7.4-0.4-1-1.2-2.2-2.4-2.2-3.1-0.1-4.1 9.1-4.5 10.9 1.1 0.7 2.3 1.3 3.4 2-0.5-1.9 0-8.2-3.8-7.6s-4.5 9.6-5.6 12.3c1.1 0.9 2.3 1.7 3.4 2.6 0-4.1 1.3-7.9 1.6-12 0.1-1.4-3-5-3.4-2.6-0.2 1.2-2.2 13.1-2.9 13.1 0.6 1.5 1.1 3.1 1.7 4.6 1.1-0.2 2-0.4 3.1-0.3-0.8-0.7-1.6-1.5-2.4-2.2 0 0.1 0.1 0.3 0.1 0.4 0.1-0.8 0.2-1.5 0.3-2.3-0.1 0.1-0.2 0.2-0.3 0.2 1 1.1 2 2.2 3 3.2 0.3-2.1 3.3-3.5 5-4.3-0.9-1.4-1.8-2.7-2.7-4.1l-1.2 1.2c-1.4 1.1 0.3 5 2.1 4.5 3.9-1.1 0.1-5.7-1.2-7.5-2-2.7-3.3 0.5-1.8 2.5 0.4 0.5 0.8 1 1.1 1.5 0.6 1 0.7 0.6 0.2-1.2l2.1 4.5c0.8-0.6 1.1-0.9 1.8-1.7 1.1-1.3-1-4.9-2.7-4.1-2.9 1.3-5.7 3.2-6.1 6.5-0.1 1 1.7 4.4 3 3.2 0.1-0.1 0.2-0.2 0.3-0.2 0.7-0.6 0.6-1.5 0.3-2.3 0-0.1-0.1-0.3-0.1-0.4-0.3-1.1-1.2-2.1-2.4-2.2-1.1-0.1-2 0.1-3.1 0.3-2.3 0.4-0.1 4.6 1.7 4.6 2 0 2.1-2.5 2.4-4 0.7-3.5 1.5-7.1 2.2-10.6-1.1-0.9-2.3-1.7-3.4-2.6-0.3 4-1.6 7.9-1.6 12 0 1.3 2.4 5 3.4 2.6s1.3-5 2.2-7.4c0.1-0.4 0.3-0.8 0.4-1.2 2.2-1.7 2.1-2.6-0.3-2.7-0.3 0.3 0.3 2.4 0.3 2.6 0.2 0.8 2.9 4.5 3.4 2 0.2-1 1.7-9.4 2.7-9.4-0.8-0.7-1.6-1.5-2.4-2.2 0.4 1 0 2.9 0.1 4 0.1 1.2 0.4 2.2 0.9 3.4 0.5 1.3 3 3.6 3.3 0.9 0.3-2 0.5-4 0.6-6 0.1-1.2-1.9-4.6-3.3-3-1.4 1.8-1.6 3.7-2.1 5.9-0.6 2.6-1.8 4.9-2 7.5-0.1 1.1 1.5 4.2 3 3.2 4-2.7 4.5-6.9 1.7-10.7-0.5-0.7-2.2-1.7-2.6-0.3-0.3 1-1 4.4-2.4 4.4 0.6 0.3 1.2 0.7 1.7 1-0.7-0.9-0.5-3.2-0.4-4.3 0.1-1.3-3.3-4.4-3.5-1.5z"/>
		
	
	
		
			<path class="st1" d="m702.8 105.6c0.3 1.5 0.6 2.7 1.2 4.1 0.4 0.8 2 6 1.7 6 1.1 0.8 2.1 1.6 3.1 2.4-3.2-4.6-4.9-10.8-6.8-16-0.2-0.7-3.8-3.5-3.9-2.5-0.2 7.5 3.9 14.7 5.6 21.8 1.3 0.9 2.6 1.7 3.9 2.5-0.7-1.8-1.3-3.5-2.1-5.2-0.5-0.8-4-3.1-3.9-2.5 0.7 2.7 1.3 5 0.8 7.8-0.2 1.2 2.7 3 3.7 3.2 2.1 0.1 6-2 6.5-4 0.6-2.4-2.8-5.8-4.1-7.3-0.3-0.3-3.5-2.7-3.3-1.8 0.4 2.3 0.9 4.6 1.1 6.9 1.3 0.9 2.6 1.7 3.9 2.5-1-2.3-2-3.9-3.6-5.5-0.1-0.2-2.9-2.4-2.9-1.4 0.1 2.9 1.7 5.5 4.2 7 0.2 0.2 1.1 0.7 1.3 0.4 1.9-2 0.6-6.3-0.1-8.5-1.6-4.9-4.4-9-4.5-14.4-1.3-0.9-2.6-1.7-3.9-2.5 2 5.1 3.1 9.7 7.3 13.4 0.5 0.4 3.1 2 2.1 0.3-1.2-2-2.5-4.1-3.8-6.1-1.1-0.5-2.2-1-3.4-1.6 0.9 1.1 1.9 2.4 2.7 3.5 0.5 0.6 4.6 3.5 3.4 1.6-0.8-1.2-1.5-2.5-2-3.8-0.4-1-4.2-3.5-3.7-2.2 1.4 3.5 5.4 10.7 10.2 9.6-1.2-1-2.4-1.9-3.6-2.9 1.9 3.4 3.4 6.9 4.5 10.6 0.3 0.9 2.8 3.7 3.8 3 2-1.2-1.2-6-1.8-7.3-0.4-0.8-4-3.2-3.9-2.5 0.2 0.9 1.4 4.4 1 5.2-0.5 1.4-2.8 1.9-4 1.8 0.7 0.4 1.5 0.7 2.2 1.2-0.5-0.4-0.6-3.7-0.8-4.5l-1.2-4.8c-1.2-0.8-2.4-1.5-3.6-2.3 2.4 3.2 3.4 6.4 5 9.9 0.2 0.5 3.3 3.6 3.8 2.7 2.3-4.1-1.9-9.7-4.8-12.3-0.2-0.2-2.2-1.8-2.4-0.9-0.5 2.2 0.4 6.9-3.7 5.2 1 1 1.9 2.1 2.9 3.1 0.7 0 1.4-0.1 2-0.1 1.9 1-1.2-2.6-2.1-3-1.5-0.7-2.3-0.9-3.8-0.2-0.7 0.3 2.6 3 2.9 3.1 5.2 2.2 4.6-1.3 5.6-5.5l-2.4-0.9c1.6 1.5 3.1 5.9 1.9 8.1 1.3 0.9 2.5 1.9 3.8 2.7-1.8-3.8-2.7-7.1-5.3-10.7-0.3-0.5-3.8-3-3.6-2.3 1 4.3 1.3 11.5 5.9 13.8 1.4 0.7 3.2 1 4.6 0.1 2.5-1.4 0.8-4.6 0.2-7.1-1.3-0.9-2.6-1.7-3.9-2.5 0.5 1.2 3.1 5.5 1.8 6.4 1.3 1 2.5 2.1 3.8 3-1.2-3.9-2.7-7.6-4.6-11.2-0.5-0.9-2.3-3.1-3.6-2.9-1.6-1-2.6-2.2-3.1-4-1.3-0.8-2.5-1.5-3.7-2.2 0.6 1.6 1.4 3 2.4 4.5 1.1 0.5 2.2 1 3.4 1.6-0.9-1.1-1.9-2.4-2.7-3.5-0.5-0.7-4.7-3.5-3.4-1.6 1.3 2 2.6 4 3.8 6.1 0.7 0.1 1.4 0.1 2.1 0.3-2.6-2.3-3.2-7-4.4-10.1-0.2-0.7-3.8-3.4-3.9-2.5 0.1 3.5 1.1 6.4 2.5 9.6 1.3 3.1 5.1 9.8 2.2 13 0.4 0.1 0.9 0.2 1.3 0.4 0.3-0.6 0.6-1.1 0.8-1.6-1-0.4-1.9-1-2.9-1.4 0.8 1 1.4 2 1.8 3.1 0.3 0.7 3.9 3.3 3.9 2.5-0.3-2.3-0.7-4.7-1.1-6.9l-3.3-1.8c1.7 1.4 2.5 3.3 2.5 5.6-0.3 0.4-0.8 0.7-1.2 1-1 1.3-3 2.2-4.6 2.1 1.2 1.1 2.4 2.1 3.7 3.2 0.5-2.7 0-5.1-0.8-7.8-1.3-0.9-2.6-1.7-3.9-2.5 0.9 1.8 1.6 3.4 2.1 5.2 0.3 1.1 3.9 3 3.9 2.5-1.6-7.2-5.8-14.5-5.6-21.8-1.3-0.9-2.6-1.7-3.9-2.5 2.2 6.2 4.1 17 11.2 19.4 0.2 0.1 0.6 0.1 0.6-0.2-0.7-3.7-2.6-6.9-3.3-10.7-0.1-1.2-3.8-3-3.7-2.7z"/>
		
	
	
		
			<path class="st1" d="m731.3 106.9c-0.6 1.6-1.2 3.1-2.1 4.6 1.4 0.8 2.8 1.8 4.2 2.6 2.6-7.9 3.2-18.9-5.9-22.4-1.6-0.6-3 0.8-2.4 2.4 0.9 2.3 2.7 3.9 3.5 6 1.6 4.1 0.5 7-1.2 10.6-1.1 2.3-0.8 5.9 0.4 8.1 0.9 1.9 2.3 2.2 4.1 1.8 4.9-1.2 5.8-4.4 4.9-8.5-0.4-1.6-2.5-3.4-4.1-2-1.4 1.2-2.3 2.4-3.2 4-1.2 2.2 2.8 5.1 4.2 2.6 0.6-1.3 1.5-2.3 2.5-3.1-1.4-0.7-2.7-1.3-4.1-2 0.7 1.5 0.2 2.9-1.5 4-2 0.8-2.2 1-0.6 0.9l1.8 1.8c-0.1-0.4-1-3.8-0.9-4.1 0.1-0.5 0.9-1.1 1.2-1.6 1.2-2 1.6-4.2 1.7-6.4 0-2-0.3-4-1-5.9-0.8-2.6-2.8-4.2-3.8-6.7-0.8 0.8-1.5 1.6-2.4 2.4 5.4 2.1 3.7 11.5 2.3 15.6-0.8 2.3 2.8 5.2 4.2 2.6 0.8-1.5 1.5-2.9 2.1-4.6 1.1-2.4-2.9-5.3-3.9-2.7z"/>
		
	
	
		
			<path class="st1" d="m722.3 82.8c0.6 4.1 1.1 8.1 1.7 12.2 1.3-1 2.7-1.9 4.1-2.8-0.4-2.3-1-4.4-1.5-6.6-0.5-2.1-1.6-4.4-1-6.5-1.4 0.9-2.7 1.9-4.1 2.7 0.4 3.9 1.6 7.6 1.5 11.5 1.3-1 2.7-1.9 4.1-2.8-0.4-1.4-0.5-2.6-0.7-3.9 0.1 0.4-4.1 1.7-4.1 2.8 0 3.2 0.4 6.1 1.2 9.1 0.1 0.3 3-1.8 3.2-1.9s0.4-0.3 0.5-0.4c-1 0.6-2.1 1.3-3.1 1.9 0.4 0 0.8 0 1.1 0.1 0.8 0.3 4.1-2.1 4.1-2.8 0.5-5.8 0.2-11.6-1-17.2-1.3 1-2.7 1.9-4.1 2.8 1.8 4.5 3.1 9.2 3.7 13.9-0.1-0.3 4.2-1.7 4.1-2.8-0.6-4.9-1.8-9.4-3.7-13.9 0-0.1-4.3 2.1-4.1 2.8 1.2 5.7 1.5 11.4 1 17.2 1.3-1 2.7-1.9 4.1-2.8-1.8-0.6-3.7 1.2-5.1 2.3 1.1-0.6 2.2-1.3 3.2-1.9-0.8-3-1.2-6-1.2-9.1-1.3 1-2.7 1.9-4.1 2.8 0.2 1.4 0.3 2.6 0.7 3.9 0-0.1 4.1-1.9 4.1-2.8 0.1-3.9-1.2-7.7-1.5-11.5 0 0.2-3.8 1.9-4.1 2.7-0.5 1.9 0.1 3.6 0.6 5.6 0.7 2.6 1.2 5.3 1.7 7.8 0-0.2 4.2-1.8 4.1-2.8-0.6-4.1-1.1-8.1-1.7-12.2 0.4 0.1-3.9 1.5-3.7 2.6z"/>
		
	
	
		
			<path class="st1" d="m730 116.8c-0.2-1.1-0.2-2.1 0-3.2-1.6-0.1-3.3-0.3-5-0.4 0 2.5 0.3 5.2-0.2 7.7-0.3 1.3 4.6 1.8 5 0.4 0.5-2.4 0.2-5.1 0.2-7.7 0-1.4-4.8-1.8-5-0.4-0.1 1-0.1 2.1 0 3.2 0.3 1.6 5.2 1.6 5 0.4z"/>
		
	
	
		
			<path class="st1" d="m739 117.6c-0.1-0.6-0.6-1.2-1.1-1.5s-1.1-0.6-1.7-0.6c-0.5 0.1-1.1 0.2-1.4 0.7s-0.3 1-0.2 1.6v0.1c0.1 0.6 0.6 1.2 1.1 1.5s1.1 0.6 1.7 0.6c0.5-0.1 1.1-0.2 1.4-0.7 0.3-0.6 0.3-1.1 0.2-1.7z"/>
		
	
	
		
			<path class="st1" d="m723.4 113.9c0-0.4 0.1-0.7 0-1.1 0-1-1.2-1.6-2.1-1.7-0.6-0.2-2.4-0.5-2.7 0.4-0.3 1 0.3 2.1-0.1 3-0.1 0.3 0.3 0.8 0.5 0.9 0.4 0.4 1.1 0.7 1.6 0.8 0.7 0.2 2.4 0.6 2.7-0.4 0.4-1-0.2-2 0.1-3-1.6-0.5-3.2-0.9-4.9-1.4 0 0.4-0.1 0.7 0 1.1 0 1 1.2 1.6 2.1 1.7 0.5 0.2 1.2 0.3 1.8 0.2 0.2 0 0.9-0.1 1-0.5z"/>
		
	
	
		
			<path class="st1" d="m710.7 85.3c-2.3 2.5-1.2 5.8 0.5 8.4 1 1.3 3.1 1.8 4.3 0.5 1.2-1.5 1.2-3 1.4-4.9 0.3-2 0.3-3.6 2.3-4.9 0.9-0.6 2.3-0.8 3.2-1.2-1.2-0.9-2.4-1.8-3.6-2.8-0.7 2.7-1.6 2.8-3.5 4.7-1.9 2.1 2.1 4 3.8 2.9l1.6-0.8c-1-1.2-2-2.4-2.9-3.6-1.2 1.1-2.7 2.5-3.4 4-0.3 0.7-0.3 1.4-0.4 2.1 0.1 0.8-0.1 1.6-0.2 2.4 0.2 1 0 1.3-0.7 0.9-1.3 1-3.6 1.2-5.2 2.1-2 1.2-4 2-6 3.1-2.6 1.4 1.2 4.6 3.4 3.3 1.6-0.9 3.2-1.3 4.7-2.4 2.2-1.3 3.3-1.7 5.7-2.4 0.5-0.2 1-0.2 1.3-0.5 1.1-0.8 1.3-1.8 1.5-3.2 0.5-2.7 0.2-4.1 2.6-6.2 2-1.8-0.8-4.6-2.9-3.6-0.9 0.5-1.7 0.8-2.6 1.4 1.3 1 2.5 2 3.8 2.9 0.8-0.9 2.2-1.3 2.9-2.3s0.9-2.4 1.2-3.5c0.5-1.8-1.9-3.6-3.6-2.8-2.3 1.2-4.8 1.4-6.4 3.7-1.8 2.5-0.6 6.6-2.4 8.7 1.5 0.1 2.8 0.4 4.3 0.5-1.2-1.2-1.3-2.6-0.6-4.2 2.1-1.8-2.3-4.3-4.1-2.3z"/>
		
	
	
		
			<path class="st1" d="m708.6 88.4c-1-1.3-3.6 0.1-4.5 0.8-2.1 1.5-4.2 4.7-3.2 7.5 0.7 2.2 3.2 1.5 4.9 0.6 3-1.7 3.9-5.6 5-8.7 0.7-2-3.8-0.3-4.4 1.1-1.7 3.9 2.7 8.8 6.3 5.1 1.1-1.1 1.4-2.9-0.3-3.7-1.9-1-4.3 0.7-5.9 1.9 1.1 0 2.2 0.1 3.3 0.1 0.9-2.7 2.3-5.1 4.3-7.2 0.9-0.9 2.6-1.8 2.6-3.4 0.1-0.2-0.1-0.4-0.3-0.6-1.2-0.6-2.7-0.1-3.9 0.4-3.8 1.6-6.9 2.6-11 3.1-0.4 0.9-0.9 1.8-1.3 2.8 0.2 0 0.5-0.2 0.7-0.2 1.4-0.5 3.7-3.5 0.8-2.7-2.3 0.6-6.9 1-7.7 3.9-0.5 1.7 0.7 3.9 1.4 5.4 1.1 2.3 2.2 4.5 2.8 7 0.4 1.5 3.7-0.8 4.1-1.3 1.9-2.2 0.1-5.6-0.1-8.2-0.2-2.1 0.6-2.8 2.6-2.7 2.1 0 4.1-0.2 6.2-0.6 0.7-0.1 4.5-2.6 2.3-2.9-2.4-0.4-4.9-0.8-7.4-0.2-1.7 0.3-4.7 2.5-6.2 1.9-1.3-0.5-5.4 2.1-4.1 2.7 2.3 1.1 4.6 2 7 2.6 1 0.2 4.6-1.3 3.9-2.7-0.5-0.8-0.9-1.7-1.5-2.4-0.9-1.4-5.2 1.1-4.4 2.3 0.6 0.8 1 1.5 1.5 2.4 1.3-0.9 2.6-1.7 3.9-2.7-2.3-0.6-4.2-1.4-6.3-2.3-1.4 0.9-2.7 1.9-4.1 2.7 1.8 0.7 3.3 0.6 5.1-0.1 0.8-0.4 1.7-0.9 2.5-1.3 2.3-1 4.4-0.5 6.7-0.1 0.7-1 1.6-1.9 2.3-2.9-4.4 0.9-9.9-0.6-13.4 3.1-1.3 1.4-1.6 3-1.4 4.8 0.1 1.5 1.7 5.6 0.7 6.8 1.3-0.5 2.8-0.8 4.1-1.3-0.5-1.8-1.1-3.6-1.9-5.2-0.9-1.8-2.7-4.6-2.2-6.6-0.5 0.5-1.1 1-1.7 1.4 0.9-0.5 2.4-0.7 3.4-1 0.2-0.9 0.5-1.8 0.8-2.7-0.2 0-0.5 0.2-0.7 0.2-0.9 0.3-3.8 3.1-1.3 2.8 2.4-0.3 4.9-0.5 7.2-1.2 1.5-0.4 5.4-1.1 6.2-2.4-0.3 0-0.6-0.1-0.9-0.1-0.4 0.4-0.9 0.8-1.2 1.2-0.7 0.9-1.5 1.7-2.2 2.7-1.2 1.7-2.1 3.6-2.7 5.4-0.7 1.9 2.6 0.5 3.3 0.1 0.5-0.7 0.9-0.8 1.1-0.1 1.1-0.2 2-0.5 3.1-0.7-1.9-0.7-3-2.8-2.1-4.7-1.5 0.4-2.9 0.7-4.4 1.1-0.5 1.4-1.5 3.2-1.7 4.6-0.5 1.1-0.3 0.9 0.6-0.5 0.9-1.6 0.6-2.6-1.1-2.8 1.5 1.5 5.7-1.1 4.8-2.3z"/>
		
	
	
		
			<path class="st1" d="m716.8 97c1.1 0.7 1.3 0.5 0.8-0.6-0.1-0.3-1.2-0.7-1.1-0.5 0.3 3-0.2-0.4 0.5 0.5-0.1-0.2-1.1-0.6-1.1-0.4 0.3 0.8 0.5 1.4 0.8 2.1 0.2 0.3 1.2 0.7 1.1 0.5-0.3-1.5 0.1-2.2 0.7-3.3-0.3-0.1-0.8-0.4-1.1-0.5 0.1 1.2 0 3.8 0.5 4.8 1 2.2 0.5-0.9 0.2-1.8 0-0.2-1.1-0.8-1.1-0.5-0.4 1.9 1.1 3.8 1.7 5.6 0.4 1.4 0.5 2.2 0.6 3.7 0 0.5 0 0.9 0.1 1.4-0.4 1-0.1 1.6 0.9 1.8 0-0.2-1.1-0.7-1.1-0.5-0.2 1.2-0.3 0.7 0.2 1.7 0 0.1 1.1 0.8 1.1 0.5 0.1-0.4 0.2-1 0.3-1.4-0.3-0.1-0.7-0.3-1.1-0.5 0.3 0.5 0.6 0.9 0.9 1.4 0.1 0.2 1.1 0.5 1.1 0.4-0.3-0.6-0.5-1.1-0.5-1.7-0.1-0.3-1.1-0.6-1.1-0.5 0.7 2.8 0.8 5.6 0.8 8.5 0.1 0.3 1.1 0.7 1.1 0.5 0.3-2.1 0.2 0.3-0.7-1.7 0 0.2 1.1 0.7 1.1 0.5 0-0.3 0.1-0.5 0.1-0.8s-1.1-0.7-1.1-0.6c0 0.3-0.1 0.5-0.1 0.8 0.3 0.1 0.8 0.4 1.1 0.5-0.3-0.6-0.5-0.7-1.2-1 0 0-0.5-0.2-0.5 0 0.1 0.6 0.1 1.1 0.2 1.7 0.3 0.1 0.8 0.4 1.1 0.5 0-1.6 0.1-3.6-0.3-5.1-0.1-0.6-0.1-1.1-0.2-1.7-1.6-0.9-1.8-1.4-0.7-1.3-0.1-0.1-1.1-0.7-1.1-0.5-0.1 0.4-0.2 1-0.3 1.4 0.3 0.1 0.8 0.4 1.1 0.5-0.1-0.5-0.2-1.1-0.2-1.6-0.3-0.1-0.8-0.4-1.1-0.5l0.3 1.5c0.1 0.3 1.2 0.7 1.1 0.5-0.1-2 0.2-4.3-0.2-6.4s-2.6-4.9-2.1-7c-0.3-0.1-0.8-0.4-1.1-0.5 0.6 1.3 0.9 2.5 1.2 3.8 0.1 0.3 1.2 0.7 1.1 0.5-0.2-2.1-0.5-4.3-0.7-6.4 0-0.2-1-0.7-1.1-0.5-0.4 0.6-1.1 1.7-0.9 2.5-0.2-0.9 1.2 1.2 0.5 0.2 0.1 0.2 1.3 0.7 1.1 0.3-1.4-1.4-1.7-1.4-0.9-0.1 0.2 0.3 1.1 0.6 1.1 0.5-0.1-0.3-0.2-0.5-0.3-0.8-0.5-0.1-1.6-0.4-1.5-0.4z"/>
		
	
	
		
			<path class="st1" d="m723.7 96.7-0.1-0.1c-0.1-0.1-1.2-0.4-1.2-0.3 0.1 0.5 0.2 1.1 0.2 1.6 0 0.2 1.2 0.4 1.2 0.4 0-0.6-0.1-1.2-0.1-1.6-0.5-0.2-0.9-0.2-1.3-0.4l0.1 0.1c0.1 0.2 0.5 0.2 0.8 0.3h0.4z"/>
		
	
	
		
			<path class="st1" d="m712.1 97.4c0.2 1.6 0.7 2.9 1.5 4.3 0.3 0.6 1.3 0.5 1.1-0.3-0.3-1.5-0.7-2.9-1.2-4.4-0.1-0.3-0.4-0.5-0.7-0.5-1.7 0.3-1.6 1.5-1 2.9 0.5 0.9 1.2 1.8 1.7 2.7 0.4 0.9 0.7 1.8 1.3 2.6 0.3 0.3 0.8 0.4 0.9 0 0.8-1.4-0.3-3.3-1.1-4.4-0.3-0.5-1.3-0.5-1.1 0.3 0.3 0.8 0.6 1.5 1 2.4 0.3 0.6 1.4 0.3 1-0.4-0.3-0.6-0.6-1.3-0.8-2.1-0.4 0.1-0.8 0.2-1.1 0.3 0.4 0.7 1.6 2.4 1 3.3h0.9c-0.8-0.8-1-2.1-1.5-3.1-0.3-0.5-2.4-3.2-1-3.5-0.2-0.2-0.5-0.3-0.7-0.5 0.4 1.5 0.8 2.9 1.2 4.4 0.4-0.1 0.8-0.2 1.1-0.3-0.6-1.2-1.1-2.4-1.2-3.7-0.2-0.5-1.4-0.8-1.3 0z"/>
		
	
	
		
			<path class="st1" d="m708.1 99.6c0.1 2.3 1.7 4.1 2.5 6.2 0.4-0.2 0.7-0.3 1.1-0.6-1.2-1.7-2.2-3.8-3-5.6-0.2-0.5-1.1 0-1.1 0.4-0.1 1.2 1 2.5 1.7 3.4 1.1 1.4 2.2 2.7 2.9 4.4 0.4-0.2 0.7-0.3 1.1-0.6-0.7-0.6-1.3-1.3-1.6-2.1-0.2-0.5-1.3 0.1-1.1 0.5 0.4 0.9 0.9 1.7 1.8 2.3 0.4 0.2 1.3-0.1 1.1-0.6-0.4-1.2-1.1-2.2-2-3.3-0.8-1.2-2.7-2.7-2.5-4.3-0.4 0.2-0.8 0.3-1.1 0.4 1 1.9 1.8 4 3.2 5.8 0.3 0.4 1.3-0.2 1.1-0.6-0.9-2.1-2.4-3.7-2.5-6-0.4-0.5-1.6-0.1-1.6 0.3z"/>
		
	
	
		
			<path class="st2" d="m716.1 100.6c0-0.1 0-0.1-0.1-0.2-0.2-0.3-0.8 0.1-0.6 0.3 0.2 0.6 0.4 1 0.7 1.6 0.2 0.3 0.8-0.1 0.6-0.3-0.7-1.3-1.3-2.5-2-3.8-0.1 0.1-0.2 0.2-0.2 0.4 0.3-0.2 0.5-0.3 0.6-0.5-0.2-0.1-0.4-0.1-0.5-0.2-0.2 0.1-0.3 0.3-0.4 0.4 0 0.2 0.1 0.3 0.1 0.5 0.1 0 0.2 0 0.2-0.1-0.1-0.1-0.2-0.3-0.3-0.4-0.1 0-0.2 0.1-0.3 0.2s-0.2 0.2-0.1 0.3c0.7 1.2 4.2 6.4 1.5 7.1-0.2 0-0.5 0.5-0.1 0.5 2.6 0.3 2.2-3.4 1.5-4.8-0.2-0.3-0.8 0.1-0.6 0.3 0.2 0.6 1.4 4.1-0.6 3.9-0.1 0.2-0.1 0.3-0.1 0.5 1.1-0.3 1.8-1 1.6-2.1 0-0.7-2.1-5.9-2.4-5.7 0.4-0.3 0-0.5-0.3-0.4-0.1 0-0.2 0-0.2 0.1-0.4 0.2-0.3 0.6 0.1 0.5 0.5-0.2 0.8-0.4 1.1-0.8 0.2-0.4-0.4-0.3-0.5-0.2s-0.3 0.2-0.4 0.3c-0.1 0-0.4 0.3-0.2 0.4 0.6 1.2 1.3 2.5 2 3.8 0.2-0.1 0.5-0.2 0.6-0.3-0.3-0.6-0.5-1-0.7-1.6-0.2 0.1-0.5 0.2-0.6 0.3 0 0.1 0 0.1 0.1 0.2-0.1 0.5 0.6 0.1 0.5-0.2z"/>
		
	
	
		
			<path class="st2" d="m711.1 99.3c-0.2 0.1-0.3 0.2-0.5 0.3-0.3 0.2-0.1 0.5 0.2 0.4 0.4-0.2 3.5 6.1 3.9 6.7 0.2 0.3 0.8-0.1 0.6-0.3-1.3-2.3-2.5-4.6-3.8-6.9 0-0.1-0.2-0.2-0.3 0-0.1 0-0.3 0.1-0.4 0.2 0 0.1 0.2 0.3 0.2 0.4 0.2-0.1 0.3-0.2 0.5-0.3 0.5-0.5 0-0.8-0.4-0.5z"/>
		
	
	
		
			<path class="st2" d="m707.2 102.1c0.1 0 0.3-0.2 0.4-0.2 0.3-0.2 0.3-0.5-0.1-0.4-0.1 0-0.2 0-0.3 0.1-0.2 0.1-0.5 0.5 0 0.5 0.3-0.2 2.2 3.6 2.5 4.2 0.6 0.9 1.2 2.4 2.3 2.5 2.4 0.3 3-2.4 1.9-4-0.1-0.2-0.7 0-0.6 0.3 0.1 0.4 0.1 0.7 0.2 1.1 0.1 0.7 0.5 1.1-0.2 1.6-0.9 0.6-1.6-0.5-2.2-1.2-0.1-0.2-0.8 0.2-0.6 0.3 0.6 1 1.6 2 3 1.6 1.6-0.5 0.8-2.5 0.5-3.7-0.2 0.1-0.5 0.2-0.6 0.3 0.3 0.5 0.4 0.6 0.5 1.2 0.1 0.3 0.1 0.6 0.1 0.9-0.6 0.3-1.3 0.7-1.9 1-0.5-0.2-1.3-1.9-1.7-2.4-0.9-1.4-1.6-2.6-2.2-4.1 0-0.1-0.1-0.1-0.1-0.1-0.2-0.1-0.3 0-0.5 0-0.3 0.1-0.3 0.3-0.4 0.5 0.1-0.1 0.2-0.1 0.3-0.2 0-0.1-0.1-0.3-0.1-0.4-0.1 0-0.3 0.2-0.4 0.2-0.3 0.3-0.2 0.5 0.2 0.4z"/>
		
	
	
		
			<path class="st2" d="m713.4 108.8c1.1 0.2 1.5-0.8 1.5-1.7 0-0.3-0.6 0-0.7 0.1-0.3 0.4-0.3 1-0.8 1.2s-0.2 0.5 0.2 0.4c0.8-0.3 0.8-1 1.2-1.6-0.2 0-0.4 0.1-0.7 0.1 0 0.3 0.1 1-0.4 1-0.2 0-0.7 0.4-0.3 0.5z"/>
		
	
	
		
			<path class="st2" d="m707.4 102.7c0.3 1.2 1 2 1.8 2.9 0.6 0.7 1.6 1.8 2.5 2.2 1 0.4 2.5-0.1 2.7-1.2 0.1-0.2-0.6 0-0.7 0.2l-0.9 0.6c-0.2-0.1-0.5-0.1-0.7-0.2s-0.4-0.3-0.6-0.5c-0.5-0.5-1.1-0.9-1.5-1.5-0.8-0.9-1.4-1.8-1.8-2.9-0.2-0.1-0.8 0.2-0.8 0.4z"/>
		
	
	
		
			<path class="st2" d="m723 111.7c0.5 1.5-0.5 3.5-1.1 4.9-0.6 1.3-0.7 1.5 0.1 2.6 0.2 0.3 0.9-0.1 0.6-0.3-0.5-0.7-0.7-0.8-0.3-1.7 0.3-0.8 0.6-1.6 0.9-2.4 0.4-1.2 0.8-2.3 0.4-3.4 0-0.3-0.6-0.1-0.6 0.3z"/>
		
	
	
		
			<path class="st2" d="m723.5 112.4c-0.1 2.2-0.5 4.2-1.4 6.2-0.1 0.3 0.5 0.1 0.7-0.1 0.9-2 1.3-4.1 1.4-6.3 0-0.2-0.8 0-0.7 0.2z"/>
		
	
	
		
			<path class="st2" d="m723.2 115.1-1.2 3c-0.1 0.3 0.6 0.1 0.7-0.1 0.3-1 0.7-2 1.2-3 0-0.3-0.6-0.1-0.7 0.1z"/>
		
	
	
		
			<path class="st2" d="m722 117.4c-0.2 0.2-0.3 0.5-0.5 0.7-0.2 0.4 0.5 0.4 0.6 0.1 0.2-0.2 0.2-0.4 0.4-0.6 0.3-0.3-0.2-0.4-0.5-0.2z"/>
		
	
	
		
			<path class="st2" d="m721.8 116.9c-0.2 0.5-0.4 1-0.7 1.5-0.2 0.5 0.5 0.4 0.6 0.1 0.2-0.5 0.5-1 0.7-1.5 0.3-0.4-0.4-0.4-0.6-0.1z"/>
		
	
	
		
			<path class="st2" d="m721.1 118.7c0.7 0.8 1.1 1.7 1.6 2.6 0.1 0.2 0.8-0.2 0.6-0.3-0.5-0.9-1-1.8-1.6-2.6 0-0.2-0.7 0.2-0.6 0.3z"/>
		
	
	
		
			<path class="st2" d="m720.6 85.5c0 0.8 0 1.6 0.1 2.5 0.1 0.3 0.7 0.1 0.7-0.2-0.1-0.8 0-1.7-0.1-2.5 0-0.2-0.8 0-0.7 0.2z"/>
		
	
	
		
			<path class="st2" d="m720.5 85.4c-0.8 1.2-1.6 2.4-1.8 3.9-0.1 1.5 0.2 3 0.4 4.4 0.1 0.3 0.7 0.1 0.7-0.2-0.2-1.3-0.5-2.6-0.5-3.9 0-1.5 0.9-2.9 1.7-4.1 0.3-0.4-0.4-0.3-0.5-0.1z"/>
		
	
	
		
			<path class="st2" d="m720 86.5c-0.1 1.5-1.1 3-1 4.5 0.1 0.3 0.7 0.1 0.7-0.2-0.1-1.6 0.9-2.9 1-4.5 0-0.2-0.7 0-0.7 0.2z"/>
		
	
	
		
			<path class="st2" d="m720.1 86.8c0.2 1.3-0.4 2.4-0.6 3.7 0 0.1 0.7-0.1 0.7-0.2 0.2-1.3 0.8-2.4 0.6-3.7-0.1-0.2-0.7 0-0.7 0.2z"/>
		
	
	
		
			<path class="st2" d="m718.5 89.9c-0.1 3.4 0.6 6.6 1.2 9.9 0.1 0.3 0.7 0.1 0.7-0.2-0.6-3.2-1.3-6.5-1.2-9.9 0-0.3-0.7 0-0.7 0.2z"/>
		
	
	
		
			<path class="st2" d="m726.4 112.4c0.6 2.5 1.3 4.9 2.2 7.4 0.1 0.3 0.8-0.1 0.6-0.3-0.8-2.5-1.6-4.9-2.2-7.4 0-0.3-0.6 0-0.6 0.3z"/>
		
	
	
		
			<path class="st2" d="m726.5 111.9c-1.1 0.9-1.5 0.9-1.1 2.3 0.5 2 0.9 4.1 1.4 6.1 0 0.2 0.4 0.2 0.4 0.1 0.5-0.3 1-0.5 1.5-0.5 0.4-0.1 0.5-0.6 0-0.5-0.7 0.1-1.2 0.3-1.7 0.6 0.1 0.1 0.3 0 0.4 0.1-0.3-1.5-0.7-2.9-1-4.4-0.1-0.7-0.5-1.4-0.5-2-0.3-0.4-0.2-0.7 0.1-0.9s0.4-0.4 0.7-0.5c0.6-0.3 0.1-0.6-0.2-0.4z"/>
		
	
	
		
			<path class="st2" d="m726.1 113c-0.1 0.1-0.2 0.2-0.2 0.4 0.2 0 0.5-0.1 0.7-0.2 0.1-0.2 0.1-0.3 0.2-0.5 0.2-0.2-0.5 0-0.6 0-0.9 0.8-0.2 2.2 0 3.2 0.2 1.3 0.2 3.3 1 4.4 0 0.1 0.1 0.1 0.2 0.1 0.6-0.1 1.3-0.6 1.4-1.2s-0.8-1.8-1-2.5c-0.3-1.3-0.6-2.5-0.7-3.7-0.1-0.3-0.6 0-0.7 0.2-0.3 0.9-0.2 1.8 0 2.6 0.3 1.4 0.5 2.7 1 4.1 0.1 0.3 0.7-0.1 0.7-0.2 0.1-0.4 0.2-0.7 0.1-1.1-0.1-0.3-0.7 0-0.7 0.2 0.1 0.5 0 0.7-0.1 1.1 0.2 0 0.5-0.2 0.7-0.2-0.3-1.1-0.6-2.1-0.8-3.2s-0.7-2.3-0.1-3.3c-0.2 0-0.5 0.1-0.7 0.2 0.1 1 0.3 2.1 0.5 3.2 0.1 0.3 1.3 3.3 0.9 3.5-0.3 0.1-0.8-2.8-0.8-3.1-0.1-0.7-0.9-3.4-0.3-3.8-0.3-0.1-0.6-0.2-0.7-0.2-0.3 0.4-0.3 0.3-0.3 0.7 0 0.3 0.6-0.1 0.7-0.2s0.2-0.2 0.2-0.4c0.2-0.4-0.5-0.3-0.6-0.1z"/>
		
	
	
		
			<path class="st3" d="m760.7 133.6c-2.4 5.3-0.5 8.4 0.9 13.5 1.8-0.9 3.6-1.7 5.4-2.7-1.4-3.6-1.8-8.4-3.9-11.7-1-1.6-5.1 1-5.5 2.3-1 4 0.2 7.5 1.1 11.4 1.2 5 1.2 9.9 2.1 14.9 0.1 0.4 1 0.4 1.2 0.4 2-0.2 4.1-1 5.4-2.6 1.1-1.3 1.3-3.1 1.8-4.6 1-3.1 3-3.6 5.2-5.5 2.3-2.1 1.8-3.9 0-6.4-1.2-1.7-2.9-3.1-3.9-5-1.7-3-1.5-6.3-1.2-9.7 0.2-2-5 0.6-5.5 2-1.1 3.2-1.5 6.2-1 9.5 0.3 2 4 8.8 2.1 10.3 1.1-0.5 2.3-1 3.4-1.5 1.3 0.5 1.4-0.4 0-2.5-0.3-1.9-5.6 0.3-5.5 2 0.2 1.8 0.5 3.6 0.8 5.3 0.3 1.5 5.6-0.8 5.5-2.3-0.1-1-0.1-2-0.2-3-0.1-1.9-5.6 0.3-5.5 2 0.1 1 0.1 2 0.2 3 1.8-0.8 3.7-1.5 5.5-2.3-0.4-1.6-0.6-3-0.8-4.6-1.8 0.7-3.6 1.3-5.5 2 0.3 2 0.1 3.8 2.4 4 1.7 0.1 4.1-1.6 5-2.9 1.9-2.5 0.4-4.9-0.6-7.3-1.9-4.5-1.9-8.9-0.3-13.5-1.8 0.7-3.6 1.3-5.5 2-0.7 5.4 0 9.3 3.5 13.5 0.9 1 2.1 2 2.7 3.2 0.9 2 1 1-0.4 2.4-1.2 1.2-2.8 1.9-3.8 3.3-0.8 1.1-2.3 3.5-2.2 4.8-0.5 1.1-0.1 1 1-0.4 1.4-0.6 1.7-1.6 1.2-3 0.1-0.7-0.2-1.5-0.2-2.3-0.7-5.9-3.9-12.4-2.4-18.3-1.8 0.8-3.7 1.5-5.5 2.3 2 3.2 2.5 8.1 3.9 11.7 0.6 1.5 5.8-0.9 5.4-2.7-1.2-4.5-3.3-7.3-1.1-12 1-2.3-4.5-0.6-5.2 1z"/>
		
	
	
		
			<path class="st3" d="m770.7 130.6c-0.1-1.6 0.3-2.9 1-4.4 0.3-0.8 0.8-2.9 1-3.2-0.9 0.5-1.9 0.9-2.7 1.3 0.2 0 0.4-0.1 0.6-0.1-0.5-0.2-1.2-0.3-1.7-0.5 0.7 0.5 3.6 3.1 2.6 4.1 0.6-0.4 1.4-0.8 2-1.2-0.7 0.1-1.7 0-2.6 0.4-1 0.4-1.9 1.2-2.5 2.1-1.2 2.2-0.7 5.6-0.9 8.1-0.2 2.8 5.5 1 5.7-1.6 0.1-1.1 0.1-2.3 0.2-3.3 0-0.6-0.1-2.1 0.1-2.5-0.6 0.4-1.4 0.8-2 1.2 1.1-0.3 2.4-0.1 3.6-0.9 1.1-0.7 1.9-2 2-3.2 0.3-2.4-1.8-6-4.1-6.8-2.4-1-5.2 1.1-5.9 3.3-0.9 2.7-2.3 5.8-2.1 8.7 0.3 3.1 5.9 1.1 5.7-1.5z"/>
		
	
	
		
			<path class="st3" d="m772.3 126c-1.9-1.7-4.4-1.8-6.9-1.8-0.1 0.5-0.3 1.2-0.4 1.7 0.6-0.5 1.3-1 2.1-1.1 0.9-0.3 4.8-3 1.9-2.8-2.2 0.1-4.4 0.6-6.6 0.7-1.4 0.1-3 0.7-4.2 1.6-3.5 2.8-0.4 8-0.7 11.4 1.8-0.8 3.6-1.5 5.4-2.4-0.7-1.8-1.3-3.7-1.9-5.5-0.5-1.6-0.9-3.7-1.9-5.1-0.3-0.4-0.8-0.3-1.1-0.3-1.9 0.3-4.9 1.5-4.9 3.7 0 2.5 1.2 5.7 3.5 7 2.2 1.1 4.8 0.3 6.8-1 2.4-1.6 2.9-3.9 2.5-6.7-0.2-1.2-5.3 1-5.4 2.4-0.1 1.5-0.5 3.3-0.3 4.8 0.1 0.1 0.1 0.2 0.2 0.2 3.2 1.1 5.9-2.4 7.3-4.6 0.7-1.2-1-0.9-1.6-0.8-1.2 0.2-2.8 1.1-3.6 2.1-0.5 0.7-1.7 2 0.2 0.9 1-0.2 2-0.4 2.9-0.6-0.3-0.1 0.2-3.7 0.2-4.1-1.8 0.8-3.6 1.5-5.4 2.4 0-0.1 0 3.3-0.1 3.2 1.7-0.4 2.1-0.9 0.9-1.3-0.5-0.3-0.8-0.7-1-1-0.5-0.6-0.8-1.4-1-2.1-0.1-0.3-0.9-2.9-0.9-2.9-1.3 0.7-2.5 1.2-3.8 1.9 0.1 0 0.2 0 0.4-0.1-0.3-0.1-0.7-0.2-1.1-0.3 1 1.4 1.4 3.5 1.9 5.1 0.7 1.8 1.3 3.7 1.9 5.5 0.5 1.3 5.3-1.2 5.4-2.4 0.4-3.2-2-6.6-0.4-9.9-1 0.6-1.9 1.3-2.9 1.9-0.9 0.4-1.6 0.3 0 0.3 0.6 0 1.3-0.1 1.9-0.2 1.4-0.2 2.8-0.7 4.2-0.7 0.6-0.9 1.3-1.9 1.9-2.8-2.3 0.8-4.3 1.9-6.2 3.3-0.4 0.3-1.8 1.8-0.4 1.7 2.2 0 4.4 0.1 6.1 1.6 1.2 1.1 6.2-1.8 5.1-2.9z"/>
		
	
	
		
			<path class="st3" d="m777 124.4c2.1-0.3 4.3-0.4 6.1-1.6s1.7-2.3 0.8-4c-0.7 0.9-1.4 1.7-2.2 2.5 0.1 0 0.3-0.2 0.4-0.2-0.3-0.7-0.7-1.6-1.2-2.3-1.8 1-4.2 0.4-6.1 1.2-1.8 0.8-3.2 1.9-2.5 3.9 0.3 1 0.8 1.9 1.2 2.7 0.3 0.7 0.6 2 1.3 2.5s2 0.1 2.8 0.3c1 0.1 2 0.5 3.1 1 1.4 0.8 5.2-0.8 5.2-2.5 0-2.7-1.7-4.8-4.3-5.5-1.4 1.2-2.7 2.3-4.1 3.5 1.2 0.3 2.3 0.4 3.4 0.3 1.1 0 4.4-1.2 4.2-2.8-0.1 0-0.3 0.1-0.4 0.1 0.7-0.6 1.4-1.7 0.2-2.1s-3 0.7-3.9 1.4c-0.8 0.7-1.5 1.4-1.4 2.5 1.5-0.9 2.8-1.8 4.2-2.8-0.8 0.1-1.5-0.1-2.4-0.2-1.3-0.3-2.9 0.6-3.9 1.4-0.7 0.5-1.5 1.7-0.2 2.1 1.7 0.5 3 2.2 2.9 4 1.8-0.9 3.4-1.7 5.2-2.5-2.1-1.2-3.9-1.3-6.2-1.4 0.2 0.2 0.5 0.3 0.7 0.4-0.7-0.9-1-2-1.5-3.1-0.3-0.6-1.1-1.8-0.9-2.6-0.3 0.5-0.7 0.8-0.9 1.3 0.1 0 0.2-0.1 0.2-0.1-0.9 0.5-1.9 0.9-2.7 1.3 1.3-0.3 2.5-0.3 3.8-0.5 1.5-0.3 2.8-0.7 4.1-1.4 0.6-0.3 2.7-1.4 2.2-2.5s-2.7-0.2-3.2 0.1c-0.1 0-0.3 0.2-0.4 0.2-0.6 0.3-2.6 1.4-2.2 2.5 0.2 0.6 0.5 1.1 0.6 1.7 0.1-0.2 0.1-0.5 0.1-0.7 0 0.1-0.1 0.1-0.1 0.2 0.9-0.7 1.9-1.4 2.8-2.1-0.9 0.4-2.3 0.3-3.3 0.5-1.2 0.2-3 1.1-3.4 2.2-0.4 1.3 1 1.3 1.9 1.1z"/>
		
	
	
		
			<path class="st3" d="m780.7 129.2c2.9 4.2 2.5 8.1 1.3 12.8-0.3 1.1-1 2.6-0.5 3.7 0.3 0.7 1.4 0.8 2 1.3 1.4 0.9 2.4 1.8 3.4 3.2 1.2 1.7 5.8-0.7 5.4-2.7-0.6-3.2-1.3-6.5-2-9.6-0.4-1.6-5.9 0.5-5.4 2.7 0.7 3.2 1.5 6.4 2 9.6 1.8-0.9 3.6-1.7 5.4-2.7-1.1-1.5-2.3-2.6-3.9-3.8-2.1-1.6-1-2.9-0.4-5.5 1-4.3 0.6-8.1-1.9-11.8-1.1-1.6-6.4 1.3-5.4 2.8z"/>
		
	
	
		
			<path class="st2" d="m781.1 135.1c0.1-0.8 0.1-1.6-0.1-2.5-0.2 0-0.5 0.2-0.7 0.2 0.4 0.5 0.7 1.1 0.9 1.7 0.2 0.3 0.7 0.1 0.7-0.2 0-1.2-0.5-2.1-1.3-3-0.3-0.3-0.9 0.2-0.6 0.4 0.8 0.8 1.1 1.7 1.2 2.8 0.2 0 0.5-0.2 0.7-0.2-0.3-0.6-0.6-1.1-0.9-1.7-0.2-0.3-0.7-0.1-0.7 0.2 0.2 0.8 0.2 1.6 0.2 2.4-0.1 0.4 0.6 0.2 0.6-0.1z"/>
		
	
	
		
			<path class="st2" d="m782.1 133.9c0.5-3.5-5.1-4.1-7.4-3.1-2.9 1.2-5.1 5.1-2 7.4 0.1 0.1 0.7-0.1 0.6-0.3-0.3-1-0.5-2-0.3-3.1 0.4-2.1 2.5-3.9 4.7-3.4 0.1 0.1 0.8-0.3 0.5-0.4-1.4-0.8-2.9-0.4-4 0.7-0.2 0.1 0 0.2 0.1 0.2-0.1 0 1.7-0.5 1.3-0.6-0.2-0.1-0.6 0.2-0.7 0.3-0.6 0.3-1.3 0.9-1.8 1.4-0.3 0.3 0.2 0.2 0.3 0.1 1.1-0.5 2.1-1.1 3-2 0.3-0.3-0.1-0.3-0.3-0.1-1.5 0.7-2.4 1.8-3.5 3-0.2 0.4 0.4 0.1 0.6 0 1-1.1 2-2 3.2-2.9 0.1 0 0.2-0.2 0.1-0.2-2.3-0.4-3.8 2-4.8 3.8-0.2 0.2 0.5 0 0.6-0.1 0.7-0.9 1.4-1.7 2-2.6 0.2-0.2-0.4 0-0.5 0-1.8 1.1-2.7 3-2.1 5 0 0.2 0.7-0.1 0.6-0.3 0-1 0.1-2 0.3-2.9-0.2 0-0.5 0.2-0.7 0.2 0 0.9 0 1.7 0.2 2.7 0 0.2 0.7-0.1 0.6-0.3 0.2-0.9 0.3-1.7 0.3-2.6 0-0.2-0.7 0-0.7 0.2-0.2 1.2-0.1 2.2 0 3.3 0 0.2 0.7-0.1 0.6-0.3 0.1-0.7 0-1.4 0-2.2 0-0.2-0.7 0-0.7 0.2 0 0.8 0.1 1.5 0.1 2.3 0 0.2 0.7 0 0.6-0.3-0.2-0.8-0.2-1.5-0.1-2.2-0.2 0-0.5 0.2-0.7 0.2 0.1 0.8 0.1 1.4 0 2.2 0.2-0.1 0.5-0.2 0.6-0.3-0.1-1.1-0.2-2.1 0-3.2-0.2 0-0.5 0.2-0.7 0.2 0 0.9-0.1 1.7-0.3 2.6 0.2-0.1 0.5-0.2 0.6-0.3-0.2-0.9-0.3-1.7-0.3-2.6 0.1-0.2-0.6 0-0.7 0.2-0.2 1-0.3 1.9-0.3 2.9 0.2-0.1 0.5-0.2 0.6-0.3-0.5-1.7 0-3.5 1.7-4.5h-0.5c-0.6 0.9-1.3 1.8-2 2.5 0.2 0 0.4-0.1 0.6-0.1 0.2-0.5 0.5-0.8 0.7-1.2 0.5-1 1.3-1.6 2.4-1.8 0.1 0.3-1.5 1.2-1.7 1.4-0.8 1.2-0.2 0.5 0.3 0 0.4-0.5 0.9-1 1.4-1.5-1.6 1-1.3 1.1 0.8-0.1 0.2 0 0.6-0.5 0.1-0.3-0.4 0.1-0.8 0.2-1.2 0.2 0.9-0.5 1.6-0.5 2.5 0 0.2-0.1 0.4-0.3 0.5-0.4-4.3-0.8-6.9 3.5-5.6 7.2 0.2-0.1 0.5-0.3 0.6-0.3-3.2-2.4-0.5-6.8 3.1-7.1 1.9-0.2 5.4 1 5 3.4 1.1 0.6 1.7 0.3 1.8 0.1z"/>
		
	
	
		
			<path class="st2" d="m771.3 134.8c-0.7 1.4-0.2 3.1-0.1 4.5 0.2 2.1 0.5 4.1 0.3 6.2 0 0.2 0.2 0.1 0.3 0 1.5-0.5 3-0.9 4.6-1.2 0.1 0 0.5-0.2 0.4-0.4-1-2.4-2.1-4.6-3.6-6.7-0.1-0.2-0.7 0-0.7 0.2 0.2 2 0.5 4 1 5.9 0.2-0.1 0.5-0.2 0.6-0.3-1.4-2-1.6-4.3-1.8-6.6-0.1-0.3-0.7 0-0.7 0.2 0 2.3 0.4 4.6 0.8 6.9 0.2-0.1 0.5-0.2 0.6-0.3-0.6-1.8-0.8-3.7-0.7-5.7-0.2 0-0.5 0.2-0.7 0.2 0.4 1.6 0.5 3.1 0.4 4.6-0.1 0.2 0.7 0 0.7-0.2 0.1-1.6 0-3.1-0.4-4.7 0-0.2-0.7 0.1-0.7 0.2 0 1.9 0.1 3.8 0.7 5.8 0 0.2 0.7-0.1 0.6-0.3-0.4-2.3-0.8-4.5-0.8-6.8-0.2 0-0.5 0.2-0.7 0.2 0.2 2.4 0.4 4.7 1.8 6.7 0.1 0.2 0.7-0.1 0.6-0.3-0.5-1.9-0.7-3.8-0.9-5.8-0.2 0-0.5 0.2-0.7 0.2 1.4 2.2 2.6 4.4 3.6 6.7 0.2-0.1 0.3-0.3 0.4-0.4-1.1 0.2-2.1 0.6-3.2 0.7-0.8 0.1-0.9 0.4-1.1-0.6-0.1-0.6 0-1.3-0.1-1.9-0.1-2.2-1.2-5.4-0.2-7.5 0.5 0-0.2 0.3-0.3 0.5z"/>
		
	
	
		
			<path class="st2" d="m774.4 139.8c-0.1 1.1 0 2.2 0.1 3.3 0.1 0.3 0.7 0.1 0.7-0.2-0.1-1.1-0.1-2.2-0.1-3.3 0-0.2-0.8 0-0.7 0.2z"/>
		
	
	
		
			<path class="st2" d="m773.1 140.3c0.2 1.4 0.3 2.8 1.1 4.1 0.2 0.3 0.8-0.1 0.6-0.3-0.8-1.2-1-2.6-1.1-4 0.1-0.4-0.5-0.2-0.6 0.2z"/>
		
	
	
		
			<path class="st2" d="m773.9 140.8c0.2 1.1 0.4 2.3 0.8 3.3 0.1 0.3 0.8-0.1 0.6-0.3-0.4-1-0.6-2.1-0.8-3.2 0.1-0.3-0.6-0.1-0.6 0.2z"/>
		
	
	
		
			<path class="st2" d="m772.5 141.9c0.2 0.8 0.3 1.5 0.4 2.3 0 0.1 0.7-0.1 0.6-0.3-0.2-0.8-0.3-1.5-0.4-2.3 0.1-0.1-0.6 0.1-0.6 0.3z"/>
		
	
	
		
			<path class="st2" d="m772.2 142.2c0 0.8 0.1 1.6 0.3 2.4 0.1 0.3 0.7 0 0.6-0.3-0.2-0.8-0.3-1.6-0.2-2.3 0-0.4-0.7-0.1-0.7 0.2z"/>
		
	
	
		
			<path class="st2" d="m781.3 132.5c1.6 3.1 0.5 7 2.6 10 0.1-0.1 0.3-0.3 0.4-0.3-1.5 0.5-2.9 0.7-4.5 0.7-0.2 0-0.7 0.3-0.5 0.4 1.7 0.1 3.3-0.2 4.9-0.8 0 0 0.5-0.2 0.4-0.3-2.1-3-0.9-6.8-2.6-10-0.2-0.1-0.8 0.3-0.7 0.3z"/>
		
	
	
		
			<path class="st2" d="m781.6 139.9c0.2 0.8 0.3 1.6 0.6 2.3 0 0.2 0.8-0.2 0.6-0.3-0.3-0.8-0.5-1.5-0.6-2.3 0-0.1-0.6 0.1-0.6 0.3z"/>
		
	
	
		
			<path class="st2" d="m780.8 140.7c0 0.8 0.1 1.5 0.5 2.2 0.1 0.2 0.8-0.3 0.6-0.3-0.4-0.6-0.6-1.4-0.5-2.1 0.1-0.1-0.6 0.1-0.6 0.2z"/>
		
	
	
		
			<path class="st2" d="m779.9 140.9c0 0.6 0 1.1 0.1 1.7 0 0.2 0.7 0 0.6-0.3-0.1-0.5-0.2-1.1-0.1-1.6 0.1-0.3-0.6 0-0.6 0.2z"/>
		
	
	
		
			<path class="st2" d="m779.1 143c0.1 2.5 0.5 4.8 3.1 5.7 1.2 0.5 2.6 0.3 3.9 0.7 2.6 0.7 2.8 3.6 3.1 5.9 0.3-0.3 0.6-0.5 0.9-0.8-0.9 0.1-2.1-4.4-2.5-5.1-0.5 0.3-0.8 0.5-1.3 0.8 0.3 0.6 0.6 1 1 1.5 0.2 0.8 1.5 0.3 1.5-0.4-0.1-1-0.4-1.5-1.2-2-0.5-0.3-1.7 0.2-1.3 0.8 1.1 1.6 1.5 3.6 2.1 5.4 0 0.2 0.4 0.2 0.5 0.2 0.3-0.1 0.7 0 1-0.1 0.4-0.1 0.8-0.4 0.9-0.8-0.2-1.9-0.5-5.3-2.5-6.3-1-0.6-2.4-0.4-3.6-0.6-3.2-0.6-3.9-2.5-4-5.4-0.2-0.7-1.7-0.2-1.6 0.5z"/>
		
	
	
		
			<path class="st2" d="m776.6 144.2c0.2 2.2 0.5 4.2-1.5 5.5-1.2 0.8-2.5 1.3-3.6 2.2-2.4 1.9-2.8 4.7-3.5 7.6-0.2 0.7 1.2 0.3 1.4-0.2 0.5-2.1 0.8-4.7 2.4-6.5 1.4-1.5 3.5-2.1 5.1-3.1 1.9-1.3 1.4-3.9 1.1-5.9 0-0.7-1.4-0.2-1.4 0.4z"/>
		
	
	
		
			<path class="st4" d="m118.1 111.6c-1.9-0.1-3.7 0.3-5.4 1.2-0.9 0.4-0.1 0.9 0.6 0.6 1.4-0.7 2.8-1 4.3-0.9 0.4-0.1 1.4-0.9 0.5-0.9z"/>
		
	
	
		
			<path class="st4" d="m117.4 112.4c-3.5 11.3-7.2 22.6-9.9 34.1-1.3 5.4-2.1 10.9-3.1 16.3-0.5 3-1.1 6-1.8 8.9-0.4 1.7-0.9 3.4-1.5 5.1-0.2 0.8-0.5 1.6-0.9 2.3-0.5 1.6-1.8 2.7-3.7 3.2 0.3-0.8-1.2-0.7-1.4-0.2-0.1 0.2-0.1 0.3-0.2 0.5 0 0.1-0.1 0.3 0 0.4 6.7 6.2 10.8-19.7 11.2-22.2 2.9-16.6 7.7-32.6 12.7-48.7 0.3-0.5-1.2-0.3-1.4 0.3z"/>
		
	
	
		
			<path class="st4" d="m111.6 113.1c-6.6 23.1-12.3 46.6-17 70.2-0.1 0.6 1.3 0.4 1.5-0.2 4.7-23.6 10.3-47 17-70.2 0.1-0.5-1.4-0.3-1.5 0.2z"/>
		
	
	
		
			<path class="st4" d="m111.1 118.7c-2.6 9.1-5.2 18.1-7.8 27.2-0.2 0.7 1.2 0.4 1.4 0 3.5-7.6 6.3-15.4 8.4-23.4 0.2-0.7-1.3-0.5-1.5 0.1-2.7 9.2-5.1 18.5-7.4 27.8-0.2 0.7 1.3 0.4 1.5-0.1 2.8-9.1 5.5-18.2 8.3-27.3-0.5 0-1 0.1-1.5 0.1-2.4 8-4.8 16-7.3 24.1 0.5 0 1-0.1 1.5-0.1 0.1-6.8 2-13.1 4.2-19.4h-1.4c-0.7 2.7-1.4 5.4-2.1 8.2-0.2 0.7 1.3 0.5 1.5-0.1 1.5-5.1 3-10.1 4.5-15.2 0.5-1.6 3.8-10.3 0.9-2.6-0.8 2.2-1.8 4.4-2.9 6.5h1.4c0.3-3.7 1.3-7 3-10.2-0.5 0-0.9-0.1-1.4-0.1-1.1 3-1.9 6-2.4 9.1-0.1 0.7 1.3 0.5 1.5-0.1l2.4-10.2c0.1-0.3-0.3-0.4-0.5-0.4-4-0.8-4.3 6-4.9 8.5 0.5 0 1-0.1 1.5-0.1-0.1-1.7 0.2-3.4 0.9-5h-1.4c-0.2 2.7-0.5 5.3-0.7 8-0.1 0.7 1.1 0.4 1.3 0.1 1-1.1 2-2.3 2.9-3.4-0.4-0.1-0.9-0.2-1.3-0.3-6 16.9-6.6 35.1-13.2 51.8h1.4c1.1-9.3 3.2-18.5 5.3-27.6-0.5 0-1 0.1-1.5 0.1-1.6 7.8-3.3 15.5-4.9 23.3-0.1 0.7 1.3 0.5 1.5-0.1 1.9-7.9 3.7-15.9 5.6-23.8-0.5 0-1 0.1-1.5 0.1-1.6 7.2-3.3 14.4-4.9 21.6 0.5 0 1-0.1 1.5-0.1 0.2-7.4 1.4-14.6 3.5-21.7 0.2-0.6-1.2-0.4-1.4 0-3.1 6.7-5.1 13.6-6.1 20.9-0.1 0.7 1.3 0.4 1.5-0.1 1.6-5.4 3.4-10.7 5.3-15.9h-1.4c-3.3 10.1-5.6 20.5-7 31-0.1 0.7 1.4 0.5 1.5-0.1 0.6-3.5 1.5-6.9 2.6-10.3 0.2-0.6-1.2-0.4-1.4 0-1.9 3.8-3.2 7.6-3.8 11.8-0.1 0.7 1.3 0.4 1.5-0.1 1.4-4.6 2.9-9.1 4.7-13.6h-1.4c-0.6 4.5-1.9 8.5-4.1 12.5 0.5 0 0.9 0.1 1.4 0.1 1.3-3.6 2.9-7 4.8-10.3h-1.4c-0.7 4.2-2.1 7.8-4.6 11.3h1.4c0.8-2.8 1.9-5.2 3.3-7.7h-1.4c-0.8 3.4-2.4 6-4.9 8.3 0.4 0 0.9 0.1 1.3 0.1 1-4.6 2.2-9.2 3.5-13.7-0.5 0-1 0.1-1.5 0.1-0.1 3.4-0.7 6.4-1.8 9.6-0.3 0.9-1 1.7-0.6 2.6 0.2 0.4 0.7 0.3 1 0.2 0.1 0 0.2-0.1 0.3-0.1 0.2-0.1 0.5-0.3 0.4-0.6 0-0.1-0.1-0.2-0.1-0.2-0.2-0.6-1.7-0.2-1.4 0.4 0.3 0.8 2.6-4.8 2.8-5.5 0.5-2.2 0.7-4.4 0.8-6.6 0-0.8-1.3-0.4-1.5 0.1-1.4 4.5-2.5 9.1-3.5 13.7-0.2 0.7 1.1 0.3 1.3 0.1 2.7-2.5 4.4-5.3 5.2-8.8 0.2-0.7-1.2-0.4-1.4 0-1.4 2.6-2.5 5.2-3.4 8-0.2 0.7 1.2 0.3 1.4 0 2.5-3.5 4-7.3 4.7-11.5 0.1-0.7-1.2-0.4-1.4 0-1.9 3.3-3.4 6.7-4.8 10.3-0.3 0.8 1.1 0.6 1.4 0.1 2.2-4.1 3.5-8.2 4.2-12.7 0.1-0.7-1.2-0.5-1.4 0-1.8 4.5-3.4 9.1-4.8 13.8 0.5 0 1-0.1 1.5-0.1 0.6-4.1 1.9-7.8 3.7-11.5h-1.4c-1.1 3.4-2 6.8-2.6 10.3 0.5 0 1-0.1 1.5-0.1 1.4-10.6 3.7-20.9 7-31 0.2-0.6-1.2-0.5-1.4 0-2 5.3-3.8 10.7-5.4 16.2 0.5 0 1-0.1 1.5-0.1 1-7.2 3-14 6-20.7h-1.4c-2.2 7.1-3.4 14.3-3.5 21.7 0 0.7 1.3 0.4 1.5-0.1 1.6-7.2 3.3-14.4 4.9-21.6 0.2-0.7-1.3-0.5-1.5 0.1-1.9 7.9-3.7 15.9-5.6 23.8 0.5 0 1-0.1 1.5-0.1 1.6-7.8 3.3-15.5 4.9-23.3 0.1-0.7-1.3-0.5-1.5 0.1-2.2 9.1-4.2 18.3-5.3 27.6-0.1 0.7 1.2 0.5 1.4 0 6.6-16.7 7.2-34.9 13.2-51.8 0.3-0.8-1-0.6-1.3-0.3-1 1.1-2 2.3-2.9 3.4 0.4 0 0.9 0.1 1.3 0.1 0.2-2.7 0.5-5.3 0.7-8 0.1-0.7-1.3-0.5-1.4 0-0.6 1.8-0.9 3.3-1 5.3 0 0.8 1.3 0.4 1.5-0.1 0.3-1 0.5-2.1 0.8-3.1 0.2-0.7 0.9-4.5 1.1-2.1 0.1 2.2-1.3 5.5-1.8 7.7 0.5 0 1-0.1 1.5-0.1 0.5-3.1 1.2-5.9 2.3-8.9 0.3-0.8-1.1-0.6-1.4-0.1-1.8 3.4-2.8 6.7-3.1 10.5-0.1 0.7 1.2 0.4 1.4 0 1.9-3.8 3.4-7.6 4.5-11.7 0.1-0.4-0.4-0.4-0.7-0.4-2.5 0.1-3 2.2-3.6 4.4-1.9 6.3-3.7 12.6-5.6 18.9 0.5 0 1-0.1 1.5-0.1 0.7-2.7 1.4-5.4 2.1-8.2 0.2-0.6-1.3-0.5-1.4 0-2.2 6.4-4.2 12.8-4.3 19.7 0 0.8 1.3 0.4 1.5-0.1 2.4-8 4.8-16 7.3-24.1 0.2-0.6-1.3-0.5-1.5 0.1-2.8 9.1-5.5 18.2-8.3 27.3 0.5 0 1-0.1 1.5-0.1 2.3-9.3 4.6-18.6 7.4-27.8-0.5 0-1 0.1-1.5 0.1-2.2 8-4.9 15.7-8.4 23.2h1.4c2.6-9.1 5.2-18.1 7.8-27.2 0.1-0.9-1.4-0.8-1.6-0.2z"/>
		
	
	
		
			<path class="st4" d="m99.5 176.4c-0.2 1.6-0.7 3-1.7 4.3 0.4 0.1 0.9 0.2 1.3 0.3 0.2-0.3 0.4-0.6 0.5-0.9 0.4-0.6-0.9-0.8-1.2-0.4l-1.7 1.7c-0.3 0.3-1.1 1.2-1.3 1.3 0.2 0 0.5 0.1 0.7 0.1-0.3-0.2 0.6-1.7 0.8-2 0.4-0.7-1-0.8-1.4-0.2s-1.7 2.9-0.2 3.2c0.6 0.1 1-0.4 1.4-0.7 0.9-0.8 1.8-1.7 2.7-2.6-0.4-0.1-0.8-0.3-1.2-0.4-0.2 0.3-0.4 0.6-0.5 0.9-0.4 0.7 1 0.8 1.3 0.3 1.1-1.5 1.7-3.1 1.9-4.9 0.1-0.9-1.4-0.7-1.4 0z"/>
		
	
	
		
			<path class="st4" d="m96.5 179.6c-7.7-3.9-2.7-10.6 1.2-14.7 1.5-1.6 3.2-3.4 3.3-5.8 0.1-3.4-3.1-5.6-5.8-3.2-0.7 0.6 0.2 1 0.8 0.8 2.5 1.4 3.1 3.3 1.7 5.5-0.6 1.1-1.4 2-2.3 2.9-0.7 0.8-1.3 1.4-1.9 2.2-1.5 2.2-2.9 5.4-2.3 8.1 0.7 3.3 4.1 3.6 5.9 1-0.4-0.1-0.9-0.1-1.3-0.2-2.3 1.5-3.2 0.6-2.7-2.9 0.3-1.2 0.8-2.3 1.6-3.3 1.4-2.2 3.3-4 5.3-5.7 0.8-0.6-0.4-1.1-1-0.7-4.4 3.8-11.1 10.9-4.3 15.9 0.4 0.3 0.9 0.1 1.2-0.2 1-1 1.3-1.8 1.5-3.2 0.1-0.7-1.1-0.5-1.3-0.2-3.4-1.1-4.2-3-2.6-5.7 0.2-0.5 0.4-1 0.7-1.5 1-1.8 2.2-2.7 3.4-4.2 1.4-1.7 2.6-3.7 2.4-6-0.3-2.7-2-3.8-4.5-2.9l0.8 0.8c3.4 0.2 4.2 1.5 2.3 4-0.3 2.1-1.3 3.7-3.1 4.8-0.4 0.4-0.9 0.8-1.3 1.2-1.4 1.5-2.5 3.1-3 5.2-0.8 3.7 0.9 6.9 4.2 8.5 0.6 0.6 1.9-0.2 1.1-0.5z"/>
		
	
	
		
			<path class="st4" d="m117.3 107.7c-0.5 1.4-1 2.7-1.6 4-0.3 0.7 1.1 0.8 1.4 0.2 0.6-1.3 1.1-2.6 1.6-4 0.2-0.8-1.2-0.8-1.4-0.2z"/>
		
	
	
		
			<path class="st4" d="m118.2 107.9c0.4 0.5-0.7 2.7-0.9 3.3-0.4 1.1-0.8 2.3-1.3 3.4-0.1 0.3 1.3 0.1 1.4-0.2 0.5-1.3 1-2.6 1.4-3.9 0.2-0.6 1.2-2.4 0.8-2.9-0.2-0.4-1.5 0.2-1.4 0.3z"/>
		
	
	
		
			<path class="st4" d="m117.8 107.8c-0.5 2-1 4-1.4 6-0.1 0.6 1.3 0.3 1.5-0.2 0.5-2 1-4 1.4-6 0.1-0.5-1.4-0.3-1.5 0.2z"/>
		
	
	
		
			<path class="st4" d="m116.5 109.5c-0.4 1.3-0.7 2.7-1.1 4-0.2 0.7 1.3 0.6 1.5-0.1 0.4-1.3 0.7-2.7 1.1-4 0.2-0.7-1.3-0.5-1.5 0.1z"/>
		
	
	
		
			<path class="st4" d="m119.1 107.1c-1.8-0.4-3.7 0.3-5.1 1.4-1.7 1.3-2.1 4.1-2.6 6-0.1 0.5 1.3 0.3 1.4-0.2 0.7-2.6 1.6-7.2 5.4-6.5 0.5 0.1 1.7-0.6 0.9-0.7z"/>
		
	
	
		
			<path class="st4" d="m115.6 108c-0.9 1.7-1.6 3.4-1.9 5.3-0.1 0.7 1.3 0.5 1.5-0.1 0.4-1.8 1-3.4 1.9-5 0.3-0.7-1.2-0.7-1.5-0.2z"/>
		
	
	
		
			<path class="st4" d="m115.8 108.7c-0.6 1.4-1.1 2.8-1.6 4.2-0.2 0.5 1.3 0.3 1.5-0.2 0.5-1.4 1-2.9 1.6-4.2 0.1-0.4-1.3-0.3-1.5 0.2z"/>
		
	
	
		
			<path class="st4" d="m114.6 109c-1.2 1.6-1.9 3.4-2.1 5.4-0.1 0.7 1.4 0.4 1.5-0.1 0.2-1.9 0.9-3.6 2-5.2 0.4-0.6-1.1-0.5-1.4-0.1z"/>
		
	
	
		
			<path class="st4" d="m119.7 102.6c-0.5 1.9-1.1 3.8-1.8 5.6-0.2 0.5 1.3 0.3 1.4-0.2 0.7-1.8 1.3-3.7 1.8-5.6 0.1-0.5-1.3-0.3-1.4 0.2z"/>
		
	
	
		
			<path class="st4" d="m120.7 102.4c-1.6-0.4-3.9-0.4-5.3 0.7-0.6 0.5-0.9 1.3-1.2 2-0.5 1.2-0.9 2.5-1.1 3.8-0.1 0.3 1.4 0.1 1.4-0.3 0.2-1.2 0.5-2.3 1-3.4 0.2-0.5 0.4-1.1 0.7-1.5 0.8-1.2 2.2-1.1 3.4-0.8 0.2 0.2 1.5-0.4 1.1-0.5z"/>
		
	
	
		
			<path class="st4" d="m117 103c-0.7 1.5-1.3 3.1-1.9 4.7-0.1 0.4 1.3 0.2 1.4-0.2 0.6-1.6 1.2-3.2 1.9-4.7 0.2-0.3-1.2-0.2-1.4 0.2z"/>
		
	
	
		
			<path class="st4" d="m118.3 103c-0.7 1.6-1.2 3.2-1.5 5-0.1 0.6 1.4 0.4 1.5-0.1 0.3-1.6 0.7-3.2 1.4-4.7 0.3-0.8-1.2-0.7-1.4-0.2z"/>
		
	
	
		
			<path class="st4" d="m118.4 103.7c-0.2 1.2-0.7 2.3-1.5 3.3-0.6 0.7 0.8 1 1.2 0.5 0.9-1.1 1.5-2.4 1.7-3.8 0.3-0.9-1.2-0.7-1.4 0z"/>
		
	
	
		
			<path class="st4" d="m116.8 104.8c-0.1 0.9-0.5 1.7-1 2.4-0.2 0.2 0.5 0.2 0.6 0.2 0.3 0 0.7-0.2 0.8-0.4 0.6-0.8 0.9-1.6 1-2.6 0.1-0.2-1.4 0-1.4 0.4z"/>
		
	
	
		
			<path class="st4" d="m117.3 103c-1.1 0.1-1.7 0.7-2.1 1.7-0.7 1.6-1.1 3.3-1.7 5-0.2 0.6 1.3 0.4 1.5-0.2 0.3-1 0.7-2 1-3 0.2-0.5 0.6-2.6 1.2-2.6 0.7 0 1.1-0.9 0.1-0.9z"/>
		
	
	
		
			<path class="st4" d="m120.5 102.4c0.4-1.1 1.7-3.3 1.3-4.6-0.2-0.5-0.6-0.6-0.9-1-0.4-0.8 0.2-2.8 0.3-3.7 0-0.1 0-0.1-0.1-0.2-1.7-0.5-2.2 0.8-2.4 2.2-0.2 1.3-0.3 1.2-1.1 2.3-0.2 0.3-0.4 0.6-0.5 1-0.7 1.7-1.2 3.5-1.7 5.3-0.1 0.3 1.3 0.1 1.4-0.2 0.7-2.1 1.1-4.6 2.5-6.3 0.7-0.9 0.6-3.5 1.3-3.9-0.3 0.1-0.7 0.1-1 0.2 0.4 0.1-0.4 3.3 0 4 0.2 0.3 0.4 0.2 0.6 0.6 0.2 0.5 0.1 1-0.1 1.6-0.3 1-0.7 2-1 3-0.1 0.2 1.3 0.1 1.4-0.3z"/>
		
	
	
		
			<path class="st1" d="m784 17.2c-4.8-1.5-9.7-0.1-12.4 4.4-2.1 3.7-3 8.9 0.4 12s7.3 2.4 11.4 1.4c2.2-1.2 4.1-0.8 5.7 1.3 2.3 0.7 3.3 2.1 2.9 4.4-0.1 1.8-0.8 3.6-2 5-3.5 4.1-12.2 5.6-14.1-0.8-0.4-1.4-4.8-3.5-4.2-1.5 1.6 5.2 6.4 8.9 11.9 9.3 6.5 0.4 13.4-4.1 12.7-11.2-0.5-5.3-5.5-9.7-10.7-10.4-1.4-0.2-2.6 0-4 0.2-2.8 0.5-6.9 3.3-7.5-1.1-0.7-5.5 5.3-11.7 10.8-10 3.1 1.1 0.7-2.4-0.9-3z"/>
		
	
	
		
			<path class="st1" d="m752.1 162.8c-11.1 2.7-22 5.3-33.1 8-1.9 0.5-5 2.2-1.1 1.2 11.1-2.7 22-5.3 33.1-8 1.8-0.4 4.9-2.1 1.1-1.2z"/>
		
	
	
		
			<path class="st1" d="m786.1 124.7c-1.3 0.8-1.2 1.8 0.1 3.2 0.3 1 0.6 2.1 0.8 3.2 0.6 2.5 0.8 5 1 7.6 1.5-0.1 2.9-0.2 4.4-0.2-1.2-3.3-2.2-6.7-3.1-10.1-1.4 0.3-2.9 0.6-4.3 0.9 1.6 6.3 3.3 12.5 4.9 18.8 0.8 2.9 5.1 2.3 4.3-0.9-1.6-6.3-3.3-12.5-4.9-18.8-0.8-2.9-5.1-2.3-4.3 0.9 0.8 3.4 1.8 6.8 3.1 10.1 0.8 2.2 4.7 2.8 4.4-0.2-0.4-5.4-0.9-14.1-5-18.2-3.1-3-5.8 0-6 3.4 0 2.9 4.5 3.5 4.6 0.3z"/>
		
	
	
		
			<path class="st1" d="m790.5 139.5 0.3 16.2c0 1 1 3.7 2.5 3.4 3-0.6 6-1.3 8.9-1.9 0.6-0.1 0.9-0.5 0.9-1.2-0.8-11.5-3.6-22.5-6.9-33.5-0.8-2.5-1.3-7.8-4.1-9.1-2.2-1.1-8.8 1.2-10.6 2.4-0.5 0.4-0.5 1-0.4 1.6 0.7 4.7 6.4 6.1 10.1 4-0.5-0.2-1.1-0.4-1.6-0.6 1.4 1.4 1.5 5.2 1.8 7 0.5 2.6 0.9 5.1 1.4 7.7 1 5.8 1.5 11.4-0.8 16.9 1.1 0.9 2.2 1.8 3.2 2.7-0.1-5.3-0.1-10.7-0.9-16-0.9-6.1-4.4-13-1.5-18.9-1-0.7-1.9-1.3-2.9-2 2 5.3 2.9 10.8 4.1 16.3 0.5 2.4 4.9 17.8 1.2 18.1-2 0.2-0.1 4.8 1.6 4.6 6.8-0.7 2.5-11.5 1.7-15.3-1.6-7.9-2.8-16.2-5.7-23.8-0.2-0.5-2.1-3.5-2.9-2-2.5 4.9-1.6 9.7-0.3 14.8 1.8 7.2 2.1 14.4 2.2 21.7 0 1.1 2.3 5.1 3.2 2.7 2.9-7 1.6-14.3 0.3-21.6-0.9-5.3-0.9-12.7-5.1-16.7-0.4-0.4-1-0.9-1.6-0.6-0.4 0.2-4.7 1.3-4.6 1.6-0.1 0.5-0.3 1.1-0.4 1.6 1-0.7 6.9-2.9 8.1-2.2 0.5 0.3 1.5 4.9 1.7 5.4 0.5 1.8 1.1 3.6 1.6 5.5 2.3 8.1 4 16.4 4.6 24.8 0.3-0.4 0.6-0.8 0.9-1.2-3 0.6-6 1.3-8.9 1.9 0.8 1.1 1.6 2.3 2.5 3.4l-0.3-16.2c-0.1-0.9-3.4-4.3-3.3-1.5z"/>
		
	
	
		
			<path class="st1" d="m801.7 111.9c-4.4-0.7-9.6 1.1-13.8 2.3-2.4 0.7-0.4 5.2 1.7 4.6 3.8-1.1 8.9-3 12.9-2.3 2.7 0.4 1.3-4.3-0.8-4.6z"/>
		
	
	
		
			<path class="st1" d="m799.6 115.7c2.2 13 4.3 26.1 6.5 39.1 0.5 2.8 5.5 2.6 5-0.2-2.2-13-4.3-26.1-6.5-39.1-0.5-2.8-5.4-2.6-5 0.2z"/>
		
	
	
		
			<path class="st1" d="m806.1 155c-2 0.1-3.9 0.1-5.9 0.2-1 0 0.5 0.7 0.7 0.8 1 0.4 2.2 0.8 3.3 0.7 2-0.1 3.9-0.1 5.9-0.2 1 0-0.5-0.7-0.7-0.8-1-0.4-2.2-0.8-3.3-0.7z"/>
		
	
	
		
			<path class="st1" d="m805.5 154.7c-2.7 0.1-5.4 0.6-8 1.3-1.1 0.3 0 1.4 0.4 1.7 1 0.6 2.3 0.9 3.4 0.6 2.3-0.6 4.7-0.9 7.2-1 1 0 1.1-0.9 0.4-1.5-0.8-0.9-2.2-1.1-3.4-1.1z"/>
		
	
	
		
			<path class="st1" d="m798 117.6c-0.1 4.8-0.3 9.6-0.4 14.4 0.9 1.3 1.7 2.5 2.6 3.8-1.2-5.8-1.3-11.5-0.4-17.3 0.1-0.7-1.8-4.2-2.6-4.1-2 0.1-6.7-0.2-7.8 1.8-0.4 0.6 1.1 2.5 1.3 2.9 1.7 2.6 7.4 6.1 7.7 0.7 0.1-0.9-2.7-4-2.6-4.1-0.8 1.8-0.6 1.1-0.7 3.1 0 0.5 2.2 4.5 2.6 4.1 1.5-1.1 2.1-2.2 2.5-3.9-0.9-1.3-1.8-2.7-2.7-4-0.3 6 0.5 11.8 1.7 17.7 0.6 3 1.3 6.1 2 9.1 0.8 3.5 3.5 9.3-1.4 10.5 0.9 1.4 1.8 2.8 2.6 4.1l0.3-0.6c-0.9-1.4-1.8-2.8-2.6-4.1 0.1 1.6 1.2 4.8 3 5.3 4.2 1.3 2.1-10.4 1.9-12.4-0.5-6.4-1.6-12.7-3-18.9-1-4.2-1.9-7.7-4.6-11-1.2-1.6 0.9 2.7 1.4 3.3-2-2.5-0.1 1.2 0.2 2.4s0.6 2.4 0.9 3.7c0.9 3.9 1.5 7.8 2 11.8 0.4 3.1 0.7 6.3 0.8 9.4 0.1 1.1 1.1 9.3-2.3 7.2 0.8 1.4 1.7 2.7 2.5 4.1 0-0.3 0-0.6-0.1-0.9 0-0.5-2.1-4.5-2.6-4.1s-0.4 0.3-0.4 0.9c0 0.7 1.8 4.3 2.6 4.1 1.1-0.3 2.3-0.5 3.4-0.8v-0.1c-2-12.2-6.2-24.1-5.7-36.6 0-1.1-2.7-4-2.7-4-0.4 1.9-1 2.6-2.4 3.7 0.9 1.4 1.8 2.8 2.6 4.1 0.2-0.9 0.4-1.9 0.6-2.8-0.9-1.4-1.8-2.8-2.6-4.1-0.1 2.2-3.5 4.2-5.1 1.8 0.4 1 0.9 1.9 1.3 2.9 1.1-1.9 6-1.7 7.8-1.8-0.9-1.4-1.8-2.8-2.6-4.1-0.9 6-0.7 11.9 0.5 17.9 0.2 1 2.6 3.6 2.6 3.8 0.1-4.8 0.3-9.6 0.4-14.4 0.3-1.8-2.5-4.1-2.5-4.5z"/>
		
	
	
		
			<path class="st1" d="m795.1 6.4c8.1 25.6 11.2 52.3 16.9 78.4 5.7 26 16.3 50.7 20.7 77 0.2 0.9 5.1 0.6 5 0.2-4.3-26.3-14.9-51-20.7-77-5.8-26.1-8.9-52.8-16.9-78.4-0.3-1-5-0.3-5-0.2z"/>
		
	
	
		
			<path class="st1" d="m800.6 12.7c2.9-0.4 5.9-1.1 8.7-2 0.6-0.2 2.1-0.8 1.5-1.7-0.5-0.8-2.4-0.6-3.2-0.4-2.4 0.7-4.9 1.3-7.4 1.7-0.7 0.1-2.4 0.5-2.3 1.5 0.2 1.1 2.1 1 2.7 0.9z"/>
		
	
	
		
			<path class="st1" d="m807.2 9.8c4.2 26.9 9 53.4 16.9 79.5 7.9 26 14.5 52.3 18.9 79.1 0.4 2.2 4.1 4 3.6 0.7-4.5-26.8-11.1-53.1-18.9-79.1-7.9-26.1-12.7-52.6-16.9-79.5-0.4-2.2-4.1-4-3.6-0.7z"/>
		
	
	
		
			<path class="st1" d="m335-2.2c-22.3 7.9-30.7 31.4-45.6 47.6-2.2 2.4 1.7 4.9 3.7 2.8 14.1-15.3 22.4-38.7 43.4-46.2 3-1.1 1.5-5.3-1.5-4.2z"/>
		
	
	
		
			<path class="st1" d="m292.3 47c-41.4-17.5-83.3-34-125.5-49.5-1.3-0.5-5.6 1.8-3.7 2.5 42.2 15.4 84.1 31.9 125.5 49.5 1.3 0.5 5.6-1.7 3.7-2.5z"/>
		
	
	
		
			<path class="st1" d="m312.5 1.3c-5.3-1.8-10.1 6.8-12.9 10.4-4.9 6.3-9.1 13.1-12.6 20.3-0.2 0.5 4.2 2.8 4.4 2.3 2.9-5.9 6.2-11.6 10-16.9 1.8-2.5 3.8-5 5.8-7.4 1.4-1.6 5.4-7.5 8.1-6.6 2 0.7-2.1-1.8-2.8-2.1z"/>
		
	
	
		
			<path class="st1" d="m299.5-1.5c-5.1 1.9-8.5 6.1-11.8 10.1-4.3 5.2-8.3 10.6-12 16.2-1.5 2.3 2.1 5.7 3.8 3.2 3.1-4.6 6.3-9.2 9.8-13.5 3.4-4.2 6.9-9.6 12.2-11.5 2.7-0.9 0.7-5.4-2-4.5z"/>
		
	
	
		
			<path class="st1" d="m285.1-1.4c-7.9 7.6-14.8 16-20.7 25.2-0.3 0.5 4.1 2.4 4.9 1.2 5.8-9.1 12.6-17.4 20.4-24.8 0.7-0.7-3.7-2.4-4.6-1.6z"/>
		
	
	
		
			<path class="st1" d="m266.6-0.1c-5.1 6.7-8.9 14-11.5 22 1.5-0.4 2.9-0.8 4.4-1.3-8.6-3.2-17.2-6.4-25.8-9.5-4.1-1.5-9.1-2.6-12.9-4.8-2.4-1.4-3.3-1.2-0.9-4.2 1.5-1.9 3.3-3.5 5.2-4.9 2.1-1.5-2.7-1.3-3.8-0.5-3.5 2.7-6.4 5.7-8.6 9.6-0.2 0.3 0.2 0.6 0.4 0.7 14.1 5.2 28.2 10.4 42.3 15.7 1 0.4 4 0 4.4-1.3 2.5-7.8 6.1-14.9 11.1-21.4 1.2-1.6-3.5-1.2-4.3-0.1z"/>
		
	
	
		
			<path class="st1" d="m217.2 5.3c12.8 3.2 24.8 8.9 36.7 14.6-0.1-1.4-0.2-2.8-0.3-4.1-10.7-4.5-21.7-8-33-10.8 0.4 1.5 0.8 2.9 1.3 4.4 10.2 0.3 18.4 5.1 27.6 8.8 1.8 0.7 3.4 1.3 4.5-0.7 0.8-1.6 0.5-4.3 0.6-6 0.2-3 0.5-6 0.7-8.9 0.1-1.8-3.5-5.2-3.8-2.6-0.6 4.7-2.2 10.4-1.5 15.1 0.2 1.3 1.1 2.8 2.6 3 5 0.8 8.1-9.2 9.1-12.9 0.4-1.5-2.3-4.9-3.6-3-2.8 3.8-4.7 7.9-6.1 12.4-0.4 1.2 2.1 4.8 3.4 3.3 3.8-4.2 6.2-8.8 7.4-14.3 0.3-1.5-2.4-5-3.6-3-2.9 4.6-4.6 9.4-5.4 14.7-0.2 1.4 2.7 5.2 3.6 3 2.4-5.5 4.7-11 7.1-16.4-0.5 0.1-1.1 0.2-1.6 0.4 1.7 0.6 2 0.6 3.8 0.4-0.7-1.5-1.4-2.9-2.2-4.4-8.9 1.6-17.8 2.4-26.8 2.2-2.8 0-0.4 4 1.3 4.4 5.3 1.3 10.7 2.2 16.2 2.7 2.7 0.2 0.4-4-1.3-4.4-5.4-1.2-10.8-1.5-16.3-1-1.8 0.2-0.4 3 0.3 3.6 3.6 3.3 7.5 5.3 12.3 6.1 2.2 0.3 1-2.9 0.2-3.6-2.3-1.9-4.5-3.1-7.5-3.6-1.9-0.3-1.3 2.3-0.6 3.1 2.1 2.6 4.5 4.5 7.6 5.8 2.8 1.1 1.4-3.4-0.3-4.1-9.6-4.5-19.4-7.7-29.6-10 0.6 1.5 1.1 2.9 1.7 4.4 7.9-0.3 15.9-0.7 23.8-1-0.7-1.5-1.4-2.9-2.2-4.4-6.7 0.8-13.3 1.1-20 0.8-2.6-0.1-0.7 3.8 0.8 4.3 9 2.9 17.5 6.9 25.6 12 2.5 1.6 2.7-1.9 1.2-3.2-3.9-3.5-7.8-6.8-11.9-10-0.2 1.2-0.5 2.4-0.7 3.6 2.4 1.8 4.7 3.6 7.1 5.5 0.1-1.3 0.1-2.6 0.2-3.9-4.4-1.7-8.8-3.4-13.1-5 0.3 1.4 0.5 2.9 0.8 4.3 5.6-0.1 11 0.7 16.3 2.4-0.3-1.4-0.5-2.9-0.8-4.3-5-0.5-9.8-1.4-14.7-2.6 0.4 1.5 0.8 2.9 1.3 4.4 9.7 0.8 24.1 4.7 31-4.4 1.2-1.6-2.1-5.3-3.5-3.4-6.1 8-20.2 4.1-28.8 3.4-2.8-0.2-0.4 4 1.3 4.4 4.9 1.2 9.7 2.1 14.7 2.6 2.6 0.3 0.6-3.8-0.8-4.3-5.7-1.9-11.3-2.8-17.3-2.7-2.6 0-0.6 3.7 0.8 4.3 4.4 1.7 8.8 3.4 13.1 5 2.8 1.1 1.3-3 0.2-3.9-2.4-1.8-4.7-3.6-7.1-5.5-2.6-2-2.4 2.3-0.7 3.6 3.8 2.9 7.4 6 11 9.2 0.4-1.1 0.8-2.1 1.2-3.2-8.3-5.3-17.2-9.5-26.5-12.5 0.3 1.4 0.5 2.9 0.8 4.3 7 0.3 13.9 0 20.9-0.8 2.3-0.3-0.3-4.5-2.2-4.4-7.9 0.3-15.9 0.7-23.8 1-2.4 0.1 0.5 4.1 1.7 4.4 9.8 2.2 19.3 5.4 28.6 9.5-0.1-1.4-0.2-2.8-0.3-4.1-2-0.6-3.6-1.8-4.8-3.4-0.2 1-0.4 2.1-0.6 3.1 1.7 0.2 3.2 0.9 4.6 2.1 0.1-1.2 0.1-2.4 0.2-3.6-3.7-0.6-6.7-1.9-9.4-4.5l0.3 3.6c5.2-0.5 10.3-0.1 15.4 1.1-0.4-1.5-0.8-2.9-1.3-4.4-5.5-0.5-10.9-1.4-16.2-2.7 0.4 1.5 0.8 2.9 1.3 4.4 9.3 0.1 18.5-0.6 27.7-2.3 2.3-0.4-0.2-4.6-2.2-4.4-0.6-0.1-1.3-0.1-1.9-0.2-0.5-0.2-1.3-0.3-1.6 0.4-2.4 5.5-4.7 11-7.1 16.4l3.6 3c0.7-5.1 2.4-9.6 5.1-13.9l-3.6-3c-1.1 4.9-3.2 9.1-6.6 12.9 1.1 1.1 2.2 2.2 3.4 3.3 1.3-4.3 3.1-8 5.7-11.5l-3.6-3c-0.4 1.5-3.6 11.5-6.5 11 0.9 1 1.7 2 2.6 3-0.7-4.2 0.9-9.8 1.4-14.1-1.3-0.9-2.5-1.7-3.8-2.6-0.1 1.4 0.1 13.2-1.1 13.9-1.6 1-7-2.6-9-3.4-6.7-2.9-13.4-5.3-20.8-5.5-2.8-0.1-0.4 4 1.3 4.4 11 2.7 21.6 6.2 32 10.5 2.8 1.2 1.4-3.3-0.3-4.1-12.5-5.9-24.8-11.6-37.9-14.9-2.4-0.6-0.6 3.9 1.2 4.4z"/>
		
	
	
		
			<path class="st1" d="m343.2 0.3c-8.9 6.1-17.1 13.2-24.2 21.3-3.6 4.1-7 8.5-10 13.1-1.5 2.3-3 4.6-4.3 7-2.4 4.2-4.7 2.3-8.7 0.5-2.9-1.3-0.3 2.2 1 2.9 2.9 1.3 5.7 2.3 8.7 3.3 0.2 0.1 0.8 0.2 1-0.1 9.6-17.9 23.3-33.2 40.1-44.7 1.2-0.9-2.5-4.1-3.6-3.3z"/>
		
	
	
		
			<path class="st1" d="m346.9 3.7c1.9-2.3 4.1-4.3 6.6-5.9 1-0.6 0-1.5-0.6-1.8-0.9-0.5-2.5-0.7-3.4 0-2.7 1.8-5.1 3.9-7.1 6.4-1.3 1.4 3.4 2.7 4.5 1.3z"/>
		
	
	
		
			<path class="st1" d="m591.5 29.3c-3.3 0.4-6.4 1.6-9.1 3.5-0.8 0.6-1.2 1.7-0.2 2.3s2.6 0.1 3.4-0.5c1.7-1.2 3.5-1.8 5.5-2 1-0.1 2.5-0.8 2.6-2s-1.4-1.4-2.2-1.3z"/>
		
	
	
		
			<path class="st1" d="m614.6 92.7c-1.9 1.2-3.9 2.2-6.1 2.9-1.2 0.3-2.4 1.2-2.2 2.6 0.1 1.2 1.5 2.1 2.6 1.7 3.1-0.9 5.9-2.1 8.5-3.9 1-0.7 1.4-2.1 0.6-3.1-0.9-1.1-2.4-0.9-3.4-0.2z"/>
		
	
	
		
			<path class="st1" d="m465.6 54.4c-0.1 4.3 0.3 8.5 1.4 12.7 0.4 1.5 5 2.6 4.7 1.2-1.1-4.2-1.5-8.4-1.4-12.7 0.1-1.4-4.6-2.9-4.7-1.2z"/>
		
	
	
		
			<path class="st1" d="m524.4 139.4v8.7c0 0.3 4.5-0.7 4.5-2.1v-8.7c0-0.3-4.5 0.7-4.5 2.1z"/>
		
	
	
		
			<path class="st1" d="m654.2 171.9c-2.3 1.6-5 2.6-7.8 3-2.7 0.4-0.3 4.6 1.8 4.3 3.5-0.5 6.6-1.7 9.5-3.7 1.9-1.3-1.5-4.9-3.5-3.6z"/>
		
	
	
		
			<path class="st1" d="m546 77c-2.2 2.1-4.3 4.1-6.5 6.2-0.9 0.9-0.6 2.3 0.4 3 1.1 0.7 2.6 0.4 3.5-0.5 2.2-2.1 4.3-4.1 6.5-6.2 0.9-0.9 0.6-2.3-0.4-3-1.2-0.7-2.6-0.4-3.5 0.5z"/>
		
	
	
		
			<path class="st1" d="m844.5 29.8v1.3c0 0.3 0.3 0.8 0.5 1.1 0.3 0.5 0.7 1.1 1.1 1.6 0.3 0.4 0.6 0.8 1 1.1 0.1 0.1 0.4 0.3 0.4 0v-1.3c0-0.3-0.3-0.8-0.5-1.1-0.3-0.5-0.7-1.1-1.1-1.6-0.3-0.4-0.6-0.8-1-1.1-0.1-0.1-0.4-0.3-0.4 0z"/>
		
	
	
		
			<path class="st1" d="m652.8 10c-0.9 1.1-1.8 2.2-2.6 3.4-0.4 0.5 1.2 1.8 1.5 2.1 0.2 0.2 1.9 1.7 2.2 1.2 0.9-1.1 1.8-2.2 2.6-3.4 0.4-0.5-1.2-1.8-1.5-2.1-0.2-0.1-1.8-1.6-2.2-1.2z"/>
		
	
	
		
			<path class="st1" d="m869.1 94c-2.2 0.2-4.4 0-6.5-0.6-1-0.3-2.2 0.4-3 1.1-0.3 0.2-1.7 1.8-0.7 2.1 2.7 0.7 5.4 0.9 8.1 0.7 1.1-0.1 2.4-1 2.9-2 0.5-0.9 0.1-1.4-0.8-1.3z"/>
		
	
	
		
			<path class="st1" d="m386.4 135.5c-2 1.8-3.9 3.6-5.9 5.4-0.6 0.5-1.1 1.5 0 1.7s2.5-0.7 3.2-1.4c2-1.8 3.9-3.6 5.9-5.4 0.6-0.5 1.1-1.5 0-1.7-1-0.2-2.4 0.7-3.2 1.4z"/>
		
	
	
		
			<path class="st1" d="m285.4 170.9c0 3.6 1.5 7.1 3.6 10 0.3 0.4 0.9 1.4 1 0.5 0.1-0.8-1-2.5-1.5-3.1-0.2-0.3-0.3-0.5-0.1-0.1-0.1-0.3-0.2-0.7-0.3-1-0.2-0.7-0.2-1.4-0.2-2.1 0-1-0.7-2.1-1.2-2.9-0.1-0.2-1.3-1.8-1.3-1.3z"/>
		
	
	
		
			<path class="st1" d="m367.8 195.5c-0.8 2.2-1.5 4.4-2.3 6.6-0.3 0.8 1.6 0.4 1.9 0.4 0.7-0.1 2.5-0.5 2.8-1.3 0.8-2.2 1.5-4.4 2.3-6.6 0.3-0.8-1.6-0.4-1.9-0.4-0.7 0.1-2.6 0.5-2.8 1.3z"/>
		
	
	
		
			<path class="st1" d="m418.9 135.6 3.3 6c0.4 0.8 2.3 0.8 3 0.9 0.3 0 2.2 0 1.8-0.7l-3.3-6c-0.4-0.8-2.3-0.8-3-0.9-0.3 0-2.2 0-1.8 0.7z"/>
		
	
	
		
			<path class="st1" d="m345.6 45.1c0.4 2.2 0.8 4.5 1.2 6.7 0.3 1.4 5 2.6 4.7 1.1-0.4-2.2-0.8-4.5-1.2-6.7-0.2-1.4-5-2.5-4.7-1.1z"/>
		
	
	
		
			<path class="st1" d="m409.2 7.9v-1.8c0-1.8-5-2.1-5-0.5v7.8c0 1.8 5 2.1 5 0.5v-7.8c0-1.8-5-2.1-5-0.5v1.8c0 1.8 5 2.2 5 0.5z"/>
		
	
	
		
			<path class="st1" d="m164.9 75.6-6 6c-0.5 0.5 1.6 0.6 1.8 0.6 0.8 0 2.4 0.1 3.1-0.6l6-6c0.5-0.5-1.6-0.6-1.8-0.6-0.8 0.1-2.4 0-3.1 0.6z"/>
		
	
	
		
			<path class="st1" d="m191.7 156.3-2.7 6c-0.5 1.1 0.1 2.4 1.3 2.8 1.3 0.4 2.7-0.4 3.2-1.5l2.7-6c0.5-1.1-0.1-2.4-1.3-2.8-1.3-0.3-2.7 0.4-3.2 1.5z"/>
		
	
	
		
			<path class="st1" d="m223.6 121.9c0.5 2.9 1.6 5.6 3.6 7.8 0.9 0.9 2.3 1.1 3.4 0.4 0.9-0.5 1.7-2 0.9-3-1.5-1.6-2.6-3.5-2.9-5.6-0.2-1.3-1.2-2-2.5-1.9-1.1 0-2.7 1-2.5 2.3z"/>
		
	
	
		
			<path class="st1" d="m277.8 112.6 2 2c0.4 0.4 1 0.8 1.7 1 0.4 0.1 1.1 0.1 1.5-0.2 1-0.7 0.5-2-0.2-2.7l-2-2c-0.4-0.4-1-0.8-1.7-1-0.4-0.1-1.1-0.1-1.5 0.2-0.9 0.7-0.5 2 0.2 2.7z"/>
		
	
	
		
			<path class="st1" d="m233 62.4c-1.5 1.6-3.1 3.1-4.6 4.7-0.4 0.4 1.6 0.5 1.8 0.5 0.6 0 1.3 0 1.9-0.1 0.3 0 0.9-0.1 1.1-0.3 1.5-1.6 3.1-3.1 4.6-4.7 0.4-0.4-1.6-0.5-1.8-0.5-0.6 0-1.3 0-1.9 0.1-0.3 0-0.9 0-1.1 0.3z"/>
		
	
	
		
			<path class="st1" d="m334.2 90.5v5.3c0 1.4 5 1.2 5-0.4v-5.3c0-1.4-5-1.2-5 0.4z"/>
		
	
	
		
			<path class="st1" d="m116.8 191.5c-0.5 3.6-0.9 7.1-1.4 10.7-0.2 1.5 3.6 4.4 3.7 3.1 0.5-3.6 0.9-7.1 1.4-10.7 0.3-1.5-3.5-4.4-3.7-3.1z"/>
		
	
	
		
			<path class="st1" d="m189.7 187.8-2.7 3.3c-0.4 0.5 0.9 1.9 1.2 2.3 0.2 0.2 1.8 1.9 2.1 1.4l2.7-3.3c0.4-0.5-0.9-1.9-1.2-2.3-0.2-0.2-1.8-1.9-2.1-1.4z"/>
		
	
	
		
			<path class="st1" d="m136.9 24.6c-0.2 3.5 0.1 7 0.8 10.5 0.4 2.1 5.2 2.6 4.7-0.1-0.6-3.1-0.7-6.3-0.6-9.5 0.1-2.3-4.8-3.5-4.9-0.9z"/>
		
	
	
		
			<path class="st1" d="m95.3 5.5c-1.7 2.1-3.7 3.9-6 5.3-0.5 0.3 1.5 1.9 1.7 2 0.5 0.4 1.7 1.3 2.4 0.9 2.3-1.4 4.3-3.2 6-5.3 0.5-0.7-3.5-3.7-4.1-2.9z"/>
		
	
	
		
			<path class="st1" d="m194.9 38.5c-0.9 0.4-1.8 0.9-2.7 1.3-0.3 0.1 0.3 0.2 0.3 0.2 0.5 0.1 1 0 1.5 0 1-0.1 2.1-0.1 3-0.6 0.9-0.4 1.8-0.9 2.7-1.3 0.3-0.1-0.3-0.2-0.3-0.2-0.5-0.1-1 0-1.5 0-0.9 0.1-2.1 0.2-3 0.6z"/>
		
	
	
		
			<path class="st1" d="m14.8 10.2c-1.7-4-3.7-7.8-5.8-11.5-1.4-2.4-6-1-4.4 1.7 2.2 3.8 4.1 7.6 5.9 11.5 1.1 2.6 5.6 1.2 4.3-1.7z"/>
		
	
	
		
			<path class="st1" d="m489.3 7c-1.3 1.1-2.7 2.2-4 3.3-0.8 0.6 2.2 4.6 2.9 4.1 1.3-1.1 2.7-2.2 4-3.3 0.7-0.6-2.3-4.6-2.9-4.1z"/>
		
	
	
		
			<path class="st1" d="m569 182.4c-0.2 0.7-0.5 1.3-0.7 2-0.4 1.2 0.3 2.5 1.5 2.8s2.7-0.3 3.2-1.5c0.2-0.7 0.5-1.3 0.7-2 0.4-1.2-0.3-2.5-1.5-2.8-1.3-0.3-2.8 0.2-3.2 1.5z"/>
		
	
	
		
			<path class="st1" d="m849.5 200.2c0.2 0.5 0.4 0.9 0.6 1.4 0.5 1.1 2.1 1.3 3.1 1.1 0.9-0.2 2.2-1 1.7-2.1-0.2-0.5-0.4-0.9-0.6-1.4-0.5-1.1-2.1-1.3-3.1-1.1-0.9 0.2-2.2 1-1.7 2.1z"/>
		
	
	
		
			<path class="st1" d="m854.9 147.4c-1.3 0.5-2.6 0.9-4 1.4-0.9 0.3 0.3 1.7 0.6 2 0.6 0.6 1.9 1.7 2.9 1.3 1.3-0.5 2.6-0.9 4-1.4 0.9-0.3-0.3-1.7-0.6-2-0.6-0.6-1.9-1.7-2.9-1.3z"/>
		
	
	
		
			<path class="st1" d="m611.2 135.7c0.7 2 1.3 4 2 6 0.1 0.3 4.5-1.7 4.2-2.8-0.7-2-1.3-4-2-6-0.1-0.3-4.5 1.8-4.2 2.8z"/>
		
	
	
		
			<path class="st1" d="m399.3 82c-2.4 1-4.8 1.9-7.2 2.9-0.3 0.1 1.8 4.6 2.6 4.3 2.4-1 4.8-1.9 7.2-2.9 0.3-0.2-1.8-4.6-2.6-4.3z"/>
		
	
	
		
			<path class="st1" d="m462.3 182.7h-5.3c-0.5 0 0.4 2.3 0.5 2.5 0.3 0.5 0.8 2 1.6 2h5.3c0.5 0-0.4-2.3-0.5-2.5-0.3-0.5-0.9-2-1.6-2z"/>
		
	

</svg>
