<?xml version="1.0" encoding="UTF-8"?>
<svg enable-background="new 0 0 865 202" version="1.1" viewBox="0 0 865 202" xml:space="preserve" xmlns="http://www.w3.org/2000/svg">
<style type="text/css">
	.st0{fill:#3E99D4;stroke:#010101;stroke-miterlimit:10;}
	.st1{fill:#4EB0E3;}
</style>

	<rect class="st0" x="-4.7" y="-4.7" width="873.3" height="210.7"/>


	
		<path class="st1" d="m596.3 166c4.2 4.5 6 10.2 6.8 16.3 0.9 7.5-0.7 13-4.9 19.1-1.3 2 2.1 2.9 3.2 1.2 4.6-6.7 6.4-12.5 5.3-20.7-0.8-6.6-2.8-12.9-7.3-17.8-1.3-1.6-4.6 0.3-3.1 1.9z"/>
	


	
		<path class="st1" d="m595.9 164c-3.5 2.8-8 4.2-11.5 7.2-3.3 2.8-6.1 6.3-8.1 10.1-3.6 6.8-5.7 15.7-0.8 22.4 1.2 1.7 4.6 0.2 3.2-1.7-5-6.8-1.2-16.7 3.2-22.8 2.2-3.2 5.1-5.9 8.4-8 2.7-1.7 5.7-2.8 8.3-4.9 1.8-1.5-1-3.7-2.7-2.3z"/>
	


	
		<path class="st1" d="m598.7 172 0.1-0.1c0-0.1 0-0.2-0.1-0.4 0-0.1-0.1-0.1-0.1-0.2-0.2-0.4-2.5-2.6-3-1.9-1.1 1.7-1.1 4.7-1.7 6.7-0.8 2.9-1.8 5.8-2.8 8.6-2.1 5.4-4.6 10.5-7.1 15.7-0.4 0.8 2.8 2.7 3 2.2 2.5-5.2 5-10.3 7.1-15.7 1-2.5 1.9-5.1 2.6-7.7 0.6-2.3 0.6-5.6 1.9-7.6-1-0.6-2-1.2-3-1.9h-0.1c-0.1 0.3 2.4 2.9 3.2 2.3z"/>
	


	
		<path class="st1" d="m593.2 187.7c-1.2-3.8-2.8-7.3-4.9-10.6-0.5-0.9-4.1-1.5-3.3-0.2 2 3.2 3.5 6.6 4.7 10.2 0.3 0.9 3.8 1.6 3.5 0.6z"/>
	


	
		<path class="st1" d="m590.7 191.4c-1.3-3.1-2.9-6.1-4.6-9-0.6-0.9-3.9 0.2-3.7 0.5 1.7 2.9 3.3 5.9 4.6 9 0.4 1 3.9 0 3.7-0.5z"/>
	


	
		<path class="st1" d="m586.4 199.4c-1.4-4.7-4.2-8.5-7.2-12.2-0.4-0.5-0.9-0.8-1.2-0.1-0.3 0.6 0.6 2 0.9 2.4 2.2 2.7 4.6 5.4 5.5 8.9 0.2 0.6 0.7 2 1.4 2.2 0.7 0 0.8-0.5 0.6-1.2z"/>
	


	
		<path class="st1" d="m599.5 181.4c-2.6 2.1-5.5 3.8-8.4 5.4-2 1.1 1 2.9 2.5 2.1 3.2-1.8 6.3-3.6 9.1-5.9 0.7-0.6 0.1-1.5-0.5-1.9-0.9-0.4-2-0.3-2.7 0.3z"/>
	


	
		<path class="st1" d="m596.9 188.1c-2.4 1.4-4.8 2.8-7.3 4-0.5 0.3-1.6 0.9-1.3 1.7 0.3 0.7 1.6 0.3 2.1 0.1 2.8-1.4 5.5-2.9 8.2-4.5 0.5-0.3 1.3-1.1 0.7-1.6-0.6-0.6-1.8 0-2.4 0.3z"/>
	


	
		<path class="st1" d="m593.4 193.7c-1.5 1-3.1 1.8-4.8 2.5s0.5 3.7 2 3.1c1.9-0.8 3.6-1.7 5.3-2.8 0.7-0.5 0.1-1.8-0.4-2.2-0.5-0.7-1.4-1.1-2.1-0.6z"/>
	


	
		<path class="st1" d="m670.2 82.6c8.6-8.3 13.6-19.4 14-31.4 0-1-1.8-3.1-2.9-2.3-2.3 1.7-4.7 3.5-7 5.2 1 0.8 1.9 1.5 2.9 2.3 0.6-6.1 0.5-12-0.4-18.1-0.1-0.9-1.9-2.7-2.9-2-1.8 1.4-3.4 2.9-4.9 4.7 1 0.7 1.9 1.3 2.9 2-0.3-4.2-1.8-8.2-4.4-11.6-2.9-3.7-7.2-5.8-10.4-9.1-0.4-0.4-2.2-1.4-2.1-0.1 0.2 2.7 0.4 5.5 0.7 8.2 0.8 0.2 1.6 0.3 2.4 0.5-4.9-6.4-14.2-8.1-20.8-12.2-0.3-0.2-1.6-0.9-1.7-0.1-0.9 7.5-2.8 15.6-1 23.1 0.4-0.1 0.9-0.3 1.3-0.4-1.7-0.8-3.5-1.6-5.2-2.5-0.3-0.2-1.2-0.5-1.3 0.2-0.8 4.4 1.1 8 3.3 11.7 0.2-0.4 0.4-0.8 0.6-1.3-1.8-0.5-3.4-1-5.2-1.8-0.5-0.2-1.3-0.4-1.3 0.4 0.7 9.6 7.5 17.6 16.5 20.5l-1.8-2.7c-2.8 1.5-5.5 1.7-8.7 1.6-1.1 0-0.3 1.3 0 1.7 9.1 10.8 22.7 13.3 36.2 13.6-0.8-0.7-1.6-1.4-2.4-2.2 0.4 6-0.5 11.7-2.8 17.3-0.4 1 2.5 3.3 3 2.1 2.4-5.8 3.3-11.6 2.8-17.9-0.1-0.9-1.5-2.1-2.4-2.2-11.8-0.3-24.5-1.9-32.5-11.4v1.7c3.3 0.1 6.2-0.1 9.3-1.7 1.3-0.7-1.2-2.5-1.8-2.7-7.4-2.4-11.8-8.8-12.4-16.4-0.4 0.1-0.9 0.3-1.3 0.4 1.9 0.9 3.9 1.6 5.9 2.1 1 0.3 1-0.6 0.6-1.3-1.9-3.2-3.4-6-2.7-9.8-0.4 0.1-0.9 0.1-1.3 0.2 1.7 0.8 3.5 1.6 5.2 2.5 0.4 0.2 1.5 0.4 1.3-0.4-1.8-7.3 0.1-15.2 1-22.5-0.6 0-1.1-0.1-1.7-0.1 2.7 1.7 5.5 3.3 8.4 4.6 3.8 1.8 8.2 2.8 10.9 6.3 0.4 0.5 2.5 1.9 2.4 0.5-0.2-2.7-0.4-5.5-0.7-8.2-0.7 0-1.4-0.1-2.1-0.1 2.2 2.2 4.7 3.7 7 5.7 3.8 3.3 5.6 7.3 5.9 12.2 0.1 0.8 2.1 2.9 2.9 2 1.5-1.7 3.1-3.2 4.9-4.7-1-0.7-1.9-1.3-2.9-2 0.8 5.8 0.9 11.6 0.3 17.5-0.1 1 1.9 3 2.9 2.3 2.3-1.7 4.7-3.5 7-5.2-1-0.8-1.9-1.5-2.9-2.3-0.4 11.9-5.2 22.7-13.8 31-0.4 0.9 2.3 3.4 3.2 2.6z"/>
	


	
		<path class="st1" d="m641 29.5c9.2 16.1 17.8 31.8 24.1 49.2 0.2 0.5 3.8-0.6 3.6-0.9-6.3-17.5-15-33.1-24.1-49.2-0.3-0.7-3.7 0.7-3.6 0.9z"/>
	


	
		<path class="st1" d="m654.7 36c0.1-0.8 0.2-1.6 0.2-2.5-1.2-0.1-2.4-0.3-3.6-0.4 0 4.4-0.2 8.8-0.4 13.2-0.1 2.1 3.4 3.2 3.6 0.8 0.3-4.7 0.4-9.4 0.4-14.1 0-1.9-3.5-2.5-3.6-0.4 0 0.8-0.1 1.6-0.2 2.5-0.2 2.2 3.3 3.2 3.6 0.9z"/>
	


	
		<path class="st1" d="m658.6 38.9c-0.3 5.5-0.7 11-1 16.5-0.1 1.5 3.7 1.7 3.7 0.3 0.3-5.5 0.7-11 1-16.5 0.1-1.5-3.6-1.7-3.7-0.3z"/>
	


	
		<path class="st1" d="m662.3 52.3c-0.3 3.1-0.6 6.2-0.9 9.3-0.1 0.8 3.6 0.9 3.7-0.3 0.3-3.1 0.7-6.2 0.9-9.3 0.1-0.8-3.6-0.8-3.7 0.3z"/>
	


	
		<path class="st1" d="m653.9 48.2c-3.5-0.8-7-1.8-10.5-2.8-1.7-0.5-4 1.8-1.6 2.5 3.5 1 7 1.9 10.5 2.8 1.7 0.4 4-1.9 1.6-2.5z"/>
	


	
		<path class="st1" d="m660.1 58.1c-2.5 0.1-5-1.1-7.4-1.7s-4.8-1-7.3-1.2c-2.4-0.3-1 2.5 0.7 2.7 3 0.3 6 0.8 8.9 1.7 2.3 0.7 4.3 1.4 6.7 1.3 2.1-0.2-0.1-2.9-1.6-2.8z"/>
	


	
		<path class="st1" d="m662.6 65.6c-2.7-0.6-5.3-1.2-8-1.8-1.8-0.4-3.4 1.4-1 2 2.7 0.6 5.3 1.3 8 1.8 1.8 0.4 3.4-1.5 1-2z"/>
	


	
		<path class="st1" d="m664.3 71.2c-1.6-0.3-3.1-0.6-4.7-0.9-2.4-0.4-2.3 2.9-0.3 3.3 1.6 0.3 3.1 0.6 4.7 0.9 2.4 0.5 2.4-2.9 0.3-3.3z"/>
	


	
		<path class="st1" d="m666.1 63c-0.6 1.8-1.2 3.7-1.8 5.5-0.6 1.9 2.5 3.9 3.2 1.7 0.6-1.8 1.2-3.7 1.8-5.5 0.5-1.9-2.5-3.9-3.2-1.7z"/>
	


	
		<path class="st1" d="m155.7 171c0-0.5 0.1-0.9 0.4-1.4 0.1-0.1 1.1-0.9 1.1-0.9-1-0.3-1.2-0.2-0.5 0.2 0.2 0.2 0.4 0.3 0.5 0.5 0.3 0.4 0.5 0.8 0.7 1.2 0.3 1 0.3 2.2-0.1 3.1-0.3 0.6-0.7 0.9-1.2 1.3-0.6 0.2-0.6 0.2 0.1 0.1-0.2-0.1-0.4-0.2-0.5-0.4-1.6-1.3-1.7-4.1-0.6-5.8 0.1-0.2 0.2-0.3 0.4-0.4-1.4-0.4-1.8-0.2-1.2 0.3 0.2 0.6 0.5 1.1 0.6 1.8 0.1 0.4 0.3 3-0.4 3.1 0.8 0 1.5 0.1 2.3 0.1-0.2 0-0.4-1.3-0.4-1.6 0-0.6 0.2-1.3 0.8-1.5-1.1-0.1-2.3-0.2-3.4-0.4 0.3 0.4 0.4 0.8 0.6 1.2 0.3 0.9 3.8 0.6 3.7 0.3-0.2-0.6-0.4-1-0.7-1.5-0.5-0.7-2.7-0.6-3.4-0.4-1.5 0.6-1.7 2.6-0.6 3.7 0.9 1 4 1.4 4.9 0.3 1.1-1.2 0.6-4.4-0.5-5.5-1.2-1.2-3.8-1.4-5.3-0.8-1.7 0.7-1.9 3.4-1.5 4.9 0.5 1.9 2 2.9 3.8 3.3 1.7 0.4 4 0.5 5.4-0.6 1.5-1.1 1.7-3.4 1-5-1-2.2-3.3-2.8-5.5-2.8-1.8 0-3.9 0.9-3.9 3-0.3 1.1 3.4 1.2 3.4 0.6z"/>
	


	
		<path class="st1" d="m482 32.5c0.8 1 2.4 2 3.7 1 1.1-0.8 1-2.6 0.7-3.8-0.8-2.6-4.2-5.7-6.7-3-2.2 2.4-0.9 6.6 2.2 7.4 1.3 0.3 2.6-0.3 3.1-1.6 0.6-1.4 0-3.1-1-4.2-0.6-0.6-1.5-1.2-2.4-1.1-0.7 0.1-1.4 0.7-1.5 1.4-0.3 1.6 1.7 3.8 3.3 3.5 1.2-0.2-0.9-3.2-2.1-3 0.5 0.5 1 1.1 1.6 1.6 0.1-0.2 0.2-0.3 0.4-0.4 0.1-0.1 0.4-0.2 0.5-0.2-0.4-0.3-0.7-0.6-1.1-0.8-0.6-0.6-0.3-0.5-0.3 0.1 0 0.2-0.1 0.5-0.2 0.7-0.3 0.6-0.7 0.7-1.3 0.9h-0.3c0.5 1 0.8 1.2 0.7 0.8 0.1-0.2 0-0.5 0-0.7 0.1-0.6 0.3-1.1 0.7-1.6 0.3-0.4 0.7-0.7 1.2-0.9 0 0 0.7-0.1 0.7 0l-0.3-0.3c-0.1-0.1-0.1-0.1 0 0.1-0.1 0.4 0.1 0.9 0 1.4-0.1 0.3-0.2 0.6-0.5 0.8-0.6 0.4-0.6-0.3 0.1 0.7-0.3-0.4-1.3-1.3-1.9-0.8-0.5 0.5 0.4 1.6 0.7 2z"/>
	


	
		<path class="st1" d="m540.4 199.8c-7.8-12-8.7-27.3-2.3-40.1 1-1.9-2.4-0.8-3 0.3-6.8 13.4-6.1 29.2 2.1 41.8 0.8 1.2 3.9-0.8 3.2-2z"/>
	


	
		<path class="st1" d="m538.6 159.5c5.6-11.5 14.7-20.4 26.3-25.8 2.1-1-0.4-3.4-2.2-2.6-12.1 5.6-21.7 15-27.5 26.9-0.9 1.9 2.6 3.2 3.4 1.5z"/>
	


	
		<path class="st1" d="m562.4 132.9c2.3 11.1 4.2 23.7-2.7 33.6-7 9.9-18.5 8.9-29.1 6.7 0.2 0 1.6 2.3 2.6 2.5 10.7 2.2 22.2 3.3 29.3-6.7 7-10 5-22.7 2.8-33.8-0.2-1.1-2.9-2.3-2.9-2.3z"/>
	


	
		<path class="st1" d="m559.5 138.6c-4.1 13.8-11.2 30.1-24.7 37.2-1.4 0.7 2.1 0.1 2.7-0.2 14.1-7.4 21.3-23.6 25.6-38 0 0.1-3.3 0-3.6 1z"/>
	


	
		<path class="st1" d="m550.7 142c1.4 5.3 1.9 10.7 1.8 16.2 0 1 3.2-0.5 3.2-1.7 0.2-5.5-0.4-10.9-1.8-16.2-0.3-1.2-3.5 0.7-3.2 1.7z"/>
	


	
		<path class="st1" d="m563.7 155.6c-4.2 2.4-9.2 2.8-13.8 4.2-2.2 0.7-1.4 3.6 0.8 2.9 4.9-1.5 10.1-2 14.7-4.6 2.2-1.2 0.2-3.6-1.7-2.5z"/>
	


	
		<path class="st1" d="m296.6 51.8c-0.6 0.6-1.2 0.7-2 0.6-0.2 0-0.3-0.1-0.4-0.1 0.8 0.9 1 1.2 0.9 0.6 0.1-0.2-0.1-0.7 0-1 0.2-0.8 0.7-1.5 1.4-1.9 0.3-0.1 0.6-0.2 0.9-0.3 0.2 0 0.4 0 0.7 0.1-0.6-0.7-0.8-0.8-0.5-0.3 0 0.8 0.2 1.4-0.3 2.2-0.5 0.7-1.2 1.2-2 1.3-0.3 0.1-0.6 0-0.9 0-0.7-0.2-0.5 0 0.6 0.8-0.1-0.2-0.1-0.5-0.1-0.7 0.1-1.1 1.1-1.6 2.1-1.5 0.6 0.1-0.5-1.3-0.5-1.4-0.5-0.5-1.2-1.2-2-1.3-1.3-0.1-2.4 0.7-2.5 2-0.1 1.5 1.3 2.8 2.5 3.6 2 1.4 5.2 1.4 6-1.4 0.7-2.6-2.5-5.7-4.9-6.1-2.5-0.4-4.2 2.4-3.1 4.5s4.7 4.7 6.9 2.6c0.5-0.3-2.2-2.9-2.8-2.3z"/>
	


	
		<path class="st1" d="m557.9 25.1c0.7 0.4 0 0.2 0.3-0.1 0.2-0.2 0.2-0.4 0.4-0.5 0.5-0.4 1.1-0.6 1.8-0.6 1.4 0 1.2 0.9 0.4 1.7-0.4 0.5-1.1 0.7-1.7 0.9-0.2 0.1-1.9 0.2-2 0.4 0.5 0.8 0.7 1 0.6 0.5v-0.6c0-0.3 0.1-0.7 0.3-0.9l0.5-0.3c-0.2-0.2-0.5-0.4-0.7-0.5 0 0.3-0.1 0.5-0.2 0.7 1.1 0.4 2.2 0.7 3.3 1.1 0-0.4 0-0.7 0.2-1 0.8-1.7-2-4.1-2.9-2.2-0.4 0.9-0.6 1.7-0.6 2.6 0.1 1.5 2.7 3.1 3.3 1.1 0.6-2.1-0.1-4.6-2.5-5.1-2.1-0.4-3.6 1.2-3.9 3.1-0.4 2.1 0.3 4.8 2.8 5 1.8 0.2 4.2-0.5 5.7-1.6 3.7-3 1-8.3-3.4-8.3-1.8 0-3.7 1-4.4 2.7-0.8 2 0.3 4.1 2.1 5.2 0.8 0.4 1.7 0 2-0.8 0.1-1.2-0.6-2.1-1.4-2.5z"/>
	


	
		<path class="st1" d="m532.2 181c-3.5-6.5-10.5-9.5-17.1-12.2-8.1-3.3-16.6-5.3-25.1-6.9-2.3-0.4-1.9 3.2 0.2 3.5 7.1 1.3 14.1 3 20.9 5.5 6.6 2.4 14.6 5.2 18.1 11.6 1.1 2.1 4.1 0.6 3-1.5z"/>
	


	
		<path class="st1" d="m528.7 183.5c-5 4.1-10.1 6.8-17.2 2.4-2.7-1.6-4.9-4-6.6-6.6-4.1-6-5.2-13.6-12.1-17.2-0.9-0.5-3.3 0-3.6-0.1 6.3 3.3 7.8 10.2 11.2 15.9 2.3 3.8 5.6 7.2 9.7 9.2 7.7 3.6 15.8 2.3 22.2-3.1 0 0-2.9-1.1-3.6-0.5z"/>
	


	
		<path class="st1" d="m488.1 164.9c2 4.1 5.6 7 7.8 10.9 1.1 2 4.2 0.7 3-1.4-2.2-3.9-5.8-6.9-7.8-10.9-0.9-2.1-4-0.8-3 1.4z"/>
	


	
		<path class="st1" d="m510.6 171.6 6.6 13.8c0.9 1.9 3.9 1.5 2.9-0.7l-6.6-13.8c-1-1.9-4-1.5-2.9 0.7z"/>
	


	
		<path class="st1" d="m528.5 165.9c-4.9-5.8-8.7-12.4-11.7-19.4-1.5-3.6-2.8-7.2-4-11-0.5-1.6-1-3.2-1.4-4.8-0.3-1.1-0.6-2.1-0.9-3.2 1.3-0.1 2.6-0.1 3.9 0 5.9 0.4 11.5 2.1 14.3 7.7 1.8 3.5 2.5 7.7 2.3 11.6-0.2 7.6-4 14.6-5.7 21.9-0.4 1.6 3.4 1.9 3.7 0.3 2.4-10.4 7.7-19.6 4.6-30.5-2.7-9.7-10.7-13-20.2-13.5-2-0.1-6.1-0.8-6.8 1.8-0.4 1.4 0.9 3.9 1.2 5.2 0.7 2.4 1.4 4.8 2.2 7.2 3.4 10.1 8 19.6 14.9 27.8 1.3 1.1 4.9 0.4 3.6-1.1z"/>
	


	
		<path class="st1" d="m517.9 129.7c3.6 9.2 6.9 18.4 10.1 27.8 0.3 0.8 3.9 0.2 3.7-0.1-3.2-9.3-6.5-18.6-10.1-27.8-0.3-0.9-3.8-0.2-3.7 0.1z"/>
	


	
		<path class="st1" d="m516.7 129.4c0.6 1.2 1.1 2.4 1.7 3.6 0.2 0.4 3.5-1.3 3.3-1.8-0.6-1.2-1.1-2.4-1.7-3.6-0.2-0.4-3.5 1.3-3.3 1.8z"/>
	


	
		<path class="st1" d="m541.6 146.6c-2.1-17.9 5.5-34.3 16.4-48.1l-3 0.3c1.2 5.8 2.3 11.7 2.6 17.5 0.5 7.5-1.5 13.5-4.9 20.1-1 1.9 2.4 1.3 3 0.1 3-5.7 5.3-11.3 5.4-17.9 0.1-7-1.4-14.2-2.8-21.1-0.3-1.3-2.5-0.4-3 0.3-11.3 14.3-19.6 31.3-17.3 50 0.4 1.6 3.8 0.2 3.6-1.2z"/>
	


	
		<path class="st1" d="m553 105.7c-0.7 7.7-2.4 15.2-4.6 22.6-1.8 6.1-3.1 14.1-7.7 18.8-1.2 1.2 2 3.1 3 2.1 4.8-4.9 6.2-12.8 8.1-19.3 2.2-7.6 4-15.3 4.7-23.1 0.1-1.4-3.4-2.7-3.5-1.1z"/>
	


	
		<path class="st1" d="m538.1 145.2c-0.3 2.4 0 4.7 0.6 7 0.5 1.8 4.1 1 3.6-1s-0.6-4.1-0.4-6.2c0.2-1.9-3.6-1.7-3.8 0.2z"/>
	


	
		<path class="st1" d="m527.7 166.8c-0.1 0-0.1 0 0 0 0.1 0.3 0.2 0.5 0.4 0.8 0 0 0-0.1 0.1-0.1h-3.4c0.5 0.6 0.6 2.1 0.9 2.8 0.3 1.1 0.7 2.2 1 3.3 0.6 2.1 1.3 4.1 1.9 6.2 0.3 1.1 4 1.1 3.6-0.3-0.7-2.4-1.5-4.8-2.2-7.1-0.5-1.7-0.8-4.4-2-5.7-0.6-0.7-2.9-0.9-3.4 0 0 0 0 0.1-0.1 0.1-0.2 0.4 0.1 0.7 0.4 0.9h0.1c0.9 0.7 4.4 0.1 2.7-0.9z"/>
	


	
		<path class="st1" d="m519.7 157.7c-13.6-2.6-25.6-9.5-37.4-16.4-1-0.6-4.5 0-2.8 1.1 12.3 7.2 24.8 14.3 39.1 17 1.7 0.3 3.6-1.3 1.1-1.7z"/>
	


	
		<path class="st1" d="m512 141.6c-10.1-7.3-20-15.1-28.9-23.9-4.4-4.4-8.6-9-12.4-14-3.7-4.8-6.9-10-11.2-14.2-0.8 0.8-1.6 1.5-2.4 2.3 11.2 1.4 23.2 3.1 31.2 12 8.1 9 10 21.3 9.9 33 0 1.7 3.5 0.6 3.6-0.9 0.1-12.1-2-24.8-10.4-34.1-8.3-9.2-20.9-11.1-32.5-12.5-0.9-0.1-3.6 1.1-2.4 2.3 4.4 4.3 7.5 9.4 11.2 14.2 3.8 4.9 8 9.6 12.4 14 8.9 8.8 18.7 16.6 28.9 23.9 1.1 0.8 4.3-1.2 3-2.1z"/>
	


	
		<path class="st1" d="m486.7 103.5c0.5 7.3 1.5 14.6 2.9 21.8 0.2 0.8 3.6 1.5 3.5 1-1.4-7.1-2.4-14.3-2.9-21.6 0-0.9-3.5-1.4-3.5-1.2z"/>
	


	
		<path class="st1" d="m490.8 128.1c-5.6-2.2-11.5-3.9-17.6-3.8-5.9 0.2-11.5 2.2-17 4.1-0.2 0.1 1.5 3.2 2.3 2.9 6-2.1 12-4.3 18.5-4.1 5.5 0.1 10.8 1.8 15.9 3.8-0.1 0-1.2-2.5-2.1-2.9z"/>
	


	
		<path class="st1" d="m479.4 137.4c-9.4-3-18.8-6.3-28-9.8-2.3-0.9-2.1 2-0.2 2.7 9.2 3.5 18.6 6.8 28 9.8 2.4 0.7 2.1-2.1 0.2-2.7z"/>
	


	
		<path class="st1" d="m524.9 122.1c3.8-2.3 4.7-8.2 4.9-12.2 0-0.3-2.2-0.9-2.4-0.6-3 3.4-5.5 7-7.5 11.1 0 0.1 2.2 1 2.4 0.6 2-4 4.5-7.7 7.5-11.1l-2.4-0.6c-0.2 4-1.1 9.9-4.9 12.2 0.3-0.3 1.8 0.9 2.4 0.6z"/>
	


	
		<path class="st1" d="m521.5 119.6c-0.9-6-2.2-12-3.9-17.8-0.3-0.9-1.9-1.1-2.3-0.2-1.8 4.8-3.2 9.7-1 14.6 0.6 1.3 2.9 0.8 2.3-0.7-2-4.3-0.6-8.7 1-12.9-0.8-0.1-1.5-0.1-2.3-0.2 1.7 5.6 2.9 11.4 3.8 17.2 0.2 1.5 2.7 1.5 2.4 0z"/>
	


	
		<path class="st1" d="m521.8 121.1c-13.9-3.9-22.2-16-26-29.3-0.3-1.1-2.6-0.2-2.3 1 3.9 13.9 12.7 26.2 27.1 30.2 1.2 0.3 2.7-1.5 1.2-1.9z"/>
	


	
		<path class="st1" d="m513.7 116.3c-2.1-7.5-5.9-14.2-11.2-19.9-0.5-0.5-2-0.9-2.1 0.1-0.5 4-0.1 7.8 1.2 11.6 0.4 1.1 2.8 1.4 2.3 0.1-1.3-3.6-1.7-7.2-1.2-11.1-0.7 0-1.4 0.1-2.1 0.1 5.1 5.4 8.7 11.8 10.7 18.9 0.4 1.2 2.8 1.5 2.4 0.2z"/>
	


	
		<path class="st1" d="m514.5 115.8v2.1c0 0.5 0.5 1 0.9 1.3 0.2 0.1 1.1 0.6 1.1 0.1v-2.1c0-0.5-0.5-1-0.9-1.3-0.1-0.2-1.1-0.7-1.1-0.1z"/>
	


	
		<path class="st1" d="m523.7 123.7c7.5 0.8 13.9-6.2 15.6-12.9 0.2-0.8-2.1-1.7-2.3-1.1-1.6 6.3-7.5 13.3-14.6 12.5-1.3-0.1 0.6 1.4 1.3 1.5z"/>
	


	
		<path class="st1" d="m539.3 112.1c1.1-7.6 3.4-14.7 7.1-21.5-0.7 0.1-1.5 0.2-2.2 0.4-0.3 4.4 1.1 8.7-0.4 13-1.4 4-4 7.5-7.7 9.6-1.3 0.8-0.6 2.1 0.8 1.4 3.7-2.1 6.4-5.2 8.3-9 2.5-5.3 1-10.1 1.4-15.8 0.1-1.2-1.9-0.1-2.2 0.4-3.8 6.9-6.2 14.2-7.3 22-0.3 1.2 2 0.5 2.2-0.5z"/>
	


	
		<path class="st1" d="m539.9 108c-0.2-4.9-0.7-9.7-1.4-14.5-0.1-0.5-2.3-0.3-2.5 0.1-3.1 7.3-4.4 14.9-3.8 22.7 0 0.5 2.5 0.3 2.5-0.2-0.6-7.8 0.7-15.3 3.7-22.6-0.8 0-1.6 0.1-2.5 0.1 0.7 4.8 1.1 9.7 1.4 14.5 0.1 0.6 2.6 0.4 2.6-0.1z"/>
	


	
		<path class="st1" d="m533.3 108.8c-0.2-4-0.8-7.9-2-11.8-0.1-0.5-2.2-0.9-2.4-0.4-1.8 4.1-2.9 8.3-3.2 12.8 0 0.6 2.4 1 2.5 0.5 0.3-4.5 1.4-8.7 3.2-12.8-0.8-0.1-1.6-0.3-2.4-0.4 1.1 3.8 1.8 7.6 1.9 11.6 0 0.7 2.4 0.9 2.4 0.5z"/>
	


	
		<path class="st1" d="m520.9 109.7c-1-4.3-1.4-8.1 0.1-12.3 1.2-3.3 2.6-6.5 3.8-9.9-0.8 0.2-1.6 0.4-2.4 0.5 1.8 6.5 3.1 13 3.9 19.7 0.1 0.7 2.5 0.1 2.4-0.7-0.9-6.7-2.2-13.2-3.9-19.7-0.2-0.8-2.2 0-2.4 0.5-1.3 3.7-3.1 7.4-4.2 11.1-1.1 3.9-0.6 7.4 0.3 11.3 0.2 0.9 2.6 0.2 2.4-0.5z"/>
	


	
		<path class="st1" d="m530.1 98.3c2.1-4.9 5-9.3 8.8-13.1-0.8 0.1-1.6 0.3-2.4 0.4-0.2 3.1-0.7 6.2-1.4 9.2 0 0 2.3 0.1 2.4-0.5 0.7-3 1.1-6.1 1.4-9.2 0-0.3-2.2 0.2-2.4 0.4-3.8 3.8-6.7 8.2-8.8 13.1-0.1 0.3 2.1 0.2 2.4-0.3z"/>
	


	
		<path class="st1" d="m544.4 108.2c7.3-8.3 11.7-17.2 15-27.7 0.3-1.1-1.6-1.2-2.1-0.7-5.5 4.4-9.9 9.5-13.4 15.6-0.6 1 1.9 1.2 2.4 0.3 3.4-5.8 7.6-10.7 12.8-14.8-0.7-0.2-1.4-0.5-2.1-0.7-3.2 10.4-7.6 19.2-14.7 27.3-1 0.9 1.4 1.4 2.1 0.7z"/>
	


	
		<path class="st1" d="m517.1 103.7c-0.4-5.8-2.4-11.1-6-15.7-0.2-0.2-2-1.5-2.1-1-0.7 3.1-2.2 6-2.5 9.2-0.3 3 0.1 6 1 8.9 0.2 0.6 2.3 1.2 2.2 1-1.1-3.3-1.5-6.6-0.9-10 0.5-2.7 1.7-5.2 2.4-7.9-0.7-0.3-1.4-0.6-2.1-1 3.6 4.5 5.5 9.7 5.9 15.4-0.1 0.7 2.1 1.6 2.1 1.1z"/>
	


	
		<path class="st1" d="m507.8 95.9c-2.2-4.3-6.5-6.7-9.6-10.3-0.3-0.3-2.4-0.4-2.5 0.1-0.2 4.3 1 8.3 3.3 11.8 0.3 0.5 2.6 0.1 2.4-0.2-2.3-3.5-3.3-7.5-3.2-11.7-0.8 0-1.6 0.1-2.5 0.1 3 3.5 7.3 5.9 9.5 10.1 0.4 0.7 2.6 0.2 2.6 0.1z"/>
	


	
		<path class="st1" d="m495.6 92.5c-3.1-4.1-5.7-8.5-7.9-13.1-0.7 0.4-1.5 0.7-2.2 1.1 3.3 2.6 6 5.7 8.2 9.2 0.2 0.3 2.4-0.9 2.2-1.1-2.2-3.5-4.9-6.6-8.2-9.2-0.3-0.2-2.4 0.8-2.2 1.1 2.2 4.6 4.8 9 7.9 13.1 0.2 0.3 2.3-1 2.2-1.1z"/>
	


	
		<path class="st1" d="m523.1 90.9c-0.3-3.8-1.4-7.3-3.2-10.7-0.3-0.5-1.3-1.1-1.8-0.5-3.1 3.8-4.1 10.8-2.2 15.2 0.5 1.3 2.7 1.2 2.1-0.3-0.9-2.3-1-4.5-0.5-6.9 0.4-1.9 1-4.7 2.3-6.2-0.6-0.2-1.2-0.3-1.8-0.5 1.6 3 2.5 6.2 2.8 9.5 0.2 1.5 2.4 2 2.3 0.4z"/>
	


	
		<path class="st1" d="m553.5 94.5c5-5.5 10.2-10.8 16-15.4 6.1-4.9 14.3-11.2 22.6-8.8 1 0.3 2.6-1.5 1.3-1.9-7.5-2.2-14.6 2.1-20.6 6.3-7.7 5.4-14.4 12-20.7 19-1.2 1.1 0.5 1.9 1.4 0.8z"/>
	


	
		<path class="st1" d="m591.9 67.2c-7.5-5.5-17.1-5-23.7 1.6-0.7 0.7 1 2.5 1.8 1.7 5.9-5.9 14.5-6.9 21.3-1.9 1.4 1.1 1.7-0.6 0.6-1.4z"/>
	


	
		<path class="st1" d="m549.9 89.4c9.1-18 3.3-37.8 0.4-56.5-0.1-0.9-1.9-1.4-2.3-0.6-9.6 17.2-14.4 36.5-13.8 56.2 0 1.1 2.5 1.4 2.5 0.1-0.5-19.4 4.1-38.4 13.6-55.3-0.8-0.2-1.6-0.4-2.3-0.6 2.9 18.3 8.8 38-0.1 55.6-0.8 1.2 1.5 2.1 2 1.1z"/>
	


	
		<path class="st1" d="m554.8 63.9c2-14 12.4-23.5 22.9-31.8-0.8-0.3-1.5-0.7-2.3-1-4 8.9-2.3 19-4.5 28.4-2.2 9.6-7.7 17.5-16.1 22.5-0.1 0.1 1.7 1.4 2.2 1.1 7.9-4.8 13.5-12 15.9-21 2.6-9.8 0.7-20.6 4.9-30 0.1-0.3-2-1.2-2.3-1-10.5 8.3-20.9 17.8-22.9 31.8-0.1 0.6 2.2 1.2 2.2 1z"/>
	


	
		<path class="st1" d="m535.2 72.9c-1.3-7.7-4.7-14.4-10-20.1-0.2-0.2-1.1-1-1.3-0.4-4.4 11-6.2 22.8-0.5 33.7 0.4 0.7 2.3 1.7 1.5 0.3-5.5-10.4-3.4-22 0.8-32.4-0.4-0.1-0.9-0.3-1.3-0.4 4.8 5.1 7.8 11.2 8.9 18.2 0.2 0.6 2.1 2.1 1.9 1.1z"/>
	


	
		<path class="st1" d="m522.1 76.1c-3-7.8-6.3-15-12.1-21.1-5.4-5.8-11.9-10.3-18.4-14.8-0.4-0.3-1.6-0.6-1.5 0.3 1.1 9.2 1.5 19 4.8 27.7 3.2 8.3 8.1 16.1 13 23.6 0.5 0.7 2.8 1.3 2 0.1-5.1-7.7-10.5-16.1-13.4-24.9-2.8-8.2-3.1-17.4-4.2-26l-1.5 0.3c6.1 4.2 12.3 8.5 17.4 14 5.6 5.9 8.7 12.7 11.6 20.2 0.4 0.8 2.7 1.6 2.3 0.6z"/>
	


	
		<path class="st1" d="m498.4 85.2c0.9-0.3 0.1-0.4-0.3-1.1-0.4-0.8-1.1-1.5-1.6-2.2-1.4-2-2.6-4.2-3.6-6.4-1.7-3.5-2.9-7.1-3.9-10.9-0.7 0.3-1.5 0.6-2.2 0.9 2.6 1.5 4.8 3.3 6.7 5.7 0.5 0.6 2.8-0.2 2.3-0.9-2-2.4-4.3-4.3-7-5.9-0.5-0.3-2.4 0.1-2.2 0.9 1.3 5.3 3.3 10.4 6.2 15.1 1.1 1.9 3 6.9 5.9 6 1.4-0.6 1.2-1.7-0.3-1.2z"/>
	


	
		<path class="st1" d="m488.5 80.8c-7.8-4.5-14.2-10.6-22.8-13.5-3.5-1.2-7.1-1.9-10.8-2.2-4-0.3-9.2 1.3-12.8-0.7-0.2 0.4-0.4 0.9-0.6 1.3 2.5-1.7 6.2-1.4 9.1-1.5 3.4-0.1 6.9-0.3 10.3-0.2 6.1 0.1 10.5 2.4 15.4 5.9 0.7 0.5 2.7-1 1.9-1.6-5.8-4.2-10.6-6.1-17.7-6.1-5.9 0-14.4-1.2-19.6 2.3-0.2 0.2-1.2 1-0.6 1.3 2.8 1.5 5.4 0.9 8.4 0.8 4.9-0.2 9.8 0.4 14.5 1.9 9 2.8 15.5 9.1 23.5 13.7 0.7 0.6 2.7-1 1.8-1.4z"/>
	


	
		<path class="st1" d="m491.5 74.9c-18.9-3-24.4-24.8-33.8-38.4-0.2 0.6-0.4 1.1-0.6 1.7 14.3 1.7 26.2 10.4 34.2 22.1 0.8 1.1 2.7 0.7 1.8-0.6-8.4-12.4-21-21.9-36.1-23.7-1.1-0.1-1.1 1-0.6 1.7 9.8 14.3 15.5 36.2 35.3 39.4 1.5 0.3 1-2-0.2-2.2z"/>
	


	
		<path class="st1" d="m514.2 55.8c-0.6-5.6-0.7-11.2 0-16.9 0.4-3.4 0.6-7.7 2.1-10.8 0.6-1.3 0.8-2.8 2.9-2.1 1.2 0.4 2.7 3.1 3.4 4 7 9.9 7.8 22.3 7 34-0.1 1.3 2.4 1.4 2.5 0 0.5-8 0.4-16.3-2-24-1.7-5.4-5.1-13.4-10.3-16.4-9.7-5.5-8.6 28-8.2 32.1 0.2 1.4 2.7 1.4 2.6 0.1z"/>
	


	
		<path class="st1" d="m511.8 57c-0.1 1.2 0.1 2.4 0.5 3.6 0.3 0.7 2.7 0.2 2.5-0.2-0.5-1.1-0.7-2.3-0.5-3.6 0.1-0.6-2.4-0.6-2.5 0.2z"/>
	


	
		<path class="st1" d="m512.6 49.3c-3.2-10.5-10.7-18.4-17.3-26.9-0.5-0.7-2.7-0.6-2.4 0.6 2 8.5 2.6 19.5 7.9 26.7 0.6 0.9 3 0.2 2.3-0.8-5.1-6.9-5.9-18-7.8-26.2l-2.4 0.6c6.5 8.3 14 16.1 17.1 26.4 0.5 1 2.9 0.6 2.6-0.4z"/>
	


	
		<path class="st1" d="m531.5 46.8c1.9-8.1 3-17.1 6.9-24.5-0.7-0.5-1.4-0.9-2-1.4 0.5 11.3 0.5 22.7 0.1 34 0 0.7 2.1 1.8 2.1 1.2 0.4-11.3 0.3-22.7-0.1-34 0-0.5-1.7-1.9-2-1.4-3.9 7.6-5.1 16.5-7 24.8-0.2 0.6 1.9 1.9 2 1.3z"/>
	


	
		<path class="st1" d="m520.7 121.9c-0.3 2.1 0 4.1 1 6 0.4 0.7 2.7-0.2 2.4-0.7-0.9-1.8-1.3-3.7-1-5.7 0.1-0.7-2.3-0.3-2.4 0.4z"/>
	


	
		<path class="st1" d="m304.4 202.8c7.2-2.8 8.3-11.7 6.4-18.3-1.8-6.2-6.1-11.9-11.8-15.1-12.7-7.1-35.2-1-34.4 16.1 0 0.8 1.7 2.5 1.7 1.1-0.7-14 15.7-19.9 27.3-17.2 6.3 1.4 11.4 5.7 14.3 11.5 3.2 6.5 3 16.7-4.8 19.7-0.7 0.3 0.4 2.5 1.3 2.2z"/>
	


	
		<path class="st1" d="m294.4 203.2c4.9-10.9 2.5-23.2-7.8-29.8-9-5.7-24.6-3-22.6 10.5 1.1 7.1 12.6 17.3 19.4 10.4 5.3-5.4 0-18.9-7.9-14-0.1 0.1 1.6 1.5 2 1.5 3.6-0.3 2.7 6.8 1 8.4-2.5 2.2-6.4 2.5-9.2 0.7-1.5-0.9-0.4 0.3 0.3 0.7 4.1 2.6 13.1 2.9 12.7-4.2-0.2-3.2-3.1-7.5-6.6-7.2 0.7 0.5 1.3 1 2 1.5 5.6-3.5 7 4.3 5.8 7.9-1.1 3-3.5 5.2-6.8 5.3-5.9 0.2-10.8-6.1-10.6-11.7 0.1-2.7 1.1-5.4 2.8-7.5 7-8.3 20.4-2.7 24.3 5.7 3 6.5 2.2 13.9-0.7 20.3-0.3 0.4 1.8 1.6 1.9 1.5z"/>
	


	
		<path class="st1" d="m777.7 144.2c3.8-2.4 6.9-8.9 2.1-12-4.7-3-10.1 1.8-11.4 6.2-1.6 5.6 1.8 9.4 6.8 11.4 3.3 1.3 6.9 1.8 10.4 1.7 5.2 0 12.8-2.9 16.9 1.3 0.7 0.7 2.8 0.8 1.7-0.4-5-5.1-11.6-2.9-18-2.6-2.8 0.1-6 0.2-8.7-0.8-2.3-0.8-6.8-4.5-7.2-6.9-0.2-1.2 0.3-2.7 0.8-3.8s1.1-1.9 1.9-2.8c1.9-2.1 1.7-1.9 4.5-0.1 2.6 1.7 2.9 1.9 1.4 4.4-0.8 1.2-1.9 2.2-3.1 2.9-0.8 0.6 1.2 2 1.9 1.5z"/>
	


	
		<path class="st1" d="m90.5 67.3c8.3 9.4 1.1 21.2-5.7 29 0.8 0 1.6-0.1 2.5-0.1-4.6-10-4.2-22.2 5.3-29.2h-2.3c0.2 8.1 3 18-4.1 24.1h2.3c-0.8-5.6 2-11.7 2.2-17.4 0.1-2.1 0.3-3.8-2.3-3.3-2.8 0.5-2.9 4.1-3.2 6.4-0.8 5.2-1.7 11.9 0.7 16.8 0.2 0.5 2.5 0.4 2.5-0.2 0-4.2 0.4-8.4 1.2-12.5 0.7-3.8 1.9-7.3 0.4-11.1-0.8 0.1-1.7 0.2-2.5 0.2 3.5 6.3 3.3 13.4-0.6 19.6h2.4c2-4.9 3.5-9.8 4.5-15-0.8 0.1-1.7 0.2-2.5 0.2 1.4 3.6 1.4 6.8-0.2 10.3-0.2 0.5 2.2 0.5 2.4 0 1.6-3.6 1.7-6.9 0.3-10.5-0.2-0.5-2.4-0.3-2.5 0.2-1 5.1-2.4 10-4.4 14.8-0.2 0.5 2.1 0.5 2.4 0 3.9-6.1 4.2-13.4 0.6-19.8-0.3-0.6-2.6-0.1-2.5 0.2 1.6 3.8 0.4 7.3-0.4 11.1-0.8 4.1-1.1 8.3-1.2 12.5 0.8-0.1 1.7-0.2 2.5-0.2-2.8-5.7-1.2-13.5-0.2-19.5 0.7-3.6 0 0.6-0.2 2-0.2 1.8-0.5 3.7-0.8 5.5-0.5 3.3-1.8 6.7-1.3 10 0.1 0.6 2.1 0.2 2.3 0 7.3-6.2 4.7-16.1 4.4-24.5 0-0.6-2.1-0.2-2.3 0-9.6 7.1-10.3 19.3-5.6 29.6 0.3 0.6 2.1 0.3 2.5-0.1 6.9-7.9 14.2-19.8 5.7-29.4-0.3-0.6-2.6 0-2.3 0.3z"/>
	


	
		<path class="st1" d="m84.4 98.8c-8.1 35-16.1 71.3-34.5 102.6-0.4 0.7 1.8 1.8 2.3 1 18.4-31.3 26.5-67.6 34.5-102.6 0.2-0.9-2.1-1.8-2.3-1z"/>
	


	
		<path class="st1" d="m75.6 107.4c1.6-4.6 3.2-9.6 1.7-14.5-1.3-4.4-5.1-7.9-7.3-11.9-0.4-0.8-1.8-1.2-2.1-0.1-2.6 9.6-2.6 18.2 6.5 24 1.4 0.9 2.3-1 1.1-1.8-8.2-5.3-7.8-12.8-5.4-21.3-0.7 0-1.4-0.1-2.1-0.1 1.7 3.2 4.2 5.8 5.9 8.9 2.8 5.1 1.1 10.6-0.6 15.8-0.3 1.3 1.8 2.5 2.3 1z"/>
	


	
		<path class="st1" d="m68.2 83.4c0.7 6.6 2.7 12.8 5.8 18.7 0.3 0.5 2 2 1.3 0.7-3-5.6-4.8-11.5-5.4-17.8-0.2-0.6-1.8-2.2-1.7-1.6z"/>
	


	
		<path class="st1" d="m70.6 86.7c1.6 4.3 2.6 8.6 3.1 13.2 0.1 0.7 1.7 2.5 1.7 1 0-4-0.9-12.8-5.6-14.3-0.4-0.1-0.6 0.2-0.5 0.6 0.6 4.9 1.8 9.6 3.6 14.1 0.2 0.5 1.6 1.8 1.5 0.5-0.3-4-1-7.9-2-11.8-0.4-1.6-0.7-3.5-2.5-4.1-0.2-0.1-0.4 0-0.5 0.1-3.3 4.8 0.1 12.7 3.5 16.4 0.3 0.3 1.3 0.9 1.2-0.1-0.8-4.4-1.8-8.8-3-13.1-0.5-0.1-1-0.1-1.5-0.2 0.9 2.3 1.6 4.5 2.1 6.9 0.1 0.7 1.8 2.5 1.7 1-0.1-0.8-0.1-5.4-0.6-5.8 1.6 1.1 1 5.7 0.7 7.2 0.6 0.4 1.1 0.8 1.7 1.3-0.1-1.9-0.3-3.8-0.4-5.8 0-0.5-1.5-2.4-1.7-1.3-0.5 4-0.6 7.9-0.5 11.9 0.3-0.1 0.6-0.2 1-0.3-3.1-3.2-3.2-7.6-3.3-11.7 0-0.8-1.7-2.4-1.7-1 0.1 5.4 0.8 10.4 4.7 14.4 0.4 0.4 1 0.4 1-0.3-0.2-3.8 0-7.6 0.5-11.4-0.6-0.4-1.1-0.8-1.7-1.3 0.1 1.9 0.3 3.8 0.4 5.8 0 0.5 1.5 2.4 1.7 1.3 0.4-2.8 0.6-8.8-2.2-10.8-3.4-2.4-1.4 5.7-1.3 6.7 0.6 0.3 1.1 0.7 1.7 1-0.5-2.8-1.3-5.4-2.4-8-0.3-0.7-1.9-1.7-1.5-0.2 1.2 4.2 2.1 8.4 2.9 12.6 0.4 0 0.8-0.1 1.2-0.1-1.5-1.7-2.7-3.6-3.2-5.9-0.2-0.7-1-5.9 0.1-6.3 0.5-0.2 2 9.9 2.2 11.6 0.5 0.2 1 0.3 1.5 0.5-0.7-1.9-1.4-3.8-1.9-5.8-0.3-1.2-1.6-4.4-1.1-5.4-0.2-0.9-0.1-0.9 0.5 0.2 0.5 1.1 1 2.2 1.3 3.4 0.6 2.1 0.7 4.1 0.8 6.2 0.6 0.3 1.1 0.7 1.7 1-0.6-4.9-1.7-9.6-3.4-14.3-0.6-0.7-2.1-1.1-1.5 0.4z"/>
	


	
		<path class="st1" d="m79.8 124c-4.6-8.9-10.8-16.7-18.6-23.1-0.7-0.6-2.8 0.8-1.9 1.5 7.6 6.3 13.8 13.9 18.3 22.8 0.5 0.9 2.7-0.3 2.2-1.2z"/>
	


	
		<path class="st1" d="m62.3 99.1c-2.8-1.9-5.1-4.4-6.7-7.4-0.7-1.4-3.5-7-1.6-8.3h-2.3c7.4 2 8.7 9.1 8.4 15.6 0 0.2 2.5 0.3 2.5 0 0.2-4.4 0.3-9.1-3.1-12.4-1.7-1.6-4.3-3.7-6.9-3.5-3.1 0.2-1.2 4.4-0.5 6.2 1.5 4 4.3 7.3 7.8 9.7 0.6 0.5 2.3-0.1 2.4 0.1z"/>
	


	
		<path class="st1" d="m52.7 83.2c0.9 2.1 2.3 3.9 3.4 5.8 1.7 2.8 2.8 5.9 3.6 9 0.1 0.5 1.6 2 1.5 1.6-0.6-2.4-1.4-4.8-2.5-7.1-1.3-2.7-3.4-5.1-4.6-7.8-0.1-0.4-1.5-1.8-1.4-1.5z"/>
	


	
		<path class="st1" d="m55.1 85.1c-3.2 1.2 2.3 11.4 5.7 10.6 0.3-0.1 0.3-0.4 0.3-0.7-0.3-2.5-1.1-4.9-2.4-7.1-0.8-1.3-2.5-4.2-4.4-4-4 0.5 2.1 8.9 3.1 10 0.3 0.3 1.5 1.1 1.5 0.1 0-2.8-1-5.3-2.8-7.5-1-1.2-2.1-0.2-1.1 0.9 1.3 1.6 1.9 3.4 1.9 5.4 0.5 0 1 0.1 1.5 0.1-1-1.1-1.8-2.2-2.5-3.5-0.4-0.7-1.7-3.5 0.1-2.7 0.9 0.4 1.7 2.6 2.1 3.5 0.5 1.3 0.8 2.7 1 4 0.1-0.2 0.2-0.5 0.3-0.7-1.4 0.3-4.2-6-3.1-6.4 1.2-0.4-0.3-2.4-1.2-2z"/>
	


	
		<path class="st1" d="m53.3 98.8c-7.7-6.4-17-9.9-27-9.9 0 0.1 0 0.1 0.1 0.2 5.9 10.1 17.3 20.7 28.7 10.3 0.2-0.2-1.5-1.7-1.7-1.8-7.1-3.9-16.1-4.8-23.9-6.6-0.2 0 0.1 0.3 0.1 0.3 2.3 2.8 13.7 14.1 16.5 9 1-1.8-1.1-4-2.3-5.2-3-2.9-7.1-4-11.1-4.5h-0.1c-0.1 5.1 10 8.4 13.6 9.1 0.1 0-0.6-0.9-0.7-1-3.7-3.8-7.9-5.7-13.1-6.9-0.2 0 0.1 0.3 0.1 0.3 3.2 4.1 6.9 7.2 11.8 9.1 0.2 0.1-0.5-0.7-0.5-0.8-2.1-2.3-10.4-11.1-13.6-8.8v0.1c1.4 3.8 6.3 7.1 9.6 9.2 0.2 0.1 0.2 0.1 0.1-0.1-2.5-4-5.6-7.4-9.4-10.2 0-0.1-0.1-0.1-0.2-0.1-1.5 3.4 5.4 8.6 7.8 10.3 0.2 0.1 0.2 0.1 0.1-0.1-2.5-3.7-5.4-6.9-8.8-9.7 0 0-0.4-0.3-0.3-0.1 0.9 2.2 2 3.9 3.6 5.7 0.2 0.2 1.4 1.3 1.1 0.9-1.4-2.2-3-4.3-4.7-6.3-0.2-0.3-1.4-1.1-1.4-1.2 1.6 4 5 6.4 8.6 8.5-0.4-0.2-1-1.4-1.6-1.8-2-0.9-3.6-2.3-4.9-4.1 0.5 0.8 1.1 1.5 1.6 2.3 5.9 0.7 7.8 2 5.7 3.8-1.3-1.8-2.6-3.5-4-5.3 0.4-0.4 4.9 2.4 5.3 2.8 7 5.3 0.6 2.1-0.8 0.8-7.1-6.2 5.5-0.7 5.4 0.7 0 0.1-3.9-1.3-4.5-1.6-2.6-1.3-4.5-4-0.6-2.9 1.9 0.5 3.6 1 5 2.5 1.6 1.7 2.3 3.7-0.6 3.9-1.5 0.1-3.1-0.8-4.4-1.4-1.1-0.5-2.1-1.1-3.1-1.8-2.6-2.6-3-3.5-1-2.8 1.5-0.3 4.2 0.9 5.7 1.3 1.9 0.4 3.7 0.8 5.6 1.2 3.4 0.8 6.6 1.7 9.7 3.4-0.6-0.6-1.1-1.2-1.7-1.8-2.9 2.7-6.4 4.3-10.3 4.3-1.9 0-3.8-0.4-5.5-1.1-2.6-1.1-4.7-2.9-6.3-5.2-0.9-1.2-1.7-2.4-2.4-3.6 1.2-2.9 9.4-0.1 12 0.7 5.1 1.6 9.6 4.2 13.7 7.6 0.9 0.4-0.7-1.4-1-1.6z"/>
	


	
		<path class="st1" d="m40.1 96.2c-1.5 0.3-2.9-0.1-4.2-1.2-0.2 0.6-0.5 1.1-0.7 1.7 1.1-0.1 6.3 0.5 6.3 2.5-2 0.2-3.7-0.4-4.9-1.8-2.3-1.9-2.4-2.5-0.2-1.6 1.2 0.6 2.4 0.5 3.5-0.4 1.1 0.3 2.2 0.7 3.1 1.3 1.9 1 3.5 2.3 5 3.8 0.4-0.6 0.7-1.2 1.1-1.8-1.7-1.1-3.4-2.1-5.1-3.2-0.2 0.7-0.3 1.4-0.5 2.1 2.6 0.6 5.1 1.3 7.7 1.9 0.1-0.7 0.1-1.5 0.2-2.2-1.5-0.4-3.1-0.7-4.6-1.1-0.1 0.7-0.1 1.5-0.2 2.2l3 0.6c-0.3-0.6-0.6-1.3-0.8-1.9-0.9 1.1-3.3 2.5-4.7 1.9-0.1 0-0.3-0.7-0.5-0.8-1.1-0.7-1.9-1.8-3-2.4-1.3-0.8-2.8-1.4-4.2-2-1.8-0.8-6.4-1.6-7.4-3.3-0.3 0.5-0.6 0.9-0.9 1.4 2.3 0.1 4.7 2.3 6.8 3.4 1.4 0.7 2.1-1.3 0.8-2-2.9-1.5-4.6-3.6-8-3.7-0.7 0-1.2 0.8-0.9 1.4 1.2 2 3 2.5 5.1 3.3 1.7 0.6 3.5 1.2 5.2 2 2.1 0.9 3.1 2.2 4.8 3.6 2.8 2.2 6.3 1.8 8.7-1.2 0.5-0.7 0-1.8-0.8-1.9l-3-0.6c-1.6-0.3-1.6 1.9-0.2 2.2 1.5 0.4 3.1 0.7 4.6 1.1 1.6 0.4 1.6-1.8 0.2-2.2-2.6-0.6-5.1-1.3-7.7-1.9-1.5-0.4-1.5 1.4-0.5 2.1 1.7 1.1 3.4 2.1 5.1 3.2 1.3 0.8 2-0.9 1.1-1.8-2.6-2.7-7.6-6.7-11.7-6-2.8 0.5-3.4 2.9-2 5.1 0.9 1.5 4.3 4.3 5.6 1.6s-3-6.9-5.2-7.7c-2-0.8-4.1-0.3-4 2.3 0.2 3.1 4.8 6.5 7.4 7.5 2.2 0.9 5.6 0.8 4.7-2.4-1-3.7-6-5.3-9.3-5-0.9 0.1-1.2 0.9-0.7 1.7 1.6 2.2 3.7 2.5 6.4 2.4 1.5 0 0.9-2.3-0.5-2.2z"/>
	


	
		<path class="st1" d="m64.6 107.8c-4.9-2-10-1.9-15-0.2-2.9 1-5.7 2.4-8.3 4-2 1.3-2.1 1-1.1 2.6 1.7 2.9 8.9 3.7 11.9 3.5 6.7-0.5 9.8-5.1 12.3-10.8 0.2-0.5-2-0.7-2.3-0.6-2.8 1.2-5.5 2.5-8.2 3.9-1.8 0.9-5.7 2-6 4.3 0 0.1 0.1 0.2 0.1 0.2 3.2 1.9 7.9 1.1 10.1-2.1 3-4.2-1.7-5.1-5-4.4-2.3 0.5-9.4 5.2-5.2 6.9 4.1 1.7 11.9-3.3 12.8-7.1 0-0.1-0.1-0.2-0.1-0.2-4.2-2.5-9.6-0.1-11.7 3.9-0.2 0.4 1.6 0.6 1.8 0.6 2.3 0 9.6-1.3 8.5-4.8-0.1-0.4-1.5-0.5-1.8-0.5-3.1 0-5.8 2.3-7.7 4.6-0.4 0.5 1.8 0.7 2 0.7 2.8-0.2 4.7-1.1 6.6-3.1 0.5-0.5-1.9-0.7-2.2-0.6-1.9 0.5-3.5 1.4-4.5 3.1l-0.6 1.2c-0.1 1.2-0.6 1.3-1.7 0.2 0 0.2 2.4-1.8 2.3-1.8 0.5-0.4-1.8-0.7-2-0.7-2.7 0.4-4.5 1.3-6.4 3.4-0.4 0.4 1.9 0.9 2.3 0.6 2-1.4 3.3-2.9 4.5-5 0.2-0.4-2-0.7-2.3-0.6-2.4 1-4.5 2.3-6.5 4.1-0.3 0.2 0.4 0.5 0.5 0.5 4.4 1.7 8.8 2.2 13.5 1.6-0.6-0.3-1.2-0.5-1.9-0.8-2.8 1.3-7.2 1-10.2 0.3-0.2-0.1-2.1-0.2-1.5 0.3 2.2 1.8 5.2 2.4 7.8 1.2 2.7-1.2 3.7-3.8 5.5-5.8 2.5-2.7 5.1-3 8.5-4.1 0.1 0 0.2-0.1 0.2-0.2-1-4.2-10.5 0.2-12.4 1.4-0.5 0.3 1.6 0.7 1.7 0.7 3.7-0.3 7.2-0.9 10.7-2-0.8-0.2-1.5-0.4-2.3-0.6-0.4 0.8-0.7 1.5-1.1 2.3-0.3 0.4 2 1.1 2.3 0.6 1-1.4 0.7-0.8 1.2-2.5 0.2-0.6-2-0.6-2.3-0.6-3.2 1-6.4 1.6-9.7 1.9 0.6 0.2 1.2 0.5 1.7 0.7 1.1-0.8 2.2-1.5 3.5-1.9 1.4-1.2 2.3-1.4 2.5-0.5 0.1 0.1 0.1 0.2 0 0.2-1.1 0.7-2.7 0.7-3.9 1.4-2.8 1.6-7.7 11.2-11.8 7.7l-1.5 0.3c4.4 1.1 8.8 1.8 13-0.2 0.8-0.4-1.6-0.8-1.9-0.8-1.6 0.2-9.7 0.6-8.8-1.8 0.4-1.2 4.4-2.7 5.1-3-0.8-0.2-1.5-0.4-2.3-0.6-1.2 2.1-2.5 3.5-4.4 4.8 0.8 0.2 1.6 0.4 2.3 0.6 1.7-1.9 2.9-2.7 5.7-3.2-0.7-0.2-1.3-0.5-2-0.7-0.9 1-2 1.7-3.3 2.2-0.1 0-0.3 0.1-0.2 0.3 1.3 1.4 2.7 2.6 4.8 2.5 0.8 0 1.5-0.1 2.1-0.7 0.5-0.5 0.4-1.1 0.7-1.7 1.1-2.2 2.2-3.3 4.7-4-0.7-0.2-1.5-0.4-2.2-0.6-1.7 1.8-3.4 2.7-5.9 2.9 0.7 0.2 1.3 0.5 2 0.7 1.5-1.7 4-4.3 6.5-4.3-0.6-0.2-1.2-0.3-1.8-0.5 0.9 3-6.3 4.2-7.2 4.2l1.8 0.6c0.5-1.1 1.1-2 2-2.7 1.1-1.1 2.4-1.1 3.9 0.1 0 0.7-2.7 2.5-3.2 2.8-1.2 0.8-2.4 1.3-3.7 1.7-1.3 0.5-1.7 0.3-1.1-0.5-0.4-1.4 3.5-4.1 4.6-4.3 4.3-0.6 2.4 2.3 1.1 3.6-0.8 0.8-1.7 1.4-2.8 1.7-1.5-0.9-1.4-1.6 0.4-2 1.1-1.2 4.4-2.3 5.6-2.9 1.9-1 3.9-1.9 5.9-2.7-0.8-0.2-1.5-0.4-2.3-0.6-1 2.4-2.1 5-3.9 6.9-1 1.1-2.1 1.9-3.5 2.4-1.7 0.7-11.3 1.1-12.1-1.6-0.6-2.1 3.6-3.4 5.2-4.1 4.9-2.4 10.1-4 15.7-1.8 1.2 0.5 3.4 0.5 1.9-0.1z"/>
	


	
		<path class="st1" d="m93 106.6c-0.6-3.2 0.2-6.3 2.1-8.9 0.5-0.6 5.1-5.8 5.8-5.3 0.6 0.4 0 3.7-0.2 4.2-0.4 1.3-1 2.5-1.8 3.6-1.8 2.3-4.3 3.8-6.9 5-1.2 0.5-0.1 2.7 1 2.2 3.8-1.6 7.3-4 9.1-7.8 1-2.3 2.1-7.3-0.2-9.2s-5.9 2.5-7.3 4.1c-3 3.4-4.5 7.6-3.6 12.1 0.2 1.1 2.3 1.6 2 0z"/>
	


	
		<path class="st1" d="m99.3 92.1c-0.3 4.8-4.5 7.8-6.3 12-0.2 0.6 1.5 2.2 1.7 1.7 1.8-4.2 6-7.2 6.3-12 0.1-0.7-1.7-2.1-1.7-1.7z"/>
	


	
		<path class="st1" d="m97.3 92.8c-2.5 2.9-4 6.4-4.2 10.2 0 0.7 1.3 2 1.3 2 0.2-3.8 1.6-7.2 4.1-10.1 0.4-0.3-1.1-2.2-1.2-2.1z"/>
	


	
		<path class="st1" d="m81.3 127.9c-0.4-3.8 7.1-9.2 9.8-11.3 4.4-3.4 9.4-5.9 14.6-7.6 1.5-0.5 0.8-2.5-0.6-2.1-5.9 1.9-11.5 4.7-16.4 8.6-3 2.4-10.4 8-9.9 12.3 0.1 1.4 2.6 1.5 2.5 0.1z"/>
	


	
		<path class="st1" d="m89.2 119.2c2.6-1.7 5.4-2.5 8.5-2.1 1.9 0.3 8 2.1 8.5 4.5 0.4 1.9-2.5 2.7-3.7 2.9-1.6 0.2-3.1 0.3-4.7 0-3.9-0.7-7.1-3.2-9.3-6.5-0.3 0.5-0.6 0.9-0.9 1.4 4.9-0.6 11.7-1 14.8 3.7 0.1-0.5 0.1-1 0.2-1.5-3.2 1.9-9.1-2.2-11.6-3.9-0.2 0.6-0.3 1.2-0.5 1.9 4-0.5 10.1-0.6 13 2.8 0.2-0.5 0.5-1.1 0.7-1.6-2.3 0.3-4.2-0.3-5.8-2.1v1.3c0.5-0.4 5.5 0.6 3 1.4-1.2 0.4-2-0.2-3.2-0.8-2.3-1-4.5-2-6.8-3-1.2-0.5-2.3 0.9-1.1 1.7 1.5 1.1 5.1 2.6 5.9 4.4 0.4-0.5 0.8-0.9 1.2-1.4-2.4-0.6-4.4-1.5-6.5-2.8-1-0.7-2.5 0.1-1.7 1.3 4.1 5.8 12.3 4.4 18.4 3.5 1.6-0.2 1-2.4-0.4-2.2-5 0.7-12.6 2.3-16-2.5-0.6 0.4-1.1 0.9-1.7 1.3 2.4 1.5 4.9 2.7 7.7 3.4 0.8 0.2 1.6-0.6 1.2-1.4-1.1-2.5-4.5-3.9-6.7-5.3-0.4 0.6-0.8 1.2-1.1 1.7 1.7 0.8 14.2 8.2 14.8 2.8 0.4-3.4-6.6-6-8.9-3.8-0.4 0.3-0.3 1 0 1.3 2.2 2.4 4.9 3.5 8.1 3.1 0.8-0.1 1.4-0.9 0.7-1.6-3.5-4.1-10.3-4.5-15.3-3.8-1 0.1-1.4 1.2-0.5 1.9 3.7 2.6 10.1 6.8 14.6 4.2 0.6-0.3 0.5-1 0.2-1.5-3.6-5.5-11.3-5.4-17.2-4.7-0.6 0.1-1.4 0.7-0.9 1.4 2.9 4.4 7.2 7.6 12.6 8.1 2.4 0.3 10 0 10.8-3.2s-5.7-6.7-8-7.6c-4.7-1.9-9.8-1.4-14 1.4-1.2 0.9 0.5 2.6 1.6 1.9z"/>
	


	
		<path class="st1" d="m107.3 107.1c5.9-4.4 9.7-11.4 11.3-18.5 0-0.1 0-0.1-0.1-0.1-2.7-0.3-5.4 3-6.9 4.7-3.6 4.1-5.9 9-6.9 14.3 0 0.1 2.1-0.4 2.2-1 0.5-2.9 1.4-5.7 2.8-8.3 0.7-1.3 1.4-2.6 2.3-3.7 0.2-0.2 3-4.1 3.6-4 1.6 0.4-1.9 7.2-2.5 8.3-1.9 3.4-4.3 6.6-7.4 8.9-0.9 0.5 1.3-0.4 1.6-0.6z"/>
	


	
		<path class="st1" d="m115 90.2c-3.2 5.1-5.8 10.4-7.9 16-0.3 0.8 1.4 2.5 1.7 1.7 2-5.6 4.7-11 7.9-16 0.5-0.7-1.2-2.6-1.7-1.7z"/>
	


	
		<path class="st1" d="m111.3 93.3c-2.3 3.8-4.1 7.9-5.5 12.1-0.3 1 2.1 1.6 2.4 0.6 1.4-4.1 3.1-8 5.3-11.7 0.7-1-1.7-1.8-2.2-1z"/>
	


	
		<path class="st1" d="m106.8 113c1.3-2.1 3.1-3.9 5.6-4.5 2.6-0.6 7.3 1.1 7.4 4.2 0.1 1.5-0.7 1.7-2.1 2-1.2 0.3-2.6 0.4-3.9 0.2-2.6-0.3-6.6-2.2-7.9-4.6 0 0.4 0.1 0.7 0.1 1.1 1.1-1.3 3.4-1.7 5-1.6 1 0.1 2.2 0.2 3 0.8 1.3 1 2.3 3-1.2 1.8-3.8-1.3-0.4-3.3 1.9-2.6 1.8 0.5 2.2 3.1-0.2 2.1-0.8-0.5-1.6-1.1-2.4-1.6 1.7 0.1 3 0.7 4 1.8-0.2-0.5-0.4-1.1-0.6-1.6-1.2 1.2-7.1-0.4-8.7-0.6-1.2-0.1 0 1.7 0.4 1.9 2 0.9 3.7 0.9 5.8 0.5-0.4-0.7-0.9-1.4-1.3-2-0.9 0.3-1.7 0.5-2.6 0.8-1 0.3 0.4 1.9 0.9 2 1 0.3 1 0.3 2.1 0.3 1.2 0-0.1-2.1-0.9-2.1-0.5 0-1.1-0.1-1.6-0.1 0.3 0.7 0.6 1.3 0.9 2 0.9-0.3 1.7-0.5 2.6-0.8 1-0.3-0.5-2.2-1.3-2-1.5 0.3-3 0.5-4.4-0.2 0.1 0.6 0.3 1.3 0.4 1.9 2.3 0.3 4.6 0.7 6.9 0.9 1 0.1 1.8 0.3 2.6-0.5 0.5-0.5-0.2-1.3-0.6-1.6-1.5-1.4-4.5-3.9-6.6-2.1-0.2 0.1-0.2 0.4-0.1 0.6 0.7 2.2 3 3.9 5.1 4.6 1.9 0.7 5.3 0.8 4.5-2.2-0.9-3.7-11.2-6-11.1-1.7 0.1 3.6 10.1 7.1 9.4 2.8-0.3-2.3-3.9-4.1-5.8-4.7-2.3-0.7-6.1-0.7-7.7 1.4-0.3 0.4-0.1 0.8 0.1 1.1 1.6 3 6 5.4 9.2 6.1 2.4 0.5 9.3 0.5 8.6-3.3-0.5-2.9-4.8-6.2-7.5-7-4.2-1.2-7.8 1.5-9.9 4.9-0.5 0.8 1.3 2.5 1.9 1.6z"/>
	


	
		<path class="st1" d="m116.3 102.7c3.2-5.1 10.6-8.1 16.1-4.5-0.5-0.5-1-0.9-1.6-1.4 1.4 4.1-4.5 4.6-7 4.7-3.1 0.1-6.3 0.5-9.3-0.1 0.6 0.5 1.2 1.1 1.8 1.6 2.4 0.1 4.8-0.2 7.1-0.9 1.7-0.5 5.3-1.4 6.1-3.2 0-0.1 0-0.1-0.1-0.2-3-4-8.3-1.3-11.5 1.4-0.2 0.2 1.6 1.5 1.9 1.6 3 0.7 8.6 0.9 10.7-1.9 0-0.1 0-0.1-0.1-0.2-1-1.3-2.2-2-3.7-2.4 0.6 0.5 1.2 1.1 1.8 1.6 0.9 0 1.3-0.1 2-0.8 0.2-0.2-1.6-1.5-1.9-1.6-0.6-0.3-1.3-0.5-2-0.5 0.2 0 1.1 1.6 1.8 1.6s1.4 0.1 2 0.5c-0.6-0.5-1.2-1.1-1.9-1.6-0.4 0.6-1.1 0.8-1.9 0.7 0.1 0 1.2 1.5 1.8 1.6-0.9-0.2-3 1.1-4.2 1.4-2.1 0.5-4.2 0.3-6.3-0.2 0.6 0.5 1.2 1.1 1.9 1.6 2.4-2.1 5.9-3.9 9.2-3.4-0.6-0.5-1.2-1-1.8-1.4 1 1.4-3.9 3-4.7 3.2-2.6 0.9-5.3 1.2-8 1.2 0.1 0 1.2 1.5 1.8 1.6 3.8 0.7 8.9 0.6 12.7-0.1 2.5-0.5 5.3-2.9 3.1-5.3-1.7-1.8-5-2.4-7.3-2.4-4.4 0-8.2 2.2-10.5 5.9-0.1 0.6 1.9 2.1 2 1.9z"/>
	


	
		<path class="st1" d="m118.1 141.1c-13.9 12.4-29.6 23.3-48.7 24.6-0.7 0-1.8 1.2-2.1 1.2 20.5-1.4 37.9-13.3 52.8-26.7 0.1-0.1-1.7 0.6-2 0.9z"/>
	


	
		<path class="st1" d="m84.8 163.9c-2.8-6.3 0.7-14.5 5.8-18.7 0.5-0.4-1.6-1.7-2-1.3-5.3 4.3-9 12.5-6 19.1 0.3 0.6 2.4 1.2 2.2 0.9z"/>
	


	
		<path class="st1" d="m89 144.5c1.6 3 1.5 6.5 0.6 9.7-1 3.4-3.4 4.7-6.5 5.7-1.4 0.5-0.2 2.6 1.1 2.2 3.7-1.2 6.5-2.9 7.7-6.8 1.1-3.8 1.2-7.9-0.7-11.4-0.8-1.3-3-0.8-2.2 0.6z"/>
	


	
		<path class="st1" d="m89.5 144-6.3 15c-0.4 1 1.6 2.4 2.1 1.3l6.3-15c0.4-1.1-1.6-2.5-2.1-1.3z"/>
	


	
		<path class="st1" d="m87.5 145.6c-2.8 3.7-3.2 8.4-3.4 12.9-0.1 1.3 2.4 1.7 2.5 0.3 0.2-4.2 0.5-8.4 3.1-11.9 0.8-1.2-1.4-2.4-2.2-1.3z"/>
	


	
		<path class="st1" d="m89 147.5c0.1 4.2-1.3 8-4.1 11.2-0.8 0.9 0.6 2.9 1.5 1.9 3.1-3.6 4.7-8 4.6-12.7 0.1-1.3-2-2-2-0.4z"/>
	


	
		<path class="st1" d="m87.1 152.2c0.2 3.9-1.3 7.4-4.3 9.9-1.2 1 0.8 2.2 1.8 1.4 3.4-2.8 5.2-6.9 5-11.3 0-1.5-2.5-1.4-2.5 0z"/>
	


	
		<path class="st1" d="m85.6 159.4c-0.3 1.4-1 2.6-1.9 3.6-0.3 0.4-0.2 0.7 0.3 0.7s1.3-0.3 1.6-0.7c1.1-1.3 1.9-2.7 2.3-4.3 0.1-0.5-0.9-0.3-1.1-0.3-0.4 0.1-1.1 0.4-1.2 1z"/>
	


	
		<path class="st1" d="m99.6 146.2c3-1.9 3.4-5.3 3.1-8.6-0.2-1.8-0.4-3.3-2.6-3-2 0.2-3.9 3-4.7 4.7-1.2 2.6-1.3 5.4-0.4 8 0.2 0.5 2.5 0.7 2.4 0.4-0.8-2.4-0.8-4.9 0.2-7.2 0.4-1 1-2 1.7-2.9 0.4-0.5 0.9-1 1.4-1.4 0.4-0.3 1.6-0.7 0.7-0.8-0.5-0.2-1-0.4-1.4-0.6 1.4 3.4 0.5 8.6-2.7 10.6-0.2 0.2 1.7 1.2 2.3 0.8z"/>
	


	
		<path class="st1" d="m98.9 137.1c-0.2 3.9-1.3 7.5-3.2 10.8-0.5 0.9 1.5 2.4 2.1 1.3 2-3.5 3-7.3 3.2-11.3 0.1-1-2.1-2.2-2.1-0.8z"/>
	


	
		<path class="st1" d="m97.7 139.6c-0.8 3.3-1.5 6.7-2.3 10 0-0.2 2.2-0.3 2.3-0.9 0.8-3.3 1.5-6.7 2.3-10 0 0.2-2.2 0.3-2.3 0.9z"/>
	


	
		<path class="st1" d="m96 140.7c-0.6 2.4-1 4.9-1.1 7.4-0.1 1.3 2.3 2.1 2.3 0.6 0.1-2.3 0.4-4.6 0.9-6.8 0.5-1.4-1.7-2.6-2.1-1.2z"/>
	


	
		<path class="st1" d="m99.6 141.8c-0.3 2.5-1.6 4.7-3.7 6.1-0.6 0.4 1.5 1.7 2.1 1.2 2.1-1.5 3.5-3.8 3.9-6.4 0.1-0.8-2.2-1.5-2.3-0.9z"/>
	


	
		<path class="st1" d="m95.8 159.2c2.3-3 9.2-2.4 12-0.9 3.1 1.7 1.7 3-0.6 4.6-5.6 3.9-12 0.9-15.1-4.1-0.7 0.2-1.5 0.4-2.2 0.6 3.2 1.7 6.7 2.3 10.3 2 1.9-0.2 6.1-0.5 6.3-2.9 0-0.1-0.1-0.2-0.2-0.2-3.1-1.7-9.8-0.9-12.2 1.9-3.2 3.8 6.7 3.4 8.6 2.9s7.7-4.1 3.5-5.3c-2.1-0.6-11.5 0.6-8.9 4.4 1.6 2.3 10.5 1.7 11.9-0.7 2.2-3.8-6.3-3.1-8-2.4-3 1.2-6.2 5.8-1.1 6.1 2.1 0.1 11-2.5 8.8-5.9-1.6-2.5-9.6-0.6-10.8 1.6-1.9 3.7 7.3 2.5 8.3-0.5 0.1-0.2 0-0.2-0.2-0.3-2-1.3-5 0-6.7 1.2-0.4 0.3 0.3 0.5 0.5 0.5 1.7 0.2 3.1 0 4.4-1.2 0.7-0.6-1.8-0.5-2.2-0.2-1.3 0.8-1.6 1.5-1.9 2.9-0.1 0.4 1.2 0.3 1.3 0.3 1.2-0.1 1.6-0.2 2.5-1 0.1-0.1 0.2-0.3 0.1-0.4l-0.9-0.6c-0.6-0.4-2.7 0.3-2.4 0.5 0.2 0.2 0.3 0.4 0.5 0.5 0.4 0.1 0.9 0.2 1.3 0.3 0.5-0.8 1.1-1.6 1.6-2.4-0.7-0.1-1.5-0.1-2.2-0.2 0.4-2 1.7-1.7 4 0.9l-1.4 1.4c-4.9 0.7-6.2 0-3.8-2.1-0.2 2.2 0.4 2.5 2 0.8 3.8-1.8 2-2.5-5.6-1.9 5.9 0.3 6.7 0.5 2.5 0.8-3.1 0.3-5.3-0.1-8.1-1.5-0.4-0.2-2.6 0-2.2 0.6 4.4 7.2 15.8 9 21.6 2.1 3-3.6-4.2-5-6.9-5.2-3.6-0.2-8.7-0.1-11.1 3 0 0.4 2.3 0.5 2.7 0z"/>
	


	
		<path class="st1" d="m104.9 151.7c-0.2-3.6 1.2-6.6 3.2-9.6 0.6-1 1.3-2 2.1-2.9 0.7-0.9 1.4-1.7 2.2-2.4 1.8-1.4 2.8-1.1 3 0.8 3.7 6.1-8.7 13.4-12.6 15.7 0.5 0.4 0.9 0.8 1.4 1.2 3.4-2.7 6.8-5.6 8.6-9.6 0.8-1.7 2.6-6.3 0-7.3-2.3-0.8-4.7 2.8-5.7 4.3-2 3.1-4 6.6-3.5 10.3 0.1 0.6 1.1 0.5 1.5 0.4 2.6-0.8 4.3-3.6 5.8-5.8 1.6-2.5 4-6 4-9.1 0-0.4-0.2-0.6-0.6-0.7-4.8-1.6-8.2 7.3-9.1 10.5-0.1 0.4 0.1 0.8 0.5 0.9 1.8 0.4 2.6-0.5 3.9-1.8 2.6-2.8 4.8-5.9 6.7-9.1 0.8-1.4-1.4-1.3-2.1-0.6-1.9 2-3 4.1-3.7 6.7-0.3 1.2 1.4 1.1 2 0.6 2.5-2.1 3.5-5 2.7-8.2-0.2-0.7-1.3-0.6-1.8-0.3-1.2 0.8-1.8 1.4-2 2.9-0.1 1 1.6 0.8 2.1 0.4 0.9-0.9 1.2-1.5 0.9-2.7-0.2-0.9-1.9-0.5-2.2 0.1-1.4 2.2-2.8 4.3-4.2 6.5-0.8 1.3 1.5 1.5 2.1 0.6 1.4-2.2 2.8-4.3 4.2-6.5-0.7 0-1.5 0.1-2.2 0.1-0.1 0.3-0.1 0.6-0.2 0.9 0.7 0.1 1.4 0.2 2.1 0.4 0.2-0.4 0.5-0.8 0.7-1.2l-1.8-0.3c0.6 2.5 0 4.7-2 6.4 0.7 0.2 1.3 0.4 2 0.6 0.6-2.5 1.7-4.4 3.4-6.3l-2.1-0.6c-1 1.6-2 3.2-3.1 4.8-0.5 0.7-3.6 5.1-4.1 5 0.2 0.3 0.3 0.6 0.5 0.9 0.6-2.1 1.5-4 2.6-5.9 0.5-0.7 1-1.6 1.6-2.2 1.3-1.2 0.2 0.3-0.2 1.2-1.2 2.8-3.9 9.2-7.1 10.1 0.5 0.1 1 0.3 1.5 0.4-0.4-2.7 0.9-4.9 2.2-7.2 0.6-1.1 1.3-2.7 2.4-3.5 1.2-0.9 1-1.1 1.1 0.6 0.2 4.9-5.6 9.4-9 12.1-1.2 0.9 0.5 1.7 1.4 1.2 4.5-2.6 9.2-5.6 12.2-10 1.8-2.6 3.9-8.4-0.1-10.5-2.9-1.5-5.9 2-7.6 3.9-3.2 3.8-6.3 8.7-6 13.9 0 1.5 2.5 1 2.4-0.1z"/>
	


	
		<path class="st1" d="m123.4 139.1c0.2-2.8 1.4-5.2 3.2-7.4 1-1.3 3.6-5.5 3.5-1.4-0.1 5.3-5.5 8.1-9.8 9.6 0.5 0.7 1 1.3 1.5 2 3.7-2.8 7.1-5.9 7.8-10.7 0.1-0.8-1-2.1-1.8-1.5-3.1 2.3-4.9 6.5-6.8 9.7-0.5 0.9 1.2 2.5 1.9 1.5 2-2.7 4.2-5.6 5.7-8.6 0.7-1.4 0.6-2.5-0.8-3.3s-1.2 1.3-0.2 1.9c0.1 0.1 0.2 0.1 0.3 0.2-0.3-0.4-0.6-0.8-0.9-1.2 0.1 1.4-1.9 3.5-2.6 4.7-1.1 1.6-2.2 3.2-3.4 4.8 0.6 0.5 1.3 1 1.9 1.5 1.9-3 3.7-7.2 6.6-9.3l-1.8-1.5c-0.6 4.5-4.1 7.3-7.4 9.9-0.8 0.6 0.6 2.3 1.5 2 5.6-1.9 13.8-7.6 9.7-14.6-1.7-2.9-3.6-0.8-5.2 1.1-2.4 2.8-4.4 5.8-4.7 9.6-0.3 0.9 1.7 2.3 1.8 1z"/>
	


	
		<path class="st1" d="m115.3 153c1.3-1.2 2.8-2.9 4.4-3.6 1.7-0.8 5.9-1 7.6-0.1 1 0.6 1.8 1.5 2 2.7 0.4 2.4-1.4 2-4 2.6-2.6 0.7-3.6 1-6 0.4-2-0.5-3.7-1.5-5.4-2.8-0.7 0.2-1.3 0.5-2 0.7 4.6 0.3 9.3 0.6 13.7-0.9 2.6-0.8 4-2.6 0.2-3.1-2.7-0.3-5.9 0.6-8 2.4-3.6 3.2 0.7 3.1 3.3 2.6 1.2-0.2 7.4-1.9 5.8-3.8-1.5-1.6-7 0.5-8.5 1.2-0.8 0.4-2.5 1.2-1.9 2.4 0.5 1.1 2.5 0.9 3.5 0.8 2.9-0.1 6.8-0.5 8.7-2.9v-0.2c-2.3-1.7-6.9-1.9-9.2 0.2-4 3.6 3.9 3.4 5.8 2.8 4-1.3 4.9-5.2 0-5.4-2.1-0.1-10.9 1.2-9.1 5.2 1.3 2.8 6.9 0.8 8.5-0.5 1.4-1.1 3.3-3.6 1.3-5-1.3-1-3.8-0.5-5.2-0.1-3.1 0.9-7.9 5.4-2.4 6.4 2.3 0.4 9.7-0.6 9-4.3-0.6-3.3-8.7-1.6-9.5 1-1.6 4.9 9 0.6 10.3-0.1 0.6-0.3-1.5-0.2-1.8-0.1-1.4 0.4-2.9 1-3.6 2.4v0.1c1.2 1.6 7.7 0.2 7.4-1.9-0.4-3.5-8.9 0.5-10.1 1.5-0.1 0.1-0.2 0.2-0.1 0.3 1.9 1.6 9.3-0.4 6.8-2.9-2.1-2.2-7.4 0.9-7.8 3.2 0 0 0 0.1 0.1 0.1 2.3 1.1 4.5-0.9 5.6-2.8 0.3-0.5-1.9 0-2.1 0.1-1 0.4-3.9 1.7-3 3.2 0.6 1.1 3 0.7 3.9 0.4 1.1-0.4 2.6-1.4 1.3-2.4-0.8-0.7-2.3 0-3 0.4-1 0.5 1.4 0.3 1.8 0.1l0.6-0.3c-0.7 0.1-1.4 0.2-2.1 0.2-0.9-0.2-0.2-0.7 2.2-1.5-0.7 0-1.4 0.1-2.1 0.1-0.4 1-1.1 1.8-2.1 2.3 0.6-0.1 1.2-0.1 1.8-0.2-0.4-1.5 0.1-2 1.5-1.7 2-0.3 1.9-0.1-0.4 0.6 1.2 0.2 2.5 0.5 3.7 0.7-2.1-0.2-1.8-0.8 0.9-1.7-0.6 0-1.2-0.1-1.8-0.1-7.3 1.1-7.7 0.8-1.1-0.9 0.4 1.6-0.7 2-3.3 1.4-3.2 1.6-4.2 1.3-2.9-0.9 0.8-1.6 2-2 3.6-1.3 2.3-0.4 2.8 0.3 1.5 2.3-0.9 1.6-2.5 2.3-4.8 2v-2.6c4.8-3 7.3-3 7.4-0.1-4.5 3-6.4 3.3-5.4 1 0.4-1.8 1.9-2.1 4.5-1.1-8.4 1.7-9 1.9-1.8 0.6-1.4-0.2-2.8-0.3-4.2-0.5 1.2-1.9 2-1.7 2.3 0.4-0.7 0-1.5 0.1-2.2 0.1-2 0.1-4.1-0.1-6.1-0.2-0.2 0-2.4 0.4-2 0.7 6.3 4.8 14.9 4.4 21.1-0.5 0.1 0 0.1-0.1 0.1-0.2-6-8-13.8-4.6-19.9 1.1 0.3 0.4 2.2 0.5 2.7 0z"/>
	


	
		<path class="st1" d="m71.1 158.1c-0.6-2.6-2.3-4.7-3.9-6.8-1.9-2.7-4-5.2-6.2-7.7-1.1-1.3-0.6 0.2 0 0.8 2.9 3.4 7.3 7.7 8.4 12.2 0.2 0.5 1.8 2 1.7 1.5z"/>
	


	
		<path class="st1" d="m62.9 144.8c-1.2-2.4-2.5-4.9-3-7.6-0.3-1.5-0.4-3-0.1-4.5 0.3-2 0.2-3.6 2.1-2.3 4.5 3.2 4.2 13.3 0.3 16.7 0.7 0.2 1.5 0.5 2.2 0.7-0.1-3.1-0.2-6.2-0.4-9.3-0.2-2.3 0.2-5.9-1.4-7.8-0.4-0.5-1.6-0.8-2.1-0.3-2 1.7-1.2 6.6-0.9 9 0.3 2.7 0.8 6.1 2.9 8.1 0.5 0.5 1.4 0.5 2 0.2 2.9-1.5 1.4-13.1-0.9-15-4.1-3.3-3.9 4.9-3.3 7 0.3 0.9 2.7 1 2.4 0-0.5-1.7-0.5-3.2-0.4-4.9-0.6-1.4-0.6-1.3 0 0.4 0.2 0.7 0.3 1.3 0.5 2 0.3 1.4 1.6 8.4-0.3 9.4 0.7 0.1 1.3 0.1 2 0.2-1.9-1.8-2.3-5.8-2.4-8.3-0.1-1.4-0.7-6.1 0.6-7.1-0.7-0.1-1.4-0.2-2.1-0.3 1.4 1.7 1.1 6 1.3 8 0.2 2.8 0.3 5.5 0.4 8.3 0 0.9 1.7 1.2 2.2 0.7 5.2-4.6 4.5-16.7-2.2-19.9-2-1-3.3-0.4-4.1 1.7-2 4.9 0.4 10.4 2.6 14.7 0.1 1 2.5 1 2.1 0.2z"/>
	


	
		<path class="st1" d="m59 142.8c2.3 6.1 7.3 10.7 8.9 17.1 0 0.1 2.4-0.6 2.3-0.9-1.5-6.4-6.5-11.1-8.9-17.1 0-0.2-2.4 0.7-2.3 0.9z"/>
	


	
		<path class="st1" d="m103.3 151.3c-10.8 8.4-23.5 13.3-37.2 14.4-1.1 0.1 0.6 1.8 1.4 1.8 13.8-1.1 26.6-6 37.5-14.5 0.9-0.7-1-2.2-1.7-1.7z"/>
	


	
		<path class="st1" d="m60.2 133.5c0.3-2.6 0.8-5.2 1.6-7.8 0.2-0.5-2.1-1.4-2.3-0.9-0.9 2-1.4 4.1-1.5 6.2 0.8 0.3 1.6 0.6 2.3 0.9 0-2.1 0.3-4.1 0.8-6.1-0.7-0.2-1.5-0.5-2.2-0.7 1.5 2.2 2.6 4.5 3.3 7.1 0.2 0.6 2.4 1.1 2.3 0.7-0.7-2.7-1.9-5.1-3.4-7.3-0.2-0.3-2.1-1.2-2.2-0.7-0.5 2-0.8 4-0.8 6.1 0 0.7 2.3 1.2 2.3 0.9 0.1-2.2 0.6-4.2 1.5-6.2-0.8-0.3-1.6-0.6-2.3-0.9-0.8 2.5-1.3 5.1-1.6 7.8-0.2 0.7 2.2 1.3 2.2 0.9z"/>
	


	
		<path class="st1" d="m54.3 138.2c-3.4 0.6-6.8-3.6-8.5-6.1-0.8-1.2-1.8-2.9-2.2-4.3-0.4-0.8-0.5-1.6-0.2-2.4-0.3-1.3 0-1.7 1.1-1.4 4.5-0.7 7.6 5.4 8.5 8.8 0.6 2.3 0.7 4.7 0.8 7.1 0.6 0.5 1.2 0.9 1.7 1.4-1.7-6.4-6-14.6-13.1-16-0.1 0-0.3-0.1-0.3 0.1-0.4 3 1.7 5.3 3.5 7.5s4.2 5.5 7.1 6.2h0.3c1.8-2.4-0.8-6.6-2-8.8-0.9-1.4-4.5-6.8-6.7-6.2-3.3 1 5 14.1 7.6 14.4 2.8 0.4-0.2-5.7-0.5-6.4-0.8-1.7-3.3-6.6-5.6-6.8-3-0.3 0.1 4.2 0.7 5 2 3 4.4 6.5 7.8 7.9 0.5 0.1 0.5-0.3 0.4-0.6-1.6-5.6-4.8-10.3-9.2-14-0.1-0.1-0.7-0.5-0.8-0.1-0.3 4.2 3.6 8.7 6.2 11.7 0.1 0.1 0.9 1 1.1 0.7 1.7-2.3-2.5-10.3-5.5-10.6h-0.1c-1.6 2.3 2.3 7.3 4.2 8.4 4 2.2 0.1-5-0.6-6-0.8-1.2-6.1-7.6-6.7-3.2-0.5 3.6 4.3 7 6.9 8.6 0.1 0.1 0.5 0.3 0.5 0 0.2-2.9-1.5-5-3.8-6.6-2-1.5-3.2-1.3-2.7 1.3 0.1 0.6 1.9 2.1 1.7 1.4-0.7-3.1 4.3 0.9 2.7 1.7-0.6-0.5-1.3-1-1.9-1.5-2.9-3.9-2.3-4.6 1.7-2.1 2 2.5 2.2 3 0.4 1.6-1.3-0.4-1.5-0.7-0.7-1 0.6 1.2 3.3 4.7 2.1 6.3 0.4 0.2 0.8 0.5 1.1 0.7-2.1-2.3-5.4-6-5.2-9.4-0.3 0-0.5-0.1-0.8-0.1 2.5 2.1 4.5 4.6 5.9 7.5 0.2 0.5 1.4 2.4 1.2 3-0.4 0.9-4.7-4.4-4.9-4.8-1.1-1.1-1-1.4 0.3-0.8 0.9-0.1 1.4 0.3 1.5 1.2 0.8 1 1.3 2.6 1 3.8 0 1.4-0.3 1.4-1 0.1-0.4-0.6-0.9-1.1-1.3-1.7-0.5-0.6-2.5-3.2-2.5-3.8 0.7-0.6 1.3-1.2 2-1.8 0.8 0.8 1.5 1.6 2 2.6 0.6 0.9 1.5 2.2 1.6 3.4 0.4 5.1-1.7 2.3-3 1-1-1-1.8-2-2.7-3.1-0.4-0.5-0.7-1-1.1-1.4-0.8-2.3-0.6-3.1 0.8-2.3 1.4 0 3.1 2 4 3 2.2 2.6 3.7 5.8 4.5 9.1 0.1 0.4 1.8 2.3 1.7 1.4-0.3-5.1-1-10.4-4.3-14.5-1.2-1.5-2.7-2.8-4.5-3.7-1.1-0.5-4-1.8-5.2-1-2.4 1.7 2.6 9.2 3.8 10.9 2.1 2.9 6.2 7.9 10.3 7.2 0.9-0.6-0.4-2.6-1.1-2.5z"/>
	


	
		<path class="st1" d="m42 133.2c-3-4-7.4-5.4-12.2-5.9-2.5-0.3-11.5-2.3-10.8 2.1 1.7 9.6 16.5 12.7 23.1 6.8 0.5-0.5-0.7-2-1.1-2.2-2.3-1.1-14.4-7.7-16.3-4.4-0.9 1.5 1.3 4.2 2.3 5.1 1.8 1.7 9.6 6 10.3 1.7 0.4-2.3-1.9-4.7-3.6-5.7-1.7-1.1-9.3-3.8-10.1-0.2-0.5 2.4 3.5 3.7 4.9 4.2 2.2 0.7 10.7 3.4 9.5-1.2-0.6-2.3-2.9-3.2-5.1-2.7 0 0 0 0.1-0.1 0.1-0.3 1.2 0.2 2.2 1 3.2 0.8 0.9 4.7 3.5 5.9 2.3 2.7-2.8-6.2-6.2-7.5-6.4-0.6-0.1 0.6 1.8 0.7 2 1.2 1.1 5.6 4.4 6.5 1.5 0.6-1.8-1.8-3.2-3-3.6-7-2.2-2.7 7 2.2 6.4 0 0 0-0.1 0.1-0.1 0.8-3.5-5.1-6.6-7.9-6-3.4 0.7-1 5.1 1.3 5.6 0.1 0 0.1 0 0.2-0.1 1.7-2.6-3.5-5.2-5.2-5.3-0.1 0-0.2 0.1-0.2 0.2 0.3 2.3 1.4 4.2 3.7 5 0.2 0.1 0.2-0.2 0.2-0.2-0.1-2-3.7-8.1-6.1-5.2-1.8 2.2 3 5.5 4.4 6 0.2 0.1 0.2-0.2 0.2-0.2 0.1-1.5-0.2-2.7-1.1-4-1-1.4-4.2-3.9-6-3.2-3.7 1.3 1.6 6.6 3 7.3 0.2 0.1 0.3 0.1 0.3-0.2 0.1-2.4-1.4-6.3-4.4-6.4-0.1 0-0.1 0-0.2 0.1-1.3 3.5 5.4 6.6 7.7 7.4 0.5 0.2-0.6-1.8-0.7-2-2.3-2.3-4.7-4.1-7.4-5.8-0.7-0.4 0.3 1.7 0.6 1.9 1.8 1.6 4.3 4.1 6.6 4.6 3 0.6 3.8-3.2 6.9-3.1-0.4-0.7-0.7-1.5-1.1-2.2-0.9 0.8-1.8 1-2.7 1.7-0.5 0.4 0.7 1.9 1 2.1 0.1 0 0.1 0.1 0.2 0.1 0.1 0.1 0.2 0.1 0.2 0.1l0.1-0.1c0.4-0.6-1.1-2.4-1.2-2.2v0.1c0.3 0.7 0.7 1.4 1 2.1 0.9-0.7 1.8-0.9 2.7-1.7 0.4-0.4-0.6-2.2-1.1-2.2-2.1-0.1-2.4 1.4-4.2 2.3-3.2 1.5-6.3-1.3-8.7-3.4 0.2 0.6 0.4 1.3 0.6 1.9 2.6 1.6 4.9 3.3 7.1 5.5-0.2-0.7-0.5-1.3-0.7-2-0.7-0.2-5.4-2-5.2-2.9 0.4-1.8 4.8 0.2 5.3 0.3 3.3 0.8 8-0.8 10.3 2.7-0.2-0.5-0.4-1-0.5-1.5-0.1 0.5-5.7-0.5-2.2-1.7 1-0.4 3 0.5 3.7 1-0.4-0.6-0.7-1.3-1.1-1.9 0.3 3.6-5.2-0.5-5.5-0.8 0.2 0.7 0.5 1.3 0.7 2 1.1 0.1 6.2 1.7 3.4 1.9-0.5 0-0.7-0.2-0.5-0.6 0.1-0.7-0.1-0.7-0.6 0-0.6 0.6-1.3 0.7-2.1 0.4-0.5-0.1-1-0.1-1.5-0.2-1.4-0.2-5.2-0.6-6.2-1.6-0.6-0.6 4.8-0.8 6.1-0.4 0.7 0.2 2.8 0.8 3.1 1.5-0.4 1-0.7 1.9-1.1 2.9l-1.5-0.3c-1-0.1-3.2-1-4-1.6-1.2-0.2-1.5-0.8-0.9-1.8-0.2-1.1 0.1-1.4 1-1 1.5-0.4 5 1.3 6.6 1.8 2.4 0.9 4.7 2 7 3.1-0.4-0.7-0.7-1.5-1.1-2.2-2.6 2.3-5.7 3.1-9.1 2.9-1.3-0.1-2.7-0.2-4-0.6-1.3-0.3-2.5-0.8-3.6-1.5-2-0.6-2.6-1.8-1.7-3.6-0.5-1.9 0.2-2.6 1.9-2.1 1.1 0 2.2 0 3.2 0.1 1.5 0.1 3 0.2 4.4 0.4 3.8 0.6 7.6 1.7 10 5 0.9 1.5 0.3-0.7-0.1-1.2z"/>
	


	
		<path class="st1" d="m52.3 142c-6.9-2.5-18.7-1.7-23.3 5.2-0.1 0.1-0.1 0.2 0 0.3 1.1 2.2 7.5 1 9.4 0.6 4.4-1 8.3-3.2 11.8-6.1 0.6-0.5 0.4-1-0.4-0.9-6.2 0.7-12.7 1.7-17.3 6.2-0.2 0.2-0.3 0.6 0.1 0.7 1.7 0.3 2.7-0.1 4.3-0.8 3.3-1.6 6.6-3.6 9.8-5.4 0.7-0.4 0.9-1.3-0.1-1.1-1.9 0.4-14.6 2.1-13.8 5.7 0.4 1.6 2.5 1 3.6 0.7 4.7-1.2 9-3.5 13.9-4.3 0.1-0.4 0.1-0.8 0.2-1.2-5.2 2.4-10.6 3.9-16.3 4.6-0.8 0.1-2.4 1.6-0.8 1.4 6.1-0.7 11.9-2.4 17.5-4.9 0.6-0.3 1.5-1.4 0.2-1.2-3.2 0.5-6.4 1.3-9.4 2.5-0.9 0.3-1.8 0.7-2.7 1.1-2.4-0.3-2.6-0.6-0.4-1 1.8-1.1 5.3-1.5 7.3-1.9 0-0.4-0.1-0.7-0.1-1.1-1.8 1-3.7 2-5.5 3-0.4 0.2-4.2 1.9-2.4 0.9 3.1-1.9 7.8-2.1 11.3-2.4-0.1-0.3-0.3-0.6-0.4-0.9-2.6 2.1-5.4 3.9-8.6 4.8-1.9 0.6-4 0.8-6 0.7-2.2-0.1-2.9-0.2-1-1.7 5-3.9 11.9-4.2 17.6-2.1 0.4 0.2 2.5-1 1.5-1.4z"/>
	


	
		<path class="st1" d="m61.4 149.6c-1.1-2.9-5.4-3.3-8-3.3-2.4 0-12.2 0.9-12.1 4 0.1 3.2 6.5 4.3 8.7 4.4 4 0.1 11.6-1.7 13.5-5.5 0.2-0.3-1.8-0.7-2-0.7-3 0-14.1-0.3-14.9 3.9 0 0.1 0.1 0.1 0.1 0.2 1.8 1.2 4.1 1.6 6.2 1.5 2.2-0.1 9.1-2.4 7.1-5.7-0.9-1.4-4-1.4-5.3-1.4-3.5 0.1-8.4 1.4-10.7 4.3v0.1c1.5 3.3 12.3 1 12.6-2 0-0.1-0.2-0.2-0.3-0.3-2.4-1.2-5.1-1.3-7.7-0.8-1.5 0.3-6.9 1.9-4.3 4.1 1.4 1.1 4.4 1.1 6 1 2.1-0.2 8.9-2 8.4-4.8-0.1-0.3-0.9-0.5-1.1-0.6-2-0.6-12 0.7-9.3 3.6s9.6 0.2 10.8-2.8c0.2-0.4-1.8-0.7-2-0.7-3.8-0.3-7.1 0.7-10 3.2-0.2 0.2 1.8 1.1 2.3 0.8 2.7-2.3 5.7-3.4 9.3-3.1-0.7-0.2-1.3-0.5-2-0.7-0.5 1.1-1.1 2-2.2 2.6-0.4 0.2-4.3 1.5-4.3 0.5-0.1-1.8 6.4-3 7.4-2.7-0.4-0.2-0.8-0.4-1.1-0.6 0.3 1.6-2.6 3-3.8 3.5-1.1 0.5-2.4 1-3.6 1-2.1 0-3.8-0.6-1.7-2.1 0.9-0.6 2.5-1.2 3.5-1.2 0.8-0.5 1.5-0.3 2 0.4 1.2 0.5 1.1 0.9-0.3 1.2-0.8 0.7-3.5 1.7-4.2 0.7-0.8-0.3-0.8-0.5-0.1-0.7 0.5-0.3 1-0.7 1.6-0.9 1.3-0.7 7-3 8-1.9 1.4 1.7-1.8 3.8-3.1 4.5-0.8 0.4-5.2 1-5.4 0-0.2-0.9 3.4-1.6 3.9-1.7 3.3-0.8 6.6-1.1 10-1.2-0.7-0.2-1.3-0.5-2-0.7-2.1 4.1-14.3 7.7-16.9 3.2-1.4-2.4 1.8-2.7 3.6-3.3 2.7-0.9 10-3 11.4 0.6-0.2 0.2 2.1 0.4 2 0.1z"/>
	


	
		<path class="st1" d="m54.4 194c-4.4-3.4-8.2-7.4-11.4-12-0.2-0.4-2.3 1-2.1 1.4 3.2 4.6 7 8.6 11.4 12 0.5 0.3 2.3-1.3 2.1-1.4z"/>
	


	
		<path class="st1" d="m39 176.3c-2.1-6.6-0.9-13.2 1.3-19.6-0.8 0.1-1.6 0.3-2.4 0.4 3.1 6.7 2.8 14-0.9 20.4-0.7 1.2 1.8 1.3 2.3 0.4 3.9-6.8 4.2-14.6 0.9-21.7-0.4-0.9-2.1-0.3-2.4 0.4-2.3 6.6-3.5 13.3-1.4 20 0.5 1.2 2.9 0.7 2.6-0.3z"/>
	


	
		<path class="st1" d="m38.5 160c-0.3 4.9-0.7 9.9-1 14.8-0.1 1.1 1.9 2.4 2 0.9 0.3-4.9 0.7-9.9 1-14.8 0.1-1.1-1.9-2.4-2-0.9z"/>
	


	
		<path class="st1" d="m35.3 172.3c-6.3-4.2-13.8-9.5-17.6-16.1-1.2-2.2-0.4-2.1 1.7-1.1 1.7 0.9 3.2 2.3 4.3 3.9 2.3 3.3 3 7.4 3.7 11.2 0.8-0.3 1.5-0.6 2.3-1-2.5-5.8-6.6-10.4-12.1-13.5-0.5-0.3-2.7 0.6-2.1 1.1 1.6 1.5 3.3 3.1 4.9 4.6 0.4 0.4 2.5-0.5 2.2-1-1-1.8-2.2-3.6-3.5-5.2-0.5-0.6-2.6 0.6-2.3 1 1.3 1.7 2.4 3.4 3.5 5.2 0.7-0.3 1.5-0.7 2.2-1-1.6-1.5-3.3-3.1-4.9-4.6-0.7 0.4-1.4 0.8-2.1 1.1 5.4 3 9.5 7.6 11.9 13.3 0.3 0.6 2.4-0.3 2.3-1-1-5.2-2.2-11.1-6.8-14.4-1.9-1.3-5.6-3-7.7-1.1-4.5 4 15.3 18 18 19.8 0.6 0.3 2.6-0.9 2.1-1.2z"/>
	


	
		<path class="st1" d="m33.9 179.2c-3.9-5.8-10.7-9.2-17.7-8.6-2 0.2-4.5 0.4-4.7 2.8-0.3 3 2.6 5.8 5 7 2 1 15 3.2 14.6-1.2-0.2-2.2-6.1-3.7-7.7-4.3-2.3-0.9-6.2-3.3-8.6-1.9-0.3 0.1-0.7 0.5-0.6 0.8 0.5 4.3 9.2 6 12.6 5.9 2.9-0.1 5.6-2.3 2.6-4.7-2.1-1.7-10-3.9-11.9-0.9-2.5 3.8 7.3 4.8 9.1 5 0.5 0.1 1.6-0.4 1.6-1.1-0.5-4.3-11.9-9.5-13-3.3-0.5 2.9 2.4 5.7 5 6.1s2.9-1 3.3-3.3c0.2-1.2-2.2-0.7-2.4 0.4-0.1 0.7-0.2 1.4-0.4 2.1 0.4-0.3 0.8-0.6 1.2-0.8-3 0.6-5.8-5.2-1.9-5 1.7 0.1 5.6 2.5 5.8 4.4 0.5-0.4 1-0.7 1.6-1.1-1.8-0.2-3.5-0.6-5.3-1.1-4.5-1.4 1-1.4 2.3-1 1.6-0.1 2.5 0.5 2.8 1.8 0.8 1.1 0.5 1.4-0.9 0.9-1.2 0.2-3.7-0.7-4.9-1.1 0.3 0.1-4.4-1.8-4.5-2 0.1 0.2 3.7 1.2 4 1.4 1.7 0.6 3.3 1.3 4.9 2.1 0.6 0.3 1.3 0.6 1.9 0.9 0.9 0.2 0.8 0.4-0.1 0.6-0.7 0.9-4.4 0.4-5.4 0.2-2.2-0.2-4.3-1-5.9-2.5-0.9-0.9-2.7-3.1-2.2-4.4 0.4-1.1 3.3-0.8 4.2-0.7 5.6 0.3 10.6 3.5 13.7 8.1 0.3 0.5 2.6-0.5 1.9-1.5z"/>
	


	
		<path class="st1" d="m24 159.3c-1.6-2.3-3.7-4-6.2-5.2-0.5 0.5-1 1.1-1.4 1.6 2.1 1 4.1 2.4 5.7 4.1 0.2-0.4 0.4-0.8 0.6-1.3-0.1 0-0.2 0.1-0.2 0.1 0.3 0 0.6-0.1 1-0.1h0.1c-0.9-0.7-3 0.5-1.9 1.4 0.7 0.5 1.4 0.5 2.2 0.1 0.4-0.2 1-0.8 0.6-1.3-1.9-2-4-3.5-6.5-4.7-1-0.5-2.8 1-1.4 1.6 2.2 1.1 4 2.6 5.4 4.6 0.4 1 2.7 0.1 2-0.9z"/>
	


	
		<path class="st1" d="m22.8 159.3c-2.1-0.7-4.3-1.7-5.2-3.9-0.9-2-0.3-4.2-1-6.2-0.8 0.1-1.5 0.3-2.3 0.4 5.6 2.3 11.1 7.5 10.8 14l2.4-0.3c-3-3.9-6-7.7-9.1-11.6-0.4-0.5-2.7 0-2.4 0.4 3 3.9 6 7.7 9.1 11.6 0.3 0.4 2.4 0.3 2.4-0.3 0.3-6.6-5.5-12-11.2-14.4-0.3-0.1-2.5-0.1-2.3 0.4 0.9 2.4 0 5.2 1.6 7.4 1.3 1.7 3.4 2.6 5.4 3.2 0.6 0.2 3-0.3 1.8-0.7z"/>
	


	
		<path class="st1" d="m41.7 183.5c-3.6-6.1-8.2-11.4-13.7-15.8-0.5-0.4-2.6 0.5-2.3 0.7 5.5 4.3 10 9.6 13.6 15.6 0.3 0.7 2.5-0.2 2.4-0.5z"/>
	


	
		<path class="st1" d="m41.4 185.4c-2.5-2.5-5.9-1.5-8.9-0.4-4.3 1.6-8.6 3.7-11.3 7.6 0 0.1 2 0.1 2.4-0.5 2.4-3.6 11.4-10.2 15.4-6.2 0.4 0.6 2.4-0.5 2.4-0.5z"/>
	


	
		<path class="st1" d="m38.8 184.6c2.4 8.5-10.6 9.1-15.4 6.8v1.7c4.2-1.6 9.6-1.8 13.4-4.4 1.4-1 3.2-3.2 1.5-4.6-2.3-1.8-7.7 1-9.8 2.1-1.5 0.8-6.2 2.9-5.5 5.1 0.9 2.6 6.7 1.1 8.5 0.7 2.3-0.5 7.5-2 8-4.9 0.5-2.6-2.9-2.3-4.5-2-3.6 0.8-6.9 2.4-9 5.5-0.4 0.5-0.1 1.1 0.5 1.4 4 2.2 10.1-1.5 11.9-5.2 0.4-0.7-0.7-1.3-1.2-1.3-4.4 0-8 2.3-9.7 6.4-0.5 1.3 1.9 1.7 2.4 0.5 1.3-3.1 3.9-4.9 7.3-4.9-0.4-0.4-0.8-0.8-1.2-1.3-1.1 2.2-5.6 5.4-8.2 4 0.2 0.5 0.3 0.9 0.5 1.4 1.1-1.7 2.6-2.8 4.4-3.6 0.3-0.1 2.7-1.3 3.1-1 1 0.8-0.3 1.2-1 1.7-1.9 1-4.8 1.9-7 1.8-2.8-0.2 0.2-1.7 1.6-2.4 1.6-0.9 3.4-1.7 5.2-2.1 0.3-0.1 1.6-0.6 2-0.3s-3.2 2.4-3.7 2.5c-3.5 1.2-7.1 1.8-10.5 3.1-0.8 0.3-0.7 1.4 0 1.7 6.4 3 22.1 1.5 19.1-9.1-0.7-1.1-3.1-0.7-2.7 0.7z"/>
	


	
		<path class="st1" d="m12.8 154.9c-2.5-7.2-5.5-14.4-13.1-17.3-0.9-0.3-2.4-0.2-0.8 0.4 6.8 2.6 9.4 10 11.6 16.3 0.2 0.6 2.4 0.9 2.3 0.6z"/>
	


	
		<path class="st1" d="m11 153.9c-3.3 0.2-6.3-0.9-8.8-3-0.9-0.7-3 0.5-1.9 1.4 2.9 2.5 6.6 3.7 10.5 3.5 1.3-0.2 1.8-2 0.2-1.9z"/>
	


	
		<path class="st1" d="m1.9 141.2c0.6 4.4 1.3 8.7 2.3 13 0.1 0.4 2.1-0.6 2.2-1.1 0.4-3.3 0.2-6.5-0.9-9.7-0.7 0.4-1.5 0.8-2.2 1.2 1.5 1.8 2.7 3.8 3.5 6 0.4 1.2 0.5 4.1 1.6 4.7 0.4 0.2 2.1-0.7 2.1-1.1-0.1-2.8-3.4-5.4-5.9-6.2-0.4-0.1-2.4 0.9-2.1 1.2 1.2 1.4 2.4 2.8 3.6 4.3 0.4 0.5 2.4-0.9 2.2-1.2-1.2-1.4-2.4-2.8-3.6-4.3l-2.1 1.2c2.2 0.7 5.6 3.3 5.7 5.9 0.7-0.4 1.4-0.8 2.1-1.1-0.8-0.4-1.4-4.6-1.8-5.5-0.8-1.9-1.9-3.5-3.2-5.1-0.3-0.4-2.4 0.7-2.2 1.2 1 3.1 1.3 6.3 0.8 9.5 0.7-0.4 1.5-0.7 2.2-1.1-0.9-4.3-1.7-8.7-2.3-13 0.1-0.2-2.1 0.5-2 1.2z"/>
	


	
		<path class="st1" d="m16.6 163.5c-5.1-4.8-13.4-6.1-18.8-1.1-1 0.9 0.9 2.5 1.7 1.7 4.5-4.1 11.3-3.6 15.6 0.5 1 1 2.7 0.1 1.5-1.1z"/>
	


	
		<path class="st1" d="m14 162.9c-3.9 3-9.1 7.3-14.2 4.5-1.4-0.8 0 1 0.5 1.3 5.8 3.2 11-0.5 15.6-4.1 0.3-0.3-1.4-2.1-1.9-1.7z"/>
	


	
		<path class="st1" d="m11.6 165.6c1-0.6 1.6-1.1 2.1-2.2 0.3-0.7-1-0.9-1.3-0.8-2.5 0.3-5 0.9-7.4 1.8-1.4 0.6-4 1.2-4.1 3 0 0.4 0.7 0.6 1 0.6 3.2 0.5 8.5-1.1 10.1-4.2 1.7-3.3-3.2-3.9-5.3-3.4-1.6 0.4-3.2 1.2-4.4 2.3-0.8 0.8-2.4 2.8-1.5 4 1.9 2.4 7.6-1 9.3-2.2 0.5-0.3 0.3-0.8-0.1-1-2.4-1.5-5.3-1.3-7.6 0.3-0.6 0.4-0.2 1 0.4 1.1 2.4 0.7 4.6-0.1 6.7-1.3 1.1-0.6 0.2-1.4-0.8-1.3-2.8 0.3-5.5 1-8.1 2.2 0.5 0.3 1.1 0.7 1.6 1 1-0.7 2.1-1.3 3.3-1.6 1-0.3 2.1-0.2 3.1-0.6 0.7-0.2 1.6-0.7 1-1.6-0.5-0.8-2.9-0.3-2.4 0.6v0.1c0.3-0.2 0.5-0.4 0.8-0.6-1.4 0.4-2.8 0.4-4.2 0.9-1.3 0.5-2.4 1.1-3.6 1.8-1.2 0.8 1 1.3 1.6 1 2.2-1 4.4-1.6 6.8-1.8-0.3-0.4-0.5-0.9-0.8-1.3-1.3 0.7-2.6 1.5-4.2 1.1 0.1 0.4 0.2 0.8 0.4 1.1 1.4-0.9 2.7-0.7 4.1 0.1 0-0.3-0.1-0.7-0.1-1-0.6 0.4-3.7 2.6-4.6 2.1-1.8-1.1 2.4-3.6 3.2-3.9 0.8-0.2 2.3-0.6 2.8 0.4-0.1 0.5-0.3 1.1-0.4 1.6-0.4 0.4-0.9 0.8-1.5 1.1-1.7 1.1-3.5 1.8-5.5 1.5 0.3 0.2 0.7 0.4 1 0.6 0.1-0.9 4-2 4.6-2.2 1.5-0.5 3.1-0.8 4.6-1-0.4-0.3-0.9-0.5-1.3-0.8-0.4 0.4-0.7 0.8-1.1 1.2-1 1 0.8 1.9 1.8 1.3z"/>
	


	
		<path class="st1" d="m73.9 185.3c-0.1-2.4-0.7-5.7 1.1-7.7 1.5-1.7 5.4-3.9 7.7-4.2-0.5-0.3-1-0.5-1.5-0.8 1.2 1.7-0.7 5.2-1.9 6.4-1.9 2-4.4 2.9-7 3.5-1.1 0.2 0.6 1.9 1.4 1.8 3.2-0.7 6.4-1.9 8.4-4.6 1.3-1.9 2.3-5.1 0.8-7.2-0.3-0.4-1-0.9-1.5-0.8-2.6 0.3-6 2.3-7.9 4-2.3 2.1-1.8 5.6-1.7 8.5 0 0.8 2.1 1.9 2.1 1.1z"/>
	


	
		<path class="st1" d="m81.3 173.6c-4 2.5-8.5 5.7-8.7 10.9 0 0.6 2.3-0.1 2.3-0.7 0.2-4.8 4.1-7.6 7.9-10 1.2-0.9-1-0.6-1.5-0.2z"/>
	


	
		<path class="st1" d="m80.7 174.2c-0.9 4-4.1 6.4-7.6 8.2-1.4 0.8 0.5 1.6 1.4 1.1 3.8-2.1 7.5-4.8 8.6-9.2 0.2-1.1-2.2-1-2.4-0.1z"/>
	


	
		<path class="st1" d="m77.9 174.7c-0.7 1.3-1.3 2.5-2 3.8-0.6 1.3-1.2 2.8-2.1 3.9 0.4-0.3 0.8-0.6 1.1-0.8-0.1 0-0.2 0.1-0.2 0.1 0.3-0.1 0.6-0.2 0.9-0.2-0.1 0-0.1-0.1-0.2-0.1-0.5-0.3-2.4 1.1-2 1.4 0.9 0.6 2.4-1 2.8-1.7 1.4-2.4 2.5-4.9 3.8-7.4 0.2-0.3-0.9 0.1-1 0.1-0.3 0.1-0.9 0.4-1.1 0.9z"/>
	


	
		<path class="st1" d="m75.1 175c-1.6 1.5-2.5 3.5-2.7 5.7-0.1 0.6 1.3 1.3 1.7 1.5 1.1 0.4 2.1-1.2 2.7-1.8 1.1-1.1 2.2-2.3 3.2-3.5 0.3-0.3-1.6-1.9-2-1.6-1.6 1.7-3.3 3.3-4.9 5-0.3 0.3 1.6 1.9 2 1.6 1.6-1.7 3.3-3.3 4.9-5-0.7-0.5-1.3-1-2-1.6-0.8 1-1.7 1.9-2.6 2.8l-1.2 1.2c-0.3 0.3-1.1 1.3-1.6 1.1 0.6 0.5 1.2 1 1.7 1.5 0.2-2.1 1.1-4 2.7-5.5 0.4-0.1-1.5-1.8-1.9-1.4z"/>
	


	
		<path class="st1" d="m84 186.3c-11.3 1.7-22 5.2-32.1 10.5-1.2 0.6 0.2 2.7 1.3 2.1 9.9-5.3 20.5-8.7 31.6-10.4 1.4-0.2 0.4-2.4-0.8-2.2z"/>
	


	
		<path class="st1" d="m71.1 184.5c-0.9 2-1.8 4-2.8 5.9-0.5 0.9 1.9 1.8 2.3 0.9 1-1.9 1.9-3.9 2.8-5.9 0.5-1-1.8-1.9-2.3-0.9z"/>
	


	
		<path class="st1" d="m74.6 192.1c3.1-1.7 6.8-2.2 10-0.2 1.5 0.9 3.1 2.1 2.4 3.9-0.8 1.9-3.1 1.3-4.8 0.7-1.4-0.4-2.6-1.2-3.9-1.9-1.1-0.7-4.8-2.7-0.1-1.7 2.6 0.6 5.4 2 7.2 3.9v-1.1c-2 0.9-6.3-4-7.6-5.3-0.3 0.4-0.6 0.8-0.8 1.1 1.4 0.4 2.7 0.8 4 1.3 0.7 0.3 2.2 0.6 2.6 1.1 0.7 0.1 0.7 0.4-0.1 0.7-0.4 0.7-0.9 0.7-1.4-0.1-1.2-0.5-2.5-2.1-3.3-3-0.1 0.3-0.3 0.6-0.4 1 1.5-0.1 2.9 0.1 4.3 0.7 1.6 0.7 1.1 1.4-0.4 0.8-1.9-0.7-4-3.2-5.4-4.6-0.3 0.4-0.6 0.8-0.8 1.1 3 1 5.8 2.1 8.7 3.3 1.4 0.6 2-0.8 0.6-1.4-3.1-1.3-6.2-2.5-9.3-3.6-0.9-0.3-1.6 0.4-0.8 1.1 1 1 10.8 10.4 12.2 6 0.5-1.5-2.1-3.1-3.1-3.6-2.2-1.3-4.6-1.8-7.2-1.6-0.5 0-0.8 0.6-0.4 1 1.4 1.6 8 8.5 10.4 4.9s-8.4-6.3-10.2-6.8c-0.8-0.2-1.6 0.4-0.8 1.1 2.4 2.2 7.2 7.8 11 6.2 0.5-0.2 0.3-0.8 0-1.1-2.1-2.2-4.8-3.4-7.6-4.4-1.8-0.6-4.6-1.6-6.3-0.1-0.2 0.2-0.2 0.4-0.1 0.6 0.4 1.3 2.2 2.2 3.3 2.9 1.6 1.1 3.2 2 5 2.7s8.4 2.2 9.3-0.5c0.9-2.5-4.1-6.1-5.9-7-3.8-1.9-8.1-1.7-11.7 0.3-1.4 0.6 0.5 2.1 1.4 1.6z"/>
	


	
		<path class="st1" d="m88.3 183.5c-1.4-2.5 0.9-4.8 2.6-6.4 0.9-0.9 4.5-4.4 5.9-3.1 1.6 1.5-0.6 5.2-1.7 6.4-1.8 1.9-4.4 2.8-7 3.2 0.3 0.7 0.6 1.4 0.9 2.1 2.6-1.5 4.8-3.5 6.5-5.9 0.9-1.3 3.2-4.5 1.8-6-3.5-3.8-9 8.7-9.7 10.7-0.4 1.1 1.4 2.4 2.1 1.3 2.3-3.3 4.4-6.8 6.3-10.4 0.5-1-1-2.1-1.9-1.5-3.7 2.7-6.6 6.2-8.5 10.4-0.6 1.3 1.7 2.3 2.3 1 1.8-3.8 4.3-7 7.7-9.5-0.6-0.5-1.3-1-1.9-1.5-1.8 3.4-3.7 6.7-5.9 9.9 0.7 0.4 1.4 0.8 2.1 1.3 0.7-1.8 1.4-3.6 2.4-5.3 0.3-0.6 3.5-4.8 3.5-4.8-0.2-0.4-0.3-0.7-0.5-1.1-0.5 4-4.6 7.6-7.8 9.5-1.1 0.6-0.1 2.2 0.9 2.1 3.7-0.6 7.4-2 9.5-5.2 1.6-2.4 2.5-6.8 0-9-2.5-2.1-6.6 1.8-8.4 3.3-2.6 2.3-5.5 5.6-3.5 9.2 0.8 1.2 3.1 0.7 2.3-0.7z"/>
	


	
		<path class="st1" d="m89.4 189.7c4.4-1.9 9.4-1.5 13.4 1.1-0.2-0.6-0.3-1.3-0.5-1.9-4.8 2.5-10.4 2.1-14.6-1.2 0 0.7 0 1.3 0.1 2 3.7 0.4 7.4 1.1 11 2 1.2 0.3 0.4-2-0.5-2.2-3.6-0.9-7.3-1.6-11-2-1.3-0.1-0.4 1.6 0.1 2 4.8 3.7 11.1 4.3 16.4 1.5 0.7-0.4-0.1-1.7-0.5-1.9-4.7-3-10.1-3.6-15.2-1.4-1 0.3 0.3 2.4 1.3 2z"/>
	


	
		<path class="st1" d="m99.7 184.8c7.2-6.9 17.2-9.1 26.7-6.2-0.2-0.4-0.4-0.9-0.6-1.3-4.3 8.1-16.5 8.9-23.9 5.4-0.3 0.7-0.7 1.3-1 2 8.2-0.4 15.8-2.7 22.7-7.1 1.1-0.7 0.3-1.9-0.8-1.8-8.2 0.8-16.2 2.1-22.4 8-0.5 0.4-0.3 1.1 0.2 1.4 2.6 2 7.8-0.1 10.6-0.9 4.4-1.3 8.5-3.4 12.3-6 1-0.7 0.4-2.1-0.8-1.8-6.3 1.6-12.3 3.3-17.9 6.7-0.9 0.6-0.5 1.7 0.5 1.8 7.7 0.9 14.9-1.7 20.4-7.1 1-0.9-0.4-1.8-1.3-1.5-4.7 1.9-9.3 4-13.8 6.4-1.4 0.7-0.6 2.6 0.8 1.8 4.5-2.4 9.1-4.5 13.8-6.4-0.4-0.5-0.9-1-1.3-1.5-4.9 4.8-11.3 6.9-18.1 6.1 0.2 0.6 0.3 1.2 0.5 1.8 5.2-3.1 10.9-4.7 16.7-6.2-0.3-0.6-0.5-1.2-0.8-1.8-2.9 1.9-5.9 3.6-9.1 4.8-2.1 0.7-8.7 3.4-10.8 1.8 0.1 0.5 0.1 1 0.2 1.4 5.6-5.4 13.3-6.3 20.7-7-0.3-0.6-0.5-1.2-0.8-1.8-6.4 4-13.3 6.2-20.9 6.5-0.8 0-2.2 1.4-1 2 8.7 4.1 22.6 2.9 27.6-6.6 0.3-0.5 0-1.1-0.6-1.3-10.5-3.3-21.7-0.5-29.6 7.2-1.2 1.2 0.8 2.1 1.8 1.2z"/>
	


	
		<path class="st1" d="m116.7 191c4.5-1.4 7.3 2.9 8.5 6.4 0.4-0.3 0.8-0.6 1.1-1-4.1 0.5-8.1-0.3-11.6-2.6-1.3-0.9-2-0.8-0.8-2.2s2-0.6 3.5 0.1c2 0.9 3.9 1.9 5.1 3.9 0.2-0.3 0.3-0.5 0.5-0.8-1.5 0.5-4.7-1.3-5.9-1.9-1.6-0.8-3.2-1.7-4.8-2.6-0.5 0.4-1 0.8-1.4 1.2 4 1.1 7.7 2.8 11.1 5.1 0.7 0.5 3.1-0.1 2.1-0.8-4.8-3.5-9.5-4.3-15-5.9-1-0.3-2.8 0.8-1.2 1.3 5.2 1.5 9.6 2.3 14.1 5.5 0.7-0.3 1.4-0.6 2.1-0.8-3.7-2.5-7.7-4.3-12.1-5.5-0.7-0.2-2.7 0.5-1.4 1.2 3.6 2.1 9.3 5.9 13.7 4.5 0.3-0.1 0.7-0.5 0.5-0.8-1.8-3-5.7-4.9-9-5.7-1.5-0.4-6.1-0.8-6.5 1.6-0.3 2.3 4.8 4.7 6.4 5.4 3.4 1.5 7 1.8 10.6 1.4 0.5-0.1 1.4-0.3 1.1-1-1.8-5.4-6.5-8.9-12.2-7-1.4 0.4 0.6 1.3 1.5 1z"/>
	


	
		<path class="st1" d="m124.9 187.7c1.8-1.6 3.8-2.9 6-3.8 1.9-0.7 5.4-1.9 7.4-1.1l-0.9-0.9c0.5 2.8-3.1 4.5-5.3 5-2.6 0.5-5.4 0.5-8.1 0.3 0.5 0.5 1 0.9 1.4 1.4 1.2-1.5 4.3-1.9 6-2.5 2-0.7 4.1-1.4 6.1-2.1-0.6-0.5-1.2-1-1.8-1.4-2.7 1.1-5.4 2.3-8.1 3.4-1.1 0.5 0.9 1.8 1.8 1.4 2.7-1.1 5.4-2.3 8.1-3.4 1.2-0.5-1-1.7-1.8-1.4-2.4 0.8-4.7 1.6-7.1 2.4-1.7 0.6-4.2 0.9-5.3 2.3-0.6 0.8 0.9 1.4 1.4 1.4 3.5 0.2 7.7 0.4 11-1 1.6-0.7 5.2-3.5 3.9-5.7-1.2-1.8-5.6-0.9-7.1-0.5-3.7 0.7-6.9 2.5-9.7 4.9-0.8 0.8 1.4 2 2.1 1.3z"/>
	


	
		<path class="st1" d="m171.8 61.4c0.8-3.4 2.3-6.5 4.7-9.1 3.7-3.9 9.2-5 13.9-7.1 4-1.7 7.9-3.9 10.4-7.5 1.5-2.2 2.5-4.7 2.4-7.5 0-1.4-0.4-5.2-2.3-5.6-1.7-0.4-4.4 2-5.3 2.8 0.8-0.3 1.5-0.6 2.3-0.9 1.5-4.7-5.4-0.6-6.5 0.8 0.8-0.3 1.5-0.6 2.3-0.9 0.3-2.1-0.8-2.3-2.4-1.8-1.8 0.6-1.8 1.9-2.9 3.1 0.7-0.3 1.5-0.6 2.2-0.9-1.8-0.5-4.4 0.1-4.8 2.2 0.6-0.3 1.1-0.5 1.7-0.8-2.1 0.7-3.6 1.2-4.9 3.2 0.8-0.3 1.5-0.6 2.3-0.9-0.1-1.8-1.6-1.6-2.8-1.2-2 0.6-2.9 2.4-3.8 4.2 0.8-0.3 1.5-0.6 2.3-0.9-0.2-0.4-0.4-0.8-0.5-1.2-0.1-0.3-2.1 0.7-2.3 0.9l-1.5 1.2c0.8-0.3 1.5-0.6 2.3-0.9 0.1-2.6 1.2-7.4-2.8-7.1-1 0.1-2 0.8-2.8 1.4 0.7-0.3 1.5-0.5 2.2-0.8 0.7-2.9-0.3-2.2-1.4-3.6-0.1-0.1-0.7 0.3-0.7 0.2-0.5-0.4 0.3-1.3-0.8-1.8-1.3-0.6-3.3 1-3.9 1.9 0.8-0.3 1.5-0.6 2.3-0.9-1.4-1.9-4.1 0-4.5 1.8 0.8-0.3 1.6-0.6 2.3-0.9-0.3-0.3-1.4-0.9-1.7-1.2-0.9-1.4-0.2-3-1.3-4.3-0.8-1-1.8-1.1-3-1-1.7 0.2-3.1 1.1-3.6 2.8 0.1-0.2 2.2-0.3 2.3-0.9 1.3-0.5 2.2-0.2 2.5 1 0.4 1.1 0.3 2.2-0.3 3.3h0.1c1.1-0.1 2 0.3 2.5 1.2 0.2 0.2 2.3-0.6 2.3-0.9 0.2-0.5 0.4-1.1 0.7-1.6-0.7 0.3-1.5 0.6-2.2 0.9 0.5 0.2 0.9 0.5 1.4 0.7 0.2 0.3 2.1-0.6 2.3-0.9 0.2 0.5 0.3 1.1 0.3 1.7 0 0.1 0.9-0.2 0.9-0.2 1.9-0.6 1.1 3.2 1 3.5 0 0 2-0.6 2.2-0.8 1.5-1.1 1.2 7.6 1.2 7.3 0 0.1 2.1-0.7 2.3-0.9l1.5-1.2c-0.8 0.3-1.5 0.6-2.3 0.9 0.2 0.4 0.4 0.8 0.5 1.2 0.1 0.2 2.2-0.6 2.3-0.9 0.3-0.6 1.9-3.5 2.1-1.2 0 0.1 2.1-0.6 2.3-0.9 0.5-0.5 1-1.1 1.5-1.6 0.3-0.1 1.6-0.4 1.7-0.8 0.3-0.5 0.6-0.9 0.8-1.4-0.7 0.3-1.5 0.6-2.2 0.9 0.6-0.1 1.1 0 1.7 0.2 0.5 0.1 1.9-0.5 2.2-0.9 0.6-0.7 1-1.2 0.7 0.4 0 0 2.1-0.6 2.3-0.9 2.7-3.3 2.2 0.1 1.9 0.9 0 0 2-0.6 2.3-0.9 2.4-2.1 3 3 3 4.5 0 2.9-1 5.7-2.8 8-3.9 4.9-10 6.4-15.5 8.7-6.7 2.7-11.4 7.3-13.2 14.5 0.3 0.1 2.4 0.1 2.6-0.6z"/>
	


	
		<path class="st1" d="m157.7 20.9c-1.1 8.2-4.6 14.3 1.9 21.2 3 3.1 7.6 5.2 8.8 9.6 1.3 4.8 0.1 10.6-1.5 15.2-0.2 0.5 2.1 1.5 2.3 1 1-2.8 2.1-5.4 3.4-8 0.2-0.4-2-1.5-2.3-1-1.3 2.6-2.5 5.2-3.4 8 0.8 0.3 1.5 0.7 2.3 1 2.1-6.2 3.8-15.1-1.5-20-3.6-3.3-8.4-6-9.7-11-1.4-5 1.3-9.9 1.9-14.9 0.2-0.7-2.2-1.4-2.2-1.1z"/>
	


	
		<path class="st1" d="m193.3 33.5c-1.5 2.3-3 4.7-5 6.6-2.3 2.2-5.1 3.3-8.1 4.4-0.9 0.3 0.8 2.1 1.7 1.8 2.8-1 5.5-2 7.8-4s4-4.6 5.6-7.2c0.5-0.9-1.5-2.4-2-1.6z"/>
	


	
		<path class="st1" d="m186.1 38.4c-1.6 2.4-4.3 3.4-6.9 4.3-0.4 0.1-0.7 0.3-0.4 0.6s1.4 0 1.7-0.1c3-1 6.1-2.2 8-4.9 0.2-0.3-2.1-0.4-2.4 0.1z"/>
	


	
		<path class="st1" d="m181.9 36.7c-1.1 1.3-2.3 2.4-3.6 3.4-0.6 0.5 1.4 1.8 2 1.4 1.4-1.1 2.7-2.3 3.8-3.6 0.4-0.6-1.7-1.9-2.2-1.2z"/>
	


	
		<path class="st1" d="m176.6 39c-3.4 2.5-5.2 6.3-5 10.6 0 0.5 2.4 0 2.4-0.8-0.2-3.8 1.4-7.5 4.5-9.7 1-0.8-1.4-0.4-1.9-0.1z"/>
	


	
		<path class="st1" d="m172.4 45.2c-0.3-3.9 2.1-7.2 2.7-11 0.1-0.6-1.9-1.8-1.9-1.4-0.6 3.8-3.1 7-2.7 11 0 0.6 1.9 1.6 1.9 1.4z"/>
	


	
		<path class="st1" d="m171.2 45.9c-1.1-4.7-1.6-9.3-1.4-14.1 0-0.3-2.5-0.3-2.5 0.1-0.2 4.8 0.3 9.5 1.4 14.1 0.1 0.4 2.6 0 2.5-0.1z"/>
	


	
		<path class="st1" d="m169.2 44.6c-2.5-5.4-2.8-11.4-5-16.9-0.5-1.3-3-0.7-2.4 0.6 2.3 5.7 2.6 11.9 5.3 17.5 0.5 1.3 2.7 0.2 2.1-1.2z"/>
	


	
		<path class="st1" d="m318.7 1.6c11.3 5 12.8 18.3 11.1 29.1-0.8 5-2.2 9.9-3.4 14.8-0.6 2.3-1.1 4.6-1.5 7-0.2 1.2-0.4 2.3-0.5 3.5-0.2 1.5 0.5 3.7-1.9 2.1-1.3-0.9-2.6-4.7-3.6-6.2-1.3-2-2.7-3.9-4.1-5.9-2.9-4-5.9-7.9-8.3-12.1-6-10.6-6.3-22.7 1.7-32.3 0.9-1.1-0.8-2.9-1.7-1.8-8.1 9.7-8.5 22-3 33 3.4 6.8 8.3 12.5 12.6 18.7 1.8 2.7 3.2 6.5 5.2 8.8 0.8 0.9 1.7 1.9 3 1.7s1.6-0.9 2-1.9c0.6-1.4 0.3-3.7 0.6-5.2 0.3-2.1 0.7-4.1 1.2-6.1 1.7-7.5 4.2-15 4.7-22.7 0.7-10.8-3.1-22.1-13.5-26.8-1.7-0.7-1.9 1.7-0.6 2.3z"/>
	


	
		<path class="st1" d="m317.6 1.3c0.5 7.1 0.8 14.2-1.3 21.1-1.9 6.1-4.9 12-7.5 17.8-0.2 0.5 2 1.6 2.2 1.2 2.9-6.4 6.2-12.7 8-19.5 1.7-6.4 1.2-13 0.8-19.6-0.1-0.6-2.2-1.4-2.2-1z"/>
	


	
		<path class="st1" d="m333.5 26.4c-6.2-2.7-11.1-7.4-14.1-13.5-0.7-1.4-1.9-0.7-1.3 0.6 3.3 6.8 8.7 12.1 15.7 15.1 1.1 0.6 0.5-1.8-0.3-2.2z"/>
	


	
		<path class="st1" d="m294.8-1.4c-10.2 6.2-11.3 23.6-8.5 33.9 0.6 2 1.5 4.9 3.8 5.6 5.1 1.6 9.6-8.9 11.1-12.3 0.3-0.6-1.6-2-1.7-1.9-1.5 3.4-3.9 9.3-7.3 11.3-3.2 1.9-4 0.1-4.7-2.9-0.6-2.7-0.9-5.5-0.9-8.3 0-8.1 2.3-19 9.7-23.5 0.4-0.2-1-2.2-1.5-1.9z"/>
	


	
		<path class="st1" d="m300.4 7.4c-3.5 4.1-7.8 7.2-12.9 9-1.5 0.5-0.5 2.7 0.8 2.2 5.5-1.9 10.2-5.1 13.9-9.5 1-1.2-0.9-2.7-1.8-1.7z"/>
	


	
		<path class="st1" d="m292.2 16.1c0.6 4.8 1.6 9.6 3 14.2 0.2 0.8 2.7 0.5 2.5-0.1-1.4-4.7-2.4-9.4-3-14.2-0.1-0.8-2.6-0.6-2.5 0.1z"/>
	


	
		<path class="st1" d="m337.1 0.3c3.4 0.7 7.3 1.8 9.9 4.3 3.6 3.5 4.5 7.8 4.7 12.5 0.1 1 0.4 2.7-0.6 3.5-0.8 0.7-4.4 0.6-5.5 0.6-2.9 0-10.3-0.3-11.7-3.1-0.2-0.4-2-2-1.5-1 2 3.8 5.8 5 9.9 5.7 2.6 0.4 7.5 1.3 9.8-0.1 2.3-1.3 1.5-3.4 1.2-6.1-1-10-8-16.4-17.7-18.3-0.1 0 0.8 1.9 1.5 2z"/>
	


	
		<path class="st1" d="m334.9-1.6c3.4 7.9 5.3 16.2 5.6 24.8 0 0.7 1.8 2.4 1.8 1.4-0.3-9-2.3-17.6-5.8-25.8-0.4-0.7-2.2-1.8-1.6-0.4z"/>
	


	
		<path class="st1" d="m351.7 11.6c-4.7 0.1-9.1-0.6-13.5-2.1-1-0.4-2.5 0.3-0.9 0.9 5 1.8 10.1 2.6 15.4 2.4 1.6-0.1-0.2-1.2-1-1.2z"/>
	


	
		<path class="st1" d="m278.8 21.8c-10.1 17.7-14.6 37.8-13.1 58.1 0.1 1 1.7 1.2 2.2 0.5 3.9-5.5 7.3-11.2 10.2-17.3 0.6-1.3-1.8-2-2.3-0.8-2.8 5.9-6.1 11.5-9.9 16.8 0.7 0.2 1.5 0.3 2.2 0.5-1.4-19.9 3.1-39.6 13-57 0.7-1.2-1.7-1.9-2.3-0.8z"/>
	


	
		<path class="st1" d="m287 33.7c-1.1 8.9-4.3 17.1-9.7 24.3-0.8 1.1 0.9 2.9 1.7 1.8 5.6-7.5 9-16 10.2-25.3 0.1-1.3-2-2.3-2.2-0.8z"/>
	


	
		<path class="st1" d="m331.9 24.6c-0.5 7.2 2.3 13.8 7.6 18.6 0.9 0.8 2.4 0.6 1.2-0.6-4.8-4.4-7.1-10.5-6.6-17 0.1-0.8-2.1-1.9-2.2-1z"/>
	


	
		<path class="st1" d="m333.7 20.3c4.3 5.1 8.6 10.4 9.9 17.1 0.3 1.4 2.8 1.4 2.5-0.1-1.4-7.1-5.7-12.8-10.4-18.2-0.9-1.1-3 0-2 1.2z"/>
	


	
		<path class="st1" d="m344.2 38.3c0.3 2.3 0.5 4.6 0.5 6.9 0.1-0.1 0.3-0.2 0.4-0.3-1.6 0.5-3.2 0.5-4.8 0-0.4-0.1-1.4-0.4-1.7 0s-0.1 0.6 0.4 0.8c2.6 0.9 5.2 1 7.9 0.2 0.1 0 0.4-0.2 0.4-0.3-0.1-2.3-0.2-4.6-0.5-6.9-0.2-0.9-2.7-1-2.6-0.4z"/>
	


	
		<path class="st1" d="m283.5 0.7c-9.1-0.3-15.8 5.7-21.4 12.2-6.8 7.9-13.1 16.4-14.7 26.9-0.1 0.4 0.6 0.3 0.8 0.3 7.3-1 14.5-6.1 20.8-9.7 6.1-3.5 11.8-7.3 15.9-13.1 0.5-0.7-1.8-0.1-2.2 0.4-4.2 5.8-10.2 9.5-16.3 13-3.3 1.9-6.7 3.7-10.1 5.5-1 0.5-3.5 2.3-4.7 2.1-2.5-0.4-1.4-2.3-0.9-4 2-6.8 6.2-12.7 10.6-18.1 5.4-6.6 11.5-14.3 20.8-14 0.8-0.1 2.7-1.5 1.4-1.5z"/>
	


	
		<path class="st1" d="m244.5 164.2c-0.3-4.9-3.4-9.2-6-13.1-2.7-4.1-5.5-8.1-9.1-11.5s-11.6-9-16.9-5.9c-7.2 4.2 2.2 16.5 6 19.9 7.4 6.6 15.5 10.7 25 13.1 0.3 0.1 1.8 0.1 1.2-0.5-6.9-7.5-13.8-15-20.7-22.5-0.5-0.5-2.8-0.6-2.2 0 6.9 7.5 13.8 15 20.7 22.5 0.4-0.2 0.8-0.3 1.2-0.5-11.7-3-30.8-12.4-31-26.8-0.1-7.2 10-3.1 13.4-0.2 2.3 2 4.2 4.2 6 6.6 3.8 4.9 9.5 11.9 9.9 18.4 0.1 0.7 2.5 1 2.5 0.5z"/>
	


	
		<path class="st1" d="m227 146.7c-0.1-3.6-0.8-7-1.9-10.5-0.3-0.9-2.7-1.3-2.3 0 1 3.3 1.6 6.6 1.8 10 0 1 2.4 1.6 2.4 0.5z"/>
	


	
		<path class="st1" d="m229.4 149.7c1.2-2 1.8-4.3 1.7-6.6 0-1.4-2.5-1.8-2.4-0.3 0.1 2-0.4 3.8-1.4 5.5-0.7 1.3 1.4 2.7 2.1 1.4z"/>
	


	
		<path class="st1" d="m233.6 156c0.8-1.9 1.3-3.8 1.7-5.8 0.2-1.3-2.2-1.5-2.5-0.2-0.3 1.8-0.9 3.5-1.6 5.2-0.5 1.4 1.9 2 2.4 0.8z"/>
	


	
		<path class="st1" d="m234.5 156.7c-3.6-1.8-7.3-3.4-11.1-4.6-1.2-0.4-2.6 1.4-1.1 1.9 3.7 1.1 7.2 2.6 10.6 4.3 1 0.6 2.9-0.9 1.6-1.6z"/>
	


	
		<path class="st1" d="m229.7 150c-4.2-1.4-8.5-2.3-12.9-2.9-1.6-0.2-1.3 1.8 0.1 2 4.2 0.6 8.2 1.5 12.2 2.8 1.6 0.4 2.1-1.4 0.6-1.9z"/>
	


	
		<path class="st1" d="m223.6 144.7c-2.8-1.6-5.7-2.7-8.9-3.4-1.3-0.3-0.6 2.1 0.3 2.3 3 0.6 5.8 1.6 8.4 3.2 1.4 0.7 1.1-1.6 0.2-2.1z"/>
	


	
		<path class="st1" d="m237.9 142.9c-7.7-9.1-11.5-20.4-11-32.3l-2.1 0.9c12.3 6.1 11.9 25.2 11.3 36.8-0.1 1.1 2.4 0.6 2.4-0.4 0.6-12.2 0.9-31.5-11.9-37.8-0.6-0.3-2.1 0-2.1 0.9-0.6 12.2 3.3 23.8 11.2 33.1 0.7 0.7 2.9-0.4 2.2-1.2z"/>
	


	
		<path class="st1" d="m229.8 119.3c0 8.6 2 16.8 5.7 24.6 0.3 0.7 2.7 1.3 2.2 0.3-3.7-7.7-5.5-15.7-5.6-24.2 0-0.8-2.3-1.6-2.3-0.7z"/>
	


	
		<path class="st1" d="m242.3 155.3c-0.6-4.3 0-8.6 2.2-12.4 1.2-2.1 7.1-9.1 9.1-6.1 2.1 3.2-1.1 10-2.7 12.6-2.3 3.8-5.6 6.6-9.5 8.6-0.3 0.2 1.7 0.1 2.2-0.1 5.1-2.5 9.3-6.7 11.4-12 1-2.5 3.2-10.4-0.6-11.2-3-0.6-7.1 2.7-9.1 4.5-4.6 4.3-6.4 10.4-5.5 16.6 0 0.2 2.5-0.1 2.5-0.5z"/>
	


	
		<path class="st1" d="m253.3 136.8c-5 6.7-9.5 13.8-13.5 21.2-0.6 1.1 1.9 0.9 2.3 0.1 3.9-7.3 8.2-14.2 13.2-20.8 0.9-1.2-1.4-1.2-2-0.5z"/>
	


	
		<path class="st1" d="m254.2 146.4c-4-0.3-7.9 0.4-11.5 2.2-0.2 0.1 0.8 0.2 0.9 0.2 0.5 0 1.1 0 1.5-0.2 2.3-1.2 4.7-1.9 7.3-1.7 0.5 0 1.3 0.1 1.8-0.1 0.3-0.3 0.5-0.3 0-0.4z"/>
	


	
		<path class="st1" d="m248 150.1c-1.2 0.2-2.4 0.5-3.7 0.7-1.4 0.3-0.3 2.5 0.9 2.3s2.4-0.5 3.7-0.7c1.4-0.3 0.4-2.6-0.9-2.3z"/>
	


	
		<path class="st1" d="m246.6 138.1c-0.3 3.2-0.6 6.4-1 9.6-0.2 1.4 2.3 1.6 2.5 0.2 0.4-3.2 0.7-6.4 1-9.6 0.1-1.4-2.4-1.7-2.5-0.2z"/>
	


	
		<path class="st1" d="m227.8 123.3c-7.1-7.2-15.4-12.8-24.9-16.5-0.6-0.2-2.3 0.9-2.2 1 9.4 3.7 17.7 9.2 24.7 16.4 0.5 0.4 2.5-0.9 2.4-0.9z"/>
	


	
		<path class="st1" d="m223.9 127.3c0.2 0.1-3.9 1.2-4 1.2-2.2 0.3-4.1 0.1-6.2-0.8-2.2-1-3.9-2.6-5.2-4.5-0.5-0.6-2.9-0.7-2.2 0.3 2.8 3.9 7.1 6.3 12 6.6 1.4 0.1 10.3-0.9 7.5-3.3-0.6-0.6-3-0.4-1.9 0.5z"/>
	


	
		<path class="st1" d="m224.7 121.4c-4.8 1.3-9.6 2.4-14.5 3.2-1.6 0.3-0.9 2.3 0.6 2.1 4.9-0.8 9.7-1.9 14.5-3.2 1.6-0.4 0.9-2.5-0.6-2.1z"/>
	


	
		<path class="st1" d="m220 118.6c-3.4 0.3-6.7 0.9-10 1.9-0.6 0.2-2.3 1.7-0.8 1.2 3.1-0.9 6.3-1.5 9.5-1.8 0.5 0 2.5-1.4 1.3-1.3z"/>
	


	
		<path class="st1" d="m215.8 115.8c-2.6 0.1-5.1 0.3-7.7 0.6-0.4 0-1 0.4-0.8 0.9s1.1 0.5 1.6 0.4c2.3-0.3 4.7-0.5 7-0.6 1.5 0 1.4-1.3-0.1-1.3z"/>
	


	
		<path class="st1" d="m228.4 111c-1.1-3.4-1.5-6.9-1-10.5 0.4-3 2.5-12.3 6.6-8.4 2.5 2.4 3.1 7.2 3.3 10.3 0.4 6.3 0.4 10.8-7 14.1-0.6 0.3-2.1 1.9-0.7 1.3 3.7-1.6 7.9-3.7 9.4-7.8 1.6-4.6 1-18.3-4.5-21-2.8-1.4-4.7 1.7-6.1 3.9-3.6 5.9-4.2 13-2.1 19.5 0.2 0.4 2.3-0.7 2.1-1.4z"/>
	


	
		<path class="st1" d="m234.2 93.6c-4.6 0.6-7.9 6-10.2 9.5-0.3 0.4 1.9 1.7 2.2 1.1 2.1-3.3 5.3-8.8 9.7-9.3 0.8-0.1-1.1-1.4-1.7-1.3z"/>
	


	
		<path class="st1" d="m235.5 97.8c-3.2 2.5-5.8 5.5-7.8 9.1-0.5 0.9 1.7 2.1 2.2 1.2 1.9-3.4 4.4-6.4 7.5-8.7 0.9-0.7-1.1-2.2-1.9-1.6z"/>
	


	
		<path class="st1" d="m237.3 105.2c-2.8 2.3-5.3 4.9-7.5 7.8-0.2 0.3 2 0.4 2.4-0.2 2.1-2.8 4.6-5.3 7.3-7.5 0.6-0.5-1.7-0.5-2.2-0.1z"/>
	


	
		<path class="st1" d="m199.6 108c2.5 5.2 5.2 10.3 8 15.3 0.9 1.6 3.5 1.8 2.3-0.4-2.8-5-5.5-10.1-8-15.3-0.8-1.6-3.4-1.8-2.3 0.4z"/>
	


	
		<path class="st1" d="m30.7 26.6c0-0.5 0.1-0.9 0.4-1.4 0.1-0.1 1.1-0.9 1.1-0.9-1-0.3-1.2-0.2-0.5 0.2 0.2 0.2 0.4 0.3 0.5 0.5 0.3 0.4 0.5 0.8 0.7 1.2 0.3 1 0.3 2.2-0.1 3.1-0.3 0.6-0.7 0.9-1.2 1.3-0.6 0.4-0.6 0.4 0.1 0.3-0.2-0.1-0.4-0.2-0.5-0.4-1.6-1.3-1.7-4.1-0.6-5.8 0.1-0.2 0.2-0.3 0.4-0.4-1.4-0.4-1.8-0.2-1.2 0.3 0.2 0.6 0.5 1.1 0.6 1.8 0.1 0.4 0.3 3-0.4 3.1 0.8 0 1.5 0.1 2.3 0.1-0.2 0-0.4-1.3-0.4-1.6 0-0.6 0.2-1.3 0.8-1.5-1.1-0.1-2.3-0.2-3.4-0.4 0.3 0.4 0.4 0.8 0.6 1.2 0.3 0.9 3.8 0.6 3.7 0.3-0.2-0.6-0.4-1-0.7-1.5-0.5-0.7-2.7-0.6-3.4-0.4-1.5 0.6-1.7 2.6-0.6 3.7 0.9 1 4 1.4 4.9 0.3 1.1-1.2 0.6-4.4-0.5-5.5-1.2-1.2-3.8-1.4-5.3-0.8-1.7 0.7-1.9 3.4-1.5 4.9 0.5 1.9 2 2.9 3.8 3.3 1.7 0.4 4 0.5 5.4-0.6 1.5-1.1 1.7-3.4 1-5-1-2.2-3.3-2.8-5.5-2.8-1.8 0-3.9 0.9-3.9 3-0.3 0.8 3.4 1 3.4 0.4z"/>
	


	
		<path class="st1" d="m719.8 199.5c5.4-0.9 9.9-3.5 13.3-7.8 0.5-0.6-1-1.8-1.5-1.8-1.3 0-2.6 0-3.9 0.1l1.5 1.8c1.8-2.1 3.2-4.2 4.5-6.6 0.4-0.7-0.9-1.8-1.5-1.8-1.7 0.1-1.5 0.1-3.2 0.4l1.7 1.7c2.1-4 0.9-6.8 0-11-0.1-0.4-1.5-2-1.9-1.3-0.6 1-1.3 2.1-1.9 3.1 0.6 0.4 1.3 0.9 1.9 1.3-0.4-3.5-3-6.5-4.3-9.7-0.2-0.4-1.3-1.7-1.9-1.1-2.4 2.6-4.9 5-6.4 8.2 0.6 0.3 1.3 0.6 1.9 1-0.4-0.8-0.8-1.5-1.2-2.3-0.2-0.4-1.3-1.7-1.9-1.1-1.3 1.5-1.6 2.9-1.8 4.9 0.5 0.2 1.1 0.3 1.6 0.5-0.4-0.6-0.9-1.3-1.3-1.9-0.2-0.2-1.4-1.5-1.7-0.9-1 1.8-1.6 3.6-1.5 5.6 0.1 2.2 2.8 5.9-0.7 3.3-0.3-0.2-1.2-0.6-1.1 0.1 0.8 6.6 5.1 10.8 10.1 14.7-0.3-0.5-0.5-1-0.8-1.5-1.5 2.4-3.3 4.1-5.6 5.7-0.6 0.4 1.1 2.1 1.9 1.7 2.4-1.6 4.1-3.3 5.6-5.7 0.3-0.5-0.5-1.2-0.8-1.5-4.2-3.2-7.7-7-8.3-12.4-0.4 0-0.7 0.1-1.1 0.1 1.4 1 2.5 1.6 4.2 2 0.7 0.2 0.7-0.4 0.4-0.8-2.1-3.2-2.1-6.5-0.3-9.7-0.6-0.3-1.2-0.6-1.7-0.9 0.6 1.1 0.9 1.4 1.7 2.4 0.1 0.2 1.5 1.3 1.6 0.5 0.2-1.9 0.3-3 1.6-4.6-0.6-0.4-1.2-0.7-1.9-1.1 0.4 0.8 0.8 1.5 1.2 2.3 0.2 0.4 1.5 1.9 1.9 1 1.4-3.1 4-5.4 6.2-7.9-0.6-0.4-1.2-0.7-1.9-1.1 1.3 2.9 3.9 6.1 4.2 9.2 0 0.4 1.5 2 1.9 1.3 0.6-1 1.3-2.1 1.9-3.1-0.6-0.4-1.3-0.9-1.9-1.3 0.8 3.8 2.1 6.6 0.1 10.3-0.4 0.8 1 1.9 1.7 1.7 0.9-0.1 1.9-0.3 2.8-0.4l-1.5-1.8c-1.3 2.4-2.8 4.5-4.5 6.6-0.5 0.6 1 1.8 1.5 1.8 1.3 0 2.6 0 3.9-0.1l-1.5-1.8c-3.4 4.2-7.8 6.8-13.1 7.6-0.5 0.4 1 2.3 1.8 2.1z"/>
	


	
		<path class="st1" d="m722 173.1c-0.9 8.3-1.8 16.2-4.1 24.2 0-0.1 2.2 0 2.4-0.6 2.3-8 3.2-15.9 4.1-24.2 0.1 0-2.3 0.1-2.4 0.6z"/>
	


	
		<path class="st1" d="m726.1 178.7c0.3-0.3 0.5-0.5 0.7-0.8-0.6-0.5-1.3-1.1-1.9-1.6-1.2 1.7-2.4 3.3-3.7 4.9-0.9 1.1 1 2.8 1.9 1.6 1.3-1.6 2.5-3.2 3.7-4.9 0.8-1.2-1-2.8-1.9-1.6-0.2 0.3-0.5 0.6-0.7 0.8-1 1 0.9 2.6 1.9 1.6z"/>
	


	
		<path class="st1" d="m725.8 180.8c-1.6 1.9-3.1 3.8-4.7 5.7-0.6 0.7 1.8 1.3 2.4 0.6 1.6-1.9 3.1-3.8 4.7-5.7 0.6-0.8-1.8-1.3-2.4-0.6z"/>
	


	
		<path class="st1" d="m723.7 186.8c-0.9 1.1-1.8 2.1-2.8 3.1-0.3 0.4 0.8 0.5 0.9 0.5 0.5 0 1.2 0 1.5-0.4 0.9-1 1.9-2.1 2.8-3.1 0.3-0.4-0.8-0.5-0.9-0.5-0.4-0.1-1.1 0-1.5 0.4z"/>
	


	
		<path class="st1" d="m722.7 182.3-3-3.6c-0.4-0.5-1-0.6-1.6-0.4-0.4 0.1-1.1 0.7-0.7 1.2 1 1.3 2.1 2.7 3.3 3.9 0.6 0.9 2.9 0 2-1.1z"/>
	


	
		<path class="st1" d="m722.2 187.9c-0.8-0.5-1.4-1.7-2-2.4-0.7-0.9-1.6-1.6-2.4-2.4-1-0.9-2.5-0.1-1.3 1 1 0.9 1.9 1.8 2.6 2.8 0.7 0.9 1.3 1.8 2.4 2.4 0.4 0.2 1.2 0.4 1.5-0.1 0.2-0.5-0.4-1.1-0.8-1.3z"/>
	


	
		<path class="st1" d="m721.5 191.2c-0.8-0.9-1.6-1.8-2.4-2.8-0.6-0.6-3-0.3-2.2 0.7 0.8 0.9 1.6 1.8 2.4 2.8 0.6 0.6 3 0.2 2.2-0.7z"/>
	


	
		<path class="st1" d="m720.4 193.8-1.5-1.5c-0.4-0.4-1.1-0.8-1.7-0.4-0.5 0.3-0.5 1.1-0.1 1.6l1.5 1.5c0.4 0.4 1.1 0.8 1.7 0.4 0.5-0.4 0.5-1.2 0.1-1.6z"/>
	


	
		<path class="st1" d="m722.4 190.9-2.1 1.5c-1.1 0.8 0.4 2.8 1.5 2l2.1-1.5c1.1-0.7-0.4-2.8-1.5-2z"/>
	


	
		<path class="st1" d="m388.2 116.2c6.8 0 12.8-2.3 17.9-6.9 0.6-0.6-1.1-1.7-1.5-1.8-1.6-0.2-3.2-0.5-4.8-0.7l1.5 1.8c2.6-2.1 4.8-4.4 6.8-7.1 0.5-0.7-1-1.7-1.5-1.8-1.2-0.2-2.5-0.2-3.7-0.1l1.5 1.8c3.4-4.4 2.4-8.1 2.2-13.3 0-0.5-1.4-1.9-1.9-1.3-1 1.1-2 2.3-2.9 3.4 0.6 0.5 1.3 1 1.9 1.5 0.2-4.4-2.3-8.3-3.3-12.5-0.1-0.6-1.3-1.9-1.9-1.3-3.3 2.6-7 4.9-9.3 8.5 0.6 0.4 1.2 0.7 1.9 1.1-0.4-1-0.7-2-1.1-3-0.2-0.5-1.3-1.6-1.9-1.1-1.9 1.5-2.5 3.3-3.1 5.5 0.6 0.3 1.3 0.6 1.9 1-0.6-0.9-1-1.9-1.4-2.9-0.2-0.4-1.4-1.7-1.9-1.1-1.7 2.1-2.7 4.3-2.9 7-0.1 2.1 2.3 7.3-1.2 3.6-0.1-0.1-1.6-1.3-1.6-0.5-0.3 4.8 1.1 9 3.7 12.9 0.9 1.4 4 4.2 4 5.6-0.2 2.4-5.1 4.5-6.9 5.3-0.8 0.3 0.9 2.1 1.6 1.8 3.2-1.4 5.8-3.2 8.1-5.8 0.2-0.3-0.1-0.8-0.3-1-4.7-4.9-8.5-10.3-8.1-17.4-0.5-0.2-1.1-0.3-1.6-0.5 1.6 1.6 3 2.8 5.2 3.6 0.5 0.2 0.7-0.2 0.5-0.6-2-4.3-1.4-8.6 1.6-12.3-0.6-0.4-1.2-0.7-1.9-1.1 0.3 1 0.8 2 1.4 2.9 0.2 0.3 1.7 1.9 1.9 1 0.6-2.2 1.1-3.9 3-5.3-0.6-0.4-1.2-0.7-1.9-1.1 0.4 1 0.7 2 1.1 3 0.1 0.4 1.5 1.7 1.9 1.1 2.3-3.6 6-5.9 9.3-8.5-0.6-0.4-1.3-0.9-1.9-1.3 0.9 3.8 3.5 8.2 3.3 12.1 0 0.6 1.4 2.2 1.9 1.5 1-1.1 2-2.3 2.9-3.4-0.6-0.4-1.3-0.9-1.9-1.3 0.2 4.9 1.2 8.5-2 12.6-0.5 0.6 1 1.8 1.5 1.8 1.3-0.1 2.5-0.1 3.7 0.1l-1.5-1.8c-2 2.6-4.2 4.9-6.8 7.1-0.7 0.6 1.2 1.7 1.5 1.8 1.6 0.2 3.2 0.5 4.8 0.7l-1.5-1.8c-4.9 4.4-10.7 6.7-17.3 6.7-1.3-0.1 0.3 1.8 1 1.8z"/>
	


	
		<path class="st1" d="m396.6 85c-2.7 9.8-5.4 19.3-9.8 28.5 0 0.1 2.1 0 2.4-0.5 4.4-9.3 7.1-18.8 9.8-28.7 0 0.2-2.2 0.1-2.4 0.7z"/>
	


	
		<path class="st1" d="m400 92.2c0.5-0.3 0.9-0.7 1.3-1.1-0.6-0.5-1.3-1.1-1.9-1.6-1.8 1.8-3.6 3.5-5.5 5.2-1.1 1 0.8 2.6 1.9 1.6 1.9-1.7 3.7-3.4 5.5-5.2 1-1-0.8-2.7-1.9-1.6-0.3 0.3-0.5 0.5-0.8 0.7-1.3 0.9 0.2 2.9 1.4 2z"/>
	


	
		<path class="st1" d="m399.8 95.1c-2.3 2-4.5 4-6.8 6-0.9 0.8 1.4 1.5 2.1 0.9 2.3-2 4.5-4 6.8-6 0.9-0.9-1.5-1.5-2.1-0.9z"/>
	


	
		<path class="st1" d="m396 101.9c-1.3 1.1-2.6 2.2-4 3.3-0.4 0.3 0.2 0.6 0.5 0.6 0.5 0.1 1.3 0 1.7-0.3 1.3-1.1 2.7-2.2 4-3.3 0.4-0.4-0.2-0.6-0.5-0.6-0.4 0-1.3 0-1.7 0.3z"/>
	


	
		<path class="st1" d="m395.1 96.3c-1.1-1.7-2.1-3.4-3-5.2-0.5-1-2.9-0.4-2.3 0.7 1 1.8 2 3.5 3 5.2 0.5 1 2.9 0.4 2.3-0.7z"/>
	


	
		<path class="st1" d="m393.7 103.1c-1-0.9-1.5-2.5-2.2-3.7-0.7-1.1-1.5-2.2-2.3-3.2-0.7-0.9-2.8-0.7-1.8 0.6 1 1.2 1.9 2.6 2.7 4 0.7 1.2 1.2 2.4 2.3 3.3 0.9 0.9 2.5 0.1 1.3-1z"/>
	


	
		<path class="st1" d="m391.9 106.7c-0.8-1.3-1.6-2.6-2.4-3.8-0.5-0.8-2.9-0.5-2.4 0.3 0.8 1.3 1.6 2.6 2.4 3.8 0.5 0.8 2.9 0.5 2.4-0.3z"/>
	


	
		<path class="st1" d="m390 109.6c-0.5-0.7-1-1.5-1.5-2.2-0.3-0.5-1.1-0.7-1.7-0.4-0.6 0.4-0.5 1.1-0.1 1.6 0.5 0.7 1 1.5 1.5 2.2 0.3 0.5 1.1 0.7 1.7 0.4 0.5-0.4 0.4-1.2 0.1-1.6z"/>
	


	
		<path class="st1" d="m393.2 107c-1 0.5-1.9 1-2.9 1.5-0.6 0.3-0.4 1.2-0.1 1.6 0.4 0.5 1 0.7 1.6 0.4 1-0.5 1.9-1 2.9-1.5 0.6-0.3 0.4-1.2 0.1-1.6-0.4-0.6-1-0.7-1.6-0.4z"/>
	


	
		<path class="st1" d="m826.8 126.6c-0.5-10.1 8-18.6 18.3-16.7 2.3 0.4-0.6-1.3-1.5-1.5-10.9-2-20.9 5.6-20.3 17 0 1.1 3.5 1.6 3.5 1.2z"/>
	


	
		<path class="st1" d="m842.3 109.4c-1 3.8-2.8 7.9-5.6 10.8-3.3 3.6-8.5 4.3-13.2 4.8-2.5 0.3-1.2 2.6 0.8 2.4 5-0.5 10.9-1.4 14.8-5 3.6-3.3 5.7-8.1 6.9-12.7 0.5-1.5-3.2-2-3.7-0.3z"/>
	


	
		<path class="st1" d="m828.5 175.9c1.7-11.5-3.3-22.8-12.9-29.4-1.3-0.9-4.4 1-2.7 2.2 9 6.2 13.6 16.8 12 27.6-0.3 1.8 3.4 1.3 3.6-0.4z"/>
	


	
		<path class="st1" d="m812.6 147.2c-2 4.8-4.2 11.3-1.1 16.1 3.4 5.3 9.2 9.8 13.9 13.8 1 0.8 4.5-0.1 3.1-1.3-4.3-3.7-8.7-7.5-12.3-11.9-4.1-4.9-2.2-11 0-16.4 0.6-1.5-3.1-1.6-3.6-0.3z"/>
	


	
		<path class="st1" d="m825.5 146.6c-1.7-6.4 0.7-17 8.6-18.5-1.1-0.1-2.3-0.2-3.4-0.2 3.3 2.6 4.1 9.7 3.1 13.5-0.5 2-1.7 3.6-3.1 5.1-1.1 1.2-5.3 6.1-7.2 6.2 0.9 0.1 1.9 0.2 2.8 0.4-0.6-2.5-1-4.9-1.3-7.4-0.1-0.6-3.8-0.4-3.7-0.2 0.3 2.5 0.7 4.9 1.3 7.4 0.1 0.5 2.4 0.4 2.8 0.4 3.9-0.1 9-5.7 10.9-8.9 2.2-3.7 2.5-14-2.1-16.4-2.3-1.2-5.4 0.5-7.1 1.8-5.3 4-7 10.5-5.4 16.8 0.2 0.5 3.8 0 3.8 0z"/>
	


	
		<path class="st1" d="m819.3 139.4c-3.9-4.1-5.7-10.1-4.9-15.7 0.4-2.6 1.5-1.5 2.4 0 0.7 1.2 0.6 2.9 0.8 4.2 0.4 3.7 0.1 7.3-1.1 10.9-0.5 1.5 3.2 1.9 3.6 0.7 1.7-4.7 3.6-22.5-6.2-20.2-3.8 0.9-3.5 5.8-3.2 8.8 0.4 4.6 2.2 8.7 5.4 12 0.8 1 4.4 0.5 3.2-0.7z"/>
	


	
		<path class="st1" d="m825.8 185.4c0.3-5-1.2-9.4-5.8-11.9-4-2.2-8.8-2.5-13.3-2.8-0.1 0-1 0-1 0.2 1.4 4.9 4.1 9.2 8 12.4 2.6 2.1 6.4 4.2 9.7 2.6 0.1 0-2.6-1.3-3.5-0.8-1.5 0.7-5.6-4.4-6.4-5.4-1.9-2.4-3.2-5.2-4-8.1-0.3 0.1-0.7 0.1-1 0.2 4.4 0.3 9.1 0.8 11.8 4.7 1.7 2.4 1.9 5.4 1.7 8.3 0 0.8 3.7 1.2 3.8 0.6z"/>
	


	
		<path class="st1" d="m828.7 181.8c1.1-3.7 3.8-6.5 6.6-9 1.7-1.5 3.5-3 5.5-4.2 1.5-1 3.2-2.8 4.2-0.6 1.6 3.3-0.8 7.9-3.2 10.1-2.8 2.4-9.3 5-12.8 2.8-1.7-1.1-3.8 0.7-1.7 2 4.3 2.7 11.5 1.2 15.6-1.3 4.5-2.8 7.3-8.4 5.7-13.6-0.5-1.8-1.6-4-3.6-4.5-2.2-0.6-4.6 1.4-6.3 2.5-5.3 3.4-11.6 8.3-13.4 14.6-0.7 1.7 2.9 2.9 3.4 1.2z"/>
	


	
		<path class="st1" d="m835.4 202c0.9-4 2.6-7.6 5.4-10.7 1.5-1.7 3.2-3.1 5.1-4.3 1-0.6 5.5-3.4 6.6-2.8 1.5 0.8 0 5.5-0.5 6.6-0.9 2.1-2.3 4.1-4.1 5.5-4.2 3.4-9.8 4.1-15.1 3.9-1.9-0.1 1 2 1.9 2.1 6 0.3 12.6-0.6 17.2-4.9 3-2.9 6.9-10.5 2.8-14.1-3.5-3-9.4 0.1-12.5 2.1-5.3 3.5-8.9 8.9-10.3 15-0.2 1.2 3.3 2.5 3.5 1.6z"/>
	


	
		<path class="st1" d="m794 83.4c-1.2-8.3 2-15.1 8-20.7 4.7-4.3 9.9-8.2 12.4-14.3 1.7-4.2 2.4-14.5-3.5-16.4-2.8-0.9-4.6 1.8-5.7 4 0.8-0.3 1.5-0.6 2.3-0.9-0.4-5.6-6.2 0.6-6.9 2.6 0.8-0.3 1.6-0.6 2.3-0.9-0.5-2.2-1.7-2.4-3.5-1.4-1.9 1-1.1 2.2-1.8 4.1l2.1-0.9c-3.9 0.5-6.1 3.4-6.7 7.2 0.8-0.3 1.6-0.6 2.3-0.9-0.7-1.6-2.5-1.3-3.9-0.5-2.1 1.2-2 3.2-2.2 5.5 0.8-0.3 1.6-0.6 2.3-0.9-0.4-0.3-0.7-0.7-1.1-1-0.3-0.2-2.1 0.6-2.3 0.9-0.4 0.6-0.7 1.3-1.1 1.9 0.8-0.3 1.5-0.6 2.3-0.9-1.1-2.9-1.4-7.5-5.5-6.8-1.3 0.2-2.6 0.9-3.2 2.1 0.8-0.3 1.5-0.6 2.3-0.9-0.5-3.9-3.3-4-5.8-1.9 0.8-0.3 1.5-0.6 2.3-0.9-1.3-2.5-4.9-1.4-5.5 1.1 0.8-0.3 1.6-0.6 2.3-0.9-1.8-1.8-4.6 0.7-4.2 2.8 0.8-0.3 1.6-0.6 2.3-0.9-1.8-0.9-2.7-0.6-4.5 0.1l1.2-0.3c-0.1-6.4-9.3-6.1-8.7-0.8 0 0 2.4-0.5 2.3-0.9 1.8-1.7 3-1.6 3.6 0.1 0.3 0.8 0.5 1.7 0.4 2.5 0 0.1 1.2-0.3 1.2-0.3 0.7 0.2 1.4 0.3 2 0.5 0.3 0.1 2.4-0.6 2.3-0.9 0.2-0.9 0-1.3-0.4-1 0.2 0.2 2.3-0.6 2.3-0.9 0.3 0.2 0.5 0.5 0.8 0.7 0.2 0.3 2.1-0.7 2.3-0.9s0.4-0.4 0.7-0.6c-0.7 0.3-1.5 0.6-2.2 0.9 2.3 0 2.5 1.5 2.7 3.3 0 0.1 2.2-0.6 2.3-0.9 1.2-2.4 4.1 6.3 4.1 6.4 0.1 0.2 2.2-0.6 2.3-0.9 0.4-0.6 0.7-1.3 1.1-1.9-0.8 0.3-1.5 0.6-2.3 0.9 0.4 0.3 0.7 0.7 1.1 1 0.2 0.2 2.3-0.6 2.3-0.9 0-0.1 0.6-5.1 1.5-3.1 0.1 0.2 2.3-0.6 2.3-0.9 0.1-1.6 0.9-2.9 2.3-3.8 0.1 0 0.1-0.1 0.1-0.1v-1.5c0.5-0.1 1.9-0.4 2.1-0.9 0.3-0.9 0.1-3.5 0.7-0.8 0 0.2 2.2-0.6 2.3-0.9 0.3-1.5 1-2.6 2.2-3.4l-1.2 0.3c1.1 0.6 1.1 1.1 1.2 2.3 0 0.1 2.1-0.6 2.3-0.9 3.1-5.8 6.1 7.1 5.8 9.5-0.7 5.9-4.6 10.7-8.8 14.6-7.8 7.2-14.5 13.4-12.8 25 0.5 0.2 2.9-0.4 2.8-0.8z"/>
	


	
		<path class="st1" d="m762.2 45c1.2 4.9 0.6 10.3 2.9 14.9 1.5 2.9 4.1 5 6.9 6.5 4.3 2.4 10.6 2.9 14.2 6.4 3.9 3.8 4.9 12.3 5.2 17.5 0 0.6 2.3 1.3 2.3 0.8-0.1-3.3 0-6.6 0.4-9.9 0.1-0.7-2.2-1.3-2.3-1-0.4 3.4-0.5 6.7-0.4 10.1 0.8 0.3 1.5 0.6 2.3 0.8-0.3-7.2-2.1-17.1-9.2-20.7-6.1-3.1-14.1-3.3-17.3-10.4-2-4.4-1.5-9.6-2.6-14.2-0.3-0.5-2.5-1.1-2.4-0.8z"/>
	


	
		<path class="st1" d="m805.6 43.7c-0.7 3.4-1.3 6.9-3 10-1.6 3-4 5.1-6.5 7.3-0.7 0.6 1.2 2.2 2 1.5 2.8-2.4 5.4-4.9 7-8.3 1.4-2.9 2-6.2 2.6-9.3 0.2-0.9-1.9-2.2-2.1-1.2z"/>
	


	
		<path class="st1" d="m799.6 51.9c-0.8 3.4-3.4 5.7-5.9 7.8-0.6 0.5 1.7 0.5 2.2 0.1 2.7-2.3 5.4-4.7 6.2-8.2 0.1-0.4-2.3-0.5-2.5 0.3z"/>
	


	
		<path class="st1" d="m794.7 51.7c-0.6 1.9-1.4 3.7-2.5 5.3-0.4 0.6 1.8 1.8 2.2 1.2 1-1.7 1.9-3.5 2.5-5.3 0.3-0.8-2-1.9-2.2-1.2z"/>
	


	
		<path class="st1" d="m789.7 56.6c-2.6 4-2.9 8.7-0.9 13.1 0.3 0.6 2.6-0.2 2.4-0.8-1.8-4.2-1.7-8.7 0.8-12.6 0.3-0.7-2-0.3-2.3 0.3z"/>
	


	
		<path class="st1" d="m787.4 65.5c-2-4-0.7-8.5-1.6-12.8-0.1-0.7-2-1.5-1.9-1.4 0.9 4.4-0.3 8.9 1.7 13.1 0.2 0.4 2 1.5 1.8 1.1z"/>
	


	
		<path class="st1" d="m786.7 66.9c-3.1-4.5-5.6-9.3-7.5-14.5-0.2-0.5-2.5 0-2.5 0.1 1.8 5.2 4.3 10 7.5 14.5 0.4 0.6 2.5-0.2 2.5-0.1z"/>
	


	
		<path class="st1" d="m784.1 66.2c-5.1-4.8-7.9-11.3-12.7-16.3-1-1-2.9 0.5-1.8 1.6 4.8 5 7.6 11.5 12.7 16.3 1 1 2.9-0.5 1.8-1.6z"/>
	


	
		<path class="st1" d="m329 124.7c0-0.5 0.1-0.9 0.4-1.4 0.1-0.1 1.1-0.9 1.1-0.9-1-0.3-1.2-0.2-0.5 0.2 0.2 0.2 0.4 0.3 0.5 0.5 0.3 0.4 0.5 0.8 0.7 1.2 0.3 1 0.3 2.2-0.1 3.1-0.3 0.6-0.7 0.9-1.2 1.3-0.6 0.2-0.6 0.2 0.1 0.1-0.2-0.1-0.4-0.2-0.5-0.4-1.6-1.3-1.7-4.1-0.6-5.8 0.1-0.2 0.2-0.3 0.4-0.4-1.4-0.4-1.8-0.2-1.2 0.3 0.2 0.6 0.5 1.1 0.6 1.8 0.1 0.4 0.3 3-0.4 3.1 0.8 0 1.5 0.1 2.3 0.1-0.2 0-0.4-1.3-0.4-1.6 0-0.6 0.2-1.3 0.8-1.5-1.1-0.1-2.3-0.2-3.4-0.4 0.3 0.4 0.4 0.8 0.6 1.2 0.3 0.9 3.8 0.6 3.7 0.3-0.2-0.6-0.4-1-0.7-1.5-0.5-0.7-2.7-0.6-3.4-0.4-1.5 0.6-1.7 2.6-0.6 3.7 0.9 1 4 1.4 4.9 0.3 1.1-1.2 0.6-4.4-0.5-5.5-1.2-1.2-3.8-1.4-5.3-0.8-1.7 0.7-1.9 3.4-1.5 4.9 0.5 1.9 2 2.9 3.8 3.3 1.7 0.4 4 0.5 5.4-0.6 1.5-1.1 1.7-3.4 1-5-1-2.2-3.3-2.8-5.5-2.8-1.8 0-3.9 0.9-3.9 3-0.4 1 3.4 1.2 3.4 0.6z"/>
	


	
		<path class="st1" d="m597.1 136.1c0-0.5 0.1-0.9 0.4-1.4 0.1-0.1 1.1-0.9 1.1-0.9-1-0.3-1.2-0.2-0.5 0.2 0.2 0.2 0.4 0.3 0.5 0.5 0.3 0.4 0.5 0.8 0.7 1.2 0.3 1 0.3 2.2-0.1 3.1-0.3 0.6-0.7 0.9-1.2 1.3-0.6 0.2-0.6 0.2 0.1 0.1-0.2-0.1-0.4-0.2-0.5-0.4-1.6-1.3-1.7-4.1-0.6-5.8 0.1-0.2 0.2-0.3 0.4-0.4-1.4-0.4-1.8-0.2-1.2 0.3 0.2 0.6 0.5 1.1 0.6 1.8 0.1 0.4 0.3 3-0.4 3.1 0.8 0 1.5 0.1 2.3 0.1-0.2 0-0.4-1.3-0.4-1.6 0-0.6 0.2-1.3 0.8-1.5-1.1-0.1-2.3-0.2-3.4-0.4 0.3 0.4 0.4 0.8 0.6 1.2 0.3 0.9 3.8 0.6 3.7 0.3-0.2-0.6-0.4-1-0.7-1.5-0.5-0.7-2.7-0.6-3.4-0.4-1.5 0.6-1.7 2.6-0.6 3.7 0.9 1 4 1.4 4.9 0.3 1.1-1.2 0.6-4.4-0.5-5.5-1.2-1.2-3.8-1.4-5.3-0.8-1.7 0.7-1.9 3.4-1.5 4.9 0.5 1.9 2 2.9 3.8 3.3 1.7 0.4 4 0.5 5.4-0.6 1.5-1.1 1.7-3.4 1-5-1-2.2-3.3-2.8-5.5-2.8-1.8 0-3.9 0.9-3.9 3-0.3 1 3.4 1.1 3.4 0.6z"/>
	


	
		<path class="st1" d="m719.7 27.5c0-0.5 0.1-0.9 0.4-1.4 0.1-0.1 1.1-0.9 1.1-0.9-1-0.3-1.2-0.2-0.5 0.2 0.2 0.2 0.4 0.3 0.5 0.5 0.3 0.4 0.5 0.8 0.7 1.2 0.3 1 0.3 2.2-0.1 3.1-0.3 0.6-0.7 0.9-1.2 1.3-0.6 0.2-0.6 0.2 0.1 0.1-0.2-0.1-0.4-0.2-0.5-0.4-1.6-1.3-1.7-4.1-0.6-5.8 0.1-0.2 0.2-0.3 0.4-0.4-1.4-0.4-1.8-0.2-1.2 0.3 0.2 0.6 0.5 1.1 0.6 1.8 0.1 0.4 0.3 3-0.4 3.1 0.8 0 1.5 0.1 2.3 0.1-0.2 0-0.4-1.3-0.4-1.6 0-0.6 0.2-1.3 0.8-1.5-1.1-0.1-2.3-0.2-3.4-0.4 0.3 0.4 0.4 0.8 0.6 1.2 0.3 0.9 3.8 0.6 3.7 0.3-0.2-0.6-0.4-1-0.7-1.5-0.5-0.7-2.7-0.6-3.4-0.4-1.5 0.6-1.7 2.6-0.6 3.7 0.9 1 4 1.4 4.9 0.3 1.1-1.2 0.6-4.4-0.5-5.5-1.2-1.2-3.8-1.4-5.3-0.8-1.7 0.7-1.9 3.4-1.5 4.9 0.5 1.9 2 2.9 3.8 3.3 1.7 0.4 4 0.5 5.4-0.6 1.5-1.1 1.7-3.4 1-5-1-2.2-3.3-2.8-5.5-2.8-1.8 0-3.9 0.9-3.9 3-0.4 1.1 3.4 1.2 3.4 0.6z"/>
	


	
		<path class="st1" d="m468 180.8c0-0.5 0.1-0.9 0.4-1.4 0.1-0.1 1.1-0.9 1.1-0.9-1-0.3-1.2-0.2-0.5 0.2 0.2 0.2 0.4 0.3 0.5 0.5 0.3 0.4 0.5 0.8 0.7 1.2 0.3 1 0.3 2.2-0.1 3.1-0.3 0.6-0.7 0.9-1.2 1.3-0.6 0.2-0.6 0.2 0.1 0.1-0.2-0.1-0.4-0.2-0.5-0.4-1.6-1.3-1.7-4.1-0.6-5.8 0.1-0.2 0.2-0.3 0.4-0.4-1.4-0.4-1.8-0.2-1.2 0.3 0.2 0.6 0.5 1.1 0.6 1.8 0.1 0.4 0.3 3-0.4 3.1 0.8 0 1.5 0.1 2.3 0.1-0.2 0-0.4-1.3-0.4-1.6 0-0.6 0.2-1.3 0.8-1.5-1.1-0.1-2.3-0.2-3.4-0.4 0.3 0.4 0.4 0.8 0.6 1.2 0.3 0.9 3.8 0.6 3.7 0.3-0.2-0.6-0.4-1-0.7-1.5-0.5-0.7-2.7-0.6-3.4-0.4-1.5 0.6-1.7 2.6-0.6 3.7 0.9 1 4 1.4 4.9 0.3 1.1-1.2 0.6-4.4-0.5-5.5-1.2-1.2-3.8-1.4-5.3-0.8-1.7 0.7-1.9 3.4-1.5 4.9 0.5 1.9 2 2.9 3.8 3.3 1.7 0.4 4 0.5 5.4-0.6 1.5-1.1 1.7-3.4 1-5-1-2.2-3.3-2.8-5.5-2.8-1.8 0-3.9 0.9-3.9 3-0.3 1 3.4 1.2 3.4 0.6z"/>
	


	
		<path class="st1" d="m811.1 74.4c0-0.5 0.1-0.9 0.4-1.4 0.1-0.1 1.1-0.9 1.1-0.9-1-0.3-1.2-0.2-0.5 0.2 0.2 0.2 0.4 0.3 0.5 0.5 0.3 0.4 0.5 0.8 0.7 1.2 0.3 1 0.3 2.2-0.1 3.1-0.3 0.6-0.7 0.9-1.2 1.3-0.6 0.2-0.6 0.2 0.1 0.1-0.2-0.1-0.4-0.2-0.5-0.4-1.6-1.3-1.7-4.1-0.6-5.8 0.1-0.2 0.2-0.3 0.4-0.4-1.4-0.4-1.8-0.2-1.2 0.3 0.2 0.6 0.5 1.1 0.6 1.8 0.1 0.4 0.3 3-0.4 3.1 0.8 0 1.5 0.1 2.3 0.1-0.2 0-0.4-1.3-0.4-1.6 0-0.6 0.2-1.3 0.8-1.5-1.1-0.1-2.3-0.2-3.4-0.4 0.3 0.4 0.4 0.8 0.6 1.2 0.3 0.9 3.8 0.6 3.7 0.3-0.2-0.6-0.4-1-0.7-1.5-0.5-0.7-2.7-0.6-3.4-0.4-1.5 0.6-1.7 2.6-0.6 3.7 0.9 1 4 1.4 4.9 0.3 1.1-1.2 0.6-4.4-0.5-5.5-1.2-1.2-3.8-1.4-5.3-0.8-1.7 0.7-1.9 3.4-1.5 4.9 0.5 1.9 2 2.9 3.8 3.3 1.7 0.4 4 0.5 5.4-0.6 1.5-1.1 1.7-3.4 1-5-1-2.2-3.3-2.8-5.5-2.8-1.8 0-3.9 0.9-3.9 3-0.4 1 3.4 1.2 3.4 0.6z"/>
	

</svg>
