<?xml version="1.0" encoding="utf-8"?>
<!-- Generator: Adobe Illustrator 19.0.0, SVG Export Plug-In . SVG Version: 6.00 Build 0)  -->
<svg version="1.1" id="Layer_1" xmlns="http://www.w3.org/2000/svg" xmlns:xlink="http://www.w3.org/1999/xlink" x="0px" y="0px"
	 viewBox="-112 33.6 68.4 64.3" style="enable-background:new -112 33.6 68.4 64.3;" xml:space="preserve">
<style type="text/css">
	.st0{fill:none;stroke:#000000;stroke-miterlimit:10;}
	.st1{fill:#EF6E6C;}
	.st2{fill:#D6C9C9;}
	.st3{fill:#30102E;}
	.st4{fill:#581B56;}
	.st5{fill:#7CB2D9;}
	.st6{fill:#7FB686;}
	.st7{fill:#98D09A;}
	.st8{fill:#DDAE7E;}
</style>
<g id="spoon">
	<g id="XMLID_1_">
		<g id="XMLID_13_">
			<path id="XMLID_17_" class="st0" d="M35.7,20.9"/>
		</g>
	</g>
	<g id="XMLID_5_">
		<g id="XMLID_23_">
			<path id="XMLID_27_" class="st1" d="M37.8,27.5c-0.2,0-0.4,0-0.7,0c-1-0.1-0.9,1.4,0,1.5c3.3,0.4,6.6,0.9,9.9,1.3
				c1,0.1,0.9-1.4,0-1.5c-3.3-0.4-6.6-0.9-9.9-1.3c0,0.5,0,1,0,1.5c0.2,0,0.4,0,0.7,0C38.8,29.1,38.8,27.6,37.8,27.5L37.8,27.5z"/>
		</g>
	</g>
	<g id="XMLID_6_">
		<g id="XMLID_30_">
			<path id="XMLID_34_" class="st1" d="M45.9,30.2c0,0.2,0.1,0.4,0.1,0.6c0.2-0.2,0.5-0.5,0.8-0.8c-1.3,0.1-2.6,0.3-3.9,0.6
				c-0.6,0.1-0.7,1.1-0.2,1.4c1,0.5,2,1.1,2.8,1.9c0-0.4,0-0.7,0-1.1c-1,1.1-1.9,0.6-2.4,2c-0.1,0.2,0,0.6,0.2,0.7
				c1.2,1.2-0.8,0.8-1.2,1.9c-0.4,1,1.9,3.5,1.3,3.8c-0.5,0.3-0.5,1,0,1.3c2,1.1-0.8,1.9-1.1,2.7c-0.5,1.2,0.7,2.1,1.1,3.1
				c0.4,0.9,1.8,0.5,1.4-0.4c-0.5-1.1-1-1.5-0.3-2.4c0.3-0.4,1.1-0.4,1.4-0.9c0.9-1.5-0.6-2.7-1.8-3.4c0,0.4,0,0.9,0,1.3
				c1-0.5,1.6-1.3,1.3-2.5c-0.1-0.5-0.6-0.8-0.7-1.2c-0.5-1.8-0.3-0.1,0.3-1.2c0.5-1.1,0.6-0.6,0.9-1.8c0.1-0.3-0.8-0.7-0.7-0.8
				c-0.1,0.3,1.6-1.2,1.5-1.1c0.2-0.3,0.3-0.8,0-1.1c-1-0.8-2-1.5-3.2-2.1c-0.1,0.5-0.1,0.9-0.2,1.4c1.1-0.2,2.3-0.4,3.5-0.5
				c0.4,0,0.7-0.3,0.8-0.8c0.1-0.7,0-0.8-0.3-1.3C46.7,28.6,45.4,29.3,45.9,30.2L45.9,30.2z"/>
		</g>
	</g>
	<g id="XMLID_7_">
		<g id="XMLID_37_">
			<path id="XMLID_41_" class="st1" d="M43.3,47.8c-3-0.1-6-0.3-9-0.7c-1-0.1-0.9,1.4,0,1.5c3,0.4,6,0.6,9,0.7
				C44.3,49.3,44.3,47.8,43.3,47.8L43.3,47.8z"/>
		</g>
	</g>
	<g id="XMLID_9_">
		<g id="XMLID_44_">
			<path id="XMLID_48_" class="st1" d="M35.9,26.1c-1.8,5.3-2.5,10.8-3,16.4c-0.6,6.1-2.2,12-2.9,18.1c-0.8,6.2-0.9,12.3-1.9,18.4
				c-1,6-1.9,11.9-1.9,18.1c0,1,1.5,1,1.5,0c-0.1-6.6,1.1-13,2.1-19.4c0.8-5.2,1-10.3,1.5-15.5c0.5-5.4,2.2-10.7,2.7-16.1
				c0.7-6.6,1.2-13.2,3.3-19.5C37.6,25.6,36.2,25.2,35.9,26.1L35.9,26.1z"/>
		</g>
	</g>
	<g id="XMLID_10_">
		<g id="XMLID_51_">
			<path id="XMLID_55_" class="st1" d="M36.6,26c0.1-0.8-0.6-1.3-1.3-1.5c-1.2-0.3-2.4-0.4-3.6-0.6c-0.9-0.2-1.3,1.3-0.4,1.4
				c0.7,0.1,1.5,0.3,2.2,0.4c0.3,0.1,0.6,0.1,1,0.2c0.2,0,0.3,0.1,0.5,0.1c0.2,0.1,0.2,0.1,0.1,0C35,26.9,36.5,26.9,36.6,26L36.6,26
				z"/>
		</g>
	</g>
	<g id="XMLID_11_">
		<g id="XMLID_58_">
			<path id="XMLID_62_" class="st1" d="M30.8,24.4c-1.5,2.4-1.8,4.8-2,7.6c-0.3,4.7-1.5,9-2.2,13.7c-1.1,7.3-2.4,14.5-2.5,21.9
				C24,76.1,21,84.4,20.3,92.8c-0.4,4.3,2.4,5.4,6.5,5.1c1-0.1,1-1.6,0-1.5c-1.4,0.5-2.5,0.1-3.4-1.1c-1.6-0.4-2.1-1.3-1.5-2.6
				c-0.2-1.4,0.6-3.4,0.8-4.9c0.5-3,1-5.9,1.5-8.9c1-6,0.8-11.8,1.6-17.8c0.3-2.6,1.3-5.1,1.7-7.7c0.5-3.4,0.4-6.7,1.1-10
				c0.5-2.5,1.2-4.9,1.5-7.4c0.4-3.8-0.1-7.4,2-10.8C32.6,24.3,31.3,23.6,30.8,24.4L30.8,24.4z"/>
		</g>
	</g>
	<g id="XMLID_12_">
		<g id="XMLID_65_">
			<path id="XMLID_69_" class="st1" d="M39.4,32.1c-0.1-0.1-0.1-0.1-0.2-0.2c-0.7-0.7-1.7,0.4-1.1,1.1c0.1,0.1,0.1,0.1,0.2,0.2
				C39,33.8,40,32.8,39.4,32.1L39.4,32.1z"/>
		</g>
	</g>
	<g id="XMLID_19_">
		<g id="XMLID_72_">
			<path id="XMLID_76_" class="st1" d="M38.7,33c1,0,1-1.5,0-1.5S37.7,33,38.7,33L38.7,33z"/>
		</g>
	</g>
	<g id="XMLID_21_">
		<g id="XMLID_79_">
			<path id="XMLID_83_" class="st1" d="M39.7,31.2c-1.4,0-2.8,0-4.2,0c-1,0-1,1.5,0,1.5c1.4,0,2.8,0,4.2,0
				C40.6,32.7,40.6,31.2,39.7,31.2L39.7,31.2z"/>
		</g>
	</g>
	<g id="XMLID_28_">
		<g id="XMLID_86_">
			<path id="XMLID_90_" class="st1" d="M41.3,33.8c-1.7-0.2-3.3-0.2-5-0.1c-1,0.1-1,1.6,0,1.5c1.7-0.2,3.3-0.1,5,0.1
				C42.3,35.5,42.3,34,41.3,33.8L41.3,33.8z"/>
		</g>
	</g>
	<g id="XMLID_35_">
		<g id="XMLID_93_">
			<path id="XMLID_97_" class="st1" d="M37.7,35.8c-1.1,0.1-2.2,0-3.3-0.1C33.5,35.5,33,37,34,37.1c1.2,0.2,2.5,0.3,3.7,0.2
				C38.6,37.3,38.6,35.8,37.7,35.8L37.7,35.8z"/>
		</g>
	</g>
	<g id="XMLID_42_">
		<g id="XMLID_100_">
			<path id="XMLID_104_" class="st1" d="M40,38.2c-1.9-0.1-3.8-0.1-5.7-0.2c-1,0-1,1.5,0,1.5c1.9,0.1,3.8,0.1,5.7,0.2
				C41,39.7,41,38.2,40,38.2L40,38.2z"/>
		</g>
	</g>
	<g id="XMLID_49_">
		<g id="XMLID_107_">
			<path id="XMLID_111_" class="st1" d="M39.5,40.4c-1.7,0.2-3.4,0.2-5.2,0.2c-1,0-1,1.5,0,1.5c1.7,0.1,3.4,0,5.2-0.2
				C40.4,41.8,40.5,40.3,39.5,40.4L39.5,40.4z"/>
		</g>
	</g>
	<g id="XMLID_56_">
		<g id="XMLID_114_">
			<path id="XMLID_118_" class="st1" d="M37.8,43c-1.3,0-2.7,0-4,0c-1,0-1,1.5,0,1.5c1.3,0,2.7,0,4,0C38.8,44.5,38.8,43,37.8,43
				L37.8,43z"/>
		</g>
	</g>
	<g id="XMLID_63_">
		<g id="XMLID_121_">
			<path id="XMLID_125_" class="st1" d="M39.5,45.2c-2.1,0-4.1,0-6.2,0c-1,0-1,1.5,0,1.5c2.1,0,4.1,0,6.2,0
				C40.5,46.7,40.5,45.2,39.5,45.2L39.5,45.2z"/>
		</g>
	</g>
</g>
<g id="toilet_tissues">
	<g id="XMLID_113_">
		<g id="XMLID_919_">
			<path id="XMLID_923_" class="st2" d="M-55.2,125.1c3.3,0.1,6.4,0.9,9.5,2c1.7,0.6,3.4,1.3,5,2.1c1.1,0.5,2.1,1.2,3,2
				c0.2,1.8,0.5,3.6,0.7,5.4c-1,2.3-8.1,3.3-10.4,3.6c-3.5,0.6-7.1,0.8-10.7,0.7c-3.6-0.1-7.2-0.5-10.7-1.1
				c-1.1-0.2-2.6-0.2-3.6-0.7c-1.8,0-2.5-1.2-2.1-3.4c-1.5-1.9-1.4-3.2,0.3-4c1.9-2.4,6.6-3.9,9.4-4.9c3.5-1.2,7-1.8,10.7-2
				c1-0.1,1-1.6,0-1.5c-5,0.3-9.9,1.3-14.5,3.4c-3.2,1.4-8.6,3.8-9.5,7.7c-1.9,8.3,15.2,8,20,8.1c5.5,0.2,11.1-0.4,16.4-1.9
				c2.7-0.8,6.7-2.1,7.1-5.5c1-8-15.4-11.2-20.7-11.5C-56.2,123.5-56.2,125-55.2,125.1L-55.2,125.1z"/>
		</g>
	</g>
	<g id="XMLID_120_">
		<g id="XMLID_926_">
			<path id="XMLID_930_" class="st2" d="M-35.6,134.9c-0.3,17.7,0.4,35.3,2.2,52.8c0.1,1,1.6,1,1.5,0c-1.8-17.6-2.5-35.2-2.2-52.8
				C-34.1,133.9-35.6,133.9-35.6,134.9L-35.6,134.9z"/>
		</g>
	</g>
	<g id="XMLID_127_">
		<g id="XMLID_933_">
			<path id="XMLID_937_" class="st2" d="M-78.3,136.7c1.2,9,0.2,18.1,0.9,27.1c0.6,8.4,2.7,16.6,3.1,25c0.1,1,1.6,1,1.5,0
				c-0.4-8.4-2.5-16.6-3.1-25c-0.7-9,0.2-18.1-0.9-27.1C-76.9,135.8-78.4,135.8-78.3,136.7L-78.3,136.7z"/>
		</g>
	</g>
	<g id="XMLID_128_">
		<g id="XMLID_940_">
			<path id="XMLID_944_" class="st2" d="M-34.1,188.3c-1.2,2.6-7.4,3.6-9.9,4.1c-3.5,0.7-7,1-10.5,0.9c-7.1-0.2-14-2-20.4-5.1
				c-0.9-0.4-1.6,0.9-0.8,1.3c7.4,3.6,15.4,5.5,23.6,5.3c3.9-0.1,7.9-0.7,11.7-1.7c2.6-0.7,6.4-1.3,7.6-4
				C-32.4,188.2-33.7,187.4-34.1,188.3L-34.1,188.3z"/>
		</g>
	</g>
	<g id="XMLID_129_">
		<g id="XMLID_947_">
			<path id="XMLID_951_" class="st2" d="M-57.3,130.8c1.4,0,3.8,0,5,0.8c0.9,0.1,1,0.8,0.4,2c-0.3,0-0.6,0.1-0.9,0.1
				c-0.7,0.2-1.8,0.1-2.6,0.1s-3.8,0.3-4.3-0.3c-2.2-2.5,4-2.7,4.5-2.8c1-0.1,1-1.6,0-1.5c-2.1,0.1-7,0.4-7,3.5
				c0.1,3,4.8,2.6,6.7,2.6c1.7,0,6.9,0.3,6.5-2.8c-0.4-2.9-6.4-3.1-8.5-3.2C-58.2,129.3-58.2,130.8-57.3,130.8L-57.3,130.8z"/>
		</g>
	</g>
	<g id="XMLID_130_">
		<g id="XMLID_954_">
			<path id="XMLID_958_" class="st2" d="M-32.1,110c4.5-0.9,9.1-0.8,13.4,0.9c3,0.5,4.2,2.5,3.5,5.9c-1.5,0.7-3,1.2-4.6,1.3
				c-2.3,0.4-4.7,0.5-7.1,0.6c-1.9,0-3.8,0-5.8-0.1s-7,0.3-8.4-1.1c-0.7-2.1-1.4-4.1-2.1-6.2c1.5-0.6,3-1.1,4.5-1.5
				c2.9-0.7,5.8-0.7,8.7-0.5c1,0.1,1-1.4,0-1.5c-3.8-0.2-16.7-0.3-16.7,5.9c-0.1,7.8,16.4,6.5,20.7,6.3c3-0.1,16.8-0.7,13.7-6.8
				c-1.3-2.6-5.8-3.9-8.3-4.6c-4-1.1-8-1-12-0.2C-33.4,108.7-33,110.2-32.1,110L-32.1,110z"/>
		</g>
	</g>
	<g id="XMLID_741_">
		<g id="XMLID_961_">
			<path id="XMLID_965_" class="st2" d="M-28.4,113.7c0.7,0,3.6-0.1,2.8,1.1c-0.5,0.7-3.7,0.5-4.5,0.4c-0.7,0-1.7,0-2.3-0.3
				c-0.6-0.3-1.1-0.2-0.5-0.7C-32.2,113.3-29.5,113.6-28.4,113.7c1,0.1,1-1.4,0-1.5c-1.6-0.1-6.7-0.4-7,2.1
				c-0.3,2.3,4.2,2.4,5.6,2.4c1.6,0.1,5.9,0.1,6.3-2.1c0.4-2.3-3.5-2.5-4.9-2.5C-29.4,112.2-29.4,113.7-28.4,113.7L-28.4,113.7z"/>
		</g>
	</g>
	<g id="XMLID_755_">
		<g id="XMLID_968_">
			<path id="XMLID_972_" class="st2" d="M-12.8,115.6c-0.2,18.4-0.1,36.9,0.4,55.3c0,1,1.5,1,1.5,0c-0.5-18.4-0.6-36.9-0.4-55.3
				C-11.3,114.6-12.8,114.6-12.8,115.6L-12.8,115.6z"/>
		</g>
	</g>
	<g id="XMLID_917_">
		<g id="XMLID_975_">
			<path id="XMLID_979_" class="st2" d="M-11.7,170.5c-3,0.9-6,1.6-9,2.1c-3.2,0.5-9.3,1.8-12.2-0.2c-0.8-0.5-1.6,0.8-0.8,1.3
				c2.8,1.9,6.9,1.1,10.1,0.8c4.2-0.4,8.3-1.3,12.3-2.5C-10.4,171.6-10.8,170.2-11.7,170.5L-11.7,170.5z"/>
		</g>
	</g>
	<g id="XMLID_924_">
		<g id="XMLID_982_">
			<path id="XMLID_986_" class="st2" d="M-46.9,114.7c0.2,3.8,0.4,7.6,0.4,11.3c0,1,1.5,1,1.5,0c-0.1-3.8-0.2-7.6-0.4-11.3
				C-45.5,113.8-47,113.8-46.9,114.7L-46.9,114.7z"/>
		</g>
	</g>
	<g id="XMLID_931_">
		<g id="XMLID_989_">
			<path id="XMLID_993_" class="st2" d="M-37.5,150.8c-1.3,0.3-2.7,0.4-4.1,0.3c-0.5,0-0.5,0.7,0,0.8c1.4,0.1,2.9,0,4.3-0.3
				C-36.9,151.5-37.1,150.7-37.5,150.8L-37.5,150.8z"/>
		</g>
	</g>
	<g id="XMLID_938_">
		<g id="XMLID_996_">
			<path id="XMLID_1000_" class="st2" d="M-40.9,156c-0.8,0.1-1.6,0.1-2.3,0.2c-0.5,0-0.5,0.8,0,0.8c0.8-0.1,1.6-0.1,2.3-0.2
				C-40.4,156.7-40.4,156-40.9,156L-40.9,156z"/>
		</g>
	</g>
	<g id="XMLID_945_">
		<g id="XMLID_1003_">
			<path id="XMLID_1007_" class="st2" d="M-57.8,149.7c-0.8,0-1.6,0-2.3,0c-0.5,0-0.5,0.8,0,0.8c0.8,0,1.6,0,2.3,0
				C-57.3,150.4-57.3,149.7-57.8,149.7L-57.8,149.7z"/>
		</g>
	</g>
	<g id="XMLID_952_">
		<g id="XMLID_1010_">
			<path id="XMLID_1014_" class="st2" d="M-60.6,155.7c-0.5,0-1,0-1.5,0s-0.5,0.8,0,0.8c0.2,0,0.3,0,0.5,0c0.5,0,0.5-0.8,0-0.8
				c-0.2,0-0.3,0-0.5,0c0,0.2,0,0.5,0,0.8c0.5,0,1,0,1.5,0C-60.1,156.4-60.1,155.7-60.6,155.7L-60.6,155.7z"/>
		</g>
	</g>
	<g id="XMLID_959_">
		<g id="XMLID_1017_">
			<path id="XMLID_1021_" class="st2" d="M-63.2,167.5c-1.3,0.2-2.5,0.1-3.7-0.4c-0.4-0.2-0.8,0.5-0.4,0.6c1.4,0.6,2.8,0.8,4.3,0.5
				C-62.5,168.2-62.7,167.5-63.2,167.5L-63.2,167.5z"/>
		</g>
	</g>
	<g id="XMLID_966_">
		<g id="XMLID_1024_">
			<path id="XMLID_1028_" class="st2" d="M-71.5,158.2c-0.5-0.2-1.1-0.4-1.6-0.6c-0.4-0.1-0.7,0.5-0.3,0.7c0.2,0.1,0.3,0.2,0.5,0.3
				c0.4,0.2,0.8-0.4,0.4-0.6c-0.2-0.1-0.3-0.2-0.5-0.3c-0.1,0.2-0.2,0.5-0.3,0.7c0.5,0.2,1.1,0.4,1.6,0.6
				C-71.2,159.1-71,158.4-71.5,158.2L-71.5,158.2z"/>
		</g>
	</g>
	<g id="XMLID_973_">
		<g id="XMLID_1031_">
			<path id="XMLID_1035_" class="st2" d="M-67.7,145.2c-1-0.2-2-0.5-3-0.7c-0.5-0.1-0.7,0.6-0.2,0.7c1,0.2,2,0.5,3,0.7
				C-67.4,146-67.2,145.3-67.7,145.2L-67.7,145.2z"/>
		</g>
	</g>
	<g id="XMLID_980_">
		<g id="XMLID_1038_">
			<path id="XMLID_1042_" class="st2" d="M-45.8,146.4c-0.9,0.1-1.8,0.1-2.7,0.2c-0.5,0-0.5,0.8,0,0.8c0.9-0.1,1.8-0.1,2.7-0.2
				C-45.3,147.1-45.3,146.3-45.8,146.4L-45.8,146.4z"/>
		</g>
	</g>
	<g id="XMLID_987_">
		<g id="XMLID_1045_">
			<path id="XMLID_1049_" class="st2" d="M-49.7,162.4c-1.5,0.3-3,0.5-4.6,0.5c-0.5,0-0.5,0.8,0,0.7c1.6,0,3.2-0.2,4.8-0.5
				C-49,163-49.2,162.3-49.7,162.4L-49.7,162.4z"/>
		</g>
	</g>
	<g id="XMLID_994_">
		<g id="XMLID_1052_">
			<path id="XMLID_1056_" class="st2" d="M-38.4,166.9c-1.4,0.2-2.8,0.3-4.2,0.5c-0.5,0.1-0.5,0.8,0,0.8c1.4-0.2,2.8-0.3,4.2-0.5
				C-37.9,167.5-37.9,166.8-38.4,166.9L-38.4,166.9z"/>
		</g>
	</g>
	<g id="XMLID_1001_">
		<g id="XMLID_1059_">
			<path id="XMLID_1063_" class="st2" d="M-38.9,169.7c-0.7,0.4-1.5,0.5-2.3,0.5c-0.5,0-0.5,0.7,0,0.8c0.9,0.1,1.8-0.1,2.7-0.6
				C-38.1,170.2-38.5,169.5-38.9,169.7L-38.9,169.7z"/>
		</g>
	</g>
	<g id="XMLID_1008_">
		<g id="XMLID_1066_">
			<path id="XMLID_1070_" class="st2" d="M-48.2,176.9c-2,0.3-4,0.4-6.1,0.3c-0.5,0-0.5,0.7,0,0.8c2.1,0.1,4.2-0.1,6.3-0.3
				C-47.5,177.5-47.7,176.8-48.2,176.9L-48.2,176.9z"/>
		</g>
	</g>
	<g id="XMLID_1015_">
		<g id="XMLID_1073_">
			<path id="XMLID_1077_" class="st2" d="M-54.1,173.9c-0.9,0-1.8,0-2.7,0c-0.5,0-0.5,0.8,0,0.8c0.9,0,1.8,0,2.7,0
				C-53.6,174.6-53.6,173.9-54.1,173.9L-54.1,173.9z"/>
		</g>
	</g>
	<g id="XMLID_1022_">
		<g id="XMLID_1080_">
			<path id="XMLID_1084_" class="st2" d="M-68.6,175.7c-1,0-1.9-0.2-2.8-0.7c-0.4-0.2-0.8,0.4-0.4,0.6c1,0.5,2.1,0.7,3.2,0.8
				C-68.1,176.5-68.1,175.7-68.6,175.7L-68.6,175.7z"/>
		</g>
	</g>
	<g id="XMLID_1029_">
		<g id="XMLID_1087_">
			<path id="XMLID_1091_" class="st2" d="M-62.3,184.5c-1.2,0-2.3-0.2-3.4-0.5c-0.5-0.1-0.7,0.6-0.2,0.7c1.2,0.3,2.4,0.5,3.6,0.5
				C-61.8,185.3-61.8,184.5-62.3,184.5L-62.3,184.5z"/>
		</g>
	</g>
	<g id="XMLID_1036_">
		<g id="XMLID_1094_">
			<path id="XMLID_1098_" class="st2" d="M-56.3,190.3c-1.2,0.1-2.3,0.1-3.4-0.3c-0.5-0.1-0.7,0.6-0.2,0.7c1.2,0.3,2.4,0.4,3.6,0.3
				C-55.8,191-55.8,190.3-56.3,190.3L-56.3,190.3z"/>
		</g>
	</g>
	<g id="XMLID_1043_">
		<g id="XMLID_1101_">
			<path id="XMLID_1105_" class="st2" d="M-42.6,184.6c-0.8,0-1.6,0-2.3,0c-0.5,0-0.5,0.8,0,0.8c0.8,0,1.6,0,2.3,0
				C-42.1,185.3-42.1,184.5-42.6,184.6L-42.6,184.6z"/>
		</g>
	</g>
	<g id="XMLID_1050_">
		<g id="XMLID_1108_">
			<path id="XMLID_1112_" class="st2" d="M-34.6,178c-0.2,0-0.3,0-0.5,0c-0.5,0-0.5,0.8,0,0.8c0.2,0,0.3,0,0.5,0
				C-34.1,178.8-34.1,178-34.6,178L-34.6,178z"/>
		</g>
	</g>
	<g id="XMLID_1057_">
		<g id="XMLID_1115_">
			<path id="XMLID_1119_" class="st2" d="M-36.6,182.7c-0.3,0.2-0.7,0.3-1,0.5c-0.4,0.2-0.1,0.9,0.4,0.6c0.3-0.2,0.7-0.3,1-0.5
				C-35.8,183.2-36.2,182.5-36.6,182.7L-36.6,182.7z"/>
		</g>
	</g>
	<g id="XMLID_1064_">
		<g id="XMLID_1122_">
			<path id="XMLID_1126_" class="st2" d="M-23.8,136.7c-1.2,0.2-2.4,0.2-3.6,0.2c-0.5,0-0.5,0.7,0,0.8c1.2,0,2.4,0,3.7-0.2
				C-23.3,137.4-23.3,136.6-23.8,136.7L-23.8,136.7z"/>
		</g>
	</g>
	<g id="XMLID_1071_">
		<g id="XMLID_1129_">
			<path id="XMLID_1133_" class="st2" d="M-14.5,129.2c-1.1,0.4-2.2,0.7-3.4,0.8c-0.5,0.1-0.5,0.8,0,0.8c1.2-0.2,2.4-0.4,3.6-0.9
				C-13.9,129.8-14.1,129-14.5,129.2L-14.5,129.2z"/>
		</g>
	</g>
	<g id="XMLID_1078_">
		<g id="XMLID_1136_">
			<path id="XMLID_1140_" class="st2" d="M-19.3,126.6c-0.9,0.2-1.9,0.5-2.8,0.7c-0.5,0.1-0.3,0.8,0.2,0.7c0.9-0.2,1.9-0.5,2.8-0.7
				C-18.7,127.2-18.9,126.5-19.3,126.6L-19.3,126.6z"/>
		</g>
	</g>
	<g id="XMLID_1085_">
		<g id="XMLID_1143_">
			<path id="XMLID_1147_" class="st2" d="M-30.8,131.5c-0.2,0-0.4,0-0.7,0c-0.5,0-0.5,0.8,0,0.8c0.2,0,0.4,0,0.7,0
				C-30.3,132.3-30.3,131.5-30.8,131.5L-30.8,131.5z"/>
		</g>
	</g>
	<g id="XMLID_1092_">
		<g id="XMLID_1150_">
			<path id="XMLID_1154_" class="st2" d="M-30.4,128c-0.9,0.1-1.7,0-2.6-0.2c-0.5-0.1-0.7,0.6-0.2,0.7c0.9,0.2,1.8,0.2,2.8,0.2
				C-29.9,128.7-29.9,128-30.4,128L-30.4,128z"/>
		</g>
	</g>
	<g id="XMLID_1099_">
		<g id="XMLID_1157_">
			<path id="XMLID_1161_" class="st2" d="M-35.9,123.4c-1.1,0.1-2.2,0-3.2-0.3c-0.5-0.1-0.7,0.6-0.2,0.7c1.1,0.3,2.3,0.4,3.4,0.3
				C-35.4,124.1-35.4,123.3-35.9,123.4L-35.9,123.4z"/>
		</g>
	</g>
	<g id="XMLID_1106_">
		<g id="XMLID_1164_">
			<path id="XMLID_1168_" class="st2" d="M-17.7,121.5c-0.8,0.2-1.7,0.4-2.5,0.7c-0.5,0.1-0.3,0.8,0.2,0.7c0.8-0.2,1.7-0.4,2.5-0.7
				C-17,122.1-17.2,121.4-17.7,121.5L-17.7,121.5z"/>
		</g>
	</g>
	<g id="XMLID_1113_">
		<g id="XMLID_1171_">
			<path id="XMLID_1175_" class="st2" d="M-17.8,140.9c-1.2,0.5-2.4,0.7-3.6,0.6c-0.5,0-0.5,0.7,0,0.8c1.4,0.1,2.7-0.1,4-0.7
				C-17,141.4-17.3,140.7-17.8,140.9L-17.8,140.9z"/>
		</g>
	</g>
	<g id="XMLID_1120_">
		<g id="XMLID_1178_">
			<path id="XMLID_1182_" class="st2" d="M-22.9,148.5c-1.4,0.1-2.8,0.1-4.2,0.2c-0.5,0-0.5,0.8,0,0.8c1.4-0.1,2.8-0.1,4.2-0.2
				C-22.4,149.3-22.4,148.5-22.9,148.5L-22.9,148.5z"/>
		</g>
	</g>
	<g id="XMLID_1127_">
		<g id="XMLID_1185_">
			<path id="XMLID_1189_" class="st2" d="M-27.9,145.5c-0.2,0-0.4,0-0.7,0c-0.5,0-0.5,0.8,0,0.8c0.2,0,0.4,0,0.7,0
				C-27.4,146.3-27.4,145.5-27.9,145.5L-27.9,145.5z"/>
		</g>
	</g>
	<g id="XMLID_1134_">
		<g id="XMLID_1192_">
			<path id="XMLID_1196_" class="st2" d="M-26.9,156.7c-1.4,0-2.7-0.2-4.1-0.6c-0.5-0.2-0.7,0.6-0.2,0.7c1.4,0.5,2.8,0.7,4.3,0.7
				C-26.4,157.4-26.4,156.7-26.9,156.7L-26.9,156.7z"/>
		</g>
	</g>
	<g id="XMLID_1141_">
		<g id="XMLID_1199_">
			<path id="XMLID_1203_" class="st2" d="M-14.9,153c-0.2,0.1-0.4,0.1-0.7,0.2c-0.5,0.1-0.3,0.8,0.2,0.7c0.2-0.1,0.4-0.1,0.7-0.2
				C-14.2,153.6-14.4,152.9-14.9,153L-14.9,153z"/>
		</g>
	</g>
	<g id="XMLID_1148_">
		<g id="XMLID_1206_">
			<path id="XMLID_1210_" class="st2" d="M-20.4,155.5c-0.7,0.1-1.4,0.1-2.2,0.2c-0.5,0-0.5,0.8,0,0.8c0.7-0.1,1.4-0.1,2.2-0.2
				C-19.9,156.2-19.9,155.5-20.4,155.5L-20.4,155.5z"/>
		</g>
	</g>
	<g id="XMLID_1155_">
		<g id="XMLID_1213_">
			<path id="XMLID_1217_" class="st2" d="M-15,163.2c-1.4,0.5-2.9,0.8-4.4,1c-0.5,0.1-0.5,0.8,0,0.8c1.6-0.2,3.1-0.5,4.6-1
				C-14.4,163.8-14.6,163.1-15,163.2L-15,163.2z"/>
		</g>
	</g>
	<g id="XMLID_1162_">
		<g id="XMLID_1220_">
			<path id="XMLID_1224_" class="st2" d="M-25.4,168.7c-0.6,0.3-1.2,0.4-1.8,0.5c-0.5,0-0.5,0.8,0,0.8c0.8-0.1,1.5-0.2,2.2-0.6
				C-24.6,169.2-25,168.5-25.4,168.7L-25.4,168.7z"/>
		</g>
	</g>
	<g id="XMLID_1169_">
		<g id="XMLID_1227_">
			<path id="XMLID_1231_" class="st2" d="M-26.1,165.1c0.5,0,0.5-0.8,0-0.8C-26.6,164.4-26.6,165.1-26.1,165.1L-26.1,165.1z"/>
		</g>
	</g>
	<g id="XMLID_1176_">
		<g id="XMLID_1234_">
			<path id="XMLID_1238_" class="st2" d="M-31.1,166.2c-0.5,0.1-1.1,0-1.6-0.2s-0.6,0.6-0.2,0.7c0.6,0.2,1.2,0.3,1.8,0.2
				C-30.6,166.9-30.6,166.2-31.1,166.2L-31.1,166.2z"/>
		</g>
	</g>
</g>
<g id="straw">
</g>
<g id="food_wrap">
	<g id="XMLID_196_">
		<g id="XMLID_766_">
			<path id="XMLID_773_" class="st3" d="M133.6-37.1c-9.8-3.2-20.2-3.1-30.4-3.2c-10.3-0.1-20.5,0.5-30.3,3.7
				c-0.9,0.3-0.5,1.7,0.4,1.4c9.7-3.2,19.8-3.7,29.9-3.6c10,0.1,20.3,0,30,3.1C134.1-35.3,134.5-36.8,133.6-37.1L133.6-37.1z"/>
		</g>
	</g>
	<g id="XMLID_233_">
		<g id="XMLID_758_">
			<path id="XMLID_762_" class="st3" d="M133.2-35.9c1.5,5,3,10.1,4.5,15.1c0.2-0.3,0.3-0.6,0.5-0.9c-2.9,1.1-5.9,2.3-8.8,3.4
				c0.3,0.4,0.6,0.7,0.8,1.1c1.5-3.4,2.4-6.8,2.5-10.5c0-1-1.5-1-1.5,0c-0.1,3.5-0.9,6.6-2.3,9.8c-0.2,0.5,0.2,1.4,0.8,1.1
				c2.9-1.1,5.9-2.3,8.8-3.4c0.4-0.1,0.7-0.5,0.5-0.9c-1.5-5-3-10.1-4.5-15.1C134.4-37.2,133-36.8,133.2-35.9L133.2-35.9z"/>
		</g>
	</g>
	<g id="XMLID_234_">
		<g id="XMLID_750_">
			<path id="XMLID_754_" class="st3" d="M129.8-22.6c-1.6-0.1-3.2-0.2-4.8-0.4c-1-0.1-1,1.4,0,1.5c1.6,0.1,3.2,0.2,4.8,0.4
				C130.8-21,130.8-22.5,129.8-22.6L129.8-22.6z"/>
		</g>
	</g>
	<g id="XMLID_235_">
		<g id="XMLID_743_">
			<path id="XMLID_747_" class="st3" d="M125.4-29c-0.8,3.3-0.7,7.4-1.6,10.6c-0.7,2.2-1.2,2-3.5,1.8c-2.9-0.2-3.6-1-0.9-3.4
				c0.5-0.4,0.1-1.3-0.5-1.3c-4.3,0.4-8.6,0.8-12.9,1.2c-0.6,0.1-0.9,0.6-0.6,1.1c0.5,1.2,1.1,2,2,3c0.2-0.4,0.4-0.9,0.5-1.3
				c-2.1,0-4.3-0.1-6.4-0.2c-3-0.2-4.2-0.8-1.4-3.6c0.5-0.5,0.1-1.3-0.5-1.3c-4,0-8.1,0-12.1,0c-0.7,0-0.9,0.8-0.5,1.3
				c1.1,1.4,2.1,2.6,3.4,3.8c0.7,0.7,1.7-0.4,1.1-1.1c-1.2-1.2-2.3-2.4-3.4-3.8c-0.2,0.4-0.4,0.9-0.5,1.3c4,0,8.1,0,12.1,0
				c-0.2-0.4-0.4-0.9-0.5-1.3c-1.5,1.4-2.3,2.9-2.8,4.9c-0.1,0.5,0.2,0.9,0.7,0.9c3.7,0.3,7.3,0.4,11,0.5c0.7,0,1-0.8,0.5-1.3
				c-0.8-0.7-1.4-1.6-1.8-2.6c-0.2,0.4-0.4,0.8-0.6,1.1c4.3-0.4,8.6-0.8,12.9-1.2c-0.2-0.4-0.4-0.9-0.5-1.3
				c-1.5,1.4-2.4,2.8-2.9,4.7c-0.1,0.5,0.3,0.9,0.7,0.9c2.8,0.2,5.6,0.4,8.4,0.6c0.4,0,0.7-0.4,0.8-0.8c0.1-4.4,0.6-8.7,1.7-13.1
				C127.1-29.5,125.7-29.9,125.4-29L125.4-29z"/>
		</g>
	</g>
	<g id="XMLID_253_">
		<g id="XMLID_736_">
			<path id="XMLID_740_" class="st3" d="M100.5-32.8c-0.5,4.1-1.2,8.2-2.2,12.3c-0.2,0.9,1.2,1.3,1.4,0.4c1-4.2,1.8-8.4,2.3-12.7
				C102.1-33.8,100.6-33.8,100.5-32.8L100.5-32.8z"/>
		</g>
	</g>
	<g id="XMLID_255_">
		<g id="XMLID_729_">
			<path id="XMLID_733_" class="st3" d="M106.3-26.2c0.1,2.1,0,4.2-0.3,6.3c-0.1,0.9,1.3,1.4,1.4,0.4c0.3-2.2,0.4-4.4,0.4-6.7
				C107.7-27.1,106.2-27.1,106.3-26.2L106.3-26.2z"/>
		</g>
	</g>
	<g id="XMLID_324_">
		<g id="XMLID_722_">
			<path id="XMLID_726_" class="st3" d="M115.9-29.1c0.7,3.1,1.4,6.1,2.1,9.2c0.2,0.9,1.7,0.5,1.4-0.4c-0.8-3.1-1.5-6.1-2.1-9.2
				C117.1-30.5,115.6-30.1,115.9-29.1L115.9-29.1z"/>
		</g>
	</g>
	<g id="XMLID_413_">
		<g id="XMLID_715_">
			<path id="XMLID_719_" class="st3" d="M87.8-30.5c-0.7,2.9-1.6,5.7-2.5,8.5c-0.3,0.9,1.1,1.3,1.4,0.4c0.9-2.8,1.8-5.6,2.5-8.5
				C89.5-31.1,88.1-31.5,87.8-30.5L87.8-30.5z"/>
		</g>
	</g>
	<g id="XMLID_483_">
		<g id="XMLID_708_">
			<path id="XMLID_712_" class="st3" d="M89-18.6c-3.2,0.1-6.3,0.1-9.5,0.2c-1,0-1,1.5,0,1.5c3.2-0.1,6.3-0.1,9.5-0.2
				C90-17.1,90-18.6,89-18.6L89-18.6z"/>
		</g>
	</g>
	<g id="XMLID_490_">
		<g id="XMLID_701_">
			<path id="XMLID_705_" class="st3" d="M80.8-28.5c-0.5,3.4-1.2,6.7-2.1,10c-0.3,0.9,1.2,1.3,1.4,0.4c0.9-3.3,1.6-6.6,2.1-10
				C82.4-29.1,81-29.5,80.8-28.5L80.8-28.5z"/>
		</g>
	</g>
	<g id="XMLID_511_">
		<g id="XMLID_694_">
			<path id="XMLID_698_" class="st3" d="M133.6-18.7c-0.8,5.3-2.3,10.4-4.7,15.2c-1.6,3.3-2.8,5.6-6.6,6.5c-2.6,0.6-5.6,0.7-8.3,1
				c-11.4,1.2-22.7,1.4-33.9-1.2c-0.9-0.2-1.3,1.2-0.4,1.4c13.5,3.2,27.2,2.2,40.8,0.5c5-0.6,6-0.8,8.5-5.3
				c3.2-5.5,5.1-11.6,6.1-17.9C135.2-19.2,133.7-19.6,133.6-18.7L133.6-18.7z"/>
		</g>
	</g>
	<g id="XMLID_518_">
		<g id="XMLID_687_">
			<path id="XMLID_691_" class="st3" d="M71.9-20.6c1.3,8.6,3.9,16.9,7.5,24.8c0.4,0.9,1.7,0.1,1.3-0.8c-3.6-7.8-6-16-7.4-24.5
				C73.2-22,71.7-21.6,71.9-20.6L71.9-20.6z"/>
		</g>
	</g>
	<g id="XMLID_497_">
		<g id="XMLID_680_">
			<path id="XMLID_684_" class="st3" d="M72.3-36.6c-1,0.4-2,0.7-3,1.1c-0.9,0.3-0.5,1.8,0.4,1.4c1-0.4,2-0.7,3-1.1
				C73.6-35.5,73.2-36.9,72.3-36.6L72.3-36.6z"/>
		</g>
	</g>
	<g id="XMLID_504_">
		<g id="XMLID_673_">
			<path id="XMLID_677_" class="st3" d="M67.9-34.5c0,2.6-2,5.3-3,7.7c-0.8,1.8-1.4,3.7-1.8,5.6c-0.1,0.5,0.2,1,0.7,0.9
				c5.4-0.2,10.9-0.5,16.3-0.9c1-0.1,1-1.6,0-1.5c-5.4,0.4-10.9,0.7-16.3,0.9c0.2,0.3,0.5,0.6,0.7,0.9c0.6-3,1.8-5.7,3.1-8.4
				c0.8-1.7,1.7-3.3,1.7-5.3C69.4-35.5,67.9-35.5,67.9-34.5L67.9-34.5z"/>
		</g>
	</g>
	<g id="XMLID_525_">
		<g id="XMLID_666_">
			<path id="XMLID_670_" class="st3" d="M118-35.7c-2.3-0.1-4.4,0.3-6.2,1.8c-0.8,0.6-1.1,2-0.8,2.9c1,3,3.7,3.2,6.5,3.6
				s7.2,1.6,9.8,0.2c1.8-1,2.5-3.4,1.6-5.1c-1.4-2.7-5.3-3.4-8-3.7c-2.5-0.3-4.1,3.6-2.1,5.1c1.7,1.4,3.5,2.4,5.8,2.4
				c2.6,0,4.6-2,7.1-1.8c-1-1.3-1.9-2.5-2.9-3.8c-0.3,1.3-0.4,2.2,0.1,3.4c0.4,1.2,1.9,2.6,1.5,4c0.5-0.6,0.9-1.2,1.4-1.8
				c-1.4,1-4.2-2-5.9-2c-1.8,0-3.1,1.3-3.7,2.8c-0.7,1.5-0.3,4.1,1.8,4.4s4.2,0.6,6.3,0.9c-0.4-1.7-0.9-3.3-1.3-5
				c-0.1,0.1-0.2,0.2-0.4,0.3c0.7-0.3,1.4-0.6,2.1-0.9c-0.4,0.2-0.8,0.1-1.1-0.3c0.1,0.8,0.2,1.5,0.3,2.3c0.2-0.3,0.4-0.6,0.7-0.9
				c2.6-2.2-0.8-6.6-3.6-4.7c-2.7,1.8-5.7,3.4-8.9,3.9c0.8,0.1,1.5,0.2,2.3,0.3c-0.4-0.3-0.7-0.6-1.1-1c-1.6-2.5-5.5-1.5-5.6,1.5
				c0,2.2-0.5,4.9,1.7,6.3c2.3,1.5,6.2,0.2,8.6,0c3.8-0.4,3.8-6.4,0-6c-1.3,0.1-4.1-0.1-5.2,0.6c-1.5,0-1.2,0.6,0.8,1.9
				c0-0.9,0-1.8,0.1-2.7c-1.9,0.5-3.7,1-5.6,1.5c3.9,6.3,11.1,2.1,15.9-1.1c-1.2-1.6-2.4-3.1-3.6-4.7c-5.8,4.8,2,12.5,6.9,7.9
				c1.5-1.4,0.9-4.7-1.3-5c-2.1-0.3-4.2-0.6-6.3-0.9c0.6,1.5,1.2,2.9,1.8,4.4c0-0.1,0-0.1,0.1-0.2c-1,0-2,0-3,0
				c2.9,1.5,7.2,3.8,10.4,1.6c1.4-1,1.8-2.6,1.7-4.3c0-0.8-0.3-1.6-0.5-2.3c-0.2-0.6-1.4-2.1-1.3-2.6c0.4-2-0.9-3.7-2.9-3.8
				c-1.4-0.1-2.7,0-4,0.5c-1.6,0.6-3,2.1-4.7,0.7c-0.7,1.7-1.4,3.4-2.1,5.1c1.3,0.1,2.4,0.5,3.3,1.4c-0.3-0.7-0.6-1.4-0.9-2.1
				c0,0.2,0,0.4-0.1,0.6c0.3-0.7,0.6-1.4,0.9-2.1c-0.2,0.1-0.3,0.3-0.5,0.4c0.7-0.3,1.4-0.6,2.1-0.9c-2.8,0.3-7.6,0.2-10.2-1
				c0.5,0.6,0.9,1.2,1.4,1.8c-0.1-0.2-0.1-0.4-0.2-0.6c-0.3,1-0.5,1.9-0.8,2.9c0.6,0.1,1.3,0.1,1.9,0
				C121.9-29.5,121.9-35.5,118-35.7L118-35.7z"/>
		</g>
	</g>
	<g id="XMLID_532_">
		<g id="XMLID_659_">
			<path id="XMLID_663_" class="st3" d="M131.1-23.9c0.3,1.6,1.3,2.8,2.6,3.8c0.6,0.4,1.7,0.5,2.3,0.3c0.7-0.2,1.4-0.7,1.8-1.4
				c0.4-0.7,0.6-1.5,0.3-2.3s-0.7-1.3-1.4-1.8c0.1,0.1,0.5,0.5,0.3,0.2c-0.1-0.1-0.4-0.4-0.1,0c0.3,0.4,0.1,0.1,0,0
				s-0.1-0.2-0.2-0.3c0.1,0.2,0.2,0.5,0.3,0.7c-0.1-0.2-0.2-0.5-0.2-0.7c-0.3-1.5-2.2-2.6-3.7-2.1C131.5-27,130.7-25.5,131.1-23.9
				L131.1-23.9z"/>
		</g>
	</g>
	<g id="XMLID_539_">
		<g id="XMLID_652_">
			<path id="XMLID_656_" class="st3" d="M127.5-37.5c-11.7-0.7-23.3,0-34.8,2c-1.2,0.2-2.3,1.7-2.2,2.9c0.7,6,14.3,14.6,18.6,7.6
				c4.1-6.7-7.6-10.6-11.4-5.6c-1.3,1.7-1,4.3,1.3,5c3.5,1,8.3,2.2,11.9,1.2c1-0.3,2-0.7,2.7-1.6c0.4-0.5,0.7-2.7,0.8-2.7
				c-1.7-0.4-3.3-0.9-5-1.3c0.5,2.1-1.7,3.6-1.1,5.7c0.5,1.7,2.4,2.6,3.7,3.5c0.5-1.9,1-3.7,1.5-5.6c-4.5,0.4-9,0.5-13.5,0.2
				c-3.9-0.2-3.8,5.8,0,6c4.5,0.3,9,0.2,13.5-0.2c2.9-0.3,4.1-3.9,1.5-5.6c-2.2-1.5-0.4,1.6-0.9,1.5c0.3,0,1-2.2,1.1-2.4
				c0.5-1.6,0.3-3.1-0.1-4.7c-0.5-2.4-3.4-2.7-5-1.3c-1,0.8-1,3-1.5,3.4c0.4-0.3-2.3-0.7-2.3-0.7c-2.1-0.3-3.8-0.6-5.8-1.2
				c0.4,1.7,0.9,3.3,1.3,5c0.6-0.6,1.4-0.7,2.2-0.4c-0.8-1.4-1.8-2.4-3.2-3c-0.9-0.6-4.5-2.7-4.5-2.8c-0.7,1-1.5,1.9-2.2,2.9
				c11-1.8,22.1-2.4,33.2-1.7C131.4-31.3,131.4-37.3,127.5-37.5L127.5-37.5z"/>
		</g>
	</g>
	<g id="XMLID_540_">
		<g id="XMLID_645_">
			<path id="XMLID_649_" class="st3" d="M108-27.7c0.1,0,0.1,0,0.2,0c1.6,0,3.1-1.4,3-3s-1.3-3-3-3c-0.1,0-0.1,0-0.2,0
				c-1.6,0-3.1,1.4-3,3S106.3-27.7,108-27.7L108-27.7z"/>
		</g>
	</g>
	<g id="XMLID_546_">
		<g id="XMLID_638_">
			<path id="XMLID_642_" class="st3" d="M86.8-34.1c-2.7-0.4-5.7-0.9-8.4-0.1c-2.7,0.7-4.4,3.6-3.2,6.2c1.2,2.6,4.2,2.7,6.7,3.1
				c2.9,0.4,6.5,1.7,9-0.4c0.7-0.7,1.1-2,0.8-2.9c-1.4-3.9-8.7-5.3-11.1-1.7c-1.1,1.8,0.1,3.8,1.8,4.4c1,0.4,1.9,0.6,3,0.8
				c1.6,0.2,3.2-0.4,3.7-2.1c0.4-1.4-0.5-3.5-2.1-3.7c-1-0.1-2-0.4-3-0.8c0.6,1.5,1.2,2.9,1.8,4.4c0.1-0.1,0.2-0.3,0.3-0.4
				c-0.6,0.5-1.2,0.9-1.8,1.4c0.8-0.3,2.2,0.2,2.9,0.6c-0.5-0.6-0.9-1.2-1.4-1.8c0,0.1,0.1,0.3,0.1,0.4c0.3-1,0.5-1.9,0.8-2.9
				c-0.1,0.1-0.2,0.2-0.4,0.3c0.7-0.3,1.4-0.6,2.1-0.9c-1.2,0-2.4-0.2-3.5-0.4c-1.1-0.1-2.8-0.7-3.8-0.5c-0.2,0-0.4-0.1-0.6-0.1
				c-0.1,0.9-0.1,1.7-0.2,2.6c0.1,0.1,1,0,1.2,0c1.3,0,2.5,0.1,3.8,0.2c1.6,0.2,3.2-0.4,3.7-2.1C89.3-31.8,88.4-33.9,86.8-34.1
				L86.8-34.1z"/>
		</g>
	</g>
	<g id="XMLID_553_">
		<g id="XMLID_631_">
			<path id="XMLID_635_" class="st3" d="M87.3-32.5c-0.3,2.5-0.2,5.2,1.9,7c2.3,1.8,5.8,1.7,8.4,2.9c0.2-1.8,0.5-3.7,0.7-5.5
				c-4.3,1.6-10,0.6-14.5,0.5c-5.1-0.1-10.2-0.3-15.3-0.4c0.7,1.7,1.4,3.4,2.1,5.1c2.1-2.4,4.1-4.9,5.9-7.5c0.9-1.2,0.3-3.4-1.1-4.1
				c-5.3-2.5-7.1,2.8-8.8,6.7c-1.6,3.5,3.6,6.5,5.2,3c0.4-0.9,0.8-1.9,1.3-2.8c1.1-1.2,0.9-1.8-0.6-1.8c-0.4-1.4-0.7-2.7-1.1-4.1
				c-1.6,2.2-3.2,4.3-5,6.3c-1.7,2-0.6,5,2.1,5.1c5.7,0.2,11.5,0.3,17.2,0.5c4.6,0.1,9.8,1,14.2-0.7c2.1-0.8,3.3-4.3,0.7-5.5
				c-1.6-0.8-3.2-1.5-5-1.9c-2.5-0.6-2.7-0.1-2.4-2.8C93.8-36.3,87.8-36.3,87.3-32.5L87.3-32.5z"/>
		</g>
	</g>
	<g id="XMLID_556_">
		<g id="XMLID_624_">
			<path id="XMLID_628_" class="st3" d="M76.8-29.7c5.8-0.8,11.7-1.7,17.5-2.5c3.8-0.5,2.2-6.3-1.6-5.8c-5.8,0.8-11.7,1.6-17.5,2.5
				C71.4-34.9,73-29.1,76.8-29.7L76.8-29.7z"/>
		</g>
	</g>
	<g id="XMLID_564_">
		<g id="XMLID_617_">
			<path id="XMLID_621_" class="st3" d="M126.2-35c0,0.2,0,0.3,0,0.5c0,1.4,0.9,2.4,2.2,2.9c0.1,0.1,0.3,0.1,0.4,0.2
				c1.1,0.4,2.9-0.3,3.4-1.4c0.1-0.1,0.1-0.3,0.2-0.4c0.6-1.3,0.5-2.6-0.5-3.6c-2.2-2.4-7.4-1.6-10.3-1.7
				c-5.2-0.2-10.5-0.2-15.7-0.1c-2.9,0.1-8.4-0.8-10.6,1.8c-1.5,1.8-1.1,4.1,0.5,5.6c1.1,1,2.4,1,3.6,0.5c2.3-1.1,3-3.7,1.5-5.8
				c-2.2-3.2-7.4-0.2-5.2,3c0.2-0.8,0.4-1.6,0.6-2.4c1.2,0.2,2.4,0.3,3.6,0.5c0.1,0.3,0.2,0.5,0.4,0.8c-0.5,0.9-1,1.7-1.5,2.6
				c1.2-1,5.4-0.4,6.9-0.5c2.6-0.1,5.2-0.1,7.9-0.1c2.6,0,5.2,0.1,7.9,0.2c0.7,0,6.2,0.1,6.1,0c-0.2-1.2-0.3-2.4-0.5-3.6
				c-0.1,0.1-0.1,0.3-0.2,0.4c1.1-0.5,2.3-0.9,3.4-1.4c-0.1-0.1-0.3-0.1-0.4-0.2c0.7,1,1.5,1.9,2.2,2.9c0-0.2,0-0.3,0-0.5
				C132.1-38.8,126.1-38.8,126.2-35L126.2-35z"/>
		</g>
	</g>
	<g id="XMLID_581_">
		<g id="XMLID_610_">
			<path id="XMLID_614_" class="st3" d="M101.5-32.2c1.2-0.1,2.4-0.2,3.6-0.4c3.8-0.4,3.9-5.7,0-6c-11.9-1-23.8,0.4-35.2,4.1
				c-2.1,0.7-3,3.4-1.3,5c1.8,1.7,3.7,3.3,5.7,4.8c3.1,2.3,6.1-2.9,3-5.2c-1.6-1.2-3-2.5-4.5-3.8c-0.4,1.7-0.9,3.3-1.3,5
				c10.9-3.5,22.1-4.8,33.6-3.8c0-2,0-4,0-6c-1.2,0.1-2.4,0.2-3.6,0.4C97.7-37.8,97.7-31.8,101.5-32.2L101.5-32.2z"/>
		</g>
	</g>
	<g id="XMLID_588_">
		<g id="XMLID_603_">
			<path id="XMLID_607_" class="st3" d="M103.4-20.5c-1.9-0.9-3.7,1.5-1.9,2.9c2,1.6,4.2-0.8,4.9-2.5c-0.7-0.1-1.5-0.2-2.2-0.3
				c0.1,1.4,0.6,2.5,1.5,3.5c0.3-0.6,0.5-1.3,0.8-1.9c-2.3-0.1-4.5-0.2-6.8-0.3c0.4,0.5,0.7,0.9,1.1,1.4c0.3-0.9,0.7-1.8,1-2.7
				c0.3-0.9-0.9-1.8-1.7-1.3c-1.2,0.8-2.2,1.6-3,2.7c-0.9,1.1,0.7,2.7,1.6,1.6c0.8-0.9,1.6-1.7,2.6-2.4c-0.6-0.4-1.1-0.8-1.7-1.3
				c-0.3,0.9-0.7,1.8-1,2.7C98.3-17.7,99-17,99.7-17c2.3,0.1,4.5,0.2,6.8,0.3c1,0,1.4-1.2,0.8-1.9c-0.5-0.6-0.7-1.2-0.8-1.9
				c-0.1-1.3-1.7-1.5-2.2-0.3c-0.2,0.5-1.6,2.3-1.9,2.1C103.6-18,104.7-19.9,103.4-20.5L103.4-20.5z"/>
		</g>
	</g>
	<g id="XMLID_595_">
		<g id="XMLID_596_">
			<path id="XMLID_600_" class="st3" d="M119.8-21.2c-0.3,1.1-0.5,2.1-0.8,3.2c0.4-0.3,0.7-0.6,1.1-0.8c-0.1-0.1-0.2-0.1-0.3-0.2
				c-0.7-0.2-1.4-0.4-2.2-0.6c-0.1,0.5-0.3,0.9-0.7,1.4c-0.7,1,0.6,2,1.5,1.5c0,0,0.1,0,0.1-0.1c-0.4,0-0.8,0-1.1,0
				c0.8,0.4,1.3,0.5,2.2,0.6c1.1,0,2.3,0.1,3.4,0.1c0.6,0,1.1-0.5,1.1-1.1c0-1.3,0.2-2.6,0.6-3.8c0.3-0.9-0.8-1.8-1.7-1.3
				c-1.6,0.9-2.7,2.4-3,4.2c0.7,0.1,1.5,0.2,2.2,0.3c0-0.4,0-0.7,0-1.1c0-1.4-2.3-1.5-2.2,0c0,0.4,0,0.7,0,1.1c0,1.2,2,1.6,2.2,0.3
				c0.2-1.3,0.9-2.2,2-2.9c-0.6-0.4-1.1-0.8-1.7-1.3c-0.4,1.4-0.6,2.9-0.6,4.4c0.4-0.4,0.8-0.8,1.1-1.1c-1.2-0.1-2.6,0.1-3.8-0.2
				c-0.7-0.1-1.2-0.5-1.9-0.2c0.5,0.5,1,1,1.5,1.5c0.4-0.6,0.7-1.2,0.9-1.9c0.3-1.4-1.8-2-2.2-0.6c-0.5,1.8,0.9,2.9,2.5,3.1
				c0.5,0.1,1-0.4,1.1-0.8c0.3-1.1,0.5-2.1,0.8-3.2C122.3-22,120.2-22.6,119.8-21.2L119.8-21.2z"/>
		</g>
	</g>
	<g id="XMLID_602_">
		<g id="XMLID_589_">
			<path id="XMLID_593_" class="st3" d="M131.5-22.3c-0.1,0.8-0.5,1.4-1.1,1.9c-0.9,0.7,0.1,2.3,1.1,1.9c1.1-0.4,2-1,2.9-1.7
				c0.5-0.4,0.4-1.2,0-1.6c-0.5-0.5-1.1-0.4-1.6,0c-0.6,0.5-1.2,0.9-1.9,1.2c0.4,0.6,0.7,1.3,1.1,1.9c1.1-0.9,1.6-2.1,1.8-3.5
				c0.1-0.6-0.6-1.1-1.1-1.1C132-23.5,131.6-23,131.5-22.3L131.5-22.3z"/>
		</g>
	</g>
	<g id="XMLID_609_">
		<g id="XMLID_582_">
			<path id="XMLID_586_" class="st3" d="M81.7-21.6c0.6,1.3,1.3,2.3,2.3,3.3c0.6,0.5,1.7,0.4,1.9-0.5c0.2-1.4,0.2-2.7-0.1-4.1
				c-0.7,0.3-1.4,0.6-2.1,0.9c0.8,1.5,1.9,2.6,3.3,3.6c0.5,0.4,1.6,0,1.7-0.7c0.2-1.3,0-2.2-0.9-3.2c-0.5,0.5-1.1,1.1-1.6,1.6
				c0.7,0.6,1.4,1.3,2.1,2c0.7,0.8,1.8,0.1,1.9-0.8c0-0.5,0.2-1,0.4-1.5c-0.7,0-1.4,0-2.2,0c0.4,1.1,0.8,2.2,1.4,3.2
				c0.3-0.6,0.6-1.1,1-1.7c-3.5,0-7.1,0-10.6,0c0.4,0.4,0.8,0.8,1.1,1.1c0-0.9,0.1-1.7,0.4-2.6c-0.7-0.1-1.5-0.2-2.2-0.3
				c0,1.2-0.1,3.3,1.7,3.2c1.5-0.1,1.8-2,2.3-3.1c-0.7,0.1-1.4,0.2-2.1,0.3c0,0.1,0.1,0.3,0.1,0.4c0,1.4,2.3,1.5,2.2,0
				c0-0.7-0.1-0.9-0.4-1.5c-0.5-0.9-1.7-0.6-2.1,0.3c-0.1,0.4-0.3,0.7-0.4,1.1c0.8,0.5,1.1,0.4,0.9-0.5c0-1.3-1.8-1.5-2.2-0.3
				c-0.4,1.1-0.5,2-0.5,3.2c0,0.6,0.5,1.1,1.1,1.1c3.5,0,7.1,0,10.6,0c0.8,0,1.4-1,1-1.7c-0.5-0.8-0.9-1.7-1.2-2.7
				c-0.4-1.1-1.8-1-2.2,0c-0.3,0.7-0.4,1.4-0.5,2.1c0.6-0.3,1.3-0.5,1.9-0.8c-0.7-0.7-1.4-1.4-2.1-2c-1.1-0.9-2.5,0.5-1.6,1.6
				c0.1,0.3,0.2,0.7,0.3,1c0.6-0.2,1.1-0.4,1.7-0.7c-1.1-0.7-1.8-1.6-2.5-2.8c-0.7-1.1-2.3-0.3-2.1,0.9c0.2,1,0.2,1.9,0.1,2.9
				c0.6-0.2,1.3-0.3,1.9-0.5c-0.9-0.8-1.5-1.7-2-2.8C83.1-24.1,81.2-22.9,81.7-21.6L81.7-21.6z"/>
		</g>
	</g>
	<g id="XMLID_616_">
		<g id="XMLID_575_">
			<path id="XMLID_579_" class="st3" d="M68.7-23.8c-1,0.3-2.1,0.5-3.2,0.5c0.3,0.6,0.6,1.1,1,1.7c0.5-0.8,1-1.6,1.6-2.3
				c-0.6-0.4-1.3-0.7-1.9-1.1c-0.1,0.3-0.4,0.5-0.7,0.6c-1.4,0.4-0.8,2.6,0.6,2.2c1.1-0.3,1.9-1.1,2.3-2.2c0.4-1-1.2-1.9-1.9-1.1
				s-1.4,1.8-2,2.7c-0.4,0.8,0.1,1.7,1,1.7c1.3,0,2.6-0.1,3.8-0.5C70.7-22.1,70.1-24.2,68.7-23.8L68.7-23.8z"/>
		</g>
	</g>
	<g id="XMLID_623_">
		<g id="XMLID_569_">
			<path id="XMLID_573_" class="st4" d="M131.9-28.1c-0.4,1.9-0.7,3.8-1.1,5.7c-0.2,0.9,1.3,1.3,1.4,0.4c0.4-1.9,0.7-3.8,1.1-5.7
				C133.5-28.7,132-29.1,131.9-28.1L131.9-28.1z"/>
		</g>
	</g>
	<g id="XMLID_630_">
		<g id="XMLID_562_">
			<path id="XMLID_567_" class="st4" d="M124.9-26.1l-0.2,0.7c0,0.3-0.1,0.6-0.1,0.9c-0.1,0.6-0.2,1.2-0.3,1.9
				c-0.1,0.9,1.3,1.4,1.4,0.4c0.1-0.9,0.3-1.8,0.4-2.6c0.1-0.7,0.3-1.4,0-2C125.8-27.8,124.5-27,124.9-26.1L124.9-26.1z"/>
		</g>
	</g>
	<g id="XMLID_637_">
		<g id="XMLID_555_">
			<path id="XMLID_560_" class="st4" d="M126.3-30.9c0-0.1,0-0.2,0-0.3c0.1-0.9-1.2-1.4-1.4-0.4c-0.4,1.6-0.6,3.2-0.7,4.8
				c0,1,1.5,1,1.5,0c0-1.5,0.2-3,0.6-4.4c-0.5-0.1-1-0.3-1.4-0.4c0,0.1,0,0.2,0,0.3C124.7-30.4,126.2-29.9,126.3-30.9L126.3-30.9z"
				/>
		</g>
	</g>
	<g id="XMLID_644_">
		<g id="XMLID_548_">
			<path id="XMLID_552_" class="st4" d="M120.2-28.5c-0.5,1.2-1.1,2.5-1.6,3.7c-0.5,1.3-0.6,3.3-1.7,4.2c0.2-0.1,0.5-0.1,0.7-0.2
				h-0.1c-0.9-0.3-1.3,1.2-0.4,1.4c1.1,0.3,1.8-1.5,2.1-2.2c0.4-0.9,0.5-1.9,0.9-2.8c0.4-1.1,0.9-2.3,1.4-3.4
				C121.8-28.6,120.6-29.4,120.2-28.5L120.2-28.5z"/>
		</g>
	</g>
	<g id="XMLID_651_">
		<g id="XMLID_541_">
			<path id="XMLID_545_" class="st4" d="M108.5-30.6c-0.2,1.8-0.3,3.6-0.5,5.3c-0.1,1.2,0.1,4.4-0.9,5.2c-0.7,0.6,0.3,1.7,1.1,1.1
				c1.1-0.9,1-2.9,1.1-4.3c0.2-2.4,0.4-4.9,0.7-7.3C110.1-31.5,108.6-31.5,108.5-30.6L108.5-30.6z"/>
		</g>
	</g>
	<g id="XMLID_658_">
		<g id="XMLID_533_">
			<path id="XMLID_537_" class="st4" d="M99.6-21.7c-0.4-3-0.7-5.9-1.1-8.9c-0.1-0.9-1.6-1-1.5,0c0.4,3,0.7,5.9,1.1,8.9
				C98.2-20.7,99.7-20.7,99.6-21.7L99.6-21.7z"/>
		</g>
	</g>
	<g id="XMLID_665_">
		<g id="XMLID_526_">
			<path id="XMLID_530_" class="st4" d="M91.5-21.6c0.7-1.5,1.4-3,2.1-4.5c0.4-0.9-0.9-1.6-1.3-0.8c-0.7,1.5-1.4,3-2.1,4.5
				C89.8-21.5,91.1-20.7,91.5-21.6L91.5-21.6z"/>
		</g>
	</g>
	<g id="XMLID_672_">
		<g id="XMLID_519_">
			<path id="XMLID_523_" class="st4" d="M132.6-35.9c-10.1,2.8-20.5,3.6-30.9,4.2c-10.3,0.6-20.6,0.8-30.5-2.3
				c-0.9-0.3-1.3,1.2-0.4,1.4c10.1,3.1,20.5,2.9,30.9,2.3c10.6-0.6,21.1-1.4,31.3-4.2C133.9-34.7,133.5-36.2,132.6-35.9L132.6-35.9z
				"/>
		</g>
	</g>
	<g id="XMLID_679_">
		<g id="XMLID_512_">
			<path id="XMLID_516_" class="st4" d="M87.4-27.5c0.7,1.8,1.5,3.5,2.4,5.2c0.5,0.9,1.7,0.1,1.3-0.8c-0.8-1.6-1.6-3.2-2.3-4.9
				C88.5-28.8,87.1-28.4,87.4-27.5L87.4-27.5z"/>
		</g>
	</g>
	<g id="XMLID_686_">
		<g id="XMLID_505_">
			<path id="XMLID_509_" class="st4" d="M80.5-26.9c-0.1,1.2-0.3,2.4-0.5,3.5c-0.2,0.9,1.2,1.3,1.4,0.4c0.3-1.3,0.5-2.6,0.6-3.9
				C82.1-27.9,80.6-27.9,80.5-26.9L80.5-26.9z"/>
		</g>
	</g>
	<g id="XMLID_693_">
		<g id="XMLID_498_">
			<path id="XMLID_502_" class="st4" d="M75.4-32.2c-0.4,0.8-1.1,1.5-1.7,2.1c-0.6,0.7-1.2,1.4-1.9,2c-0.7,0.7,0.4,1.8,1.1,1.1
				c0.7-0.8,1.4-1.5,2.1-2.3c0.6-0.7,1.4-1.3,1.7-2.2C77.1-32.3,75.8-33.1,75.4-32.2L75.4-32.2z"/>
		</g>
	</g>
	<g id="XMLID_700_">
		<g id="XMLID_491_">
			<path id="XMLID_495_" class="st4" d="M102.9-31.1L102.9-31.1c-0.1,0.5-0.1,0.9-0.2,1.4l0,0c-0.3-0.1-0.6-0.2-0.8-0.3l0,0
				c0-0.3,0-0.5,0-0.8c-0.4,0.8,0.3,1.3,0.7,1.9c0.5,0.6,1.1,1.2,1.7,1.8c0.7,0.7,1.7-0.4,1.1-1.1c-0.8-0.9-1.6-1.7-2.3-2.6
				c0.1,0.2,0.1,0.4,0.2,0.5c0,0.1,0,0.1-0.1,0.2c0.1-0.2,0.2-0.5,0-0.8l0,0c-0.2-0.3-0.5-0.4-0.8-0.3l0,0c-0.6,0.2-0.7,1.1-0.2,1.4
				l0,0C103-29.3,103.7-30.6,102.9-31.1L102.9-31.1z"/>
		</g>
	</g>
	<g id="XMLID_707_">
		<g id="XMLID_484_">
			<path id="XMLID_488_" class="st4" d="M116.5-31.8c-0.2,1.2-0.6,2.3-1.4,3.3c-0.6,0.7,0.5,1.8,1.1,1.1c0.9-1.2,1.6-2.5,1.8-4
				C118.1-32.3,116.6-32.7,116.5-31.8L116.5-31.8z"/>
		</g>
	</g>
</g>
<g id="cleaning_bottle">
	<g id="XMLID_714_">
		<g id="XMLID_912_">
			<path id="XMLID_916_" class="st5" d="M106.4,104.8c-9.1-1.5-18.1-1.4-27.1,0.4c-0.9,0.2-0.5,1.6,0.4,1.4
				c8.8-1.8,17.5-1.9,26.3-0.4C106.9,106.4,107.3,104.9,106.4,104.8L106.4,104.8z"/>
		</g>
	</g>
	<g id="XMLID_721_">
		<g id="XMLID_906_">
			<path id="XMLID_910_" class="st5" d="M105.4,105.7c1.7,0.6,3.4,1.1,5.1,1.7c0.9,0.3,1.3-1.1,0.4-1.4c-1.7-0.6-3.4-1.1-5.1-1.7
				C104.9,104,104.5,105.4,105.4,105.7L105.4,105.7z"/>
		</g>
	</g>
	<g id="XMLID_728_">
		<g id="XMLID_900_">
			<path id="XMLID_904_" class="st5" d="M110.3,107.2c0,1.9,0,3.9,0,5.8c0,1,1.5,1,1.5,0c0-1.9,0-3.9,0-5.8
				C111.8,106.2,110.3,106.2,110.3,107.2L110.3,107.2z"/>
		</g>
	</g>
	<g id="XMLID_735_">
		<g id="XMLID_894_">
			<path id="XMLID_898_" class="st5" d="M110.1,107.7c1.1,0,2.8-0.1,3.7,0.4c0.8,0.5,0.6,2.3,0.7,3.2c0,0.5,0.1,1,0.1,1.5
				c0,0.1,0.3,1.4,0.3,1.4c-0.1,0.1-1.8,0.1-1.9,0.1c-0.6,0-1.3,0.1-1.9,0.1c-1,0-1,1.5,0,1.5c1.1,0,2.2-0.1,3.2-0.1
				c0.5,0,1.1,0,1.5-0.3c1-0.8,0.3-3.3,0.2-4.4c-0.1-1.2,0.3-3.3-0.9-4.1c-1.2-0.8-3.6-0.8-5-0.8
				C109.2,106.2,109.2,107.7,110.1,107.7L110.1,107.7z"/>
		</g>
	</g>
	<g id="XMLID_742_">
		<g id="XMLID_888_">
			<path id="XMLID_892_" class="st5" d="M109.6,113c0.1,0.7,0.3,1.3,0.4,2c0.2,0.9,1.6,0.5,1.4-0.4c-0.1-0.7-0.3-1.3-0.4-2
				C110.9,111.7,109.4,112.1,109.6,113L109.6,113z"/>
		</g>
	</g>
	<g id="XMLID_749_">
		<g id="XMLID_882_">
			<path id="XMLID_886_" class="st5" d="M110.4,114.9c-0.4-1.2-4.5,0.5-5.2,0.9c-1.8,0.9-3.4,2.1-4.7,3.7c-0.6,0.7,0.4,1.8,1.1,1.1
				c1.5-1.8,3.4-3.2,5.6-4c1.4-0.5,3.4-0.1,4.5-1.1c0.2-0.2,0.3-0.5,0.2-0.7c0-0.1,0-0.1-0.1-0.2C111.5,113.6,110.1,114,110.4,114.9
				L110.4,114.9z"/>
		</g>
	</g>
	<g id="XMLID_756_">
		<g id="XMLID_876_">
			<path id="XMLID_880_" class="st5" d="M80.9,105c-2.5,1.1-5.1,2.2-6.7,4.5c-1.6,2.3-0.5,4.4,0.9,6.5c0.5,0.8,1.8,0.1,1.3-0.8
				c-0.5-0.7-1.2-1.7-1.3-2.5c-0.3-1.8,0.6-2.9,1.9-3.9c1.4-1.1,3.1-1.8,4.8-2.5C82.6,105.9,81.8,104.6,80.9,105L80.9,105z"/>
		</g>
	</g>
	<g id="XMLID_763_">
		<g id="XMLID_870_">
			<path id="XMLID_874_" class="st5" d="M75.8,116.4c1.4,0.1,12.7,1.2,10,4.4c-0.6,0.7,0.4,1.8,1.1,1.1c4.6-5.5-8.4-6.9-11.1-7
				C74.9,114.8,74.9,116.3,75.8,116.4L75.8,116.4z"/>
		</g>
	</g>
	<g id="XMLID_770_">
		<g id="XMLID_864_">
			<path id="XMLID_868_" class="st5" d="M99.1,119.9c-0.2,1.1-0.1,2.2,0.3,3.3c0.3,0.9,1.8,0.5,1.4-0.4c-0.3-0.8-0.4-1.7-0.3-2.5
				c0.1-0.4-0.1-0.8-0.5-0.9C99.7,119.3,99.2,119.5,99.1,119.9L99.1,119.9z"/>
		</g>
	</g>
	<g id="XMLID_777_">
		<g id="XMLID_858_">
			<path id="XMLID_862_" class="st5" d="M100,120c-4.5,0.3-9,0.1-13.4-0.4c-1-0.1-1,1.4,0,1.5c4.5,0.5,8.9,0.6,13.4,0.4
				C100.9,121.4,100.9,119.9,100,120L100,120z"/>
		</g>
	</g>
	<g id="XMLID_784_">
		<g id="XMLID_851_">
			<path id="XMLID_856_" class="st5" d="M85.8,119.3c0,2,0.2,4,0.5,6c0.2,1,1.6,0.5,1.4-0.4c-0.3-1.9-0.5-3.7-0.5-5.6
				C87.3,118.4,85.8,118.4,85.8,119.3L85.8,119.3z"/>
		</g>
	</g>
	<g id="XMLID_791_">
		<g id="XMLID_844_">
			<path id="XMLID_849_" class="st5" d="M99.2,120.3c0,1.2,0.3,2.8,0,4c-0.3,1.2,0.1,0.7-1.1,1c-0.8,0.2-1.8,0-2.6,0
				c-1.4,0-2.8,0-4.2,0c-1.1,0-3.8,0.5-4.6-0.3c-0.7-0.7-1.8,0.4-1.1,1.1c1.1,1.1,2.6,0.8,4.1,0.8c2.6,0,5.3,0,7.9,0
				c1,0,2.2,0.3,2.9-0.6c0.9-1.1,0.2-4.6,0.2-6C100.7,119.3,99.2,119.3,99.2,120.3L99.2,120.3z"/>
		</g>
	</g>
	<g id="XMLID_798_">
		<g id="XMLID_837_">
			<path id="XMLID_842_" class="st5" d="M99.1,125.1c-1.1,5.6,2.8,8.9,6.6,12.3c6,5.3,7.5,13.9,9.3,21.4c1.5,6.3,6.5,24.5-3,26.7
				c-4.2,1-9.4,0.3-13.7,0.4c-2.6,0-14.2,1.5-14.7-1.9c-0.1-1-1.6-0.5-1.4,0.4c0.4,2.6,2.1,2.9,4.5,3.1c5.8,0.4,11.8-0.1,17.6-0.1
				c6.4-0.1,13.4,0.2,14.6-7.6c1.4-9.5-1.8-20.3-4.4-29.3c-1.1-3.7-2-7.9-4.5-11c-3.4-4.4-10.6-7.2-9.3-13.9
				C100.8,124.5,99.3,124.1,99.1,125.1L99.1,125.1z"/>
		</g>
	</g>
	<g id="XMLID_805_">
		<g id="XMLID_830_">
			<path id="XMLID_835_" class="st5" d="M85.7,124.8c1.1,6.7-2.7,12-4.4,18.1c-1.5,5.2-1.4,10.7-1.5,16c-0.1,5.5-0.1,11,0.4,16.5
				c0.3,3.6,0.8,7.1,3.4,9.8c0.7,0.7,1.7-0.4,1.1-1.1c-3.9-4.2-3.3-11.7-3.4-17c-0.1-5.2,0-10.5,0.3-15.7c0.3-5.6,1.9-10.1,3.9-15.3
				c1.5-4,2.4-7.6,1.7-11.8C87,123.5,85.5,123.9,85.7,124.8L85.7,124.8z"/>
		</g>
	</g>
	<g id="XMLID_812_">
		<g id="XMLID_823_">
			<path id="XMLID_828_" class="st5" d="M108.5,116.6c0.6,0.3,1.2,0.5,1.7,0.8c0.7,0,1,0.3,0.9,0.8c0.1,0.3,0.2,0.7,0.3,0.9
				c0.5,0.9,1.4,1.4,2.4,1.5c-0.2-0.2-0.4-0.5-0.6-0.7c0.1,1-0.1,2,0.6,2.8c0.7,0.9,2.2,1.3,3.2,1.8c0.1-0.5,0.1-0.9,0.2-1.4
				c-4.2,1.7-9.4-3.4-11.5-6.5c-0.5-0.8-1.8-0.1-1.3,0.8c2.4,3.7,8.3,9.3,13.2,7.2c0.5-0.2,0.8-1.1,0.2-1.4c-1.5-0.7-2.9-1.3-3-3.2
				c0-0.3-0.2-0.7-0.6-0.7c-2.5-0.4-1.1-1.3-2-2.4c-0.6-0.8-2.2-1.1-3.1-1.5C108.4,114.9,107.6,116.2,108.5,116.6L108.5,116.6z"/>
		</g>
	</g>
	<g id="XMLID_819_">
		<g id="XMLID_816_">
			<path id="XMLID_821_" class="st5" d="M98.7,117.6c1.4-3.5-0.1-7.9-4.3-8c-5.1-0.2-4.9,4.5-4.6,8.2c1-1,2-2,3-3
				c0.2,0-2.1-2.2-2.6-2.4c-1.5-0.7-3-0.6-4.6-0.3c-2.3,0.5-2.8,3.5-1.3,5c0.9,0.7,1.5,1.6,2,2.7c0.5,0.9,1.6,1.5,2.6,1.5
				c3.3,0,7.9,0.9,11.1-0.2c0.9-0.3,1.5-0.9,2.2-1.5c1.8-1.3,5.4-2.9,4-5.3c0.6-1.5,1.2-2.9,1.8-4.4c-1.2,0.3-2.3,0.6-3.5,0.9
				c0.5,1.9,1.1,3.9,1.6,5.8c1.2-0.4,2.4-0.7,3.6-0.8c2.3-0.3,3.7-2.3,2.6-4.5c-1.5-2.9-0.6-4.9-4.2-6c-4.6-1.4-10.5-1-15.2-1.2
				c-5.3-0.2-17.5-1.2-17.1,7.1c0.2,3.9,5.6,3.8,6,0c0.1-0.6,0.1-1.1,0.2-1.7c0.3-2.3-2.7-3.6-4.5-2.6c-2.4,1.4-3.2,3-3.4,5.7
				c1.9-0.5,3.7-1,5.6-1.5c-0.1-0.3-0.3-0.5-0.4-0.8c-1.4-2.5-5.9-1.5-5.6,1.5c0.6,6.6,6.7,3.6,10.9,5.9c0.8-1.8,1.5-3.7,2.3-5.5
				c-1.1-0.1-2.1-0.4-3.1-0.9c-0.1,2.1,0.7,2.8,2.6,2.1c1.9,0.6,4.7,0.1,6.7,0.2c4.4,0.2,8.8,0.4,13.3,0.6c-0.5-1.9-1-3.7-1.5-5.6
				c-1.9,1.1-4,2.7-6,3.4c1,0.3,1.9,0.5,2.9,0.8c-1.2-1-1.4-2.5-4-2.9c-5-0.8-10.7-0.3-15.8-0.4c-3.9-0.1-3.9,5.9,0,6
				c3.3,0.1,6.6,0.2,9.9,0.3c0,0,4.7-0.3,4.5-0.4c0.4,0.2,0.5,1.2,1,1.5c3.8,2.3,7.1-1,10.6-3c2.7-1.5,1.4-5.5-1.5-5.6
				c-4.7-0.2-9.4-0.4-14.1-0.6c-3.6-0.1-9.3-1.1-12.6,0.9c-6.2,3.8,1.9,8.9,5.7,9.5c3.2,0.6,5.5-3.7,2.3-5.5
				c-1.7-0.9-3.2-1.6-5.1-1.9c-0.8-0.1-1.6-0.2-2.4-0.1c-1.5-0.2-1.6,0.2-0.4,1.2c-1.9,0.5-3.7,1-5.6,1.5c0.1,0.3,0.3,0.5,0.4,0.8
				c1.5,2.8,5.4,1.3,5.6-1.5c0.1-0.2,0.3-0.4,0.4-0.5c-1.5-0.9-3-1.7-4.5-2.6c-0.1,0.6-0.1,1.1-0.2,1.7c2,0,4,0,6,0
				c-0.1-2,14.3-0.9,16-0.8c2.5,0.1,5.2,0.7,7.7,0.6c1,0-0.4-2,0.6,0.4c0.4,1.1,0.6,1.8,1.1,2.9c0.9-1.5,1.7-3,2.6-4.5
				c-1.8,0.2-3.5,0.5-5.2,1.1c-3.7,1.2-2.2,6.8,1.6,5.8c1.2-0.3,2.3-0.6,3.5-0.9c1.9-0.5,2.8-2.7,1.8-4.4c-1.9-3.2-5-2.1-7.6-0.4
				c-1.7,1.1-3.3,3-5.1,3.9c-2.3,1.2-7.1,0.5-9.8,0.5c0.9,0.5,1.7,1,2.6,1.5c-0.8-1.5-1.7-2.7-2.9-3.9c-0.4,1.7-0.9,3.3-1.3,5
				c0.4-0.1,2.1,1.9,2.6,2.2c1,0.6,1.7,0.7,2.9,0.7c1.5,0,3.1-1.3,3-3c0-0.5-0.1-1.1-0.2-1.6c0-1.2-0.9-1.2-2.7-0.1
				C91.5,119.6,97.3,121.1,98.7,117.6L98.7,117.6z"/>
		</g>
	</g>
	<g id="XMLID_826_">
		<g id="XMLID_809_">
			<path id="XMLID_814_" class="st5" d="M110.1,113.2c-0.1,0.5,0,1,0.1,1.5c0.2,0.8,1.5,0.7,1.5-0.2c0-0.7,0-1.5,0-2.2
				c-0.5,0.1-1,0.1-1.5,0.2c0.2,0.8,0.2,1.5,0.2,2.3c-0.1,1,1.4,1,1.5,0c0-0.9,0-1.8-0.3-2.7c-0.2-0.8-1.5-0.6-1.5,0.2
				c0,0.7,0,1.5,0,2.2c0.5-0.1,1-0.1,1.5-0.2c-0.1-0.4-0.1-0.7-0.1-1.1c0-0.4-0.4-0.7-0.8-0.8C110.4,112.5,110.2,112.8,110.1,113.2
				L110.1,113.2z"/>
		</g>
	</g>
	<g id="XMLID_833_">
		<g id="XMLID_802_">
			<path id="XMLID_807_" class="st5" d="M99.6,131.6L99.6,131.6c0.9-0.1,0.7-1.6-0.1-1.5c-2,0.2-4,0.4-6,0.4c-1.7,0-5.4,0.3-6.8-0.6
				c0.1,0.4,0.1,0.8,0.2,1.2c0,0,0-0.1,0.1-0.1c-0.3,0-0.6,0.1-0.9,0.1c0,0,0,0,0.1,0c0.8,0.5,1.6-0.8,0.8-1.3c0,0,0,0-0.1,0
				c-0.3-0.2-0.7-0.1-0.9,0.1c0,0,0,0.1-0.1,0.1c-0.3,0.4-0.3,0.9,0.2,1.2c1.4,0.8,4,0.7,5.5,0.8c2.7,0.1,5.3,0,8-0.3
				c-0.1-0.5-0.1-1-0.2-1.5h-0.1C98.2,130.3,98.6,131.8,99.6,131.6L99.6,131.6z"/>
		</g>
	</g>
	<g id="XMLID_840_">
		<g id="XMLID_795_">
			<path id="XMLID_800_" class="st5" d="M100.4,130.2c-0.3-0.2-0.7-0.3-1.1-0.2c-0.9,0.2-0.5,1.7,0.4,1.4h-0.1
				C100.4,132.1,101.2,130.8,100.4,130.2L100.4,130.2z"/>
		</g>
	</g>
	<g id="XMLID_847_">
		<g id="XMLID_793_">
			<path id="XMLID_1377_" class="st5" d="M92.4,129.9c0.7,0,1.4,0,2,0c1.4,0,2.2-2.1,0.8-2.8c-1.3-0.6-3.1-1.1-4.2,0.2
				c-0.9,1-0.8,2.6,0.3,3.4c2.1,1.5,8.4,0.2,6.9-3.4c-1.1-2.7-5.8-1.3-5.2,1.5c0.3,1.5,2.2,2.3,3.6,2.2c1.8-0.1,3-1.5,3.3-3.1
				c-1-0.1-2-0.3-2.9-0.4c0,1.2,0.3,1.9,0.8,3c0.1-0.6,0.2-1.2,0.2-1.8c-0.3,0.2-1.9,0.2-2.2,0.2c-0.8,0-1.7,0-2.5,0
				c-1.5,0-3.6,0.3-5.1-0.2c0.3,0.3,0.7,0.7,1,1c-0.1-0.6-0.1-1.2,0.1-1.7c-0.3,0.3-0.7,0.7-1,1c1.5-0.2,3.4,0.3,4.9,0.3
				c1.6,0,3.2,0,4.9-0.1c1.6-0.1,2.2-2.7,0.4-2.9c-2.7-0.4-7-1.3-9.4,0.5c-1.5,1.1-1.2,3.9,1,3.7c1.9-0.2,2-3.1,0-3
				c-0.2,0-0.4,0-0.7,0c-1.9,0.1-1.9,3.1,0,3c0.2,0,0.4,0,0.7,0c0-1,0-2,0-3c0.4,1.4,1.1,1.9,2.1,1.4c0.6-0.1,1.3-0.1,1.9-0.1
				c1.2,0,2.4,0.2,3.6,0.4c0.1-1,0.3-2,0.4-2.9c-1.9,0.1-3.8,0.1-5.7,0c-1.6-0.1-3.2-0.4-4.8-0.2c-0.5,0.1-0.9,0.6-1,1
				c-0.4,1-0.6,2.7,0.1,3.7c0.8,1.2,2.6,0.9,3.8,1c2.6,0.1,7.8,0.9,9.9-1c0.5-0.5,0.5-1.2,0.2-1.8c-0.2-0.5-0.4-1-0.4-1.5
				c0-1.7-2.6-2.1-2.9-0.4c-0.8,0.8-1.8,1.2-2.8,1.2c-1-0.3-1.2,0.2-0.4,1.5c0.3-0.9,0.5-1.9,0.8-2.8c-0.7,0-1.4,0-2,0
				C90.4,126.9,90.4,129.9,92.4,129.9L92.4,129.9z"/>
		</g>
	</g>
	<g id="XMLID_854_">
		<g id="XMLID_1378_">
			<path id="XMLID_1382_" class="st5" d="M84.9,151.2c0.7-10.8,18-13.7,22.1-3.7c2,4.9,4.6,14.3,2,18.9c-1.5,2.7-3.1,2.3-6,2.6
				c-1.3,0.1-2.5,0.1-3.8,0.2c-3,0.1-6.6,0.4-9.5-0.2c-2.6-0.5-3.6-0.8-4.4-3.7c-0.5-1.7-0.4-3.8-0.5-5.6c-0.1-3.2,0.1-6.4,0.2-9.5
				c0-1-1.5-1-1.5,0c-0.2,5.3-1.4,12.7,0.7,17.7c1.3,3.1,4.3,2.5,7.3,2.7c5.2,0.2,12.3,1.1,17.3-1c3-1.3,2.9-4.1,2.6-6.9
				c-0.6-7.8-1.3-19.4-10.1-21.9c-8-2.3-17.4,1.3-17.9,10.5C83.3,152.2,84.8,152.2,84.9,151.2L84.9,151.2z"/>
		</g>
	</g>
</g>
<g id="cup">
	<g id="XMLID_70_">
		<g id="XMLID_774_">
			<path id="XMLID_911_" class="st6" d="M-77.6,45.7c3.3,0,6.5,0.1,9.8,0.3c1.5,0.1,3,0.2,4.5,0.4c1,0.1,2.1,0.2,3.1,0.3
				c2.1,1.6,2.7,3.5,2,5.7c-0.1,0.9,1.3,1.4,1.4,0.4c0.5-3.2,0.4-6.3-3.1-7.5c-2.2-0.7-5-0.6-7.2-0.7c-3.5-0.2-7-0.4-10.6-0.4
				C-78.6,44.2-78.6,45.7-77.6,45.7L-77.6,45.7z"/>
		</g>
	</g>
	<g id="XMLID_77_">
		<g id="XMLID_230_">
			<path id="XMLID_772_" class="st6" d="M-78.9,44.4c-5.3-0.2-10.7-0.1-16,0.4c-1,0.1-1,1.6,0,1.5c5.3-0.5,10.7-0.6,16-0.4
				C-78,46-78,44.5-78.9,44.4L-78.9,44.4z"/>
		</g>
	</g>
	<g id="XMLID_84_">
		<g id="XMLID_222_">
			<path id="XMLID_228_" class="st6" d="M-95.6,45c-2.6,1-2.2,4.4-2,6.6c0.1,1,1.6,1,1.5,0c-0.1-1.3-0.7-4.6,0.9-5.2
				C-94.3,46.1-94.7,44.7-95.6,45L-95.6,45z"/>
		</g>
	</g>
	<g id="XMLID_175_">
		<g id="XMLID_216_">
			<path id="XMLID_220_" class="st6" d="M-58.5,53.1c-12.8,0.2-25.7,0.7-38.5-0.3c-1-0.1-1,1.4,0,1.5c12.8,1,25.7,0.5,38.5,0.2
				C-57.5,54.5-57.5,53-58.5,53.1L-58.5,53.1z"/>
		</g>
	</g>
	<g id="XMLID_98_">
		<g id="XMLID_210_">
			<path id="XMLID_214_" class="st6" d="M-60.4,46.7c-11.6,0.6-23.2,0.6-34.8-0.2c-1-0.1-1,1.4,0,1.5c11.6,0.8,23.2,0.8,34.8,0.2
				C-59.5,48.1-59.5,46.6-60.4,46.7L-60.4,46.7z"/>
		</g>
	</g>
	<g id="XMLID_105_">
		<g id="XMLID_204_">
			<path id="XMLID_208_" class="st6" d="M-60.1,54.7c-0.9,4.3-1.6,8.6-2.1,13c-0.5,5,0,10.2-0.9,15.1c-0.2,0.9,1.3,1.4,1.4,0.4
				c0.7-3.9,0.3-7.9,0.6-11.8c0.4-5.5,1.2-10.9,2.4-16.3C-58.4,54.1-59.9,53.7-60.1,54.7L-60.1,54.7z"/>
		</g>
	</g>
	<g id="XMLID_119_">
		<g id="XMLID_198_">
			<path id="XMLID_202_" class="st6" d="M-95.8,54.6c1.5,6.9,2.9,13.9,4.4,20.8c1.1,5.1,1.6,10.6,4.5,15c0.5,0.8,1.8,0.1,1.3-0.8
				c-3.1-4.7-3.6-11-4.8-16.5c-1.3-6.3-2.7-12.6-4-18.9C-94.6,53.2-96,53.6-95.8,54.6L-95.8,54.6z"/>
		</g>
	</g>
	<g id="XMLID_126_">
		<g id="XMLID_191_">
			<path id="XMLID_195_" class="st6" d="M-62.7,82.8c-0.2,1.1-0.5,2.1-0.9,3.2c-0.9,2.2-2.4,3.1-4.4,2.7c-1.8,0.4-3.9,0.1-5.7,0.1
				c-1.5,0-13.1,0-13.1,0c-0.1-1-1.6-1-1.5,0c0,0.1,0,0.2,0,0.3c0,0.2,0.1,0.5,0.4,0.6c2,0.8,4.4,0.4,6.5,0.5
				c4.1,0.1,8.3,0.1,12.4,0c5.5-0.1,6.4-1.3,7.7-7C-61.1,82.3-62.5,81.9-62.7,82.8L-62.7,82.8z"/>
		</g>
	</g>
	<g id="XMLID_133_">
		<g id="XMLID_184_">
			<path id="XMLID_188_" class="st6" d="M-61.5,61.4c-10.8,1.9-21.7,2.2-32.6,1.1c-1-0.1-1,1.4,0,1.5c11.1,1.1,22.1,0.7,33-1.2
				C-60.2,62.7-60.6,61.2-61.5,61.4L-61.5,61.4z"/>
		</g>
	</g>
	<g id="XMLID_140_">
		<g id="XMLID_178_">
			<path id="XMLID_182_" class="st6" d="M-61.8,71.8c-9.9,1.3-19.8,1.2-29.6-0.3c-0.9-0.1-1.4,1.3-0.4,1.4c10,1.5,20,1.7,30,0.4
				C-60.8,73.2-60.8,71.7-61.8,71.8L-61.8,71.8z"/>
		</g>
	</g>
	<g id="XMLID_147_">
		<g id="XMLID_171_">
			<path id="XMLID_176_" class="st6" d="M-76.6,53c5-0.1,10.6,0.5,15.5-0.4c2.4-0.4,3.7-1.8,3.4-4.2c-0.2-1.9-3.1-1.9-3,0
				c0.2,1.3,0.1,2.6-0.2,3.8c0.5-0.4,1-0.7,1.4-1.1c-6.1,0-12.3,0-18.4-0.1c-2.9-0.1-5.8-0.2-8.7-0.3c-3.1-0.1-7.3,0.8-7.4-3.3
				c-0.5,0.5-1,1-1.5,1.5c11.5-0.1,23.1-0.1,34.6-0.2c-0.5-0.5-1-1-1.5-1.5c0,0.5,0,1-0.1,1.5c0.5-0.5,1-1,1.5-1.5
				c-11.3,0.2-22.7,0.4-34,0.7c-1.7,0-2,2.4-0.4,2.9c6.5,2.2,13.2,1.8,20,1.1c1.9-0.2,2-2.9,0-3c-0.8,0-1.7-0.1-2.5-0.1
				c-1.9-0.1-1.9,2.9,0,3c0.8,0,1.7,0.1,2.5,0.1c0-1,0-2,0-3c-6.5,0.7-12.9,1.2-19.2-1c-0.1,1-0.3,2-0.4,2.9
				c11.3-0.2,22.7-0.4,34-0.7c0.8,0,1.5-0.7,1.5-1.5c0-0.5,0-1,0.1-1.5c0-0.8-0.7-1.5-1.5-1.5c-11.5,0.1-23,0.2-34.6,0.3
				c-0.8,0-1.5,0.6-1.5,1.5c0,1.6-0.3,4.4,1.3,5.6c1.9,1.4,7,0.7,9.1,0.7c9,0.4,18.1,0.5,27.1,0.4c0.6,0,1.3-0.5,1.4-1.1
				c0.3-1.6,0.5-3,0.3-4.6c-1,0-2,0-3,0c0.2,2-14.1,1.5-16,1.6C-78.6,50-78.6,53-76.6,53L-76.6,53z"/>
		</g>
	</g>
	<g id="XMLID_154_">
		<g id="XMLID_164_">
			<path id="XMLID_169_" class="st6" d="M-70.6,65.7c-3.6-0.3-7.1-0.4-10.7-0.3c-1.6,0-1.9,2-0.8,2.8c7.1,5.1,14.5,1.8,21-2.6
				c-0.7-0.7-1.4-1.4-2.1-2.1c-1.7,2.4-2.3,4.6-2.1,7.5c0.5-0.5,1-1,1.5-1.5c-4.5,0.4-9.1,0.6-13.6,0.4c-1.9-0.1-3.9-0.2-5.8-0.4
				c-1.8-0.2-3.6-0.4-5.4-0.7c-0.7-1.1-1.2-2.5-1.4-3.9c-0.5,0.6-1,1.3-1.4,1.9c9.3,0.8,18.6,0.4,27.9-1c-0.4-0.9-0.8-1.8-1.2-2.7
				c-1.8,0.9-3.7,1.9-5.5,2.8c-1,0.5-1,2.1,0,2.6c1.4,0.8,2.9,1.4,4.4,2.1c0.1-1,0.3-2,0.4-2.9c-7.8-0.2-15.6-0.5-23.4-0.7
				c-1.9-0.1-1.9,2.9,0,3c7.8,0.2,15.6,0.5,23.4,0.7c1.8,0.1,1.9-2.4,0.4-2.9c-1.3-0.5-2.5-1.1-3.7-1.8c0,0.9,0,1.7,0,2.6
				c1.8-0.9,3.7-1.9,5.5-2.8c1.6-0.8,0.4-3-1.2-2.7c-9,1.4-18,1.7-27.1,0.9c-1-0.1-1.7,1-1.4,1.9c1.3,5.5,2.2,6,7.8,6.6
				c7.1,0.8,14.2,0.8,21.3,0.2c0.8-0.1,1.6-0.6,1.5-1.5c-0.2-2.2,0.4-4.2,1.7-6c0.9-1.2-0.8-2.9-2.1-2.1c-5.6,3.8-11.7,7.1-17.9,2.6
				c-0.3,0.9-0.5,1.9-0.8,2.8c3.6-0.1,7.1,0,10.7,0.3C-68.7,68.8-68.7,65.8-70.6,65.7L-70.6,65.7z"/>
		</g>
	</g>
	<g id="XMLID_161_">
		<g id="XMLID_157_">
			<path id="XMLID_162_" class="st6" d="M-88.1,71c0-0.1,0-0.1,0-0.2c0-0.8-0.7-1.5-1.5-1.5c-0.8,0-1.5,0.7-1.5,1.5
				c0,0.1,0,0.1,0,0.2c0,0.8,0.7,1.5,1.5,1.5C-88.8,72.4-88.1,71.8-88.1,71L-88.1,71z"/>
		</g>
	</g>
	<g id="XMLID_91_">
		<g id="XMLID_145_">
			<path id="XMLID_155_" class="st6" d="M-93.9,50.6c-0.7,0-1.4,0-2.2,0c-0.8,0-1.5,0.7-1.5,1.5s0.7,1.5,1.5,1.5c0.7,0,1.4,0,2.2,0
				c0.8,0,1.5-0.7,1.5-1.5C-92.5,51.3-93.1,50.6-93.9,50.6L-93.9,50.6z"/>
		</g>
	</g>
	<g id="XMLID_112_">
		<g id="XMLID_138_">
			<path id="XMLID_143_" class="st7" d="M-59.9,46.2c-11.7,1.2-23.4,1-35-0.6c-1-0.1-0.9,1.4,0,1.5c11.7,1.5,23.3,1.7,35,0.6
				C-58.9,47.6-58.9,46.1-59.9,46.2L-59.9,46.2z"/>
		</g>
	</g>
</g>
<g id="fork">
	<g id="XMLID_1183_">
		<g id="XMLID_134_">
			<g id="XMLID_334_">
				<path id="XMLID_400_" class="st8" d="M-28-20.4c-1.6-0.2-3.2-0.5-4.7-0.9c-0.9-0.3-1.3,1.2-0.4,1.4c1.7,0.5,3.4,0.8,5.1,1
					C-27-18.8-27-20.3-28-20.4L-28-20.4z"/>
			</g>
		</g>
		<g id="XMLID_149_">
			<g id="XMLID_309_">
				<path id="XMLID_322_" class="st8" d="M-28.3-18.7c1,0.5-3.7,19.5-4.1,21.4c-0.7,3.5-1.5,7-2.3,10.5c-0.5,2-1.6,4.5-1.2,6.5
					c0.1,0.5,0.7,0.7,1.1,0.4c0.1,0,0.1-0.1,0.2-0.1c0.3-0.2,0.5-0.7,0.3-1c0,0,0-0.1-0.1-0.1c-0.5-0.8-1.8-0.1-1.3,0.8
					c0.6,1,2.2-4.7,2.3-5.2c0.4-1.6,0.7-3.2,1.1-4.8c0.7-3.2,1.4-6.3,2-9.5c1.3-6.4,2.6-12.7,3.8-19.1c0.1-0.3,0-0.7-0.3-0.8
					c-0.2-0.1-0.4-0.2-0.6-0.3C-28.4-20.4-29.1-19.1-28.3-18.7L-28.3-18.7z"/>
			</g>
		</g>
		<g id="XMLID_150_">
			<g id="XMLID_298_">
				<path id="XMLID_307_" class="st8" d="M-33-20.2c-1,0.9-1.5,2-1.5,3.2c-0.1,0.9-0.2,1.9-0.3,2.8c-0.2,1.8-0.5,3.6-0.7,5.4
					C-36-5.4-36.6-2-37.1,1.4c-1,5.7-2.2,11.7-1.9,17.5c0,0.3,0.2,0.6,0.6,0.7c2.1,0.5,1.6,0.4,3.7,0.5c0.3,0,0.7-0.2,0.7-0.6
					c0.5-3.4,0.9-6.8,1.4-10.2c0.1-0.9-1.3-1.4-1.4-0.4c-0.3,2-0.1,5-0.9,6.8c0.4,1.6-0.1,2.1-1.4,1.5c-1.4,0.2-1.8-0.4-1.1-1.9
					c-0.4-2,0.6-5.2,0.8-7.2c0.3-2.5,0.7-4.9,1.1-7.4c0.7-4.3,1.4-8.7,2-13c0.3-2.4,1.4-6,0.8-8.3c-0.1-0.4-0.5-0.7-0.9-0.5
					c-0.1,0-0.1,0-0.2,0.1c-0.4,0.1-0.6,0.5-0.5,0.9v0.1C-34.3-18.9-32.9-19.3-33-20.2L-33-20.2z"/>
			</g>
		</g>
		<g id="XMLID_151_">
			<g id="XMLID_290_">
				<path id="XMLID_296_" class="st8" d="M-34.5,1.9c-0.7,3.9-1.4,7.8-1.9,11.7c-0.1,0.9,1.3,1.4,1.4,0.4c0.6-3.6,0.9-7.2,0.9-10.9
					c0-0.7-1-1-1.4-0.4c-2,3.5-2.1,7.1-2,11.1c0,1,1.5,1,1.5,0c0-2.3,0.1-4.3,0.6-6.6c0.2-0.9-1.1-1.3-1.4-0.4
					c-1,3-3.1,7.5-0.7,10.2c0.3,0.3,1,0.3,1.2-0.2c0.7-1.4,0.9-2.5,0.9-4.1c0-0.7-1.1-1.1-1.4-0.4c-0.8,1.9-1.2,3.4-1.3,5.4
					c0,0.8,1,1,1.4,0.4c0.8-1.1,1.2-2.1,1.6-3.5c-0.5-0.1-1-0.3-1.4-0.4c-0.1,0.9-0.3,1.9-0.4,2.8c-0.1,0.8,1,1.4,1.4,0.6
					c1.3-2.9,1.5-6.1,2.1-9.2c0.9-4.4,2.1-8.7,2.9-13.2c0.6-3.6,1-7.1,0.8-10.8c-0.2-3.4-0.2,1-0.4,2.2c-0.4,2.4-0.9,4.9-1.5,7.3
					c0.5,0.1,1,0.1,1.5,0.2c0-2.8,2.8-11.6-1.2-13.6c-3.1-1.6-3,2.5-3.5,4.3c0.5,0.1,1,0.3,1.4,0.4c0.2-1,0.5-2.1,0.7-3.1
					c-0.5,0-1,0-1.4,0c0.9,3.7-0.5,7.8-0.9,11.6c-0.5,3.7-0.6,7.3-0.2,11c0.1,0.9,1.5,1,1.5,0c0.1-3.3,0.3-6.6,0.6-9.8
					c0.3-2.3,0.9-11.5,3.7-12.5c-0.3-0.3-0.6-0.6-0.9-0.9c-0.7,2-1.5,4-2.4,5.9c0.5,0.1,0.9,0.3,1.4,0.4c0-1.8,0-3.5,0-5.3
					c0-0.8-1.3-1.1-1.5-0.2c-1.2,6.9-2.9,14-3.3,21c0,0.9,1.2,0.9,1.5,0.2c2.3-5.6,3.5-11.2,3.7-17.2c0-0.8-1.4-1-1.5-0.2
					c-1.6,10.8-3.2,21.6-5,32.4c-0.2,0.9,1.3,1.4,1.4,0.4c1.8-10.8,3.4-21.6,5-32.4c-0.5-0.1-1-0.1-1.5-0.2
					c-0.2,5.9-1.4,11.4-3.7,16.8c0.5,0.1,1,0.1,1.5,0.2c0.4-6.8,2.1-13.8,3.2-20.6c-0.5-0.1-1-0.1-1.5-0.2c0,1.8,0,3.5,0,5.3
					c0,0.7,1.1,1.1,1.4,0.4c1-2,1.9-4.1,2.6-6.2c0.2-0.5-0.4-1.1-0.9-0.9c-2.9,1-3.3,5-3.9,7.6C-35-6-35.2-0.5-35.4,4.9
					c0.5,0,1,0,1.5,0c-0.5-4.9,0-9.6,0.7-14.5c0.4-2.8,1.1-5.7,0.4-8.5c-0.2-0.7-1.3-0.7-1.4,0c-0.2,1-0.5,2.1-0.7,3.1
					c-0.2,0.9,1.2,1.3,1.4,0.4c0.2-0.4,0.3-0.9,0.4-1.3c2.3,1.2,2.9,3,1.9,5.3c-0.2,1.7-0.5,3.2-0.5,4.9c0,0.8,1.3,1,1.5,0.2
					c0.9-4.2,1.7-8.5,2.3-12.8c0-0.3,0-0.7-0.3-0.8c-4.6-2.1-2.9,6.2-3,8.2c-0.3,4.7-1.4,9.3-2.5,13.8c-1,4.5-1.2,9.9-3.2,14.1
					c0.5,0.2,0.9,0.4,1.4,0.6c0.1-0.9,0.3-1.9,0.4-2.8c0.1-0.9-1.2-1.4-1.4-0.4c-0.2,1.2-0.7,2.2-1.4,3.1c0.5,0.1,0.9,0.3,1.4,0.4
					c0.4-1.6,0.7-3.1,1.1-4.7c-0.5-0.1-0.9-0.3-1.4-0.4c0-1.8,0.9-3.8,1.5-5.5c-0.5-0.1-1-0.3-1.4-0.4c-0.5,2.4-0.7,4.6-0.6,7
					c0.5,0,1,0,1.5,0c-0.1-3.6,0-7,1.8-10.3c-0.5-0.1-0.9-0.3-1.4-0.4c0,3.6-0.3,7-0.9,10.5c0.5,0.1,1,0.3,1.4,0.4
					c0.6-3.9,1.2-7.8,1.9-11.7C-32.8,1.4-34.3,1-34.5,1.9L-34.5,1.9z"/>
			</g>
		</g>
		<g id="XMLID_153_">
			<g id="XMLID_282_">
				<path id="XMLID_286_" class="st8" d="M-30.8-17.8c0.1-0.2,0.3-0.4,0.4-0.6c-0.5-0.2-0.9-0.4-1.4-0.6c-0.9,6.1-3.8,11.6-4.8,17.6
					c-0.1,0.5,0.2,0.9,0.7,0.9c2.9,0,3.9-2.1,4.5-4.7c0.2-0.9-1.1-1.3-1.4-0.4c-0.1,0.2-0.1,0.4-0.2,0.5c-0.3,0.9,1.2,1.3,1.4,0.4
					c0.1-0.2,0.1-0.4,0.2-0.5c-0.5-0.1-1-0.3-1.4-0.4C-33-3.9-34-2.7-35.9-2c0.2,0.3,0.5,0.6,0.7,0.9c1-6,3.9-11.5,4.8-17.6
					c0.1-0.8-0.9-1.4-1.4-0.6c-0.1,0.2-0.3,0.4-0.4,0.6C-32.6-17.7-31.3-17-30.8-17.8L-30.8-17.8z"/>
			</g>
		</g>
		<g id="XMLID_168_">
			<g id="XMLID_275_">
				<path id="XMLID_279_" class="st8" d="M-32.3-19.7L-32.3-19.7c-1-0.2-1.4,1.3-0.5,1.4h0.1C-31.8-18.1-31.4-19.5-32.3-19.7
					L-32.3-19.7z"/>
			</g>
		</g>
		<g id="XMLID_189_">
			<g id="XMLID_268_">
				<path id="XMLID_272_" class="st8" d="M-32.5-20c-0.1-0.1-0.3-0.2-0.4-0.3c-0.3-0.2-0.8,0-1,0.3c-0.2,0.4-0.1,0.8,0.3,1
					c0.1,0.1,0.3,0.2,0.4,0.3c0.3,0.2,0.8,0,1-0.3C-32-19.3-32.2-19.7-32.5-20L-32.5-20z"/>
			</g>
		</g>
		<g id="XMLID_224_">
			<g id="XMLID_261_">
				<path id="XMLID_265_" class="st8" d="M-27.9-23.2c-0.2,1.2-0.4,2.4-0.6,3.6c-0.1,0.9,1.3,1.4,1.4,0.4c0.2-1.2,0.4-2.4,0.6-3.6
					C-26.3-23.7-27.7-24.1-27.9-23.2L-27.9-23.2z"/>
			</g>
		</g>
		<g id="XMLID_231_">
			<g id="XMLID_257_">
				<path id="XMLID_308_" class="st8" d="M-32.6-24.1c-0.2,1.2-0.5,2.5-0.8,3.7c-0.2,0.9,1.2,1.3,1.4,0.4c0.3-1.2,0.6-2.4,0.8-3.7
					C-31-24.7-32.4-25.1-32.6-24.1L-32.6-24.1z"/>
			</g>
		</g>
		<g id="XMLID_238_">
			<g id="XMLID_328_">
				<path id="XMLID_398_" class="st8" d="M-26.9-22.5c5.8-0.4,10.3-7.6,11.1-12.9c0.8-5.5-2.6-14.2-8.3-15.9
					c-5.9-1.8-11.9,3-14.1,8.2c-1.3,3.2-1.5,6.7-0.6,10c0.5,1.6,1.2,3.2,2.3,4.6c1.1,1.5,3.6,2.9,3.9,4.8c0.2,0.9,1.6,0.5,1.4-0.4
					c-0.6-3.4-4.7-5.1-6-8.7c-2.2-6.2,0.7-14.1,7.1-16.5c7.7-2.9,12.7,5.6,12.7,12.3c0,4.9-4,12.7-9.5,13
					C-27.9-24-27.9-22.5-26.9-22.5L-26.9-22.5z"/>
			</g>
		</g>
		<g id="XMLID_364_">
			<g id="XMLID_478_">
				<path id="XMLID_482_" class="st8" d="M8.2-37c0.7,1,1.2,2.1,1.4,3.3c0.2,0.9,1.6,0.5,1.4-0.4c-0.3-1.3-0.8-2.6-1.6-3.7
					C8.9-38.6,7.6-37.8,8.2-37L8.2-37z"/>
			</g>
		</g>
		<g id="XMLID_371_">
			<g id="XMLID_467_">
				<path id="XMLID_473_" class="st8" d="M10.1-34.1c-5.5,1.8-11,3.7-16.4,5.5c-0.9,0.3-0.5,1.8,0.4,1.4c5.5-1.8,11-3.7,16.4-5.5
					C11.4-32.9,11.1-34.4,10.1-34.1L10.1-34.1z"/>
			</g>
		</g>
		<g id="XMLID_378_">
			<g id="XMLID_459_">
				<path id="XMLID_465_" class="st8" d="M8.1-38.1c-6.4,3.1-13.3,3.8-19.6,7c-0.9,0.4-0.1,1.7,0.8,1.3c6.3-3.2,13.3-3.9,19.6-7
					C9.7-37.2,8.9-38.5,8.1-38.1L8.1-38.1z"/>
			</g>
		</g>
		<g id="XMLID_385_">
			<g id="XMLID_451_">
				<path id="XMLID_457_" class="st8" d="M-7.6-28.6c-1-0.5-2.1-1-3.2-1.4c-0.9-0.3-1.3,1.1-0.4,1.4c1,0.4,1.9,0.8,2.9,1.2
					C-7.5-26.9-6.8-28.2-7.6-28.6L-7.6-28.6z"/>
			</g>
		</g>
		<g id="XMLID_392_">
			<g id="XMLID_444_">
				<path id="XMLID_449_" class="st8" d="M-7.8-27.4c-1-0.3-2-0.7-3-1.1c-0.9-0.4-1.6,0.9-0.8,1.3c1.1,0.5,2.2,0.9,3.4,1.3
					C-7.3-25.7-6.9-27.1-7.8-27.4L-7.8-27.4z"/>
			</g>
		</g>
		<g id="XMLID_399_">
			<g id="XMLID_438_">
				<path id="XMLID_442_" class="st8" d="M-8.6-25.9c-0.9-0.4-1.8-0.8-2.6-1.2c-0.9-0.4-1.6,0.9-0.8,1.3c1,0.5,2,0.9,3,1.3
					c0.4,0.2,0.8-0.2,0.9-0.5C-7.9-25.4-8.2-25.8-8.6-25.9L-8.6-25.9z"/>
			</g>
		</g>
		<g id="XMLID_225_">
			<g id="XMLID_431_">
				<path id="XMLID_436_" class="st8" d="M-7.6-27.3c-3.4,13.5-4.8,27.4-8.9,40.7c-0.3,0.9,1.2,1.3,1.4,0.4
					C-11,0.5-9.6-13.4-6.2-26.9C-5.9-27.8-7.4-28.2-7.6-27.3L-7.6-27.3z"/>
			</g>
		</g>
		<g id="XMLID_232_">
			<g id="XMLID_424_">
				<path id="XMLID_429_" class="st8" d="M-11.9-29.1c-2.8,13.6-5.6,27.3-8.3,40.9c-0.2,0.9,1.3,1.3,1.4,0.4
					c2.8-13.6,5.5-27.3,8.3-40.9C-10.2-29.6-11.7-30-11.9-29.1L-11.9-29.1z"/>
			</g>
		</g>
		<g id="XMLID_420_">
			<g id="XMLID_422_">
				<path id="XMLID_474_" class="st8" d="M-16.3,12.1c-1.1,0-2.1-0.3-3-1c-0.7-0.6-1.8,0.4-1.1,1.1c1.1,1,2.5,1.6,4,1.5
					C-15.3,13.6-15.3,12.1-16.3,12.1L-16.3,12.1z"/>
			</g>
		</g>
		<g id="XMLID_294_">
			<g id="XMLID_469_">
				<path id="XMLID_477_" class="st8" d="M-45.6-16.9c-1.6,0.4-3.1,0.7-4.7,0.8c-1,0.1-1,1.6,0,1.5c1.7-0.2,3.4-0.4,5.1-0.9
					C-44.3-15.7-44.7-17.1-45.6-16.9L-45.6-16.9z"/>
			</g>
		</g>
		<g id="XMLID_288_">
			<g id="XMLID_448_">
				<path id="XMLID_462_" class="st8" d="M-45.3-15.2c0.9,0,3.3,18.7,3.7,20.6c0.5,3.2,1,6.4,1.5,9.6c0.4,2.4,0.2,6.2,1.5,8.3
					c0.3,0.5,1,0.4,1.3,0l0.1-0.1c0.2-0.2,0.1-0.7-0.1-0.9l-0.1-0.1c-0.7-0.6-1.8,0.5-1.1,1.1c0-0.2-0.1-0.5-0.1-0.7
					c0.4,0,0.9,0,1.3,0c-1.4-2.1-1.2-7.4-1.6-9.8c-0.5-3.2-1-6.4-1.6-9.6c-1.1-6.4-2.2-12.8-3.4-19.2c-0.1-0.3-0.4-0.5-0.7-0.6
					c-0.2,0-0.4,0-0.7,0C-46.2-16.7-46.2-15.2-45.3-15.2L-45.3-15.2z"/>
			</g>
		</g>
		<g id="XMLID_287_">
			<g id="XMLID_417_">
				<path id="XMLID_434_" class="st8" d="M-50.3-14.8c-0.7,1.1-0.8,2.3-0.3,3.4c0.2,0.9,0.5,1.8,0.7,2.7c0.4,1.5,0.7,3.1,1.1,4.6
					C-48-0.7-47.3,2.7-46.6,6c1.3,6,2.3,12.3,4.9,17.9c0.1,0.3,0.5,0.4,0.8,0.3c1.2-0.1,2.4-0.3,3.5-0.8c0.4-0.1,0.6-0.5,0.5-0.9
					c-0.8-3.3-1.6-6.7-2.4-10c-0.2-1-1.7-0.6-1.4,0.4c0.5,2.2,1.4,4.5,1.6,6.7c0.2,2,0.2,5.5-2.5,0.6c-1.9-3.4-2.3-8.9-3.1-12.7
					c-1-4.3-1.8-8.6-2.8-12.9c-0.7-2.8-0.9-7.3-2.7-9.6c-0.3-0.4-0.8-0.5-1.2-0.2l-0.1,0.1c-0.2,0.2-0.3,0.6-0.1,0.9l0.1,0.1
					C-51.1-13.3-49.8-14-50.3-14.8L-50.3-14.8z"/>
			</g>
		</g>
		<g id="XMLID_280_">
			<g id="XMLID_409_">
				<path id="XMLID_415_" class="st8" d="M-43.7,6.4c0.7,3.9,1.5,7.7,2.4,11.6c0.2,0.9,1.6,0.5,1.4-0.4c-0.7-3.5-1.7-7-3-10.3
					c-0.3-0.8-1.4-0.6-1.5,0.2c-0.5,4,0.6,7.2,2.1,10.8c0.4,0.9,1.8,0.5,1.4-0.4c-0.9-2.2-1.5-4.3-1.9-6.6c-0.1-0.8-1.5-0.6-1.5,0.2
					c0.2,3.1-0.2,8.2,3,9.8c0.5,0.3,1.1-0.1,1.1-0.6c0.1-1.5-0.1-2.6-0.6-4c-0.3-0.8-1.4-0.7-1.5,0.2c-0.1,2,0.1,3.4,0.7,5.3
					c0.2,0.6,1.3,0.8,1.4,0c0.4-2.3,0.4-1.5,0.2-3.8c-0.5,0.1-1,0.1-1.5,0.2c0.2,0.9,0.4,1.9,0.6,2.8c0.2,0.8,1.4,0.6,1.5-0.2
					c0.1-3.7-1-7.2-1.6-10.8c-0.7-4.2-1.1-8.4-2-12.5c-0.7-3.3-1.6-6.6-3.1-9.7c-1.3-2.8,0.3,1.6,0.5,2.4c0.5,2.4,0.9,4.9,1.3,7.3
					c0.5-0.1,1-0.3,1.4-0.4c-1.1-3-1.5-11.4-5.8-12.2c-3.5-0.7-2,3.3-1.9,5.1c0.5-0.1,1-0.1,1.5-0.2c-0.2-1.1-0.3-2.1-0.5-3.2
					c-0.5,0.2-0.9,0.4-1.4,0.6c2.3,3.2,2.6,8.2,3.6,12c0.9,3.4,2,6.5,3.6,9.6c0.4,0.7,1.6,0.2,1.4-0.6c-1.2-3.4-2.3-6.8-3.2-10.2
					c-0.7-2.6-3.2-10.2-0.7-12.3c-0.4-0.2-0.9-0.4-1.3-0.5c0.1,2.2,0.1,4.4-0.2,6.6c0.5-0.1,1-0.1,1.5-0.2c-0.6-1.7-1.3-3.3-1.9-5
					c-0.3-0.9-1.6-0.6-1.4,0.4c1.4,6.6,1.9,14.5,4.5,20.7c0.3,0.7,1.4,0.3,1.4-0.4c0.1-6-0.8-11.7-2.7-17.4
					c-0.3-0.9-1.7-0.5-1.4,0.4c2.5,10.6,4.8,21.3,7.1,32c0.2,0.9,1.6,0.5,1.4-0.4c-2.3-10.7-4.6-21.3-7.1-32c-0.5,0.1-1,0.3-1.4,0.4
					c1.9,5.5,2.8,11.1,2.7,17c0.5-0.1,0.9-0.3,1.4-0.4c-2.6-6-3.1-13.9-4.4-20.4c-0.5,0.1-1,0.3-1.4,0.4c0.6,1.7,1.3,3.3,1.9,5
					c0.3,0.8,1.4,0.7,1.5-0.2c0.2-2.2,0.3-4.3,0.2-6.6c0-0.7-0.8-0.9-1.3-0.5c-2.1,1.8-1.2,5.2-0.9,7.6c0.8,5.6,2.6,11,4.4,16.4
					c0.5-0.2,0.9-0.4,1.4-0.6c-2.1-4-3.2-8.2-4.3-12.6c-0.7-3-1.1-6.5-2.9-9.1c-0.5-0.7-1.5-0.3-1.4,0.6c0.2,1.1,0.3,2.1,0.5,3.2
					c0.1,0.8,1.5,0.6,1.5-0.2c0-0.3-0.2-1.1-0.1-1.4c1.5-2.9,2.4,0,3.1,2.1c0.7,2.2,1,4.5,1.8,6.7c0.3,0.9,1.6,0.6,1.4-0.4
					c-0.7-4.3-1.5-8.5-2.4-12.7c-0.1-0.3-0.4-0.5-0.7-0.6c-5.2-0.3,0.2,8.4,0.6,10c1.1,3.8,1.6,7.7,2.2,11.5
					c0.7,5,2.4,10.4,2.3,15.5c0.5-0.1,1-0.1,1.5-0.2c-0.2-0.9-0.4-1.9-0.6-2.8c-0.2-0.8-1.5-0.7-1.5,0.2c-0.1,1.1-0.1,2.3-0.2,3.4
					c0.5,0,1,0,1.4,0c-0.7-1.6-0.9-3.2-0.7-4.9c-0.5,0.1-1,0.1-1.5,0.2c0.6,1.1,0.7,2.3,0.5,3.6c0.4-0.2,0.8-0.4,1.1-0.6
					c-2.6-1.3-2.1-6.1-2.2-8.5c-0.5,0.1-1,0.1-1.5,0.2c0.4,2.3,1,4.4,1.9,6.6c0.5-0.1,1-0.3,1.4-0.4c-1.4-3.4-2.5-6.7-2-10.4
					c-0.5,0.1-1,0.1-1.5,0.2c1.3,3.4,2.3,6.8,3,10.3c0.5-0.1,1-0.3,1.4-0.4c-0.9-3.8-1.7-7.7-2.4-11.6C-42.4,5.1-43.8,5.5-43.7,6.4
					L-43.7,6.4z"/>
			</g>
		</g>
		<g id="XMLID_273_">
			<g id="XMLID_401_">
				<path id="XMLID_405_" class="st8" d="M-47.4-13.4c0-0.2,0.1-0.5,0.1-0.7c-0.5,0-1,0-1.4,0C-47.4-8.1-48-2-46.8,4
					c0.1,0.4,0.6,0.6,0.9,0.5c2.9-0.9,3-3.6,2.6-6.2c-0.1-0.8-1.5-0.6-1.5,0.2c0,0.2,0,0.4,0,0.6c0.1,1,1.6,1,1.5,0
					c0-0.2,0-0.4,0-0.6c-0.5,0.1-1,0.1-1.5,0.2c0.6,1.7,0.1,3.2-1.5,4.3c0.3,0.2,0.6,0.3,0.9,0.5c-1.2-6-0.6-12.2-1.9-18.1
					c-0.2-0.7-1.3-0.7-1.4,0c0,0.2-0.1,0.5-0.1,0.7C-49-12.8-47.6-12.4-47.4-13.4L-47.4-13.4z"/>
			</g>
		</g>
		<g id="XMLID_266_">
			<g id="XMLID_391_">
				<path id="XMLID_397_" class="st8" d="M-49.7-14.7L-49.7-14.7c-1,0.2-0.6,1.6,0.3,1.4h0.1C-48.3-13.4-48.7-14.8-49.7-14.7
					L-49.7-14.7z"/>
			</g>
		</g>
		<g id="XMLID_259_">
			<g id="XMLID_383_">
				<path id="XMLID_389_" class="st8" d="M-49.7-14.8c-0.2-0.1-0.4-0.1-0.5-0.2c-0.9-0.3-1.3,1.2-0.4,1.4c0.2,0.1,0.4,0.1,0.5,0.2
					C-49.2-13.1-48.8-14.6-49.7-14.8L-49.7-14.8z"/>
			</g>
		</g>
		<g id="XMLID_252_">
			<g id="XMLID_375_">
				<path id="XMLID_381_" class="st8" d="M-46.6-19.4c0.3,1.2,0.5,2.4,0.8,3.6c0.2,0.9,1.7,0.5,1.4-0.4c-0.3-1.2-0.5-2.4-0.8-3.6
					C-45.4-20.7-46.8-20.3-46.6-19.4L-46.6-19.4z"/>
			</g>
		</g>
		<g id="XMLID_245_">
			<g id="XMLID_368_">
				<path id="XMLID_373_" class="st8" d="M-51.4-18.6c0.2,1.2,0.4,2.3,0.6,3.5c0.1,0.9,1.6,1,1.5,0c-0.1-1.3-0.4-2.6-0.6-3.9
					C-50.1-19.9-51.6-19.5-51.4-18.6L-51.4-18.6z"/>
			</g>
		</g>
		<g id="XMLID_295_">
			<g id="XMLID_361_">
				<path id="XMLID_366_" class="st8" d="M-43.5-40.6c0-0.2-0.1-0.4-0.1-0.7c-0.2-0.9-1.6-0.5-1.4,0.4c0.8,4.6,4.1,14.3,0.4,18.2
					c-1.2,1.3-3,1.4-2,3.6c0.4,0.9,1.8,0.5,1.4-0.4c-0.4-0.9,2.4-2.4,3-3.4c0.8-1.2,0.6-2.6,0.6-4c-0.2-4.9-1.1-9.7-2-14.5
					c-0.5,0.1-1,0.3-1.4,0.4c0,0.2,0.1,0.4,0.1,0.7C-44.7-39.2-43.3-39.6-43.5-40.6L-43.5-40.6z"/>
			</g>
		</g>
		<g id="XMLID_301_">
			<g id="XMLID_355_">
				<path id="XMLID_359_" class="st8" d="M-44-41.6c-0.5-1.4-0.9-2.8-1.4-4.2c-0.1-0.3-0.4-0.6-0.7-0.6c-0.8,0.1-1,0.1-1.6,0.3
					c-0.3,0.1-0.5,0.4-0.6,0.7c-0.2,2,0.7,4.7,1.1,6.7c0.3,1.4,2.3,8.3,0.3,8.5c-1,0.1-1,1.6,0,1.5c3.2-0.2,2.8-1.5,2.3-4.3
					c-0.4-2.4-0.9-4.8-1.3-7.2c-0.1-0.7-0.9-2.9-0.7-3.6c0.1-0.9,0.3-0.7,0.5,0.5c0.2,0.7,0.5,1.4,0.7,2.1
					C-45.1-40.3-43.7-40.7-44-41.6L-44-41.6z"/>
			</g>
		</g>
		<g id="XMLID_302_">
			<g id="XMLID_348_">
				<path id="XMLID_353_" class="st8" d="M-51.9-44.5c1.2,4.1,1.6,8.3,2.4,12.4c0.2,1.2,0.4,4,2.2,3.7c1-0.1,0.5-1.6-0.4-1.4
					c0.6-0.1-2.5-14.2-2.7-15.1C-50.8-45.9-52.2-45.5-51.9-44.5L-51.9-44.5z"/>
			</g>
		</g>
		<g id="XMLID_303_">
			<g id="XMLID_342_">
				<path id="XMLID_346_" class="st8" d="M-52.2-45.4c-3.3,0.8-2.9,1.2-2.2,4.6c0.9,4.1,1.5,8.2,3.3,12c0.4,0.9,1.7,0.1,1.3-0.8
					c-1.2-2.5-1.8-5.1-2.4-7.9c-0.4-2-2.3-5.9,0.3-6.5C-50.9-44.1-51.3-45.6-52.2-45.4L-52.2-45.4z"/>
			</g>
		</g>
		<g id="XMLID_304_">
			<g id="XMLID_335_">
				<path id="XMLID_339_" class="st8" d="M-50.9-30c-0.9,0.3-1.7,0.5-2.7,0.6s-1,1.6,0,1.5s2.1-0.3,3.1-0.7
					C-49.6-28.8-50-30.3-50.9-30L-50.9-30z"/>
			</g>
		</g>
		<g id="XMLID_305_">
			<g id="XMLID_327_">
				<path id="XMLID_332_" class="st8" d="M-58-43.1c1.1,4,1.5,7.9,2.3,12c0.2,1.1,0.8,3.1,2.3,3c0.6-0.1,0.9-0.6,0.6-1.1v-0.1
					c-0.2-0.4-0.7-0.4-1-0.3c0,0,0,0-0.1,0c-0.9,0.4-0.1,1.7,0.8,1.3c0,0,0,0,0.1,0c-0.3-0.1-0.7-0.2-1-0.3v0.1
					c0.2-0.4,0.4-0.8,0.6-1.1c-0.6,0.1-2.8-12.8-3.1-13.8C-56.8-44.4-58.3-44-58-43.1L-58-43.1z"/>
			</g>
		</g>
		<g id="XMLID_340_">
			<g id="XMLID_315_">
				<path id="XMLID_319_" class="st8" d="M-57.4-43.8c-0.9,0.2-1.9,0.3-2.8,0.5c-0.9,0.2-0.5,1.6,0.4,1.4c0.9-0.2,1.9-0.3,2.8-0.5
					C-56-42.6-56.4-44-57.4-43.8L-57.4-43.8z"/>
			</g>
		</g>
		<g id="XMLID_352_">
			<g id="XMLID_313_">
				<path id="XMLID_443_" class="st8" d="M-60.8-42.2c1.5,6.8,2,20.7,9.9,23.7c0.9,0.3,1.3-1.1,0.4-1.4c-6.9-2.6-7.5-16.6-8.9-22.6
					C-59.6-43.5-61-43.1-60.8-42.2L-60.8-42.2z"/>
			</g>
		</g>
	</g>
</g>
</svg>
