<?xml version="1.0" encoding="utf-8"?>
<!-- Generator: Adobe Illustrator 19.0.0, SVG Export Plug-In . SVG Version: 6.00 Build 0)  -->
<svg version="1.1" xmlns="http://www.w3.org/2000/svg" xmlns:xlink="http://www.w3.org/1999/xlink" x="0px" y="0px"
	 viewBox="0 0 95.7 85.9" style="enable-background:new 0 0 95.7 85.9;" xml:space="preserve">
<style type="text/css">
	.st0{fill:none;stroke:#000000;stroke-miterlimit:10;}
	.st1{fill:#EF6E6C;}
	.st2{fill:#D6C9C9;}
	.st3{fill:#30102E;}
	.st4{fill:#581B56;}
	.st5{fill:#7CB2D9;}
	.st6{fill:#7FB686;}
	.st7{fill:#98D09A;}
	.st8{fill:#DDAE7E;}
</style>
<g id="spoon">
	<g id="XMLID_1_">
		<g id="XMLID_13_">
			<path id="XMLID_17_" class="st0" d="M-18.3,83.3"/>
		</g>
	</g>
	<g id="XMLID_5_">
		<g id="XMLID_23_">
			<path id="XMLID_27_" class="st1" d="M-16.3,90c-0.2,0-0.4,0-0.7,0c-1-0.1-0.9,1.4,0,1.5c3.3,0.4,6.6,0.9,9.9,1.3
				c1,0.1,0.9-1.4,0-1.5c-3.3-0.4-6.6-0.9-9.9-1.3c0,0.5,0,1,0,1.5c0.2,0,0.4,0,0.7,0C-15.3,91.5-15.3,90-16.3,90L-16.3,90z"/>
		</g>
	</g>
	<g id="XMLID_6_">
		<g id="XMLID_30_">
			<path id="XMLID_34_" class="st1" d="M-8.2,92.6c0,0.2,0.1,0.4,0.1,0.6c0.2-0.2,0.5-0.5,0.7-0.8c-1.3,0.1-2.6,0.3-3.9,0.6
				c-0.6,0.1-0.7,1.1-0.2,1.4c1,0.5,2,1.1,2.8,1.9c0-0.4,0-0.7,0-1.1c-1,1.1-1.9,0.6-2.4,2c-0.1,0.2,0,0.6,0.2,0.7
				c1.2,1.2-0.8,0.8-1.2,1.9c-0.4,1,1.9,3.5,1.3,3.8c-0.5,0.3-0.5,1,0,1.3c2,1.1-0.8,1.9-1.1,2.7c-0.5,1.2,0.7,2.1,1.1,3.1
				c0.4,0.9,1.8,0.5,1.4-0.4c-0.5-1.1-1-1.5-0.3-2.4c0.3-0.4,1.1-0.4,1.4-0.9c0.9-1.5-0.6-2.7-1.8-3.4c0,0.4,0,0.9,0,1.3
				c1-0.5,1.6-1.3,1.3-2.5c-0.1-0.5-0.6-0.8-0.7-1.2c-0.5-1.8-0.3-0.1,0.3-1.2c0.5-1.1,0.6-0.6,0.9-1.8c0.1-0.3-0.8-0.7-0.7-0.8
				c-0.1,0.3,1.6-1.2,1.5-1.1c0.2-0.3,0.3-0.8,0-1.1c-1-0.8-2-1.5-3.2-2.1c-0.1,0.5-0.1,0.9-0.2,1.4c1.1-0.2,2.3-0.4,3.5-0.5
				c0.4,0,0.7-0.3,0.8-0.8c0.1-0.7,0-0.8-0.3-1.3C-7.4,91-8.7,91.8-8.2,92.6L-8.2,92.6z"/>
		</g>
	</g>
	<g id="XMLID_7_">
		<g id="XMLID_37_">
			<path id="XMLID_41_" class="st1" d="M-10.8,110.2c-3-0.1-6-0.3-9-0.7c-1-0.1-0.9,1.4,0,1.5c3,0.4,6,0.6,9,0.7
				C-9.8,111.8-9.8,110.3-10.8,110.2L-10.8,110.2z"/>
		</g>
	</g>
	<g id="XMLID_9_">
		<g id="XMLID_44_">
			<path id="XMLID_48_" class="st1" d="M-18.2,88.6c-1.8,5.3-2.5,10.8-3,16.4c-0.6,6.1-2.2,12-2.9,18.1c-0.8,6.2-0.9,12.3-1.9,18.4
				c-1,6-1.9,11.9-1.9,18.1c0,1,1.5,1,1.5,0c-0.1-6.6,1.1-13,2.1-19.4c0.8-5.2,1-10.3,1.5-15.5c0.5-5.4,2.2-10.7,2.7-16.1
				c0.7-6.6,1.2-13.2,3.3-19.5C-16.5,88-17.9,87.6-18.2,88.6L-18.2,88.6z"/>
		</g>
	</g>
	<g id="XMLID_10_">
		<g id="XMLID_51_">
			<path id="XMLID_55_" class="st1" d="M-17.5,88.4c0.1-0.8-0.6-1.3-1.3-1.5c-1.2-0.3-2.4-0.4-3.6-0.6c-0.9-0.2-1.3,1.3-0.4,1.4
				c0.7,0.1,1.5,0.3,2.2,0.4c0.3,0.1,0.6,0.1,1,0.2c0.2,0,0.3,0.1,0.5,0.1c0.2,0.1,0.2,0.1,0.1,0C-19.1,89.3-17.6,89.3-17.5,88.4
				L-17.5,88.4z"/>
		</g>
	</g>
	<g id="XMLID_11_">
		<g id="XMLID_58_">
			<path id="XMLID_62_" class="st1" d="M-23.3,86.8c-1.5,2.4-1.8,4.8-2,7.6c-0.3,4.7-1.5,9-2.2,13.7c-1.1,7.3-2.4,14.5-2.5,21.9
				c-0.1,8.5-3.1,16.8-3.8,25.2c-0.4,4.3,2.4,5.4,6.5,5.1c1-0.1,1-1.6,0-1.5c-1.4,0.5-2.5,0.1-3.4-1.1c-1.6-0.4-2.1-1.3-1.5-2.6
				c-0.2-1.4,0.6-3.4,0.8-4.9c0.5-3,1-5.9,1.5-8.9c1-6,0.8-11.8,1.6-17.8c0.3-2.6,1.3-5.1,1.7-7.7c0.5-3.4,0.4-6.7,1.1-10
				c0.5-2.5,1.2-4.9,1.5-7.4c0.4-3.8-0.1-7.4,2-10.8C-21.5,86.8-22.8,86-23.3,86.8L-23.3,86.8z"/>
		</g>
	</g>
	<g id="XMLID_12_">
		<g id="XMLID_65_">
			<path id="XMLID_69_" class="st1" d="M-14.7,94.5c-0.1-0.1-0.1-0.1-0.2-0.2c-0.7-0.7-1.7,0.4-1.1,1.1c0.1,0.1,0.1,0.1,0.2,0.2
				C-15.1,96.3-14,95.2-14.7,94.5L-14.7,94.5z"/>
		</g>
	</g>
	<g id="XMLID_19_">
		<g id="XMLID_72_">
			<path id="XMLID_76_" class="st1" d="M-15.4,95.5c1,0,1-1.5,0-1.5C-16.4,94-16.4,95.5-15.4,95.5L-15.4,95.5z"/>
		</g>
	</g>
	<g id="XMLID_21_">
		<g id="XMLID_79_">
			<path id="XMLID_83_" class="st1" d="M-14.4,93.6c-1.4,0-2.8,0-4.2,0c-1,0-1,1.5,0,1.5c1.4,0,2.8,0,4.2,0
				C-13.5,95.1-13.5,93.6-14.4,93.6L-14.4,93.6z"/>
		</g>
	</g>
	<g id="XMLID_28_">
		<g id="XMLID_86_">
			<path id="XMLID_90_" class="st1" d="M-12.8,96.3c-1.7-0.2-3.3-0.2-5-0.1c-1,0.1-1,1.6,0,1.5c1.7-0.2,3.3-0.1,5,0.1
				C-11.8,97.9-11.8,96.4-12.8,96.3L-12.8,96.3z"/>
		</g>
	</g>
	<g id="XMLID_35_">
		<g id="XMLID_93_">
			<path id="XMLID_97_" class="st1" d="M-16.4,98.3c-1.1,0.1-2.2,0-3.3-0.1c-0.9-0.2-1.4,1.3-0.4,1.4c1.2,0.2,2.5,0.3,3.7,0.2
				C-15.5,99.7-15.5,98.2-16.4,98.3L-16.4,98.3z"/>
		</g>
	</g>
	<g id="XMLID_42_">
		<g id="XMLID_100_">
			<path id="XMLID_104_" class="st1" d="M-14.1,100.6c-1.9-0.1-3.8-0.1-5.7-0.2c-1,0-1,1.5,0,1.5c1.9,0.1,3.8,0.1,5.7,0.2
				C-13.1,102.2-13.1,100.7-14.1,100.6L-14.1,100.6z"/>
		</g>
	</g>
	<g id="XMLID_49_">
		<g id="XMLID_107_">
			<path id="XMLID_111_" class="st1" d="M-14.6,102.8c-1.7,0.2-3.4,0.2-5.2,0.2c-1,0-1,1.5,0,1.5c1.7,0.1,3.4,0,5.2-0.2
				C-13.6,104.2-13.6,102.7-14.6,102.8L-14.6,102.8z"/>
		</g>
	</g>
	<g id="XMLID_56_">
		<g id="XMLID_114_">
			<path id="XMLID_118_" class="st1" d="M-16.3,105.5c-1.3,0-2.7,0-4,0c-1,0-1,1.5,0,1.5c1.3,0,2.7,0,4,0
				C-15.3,107-15.3,105.5-16.3,105.5L-16.3,105.5z"/>
		</g>
	</g>
	<g id="XMLID_63_">
		<g id="XMLID_121_">
			<path id="XMLID_125_" class="st1" d="M-14.6,107.6c-2.1,0-4.1,0-6.2,0c-1,0-1,1.5,0,1.5c2.1,0,4.1,0,6.2,0
				C-13.6,109.1-13.6,107.6-14.6,107.6L-14.6,107.6z"/>
		</g>
	</g>
</g>
<g id="toilet_tissues">
	<g id="XMLID_113_">
		<g id="XMLID_919_">
			<path id="XMLID_923_" class="st2" d="M-109.3,187.5c3.3,0.1,6.4,0.9,9.5,2c1.7,0.6,3.4,1.3,5,2.1c1.1,0.5,2.1,1.2,3,2
				c0.2,1.8,0.5,3.6,0.7,5.4c-0.9,2.2-8.1,3.2-10.3,3.6c-3.5,0.6-7.1,0.8-10.7,0.7c-3.6-0.1-7.2-0.5-10.7-1.1
				c-1.1-0.2-2.6-0.2-3.6-0.7c-1.8,0-2.5-1.2-2.1-3.4c-1.5-1.9-1.4-3.2,0.3-4c1.9-2.4,6.6-3.9,9.4-4.9c3.5-1.2,7-1.8,10.7-2
				c1-0.1,1-1.6,0-1.5c-5,0.3-9.9,1.3-14.5,3.4c-3.2,1.4-8.6,3.8-9.5,7.7c-1.9,8.3,15.2,8,20,8.1c5.5,0.2,11.1-0.4,16.4-1.9
				c2.7-0.8,6.7-2.1,7.1-5.5c1-8-15.4-11.2-20.7-11.5C-110.3,186-110.3,187.5-109.3,187.5L-109.3,187.5z"/>
		</g>
	</g>
	<g id="XMLID_120_">
		<g id="XMLID_926_">
			<path id="XMLID_930_" class="st2" d="M-89.7,197.3c-0.3,17.7,0.4,35.3,2.2,52.8c0.1,1,1.6,1,1.5,0c-1.8-17.6-2.5-35.2-2.2-52.8
				C-88.2,196.4-89.7,196.4-89.7,197.3L-89.7,197.3z"/>
		</g>
	</g>
	<g id="XMLID_127_">
		<g id="XMLID_933_">
			<path id="XMLID_937_" class="st2" d="M-132.4,199.2c1.2,9,0.2,18.1,0.9,27.1c0.6,8.4,2.7,16.6,3.1,25c0.1,1,1.6,1,1.5,0
				c-0.4-8.4-2.5-16.6-3.1-25c-0.7-9,0.2-18.1-0.9-27.1C-131,198.2-132.5,198.2-132.4,199.2L-132.4,199.2z"/>
		</g>
	</g>
	<g id="XMLID_128_">
		<g id="XMLID_940_">
			<path id="XMLID_944_" class="st2" d="M-88.2,250.7c-1.2,2.6-7.4,3.6-9.9,4.1c-3.5,0.7-7,1-10.5,0.9c-7.1-0.2-14-2-20.4-5.1
				c-0.9-0.4-1.6,0.9-0.8,1.3c7.4,3.6,15.4,5.5,23.6,5.3c3.9-0.1,7.9-0.7,11.7-1.7c2.6-0.7,6.4-1.3,7.6-4
				C-86.5,250.6-87.8,249.8-88.2,250.7L-88.2,250.7z"/>
		</g>
	</g>
	<g id="XMLID_129_">
		<g id="XMLID_947_">
			<path id="XMLID_951_" class="st2" d="M-111.3,193.3c1.4,0,3.8,0,5,0.8c0.9,0.1,1,0.8,0.4,2c-0.3,0-0.6,0.1-0.9,0.1
				c-0.7,0.2-1.8,0.1-2.6,0.1c-0.8,0-3.8,0.3-4.3-0.3c-2.2-2.5,4-2.7,4.5-2.8c1-0.1,1-1.6,0-1.5c-2.1,0.1-7,0.4-7,3.5
				c0.1,3,4.8,2.6,6.7,2.6c1.7,0,6.9,0.3,6.5-2.8c-0.4-2.9-6.4-3.1-8.5-3.2C-112.3,191.7-112.3,193.2-111.3,193.3L-111.3,193.3z"/>
		</g>
	</g>
	<g id="XMLID_130_">
		<g id="XMLID_954_">
			<path id="XMLID_958_" class="st2" d="M-86.1,172.4c4.5-0.9,9.1-0.8,13.4,0.9c3,0.5,4.2,2.5,3.5,5.9c-1.5,0.7-3,1.2-4.6,1.3
				c-2.3,0.4-4.7,0.5-7.1,0.6c-1.9,0-3.8,0-5.8-0.1c-2-0.1-7,0.3-8.4-1.1c-0.7-2.1-1.4-4.1-2.1-6.2c1.5-0.6,3-1.1,4.5-1.5
				c2.9-0.7,5.8-0.7,8.7-0.5c1,0.1,1-1.4,0-1.5c-3.8-0.2-16.7-0.3-16.7,5.9c-0.1,7.8,16.4,6.5,20.7,6.3c3-0.1,16.8-0.7,13.7-6.8
				c-1.3-2.6-5.8-3.9-8.3-4.6c-4-1.1-8-1-12-0.2C-87.5,171.2-87.1,172.6-86.1,172.4L-86.1,172.4z"/>
		</g>
	</g>
	<g id="XMLID_741_">
		<g id="XMLID_961_">
			<path id="XMLID_965_" class="st2" d="M-82.5,176.1c0.7,0,3.6-0.1,2.8,1.1c-0.5,0.7-3.7,0.5-4.5,0.4c-0.7,0-1.7,0-2.3-0.3
				c-0.6-0.3-1.1-0.2-0.5-0.7C-86.3,175.8-83.6,176-82.5,176.1c1,0.1,1-1.4,0-1.5c-1.6-0.1-6.7-0.4-7,2.1c-0.3,2.3,4.2,2.4,5.6,2.4
				c1.6,0.1,5.9,0.1,6.3-2.1c0.4-2.3-3.5-2.5-4.9-2.5C-83.5,174.6-83.5,176.1-82.5,176.1L-82.5,176.1z"/>
		</g>
	</g>
	<g id="XMLID_755_">
		<g id="XMLID_968_">
			<path id="XMLID_972_" class="st2" d="M-66.9,178c-0.2,18.4-0.1,36.9,0.4,55.3c0,1,1.5,1,1.5,0c-0.5-18.4-0.6-36.9-0.4-55.3
				C-65.4,177-66.9,177-66.9,178L-66.9,178z"/>
		</g>
	</g>
	<g id="XMLID_917_">
		<g id="XMLID_975_">
			<path id="XMLID_979_" class="st2" d="M-65.8,232.9c-3,0.9-6,1.6-9,2.1c-3.2,0.5-9.3,1.8-12.2-0.2c-0.8-0.5-1.6,0.8-0.8,1.3
				c2.8,1.9,6.9,1.1,10.1,0.8c4.2-0.4,8.3-1.3,12.3-2.5C-64.5,234.1-64.9,232.6-65.8,232.9L-65.8,232.9z"/>
		</g>
	</g>
	<g id="XMLID_924_">
		<g id="XMLID_982_">
			<path id="XMLID_986_" class="st2" d="M-101,177.2c0.2,3.8,0.4,7.6,0.4,11.3c0,1,1.5,1,1.5,0c-0.1-3.8-0.2-7.6-0.4-11.3
				C-99.6,176.2-101.1,176.2-101,177.2L-101,177.2z"/>
		</g>
	</g>
	<g id="XMLID_931_">
		<g id="XMLID_989_">
			<path id="XMLID_993_" class="st2" d="M-91.6,213.3c-1.3,0.3-2.7,0.4-4.1,0.3c-0.5,0-0.5,0.7,0,0.8c1.4,0.1,2.9,0,4.3-0.3
				C-90.9,213.9-91.1,213.2-91.6,213.3L-91.6,213.3z"/>
		</g>
	</g>
	<g id="XMLID_938_">
		<g id="XMLID_996_">
			<path id="XMLID_1000_" class="st2" d="M-95,218.5c-0.8,0.1-1.6,0.1-2.3,0.2c-0.5,0-0.5,0.8,0,0.8c0.8-0.1,1.6-0.1,2.3-0.2
				C-94.5,219.2-94.5,218.4-95,218.5L-95,218.5z"/>
		</g>
	</g>
	<g id="XMLID_945_">
		<g id="XMLID_1003_">
			<path id="XMLID_1007_" class="st2" d="M-111.8,212.1c-0.8,0-1.6,0-2.3,0c-0.5,0-0.5,0.8,0,0.8c0.8,0,1.6,0,2.3,0
				C-111.4,212.9-111.3,212.1-111.8,212.1L-111.8,212.1z"/>
		</g>
	</g>
	<g id="XMLID_952_">
		<g id="XMLID_1010_">
			<path id="XMLID_1014_" class="st2" d="M-114.7,218.1c-0.5,0-1,0-1.5,0c-0.5,0-0.5,0.8,0,0.8c0.2,0,0.3,0,0.5,0
				c0.5,0,0.5-0.8,0-0.8c-0.2,0-0.3,0-0.5,0c0,0.2,0,0.5,0,0.8c0.5,0,1,0,1.5,0C-114.2,218.9-114.2,218.1-114.7,218.1L-114.7,218.1z
				"/>
		</g>
	</g>
	<g id="XMLID_959_">
		<g id="XMLID_1017_">
			<path id="XMLID_1021_" class="st2" d="M-117.3,230c-1.3,0.2-2.5,0.1-3.7-0.4c-0.4-0.2-0.8,0.5-0.4,0.6c1.4,0.6,2.8,0.8,4.3,0.5
				C-116.6,230.6-116.8,229.9-117.3,230L-117.3,230z"/>
		</g>
	</g>
	<g id="XMLID_966_">
		<g id="XMLID_1024_">
			<path id="XMLID_1028_" class="st2" d="M-125.6,220.6c-0.5-0.2-1.1-0.4-1.6-0.6c-0.4-0.1-0.7,0.5-0.3,0.7c0.2,0.1,0.3,0.2,0.5,0.3
				c0.4,0.2,0.8-0.4,0.4-0.6c-0.2-0.1-0.3-0.2-0.5-0.3c-0.1,0.2-0.2,0.5-0.3,0.7c0.5,0.2,1.1,0.4,1.6,0.6
				C-125.3,221.5-125.1,220.8-125.6,220.6L-125.6,220.6z"/>
		</g>
	</g>
	<g id="XMLID_973_">
		<g id="XMLID_1031_">
			<path id="XMLID_1035_" class="st2" d="M-121.7,207.6c-1-0.2-2-0.5-3-0.7c-0.5-0.1-0.7,0.6-0.2,0.7c1,0.2,2,0.5,3,0.7
				C-121.5,208.5-121.3,207.7-121.7,207.6L-121.7,207.6z"/>
		</g>
	</g>
	<g id="XMLID_980_">
		<g id="XMLID_1038_">
			<path id="XMLID_1042_" class="st2" d="M-99.8,208.8c-0.9,0.1-1.8,0.1-2.7,0.2c-0.5,0-0.5,0.8,0,0.8c0.9-0.1,1.8-0.1,2.7-0.2
				C-99.4,209.5-99.4,208.8-99.8,208.8L-99.8,208.8z"/>
		</g>
	</g>
	<g id="XMLID_987_">
		<g id="XMLID_1045_">
			<path id="XMLID_1049_" class="st2" d="M-103.8,224.8c-1.5,0.3-3,0.5-4.6,0.5c-0.5,0-0.5,0.8,0,0.8c1.6,0,3.2-0.2,4.8-0.5
				C-103.1,225.4-103.3,224.7-103.8,224.8L-103.8,224.8z"/>
		</g>
	</g>
	<g id="XMLID_994_">
		<g id="XMLID_1052_">
			<path id="XMLID_1056_" class="st2" d="M-92.5,229.3c-1.4,0.2-2.8,0.3-4.2,0.5c-0.5,0.1-0.5,0.8,0,0.8c1.4-0.2,2.8-0.3,4.2-0.5
				C-92,230-92,229.2-92.5,229.3L-92.5,229.3z"/>
		</g>
	</g>
	<g id="XMLID_1001_">
		<g id="XMLID_1059_">
			<path id="XMLID_1063_" class="st2" d="M-93,232.2c-0.7,0.4-1.5,0.5-2.3,0.5c-0.5,0-0.5,0.7,0,0.8c0.9,0.1,1.8-0.1,2.7-0.6
				C-92.2,232.6-92.6,232-93,232.2L-93,232.2z"/>
		</g>
	</g>
	<g id="XMLID_1008_">
		<g id="XMLID_1066_">
			<path id="XMLID_1070_" class="st2" d="M-102.3,239.3c-2,0.3-4,0.4-6.1,0.3c-0.5,0-0.5,0.7,0,0.8c2.1,0.1,4.2-0.1,6.3-0.3
				C-101.6,240-101.8,239.2-102.3,239.3L-102.3,239.3z"/>
		</g>
	</g>
	<g id="XMLID_1015_">
		<g id="XMLID_1073_">
			<path id="XMLID_1077_" class="st2" d="M-108.2,236.3c-0.9,0-1.8,0-2.7,0c-0.5,0-0.5,0.8,0,0.8c0.9,0,1.8,0,2.7,0
				C-107.7,237-107.7,236.3-108.2,236.3L-108.2,236.3z"/>
		</g>
	</g>
	<g id="XMLID_1022_">
		<g id="XMLID_1080_">
			<path id="XMLID_1084_" class="st2" d="M-122.7,238.2c-1,0-1.9-0.2-2.8-0.7c-0.4-0.2-0.8,0.4-0.4,0.6c1,0.5,2.1,0.7,3.2,0.8
				C-122.2,238.9-122.2,238.2-122.7,238.2L-122.7,238.2z"/>
		</g>
	</g>
	<g id="XMLID_1029_">
		<g id="XMLID_1087_">
			<path id="XMLID_1091_" class="st2" d="M-116.3,247c-1.2,0-2.3-0.2-3.4-0.5c-0.5-0.1-0.7,0.6-0.2,0.7c1.2,0.3,2.4,0.5,3.6,0.5
				C-115.9,247.7-115.9,247-116.3,247L-116.3,247z"/>
		</g>
	</g>
	<g id="XMLID_1036_">
		<g id="XMLID_1094_">
			<path id="XMLID_1098_" class="st2" d="M-110.3,252.8c-1.2,0.1-2.3,0.1-3.4-0.3c-0.5-0.1-0.7,0.6-0.2,0.7c1.2,0.3,2.4,0.4,3.6,0.3
				C-109.9,253.5-109.9,252.7-110.3,252.8L-110.3,252.8z"/>
		</g>
	</g>
	<g id="XMLID_1043_">
		<g id="XMLID_1101_">
			<path id="XMLID_1105_" class="st2" d="M-96.7,247c-0.8,0-1.6,0-2.3,0c-0.5,0-0.5,0.8,0,0.8c0.8,0,1.6,0,2.3,0
				C-96.2,247.7-96.2,247-96.7,247L-96.7,247z"/>
		</g>
	</g>
	<g id="XMLID_1050_">
		<g id="XMLID_1108_">
			<path id="XMLID_1112_" class="st2" d="M-88.7,240.5c-0.2,0-0.3,0-0.5,0c-0.5,0-0.5,0.8,0,0.8c0.2,0,0.3,0,0.5,0
				C-88.2,241.2-88.2,240.4-88.7,240.5L-88.7,240.5z"/>
		</g>
	</g>
	<g id="XMLID_1057_">
		<g id="XMLID_1115_">
			<path id="XMLID_1119_" class="st2" d="M-90.7,245.2c-0.3,0.2-0.7,0.3-1,0.5c-0.4,0.2-0.1,0.9,0.4,0.6c0.3-0.2,0.7-0.3,1-0.5
				C-89.9,245.6-90.3,245-90.7,245.2L-90.7,245.2z"/>
		</g>
	</g>
	<g id="XMLID_1064_">
		<g id="XMLID_1122_">
			<path id="XMLID_1126_" class="st2" d="M-77.8,199.1c-1.2,0.2-2.4,0.2-3.7,0.2c-0.5,0-0.5,0.7,0,0.8c1.2,0,2.4,0,3.7-0.2
				C-77.4,199.8-77.4,199.1-77.8,199.1L-77.8,199.1z"/>
		</g>
	</g>
	<g id="XMLID_1071_">
		<g id="XMLID_1129_">
			<path id="XMLID_1133_" class="st2" d="M-68.6,191.6c-1.1,0.4-2.2,0.7-3.4,0.8c-0.5,0.1-0.5,0.8,0,0.8c1.2-0.2,2.4-0.4,3.6-0.9
				C-68,192.2-68.1,191.5-68.6,191.6L-68.6,191.6z"/>
		</g>
	</g>
	<g id="XMLID_1078_">
		<g id="XMLID_1136_">
			<path id="XMLID_1140_" class="st2" d="M-73.4,189c-0.9,0.2-1.9,0.5-2.8,0.7c-0.5,0.1-0.3,0.8,0.2,0.7c0.9-0.2,1.9-0.5,2.8-0.7
				C-72.8,189.6-73,188.9-73.4,189L-73.4,189z"/>
		</g>
	</g>
	<g id="XMLID_1085_">
		<g id="XMLID_1143_">
			<path id="XMLID_1147_" class="st2" d="M-84.8,194c-0.2,0-0.4,0-0.7,0c-0.5,0-0.5,0.8,0,0.8c0.2,0,0.4,0,0.7,0
				C-84.4,194.7-84.3,194-84.8,194L-84.8,194z"/>
		</g>
	</g>
	<g id="XMLID_1092_">
		<g id="XMLID_1150_">
			<path id="XMLID_1154_" class="st2" d="M-84.5,190.5c-0.9,0.1-1.7,0-2.6-0.2c-0.5-0.1-0.7,0.6-0.2,0.7c0.9,0.2,1.8,0.2,2.8,0.2
				C-84,191.2-84,190.4-84.5,190.5L-84.5,190.5z"/>
		</g>
	</g>
	<g id="XMLID_1099_">
		<g id="XMLID_1157_">
			<path id="XMLID_1161_" class="st2" d="M-90,185.8c-1.1,0.1-2.2,0-3.2-0.3c-0.5-0.1-0.7,0.6-0.2,0.7c1.1,0.3,2.3,0.4,3.4,0.3
				C-89.5,186.5-89.5,185.8-90,185.8L-90,185.8z"/>
		</g>
	</g>
	<g id="XMLID_1106_">
		<g id="XMLID_1164_">
			<path id="XMLID_1168_" class="st2" d="M-71.8,184c-0.8,0.2-1.7,0.4-2.5,0.7c-0.5,0.1-0.3,0.8,0.2,0.7c0.8-0.2,1.7-0.4,2.5-0.7
				C-71.1,184.6-71.3,183.8-71.8,184L-71.8,184z"/>
		</g>
	</g>
	<g id="XMLID_1113_">
		<g id="XMLID_1171_">
			<path id="XMLID_1175_" class="st2" d="M-71.9,203.3c-1.2,0.5-2.4,0.7-3.6,0.6c-0.5,0-0.5,0.7,0,0.8c1.4,0.1,2.7-0.1,4-0.7
				C-71,203.8-71.4,203.1-71.9,203.3L-71.9,203.3z"/>
		</g>
	</g>
	<g id="XMLID_1120_">
		<g id="XMLID_1178_">
			<path id="XMLID_1182_" class="st2" d="M-77,211c-1.4,0.1-2.8,0.1-4.2,0.2c-0.5,0-0.5,0.8,0,0.8c1.4-0.1,2.8-0.1,4.2-0.2
				C-76.5,211.7-76.5,210.9-77,211L-77,211z"/>
		</g>
	</g>
	<g id="XMLID_1127_">
		<g id="XMLID_1185_">
			<path id="XMLID_1189_" class="st2" d="M-82,208c-0.2,0-0.4,0-0.7,0c-0.5,0-0.5,0.8,0,0.8c0.2,0,0.4,0,0.7,0
				C-81.5,208.7-81.5,208-82,208L-82,208z"/>
		</g>
	</g>
	<g id="XMLID_1134_">
		<g id="XMLID_1192_">
			<path id="XMLID_1196_" class="st2" d="M-81,219.1c-1.4,0-2.7-0.2-4.1-0.6c-0.5-0.2-0.7,0.6-0.2,0.7c1.4,0.5,2.8,0.7,4.3,0.7
				C-80.5,219.9-80.5,219.1-81,219.1L-81,219.1z"/>
		</g>
	</g>
	<g id="XMLID_1141_">
		<g id="XMLID_1199_">
			<path id="XMLID_1203_" class="st2" d="M-68.9,215.5c-0.2,0.1-0.4,0.1-0.7,0.2c-0.5,0.1-0.3,0.8,0.2,0.7c0.2-0.1,0.4-0.1,0.7-0.2
				C-68.3,216.1-68.5,215.4-68.9,215.5L-68.9,215.5z"/>
		</g>
	</g>
	<g id="XMLID_1148_">
		<g id="XMLID_1206_">
			<path id="XMLID_1210_" class="st2" d="M-74.5,218c-0.7,0.1-1.4,0.1-2.2,0.2c-0.5,0-0.5,0.8,0,0.8c0.7-0.1,1.4-0.1,2.2-0.2
				C-74,218.7-74,217.9-74.5,218L-74.5,218z"/>
		</g>
	</g>
	<g id="XMLID_1155_">
		<g id="XMLID_1213_">
			<path id="XMLID_1217_" class="st2" d="M-69.1,225.6c-1.4,0.5-2.9,0.8-4.4,1c-0.5,0.1-0.5,0.8,0,0.8c1.6-0.2,3.1-0.5,4.6-1
				C-68.4,226.2-68.6,225.5-69.1,225.6L-69.1,225.6z"/>
		</g>
	</g>
	<g id="XMLID_1162_">
		<g id="XMLID_1220_">
			<path id="XMLID_1224_" class="st2" d="M-79.5,231.2c-0.6,0.3-1.2,0.4-1.8,0.5c-0.5,0-0.5,0.8,0,0.8c0.8-0.1,1.5-0.2,2.2-0.6
				C-78.7,231.6-79.1,231-79.5,231.2L-79.5,231.2z"/>
		</g>
	</g>
	<g id="XMLID_1169_">
		<g id="XMLID_1227_">
			<path id="XMLID_1231_" class="st2" d="M-80.2,227.5c0.5,0,0.5-0.8,0-0.8C-80.6,226.8-80.7,227.5-80.2,227.5L-80.2,227.5z"/>
		</g>
	</g>
	<g id="XMLID_1176_">
		<g id="XMLID_1234_">
			<path id="XMLID_1238_" class="st2" d="M-85.2,228.7c-0.5,0.1-1.1,0-1.6-0.2c-0.5-0.2-0.6,0.6-0.2,0.7c0.6,0.2,1.2,0.3,1.8,0.2
				C-84.7,229.4-84.7,228.6-85.2,228.7L-85.2,228.7z"/>
		</g>
	</g>
</g>
<g id="straw">
</g>
<g id="food_wrap">
	<g id="XMLID_196_">
		<g id="XMLID_766_">
			<path id="XMLID_773_" class="st3" d="M79.5,25.4c-9.8-3.2-20.2-3.1-30.4-3.2c-10.3-0.1-20.5,0.5-30.3,3.7
				c-0.9,0.3-0.5,1.7,0.4,1.4c9.7-3.2,19.8-3.7,29.9-3.6c10,0.1,20.3,0,30,3.1C80,27.1,80.4,25.7,79.5,25.4L79.5,25.4z"/>
		</g>
	</g>
	<g id="XMLID_233_">
		<g id="XMLID_758_">
			<path id="XMLID_762_" class="st3" d="M79.2,26.6c1.5,5,3,10.1,4.5,15.1c0.2-0.3,0.3-0.6,0.5-0.9c-2.9,1.1-5.9,2.3-8.8,3.4
				c0.3,0.4,0.6,0.7,0.8,1.1c1.5-3.4,2.4-6.8,2.5-10.5c0-1-1.5-1-1.5,0c-0.1,3.5-0.9,6.6-2.3,9.8c-0.2,0.5,0.2,1.4,0.8,1.1
				c2.9-1.1,5.9-2.3,8.8-3.4c0.4-0.1,0.7-0.5,0.5-0.9c-1.5-5-3-10.1-4.5-15.1C80.3,25.3,78.9,25.7,79.2,26.6L79.2,26.6z"/>
		</g>
	</g>
	<g id="XMLID_234_">
		<g id="XMLID_750_">
			<path id="XMLID_754_" class="st3" d="M75.8,39.9c-1.6-0.1-3.2-0.2-4.8-0.4c-1-0.1-1,1.4,0,1.5c1.6,0.1,3.2,0.2,4.8,0.4
				C76.7,41.4,76.7,39.9,75.8,39.9L75.8,39.9z"/>
		</g>
	</g>
	<g id="XMLID_235_">
		<g id="XMLID_743_">
			<path id="XMLID_747_" class="st3" d="M71.4,33.4c-0.8,3.3-0.7,7.4-1.6,10.6c-0.7,2.2-1.2,2-3.5,1.8c-2.9-0.2-3.6-1-0.9-3.4
				c0.5-0.4,0.1-1.3-0.5-1.3c-4.3,0.4-8.6,0.8-12.9,1.2c-0.6,0.1-0.9,0.6-0.6,1.1c0.5,1.2,1.1,2,2,3c0.2-0.4,0.4-0.9,0.5-1.3
				c-2.1,0-4.3-0.1-6.4-0.2c-3-0.2-4.2-0.8-1.4-3.6c0.5-0.5,0.1-1.3-0.5-1.3c-4,0-8.1,0-12.1,0c-0.7,0-0.9,0.8-0.5,1.3
				c1.1,1.4,2.1,2.6,3.4,3.8c0.7,0.7,1.7-0.4,1.1-1.1c-1.2-1.2-2.3-2.4-3.4-3.8c-0.2,0.4-0.4,0.9-0.5,1.3c4,0,8.1,0,12.1,0
				c-0.2-0.4-0.4-0.9-0.5-1.3c-1.5,1.4-2.3,2.9-2.8,4.9c-0.1,0.5,0.2,0.9,0.7,0.9c3.7,0.3,7.3,0.4,11,0.5c0.7,0,1-0.8,0.5-1.3
				c-0.8-0.7-1.4-1.6-1.8-2.6c-0.2,0.4-0.4,0.8-0.6,1.1c4.3-0.4,8.6-0.8,12.9-1.2c-0.2-0.4-0.4-0.9-0.5-1.3
				c-1.5,1.4-2.4,2.8-2.9,4.7C61.1,46.6,61.5,47,62,47c2.8,0.2,5.6,0.4,8.4,0.6c0.4,0,0.7-0.4,0.8-0.8c0.1-4.4,0.6-8.7,1.7-13.1
				C73,32.9,71.6,32.5,71.4,33.4L71.4,33.4z"/>
		</g>
	</g>
	<g id="XMLID_253_">
		<g id="XMLID_736_">
			<path id="XMLID_740_" class="st3" d="M46.4,29.6c-0.5,4.1-1.2,8.2-2.2,12.3c-0.2,0.9,1.2,1.3,1.4,0.4c1-4.2,1.8-8.4,2.3-12.7
				C48.1,28.6,46.6,28.6,46.4,29.6L46.4,29.6z"/>
		</g>
	</g>
	<g id="XMLID_255_">
		<g id="XMLID_729_">
			<path id="XMLID_733_" class="st3" d="M52.2,36.3c0.1,2.1,0,4.2-0.3,6.3c-0.1,0.9,1.3,1.4,1.4,0.4c0.3-2.2,0.4-4.4,0.4-6.7
				C53.6,35.3,52.1,35.3,52.2,36.3L52.2,36.3z"/>
		</g>
	</g>
	<g id="XMLID_324_">
		<g id="XMLID_722_">
			<path id="XMLID_726_" class="st3" d="M61.8,33.3c0.7,3.1,1.4,6.1,2.1,9.2c0.2,0.9,1.7,0.5,1.4-0.4c-0.8-3.1-1.5-6.1-2.1-9.2
				C63,32,61.6,32.4,61.8,33.3L61.8,33.3z"/>
		</g>
	</g>
	<g id="XMLID_413_">
		<g id="XMLID_715_">
			<path id="XMLID_719_" class="st3" d="M33.7,31.9c-0.7,2.9-1.6,5.7-2.5,8.5c-0.3,0.9,1.1,1.3,1.4,0.4c0.9-2.8,1.8-5.6,2.5-8.5
				C35.4,31.4,34,31,33.7,31.9L33.7,31.9z"/>
		</g>
	</g>
	<g id="XMLID_483_">
		<g id="XMLID_708_">
			<path id="XMLID_712_" class="st3" d="M34.9,43.8c-3.2,0.1-6.3,0.1-9.5,0.2c-1,0-1,1.5,0,1.5c3.2-0.1,6.3-0.1,9.5-0.2
				C35.9,45.3,35.9,43.8,34.9,43.8L34.9,43.8z"/>
		</g>
	</g>
	<g id="XMLID_490_">
		<g id="XMLID_701_">
			<path id="XMLID_705_" class="st3" d="M26.7,33.9c-0.5,3.4-1.2,6.7-2.1,10c-0.3,0.9,1.2,1.3,1.4,0.4c0.9-3.3,1.6-6.6,2.1-10
				C28.3,33.3,26.9,32.9,26.7,33.9L26.7,33.9z"/>
		</g>
	</g>
	<g id="XMLID_511_">
		<g id="XMLID_694_">
			<path id="XMLID_698_" class="st3" d="M79.5,43.7c-0.8,5.3-2.3,10.4-4.7,15.2c-1.6,3.3-2.8,5.6-6.6,6.5c-2.6,0.6-5.6,0.7-8.3,1
				c-11.4,1.2-22.7,1.4-33.9-1.2c-0.9-0.2-1.3,1.2-0.4,1.4c13.5,3.2,27.2,2.2,40.8,0.5c5-0.6,6-0.8,8.5-5.3
				c3.2-5.5,5.1-11.6,6.1-17.9C81.1,43.2,79.6,42.8,79.5,43.7L79.5,43.7z"/>
		</g>
	</g>
	<g id="XMLID_518_">
		<g id="XMLID_687_">
			<path id="XMLID_691_" class="st3" d="M17.8,41.8c1.3,8.6,3.9,16.9,7.5,24.8c0.4,0.9,1.7,0.1,1.3-0.8c-3.6-7.8-6-16-7.4-24.5
				C19.1,40.5,17.6,40.9,17.8,41.8L17.8,41.8z"/>
		</g>
	</g>
	<g id="XMLID_497_">
		<g id="XMLID_680_">
			<path id="XMLID_684_" class="st3" d="M18.2,25.8c-1,0.4-2,0.7-3,1.1c-0.9,0.3-0.5,1.8,0.4,1.4c1-0.4,2-0.7,3-1.1
				C19.5,27,19.1,25.5,18.2,25.8L18.2,25.8z"/>
		</g>
	</g>
	<g id="XMLID_504_">
		<g id="XMLID_673_">
			<path id="XMLID_677_" class="st3" d="M13.8,27.9c0,2.6-2,5.3-3,7.7C10,37.5,9.4,39.3,9,41.3c-0.1,0.5,0.2,1,0.7,0.9
				c5.5-0.2,10.9-0.5,16.3-0.9c1-0.1,1-1.6,0-1.5c-5.4,0.4-10.9,0.7-16.3,0.9c0.2,0.3,0.5,0.6,0.7,0.9c0.6-3,1.8-5.7,3.1-8.4
				c0.8-1.7,1.7-3.3,1.7-5.3C15.3,27,13.8,27,13.8,27.9L13.8,27.9z"/>
		</g>
	</g>
	<g id="XMLID_525_">
		<g id="XMLID_666_">
			<path id="XMLID_670_" class="st3" d="M63.9,26.8c-2.3-0.1-4.4,0.3-6.2,1.8c-0.8,0.6-1.1,2-0.8,2.9c1,3,3.7,3.2,6.5,3.6
				c2.8,0.4,7.2,1.6,9.8,0.2c1.8-1,2.5-3.4,1.6-5.1c-1.4-2.7-5.3-3.4-8-3.7c-2.5-0.3-4.1,3.6-2.1,5.1c1.7,1.4,3.5,2.4,5.8,2.4
				c2.6,0,4.6-2,7.1-1.8c-1-1.3-1.9-2.5-2.9-3.8c-0.3,1.3-0.4,2.2,0.1,3.4c0.4,1.2,1.9,2.6,1.5,4c0.5-0.6,0.9-1.2,1.4-1.8
				c-1.4,1-4.2-2-5.9-2c-1.8,0-3.1,1.3-3.7,2.8c-0.7,1.5-0.3,4.1,1.8,4.4c2.1,0.3,4.2,0.6,6.3,0.9c-0.4-1.7-0.9-3.3-1.3-5
				c-0.1,0.1-0.2,0.2-0.4,0.3c0.7-0.3,1.4-0.6,2.1-0.9c-0.4,0.2-0.8,0.1-1.1-0.3c0.1,0.8,0.2,1.5,0.3,2.3c0.2-0.3,0.4-0.6,0.7-0.9
				c2.6-2.2-0.8-6.6-3.6-4.7c-2.7,1.8-5.7,3.4-8.9,3.9c0.8,0.1,1.5,0.2,2.3,0.3c-0.4-0.3-0.7-0.6-1.1-1c-1.6-2.5-5.5-1.5-5.6,1.5
				c0,2.2-0.5,4.9,1.7,6.3c2.3,1.5,6.2,0.2,8.6,0c3.8-0.4,3.8-6.4,0-6c-1.3,0.1-4.1-0.1-5.2,0.6c-1.5,0-1.2,0.6,0.8,1.9
				c0-0.9,0-1.8,0.1-2.7c-1.9,0.5-3.7,1-5.6,1.5c3.9,6.3,11.1,2.1,15.9-1.1c-1.2-1.6-2.4-3.1-3.6-4.7c-5.8,4.8,2,12.5,6.9,7.9
				c1.5-1.4,0.9-4.7-1.3-5c-2.1-0.3-4.2-0.6-6.3-0.9c0.6,1.5,1.2,2.9,1.8,4.4c0-0.1,0-0.1,0.1-0.2c-1,0-2,0-3,0
				c2.9,1.5,7.2,3.8,10.4,1.6c1.4-1,1.8-2.6,1.7-4.3c0-0.8-0.3-1.6-0.5-2.3c-0.2-0.6-1.4-2.1-1.3-2.6c0.4-2-0.9-3.7-2.9-3.8
				c-1.4-0.1-2.7,0-4,0.5c-1.6,0.6-3,2.1-4.7,0.7c-0.7,1.7-1.4,3.4-2.1,5.1c1.3,0.1,2.4,0.5,3.3,1.4c-0.3-0.7-0.6-1.4-0.9-2.1
				c0,0.2,0,0.4-0.1,0.6c0.3-0.7,0.6-1.4,0.9-2.1c-0.2,0.1-0.3,0.3-0.5,0.4c0.7-0.3,1.4-0.6,2.1-0.9c-2.8,0.3-7.6,0.2-10.2-1
				c0.5,0.6,0.9,1.2,1.4,1.8c-0.1-0.2-0.1-0.4-0.2-0.6c-0.3,1-0.5,1.9-0.8,2.9c0.6,0.1,1.3,0.1,1.9,0C67.8,32.9,67.8,26.9,63.9,26.8
				L63.9,26.8z"/>
		</g>
	</g>
	<g id="XMLID_532_">
		<g id="XMLID_659_">
			<path id="XMLID_663_" class="st3" d="M77,38.6c0.3,1.6,1.3,2.8,2.6,3.8c0.6,0.4,1.7,0.5,2.3,0.3c0.7-0.2,1.5-0.7,1.8-1.4
				c0.4-0.7,0.6-1.5,0.3-2.3c-0.3-0.8-0.7-1.3-1.4-1.8c0.1,0.1,0.5,0.5,0.3,0.2c-0.1-0.1-0.4-0.4-0.1,0c0.3,0.4,0.1,0.1,0,0
				c-0.1-0.1-0.1-0.2-0.2-0.3c0.1,0.2,0.2,0.5,0.3,0.7c-0.1-0.2-0.2-0.5-0.2-0.7c-0.3-1.5-2.2-2.6-3.7-2.1
				C77.5,35.4,76.6,36.9,77,38.6L77,38.6z"/>
		</g>
	</g>
	<g id="XMLID_539_">
		<g id="XMLID_652_">
			<path id="XMLID_656_" class="st3" d="M73.4,24.9c-11.7-0.7-23.3,0-34.8,2c-1.2,0.2-2.3,1.7-2.2,2.9c0.7,6,14.3,14.6,18.6,7.6
				c4.1-6.7-7.6-10.6-11.4-5.6c-1.3,1.7-1,4.3,1.3,5c3.5,1,8.3,2.2,11.9,1.2c1-0.3,2-0.7,2.7-1.6c0.4-0.5,0.7-2.7,0.8-2.7
				c-1.7-0.4-3.3-0.9-5-1.3c0.5,2.1-1.7,3.6-1.1,5.7c0.5,1.7,2.4,2.6,3.7,3.5c0.5-1.9,1-3.7,1.5-5.6c-4.5,0.4-9,0.5-13.5,0.2
				c-3.9-0.2-3.8,5.8,0,6c4.5,0.3,9,0.2,13.5-0.2c2.9-0.3,4.1-3.9,1.5-5.6c-2.2-1.5-0.4,1.6-0.9,1.5c0.3,0,1-2.2,1.1-2.4
				c0.5-1.6,0.3-3.1-0.1-4.7c-0.5-2.4-3.4-2.7-5-1.3c-1,0.8-1,3-1.5,3.4c0.4-0.3-2.3-0.7-2.3-0.7c-2.1-0.3-3.8-0.6-5.8-1.2
				c0.4,1.7,0.9,3.3,1.3,5c0.6-0.6,1.4-0.7,2.2-0.4c-0.8-1.4-1.8-2.4-3.2-3C46,32,42.4,30,42.4,29.8c-0.7,1-1.5,1.9-2.2,2.9
				c11-1.8,22.1-2.4,33.2-1.7C77.3,31.1,77.3,25.1,73.4,24.9L73.4,24.9z"/>
		</g>
	</g>
	<g id="XMLID_540_">
		<g id="XMLID_645_">
			<path id="XMLID_649_" class="st3" d="M53.9,34.8c0.1,0,0.1,0,0.2,0c1.6,0,3.1-1.4,3-3c-0.1-1.6-1.3-3-3-3c-0.1,0-0.1,0-0.2,0
				c-1.6,0-3.1,1.4-3,3C51,33.4,52.2,34.8,53.9,34.8L53.9,34.8z"/>
		</g>
	</g>
	<g id="XMLID_546_">
		<g id="XMLID_638_">
			<path id="XMLID_642_" class="st3" d="M32.7,28.3C30,28,27,27.5,24.3,28.2c-2.7,0.7-4.4,3.6-3.2,6.2c1.2,2.6,4.2,2.7,6.7,3.1
				c2.9,0.4,6.5,1.7,9-0.4c0.7-0.7,1.1-2,0.8-2.9c-1.4-3.9-8.7-5.3-11.1-1.7c-1.1,1.8,0.1,3.8,1.8,4.4c1,0.4,1.9,0.6,3,0.8
				c1.6,0.2,3.2-0.4,3.7-2.1c0.4-1.4-0.5-3.5-2.1-3.7c-1-0.1-2-0.4-3-0.8c0.6,1.5,1.2,2.9,1.8,4.4c0.1-0.1,0.2-0.3,0.3-0.4
				c-0.6,0.5-1.2,0.9-1.8,1.4c0.8-0.3,2.2,0.2,2.9,0.6c-0.5-0.6-0.9-1.2-1.4-1.8c0,0.1,0.1,0.3,0.1,0.4c0.3-1,0.5-1.9,0.8-2.9
				c-0.1,0.1-0.2,0.2-0.4,0.3c0.7-0.3,1.4-0.6,2.1-0.9c-1.2,0-2.4-0.2-3.5-0.4c-1.1-0.1-2.8-0.7-3.8-0.5c-0.2,0-0.4-0.1-0.6-0.1
				c-0.1,0.9-0.1,1.7-0.2,2.6c0.1,0.1,1,0,1.2,0c1.3,0,2.5,0.1,3.8,0.2c1.6,0.2,3.2-0.4,3.7-2.1C35.2,30.6,34.3,28.6,32.7,28.3
				L32.7,28.3z"/>
		</g>
	</g>
	<g id="XMLID_553_">
		<g id="XMLID_631_">
			<path id="XMLID_635_" class="st3" d="M33.2,30c-0.3,2.5-0.2,5.2,1.9,7c2.3,1.8,5.8,1.7,8.4,2.9c0.2-1.8,0.5-3.7,0.7-5.5
				c-4.3,1.6-10,0.6-14.5,0.5c-5.1-0.1-10.2-0.3-15.3-0.4c0.7,1.7,1.4,3.4,2.1,5.1c2.1-2.4,4.1-4.9,5.9-7.5c0.9-1.2,0.3-3.4-1.1-4.1
				c-5.3-2.5-7.1,2.8-8.8,6.7c-1.6,3.5,3.6,6.5,5.2,3c0.4-0.9,0.8-1.9,1.3-2.8c1.1-1.2,0.9-1.8-0.6-1.8c-0.4-1.4-0.7-2.7-1.1-4.1
				c-1.6,2.2-3.2,4.3-5,6.3c-1.7,2-0.6,5,2.1,5.1c5.7,0.2,11.5,0.3,17.2,0.5c4.6,0.1,9.8,1,14.2-0.7c2.1-0.8,3.3-4.3,0.7-5.5
				c-1.6-0.8-3.2-1.5-5-1.9c-2.5-0.6-2.7-0.1-2.4-2.8C39.7,26.1,33.7,26.2,33.2,30L33.2,30z"/>
		</g>
	</g>
	<g id="XMLID_556_">
		<g id="XMLID_624_">
			<path id="XMLID_628_" class="st3" d="M22.7,32.8c5.8-0.8,11.7-1.7,17.5-2.5c3.8-0.5,2.2-6.3-1.6-5.8C32.8,25.3,27,26.2,21.1,27
				C17.3,27.5,18.9,33.3,22.7,32.8L22.7,32.8z"/>
		</g>
	</g>
	<g id="XMLID_564_">
		<g id="XMLID_617_">
			<path id="XMLID_621_" class="st3" d="M72.1,27.5c0,0.2,0,0.3,0,0.5c0,1.4,0.9,2.4,2.2,2.9c0.1,0.1,0.3,0.1,0.4,0.2
				c1.1,0.4,2.9-0.3,3.4-1.4c0.1-0.1,0.1-0.3,0.2-0.4c0.6-1.3,0.5-2.6-0.5-3.6c-2.2-2.4-7.4-1.6-10.3-1.7
				c-5.2-0.2-10.5-0.2-15.7-0.1c-2.9,0.1-8.4-0.8-10.6,1.8c-1.5,1.8-1.1,4.1,0.5,5.6c1.1,1,2.4,1,3.6,0.5c2.3-1.1,3-3.7,1.5-5.8
				c-2.2-3.2-7.4-0.2-5.2,3c0.2-0.8,0.4-1.6,0.6-2.4c1.2,0.2,2.4,0.3,3.6,0.5c0.1,0.3,0.2,0.5,0.4,0.8c-0.5,0.9-1,1.7-1.5,2.6
				c1.2-1,5.4-0.4,6.9-0.5c2.6-0.1,5.2-0.1,7.9-0.1c2.6,0,5.2,0.1,7.9,0.2c0.7,0,6.2,0.1,6.1,0c-0.2-1.2-0.3-2.4-0.5-3.6
				c-0.1,0.1-0.1,0.3-0.2,0.4c1.1-0.5,2.3-0.9,3.4-1.4c-0.1-0.1-0.3-0.1-0.4-0.2c0.7,1,1.5,1.9,2.2,2.9c0-0.2,0-0.3,0-0.5
				C78,23.6,72,23.6,72.1,27.5L72.1,27.5z"/>
		</g>
	</g>
	<g id="XMLID_581_">
		<g id="XMLID_610_">
			<path id="XMLID_614_" class="st3" d="M47.4,30.2c1.2-0.1,2.4-0.2,3.6-0.4c3.8-0.4,3.9-5.7,0-6c-11.9-1-23.8,0.4-35.2,4.1
				c-2.1,0.7-3,3.4-1.3,5c1.8,1.7,3.7,3.3,5.7,4.8c3.1,2.3,6.1-2.9,3-5.2c-1.6-1.2-3-2.5-4.5-3.8c-0.4,1.7-0.9,3.3-1.3,5
				c10.9-3.5,22.1-4.8,33.6-3.8c0-2,0-4,0-6c-1.2,0.1-2.4,0.2-3.6,0.4C43.6,24.6,43.6,30.6,47.4,30.2L47.4,30.2z"/>
		</g>
	</g>
	<g id="XMLID_588_">
		<g id="XMLID_603_">
			<path id="XMLID_607_" class="st3" d="M49.3,41.9c-1.9-0.9-3.7,1.5-1.9,2.9c2,1.6,4.2-0.8,4.9-2.5c-0.7-0.1-1.5-0.2-2.2-0.3
				c0.1,1.4,0.6,2.5,1.5,3.5c0.3-0.6,0.5-1.3,0.8-1.9c-2.3-0.1-4.5-0.2-6.8-0.3c0.4,0.5,0.7,0.9,1.1,1.4c0.3-0.9,0.7-1.8,1-2.7
				c0.3-0.9-0.9-1.8-1.7-1.3c-1.2,0.8-2.2,1.6-3,2.7c-0.9,1.1,0.7,2.7,1.6,1.6c0.8-0.9,1.6-1.7,2.6-2.4c-0.6-0.4-1.1-0.8-1.7-1.3
				c-0.3,0.9-0.7,1.8-1,2.7c-0.3,0.7,0.4,1.4,1.1,1.4c2.3,0.1,4.5,0.2,6.8,0.3c1,0,1.4-1.2,0.8-1.9c-0.5-0.6-0.7-1.2-0.8-1.9
				c-0.1-1.3-1.7-1.5-2.2-0.3c-0.2,0.5-1.6,2.3-1.9,2.1C49.5,44.5,50.7,42.5,49.3,41.9L49.3,41.9z"/>
		</g>
	</g>
	<g id="XMLID_595_">
		<g id="XMLID_596_">
			<path id="XMLID_600_" class="st3" d="M65.7,41.3c-0.3,1.1-0.5,2.1-0.8,3.2c0.4-0.3,0.7-0.6,1.1-0.8c-0.1-0.1-0.2-0.1-0.3-0.2
				c-0.7-0.2-1.4-0.4-2.2-0.6c-0.1,0.5-0.3,0.9-0.7,1.4c-0.7,1,0.6,2,1.5,1.5c0,0,0.1,0,0.1-0.1c-0.4,0-0.8,0-1.1,0
				c0.8,0.4,1.3,0.5,2.2,0.6c1.1,0,2.3,0.1,3.4,0.1c0.6,0,1.1-0.5,1.1-1.1c0-1.3,0.2-2.6,0.6-3.8c0.3-0.9-0.8-1.8-1.7-1.3
				c-1.6,0.9-2.7,2.4-3,4.2c0.7,0.1,1.5,0.2,2.2,0.3c0-0.4,0-0.7,0-1.1c0-1.4-2.3-1.5-2.2,0c0,0.4,0,0.7,0,1.1c0,1.2,2,1.6,2.2,0.3
				c0.2-1.3,0.9-2.2,2-2.9c-0.6-0.4-1.1-0.8-1.7-1.3c-0.4,1.4-0.6,2.9-0.6,4.4c0.4-0.4,0.8-0.8,1.1-1.1c-1.2-0.1-2.6,0.1-3.8-0.2
				c-0.7-0.1-1.2-0.5-1.9-0.2c0.5,0.5,1,1,1.5,1.5c0.4-0.6,0.7-1.2,0.9-1.9c0.3-1.4-1.8-2-2.2-0.6c-0.5,1.8,0.9,2.9,2.5,3.1
				c0.5,0.1,1-0.4,1.1-0.8c0.3-1.1,0.5-2.1,0.8-3.2C68.3,40.5,66.1,39.9,65.7,41.3L65.7,41.3z"/>
		</g>
	</g>
	<g id="XMLID_602_">
		<g id="XMLID_589_">
			<path id="XMLID_593_" class="st3" d="M77.5,40.1c-0.1,0.8-0.5,1.4-1.1,1.9c-0.9,0.7,0.1,2.3,1.1,1.9c1.1-0.4,2-1,2.9-1.7
				c0.5-0.4,0.4-1.2,0-1.6c-0.5-0.5-1.1-0.4-1.6,0c-0.6,0.5-1.2,0.9-1.9,1.2c0.4,0.6,0.7,1.3,1.1,1.9c1.1-0.9,1.6-2.1,1.8-3.5
				c0.1-0.6-0.6-1.1-1.1-1.1C77.9,39,77.5,39.5,77.5,40.1L77.5,40.1z"/>
		</g>
	</g>
	<g id="XMLID_609_">
		<g id="XMLID_582_">
			<path id="XMLID_586_" class="st3" d="M27.7,40.8c0.6,1.3,1.3,2.3,2.3,3.3c0.6,0.5,1.7,0.4,1.9-0.5c0.2-1.4,0.2-2.7-0.1-4.1
				c-0.7,0.3-1.4,0.6-2.1,0.9c0.8,1.5,1.9,2.6,3.3,3.6c0.5,0.4,1.6,0,1.7-0.7c0.2-1.3,0-2.2-0.9-3.2c-0.5,0.5-1.1,1.1-1.6,1.6
				c0.7,0.6,1.4,1.3,2.1,2c0.7,0.8,1.8,0.1,1.9-0.8c0-0.5,0.2-1,0.4-1.5c-0.7,0-1.4,0-2.2,0c0.4,1.1,0.8,2.2,1.4,3.2
				c0.3-0.6,0.6-1.1,1-1.7c-3.5,0-7.1,0-10.6,0c0.4,0.4,0.8,0.8,1.1,1.1c0-0.9,0.1-1.7,0.4-2.6c-0.7-0.1-1.5-0.2-2.2-0.3
				c0,1.2-0.1,3.3,1.7,3.2c1.5-0.1,1.8-2,2.3-3.1c-0.7,0.1-1.4,0.2-2.1,0.3c0,0.1,0.1,0.3,0.1,0.4c0,1.4,2.3,1.5,2.2,0
				c0-0.7-0.1-0.9-0.4-1.5c-0.5-0.9-1.7-0.6-2.1,0.3c-0.1,0.4-0.3,0.7-0.4,1.1c0.8,0.5,1.1,0.4,0.9-0.5c0-1.3-1.8-1.5-2.2-0.3
				c-0.4,1.1-0.5,2-0.5,3.2c0,0.6,0.5,1.1,1.1,1.1c3.5,0,7.1,0,10.6,0c0.8,0,1.4-1,1-1.7c-0.5-0.8-0.9-1.7-1.2-2.7
				c-0.4-1.1-1.8-1-2.2,0c-0.3,0.7-0.4,1.4-0.5,2.1c0.6-0.3,1.3-0.5,1.9-0.8c-0.7-0.7-1.4-1.4-2.1-2c-1.1-0.9-2.5,0.5-1.6,1.6
				c0.1,0.3,0.2,0.7,0.3,1c0.6-0.2,1.1-0.4,1.7-0.7c-1.1-0.7-1.8-1.6-2.5-2.8c-0.7-1.1-2.3-0.3-2.1,0.9c0.2,1,0.2,1.9,0.1,2.9
				c0.6-0.2,1.3-0.3,1.9-0.5c-0.9-0.8-1.5-1.7-2-2.8C29,38.3,27.1,39.5,27.7,40.8L27.7,40.8z"/>
		</g>
	</g>
	<g id="XMLID_616_">
		<g id="XMLID_575_">
			<path id="XMLID_579_" class="st3" d="M14.6,38.7c-1,0.3-2.1,0.5-3.2,0.5c0.3,0.6,0.6,1.1,1,1.7c0.5-0.8,1-1.6,1.6-2.3
				c-0.6-0.4-1.3-0.7-1.9-1.1c-0.1,0.3-0.4,0.5-0.7,0.6c-1.4,0.4-0.8,2.6,0.6,2.2c1.1-0.3,1.9-1.1,2.3-2.2c0.4-1-1.2-1.9-1.9-1.1
				c-0.7,0.8-1.4,1.8-2,2.7c-0.4,0.8,0.1,1.7,1,1.7c1.3,0,2.6-0.1,3.8-0.5C16.6,40.4,16,38.2,14.6,38.7L14.6,38.7z"/>
		</g>
	</g>
	<g id="XMLID_623_">
		<g id="XMLID_569_">
			<path id="XMLID_573_" class="st4" d="M77.8,34.3c-0.4,1.9-0.7,3.8-1.1,5.7c-0.2,0.9,1.3,1.3,1.4,0.4c0.4-1.9,0.7-3.8,1.1-5.7
				C79.4,33.8,78,33.4,77.8,34.3L77.8,34.3z"/>
		</g>
	</g>
	<g id="XMLID_630_">
		<g id="XMLID_562_">
			<path id="XMLID_567_" class="st4" d="M70.8,36.3c0,0-0.2,0.7-0.2,0.7c0,0.3-0.1,0.6-0.1,0.9c-0.1,0.6-0.2,1.2-0.3,1.9
				c-0.1,0.9,1.3,1.4,1.4,0.4c0.1-0.9,0.3-1.8,0.4-2.6c0.1-0.7,0.3-1.4,0-2C71.7,34.7,70.4,35.4,70.8,36.3L70.8,36.3z"/>
		</g>
	</g>
	<g id="XMLID_637_">
		<g id="XMLID_555_">
			<path id="XMLID_560_" class="st4" d="M72.2,31.5c0-0.1,0-0.2,0-0.3c0.1-0.9-1.2-1.4-1.4-0.4c-0.4,1.6-0.6,3.2-0.7,4.8
				c0,1,1.5,1,1.5,0c0-1.5,0.2-3,0.6-4.4c-0.5-0.1-1-0.3-1.4-0.4c0,0.1,0,0.2,0,0.3C70.7,32.1,72.1,32.5,72.2,31.5L72.2,31.5z"/>
		</g>
	</g>
	<g id="XMLID_644_">
		<g id="XMLID_548_">
			<path id="XMLID_552_" class="st4" d="M66.1,33.9c-0.5,1.2-1.1,2.5-1.6,3.7c-0.5,1.3-0.6,3.3-1.7,4.2c0.2-0.1,0.5-0.1,0.7-0.2
				c0,0-0.1,0-0.1,0c-0.9-0.3-1.3,1.2-0.4,1.4c1.1,0.3,1.8-1.5,2.1-2.2c0.4-0.9,0.5-1.9,0.9-2.8c0.4-1.1,0.9-2.3,1.4-3.4
				C67.8,33.8,66.5,33,66.1,33.9L66.1,33.9z"/>
		</g>
	</g>
	<g id="XMLID_651_">
		<g id="XMLID_541_">
			<path id="XMLID_545_" class="st4" d="M54.4,31.8c-0.2,1.8-0.3,3.6-0.5,5.3c-0.1,1.2,0.1,4.4-0.9,5.2c-0.7,0.6,0.3,1.7,1.1,1.1
				c1.1-0.9,1-2.9,1.1-4.3c0.2-2.4,0.4-4.9,0.7-7.3C56,30.9,54.5,30.9,54.4,31.8L54.4,31.8z"/>
		</g>
	</g>
	<g id="XMLID_658_">
		<g id="XMLID_533_">
			<path id="XMLID_537_" class="st4" d="M45.5,40.8c-0.4-3-0.7-5.9-1.1-8.9c-0.1-0.9-1.6-1-1.5,0c0.4,3,0.7,5.9,1.1,8.9
				C44.1,41.7,45.6,41.7,45.5,40.8L45.5,40.8z"/>
		</g>
	</g>
	<g id="XMLID_665_">
		<g id="XMLID_526_">
			<path id="XMLID_530_" class="st4" d="M37.5,40.8c0.7-1.5,1.4-3,2.1-4.5c0.4-0.9-0.9-1.6-1.3-0.8c-0.7,1.5-1.4,3-2.1,4.5
				C35.8,40.9,37.1,41.7,37.5,40.8L37.5,40.8z"/>
		</g>
	</g>
	<g id="XMLID_672_">
		<g id="XMLID_519_">
			<path id="XMLID_523_" class="st4" d="M78.5,26.5c-10.1,2.8-20.5,3.6-30.9,4.2c-10.3,0.6-20.6,0.8-30.5-2.3
				c-0.9-0.3-1.3,1.2-0.4,1.4c10.1,3.1,20.5,2.9,30.9,2.3c10.6-0.6,21.1-1.4,31.3-4.2C79.8,27.7,79.4,26.2,78.5,26.5L78.5,26.5z"/>
		</g>
	</g>
	<g id="XMLID_679_">
		<g id="XMLID_512_">
			<path id="XMLID_516_" class="st4" d="M33.3,34.9c0.7,1.8,1.5,3.5,2.4,5.2c0.5,0.9,1.7,0.1,1.3-0.8c-0.8-1.6-1.6-3.2-2.3-4.9
				C34.4,33.6,33,34,33.3,34.9L33.3,34.9z"/>
		</g>
	</g>
	<g id="XMLID_686_">
		<g id="XMLID_505_">
			<path id="XMLID_509_" class="st4" d="M26.5,35.5c-0.1,1.2-0.3,2.4-0.5,3.5c-0.2,0.9,1.2,1.3,1.4,0.4c0.3-1.3,0.5-2.6,0.6-3.9
				C28,34.5,26.5,34.5,26.5,35.5L26.5,35.5z"/>
		</g>
	</g>
	<g id="XMLID_693_">
		<g id="XMLID_498_">
			<path id="XMLID_502_" class="st4" d="M21.3,30.2c-0.4,0.8-1.1,1.5-1.7,2.1c-0.6,0.7-1.2,1.4-1.9,2c-0.7,0.7,0.4,1.8,1.1,1.1
				c0.7-0.8,1.4-1.5,2.1-2.3c0.6-0.7,1.4-1.3,1.7-2.2C23,30.1,21.7,29.3,21.3,30.2L21.3,30.2z"/>
		</g>
	</g>
	<g id="XMLID_700_">
		<g id="XMLID_491_">
			<path id="XMLID_495_" class="st4" d="M48.8,31.3C48.8,31.3,48.8,31.3,48.8,31.3c-0.1,0.5-0.1,0.9-0.2,1.4c0,0,0,0,0,0
				c-0.3-0.1-0.6-0.2-0.8-0.3c0,0,0,0,0,0c0-0.3,0-0.5,0-0.8c-0.4,0.8,0.3,1.3,0.7,1.9c0.5,0.6,1.1,1.2,1.7,1.8
				c0.7,0.7,1.7-0.4,1.1-1.1c-0.8-0.9-1.6-1.7-2.3-2.6c0.1,0.2,0.1,0.4,0.2,0.5c0,0.1,0,0.1-0.1,0.2c0.1-0.2,0.2-0.5,0-0.8
				c0,0,0,0,0,0c-0.2-0.3-0.5-0.4-0.8-0.3c0,0,0,0,0,0c-0.6,0.2-0.7,1.1-0.2,1.4c0,0,0,0,0,0C48.9,33.1,49.6,31.8,48.8,31.3
				L48.8,31.3z"/>
		</g>
	</g>
	<g id="XMLID_707_">
		<g id="XMLID_484_">
			<path id="XMLID_488_" class="st4" d="M62.4,30.6c-0.2,1.2-0.6,2.3-1.4,3.3c-0.6,0.7,0.5,1.8,1.1,1.1c0.9-1.2,1.6-2.5,1.8-4
				C64,30.1,62.5,29.7,62.4,30.6L62.4,30.6z"/>
		</g>
	</g>
</g>
<g id="cleaning_bottle">
	<g id="XMLID_714_">
		<g id="XMLID_912_">
			<path id="XMLID_916_" class="st5" d="M57.4,154.2c-10.5-1.8-21-1.6-31.4,0.5c-0.9,0.2-0.5,1.6,0.4,1.4
				c10.2-2.1,20.4-2.3,30.6-0.5C58,155.8,58.4,154.3,57.4,154.2L57.4,154.2z"/>
		</g>
	</g>
	<g id="XMLID_721_">
		<g id="XMLID_906_">
			<path id="XMLID_910_" class="st5" d="M56.4,155c2,0.6,3.9,1.3,5.9,1.9c0.9,0.3,1.3-1.1,0.4-1.4c-2-0.6-3.9-1.3-5.9-1.9
				C55.9,153.3,55.5,154.7,56.4,155L56.4,155z"/>
		</g>
	</g>
	<g id="XMLID_728_">
		<g id="XMLID_900_">
			<path id="XMLID_904_" class="st5" d="M62.2,156.9c0,2.2,0,4.5,0,6.7c0,1,1.5,1,1.5,0c0-2.2,0-4.5,0-6.7
				C63.7,155.9,62.2,155.9,62.2,156.9L62.2,156.9z"/>
		</g>
	</g>
	<g id="XMLID_735_">
		<g id="XMLID_894_">
			<path id="XMLID_898_" class="st5" d="M61.9,157.4c1.3,0,3.3-0.1,4.4,0.5c1.1,0.6,0.8,2.7,0.9,3.9c0,0.5,0.5,3.2,0.3,3.5
				c-0.2,0.2-2,0.1-2.3,0.1c-0.8,0-1.5,0.1-2.3,0.1c-1,0-1,1.5,0,1.5c1.3-0.1,2.5-0.1,3.8-0.2c0.5,0,1.3,0,1.7-0.3
				c1.1-0.9,0.3-3.8,0.2-5c-0.1-1.3,0.3-3.7-1-4.6c-1.4-0.9-4.2-0.9-5.8-0.9C60.9,155.8,60.9,157.3,61.9,157.4L61.9,157.4z"/>
		</g>
	</g>
	<g id="XMLID_742_">
		<g id="XMLID_888_">
			<path id="XMLID_892_" class="st5" d="M61.4,163.6c0.2,0.8,0.3,1.5,0.5,2.3c0.2,0.9,1.6,0.5,1.4-0.4c-0.2-0.8-0.3-1.5-0.5-2.3
				C62.6,162.2,61.2,162.6,61.4,163.6L61.4,163.6z"/>
		</g>
	</g>
	<g id="XMLID_749_">
		<g id="XMLID_882_">
			<path id="XMLID_886_" class="st5" d="M62.2,165.8c-0.4-1.2-5.4,0.8-6.1,1.1c-2.1,1-3.9,2.5-5.4,4.3c-0.6,0.7,0.4,1.8,1.1,1.1
				c1.7-2.1,3.9-3.7,6.6-4.6c1.6-0.5,3.9-0.1,5.2-1.3c0.2-0.2,0.3-0.5,0.2-0.7c0-0.1,0-0.2-0.1-0.2
				C63.4,164.5,61.9,164.9,62.2,165.8L62.2,165.8z"/>
		</g>
	</g>
	<g id="XMLID_756_">
		<g id="XMLID_876_">
			<path id="XMLID_880_" class="st5" d="M28,154.4c-2.9,1.2-5.9,2.6-7.8,5.2c-1.9,2.6-0.6,5,1,7.4c0.5,0.8,1.8,0.1,1.3-0.8
				c-0.5-0.8-1.4-2-1.6-3c-0.4-2.1,0.7-3.4,2.3-4.6c1.7-1.3,3.6-2.1,5.6-3C29.7,155.3,28.9,154,28,154.4L28,154.4z"/>
		</g>
	</g>
	<g id="XMLID_763_">
		<g id="XMLID_870_">
			<path id="XMLID_874_" class="st5" d="M22.1,167.4c1.7,0.1,15,1.4,11.7,5.3c-0.6,0.7,0.4,1.8,1.1,1.1c5.2-6.3-9.8-7.8-12.8-7.9
				C21.1,165.9,21.1,167.4,22.1,167.4L22.1,167.4z"/>
		</g>
	</g>
	<g id="XMLID_770_">
		<g id="XMLID_864_">
			<path id="XMLID_868_" class="st5" d="M49.2,171.6c-0.2,1.3-0.1,2.5,0.3,3.8c0.3,0.9,1.8,0.5,1.4-0.4c-0.4-1-0.5-2-0.3-3
				C50.7,171.1,49.3,170.7,49.2,171.6L49.2,171.6z"/>
		</g>
	</g>
	<g id="XMLID_777_">
		<g id="XMLID_858_">
			<path id="XMLID_862_" class="st5" d="M50.1,171.8c-5.2,0.3-10.4,0.2-15.6-0.4c-1-0.1-1,1.4,0,1.5c5.2,0.6,10.4,0.7,15.6,0.4
				C51,173.3,51,171.8,50.1,171.8L50.1,171.8z"/>
		</g>
	</g>
	<g id="XMLID_784_">
		<g id="XMLID_851_">
			<path id="XMLID_856_" class="st5" d="M33.7,171c0,2.3,0.2,4.6,0.6,7c0.2,1,1.6,0.5,1.4-0.4c-0.4-2.2-0.5-4.4-0.5-6.6
				C35.2,170,33.7,170,33.7,171L33.7,171z"/>
		</g>
	</g>
	<g id="XMLID_791_">
		<g id="XMLID_844_">
			<path id="XMLID_849_" class="st5" d="M49.3,172c0,1.5,0.1,3.1,0,4.7c-0.1,1.5-0.2,1-1.4,1.3c-0.9,0.2-2.1,0-3.1,0
				c-1.6,0-3.3,0-4.9,0c-1.3,0-4.4,0.5-5.4-0.4c-0.7-0.7-1.8,0.4-1.1,1.1c1.2,1.2,3,0.8,4.6,0.8c3.1,0,6.1,0,9.2,0
				c1.1,0,2.5,0.3,3.3-0.6c1.1-1.2,0.3-5.4,0.2-6.9C50.8,171.1,49.3,171.1,49.3,172L49.3,172z"/>
		</g>
	</g>
	<g id="XMLID_798_">
		<g id="XMLID_837_">
			<path id="XMLID_842_" class="st5" d="M49.2,177.6c-1.5,7.1,4.4,10.9,8.8,15.3c6.6,6.4,8.5,18.3,10.4,27c1.7,8.1,6.4,27-6.2,28.2
				c-3.4,0.3-31.2,1.8-31.3-1.9c0-1-1.5-1-1.5,0c0,2.3,1.4,3.2,3.6,3.7c6.1,1.1,13.5-0.1,19.8-0.1c7.9-0.1,17.7,1.1,19-9
				c1.4-10.4-1.8-22-4.6-31.9c-1.4-4.9-2.5-10.5-5.7-14.6c-3.9-5-12.4-8.4-10.8-16.2C50.9,177.1,49.4,176.7,49.2,177.6L49.2,177.6z"
				/>
		</g>
	</g>
	<g id="XMLID_805_">
		<g id="XMLID_830_">
			<path id="XMLID_835_" class="st5" d="M33.6,177.3c1.3,7.5-2.8,13.6-5,20.4c-1.8,5.9-1.8,12.3-1.9,18.4
				c-0.2,6.8-0.2,13.6,0.5,20.3c0.4,4.1,0.9,8,3.9,11c0.7,0.7,1.7-0.4,1.1-1.1c-4.5-4.6-3.8-13.3-4-19.2c-0.1-6.2,0-12.3,0.3-18.5
				c0.3-6.4,2-11.7,4.3-17.6c1.9-4.7,3.1-9.2,2.2-14.2C34.9,176,33.4,176.4,33.6,177.3L33.6,177.3z"/>
		</g>
	</g>
	<g id="XMLID_812_">
		<g id="XMLID_823_">
			<path id="XMLID_828_" class="st5" d="M60,167.7c0.7,0.3,2.5,0.7,3,1.3c0.1,0.2,0,0.7,0.1,1c0.3,0.5,0.4,0.9,0.8,1.3
				c0.2,0.2,1.3,0.8,1.4,0.9c0.5,0.8,0.2,1.6,0.8,2.5c0.8,1.1,2.6,1.6,3.7,2.1c0.1-0.5,0.1-0.9,0.2-1.4c-5,2-11-4-13.4-7.6
				c-0.5-0.8-1.8-0.1-1.3,0.8c2.8,4.3,9.5,10.7,15.1,8.3c0.5-0.2,0.8-1.1,0.2-1.4c-1.8-0.9-3.4-1.6-3.6-3.9c0-0.3-0.2-0.7-0.6-0.7
				c-3-0.5-1.3-1.6-2.3-2.8c-0.7-0.9-2.5-1.3-3.5-1.7C59.9,166,59.2,167.3,60,167.7L60,167.7z"/>
		</g>
	</g>
	<g id="XMLID_819_">
		<g id="XMLID_816_">
			<path id="XMLID_821_" class="st5" d="M48.2,168.8c1.5-3.7,0.1-8.6-4.5-8.8c-5.7-0.3-5.2,5.2-4.8,9.1c1-1,2-2,3-3
				c-0.4,0-2.6-2.6-3.2-2.9c-1.7-0.8-3.2-0.6-5-0.3c-2.3,0.5-2.8,3.5-1.3,5c1,0.9,1.8,2,2.4,3.2c0.5,0.9,1.6,1.5,2.6,1.5
				c3.7,0,9.3,1.1,12.7-0.2c1.4-0.5,2.4-1.7,3.6-2.7c1.4-1.1,5.5-2.7,4.2-4.9c0.6-1.5,1.2-2.9,1.8-4.4c-1.3,0.4-2.7,0.7-4,1.1
				c0.5,1.9,1.1,3.9,1.6,5.8c1.4-0.5,2.8-0.8,4.3-1c2.2-0.3,3.8-2.4,2.6-4.5c-1.8-3.1-0.5-5.6-4.6-6.7c-5-1.4-10.9-1.1-16-1.4
				c-6-0.3-21.4-2-21,7.6c0.2,3.9,5.6,3.8,6,0c0.1-0.7,0.2-1.3,0.2-2c0.3-2.4-2.7-3.5-4.5-2.6c-2.6,1.3-3.7,3.4-3.7,6.2
				c1.9-0.5,3.7-1,5.6-1.5c-0.2-0.3-0.3-0.6-0.5-0.9c-1.5-2.8-5.4-1.3-5.6,1.5c-0.6,7,8.7,4.3,12.4,6.5c0.8-1.8,1.5-3.7,2.3-5.5
				c-0.7-0.1-3.4-1.3-3.7-1.1c0.2,0.6,0.4,1.1,0.6,1.7c0.6,0,1.3-0.1,1.9-0.1c2.7,0.4,5.7,0.1,8.4,0.2c5.2,0.2,10.3,0.4,15.5,0.7
				c-0.5-1.9-1-3.7-1.5-5.6c-2.2,1.3-4.7,3.2-7.1,4c1,0.3,1.9,0.5,2.9,0.8c-0.6-0.6-0.7-1.8-1.5-2.4c-1.3-1-3.1-0.9-4.6-0.9
				c-5.5-0.2-11-0.3-16.5-0.4c-3.9-0.1-3.9,5.9,0,6c3.7,0.1,7.3,0.2,11,0.3c1.3,0,4.3-0.3,5.5,0.1c1,0.4,0.2,0.3,1.4,1.1
				c4.1,2.9,8.2-1.2,12-3.4c2.7-1.5,1.4-5.5-1.5-5.6c-5.2-0.2-10.3-0.4-15.5-0.7c-4.4-0.2-10.5-1.2-14.6,0.6c-2,0.9-3.3,2.9-2.8,5.1
				c0.8,3.3,5.7,4.8,8.6,5.4c3.2,0.6,5.4-3.7,2.3-5.5c-1.6-1-3.3-1.7-5.1-2c-0.9-0.2-1.7-0.2-2.6-0.2c-0.5,0-1,0-1.4,0.1
				c-0.9-0.1-1,0.2-0.2,0.8c-1.9,0.5-3.7,1-5.6,1.5c0.2,0.3,0.3,0.6,0.5,0.9c1.4,2.6,5.6,1.4,5.6-1.5c0.2-0.3,0.5-0.7,0.7-1
				c-1.5-0.9-3-1.7-4.5-2.6c-0.1,0.7-0.2,1.3-0.2,2c2,0,4,0,6,0c-0.2-3.2,17.3-1.6,19.5-1.4c2.8,0.2,6.2,0,8.9,0.8
				c0.4-1.1,0.6-1.2,0.6-0.3c0,0.5,0.1,0.9,0.2,1.4c0.3,1.1,0.8,2,1.3,3c0.9-1.5,1.7-3,2.6-4.5c-2.1,0.2-3.9,0.6-5.9,1.2
				c-3.7,1.2-2.2,6.8,1.6,5.8c1.3-0.4,2.7-0.7,4-1.1c1.9-0.5,2.8-2.7,1.8-4.4c-2.3-4-6.3-1.6-9.2,0.4c-1.6,1.1-3.9,3.9-5.7,4.5
				c-2.8,1-7.9,0-10.8,0c0.9,0.5,1.7,1,2.6,1.5c-0.9-1.7-1.9-3.1-3.3-4.4c-0.4,1.7-0.9,3.3-1.3,5c0.8-0.2,2.6,2.2,3.4,2.7
				c1.1,0.7,1.8,0.8,3.2,0.7c1.5,0,3.1-1.3,3-3c0-0.6-0.1-1.2-0.2-1.8c0-1-0.7-1-2.2,0C40.9,170.8,46.7,172.4,48.2,168.8L48.2,168.8
				z"/>
		</g>
	</g>
	<g id="XMLID_826_">
		<g id="XMLID_809_">
			<path id="XMLID_814_" class="st5" d="M62,163.9c-0.1,0.6,0,1.1,0.2,1.7c0.2,0.8,1.5,0.7,1.5-0.2c0-0.9,0-1.7,0-2.6
				c-0.5,0.1-1,0.1-1.5,0.2c0.2,0.9,0.3,1.8,0.2,2.7c-0.1,1,1.4,1,1.5,0c0.1-1.1,0-2.1-0.3-3.1c-0.2-0.8-1.5-0.6-1.5,0.2
				c0,0.9,0,1.7,0,2.6c0.5-0.1,1-0.1,1.5-0.2c-0.1-0.4-0.2-0.8-0.1-1.3C63.6,162.9,62.1,162.9,62,163.9L62,163.9z"/>
		</g>
	</g>
	<g id="XMLID_833_">
		<g id="XMLID_802_">
			<path id="XMLID_807_" class="st5" d="M49.6,185.1C49.6,185.1,49.6,185.1,49.6,185.1c0.9-0.1,0.7-1.6-0.1-1.5
				c-2.3,0.3-4.6,0.5-6.9,0.5c-1.9,0-6.3,0.3-7.9-0.7c0.1,0.4,0.1,0.8,0.2,1.2c-0.3,0-0.5,0-0.8,0.1c0.8,0.5,1.6-0.8,0.8-1.3
				c0,0-0.1,0-0.1,0c-0.3-0.2-0.7-0.1-0.9,0.1c0,0-0.1,0.1-0.1,0.1c-0.3,0.4-0.3,0.9,0.2,1.2c1.6,1,4.6,0.8,6.4,0.9
				c3.1,0.1,6.2,0,9.2-0.4c-0.1-0.5-0.1-1-0.2-1.5c0,0-0.1,0-0.1,0C48.2,183.8,48.6,185.2,49.6,185.1L49.6,185.1z"/>
		</g>
	</g>
	<g id="XMLID_840_">
		<g id="XMLID_795_">
			<path id="XMLID_800_" class="st5" d="M50.5,183.7c-0.3-0.3-0.8-0.3-1.1-0.2c-0.9,0.3-0.5,1.7,0.4,1.4c-0.1-0.1-0.1-0.1,0,0
				c0.3,0.2,0.8,0.1,1-0.3C51,184.4,50.8,184,50.5,183.7L50.5,183.7z"/>
		</g>
	</g>
	<g id="XMLID_847_">
		<g id="XMLID_788_">
			<path id="XMLID_793_" class="st5" d="M41.2,182.9c0.8,0,1.6,0,2.4,0c1.4,0,2.2-2.1,0.8-2.8c-1.5-0.7-3.4-1.2-4.6,0.2
				c-0.9,1-0.8,2.8,0.3,3.6c2.3,1.6,9.3,0.2,7.6-3.7c-1.2-2.8-6.2-1.3-5.6,1.7c0.4,1.6,2.4,2.5,3.9,2.3c2-0.1,3.3-1.6,3.7-3.5
				c-1-0.1-2-0.3-2.9-0.4c0,1.4,0.4,2.2,0.9,3.4c0.1-0.6,0.2-1.2,0.2-1.8c-0.9,0.8-4.4,0.3-5.7,0.3c-1.8,0-4.2,0.3-6-0.3
				c0.3,0.3,0.7,0.7,1,1c-0.2-0.7-0.1-1.4,0.1-2.1c-0.3,0.3-0.7,0.7-1,1c1.8-0.3,4,0.3,5.7,0.4c1.9,0.1,3.8,0,5.6-0.1
				c1.6-0.1,2.2-2.7,0.4-2.9c-3.1-0.5-8-1.5-10.7,0.6c-1.5,1.2-1.3,4,1.1,3.8c1.9-0.2,2-3.1,0-3c-0.3,0-0.5,0-0.8,0
				c-1.9,0.1-1.9,3.1,0,3c0.3,0,0.5,0,0.8,0c0-1,0-2,0-3c0.5,1.3,1.3,1.7,2.3,1.2c0.8-0.1,1.5-0.2,2.3-0.1c1.4,0,2.8,0.3,4.2,0.5
				c0.1-1,0.3-2,0.4-2.9c-2.2,0.1-4.4,0.1-6.7,0c-1.8-0.1-3.7-0.5-5.5-0.2c-0.5,0.1-0.9,0.6-1,1c-0.4,1.1-0.6,3,0.1,4.1
				c0.9,1.2,2.9,1,4.2,1c2.9,0.1,8.9,1,11.3-1.1c0.5-0.5,0.5-1.2,0.2-1.8c-0.3-0.6-0.4-1.2-0.5-1.9c0-1.7-2.6-2.1-2.9-0.4
				c-1,1-2.2,1.5-3.5,1.5c-1.1-0.3-1.2,0.1-0.4,1.2c0.3-0.9,0.5-1.9,0.8-2.8c-0.8,0-1.6,0-2.4,0C39.3,180,39.3,183,41.2,182.9
				L41.2,182.9z"/>
		</g>
	</g>
	<g id="XMLID_854_">
		<g id="XMLID_781_">
			<path id="XMLID_786_" class="st5" d="M32.4,208c0.2-5,3.5-9.1,8.3-10.7c4.2-1.3,12.3-1.2,15.4,2.5c2.6,3.1,3.5,7.8,4.3,11.7
				c0.4,2.1,0.8,4.2,1,6.3c0.4,3.3,0.9,4.9-1,7.8c-1.9,2.9-3,2.7-6.1,3c-1.8,0.2-3.7,0.2-5.5,0.3c-3.6,0.1-7.5,0.3-11-0.2
				c-3.6-0.6-4.6-1.8-5-5.7c-0.2-1.8-0.3-3.6-0.4-5.4c-0.1-3.6,0.1-7.2,0.2-10.9c0-1-1.5-1-1.5,0c-0.3,6.4-1.1,13.7,0.7,20
				c1.1,3.8,4.3,3.3,7.8,3.5c6.2,0.3,13.5,0.9,19.6-0.7c3.8-1,4.4-3.5,4.1-7.2c-0.4-6.3-1.4-13.1-3.6-19.1c-1.7-4.6-5-6.7-9.7-7.7
				c-8.8-1.8-18.6,2.6-19.1,12.4C30.9,208.9,32.4,208.9,32.4,208L32.4,208z"/>
		</g>
	</g>
</g>
<g id="cup">
	<g id="XMLID_70_">
		<g id="XMLID_774_">
			<path id="XMLID_911_" class="st6" d="M-131.7,108.1c3.3,0,6.5,0.1,9.8,0.3c1.5,0.1,3,0.2,4.5,0.4c1,0.1,2.1,0.2,3.1,0.3
				c2.1,1.6,2.7,3.5,2,5.7c-0.1,0.9,1.3,1.4,1.4,0.4c0.5-3.2,0.4-6.3-3.1-7.5c-2.2-0.7-5-0.6-7.2-0.7c-3.5-0.2-7-0.4-10.6-0.4
				C-132.7,106.6-132.7,108.1-131.7,108.1L-131.7,108.1z"/>
		</g>
	</g>
	<g id="XMLID_77_">
		<g id="XMLID_230_">
			<path id="XMLID_772_" class="st6" d="M-133,106.9c-5.3-0.2-10.7-0.1-16,0.4c-1,0.1-1,1.6,0,1.5c5.3-0.5,10.7-0.6,16-0.4
				C-132.1,108.4-132.1,106.9-133,106.9L-133,106.9z"/>
		</g>
	</g>
	<g id="XMLID_84_">
		<g id="XMLID_222_">
			<path id="XMLID_228_" class="st6" d="M-149.7,107.5c-2.6,1-2.2,4.4-2,6.6c0.1,1,1.6,1,1.5,0c-0.1-1.3-0.7-4.6,0.9-5.2
				C-148.4,108.6-148.8,107.1-149.7,107.5L-149.7,107.5z"/>
		</g>
	</g>
	<g id="XMLID_175_">
		<g id="XMLID_216_">
			<path id="XMLID_220_" class="st6" d="M-112.5,115.5c-12.9,0.3-25.7,0.8-38.5-0.2c-1-0.1-1,1.4,0,1.5c12.8,1,25.7,0.5,38.5,0.2
				C-111.6,117-111.6,115.5-112.5,115.5L-112.5,115.5z"/>
		</g>
	</g>
	<g id="XMLID_98_">
		<g id="XMLID_210_">
			<path id="XMLID_214_" class="st6" d="M-114.5,109.1c-11.6,0.6-23.2,0.6-34.8-0.2c-1-0.1-1,1.4,0,1.5c11.6,0.8,23.2,0.8,34.8,0.2
				C-113.6,110.5-113.6,109-114.5,109.1L-114.5,109.1z"/>
		</g>
	</g>
	<g id="XMLID_105_">
		<g id="XMLID_204_">
			<path id="XMLID_208_" class="st6" d="M-114.2,117.1c-0.9,4.3-1.6,8.6-2.1,13c-0.5,5,0,10.2-0.9,15.1c-0.2,0.9,1.3,1.4,1.4,0.4
				c0.7-3.9,0.3-7.9,0.6-11.8c0.4-5.5,1.2-10.9,2.4-16.3C-112.5,116.6-114,116.2-114.2,117.1L-114.2,117.1z"/>
		</g>
	</g>
	<g id="XMLID_119_">
		<g id="XMLID_198_">
			<path id="XMLID_202_" class="st6" d="M-149.9,117c1.5,6.9,2.9,13.9,4.4,20.8c1.1,5.1,1.6,10.6,4.5,15c0.5,0.8,1.8,0.1,1.3-0.8
				c-3.1-4.7-3.6-11.1-4.7-16.5c-1.3-6.3-2.7-12.6-4-18.9C-148.7,115.7-150.1,116.1-149.9,117L-149.9,117z"/>
		</g>
	</g>
	<g id="XMLID_126_">
		<g id="XMLID_191_">
			<path id="XMLID_195_" class="st6" d="M-116.8,145.2c-0.2,1.1-0.5,2.1-0.9,3.2c-0.9,2.2-2.4,3.1-4.4,2.7c-1.8,0.4-3.9,0.1-5.7,0.1
				c-1.5,0-13.1,0-13.1,0c-0.1-1-1.6-1-1.5,0c0,0.1,0,0.2,0,0.3c0,0.2,0.1,0.5,0.4,0.6c2,0.8,4.4,0.4,6.5,0.5
				c4.1,0.1,8.3,0.1,12.4,0c5.5-0.1,6.4-1.3,7.7-7C-115.1,144.7-116.6,144.3-116.8,145.2L-116.8,145.2z"/>
		</g>
	</g>
	<g id="XMLID_133_">
		<g id="XMLID_184_">
			<path id="XMLID_188_" class="st6" d="M-115.6,123.8c-10.8,1.9-21.7,2.2-32.6,1.1c-1-0.1-1,1.4,0,1.5c11.1,1.1,22.1,0.7,33-1.2
				C-114.2,125.1-114.6,123.6-115.6,123.8L-115.6,123.8z"/>
		</g>
	</g>
	<g id="XMLID_140_">
		<g id="XMLID_178_">
			<path id="XMLID_182_" class="st6" d="M-115.8,134.3c-9.9,1.3-19.8,1.2-29.6-0.3c-0.9-0.1-1.4,1.3-0.4,1.4c10,1.5,20,1.7,30,0.4
				C-114.9,135.6-114.9,134.1-115.8,134.3L-115.8,134.3z"/>
		</g>
	</g>
	<g id="XMLID_147_">
		<g id="XMLID_171_">
			<path id="XMLID_176_" class="st6" d="M-130.7,115.4c5-0.1,10.6,0.5,15.5-0.4c2.4-0.4,3.7-1.8,3.4-4.2c-0.2-1.9-3.1-1.9-3,0
				c0.2,1.3,0.1,2.6-0.2,3.8c0.5-0.4,1-0.7,1.4-1.1c-6.1,0-12.3,0-18.4-0.1c-2.9-0.1-5.8-0.2-8.7-0.3c-3.1-0.1-7.3,0.8-7.4-3.3
				c-0.5,0.5-1,1-1.5,1.5c11.5-0.1,23.1-0.1,34.6-0.2c-0.5-0.5-1-1-1.5-1.5c0,0.5,0,1-0.1,1.5c0.5-0.5,1-1,1.5-1.5
				c-11.3,0.2-22.7,0.4-34,0.7c-1.7,0-2,2.4-0.4,2.9c6.5,2.2,13.2,1.8,20,1.1c1.9-0.2,2-2.9,0-3c-0.8,0-1.7-0.1-2.5-0.1
				c-1.9-0.1-1.9,2.9,0,3c0.8,0,1.7,0.1,2.5,0.1c0-1,0-2,0-3c-6.5,0.7-12.9,1.2-19.2-1c-0.1,1-0.3,2-0.4,2.9
				c11.3-0.2,22.7-0.4,34-0.7c0.8,0,1.5-0.7,1.5-1.5c0-0.5,0-1,0.1-1.5c0-0.8-0.7-1.5-1.5-1.5c-11.5,0.1-23.1,0.1-34.6,0.2
				c-0.8,0-1.5,0.7-1.5,1.5c0,1.6-0.3,4.4,1.3,5.6c1.9,1.4,7,0.7,9.1,0.7c9,0.4,18.1,0.5,27.1,0.4c0.6,0,1.3-0.5,1.4-1.1
				c0.3-1.6,0.5-3,0.3-4.6c-1,0-2,0-3,0c0.2,2-14.1,1.5-16,1.6C-132.6,112.4-132.6,115.4-130.7,115.4L-130.7,115.4z"/>
		</g>
	</g>
	<g id="XMLID_154_">
		<g id="XMLID_164_">
			<path id="XMLID_169_" class="st6" d="M-124.7,128.1c-3.6-0.3-7.1-0.4-10.7-0.3c-1.6,0-1.9,2-0.8,2.8c7.1,5.1,14.5,1.8,21-2.6
				c-0.7-0.7-1.4-1.4-2.1-2.1c-1.7,2.4-2.3,4.6-2.1,7.5c0.5-0.5,1-1,1.5-1.5c-4.5,0.4-9.1,0.6-13.6,0.4c-1.9-0.1-3.9-0.2-5.8-0.4
				c-1.8-0.2-3.6-0.4-5.4-0.7c-0.8-1.2-1.2-2.5-1.4-3.9c-0.5,0.6-1,1.3-1.4,1.9c9.3,0.8,18.6,0.4,27.9-1c-0.4-0.9-0.8-1.8-1.2-2.7
				c-1.8,0.9-3.7,1.9-5.5,2.8c-1,0.5-1,2.1,0,2.6c1.4,0.8,2.9,1.4,4.4,2.1c0.1-1,0.3-2,0.4-2.9c-7.8-0.2-15.6-0.5-23.4-0.7
				c-1.9-0.1-1.9,2.9,0,3c7.8,0.2,15.6,0.5,23.4,0.7c1.8,0.1,1.9-2.4,0.4-2.9c-1.3-0.5-2.5-1.1-3.7-1.8c0,0.9,0,1.7,0,2.6
				c1.8-0.9,3.7-1.9,5.5-2.8c1.6-0.8,0.4-3-1.2-2.7c-9,1.4-18,1.7-27.1,0.9c-1-0.1-1.7,1-1.4,1.9c1.3,5.5,2.2,6,7.8,6.6
				c7.1,0.8,14.2,0.8,21.3,0.2c0.8-0.1,1.6-0.6,1.5-1.5c-0.2-2.2,0.4-4.2,1.7-6c0.9-1.2-0.8-2.9-2.1-2.1c-5.6,3.8-11.7,7.1-17.9,2.6
				c-0.3,0.9-0.5,1.9-0.8,2.8c3.6-0.1,7.1,0,10.7,0.3C-122.8,131.3-122.8,128.3-124.7,128.1L-124.7,128.1z"/>
		</g>
	</g>
	<g id="XMLID_161_">
		<g id="XMLID_157_">
			<path id="XMLID_162_" class="st6" d="M-142.2,133.4c0-0.1,0-0.1,0-0.2c0-0.8-0.7-1.5-1.5-1.5c-0.8,0-1.5,0.7-1.5,1.5
				c0,0.1,0,0.1,0,0.2c0,0.8,0.7,1.5,1.5,1.5C-142.9,134.9-142.2,134.2-142.2,133.4L-142.2,133.4z"/>
		</g>
	</g>
	<g id="XMLID_91_">
		<g id="XMLID_145_">
			<path id="XMLID_155_" class="st6" d="M-148,113.1c-0.7,0-1.4,0-2.2,0c-0.8,0-1.5,0.7-1.5,1.5c0,0.8,0.7,1.5,1.5,1.5
				c0.7,0,1.4,0,2.2,0c0.8,0,1.5-0.7,1.5-1.5C-146.6,113.8-147.2,113.1-148,113.1L-148,113.1z"/>
		</g>
	</g>
	<g id="XMLID_112_">
		<g id="XMLID_138_">
			<path id="XMLID_143_" class="st7" d="M-114,108.6c-11.7,1.2-23.4,1-35-0.6c-1-0.1-0.9,1.4,0,1.5c11.7,1.5,23.3,1.7,35,0.6
				C-113,110-113,108.5-114,108.6L-114,108.6z"/>
		</g>
	</g>
</g>
<g id="fork">
	<g id="XMLID_1183_">
		<g id="XMLID_134_">
			<g id="XMLID_334_">
				<path id="XMLID_400_" class="st8" d="M-82,42.1c-1.6-0.2-3.2-0.5-4.7-0.9c-0.9-0.3-1.3,1.2-0.4,1.4c1.7,0.5,3.4,0.8,5.1,1
					C-81.1,43.7-81.1,42.2-82,42.1L-82,42.1z"/>
			</g>
		</g>
		<g id="XMLID_149_">
			<g id="XMLID_309_">
				<path id="XMLID_322_" class="st8" d="M-82.3,43.8c1,0.5-3.7,19.5-4.1,21.4c-0.7,3.5-1.5,7-2.3,10.5c-0.5,2-1.6,4.5-1.2,6.5
					c0.1,0.5,0.7,0.7,1.1,0.4c0.1,0,0.1-0.1,0.2-0.1c0.3-0.2,0.5-0.7,0.3-1c0,0,0-0.1-0.1-0.1c-0.5-0.8-1.8-0.1-1.3,0.8
					c0.6,1,2.2-4.7,2.3-5.2c0.4-1.6,0.7-3.2,1.1-4.8c0.7-3.2,1.4-6.3,2-9.5c1.3-6.4,2.6-12.7,3.8-19.1c0.1-0.3,0-0.7-0.3-0.8
					c-0.2-0.1-0.4-0.2-0.6-0.3C-82.5,42.1-83.2,43.4-82.3,43.8L-82.3,43.8z"/>
			</g>
		</g>
		<g id="XMLID_150_">
			<g id="XMLID_298_">
				<path id="XMLID_307_" class="st8" d="M-87.1,42.2c-1,0.9-1.5,2-1.5,3.2c-0.1,0.9-0.2,1.9-0.3,2.8c-0.2,1.8-0.5,3.6-0.7,5.4
					c-0.5,3.4-1.1,6.8-1.6,10.2c-0.9,5.7-2.2,11.7-1.8,17.5c0,0.3,0.2,0.6,0.6,0.7c2.1,0.5,1.6,0.4,3.7,0.5c0.3,0,0.7-0.2,0.7-0.6
					c0.5-3.4,0.9-6.8,1.4-10.2c0.1-0.9-1.3-1.4-1.4-0.4c-0.3,2-0.1,5-0.9,6.8c0.4,1.6-0.1,2.1-1.4,1.5c-1.4,0.2-1.8-0.4-1.1-1.9
					c-0.4-2,0.6-5.2,0.8-7.2c0.3-2.5,0.7-4.9,1.1-7.4c0.7-4.3,1.4-8.7,2-13c0.3-2.4,1.4-6,0.8-8.3c-0.1-0.4-0.5-0.7-0.9-0.5
					c-0.1,0-0.1,0-0.2,0.1c-0.4,0.1-0.6,0.5-0.5,0.9c0,0,0,0.1,0,0.1C-88.4,43.5-86.9,43.1-87.1,42.2L-87.1,42.2z"/>
			</g>
		</g>
		<g id="XMLID_151_">
			<g id="XMLID_290_">
				<path id="XMLID_296_" class="st8" d="M-88.5,64.4c-0.7,3.9-1.4,7.8-1.9,11.7c-0.1,0.9,1.3,1.4,1.4,0.4c0.6-3.6,0.9-7.2,0.9-10.9
					c0-0.7-1-1-1.4-0.4c-2,3.5-2.1,7.1-2,11.1c0,1,1.5,1,1.5,0c0-2.3,0.1-4.3,0.6-6.6c0.2-0.9-1.1-1.3-1.4-0.4
					c-1,3-3.1,7.5-0.7,10.2c0.3,0.3,1,0.3,1.2-0.2c0.7-1.4,0.9-2.5,0.9-4.1c0-0.7-1.1-1.1-1.4-0.4c-0.8,1.9-1.2,3.4-1.3,5.4
					c0,0.8,1,1,1.4,0.4c0.8-1.1,1.2-2.1,1.6-3.5c-0.5-0.1-1-0.3-1.4-0.4c-0.1,0.9-0.3,1.9-0.4,2.8c-0.1,0.8,1,1.4,1.4,0.6
					c1.3-2.9,1.5-6.1,2.1-9.2c0.9-4.4,2.1-8.7,2.9-13.2c0.6-3.6,1-7.1,0.8-10.8c-0.2-3.4-0.2,1-0.4,2.2c-0.4,2.4-0.9,4.9-1.5,7.3
					c0.5,0.1,1,0.1,1.5,0.2c0-2.8,2.8-11.6-1.2-13.6c-3.1-1.6-3,2.5-3.5,4.3c0.5,0.1,1,0.3,1.4,0.4c0.2-1,0.5-2.1,0.7-3.1
					c-0.5,0-1,0-1.4,0c0.9,3.7-0.5,7.8-0.9,11.6c-0.5,3.7-0.6,7.3-0.2,11c0.1,0.9,1.5,1,1.5,0c0.1-3.3,0.3-6.6,0.6-9.8
					c0.3-2.3,0.9-11.5,3.7-12.5c-0.3-0.3-0.6-0.6-0.9-0.9c-0.7,2-1.5,4-2.4,5.9c0.5,0.1,0.9,0.3,1.4,0.4c0-1.8,0-3.5,0-5.3
					c0-0.8-1.3-1.1-1.5-0.2c-1.2,6.9-2.9,14-3.3,21c0,0.9,1.2,0.9,1.5,0.2c2.3-5.6,3.5-11.2,3.7-17.2c0-0.8-1.4-1-1.5-0.2
					c-1.6,10.8-3.2,21.6-5,32.4c-0.2,0.9,1.3,1.4,1.4,0.4c1.8-10.8,3.4-21.6,5-32.4c-0.5-0.1-1-0.1-1.5-0.2
					c-0.2,5.9-1.4,11.4-3.7,16.8c0.5,0.1,1,0.1,1.5,0.2c0.4-6.8,2.1-13.8,3.2-20.6c-0.5-0.1-1-0.1-1.5-0.2c0,1.8,0,3.5,0,5.3
					c0,0.7,1.1,1.1,1.4,0.4c1-2,1.9-4.1,2.6-6.2c0.2-0.5-0.4-1.1-0.9-0.9c-2.9,1-3.3,5-3.9,7.6c-1.2,5.3-1.4,10.8-1.6,16.2
					c0.5,0,1,0,1.5,0c-0.5-4.9,0-9.6,0.7-14.5c0.4-2.8,1.1-5.7,0.4-8.5c-0.2-0.7-1.3-0.7-1.4,0c-0.2,1-0.5,2.1-0.7,3.1
					c-0.2,0.9,1.2,1.3,1.4,0.4c0.2-0.4,0.3-0.9,0.4-1.3c2.3,1.2,2.9,3,1.9,5.3c-0.2,1.7-0.5,3.2-0.5,4.9c0,0.8,1.3,1,1.5,0.2
					c0.9-4.2,1.7-8.5,2.3-12.8c0-0.3,0-0.7-0.3-0.8c-4.6-2.1-2.9,6.2-3,8.2c-0.3,4.7-1.4,9.3-2.5,13.8c-1,4.5-1.2,9.9-3.2,14.1
					c0.5,0.2,0.9,0.4,1.4,0.6c0.1-0.9,0.3-1.9,0.4-2.8c0.1-0.9-1.2-1.4-1.4-0.4c-0.2,1.2-0.7,2.2-1.4,3.1c0.5,0.1,0.9,0.3,1.4,0.4
					c0.4-1.6,0.7-3.1,1.1-4.7c-0.5-0.1-0.9-0.3-1.4-0.4c0-1.8,0.9-3.8,1.5-5.5c-0.5-0.1-1-0.3-1.4-0.4c-0.5,2.4-0.7,4.6-0.6,7
					c0.5,0,1,0,1.5,0c-0.1-3.6,0-7,1.8-10.3c-0.5-0.1-0.9-0.3-1.4-0.4c0,3.6-0.3,7-0.9,10.5c0.5,0.1,1,0.3,1.4,0.4
					c0.6-3.9,1.2-7.8,1.9-11.7C-86.9,63.8-88.3,63.4-88.5,64.4L-88.5,64.4z"/>
			</g>
		</g>
		<g id="XMLID_153_">
			<g id="XMLID_282_">
				<path id="XMLID_286_" class="st8" d="M-84.9,44.6c0.1-0.2,0.3-0.4,0.4-0.6c-0.5-0.2-0.9-0.4-1.4-0.6c-0.9,6.1-3.8,11.6-4.8,17.6
					c-0.1,0.5,0.2,0.9,0.7,0.9c2.9,0,3.9-2.1,4.5-4.7c0.2-0.9-1.1-1.3-1.4-0.4c-0.1,0.2-0.1,0.4-0.2,0.5c-0.3,0.9,1.2,1.3,1.4,0.4
					c0.1-0.2,0.1-0.4,0.2-0.5c-0.5-0.1-1-0.3-1.4-0.4c-0.2,1.7-1.2,2.9-3.1,3.6c0.2,0.3,0.5,0.6,0.7,0.9c1-6,3.9-11.5,4.8-17.6
					c0.1-0.8-0.9-1.4-1.4-0.6c-0.1,0.2-0.3,0.4-0.4,0.6C-86.7,44.7-85.4,45.5-84.9,44.6L-84.9,44.6z"/>
			</g>
		</g>
		<g id="XMLID_168_">
			<g id="XMLID_275_">
				<path id="XMLID_279_" class="st8" d="M-86.4,42.7c0,0-0.1,0-0.1,0c-0.9-0.2-1.3,1.3-0.4,1.4c0,0,0.1,0,0.1,0
					C-85.9,44.3-85.5,42.9-86.4,42.7L-86.4,42.7z"/>
			</g>
		</g>
		<g id="XMLID_189_">
			<g id="XMLID_268_">
				<path id="XMLID_272_" class="st8" d="M-86.6,42.5c-0.1-0.1-0.3-0.2-0.4-0.3c-0.3-0.2-0.8,0-1,0.3c-0.2,0.4-0.1,0.8,0.3,1
					c0.1,0.1,0.3,0.2,0.4,0.3c0.3,0.2,0.8,0,1-0.3C-86.1,43.1-86.2,42.7-86.6,42.5L-86.6,42.5z"/>
			</g>
		</g>
		<g id="XMLID_224_">
			<g id="XMLID_261_">
				<path id="XMLID_265_" class="st8" d="M-82,39.3c-0.2,1.2-0.4,2.4-0.6,3.6c-0.1,0.9,1.3,1.4,1.4,0.4c0.2-1.2,0.4-2.4,0.6-3.6
					C-80.4,38.7-81.8,38.3-82,39.3L-82,39.3z"/>
			</g>
		</g>
		<g id="XMLID_231_">
			<g id="XMLID_257_">
				<path id="XMLID_308_" class="st8" d="M-86.7,38.3c-0.2,1.2-0.5,2.5-0.8,3.7c-0.2,0.9,1.2,1.3,1.4,0.4c0.3-1.2,0.6-2.4,0.8-3.7
					C-85.1,37.8-86.5,37.4-86.7,38.3L-86.7,38.3z"/>
			</g>
		</g>
		<g id="XMLID_238_">
			<g id="XMLID_328_">
				<path id="XMLID_398_" class="st8" d="M-81,39.9c5.8-0.4,10.3-7.6,11.1-12.9c0.8-5.5-2.6-14.2-8.3-15.9c-5.9-1.8-11.9,3-14.1,8.2
					c-1.3,3.2-1.5,6.7-0.6,10c0.5,1.6,1.2,3.2,2.3,4.6c1.1,1.5,3.6,2.9,3.9,4.8c0.2,0.9,1.6,0.5,1.4-0.4c-0.6-3.4-4.7-5.1-6-8.7
					c-2.2-6.2,0.7-14.1,7.1-16.5c7.7-2.9,12.7,5.6,12.7,12.3c0,4.9-4,12.7-9.5,13C-81.9,38.5-82,40-81,39.9L-81,39.9z"/>
			</g>
		</g>
		<g id="XMLID_364_">
			<g id="XMLID_478_">
				<path id="XMLID_482_" class="st8" d="M-45.9,25.4c0.7,1,1.2,2.1,1.4,3.3c0.2,0.9,1.6,0.5,1.4-0.4c-0.3-1.3-0.8-2.6-1.6-3.7
					C-45.2,23.9-46.5,24.6-45.9,25.4L-45.9,25.4z"/>
			</g>
		</g>
		<g id="XMLID_371_">
			<g id="XMLID_467_">
				<path id="XMLID_473_" class="st8" d="M-43.9,28.4c-5.5,1.8-11,3.7-16.4,5.5c-0.9,0.3-0.5,1.8,0.4,1.4c5.5-1.8,11-3.7,16.4-5.5
					C-42.6,29.5-43,28-43.9,28.4L-43.9,28.4z"/>
			</g>
		</g>
		<g id="XMLID_378_">
			<g id="XMLID_459_">
				<path id="XMLID_465_" class="st8" d="M-46,24.3c-6.4,3.1-13.3,3.8-19.6,7c-0.9,0.4-0.1,1.7,0.8,1.3c6.3-3.2,13.3-3.9,19.6-7
					C-44.4,25.2-45.1,23.9-46,24.3L-46,24.3z"/>
			</g>
		</g>
		<g id="XMLID_385_">
			<g id="XMLID_451_">
				<path id="XMLID_457_" class="st8" d="M-61.7,33.8c-1-0.5-2.1-1-3.2-1.4c-0.9-0.3-1.3,1.1-0.4,1.4c1,0.4,1.9,0.8,2.9,1.2
					C-61.6,35.6-60.9,34.3-61.7,33.8L-61.7,33.8z"/>
			</g>
		</g>
		<g id="XMLID_392_">
			<g id="XMLID_444_">
				<path id="XMLID_449_" class="st8" d="M-61.9,35c-1-0.3-2-0.7-3-1.1c-0.9-0.4-1.6,0.9-0.8,1.3c1.1,0.5,2.2,0.9,3.4,1.3
					C-61.4,36.8-61,35.3-61.9,35L-61.9,35z"/>
			</g>
		</g>
		<g id="XMLID_399_">
			<g id="XMLID_438_">
				<path id="XMLID_442_" class="st8" d="M-62.6,36.5c-0.9-0.4-1.8-0.8-2.6-1.2c-0.9-0.4-1.6,0.9-0.8,1.3c1,0.5,2,0.9,3,1.3
					c0.4,0.2,0.8-0.2,0.9-0.5C-62,37-62.3,36.7-62.6,36.5L-62.6,36.5z"/>
			</g>
		</g>
		<g id="XMLID_225_">
			<g id="XMLID_431_">
				<path id="XMLID_436_" class="st8" d="M-61.7,35.1c-3.4,13.5-4.8,27.4-8.9,40.7c-0.3,0.9,1.2,1.3,1.4,0.4
					c4.1-13.3,5.5-27.2,8.9-40.7C-60,34.6-61.4,34.2-61.7,35.1L-61.7,35.1z"/>
			</g>
		</g>
		<g id="XMLID_232_">
			<g id="XMLID_424_">
				<path id="XMLID_429_" class="st8" d="M-66,33.4c-2.8,13.6-5.6,27.3-8.3,40.9c-0.2,0.9,1.3,1.3,1.4,0.4
					c2.8-13.6,5.5-27.3,8.3-40.9C-64.3,32.8-65.8,32.4-66,33.4L-66,33.4z"/>
			</g>
		</g>
		<g id="XMLID_420_">
			<g id="XMLID_422_">
				<path id="XMLID_474_" class="st8" d="M-70.3,74.5c-1.1,0-2.1-0.3-3-1c-0.7-0.6-1.8,0.4-1.1,1.1c1.1,1,2.5,1.6,4,1.5
					C-69.4,76-69.4,74.5-70.3,74.5L-70.3,74.5z"/>
			</g>
		</g>
		<g id="XMLID_294_">
			<g id="XMLID_469_">
				<path id="XMLID_477_" class="st8" d="M-99.7,45.6c-1.6,0.4-3.1,0.7-4.7,0.8c-1,0.1-1,1.6,0,1.5c1.7-0.2,3.4-0.4,5.1-0.9
					C-98.4,46.8-98.8,45.3-99.7,45.6L-99.7,45.6z"/>
			</g>
		</g>
		<g id="XMLID_288_">
			<g id="XMLID_448_">
				<path id="XMLID_462_" class="st8" d="M-99.3,47.3c0.9,0,3.3,18.7,3.7,20.6c0.5,3.2,1,6.4,1.5,9.6c0.4,2.4,0.2,6.2,1.5,8.3
					c0.3,0.5,1,0.4,1.3,0c0,0,0.1-0.1,0.1-0.1c0.2-0.2,0.1-0.7-0.1-0.9c0,0-0.1-0.1-0.1-0.1c-0.7-0.6-1.8,0.5-1.1,1.1
					c0-0.2-0.1-0.5-0.1-0.7c0.4,0,0.9,0,1.3,0c-1.4-2.1-1.2-7.4-1.6-9.8c-0.5-3.2-1-6.4-1.6-9.6c-1.1-6.4-2.2-12.8-3.4-19.2
					c-0.1-0.3-0.4-0.5-0.7-0.6c-0.2,0-0.4,0-0.7,0C-100.3,45.7-100.3,47.2-99.3,47.3L-99.3,47.3z"/>
			</g>
		</g>
		<g id="XMLID_287_">
			<g id="XMLID_417_">
				<path id="XMLID_434_" class="st8" d="M-104.4,47.6c-0.7,1.1-0.8,2.3-0.3,3.4c0.2,0.9,0.5,1.8,0.7,2.7c0.4,1.5,0.7,3.1,1.1,4.6
					c0.8,3.4,1.5,6.8,2.2,10.1c1.3,6,2.3,12.3,4.9,17.9c0.1,0.3,0.5,0.4,0.8,0.3c1.2-0.1,2.4-0.3,3.5-0.8c0.4-0.1,0.6-0.5,0.5-0.9
					c-0.8-3.3-1.6-6.7-2.4-10c-0.2-0.9-1.7-0.5-1.4,0.4c0.5,2.2,1.4,4.5,1.6,6.7c0.2,2,0.2,5.5-2.5,0.6c-1.9-3.4-2.3-8.9-3.1-12.7
					c-1-4.3-1.8-8.6-2.8-12.9c-0.7-2.8-0.9-7.3-2.7-9.6c-0.3-0.4-0.8-0.5-1.2-0.2c0,0-0.1,0.1-0.1,0.1c-0.2,0.2-0.3,0.6-0.1,0.9
					c0,0,0.1,0.1,0.1,0.1C-105.2,49.2-103.9,48.4-104.4,47.6L-104.4,47.6z"/>
			</g>
		</g>
		<g id="XMLID_280_">
			<g id="XMLID_409_">
				<path id="XMLID_415_" class="st8" d="M-97.8,68.8c0.7,3.9,1.5,7.7,2.4,11.6c0.2,0.9,1.6,0.5,1.4-0.4c-0.7-3.5-1.7-7-3-10.3
					c-0.3-0.8-1.4-0.6-1.5,0.2c-0.5,4,0.6,7.2,2.1,10.8c0.4,0.9,1.8,0.5,1.4-0.4c-0.9-2.2-1.5-4.3-1.9-6.6c-0.1-0.8-1.5-0.6-1.5,0.2
					c0.2,3.1-0.2,8.2,3,9.8c0.5,0.3,1.1-0.1,1.1-0.6c0.1-1.5-0.1-2.6-0.6-4c-0.3-0.8-1.4-0.7-1.5,0.2c-0.1,2,0.1,3.4,0.7,5.3
					c0.2,0.6,1.3,0.8,1.4,0c0.4-2.3,0.4-1.5,0.2-3.8c-0.5,0.1-1,0.1-1.5,0.2c0.2,0.9,0.4,1.9,0.6,2.8c0.2,0.8,1.4,0.6,1.5-0.2
					c0.1-3.7-1-7.2-1.6-10.8c-0.7-4.2-1.1-8.4-2-12.5c-0.7-3.3-1.6-6.6-3.1-9.7c-1.3-2.8,0.3,1.6,0.5,2.4c0.5,2.4,0.9,4.9,1.3,7.3
					c0.5-0.1,1-0.3,1.4-0.4c-1.1-3-1.5-11.4-5.8-12.2c-3.5-0.7-2,3.3-1.9,5.1c0.5-0.1,1-0.1,1.5-0.2c-0.2-1.1-0.3-2.1-0.5-3.2
					c-0.5,0.2-0.9,0.4-1.4,0.6c2.3,3.2,2.6,8.2,3.6,12c0.9,3.4,2,6.5,3.6,9.6c0.4,0.7,1.6,0.2,1.4-0.6c-1.2-3.4-2.3-6.8-3.2-10.2
					c-0.7-2.6-3.2-10.2-0.7-12.3c-0.4-0.2-0.9-0.4-1.3-0.5c0.1,2.2,0.1,4.4-0.2,6.6c0.5-0.1,1-0.1,1.5-0.2c-0.6-1.7-1.3-3.3-1.9-5
					c-0.3-0.9-1.6-0.6-1.4,0.4c1.4,6.6,1.9,14.5,4.5,20.7c0.3,0.7,1.4,0.3,1.4-0.4c0.1-6-0.8-11.7-2.7-17.4
					c-0.3-0.9-1.7-0.5-1.4,0.4c2.5,10.6,4.8,21.3,7.1,32c0.2,0.9,1.6,0.5,1.4-0.4c-2.3-10.7-4.6-21.3-7.1-32c-0.5,0.1-1,0.3-1.4,0.4
					c1.9,5.5,2.8,11.1,2.7,17c0.5-0.1,0.9-0.3,1.4-0.4c-2.6-6-3.1-13.9-4.4-20.4c-0.5,0.1-1,0.3-1.4,0.4c0.6,1.7,1.3,3.3,1.9,5
					c0.3,0.8,1.4,0.7,1.5-0.2c0.2-2.2,0.3-4.3,0.2-6.6c0-0.7-0.8-0.9-1.3-0.5c-2.1,1.8-1.2,5.2-0.9,7.6c0.8,5.6,2.6,11,4.4,16.4
					c0.5-0.2,0.9-0.4,1.4-0.6c-2.1-4-3.2-8.2-4.3-12.6c-0.7-3-1.1-6.5-2.9-9.1c-0.5-0.7-1.5-0.3-1.4,0.6c0.2,1.1,0.3,2.1,0.5,3.2
					c0.1,0.8,1.5,0.6,1.5-0.2c0-0.3-0.2-1.1-0.1-1.4c1.5-2.9,2.4,0,3.1,2.1c0.7,2.2,1,4.5,1.8,6.7c0.3,0.9,1.6,0.6,1.4-0.4
					c-0.7-4.3-1.5-8.5-2.4-12.7c-0.1-0.3-0.4-0.5-0.7-0.6c-5.2-0.3,0.2,8.4,0.6,10c1.1,3.8,1.6,7.7,2.2,11.5
					c0.7,5,2.4,10.4,2.3,15.5c0.5-0.1,1-0.1,1.5-0.2c-0.2-0.9-0.4-1.9-0.6-2.8c-0.2-0.8-1.5-0.7-1.5,0.2c-0.1,1.1-0.1,2.3-0.2,3.4
					c0.5,0,1,0,1.4,0c-0.7-1.6-0.9-3.2-0.7-4.9c-0.5,0.1-1,0.1-1.5,0.2c0.6,1.1,0.7,2.3,0.5,3.6c0.4-0.2,0.8-0.4,1.1-0.6
					c-2.6-1.3-2.1-6.1-2.2-8.5c-0.5,0.1-1,0.1-1.5,0.2c0.4,2.3,1,4.4,1.9,6.6c0.5-0.1,1-0.3,1.4-0.4c-1.4-3.4-2.5-6.7-2-10.4
					c-0.5,0.1-1,0.1-1.5,0.2c1.3,3.4,2.3,6.8,3,10.3c0.5-0.1,1-0.3,1.4-0.4c-0.9-3.8-1.7-7.7-2.4-11.6
					C-96.5,67.5-97.9,67.9-97.8,68.8L-97.8,68.8z"/>
			</g>
		</g>
		<g id="XMLID_273_">
			<g id="XMLID_401_">
				<path id="XMLID_405_" class="st8" d="M-101.5,49.1c0-0.2,0.1-0.5,0.1-0.7c-0.5,0-1,0-1.4,0c1.3,6,0.7,12.1,1.9,18.1
					c0.1,0.4,0.6,0.6,0.9,0.5c2.9-0.9,3-3.6,2.6-6.2c-0.1-0.8-1.5-0.6-1.5,0.2c0,0.2,0,0.4,0,0.6c0.1,1,1.6,1,1.5,0
					c0-0.2,0-0.4,0-0.6c-0.5,0.1-1,0.1-1.5,0.2c0.6,1.7,0.1,3.2-1.5,4.3c0.3,0.2,0.6,0.3,0.9,0.5c-1.2-6-0.6-12.2-1.9-18.1
					c-0.2-0.7-1.3-0.7-1.4,0c0,0.2-0.1,0.5-0.1,0.7C-103.1,49.6-101.7,50-101.5,49.1L-101.5,49.1z"/>
			</g>
		</g>
		<g id="XMLID_266_">
			<g id="XMLID_391_">
				<path id="XMLID_397_" class="st8" d="M-103.8,47.8c0,0-0.1,0-0.1,0c-0.9,0.2-0.5,1.6,0.4,1.4c0,0,0.1,0,0.1,0
					C-102.4,49-102.8,47.6-103.8,47.8L-103.8,47.8z"/>
			</g>
		</g>
		<g id="XMLID_259_">
			<g id="XMLID_383_">
				<path id="XMLID_389_" class="st8" d="M-103.8,47.6c-0.2-0.1-0.4-0.1-0.5-0.2c-0.9-0.3-1.3,1.2-0.4,1.4c0.2,0.1,0.4,0.1,0.5,0.2
					C-103.3,49.3-102.9,47.9-103.8,47.6L-103.8,47.6z"/>
			</g>
		</g>
		<g id="XMLID_252_">
			<g id="XMLID_375_">
				<path id="XMLID_381_" class="st8" d="M-100.7,43.1c0.3,1.2,0.5,2.4,0.8,3.6c0.2,0.9,1.7,0.5,1.4-0.4c-0.3-1.2-0.5-2.4-0.8-3.6
					C-99.5,41.7-100.9,42.1-100.7,43.1L-100.7,43.1z"/>
			</g>
		</g>
		<g id="XMLID_245_">
			<g id="XMLID_368_">
				<path id="XMLID_373_" class="st8" d="M-105.5,43.9c0.2,1.2,0.4,2.3,0.6,3.5c0.1,0.9,1.6,1,1.5,0c-0.1-1.3-0.4-2.6-0.6-3.9
					C-104.2,42.5-105.7,42.9-105.5,43.9L-105.5,43.9z"/>
			</g>
		</g>
		<g id="XMLID_295_">
			<g id="XMLID_361_">
				<path id="XMLID_366_" class="st8" d="M-97.5,21.9c0-0.2-0.1-0.4-0.1-0.7c-0.2-0.9-1.6-0.5-1.4,0.4c0.8,4.6,4.1,14.3,0.4,18.2
					c-1.2,1.3-3,1.4-2,3.6c0.4,0.9,1.8,0.5,1.4-0.4c-0.4-0.9,2.4-2.4,3-3.4c0.8-1.2,0.6-2.6,0.6-4c-0.2-4.9-1.1-9.7-2-14.5
					c-0.5,0.1-1,0.3-1.4,0.4c0,0.2,0.1,0.4,0.1,0.7C-98.8,23.2-97.4,22.8-97.5,21.9L-97.5,21.9z"/>
			</g>
		</g>
		<g id="XMLID_301_">
			<g id="XMLID_355_">
				<path id="XMLID_359_" class="st8" d="M-98.1,20.9c-0.5-1.4-0.9-2.8-1.4-4.2c-0.1-0.3-0.4-0.6-0.7-0.6c-0.8,0.1-1,0.1-1.6,0.3
					c-0.3,0.1-0.5,0.4-0.6,0.7c-0.2,2,0.7,4.7,1.1,6.7c0.3,1.4,2.3,8.3,0.3,8.5c-1,0.1-1,1.6,0,1.5c3.2-0.2,2.8-1.5,2.3-4.3
					c-0.4-2.4-0.9-4.8-1.3-7.2c-0.1-0.7-0.9-2.9-0.7-3.6c0.1-0.9,0.3-0.7,0.5,0.5c0.2,0.7,0.5,1.4,0.7,2.1
					C-99.2,22.2-97.8,21.8-98.1,20.9L-98.1,20.9z"/>
			</g>
		</g>
		<g id="XMLID_302_">
			<g id="XMLID_348_">
				<path id="XMLID_353_" class="st8" d="M-106,17.9c1.2,4.1,1.6,8.3,2.4,12.4c0.2,1.2,0.4,4,2.2,3.7c1-0.1,0.5-1.6-0.4-1.4
					c0.6-0.1-2.5-14.2-2.7-15.1C-104.8,16.6-106.3,17-106,17.9L-106,17.9z"/>
			</g>
		</g>
		<g id="XMLID_303_">
			<g id="XMLID_342_">
				<path id="XMLID_346_" class="st8" d="M-106.3,17.1c-3.3,0.8-2.9,1.2-2.2,4.6c0.9,4.1,1.5,8.2,3.3,12c0.4,0.9,1.7,0.1,1.3-0.8
					c-1.2-2.5-1.8-5.1-2.4-7.9c-0.4-2-2.3-5.9,0.3-6.5C-105,18.3-105.4,16.9-106.3,17.1L-106.3,17.1z"/>
			</g>
		</g>
		<g id="XMLID_304_">
			<g id="XMLID_335_">
				<path id="XMLID_339_" class="st8" d="M-105,32.5c-0.9,0.3-1.7,0.5-2.7,0.6c-1,0.1-1,1.6,0,1.5c1-0.1,2.1-0.3,3.1-0.7
					C-103.7,33.6-104.1,32.1-105,32.5L-105,32.5z"/>
			</g>
		</g>
		<g id="XMLID_305_">
			<g id="XMLID_327_">
				<path id="XMLID_332_" class="st8" d="M-112.1,19.4c1.1,4,1.5,7.9,2.3,12c0.2,1.1,0.8,3.1,2.3,3c0.6-0.1,0.9-0.6,0.6-1.1
					c0,0,0-0.1,0-0.1c-0.2-0.4-0.7-0.4-1-0.3c0,0,0,0-0.1,0c-0.9,0.4-0.1,1.7,0.8,1.3c0,0,0,0,0.1,0c-0.3-0.1-0.7-0.2-1-0.3
					c0,0,0,0.1,0,0.1c0.2-0.4,0.4-0.8,0.6-1.1c-0.6,0.1-2.8-12.8-3.1-13.8C-110.9,18-112.4,18.4-112.1,19.4L-112.1,19.4z"/>
			</g>
		</g>
		<g id="XMLID_340_">
			<g id="XMLID_315_">
				<path id="XMLID_319_" class="st8" d="M-111.4,18.6c-0.9,0.2-1.9,0.3-2.8,0.5c-0.9,0.2-0.5,1.6,0.4,1.4c0.9-0.2,1.9-0.3,2.8-0.5
					C-110.1,19.9-110.5,18.4-111.4,18.6L-111.4,18.6z"/>
			</g>
		</g>
		<g id="XMLID_352_">
			<g id="XMLID_313_">
				<path id="XMLID_443_" class="st8" d="M-114.9,20.2c1.5,6.8,2,20.7,9.9,23.7c0.9,0.3,1.3-1.1,0.4-1.4c-6.9-2.6-7.5-16.6-8.9-22.6
					C-113.7,18.9-115.1,19.3-114.9,20.2L-114.9,20.2z"/>
			</g>
		</g>
	</g>
</g>
</svg>
