<?xml version="1.0" encoding="utf-8"?>
<!-- Generator: Adobe Illustrator 19.0.0, SVG Export Plug-In . SVG Version: 6.00 Build 0)  -->
<svg version="1.1" id="Layer_1" xmlns="http://www.w3.org/2000/svg" xmlns:xlink="http://www.w3.org/1999/xlink" x="0px" y="0px"
	 viewBox="0 0 228 159.3" style="enable-background:new 0 0 228 159.3;" xml:space="preserve">
<style type="text/css">
	.st0{fill:#E6A69B;}
	.st1{fill:#F3CCC6;}
	.st2{fill:#C9C6E3;}
</style>
<g id="XMLID_1_">
	<g id="XMLID_31_">
		<path id="XMLID_36_" class="st0" d="M121.4,34.9c-6.1,0.3-12.3,1-18.4,0.4c-3.2-0.4-3.2,4.6,0,5c6.1,0.7,12.3-0.1,18.4-0.4
			C124.6,39.7,124.6,34.7,121.4,34.9L121.4,34.9z"/>
	</g>
</g>
<g id="XMLID_2_">
	<g id="XMLID_37_">
		<path id="XMLID_42_" class="st0" d="M104.2,35.9c-12.6-12.3-33.6-10.8-49.6-8.4c-8.9,1.4-17.5,2.8-25.4,7.1
			c-2.7,1.5-7.4-0.4-9.5,2.3c-1.9,2.5-0.6,7.1-0.2,9.8c0.1,0.8,1,1.6,1.7,1.7c2.2,0.5,4.3,0.8,6.5,0.9c3.2,0.2,3.2-4.8,0-5
			c-1.8-0.1-3.4-0.4-5.2-0.8c0.6,0.6,1.2,1.2,1.7,1.7c-0.1-0.6-1.1-4-0.1-4.8c0.4-0.3,2,0.2,2.8,0.1c2.8-0.4,4.9-2.1,7.4-3.4
			C41,34,50,33.2,57.4,32.2c13.8-1.9,32.4-3.3,43.2,7.3C102.9,41.7,106.5,38.2,104.2,35.9L104.2,35.9z"/>
	</g>
</g>
<g id="XMLID_3_">
	<g id="XMLID_43_">
		<path id="XMLID_48_" class="st0" d="M25.3,49c2.3,10.7,5.1,22.2,14.3,29.2c5,3.8,11.2,6.5,16.9,9.1c5.8,2.6,11.9,4.6,18.3,4.7
			c24,0.4,37-27.9,33.2-48.5c-0.6-3.2-5.4-1.8-4.8,1.3c3.6,19.4-10.3,45.7-32.9,41.7c-5.4-1-10.6-3.2-15.5-5.6
			c-4.5-2.2-9.4-4.2-13.2-7.5c-7.4-6.3-9.6-16.7-11.5-25.8C29.4,44.5,24.6,45.8,25.3,49L25.3,49z"/>
	</g>
</g>
<g id="XMLID_4_">
	<g id="XMLID_49_">
		<path id="XMLID_55_" class="st0" d="M119.2,41.7c-4.6,0.2-9,1.1-13.3,2.6c-3,1.1-1.7,5.9,1.3,4.8c3.9-1.4,7.8-2.2,12-2.4
			C122.4,46.5,122.5,41.5,119.2,41.7L119.2,41.7z"/>
	</g>
</g>
<g id="XMLID_5_">
	<g id="XMLID_56_">
		<path id="XMLID_62_" class="st0" d="M116.7,46.1c5.5,19.2,16.9,44.1,41,42.2c9.7-0.8,20.1-5.9,26.6-13.1c8-8.8,8.7-20.2,8.7-31.6
			c0-3.2-5-3.2-5,0c0,9.9-0.2,20.3-7.3,28c-6,6.6-15.8,11.5-24.8,11.7c-20.7,0.4-29.7-22.2-34.4-38.6
			C120.6,41.7,115.8,43,116.7,46.1L116.7,46.1z"/>
	</g>
</g>
<g id="XMLID_6_">
	<g id="XMLID_63_">
		<path id="XMLID_69_" class="st0" d="M122.8,38.6c5.6-4.8,12.9-6.3,20-7.1c6.6-0.8,13.2-1.3,19.9-1.3c7.5,0,14.8,0.9,21.7,4
			c5.2,2.3,9.8,4.6,15.6,3.8c-1.1-0.8-2.1-1.6-3.2-2.4c0,2.9,0.4,5.6,1,8.5c0.8-1.1,1.6-2.1,2.4-3.2c-3.1,0.1-6,0.6-8.9,1.5
			c-3.1,0.9-1.8,5.7,1.3,4.8c2.5-0.8,5-1.2,7.6-1.3c1.7-0.1,2.8-1.5,2.4-3.2c-0.5-2.4-0.8-4.7-0.8-7.1c0-1.8-1.6-2.6-3.2-2.4
			c-4.6,0.6-8.5-1.8-12.5-3.6c-3.1-1.4-6.3-2.5-9.7-3.1c-6.9-1.4-13.9-1.4-20.9-1c-12.5,0.8-26.3,1.2-36.3,9.7
			C116.8,37.1,120.4,40.6,122.8,38.6L122.8,38.6z"/>
	</g>
</g>
<g id="XMLID_7_">
	<g id="XMLID_70_">
		<path id="XMLID_76_" class="st0" d="M122.7,37.7c-2.8,0.1-5.7,0.3-8.5,0.4c-1.4,0.1-2.8,0.1-4.2,0.2c-0.5,0-3.9-0.1-3.3,0.9
			c0.1,0.6,0.2,1.3,0.3,1.9c0-0.1,0.1-0.3,0.1-0.4c1-3.1-3.8-4.4-4.8-1.3c-1.1,3.4,2.4,4.2,4.9,4.1c5.2-0.1,10.4-0.5,15.6-0.8
			C125.9,42.6,125.9,37.6,122.7,37.7L122.7,37.7z"/>
	</g>
</g>
<g id="XMLID_8_">
	<g id="XMLID_77_">
		<path id="XMLID_83_" class="st0" d="M92.1,36.1c5.6,6.1,6.9,14.3,6.5,22.3c-0.2,3.9-0.4,7.9-1.5,11.6c-1.2,4.2-4,6.8-7.2,9.6
			c-2.4,2.1,1.1,5.7,3.5,3.5c3.2-2.9,6.3-5.8,7.8-10c1.7-4.5,2.1-10,2.3-14.8c0.4-9.4-1.5-18.8-8-25.9C93.5,30.2,90,33.7,92.1,36.1
			L92.1,36.1z"/>
	</g>
</g>
<g id="XMLID_9_">
	<g id="XMLID_84_">
		<path id="XMLID_90_" class="st0" d="M99.2,40.4c1.7,4.3,2.1,8.7,1.1,13.2c-0.7,3.1,4.1,4.5,4.8,1.3c1.3-5.3,1-10.7-1.1-15.8
			C102.8,36.1,98,37.4,99.2,40.4L99.2,40.4z"/>
	</g>
</g>
<g id="XMLID_10_">
	<g id="XMLID_91_">
		<path id="XMLID_97_" class="st0" d="M100.9,39.7c-9.2-12.3-29.4-10.1-42.7-8.5c-8,1-17.4,1.2-25,4.2c-6.5,2.6-5.8,10.5-5.2,16.4
			c0.3,3.2,5.3,3.2,5,0c-0.3-2.7-1.1-7.5,0.2-10c1.5-2.8,7.2-3,10-3.5c6.2-1.1,12.5-1.9,18.7-2.5c10.2-1.1,27.7-3,34.7,6.4
			C98.5,44.8,102.9,42.3,100.9,39.7L100.9,39.7z"/>
	</g>
</g>
<g id="XMLID_11_">
	<g id="XMLID_98_">
		<path id="XMLID_104_" class="st0" d="M30,39.8c-0.3-1.6-1.8-2.6-3.3-2.6c-1.1,0-2.1,0.8-2.4,1.8c-0.4,1.5-0.6,3-0.7,4.5
			c1.6-0.4,3.1-0.8,4.7-1.3c-0.9-1.6-2.5-3.6-4.5-3.3c-2.5,0.3-2.9,3.1-3,5.2c-0.1,1.3,1.2,2.5,2.5,2.5c1.4,0,2.4-1.1,2.5-2.5
			c0-0.6,0.1-1.1,0.3-1.8c-0.2,0.4-0.4,0.7-0.6,1.1c0.1-0.1,0.1-0.1,0.2-0.2c-0.4,0.2-0.7,0.4-1.1,0.6c0.1,0,0.1-0.1,0.2-0.1
			c-0.4,0-0.9,0-1.3,0c-0.1-0.1-0.1-0.1-0.2-0.1c0.1,0.1,0.3,0.3,0.4,0.4c-0.1-0.1-0.1-0.1,0.1,0.2c0.1,0.2,0.2,0.3,0.3,0.5
			c1.2,2.2,4.6,1.2,4.7-1.3c0-1.1,0.2-2,0.5-3.2c-0.8,0.6-1.6,1.2-2.4,1.8c-0.5-0.4-1-0.7-1.5-1.1c0.3,1.3,1.8,2.1,3.1,1.7
			C29.6,42.5,30.3,41.2,30,39.8L30,39.8z"/>
	</g>
</g>
<g id="XMLID_12_">
	<g id="XMLID_105_">
		<path id="XMLID_111_" class="st0" d="M27.7,49.3c3.7,11.4,4.2,24.6,12.8,33.7c8.8,9.4,22.4,9.7,34.3,8.6c3.2-0.3,3.2-5.3,0-5
			c-11.3,1-24.8,1.2-32.3-8.9c-6.3-8.5-6.8-19.9-9.9-29.7C31.5,44.9,26.7,46.2,27.7,49.3L27.7,49.3z"/>
	</g>
</g>
<g id="XMLID_14_">
	<g id="XMLID_112_">
		<path id="XMLID_118_" class="st0" d="M88.1,80.9c-0.2,1.1-6,2.5-7.3,2.8c-2.6,0.7-5.4,1.1-8.1,1.2c-5.2,0.2-10.3-0.8-15.1-2.7
			c-3-1.2-4.3,3.7-1.3,4.8c6.8,2.7,13.9,3.5,21.1,2.5c3.8-0.6,14.6-2.4,15.5-7.3C93.5,79.1,88.7,77.7,88.1,80.9L88.1,80.9z"/>
	</g>
</g>
<g id="XMLID_16_">
	<g id="XMLID_119_">
		<path id="XMLID_125_" class="st0" d="M182.4,34.8c2.3,7.4,3.3,14.9,3.2,22.7c0,2.7,4.5,3.5,4.9,0.7c1.1-7,1.1-13.8,0-20.8
			c-0.8,1.1-1.6,2.1-2.4,3.2c3.8,0.1,5.4,4.4,9.5,1.8c1.6-1,1.6-3.3,0-4.3c-13.1-7.9-30.9-9.9-46-10.3c-7.6-0.2-15.4,0.7-22.5,3.6
			c-5.4,2.2-11.5,5.5-12.4,11.8c-0.5,3.1,4.3,4.5,4.8,1.3c1-6.6,10.3-9.2,15.8-10.4c6.5-1.5,13.2-1.5,19.9-1
			c12.7,1,26.8,2.6,37.8,9.3c0-1.4,0-2.9,0-4.3c-0.8,0.5-3.6-1.8-4.3-2.1c-1-0.3-1.6-0.3-2.7-0.4c-1.8,0-2.6,1.6-2.4,3.2
			c0.9,6,0.9,12.1,0,18.1c1.6,0.2,3.3,0.4,4.9,0.7c0.1-8.2-1-16.2-3.4-24C186.3,30.4,181.5,31.7,182.4,34.8L182.4,34.8z"/>
	</g>
</g>
<g id="XMLID_53_">
	<g id="XMLID_126_">
		<path id="XMLID_131_" class="st0" d="M120,38.8c-3.1,10.3,2.1,23.4,6.2,32.8c4.5,10.4,12.3,16.6,23.7,17
			c21,0.8,41.9-14.4,40.7-36.8c-0.2-3.2-5.2-3.2-5,0c1,19.1-16.2,31.8-34.1,31.8c-11.3,0-17.9-6.1-21.8-16.4c-3-8-7.5-18.7-4.9-27.1
			C125.7,37.1,120.9,35.7,120,38.8L120,38.8z"/>
	</g>
</g>
<g id="XMLID_60_">
	<g id="XMLID_132_">
		<path id="XMLID_136_" class="st1" d="M77.1,60.9c3.7-12-7.9-23.5-19.9-19.9C46.1,44.4,42.2,57,46,67.1c4.3,11.5,17.8,17,28.7,10.6
			c9-5.3,12.9-17.6,7.8-27c-6-11-21.5-11.4-28.1-0.7c-6.1,9.9-0.2,22,9,27.4c9.7,5.7,22.5,3.2,28.4-6.9c5.5-9.4,4.7-23.7-4.7-30
			c-3.6-2.5-8.9-2.1-12.6,0c-12.1,7-9.9,28.6,4.3,31.8c6.9,1.6,13.8-1.4,17.4-7.6c2.9-5,3.1-11.1,2.6-16.7
			c-0.5-6.4-5.3-13-12.5-12.5c-2.6,0.2-4.8,0.1-7.3-0.6c-6-1.6-12.4,1.5-14.7,7.2c-2.1,5.2-0.7,13.1,5.1,15.6
			c4.2,1.8,8.2,3.2,12.8,2.7c9.2-1,15.9-9.9,10.8-18.8c-6.5-11.4-21-7.4-31.7-6.4c-5.6,0.5-11.5,0.6-16.5,3.6
			c-6.7,4-9.2,11.6-7.5,19c7-4.1,13.9-8.1,20.9-12.2c-0.6,0.3-0.8-0.2-0.8-1.4c-5.1-11-24.6-5.9-23.3,6.3c0.3,3.2,0.8,6.4,1.6,9.5
			c8-2.2,16.1-4.4,24.1-6.6c-0.8-2.1-1.5-4.1-2.7-6c-6.3-10-24-6.6-23.3,6.3c0.4,8.8,3.9,18.8,10.3,25.1c6.1,6,14.7,7.4,23,7.4
			c8.2,0,16.6-1,23-6.4c7.2-6.1,8.8-15.1,8.8-24c-0.1-6.8-5.7-12.5-12.5-12.5c-7.1,0-12.1,5.7-12.5,12.5c-0.1,2-0.3,4-0.4,6
			c-0.1,0.9-0.1,1.7-0.2,2.6c-0.3,2.3-0.1,2.3,0.6-0.1c1.5-1.5,3-3,4.5-4.5c-0.4,0.2-0.8,0.4-1.2,0.6c2.1-0.6,4.2-1.1,6.3-1.7
			c-1.2,0.1-2.9-0.2-4,0.1c-1.4-0.1-1.2,0,0.8,0.5c-0.4-0.2-0.8-0.5-1.2-0.7c0.9,1-1-0.9-1.3-1.2c-0.9-0.8-1.7-1.6-2.7-2.4
			c-5.1-4.2-10.7-7.3-17.1-8.8c-15.6-3.8-22.3,20.3-6.6,24.1c4.3,1,6.6,2.9,9.8,5.7c5.2,4.5,10.5,7.2,17.5,7.7
			c7.1,0.5,14-1.4,17.6-8.1c3-5.6,2.3-13.6,2.7-19.8c-8.3,0-16.7,0-25,0c0,1.3,0,4-0.1,4.6c-0.5,3.3-0.6,0.9,0,0.5
			c1.6-1-3.6,0.4-1.7,0.2c-1.6,0.2-3.3,0.1-5,0.1c-1.7,0-3.4,0-5.1-0.2c1.5,0.2-1.9-1.2-0.2,0.1c-0.9-0.6-2.9-5.3-3-7.5
			c-7.8,2.1-15.5,4.2-23.3,6.3c0.1,0,0.1,0,0.2,0c2.3,6.3,8.5,10.6,15.4,8.7c6.5-1.8,10.6-8.9,8.7-15.4c-0.1-0.3-0.8-3-0.7-2.8
			c-7.8,2.1-15.5,4.2-23.3,6.3c1.1,2.5,2.8,4.6,4.7,6.5C49.5,72.3,64,63,61.3,51.1c-0.1-0.4-0.2-0.9-0.3-1.3c0,2.2,0,4.4,0,6.6
			c-0.9,2.7-2.4,4.1-4.6,4.3c1.3-0.1,2.6-0.2,3.8-0.4c2.2-0.2,4.5-0.4,6.7-0.6c2.2-0.2,4.5-0.4,6.7-0.6c1.3-0.1,2.6-0.2,3.8-0.4
			c2.2,0,1.5-0.3-2.2-0.8c-1.5-1.5-3-3-4.5-4.5c0.2,0.3,0.3,0.6,0.5,0.9C75,48,78.5,41.7,82.1,35.4c-2.2,0-2.2,0.2-0.2,0.7
			c-3.2,7.6-6.4,15.2-9.6,22.8c4.5,1.2,9.2,1.8,13.9,1.5c-4.2-4.2-8.3-8.3-12.5-12.5c0.1,1.7,0.1,3.3,0.2,5c0,0.6-0.1,1.1-0.1,1.7
			c1.1-2.9,1.1-3.4,0-1.7c1.5-1.5,3-3,4.5-4.5c0.3-0.1,0.7-0.2,1-0.3c2.2,0,4.4,0,6.6,0c2.7,8.8,4.6,11.1,5.9,6.9
			c-1.9,2.5-3.8,5-5.7,7.5c0.3-0.2,0.6-0.4,1-0.6c-4.2,0-8.4,0-12.6,0c0.3,0.2,0.6,0.4,0.9,0.6c-1.9-2.5-3.8-5-5.7-7.5
			c1,2.6-0.7,3.6,2.2,1.6c1.4-0.9,2.6-1.6,4.3-1c0.1,0.1,0.1,0.1,0.2,0.2c1.4,3,0.5,6.2-2.6,9.5c-2.1,0.6-4.2,1.1-6.3,1.7
			c-2.4-1.9-4.8-3.8-7.2-5.7c0-1,0-2.1,0-3.1c1.1-2.9,2.7-2.1,5.3-1.7c2,0.4,4.1,0.2,4.2,2.7c0.1,2.9-5.7,6.2-6.7,6.1
			c-2.1-0.6-4.2-1.1-6.3-1.7c-0.7-0.7-1.4-1.4-2.1-2.1c-0.6-2.1-1.1-4.2-1.7-6.3c0.1-0.4,0.2-0.7,0.2-1.1
			C48.2,69.6,72.3,76.2,77.1,60.9L77.1,60.9z"/>
	</g>
</g>
<g id="XMLID_67_">
	<g id="XMLID_139_">
		<path id="XMLID_143_" class="st1" d="M163.5,48.8c-10.7-6.4-25.2,3.4-20.7,16c1.9,5.2,6.3,9.2,12.1,9.2c5.2,0,11-3.8,12.1-9.2
			c1.3-6.5-0.2-12.2-5.1-16.7c-4.9-4.5-12.2-6.8-18.4-3.1c-12.2,7.2-5.9,23.6,3.5,29.6c7.9,5.1,19-1.6,18.8-10.8
			c-0.3-11.7-10.5-28.9-24.4-22.2c-7,3.4-9.7,11-7.9,18.4c1.6,6.4,5.5,10.9,10.7,14.7c6.2,4.6,17,0,18.4-7.5c1.6-8.9-1-18.2-9-23.2
			c-8.8-5.6-21.3-2.6-22.5,9.1c-1,9.2,5,19.8,14.4,21.9c12.3,2.7,21.6-10.6,15.4-21.3c-5.2-9.2-20.3-7.5-22.8,3
			c-3.3,13.7,9.9,24.9,23,20.3c4.7-1.7,9.4-4.7,12.9-8.4c2.8-2.9,5.2-7.6,7.3-9.4c-6.5-0.8-13.1-1.7-19.6-2.5
			c-0.2-0.6-0.4-1.1-0.6-1.7c0.4,6.7,5.5,12.5,12.5,12.5c7.4,0,11.8-5.8,12.5-12.5c0.3-2.6,0.3-4.9,0-7.5
			c-0.8-6.7-5.2-12.5-12.5-12.5c-6.5,0-12.8,5.7-12.5,12.5c0.2,3.3-0.3,5.7-1.5,8.8c-2.2,5.7,1.9,12.6,7.2,14.7
			c6,2.4,12,0.1,15.6-5.1c3.2-4.6,4.6-10.1,4.6-15.7c-8.2,1.1-16.4,2.2-24.6,3.3c-0.3-1.6-0.3-0.3-1.6,0.8c-1.4,1.2-3.8,2.4-5.8,3.5
			c-10.8,5.8-6,23.9,6.3,23.3c9.3-0.4,16.6-4.7,21.8-12.4c8.1-12.1-9.6-24.6-19.6-15.1c-1.8,1.7-3.9,4.1-6.4,5.1
			c-0.3,0.1-1.7-0.1-2.5-0.5c-4.2-2.2-5.2-7.7-6.1-12.2c-2.9,5.1-5.8,10.3-8.7,15.4c5.4-2.3,12.2-0.2,18.7-0.4c0.7,0,7.8-1.5,8-1.1
			c-0.8-0.1-1.6-0.1-2.4-0.2c0.9,0.2,1.9,0.3,2.8,0.5c5.6,0.9,11,1.2,15.4-3.3c4.2-4.2,5.2-10.9,2.2-16.1c-2.6-4.4-7.4-6.2-12.1-7.4
			c-8.5-2.2-17.3-2-25.8,0.1c-11,2.7-11.6,17.1-3,22.8c8.4,5.6,20.5,3.1,23.4-7.3c1.2-4.3-0.1-9-3.2-12.2
			c-7.4-7.5-21.1-4.4-29.8-1.1c-5.8,2.2-9.9,7.2-9,13.7c0.9,5.9,6,11.1,12.3,10.8c5.8-0.3,11.6-1,16.4-4.4c10.7-7.4,6-21.9-6.3-23.3
			c-6.6-0.7-13.5,1.1-19.1,4.7c6.3,3.6,12.5,7.2,18.8,10.8c0-0.2,0-0.3-0.1-0.5c-2.1,3.6-4.1,7.2-6.2,10.8c0.2-0.1,0.3-0.2,0.5-0.3
			c-4.2,0-8.4,0-12.6,0c4.8,2.3,8.7,4.3,14.2,4.5c4.5,0.1,9-0.9,13.3-2c8.9-2.4,17.7-0.1,26.5-4.2c8-3.8,8.3-17.9,0-21.6
			c-8.2-3.6-16.9-4.5-25.2-0.2c-6.8,3.5-11.6,10-13.5,17.4c-4.1,15.6,20,22.2,24.1,6.6c0.2-0.8,0.7-2.8,1.9-2.2c0-7.2,0-14.4,0-21.6
			c-0.9,0.4-6.2-0.6-8.2-0.5c-4.5,0.2-8.8,1.3-13.1,2.5c0.5-0.1-4.6,1.1-2.9,0.8c-0.4,0.1-4.3-0.3-2.3,0.3c-1.8-0.6-3.3-2-5.3-2.6
			c-3.4-0.9-7.2-0.4-10.1,1.6c-3.4,2.3-6.7,6.3-6.2,10.8c0,0.2,0,0.3,0.1,0.5c1,8.7,10.1,16.5,18.8,10.8c2.9-1.9,3.2-1.7,6.5-1.3
			c-2.1-7.8-4.2-15.5-6.3-23.3c-0.4,0.3-1.8,0.7-0.9,0.7c-0.1,0-2.5,0.2-2.9,0.2c1.1,8.2,2.2,16.4,3.3,24.6c2.3-0.9,4.6-1.7,7-2.1
			c0,0,5.2-0.3,3.4-0.6c-1.8-1.1-3.7-2.1-5.5-3.2c0.2,0.2,0.4,0.4,0.6,0.6c-1.1-4.1-2.1-8.1-3.2-12.2c-0.1,0.2-0.1,0.5-0.2,0.7
			c1.9-2.5,3.8-5,5.7-7.5c-0.3,0.1-0.5,0.3-0.8,0.4c2.1-0.6,4.2-1.1,6.3-1.7c3.4,1.4,4.2,1.6,2.2,0.4c-1,7.6-2,15.2-3,22.8
			c2.8-0.7,5.4-1,8.3-0.8c1.2,0.1,2.1,0.2,3.3,0.5c0.7,0.2,4.4,1.9,2.4,0.6c-2.1-3.6-4.1-7.2-6.2-10.8c0,0.2,0,0.5,0.1,0.7
			c1.2-2.9,2.4-5.9,3.7-8.8c-0.2,0.2-0.4,0.4-0.5,0.6c2.9-1.2,5.9-2.4,8.8-3.7c-1.1,0-5.8-1-8.3-0.9c-4.3,0.2-6.5,1.2-10.5,1
			c-7.2-0.4-14.4-1.5-21.3,1.4c-6.6,2.8-10.2,8-8.7,15.4c2.5,12.6,9.6,24.2,22,29.1c13.4,5.2,25.1-1.3,34.7-10.5
			c-6.5-5-13.1-10.1-19.6-15.1c0.4-0.5-1.6,0.1-0.2,0c2.1,7.8,4.2,15.5,6.3,23.3c12.6-6.7,21.7-17.5,18.8-32.5
			c-2.7-14-24.7-10.6-24.6,3.3c0,2.2,0.1,1.2-1.2,3.1c7.6,3.2,15.2,6.4,22.8,9.6c1.9-4.9,2.6-10.2,2.3-15.5c-8.3,0-16.7,0-25,0
			c0.3,2.5,0.3,4.9,0,7.5c8.3,0,16.7,0,25,0c-0.2-4.1-1.2-7.2-2.9-10.9c-3.6-7.9-14.1-7.3-19.6-2.5c-3,2.6-4.7,6-7.1,9.1
			c0.6-0.8-1.7,1.7-1.8,1.7c0.6-0.6,0.2-0.4-1.1,0.6c2.2,2.4,4.9,4,8.3,4.9c0,2.2,0,4.4,0,6.6c0.1-0.4,0.2-0.8,0.3-1.2
			c-7.6,1-15.2,2-22.8,3c0.2,0.3,0.3,0.5,0.5,0.8c-0.4-3.2-0.8-6.4-1.3-9.6c-0.1,0.3-0.1,0.6-0.2,1c1.1-1.8,2.1-3.7,3.2-5.5
			c-0.2,0.3-0.4,0.5-0.7,0.8c1.8-1.1,3.7-2.1,5.5-3.2c-0.3,0.1-0.6,0.3-1,0.4c2.2,0,4.4,0,6.6,0c3.3,4.4,4.5,5.3,3.7,2.9
			c-0.2-0.8-0.4-1.6-0.4-2.4c0,2.2,0,4.4,0,6.6c0.1-0.4,0.2-0.7,0.3-1.1c-2.9,2.9-5.8,5.8-8.7,8.7c0.2-0.1,0.4-0.2,0.7-0.2
			c-2.2,0-4.4,0-6.6,0c-2.1-0.4-2.9-3.1-2.5-4.9c6.1-2.5,12.2-5,18.4-7.5c1.9,1.4,2.6,2.8,0.2,6.3c-2.5,1.9-5,3.8-7.5,5.7
			c0.3-0.1,0.6-0.2,0.9-0.4c-2.2,0-4.4,0-6.6,0c-0.9-0.2-2.3-1.6-3-1.8c0.2,0,0.1,1.9,0.1,0.8c6.3-3.6,12.5-7.2,18.8-10.8
			c1.2,0.7,1.8,1.7,1.9,3c0.2,1.6,0.3,1.7,0.4,0.4c-0.6,2.1-1.1,4.2-1.7,6.3c0.2-0.2,0.3-0.5,0.5-0.7c-3.6,2.1-7.2,4.1-10.8,6.2
			c0.3,0,0.7-0.1,1-0.1c-2.1-0.6-4.2-1.1-6.3-1.7c2.2,1.2,1.7,0.3-1.4-2.9c0-2.2,0-4.4,0-6.6c-0.1,0.4-0.2,0.8-0.3,1.2
			c8,0,16.1,0,24.1,0c-0.1-0.4-0.3-0.8-0.4-1.1c-0.4,3.2-0.8,6.4-1.3,9.6c0.2-0.4,0.3-0.7,0.5-1.1c-2.5,1.9-5,3.8-7.5,5.7
			c0.4-0.1,0.8-0.2,1.2-0.3c-3.2-0.4-6.4-0.8-9.6-1.3c0.3,0.2,0.7,0.4,1,0.6C164.7,78.7,177.2,57.1,163.5,48.8L163.5,48.8z"/>
	</g>
</g>
<g id="XMLID_74_">
	<g id="XMLID_146_">
		<path id="XMLID_150_" class="st1" d="M49.5,45.2c-2.4-1.9-5.1-2.1-8.1-1.4c1.3,3,2.6,6.1,3.9,9.1c3.6-1.9,9.4-6.2,9.4-10.8
			c0-5.8-6-6.2-10.2-5.2c-4.9,1.1-10.8,2-12.8,7.3c-1.8,5,0.9,10.7,2.9,15.2c2.1,4.7,9.4,2.2,9.3-2.5c0-1.9-0.3-3.7-0.8-5.6
			c-0.2-0.9-1.4-3.5-0.9-4.3c0.7-1.2,5-1.6,6.1-1.9c2.2-0.5,4.4-0.9,6.6-1.2c9.8-1.2,19.6-0.4,29.2,2.1c6.2,1.6,8.9-8,2.7-9.6
			C74,32.9,60.6,32.4,47.5,35c-4.9,1-11.2,2.2-14,6.9c-3,5.1,0.3,9.7,0.4,15c3.1-0.8,6.2-1.7,9.3-2.5c-0.6-1.4-1.2-2.8-1.6-4.3
			c-0.1-0.3-0.4-2.7-1-1.8c0.5-0.7,6.6-2.1,7.3-1.9c-1-0.8-2-1.5-3-2.3c0.1,0.2,0.2,0.4,0.3,0.6c0-1.7,0-3.4,0-5
			c-1.3,2.2-2.9,3.5-5.1,4.7c-5.2,2.8-1.5,10.3,3.9,9.1c0.1,0.1,0.2,0.3,0.4,0.4C49.6,57.8,54.6,49.1,49.5,45.2L49.5,45.2z"/>
	</g>
</g>
<g id="XMLID_81_">
	<g id="XMLID_154_">
		<path id="XMLID_158_" class="st1" d="M181.8,48c6.4,0,6.4-10,0-10C175.4,38,175.3,48,181.8,48L181.8,48z"/>
	</g>
</g>
<g id="XMLID_88_">
	<g id="XMLID_159_">
		<path id="XMLID_163_" class="st1" d="M134.8,47.4c2.5-2.7,5.4-6.9,2-10.3c-3.2-3.2-7-0.7-10.2,1c2,2.6,4,5.2,6.1,7.9
			c0.9-1,1.8-1.9,2.7-2.9c2-2.1,2-6.5-1-7.9c-5.5-2.5-9.5,2.2-12.2,6.5c-2.6,4.1,2.7,9.7,6.8,6.8c1.6-1.2,2.7-2.6,4.1-3.9
			c0.8-0.8,1.8-1,2.8-1c6.4,0.1,6.4-9.9,0-10c-2.6,0-5.3,0.6-7.5,2c-1,0.7-2,1.5-2.8,2.4c-0.5,0.6-1.3,1.7-1.7,1.9
			c2.3,2.3,4.6,4.6,6.8,6.8c0.4-0.6,0.7-1.1,1.2-1.6c0.3-0.3,0.6-0.7,0.9-1c1-0.9,0.5-0.8-1.4,0.2c-0.8-0.2-1.7-0.5-2.5-0.7
			c0.1,0.1,0.3,0.1,0.4,0.2c-0.3-2.6-0.7-5.2-1-7.9c-0.9,1-1.8,1.9-2.7,2.9c-3.9,4.2,1,10.5,6.1,7.9c0.6-0.3,1.1-0.6,1.7-0.9
			c0.2-0.1,0.4-0.2,0.6-0.3c1-0.4,0.7-0.4-0.7,0c-1.2-0.5-2.4-1-3.5-1.5c0.1,0.1,0.1,0.1,0.2,0.2c-0.4-1.6-0.9-3.2-1.3-4.9
			c0.2-0.7-0.2,0.2-0.1,0.2c0,0-0.6,0.7-0.7,0.8c-1.8,2-2,5.1,0,7.1C129.6,49.3,133,49.4,134.8,47.4L134.8,47.4z"/>
	</g>
</g>
<g id="XMLID_13_">
	<g id="XMLID_166_">
		<path id="XMLID_170_" class="st2" d="M34.7,103.3c-1.5,8.2-2.5,16.5-3.1,24.8c-0.2,2.4,3.6,2.4,3.8,0c0.5-8,1.5-15.9,2.9-23.8
			C38.7,101.9,35.1,100.9,34.7,103.3L34.7,103.3z"/>
	</g>
</g>
<g id="XMLID_15_">
	<g id="XMLID_173_">
		<path id="XMLID_177_" class="st2" d="M42.5,104.8c-0.5,8.2-0.9,16.4-1.4,24.7c-0.1,2.4,3.6,2.4,3.8,0c0.5-8.2,0.9-16.4,1.4-24.7
			C46.4,102.4,42.7,102.4,42.5,104.8L42.5,104.8z"/>
	</g>
</g>
<g id="XMLID_17_">
	<g id="XMLID_180_">
		<path id="XMLID_184_" class="st2" d="M44.4,116.3c-3.4-0.1-6.6-1-9.7-2.6c-2.1-1.1-4,2.1-1.9,3.2c3.6,1.9,7.5,2.9,11.6,3.1
			C46.8,120.1,46.8,116.4,44.4,116.3L44.4,116.3z"/>
	</g>
</g>
<g id="XMLID_18_">
	<g id="XMLID_187_">
		<path id="XMLID_191_" class="st2" d="M60.7,117.1c-5.3-5.6-11.4,4-10.7,8.9c0.4,2.7,3.2,5.3,6,3.8c1.3-0.7,1.9-2.1,2.5-3.5
			c0.8-2,1.5-4.1,2.3-6.1c-1.2-0.2-2.5-0.3-3.7-0.5c0.5,4.1,1.3,8.5,5.3,10.5c2.2,1.1,4.1-2.2,1.9-3.2c-2.8-1.4-3.2-4.4-3.5-7.2
			c-0.2-2.1-2.9-2.5-3.7-0.5c-0.6,1.5-1.1,3.1-1.7,4.6c-0.1,0.3-0.5,2-0.9,2.2c-0.9,0.6-0.9-0.5-0.8-1.1c0-1.4,2.3-7.3,4.4-5.1
			C59.8,121.5,62.4,118.9,60.7,117.1L60.7,117.1z"/>
	</g>
</g>
<g id="XMLID_19_">
	<g id="XMLID_194_">
		<path id="XMLID_198_" class="st2" d="M63.9,117.8c-0.1,9.3-0.2,18.7-0.4,28c0,2.4,3.7,2.4,3.8,0c0.1-9.3,0.2-18.7,0.4-28
			C67.6,115.4,63.9,115.4,63.9,117.8L63.9,117.8z"/>
	</g>
</g>
<g id="XMLID_20_">
	<g id="XMLID_201_">
		<path id="XMLID_205_" class="st2" d="M65.3,121.2c2.5-0.6,5.7,0.6,5.7,3.7c0,2.1-2.9,3.9-4.4,1.8c-1.4-2-4.6-0.1-3.2,1.9
			c3.1,4.4,10.1,3.1,11.2-2.3c1.2-6.1-4.8-10-10.3-8.7C61.9,118.1,62.9,121.7,65.3,121.2L65.3,121.2z"/>
	</g>
</g>
<g id="XMLID_26_">
	<g id="XMLID_208_">
		<path id="XMLID_212_" class="st2" d="M73.7,120.2c1.7,4.1,0.8,10.1,0.9,14.5c0.1,4.5,0.4,8.8,1.1,13.2c0.4,2.4,4,1.4,3.6-1
			c-0.8-5.3-0.9-10.6-1-15.9c-0.1-3.8,0.5-8.3-1-11.8C76.4,117,72.8,118,73.7,120.2L73.7,120.2z"/>
	</g>
</g>
<g id="XMLID_29_">
	<g id="XMLID_215_">
		<path id="XMLID_219_" class="st2" d="M76.3,121.6c2.8-0.6,6.1,0.7,6.2,3.9c0.1,2.7-3.1,4.4-5,2.3c-1.6-1.8-4.3,0.9-2.7,2.7
			c3.8,4.3,10.8,1.5,11.4-3.9c0.7-6.2-5.4-9.8-10.9-8.5C72.9,118.5,73.9,122.2,76.3,121.6L76.3,121.6z"/>
	</g>
</g>
<g id="XMLID_164_">
	<g id="XMLID_222_">
		<path id="XMLID_226_" class="st2" d="M87.2,119.4c0.1,2.9,0.4,6,2.3,8.4c1.7,2.1,4.2,3.1,6.8,2.6c2.4-0.5,1.4-4.1-1-3.6
			c-3.8,0.7-4.3-5-4.4-7.4C90.9,117,87.2,117,87.2,119.4L87.2,119.4z"/>
	</g>
</g>
<g id="XMLID_171_">
	<g id="XMLID_229_">
		<path id="XMLID_233_" class="st2" d="M94.2,119.1c-0.7,7.4-1.9,14.6-3.7,21.8c-0.6,2.3,3,3.3,3.6,1c1.8-7.5,3.1-15.1,3.8-22.8
			C98.2,116.7,94.4,116.7,94.2,119.1L94.2,119.1z"/>
	</g>
</g>
<g id="XMLID_178_">
	<g id="XMLID_236_">
		<path id="XMLID_240_" class="st2" d="M111.6,106c-1,8.3-1.9,16.7-2.9,25c-0.3,2.4,3.5,2.4,3.8,0c1-8.3,1.9-16.7,2.9-25
			C115.6,103.6,111.8,103.6,111.6,106L111.6,106z"/>
	</g>
</g>
<g id="XMLID_185_">
	<g id="XMLID_243_">
		<path id="XMLID_247_" class="st2" d="M113.3,109.2c2.8-1,6.5,0.1,7.4,3.3c1.4,4.9-6,4.5-8.8,4c-2.4-0.4-3.4,3.2-1,3.6
			c5.4,0.9,14.6,0.2,13.6-7.4c-0.7-5.7-7.1-9-12.3-7.1C110.1,106.4,111,110,113.3,109.2L113.3,109.2z"/>
	</g>
</g>
<g id="XMLID_192_">
	<g id="XMLID_250_">
		<path id="XMLID_254_" class="st2" d="M112.9,119.5c2,2.8,4,5.6,6.1,8.4c1.5,2,3,3.9,5.7,3.9c2.4,0,2.4-3.8,0-3.8
			c-1.9,0-3.6-3.5-4.6-4.8c-1.4-1.9-2.7-3.7-4.1-5.6C114.7,115.7,111.5,117.6,112.9,119.5L112.9,119.5z"/>
	</g>
</g>
<g id="XMLID_199_">
	<g id="XMLID_257_">
		<path id="XMLID_261_" class="st2" d="M127.1,127.1c3.2-0.1,7.2-1.2,7.1-5.1c-0.1-3.5-4.4-4.5-6.8-2.6c-2.4,1.8-3.8,6-3,8.9
			c1.1,3.7,5,3.9,8.1,3.3c2.4-0.4,1.4-4-1-3.6c-0.9,0.2-2.5,0.5-3.3-0.3c-0.8-0.9-0.1-2.7,0.2-3.6c0.1-0.1,1.6-2.9,1.9-2
			c0.4,1.1-2.9,1.2-3.3,1.2C124.7,123.5,124.7,127.2,127.1,127.1L127.1,127.1z"/>
	</g>
</g>
<g id="XMLID_206_">
	<g id="XMLID_264_">
		<path id="XMLID_268_" class="st2" d="M147.4,121c-1.7-2.4-4.7-2.9-7.2-1.4c-2.6,1.6-4,5.5-3.9,8.4c0.1,3.2,3.3,4.4,5.8,2.7
			c2.8-1.8,3.7-5.5,4.1-8.6c-1.2,0-2.4,0-3.6,0c0.7,2.8,5.2,14.1,9.4,8.8c1.5-1.9-1.1-4.5-2.7-2.7c0.2-0.2-1.4-2.5-1.7-3
			c-0.7-1.3-1.1-2.7-1.5-4.1c-0.4-1.7-3.3-1.9-3.6,0c-0.2,1.2-0.4,2.4-0.7,3.5c-0.1,0.2-1.6,3.5-1.9,3.4c-0.4-0.2,0.6-2.9,0.7-3.3
			c0.4-0.9,2.2-3.5,3.4-1.8C145.5,124.9,148.7,123,147.4,121L147.4,121z"/>
	</g>
</g>
<g id="XMLID_213_">
	<g id="XMLID_271_">
		<path id="XMLID_275_" class="st2" d="M161.2,117.1c-4.9-2.4-10.8,0.6-10.9,6.3c0,2.6,1.3,5.3,3.7,6.4c2.3,1.1,5.4,0,5.9-2.8
			c0.4-2.4-3.3-3.4-3.6-1c-0.2,1.3-1.8-0.7-2-1.3c-0.4-1-0.3-2.2,0.2-3.1c0.9-1.7,3.2-2.2,4.9-1.4
			C161.4,121.4,163.3,118.2,161.2,117.1L161.2,117.1z"/>
	</g>
</g>
<g id="XMLID_220_">
	<g id="XMLID_278_">
		<path id="XMLID_282_" class="st2" d="M158.6,105.6c-0.3,8.9-0.2,17.8,0.3,26.7c0.1,2.4,3.9,2.4,3.8,0c-0.5-8.9-0.6-17.8-0.3-26.7
			C162.5,103.2,158.7,103.2,158.6,105.6L158.6,105.6z"/>
	</g>
</g>
<g id="XMLID_227_">
	<g id="XMLID_285_">
		<path id="XMLID_289_" class="st2" d="M164.8,119.4c-0.9,3.1-1.2,6.3-0.9,9.5c0.2,2.4,4,2.4,3.8,0c-0.3-2.9,0-5.7,0.8-8.5
			C169.1,118.1,165.5,117.1,164.8,119.4L164.8,119.4z"/>
	</g>
</g>
<g id="XMLID_234_">
	<g id="XMLID_292_">
		<path id="XMLID_296_" class="st2" d="M166.4,114.8c2.4,0,2.4-3.8,0-3.8C164,111.1,164,114.8,166.4,114.8L166.4,114.8z"/>
	</g>
</g>
<g id="XMLID_241_">
	<g id="XMLID_299_">
		<path id="XMLID_303_" class="st2" d="M168.9,119.3c0.4,3,0.6,6,0.6,9c0,2.4,3.5,2.4,3.8,0c0.1-1.2,0.4-2.4,1-3.5
			c0.3-0.5,0.7-1.1,1.1-1.5c0.2-0.2,0.4-0.4,0.6-0.5c0.3-0.4,0.4-0.4,0.3,0.1c0.8,0.6,1.1,2.7,1.4,3.6c0.4,1.4,0.7,2.8,0.9,4.3
			c0.4,2.4,4,1.4,3.6-1c-0.4-2.6-1.1-5-2.1-7.4c-0.8-1.8-1.8-4-4.2-3.7c-4.1,0.4-6.1,6.2-6.4,9.6c1.2,0,2.5,0,3.8,0
			c-0.1-3-0.3-6-0.6-9C172.3,116.9,168.6,116.9,168.9,119.3L168.9,119.3z"/>
	</g>
</g>
<g id="XMLID_248_">
	<g id="XMLID_306_">
		<path id="XMLID_310_" class="st2" d="M193.9,120.2c-0.1-7.8-11.3-0.7-10.5,5.3c0.4,3,3.3,5.6,6.4,4.5c3.4-1.2,4.4-5.7,4.7-8.8
			c-1.2,0-2.5,0-3.8,0c0.5,3.8,0.9,7.7,1.4,11.5c0.2,1.9,0.9,4.2,0.4,6c-1.3,5.5-6.4,3.1-8.5-0.3c-1.3-2-4.5-0.2-3.2,1.9
			c2.7,4.2,9.1,8.9,13.6,4.2c2.4-2.5,2.2-6,1.9-9.2c-0.4-4.7-1.1-9.4-1.7-14.1c-0.3-2.4-3.5-2.4-3.8,0c0.2,3.9-0.9,4.6-3.1,1.8
			c0.8-1,1.6-1.9,2.5-2.8C190.1,122.6,193.9,122.6,193.9,120.2L193.9,120.2z"/>
	</g>
</g>
<g id="XMLID_255_">
	<g id="XMLID_313_">
		<path id="XMLID_317_" class="st2" d="M199.9,106.6c-0.1,6.1,0,12.2,0.3,18.3c0.1,2.4,3.9,2.4,3.8,0c-0.3-6.1-0.4-12.2-0.3-18.3
			C203.7,104.2,199.9,104.2,199.9,106.6L199.9,106.6z"/>
	</g>
</g>
<g id="XMLID_262_">
	<g id="XMLID_320_">
		<path id="XMLID_324_" class="st2" d="M200.6,130.6c0,0.1,0,0.2,0,0.3c0,1,0.9,1.9,1.9,1.9c1,0,1.9-0.8,1.9-1.9c0-0.1,0-0.2,0-0.3
			c0-1-0.9-1.9-1.9-1.9C201.4,128.8,200.6,129.6,200.6,130.6L200.6,130.6z"/>
	</g>
</g>
<g id="XMLID_328_">
	<g id="XMLID_340_">
		<path id="XMLID_344_" class="st2" d="M175.1,16.5c-8-6.3-18.8-7.1-27.4-1.4c-2.7,1.8-0.2,6.1,2.5,4.3c6.6-4.3,15.1-4.3,21.4,0.6
			C174.1,22,177.7,18.5,175.1,16.5L175.1,16.5z"/>
	</g>
</g>
<g id="XMLID_329_">
	<g id="XMLID_347_">
		<path id="XMLID_351_" class="st2" d="M73.6,14.1c-10.8-3.3-21.7-2.7-28.2,7.6c-1.7,2.7,2.6,5.2,4.3,2.5c5.2-8.4,14.1-7.9,22.5-5.3
			C75.4,19.8,76.7,15,73.6,14.1L73.6,14.1z"/>
	</g>
</g>
</svg>
