<?xml version="1.0" encoding="utf-8"?>
<!-- Generator: Adobe Illustrator 19.0.0, SVG Export Plug-In . SVG Version: 6.00 Build 0)  -->
<svg version="1.1" xmlns="http://www.w3.org/2000/svg" xmlns:xlink="http://www.w3.org/1999/xlink" x="0px" y="0px"
	 viewBox="0 0 57.8 92.6" style="enable-background:new 0 0 57.8 92.6;" xml:space="preserve">
<style type="text/css">
	.st0{fill:none;stroke:#000000;stroke-miterlimit:10;}
	.st1{fill:#EF6E6C;}
	.st2{fill:#D6C9C9;}
	.st3{fill:#30102E;}
	.st4{fill:#581B56;}
	.st5{fill:#7CB2D9;}
	.st6{fill:#7FB686;}
	.st7{fill:#98D09A;}
	.st8{fill:#DDAE7E;}
</style>
<g id="spoon">
	<g id="XMLID_1_">
		<g id="XMLID_13_">
			<path id="XMLID_17_" class="st0" d="M29.7,7.3"/>
		</g>
	</g>
	<g id="XMLID_5_">
		<g id="XMLID_23_">
			<path id="XMLID_27_" class="st1" d="M31.7,13.9c-0.2,0-0.4,0-0.7,0c-1-0.1-0.9,1.4,0,1.5c3.3,0.4,6.6,0.9,9.9,1.3
				c1,0.1,0.9-1.4,0-1.5c-3.3-0.4-6.6-0.9-9.9-1.3c0,0.5,0,1,0,1.5c0.2,0,0.4,0,0.7,0C32.7,15.5,32.7,14,31.7,13.9L31.7,13.9z"/>
		</g>
	</g>
	<g id="XMLID_6_">
		<g id="XMLID_30_">
			<path id="XMLID_34_" class="st1" d="M39.8,16.6c0,0.2,0.1,0.4,0.1,0.6c0.2-0.2,0.5-0.5,0.8-0.8c-1.3,0.1-2.6,0.3-3.9,0.6
				c-0.6,0.1-0.7,1.1-0.2,1.4c1,0.5,2,1.1,2.8,1.9c0-0.4,0-0.7,0-1.1c-1,1.1-1.9,0.6-2.4,2c-0.1,0.2,0,0.6,0.2,0.7
				c1.2,1.2-0.8,0.8-1.2,1.9c-0.4,1,1.9,3.5,1.3,3.8c-0.5,0.3-0.5,1,0,1.3c2,1.1-0.8,1.9-1.1,2.7c-0.5,1.2,0.7,2.1,1.1,3.1
				c0.4,0.9,1.8,0.5,1.4-0.4c-0.5-1.1-1-1.5-0.3-2.4c0.3-0.4,1.1-0.4,1.4-0.9c0.9-1.5-0.6-2.7-1.8-3.4c0,0.4,0,0.9,0,1.3
				c1-0.5,1.6-1.3,1.3-2.5c-0.1-0.5-0.6-0.8-0.7-1.2c-0.5-1.8-0.3-0.1,0.3-1.2c0.5-1.1,0.6-0.6,0.9-1.8c0.1-0.3-0.8-0.7-0.7-0.8
				c-0.1,0.3,1.6-1.2,1.5-1.1c0.2-0.3,0.3-0.8,0-1.1c-1-0.8-2-1.5-3.2-2.1c-0.1,0.5-0.1,0.9-0.2,1.4c1.1-0.2,2.3-0.4,3.5-0.5
				c0.4,0,0.7-0.3,0.8-0.8c0.1-0.7,0-0.8-0.3-1.3C40.6,15,39.3,15.7,39.8,16.6L39.8,16.6z"/>
		</g>
	</g>
	<g id="XMLID_7_">
		<g id="XMLID_37_">
			<path id="XMLID_41_" class="st1" d="M37.2,34.2c-3-0.1-6-0.3-9-0.7c-1-0.1-0.9,1.4,0,1.5c3,0.4,6,0.6,9,0.7
				C38.2,35.7,38.2,34.2,37.2,34.2L37.2,34.2z"/>
		</g>
	</g>
	<g id="XMLID_9_">
		<g id="XMLID_44_">
			<path id="XMLID_48_" class="st1" d="M29.8,12.5c-1.8,5.3-2.5,10.8-3,16.4c-0.6,6.1-2.2,12-2.9,18.1c-0.8,6.2-0.9,12.3-1.9,18.4
				c-1,6-1.9,11.9-1.9,18.1c0,1,1.5,1,1.5,0c-0.1-6.6,1.1-13,2.1-19.4c0.8-5.2,1-10.3,1.5-15.5c0.5-5.4,2.2-10.7,2.7-16.1
				c0.7-6.6,1.2-13.2,3.3-19.5C31.5,12,30.1,11.6,29.8,12.5L29.8,12.5z"/>
		</g>
	</g>
	<g id="XMLID_10_">
		<g id="XMLID_51_">
			<path id="XMLID_55_" class="st1" d="M30.5,12.3c0.1-0.8-0.6-1.3-1.3-1.5c-1.2-0.3-2.4-0.4-3.6-0.6c-0.9-0.2-1.3,1.3-0.4,1.4
				c0.7,0.1,1.5,0.3,2.2,0.4c0.3,0.1,0.6,0.1,1,0.2c0.2,0,0.3,0.1,0.5,0.1c0.2,0.1,0.2,0.1,0.1,0C28.9,13.3,30.4,13.3,30.5,12.3
				L30.5,12.3z"/>
		</g>
	</g>
	<g id="XMLID_11_">
		<g id="XMLID_58_">
			<path id="XMLID_62_" class="st1" d="M24.7,10.8c-1.5,2.4-1.8,4.8-2,7.6c-0.3,4.7-1.5,9-2.2,13.7c-1.1,7.3-2.4,14.5-2.5,21.9
				C18,62.5,15,70.7,14.2,79.2c-0.4,4.3,2.4,5.4,6.5,5.1c1-0.1,1-1.6,0-1.5c-1.4,0.5-2.5,0.1-3.4-1.1c-1.6-0.4-2.1-1.3-1.5-2.6
				c-0.2-1.4,0.6-3.4,0.8-4.9c0.5-3,1-5.9,1.5-8.9c1-6,0.8-11.8,1.6-17.8c0.3-2.6,1.3-5.1,1.7-7.7c0.5-3.4,0.4-6.7,1.1-10
				c0.5-2.5,1.2-4.9,1.5-7.4c0.4-3.8-0.1-7.4,2-10.8C26.5,10.7,25.2,10,24.7,10.8L24.7,10.8z"/>
		</g>
	</g>
	<g id="XMLID_12_">
		<g id="XMLID_65_">
			<path id="XMLID_69_" class="st1" d="M33.3,18.5c-0.1-0.1-0.1-0.1-0.2-0.2c-0.7-0.7-1.7,0.4-1.1,1.1c0.1,0.1,0.1,0.1,0.2,0.2
				C32.9,20.2,34,19.1,33.3,18.5L33.3,18.5z"/>
		</g>
	</g>
	<g id="XMLID_19_">
		<g id="XMLID_72_">
			<path id="XMLID_76_" class="st1" d="M32.6,19.4c1,0,1-1.5,0-1.5C31.6,17.9,31.6,19.4,32.6,19.4L32.6,19.4z"/>
		</g>
	</g>
	<g id="XMLID_21_">
		<g id="XMLID_79_">
			<path id="XMLID_83_" class="st1" d="M33.6,17.6c-1.4,0-2.8,0-4.2,0c-1,0-1,1.5,0,1.5c1.4,0,2.8,0,4.2,0
				C34.5,19.1,34.5,17.6,33.6,17.6L33.6,17.6z"/>
		</g>
	</g>
	<g id="XMLID_28_">
		<g id="XMLID_86_">
			<path id="XMLID_90_" class="st1" d="M35.2,20.2c-1.7-0.2-3.3-0.2-5-0.1c-1,0.1-1,1.6,0,1.5c1.7-0.2,3.3-0.1,5,0.1
				C36.2,21.9,36.2,20.3,35.2,20.2L35.2,20.2z"/>
		</g>
	</g>
	<g id="XMLID_35_">
		<g id="XMLID_93_">
			<path id="XMLID_97_" class="st1" d="M31.6,22.2c-1.1,0.1-2.2,0-3.3-0.1c-0.9-0.2-1.4,1.3-0.4,1.4c1.2,0.2,2.5,0.3,3.7,0.2
				C32.5,23.7,32.5,22.2,31.6,22.2L31.6,22.2z"/>
		</g>
	</g>
	<g id="XMLID_42_">
		<g id="XMLID_100_">
			<path id="XMLID_104_" class="st1" d="M33.9,24.6c-1.9-0.1-3.8-0.1-5.7-0.2c-1,0-1,1.5,0,1.5c1.9,0.1,3.8,0.1,5.7,0.2
				C34.9,26.1,34.9,24.6,33.9,24.6L33.9,24.6z"/>
		</g>
	</g>
	<g id="XMLID_49_">
		<g id="XMLID_107_">
			<path id="XMLID_111_" class="st1" d="M33.4,26.7c-1.7,0.2-3.4,0.2-5.2,0.2c-1,0-1,1.5,0,1.5c1.7,0.1,3.4,0,5.2-0.2
				C34.4,28.1,34.4,26.6,33.4,26.7L33.4,26.7z"/>
		</g>
	</g>
	<g id="XMLID_56_">
		<g id="XMLID_114_">
			<path id="XMLID_118_" class="st1" d="M31.7,29.4c-1.3,0-2.7,0-4,0c-1,0-1,1.5,0,1.5c1.3,0,2.7,0,4,0
				C32.7,30.9,32.7,29.4,31.7,29.4L31.7,29.4z"/>
		</g>
	</g>
	<g id="XMLID_63_">
		<g id="XMLID_121_">
			<path id="XMLID_125_" class="st1" d="M33.4,31.6c-2.1,0-4.1,0-6.2,0c-1,0-1,1.5,0,1.5c2.1,0,4.1,0,6.2,0
				C34.4,33.1,34.4,31.6,33.4,31.6L33.4,31.6z"/>
		</g>
	</g>
</g>
<g id="toilet_tissues">
	<g id="XMLID_113_">
		<g id="XMLID_919_">
			<path id="XMLID_923_" class="st2" d="M-61.3,111.4c3.3,0.1,6.4,0.9,9.5,2c1.7,0.6,3.4,1.3,5,2.1c1.1,0.5,2.1,1.2,3,2
				c0.2,1.8,0.5,3.6,0.7,5.4c-0.9,2.2-8.1,3.2-10.3,3.6c-3.5,0.6-7.1,0.8-10.7,0.7c-3.6-0.1-7.2-0.5-10.7-1.1
				c-1.1-0.2-2.6-0.2-3.6-0.7c-1.8,0-2.5-1.2-2.1-3.4c-1.5-1.9-1.4-3.2,0.3-4c1.9-2.4,6.6-3.9,9.4-4.9c3.5-1.2,7-1.8,10.7-2
				c1-0.1,1-1.6,0-1.5c-5,0.3-9.9,1.3-14.5,3.4c-3.2,1.4-8.6,3.8-9.5,7.7c-1.9,8.3,15.2,8,20,8.1c5.5,0.2,11.1-0.4,16.4-1.9
				c2.7-0.8,6.7-2.1,7.1-5.5c1-8-15.4-11.2-20.7-11.5C-62.3,109.9-62.3,111.4-61.3,111.4L-61.3,111.4z"/>
		</g>
	</g>
	<g id="XMLID_120_">
		<g id="XMLID_926_">
			<path id="XMLID_930_" class="st2" d="M-41.7,121.3c-0.3,17.7,0.4,35.3,2.2,52.8c0.1,1,1.6,1,1.5,0c-1.8-17.6-2.5-35.2-2.2-52.8
				C-40.2,120.3-41.7,120.3-41.7,121.3L-41.7,121.3z"/>
		</g>
	</g>
	<g id="XMLID_127_">
		<g id="XMLID_933_">
			<path id="XMLID_937_" class="st2" d="M-84.4,123.1c1.2,9,0.2,18.1,0.9,27.1c0.6,8.4,2.7,16.6,3.1,25c0.1,1,1.6,1,1.5,0
				c-0.4-8.4-2.5-16.6-3.1-25c-0.7-9,0.2-18.1-0.9-27.1C-83,122.2-84.5,122.2-84.4,123.1L-84.4,123.1z"/>
		</g>
	</g>
	<g id="XMLID_128_">
		<g id="XMLID_940_">
			<path id="XMLID_944_" class="st2" d="M-40.2,174.7c-1.2,2.6-7.4,3.6-9.9,4.1c-3.5,0.7-7,1-10.5,0.9c-7.1-0.2-14-2-20.4-5.1
				c-0.9-0.4-1.6,0.9-0.8,1.3c7.4,3.6,15.4,5.5,23.6,5.3c3.9-0.1,7.9-0.7,11.7-1.7c2.6-0.7,6.4-1.3,7.6-4
				C-38.5,174.5-39.8,173.8-40.2,174.7L-40.2,174.7z"/>
		</g>
	</g>
	<g id="XMLID_129_">
		<g id="XMLID_947_">
			<path id="XMLID_951_" class="st2" d="M-63.3,117.2c1.4,0,3.8,0,5,0.8c0.9,0.1,1,0.8,0.4,2c-0.3,0-0.6,0.1-0.9,0.1
				c-0.7,0.2-1.8,0.1-2.6,0.1c-0.8,0-3.8,0.3-4.3-0.3c-2.2-2.5,4-2.7,4.5-2.8c1-0.1,1-1.6,0-1.5c-2.1,0.1-7,0.4-7,3.5
				c0.1,3,4.8,2.6,6.7,2.6c1.7,0,6.9,0.3,6.5-2.8c-0.4-2.9-6.4-3.1-8.5-3.2C-64.3,115.7-64.3,117.2-63.3,117.2L-63.3,117.2z"/>
		</g>
	</g>
	<g id="XMLID_130_">
		<g id="XMLID_954_">
			<path id="XMLID_958_" class="st2" d="M-38.1,96.4c4.5-0.9,9.1-0.8,13.4,0.9c3,0.5,4.2,2.5,3.5,5.9c-1.5,0.7-3,1.2-4.6,1.3
				c-2.3,0.4-4.7,0.5-7.1,0.6c-1.9,0-3.8,0-5.8-0.1c-2-0.1-7,0.3-8.4-1.1c-0.7-2.1-1.4-4.1-2.1-6.2c1.5-0.6,3-1.1,4.5-1.5
				c2.9-0.7,5.8-0.7,8.7-0.5c1,0.1,1-1.4,0-1.5c-3.8-0.2-16.7-0.3-16.7,5.9c-0.1,7.8,16.4,6.5,20.7,6.3c3-0.1,16.8-0.7,13.7-6.8
				c-1.3-2.6-5.8-3.9-8.3-4.6c-4-1.1-8-1-12-0.2C-39.5,95.1-39.1,96.6-38.1,96.4L-38.1,96.4z"/>
		</g>
	</g>
	<g id="XMLID_741_">
		<g id="XMLID_961_">
			<path id="XMLID_965_" class="st2" d="M-34.5,100c0.7,0,3.6-0.1,2.8,1.1c-0.5,0.7-3.7,0.5-4.5,0.4c-0.7,0-1.7,0-2.3-0.3
				c-0.6-0.3-1.1-0.2-0.5-0.7C-38.3,99.7-35.6,100-34.5,100c1,0.1,1-1.4,0-1.5c-1.6-0.1-6.7-0.4-7,2.1c-0.3,2.3,4.2,2.4,5.6,2.4
				c1.6,0.1,5.9,0.1,6.3-2.1c0.4-2.3-3.5-2.5-4.9-2.5C-35.5,98.5-35.5,100-34.5,100L-34.5,100z"/>
		</g>
	</g>
	<g id="XMLID_755_">
		<g id="XMLID_968_">
			<path id="XMLID_972_" class="st2" d="M-18.9,102c-0.2,18.4-0.1,36.9,0.4,55.3c0,1,1.5,1,1.5,0c-0.5-18.4-0.6-36.9-0.4-55.3
				C-17.4,101-18.9,101-18.9,102L-18.9,102z"/>
		</g>
	</g>
	<g id="XMLID_917_">
		<g id="XMLID_975_">
			<path id="XMLID_979_" class="st2" d="M-17.8,156.9c-3,0.9-6,1.6-9,2.1c-3.2,0.5-9.3,1.8-12.2-0.2c-0.8-0.5-1.6,0.8-0.8,1.3
				c2.8,1.9,6.9,1.1,10.1,0.8c4.2-0.4,8.3-1.3,12.3-2.5C-16.5,158-16.9,156.6-17.8,156.9L-17.8,156.9z"/>
		</g>
	</g>
	<g id="XMLID_924_">
		<g id="XMLID_982_">
			<path id="XMLID_986_" class="st2" d="M-53,101.1c0.2,3.8,0.4,7.6,0.4,11.3c0,1,1.5,1,1.5,0c-0.1-3.8-0.2-7.6-0.4-11.3
				C-51.6,100.2-53.1,100.1-53,101.1L-53,101.1z"/>
		</g>
	</g>
	<g id="XMLID_931_">
		<g id="XMLID_989_">
			<path id="XMLID_993_" class="st2" d="M-43.6,137.2c-1.3,0.3-2.7,0.4-4.1,0.3c-0.5,0-0.5,0.7,0,0.8c1.4,0.1,2.9,0,4.3-0.3
				C-42.9,137.8-43.1,137.1-43.6,137.2L-43.6,137.2z"/>
		</g>
	</g>
	<g id="XMLID_938_">
		<g id="XMLID_996_">
			<path id="XMLID_1000_" class="st2" d="M-47,142.4c-0.8,0.1-1.6,0.1-2.3,0.2c-0.5,0-0.5,0.8,0,0.8c0.8-0.1,1.6-0.1,2.3-0.2
				C-46.5,143.1-46.5,142.4-47,142.4L-47,142.4z"/>
		</g>
	</g>
	<g id="XMLID_945_">
		<g id="XMLID_1003_">
			<path id="XMLID_1007_" class="st2" d="M-63.8,136.1c-0.8,0-1.6,0-2.3,0c-0.5,0-0.5,0.8,0,0.8c0.8,0,1.6,0,2.3,0
				C-63.4,136.8-63.3,136.1-63.8,136.1L-63.8,136.1z"/>
		</g>
	</g>
	<g id="XMLID_952_">
		<g id="XMLID_1010_">
			<path id="XMLID_1014_" class="st2" d="M-66.7,142.1c-0.5,0-1,0-1.5,0c-0.5,0-0.5,0.8,0,0.8c0.2,0,0.3,0,0.5,0
				c0.5,0,0.5-0.8,0-0.8c-0.2,0-0.3,0-0.5,0c0,0.2,0,0.5,0,0.8c0.5,0,1,0,1.5,0C-66.2,142.8-66.2,142.1-66.7,142.1L-66.7,142.1z"/>
		</g>
	</g>
	<g id="XMLID_959_">
		<g id="XMLID_1017_">
			<path id="XMLID_1021_" class="st2" d="M-69.3,153.9c-1.3,0.2-2.5,0.1-3.7-0.4c-0.4-0.2-0.8,0.5-0.4,0.6c1.4,0.6,2.8,0.8,4.3,0.5
				C-68.6,154.6-68.8,153.8-69.3,153.9L-69.3,153.9z"/>
		</g>
	</g>
	<g id="XMLID_966_">
		<g id="XMLID_1024_">
			<path id="XMLID_1028_" class="st2" d="M-77.6,144.6c-0.5-0.2-1.1-0.4-1.6-0.6c-0.4-0.1-0.7,0.5-0.3,0.7c0.2,0.1,0.3,0.2,0.5,0.3
				c0.4,0.2,0.8-0.4,0.4-0.6c-0.2-0.1-0.3-0.2-0.5-0.3c-0.1,0.2-0.2,0.5-0.3,0.7c0.5,0.2,1.1,0.4,1.6,0.6
				C-77.3,145.5-77.1,144.7-77.6,144.6L-77.6,144.6z"/>
		</g>
	</g>
	<g id="XMLID_973_">
		<g id="XMLID_1031_">
			<path id="XMLID_1035_" class="st2" d="M-73.7,131.6c-1-0.2-2-0.5-3-0.7c-0.5-0.1-0.7,0.6-0.2,0.7c1,0.2,2,0.5,3,0.7
				C-73.5,132.4-73.3,131.7-73.7,131.6L-73.7,131.6z"/>
		</g>
	</g>
	<g id="XMLID_980_">
		<g id="XMLID_1038_">
			<path id="XMLID_1042_" class="st2" d="M-51.8,132.7c-0.9,0.1-1.8,0.1-2.7,0.2c-0.5,0-0.5,0.8,0,0.8c0.9-0.1,1.8-0.1,2.7-0.2
				C-51.4,133.5-51.4,132.7-51.8,132.7L-51.8,132.7z"/>
		</g>
	</g>
	<g id="XMLID_987_">
		<g id="XMLID_1045_">
			<path id="XMLID_1049_" class="st2" d="M-55.8,148.8c-1.5,0.3-3,0.5-4.6,0.5c-0.5,0-0.5,0.8,0,0.8c1.6,0,3.2-0.2,4.8-0.5
				C-55.1,149.4-55.3,148.7-55.8,148.8L-55.8,148.8z"/>
		</g>
	</g>
	<g id="XMLID_994_">
		<g id="XMLID_1052_">
			<path id="XMLID_1056_" class="st2" d="M-44.5,153.2c-1.4,0.2-2.8,0.3-4.2,0.5c-0.5,0.1-0.5,0.8,0,0.8c1.4-0.2,2.8-0.3,4.2-0.5
				C-44,153.9-44,153.2-44.5,153.2L-44.5,153.2z"/>
		</g>
	</g>
	<g id="XMLID_1001_">
		<g id="XMLID_1059_">
			<path id="XMLID_1063_" class="st2" d="M-45,156.1c-0.7,0.4-1.5,0.5-2.3,0.5c-0.5,0-0.5,0.7,0,0.8c0.9,0.1,1.8-0.1,2.7-0.6
				C-44.2,156.6-44.6,155.9-45,156.1L-45,156.1z"/>
		</g>
	</g>
	<g id="XMLID_1008_">
		<g id="XMLID_1066_">
			<path id="XMLID_1070_" class="st2" d="M-54.3,163.3c-2,0.3-4,0.4-6.1,0.3c-0.5,0-0.5,0.7,0,0.8c2.1,0.1,4.2-0.1,6.3-0.3
				C-53.6,163.9-53.8,163.2-54.3,163.3L-54.3,163.3z"/>
		</g>
	</g>
	<g id="XMLID_1015_">
		<g id="XMLID_1073_">
			<path id="XMLID_1077_" class="st2" d="M-60.2,160.2c-0.9,0-1.8,0-2.7,0c-0.5,0-0.5,0.8,0,0.8c0.9,0,1.8,0,2.7,0
				C-59.7,161-59.7,160.2-60.2,160.2L-60.2,160.2z"/>
		</g>
	</g>
	<g id="XMLID_1022_">
		<g id="XMLID_1080_">
			<path id="XMLID_1084_" class="st2" d="M-74.7,162.1c-1,0-1.9-0.2-2.8-0.7c-0.4-0.2-0.8,0.4-0.4,0.6c1,0.5,2.1,0.7,3.2,0.8
				C-74.2,162.9-74.2,162.1-74.7,162.1L-74.7,162.1z"/>
		</g>
	</g>
	<g id="XMLID_1029_">
		<g id="XMLID_1087_">
			<path id="XMLID_1091_" class="st2" d="M-68.3,170.9c-1.2,0-2.3-0.2-3.4-0.5c-0.5-0.1-0.7,0.6-0.2,0.7c1.2,0.3,2.4,0.5,3.6,0.5
				C-67.9,171.7-67.9,170.9-68.3,170.9L-68.3,170.9z"/>
		</g>
	</g>
	<g id="XMLID_1036_">
		<g id="XMLID_1094_">
			<path id="XMLID_1098_" class="st2" d="M-62.3,176.7c-1.2,0.1-2.3,0.1-3.4-0.3c-0.5-0.1-0.7,0.6-0.2,0.7c1.2,0.3,2.4,0.4,3.6,0.3
				C-61.9,177.4-61.9,176.7-62.3,176.7L-62.3,176.7z"/>
		</g>
	</g>
	<g id="XMLID_1043_">
		<g id="XMLID_1101_">
			<path id="XMLID_1105_" class="st2" d="M-48.7,170.9c-0.8,0-1.6,0-2.3,0c-0.5,0-0.5,0.8,0,0.8c0.8,0,1.6,0,2.3,0
				C-48.2,171.7-48.2,170.9-48.7,170.9L-48.7,170.9z"/>
		</g>
	</g>
	<g id="XMLID_1050_">
		<g id="XMLID_1108_">
			<path id="XMLID_1112_" class="st2" d="M-40.7,164.4c-0.2,0-0.3,0-0.5,0c-0.5,0-0.5,0.8,0,0.8c0.2,0,0.3,0,0.5,0
				C-40.2,165.1-40.2,164.4-40.7,164.4L-40.7,164.4z"/>
		</g>
	</g>
	<g id="XMLID_1057_">
		<g id="XMLID_1115_">
			<path id="XMLID_1119_" class="st2" d="M-42.7,169.1c-0.3,0.2-0.7,0.3-1,0.5c-0.4,0.2-0.1,0.9,0.4,0.6c0.3-0.2,0.7-0.3,1-0.5
				C-41.9,169.6-42.3,168.9-42.7,169.1L-42.7,169.1z"/>
		</g>
	</g>
	<g id="XMLID_1064_">
		<g id="XMLID_1122_">
			<path id="XMLID_1126_" class="st2" d="M-29.8,123.1c-1.2,0.2-2.4,0.2-3.7,0.2c-0.5,0-0.5,0.7,0,0.8c1.2,0,2.4,0,3.7-0.2
				C-29.4,123.8-29.4,123-29.8,123.1L-29.8,123.1z"/>
		</g>
	</g>
	<g id="XMLID_1071_">
		<g id="XMLID_1129_">
			<path id="XMLID_1133_" class="st2" d="M-20.6,115.6c-1.1,0.4-2.2,0.7-3.4,0.8c-0.5,0.1-0.5,0.8,0,0.8c1.2-0.2,2.4-0.4,3.6-0.9
				C-20,116.1-20.1,115.4-20.6,115.6L-20.6,115.6z"/>
		</g>
	</g>
	<g id="XMLID_1078_">
		<g id="XMLID_1136_">
			<path id="XMLID_1140_" class="st2" d="M-25.4,113c-0.9,0.2-1.9,0.5-2.8,0.7c-0.5,0.1-0.3,0.8,0.2,0.7c0.9-0.2,1.9-0.5,2.8-0.7
				C-24.8,113.6-25,112.8-25.4,113L-25.4,113z"/>
		</g>
	</g>
	<g id="XMLID_1085_">
		<g id="XMLID_1143_">
			<path id="XMLID_1147_" class="st2" d="M-36.8,117.9c-0.2,0-0.4,0-0.7,0c-0.5,0-0.5,0.8,0,0.8c0.2,0,0.4,0,0.7,0
				C-36.4,118.7-36.3,117.9-36.8,117.9L-36.8,117.9z"/>
		</g>
	</g>
	<g id="XMLID_1092_">
		<g id="XMLID_1150_">
			<path id="XMLID_1154_" class="st2" d="M-36.5,114.4c-0.9,0.1-1.7,0-2.6-0.2c-0.5-0.1-0.7,0.6-0.2,0.7c0.9,0.2,1.8,0.2,2.8,0.2
				C-36,115.1-36,114.4-36.5,114.4L-36.5,114.4z"/>
		</g>
	</g>
	<g id="XMLID_1099_">
		<g id="XMLID_1157_">
			<path id="XMLID_1161_" class="st2" d="M-42,109.7c-1.1,0.1-2.2,0-3.2-0.3c-0.5-0.1-0.7,0.6-0.2,0.7c1.1,0.3,2.3,0.4,3.4,0.3
				C-41.5,110.5-41.5,109.7-42,109.7L-42,109.7z"/>
		</g>
	</g>
	<g id="XMLID_1106_">
		<g id="XMLID_1164_">
			<path id="XMLID_1168_" class="st2" d="M-23.8,107.9c-0.8,0.2-1.7,0.4-2.5,0.7c-0.5,0.1-0.3,0.8,0.2,0.7c0.8-0.2,1.7-0.4,2.5-0.7
				C-23.1,108.5-23.3,107.8-23.8,107.9L-23.8,107.9z"/>
		</g>
	</g>
	<g id="XMLID_1113_">
		<g id="XMLID_1171_">
			<path id="XMLID_1175_" class="st2" d="M-23.9,127.3c-1.2,0.5-2.4,0.7-3.6,0.6c-0.5,0-0.5,0.7,0,0.8c1.4,0.1,2.7-0.1,4-0.7
				C-23,127.7-23.4,127.1-23.9,127.3L-23.9,127.3z"/>
		</g>
	</g>
	<g id="XMLID_1120_">
		<g id="XMLID_1178_">
			<path id="XMLID_1182_" class="st2" d="M-29,134.9c-1.4,0.1-2.8,0.1-4.2,0.2c-0.5,0-0.5,0.8,0,0.8c1.4-0.1,2.8-0.1,4.2-0.2
				C-28.5,135.6-28.5,134.9-29,134.9L-29,134.9z"/>
		</g>
	</g>
	<g id="XMLID_1127_">
		<g id="XMLID_1185_">
			<path id="XMLID_1189_" class="st2" d="M-34,131.9c-0.2,0-0.4,0-0.7,0c-0.5,0-0.5,0.8,0,0.8c0.2,0,0.4,0,0.7,0
				C-33.5,132.7-33.5,131.9-34,131.9L-34,131.9z"/>
		</g>
	</g>
	<g id="XMLID_1134_">
		<g id="XMLID_1192_">
			<path id="XMLID_1196_" class="st2" d="M-33,143.1c-1.4,0-2.7-0.2-4.1-0.6c-0.5-0.2-0.7,0.6-0.2,0.7c1.4,0.5,2.8,0.7,4.3,0.7
				C-32.5,143.8-32.5,143.1-33,143.1L-33,143.1z"/>
		</g>
	</g>
	<g id="XMLID_1141_">
		<g id="XMLID_1199_">
			<path id="XMLID_1203_" class="st2" d="M-20.9,139.4c-0.2,0.1-0.4,0.1-0.7,0.2c-0.5,0.1-0.3,0.8,0.2,0.7c0.2-0.1,0.4-0.1,0.7-0.2
				C-20.3,140-20.5,139.3-20.9,139.4L-20.9,139.4z"/>
		</g>
	</g>
	<g id="XMLID_1148_">
		<g id="XMLID_1206_">
			<path id="XMLID_1210_" class="st2" d="M-26.5,141.9c-0.7,0.1-1.4,0.1-2.2,0.2c-0.5,0-0.5,0.8,0,0.8c0.7-0.1,1.4-0.1,2.2-0.2
				C-26,142.6-26,141.9-26.5,141.9L-26.5,141.9z"/>
		</g>
	</g>
	<g id="XMLID_1155_">
		<g id="XMLID_1213_">
			<path id="XMLID_1217_" class="st2" d="M-21.1,149.6c-1.4,0.5-2.9,0.8-4.4,1c-0.5,0.1-0.5,0.8,0,0.8c1.6-0.2,3.1-0.5,4.6-1
				C-20.4,150.2-20.6,149.4-21.1,149.6L-21.1,149.6z"/>
		</g>
	</g>
	<g id="XMLID_1162_">
		<g id="XMLID_1220_">
			<path id="XMLID_1224_" class="st2" d="M-31.5,155.1c-0.6,0.3-1.2,0.4-1.8,0.5c-0.5,0-0.5,0.8,0,0.8c0.8-0.1,1.5-0.2,2.2-0.6
				C-30.7,155.6-31.1,154.9-31.5,155.1L-31.5,155.1z"/>
		</g>
	</g>
	<g id="XMLID_1169_">
		<g id="XMLID_1227_">
			<path id="XMLID_1231_" class="st2" d="M-32.2,151.5c0.5,0,0.5-0.8,0-0.8C-32.6,150.7-32.7,151.5-32.2,151.5L-32.2,151.5z"/>
		</g>
	</g>
	<g id="XMLID_1176_">
		<g id="XMLID_1234_">
			<path id="XMLID_1238_" class="st2" d="M-37.2,152.6c-0.5,0.1-1.1,0-1.6-0.2c-0.5-0.2-0.6,0.6-0.2,0.7c0.6,0.2,1.2,0.3,1.8,0.2
				C-36.7,153.3-36.7,152.6-37.2,152.6L-37.2,152.6z"/>
		</g>
	</g>
</g>
<g id="straw">
</g>
<g id="food_wrap">
	<g id="XMLID_196_">
		<g id="XMLID_766_">
			<path id="XMLID_773_" class="st3" d="M127.5-50.7c-9.8-3.2-20.2-3.1-30.4-3.2c-10.3-0.1-20.5,0.5-30.3,3.7
				c-0.9,0.3-0.5,1.7,0.4,1.4c9.7-3.2,19.8-3.7,29.9-3.6c10,0.1,20.3,0,30,3.1C128-48.9,128.4-50.4,127.5-50.7L127.5-50.7z"/>
		</g>
	</g>
	<g id="XMLID_233_">
		<g id="XMLID_758_">
			<path id="XMLID_762_" class="st3" d="M127.2-49.5c1.5,5,3,10.1,4.5,15.1c0.2-0.3,0.3-0.6,0.5-0.9c-2.9,1.1-5.9,2.3-8.8,3.4
				c0.3,0.4,0.6,0.7,0.8,1.1c1.5-3.4,2.4-6.8,2.5-10.5c0-1-1.5-1-1.5,0c-0.1,3.5-0.9,6.6-2.3,9.8c-0.2,0.5,0.2,1.4,0.8,1.1
				c2.9-1.1,5.9-2.3,8.8-3.4c0.4-0.1,0.7-0.5,0.5-0.9c-1.5-5-3-10.1-4.5-15.1C128.3-50.8,126.9-50.4,127.2-49.5L127.2-49.5z"/>
		</g>
	</g>
	<g id="XMLID_234_">
		<g id="XMLID_750_">
			<path id="XMLID_754_" class="st3" d="M123.8-36.2c-1.6-0.1-3.2-0.2-4.8-0.4c-1-0.1-1,1.4,0,1.5c1.6,0.1,3.2,0.2,4.8,0.4
				C124.7-34.6,124.7-36.1,123.8-36.2L123.8-36.2z"/>
		</g>
	</g>
	<g id="XMLID_235_">
		<g id="XMLID_743_">
			<path id="XMLID_747_" class="st3" d="M119.4-42.6c-0.8,3.3-0.7,7.4-1.6,10.6c-0.7,2.2-1.2,2-3.5,1.8c-2.9-0.2-3.6-1-0.9-3.4
				c0.5-0.4,0.1-1.3-0.5-1.3c-4.3,0.4-8.6,0.8-12.9,1.2c-0.6,0.1-0.9,0.6-0.6,1.1c0.5,1.2,1.1,2,2,3c0.2-0.4,0.4-0.9,0.5-1.3
				c-2.1,0-4.3-0.1-6.4-0.2c-3-0.2-4.2-0.8-1.4-3.6c0.5-0.5,0.1-1.3-0.5-1.3c-4,0-8.1,0-12.1,0c-0.7,0-0.9,0.8-0.5,1.3
				c1.1,1.4,2.1,2.6,3.4,3.8c0.7,0.7,1.7-0.4,1.1-1.1c-1.2-1.2-2.3-2.4-3.4-3.8c-0.2,0.4-0.4,0.9-0.5,1.3c4,0,8.1,0,12.1,0
				c-0.2-0.4-0.4-0.9-0.5-1.3c-1.5,1.4-2.3,2.9-2.8,4.9c-0.1,0.5,0.2,0.9,0.7,0.9c3.7,0.3,7.3,0.4,11,0.5c0.7,0,1-0.8,0.5-1.3
				c-0.8-0.7-1.4-1.6-1.8-2.6c-0.2,0.4-0.4,0.8-0.6,1.1c4.3-0.4,8.6-0.8,12.9-1.2c-0.2-0.4-0.4-0.9-0.5-1.3
				c-1.5,1.4-2.4,2.8-2.9,4.7c-0.1,0.5,0.3,0.9,0.7,0.9c2.8,0.2,5.6,0.4,8.4,0.6c0.4,0,0.7-0.4,0.8-0.8c0.1-4.4,0.6-8.7,1.7-13.1
				C121-43.2,119.6-43.6,119.4-42.6L119.4-42.6z"/>
		</g>
	</g>
	<g id="XMLID_253_">
		<g id="XMLID_736_">
			<path id="XMLID_740_" class="st3" d="M94.4-46.4c-0.5,4.1-1.2,8.2-2.2,12.3c-0.2,0.9,1.2,1.3,1.4,0.4c1-4.2,1.8-8.4,2.3-12.7
				C96.1-47.4,94.6-47.4,94.4-46.4L94.4-46.4z"/>
		</g>
	</g>
	<g id="XMLID_255_">
		<g id="XMLID_729_">
			<path id="XMLID_733_" class="st3" d="M100.2-39.8c0.1,2.1,0,4.2-0.3,6.3c-0.1,0.9,1.3,1.4,1.4,0.4c0.3-2.2,0.4-4.4,0.4-6.7
				C101.6-40.8,100.1-40.8,100.2-39.8L100.2-39.8z"/>
		</g>
	</g>
	<g id="XMLID_324_">
		<g id="XMLID_722_">
			<path id="XMLID_726_" class="st3" d="M109.8-42.7c0.7,3.1,1.4,6.1,2.1,9.2c0.2,0.9,1.7,0.5,1.4-0.4c-0.8-3.1-1.5-6.1-2.1-9.2
				C111-44.1,109.6-43.7,109.8-42.7L109.8-42.7z"/>
		</g>
	</g>
	<g id="XMLID_413_">
		<g id="XMLID_715_">
			<path id="XMLID_719_" class="st3" d="M81.7-44.2c-0.7,2.9-1.6,5.7-2.5,8.5c-0.3,0.9,1.1,1.3,1.4,0.4c0.9-2.8,1.8-5.6,2.5-8.5
				C83.4-44.7,82-45.1,81.7-44.2L81.7-44.2z"/>
		</g>
	</g>
	<g id="XMLID_483_">
		<g id="XMLID_708_">
			<path id="XMLID_712_" class="st3" d="M82.9-32.2c-3.2,0.1-6.3,0.1-9.5,0.2c-1,0-1,1.5,0,1.5c3.2-0.1,6.3-0.1,9.5-0.2
				C83.9-30.8,83.9-32.3,82.9-32.2L82.9-32.2z"/>
		</g>
	</g>
	<g id="XMLID_490_">
		<g id="XMLID_701_">
			<path id="XMLID_705_" class="st3" d="M74.7-42.2c-0.5,3.4-1.2,6.7-2.1,10c-0.3,0.9,1.2,1.3,1.4,0.4c0.9-3.3,1.6-6.6,2.1-10
				C76.3-42.7,74.9-43.1,74.7-42.2L74.7-42.2z"/>
		</g>
	</g>
	<g id="XMLID_511_">
		<g id="XMLID_694_">
			<path id="XMLID_698_" class="st3" d="M127.5-32.3c-0.8,5.3-2.3,10.4-4.7,15.2c-1.6,3.3-2.8,5.6-6.6,6.5c-2.6,0.6-5.6,0.7-8.3,1
				C96.5-8.4,85.1-8.1,74-10.8C73-11,72.6-9.5,73.6-9.3c13.5,3.2,27.2,2.2,40.8,0.5c5-0.6,6-0.8,8.5-5.3c3.2-5.5,5.1-11.6,6.1-17.9
				C129.1-32.9,127.6-33.3,127.5-32.3L127.5-32.3z"/>
		</g>
	</g>
	<g id="XMLID_518_">
		<g id="XMLID_687_">
			<path id="XMLID_691_" class="st3" d="M65.8-34.2c1.3,8.6,3.9,16.9,7.5,24.8c0.4,0.9,1.7,0.1,1.3-0.8c-3.6-7.8-6-16-7.4-24.5
				C67.1-35.6,65.6-35.2,65.8-34.2L65.8-34.2z"/>
		</g>
	</g>
	<g id="XMLID_497_">
		<g id="XMLID_680_">
			<path id="XMLID_684_" class="st3" d="M66.2-50.2c-1,0.4-2,0.7-3,1.1c-0.9,0.3-0.5,1.8,0.4,1.4c1-0.4,2-0.7,3-1.1
				C67.5-49.1,67.1-50.5,66.2-50.2L66.2-50.2z"/>
		</g>
	</g>
	<g id="XMLID_504_">
		<g id="XMLID_673_">
			<path id="XMLID_677_" class="st3" d="M61.8-48.1c0,2.6-2,5.3-3,7.7c-0.8,1.8-1.4,3.7-1.8,5.6c-0.1,0.5,0.2,1,0.7,0.9
				c5.5-0.2,10.9-0.5,16.3-0.9c1-0.1,1-1.6,0-1.5c-5.4,0.4-10.9,0.7-16.3,0.9c0.2,0.3,0.5,0.6,0.7,0.9c0.6-3,1.8-5.7,3.1-8.4
				c0.8-1.7,1.7-3.3,1.7-5.3C63.3-49.1,61.8-49.1,61.8-48.1L61.8-48.1z"/>
		</g>
	</g>
	<g id="XMLID_525_">
		<g id="XMLID_666_">
			<path id="XMLID_670_" class="st3" d="M111.9-49.3c-2.3-0.1-4.4,0.3-6.2,1.8c-0.8,0.6-1.1,2-0.8,2.9c1,3,3.7,3.2,6.5,3.6
				c2.8,0.4,7.2,1.6,9.8,0.2c1.8-1,2.5-3.4,1.6-5.1c-1.4-2.7-5.3-3.4-8-3.7c-2.5-0.3-4.1,3.6-2.1,5.1c1.7,1.4,3.5,2.4,5.8,2.4
				c2.6,0,4.6-2,7.1-1.8c-1-1.3-1.9-2.5-2.9-3.8c-0.3,1.3-0.4,2.2,0.1,3.4c0.4,1.2,1.9,2.6,1.5,4c0.5-0.6,0.9-1.2,1.4-1.8
				c-1.4,1-4.2-2-5.9-2c-1.8,0-3.1,1.3-3.7,2.8c-0.7,1.5-0.3,4.1,1.8,4.4c2.1,0.3,4.2,0.6,6.3,0.9c-0.4-1.7-0.9-3.3-1.3-5
				c-0.1,0.1-0.2,0.2-0.4,0.3c0.7-0.3,1.4-0.6,2.1-0.9c-0.4,0.2-0.8,0.1-1.1-0.3c0.1,0.8,0.2,1.5,0.3,2.3c0.2-0.3,0.4-0.6,0.7-0.9
				c2.6-2.2-0.8-6.6-3.6-4.7c-2.7,1.8-5.7,3.4-8.9,3.9c0.8,0.1,1.5,0.2,2.3,0.3c-0.4-0.3-0.7-0.6-1.1-1c-1.6-2.5-5.5-1.5-5.6,1.5
				c0,2.2-0.5,4.9,1.7,6.3c2.3,1.5,6.2,0.2,8.6,0c3.8-0.4,3.8-6.4,0-6c-1.3,0.1-4.1-0.1-5.2,0.6c-1.5,0-1.2,0.6,0.8,1.9
				c0-0.9,0-1.8,0.1-2.7c-1.9,0.5-3.7,1-5.6,1.5c3.9,6.3,11.1,2.1,15.9-1.1c-1.2-1.6-2.4-3.1-3.6-4.7c-5.8,4.8,2,12.5,6.9,7.9
				c1.5-1.4,0.9-4.7-1.3-5c-2.1-0.3-4.2-0.6-6.3-0.9c0.6,1.5,1.2,2.9,1.8,4.4c0-0.1,0-0.1,0.1-0.2c-1,0-2,0-3,0
				c2.9,1.5,7.2,3.8,10.4,1.6c1.4-1,1.8-2.6,1.7-4.3c0-0.8-0.3-1.6-0.5-2.3c-0.2-0.6-1.4-2.1-1.3-2.6c0.4-2-0.9-3.7-2.9-3.8
				c-1.4-0.1-2.7,0-4,0.5c-1.6,0.6-3,2.1-4.7,0.7c-0.7,1.7-1.4,3.4-2.1,5.1c1.3,0.1,2.4,0.5,3.3,1.4c-0.3-0.7-0.6-1.4-0.9-2.1
				c0,0.2,0,0.4-0.1,0.6c0.3-0.7,0.6-1.4,0.9-2.1c-0.2,0.1-0.3,0.3-0.5,0.4c0.7-0.3,1.4-0.6,2.1-0.9c-2.8,0.3-7.6,0.2-10.2-1
				c0.5,0.6,0.9,1.2,1.4,1.8c-0.1-0.2-0.1-0.4-0.2-0.6c-0.3,1-0.5,1.9-0.8,2.9c0.6,0.1,1.3,0.1,1.9,0
				C115.8-43.1,115.8-49.1,111.9-49.3L111.9-49.3z"/>
		</g>
	</g>
	<g id="XMLID_532_">
		<g id="XMLID_659_">
			<path id="XMLID_663_" class="st3" d="M125-37.5c0.3,1.6,1.3,2.8,2.6,3.8c0.6,0.4,1.7,0.5,2.3,0.3c0.7-0.2,1.4-0.7,1.8-1.4
				c0.4-0.7,0.6-1.5,0.3-2.3c-0.3-0.8-0.7-1.3-1.4-1.8c0.1,0.1,0.5,0.5,0.3,0.2c-0.1-0.1-0.4-0.4-0.1,0c0.3,0.4,0.1,0.1,0,0
				c-0.1-0.1-0.1-0.2-0.2-0.3c0.1,0.2,0.2,0.5,0.3,0.7c-0.1-0.2-0.2-0.5-0.2-0.7c-0.3-1.5-2.2-2.6-3.7-2.1
				C125.5-40.6,124.6-39.1,125-37.5L125-37.5z"/>
		</g>
	</g>
	<g id="XMLID_539_">
		<g id="XMLID_652_">
			<path id="XMLID_656_" class="st3" d="M121.4-51.1c-11.7-0.7-23.3,0-34.8,2c-1.2,0.2-2.3,1.7-2.2,2.9c0.7,6,14.3,14.6,18.6,7.6
				c4.1-6.7-7.6-10.6-11.4-5.6c-1.3,1.7-1,4.3,1.3,5c3.5,1,8.3,2.2,11.9,1.2c1-0.3,2-0.7,2.7-1.6c0.4-0.5,0.7-2.7,0.8-2.7
				c-1.7-0.4-3.3-0.9-5-1.3c0.5,2.1-1.7,3.6-1.1,5.7c0.5,1.7,2.4,2.6,3.7,3.5c0.5-1.9,1-3.7,1.5-5.6c-4.5,0.4-9,0.5-13.5,0.2
				c-3.9-0.2-3.8,5.8,0,6c4.5,0.3,9,0.2,13.5-0.2c2.9-0.3,4.1-3.9,1.5-5.6c-2.2-1.5-0.4,1.6-0.9,1.5c0.3,0,1-2.2,1.1-2.4
				c0.5-1.6,0.3-3.1-0.1-4.7c-0.5-2.4-3.4-2.7-5-1.3c-1,0.8-1,3-1.5,3.4c0.4-0.3-2.3-0.7-2.3-0.7c-2.1-0.3-3.8-0.6-5.8-1.2
				c0.4,1.7,0.9,3.3,1.3,5c0.6-0.6,1.4-0.7,2.2-0.4c-0.8-1.4-1.8-2.4-3.2-3c-0.9-0.6-4.5-2.7-4.5-2.8c-0.7,1-1.5,1.9-2.2,2.9
				c11-1.8,22.1-2.4,33.2-1.7C125.3-44.9,125.3-50.9,121.4-51.1L121.4-51.1z"/>
		</g>
	</g>
	<g id="XMLID_540_">
		<g id="XMLID_645_">
			<path id="XMLID_649_" class="st3" d="M101.9-41.3c0.1,0,0.1,0,0.2,0c1.6,0,3.1-1.4,3-3c-0.1-1.6-1.3-3-3-3c-0.1,0-0.1,0-0.2,0
				c-1.6,0-3.1,1.4-3,3C99-42.7,100.2-41.3,101.9-41.3L101.9-41.3z"/>
		</g>
	</g>
	<g id="XMLID_546_">
		<g id="XMLID_638_">
			<path id="XMLID_642_" class="st3" d="M80.7-47.7c-2.7-0.4-5.7-0.9-8.4-0.1c-2.7,0.7-4.4,3.6-3.2,6.2c1.2,2.6,4.2,2.7,6.7,3.1
				c2.9,0.4,6.5,1.7,9-0.4c0.7-0.7,1.1-2,0.8-2.9c-1.4-3.9-8.7-5.3-11.1-1.7c-1.1,1.8,0.1,3.8,1.8,4.4c1,0.4,1.9,0.6,3,0.8
				c1.6,0.2,3.2-0.4,3.7-2.1c0.4-1.4-0.5-3.5-2.1-3.7c-1-0.1-2-0.4-3-0.8c0.6,1.5,1.2,2.9,1.8,4.4c0.1-0.1,0.2-0.3,0.3-0.4
				c-0.6,0.5-1.2,0.9-1.8,1.4c0.8-0.3,2.2,0.2,2.9,0.6c-0.5-0.6-0.9-1.2-1.4-1.8c0,0.1,0.1,0.3,0.1,0.4c0.3-1,0.5-1.9,0.8-2.9
				c-0.1,0.1-0.2,0.2-0.4,0.3c0.7-0.3,1.4-0.6,2.1-0.9c-1.2,0-2.4-0.2-3.5-0.4c-1.1-0.1-2.8-0.7-3.8-0.5c-0.2,0-0.4-0.1-0.6-0.1
				c-0.1,0.9-0.1,1.7-0.2,2.6c0.1,0.1,1,0,1.2,0c1.3,0,2.5,0.1,3.8,0.2c1.6,0.2,3.2-0.4,3.7-2.1C83.2-45.4,82.3-47.5,80.7-47.7
				L80.7-47.7z"/>
		</g>
	</g>
	<g id="XMLID_553_">
		<g id="XMLID_631_">
			<path id="XMLID_635_" class="st3" d="M81.2-46.1c-0.3,2.5-0.2,5.2,1.9,7c2.3,1.8,5.8,1.7,8.4,2.9c0.2-1.8,0.5-3.7,0.7-5.5
				c-4.3,1.6-10,0.6-14.5,0.5c-5.1-0.1-10.2-0.3-15.3-0.4c0.7,1.7,1.4,3.4,2.1,5.1c2.1-2.4,4.1-4.9,5.9-7.5c0.9-1.2,0.3-3.4-1.1-4.1
				c-5.3-2.5-7.1,2.8-8.8,6.7c-1.6,3.5,3.6,6.5,5.2,3c0.4-0.9,0.8-1.9,1.3-2.8c1.1-1.2,0.9-1.8-0.6-1.8c-0.4-1.4-0.7-2.7-1.1-4.1
				c-1.6,2.2-3.2,4.3-5,6.3c-1.7,2-0.6,5,2.1,5.1c5.7,0.2,11.5,0.3,17.2,0.5c4.6,0.1,9.8,1,14.2-0.7c2.1-0.8,3.3-4.3,0.7-5.5
				c-1.6-0.8-3.2-1.5-5-1.9c-2.5-0.6-2.7-0.1-2.4-2.8C87.7-49.9,81.7-49.9,81.2-46.1L81.2-46.1z"/>
		</g>
	</g>
	<g id="XMLID_556_">
		<g id="XMLID_624_">
			<path id="XMLID_628_" class="st3" d="M70.7-43.3c5.8-0.8,11.7-1.7,17.5-2.5c3.8-0.5,2.2-6.3-1.6-5.8c-5.8,0.8-11.7,1.6-17.5,2.5
				C65.3-48.5,66.9-42.7,70.7-43.3L70.7-43.3z"/>
		</g>
	</g>
	<g id="XMLID_564_">
		<g id="XMLID_617_">
			<path id="XMLID_621_" class="st3" d="M120.1-48.6c0,0.2,0,0.3,0,0.5c0,1.4,0.9,2.4,2.2,2.9c0.1,0.1,0.3,0.1,0.4,0.2
				c1.1,0.4,2.9-0.3,3.4-1.4c0.1-0.1,0.1-0.3,0.2-0.4c0.6-1.3,0.5-2.6-0.5-3.6c-2.2-2.4-7.4-1.6-10.3-1.7
				c-5.2-0.2-10.5-0.2-15.7-0.1c-2.9,0.1-8.4-0.8-10.6,1.8c-1.5,1.8-1.1,4.1,0.5,5.6c1.1,1,2.4,1,3.6,0.5c2.3-1.1,3-3.7,1.5-5.8
				c-2.2-3.2-7.4-0.2-5.2,3c0.2-0.8,0.4-1.6,0.6-2.4c1.2,0.2,2.4,0.3,3.6,0.5c0.1,0.3,0.2,0.5,0.4,0.8c-0.5,0.9-1,1.7-1.5,2.6
				c1.2-1,5.4-0.4,6.9-0.5c2.6-0.1,5.2-0.1,7.9-0.1c2.6,0,5.2,0.1,7.9,0.2c0.7,0,6.2,0.1,6.1,0c-0.2-1.2-0.3-2.4-0.5-3.6
				c-0.1,0.1-0.1,0.3-0.2,0.4c1.1-0.5,2.3-0.9,3.4-1.4c-0.1-0.1-0.3-0.1-0.4-0.2c0.7,1,1.5,1.9,2.2,2.9c0-0.2,0-0.3,0-0.5
				C126-52.4,120-52.5,120.1-48.6L120.1-48.6z"/>
		</g>
	</g>
	<g id="XMLID_581_">
		<g id="XMLID_610_">
			<path id="XMLID_614_" class="st3" d="M95.4-45.8c1.2-0.1,2.4-0.2,3.6-0.4c3.8-0.4,3.9-5.7,0-6c-11.9-1-23.8,0.4-35.2,4.1
				c-2.1,0.7-3,3.4-1.3,5c1.8,1.7,3.7,3.3,5.7,4.8c3.1,2.3,6.1-2.9,3-5.2c-1.6-1.2-3-2.5-4.5-3.8c-0.4,1.7-0.9,3.3-1.3,5
				c10.9-3.5,22.1-4.8,33.6-3.8c0-2,0-4,0-6c-1.2,0.1-2.4,0.2-3.6,0.4C91.6-51.5,91.6-45.5,95.4-45.8L95.4-45.8z"/>
		</g>
	</g>
	<g id="XMLID_588_">
		<g id="XMLID_603_">
			<path id="XMLID_607_" class="st3" d="M97.3-34.1c-1.9-0.9-3.7,1.5-1.9,2.9c2,1.6,4.2-0.8,4.9-2.5c-0.7-0.1-1.5-0.2-2.2-0.3
				c0.1,1.4,0.6,2.5,1.5,3.5c0.3-0.6,0.5-1.3,0.8-1.9c-2.3-0.1-4.5-0.2-6.8-0.3c0.4,0.5,0.7,0.9,1.1,1.4c0.3-0.9,0.7-1.8,1-2.7
				c0.3-0.9-0.9-1.8-1.7-1.3c-1.2,0.8-2.2,1.6-3,2.7c-0.9,1.1,0.7,2.7,1.6,1.6c0.8-0.9,1.6-1.7,2.6-2.4c-0.6-0.4-1.1-0.8-1.7-1.3
				c-0.3,0.9-0.7,1.8-1,2.7c-0.3,0.7,0.4,1.4,1.1,1.4c2.3,0.1,4.5,0.2,6.8,0.3c1,0,1.4-1.2,0.8-1.9c-0.5-0.6-0.7-1.2-0.8-1.9
				c-0.1-1.3-1.7-1.5-2.2-0.3c-0.2,0.5-1.6,2.3-1.9,2.1C97.5-31.6,98.7-33.5,97.3-34.1L97.3-34.1z"/>
		</g>
	</g>
	<g id="XMLID_595_">
		<g id="XMLID_596_">
			<path id="XMLID_600_" class="st3" d="M113.7-34.8c-0.3,1.1-0.5,2.1-0.8,3.2c0.4-0.3,0.7-0.6,1.1-0.8c-0.1-0.1-0.2-0.1-0.3-0.2
				c-0.7-0.2-1.4-0.4-2.2-0.6c-0.1,0.5-0.3,0.9-0.7,1.4c-0.7,1,0.6,2,1.5,1.5c0,0,0.1,0,0.1-0.1c-0.4,0-0.8,0-1.1,0
				c0.8,0.4,1.3,0.5,2.2,0.6c1.1,0,2.3,0.1,3.4,0.1c0.6,0,1.1-0.5,1.1-1.1c0-1.3,0.2-2.6,0.6-3.8c0.3-0.9-0.8-1.8-1.7-1.3
				c-1.6,0.9-2.7,2.4-3,4.2c0.7,0.1,1.5,0.2,2.2,0.3c0-0.4,0-0.7,0-1.1c0-1.4-2.3-1.5-2.2,0c0,0.4,0,0.7,0,1.1c0,1.2,2,1.6,2.2,0.3
				c0.2-1.3,0.9-2.2,2-2.9c-0.6-0.4-1.1-0.8-1.7-1.3c-0.4,1.4-0.6,2.9-0.6,4.4c0.4-0.4,0.8-0.8,1.1-1.1c-1.2-0.1-2.6,0.1-3.8-0.2
				c-0.7-0.1-1.2-0.5-1.9-0.2c0.5,0.5,1,1,1.5,1.5c0.4-0.6,0.7-1.2,0.9-1.9c0.3-1.4-1.8-2-2.2-0.6c-0.5,1.8,0.9,2.9,2.5,3.1
				c0.5,0.1,1-0.4,1.1-0.8c0.3-1.1,0.5-2.1,0.8-3.2C116.3-35.6,114.1-36.2,113.7-34.8L113.7-34.8z"/>
		</g>
	</g>
	<g id="XMLID_602_">
		<g id="XMLID_589_">
			<path id="XMLID_593_" class="st3" d="M125.5-36c-0.1,0.8-0.5,1.4-1.1,1.9c-0.9,0.7,0.1,2.3,1.1,1.9c1.1-0.4,2-1,2.9-1.7
				c0.5-0.4,0.4-1.2,0-1.6c-0.5-0.5-1.1-0.4-1.6,0c-0.6,0.5-1.2,0.9-1.9,1.2c0.4,0.6,0.7,1.3,1.1,1.9c1.1-0.9,1.6-2.1,1.8-3.5
				c0.1-0.6-0.6-1.1-1.1-1.1C125.9-37.1,125.5-36.6,125.5-36L125.5-36z"/>
		</g>
	</g>
	<g id="XMLID_609_">
		<g id="XMLID_582_">
			<path id="XMLID_586_" class="st3" d="M75.7-35.2C76.2-34,77-32.9,78-32c0.6,0.5,1.7,0.4,1.9-0.5c0.2-1.4,0.2-2.7-0.1-4.1
				c-0.7,0.3-1.4,0.6-2.1,0.9c0.8,1.5,1.9,2.6,3.3,3.6c0.5,0.4,1.6,0,1.7-0.7c0.2-1.3,0-2.2-0.9-3.2c-0.5,0.5-1.1,1.1-1.6,1.6
				c0.7,0.6,1.4,1.3,2.1,2c0.7,0.8,1.8,0.1,1.9-0.8c0-0.5,0.2-1,0.4-1.5c-0.7,0-1.4,0-2.2,0c0.4,1.1,0.8,2.2,1.4,3.2
				c0.3-0.6,0.6-1.1,1-1.7c-3.5,0-7.1,0-10.6,0c0.4,0.4,0.8,0.8,1.1,1.1c0-0.9,0.1-1.7,0.4-2.6c-0.7-0.1-1.5-0.2-2.2-0.3
				c0,1.2-0.1,3.3,1.7,3.2c1.5-0.1,1.8-2,2.3-3.1c-0.7,0.1-1.4,0.2-2.1,0.3c0,0.1,0.1,0.3,0.1,0.4c0,1.4,2.3,1.5,2.2,0
				c0-0.7-0.1-0.9-0.4-1.5c-0.5-0.9-1.7-0.6-2.1,0.3c-0.1,0.4-0.3,0.7-0.4,1.1c0.8,0.5,1.1,0.4,0.9-0.5c0-1.3-1.8-1.5-2.2-0.3
				c-0.4,1.1-0.5,2-0.5,3.2c0,0.6,0.5,1.1,1.1,1.1c3.5,0,7.1,0,10.6,0c0.8,0,1.4-1,1-1.7c-0.5-0.8-0.9-1.7-1.2-2.7
				c-0.4-1.1-1.8-1-2.2,0C82.2-34.6,82-34,82-33.2c0.6-0.3,1.3-0.5,1.9-0.8c-0.7-0.7-1.4-1.4-2.1-2c-1.1-0.9-2.5,0.5-1.6,1.6
				c0.1,0.3,0.2,0.7,0.3,1c0.6-0.2,1.1-0.4,1.7-0.7c-1.1-0.7-1.8-1.6-2.5-2.8c-0.7-1.1-2.3-0.3-2.1,0.9c0.2,1,0.2,1.9,0.1,2.9
				c0.6-0.2,1.3-0.3,1.9-0.5c-0.9-0.8-1.5-1.7-2-2.8C77-37.7,75.1-36.6,75.7-35.2L75.7-35.2z"/>
		</g>
	</g>
	<g id="XMLID_616_">
		<g id="XMLID_575_">
			<path id="XMLID_579_" class="st3" d="M62.6-37.4c-1,0.3-2.1,0.5-3.2,0.5c0.3,0.6,0.6,1.1,1,1.7c0.5-0.8,1-1.6,1.6-2.3
				c-0.6-0.4-1.3-0.7-1.9-1.1c-0.1,0.3-0.4,0.5-0.7,0.6c-1.4,0.4-0.8,2.6,0.6,2.2c1.1-0.3,1.9-1.1,2.3-2.2c0.4-1-1.2-1.9-1.9-1.1
				c-0.7,0.8-1.4,1.8-2,2.7c-0.4,0.8,0.1,1.7,1,1.7c1.3,0,2.6-0.1,3.8-0.5C64.6-35.7,64-37.8,62.6-37.4L62.6-37.4z"/>
		</g>
	</g>
	<g id="XMLID_623_">
		<g id="XMLID_569_">
			<path id="XMLID_573_" class="st4" d="M125.8-41.7c-0.4,1.9-0.7,3.8-1.1,5.7c-0.2,0.9,1.3,1.3,1.4,0.4c0.4-1.9,0.7-3.8,1.1-5.7
				C127.4-42.3,126-42.7,125.8-41.7L125.8-41.7z"/>
		</g>
	</g>
	<g id="XMLID_630_">
		<g id="XMLID_562_">
			<path id="XMLID_567_" class="st4" d="M118.8-39.8c0,0-0.2,0.7-0.2,0.7c0,0.3-0.1,0.6-0.1,0.9c-0.1,0.6-0.2,1.2-0.3,1.9
				c-0.1,0.9,1.3,1.4,1.4,0.4c0.1-0.9,0.3-1.8,0.4-2.6c0.1-0.7,0.3-1.4,0-2C119.7-41.4,118.4-40.6,118.8-39.8L118.8-39.8z"/>
		</g>
	</g>
	<g id="XMLID_637_">
		<g id="XMLID_555_">
			<path id="XMLID_560_" class="st4" d="M120.2-44.5c0-0.1,0-0.2,0-0.3c0.1-0.9-1.2-1.4-1.4-0.4c-0.4,1.6-0.6,3.2-0.7,4.8
				c0,1,1.5,1,1.5,0c0-1.5,0.2-3,0.6-4.4c-0.5-0.1-1-0.3-1.4-0.4c0,0.1,0,0.2,0,0.3C118.7-44,120.1-43.6,120.2-44.5L120.2-44.5z"/>
		</g>
	</g>
	<g id="XMLID_644_">
		<g id="XMLID_548_">
			<path id="XMLID_552_" class="st4" d="M114.1-42.1c-0.5,1.2-1.1,2.5-1.6,3.7c-0.5,1.3-0.6,3.3-1.7,4.2c0.2-0.1,0.5-0.1,0.7-0.2
				c0,0-0.1,0-0.1,0c-0.9-0.3-1.3,1.2-0.4,1.4c1.1,0.3,1.8-1.5,2.1-2.2c0.4-0.9,0.5-1.9,0.9-2.8c0.4-1.1,0.9-2.3,1.4-3.4
				C115.8-42.3,114.5-43,114.1-42.1L114.1-42.1z"/>
		</g>
	</g>
	<g id="XMLID_651_">
		<g id="XMLID_541_">
			<path id="XMLID_545_" class="st4" d="M102.4-44.2c-0.2,1.8-0.3,3.6-0.5,5.3c-0.1,1.2,0.1,4.4-0.9,5.2c-0.7,0.6,0.3,1.7,1.1,1.1
				c1.1-0.9,1-2.9,1.1-4.3c0.2-2.4,0.4-4.9,0.7-7.3C104-45.2,102.5-45.2,102.4-44.2L102.4-44.2z"/>
		</g>
	</g>
	<g id="XMLID_658_">
		<g id="XMLID_533_">
			<path id="XMLID_537_" class="st4" d="M93.5-35.3c-0.4-3-0.7-5.9-1.1-8.9c-0.1-0.9-1.6-1-1.5,0c0.4,3,0.7,5.9,1.1,8.9
				C92.1-34.3,93.6-34.3,93.5-35.3L93.5-35.3z"/>
		</g>
	</g>
	<g id="XMLID_665_">
		<g id="XMLID_526_">
			<path id="XMLID_530_" class="st4" d="M85.5-35.2c0.7-1.5,1.4-3,2.1-4.5c0.4-0.9-0.9-1.6-1.3-0.8c-0.7,1.5-1.4,3-2.1,4.5
				C83.8-35.1,85.1-34.4,85.5-35.2L85.5-35.2z"/>
		</g>
	</g>
	<g id="XMLID_672_">
		<g id="XMLID_519_">
			<path id="XMLID_523_" class="st4" d="M126.5-49.5c-10.1,2.8-20.5,3.6-30.9,4.2c-10.3,0.6-20.6,0.8-30.5-2.3
				c-0.9-0.3-1.3,1.2-0.4,1.4c10.1,3.1,20.5,2.9,30.9,2.3c10.6-0.6,21.1-1.4,31.3-4.2C127.8-48.4,127.4-49.8,126.5-49.5L126.5-49.5z
				"/>
		</g>
	</g>
	<g id="XMLID_679_">
		<g id="XMLID_512_">
			<path id="XMLID_516_" class="st4" d="M81.3-41.2c0.7,1.8,1.5,3.5,2.4,5.2c0.5,0.9,1.7,0.1,1.3-0.8c-0.8-1.6-1.6-3.2-2.3-4.9
				C82.4-42.4,81-42.1,81.3-41.2L81.3-41.2z"/>
		</g>
	</g>
	<g id="XMLID_686_">
		<g id="XMLID_505_">
			<path id="XMLID_509_" class="st4" d="M74.5-40.5c-0.1,1.2-0.3,2.4-0.5,3.5c-0.2,0.9,1.2,1.3,1.4,0.4c0.3-1.3,0.5-2.6,0.6-3.9
				C76-41.5,74.5-41.5,74.5-40.5L74.5-40.5z"/>
		</g>
	</g>
	<g id="XMLID_693_">
		<g id="XMLID_498_">
			<path id="XMLID_502_" class="st4" d="M69.3-45.8c-0.4,0.8-1.1,1.5-1.7,2.1c-0.6,0.7-1.2,1.4-1.9,2c-0.7,0.7,0.4,1.8,1.1,1.1
				c0.7-0.8,1.4-1.5,2.1-2.3c0.6-0.7,1.4-1.3,1.7-2.2C71-46,69.7-46.7,69.3-45.8L69.3-45.8z"/>
		</g>
	</g>
	<g id="XMLID_700_">
		<g id="XMLID_491_">
			<path id="XMLID_495_" class="st4" d="M96.8-44.7C96.8-44.7,96.8-44.7,96.8-44.7c-0.1,0.5-0.1,0.9-0.2,1.4c0,0,0,0,0,0
				c-0.3-0.1-0.6-0.2-0.8-0.3c0,0,0,0,0,0c0-0.3,0-0.5,0-0.8c-0.4,0.8,0.3,1.3,0.7,1.9c0.5,0.6,1.1,1.2,1.7,1.8
				c0.7,0.7,1.7-0.4,1.1-1.1c-0.8-0.9-1.6-1.7-2.3-2.6c0.1,0.2,0.1,0.4,0.2,0.5c0,0.1,0,0.1-0.1,0.2c0.1-0.2,0.2-0.5,0-0.8
				c0,0,0,0,0,0c-0.2-0.3-0.5-0.4-0.8-0.3c0,0,0,0,0,0c-0.6,0.2-0.7,1.1-0.2,1.4c0,0,0,0,0,0C96.9-43,97.6-44.2,96.8-44.7L96.8-44.7
				z"/>
		</g>
	</g>
	<g id="XMLID_707_">
		<g id="XMLID_484_">
			<path id="XMLID_488_" class="st4" d="M110.4-45.4c-0.2,1.2-0.6,2.3-1.4,3.3c-0.6,0.7,0.5,1.8,1.1,1.1c0.9-1.2,1.6-2.5,1.8-4
				C112-46,110.5-46.4,110.4-45.4L110.4-45.4z"/>
		</g>
	</g>
</g>
<g id="cleaning_bottle">
	<g id="XMLID_714_">
		<g id="XMLID_912_">
			<path id="XMLID_916_" class="st5" d="M105.4,78.1c-10.5-1.8-21-1.6-31.4,0.5c-0.9,0.2-0.5,1.6,0.4,1.4
				c10.2-2.1,20.4-2.3,30.6-0.5C106,79.7,106.4,78.3,105.4,78.1L105.4,78.1z"/>
		</g>
	</g>
	<g id="XMLID_721_">
		<g id="XMLID_906_">
			<path id="XMLID_910_" class="st5" d="M104.4,79c2,0.6,3.9,1.3,5.9,1.9c0.9,0.3,1.3-1.1,0.4-1.4c-2-0.6-3.9-1.3-5.9-1.9
				C103.9,77.2,103.5,78.7,104.4,79L104.4,79z"/>
		</g>
	</g>
	<g id="XMLID_728_">
		<g id="XMLID_900_">
			<path id="XMLID_904_" class="st5" d="M110.2,80.8c0,2.2,0,4.5,0,6.7c0,1,1.5,1,1.5,0c0-2.2,0-4.5,0-6.7
				C111.7,79.8,110.2,79.8,110.2,80.8L110.2,80.8z"/>
		</g>
	</g>
	<g id="XMLID_735_">
		<g id="XMLID_894_">
			<path id="XMLID_898_" class="st5" d="M109.9,81.3c1.3,0,3.3-0.1,4.4,0.5c1.1,0.6,0.8,2.7,0.9,3.9c0,0.5,0.5,3.2,0.3,3.5
				c-0.2,0.2-2,0.1-2.3,0.1c-0.8,0-1.5,0.1-2.3,0.1c-1,0-1,1.5,0,1.5c1.3-0.1,2.5-0.1,3.8-0.2c0.5,0,1.3,0,1.7-0.3
				c1.1-0.9,0.3-3.8,0.2-5c-0.1-1.3,0.3-3.7-1-4.6c-1.4-0.9-4.2-0.9-5.8-0.9C108.9,79.8,108.9,81.3,109.9,81.3L109.9,81.3z"/>
		</g>
	</g>
	<g id="XMLID_742_">
		<g id="XMLID_888_">
			<path id="XMLID_892_" class="st5" d="M109.4,87.5c0.2,0.8,0.3,1.5,0.5,2.3c0.2,0.9,1.6,0.5,1.4-0.4c-0.2-0.8-0.3-1.5-0.5-2.3
				C110.6,86.2,109.2,86.6,109.4,87.5L109.4,87.5z"/>
		</g>
	</g>
	<g id="XMLID_749_">
		<g id="XMLID_882_">
			<path id="XMLID_886_" class="st5" d="M110.2,89.7c-0.4-1.2-5.4,0.8-6.1,1.1c-2.1,1-3.9,2.5-5.4,4.3c-0.6,0.7,0.4,1.8,1.1,1.1
				c1.7-2.1,3.9-3.7,6.6-4.6c1.6-0.5,3.9-0.1,5.2-1.3c0.2-0.2,0.3-0.5,0.2-0.7c0-0.1,0-0.2-0.1-0.2
				C111.4,88.4,109.9,88.8,110.2,89.7L110.2,89.7z"/>
		</g>
	</g>
	<g id="XMLID_756_">
		<g id="XMLID_876_">
			<path id="XMLID_880_" class="st5" d="M76,78.4c-2.9,1.2-5.9,2.6-7.8,5.2c-1.9,2.6-0.6,5,1,7.4c0.5,0.8,1.8,0.1,1.3-0.8
				c-0.5-0.8-1.4-2-1.6-3c-0.4-2.1,0.7-3.4,2.3-4.6c1.7-1.3,3.6-2.1,5.6-3C77.7,79.3,76.9,78,76,78.4L76,78.4z"/>
		</g>
	</g>
	<g id="XMLID_763_">
		<g id="XMLID_870_">
			<path id="XMLID_874_" class="st5" d="M70.1,91.4c1.7,0.1,15,1.4,11.7,5.3c-0.6,0.7,0.4,1.8,1.1,1.1C88,91.5,73,90,70.1,89.9
				C69.1,89.8,69.1,91.3,70.1,91.4L70.1,91.4z"/>
		</g>
	</g>
	<g id="XMLID_770_">
		<g id="XMLID_864_">
			<path id="XMLID_868_" class="st5" d="M97.2,95.6c-0.2,1.3-0.1,2.5,0.3,3.8c0.3,0.9,1.8,0.5,1.4-0.4c-0.4-1-0.5-2-0.3-3
				C98.7,95,97.3,94.6,97.2,95.6L97.2,95.6z"/>
		</g>
	</g>
	<g id="XMLID_777_">
		<g id="XMLID_858_">
			<path id="XMLID_862_" class="st5" d="M98.1,95.8c-5.2,0.3-10.4,0.2-15.6-0.4c-1-0.1-1,1.4,0,1.5c5.2,0.6,10.4,0.7,15.6,0.4
				C99,97.2,99,95.7,98.1,95.8L98.1,95.8z"/>
		</g>
	</g>
	<g id="XMLID_784_">
		<g id="XMLID_851_">
			<path id="XMLID_856_" class="st5" d="M81.7,94.9c0,2.3,0.2,4.6,0.6,7c0.2,1,1.6,0.5,1.4-0.4c-0.4-2.2-0.5-4.4-0.5-6.6
				C83.2,94,81.7,94,81.7,94.9L81.7,94.9z"/>
		</g>
	</g>
	<g id="XMLID_791_">
		<g id="XMLID_844_">
			<path id="XMLID_849_" class="st5" d="M97.3,96c0,1.5,0.1,3.1,0,4.7c-0.1,1.5-0.2,1-1.4,1.3c-0.9,0.2-2.1,0-3.1,0
				c-1.6,0-3.3,0-4.9,0c-1.3,0-4.4,0.5-5.4-0.4c-0.7-0.7-1.8,0.4-1.1,1.1c1.2,1.2,3,0.8,4.6,0.8c3.1,0,6.1,0,9.2,0
				c1.1,0,2.5,0.3,3.3-0.6c1.1-1.2,0.3-5.4,0.2-6.9C98.8,95,97.3,95,97.3,96L97.3,96z"/>
		</g>
	</g>
	<g id="XMLID_798_">
		<g id="XMLID_837_">
			<path id="XMLID_842_" class="st5" d="M97.2,101.6c-1.5,7.1,4.4,10.9,8.8,15.3c6.6,6.4,8.5,18.3,10.4,27c1.7,8.1,6.4,27-6.2,28.2
				c-3.4,0.3-31.2,1.8-31.3-1.9c0-1-1.5-1-1.5,0c0,2.3,1.4,3.2,3.6,3.7c6.1,1.1,13.5-0.1,19.8-0.1c7.9-0.1,17.7,1.1,19-9
				c1.4-10.4-1.8-22-4.6-31.9c-1.4-4.9-2.5-10.5-5.7-14.6c-3.9-5-12.4-8.4-10.8-16.2C98.9,101,97.4,100.6,97.2,101.6L97.2,101.6z"/>
		</g>
	</g>
	<g id="XMLID_805_">
		<g id="XMLID_830_">
			<path id="XMLID_835_" class="st5" d="M81.6,101.3c1.3,7.5-2.8,13.6-5,20.4c-1.8,5.9-1.8,12.3-1.9,18.4
				c-0.2,6.8-0.2,13.6,0.5,20.3c0.4,4.1,0.9,8,3.9,11c0.7,0.7,1.7-0.4,1.1-1.1c-4.5-4.6-3.8-13.3-4-19.2c-0.1-6.2,0-12.3,0.3-18.5
				c0.3-6.4,2-11.7,4.3-17.6c1.9-4.7,3.1-9.2,2.2-14.2C82.9,99.9,81.4,100.3,81.6,101.3L81.6,101.3z"/>
		</g>
	</g>
	<g id="XMLID_812_">
		<g id="XMLID_823_">
			<path id="XMLID_828_" class="st5" d="M108,91.7c0.7,0.3,2.5,0.7,3,1.3c0.1,0.2,0,0.7,0.1,1c0.3,0.5,0.4,0.9,0.8,1.3
				c0.2,0.2,1.3,0.8,1.4,0.9c0.5,0.8,0.2,1.6,0.8,2.5c0.8,1.1,2.6,1.6,3.7,2.1c0.1-0.5,0.1-0.9,0.2-1.4c-5,2-11-4-13.4-7.6
				c-0.5-0.8-1.8-0.1-1.3,0.8c2.8,4.3,9.5,10.7,15.1,8.3c0.5-0.2,0.8-1.1,0.2-1.4c-1.8-0.9-3.4-1.6-3.6-3.9c0-0.3-0.2-0.7-0.6-0.7
				c-3-0.5-1.3-1.6-2.3-2.8c-0.7-0.9-2.5-1.3-3.5-1.7C107.9,90,107.2,91.3,108,91.7L108,91.7z"/>
		</g>
	</g>
	<g id="XMLID_819_">
		<g id="XMLID_816_">
			<path id="XMLID_821_" class="st5" d="M96.2,92.8c1.5-3.7,0.1-8.6-4.5-8.8c-5.7-0.3-5.2,5.2-4.8,9.1c1-1,2-2,3-3
				c-0.4,0-2.6-2.6-3.2-2.9c-1.7-0.8-3.2-0.6-5-0.3c-2.3,0.5-2.8,3.5-1.3,5c1,0.9,1.8,2,2.4,3.2c0.5,0.9,1.6,1.5,2.6,1.5
				c3.7,0,9.3,1.1,12.7-0.2c1.4-0.5,2.4-1.7,3.6-2.7c1.4-1.1,5.5-2.7,4.2-4.9c0.6-1.5,1.2-2.9,1.8-4.4c-1.3,0.4-2.7,0.7-4,1.1
				c0.5,1.9,1.1,3.9,1.6,5.8c1.4-0.5,2.8-0.8,4.3-1c2.2-0.3,3.8-2.4,2.6-4.5c-1.8-3.1-0.5-5.6-4.6-6.7c-5-1.4-10.9-1.1-16-1.4
				c-6-0.3-21.4-2-21,7.6c0.2,3.9,5.6,3.8,6,0c0.1-0.7,0.2-1.3,0.2-2c0.3-2.4-2.7-3.5-4.5-2.6c-2.6,1.3-3.7,3.4-3.7,6.2
				c1.9-0.5,3.7-1,5.6-1.5c-0.2-0.3-0.3-0.6-0.5-0.9c-1.5-2.8-5.4-1.3-5.6,1.5c-0.6,7,8.7,4.3,12.4,6.5c0.8-1.8,1.5-3.7,2.3-5.5
				c-0.7-0.1-3.4-1.3-3.7-1.1c0.2,0.6,0.4,1.1,0.6,1.7c0.6,0,1.3-0.1,1.9-0.1c2.7,0.4,5.7,0.1,8.4,0.2c5.2,0.2,10.3,0.4,15.5,0.7
				c-0.5-1.9-1-3.7-1.5-5.6c-2.2,1.3-4.7,3.2-7.1,4c1,0.3,1.9,0.5,2.9,0.8c-0.6-0.6-0.7-1.8-1.5-2.4c-1.3-1-3.1-0.9-4.6-0.9
				C88,84,82.5,83.9,77,83.8c-3.9-0.1-3.9,5.9,0,6c3.7,0.1,7.3,0.2,11,0.3c1.3,0,4.3-0.3,5.5,0.1c1,0.4,0.2,0.3,1.4,1.1
				c4.1,2.9,8.2-1.2,12-3.4c2.7-1.5,1.4-5.5-1.5-5.6c-5.2-0.2-10.3-0.4-15.5-0.7c-4.4-0.2-10.5-1.2-14.6,0.6c-2,0.9-3.3,2.9-2.8,5.1
				c0.8,3.3,5.7,4.8,8.6,5.4c3.2,0.6,5.4-3.7,2.3-5.5c-1.6-1-3.3-1.7-5.1-2c-0.9-0.2-1.7-0.2-2.6-0.2c-0.5,0-1,0-1.4,0.1
				c-0.9-0.1-1,0.2-0.2,0.8c-1.9,0.5-3.7,1-5.6,1.5c0.2,0.3,0.3,0.6,0.5,0.9c1.4,2.6,5.6,1.4,5.6-1.5c0.2-0.3,0.5-0.7,0.7-1
				c-1.5-0.9-3-1.7-4.5-2.6c-0.1,0.7-0.2,1.3-0.2,2c2,0,4,0,6,0c-0.2-3.2,17.3-1.6,19.5-1.4c2.8,0.2,6.2,0,8.9,0.8
				c0.4-1.1,0.6-1.2,0.6-0.3c0,0.5,0.1,0.9,0.2,1.4c0.3,1.1,0.8,2,1.3,3c0.9-1.5,1.7-3,2.6-4.5c-2.1,0.2-3.9,0.6-5.9,1.2
				c-3.7,1.2-2.2,6.8,1.6,5.8c1.3-0.4,2.7-0.7,4-1.1c1.9-0.5,2.8-2.7,1.8-4.4c-2.3-4-6.3-1.6-9.2,0.4c-1.6,1.1-3.9,3.9-5.7,4.5
				c-2.8,1-7.9,0-10.8,0c0.9,0.5,1.7,1,2.6,1.5c-0.9-1.7-1.9-3.1-3.3-4.4c-0.4,1.7-0.9,3.3-1.3,5c0.8-0.2,2.6,2.2,3.4,2.7
				c1.1,0.7,1.8,0.8,3.2,0.7c1.5,0,3.1-1.3,3-3c0-0.6-0.1-1.2-0.2-1.8c0-1-0.7-1-2.2,0C88.9,94.8,94.7,96.3,96.2,92.8L96.2,92.8z"/>
		</g>
	</g>
	<g id="XMLID_826_">
		<g id="XMLID_809_">
			<path id="XMLID_814_" class="st5" d="M110,87.8c-0.1,0.6,0,1.1,0.2,1.7c0.2,0.8,1.5,0.7,1.5-0.2c0-0.9,0-1.7,0-2.6
				c-0.5,0.1-1,0.1-1.5,0.2c0.2,0.9,0.3,1.8,0.2,2.7c-0.1,1,1.4,1,1.5,0c0.1-1.1,0-2.1-0.3-3.1c-0.2-0.8-1.5-0.6-1.5,0.2
				c0,0.9,0,1.7,0,2.6c0.5-0.1,1-0.1,1.5-0.2c-0.1-0.4-0.2-0.8-0.1-1.3C111.6,86.9,110.1,86.9,110,87.8L110,87.8z"/>
		</g>
	</g>
	<g id="XMLID_833_">
		<g id="XMLID_802_">
			<path id="XMLID_807_" class="st5" d="M97.6,109C97.6,109,97.6,109,97.6,109c0.9-0.1,0.7-1.6-0.1-1.5c-2.3,0.3-4.6,0.5-6.9,0.5
				c-1.9,0-6.3,0.3-7.9-0.7c0.1,0.4,0.1,0.8,0.2,1.2c-0.3,0-0.5,0-0.8,0.1c0.8,0.5,1.6-0.8,0.8-1.3c0,0-0.1,0-0.1,0
				c-0.3-0.2-0.7-0.1-0.9,0.1c0,0-0.1,0.1-0.1,0.1c-0.3,0.4-0.3,0.9,0.2,1.2c1.6,1,4.6,0.8,6.4,0.9c3.1,0.1,6.2,0,9.2-0.4
				c-0.1-0.5-0.1-1-0.2-1.5c0,0-0.1,0-0.1,0C96.2,107.7,96.6,109.2,97.6,109L97.6,109z"/>
		</g>
	</g>
	<g id="XMLID_840_">
		<g id="XMLID_795_">
			<path id="XMLID_800_" class="st5" d="M98.5,107.7c-0.3-0.3-0.8-0.3-1.1-0.2c-0.9,0.3-0.5,1.7,0.4,1.4c-0.1-0.1-0.1-0.1,0,0
				c0.3,0.2,0.8,0.1,1-0.3C99,108.3,98.8,107.9,98.5,107.7L98.5,107.7z"/>
		</g>
	</g>
	<g id="XMLID_847_">
		<g id="XMLID_788_">
			<path id="XMLID_793_" class="st5" d="M89.2,106.9c0.8,0,1.6,0,2.4,0c1.4,0,2.2-2.1,0.8-2.8c-1.5-0.7-3.4-1.2-4.6,0.2
				c-0.9,1-0.8,2.8,0.3,3.6c2.3,1.6,9.3,0.2,7.6-3.7c-1.2-2.8-6.2-1.3-5.6,1.7c0.4,1.6,2.4,2.5,3.9,2.3c2-0.1,3.3-1.6,3.7-3.5
				c-1-0.1-2-0.3-2.9-0.4c0,1.4,0.4,2.2,0.9,3.4c0.1-0.6,0.2-1.2,0.2-1.8c-0.9,0.8-4.4,0.3-5.7,0.3c-1.8,0-4.2,0.3-6-0.3
				c0.3,0.3,0.7,0.7,1,1c-0.2-0.7-0.1-1.4,0.1-2.1c-0.3,0.3-0.7,0.7-1,1c1.8-0.3,4,0.3,5.7,0.4c1.9,0.1,3.8,0,5.6-0.1
				c1.6-0.1,2.2-2.7,0.4-2.9c-3.1-0.5-8-1.5-10.7,0.6c-1.5,1.2-1.3,4,1.1,3.8c1.9-0.2,2-3.1,0-3c-0.3,0-0.5,0-0.8,0
				c-1.9,0.1-1.9,3.1,0,3c0.3,0,0.5,0,0.8,0c0-1,0-2,0-3c0.5,1.3,1.3,1.7,2.3,1.2c0.8-0.1,1.5-0.2,2.3-0.1c1.4,0,2.8,0.3,4.2,0.5
				c0.1-1,0.3-2,0.4-2.9c-2.2,0.1-4.4,0.1-6.7,0c-1.8-0.1-3.7-0.5-5.5-0.2c-0.5,0.1-0.9,0.6-1,1c-0.4,1.1-0.6,3,0.1,4.1
				c0.9,1.2,2.9,1,4.2,1c2.9,0.1,8.9,1,11.3-1.1c0.5-0.5,0.5-1.2,0.2-1.8c-0.3-0.6-0.4-1.2-0.5-1.9c0-1.7-2.6-2.1-2.9-0.4
				c-1,1-2.2,1.5-3.5,1.5c-1.1-0.3-1.2,0.1-0.4,1.2c0.3-0.9,0.5-1.9,0.8-2.8c-0.8,0-1.6,0-2.4,0C87.3,103.9,87.3,106.9,89.2,106.9
				L89.2,106.9z"/>
		</g>
	</g>
	<g id="XMLID_854_">
		<g id="XMLID_781_">
			<path id="XMLID_786_" class="st5" d="M80.4,131.9c0.2-5,3.5-9.1,8.3-10.7c4.2-1.3,12.3-1.2,15.4,2.5c2.6,3.1,3.5,7.8,4.3,11.7
				c0.4,2.1,0.8,4.2,1,6.3c0.4,3.3,0.9,4.9-1,7.8c-1.9,2.9-3,2.7-6.1,3c-1.8,0.2-3.7,0.2-5.5,0.3c-3.6,0.1-7.5,0.3-11-0.2
				c-3.6-0.6-4.6-1.8-5-5.7c-0.2-1.8-0.3-3.6-0.4-5.4c-0.1-3.6,0.1-7.2,0.2-10.9c0-1-1.5-1-1.5,0c-0.3,6.4-1.1,13.7,0.7,20
				c1.1,3.8,4.3,3.3,7.8,3.5c6.2,0.3,13.5,0.9,19.6-0.7c3.8-1,4.4-3.5,4.1-7.2c-0.4-6.3-1.4-13.1-3.6-19.1c-1.7-4.6-5-6.7-9.7-7.7
				c-8.8-1.8-18.6,2.6-19.1,12.4C78.9,132.9,80.4,132.9,80.4,131.9L80.4,131.9z"/>
		</g>
	</g>
</g>
<g id="cup">
	<g id="XMLID_70_">
		<g id="XMLID_774_">
			<path id="XMLID_911_" class="st6" d="M-83.7,32.1c3.3,0,6.5,0.1,9.8,0.3c1.5,0.1,3,0.2,4.5,0.4c1,0.1,2.1,0.2,3.1,0.3
				c2.1,1.6,2.7,3.5,2,5.7c-0.1,0.9,1.3,1.4,1.4,0.4c0.5-3.2,0.4-6.3-3.1-7.5c-2.2-0.7-5-0.6-7.2-0.7c-3.5-0.2-7-0.4-10.6-0.4
				C-84.7,30.6-84.7,32.1-83.7,32.1L-83.7,32.1z"/>
		</g>
	</g>
	<g id="XMLID_77_">
		<g id="XMLID_230_">
			<path id="XMLID_772_" class="st6" d="M-85,30.8c-5.3-0.2-10.7-0.1-16,0.4c-1,0.1-1,1.6,0,1.5c5.3-0.5,10.7-0.6,16-0.4
				C-84.1,32.4-84.1,30.9-85,30.8L-85,30.8z"/>
		</g>
	</g>
	<g id="XMLID_84_">
		<g id="XMLID_222_">
			<path id="XMLID_228_" class="st6" d="M-101.7,31.4c-2.6,1-2.2,4.4-2,6.6c0.1,1,1.6,1,1.5,0c-0.1-1.3-0.7-4.6,0.9-5.2
				C-100.4,32.5-100.8,31.1-101.7,31.4L-101.7,31.4z"/>
		</g>
	</g>
	<g id="XMLID_175_">
		<g id="XMLID_216_">
			<path id="XMLID_220_" class="st6" d="M-64.5,39.4c-12.9,0.3-25.7,0.8-38.5-0.2c-1-0.1-1,1.4,0,1.5c12.8,1,25.7,0.5,38.5,0.2
				C-63.6,40.9-63.6,39.4-64.5,39.4L-64.5,39.4z"/>
		</g>
	</g>
	<g id="XMLID_98_">
		<g id="XMLID_210_">
			<path id="XMLID_214_" class="st6" d="M-66.5,33.1c-11.6,0.6-23.2,0.6-34.8-0.2c-1-0.1-1,1.4,0,1.5c11.6,0.8,23.2,0.8,34.8,0.2
				C-65.6,34.5-65.6,33-66.5,33.1L-66.5,33.1z"/>
		</g>
	</g>
	<g id="XMLID_105_">
		<g id="XMLID_204_">
			<path id="XMLID_208_" class="st6" d="M-66.2,41c-0.9,4.3-1.6,8.6-2.1,13c-0.5,5,0,10.2-0.9,15.1c-0.2,0.9,1.3,1.4,1.4,0.4
				c0.7-3.9,0.3-7.9,0.6-11.8c0.4-5.5,1.2-10.9,2.4-16.3C-64.5,40.5-66,40.1-66.2,41L-66.2,41z"/>
		</g>
	</g>
	<g id="XMLID_119_">
		<g id="XMLID_198_">
			<path id="XMLID_202_" class="st6" d="M-101.9,41c1.5,6.9,2.9,13.9,4.4,20.8c1.1,5.1,1.6,10.6,4.5,15c0.5,0.8,1.8,0.1,1.3-0.8
				c-3.1-4.7-3.6-11.1-4.7-16.5c-1.3-6.3-2.7-12.6-4-18.9C-100.7,39.6-102.1,40-101.9,41L-101.9,41z"/>
		</g>
	</g>
	<g id="XMLID_126_">
		<g id="XMLID_191_">
			<path id="XMLID_195_" class="st6" d="M-68.8,69.2c-0.2,1.1-0.5,2.1-0.9,3.2c-0.9,2.2-2.4,3.1-4.4,2.7c-1.8,0.4-3.9,0.1-5.7,0.1
				c-1.5,0-13.1,0-13.1,0c-0.1-1-1.6-1-1.5,0c0,0.1,0,0.2,0,0.3c0,0.2,0.1,0.5,0.4,0.6c2,0.8,4.4,0.4,6.5,0.5
				c4.1,0.1,8.3,0.1,12.4,0c5.5-0.1,6.4-1.3,7.7-7C-67.1,68.6-68.6,68.2-68.8,69.2L-68.8,69.2z"/>
		</g>
	</g>
	<g id="XMLID_133_">
		<g id="XMLID_184_">
			<path id="XMLID_188_" class="st6" d="M-67.6,47.8c-10.8,1.9-21.7,2.2-32.6,1.1c-1-0.1-1,1.4,0,1.5c11.1,1.1,22.1,0.7,33-1.2
				C-66.2,49-66.6,47.6-67.6,47.8L-67.6,47.8z"/>
		</g>
	</g>
	<g id="XMLID_140_">
		<g id="XMLID_178_">
			<path id="XMLID_182_" class="st6" d="M-67.8,58.2c-9.9,1.3-19.8,1.2-29.6-0.3c-0.9-0.1-1.4,1.3-0.4,1.4c10,1.5,20,1.7,30,0.4
				C-66.9,59.6-66.9,58.1-67.8,58.2L-67.8,58.2z"/>
		</g>
	</g>
	<g id="XMLID_147_">
		<g id="XMLID_171_">
			<path id="XMLID_176_" class="st6" d="M-82.7,39.3c5-0.1,10.6,0.5,15.5-0.4c2.4-0.4,3.7-1.8,3.4-4.2c-0.2-1.9-3.1-1.9-3,0
				c0.2,1.3,0.1,2.6-0.2,3.8c0.5-0.4,1-0.7,1.4-1.1c-6.1,0-12.3,0-18.4-0.1c-2.9-0.1-5.8-0.2-8.7-0.3c-3.1-0.1-7.3,0.8-7.4-3.3
				c-0.5,0.5-1,1-1.5,1.5c11.5-0.1,23.1-0.1,34.6-0.2c-0.5-0.5-1-1-1.5-1.5c0,0.5,0,1-0.1,1.5c0.5-0.5,1-1,1.5-1.5
				c-11.3,0.2-22.7,0.4-34,0.7c-1.7,0-2,2.4-0.4,2.9c6.5,2.2,13.2,1.8,20,1.1c1.9-0.2,2-2.9,0-3c-0.8,0-1.7-0.1-2.5-0.1
				c-1.9-0.1-1.9,2.9,0,3c0.8,0,1.7,0.1,2.5,0.1c0-1,0-2,0-3c-6.5,0.7-12.9,1.2-19.2-1c-0.1,1-0.3,2-0.4,2.9
				c11.3-0.2,22.7-0.4,34-0.7c0.8,0,1.5-0.7,1.5-1.5c0-0.5,0-1,0.1-1.5c0-0.8-0.7-1.5-1.5-1.5c-11.5,0.1-23.1,0.1-34.6,0.2
				c-0.8,0-1.5,0.7-1.5,1.5c0,1.6-0.3,4.4,1.3,5.6c1.9,1.4,7,0.7,9.1,0.7c9,0.4,18.1,0.5,27.1,0.4c0.6,0,1.3-0.5,1.4-1.1
				c0.3-1.6,0.5-3,0.3-4.6c-1,0-2,0-3,0c0.2,2-14.1,1.5-16,1.6C-84.6,36.4-84.6,39.4-82.7,39.3L-82.7,39.3z"/>
		</g>
	</g>
	<g id="XMLID_154_">
		<g id="XMLID_164_">
			<path id="XMLID_169_" class="st6" d="M-76.7,52.1c-3.6-0.3-7.1-0.4-10.7-0.3c-1.6,0-1.9,2-0.8,2.8c7.1,5.1,14.5,1.8,21-2.6
				c-0.7-0.7-1.4-1.4-2.1-2.1c-1.7,2.4-2.3,4.6-2.1,7.5c0.5-0.5,1-1,1.5-1.5c-4.5,0.4-9.1,0.6-13.6,0.4c-1.9-0.1-3.9-0.2-5.8-0.4
				c-1.8-0.2-3.6-0.4-5.4-0.7c-0.8-1.2-1.2-2.5-1.4-3.9c-0.5,0.6-1,1.3-1.4,1.9c9.3,0.8,18.6,0.4,27.9-1c-0.4-0.9-0.8-1.8-1.2-2.7
				c-1.8,0.9-3.7,1.9-5.5,2.8c-1,0.5-1,2.1,0,2.6c1.4,0.8,2.9,1.4,4.4,2.1c0.1-1,0.3-2,0.4-2.9c-7.8-0.2-15.6-0.5-23.4-0.7
				c-1.9-0.1-1.9,2.9,0,3c7.8,0.2,15.6,0.5,23.4,0.7c1.8,0.1,1.9-2.4,0.4-2.9c-1.3-0.5-2.5-1.1-3.7-1.8c0,0.9,0,1.7,0,2.6
				c1.8-0.9,3.7-1.9,5.5-2.8c1.6-0.8,0.4-3-1.2-2.7c-9,1.4-18,1.7-27.1,0.9c-1-0.1-1.7,1-1.4,1.9c1.3,5.5,2.2,6,7.8,6.6
				c7.1,0.8,14.2,0.8,21.3,0.2c0.8-0.1,1.6-0.6,1.5-1.5c-0.2-2.2,0.4-4.2,1.7-6c0.9-1.2-0.8-2.9-2.1-2.1c-5.6,3.8-11.7,7.1-17.9,2.6
				c-0.3,0.9-0.5,1.9-0.8,2.8c3.6-0.1,7.1,0,10.7,0.3C-74.8,55.2-74.8,52.2-76.7,52.1L-76.7,52.1z"/>
		</g>
	</g>
	<g id="XMLID_161_">
		<g id="XMLID_157_">
			<path id="XMLID_162_" class="st6" d="M-94.2,57.4c0-0.1,0-0.1,0-0.2c0-0.8-0.7-1.5-1.5-1.5c-0.8,0-1.5,0.7-1.5,1.5
				c0,0.1,0,0.1,0,0.2c0,0.8,0.7,1.5,1.5,1.5C-94.9,58.8-94.2,58.2-94.2,57.4L-94.2,57.4z"/>
		</g>
	</g>
	<g id="XMLID_91_">
		<g id="XMLID_145_">
			<path id="XMLID_155_" class="st6" d="M-100,37c-0.7,0-1.4,0-2.2,0c-0.8,0-1.5,0.7-1.5,1.5c0,0.8,0.7,1.5,1.5,1.5
				c0.7,0,1.4,0,2.2,0c0.8,0,1.5-0.7,1.5-1.5C-98.6,37.7-99.2,37-100,37L-100,37z"/>
		</g>
	</g>
	<g id="XMLID_112_">
		<g id="XMLID_138_">
			<path id="XMLID_143_" class="st7" d="M-66,32.6c-11.7,1.2-23.4,1-35-0.6c-1-0.1-0.9,1.4,0,1.5c11.7,1.5,23.3,1.7,35,0.6
				C-65,34-65,32.5-66,32.6L-66,32.6z"/>
		</g>
	</g>
</g>
<g id="fork">
	<g id="XMLID_1183_">
		<g id="XMLID_134_">
			<g id="XMLID_334_">
				<path id="XMLID_400_" class="st8" d="M-34-34c-1.6-0.2-3.2-0.5-4.7-0.9c-0.9-0.3-1.3,1.2-0.4,1.4c1.7,0.5,3.4,0.8,5.1,1
					C-33.1-32.4-33.1-33.9-34-34L-34-34z"/>
			</g>
		</g>
		<g id="XMLID_149_">
			<g id="XMLID_309_">
				<path id="XMLID_322_" class="st8" d="M-34.3-32.3c1,0.5-3.7,19.5-4.1,21.4c-0.7,3.5-1.5,7-2.3,10.5c-0.5,2-1.6,4.5-1.2,6.5
					c0.1,0.5,0.7,0.7,1.1,0.4c0.1,0,0.1-0.1,0.2-0.1c0.3-0.2,0.5-0.7,0.3-1c0,0,0-0.1-0.1-0.1c-0.5-0.8-1.8-0.1-1.3,0.8
					c0.6,1,2.2-4.7,2.3-5.2c0.4-1.6,0.7-3.2,1.1-4.8c0.7-3.2,1.4-6.3,2-9.5c1.3-6.4,2.6-12.7,3.8-19.1c0.1-0.3,0-0.7-0.3-0.8
					c-0.2-0.1-0.4-0.2-0.6-0.3C-34.5-34-35.2-32.7-34.3-32.3L-34.3-32.3z"/>
			</g>
		</g>
		<g id="XMLID_150_">
			<g id="XMLID_298_">
				<path id="XMLID_307_" class="st8" d="M-39.1-33.9c-1,0.9-1.5,2-1.5,3.2c-0.1,0.9-0.2,1.9-0.3,2.8c-0.2,1.8-0.5,3.6-0.7,5.4
					c-0.5,3.4-1.1,6.8-1.6,10.2c-0.9,5.7-2.2,11.7-1.8,17.5c0,0.3,0.2,0.6,0.6,0.7c2.1,0.5,1.6,0.4,3.7,0.5c0.3,0,0.7-0.2,0.7-0.6
					c0.5-3.4,0.9-6.8,1.4-10.2c0.1-0.9-1.3-1.4-1.4-0.4c-0.3,2-0.1,5-0.9,6.8c0.4,1.6-0.1,2.1-1.4,1.5c-1.4,0.2-1.8-0.4-1.1-1.9
					c-0.4-2,0.6-5.2,0.8-7.2c0.3-2.5,0.7-4.9,1.1-7.4c0.7-4.3,1.4-8.7,2-13c0.3-2.4,1.4-6,0.8-8.3c-0.1-0.4-0.5-0.7-0.9-0.5
					c-0.1,0-0.1,0-0.2,0.1c-0.4,0.1-0.6,0.5-0.5,0.9c0,0,0,0.1,0,0.1C-40.4-32.5-38.9-32.9-39.1-33.9L-39.1-33.9z"/>
			</g>
		</g>
		<g id="XMLID_151_">
			<g id="XMLID_290_">
				<path id="XMLID_296_" class="st8" d="M-40.5-11.7c-0.7,3.9-1.4,7.8-1.9,11.7c-0.1,0.9,1.3,1.4,1.4,0.4c0.6-3.6,0.9-7.2,0.9-10.9
					c0-0.7-1-1-1.4-0.4c-2,3.5-2.1,7.1-2,11.1c0,1,1.5,1,1.5,0c0-2.3,0.1-4.3,0.6-6.6c0.2-0.9-1.1-1.3-1.4-0.4
					c-1,3-3.1,7.5-0.7,10.2c0.3,0.3,1,0.3,1.2-0.2c0.7-1.4,0.9-2.5,0.9-4.1c0-0.7-1.1-1.1-1.4-0.4C-43.6,0.5-44,2-44.1,4.1
					c0,0.8,1,1,1.4,0.4c0.8-1.1,1.2-2.1,1.6-3.5c-0.5-0.1-1-0.3-1.4-0.4c-0.1,0.9-0.3,1.9-0.4,2.8c-0.1,0.8,1,1.4,1.4,0.6
					c1.3-2.9,1.5-6.1,2.1-9.2c0.9-4.4,2.1-8.7,2.9-13.2c0.6-3.6,1-7.1,0.8-10.8c-0.2-3.4-0.2,1-0.4,2.2c-0.4,2.4-0.9,4.9-1.5,7.3
					c0.5,0.1,1,0.1,1.5,0.2c0-2.8,2.8-11.6-1.2-13.6c-3.1-1.6-3,2.5-3.5,4.3c0.5,0.1,1,0.3,1.4,0.4c0.2-1,0.5-2.1,0.7-3.1
					c-0.5,0-1,0-1.4,0c0.9,3.7-0.5,7.8-0.9,11.6c-0.5,3.7-0.6,7.3-0.2,11c0.1,0.9,1.5,1,1.5,0c0.1-3.3,0.3-6.6,0.6-9.8
					c0.3-2.3,0.9-11.5,3.7-12.5c-0.3-0.3-0.6-0.6-0.9-0.9c-0.7,2-1.5,4-2.4,5.9c0.5,0.1,0.9,0.3,1.4,0.4c0-1.8,0-3.5,0-5.3
					c0-0.8-1.3-1.1-1.5-0.2c-1.2,6.9-2.9,14-3.3,21c0,0.9,1.2,0.9,1.5,0.2c2.3-5.6,3.5-11.2,3.7-17.2c0-0.8-1.4-1-1.5-0.2
					c-1.6,10.8-3.2,21.6-5,32.4c-0.2,0.9,1.3,1.4,1.4,0.4c1.8-10.8,3.4-21.6,5-32.4c-0.5-0.1-1-0.1-1.5-0.2
					c-0.2,5.9-1.4,11.4-3.7,16.8c0.5,0.1,1,0.1,1.5,0.2c0.4-6.8,2.1-13.8,3.2-20.6c-0.5-0.1-1-0.1-1.5-0.2c0,1.8,0,3.5,0,5.3
					c0,0.7,1.1,1.1,1.4,0.4c1-2,1.9-4.1,2.6-6.2c0.2-0.5-0.4-1.1-0.9-0.9c-2.9,1-3.3,5-3.9,7.6c-1.2,5.3-1.4,10.8-1.6,16.2
					c0.5,0,1,0,1.5,0c-0.5-4.9,0-9.6,0.7-14.5c0.4-2.8,1.1-5.7,0.4-8.5c-0.2-0.7-1.3-0.7-1.4,0c-0.2,1-0.5,2.1-0.7,3.1
					c-0.2,0.9,1.2,1.3,1.4,0.4c0.2-0.4,0.3-0.9,0.4-1.3c2.3,1.2,2.9,3,1.9,5.3c-0.2,1.7-0.5,3.2-0.5,4.9c0,0.8,1.3,1,1.5,0.2
					c0.9-4.2,1.7-8.5,2.3-12.8c0-0.3,0-0.7-0.3-0.8c-4.6-2.1-2.9,6.2-3,8.2c-0.3,4.7-1.4,9.3-2.5,13.8c-1,4.5-1.2,9.9-3.2,14.1
					c0.5,0.2,0.9,0.4,1.4,0.6c0.1-0.9,0.3-1.9,0.4-2.8c0.1-0.9-1.2-1.4-1.4-0.4c-0.2,1.2-0.7,2.2-1.4,3.1c0.5,0.1,0.9,0.3,1.4,0.4
					c0.4-1.6,0.7-3.1,1.1-4.7C-42-0.7-42.4-0.9-42.9-1c0-1.8,0.9-3.8,1.5-5.5c-0.5-0.1-1-0.3-1.4-0.4c-0.5,2.4-0.7,4.6-0.6,7
					c0.5,0,1,0,1.5,0c-0.1-3.6,0-7,1.8-10.3c-0.5-0.1-0.9-0.3-1.4-0.4c0,3.6-0.3,7-0.9,10.5c0.5,0.1,1,0.3,1.4,0.4
					c0.6-3.9,1.2-7.8,1.9-11.7C-38.9-12.2-40.3-12.6-40.5-11.7L-40.5-11.7z"/>
			</g>
		</g>
		<g id="XMLID_153_">
			<g id="XMLID_282_">
				<path id="XMLID_286_" class="st8" d="M-36.9-31.4c0.1-0.2,0.3-0.4,0.4-0.6c-0.5-0.2-0.9-0.4-1.4-0.6c-0.9,6.1-3.8,11.6-4.8,17.6
					c-0.1,0.5,0.2,0.9,0.7,0.9c2.9,0,3.9-2.1,4.5-4.7c0.2-0.9-1.1-1.3-1.4-0.4c-0.1,0.2-0.1,0.4-0.2,0.5c-0.3,0.9,1.2,1.3,1.4,0.4
					c0.1-0.2,0.1-0.4,0.2-0.5c-0.5-0.1-1-0.3-1.4-0.4c-0.2,1.7-1.2,2.9-3.1,3.6c0.2,0.3,0.5,0.6,0.7,0.9c1-6,3.9-11.5,4.8-17.6
					c0.1-0.8-0.9-1.4-1.4-0.6c-0.1,0.2-0.3,0.4-0.4,0.6C-38.7-31.3-37.4-30.6-36.9-31.4L-36.9-31.4z"/>
			</g>
		</g>
		<g id="XMLID_168_">
			<g id="XMLID_275_">
				<path id="XMLID_279_" class="st8" d="M-38.4-33.3c0,0-0.1,0-0.1,0c-0.9-0.2-1.3,1.3-0.4,1.4c0,0,0.1,0,0.1,0
					C-37.9-31.7-37.5-33.2-38.4-33.3L-38.4-33.3z"/>
			</g>
		</g>
		<g id="XMLID_189_">
			<g id="XMLID_268_">
				<path id="XMLID_272_" class="st8" d="M-38.6-33.6c-0.1-0.1-0.3-0.2-0.4-0.3c-0.3-0.2-0.8,0-1,0.3c-0.2,0.4-0.1,0.8,0.3,1
					c0.1,0.1,0.3,0.2,0.4,0.3c0.3,0.2,0.8,0,1-0.3C-38.1-32.9-38.2-33.3-38.6-33.6L-38.6-33.6z"/>
			</g>
		</g>
		<g id="XMLID_224_">
			<g id="XMLID_261_">
				<path id="XMLID_265_" class="st8" d="M-34-36.8c-0.2,1.2-0.4,2.4-0.6,3.6c-0.1,0.9,1.3,1.4,1.4,0.4c0.2-1.2,0.4-2.4,0.6-3.6
					C-32.4-37.3-33.8-37.7-34-36.8L-34-36.8z"/>
			</g>
		</g>
		<g id="XMLID_231_">
			<g id="XMLID_257_">
				<path id="XMLID_308_" class="st8" d="M-38.7-37.7c-0.2,1.2-0.5,2.5-0.8,3.7c-0.2,0.9,1.2,1.3,1.4,0.4c0.3-1.2,0.6-2.4,0.8-3.7
					C-37.1-38.3-38.5-38.7-38.7-37.7L-38.7-37.7z"/>
			</g>
		</g>
		<g id="XMLID_238_">
			<g id="XMLID_328_">
				<path id="XMLID_398_" class="st8" d="M-33-36.2c5.8-0.4,10.3-7.6,11.1-12.9c0.8-5.5-2.6-14.2-8.3-15.9c-5.9-1.8-11.9,3-14.1,8.2
					c-1.3,3.2-1.5,6.7-0.6,10c0.5,1.6,1.2,3.2,2.3,4.6c1.1,1.5,3.6,2.9,3.9,4.8c0.2,0.9,1.6,0.5,1.4-0.4c-0.6-3.4-4.7-5.1-6-8.7
					c-2.2-6.2,0.7-14.1,7.1-16.5c7.7-2.9,12.7,5.6,12.7,12.3c0,4.9-4,12.7-9.5,13C-33.9-37.6-34-36.1-33-36.2L-33-36.2z"/>
			</g>
		</g>
		<g id="XMLID_364_">
			<g id="XMLID_478_">
				<path id="XMLID_482_" class="st8" d="M2.1-50.7c0.7,1,1.2,2.1,1.4,3.3c0.2,0.9,1.6,0.5,1.4-0.4c-0.3-1.3-0.8-2.6-1.6-3.7
					C2.8-52.2,1.5-51.4,2.1-50.7L2.1-50.7z"/>
			</g>
		</g>
		<g id="XMLID_371_">
			<g id="XMLID_467_">
				<path id="XMLID_473_" class="st8" d="M4.1-47.7c-5.5,1.8-11,3.7-16.4,5.5c-0.9,0.3-0.5,1.8,0.4,1.4c5.5-1.8,11-3.7,16.4-5.5
					C5.4-46.5,5-48,4.1-47.7L4.1-47.7z"/>
			</g>
		</g>
		<g id="XMLID_378_">
			<g id="XMLID_459_">
				<path id="XMLID_465_" class="st8" d="M2-51.7c-6.4,3.1-13.3,3.8-19.6,7c-0.9,0.4-0.1,1.7,0.8,1.3c6.3-3.2,13.3-3.9,19.6-7
					C3.6-50.8,2.9-52.1,2-51.7L2-51.7z"/>
			</g>
		</g>
		<g id="XMLID_385_">
			<g id="XMLID_451_">
				<path id="XMLID_457_" class="st8" d="M-13.7-42.2c-1-0.5-2.1-1-3.2-1.4c-0.9-0.3-1.3,1.1-0.4,1.4c1,0.4,1.9,0.8,2.9,1.2
					C-13.6-40.5-12.9-41.8-13.7-42.2L-13.7-42.2z"/>
			</g>
		</g>
		<g id="XMLID_392_">
			<g id="XMLID_444_">
				<path id="XMLID_449_" class="st8" d="M-13.9-41c-1-0.3-2-0.7-3-1.1c-0.9-0.4-1.6,0.9-0.8,1.3c1.1,0.5,2.2,0.9,3.4,1.3
					C-13.4-39.3-13-40.7-13.9-41L-13.9-41z"/>
			</g>
		</g>
		<g id="XMLID_399_">
			<g id="XMLID_438_">
				<path id="XMLID_442_" class="st8" d="M-14.6-39.5c-0.9-0.4-1.8-0.8-2.6-1.2c-0.9-0.4-1.6,0.9-0.8,1.3c1,0.5,2,0.9,3,1.3
					c0.4,0.2,0.8-0.2,0.9-0.5C-14-39-14.3-39.4-14.6-39.5L-14.6-39.5z"/>
			</g>
		</g>
		<g id="XMLID_225_">
			<g id="XMLID_431_">
				<path id="XMLID_436_" class="st8" d="M-13.7-40.9c-3.4,13.5-4.8,27.4-8.9,40.7c-0.3,0.9,1.2,1.3,1.4,0.4
					c4.1-13.3,5.5-27.2,8.9-40.7C-12-41.4-13.4-41.8-13.7-40.9L-13.7-40.9z"/>
			</g>
		</g>
		<g id="XMLID_232_">
			<g id="XMLID_424_">
				<path id="XMLID_429_" class="st8" d="M-18-42.7c-2.8,13.6-5.6,27.3-8.3,40.9c-0.2,0.9,1.3,1.3,1.4,0.4
					c2.8-13.6,5.5-27.3,8.3-40.9C-16.3-43.2-17.8-43.6-18-42.7L-18-42.7z"/>
			</g>
		</g>
		<g id="XMLID_420_">
			<g id="XMLID_422_">
				<path id="XMLID_474_" class="st8" d="M-22.3-1.5c-1.1,0-2.1-0.3-3-1c-0.7-0.6-1.8,0.4-1.1,1.1c1.1,1,2.5,1.6,4,1.5
					C-21.4-0.1-21.4-1.6-22.3-1.5L-22.3-1.5z"/>
			</g>
		</g>
		<g id="XMLID_294_">
			<g id="XMLID_469_">
				<path id="XMLID_477_" class="st8" d="M-51.7-30.5c-1.6,0.4-3.1,0.7-4.7,0.8c-1,0.1-1,1.6,0,1.5c1.7-0.2,3.4-0.4,5.1-0.9
					C-50.4-29.3-50.8-30.7-51.7-30.5L-51.7-30.5z"/>
			</g>
		</g>
		<g id="XMLID_288_">
			<g id="XMLID_448_">
				<path id="XMLID_462_" class="st8" d="M-51.3-28.8c0.9,0,3.3,18.7,3.7,20.6c0.5,3.2,1,6.4,1.5,9.6c0.4,2.4,0.2,6.2,1.5,8.3
					c0.3,0.5,1,0.4,1.3,0c0,0,0.1-0.1,0.1-0.1c0.2-0.2,0.1-0.7-0.1-0.9c0,0-0.1-0.1-0.1-0.1C-44.3,8-45.3,9-44.6,9.6
					c0-0.2-0.1-0.5-0.1-0.7c0.4,0,0.9,0,1.3,0c-1.4-2.1-1.2-7.4-1.6-9.8c-0.5-3.2-1-6.4-1.6-9.6c-1.1-6.4-2.2-12.8-3.4-19.2
					c-0.1-0.3-0.4-0.5-0.7-0.6c-0.2,0-0.4,0-0.7,0C-52.3-30.3-52.3-28.8-51.3-28.8L-51.3-28.8z"/>
			</g>
		</g>
		<g id="XMLID_287_">
			<g id="XMLID_417_">
				<path id="XMLID_434_" class="st8" d="M-56.4-28.5c-0.7,1.1-0.8,2.3-0.3,3.4c0.2,0.9,0.5,1.8,0.7,2.7c0.4,1.5,0.7,3.1,1.1,4.6
					c0.8,3.4,1.5,6.8,2.2,10.1c1.3,6,2.3,12.3,4.9,17.9c0.1,0.3,0.5,0.4,0.8,0.3c1.2-0.1,2.4-0.3,3.5-0.8c0.4-0.1,0.6-0.5,0.5-0.9
					c-0.8-3.3-1.6-6.7-2.4-10c-0.2-0.9-1.7-0.5-1.4,0.4c0.5,2.2,1.4,4.5,1.6,6.7c0.2,2,0.2,5.5-2.5,0.6c-1.9-3.4-2.3-8.9-3.1-12.7
					c-1-4.3-1.8-8.6-2.8-12.9c-0.7-2.8-0.9-7.3-2.7-9.6c-0.3-0.4-0.8-0.5-1.2-0.2c0,0-0.1,0.1-0.1,0.1c-0.2,0.2-0.3,0.6-0.1,0.9
					c0,0,0.1,0.1,0.1,0.1C-57.2-26.9-55.9-27.6-56.4-28.5L-56.4-28.5z"/>
			</g>
		</g>
		<g id="XMLID_280_">
			<g id="XMLID_409_">
				<path id="XMLID_415_" class="st8" d="M-49.8-7.2c0.7,3.9,1.5,7.7,2.4,11.6c0.2,0.9,1.6,0.5,1.4-0.4c-0.7-3.5-1.7-7-3-10.3
					c-0.3-0.8-1.4-0.6-1.5,0.2c-0.5,4,0.6,7.2,2.1,10.8c0.4,0.9,1.8,0.5,1.4-0.4c-0.9-2.2-1.5-4.3-1.9-6.6c-0.1-0.8-1.5-0.6-1.5,0.2
					c0.2,3.1-0.2,8.2,3,9.8c0.5,0.3,1.1-0.1,1.1-0.6c0.1-1.5-0.1-2.6-0.6-4c-0.3-0.8-1.4-0.7-1.5,0.2c-0.1,2,0.1,3.4,0.7,5.3
					c0.2,0.6,1.3,0.8,1.4,0c0.4-2.3,0.4-1.5,0.2-3.8c-0.5,0.1-1,0.1-1.5,0.2c0.2,0.9,0.4,1.9,0.6,2.8c0.2,0.8,1.4,0.6,1.5-0.2
					c0.1-3.7-1-7.2-1.6-10.8c-0.7-4.2-1.1-8.4-2-12.5c-0.7-3.3-1.6-6.6-3.1-9.7c-1.3-2.8,0.3,1.6,0.5,2.4c0.5,2.4,0.9,4.9,1.3,7.3
					c0.5-0.1,1-0.3,1.4-0.4c-1.1-3-1.5-11.4-5.8-12.2c-3.5-0.7-2,3.3-1.9,5.1c0.5-0.1,1-0.1,1.5-0.2c-0.2-1.1-0.3-2.1-0.5-3.2
					c-0.5,0.2-0.9,0.4-1.4,0.6c2.3,3.2,2.6,8.2,3.6,12c0.9,3.4,2,6.5,3.6,9.6c0.4,0.7,1.6,0.2,1.4-0.6c-1.2-3.4-2.3-6.8-3.2-10.2
					c-0.7-2.6-3.2-10.2-0.7-12.3c-0.4-0.2-0.9-0.4-1.3-0.5c0.1,2.2,0.1,4.4-0.2,6.6c0.5-0.1,1-0.1,1.5-0.2c-0.6-1.7-1.3-3.3-1.9-5
					c-0.3-0.9-1.6-0.6-1.4,0.4c1.4,6.6,1.9,14.5,4.5,20.7c0.3,0.7,1.4,0.3,1.4-0.4c0.1-6-0.8-11.7-2.7-17.4
					c-0.3-0.9-1.7-0.5-1.4,0.4c2.5,10.6,4.8,21.3,7.1,32c0.2,0.9,1.6,0.5,1.4-0.4c-2.3-10.7-4.6-21.3-7.1-32c-0.5,0.1-1,0.3-1.4,0.4
					c1.9,5.5,2.8,11.1,2.7,17c0.5-0.1,0.9-0.3,1.4-0.4c-2.6-6-3.1-13.9-4.4-20.4c-0.5,0.1-1,0.3-1.4,0.4c0.6,1.7,1.3,3.3,1.9,5
					c0.3,0.8,1.4,0.7,1.5-0.2c0.2-2.2,0.3-4.3,0.2-6.6c0-0.7-0.8-0.9-1.3-0.5c-2.1,1.8-1.2,5.2-0.9,7.6c0.8,5.6,2.6,11,4.4,16.4
					c0.5-0.2,0.9-0.4,1.4-0.6c-2.1-4-3.2-8.2-4.3-12.6c-0.7-3-1.1-6.5-2.9-9.1c-0.5-0.7-1.5-0.3-1.4,0.6c0.2,1.1,0.3,2.1,0.5,3.2
					c0.1,0.8,1.5,0.6,1.5-0.2c0-0.3-0.2-1.1-0.1-1.4c1.5-2.9,2.4,0,3.1,2.1c0.7,2.2,1,4.5,1.8,6.7c0.3,0.9,1.6,0.6,1.4-0.4
					c-0.7-4.3-1.5-8.5-2.4-12.7c-0.1-0.3-0.4-0.5-0.7-0.6c-5.2-0.3,0.2,8.4,0.6,10c1.1,3.8,1.6,7.7,2.2,11.5
					c0.7,5,2.4,10.4,2.3,15.5c0.5-0.1,1-0.1,1.5-0.2c-0.2-0.9-0.4-1.9-0.6-2.8c-0.2-0.8-1.5-0.7-1.5,0.2c-0.1,1.1-0.1,2.3-0.2,3.4
					c0.5,0,1,0,1.4,0c-0.7-1.6-0.9-3.2-0.7-4.9c-0.5,0.1-1,0.1-1.5,0.2c0.6,1.1,0.7,2.3,0.5,3.6c0.4-0.2,0.8-0.4,1.1-0.6
					c-2.6-1.3-2.1-6.1-2.2-8.5c-0.5,0.1-1,0.1-1.5,0.2c0.4,2.3,1,4.4,1.9,6.6c0.5-0.1,1-0.3,1.4-0.4c-1.4-3.4-2.5-6.7-2-10.4
					c-0.5,0.1-1,0.1-1.5,0.2c1.3,3.4,2.3,6.8,3,10.3c0.5-0.1,1-0.3,1.4-0.4c-0.9-3.8-1.7-7.7-2.4-11.6C-48.5-8.6-49.9-8.2-49.8-7.2
					L-49.8-7.2z"/>
			</g>
		</g>
		<g id="XMLID_273_">
			<g id="XMLID_401_">
				<path id="XMLID_405_" class="st8" d="M-53.5-27c0-0.2,0.1-0.5,0.1-0.7c-0.5,0-1,0-1.4,0c1.3,6,0.7,12.1,1.9,18.1
					c0.1,0.4,0.6,0.6,0.9,0.5c2.9-0.9,3-3.6,2.6-6.2c-0.1-0.8-1.5-0.6-1.5,0.2c0,0.2,0,0.4,0,0.6c0.1,1,1.6,1,1.5,0
					c0-0.2,0-0.4,0-0.6c-0.5,0.1-1,0.1-1.5,0.2c0.6,1.7,0.1,3.2-1.5,4.3c0.3,0.2,0.6,0.3,0.9,0.5c-1.2-6-0.6-12.2-1.9-18.1
					c-0.2-0.7-1.3-0.7-1.4,0c0,0.2-0.1,0.5-0.1,0.7C-55.1-26.4-53.7-26-53.5-27L-53.5-27z"/>
			</g>
		</g>
		<g id="XMLID_266_">
			<g id="XMLID_391_">
				<path id="XMLID_397_" class="st8" d="M-55.8-28.3c0,0-0.1,0-0.1,0c-0.9,0.2-0.5,1.6,0.4,1.4c0,0,0.1,0,0.1,0
					C-54.4-27-54.8-28.4-55.8-28.3L-55.8-28.3z"/>
			</g>
		</g>
		<g id="XMLID_259_">
			<g id="XMLID_383_">
				<path id="XMLID_389_" class="st8" d="M-55.8-28.4c-0.2-0.1-0.4-0.1-0.5-0.2c-0.9-0.3-1.3,1.2-0.4,1.4c0.2,0.1,0.4,0.1,0.5,0.2
					C-55.3-26.7-54.9-28.2-55.8-28.4L-55.8-28.4z"/>
			</g>
		</g>
		<g id="XMLID_252_">
			<g id="XMLID_375_">
				<path id="XMLID_381_" class="st8" d="M-52.7-33c0.3,1.2,0.5,2.4,0.8,3.6c0.2,0.9,1.7,0.5,1.4-0.4c-0.3-1.2-0.5-2.4-0.8-3.6
					C-51.5-34.3-52.9-33.9-52.7-33L-52.7-33z"/>
			</g>
		</g>
		<g id="XMLID_245_">
			<g id="XMLID_368_">
				<path id="XMLID_373_" class="st8" d="M-57.5-32.2c0.2,1.2,0.4,2.3,0.6,3.5c0.1,0.9,1.6,1,1.5,0c-0.1-1.3-0.4-2.6-0.6-3.9
					C-56.2-33.5-57.7-33.1-57.5-32.2L-57.5-32.2z"/>
			</g>
		</g>
		<g id="XMLID_295_">
			<g id="XMLID_361_">
				<path id="XMLID_366_" class="st8" d="M-49.5-54.2c0-0.2-0.1-0.4-0.1-0.7c-0.2-0.9-1.6-0.5-1.4,0.4c0.8,4.6,4.1,14.3,0.4,18.2
					c-1.2,1.3-3,1.4-2,3.6c0.4,0.9,1.8,0.5,1.4-0.4c-0.4-0.9,2.4-2.4,3-3.4c0.8-1.2,0.6-2.6,0.6-4c-0.2-4.9-1.1-9.7-2-14.5
					c-0.5,0.1-1,0.3-1.4,0.4c0,0.2,0.1,0.4,0.1,0.7C-50.8-52.8-49.4-53.2-49.5-54.2L-49.5-54.2z"/>
			</g>
		</g>
		<g id="XMLID_301_">
			<g id="XMLID_355_">
				<path id="XMLID_359_" class="st8" d="M-50.1-55.2c-0.5-1.4-0.9-2.8-1.4-4.2c-0.1-0.3-0.4-0.6-0.7-0.6c-0.8,0.1-1,0.1-1.6,0.3
					c-0.3,0.1-0.5,0.4-0.6,0.7c-0.2,2,0.7,4.7,1.1,6.7c0.3,1.4,2.3,8.3,0.3,8.5c-1,0.1-1,1.6,0,1.5c3.2-0.2,2.8-1.5,2.3-4.3
					c-0.4-2.4-0.9-4.8-1.3-7.2c-0.1-0.7-0.9-2.9-0.7-3.6c0.1-0.9,0.3-0.7,0.5,0.5c0.2,0.7,0.5,1.4,0.7,2.1
					C-51.2-53.9-49.8-54.3-50.1-55.2L-50.1-55.2z"/>
			</g>
		</g>
		<g id="XMLID_302_">
			<g id="XMLID_348_">
				<path id="XMLID_353_" class="st8" d="M-58-58.2c1.2,4.1,1.6,8.3,2.4,12.4c0.2,1.2,0.4,4,2.2,3.7c1-0.1,0.5-1.6-0.4-1.4
					c0.6-0.1-2.5-14.2-2.7-15.1C-56.8-59.5-58.3-59.1-58-58.2L-58-58.2z"/>
			</g>
		</g>
		<g id="XMLID_303_">
			<g id="XMLID_342_">
				<path id="XMLID_346_" class="st8" d="M-58.3-59c-3.3,0.8-2.9,1.2-2.2,4.6c0.9,4.1,1.5,8.2,3.3,12c0.4,0.9,1.7,0.1,1.3-0.8
					c-1.2-2.5-1.8-5.1-2.4-7.9c-0.4-2-2.3-5.9,0.3-6.5C-57-57.7-57.4-59.2-58.3-59L-58.3-59z"/>
			</g>
		</g>
		<g id="XMLID_304_">
			<g id="XMLID_335_">
				<path id="XMLID_339_" class="st8" d="M-57-43.6c-0.9,0.3-1.7,0.5-2.7,0.6c-1,0.1-1,1.6,0,1.5c1-0.1,2.1-0.3,3.1-0.7
					C-55.7-42.5-56.1-43.9-57-43.6L-57-43.6z"/>
			</g>
		</g>
		<g id="XMLID_305_">
			<g id="XMLID_327_">
				<path id="XMLID_332_" class="st8" d="M-64.1-56.7c1.1,4,1.5,7.9,2.3,12c0.2,1.1,0.8,3.1,2.3,3c0.6-0.1,0.9-0.6,0.6-1.1
					c0,0,0-0.1,0-0.1c-0.2-0.4-0.7-0.4-1-0.3c0,0,0,0-0.1,0c-0.9,0.4-0.1,1.7,0.8,1.3c0,0,0,0,0.1,0c-0.3-0.1-0.7-0.2-1-0.3
					c0,0,0,0.1,0,0.1c0.2-0.4,0.4-0.8,0.6-1.1c-0.6,0.1-2.8-12.8-3.1-13.8C-62.9-58-64.4-57.6-64.1-56.7L-64.1-56.7z"/>
			</g>
		</g>
		<g id="XMLID_340_">
			<g id="XMLID_315_">
				<path id="XMLID_319_" class="st8" d="M-63.4-57.4c-0.9,0.2-1.9,0.3-2.8,0.5c-0.9,0.2-0.5,1.6,0.4,1.4c0.9-0.2,1.9-0.3,2.8-0.5
					C-62.1-56.2-62.5-57.6-63.4-57.4L-63.4-57.4z"/>
			</g>
		</g>
		<g id="XMLID_352_">
			<g id="XMLID_313_">
				<path id="XMLID_443_" class="st8" d="M-66.9-55.8c1.5,6.8,2,20.7,9.9,23.7c0.9,0.3,1.3-1.1,0.4-1.4c-6.9-2.6-7.5-16.6-8.9-22.6
					C-65.7-57.1-67.1-56.7-66.9-55.8L-66.9-55.8z"/>
			</g>
		</g>
	</g>
</g>
</svg>
