<?xml version="1.0" encoding="utf-8"?>
<!-- Generator: Adobe Illustrator 19.0.0, SVG Export Plug-In . SVG Version: 6.00 Build 0)  -->
<svg version="1.1" xmlns="http://www.w3.org/2000/svg" xmlns:xlink="http://www.w3.org/1999/xlink" x="0px" y="0px"
	 viewBox="0 0 78.7 108.2" style="enable-background:new 0 0 78.7 108.2;" xml:space="preserve">
<style type="text/css">
	.st0{fill:none;stroke:#000000;stroke-miterlimit:10;}
	.st1{fill:#EF6E6C;}
	.st2{fill:#D6C9C9;}
	.st3{fill:#30102E;}
	.st4{fill:#581B56;}
	.st5{fill:#7CB2D9;}
	.st6{fill:#7FB686;}
	.st7{fill:#98D09A;}
	.st8{fill:#DDAE7E;}
</style>
<g id="spoon">
	<g id="XMLID_1_">
		<g id="XMLID_13_">
			<path id="XMLID_17_" class="st0" d="M-22.3-69.1"/>
		</g>
	</g>
	<g id="XMLID_5_">
		<g id="XMLID_23_">
			<path id="XMLID_27_" class="st1" d="M-20.3-62.5c-0.2,0-0.4,0-0.7,0c-1-0.1-0.9,1.4,0,1.5c3.3,0.4,6.6,0.9,9.9,1.3
				c1,0.1,0.9-1.4,0-1.5c-3.3-0.4-6.6-0.9-9.9-1.3c0,0.5,0,1,0,1.5c0.2,0,0.4,0,0.7,0C-19.3-60.9-19.3-62.4-20.3-62.5L-20.3-62.5z"
				/>
		</g>
	</g>
	<g id="XMLID_6_">
		<g id="XMLID_30_">
			<path id="XMLID_34_" class="st1" d="M-12.2-59.8c0,0.2,0.1,0.4,0.1,0.6c0.2-0.2,0.5-0.5,0.8-0.8c-1.3,0.1-2.6,0.3-3.9,0.6
				c-0.6,0.1-0.7,1.1-0.2,1.4c1,0.5,2,1.1,2.8,1.9c0-0.4,0-0.7,0-1.1c-1,1.1-1.9,0.6-2.4,2c-0.1,0.2,0,0.6,0.2,0.7
				c1.2,1.2-0.8,0.8-1.2,1.9c-0.4,1,1.9,3.5,1.3,3.8c-0.5,0.3-0.5,1,0,1.3c2,1.1-0.8,1.9-1.1,2.7c-0.5,1.2,0.7,2.1,1.1,3.1
				c0.4,0.9,1.8,0.5,1.4-0.4c-0.5-1.1-1-1.5-0.3-2.4c0.3-0.4,1.1-0.4,1.4-0.9c0.9-1.5-0.6-2.7-1.8-3.4c0,0.4,0,0.9,0,1.3
				c1-0.5,1.6-1.3,1.3-2.5c-0.1-0.5-0.6-0.8-0.7-1.2c-0.5-1.8-0.3-0.1,0.3-1.2c0.5-1.1,0.6-0.6,0.9-1.8c0.1-0.3-0.8-0.7-0.7-0.8
				c-0.1,0.3,1.6-1.2,1.5-1.1c0.2-0.3,0.3-0.8,0-1.1c-1-0.8-2-1.5-3.2-2.1c-0.1,0.5-0.1,0.9-0.2,1.4c1.1-0.2,2.3-0.4,3.5-0.5
				c0.4,0,0.7-0.3,0.8-0.8c0.1-0.7,0-0.8-0.3-1.3C-11.4-61.4-12.7-60.7-12.2-59.8L-12.2-59.8z"/>
		</g>
	</g>
	<g id="XMLID_7_">
		<g id="XMLID_37_">
			<path id="XMLID_41_" class="st1" d="M-14.8-42.2c-3-0.1-6-0.3-9-0.7c-1-0.1-0.9,1.4,0,1.5c3,0.4,6,0.6,9,0.7
				C-13.8-40.7-13.8-42.2-14.8-42.2L-14.8-42.2z"/>
		</g>
	</g>
	<g id="XMLID_9_">
		<g id="XMLID_44_">
			<path id="XMLID_48_" class="st1" d="M-22.2-63.9c-1.8,5.3-2.5,10.8-3,16.4c-0.6,6.1-2.2,12-2.9,18.1c-0.8,6.2-0.9,12.3-1.9,18.4
				C-31.1-5-32,1-32,7.1c0,1,1.5,1,1.5,0c-0.1-6.6,1.1-13,2.1-19.4c0.8-5.2,1-10.3,1.5-15.5c0.5-5.4,2.2-10.7,2.7-16.1
				c0.7-6.6,1.2-13.2,3.3-19.5C-20.5-64.4-21.9-64.8-22.2-63.9L-22.2-63.9z"/>
		</g>
	</g>
	<g id="XMLID_10_">
		<g id="XMLID_51_">
			<path id="XMLID_55_" class="st1" d="M-21.5-64.1c0.1-0.8-0.6-1.3-1.3-1.5c-1.2-0.3-2.4-0.4-3.6-0.6c-0.9-0.2-1.3,1.3-0.4,1.4
				c0.7,0.1,1.5,0.3,2.2,0.4c0.3,0.1,0.6,0.1,1,0.2c0.2,0,0.3,0.1,0.5,0.1c0.2,0.1,0.2,0.1,0.1,0C-23.1-63.1-21.6-63.1-21.5-64.1
				L-21.5-64.1z"/>
		</g>
	</g>
	<g id="XMLID_11_">
		<g id="XMLID_58_">
			<path id="XMLID_62_" class="st1" d="M-27.3-65.6c-1.5,2.4-1.8,4.8-2,7.6c-0.3,4.7-1.5,9-2.2,13.7c-1.1,7.3-2.4,14.5-2.5,21.9
				C-34-13.9-37-5.7-37.8,2.8c-0.4,4.3,2.4,5.4,6.5,5.1c1-0.1,1-1.6,0-1.5c-1.4,0.5-2.5,0.1-3.4-1.1c-1.6-0.4-2.1-1.3-1.5-2.6
				c-0.2-1.4,0.6-3.4,0.8-4.9c0.5-3,1-5.9,1.5-8.9c1-6,0.8-11.8,1.6-17.8c0.3-2.6,1.3-5.1,1.7-7.7c0.5-3.4,0.4-6.7,1.1-10
				c0.5-2.5,1.2-4.9,1.5-7.4c0.4-3.8-0.1-7.4,2-10.8C-25.5-65.7-26.8-66.4-27.3-65.6L-27.3-65.6z"/>
		</g>
	</g>
	<g id="XMLID_12_">
		<g id="XMLID_65_">
			<path id="XMLID_69_" class="st1" d="M-18.7-57.9c-0.1-0.1-0.1-0.1-0.2-0.2c-0.7-0.7-1.7,0.4-1.1,1.1c0.1,0.1,0.1,0.1,0.2,0.2
				C-19.1-56.2-18-57.3-18.7-57.9L-18.7-57.9z"/>
		</g>
	</g>
	<g id="XMLID_19_">
		<g id="XMLID_72_">
			<path id="XMLID_76_" class="st1" d="M-19.4-57c1,0,1-1.5,0-1.5C-20.4-58.5-20.4-57-19.4-57L-19.4-57z"/>
		</g>
	</g>
	<g id="XMLID_21_">
		<g id="XMLID_79_">
			<path id="XMLID_83_" class="st1" d="M-18.4-58.8c-1.4,0-2.8,0-4.2,0c-1,0-1,1.5,0,1.5c1.4,0,2.8,0,4.2,0
				C-17.5-57.3-17.5-58.8-18.4-58.8L-18.4-58.8z"/>
		</g>
	</g>
	<g id="XMLID_28_">
		<g id="XMLID_86_">
			<path id="XMLID_90_" class="st1" d="M-16.8-56.2c-1.7-0.2-3.3-0.2-5-0.1c-1,0.1-1,1.6,0,1.5c1.7-0.2,3.3-0.1,5,0.1
				C-15.8-54.5-15.8-56-16.8-56.2L-16.8-56.2z"/>
		</g>
	</g>
	<g id="XMLID_35_">
		<g id="XMLID_93_">
			<path id="XMLID_97_" class="st1" d="M-20.4-54.2c-1.1,0.1-2.2,0-3.3-0.1c-0.9-0.2-1.4,1.3-0.4,1.4c1.2,0.2,2.5,0.3,3.7,0.2
				C-19.5-52.7-19.5-54.2-20.4-54.2L-20.4-54.2z"/>
		</g>
	</g>
	<g id="XMLID_42_">
		<g id="XMLID_100_">
			<path id="XMLID_104_" class="st1" d="M-18.1-51.8c-1.9-0.1-3.8-0.1-5.7-0.2c-1,0-1,1.5,0,1.5c1.9,0.1,3.8,0.1,5.7,0.2
				C-17.1-50.3-17.1-51.8-18.1-51.8L-18.1-51.8z"/>
		</g>
	</g>
	<g id="XMLID_49_">
		<g id="XMLID_107_">
			<path id="XMLID_111_" class="st1" d="M-18.6-49.7c-1.7,0.2-3.4,0.2-5.2,0.2c-1,0-1,1.5,0,1.5c1.7,0.1,3.4,0,5.2-0.2
				C-17.6-48.2-17.6-49.7-18.6-49.7L-18.6-49.7z"/>
		</g>
	</g>
	<g id="XMLID_56_">
		<g id="XMLID_114_">
			<path id="XMLID_118_" class="st1" d="M-20.3-47c-1.3,0-2.7,0-4,0c-1,0-1,1.5,0,1.5c1.3,0,2.7,0,4,0C-19.3-45.5-19.3-47-20.3-47
				L-20.3-47z"/>
		</g>
	</g>
	<g id="XMLID_63_">
		<g id="XMLID_121_">
			<path id="XMLID_125_" class="st1" d="M-18.6-44.8c-2.1,0-4.1,0-6.2,0c-1,0-1,1.5,0,1.5c2.1,0,4.1,0,6.2,0
				C-17.6-43.3-17.6-44.8-18.6-44.8L-18.6-44.8z"/>
		</g>
	</g>
</g>
<g id="toilet_tissues">
	<g id="XMLID_113_">
		<g id="XMLID_919_">
			<path id="XMLID_923_" class="st2" d="M-113.3,35.1c3.3,0.1,6.4,0.9,9.5,2c1.7,0.6,3.4,1.3,5,2.1c1.1,0.5,2.1,1.2,3,2
				c0.2,1.8,0.5,3.6,0.7,5.4c-0.9,2.2-8.1,3.2-10.3,3.6c-3.5,0.6-7.1,0.8-10.7,0.7c-3.6-0.1-7.2-0.5-10.7-1.1
				c-1.1-0.2-2.6-0.2-3.6-0.7c-1.8,0-2.5-1.2-2.1-3.4c-1.5-1.9-1.4-3.2,0.3-4c1.9-2.4,6.6-3.9,9.4-4.9c3.5-1.2,7-1.8,10.7-2
				c1-0.1,1-1.6,0-1.5c-5,0.3-9.9,1.3-14.5,3.4c-3.2,1.4-8.6,3.8-9.5,7.7c-1.9,8.3,15.2,8,20,8.1c5.5,0.2,11.1-0.4,16.4-1.9
				c2.7-0.8,6.7-2.1,7.1-5.5c1-8-15.4-11.2-20.7-11.5C-114.3,33.5-114.3,35-113.3,35.1L-113.3,35.1z"/>
		</g>
	</g>
	<g id="XMLID_120_">
		<g id="XMLID_926_">
			<path id="XMLID_930_" class="st2" d="M-93.7,44.9c-0.3,17.7,0.4,35.3,2.2,52.8c0.1,1,1.6,1,1.5,0c-1.8-17.6-2.5-35.2-2.2-52.8
				C-92.2,43.9-93.7,43.9-93.7,44.9L-93.7,44.9z"/>
		</g>
	</g>
	<g id="XMLID_127_">
		<g id="XMLID_933_">
			<path id="XMLID_937_" class="st2" d="M-136.4,46.7c1.2,9,0.2,18.1,0.9,27.1c0.6,8.4,2.7,16.6,3.1,25c0.1,1,1.6,1,1.5,0
				c-0.4-8.4-2.5-16.6-3.1-25c-0.7-9,0.2-18.1-0.9-27.1C-135,45.8-136.5,45.8-136.4,46.7L-136.4,46.7z"/>
		</g>
	</g>
	<g id="XMLID_128_">
		<g id="XMLID_940_">
			<path id="XMLID_944_" class="st2" d="M-92.2,98.3c-1.2,2.6-7.4,3.6-9.9,4.1c-3.5,0.7-7,1-10.5,0.9c-7.1-0.2-14-2-20.4-5.1
				c-0.9-0.4-1.6,0.9-0.8,1.3c7.4,3.6,15.4,5.5,23.6,5.3c3.9-0.1,7.9-0.7,11.7-1.7c2.6-0.7,6.4-1.3,7.6-4
				C-90.5,98.2-91.8,97.4-92.2,98.3L-92.2,98.3z"/>
		</g>
	</g>
	<g id="XMLID_129_">
		<g id="XMLID_947_">
			<path id="XMLID_951_" class="st2" d="M-115.3,40.8c1.4,0,3.8,0,5,0.8c0.9,0.1,1,0.8,0.4,2c-0.3,0-0.6,0.1-0.9,0.1
				c-0.7,0.2-1.8,0.1-2.6,0.1c-0.8,0-3.8,0.3-4.3-0.3c-2.2-2.5,4-2.7,4.5-2.8c1-0.1,1-1.6,0-1.5c-2.1,0.1-7,0.4-7,3.5
				c0.1,3,4.8,2.6,6.7,2.6c1.7,0,6.9,0.3,6.5-2.8c-0.4-2.9-6.4-3.1-8.5-3.2C-116.3,39.3-116.3,40.8-115.3,40.8L-115.3,40.8z"/>
		</g>
	</g>
	<g id="XMLID_130_">
		<g id="XMLID_954_">
			<path id="XMLID_958_" class="st2" d="M-90.1,20c4.5-0.9,9.1-0.8,13.4,0.9c3,0.5,4.2,2.5,3.5,5.9c-1.5,0.7-3,1.2-4.6,1.3
				c-2.3,0.4-4.7,0.5-7.1,0.6c-1.9,0-3.8,0-5.8-0.1c-2-0.1-7,0.3-8.4-1.1c-0.7-2.1-1.4-4.1-2.1-6.2c1.5-0.6,3-1.1,4.5-1.5
				c2.9-0.7,5.8-0.7,8.7-0.5c1,0.1,1-1.4,0-1.5c-3.8-0.2-16.7-0.3-16.7,5.9c-0.1,7.8,16.4,6.5,20.7,6.3c3-0.1,16.8-0.7,13.7-6.8
				c-1.3-2.6-5.8-3.9-8.3-4.6c-4-1.1-8-1-12-0.2C-91.5,18.7-91.1,20.2-90.1,20L-90.1,20z"/>
		</g>
	</g>
	<g id="XMLID_741_">
		<g id="XMLID_961_">
			<path id="XMLID_965_" class="st2" d="M-86.5,23.6c0.7,0,3.6-0.1,2.8,1.1c-0.5,0.7-3.7,0.5-4.5,0.4c-0.7,0-1.7,0-2.3-0.3
				c-0.6-0.3-1.1-0.2-0.5-0.7C-90.3,23.3-87.6,23.6-86.5,23.6c1,0.1,1-1.4,0-1.5c-1.6-0.1-6.7-0.4-7,2.1c-0.3,2.3,4.2,2.4,5.6,2.4
				c1.6,0.1,5.9,0.1,6.3-2.1c0.4-2.3-3.5-2.5-4.9-2.5C-87.5,22.1-87.5,23.6-86.5,23.6L-86.5,23.6z"/>
		</g>
	</g>
	<g id="XMLID_755_">
		<g id="XMLID_968_">
			<path id="XMLID_972_" class="st2" d="M-70.9,25.6C-71.1,44-71,62.5-70.5,80.9c0,1,1.5,1,1.5,0c-0.5-18.4-0.6-36.9-0.4-55.3
				C-69.4,24.6-70.9,24.6-70.9,25.6L-70.9,25.6z"/>
		</g>
	</g>
	<g id="XMLID_917_">
		<g id="XMLID_975_">
			<path id="XMLID_979_" class="st2" d="M-69.8,80.5c-3,0.9-6,1.6-9,2.1c-3.2,0.5-9.3,1.8-12.2-0.2c-0.8-0.5-1.6,0.8-0.8,1.3
				c2.8,1.9,6.9,1.1,10.1,0.8c4.2-0.4,8.3-1.3,12.3-2.5C-68.5,81.6-68.9,80.2-69.8,80.5L-69.8,80.5z"/>
		</g>
	</g>
	<g id="XMLID_924_">
		<g id="XMLID_982_">
			<path id="XMLID_986_" class="st2" d="M-105,24.7c0.2,3.8,0.4,7.6,0.4,11.3c0,1,1.5,1,1.5,0c-0.1-3.8-0.2-7.6-0.4-11.3
				C-103.6,23.8-105.1,23.8-105,24.7L-105,24.7z"/>
		</g>
	</g>
	<g id="XMLID_931_">
		<g id="XMLID_989_">
			<path id="XMLID_993_" class="st2" d="M-95.6,60.8c-1.3,0.3-2.7,0.4-4.1,0.3c-0.5,0-0.5,0.7,0,0.8c1.4,0.1,2.9,0,4.3-0.3
				C-94.9,61.5-95.1,60.7-95.6,60.8L-95.6,60.8z"/>
		</g>
	</g>
	<g id="XMLID_938_">
		<g id="XMLID_996_">
			<path id="XMLID_1000_" class="st2" d="M-99,66c-0.8,0.1-1.6,0.1-2.3,0.2c-0.5,0-0.5,0.8,0,0.8c0.8-0.1,1.6-0.1,2.3-0.2
				C-98.5,66.7-98.5,66-99,66L-99,66z"/>
		</g>
	</g>
	<g id="XMLID_945_">
		<g id="XMLID_1003_">
			<path id="XMLID_1007_" class="st2" d="M-115.8,59.7c-0.8,0-1.6,0-2.3,0c-0.5,0-0.5,0.8,0,0.8c0.8,0,1.6,0,2.3,0
				C-115.4,60.4-115.3,59.7-115.8,59.7L-115.8,59.7z"/>
		</g>
	</g>
	<g id="XMLID_952_">
		<g id="XMLID_1010_">
			<path id="XMLID_1014_" class="st2" d="M-118.7,65.7c-0.5,0-1,0-1.5,0c-0.5,0-0.5,0.8,0,0.8c0.2,0,0.3,0,0.5,0
				c0.5,0,0.5-0.8,0-0.8c-0.2,0-0.3,0-0.5,0c0,0.2,0,0.5,0,0.8c0.5,0,1,0,1.5,0C-118.2,66.4-118.2,65.7-118.7,65.7L-118.7,65.7z"/>
		</g>
	</g>
	<g id="XMLID_959_">
		<g id="XMLID_1017_">
			<path id="XMLID_1021_" class="st2" d="M-121.3,77.5c-1.3,0.2-2.5,0.1-3.7-0.4c-0.4-0.2-0.8,0.5-0.4,0.6c1.4,0.6,2.8,0.8,4.3,0.5
				C-120.6,78.2-120.8,77.4-121.3,77.5L-121.3,77.5z"/>
		</g>
	</g>
	<g id="XMLID_966_">
		<g id="XMLID_1024_">
			<path id="XMLID_1028_" class="st2" d="M-129.6,68.2c-0.5-0.2-1.1-0.4-1.6-0.6c-0.4-0.1-0.7,0.5-0.3,0.7c0.2,0.1,0.3,0.2,0.5,0.3
				c0.4,0.2,0.8-0.4,0.4-0.6c-0.2-0.1-0.3-0.2-0.5-0.3c-0.1,0.2-0.2,0.5-0.3,0.7c0.5,0.2,1.1,0.4,1.6,0.6
				C-129.3,69.1-129.1,68.3-129.6,68.2L-129.6,68.2z"/>
		</g>
	</g>
	<g id="XMLID_973_">
		<g id="XMLID_1031_">
			<path id="XMLID_1035_" class="st2" d="M-125.7,55.2c-1-0.2-2-0.5-3-0.7c-0.5-0.1-0.7,0.6-0.2,0.7c1,0.2,2,0.5,3,0.7
				C-125.5,56-125.3,55.3-125.7,55.2L-125.7,55.2z"/>
		</g>
	</g>
	<g id="XMLID_980_">
		<g id="XMLID_1038_">
			<path id="XMLID_1042_" class="st2" d="M-103.8,56.3c-0.9,0.1-1.8,0.1-2.7,0.2c-0.5,0-0.5,0.8,0,0.8c0.9-0.1,1.8-0.1,2.7-0.2
				C-103.4,57.1-103.4,56.3-103.8,56.3L-103.8,56.3z"/>
		</g>
	</g>
	<g id="XMLID_987_">
		<g id="XMLID_1045_">
			<path id="XMLID_1049_" class="st2" d="M-107.8,72.4c-1.5,0.3-3,0.5-4.6,0.5c-0.5,0-0.5,0.8,0,0.8c1.6,0,3.2-0.2,4.8-0.5
				C-107.1,73-107.3,72.3-107.8,72.4L-107.8,72.4z"/>
		</g>
	</g>
	<g id="XMLID_994_">
		<g id="XMLID_1052_">
			<path id="XMLID_1056_" class="st2" d="M-96.5,76.8c-1.4,0.2-2.8,0.3-4.2,0.5c-0.5,0.1-0.5,0.8,0,0.8c1.4-0.2,2.8-0.3,4.2-0.5
				C-96,77.5-96,76.8-96.5,76.8L-96.5,76.8z"/>
		</g>
	</g>
	<g id="XMLID_1001_">
		<g id="XMLID_1059_">
			<path id="XMLID_1063_" class="st2" d="M-97,79.7c-0.7,0.4-1.5,0.5-2.3,0.5c-0.5,0-0.5,0.7,0,0.8c0.9,0.1,1.8-0.1,2.7-0.6
				C-96.2,80.2-96.6,79.5-97,79.7L-97,79.7z"/>
		</g>
	</g>
	<g id="XMLID_1008_">
		<g id="XMLID_1066_">
			<path id="XMLID_1070_" class="st2" d="M-106.3,86.9c-2,0.3-4,0.4-6.1,0.3c-0.5,0-0.5,0.7,0,0.8c2.1,0.1,4.2-0.1,6.3-0.3
				C-105.6,87.5-105.8,86.8-106.3,86.9L-106.3,86.9z"/>
		</g>
	</g>
	<g id="XMLID_1015_">
		<g id="XMLID_1073_">
			<path id="XMLID_1077_" class="st2" d="M-112.2,83.8c-0.9,0-1.8,0-2.7,0c-0.5,0-0.5,0.8,0,0.8c0.9,0,1.8,0,2.7,0
				C-111.7,84.6-111.7,83.8-112.2,83.8L-112.2,83.8z"/>
		</g>
	</g>
	<g id="XMLID_1022_">
		<g id="XMLID_1080_">
			<path id="XMLID_1084_" class="st2" d="M-126.7,85.7c-1,0-1.9-0.2-2.8-0.7c-0.4-0.2-0.8,0.4-0.4,0.6c1,0.5,2.1,0.7,3.2,0.8
				C-126.2,86.5-126.2,85.7-126.7,85.7L-126.7,85.7z"/>
		</g>
	</g>
	<g id="XMLID_1029_">
		<g id="XMLID_1087_">
			<path id="XMLID_1091_" class="st2" d="M-120.3,94.5c-1.2,0-2.3-0.2-3.4-0.5c-0.5-0.1-0.7,0.6-0.2,0.7c1.2,0.3,2.4,0.5,3.6,0.5
				C-119.9,95.3-119.9,94.5-120.3,94.5L-120.3,94.5z"/>
		</g>
	</g>
	<g id="XMLID_1036_">
		<g id="XMLID_1094_">
			<path id="XMLID_1098_" class="st2" d="M-114.3,100.3c-1.2,0.1-2.3,0.1-3.4-0.3c-0.5-0.1-0.7,0.6-0.2,0.7c1.2,0.3,2.4,0.4,3.6,0.3
				C-113.9,101-113.9,100.3-114.3,100.3L-114.3,100.3z"/>
		</g>
	</g>
	<g id="XMLID_1043_">
		<g id="XMLID_1101_">
			<path id="XMLID_1105_" class="st2" d="M-100.7,94.5c-0.8,0-1.6,0-2.3,0c-0.5,0-0.5,0.8,0,0.8c0.8,0,1.6,0,2.3,0
				C-100.2,95.3-100.2,94.5-100.7,94.5L-100.7,94.5z"/>
		</g>
	</g>
	<g id="XMLID_1050_">
		<g id="XMLID_1108_">
			<path id="XMLID_1112_" class="st2" d="M-92.7,88c-0.2,0-0.3,0-0.5,0c-0.5,0-0.5,0.8,0,0.8c0.2,0,0.3,0,0.5,0
				C-92.2,88.8-92.2,88-92.7,88L-92.7,88z"/>
		</g>
	</g>
	<g id="XMLID_1057_">
		<g id="XMLID_1115_">
			<path id="XMLID_1119_" class="st2" d="M-94.7,92.7c-0.3,0.2-0.7,0.3-1,0.5c-0.4,0.2-0.1,0.9,0.4,0.6c0.3-0.2,0.7-0.3,1-0.5
				C-93.9,93.2-94.3,92.5-94.7,92.7L-94.7,92.7z"/>
		</g>
	</g>
	<g id="XMLID_1064_">
		<g id="XMLID_1122_">
			<path id="XMLID_1126_" class="st2" d="M-81.8,46.7c-1.2,0.2-2.4,0.2-3.7,0.2c-0.5,0-0.5,0.7,0,0.8c1.2,0,2.4,0,3.7-0.2
				C-81.4,47.4-81.4,46.6-81.8,46.7L-81.8,46.7z"/>
		</g>
	</g>
	<g id="XMLID_1071_">
		<g id="XMLID_1129_">
			<path id="XMLID_1133_" class="st2" d="M-72.6,39.2c-1.1,0.4-2.2,0.7-3.4,0.8c-0.5,0.1-0.5,0.8,0,0.8c1.2-0.2,2.4-0.4,3.6-0.9
				C-72,39.7-72.1,39-72.6,39.2L-72.6,39.2z"/>
		</g>
	</g>
	<g id="XMLID_1078_">
		<g id="XMLID_1136_">
			<path id="XMLID_1140_" class="st2" d="M-77.4,36.6c-0.9,0.2-1.9,0.5-2.8,0.7c-0.5,0.1-0.3,0.8,0.2,0.7c0.9-0.2,1.9-0.5,2.8-0.7
				C-76.8,37.2-77,36.4-77.4,36.6L-77.4,36.6z"/>
		</g>
	</g>
	<g id="XMLID_1085_">
		<g id="XMLID_1143_">
			<path id="XMLID_1147_" class="st2" d="M-88.8,41.5c-0.2,0-0.4,0-0.7,0c-0.5,0-0.5,0.8,0,0.8c0.2,0,0.4,0,0.7,0
				C-88.4,42.3-88.3,41.5-88.8,41.5L-88.8,41.5z"/>
		</g>
	</g>
	<g id="XMLID_1092_">
		<g id="XMLID_1150_">
			<path id="XMLID_1154_" class="st2" d="M-88.5,38c-0.9,0.1-1.7,0-2.6-0.2c-0.5-0.1-0.7,0.6-0.2,0.7c0.9,0.2,1.8,0.2,2.8,0.2
				C-88,38.7-88,38-88.5,38L-88.5,38z"/>
		</g>
	</g>
	<g id="XMLID_1099_">
		<g id="XMLID_1157_">
			<path id="XMLID_1161_" class="st2" d="M-94,33.3c-1.1,0.1-2.2,0-3.2-0.3c-0.5-0.1-0.7,0.6-0.2,0.7c1.1,0.3,2.3,0.4,3.4,0.3
				C-93.5,34.1-93.5,33.3-94,33.3L-94,33.3z"/>
		</g>
	</g>
	<g id="XMLID_1106_">
		<g id="XMLID_1164_">
			<path id="XMLID_1168_" class="st2" d="M-75.8,31.5c-0.8,0.2-1.7,0.4-2.5,0.7c-0.5,0.1-0.3,0.8,0.2,0.7c0.8-0.2,1.7-0.4,2.5-0.7
				C-75.1,32.1-75.3,31.4-75.8,31.5L-75.8,31.5z"/>
		</g>
	</g>
	<g id="XMLID_1113_">
		<g id="XMLID_1171_">
			<path id="XMLID_1175_" class="st2" d="M-75.9,50.9c-1.2,0.5-2.4,0.7-3.6,0.6c-0.5,0-0.5,0.7,0,0.8c1.4,0.1,2.7-0.1,4-0.7
				C-75,51.4-75.4,50.7-75.9,50.9L-75.9,50.9z"/>
		</g>
	</g>
	<g id="XMLID_1120_">
		<g id="XMLID_1178_">
			<path id="XMLID_1182_" class="st2" d="M-81,58.5c-1.4,0.1-2.8,0.1-4.2,0.2c-0.5,0-0.5,0.8,0,0.8c1.4-0.1,2.8-0.1,4.2-0.2
				C-80.5,59.2-80.5,58.5-81,58.5L-81,58.5z"/>
		</g>
	</g>
	<g id="XMLID_1127_">
		<g id="XMLID_1185_">
			<path id="XMLID_1189_" class="st2" d="M-86,55.5c-0.2,0-0.4,0-0.7,0c-0.5,0-0.5,0.8,0,0.8c0.2,0,0.4,0,0.7,0
				C-85.5,56.3-85.5,55.5-86,55.5L-86,55.5z"/>
		</g>
	</g>
	<g id="XMLID_1134_">
		<g id="XMLID_1192_">
			<path id="XMLID_1196_" class="st2" d="M-85,66.7c-1.4,0-2.7-0.2-4.1-0.6c-0.5-0.2-0.7,0.6-0.2,0.7c1.4,0.5,2.8,0.7,4.3,0.7
				C-84.5,67.4-84.5,66.7-85,66.7L-85,66.7z"/>
		</g>
	</g>
	<g id="XMLID_1141_">
		<g id="XMLID_1199_">
			<path id="XMLID_1203_" class="st2" d="M-72.9,63c-0.2,0.1-0.4,0.1-0.7,0.2c-0.5,0.1-0.3,0.8,0.2,0.7c0.2-0.1,0.4-0.1,0.7-0.2
				C-72.3,63.6-72.5,62.9-72.9,63L-72.9,63z"/>
		</g>
	</g>
	<g id="XMLID_1148_">
		<g id="XMLID_1206_">
			<path id="XMLID_1210_" class="st2" d="M-78.5,65.5c-0.7,0.1-1.4,0.1-2.2,0.2c-0.5,0-0.5,0.8,0,0.8c0.7-0.1,1.4-0.1,2.2-0.2
				C-78,66.2-78,65.5-78.5,65.5L-78.5,65.5z"/>
		</g>
	</g>
	<g id="XMLID_1155_">
		<g id="XMLID_1213_">
			<path id="XMLID_1217_" class="st2" d="M-73.1,73.2c-1.4,0.5-2.9,0.8-4.4,1c-0.5,0.1-0.5,0.8,0,0.8c1.6-0.2,3.1-0.5,4.6-1
				C-72.4,73.8-72.6,73-73.1,73.2L-73.1,73.2z"/>
		</g>
	</g>
	<g id="XMLID_1162_">
		<g id="XMLID_1220_">
			<path id="XMLID_1224_" class="st2" d="M-83.5,78.7c-0.6,0.3-1.2,0.4-1.8,0.5c-0.5,0-0.5,0.8,0,0.8c0.8-0.1,1.5-0.2,2.2-0.6
				C-82.7,79.2-83.1,78.5-83.5,78.7L-83.5,78.7z"/>
		</g>
	</g>
	<g id="XMLID_1169_">
		<g id="XMLID_1227_">
			<path id="XMLID_1231_" class="st2" d="M-84.2,75.1c0.5,0,0.5-0.8,0-0.8C-84.6,74.3-84.7,75.1-84.2,75.1L-84.2,75.1z"/>
		</g>
	</g>
	<g id="XMLID_1176_">
		<g id="XMLID_1234_">
			<path id="XMLID_1238_" class="st2" d="M-89.2,76.2c-0.5,0.1-1.1,0-1.6-0.2c-0.5-0.2-0.6,0.6-0.2,0.7c0.6,0.2,1.2,0.3,1.8,0.2
				C-88.7,76.9-88.7,76.2-89.2,76.2L-89.2,76.2z"/>
		</g>
	</g>
</g>
<g id="straw">
</g>
<g id="food_wrap">
	<g id="XMLID_196_">
		<g id="XMLID_766_">
			<path id="XMLID_773_" class="st3" d="M75.5-127.1c-9.8-3.2-20.2-3.1-30.4-3.2c-10.3-0.1-20.5,0.5-30.3,3.7
				c-0.9,0.3-0.5,1.7,0.4,1.4c9.7-3.2,19.8-3.7,29.9-3.6c10,0.1,20.3,0,30,3.1C76-125.3,76.4-126.8,75.5-127.1L75.5-127.1z"/>
		</g>
	</g>
	<g id="XMLID_233_">
		<g id="XMLID_758_">
			<path id="XMLID_762_" class="st3" d="M75.2-125.9c1.5,5,3,10.1,4.5,15.1c0.2-0.3,0.3-0.6,0.5-0.9c-2.9,1.1-5.9,2.3-8.8,3.4
				c0.3,0.4,0.6,0.7,0.8,1.1c1.5-3.4,2.4-6.8,2.5-10.5c0-1-1.5-1-1.5,0c-0.1,3.5-0.9,6.6-2.3,9.8c-0.2,0.5,0.2,1.4,0.8,1.1
				c2.9-1.1,5.9-2.3,8.8-3.4c0.4-0.1,0.7-0.5,0.5-0.9c-1.5-5-3-10.1-4.5-15.1C76.3-127.2,74.9-126.8,75.2-125.9L75.2-125.9z"/>
		</g>
	</g>
	<g id="XMLID_234_">
		<g id="XMLID_750_">
			<path id="XMLID_754_" class="st3" d="M71.8-112.6c-1.6-0.1-3.2-0.2-4.8-0.4c-1-0.1-1,1.4,0,1.5c1.6,0.1,3.2,0.2,4.8,0.4
				C72.7-111,72.7-112.5,71.8-112.6L71.8-112.6z"/>
		</g>
	</g>
	<g id="XMLID_235_">
		<g id="XMLID_743_">
			<path id="XMLID_747_" class="st3" d="M67.4-119c-0.8,3.3-0.7,7.4-1.6,10.6c-0.7,2.2-1.2,2-3.5,1.8c-2.9-0.2-3.6-1-0.9-3.4
				c0.5-0.4,0.1-1.3-0.5-1.3c-4.3,0.4-8.6,0.8-12.9,1.2c-0.6,0.1-0.9,0.6-0.6,1.1c0.5,1.2,1.1,2,2,3c0.2-0.4,0.4-0.9,0.5-1.3
				c-2.1,0-4.3-0.1-6.4-0.2c-3-0.2-4.2-0.8-1.4-3.6c0.5-0.5,0.1-1.3-0.5-1.3c-4,0-8.1,0-12.1,0c-0.7,0-0.9,0.8-0.5,1.3
				c1.1,1.4,2.1,2.6,3.4,3.8c0.7,0.7,1.7-0.4,1.1-1.1c-1.2-1.2-2.3-2.4-3.4-3.8c-0.2,0.4-0.4,0.9-0.5,1.3c4,0,8.1,0,12.1,0
				c-0.2-0.4-0.4-0.9-0.5-1.3c-1.5,1.4-2.3,2.9-2.8,4.9c-0.1,0.5,0.2,0.9,0.7,0.9c3.7,0.3,7.3,0.4,11,0.5c0.7,0,1-0.8,0.5-1.3
				c-0.8-0.7-1.4-1.6-1.8-2.6c-0.2,0.4-0.4,0.8-0.6,1.1c4.3-0.4,8.6-0.8,12.9-1.2c-0.2-0.4-0.4-0.9-0.5-1.3
				c-1.5,1.4-2.4,2.8-2.9,4.7c-0.1,0.5,0.3,0.9,0.7,0.9c2.8,0.2,5.6,0.4,8.4,0.6c0.4,0,0.7-0.4,0.8-0.8c0.1-4.4,0.6-8.7,1.7-13.1
				C69-119.6,67.6-120,67.4-119L67.4-119z"/>
		</g>
	</g>
	<g id="XMLID_253_">
		<g id="XMLID_736_">
			<path id="XMLID_740_" class="st3" d="M42.4-122.8c-0.5,4.1-1.2,8.2-2.2,12.3c-0.2,0.9,1.2,1.3,1.4,0.4c1-4.2,1.8-8.4,2.3-12.7
				C44.1-123.8,42.6-123.8,42.4-122.8L42.4-122.8z"/>
		</g>
	</g>
	<g id="XMLID_255_">
		<g id="XMLID_729_">
			<path id="XMLID_733_" class="st3" d="M48.2-116.2c0.1,2.1,0,4.2-0.3,6.3c-0.1,0.9,1.3,1.4,1.4,0.4c0.3-2.2,0.4-4.4,0.4-6.7
				C49.6-117.1,48.1-117.2,48.2-116.2L48.2-116.2z"/>
		</g>
	</g>
	<g id="XMLID_324_">
		<g id="XMLID_722_">
			<path id="XMLID_726_" class="st3" d="M57.8-119.1c0.7,3.1,1.4,6.1,2.1,9.2c0.2,0.9,1.7,0.5,1.4-0.4c-0.8-3.1-1.5-6.1-2.1-9.2
				C59-120.5,57.6-120.1,57.8-119.1L57.8-119.1z"/>
		</g>
	</g>
	<g id="XMLID_413_">
		<g id="XMLID_715_">
			<path id="XMLID_719_" class="st3" d="M29.7-120.5c-0.7,2.9-1.6,5.7-2.5,8.5c-0.3,0.9,1.1,1.3,1.4,0.4c0.9-2.8,1.8-5.6,2.5-8.5
				C31.4-121.1,30-121.5,29.7-120.5L29.7-120.5z"/>
		</g>
	</g>
	<g id="XMLID_483_">
		<g id="XMLID_708_">
			<path id="XMLID_712_" class="st3" d="M30.9-108.6c-3.2,0.1-6.3,0.1-9.5,0.2c-1,0-1,1.5,0,1.5c3.2-0.1,6.3-0.1,9.5-0.2
				C31.9-107.2,31.9-108.7,30.9-108.6L30.9-108.6z"/>
		</g>
	</g>
	<g id="XMLID_490_">
		<g id="XMLID_701_">
			<path id="XMLID_705_" class="st3" d="M22.7-118.5c-0.5,3.4-1.2,6.7-2.1,10c-0.3,0.9,1.2,1.3,1.4,0.4c0.9-3.3,1.6-6.6,2.1-10
				C24.3-119.1,22.9-119.5,22.7-118.5L22.7-118.5z"/>
		</g>
	</g>
	<g id="XMLID_511_">
		<g id="XMLID_694_">
			<path id="XMLID_698_" class="st3" d="M75.5-108.7c-0.8,5.3-2.3,10.4-4.7,15.2c-1.6,3.3-2.8,5.6-6.6,6.5c-2.6,0.6-5.6,0.7-8.3,1
				c-11.4,1.2-22.7,1.4-33.9-1.2c-0.9-0.2-1.3,1.2-0.4,1.4c13.5,3.2,27.2,2.2,40.8,0.5c5-0.6,6-0.8,8.5-5.3
				c3.2-5.5,5.1-11.6,6.1-17.9C77.1-109.2,75.6-109.7,75.5-108.7L75.5-108.7z"/>
		</g>
	</g>
	<g id="XMLID_518_">
		<g id="XMLID_687_">
			<path id="XMLID_691_" class="st3" d="M13.8-110.6c1.3,8.6,3.9,16.9,7.5,24.8c0.4,0.9,1.7,0.1,1.3-0.8c-3.6-7.8-6-16-7.4-24.5
				C15.1-112,13.6-111.6,13.8-110.6L13.8-110.6z"/>
		</g>
	</g>
	<g id="XMLID_497_">
		<g id="XMLID_680_">
			<path id="XMLID_684_" class="st3" d="M14.2-126.6c-1,0.4-2,0.7-3,1.1c-0.9,0.3-0.5,1.8,0.4,1.4c1-0.4,2-0.7,3-1.1
				C15.5-125.5,15.1-126.9,14.2-126.6L14.2-126.6z"/>
		</g>
	</g>
	<g id="XMLID_504_">
		<g id="XMLID_673_">
			<path id="XMLID_677_" class="st3" d="M9.8-124.5c0,2.6-2,5.3-3,7.7C6-115,5.4-113.2,5-111.2c-0.1,0.5,0.2,1,0.7,0.9
				c5.5-0.2,10.9-0.5,16.3-0.9c1-0.1,1-1.6,0-1.5c-5.4,0.4-10.9,0.7-16.3,0.9c0.2,0.3,0.5,0.6,0.7,0.9c0.6-3,1.8-5.7,3.1-8.4
				c0.8-1.7,1.7-3.3,1.7-5.3C11.3-125.5,9.8-125.5,9.8-124.5L9.8-124.5z"/>
		</g>
	</g>
	<g id="XMLID_525_">
		<g id="XMLID_666_">
			<path id="XMLID_670_" class="st3" d="M59.9-125.7c-2.3-0.1-4.4,0.3-6.2,1.8c-0.8,0.6-1.1,2-0.8,2.9c1,3,3.7,3.2,6.5,3.6
				c2.8,0.4,7.2,1.6,9.8,0.2c1.8-1,2.5-3.4,1.6-5.1c-1.4-2.7-5.3-3.4-8-3.7c-2.5-0.3-4.1,3.6-2.1,5.1c1.7,1.4,3.5,2.4,5.8,2.4
				c2.6,0,4.6-2,7.1-1.8c-1-1.3-1.9-2.5-2.9-3.8c-0.3,1.3-0.4,2.2,0.1,3.4c0.4,1.2,1.9,2.6,1.5,4c0.5-0.6,0.9-1.2,1.4-1.8
				c-1.4,1-4.2-2-5.9-2c-1.8,0-3.1,1.3-3.7,2.8c-0.7,1.5-0.3,4.1,1.8,4.4c2.1,0.3,4.2,0.6,6.3,0.9c-0.4-1.7-0.9-3.3-1.3-5
				c-0.1,0.1-0.2,0.2-0.4,0.3c0.7-0.3,1.4-0.6,2.1-0.9c-0.4,0.2-0.8,0.1-1.1-0.3c0.1,0.8,0.2,1.5,0.3,2.3c0.2-0.3,0.4-0.6,0.7-0.9
				c2.6-2.2-0.8-6.6-3.6-4.7c-2.7,1.8-5.7,3.4-8.9,3.9c0.8,0.1,1.5,0.2,2.3,0.3c-0.4-0.3-0.7-0.6-1.1-1c-1.6-2.5-5.5-1.5-5.6,1.5
				c0,2.2-0.5,4.9,1.7,6.3c2.3,1.5,6.2,0.2,8.6,0c3.8-0.4,3.8-6.4,0-6c-1.3,0.1-4.1-0.1-5.2,0.6c-1.5,0-1.2,0.6,0.8,1.9
				c0-0.9,0-1.8,0.1-2.7c-1.9,0.5-3.7,1-5.6,1.5c3.9,6.3,11.1,2.1,15.9-1.1c-1.2-1.6-2.4-3.1-3.6-4.7c-5.8,4.8,2,12.5,6.9,7.9
				c1.5-1.4,0.9-4.7-1.3-5c-2.1-0.3-4.2-0.6-6.3-0.9c0.6,1.5,1.2,2.9,1.8,4.4c0-0.1,0-0.1,0.1-0.2c-1,0-2,0-3,0
				c2.9,1.5,7.2,3.8,10.4,1.6c1.4-1,1.8-2.6,1.7-4.3c0-0.8-0.3-1.6-0.5-2.3c-0.2-0.6-1.4-2.1-1.3-2.6c0.4-2-0.9-3.7-2.9-3.8
				c-1.4-0.1-2.7,0-4,0.5c-1.6,0.6-3,2.1-4.7,0.7c-0.7,1.7-1.4,3.4-2.1,5.1c1.3,0.1,2.4,0.5,3.3,1.4c-0.3-0.7-0.6-1.4-0.9-2.1
				c0,0.2,0,0.4-0.1,0.6c0.3-0.7,0.6-1.4,0.9-2.1c-0.2,0.1-0.3,0.3-0.5,0.4c0.7-0.3,1.4-0.6,2.1-0.9c-2.8,0.3-7.6,0.2-10.2-1
				c0.5,0.6,0.9,1.2,1.4,1.8c-0.1-0.2-0.1-0.4-0.2-0.6c-0.3,1-0.5,1.9-0.8,2.9c0.6,0.1,1.3,0.1,1.9,0
				C63.8-119.5,63.8-125.5,59.9-125.7L59.9-125.7z"/>
		</g>
	</g>
	<g id="XMLID_532_">
		<g id="XMLID_659_">
			<path id="XMLID_663_" class="st3" d="M73-113.9c0.3,1.6,1.3,2.8,2.6,3.8c0.6,0.4,1.7,0.5,2.3,0.3c0.7-0.2,1.5-0.7,1.8-1.4
				c0.4-0.7,0.6-1.5,0.3-2.3c-0.3-0.8-0.7-1.3-1.4-1.8c0.1,0.1,0.5,0.5,0.3,0.2c-0.1-0.1-0.4-0.4-0.1,0c0.3,0.4,0.1,0.1,0,0
				c-0.1-0.1-0.1-0.2-0.2-0.3c0.1,0.2,0.2,0.5,0.3,0.7c-0.1-0.2-0.2-0.5-0.2-0.7c-0.3-1.5-2.2-2.6-3.7-2.1
				C73.5-117,72.6-115.5,73-113.9L73-113.9z"/>
		</g>
	</g>
	<g id="XMLID_539_">
		<g id="XMLID_652_">
			<path id="XMLID_656_" class="st3" d="M69.4-127.5c-11.7-0.7-23.3,0-34.8,2c-1.2,0.2-2.3,1.7-2.2,2.9c0.7,6,14.3,14.6,18.6,7.6
				c4.1-6.7-7.6-10.6-11.4-5.6c-1.3,1.7-1,4.3,1.3,5c3.5,1,8.3,2.2,11.9,1.2c1-0.3,2-0.7,2.7-1.6c0.4-0.5,0.7-2.7,0.8-2.7
				c-1.7-0.4-3.3-0.9-5-1.3c0.5,2.1-1.7,3.6-1.1,5.7c0.5,1.7,2.4,2.6,3.7,3.5c0.5-1.9,1-3.7,1.5-5.6c-4.5,0.4-9,0.5-13.5,0.2
				c-3.9-0.2-3.8,5.8,0,6c4.5,0.3,9,0.2,13.5-0.2c2.9-0.3,4.1-3.9,1.5-5.6c-2.2-1.5-0.4,1.6-0.9,1.5c0.3,0,1-2.2,1.1-2.4
				c0.5-1.6,0.3-3.1-0.1-4.7c-0.5-2.4-3.4-2.7-5-1.3c-1,0.8-1,3-1.5,3.4c0.4-0.3-2.3-0.7-2.3-0.7c-2.1-0.3-3.8-0.6-5.8-1.2
				c0.4,1.7,0.9,3.3,1.3,5c0.6-0.6,1.4-0.7,2.2-0.4c-0.8-1.4-1.8-2.4-3.2-3c-0.9-0.6-4.5-2.7-4.5-2.8c-0.7,1-1.5,1.9-2.2,2.9
				c11-1.8,22.1-2.4,33.2-1.7C73.3-121.3,73.3-127.3,69.4-127.5L69.4-127.5z"/>
		</g>
	</g>
	<g id="XMLID_540_">
		<g id="XMLID_645_">
			<path id="XMLID_649_" class="st3" d="M49.9-117.7c0.1,0,0.1,0,0.2,0c1.6,0,3.1-1.4,3-3c-0.1-1.6-1.3-3-3-3c-0.1,0-0.1,0-0.2,0
				c-1.6,0-3.1,1.4-3,3C47-119.1,48.2-117.7,49.9-117.7L49.9-117.7z"/>
		</g>
	</g>
	<g id="XMLID_546_">
		<g id="XMLID_638_">
			<path id="XMLID_642_" class="st3" d="M28.7-124.1c-2.7-0.4-5.7-0.9-8.4-0.1c-2.7,0.7-4.4,3.6-3.2,6.2c1.2,2.6,4.2,2.7,6.7,3.1
				c2.9,0.4,6.5,1.7,9-0.4c0.7-0.7,1.1-2,0.8-2.9c-1.4-3.9-8.7-5.3-11.1-1.7c-1.1,1.8,0.1,3.8,1.8,4.4c1,0.4,1.9,0.6,3,0.8
				c1.6,0.2,3.2-0.4,3.7-2.1c0.4-1.4-0.5-3.5-2.1-3.7c-1-0.1-2-0.4-3-0.8c0.6,1.5,1.2,2.9,1.8,4.4c0.1-0.1,0.2-0.3,0.3-0.4
				c-0.6,0.5-1.2,0.9-1.8,1.4c0.8-0.3,2.2,0.2,2.9,0.6c-0.5-0.6-0.9-1.2-1.4-1.8c0,0.1,0.1,0.3,0.1,0.4c0.3-1,0.5-1.9,0.8-2.9
				c-0.1,0.1-0.2,0.2-0.4,0.3c0.7-0.3,1.4-0.6,2.1-0.9c-1.2,0-2.4-0.2-3.5-0.4c-1.1-0.1-2.8-0.7-3.8-0.5c-0.2,0-0.4-0.1-0.6-0.1
				c-0.1,0.9-0.1,1.7-0.2,2.6c0.1,0.1,1,0,1.2,0c1.3,0,2.5,0.1,3.8,0.2c1.6,0.2,3.2-0.4,3.7-2.1C31.2-121.8,30.3-123.9,28.7-124.1
				L28.7-124.1z"/>
		</g>
	</g>
	<g id="XMLID_553_">
		<g id="XMLID_631_">
			<path id="XMLID_635_" class="st3" d="M29.2-122.5c-0.3,2.5-0.2,5.2,1.9,7c2.3,1.8,5.8,1.7,8.4,2.9c0.2-1.8,0.5-3.7,0.7-5.5
				c-4.3,1.6-10,0.6-14.5,0.5c-5.1-0.1-10.2-0.3-15.3-0.4c0.7,1.7,1.4,3.4,2.1,5.1c2.1-2.4,4.1-4.9,5.9-7.5c0.9-1.2,0.3-3.4-1.1-4.1
				c-5.3-2.5-7.1,2.8-8.8,6.7c-1.6,3.5,3.6,6.5,5.2,3c0.4-0.9,0.8-1.9,1.3-2.8c1.1-1.2,0.9-1.8-0.6-1.8c-0.4-1.4-0.7-2.7-1.1-4.1
				c-1.6,2.2-3.2,4.3-5,6.3c-1.7,2-0.6,5,2.1,5.1c5.7,0.2,11.5,0.3,17.2,0.5c4.6,0.1,9.8,1,14.2-0.7c2.1-0.8,3.3-4.3,0.7-5.5
				c-1.6-0.8-3.2-1.5-5-1.9c-2.5-0.6-2.7-0.1-2.4-2.8C35.7-126.3,29.7-126.3,29.2-122.5L29.2-122.5z"/>
		</g>
	</g>
	<g id="XMLID_556_">
		<g id="XMLID_624_">
			<path id="XMLID_628_" class="st3" d="M18.7-119.7c5.8-0.8,11.7-1.7,17.5-2.5c3.8-0.5,2.2-6.3-1.6-5.8c-5.8,0.8-11.7,1.6-17.5,2.5
				C13.3-124.9,14.9-119.1,18.7-119.7L18.7-119.7z"/>
		</g>
	</g>
	<g id="XMLID_564_">
		<g id="XMLID_617_">
			<path id="XMLID_621_" class="st3" d="M68.1-125c0,0.2,0,0.3,0,0.5c0,1.4,0.9,2.4,2.2,2.9c0.1,0.1,0.3,0.1,0.4,0.2
				c1.1,0.4,2.9-0.3,3.4-1.4c0.1-0.1,0.1-0.3,0.2-0.4c0.6-1.3,0.5-2.6-0.5-3.6c-2.2-2.4-7.4-1.6-10.3-1.7
				c-5.2-0.2-10.5-0.2-15.7-0.1c-2.9,0.1-8.4-0.8-10.6,1.8c-1.5,1.8-1.1,4.1,0.5,5.6c1.1,1,2.4,1,3.6,0.5c2.3-1.1,3-3.7,1.5-5.8
				c-2.2-3.2-7.4-0.2-5.2,3c0.2-0.8,0.4-1.6,0.6-2.4c1.2,0.2,2.4,0.3,3.6,0.5c0.1,0.3,0.2,0.5,0.4,0.8c-0.5,0.9-1,1.7-1.5,2.6
				c1.2-1,5.4-0.4,6.9-0.5c2.6-0.1,5.2-0.1,7.9-0.1c2.6,0,5.2,0.1,7.9,0.2c0.7,0,6.2,0.1,6.1,0c-0.2-1.2-0.3-2.4-0.5-3.6
				c-0.1,0.1-0.1,0.3-0.2,0.4c1.1-0.5,2.3-0.9,3.4-1.4c-0.1-0.1-0.3-0.1-0.4-0.2c0.7,1,1.5,1.9,2.2,2.9c0-0.2,0-0.3,0-0.5
				C74-128.8,68-128.8,68.1-125L68.1-125z"/>
		</g>
	</g>
	<g id="XMLID_581_">
		<g id="XMLID_610_">
			<path id="XMLID_614_" class="st3" d="M43.4-122.2c1.2-0.1,2.4-0.2,3.6-0.4c3.8-0.4,3.9-5.7,0-6c-11.9-1-23.8,0.4-35.2,4.1
				c-2.1,0.7-3,3.4-1.3,5c1.8,1.7,3.7,3.3,5.7,4.8c3.1,2.3,6.1-2.9,3-5.2c-1.6-1.2-3-2.5-4.5-3.8c-0.4,1.7-0.9,3.3-1.3,5
				c10.9-3.5,22.1-4.8,33.6-3.8c0-2,0-4,0-6c-1.2,0.1-2.4,0.2-3.6,0.4C39.6-127.8,39.6-121.8,43.4-122.2L43.4-122.2z"/>
		</g>
	</g>
	<g id="XMLID_588_">
		<g id="XMLID_603_">
			<path id="XMLID_607_" class="st3" d="M45.3-110.5c-1.9-0.9-3.7,1.5-1.9,2.9c2,1.6,4.2-0.8,4.9-2.5c-0.7-0.1-1.5-0.2-2.2-0.3
				c0.1,1.4,0.6,2.5,1.5,3.5c0.3-0.6,0.5-1.3,0.8-1.9c-2.3-0.1-4.5-0.2-6.8-0.3c0.4,0.5,0.7,0.9,1.1,1.4c0.3-0.9,0.7-1.8,1-2.7
				c0.3-0.9-0.9-1.8-1.7-1.3c-1.2,0.8-2.2,1.6-3,2.7c-0.9,1.1,0.7,2.7,1.6,1.6c0.8-0.9,1.6-1.7,2.6-2.4c-0.6-0.4-1.1-0.8-1.7-1.3
				c-0.3,0.9-0.7,1.8-1,2.7c-0.3,0.7,0.4,1.4,1.1,1.4c2.3,0.1,4.5,0.2,6.8,0.3c1,0,1.4-1.2,0.8-1.9c-0.5-0.6-0.7-1.2-0.8-1.9
				c-0.1-1.3-1.7-1.5-2.2-0.3c-0.2,0.5-1.6,2.3-1.9,2.1C45.5-108,46.7-109.9,45.3-110.5L45.3-110.5z"/>
		</g>
	</g>
	<g id="XMLID_595_">
		<g id="XMLID_596_">
			<path id="XMLID_600_" class="st3" d="M61.7-111.2c-0.3,1.1-0.5,2.1-0.8,3.2c0.4-0.3,0.7-0.6,1.1-0.8c-0.1-0.1-0.2-0.1-0.3-0.2
				c-0.7-0.2-1.4-0.4-2.2-0.6c-0.1,0.5-0.3,0.9-0.7,1.4c-0.7,1,0.6,2,1.5,1.5c0,0,0.1,0,0.1-0.1c-0.4,0-0.8,0-1.1,0
				c0.8,0.4,1.3,0.5,2.2,0.6c1.1,0,2.3,0.1,3.4,0.1c0.6,0,1.1-0.5,1.1-1.1c0-1.3,0.2-2.6,0.6-3.8c0.3-0.9-0.8-1.8-1.7-1.3
				c-1.6,0.9-2.7,2.4-3,4.2c0.7,0.1,1.5,0.2,2.2,0.3c0-0.4,0-0.7,0-1.1c0-1.4-2.3-1.5-2.2,0c0,0.4,0,0.7,0,1.1c0,1.2,2,1.6,2.2,0.3
				c0.2-1.3,0.9-2.2,2-2.9c-0.6-0.4-1.1-0.8-1.7-1.3c-0.4,1.4-0.6,2.9-0.6,4.4c0.4-0.4,0.8-0.8,1.1-1.1c-1.2-0.1-2.6,0.1-3.8-0.2
				c-0.7-0.1-1.2-0.5-1.9-0.2c0.5,0.5,1,1,1.5,1.5c0.4-0.6,0.7-1.2,0.9-1.9c0.3-1.4-1.8-2-2.2-0.6c-0.5,1.8,0.9,2.9,2.5,3.1
				c0.5,0.1,1-0.4,1.1-0.8c0.3-1.1,0.5-2.1,0.8-3.2C64.3-112,62.1-112.6,61.7-111.2L61.7-111.2z"/>
		</g>
	</g>
	<g id="XMLID_602_">
		<g id="XMLID_589_">
			<path id="XMLID_593_" class="st3" d="M73.5-112.4c-0.1,0.8-0.5,1.4-1.1,1.9c-0.9,0.7,0.1,2.3,1.1,1.9c1.1-0.4,2-1,2.9-1.7
				c0.5-0.4,0.4-1.2,0-1.6c-0.5-0.5-1.1-0.4-1.6,0c-0.6,0.5-1.2,0.9-1.9,1.2c0.4,0.6,0.7,1.3,1.1,1.9c1.1-0.9,1.6-2.1,1.8-3.5
				c0.1-0.6-0.6-1.1-1.1-1.1C73.9-113.5,73.5-113,73.5-112.4L73.5-112.4z"/>
		</g>
	</g>
	<g id="XMLID_609_">
		<g id="XMLID_582_">
			<path id="XMLID_586_" class="st3" d="M23.7-111.6c0.6,1.3,1.3,2.3,2.3,3.3c0.6,0.5,1.7,0.4,1.9-0.5c0.2-1.4,0.2-2.7-0.1-4.1
				c-0.7,0.3-1.4,0.6-2.1,0.9c0.8,1.5,1.9,2.6,3.3,3.6c0.5,0.4,1.6,0,1.7-0.7c0.2-1.3,0-2.2-0.9-3.2c-0.5,0.5-1.1,1.1-1.6,1.6
				c0.7,0.6,1.4,1.3,2.1,2c0.7,0.8,1.8,0.1,1.9-0.8c0-0.5,0.2-1,0.4-1.5c-0.7,0-1.4,0-2.2,0c0.4,1.1,0.8,2.2,1.4,3.2
				c0.3-0.6,0.6-1.1,1-1.7c-3.5,0-7.1,0-10.6,0c0.4,0.4,0.8,0.8,1.1,1.1c0-0.9,0.1-1.7,0.4-2.6c-0.7-0.1-1.5-0.2-2.2-0.3
				c0,1.2-0.1,3.3,1.7,3.2c1.5-0.1,1.8-2,2.3-3.1c-0.7,0.1-1.4,0.2-2.1,0.3c0,0.1,0.1,0.3,0.1,0.4c0,1.4,2.3,1.5,2.2,0
				c0-0.7-0.1-0.9-0.4-1.5c-0.5-0.9-1.7-0.6-2.1,0.3c-0.1,0.4-0.3,0.7-0.4,1.1c0.8,0.5,1.1,0.4,0.9-0.5c0-1.3-1.8-1.5-2.2-0.3
				c-0.4,1.1-0.5,2-0.5,3.2c0,0.6,0.5,1.1,1.1,1.1c3.5,0,7.1,0,10.6,0c0.8,0,1.4-1,1-1.7c-0.5-0.8-0.9-1.7-1.2-2.7
				c-0.4-1.1-1.8-1-2.2,0c-0.3,0.7-0.4,1.4-0.5,2.1c0.6-0.3,1.3-0.5,1.9-0.8c-0.7-0.7-1.4-1.4-2.1-2c-1.1-0.9-2.5,0.5-1.6,1.6
				c0.1,0.3,0.2,0.7,0.3,1c0.6-0.2,1.1-0.4,1.7-0.7c-1.1-0.7-1.8-1.6-2.5-2.8c-0.7-1.1-2.3-0.3-2.1,0.9c0.2,1,0.2,1.9,0.1,2.9
				c0.6-0.2,1.3-0.3,1.9-0.5c-0.9-0.8-1.5-1.7-2-2.8C25-114.1,23.1-113,23.7-111.6L23.7-111.6z"/>
		</g>
	</g>
	<g id="XMLID_616_">
		<g id="XMLID_575_">
			<path id="XMLID_579_" class="st3" d="M10.6-113.8c-1,0.3-2.1,0.5-3.2,0.5c0.3,0.6,0.6,1.1,1,1.7c0.5-0.8,1-1.6,1.6-2.3
				c-0.6-0.4-1.3-0.7-1.9-1.1c-0.1,0.3-0.4,0.5-0.7,0.6c-1.4,0.4-0.8,2.6,0.6,2.2c1.1-0.3,1.9-1.1,2.3-2.2c0.4-1-1.2-1.9-1.9-1.1
				c-0.7,0.8-1.4,1.8-2,2.7c-0.4,0.8,0.1,1.7,1,1.7c1.3,0,2.6-0.1,3.8-0.5C12.6-112.1,12-114.2,10.6-113.8L10.6-113.8z"/>
		</g>
	</g>
	<g id="XMLID_623_">
		<g id="XMLID_569_">
			<path id="XMLID_573_" class="st4" d="M73.8-118.1c-0.4,1.9-0.7,3.8-1.1,5.7c-0.2,0.9,1.3,1.3,1.4,0.4c0.4-1.9,0.7-3.8,1.1-5.7
				C75.4-118.7,74-119.1,73.8-118.1L73.8-118.1z"/>
		</g>
	</g>
	<g id="XMLID_630_">
		<g id="XMLID_562_">
			<path id="XMLID_567_" class="st4" d="M66.8-116.2c0,0-0.2,0.7-0.2,0.7c0,0.3-0.1,0.6-0.1,0.9c-0.1,0.6-0.2,1.2-0.3,1.9
				c-0.1,0.9,1.3,1.4,1.4,0.4c0.1-0.9,0.3-1.8,0.4-2.6c0.1-0.7,0.3-1.4,0-2C67.7-117.8,66.4-117,66.8-116.2L66.8-116.2z"/>
		</g>
	</g>
	<g id="XMLID_637_">
		<g id="XMLID_555_">
			<path id="XMLID_560_" class="st4" d="M68.2-120.9c0-0.1,0-0.2,0-0.3c0.1-0.9-1.2-1.4-1.4-0.4c-0.4,1.6-0.6,3.2-0.7,4.8
				c0,1,1.5,1,1.5,0c0-1.5,0.2-3,0.6-4.4c-0.5-0.1-1-0.3-1.4-0.4c0,0.1,0,0.2,0,0.3C66.7-120.4,68.1-120,68.2-120.9L68.2-120.9z"/>
		</g>
	</g>
	<g id="XMLID_644_">
		<g id="XMLID_548_">
			<path id="XMLID_552_" class="st4" d="M62.1-118.5c-0.5,1.2-1.1,2.5-1.6,3.7c-0.5,1.3-0.6,3.3-1.7,4.2c0.2-0.1,0.5-0.1,0.7-0.2
				c0,0-0.1,0-0.1,0c-0.9-0.3-1.3,1.2-0.4,1.4c1.1,0.3,1.8-1.5,2.1-2.2c0.4-0.9,0.5-1.9,0.9-2.8c0.4-1.1,0.9-2.3,1.4-3.4
				C63.8-118.6,62.5-119.4,62.1-118.5L62.1-118.5z"/>
		</g>
	</g>
	<g id="XMLID_651_">
		<g id="XMLID_541_">
			<path id="XMLID_545_" class="st4" d="M50.4-120.6c-0.2,1.8-0.3,3.6-0.5,5.3c-0.1,1.2,0.1,4.4-0.9,5.2c-0.7,0.6,0.3,1.7,1.1,1.1
				c1.1-0.9,1-2.9,1.1-4.3c0.2-2.4,0.4-4.9,0.7-7.3C52-121.6,50.5-121.5,50.4-120.6L50.4-120.6z"/>
		</g>
	</g>
	<g id="XMLID_658_">
		<g id="XMLID_533_">
			<path id="XMLID_537_" class="st4" d="M41.5-111.7c-0.4-3-0.7-5.9-1.1-8.9c-0.1-0.9-1.6-1-1.5,0c0.4,3,0.7,5.9,1.1,8.9
				C40.1-110.7,41.6-110.7,41.5-111.7L41.5-111.7z"/>
		</g>
	</g>
	<g id="XMLID_665_">
		<g id="XMLID_526_">
			<path id="XMLID_530_" class="st4" d="M33.5-111.6c0.7-1.5,1.4-3,2.1-4.5c0.4-0.9-0.9-1.6-1.3-0.8c-0.7,1.5-1.4,3-2.1,4.5
				C31.8-111.5,33.1-110.7,33.5-111.6L33.5-111.6z"/>
		</g>
	</g>
	<g id="XMLID_672_">
		<g id="XMLID_519_">
			<path id="XMLID_523_" class="st4" d="M74.5-125.9c-10.1,2.8-20.5,3.6-30.9,4.2C33.3-121.2,23-121,13.1-124
				c-0.9-0.3-1.3,1.2-0.4,1.4c10.1,3.1,20.5,2.9,30.9,2.3c10.6-0.6,21.1-1.4,31.3-4.2C75.8-124.7,75.4-126.2,74.5-125.9L74.5-125.9z
				"/>
		</g>
	</g>
	<g id="XMLID_679_">
		<g id="XMLID_512_">
			<path id="XMLID_516_" class="st4" d="M29.3-117.6c0.7,1.8,1.5,3.5,2.4,5.2c0.5,0.9,1.7,0.1,1.3-0.8c-0.8-1.6-1.6-3.2-2.3-4.9
				C30.4-118.8,29-118.5,29.3-117.6L29.3-117.6z"/>
		</g>
	</g>
	<g id="XMLID_686_">
		<g id="XMLID_505_">
			<path id="XMLID_509_" class="st4" d="M22.5-116.9c-0.1,1.2-0.3,2.4-0.5,3.5c-0.2,0.9,1.2,1.3,1.4,0.4c0.3-1.3,0.5-2.6,0.6-3.9
				C24-117.9,22.5-117.9,22.5-116.9L22.5-116.9z"/>
		</g>
	</g>
	<g id="XMLID_693_">
		<g id="XMLID_498_">
			<path id="XMLID_502_" class="st4" d="M17.3-122.2c-0.4,0.8-1.1,1.5-1.7,2.1c-0.6,0.7-1.2,1.4-1.9,2c-0.7,0.7,0.4,1.8,1.1,1.1
				c0.7-0.8,1.4-1.5,2.1-2.3c0.6-0.7,1.4-1.3,1.7-2.2C19-122.3,17.7-123.1,17.3-122.2L17.3-122.2z"/>
		</g>
	</g>
	<g id="XMLID_700_">
		<g id="XMLID_491_">
			<path id="XMLID_495_" class="st4" d="M44.8-121.1C44.8-121.1,44.8-121.1,44.8-121.1c-0.1,0.5-0.1,0.9-0.2,1.4c0,0,0,0,0,0
				c-0.3-0.1-0.6-0.2-0.8-0.3c0,0,0,0,0,0c0-0.3,0-0.5,0-0.8c-0.4,0.8,0.3,1.3,0.7,1.9c0.5,0.6,1.1,1.2,1.7,1.8
				c0.7,0.7,1.7-0.4,1.1-1.1c-0.8-0.9-1.6-1.7-2.3-2.6c0.1,0.2,0.1,0.4,0.2,0.5c0,0.1,0,0.1-0.1,0.2c0.1-0.2,0.2-0.5,0-0.8
				c0,0,0,0,0,0c-0.2-0.3-0.5-0.4-0.8-0.3c0,0,0,0,0,0c-0.6,0.2-0.7,1.1-0.2,1.4c0,0,0,0,0,0C44.9-119.3,45.6-120.6,44.8-121.1
				L44.8-121.1z"/>
		</g>
	</g>
	<g id="XMLID_707_">
		<g id="XMLID_484_">
			<path id="XMLID_488_" class="st4" d="M58.4-121.8c-0.2,1.2-0.6,2.3-1.4,3.3c-0.6,0.7,0.5,1.8,1.1,1.1c0.9-1.2,1.6-2.5,1.8-4
				C60-122.3,58.5-122.8,58.4-121.8L58.4-121.8z"/>
		</g>
	</g>
</g>
<g id="cleaning_bottle">
	<g id="XMLID_714_">
		<g id="XMLID_912_">
			<path id="XMLID_916_" class="st5" d="M48.3,14.8c-9.1-1.5-18.1-1.4-27.1,0.4c-0.9,0.2-0.5,1.6,0.4,1.4c8.8-1.8,17.5-1.9,26.3-0.4
				C48.8,16.4,49.2,14.9,48.3,14.8L48.3,14.8z"/>
		</g>
	</g>
	<g id="XMLID_721_">
		<g id="XMLID_906_">
			<path id="XMLID_910_" class="st5" d="M47.3,15.7c1.7,0.6,3.4,1.1,5.1,1.7c0.9,0.3,1.3-1.1,0.4-1.4c-1.7-0.6-3.4-1.1-5.1-1.7
				C46.8,13.9,46.4,15.4,47.3,15.7L47.3,15.7z"/>
		</g>
	</g>
	<g id="XMLID_728_">
		<g id="XMLID_900_">
			<path id="XMLID_904_" class="st5" d="M52.2,17.2c0,1.9,0,3.9,0,5.8c0,1,1.5,1,1.5,0c0-1.9,0-3.9,0-5.8
				C53.7,16.2,52.2,16.2,52.2,17.2L52.2,17.2z"/>
		</g>
	</g>
	<g id="XMLID_735_">
		<g id="XMLID_894_">
			<path id="XMLID_898_" class="st5" d="M52.1,17.7c1.1,0,2.8-0.1,3.7,0.4c0.8,0.5,0.6,2.3,0.7,3.2c0,0.5,0.1,1,0.1,1.5
				c0,0.1,0.3,1.4,0.3,1.4c-0.1,0.1-1.8,0.1-1.9,0.1c-0.6,0-1.3,0.1-1.9,0.1c-1,0-1,1.5,0,1.5c1.1,0,2.2-0.1,3.2-0.1
				c0.5,0,1.1,0,1.5-0.3c1-0.8,0.3-3.3,0.2-4.4c-0.1-1.2,0.3-3.3-0.9-4.1c-1.2-0.8-3.6-0.8-5-0.8C51.1,16.2,51.1,17.7,52.1,17.7
				L52.1,17.7z"/>
		</g>
	</g>
	<g id="XMLID_742_">
		<g id="XMLID_888_">
			<path id="XMLID_892_" class="st5" d="M51.5,23c0.1,0.7,0.3,1.3,0.4,2c0.2,0.9,1.6,0.5,1.4-0.4c-0.1-0.7-0.3-1.3-0.4-2
				C52.8,21.7,51.3,22.1,51.5,23L51.5,23z"/>
		</g>
	</g>
	<g id="XMLID_749_">
		<g id="XMLID_882_">
			<path id="XMLID_886_" class="st5" d="M52.3,24.9c-0.4-1.2-4.5,0.5-5.2,0.9c-1.8,0.9-3.4,2.1-4.7,3.7c-0.6,0.7,0.4,1.8,1.1,1.1
				c1.5-1.8,3.4-3.2,5.6-4c1.4-0.5,3.4-0.1,4.5-1.1c0.2-0.2,0.3-0.5,0.2-0.7c0-0.1,0-0.1-0.1-0.2C53.4,23.6,52,24,52.3,24.9
				L52.3,24.9z"/>
		</g>
	</g>
	<g id="XMLID_756_">
		<g id="XMLID_876_">
			<path id="XMLID_880_" class="st5" d="M22.9,15c-2.5,1.1-5.1,2.2-6.7,4.5c-1.6,2.3-0.5,4.4,0.9,6.5c0.5,0.8,1.8,0.1,1.3-0.8
				c-0.5-0.7-1.2-1.7-1.3-2.5c-0.3-1.8,0.6-2.9,1.9-3.9c1.4-1.1,3.1-1.8,4.8-2.5C24.5,15.9,23.7,14.6,22.9,15L22.9,15z"/>
		</g>
	</g>
	<g id="XMLID_763_">
		<g id="XMLID_870_">
			<path id="XMLID_874_" class="st5" d="M17.8,26.4c1.4,0.1,12.7,1.2,10,4.4c-0.6,0.7,0.4,1.8,1.1,1.1c4.6-5.5-8.4-6.9-11.1-7
				C16.8,24.8,16.8,26.3,17.8,26.4L17.8,26.4z"/>
		</g>
	</g>
	<g id="XMLID_770_">
		<g id="XMLID_864_">
			<path id="XMLID_868_" class="st5" d="M41,29.9c-0.2,1.1-0.1,2.2,0.3,3.3c0.3,0.9,1.8,0.5,1.4-0.4c-0.3-0.8-0.4-1.7-0.3-2.5
				c0.1-0.4-0.1-0.8-0.5-0.9C41.6,29.2,41.1,29.5,41,29.9L41,29.9z"/>
		</g>
	</g>
	<g id="XMLID_777_">
		<g id="XMLID_858_">
			<path id="XMLID_862_" class="st5" d="M41.9,30c-4.5,0.3-9,0.1-13.4-0.4c-1-0.1-1,1.4,0,1.5c4.5,0.5,8.9,0.6,13.4,0.4
				C42.9,31.4,42.9,29.9,41.9,30L41.9,30z"/>
		</g>
	</g>
	<g id="XMLID_784_">
		<g id="XMLID_851_">
			<path id="XMLID_856_" class="st5" d="M27.7,29.3c0,2,0.2,4,0.5,6c0.2,1,1.6,0.5,1.4-0.4c-0.3-1.9-0.5-3.7-0.5-5.6
				C29.2,28.4,27.7,28.4,27.7,29.3L27.7,29.3z"/>
		</g>
	</g>
	<g id="XMLID_791_">
		<g id="XMLID_844_">
			<path id="XMLID_849_" class="st5" d="M41.2,30.2c0,1.2,0.3,2.8,0,4c-0.3,1.2,0.1,0.7-1.1,1c-0.8,0.2-1.8,0-2.6,0
				c-1.4,0-2.8,0-4.2,0c-1.1,0-3.8,0.5-4.6-0.3c-0.7-0.7-1.8,0.4-1.1,1.1c1.1,1.1,2.6,0.8,4.1,0.8c2.6,0,5.3,0,7.9,0
				c1,0,2.2,0.3,2.9-0.6c0.9-1.1,0.2-4.6,0.2-6C42.7,29.3,41.2,29.3,41.2,30.2L41.2,30.2z"/>
		</g>
	</g>
	<g id="XMLID_798_">
		<g id="XMLID_837_">
			<path id="XMLID_842_" class="st5" d="M41.1,35c-1.1,5.6,2.8,8.9,6.6,12.3c6,5.3,7.5,13.9,9.3,21.4c1.5,6.3,6.5,24.5-3,26.7
				c-4.2,1-9.4,0.3-13.7,0.4c-2.6,0-14.2,1.5-14.7-1.9c-0.1-1-1.6-0.5-1.4,0.4c0.4,2.6,2.1,2.9,4.5,3.1c5.8,0.4,11.8-0.1,17.6-0.1
				c6.4-0.1,13.4,0.2,14.6-7.6c1.4-9.5-1.8-20.3-4.4-29.3c-1.1-3.7-2-7.9-4.5-11c-3.4-4.4-10.6-7.2-9.3-13.9
				C42.7,34.5,41.2,34.1,41.1,35L41.1,35z"/>
		</g>
	</g>
	<g id="XMLID_805_">
		<g id="XMLID_830_">
			<path id="XMLID_835_" class="st5" d="M27.6,34.8c1.1,6.7-2.7,12-4.4,18.1c-1.5,5.2-1.4,10.7-1.5,16c-0.1,5.5-0.1,11,0.4,16.5
				c0.3,3.6,0.8,7.1,3.4,9.8c0.7,0.7,1.7-0.4,1.1-1.1c-3.9-4.2-3.3-11.7-3.4-17c-0.1-5.2,0-10.5,0.3-15.7c0.3-5.6,1.9-10.1,3.9-15.3
				c1.5-4,2.4-7.6,1.7-11.8C28.9,33.5,27.5,33.9,27.6,34.8L27.6,34.8z"/>
		</g>
	</g>
	<g id="XMLID_812_">
		<g id="XMLID_823_">
			<path id="XMLID_828_" class="st5" d="M50.4,26.6c0.6,0.3,1.2,0.5,1.7,0.8c0.7,0,1,0.3,0.9,0.8c0.1,0.3,0.2,0.7,0.3,0.9
				c0.5,0.9,1.4,1.4,2.4,1.5c-0.2-0.2-0.4-0.5-0.6-0.7c0.1,1-0.1,2,0.6,2.8c0.7,0.9,2.2,1.3,3.2,1.8c0.1-0.5,0.1-0.9,0.2-1.4
				c-4.2,1.7-9.4-3.4-11.5-6.5c-0.5-0.8-1.8-0.1-1.3,0.8c2.4,3.7,8.3,9.3,13.2,7.2c0.5-0.2,0.8-1.1,0.2-1.4c-1.5-0.7-2.9-1.3-3-3.2
				c0-0.3-0.2-0.7-0.6-0.7c-2.5-0.4-1.1-1.3-2-2.4c-0.6-0.8-2.2-1.1-3.1-1.5C50.3,24.9,49.6,26.2,50.4,26.6L50.4,26.6z"/>
		</g>
	</g>
	<g id="XMLID_819_">
		<g id="XMLID_816_">
			<path id="XMLID_821_" class="st5" d="M40.7,27.6c1.4-3.5-0.1-7.9-4.3-8c-5.1-0.2-4.9,4.5-4.6,8.2c1-1,2-2,3-3
				c0.2,0-2.1-2.2-2.6-2.4c-1.5-0.7-3-0.6-4.6-0.3c-2.3,0.5-2.8,3.5-1.3,5c0.9,0.7,1.5,1.6,2,2.7c0.5,0.9,1.6,1.5,2.6,1.5
				c3.3,0,7.9,0.9,11.1-0.2c0.9-0.3,1.5-0.9,2.2-1.5c1.8-1.3,5.4-2.9,4-5.3c0.6-1.5,1.2-2.9,1.8-4.4c-1.2,0.3-2.3,0.6-3.5,0.9
				c0.5,1.9,1.1,3.9,1.6,5.8c1.2-0.4,2.4-0.7,3.6-0.8c2.3-0.3,3.7-2.3,2.6-4.5c-1.5-2.9-0.6-4.9-4.2-6c-4.6-1.4-10.5-1-15.2-1.2
				c-5.3-0.2-17.5-1.2-17.1,7.1c0.2,3.9,5.6,3.8,6,0c0.1-0.6,0.1-1.1,0.2-1.7c0.3-2.3-2.7-3.6-4.5-2.6c-2.4,1.4-3.2,3-3.4,5.7
				c1.9-0.5,3.7-1,5.6-1.5c-0.1-0.3-0.3-0.5-0.4-0.8c-1.4-2.5-5.9-1.5-5.6,1.5c0.6,6.6,6.7,3.6,10.9,5.9c0.8-1.8,1.5-3.7,2.3-5.5
				c-1.1-0.1-2.1-0.4-3.1-0.9c-0.1,2.1,0.7,2.8,2.6,2.1c1.9,0.6,4.7,0.1,6.7,0.2c4.4,0.2,8.8,0.4,13.3,0.6c-0.5-1.9-1-3.7-1.5-5.6
				c-1.9,1.1-4,2.7-6,3.4c1,0.3,1.9,0.5,2.9,0.8c-1.2-1-1.4-2.5-4-2.9c-5-0.8-10.7-0.3-15.8-0.4c-3.9-0.1-3.9,5.9,0,6
				c3.3,0.1,6.6,0.2,9.9,0.3c0,0,4.7-0.3,4.5-0.4c0.4,0.2,0.5,1.2,1,1.5c3.8,2.3,7.1-1,10.6-3c2.7-1.5,1.4-5.5-1.5-5.6
				c-4.7-0.2-9.4-0.4-14.1-0.6c-3.6-0.1-9.3-1.1-12.6,0.9c-6.2,3.8,1.9,8.9,5.7,9.5c3.2,0.6,5.5-3.7,2.3-5.5
				c-1.7-0.9-3.2-1.6-5.1-1.9c-0.8-0.1-1.6-0.2-2.4-0.1c-1.5-0.2-1.6,0.2-0.4,1.2c-1.9,0.5-3.7,1-5.6,1.5c0.1,0.3,0.3,0.5,0.4,0.8
				c1.5,2.8,5.4,1.3,5.6-1.5c0.1-0.2,0.3-0.4,0.4-0.5c-1.5-0.9-3-1.7-4.5-2.6c-0.1,0.6-0.1,1.1-0.2,1.7c2,0,4,0,6,0
				c-0.1-2,14.3-0.9,16-0.8c2.5,0.1,5.2,0.7,7.7,0.6c1,0-0.4-2,0.6,0.4c0.4,1.1,0.6,1.8,1.1,2.9c0.9-1.5,1.7-3,2.6-4.5
				c-1.8,0.2-3.5,0.5-5.2,1.1c-3.7,1.2-2.2,6.8,1.6,5.8c1.2-0.3,2.3-0.6,3.5-0.9c1.9-0.5,2.8-2.7,1.8-4.4c-1.9-3.2-5-2.1-7.6-0.4
				c-1.7,1.1-3.3,3-5.1,3.9c-2.3,1.2-7.1,0.5-9.8,0.5c0.9,0.5,1.7,1,2.6,1.5c-0.8-1.5-1.7-2.7-2.9-3.9c-0.4,1.7-0.9,3.3-1.3,5
				c0.4-0.1,2.1,1.9,2.6,2.2c1,0.6,1.7,0.7,2.9,0.7c1.5,0,3.1-1.3,3-3c0-0.5-0.1-1.1-0.2-1.6c0-1.2-0.9-1.2-2.7-0.1
				C33.4,29.6,39.2,31.1,40.7,27.6L40.7,27.6z"/>
		</g>
	</g>
	<g id="XMLID_826_">
		<g id="XMLID_809_">
			<path id="XMLID_814_" class="st5" d="M52.1,23.2c-0.1,0.5,0,1,0.1,1.5c0.2,0.8,1.5,0.7,1.5-0.2c0-0.7,0-1.5,0-2.2
				c-0.5,0.1-1,0.1-1.5,0.2c0.2,0.8,0.2,1.5,0.2,2.3c-0.1,1,1.4,1,1.5,0c0-0.9,0-1.8-0.3-2.7c-0.2-0.8-1.5-0.6-1.5,0.2
				c0,0.7,0,1.5,0,2.2c0.5-0.1,1-0.1,1.5-0.2c-0.1-0.4-0.1-0.7-0.1-1.1c0-0.4-0.4-0.7-0.8-0.8C52.4,22.5,52.1,22.8,52.1,23.2
				L52.1,23.2z"/>
		</g>
	</g>
	<g id="XMLID_833_">
		<g id="XMLID_802_">
			<path id="XMLID_807_" class="st5" d="M41.5,41.6C41.5,41.6,41.6,41.6,41.5,41.6c0.9-0.1,0.7-1.6-0.1-1.5c-2,0.2-4,0.4-6,0.4
				c-1.7,0-5.4,0.3-6.8-0.6c0.1,0.4,0.1,0.8,0.2,1.2c0,0,0-0.1,0.1-0.1c-0.3,0-0.6,0.1-0.9,0.1c0,0,0,0,0.1,0
				c0.8,0.5,1.6-0.8,0.8-1.3c0,0,0,0-0.1,0c-0.3-0.2-0.7-0.1-0.9,0.1c0,0,0,0.1-0.1,0.1c-0.3,0.4-0.3,0.9,0.2,1.2
				c1.4,0.8,4,0.7,5.5,0.8c2.7,0.1,5.3,0,8-0.3c-0.1-0.5-0.1-1-0.2-1.5c0,0-0.1,0-0.1,0C40.1,40.3,40.6,41.7,41.5,41.6L41.5,41.6z"
				/>
		</g>
	</g>
	<g id="XMLID_840_">
		<g id="XMLID_795_">
			<path id="XMLID_800_" class="st5" d="M42.3,40.2C42,40,41.6,40,41.2,40.1c-0.9,0.2-0.5,1.7,0.4,1.4c0,0-0.1,0-0.1,0
				C42.3,42.1,43.1,40.8,42.3,40.2L42.3,40.2z"/>
		</g>
	</g>
	<g id="XMLID_847_">
		<g id="XMLID_793_">
			<path id="XMLID_1377_" class="st5" d="M34.3,39.9c0.7,0,1.4,0,2,0c1.4,0,2.2-2.1,0.8-2.8c-1.3-0.6-3.1-1.1-4.2,0.2
				c-0.9,1-0.8,2.6,0.3,3.4c2.1,1.5,8.4,0.2,6.9-3.4c-1.1-2.7-5.8-1.3-5.2,1.5c0.3,1.5,2.2,2.3,3.6,2.2c1.8-0.1,3-1.5,3.3-3.1
				c-1-0.1-2-0.3-2.9-0.4c0,1.2,0.3,1.9,0.8,3c0.1-0.6,0.2-1.2,0.2-1.8c-0.3,0.2-1.9,0.2-2.2,0.2c-0.8,0-1.7,0-2.5,0
				c-1.5,0-3.6,0.3-5.1-0.2c0.3,0.3,0.7,0.7,1,1c-0.1-0.6-0.1-1.2,0.1-1.7c-0.3,0.3-0.7,0.7-1,1c1.5-0.2,3.4,0.3,4.9,0.3
				c1.6,0,3.2,0,4.9-0.1c1.6-0.1,2.2-2.7,0.4-2.9c-2.7-0.4-7-1.3-9.4,0.5c-1.5,1.1-1.2,3.9,1,3.7c1.9-0.2,2-3.1,0-3
				c-0.2,0-0.4,0-0.7,0c-1.9,0.1-1.9,3.1,0,3c0.2,0,0.4,0,0.7,0c0-1,0-2,0-3c0.4,1.4,1.1,1.9,2.1,1.4c0.6-0.1,1.3-0.1,1.9-0.1
				c1.2,0,2.4,0.2,3.6,0.4c0.1-1,0.3-2,0.4-2.9c-1.9,0.1-3.8,0.1-5.7,0c-1.6-0.1-3.2-0.4-4.8-0.2c-0.5,0.1-0.9,0.6-1,1
				c-0.4,1-0.6,2.7,0.1,3.7c0.8,1.2,2.6,0.9,3.8,1c2.6,0.1,7.8,0.9,9.9-1c0.5-0.5,0.5-1.2,0.2-1.8c-0.2-0.5-0.4-1-0.4-1.5
				c0-1.7-2.6-2.1-2.9-0.4c-0.8,0.8-1.8,1.2-2.8,1.2c-1-0.3-1.2,0.2-0.4,1.5c0.3-0.9,0.5-1.9,0.8-2.8c-0.7,0-1.4,0-2,0
				C32.4,36.9,32.3,39.9,34.3,39.9L34.3,39.9z"/>
		</g>
	</g>
	<g id="XMLID_854_">
		<g id="XMLID_1378_">
			<path id="XMLID_1382_" class="st5" d="M26.8,61.2c0.7-10.8,18-13.7,22.1-3.7c2,4.9,4.6,14.3,2,18.9c-1.5,2.7-3.1,2.3-6,2.6
				c-1.3,0.1-2.5,0.1-3.8,0.2c-3,0.1-6.6,0.4-9.5-0.2c-2.6-0.5-3.6-0.8-4.4-3.7c-0.5-1.7-0.4-3.8-0.5-5.6c-0.1-3.2,0.1-6.4,0.2-9.5
				c0-1-1.5-1-1.5,0c-0.2,5.3-1.4,12.7,0.7,17.7c1.3,3.1,4.3,2.5,7.3,2.7c5.2,0.2,12.3,1.1,17.3-1c3-1.3,2.9-4.1,2.6-6.9
				c-0.6-7.8-1.3-19.4-10.1-21.9c-8-2.3-17.4,1.3-17.9,10.5C25.3,62.2,26.8,62.2,26.8,61.2L26.8,61.2z"/>
		</g>
	</g>
</g>
<g id="cup">
	<g id="XMLID_70_">
		<g id="XMLID_774_">
			<path id="XMLID_911_" class="st6" d="M-135.7-44.3c3.3,0,6.5,0.1,9.8,0.3c1.5,0.1,3,0.2,4.5,0.4c1,0.1,2.1,0.2,3.1,0.3
				c2.1,1.6,2.7,3.5,2,5.7c-0.1,0.9,1.3,1.4,1.4,0.4c0.5-3.2,0.4-6.3-3.1-7.5c-2.2-0.7-5-0.6-7.2-0.7c-3.5-0.2-7-0.4-10.6-0.4
				C-136.7-45.8-136.7-44.3-135.7-44.3L-135.7-44.3z"/>
		</g>
	</g>
	<g id="XMLID_77_">
		<g id="XMLID_230_">
			<path id="XMLID_772_" class="st6" d="M-137-45.6c-5.3-0.2-10.7-0.1-16,0.4c-1,0.1-1,1.6,0,1.5c5.3-0.5,10.7-0.6,16-0.4
				C-136.1-44-136.1-45.5-137-45.6L-137-45.6z"/>
		</g>
	</g>
	<g id="XMLID_84_">
		<g id="XMLID_222_">
			<path id="XMLID_228_" class="st6" d="M-153.7-45c-2.6,1-2.2,4.4-2,6.6c0.1,1,1.6,1,1.5,0c-0.1-1.3-0.7-4.6,0.9-5.2
				C-152.4-43.9-152.8-45.3-153.7-45L-153.7-45z"/>
		</g>
	</g>
	<g id="XMLID_175_">
		<g id="XMLID_216_">
			<path id="XMLID_220_" class="st6" d="M-116.5-36.9c-12.9,0.3-25.7,0.8-38.5-0.2c-1-0.1-1,1.4,0,1.5c12.8,1,25.7,0.5,38.5,0.2
				C-115.6-35.5-115.6-37-116.5-36.9L-116.5-36.9z"/>
		</g>
	</g>
	<g id="XMLID_98_">
		<g id="XMLID_210_">
			<path id="XMLID_214_" class="st6" d="M-118.5-43.3c-11.6,0.6-23.2,0.6-34.8-0.2c-1-0.1-1,1.4,0,1.5c11.6,0.8,23.2,0.8,34.8,0.2
				C-117.6-41.9-117.6-43.4-118.5-43.3L-118.5-43.3z"/>
		</g>
	</g>
	<g id="XMLID_105_">
		<g id="XMLID_204_">
			<path id="XMLID_208_" class="st6" d="M-118.2-35.3c-0.9,4.3-1.6,8.6-2.1,13c-0.5,5,0,10.2-0.9,15.1c-0.2,0.9,1.3,1.4,1.4,0.4
				c0.7-3.9,0.3-7.9,0.6-11.8c0.4-5.5,1.2-10.9,2.4-16.3C-116.5-35.9-118-36.3-118.2-35.3L-118.2-35.3z"/>
		</g>
	</g>
	<g id="XMLID_119_">
		<g id="XMLID_198_">
			<path id="XMLID_202_" class="st6" d="M-153.9-35.4c1.5,6.9,2.9,13.9,4.4,20.8c1.1,5.1,1.6,10.6,4.5,15c0.5,0.8,1.8,0.1,1.3-0.8
				c-3.1-4.7-3.6-11.1-4.7-16.5c-1.3-6.3-2.7-12.6-4-18.9C-152.7-36.8-154.1-36.4-153.9-35.4L-153.9-35.4z"/>
		</g>
	</g>
	<g id="XMLID_126_">
		<g id="XMLID_191_">
			<path id="XMLID_195_" class="st6" d="M-120.8-7.2c-0.2,1.1-0.5,2.1-0.9,3.2c-0.9,2.2-2.4,3.1-4.4,2.7c-1.8,0.4-3.9,0.1-5.7,0.1
				c-1.5,0-13.1,0-13.1,0c-0.1-1-1.6-1-1.5,0c0,0.1,0,0.2,0,0.3c0,0.2,0.1,0.5,0.4,0.6c2,0.8,4.4,0.4,6.5,0.5
				c4.1,0.1,8.3,0.1,12.4,0c5.5-0.1,6.4-1.3,7.7-7C-119.1-7.8-120.6-8.2-120.8-7.2L-120.8-7.2z"/>
		</g>
	</g>
	<g id="XMLID_133_">
		<g id="XMLID_184_">
			<path id="XMLID_188_" class="st6" d="M-119.6-28.6c-10.8,1.9-21.7,2.2-32.6,1.1c-1-0.1-1,1.4,0,1.5c11.1,1.1,22.1,0.7,33-1.2
				C-118.2-27.4-118.6-28.8-119.6-28.6L-119.6-28.6z"/>
		</g>
	</g>
	<g id="XMLID_140_">
		<g id="XMLID_178_">
			<path id="XMLID_182_" class="st6" d="M-119.8-18.2c-9.9,1.3-19.8,1.2-29.6-0.3c-0.9-0.1-1.4,1.3-0.4,1.4c10,1.5,20,1.7,30,0.4
				C-118.9-16.8-118.9-18.3-119.8-18.2L-119.8-18.2z"/>
		</g>
	</g>
	<g id="XMLID_147_">
		<g id="XMLID_171_">
			<path id="XMLID_176_" class="st6" d="M-134.7-37.1c5-0.1,10.6,0.5,15.5-0.4c2.4-0.4,3.7-1.8,3.4-4.2c-0.2-1.9-3.1-1.9-3,0
				c0.2,1.3,0.1,2.6-0.2,3.8c0.5-0.4,1-0.7,1.4-1.1c-6.1,0-12.3,0-18.4-0.1c-2.9-0.1-5.8-0.2-8.7-0.3c-3.1-0.1-7.3,0.8-7.4-3.3
				c-0.5,0.5-1,1-1.5,1.5c11.5-0.1,23.1-0.1,34.6-0.2c-0.5-0.5-1-1-1.5-1.5c0,0.5,0,1-0.1,1.5c0.5-0.5,1-1,1.5-1.5
				c-11.3,0.2-22.7,0.4-34,0.7c-1.7,0-2,2.4-0.4,2.9c6.5,2.2,13.2,1.8,20,1.1c1.9-0.2,2-2.9,0-3c-0.8,0-1.7-0.1-2.5-0.1
				c-1.9-0.1-1.9,2.9,0,3c0.8,0,1.7,0.1,2.5,0.1c0-1,0-2,0-3c-6.5,0.7-12.9,1.2-19.2-1c-0.1,1-0.3,2-0.4,2.9
				c11.3-0.2,22.7-0.4,34-0.7c0.8,0,1.5-0.7,1.5-1.5c0-0.5,0-1,0.1-1.5c0-0.8-0.7-1.5-1.5-1.5c-11.5,0.1-23.1,0.1-34.6,0.2
				c-0.8,0-1.5,0.7-1.5,1.5c0,1.6-0.3,4.4,1.3,5.6c1.9,1.4,7,0.7,9.1,0.7c9,0.4,18.1,0.5,27.1,0.4c0.6,0,1.3-0.5,1.4-1.1
				c0.3-1.6,0.5-3,0.3-4.6c-1,0-2,0-3,0c0.2,2-14.1,1.5-16,1.6C-136.6-40-136.6-37-134.7-37.1L-134.7-37.1z"/>
		</g>
	</g>
	<g id="XMLID_154_">
		<g id="XMLID_164_">
			<path id="XMLID_169_" class="st6" d="M-128.7-24.3c-3.6-0.3-7.1-0.4-10.7-0.3c-1.6,0-1.9,2-0.8,2.8c7.1,5.1,14.5,1.8,21-2.6
				c-0.7-0.7-1.4-1.4-2.1-2.1c-1.7,2.4-2.3,4.6-2.1,7.5c0.5-0.5,1-1,1.5-1.5c-4.5,0.4-9.1,0.6-13.6,0.4c-1.9-0.1-3.9-0.2-5.8-0.4
				c-1.8-0.2-3.6-0.4-5.4-0.7c-0.8-1.2-1.2-2.5-1.4-3.9c-0.5,0.6-1,1.3-1.4,1.9c9.3,0.8,18.6,0.4,27.9-1c-0.4-0.9-0.8-1.8-1.2-2.7
				c-1.8,0.9-3.7,1.9-5.5,2.8c-1,0.5-1,2.1,0,2.6c1.4,0.8,2.9,1.4,4.4,2.1c0.1-1,0.3-2,0.4-2.9c-7.8-0.2-15.6-0.5-23.4-0.7
				c-1.9-0.1-1.9,2.9,0,3c7.8,0.2,15.6,0.5,23.4,0.7c1.8,0.1,1.9-2.4,0.4-2.9c-1.3-0.5-2.5-1.1-3.7-1.8c0,0.9,0,1.7,0,2.6
				c1.8-0.9,3.7-1.9,5.5-2.8c1.6-0.8,0.4-3-1.2-2.7c-9,1.4-18,1.7-27.1,0.9c-1-0.1-1.7,1-1.4,1.9c1.3,5.5,2.2,6,7.8,6.6
				c7.1,0.8,14.2,0.8,21.3,0.2c0.8-0.1,1.6-0.6,1.5-1.5c-0.2-2.2,0.4-4.2,1.7-6c0.9-1.2-0.8-2.9-2.1-2.1c-5.6,3.8-11.7,7.1-17.9,2.6
				c-0.3,0.9-0.5,1.9-0.8,2.8c3.6-0.1,7.1,0,10.7,0.3C-126.8-21.2-126.8-24.2-128.7-24.3L-128.7-24.3z"/>
		</g>
	</g>
	<g id="XMLID_161_">
		<g id="XMLID_157_">
			<path id="XMLID_162_" class="st6" d="M-146.2-19c0-0.1,0-0.1,0-0.2c0-0.8-0.7-1.5-1.5-1.5c-0.8,0-1.5,0.7-1.5,1.5
				c0,0.1,0,0.1,0,0.2c0,0.8,0.7,1.5,1.5,1.5C-146.9-17.6-146.2-18.2-146.2-19L-146.2-19z"/>
		</g>
	</g>
	<g id="XMLID_91_">
		<g id="XMLID_145_">
			<path id="XMLID_155_" class="st6" d="M-152-39.4c-0.7,0-1.4,0-2.2,0c-0.8,0-1.5,0.7-1.5,1.5c0,0.8,0.7,1.5,1.5,1.5
				c0.7,0,1.4,0,2.2,0c0.8,0,1.5-0.7,1.5-1.5C-150.6-38.7-151.2-39.4-152-39.4L-152-39.4z"/>
		</g>
	</g>
	<g id="XMLID_112_">
		<g id="XMLID_138_">
			<path id="XMLID_143_" class="st7" d="M-118-43.8c-11.7,1.2-23.4,1-35-0.6c-1-0.1-0.9,1.4,0,1.5c11.7,1.5,23.3,1.7,35,0.6
				C-117-42.4-117-43.9-118-43.8L-118-43.8z"/>
		</g>
	</g>
</g>
<g id="fork">
	<g id="XMLID_1183_">
		<g id="XMLID_134_">
			<g id="XMLID_334_">
				<path id="XMLID_400_" class="st8" d="M-86-110.4c-1.6-0.2-3.2-0.5-4.7-0.9c-0.9-0.3-1.3,1.2-0.4,1.4c1.7,0.5,3.4,0.8,5.1,1
					C-85.1-108.8-85.1-110.3-86-110.4L-86-110.4z"/>
			</g>
		</g>
		<g id="XMLID_149_">
			<g id="XMLID_309_">
				<path id="XMLID_322_" class="st8" d="M-86.3-108.7c1,0.5-3.7,19.5-4.1,21.4c-0.7,3.5-1.5,7-2.3,10.5c-0.5,2-1.6,4.5-1.2,6.5
					c0.1,0.5,0.7,0.7,1.1,0.4c0.1,0,0.1-0.1,0.2-0.1c0.3-0.2,0.5-0.7,0.3-1c0,0,0-0.1-0.1-0.1c-0.5-0.8-1.8-0.1-1.3,0.8
					c0.6,1,2.2-4.7,2.3-5.2c0.4-1.6,0.7-3.2,1.1-4.8c0.7-3.2,1.4-6.3,2-9.5c1.3-6.4,2.6-12.7,3.8-19.1c0.1-0.3,0-0.7-0.3-0.8
					c-0.2-0.1-0.4-0.2-0.6-0.3C-86.5-110.4-87.2-109.1-86.3-108.7L-86.3-108.7z"/>
			</g>
		</g>
		<g id="XMLID_150_">
			<g id="XMLID_298_">
				<path id="XMLID_307_" class="st8" d="M-91.1-110.2c-1,0.9-1.5,2-1.5,3.2c-0.1,0.9-0.2,1.9-0.3,2.8c-0.2,1.8-0.5,3.6-0.7,5.4
					c-0.5,3.4-1.1,6.8-1.6,10.2c-0.9,5.7-2.2,11.7-1.8,17.5c0,0.3,0.2,0.6,0.6,0.7c2.1,0.5,1.6,0.4,3.7,0.5c0.3,0,0.7-0.2,0.7-0.6
					c0.5-3.4,0.9-6.8,1.4-10.2c0.1-0.9-1.3-1.4-1.4-0.4c-0.3,2-0.1,5-0.9,6.8c0.4,1.6-0.1,2.1-1.4,1.5c-1.4,0.2-1.8-0.4-1.1-1.9
					c-0.4-2,0.6-5.2,0.8-7.2c0.3-2.5,0.7-4.9,1.1-7.4c0.7-4.3,1.4-8.7,2-13c0.3-2.4,1.4-6,0.8-8.3c-0.1-0.4-0.5-0.7-0.9-0.5
					c-0.1,0-0.1,0-0.2,0.1c-0.4,0.1-0.6,0.5-0.5,0.9c0,0,0,0.1,0,0.1C-92.4-108.9-90.9-109.3-91.1-110.2L-91.1-110.2z"/>
			</g>
		</g>
		<g id="XMLID_151_">
			<g id="XMLID_290_">
				<path id="XMLID_296_" class="st8" d="M-92.5-88.1c-0.7,3.9-1.4,7.8-1.9,11.7c-0.1,0.9,1.3,1.4,1.4,0.4c0.6-3.6,0.9-7.2,0.9-10.9
					c0-0.7-1-1-1.4-0.4c-2,3.5-2.1,7.1-2,11.1c0,1,1.5,1,1.5,0c0-2.3,0.1-4.3,0.6-6.6c0.2-0.9-1.1-1.3-1.4-0.4
					c-1,3-3.1,7.5-0.7,10.2c0.3,0.3,1,0.3,1.2-0.2c0.7-1.4,0.9-2.5,0.9-4.1c0-0.7-1.1-1.1-1.4-0.4c-0.8,1.9-1.2,3.4-1.3,5.4
					c0,0.8,1,1,1.4,0.4c0.8-1.1,1.2-2.1,1.6-3.5c-0.5-0.1-1-0.3-1.4-0.4c-0.1,0.9-0.3,1.9-0.4,2.8c-0.1,0.8,1,1.4,1.4,0.6
					c1.3-2.9,1.5-6.1,2.1-9.2c0.9-4.4,2.1-8.7,2.9-13.2c0.6-3.6,1-7.1,0.8-10.8c-0.2-3.4-0.2,1-0.4,2.2c-0.4,2.4-0.9,4.9-1.5,7.3
					c0.5,0.1,1,0.1,1.5,0.2c0-2.8,2.8-11.6-1.2-13.6c-3.1-1.6-3,2.5-3.5,4.3c0.5,0.1,1,0.3,1.4,0.4c0.2-1,0.5-2.1,0.7-3.1
					c-0.5,0-1,0-1.4,0c0.9,3.7-0.5,7.8-0.9,11.6c-0.5,3.7-0.6,7.3-0.2,11c0.1,0.9,1.5,1,1.5,0c0.1-3.3,0.3-6.6,0.6-9.8
					c0.3-2.3,0.9-11.5,3.7-12.5c-0.3-0.3-0.6-0.6-0.9-0.9c-0.7,2-1.5,4-2.4,5.9c0.5,0.1,0.9,0.3,1.4,0.4c0-1.8,0-3.5,0-5.3
					c0-0.8-1.3-1.1-1.5-0.2c-1.2,6.9-2.9,14-3.3,21c0,0.9,1.2,0.9,1.5,0.2c2.3-5.6,3.5-11.2,3.7-17.2c0-0.8-1.4-1-1.5-0.2
					c-1.6,10.8-3.2,21.6-5,32.4c-0.2,0.9,1.3,1.4,1.4,0.4c1.8-10.8,3.4-21.6,5-32.4c-0.5-0.1-1-0.1-1.5-0.2
					c-0.2,5.9-1.4,11.4-3.7,16.8c0.5,0.1,1,0.1,1.5,0.2c0.4-6.8,2.1-13.8,3.2-20.6c-0.5-0.1-1-0.1-1.5-0.2c0,1.8,0,3.5,0,5.3
					c0,0.7,1.1,1.1,1.4,0.4c1-2,1.9-4.1,2.6-6.2c0.2-0.5-0.4-1.1-0.9-0.9c-2.9,1-3.3,5-3.9,7.6c-1.2,5.3-1.4,10.8-1.6,16.2
					c0.5,0,1,0,1.5,0c-0.5-4.9,0-9.6,0.7-14.5c0.4-2.8,1.1-5.7,0.4-8.5c-0.2-0.7-1.3-0.7-1.4,0c-0.2,1-0.5,2.1-0.7,3.1
					c-0.2,0.9,1.2,1.3,1.4,0.4c0.2-0.4,0.3-0.9,0.4-1.3c2.3,1.2,2.9,3,1.9,5.3c-0.2,1.7-0.5,3.2-0.5,4.9c0,0.8,1.3,1,1.5,0.2
					c0.9-4.2,1.7-8.5,2.3-12.8c0-0.3,0-0.7-0.3-0.8c-4.6-2.1-2.9,6.2-3,8.2c-0.3,4.7-1.4,9.3-2.5,13.8c-1,4.5-1.2,9.9-3.2,14.1
					c0.5,0.2,0.9,0.4,1.4,0.6c0.1-0.9,0.3-1.9,0.4-2.8c0.1-0.9-1.2-1.4-1.4-0.4c-0.2,1.2-0.7,2.2-1.4,3.1c0.5,0.1,0.9,0.3,1.4,0.4
					c0.4-1.6,0.7-3.1,1.1-4.7c-0.5-0.1-0.9-0.3-1.4-0.4c0-1.8,0.9-3.8,1.5-5.5c-0.5-0.1-1-0.3-1.4-0.4c-0.5,2.4-0.7,4.6-0.6,7
					c0.5,0,1,0,1.5,0c-0.1-3.6,0-7,1.8-10.3c-0.5-0.1-0.9-0.3-1.4-0.4c0,3.6-0.3,7-0.9,10.5c0.5,0.1,1,0.3,1.4,0.4
					c0.6-3.9,1.2-7.8,1.9-11.7C-90.9-88.6-92.3-89-92.5-88.1L-92.5-88.1z"/>
			</g>
		</g>
		<g id="XMLID_153_">
			<g id="XMLID_282_">
				<path id="XMLID_286_" class="st8" d="M-88.9-107.8c0.1-0.2,0.3-0.4,0.4-0.6c-0.5-0.2-0.9-0.4-1.4-0.6
					c-0.9,6.1-3.8,11.6-4.8,17.6c-0.1,0.5,0.2,0.9,0.7,0.9c2.9,0,3.9-2.1,4.5-4.7c0.2-0.9-1.1-1.3-1.4-0.4c-0.1,0.2-0.1,0.4-0.2,0.5
					c-0.3,0.9,1.2,1.3,1.4,0.4c0.1-0.2,0.1-0.4,0.2-0.5c-0.5-0.1-1-0.3-1.4-0.4c-0.2,1.7-1.2,2.9-3.1,3.6c0.2,0.3,0.5,0.6,0.7,0.9
					c1-6,3.9-11.5,4.8-17.6c0.1-0.8-0.9-1.4-1.4-0.6c-0.1,0.2-0.3,0.4-0.4,0.6C-90.7-107.7-89.4-107-88.9-107.8L-88.9-107.8z"/>
			</g>
		</g>
		<g id="XMLID_168_">
			<g id="XMLID_275_">
				<path id="XMLID_279_" class="st8" d="M-90.4-109.7c0,0-0.1,0-0.1,0c-0.9-0.2-1.3,1.3-0.4,1.4c0,0,0.1,0,0.1,0
					C-89.9-108.1-89.5-109.6-90.4-109.7L-90.4-109.7z"/>
			</g>
		</g>
		<g id="XMLID_189_">
			<g id="XMLID_268_">
				<path id="XMLID_272_" class="st8" d="M-90.6-110c-0.1-0.1-0.3-0.2-0.4-0.3c-0.3-0.2-0.8,0-1,0.3c-0.2,0.4-0.1,0.8,0.3,1
					c0.1,0.1,0.3,0.2,0.4,0.3c0.3,0.2,0.8,0,1-0.3C-90.1-109.3-90.2-109.7-90.6-110L-90.6-110z"/>
			</g>
		</g>
		<g id="XMLID_224_">
			<g id="XMLID_261_">
				<path id="XMLID_265_" class="st8" d="M-86-113.2c-0.2,1.2-0.4,2.4-0.6,3.6c-0.1,0.9,1.3,1.4,1.4,0.4c0.2-1.2,0.4-2.4,0.6-3.6
					C-84.4-113.7-85.8-114.1-86-113.2L-86-113.2z"/>
			</g>
		</g>
		<g id="XMLID_231_">
			<g id="XMLID_257_">
				<path id="XMLID_308_" class="st8" d="M-90.7-114.1c-0.2,1.2-0.5,2.5-0.8,3.7c-0.2,0.9,1.2,1.3,1.4,0.4c0.3-1.2,0.6-2.4,0.8-3.7
					C-89.1-114.7-90.5-115.1-90.7-114.1L-90.7-114.1z"/>
			</g>
		</g>
		<g id="XMLID_238_">
			<g id="XMLID_328_">
				<path id="XMLID_398_" class="st8" d="M-85-112.6c5.8-0.4,10.3-7.6,11.1-12.9c0.8-5.5-2.6-14.2-8.3-15.9
					c-5.9-1.8-11.9,3-14.1,8.2c-1.3,3.2-1.5,6.7-0.6,10c0.5,1.6,1.2,3.2,2.3,4.6c1.1,1.5,3.6,2.9,3.9,4.8c0.2,0.9,1.6,0.5,1.4-0.4
					c-0.6-3.4-4.7-5.1-6-8.7c-2.2-6.2,0.7-14.1,7.1-16.5c7.7-2.9,12.7,5.6,12.7,12.3c0,4.9-4,12.7-9.5,13
					C-85.9-114-86-112.5-85-112.6L-85-112.6z"/>
			</g>
		</g>
		<g id="XMLID_364_">
			<g id="XMLID_478_">
				<path id="XMLID_482_" class="st8" d="M-49.9-127.1c0.7,1,1.2,2.1,1.4,3.3c0.2,0.9,1.6,0.5,1.4-0.4c-0.3-1.3-0.8-2.6-1.6-3.7
					C-49.2-128.6-50.5-127.8-49.9-127.1L-49.9-127.1z"/>
			</g>
		</g>
		<g id="XMLID_371_">
			<g id="XMLID_467_">
				<path id="XMLID_473_" class="st8" d="M-47.9-124.1c-5.5,1.8-11,3.7-16.4,5.5c-0.9,0.3-0.5,1.8,0.4,1.4c5.5-1.8,11-3.7,16.4-5.5
					C-46.6-122.9-47-124.4-47.9-124.1L-47.9-124.1z"/>
			</g>
		</g>
		<g id="XMLID_378_">
			<g id="XMLID_459_">
				<path id="XMLID_465_" class="st8" d="M-50-128.1c-6.4,3.1-13.3,3.8-19.6,7c-0.9,0.4-0.1,1.7,0.8,1.3c6.3-3.2,13.3-3.9,19.6-7
					C-48.4-127.2-49.1-128.5-50-128.1L-50-128.1z"/>
			</g>
		</g>
		<g id="XMLID_385_">
			<g id="XMLID_451_">
				<path id="XMLID_457_" class="st8" d="M-65.7-118.6c-1-0.5-2.1-1-3.2-1.4c-0.9-0.3-1.3,1.1-0.4,1.4c1,0.4,1.9,0.8,2.9,1.2
					C-65.6-116.9-64.9-118.2-65.7-118.6L-65.7-118.6z"/>
			</g>
		</g>
		<g id="XMLID_392_">
			<g id="XMLID_444_">
				<path id="XMLID_449_" class="st8" d="M-65.9-117.4c-1-0.3-2-0.7-3-1.1c-0.9-0.4-1.6,0.9-0.8,1.3c1.1,0.5,2.2,0.9,3.4,1.3
					C-65.4-115.7-65-117.1-65.9-117.4L-65.9-117.4z"/>
			</g>
		</g>
		<g id="XMLID_399_">
			<g id="XMLID_438_">
				<path id="XMLID_442_" class="st8" d="M-66.6-115.9c-0.9-0.4-1.8-0.8-2.6-1.2c-0.9-0.4-1.6,0.9-0.8,1.3c1,0.5,2,0.9,3,1.3
					c0.4,0.2,0.8-0.2,0.9-0.5C-66-115.4-66.3-115.8-66.6-115.9L-66.6-115.9z"/>
			</g>
		</g>
		<g id="XMLID_225_">
			<g id="XMLID_431_">
				<path id="XMLID_436_" class="st8" d="M-65.7-117.3c-3.4,13.5-4.8,27.4-8.9,40.7c-0.3,0.9,1.2,1.3,1.4,0.4
					c4.1-13.3,5.5-27.2,8.9-40.7C-64-117.8-65.4-118.2-65.7-117.3L-65.7-117.3z"/>
			</g>
		</g>
		<g id="XMLID_232_">
			<g id="XMLID_424_">
				<path id="XMLID_429_" class="st8" d="M-70-119.1c-2.8,13.6-5.6,27.3-8.3,40.9c-0.2,0.9,1.3,1.3,1.4,0.4
					c2.8-13.6,5.5-27.3,8.3-40.9C-68.3-119.6-69.8-120-70-119.1L-70-119.1z"/>
			</g>
		</g>
		<g id="XMLID_420_">
			<g id="XMLID_422_">
				<path id="XMLID_474_" class="st8" d="M-74.3-77.9c-1.1,0-2.1-0.3-3-1c-0.7-0.6-1.8,0.4-1.1,1.1c1.1,1,2.5,1.6,4,1.5
					C-73.4-76.4-73.4-77.9-74.3-77.9L-74.3-77.9z"/>
			</g>
		</g>
		<g id="XMLID_294_">
			<g id="XMLID_469_">
				<path id="XMLID_477_" class="st8" d="M-103.7-106.9c-1.6,0.4-3.1,0.7-4.7,0.8c-1,0.1-1,1.6,0,1.5c1.7-0.2,3.4-0.4,5.1-0.9
					C-102.4-105.7-102.8-107.1-103.7-106.9L-103.7-106.9z"/>
			</g>
		</g>
		<g id="XMLID_288_">
			<g id="XMLID_448_">
				<path id="XMLID_462_" class="st8" d="M-103.3-105.2c0.9,0,3.3,18.7,3.7,20.6c0.5,3.2,1,6.4,1.5,9.6c0.4,2.4,0.2,6.2,1.5,8.3
					c0.3,0.5,1,0.4,1.3,0c0,0,0.1-0.1,0.1-0.1c0.2-0.2,0.1-0.7-0.1-0.9c0,0-0.1-0.1-0.1-0.1c-0.7-0.6-1.8,0.5-1.1,1.1
					c0-0.2-0.1-0.5-0.1-0.7c0.4,0,0.9,0,1.3,0c-1.4-2.1-1.2-7.4-1.6-9.8c-0.5-3.2-1-6.4-1.6-9.6c-1.1-6.4-2.2-12.8-3.4-19.2
					c-0.1-0.3-0.4-0.5-0.7-0.6c-0.2,0-0.4,0-0.7,0C-104.3-106.7-104.3-105.2-103.3-105.2L-103.3-105.2z"/>
			</g>
		</g>
		<g id="XMLID_287_">
			<g id="XMLID_417_">
				<path id="XMLID_434_" class="st8" d="M-108.4-104.9c-0.7,1.1-0.8,2.3-0.3,3.4c0.2,0.9,0.5,1.8,0.7,2.7c0.4,1.5,0.7,3.1,1.1,4.6
					c0.8,3.4,1.5,6.8,2.2,10.1c1.3,6,2.3,12.3,4.9,17.9c0.1,0.3,0.5,0.4,0.8,0.3c1.2-0.1,2.4-0.3,3.5-0.8c0.4-0.1,0.6-0.5,0.5-0.9
					c-0.8-3.3-1.6-6.7-2.4-10c-0.2-0.9-1.7-0.5-1.4,0.4c0.5,2.2,1.4,4.5,1.6,6.7c0.2,2,0.2,5.5-2.5,0.6c-1.9-3.4-2.3-8.9-3.1-12.7
					c-1-4.3-1.8-8.6-2.8-12.9c-0.7-2.8-0.9-7.3-2.7-9.6c-0.3-0.4-0.8-0.5-1.2-0.2c0,0-0.1,0.1-0.1,0.1c-0.2,0.2-0.3,0.6-0.1,0.9
					c0,0,0.1,0.1,0.1,0.1C-109.2-103.3-107.9-104-108.4-104.9L-108.4-104.9z"/>
			</g>
		</g>
		<g id="XMLID_280_">
			<g id="XMLID_409_">
				<path id="XMLID_415_" class="st8" d="M-101.8-83.6c0.7,3.9,1.5,7.7,2.4,11.6c0.2,0.9,1.6,0.5,1.4-0.4c-0.7-3.5-1.7-7-3-10.3
					c-0.3-0.8-1.4-0.6-1.5,0.2c-0.5,4,0.6,7.2,2.1,10.8c0.4,0.9,1.8,0.5,1.4-0.4c-0.9-2.2-1.5-4.3-1.9-6.6c-0.1-0.8-1.5-0.6-1.5,0.2
					c0.2,3.1-0.2,8.2,3,9.8c0.5,0.3,1.1-0.1,1.1-0.6c0.1-1.5-0.1-2.6-0.6-4c-0.3-0.8-1.4-0.7-1.5,0.2c-0.1,2,0.1,3.4,0.7,5.3
					c0.2,0.6,1.3,0.8,1.4,0c0.4-2.3,0.4-1.5,0.2-3.8c-0.5,0.1-1,0.1-1.5,0.2c0.2,0.9,0.4,1.9,0.6,2.8c0.2,0.8,1.4,0.6,1.5-0.2
					c0.1-3.7-1-7.2-1.6-10.8c-0.7-4.2-1.1-8.4-2-12.5c-0.7-3.3-1.6-6.6-3.1-9.7c-1.3-2.8,0.3,1.6,0.5,2.4c0.5,2.4,0.9,4.9,1.3,7.3
					c0.5-0.1,1-0.3,1.4-0.4c-1.1-3-1.5-11.4-5.8-12.2c-3.5-0.7-2,3.3-1.9,5.1c0.5-0.1,1-0.1,1.5-0.2c-0.2-1.1-0.3-2.1-0.5-3.2
					c-0.5,0.2-0.9,0.4-1.4,0.6c2.3,3.2,2.6,8.2,3.6,12c0.9,3.4,2,6.5,3.6,9.6c0.4,0.7,1.6,0.2,1.4-0.6c-1.2-3.4-2.3-6.8-3.2-10.2
					c-0.7-2.6-3.2-10.2-0.7-12.3c-0.4-0.2-0.9-0.4-1.3-0.5c0.1,2.2,0.1,4.4-0.2,6.6c0.5-0.1,1-0.1,1.5-0.2c-0.6-1.7-1.3-3.3-1.9-5
					c-0.3-0.9-1.6-0.6-1.4,0.4c1.4,6.6,1.9,14.5,4.5,20.7c0.3,0.7,1.4,0.3,1.4-0.4c0.1-6-0.8-11.7-2.7-17.4
					c-0.3-0.9-1.7-0.5-1.4,0.4c2.5,10.6,4.8,21.3,7.1,32c0.2,0.9,1.6,0.5,1.4-0.4c-2.3-10.7-4.6-21.3-7.1-32c-0.5,0.1-1,0.3-1.4,0.4
					c1.9,5.5,2.8,11.1,2.7,17c0.5-0.1,0.9-0.3,1.4-0.4c-2.6-6-3.1-13.9-4.4-20.4c-0.5,0.1-1,0.3-1.4,0.4c0.6,1.7,1.3,3.3,1.9,5
					c0.3,0.8,1.4,0.7,1.5-0.2c0.2-2.2,0.3-4.3,0.2-6.6c0-0.7-0.8-0.9-1.3-0.5c-2.1,1.8-1.2,5.2-0.9,7.6c0.8,5.6,2.6,11,4.4,16.4
					c0.5-0.2,0.9-0.4,1.4-0.6c-2.1-4-3.2-8.2-4.3-12.6c-0.7-3-1.1-6.5-2.9-9.1c-0.5-0.7-1.5-0.3-1.4,0.6c0.2,1.1,0.3,2.1,0.5,3.2
					c0.1,0.8,1.5,0.6,1.5-0.2c0-0.3-0.2-1.1-0.1-1.4c1.5-2.9,2.4,0,3.1,2.1c0.7,2.2,1,4.5,1.8,6.7c0.3,0.9,1.6,0.6,1.4-0.4
					c-0.7-4.3-1.5-8.5-2.4-12.7c-0.1-0.3-0.4-0.5-0.7-0.6c-5.2-0.3,0.2,8.4,0.6,10c1.1,3.8,1.6,7.7,2.2,11.5
					c0.7,5,2.4,10.4,2.3,15.5c0.5-0.1,1-0.1,1.5-0.2c-0.2-0.9-0.4-1.9-0.6-2.8c-0.2-0.8-1.5-0.7-1.5,0.2c-0.1,1.1-0.1,2.3-0.2,3.4
					c0.5,0,1,0,1.4,0c-0.7-1.6-0.9-3.2-0.7-4.9c-0.5,0.1-1,0.1-1.5,0.2c0.6,1.1,0.7,2.3,0.5,3.6c0.4-0.2,0.8-0.4,1.1-0.6
					c-2.6-1.3-2.1-6.1-2.2-8.5c-0.5,0.1-1,0.1-1.5,0.2c0.4,2.3,1,4.4,1.9,6.6c0.5-0.1,1-0.3,1.4-0.4c-1.4-3.4-2.5-6.7-2-10.4
					c-0.5,0.1-1,0.1-1.5,0.2c1.3,3.4,2.3,6.8,3,10.3c0.5-0.1,1-0.3,1.4-0.4c-0.9-3.8-1.7-7.7-2.4-11.6
					C-100.5-84.9-101.9-84.5-101.8-83.6L-101.8-83.6z"/>
			</g>
		</g>
		<g id="XMLID_273_">
			<g id="XMLID_401_">
				<path id="XMLID_405_" class="st8" d="M-105.5-103.4c0-0.2,0.1-0.5,0.1-0.7c-0.5,0-1,0-1.4,0c1.3,6,0.7,12.1,1.9,18.1
					c0.1,0.4,0.6,0.6,0.9,0.5c2.9-0.9,3-3.6,2.6-6.2c-0.1-0.8-1.5-0.6-1.5,0.2c0,0.2,0,0.4,0,0.6c0.1,1,1.6,1,1.5,0
					c0-0.2,0-0.4,0-0.6c-0.5,0.1-1,0.1-1.5,0.2c0.6,1.7,0.1,3.2-1.5,4.3c0.3,0.2,0.6,0.3,0.9,0.5c-1.2-6-0.6-12.2-1.9-18.1
					c-0.2-0.7-1.3-0.7-1.4,0c0,0.2-0.1,0.5-0.1,0.7C-107.1-102.8-105.7-102.4-105.5-103.4L-105.5-103.4z"/>
			</g>
		</g>
		<g id="XMLID_266_">
			<g id="XMLID_391_">
				<path id="XMLID_397_" class="st8" d="M-107.8-104.7c0,0-0.1,0-0.1,0c-0.9,0.2-0.5,1.6,0.4,1.4c0,0,0.1,0,0.1,0
					C-106.4-103.4-106.8-104.8-107.8-104.7L-107.8-104.7z"/>
			</g>
		</g>
		<g id="XMLID_259_">
			<g id="XMLID_383_">
				<path id="XMLID_389_" class="st8" d="M-107.8-104.8c-0.2-0.1-0.4-0.1-0.5-0.2c-0.9-0.3-1.3,1.2-0.4,1.4c0.2,0.1,0.4,0.1,0.5,0.2
					C-107.3-103.1-106.9-104.6-107.8-104.8L-107.8-104.8z"/>
			</g>
		</g>
		<g id="XMLID_252_">
			<g id="XMLID_375_">
				<path id="XMLID_381_" class="st8" d="M-104.7-109.4c0.3,1.2,0.5,2.4,0.8,3.6c0.2,0.9,1.7,0.5,1.4-0.4c-0.3-1.2-0.5-2.4-0.8-3.6
					C-103.5-110.7-104.9-110.3-104.7-109.4L-104.7-109.4z"/>
			</g>
		</g>
		<g id="XMLID_245_">
			<g id="XMLID_368_">
				<path id="XMLID_373_" class="st8" d="M-109.5-108.6c0.2,1.2,0.4,2.3,0.6,3.5c0.1,0.9,1.6,1,1.5,0c-0.1-1.3-0.4-2.6-0.6-3.9
					C-108.2-109.9-109.7-109.5-109.5-108.6L-109.5-108.6z"/>
			</g>
		</g>
		<g id="XMLID_295_">
			<g id="XMLID_361_">
				<path id="XMLID_366_" class="st8" d="M-101.5-130.6c0-0.2-0.1-0.4-0.1-0.7c-0.2-0.9-1.6-0.5-1.4,0.4c0.8,4.6,4.1,14.3,0.4,18.2
					c-1.2,1.3-3,1.4-2,3.6c0.4,0.9,1.8,0.5,1.4-0.4c-0.4-0.9,2.4-2.4,3-3.4c0.8-1.2,0.6-2.6,0.6-4c-0.2-4.9-1.1-9.7-2-14.5
					c-0.5,0.1-1,0.3-1.4,0.4c0,0.2,0.1,0.4,0.1,0.7C-102.8-129.2-101.4-129.6-101.5-130.6L-101.5-130.6z"/>
			</g>
		</g>
		<g id="XMLID_301_">
			<g id="XMLID_355_">
				<path id="XMLID_359_" class="st8" d="M-102.1-131.6c-0.5-1.4-0.9-2.8-1.4-4.2c-0.1-0.3-0.4-0.6-0.7-0.6c-0.8,0.1-1,0.1-1.6,0.3
					c-0.3,0.1-0.5,0.4-0.6,0.7c-0.2,2,0.7,4.7,1.1,6.7c0.3,1.4,2.3,8.3,0.3,8.5c-1,0.1-1,1.6,0,1.5c3.2-0.2,2.8-1.5,2.3-4.3
					c-0.4-2.4-0.9-4.8-1.3-7.2c-0.1-0.7-0.9-2.9-0.7-3.6c0.1-0.9,0.3-0.7,0.5,0.5c0.2,0.7,0.5,1.4,0.7,2.1
					C-103.2-130.3-101.8-130.7-102.1-131.6L-102.1-131.6z"/>
			</g>
		</g>
		<g id="XMLID_302_">
			<g id="XMLID_348_">
				<path id="XMLID_353_" class="st8" d="M-110-134.5c1.2,4.1,1.6,8.3,2.4,12.4c0.2,1.2,0.4,4,2.2,3.7c1-0.1,0.5-1.6-0.4-1.4
					c0.6-0.1-2.5-14.2-2.7-15.1C-108.8-135.9-110.3-135.5-110-134.5L-110-134.5z"/>
			</g>
		</g>
		<g id="XMLID_303_">
			<g id="XMLID_342_">
				<path id="XMLID_346_" class="st8" d="M-110.3-135.4c-3.3,0.8-2.9,1.2-2.2,4.6c0.9,4.1,1.5,8.2,3.3,12c0.4,0.9,1.7,0.1,1.3-0.8
					c-1.2-2.5-1.8-5.1-2.4-7.9c-0.4-2-2.3-5.9,0.3-6.5C-109-134.1-109.4-135.6-110.3-135.4L-110.3-135.4z"/>
			</g>
		</g>
		<g id="XMLID_304_">
			<g id="XMLID_335_">
				<path id="XMLID_339_" class="st8" d="M-109-120c-0.9,0.3-1.7,0.5-2.7,0.6c-1,0.1-1,1.6,0,1.5c1-0.1,2.1-0.3,3.1-0.7
					C-107.7-118.9-108.1-120.3-109-120L-109-120z"/>
			</g>
		</g>
		<g id="XMLID_305_">
			<g id="XMLID_327_">
				<path id="XMLID_332_" class="st8" d="M-116.1-133.1c1.1,4,1.5,7.9,2.3,12c0.2,1.1,0.8,3.1,2.3,3c0.6-0.1,0.9-0.6,0.6-1.1
					c0,0,0-0.1,0-0.1c-0.2-0.4-0.7-0.4-1-0.3c0,0,0,0-0.1,0c-0.9,0.4-0.1,1.7,0.8,1.3c0,0,0,0,0.1,0c-0.3-0.1-0.7-0.2-1-0.3
					c0,0,0,0.1,0,0.1c0.2-0.4,0.4-0.8,0.6-1.1c-0.6,0.1-2.8-12.8-3.1-13.8C-114.9-134.4-116.4-134-116.1-133.1L-116.1-133.1z"/>
			</g>
		</g>
		<g id="XMLID_340_">
			<g id="XMLID_315_">
				<path id="XMLID_319_" class="st8" d="M-115.4-133.8c-0.9,0.2-1.9,0.3-2.8,0.5c-0.9,0.2-0.5,1.6,0.4,1.4c0.9-0.2,1.9-0.3,2.8-0.5
					C-114.1-132.6-114.5-134-115.4-133.8L-115.4-133.8z"/>
			</g>
		</g>
		<g id="XMLID_352_">
			<g id="XMLID_313_">
				<path id="XMLID_443_" class="st8" d="M-118.9-132.2c1.5,6.8,2,20.7,9.9,23.7c0.9,0.3,1.3-1.1,0.4-1.4
					c-6.9-2.6-7.5-16.6-8.9-22.6C-117.7-133.5-119.1-133.1-118.9-132.2L-118.9-132.2z"/>
			</g>
		</g>
	</g>
</g>
</svg>
