<?xml version="1.0" encoding="utf-8"?>
<!-- Generator: Adobe Illustrator 19.0.0, SVG Export Plug-In . SVG Version: 6.00 Build 0)  -->
<svg version="1.1" xmlns="http://www.w3.org/2000/svg" xmlns:xlink="http://www.w3.org/1999/xlink" x="0px" y="0px"
	 viewBox="0 0 92.5 97" style="enable-background:new 0 0 92.5 97;" xml:space="preserve">
<style type="text/css">
	.st0{fill:none;stroke:#000000;stroke-miterlimit:10;}
	.st1{fill:#EF6E6C;}
	.st2{fill:#D6C9C9;}
	.st3{fill:#30102E;}
	.st4{fill:#581B56;}
	.st5{fill:#7CB2D9;}
	.st6{fill:#7FB686;}
	.st7{fill:#98D09A;}
	.st8{fill:#DDAE7E;}
</style>
<g id="spoon">
	<g id="XMLID_1_">
		<g id="XMLID_13_">
			<path id="XMLID_17_" class="st0" d="M107.3,83.3"/>
		</g>
	</g>
	<g id="XMLID_5_">
		<g id="XMLID_23_">
			<path id="XMLID_27_" class="st1" d="M109.4,90c-0.2,0-0.4,0-0.7,0c-1-0.1-0.9,1.4,0,1.5c3.3,0.4,6.6,0.9,9.9,1.3
				c1,0.1,0.9-1.4,0-1.5c-3.3-0.4-6.6-0.9-9.9-1.3c0,0.5,0,1,0,1.5c0.2,0,0.4,0,0.7,0C110.4,91.5,110.4,90,109.4,90L109.4,90z"/>
		</g>
	</g>
	<g id="XMLID_6_">
		<g id="XMLID_30_">
			<path id="XMLID_34_" class="st1" d="M117.5,92.6c0,0.2,0.1,0.4,0.1,0.6c0.2-0.2,0.5-0.5,0.8-0.8c-1.3,0.1-2.6,0.3-3.9,0.6
				c-0.6,0.1-0.7,1.1-0.2,1.4c1,0.5,2,1.1,2.8,1.9c0-0.4,0-0.7,0-1.1c-1,1.1-1.9,0.6-2.4,2c-0.1,0.2,0,0.6,0.2,0.7
				c1.2,1.2-0.8,0.8-1.2,1.9c-0.4,1,1.9,3.5,1.3,3.8c-0.5,0.3-0.5,1,0,1.3c2,1.1-0.8,1.9-1.1,2.7c-0.5,1.2,0.7,2.1,1.1,3.1
				c0.4,0.9,1.8,0.5,1.4-0.4c-0.5-1.1-1-1.5-0.3-2.4c0.3-0.4,1.1-0.4,1.4-0.9c0.9-1.5-0.6-2.7-1.8-3.4c0,0.4,0,0.9,0,1.3
				c1-0.5,1.6-1.3,1.3-2.5c-0.1-0.5-0.6-0.8-0.7-1.2c-0.5-1.8-0.3-0.1,0.3-1.2c0.5-1.1,0.6-0.6,0.9-1.8c0.1-0.3-0.8-0.7-0.7-0.8
				c-0.1,0.3,1.6-1.2,1.5-1.1c0.2-0.3,0.3-0.8,0-1.1c-1-0.8-2-1.5-3.2-2.1c-0.1,0.5-0.1,0.9-0.2,1.4c1.1-0.2,2.3-0.4,3.5-0.5
				c0.4,0,0.7-0.3,0.8-0.8c0.1-0.7,0-0.8-0.3-1.3C118.3,91,117,91.8,117.5,92.6L117.5,92.6z"/>
		</g>
	</g>
	<g id="XMLID_7_">
		<g id="XMLID_37_">
			<path id="XMLID_41_" class="st1" d="M114.9,110.2c-3-0.1-6-0.3-9-0.7c-1-0.1-0.9,1.4,0,1.5c3,0.4,6,0.6,9,0.7
				C115.9,111.8,115.9,110.3,114.9,110.2L114.9,110.2z"/>
		</g>
	</g>
	<g id="XMLID_9_">
		<g id="XMLID_44_">
			<path id="XMLID_48_" class="st1" d="M107.4,88.6c-1.8,5.3-2.5,10.8-3,16.4c-0.6,6.1-2.2,12-2.9,18.1c-0.8,6.2-0.9,12.3-1.9,18.4
				c-1,6-1.9,11.9-1.9,18.1c0,1,1.5,1,1.5,0c-0.1-6.6,1.1-13,2.1-19.4c0.8-5.2,1-10.3,1.5-15.5c0.5-5.4,2.2-10.7,2.7-16.1
				c0.7-6.6,1.2-13.2,3.3-19.5C109.2,88,107.8,87.6,107.4,88.6L107.4,88.6z"/>
		</g>
	</g>
	<g id="XMLID_10_">
		<g id="XMLID_51_">
			<path id="XMLID_55_" class="st1" d="M108.2,88.4c0.1-0.8-0.6-1.3-1.3-1.5c-1.2-0.3-2.4-0.4-3.6-0.6c-0.9-0.2-1.3,1.3-0.4,1.4
				c0.7,0.1,1.5,0.3,2.2,0.4c0.3,0.1,0.6,0.1,1,0.2c0.2,0,0.3,0.1,0.5,0.1c0.2,0.1,0.2,0.1,0.1,0C106.6,89.3,108.1,89.3,108.2,88.4
				L108.2,88.4z"/>
		</g>
	</g>
	<g id="XMLID_11_">
		<g id="XMLID_58_">
			<path id="XMLID_62_" class="st1" d="M102.4,86.8c-1.5,2.4-1.8,4.8-2,7.6c-0.3,4.7-1.5,9-2.2,13.7c-1.1,7.3-2.4,14.5-2.5,21.9
				c-0.1,8.5-3.1,16.8-3.8,25.2c-0.4,4.3,2.4,5.4,6.5,5.1c1-0.1,1-1.6,0-1.5c-1.4,0.5-2.5,0.1-3.4-1.1c-1.6-0.4-2.1-1.3-1.5-2.6
				c-0.2-1.4,0.6-3.4,0.8-4.9c0.5-3,1-5.9,1.5-8.9c1-6,0.8-11.8,1.6-17.8c0.3-2.6,1.3-5.1,1.7-7.7c0.5-3.4,0.4-6.7,1.1-10
				c0.5-2.5,1.2-4.9,1.5-7.4c0.4-3.8-0.1-7.4,2-10.8C104.2,86.8,102.9,86,102.4,86.8L102.4,86.8z"/>
		</g>
	</g>
	<g id="XMLID_12_">
		<g id="XMLID_65_">
			<path id="XMLID_69_" class="st1" d="M110.9,94.5c-0.1-0.1-0.1-0.1-0.2-0.2c-0.7-0.7-1.7,0.4-1.1,1.1c0.1,0.1,0.1,0.1,0.2,0.2
				C110.6,96.3,111.6,95.2,110.9,94.5L110.9,94.5z"/>
		</g>
	</g>
	<g id="XMLID_19_">
		<g id="XMLID_72_">
			<path id="XMLID_76_" class="st1" d="M110.2,95.5c1,0,1-1.5,0-1.5C109.3,94,109.3,95.5,110.2,95.5L110.2,95.5z"/>
		</g>
	</g>
	<g id="XMLID_21_">
		<g id="XMLID_79_">
			<path id="XMLID_83_" class="st1" d="M111.2,93.6c-1.4,0-2.8,0-4.2,0c-1,0-1,1.5,0,1.5c1.4,0,2.8,0,4.2,0
				C112.2,95.1,112.2,93.6,111.2,93.6L111.2,93.6z"/>
		</g>
	</g>
	<g id="XMLID_28_">
		<g id="XMLID_86_">
			<path id="XMLID_90_" class="st1" d="M112.9,96.3c-1.7-0.2-3.3-0.2-5-0.1c-1,0.1-1,1.6,0,1.5c1.7-0.2,3.3-0.1,5,0.1
				C113.9,97.9,113.9,96.4,112.9,96.3L112.9,96.3z"/>
		</g>
	</g>
	<g id="XMLID_35_">
		<g id="XMLID_93_">
			<path id="XMLID_97_" class="st1" d="M109.2,98.3c-1.1,0.1-2.2,0-3.3-0.1c-0.9-0.2-1.4,1.3-0.4,1.4c1.2,0.2,2.5,0.3,3.7,0.2
				C110.2,99.7,110.2,98.2,109.2,98.3L109.2,98.3z"/>
		</g>
	</g>
	<g id="XMLID_42_">
		<g id="XMLID_100_">
			<path id="XMLID_104_" class="st1" d="M111.6,100.6c-1.9-0.1-3.8-0.1-5.7-0.2c-1,0-1,1.5,0,1.5c1.9,0.1,3.8,0.1,5.7,0.2
				C112.5,102.2,112.5,100.7,111.6,100.6L111.6,100.6z"/>
		</g>
	</g>
	<g id="XMLID_49_">
		<g id="XMLID_107_">
			<path id="XMLID_111_" class="st1" d="M111.1,102.8c-1.7,0.2-3.4,0.2-5.2,0.2c-1,0-1,1.5,0,1.5c1.7,0.1,3.4,0,5.2-0.2
				C112,104.2,112,102.7,111.1,102.8L111.1,102.8z"/>
		</g>
	</g>
	<g id="XMLID_56_">
		<g id="XMLID_114_">
			<path id="XMLID_118_" class="st1" d="M109.4,105.5c-1.3,0-2.7,0-4,0c-1,0-1,1.5,0,1.5c1.3,0,2.7,0,4,0
				C110.4,107,110.4,105.5,109.4,105.5L109.4,105.5z"/>
		</g>
	</g>
	<g id="XMLID_63_">
		<g id="XMLID_121_">
			<path id="XMLID_125_" class="st1" d="M111.1,107.6c-2.1,0-4.1,0-6.2,0c-1,0-1,1.5,0,1.5c2.1,0,4.1,0,6.2,0
				C112,109.1,112,107.6,111.1,107.6L111.1,107.6z"/>
		</g>
	</g>
</g>
<g id="toilet_tissues">
	<g id="XMLID_113_">
		<g id="XMLID_919_">
			<path id="XMLID_923_" class="st2" d="M16.3,187.5c3.3,0.1,6.4,0.9,9.5,2c1.7,0.6,3.4,1.3,5,2.1c1.1,0.5,2.1,1.2,3,2
				c0.2,1.8,0.5,3.6,0.7,5.4c-0.9,2.2-8.1,3.2-10.3,3.6c-3.5,0.6-7.1,0.8-10.7,0.7c-3.6-0.1-7.2-0.5-10.7-1.1
				c-1.1-0.2-2.6-0.2-3.6-0.7c-1.8,0-2.5-1.2-2.1-3.4c-1.5-1.9-1.4-3.2,0.3-4c1.9-2.4,6.6-3.9,9.4-4.9c3.5-1.2,7-1.8,10.7-2
				c1-0.1,1-1.6,0-1.5c-5,0.3-9.9,1.3-14.5,3.4c-3.2,1.4-8.6,3.8-9.5,7.7c-1.9,8.3,15.2,8,20,8.1c5.5,0.2,11.1-0.4,16.4-1.9
				c2.7-0.8,6.7-2.1,7.1-5.5c1-8-15.4-11.2-20.7-11.5C15.4,186,15.4,187.5,16.3,187.5L16.3,187.5z"/>
		</g>
	</g>
	<g id="XMLID_120_">
		<g id="XMLID_926_">
			<path id="XMLID_930_" class="st2" d="M36,197.3c-0.3,17.7,0.4,35.3,2.2,52.8c0.1,1,1.6,1,1.5,0c-1.8-17.6-2.5-35.2-2.2-52.8
				C37.5,196.4,36,196.4,36,197.3L36,197.3z"/>
		</g>
	</g>
	<g id="XMLID_127_">
		<g id="XMLID_933_">
			<path id="XMLID_937_" class="st2" d="M-6.7,199.2c1.2,9,0.2,18.1,0.9,27.1c0.6,8.4,2.7,16.6,3.1,25c0.1,1,1.6,1,1.5,0
				c-0.4-8.4-2.5-16.6-3.1-25c-0.7-9,0.2-18.1-0.9-27.1C-5.3,198.2-6.8,198.2-6.7,199.2L-6.7,199.2z"/>
		</g>
	</g>
	<g id="XMLID_128_">
		<g id="XMLID_940_">
			<path id="XMLID_944_" class="st2" d="M37.5,250.7c-1.2,2.6-7.4,3.6-9.9,4.1c-3.5,0.7-7,1-10.5,0.9c-7.1-0.2-14-2-20.4-5.1
				c-0.9-0.4-1.6,0.9-0.8,1.3c7.4,3.6,15.4,5.5,23.6,5.3c3.9-0.1,7.9-0.7,11.7-1.7c2.6-0.7,6.4-1.3,7.6-4
				C39.2,250.6,37.9,249.8,37.5,250.7L37.5,250.7z"/>
		</g>
	</g>
	<g id="XMLID_129_">
		<g id="XMLID_947_">
			<path id="XMLID_951_" class="st2" d="M14.3,193.3c1.4,0,3.8,0,5,0.8c0.9,0.1,1,0.8,0.4,2c-0.3,0-0.6,0.1-0.9,0.1
				c-0.7,0.2-1.8,0.1-2.6,0.1c-0.8,0-3.8,0.3-4.3-0.3c-2.2-2.5,4-2.7,4.5-2.8c1-0.1,1-1.6,0-1.5c-2.1,0.1-7,0.4-7,3.5
				c0.1,3,4.8,2.6,6.7,2.6c1.7,0,6.9,0.3,6.5-2.8c-0.4-2.9-6.4-3.1-8.5-3.2C13.4,191.7,13.4,193.2,14.3,193.3L14.3,193.3z"/>
		</g>
	</g>
	<g id="XMLID_130_">
		<g id="XMLID_954_">
			<path id="XMLID_958_" class="st2" d="M39.5,172.4c4.5-0.9,9.1-0.8,13.4,0.9c3,0.5,4.2,2.5,3.5,5.9c-1.5,0.7-3,1.2-4.6,1.3
				c-2.3,0.4-4.7,0.5-7.1,0.6c-1.9,0-3.8,0-5.8-0.1c-2-0.1-7,0.3-8.4-1.1c-0.7-2.1-1.4-4.1-2.1-6.2c1.5-0.6,3-1.1,4.5-1.5
				c2.9-0.7,5.8-0.7,8.7-0.5c1,0.1,1-1.4,0-1.5c-3.8-0.2-16.7-0.3-16.7,5.9c-0.1,7.8,16.4,6.5,20.7,6.3c3-0.1,16.8-0.7,13.7-6.8
				c-1.3-2.6-5.8-3.9-8.3-4.6c-4-1.1-8-1-12-0.2C38.2,171.2,38.6,172.6,39.5,172.4L39.5,172.4z"/>
		</g>
	</g>
	<g id="XMLID_741_">
		<g id="XMLID_961_">
			<path id="XMLID_965_" class="st2" d="M43.2,176.1c0.7,0,3.6-0.1,2.8,1.1c-0.5,0.7-3.7,0.5-4.5,0.4c-0.7,0-1.7,0-2.3-0.3
				c-0.6-0.3-1.1-0.2-0.5-0.7C39.4,175.8,42.1,176,43.2,176.1c1,0.1,1-1.4,0-1.5c-1.6-0.1-6.7-0.4-7,2.1c-0.3,2.3,4.2,2.4,5.6,2.4
				c1.6,0.1,5.9,0.1,6.3-2.1c0.4-2.3-3.5-2.5-4.9-2.5C42.2,174.6,42.2,176.1,43.2,176.1L43.2,176.1z"/>
		</g>
	</g>
	<g id="XMLID_755_">
		<g id="XMLID_968_">
			<path id="XMLID_972_" class="st2" d="M58.8,178c-0.2,18.4-0.1,36.9,0.4,55.3c0,1,1.5,1,1.5,0c-0.5-18.4-0.6-36.9-0.4-55.3
				C60.3,177,58.8,177,58.8,178L58.8,178z"/>
		</g>
	</g>
	<g id="XMLID_917_">
		<g id="XMLID_975_">
			<path id="XMLID_979_" class="st2" d="M59.8,232.9c-3,0.9-6,1.6-9,2.1c-3.2,0.5-9.3,1.8-12.2-0.2c-0.8-0.5-1.6,0.8-0.8,1.3
				c2.8,1.9,6.9,1.1,10.1,0.8c4.2-0.4,8.3-1.3,12.3-2.5C61.2,234.1,60.8,232.6,59.8,232.9L59.8,232.9z"/>
		</g>
	</g>
	<g id="XMLID_924_">
		<g id="XMLID_982_">
			<path id="XMLID_986_" class="st2" d="M24.7,177.2c0.2,3.8,0.4,7.6,0.4,11.3c0,1,1.5,1,1.5,0c-0.1-3.8-0.2-7.6-0.4-11.3
				C26.1,176.2,24.6,176.2,24.7,177.2L24.7,177.2z"/>
		</g>
	</g>
	<g id="XMLID_931_">
		<g id="XMLID_989_">
			<path id="XMLID_993_" class="st2" d="M34.1,213.3c-1.3,0.3-2.7,0.4-4.1,0.3c-0.5,0-0.5,0.7,0,0.8c1.4,0.1,2.9,0,4.3-0.3
				C34.7,213.9,34.5,213.2,34.1,213.3L34.1,213.3z"/>
		</g>
	</g>
	<g id="XMLID_938_">
		<g id="XMLID_996_">
			<path id="XMLID_1000_" class="st2" d="M30.7,218.5c-0.8,0.1-1.6,0.1-2.3,0.2c-0.5,0-0.5,0.8,0,0.8c0.8-0.1,1.6-0.1,2.3-0.2
				C31.1,219.2,31.1,218.4,30.7,218.5L30.7,218.5z"/>
		</g>
	</g>
	<g id="XMLID_945_">
		<g id="XMLID_1003_">
			<path id="XMLID_1007_" class="st2" d="M13.8,212.1c-0.8,0-1.6,0-2.3,0c-0.5,0-0.5,0.8,0,0.8c0.8,0,1.6,0,2.3,0
				C14.3,212.9,14.3,212.1,13.8,212.1L13.8,212.1z"/>
		</g>
	</g>
	<g id="XMLID_952_">
		<g id="XMLID_1010_">
			<path id="XMLID_1014_" class="st2" d="M11,218.1c-0.5,0-1,0-1.5,0c-0.5,0-0.5,0.8,0,0.8c0.2,0,0.3,0,0.5,0c0.5,0,0.5-0.8,0-0.8
				c-0.2,0-0.3,0-0.5,0c0,0.2,0,0.5,0,0.8c0.5,0,1,0,1.5,0C11.5,218.9,11.5,218.1,11,218.1L11,218.1z"/>
		</g>
	</g>
	<g id="XMLID_959_">
		<g id="XMLID_1017_">
			<path id="XMLID_1021_" class="st2" d="M8.4,230c-1.3,0.2-2.5,0.1-3.7-0.4c-0.4-0.2-0.8,0.5-0.4,0.6c1.4,0.6,2.8,0.8,4.3,0.5
				C9.1,230.6,8.9,229.9,8.4,230L8.4,230z"/>
		</g>
	</g>
	<g id="XMLID_966_">
		<g id="XMLID_1024_">
			<path id="XMLID_1028_" class="st2" d="M0.1,220.6c-0.5-0.2-1.1-0.4-1.6-0.6c-0.4-0.1-0.7,0.5-0.3,0.7c0.2,0.1,0.3,0.2,0.5,0.3
				c0.4,0.2,0.8-0.4,0.4-0.6c-0.2-0.1-0.3-0.2-0.5-0.3c-0.1,0.2-0.2,0.5-0.3,0.7c0.5,0.2,1.1,0.4,1.6,0.6
				C0.4,221.5,0.6,220.8,0.1,220.6L0.1,220.6z"/>
		</g>
	</g>
	<g id="XMLID_973_">
		<g id="XMLID_1031_">
			<path id="XMLID_1035_" class="st2" d="M3.9,207.6c-1-0.2-2-0.5-3-0.7c-0.5-0.1-0.7,0.6-0.2,0.7c1,0.2,2,0.5,3,0.7
				C4.2,208.5,4.4,207.7,3.9,207.6L3.9,207.6z"/>
		</g>
	</g>
	<g id="XMLID_980_">
		<g id="XMLID_1038_">
			<path id="XMLID_1042_" class="st2" d="M25.8,208.8c-0.9,0.1-1.8,0.1-2.7,0.2c-0.5,0-0.5,0.8,0,0.8c0.9-0.1,1.8-0.1,2.7-0.2
				C26.3,209.5,26.3,208.8,25.8,208.8L25.8,208.8z"/>
		</g>
	</g>
	<g id="XMLID_987_">
		<g id="XMLID_1045_">
			<path id="XMLID_1049_" class="st2" d="M21.9,224.8c-1.5,0.3-3,0.5-4.6,0.5c-0.5,0-0.5,0.8,0,0.8c1.6,0,3.2-0.2,4.8-0.5
				C22.6,225.4,22.4,224.7,21.9,224.8L21.9,224.8z"/>
		</g>
	</g>
	<g id="XMLID_994_">
		<g id="XMLID_1052_">
			<path id="XMLID_1056_" class="st2" d="M33.2,229.3c-1.4,0.2-2.8,0.3-4.2,0.5c-0.5,0.1-0.5,0.8,0,0.8c1.4-0.2,2.8-0.3,4.2-0.5
				C33.6,230,33.6,229.2,33.2,229.3L33.2,229.3z"/>
		</g>
	</g>
	<g id="XMLID_1001_">
		<g id="XMLID_1059_">
			<path id="XMLID_1063_" class="st2" d="M32.6,232.2c-0.7,0.4-1.5,0.5-2.3,0.5c-0.5,0-0.5,0.7,0,0.8c0.9,0.1,1.8-0.1,2.7-0.6
				C33.5,232.6,33.1,232,32.6,232.2L32.6,232.2z"/>
		</g>
	</g>
	<g id="XMLID_1008_">
		<g id="XMLID_1066_">
			<path id="XMLID_1070_" class="st2" d="M23.4,239.3c-2,0.3-4,0.4-6.1,0.3c-0.5,0-0.5,0.7,0,0.8c2.1,0.1,4.2-0.1,6.3-0.3
				C24.1,240,23.9,239.2,23.4,239.3L23.4,239.3z"/>
		</g>
	</g>
	<g id="XMLID_1015_">
		<g id="XMLID_1073_">
			<path id="XMLID_1077_" class="st2" d="M17.5,236.3c-0.9,0-1.8,0-2.7,0c-0.5,0-0.5,0.8,0,0.8c0.9,0,1.8,0,2.7,0
				C18,237,18,236.3,17.5,236.3L17.5,236.3z"/>
		</g>
	</g>
	<g id="XMLID_1022_">
		<g id="XMLID_1080_">
			<path id="XMLID_1084_" class="st2" d="M3,238.2c-1,0-1.9-0.2-2.8-0.7c-0.4-0.2-0.8,0.4-0.4,0.6c1,0.5,2.1,0.7,3.2,0.8
				C3.5,238.9,3.5,238.2,3,238.2L3,238.2z"/>
		</g>
	</g>
	<g id="XMLID_1029_">
		<g id="XMLID_1087_">
			<path id="XMLID_1091_" class="st2" d="M9.3,247c-1.2,0-2.3-0.2-3.4-0.5c-0.5-0.1-0.7,0.6-0.2,0.7c1.2,0.3,2.4,0.5,3.6,0.5
				C9.8,247.7,9.8,247,9.3,247L9.3,247z"/>
		</g>
	</g>
	<g id="XMLID_1036_">
		<g id="XMLID_1094_">
			<path id="XMLID_1098_" class="st2" d="M15.3,252.8c-1.2,0.1-2.3,0.1-3.4-0.3c-0.5-0.1-0.7,0.6-0.2,0.7c1.2,0.3,2.4,0.4,3.6,0.3
				C15.8,253.5,15.8,252.7,15.3,252.8L15.3,252.8z"/>
		</g>
	</g>
	<g id="XMLID_1043_">
		<g id="XMLID_1101_">
			<path id="XMLID_1105_" class="st2" d="M29,247c-0.8,0-1.6,0-2.3,0c-0.5,0-0.5,0.8,0,0.8c0.8,0,1.6,0,2.3,0
				C29.5,247.7,29.5,247,29,247L29,247z"/>
		</g>
	</g>
	<g id="XMLID_1050_">
		<g id="XMLID_1108_">
			<path id="XMLID_1112_" class="st2" d="M37,240.5c-0.2,0-0.3,0-0.5,0c-0.5,0-0.5,0.8,0,0.8c0.2,0,0.3,0,0.5,0
				C37.5,241.2,37.5,240.4,37,240.5L37,240.5z"/>
		</g>
	</g>
	<g id="XMLID_1057_">
		<g id="XMLID_1115_">
			<path id="XMLID_1119_" class="st2" d="M35,245.2c-0.3,0.2-0.7,0.3-1,0.5c-0.4,0.2-0.1,0.9,0.4,0.6c0.3-0.2,0.7-0.3,1-0.5
				C35.8,245.6,35.4,245,35,245.2L35,245.2z"/>
		</g>
	</g>
	<g id="XMLID_1064_">
		<g id="XMLID_1122_">
			<path id="XMLID_1126_" class="st2" d="M47.8,199.1c-1.2,0.2-2.4,0.2-3.7,0.2c-0.5,0-0.5,0.7,0,0.8c1.2,0,2.4,0,3.7-0.2
				C48.3,199.8,48.3,199.1,47.8,199.1L47.8,199.1z"/>
		</g>
	</g>
	<g id="XMLID_1071_">
		<g id="XMLID_1129_">
			<path id="XMLID_1133_" class="st2" d="M57.1,191.6c-1.1,0.4-2.2,0.7-3.4,0.8c-0.5,0.1-0.5,0.8,0,0.8c1.2-0.2,2.4-0.4,3.6-0.9
				C57.7,192.2,57.5,191.5,57.1,191.6L57.1,191.6z"/>
		</g>
	</g>
	<g id="XMLID_1078_">
		<g id="XMLID_1136_">
			<path id="XMLID_1140_" class="st2" d="M52.2,189c-0.9,0.2-1.9,0.5-2.8,0.7c-0.5,0.1-0.3,0.8,0.2,0.7c0.9-0.2,1.9-0.5,2.8-0.7
				C52.9,189.6,52.7,188.9,52.2,189L52.2,189z"/>
		</g>
	</g>
	<g id="XMLID_1085_">
		<g id="XMLID_1143_">
			<path id="XMLID_1147_" class="st2" d="M40.8,194c-0.2,0-0.4,0-0.7,0c-0.5,0-0.5,0.8,0,0.8c0.2,0,0.4,0,0.7,0
				C41.3,194.7,41.3,194,40.8,194L40.8,194z"/>
		</g>
	</g>
	<g id="XMLID_1092_">
		<g id="XMLID_1150_">
			<path id="XMLID_1154_" class="st2" d="M41.2,190.5c-0.9,0.1-1.7,0-2.6-0.2c-0.5-0.1-0.7,0.6-0.2,0.7c0.9,0.2,1.8,0.2,2.8,0.2
				C41.6,191.2,41.6,190.4,41.2,190.5L41.2,190.5z"/>
		</g>
	</g>
	<g id="XMLID_1099_">
		<g id="XMLID_1157_">
			<path id="XMLID_1161_" class="st2" d="M35.7,185.8c-1.1,0.1-2.2,0-3.2-0.3c-0.5-0.1-0.7,0.6-0.2,0.7c1.1,0.3,2.3,0.4,3.4,0.3
				C36.1,186.5,36.1,185.8,35.7,185.8L35.7,185.8z"/>
		</g>
	</g>
	<g id="XMLID_1106_">
		<g id="XMLID_1164_">
			<path id="XMLID_1168_" class="st2" d="M53.9,184c-0.8,0.2-1.7,0.4-2.5,0.7c-0.5,0.1-0.3,0.8,0.2,0.7c0.8-0.2,1.7-0.4,2.5-0.7
				C54.6,184.6,54.4,183.8,53.9,184L53.9,184z"/>
		</g>
	</g>
	<g id="XMLID_1113_">
		<g id="XMLID_1171_">
			<path id="XMLID_1175_" class="st2" d="M53.8,203.3c-1.2,0.5-2.4,0.7-3.6,0.6c-0.5,0-0.5,0.7,0,0.8c1.4,0.1,2.7-0.1,4-0.7
				C54.6,203.8,54.2,203.1,53.8,203.3L53.8,203.3z"/>
		</g>
	</g>
	<g id="XMLID_1120_">
		<g id="XMLID_1178_">
			<path id="XMLID_1182_" class="st2" d="M48.7,211c-1.4,0.1-2.8,0.1-4.2,0.2c-0.5,0-0.5,0.8,0,0.8c1.4-0.1,2.8-0.1,4.2-0.2
				C49.1,211.7,49.1,210.9,48.7,211L48.7,211z"/>
		</g>
	</g>
	<g id="XMLID_1127_">
		<g id="XMLID_1185_">
			<path id="XMLID_1189_" class="st2" d="M43.7,208c-0.2,0-0.4,0-0.7,0c-0.5,0-0.5,0.8,0,0.8c0.2,0,0.4,0,0.7,0
				C44.1,208.7,44.1,208,43.7,208L43.7,208z"/>
		</g>
	</g>
	<g id="XMLID_1134_">
		<g id="XMLID_1192_">
			<path id="XMLID_1196_" class="st2" d="M44.7,219.1c-1.4,0-2.7-0.2-4.1-0.6c-0.5-0.2-0.7,0.6-0.2,0.7c1.4,0.5,2.8,0.7,4.3,0.7
				C45.1,219.9,45.1,219.1,44.7,219.1L44.7,219.1z"/>
		</g>
	</g>
	<g id="XMLID_1141_">
		<g id="XMLID_1199_">
			<path id="XMLID_1203_" class="st2" d="M56.7,215.5c-0.2,0.1-0.4,0.1-0.7,0.2c-0.5,0.1-0.3,0.8,0.2,0.7c0.2-0.1,0.4-0.1,0.7-0.2
				C57.4,216.1,57.2,215.4,56.7,215.5L56.7,215.5z"/>
		</g>
	</g>
	<g id="XMLID_1148_">
		<g id="XMLID_1206_">
			<path id="XMLID_1210_" class="st2" d="M51.2,218c-0.7,0.1-1.4,0.1-2.2,0.2c-0.5,0-0.5,0.8,0,0.8c0.7-0.1,1.4-0.1,2.2-0.2
				C51.6,218.7,51.6,217.9,51.2,218L51.2,218z"/>
		</g>
	</g>
	<g id="XMLID_1155_">
		<g id="XMLID_1213_">
			<path id="XMLID_1217_" class="st2" d="M56.6,225.6c-1.4,0.5-2.9,0.8-4.4,1c-0.5,0.1-0.5,0.8,0,0.8c1.6-0.2,3.1-0.5,4.6-1
				C57.2,226.2,57,225.5,56.6,225.6L56.6,225.6z"/>
		</g>
	</g>
	<g id="XMLID_1162_">
		<g id="XMLID_1220_">
			<path id="XMLID_1224_" class="st2" d="M46.1,231.2c-0.6,0.3-1.2,0.4-1.8,0.5c-0.5,0-0.5,0.8,0,0.8c0.8-0.1,1.5-0.2,2.2-0.6
				C47,231.6,46.6,231,46.1,231.2L46.1,231.2z"/>
		</g>
	</g>
	<g id="XMLID_1169_">
		<g id="XMLID_1227_">
			<path id="XMLID_1231_" class="st2" d="M45.5,227.5c0.5,0,0.5-0.8,0-0.8C45,226.8,45,227.5,45.5,227.5L45.5,227.5z"/>
		</g>
	</g>
	<g id="XMLID_1176_">
		<g id="XMLID_1234_">
			<path id="XMLID_1238_" class="st2" d="M40.5,228.7c-0.5,0.1-1.1,0-1.6-0.2c-0.5-0.2-0.6,0.6-0.2,0.7c0.6,0.2,1.2,0.3,1.8,0.2
				C41,229.4,41,228.6,40.5,228.7L40.5,228.7z"/>
		</g>
	</g>
</g>
<g id="straw">
</g>
<g id="food_wrap">
	<g id="XMLID_196_">
		<g id="XMLID_766_">
			<path id="XMLID_773_" class="st3" d="M205.2,25.4c-9.8-3.2-20.2-3.1-30.4-3.2c-10.3-0.1-20.5,0.5-30.3,3.7
				c-0.9,0.3-0.5,1.7,0.4,1.4c9.7-3.2,19.8-3.7,29.9-3.6c10,0.1,20.3,0,30,3.1C205.7,27.1,206.1,25.7,205.2,25.4L205.2,25.4z"/>
		</g>
	</g>
	<g id="XMLID_233_">
		<g id="XMLID_758_">
			<path id="XMLID_762_" class="st3" d="M204.8,26.6c1.5,5,3,10.1,4.5,15.1c0.2-0.3,0.3-0.6,0.5-0.9c-2.9,1.1-5.9,2.3-8.8,3.4
				c0.3,0.4,0.6,0.7,0.8,1.1c1.5-3.4,2.4-6.8,2.5-10.5c0-1-1.5-1-1.5,0c-0.1,3.5-0.9,6.6-2.3,9.8c-0.2,0.5,0.2,1.4,0.8,1.1
				c2.9-1.1,5.9-2.3,8.8-3.4c0.4-0.1,0.7-0.5,0.5-0.9c-1.5-5-3-10.1-4.5-15.1C206,25.3,204.6,25.7,204.8,26.6L204.8,26.6z"/>
		</g>
	</g>
	<g id="XMLID_234_">
		<g id="XMLID_750_">
			<path id="XMLID_754_" class="st3" d="M201.4,39.9c-1.6-0.1-3.2-0.2-4.8-0.4c-1-0.1-1,1.4,0,1.5c1.6,0.1,3.2,0.2,4.8,0.4
				C202.4,41.4,202.4,39.9,201.4,39.9L201.4,39.9z"/>
		</g>
	</g>
	<g id="XMLID_235_">
		<g id="XMLID_743_">
			<path id="XMLID_747_" class="st3" d="M197,33.4c-0.8,3.3-0.7,7.4-1.6,10.6c-0.7,2.2-1.2,2-3.5,1.8c-2.9-0.2-3.6-1-0.9-3.4
				c0.5-0.4,0.1-1.3-0.5-1.3c-4.3,0.4-8.6,0.8-12.9,1.2c-0.6,0.1-0.9,0.6-0.6,1.1c0.5,1.2,1.1,2,2,3c0.2-0.4,0.4-0.9,0.5-1.3
				c-2.1,0-4.3-0.1-6.4-0.2c-3-0.2-4.2-0.8-1.4-3.6c0.5-0.5,0.1-1.3-0.5-1.3c-4,0-8.1,0-12.1,0c-0.7,0-0.9,0.8-0.5,1.3
				c1.1,1.4,2.1,2.6,3.4,3.8c0.7,0.7,1.7-0.4,1.1-1.1c-1.2-1.2-2.3-2.4-3.4-3.8c-0.2,0.4-0.4,0.9-0.5,1.3c4,0,8.1,0,12.1,0
				c-0.2-0.4-0.4-0.9-0.5-1.3c-1.5,1.4-2.3,2.9-2.8,4.9c-0.1,0.5,0.2,0.9,0.7,0.9c3.7,0.3,7.3,0.4,11,0.5c0.7,0,1-0.8,0.5-1.3
				c-0.8-0.7-1.4-1.6-1.8-2.6c-0.2,0.4-0.4,0.8-0.6,1.1c4.3-0.4,8.6-0.8,12.9-1.2c-0.2-0.4-0.4-0.9-0.5-1.3
				c-1.5,1.4-2.4,2.8-2.9,4.7c-0.1,0.5,0.3,0.9,0.7,0.9c2.8,0.2,5.6,0.4,8.4,0.6c0.4,0,0.7-0.4,0.8-0.8c0.1-4.4,0.6-8.7,1.7-13.1
				C198.7,32.9,197.2,32.5,197,33.4L197,33.4z"/>
		</g>
	</g>
	<g id="XMLID_253_">
		<g id="XMLID_736_">
			<path id="XMLID_740_" class="st3" d="M172.1,29.6c-0.5,4.1-1.2,8.2-2.2,12.3c-0.2,0.9,1.2,1.3,1.4,0.4c1-4.2,1.8-8.4,2.3-12.7
				C173.7,28.6,172.2,28.6,172.1,29.6L172.1,29.6z"/>
		</g>
	</g>
	<g id="XMLID_255_">
		<g id="XMLID_729_">
			<path id="XMLID_733_" class="st3" d="M177.8,36.3c0.1,2.1,0,4.2-0.3,6.3c-0.1,0.9,1.3,1.4,1.4,0.4c0.3-2.2,0.4-4.4,0.4-6.7
				C179.3,35.3,177.8,35.3,177.8,36.3L177.8,36.3z"/>
		</g>
	</g>
	<g id="XMLID_324_">
		<g id="XMLID_722_">
			<path id="XMLID_726_" class="st3" d="M187.4,33.3c0.7,3.1,1.4,6.1,2.1,9.2c0.2,0.9,1.7,0.5,1.4-0.4c-0.8-3.1-1.5-6.1-2.1-9.2
				C188.7,32,187.2,32.4,187.4,33.3L187.4,33.3z"/>
		</g>
	</g>
	<g id="XMLID_413_">
		<g id="XMLID_715_">
			<path id="XMLID_719_" class="st3" d="M159.4,31.9c-0.7,2.9-1.6,5.7-2.5,8.5c-0.3,0.9,1.1,1.3,1.4,0.4c0.9-2.8,1.8-5.6,2.5-8.5
				C161.1,31.4,159.6,31,159.4,31.9L159.4,31.9z"/>
		</g>
	</g>
	<g id="XMLID_483_">
		<g id="XMLID_708_">
			<path id="XMLID_712_" class="st3" d="M160.6,43.8c-3.2,0.1-6.3,0.1-9.5,0.2c-1,0-1,1.5,0,1.5c3.2-0.1,6.3-0.1,9.5-0.2
				C161.6,45.3,161.6,43.8,160.6,43.8L160.6,43.8z"/>
		</g>
	</g>
	<g id="XMLID_490_">
		<g id="XMLID_701_">
			<path id="XMLID_705_" class="st3" d="M152.4,33.9c-0.5,3.4-1.2,6.7-2.1,10c-0.3,0.9,1.2,1.3,1.4,0.4c0.9-3.3,1.6-6.6,2.1-10
				C154,33.3,152.5,32.9,152.4,33.9L152.4,33.9z"/>
		</g>
	</g>
	<g id="XMLID_511_">
		<g id="XMLID_694_">
			<path id="XMLID_698_" class="st3" d="M205.2,43.7c-0.8,5.3-2.3,10.4-4.7,15.2c-1.6,3.3-2.8,5.6-6.6,6.5c-2.6,0.6-5.6,0.7-8.3,1
				c-11.4,1.2-22.7,1.4-33.9-1.2c-0.9-0.2-1.3,1.2-0.4,1.4c13.5,3.2,27.2,2.2,40.8,0.5c5-0.6,6-0.8,8.5-5.3
				c3.2-5.5,5.1-11.6,6.1-17.9C206.8,43.2,205.3,42.8,205.2,43.7L205.2,43.7z"/>
		</g>
	</g>
	<g id="XMLID_518_">
		<g id="XMLID_687_">
			<path id="XMLID_691_" class="st3" d="M143.4,41.8c1.3,8.6,3.9,16.9,7.5,24.8c0.4,0.9,1.7,0.1,1.3-0.8c-3.6-7.8-6-16-7.4-24.5
				C144.7,40.5,143.3,40.9,143.4,41.8L143.4,41.8z"/>
		</g>
	</g>
	<g id="XMLID_497_">
		<g id="XMLID_680_">
			<path id="XMLID_684_" class="st3" d="M143.9,25.8c-1,0.4-2,0.7-3,1.1c-0.9,0.3-0.5,1.8,0.4,1.4c1-0.4,2-0.7,3-1.1
				C145.2,27,144.8,25.5,143.9,25.8L143.9,25.8z"/>
		</g>
	</g>
	<g id="XMLID_504_">
		<g id="XMLID_673_">
			<path id="XMLID_677_" class="st3" d="M139.5,27.9c0,2.6-2,5.3-3,7.7c-0.8,1.8-1.4,3.7-1.8,5.6c-0.1,0.5,0.2,1,0.7,0.9
				c5.4-0.2,10.9-0.5,16.3-0.9c1-0.1,1-1.6,0-1.5c-5.4,0.4-10.9,0.7-16.3,0.9c0.2,0.3,0.5,0.6,0.7,0.9c0.6-3,1.8-5.7,3.1-8.4
				c0.8-1.7,1.7-3.3,1.7-5.3C141,27,139.5,27,139.5,27.9L139.5,27.9z"/>
		</g>
	</g>
	<g id="XMLID_525_">
		<g id="XMLID_666_">
			<path id="XMLID_670_" class="st3" d="M189.6,26.8c-2.3-0.1-4.4,0.3-6.2,1.8c-0.8,0.6-1.1,2-0.8,2.9c1,3,3.7,3.2,6.5,3.6
				c2.8,0.4,7.2,1.6,9.8,0.2c1.8-1,2.5-3.4,1.6-5.1c-1.4-2.7-5.3-3.4-8-3.7c-2.5-0.3-4.1,3.6-2.1,5.1c1.7,1.4,3.5,2.4,5.8,2.4
				c2.6,0,4.6-2,7.1-1.8c-1-1.3-1.9-2.5-2.9-3.8c-0.3,1.3-0.4,2.2,0.1,3.4c0.4,1.2,1.9,2.6,1.5,4c0.5-0.6,0.9-1.2,1.4-1.8
				c-1.4,1-4.2-2-5.9-2c-1.8,0-3.1,1.3-3.7,2.8c-0.7,1.5-0.3,4.1,1.8,4.4c2.1,0.3,4.2,0.6,6.3,0.9c-0.4-1.7-0.9-3.3-1.3-5
				c-0.1,0.1-0.2,0.2-0.4,0.3c0.7-0.3,1.4-0.6,2.1-0.9c-0.4,0.2-0.8,0.1-1.1-0.3c0.1,0.8,0.2,1.5,0.3,2.3c0.2-0.3,0.4-0.6,0.7-0.9
				c2.6-2.2-0.8-6.6-3.6-4.7c-2.7,1.8-5.7,3.4-8.9,3.9c0.8,0.1,1.5,0.2,2.3,0.3c-0.4-0.3-0.7-0.6-1.1-1c-1.6-2.5-5.5-1.5-5.6,1.5
				c0,2.2-0.5,4.9,1.7,6.3c2.3,1.5,6.2,0.2,8.6,0c3.8-0.4,3.8-6.4,0-6c-1.3,0.1-4.1-0.1-5.2,0.6c-1.5,0-1.2,0.6,0.8,1.9
				c0-0.9,0-1.8,0.1-2.7c-1.9,0.5-3.7,1-5.6,1.5c3.9,6.3,11.1,2.1,15.9-1.1c-1.2-1.6-2.4-3.1-3.6-4.7c-5.8,4.8,2,12.5,6.9,7.9
				c1.5-1.4,0.9-4.7-1.3-5c-2.1-0.3-4.2-0.6-6.3-0.9c0.6,1.5,1.2,2.9,1.8,4.4c0-0.1,0-0.1,0.1-0.2c-1,0-2,0-3,0
				c2.9,1.5,7.2,3.8,10.4,1.6c1.4-1,1.8-2.6,1.7-4.3c0-0.8-0.3-1.6-0.5-2.3c-0.2-0.6-1.4-2.1-1.3-2.6c0.4-2-0.9-3.7-2.9-3.8
				c-1.4-0.1-2.7,0-4,0.5c-1.6,0.6-3,2.1-4.7,0.7c-0.7,1.7-1.4,3.4-2.1,5.1c1.3,0.1,2.4,0.5,3.3,1.4c-0.3-0.7-0.6-1.4-0.9-2.1
				c0,0.2,0,0.4-0.1,0.6c0.3-0.7,0.6-1.4,0.9-2.1c-0.2,0.1-0.3,0.3-0.5,0.4c0.7-0.3,1.4-0.6,2.1-0.9c-2.8,0.3-7.6,0.2-10.2-1
				c0.5,0.6,0.9,1.2,1.4,1.8c-0.1-0.2-0.1-0.4-0.2-0.6c-0.3,1-0.5,1.9-0.8,2.9c0.6,0.1,1.3,0.1,1.9,0
				C193.5,32.9,193.4,26.9,189.6,26.8L189.6,26.8z"/>
		</g>
	</g>
	<g id="XMLID_532_">
		<g id="XMLID_659_">
			<path id="XMLID_663_" class="st3" d="M202.7,38.6c0.3,1.6,1.3,2.8,2.6,3.8c0.6,0.4,1.7,0.5,2.3,0.3c0.7-0.2,1.4-0.7,1.8-1.4
				c0.4-0.7,0.6-1.5,0.3-2.3c-0.3-0.8-0.7-1.3-1.4-1.8c0.1,0.1,0.5,0.5,0.3,0.2c-0.1-0.1-0.4-0.4-0.1,0c0.3,0.4,0.1,0.1,0,0
				c-0.1-0.1-0.1-0.2-0.2-0.3c0.1,0.2,0.2,0.5,0.3,0.7c-0.1-0.2-0.2-0.5-0.2-0.7c-0.3-1.5-2.2-2.6-3.7-2.1
				C203.1,35.4,202.3,36.9,202.7,38.6L202.7,38.6z"/>
		</g>
	</g>
	<g id="XMLID_539_">
		<g id="XMLID_652_">
			<path id="XMLID_656_" class="st3" d="M199.1,24.9c-11.7-0.7-23.3,0-34.8,2c-1.2,0.2-2.3,1.7-2.2,2.9c0.7,6,14.3,14.6,18.6,7.6
				c4.1-6.7-7.6-10.6-11.4-5.6c-1.3,1.7-1,4.3,1.3,5c3.5,1,8.3,2.2,11.9,1.2c1-0.3,2-0.7,2.7-1.6c0.4-0.5,0.7-2.7,0.8-2.7
				c-1.7-0.4-3.3-0.9-5-1.3c0.5,2.1-1.7,3.6-1.1,5.7c0.5,1.7,2.4,2.6,3.7,3.5c0.5-1.9,1-3.7,1.5-5.6c-4.5,0.4-9,0.5-13.5,0.2
				c-3.9-0.2-3.8,5.8,0,6c4.5,0.3,9,0.2,13.5-0.2c2.9-0.3,4.1-3.9,1.5-5.6c-2.2-1.5-0.4,1.6-0.9,1.5c0.3,0,1-2.2,1.1-2.4
				c0.5-1.6,0.3-3.1-0.1-4.7c-0.5-2.4-3.4-2.7-5-1.3c-1,0.8-1,3-1.5,3.4c0.4-0.3-2.3-0.7-2.3-0.7c-2.1-0.3-3.8-0.6-5.8-1.2
				c0.4,1.7,0.9,3.3,1.3,5c0.6-0.6,1.4-0.7,2.2-0.4c-0.8-1.4-1.8-2.4-3.2-3c-0.9-0.6-4.5-2.7-4.5-2.8c-0.7,1-1.5,1.9-2.2,2.9
				c11-1.8,22.1-2.4,33.2-1.7C203,31.1,202.9,25.1,199.1,24.9L199.1,24.9z"/>
		</g>
	</g>
	<g id="XMLID_540_">
		<g id="XMLID_645_">
			<path id="XMLID_649_" class="st3" d="M179.6,34.8c0.1,0,0.1,0,0.2,0c1.6,0,3.1-1.4,3-3c-0.1-1.6-1.3-3-3-3c-0.1,0-0.1,0-0.2,0
				c-1.6,0-3.1,1.4-3,3C176.7,33.4,177.9,34.8,179.6,34.8L179.6,34.8z"/>
		</g>
	</g>
	<g id="XMLID_546_">
		<g id="XMLID_638_">
			<path id="XMLID_642_" class="st3" d="M158.4,28.3c-2.7-0.4-5.7-0.9-8.4-0.1c-2.7,0.7-4.4,3.6-3.2,6.2c1.2,2.6,4.2,2.7,6.7,3.1
				c2.9,0.4,6.5,1.7,9-0.4c0.7-0.7,1.1-2,0.8-2.9c-1.4-3.9-8.7-5.3-11.1-1.7c-1.1,1.8,0.1,3.8,1.8,4.4c1,0.4,1.9,0.6,3,0.8
				c1.6,0.2,3.2-0.4,3.7-2.1c0.4-1.4-0.5-3.5-2.1-3.7c-1-0.1-2-0.4-3-0.8c0.6,1.5,1.2,2.9,1.8,4.4c0.1-0.1,0.2-0.3,0.3-0.4
				c-0.6,0.5-1.2,0.9-1.8,1.4c0.8-0.3,2.2,0.2,2.9,0.6c-0.5-0.6-0.9-1.2-1.4-1.8c0,0.1,0.1,0.3,0.1,0.4c0.3-1,0.5-1.9,0.8-2.9
				c-0.1,0.1-0.2,0.2-0.4,0.3c0.7-0.3,1.4-0.6,2.1-0.9c-1.2,0-2.4-0.2-3.5-0.4c-1.1-0.1-2.8-0.7-3.8-0.5c-0.2,0-0.4-0.1-0.6-0.1
				c-0.1,0.9-0.1,1.7-0.2,2.6c0.1,0.1,1,0,1.2,0c1.3,0,2.5,0.1,3.8,0.2c1.6,0.2,3.2-0.4,3.7-2.1C160.9,30.6,160,28.6,158.4,28.3
				L158.4,28.3z"/>
		</g>
	</g>
	<g id="XMLID_553_">
		<g id="XMLID_631_">
			<path id="XMLID_635_" class="st3" d="M158.9,30c-0.3,2.5-0.2,5.2,1.9,7c2.3,1.8,5.8,1.7,8.4,2.9c0.2-1.8,0.5-3.7,0.7-5.5
				c-4.3,1.6-10,0.6-14.5,0.5c-5.1-0.1-10.2-0.3-15.3-0.4c0.7,1.7,1.4,3.4,2.1,5.1c2.1-2.4,4.1-4.9,5.9-7.5c0.9-1.2,0.3-3.4-1.1-4.1
				c-5.3-2.5-7.1,2.8-8.8,6.7c-1.6,3.5,3.6,6.5,5.2,3c0.4-0.9,0.8-1.9,1.3-2.8c1.1-1.2,0.9-1.8-0.6-1.8c-0.4-1.4-0.7-2.7-1.1-4.1
				c-1.6,2.2-3.2,4.3-5,6.3c-1.7,2-0.6,5,2.1,5.1c5.7,0.2,11.5,0.3,17.2,0.5c4.6,0.1,9.8,1,14.2-0.7c2.1-0.8,3.3-4.3,0.7-5.5
				c-1.6-0.8-3.2-1.5-5-1.9c-2.5-0.6-2.7-0.1-2.4-2.8C165.4,26.1,159.4,26.2,158.9,30L158.9,30z"/>
		</g>
	</g>
	<g id="XMLID_556_">
		<g id="XMLID_624_">
			<path id="XMLID_628_" class="st3" d="M148.4,32.8c5.8-0.8,11.7-1.7,17.5-2.5c3.8-0.5,2.2-6.3-1.6-5.8c-5.8,0.8-11.7,1.6-17.5,2.5
				C143,27.5,144.6,33.3,148.4,32.8L148.4,32.8z"/>
		</g>
	</g>
	<g id="XMLID_564_">
		<g id="XMLID_617_">
			<path id="XMLID_621_" class="st3" d="M197.8,27.5c0,0.2,0,0.3,0,0.5c0,1.4,0.9,2.4,2.2,2.9c0.1,0.1,0.3,0.1,0.4,0.2
				c1.1,0.4,2.9-0.3,3.4-1.4c0.1-0.1,0.1-0.3,0.2-0.4c0.6-1.3,0.5-2.6-0.5-3.6c-2.2-2.4-7.4-1.6-10.3-1.7
				c-5.2-0.2-10.5-0.2-15.7-0.1c-2.9,0.1-8.4-0.8-10.6,1.8c-1.5,1.8-1.1,4.1,0.5,5.6c1.1,1,2.4,1,3.6,0.5c2.3-1.1,3-3.7,1.5-5.8
				c-2.2-3.2-7.4-0.2-5.2,3c0.2-0.8,0.4-1.6,0.6-2.4c1.2,0.2,2.4,0.3,3.6,0.5c0.1,0.3,0.2,0.5,0.4,0.8c-0.5,0.9-1,1.7-1.5,2.6
				c1.2-1,5.4-0.4,6.9-0.5c2.6-0.1,5.2-0.1,7.9-0.1c2.6,0,5.2,0.1,7.9,0.2c0.7,0,6.2,0.1,6.1,0c-0.2-1.2-0.3-2.4-0.5-3.6
				c-0.1,0.1-0.1,0.3-0.2,0.4c1.1-0.5,2.3-0.9,3.4-1.4c-0.1-0.1-0.3-0.1-0.4-0.2c0.7,1,1.5,1.9,2.2,2.9c0-0.2,0-0.3,0-0.5
				C203.7,23.6,197.7,23.6,197.8,27.5L197.8,27.5z"/>
		</g>
	</g>
	<g id="XMLID_581_">
		<g id="XMLID_610_">
			<path id="XMLID_614_" class="st3" d="M173.1,30.2c1.2-0.1,2.4-0.2,3.6-0.4c3.8-0.4,3.9-5.7,0-6c-11.9-1-23.8,0.4-35.2,4.1
				c-2.1,0.7-3,3.4-1.3,5c1.8,1.7,3.7,3.3,5.7,4.8c3.1,2.3,6.1-2.9,3-5.2c-1.6-1.2-3-2.5-4.5-3.8c-0.4,1.7-0.9,3.3-1.3,5
				c10.9-3.5,22.1-4.8,33.6-3.8c0-2,0-4,0-6c-1.2,0.1-2.4,0.2-3.6,0.4C169.3,24.6,169.2,30.6,173.1,30.2L173.1,30.2z"/>
		</g>
	</g>
	<g id="XMLID_588_">
		<g id="XMLID_603_">
			<path id="XMLID_607_" class="st3" d="M175,41.9c-1.9-0.9-3.7,1.5-1.9,2.9c2,1.6,4.2-0.8,4.9-2.5c-0.7-0.1-1.5-0.2-2.2-0.3
				c0.1,1.4,0.6,2.5,1.5,3.5c0.3-0.6,0.5-1.3,0.8-1.9c-2.3-0.1-4.5-0.2-6.8-0.3c0.4,0.5,0.7,0.9,1.1,1.4c0.3-0.9,0.7-1.8,1-2.7
				c0.3-0.9-0.9-1.8-1.7-1.3c-1.2,0.8-2.2,1.6-3,2.7c-0.9,1.1,0.7,2.7,1.6,1.6c0.8-0.9,1.6-1.7,2.6-2.4c-0.6-0.4-1.1-0.8-1.7-1.3
				c-0.3,0.9-0.7,1.8-1,2.7c-0.3,0.7,0.4,1.4,1.1,1.4c2.3,0.1,4.5,0.2,6.8,0.3c1,0,1.4-1.2,0.8-1.9c-0.5-0.6-0.7-1.2-0.8-1.9
				c-0.1-1.3-1.7-1.5-2.2-0.3c-0.2,0.5-1.6,2.3-1.9,2.1C175.2,44.5,176.3,42.5,175,41.9L175,41.9z"/>
		</g>
	</g>
	<g id="XMLID_595_">
		<g id="XMLID_596_">
			<path id="XMLID_600_" class="st3" d="M191.4,41.3c-0.3,1.1-0.5,2.1-0.8,3.2c0.4-0.3,0.7-0.6,1.1-0.8c-0.1-0.1-0.2-0.1-0.3-0.2
				c-0.7-0.2-1.4-0.4-2.2-0.6c-0.1,0.5-0.3,0.9-0.7,1.4c-0.7,1,0.6,2,1.5,1.5c0,0,0.1,0,0.1-0.1c-0.4,0-0.8,0-1.1,0
				c0.8,0.4,1.3,0.5,2.2,0.6c1.1,0,2.3,0.1,3.4,0.1c0.6,0,1.1-0.5,1.1-1.1c0-1.3,0.2-2.6,0.6-3.8c0.3-0.9-0.8-1.8-1.7-1.3
				c-1.6,0.9-2.7,2.4-3,4.2c0.7,0.1,1.5,0.2,2.2,0.3c0-0.4,0-0.7,0-1.1c0-1.4-2.3-1.5-2.2,0c0,0.4,0,0.7,0,1.1c0,1.2,2,1.6,2.2,0.3
				c0.2-1.3,0.9-2.2,2-2.9c-0.6-0.4-1.1-0.8-1.7-1.3c-0.4,1.4-0.6,2.9-0.6,4.4c0.4-0.4,0.8-0.8,1.1-1.1c-1.2-0.1-2.6,0.1-3.8-0.2
				c-0.7-0.1-1.2-0.5-1.9-0.2c0.5,0.5,1,1,1.5,1.5c0.4-0.6,0.7-1.2,0.9-1.9c0.3-1.4-1.8-2-2.2-0.6c-0.5,1.8,0.9,2.9,2.5,3.1
				c0.5,0.1,1-0.4,1.1-0.8c0.3-1.1,0.5-2.1,0.8-3.2C193.9,40.5,191.7,39.9,191.4,41.3L191.4,41.3z"/>
		</g>
	</g>
	<g id="XMLID_602_">
		<g id="XMLID_589_">
			<path id="XMLID_593_" class="st3" d="M203.1,40.1c-0.1,0.8-0.5,1.4-1.1,1.9c-0.9,0.7,0.1,2.3,1.1,1.9c1.1-0.4,2-1,2.9-1.7
				c0.5-0.4,0.4-1.2,0-1.6c-0.5-0.5-1.1-0.4-1.6,0c-0.6,0.5-1.2,0.9-1.9,1.2c0.4,0.6,0.7,1.3,1.1,1.9c1.1-0.9,1.6-2.1,1.8-3.5
				c0.1-0.6-0.6-1.1-1.1-1.1C203.6,39,203.2,39.5,203.1,40.1L203.1,40.1z"/>
		</g>
	</g>
	<g id="XMLID_609_">
		<g id="XMLID_582_">
			<path id="XMLID_586_" class="st3" d="M153.3,40.8c0.6,1.3,1.3,2.3,2.3,3.3c0.6,0.5,1.7,0.4,1.9-0.5c0.2-1.4,0.2-2.7-0.1-4.1
				c-0.7,0.3-1.4,0.6-2.1,0.9c0.8,1.5,1.9,2.6,3.3,3.6c0.5,0.4,1.6,0,1.7-0.7c0.2-1.3,0-2.2-0.9-3.2c-0.5,0.5-1.1,1.1-1.6,1.6
				c0.7,0.6,1.4,1.3,2.1,2c0.7,0.8,1.8,0.1,1.9-0.8c0-0.5,0.2-1,0.4-1.5c-0.7,0-1.4,0-2.2,0c0.4,1.1,0.8,2.2,1.4,3.2
				c0.3-0.6,0.6-1.1,1-1.7c-3.5,0-7.1,0-10.6,0c0.4,0.4,0.8,0.8,1.1,1.1c0-0.9,0.1-1.7,0.4-2.6c-0.7-0.1-1.5-0.2-2.2-0.3
				c0,1.2-0.1,3.3,1.7,3.2c1.5-0.1,1.8-2,2.3-3.1c-0.7,0.1-1.4,0.2-2.1,0.3c0,0.1,0.1,0.3,0.1,0.4c0,1.4,2.3,1.5,2.2,0
				c0-0.7-0.1-0.9-0.4-1.5c-0.5-0.9-1.7-0.6-2.1,0.3c-0.1,0.4-0.3,0.7-0.4,1.1c0.8,0.5,1.1,0.4,0.9-0.5c0-1.3-1.8-1.5-2.2-0.3
				c-0.4,1.1-0.5,2-0.5,3.2c0,0.6,0.5,1.1,1.1,1.1c3.5,0,7.1,0,10.6,0c0.8,0,1.4-1,1-1.7c-0.5-0.8-0.9-1.7-1.2-2.7
				c-0.4-1.1-1.8-1-2.2,0c-0.3,0.7-0.4,1.4-0.5,2.1c0.6-0.3,1.3-0.5,1.9-0.8c-0.7-0.7-1.4-1.4-2.1-2c-1.1-0.9-2.5,0.5-1.6,1.6
				c0.1,0.3,0.2,0.7,0.3,1c0.6-0.2,1.1-0.4,1.7-0.7c-1.1-0.7-1.8-1.6-2.5-2.8c-0.7-1.1-2.3-0.3-2.1,0.9c0.2,1,0.2,1.9,0.1,2.9
				c0.6-0.2,1.3-0.3,1.9-0.5c-0.9-0.8-1.5-1.7-2-2.8C154.7,38.3,152.8,39.5,153.3,40.8L153.3,40.8z"/>
		</g>
	</g>
	<g id="XMLID_616_">
		<g id="XMLID_575_">
			<path id="XMLID_579_" class="st3" d="M140.3,38.7c-1,0.3-2.1,0.5-3.2,0.5c0.3,0.6,0.6,1.1,1,1.7c0.5-0.8,1-1.6,1.6-2.3
				c-0.6-0.4-1.3-0.7-1.9-1.1c-0.1,0.3-0.4,0.5-0.7,0.6c-1.4,0.4-0.8,2.6,0.6,2.2c1.1-0.3,1.9-1.1,2.3-2.2c0.4-1-1.2-1.9-1.9-1.1
				c-0.7,0.8-1.4,1.8-2,2.7c-0.4,0.8,0.1,1.7,1,1.7c1.3,0,2.6-0.1,3.8-0.5C142.3,40.4,141.7,38.2,140.3,38.7L140.3,38.7z"/>
		</g>
	</g>
	<g id="XMLID_623_">
		<g id="XMLID_569_">
			<path id="XMLID_573_" class="st4" d="M203.4,34.3c-0.4,1.9-0.7,3.8-1.1,5.7c-0.2,0.9,1.3,1.3,1.4,0.4c0.4-1.9,0.7-3.8,1.1-5.7
				C205.1,33.8,203.6,33.4,203.4,34.3L203.4,34.3z"/>
		</g>
	</g>
	<g id="XMLID_630_">
		<g id="XMLID_562_">
			<path id="XMLID_567_" class="st4" d="M196.5,36.3c0,0-0.2,0.7-0.2,0.7c0,0.3-0.1,0.6-0.1,0.9c-0.1,0.6-0.2,1.2-0.3,1.9
				c-0.1,0.9,1.3,1.4,1.4,0.4c0.1-0.9,0.3-1.8,0.4-2.6c0.1-0.7,0.3-1.4,0-2C197.4,34.7,196.1,35.4,196.5,36.3L196.5,36.3z"/>
		</g>
	</g>
	<g id="XMLID_637_">
		<g id="XMLID_555_">
			<path id="XMLID_560_" class="st4" d="M197.9,31.5c0-0.1,0-0.2,0-0.3c0.1-0.9-1.2-1.4-1.4-0.4c-0.4,1.6-0.6,3.2-0.7,4.8
				c0,1,1.5,1,1.5,0c0-1.5,0.2-3,0.6-4.4c-0.5-0.1-1-0.3-1.4-0.4c0,0.1,0,0.2,0,0.3C196.3,32.1,197.8,32.5,197.9,31.5L197.9,31.5z"
				/>
		</g>
	</g>
	<g id="XMLID_644_">
		<g id="XMLID_548_">
			<path id="XMLID_552_" class="st4" d="M191.8,33.9c-0.5,1.2-1.1,2.5-1.6,3.7c-0.5,1.3-0.6,3.3-1.7,4.2c0.2-0.1,0.5-0.1,0.7-0.2
				c0,0-0.1,0-0.1,0c-0.9-0.3-1.3,1.2-0.4,1.4c1.1,0.3,1.8-1.5,2.1-2.2c0.4-0.9,0.5-1.9,0.9-2.8c0.4-1.1,0.9-2.3,1.4-3.4
				C193.4,33.8,192.1,33,191.8,33.9L191.8,33.9z"/>
		</g>
	</g>
	<g id="XMLID_651_">
		<g id="XMLID_541_">
			<path id="XMLID_545_" class="st4" d="M180.1,31.8c-0.2,1.8-0.3,3.6-0.5,5.3c-0.1,1.2,0.1,4.4-0.9,5.2c-0.7,0.6,0.3,1.7,1.1,1.1
				c1.1-0.9,1-2.9,1.1-4.3c0.2-2.4,0.4-4.9,0.7-7.3C181.7,30.9,180.2,30.9,180.1,31.8L180.1,31.8z"/>
		</g>
	</g>
	<g id="XMLID_658_">
		<g id="XMLID_533_">
			<path id="XMLID_537_" class="st4" d="M171.2,40.8c-0.4-3-0.7-5.9-1.1-8.9c-0.1-0.9-1.6-1-1.5,0c0.4,3,0.7,5.9,1.1,8.9
				C169.8,41.7,171.3,41.7,171.2,40.8L171.2,40.8z"/>
		</g>
	</g>
	<g id="XMLID_665_">
		<g id="XMLID_526_">
			<path id="XMLID_530_" class="st4" d="M163.1,40.8c0.7-1.5,1.4-3,2.1-4.5c0.4-0.9-0.9-1.6-1.3-0.8c-0.7,1.5-1.4,3-2.1,4.5
				C161.4,40.9,162.7,41.7,163.1,40.8L163.1,40.8z"/>
		</g>
	</g>
	<g id="XMLID_672_">
		<g id="XMLID_519_">
			<path id="XMLID_523_" class="st4" d="M204.2,26.5c-10.1,2.8-20.5,3.6-30.9,4.2c-10.3,0.6-20.6,0.8-30.5-2.3
				c-0.9-0.3-1.3,1.2-0.4,1.4c10.1,3.1,20.5,2.9,30.9,2.3c10.6-0.6,21.1-1.4,31.3-4.2C205.5,27.7,205.1,26.2,204.2,26.5L204.2,26.5z
				"/>
		</g>
	</g>
	<g id="XMLID_679_">
		<g id="XMLID_512_">
			<path id="XMLID_516_" class="st4" d="M159,34.9c0.7,1.8,1.5,3.5,2.4,5.2c0.5,0.9,1.7,0.1,1.3-0.8c-0.8-1.6-1.6-3.2-2.3-4.9
				C160.1,33.6,158.6,34,159,34.9L159,34.9z"/>
		</g>
	</g>
	<g id="XMLID_686_">
		<g id="XMLID_505_">
			<path id="XMLID_509_" class="st4" d="M152.1,35.5c-0.1,1.2-0.3,2.4-0.5,3.5c-0.2,0.9,1.2,1.3,1.4,0.4c0.3-1.3,0.5-2.6,0.6-3.9
				C153.7,34.5,152.2,34.5,152.1,35.5L152.1,35.5z"/>
		</g>
	</g>
	<g id="XMLID_693_">
		<g id="XMLID_498_">
			<path id="XMLID_502_" class="st4" d="M147,30.2c-0.4,0.8-1.1,1.5-1.7,2.1c-0.6,0.7-1.2,1.4-1.9,2c-0.7,0.7,0.4,1.8,1.1,1.1
				c0.7-0.8,1.4-1.5,2.1-2.3c0.6-0.7,1.4-1.3,1.7-2.2C148.7,30.1,147.4,29.3,147,30.2L147,30.2z"/>
		</g>
	</g>
	<g id="XMLID_700_">
		<g id="XMLID_491_">
			<path id="XMLID_495_" class="st4" d="M174.5,31.3C174.5,31.3,174.5,31.3,174.5,31.3c-0.1,0.5-0.1,0.9-0.2,1.4c0,0,0,0,0,0
				c-0.3-0.1-0.6-0.2-0.8-0.3c0,0,0,0,0,0c0-0.3,0-0.5,0-0.8c-0.4,0.8,0.3,1.3,0.7,1.9c0.5,0.6,1.1,1.2,1.7,1.8
				c0.7,0.7,1.7-0.4,1.1-1.1c-0.8-0.9-1.6-1.7-2.3-2.6c0.1,0.2,0.1,0.4,0.2,0.5c0,0.1,0,0.1-0.1,0.2c0.1-0.2,0.2-0.5,0-0.8
				c0,0,0,0,0,0c-0.2-0.3-0.5-0.4-0.8-0.3c0,0,0,0,0,0c-0.6,0.2-0.7,1.1-0.2,1.4c0,0,0,0,0,0C174.6,33.1,175.3,31.8,174.5,31.3
				L174.5,31.3z"/>
		</g>
	</g>
	<g id="XMLID_707_">
		<g id="XMLID_484_">
			<path id="XMLID_488_" class="st4" d="M188.1,30.6c-0.2,1.2-0.6,2.3-1.4,3.3c-0.6,0.7,0.5,1.8,1.1,1.1c0.9-1.2,1.6-2.5,1.8-4
				C189.6,30.1,188.2,29.7,188.1,30.6L188.1,30.6z"/>
		</g>
	</g>
</g>
<g id="cleaning_bottle">
	<g id="XMLID_714_">
		<g id="XMLID_912_">
			<path id="XMLID_916_" class="st5" d="M183.1,154.2c-10.5-1.8-21-1.6-31.4,0.5c-0.9,0.2-0.5,1.6,0.4,1.4
				c10.2-2.1,20.4-2.3,30.6-0.5C183.7,155.8,184.1,154.3,183.1,154.2L183.1,154.2z"/>
		</g>
	</g>
	<g id="XMLID_721_">
		<g id="XMLID_906_">
			<path id="XMLID_910_" class="st5" d="M182.1,155c2,0.6,3.9,1.3,5.9,1.9c0.9,0.3,1.3-1.1,0.4-1.4c-2-0.6-3.9-1.3-5.9-1.9
				C181.6,153.3,181.2,154.7,182.1,155L182.1,155z"/>
		</g>
	</g>
	<g id="XMLID_728_">
		<g id="XMLID_900_">
			<path id="XMLID_904_" class="st5" d="M187.8,156.9c0,2.2,0,4.5,0,6.7c0,1,1.5,1,1.5,0c0-2.2,0-4.5,0-6.7
				C189.3,155.9,187.8,155.9,187.8,156.9L187.8,156.9z"/>
		</g>
	</g>
	<g id="XMLID_735_">
		<g id="XMLID_894_">
			<path id="XMLID_898_" class="st5" d="M187.5,157.4c1.3,0,3.3-0.1,4.4,0.5c1.1,0.6,0.8,2.7,0.9,3.9c0,0.5,0.5,3.2,0.3,3.5
				c-0.2,0.2-2,0.1-2.3,0.1c-0.8,0-1.5,0.1-2.3,0.1c-1,0-1,1.5,0,1.5c1.3-0.1,2.5-0.1,3.8-0.2c0.5,0,1.3,0,1.7-0.3
				c1.1-0.9,0.3-3.8,0.2-5c-0.1-1.3,0.3-3.7-1-4.6c-1.4-0.9-4.2-0.9-5.8-0.9C186.6,155.8,186.6,157.3,187.5,157.4L187.5,157.4z"/>
		</g>
	</g>
	<g id="XMLID_742_">
		<g id="XMLID_888_">
			<path id="XMLID_892_" class="st5" d="M187,163.6c0.2,0.8,0.3,1.5,0.5,2.3c0.2,0.9,1.6,0.5,1.4-0.4c-0.2-0.8-0.3-1.5-0.5-2.3
				C188.3,162.2,186.8,162.6,187,163.6L187,163.6z"/>
		</g>
	</g>
	<g id="XMLID_749_">
		<g id="XMLID_882_">
			<path id="XMLID_886_" class="st5" d="M187.9,165.8c-0.4-1.2-5.4,0.8-6.1,1.1c-2.1,1-3.9,2.5-5.4,4.3c-0.6,0.7,0.4,1.8,1.1,1.1
				c1.7-2.1,3.9-3.7,6.6-4.6c1.6-0.5,3.9-0.1,5.2-1.3c0.2-0.2,0.3-0.5,0.2-0.7c0-0.1,0-0.2-0.1-0.2
				C189.1,164.5,187.6,164.9,187.9,165.8L187.9,165.8z"/>
		</g>
	</g>
	<g id="XMLID_756_">
		<g id="XMLID_876_">
			<path id="XMLID_880_" class="st5" d="M153.7,154.4c-2.9,1.2-5.9,2.6-7.8,5.2c-1.9,2.6-0.6,5,1,7.4c0.5,0.8,1.8,0.1,1.3-0.8
				c-0.5-0.8-1.4-2-1.6-3c-0.4-2.1,0.7-3.4,2.3-4.6c1.7-1.3,3.6-2.1,5.6-3C155.3,155.3,154.6,154,153.7,154.4L153.7,154.4z"/>
		</g>
	</g>
	<g id="XMLID_763_">
		<g id="XMLID_870_">
			<path id="XMLID_874_" class="st5" d="M147.7,167.4c1.7,0.1,15,1.4,11.7,5.3c-0.6,0.7,0.4,1.8,1.1,1.1c5.2-6.3-9.8-7.8-12.8-7.9
				C146.8,165.9,146.8,167.4,147.7,167.4L147.7,167.4z"/>
		</g>
	</g>
	<g id="XMLID_770_">
		<g id="XMLID_864_">
			<path id="XMLID_868_" class="st5" d="M174.8,171.6c-0.2,1.3-0.1,2.5,0.3,3.8c0.3,0.9,1.8,0.5,1.4-0.4c-0.4-1-0.5-2-0.3-3
				C176.4,171.1,175,170.7,174.8,171.6L174.8,171.6z"/>
		</g>
	</g>
	<g id="XMLID_777_">
		<g id="XMLID_858_">
			<path id="XMLID_862_" class="st5" d="M175.7,171.8c-5.2,0.3-10.4,0.2-15.6-0.4c-1-0.1-1,1.4,0,1.5c5.2,0.6,10.4,0.7,15.6,0.4
				C176.7,173.3,176.7,171.8,175.7,171.8L175.7,171.8z"/>
		</g>
	</g>
	<g id="XMLID_784_">
		<g id="XMLID_851_">
			<path id="XMLID_856_" class="st5" d="M159.4,171c0,2.3,0.2,4.6,0.6,7c0.2,1,1.6,0.5,1.4-0.4c-0.4-2.2-0.5-4.4-0.5-6.6
				C160.9,170,159.4,170,159.4,171L159.4,171z"/>
		</g>
	</g>
	<g id="XMLID_791_">
		<g id="XMLID_844_">
			<path id="XMLID_849_" class="st5" d="M175,172c0,1.5,0.1,3.1,0,4.7c-0.1,1.5-0.2,1-1.4,1.3c-0.9,0.2-2.1,0-3.1,0
				c-1.6,0-3.3,0-4.9,0c-1.3,0-4.4,0.5-5.4-0.4c-0.7-0.7-1.8,0.4-1.1,1.1c1.2,1.2,3,0.8,4.6,0.8c3.1,0,6.1,0,9.2,0
				c1.1,0,2.5,0.3,3.3-0.6c1.1-1.2,0.3-5.4,0.2-6.9C176.5,171.1,175,171.1,175,172L175,172z"/>
		</g>
	</g>
	<g id="XMLID_798_">
		<g id="XMLID_837_">
			<path id="XMLID_842_" class="st5" d="M174.9,177.6c-1.5,7.1,4.4,10.9,8.8,15.3c6.6,6.4,8.5,18.3,10.4,27c1.7,8.1,6.4,27-6.2,28.2
				c-3.4,0.3-31.2,1.8-31.3-1.9c0-1-1.5-1-1.5,0c0,2.3,1.4,3.2,3.6,3.7c6.1,1.1,13.5-0.1,19.8-0.1c7.9-0.1,17.7,1.1,19-9
				c1.4-10.4-1.8-22-4.6-31.9c-1.4-4.9-2.5-10.5-5.7-14.6c-3.9-5-12.4-8.4-10.8-16.2C176.5,177.1,175.1,176.7,174.9,177.6
				L174.9,177.6z"/>
		</g>
	</g>
	<g id="XMLID_805_">
		<g id="XMLID_830_">
			<path id="XMLID_835_" class="st5" d="M159.3,177.3c1.3,7.5-2.8,13.6-5,20.4c-1.8,5.9-1.8,12.3-1.9,18.4
				c-0.2,6.8-0.2,13.6,0.5,20.3c0.4,4.1,0.9,8,3.9,11c0.7,0.7,1.7-0.4,1.1-1.1c-4.5-4.6-3.8-13.3-4-19.2c-0.1-6.2,0-12.3,0.3-18.5
				c0.3-6.4,2-11.7,4.3-17.6c1.9-4.7,3.1-9.2,2.2-14.2C160.5,176,159.1,176.4,159.3,177.3L159.3,177.3z"/>
		</g>
	</g>
	<g id="XMLID_812_">
		<g id="XMLID_823_">
			<path id="XMLID_828_" class="st5" d="M185.7,167.7c0.7,0.3,2.5,0.7,3,1.3c0.1,0.2,0,0.7,0.1,1c0.3,0.5,0.4,0.9,0.8,1.3
				c0.2,0.2,1.3,0.8,1.4,0.9c0.5,0.8,0.2,1.6,0.8,2.5c0.8,1.1,2.6,1.6,3.7,2.1c0.1-0.5,0.1-0.9,0.2-1.4c-5,2-11-4-13.4-7.6
				c-0.5-0.8-1.8-0.1-1.3,0.8c2.8,4.3,9.5,10.7,15.1,8.3c0.5-0.2,0.8-1.1,0.2-1.4c-1.8-0.9-3.4-1.6-3.6-3.9c0-0.3-0.2-0.7-0.6-0.7
				c-3-0.5-1.3-1.6-2.3-2.8c-0.7-0.9-2.5-1.3-3.5-1.7C185.6,166,184.8,167.3,185.7,167.7L185.7,167.7z"/>
		</g>
	</g>
	<g id="XMLID_819_">
		<g id="XMLID_816_">
			<path id="XMLID_821_" class="st5" d="M173.8,168.8c1.5-3.7,0.1-8.6-4.5-8.8c-5.7-0.3-5.2,5.2-4.8,9.1c1-1,2-2,3-3
				c-0.4,0-2.6-2.6-3.2-2.9c-1.7-0.8-3.2-0.6-5-0.3c-2.3,0.5-2.8,3.5-1.3,5c1,0.9,1.8,2,2.4,3.2c0.5,0.9,1.6,1.5,2.6,1.5
				c3.7,0,9.3,1.1,12.7-0.2c1.4-0.5,2.4-1.7,3.6-2.7c1.4-1.1,5.5-2.7,4.2-4.9c0.6-1.5,1.2-2.9,1.8-4.4c-1.3,0.4-2.7,0.7-4,1.1
				c0.5,1.9,1.1,3.9,1.6,5.8c1.4-0.5,2.8-0.8,4.3-1c2.2-0.3,3.8-2.4,2.6-4.5c-1.8-3.1-0.5-5.6-4.6-6.7c-5-1.4-10.9-1.1-16-1.4
				c-6-0.3-21.4-2-21,7.6c0.2,3.9,5.6,3.8,6,0c0.1-0.7,0.2-1.3,0.2-2c0.3-2.4-2.7-3.5-4.5-2.6c-2.6,1.3-3.7,3.4-3.7,6.2
				c1.9-0.5,3.7-1,5.6-1.5c-0.2-0.3-0.3-0.6-0.5-0.9c-1.5-2.8-5.4-1.3-5.6,1.5c-0.6,7,8.7,4.3,12.4,6.5c0.8-1.8,1.5-3.7,2.3-5.5
				c-0.7-0.1-3.4-1.3-3.7-1.1c0.2,0.6,0.4,1.1,0.6,1.7c0.6,0,1.3-0.1,1.9-0.1c2.7,0.4,5.7,0.1,8.4,0.2c5.2,0.2,10.3,0.4,15.5,0.7
				c-0.5-1.9-1-3.7-1.5-5.6c-2.2,1.3-4.7,3.2-7.1,4c1,0.3,1.9,0.5,2.9,0.8c-0.6-0.6-0.7-1.8-1.5-2.4c-1.3-1-3.1-0.9-4.6-0.9
				c-5.5-0.2-11-0.3-16.5-0.4c-3.9-0.1-3.9,5.9,0,6c3.7,0.1,7.3,0.2,11,0.3c1.3,0,4.3-0.3,5.5,0.1c1,0.4,0.2,0.3,1.4,1.1
				c4.1,2.9,8.2-1.2,12-3.4c2.7-1.5,1.4-5.5-1.5-5.6c-5.2-0.2-10.3-0.4-15.5-0.7c-4.4-0.2-10.5-1.2-14.6,0.6c-2,0.9-3.3,2.9-2.8,5.1
				c0.8,3.3,5.7,4.8,8.6,5.4c3.2,0.6,5.4-3.7,2.3-5.5c-1.6-1-3.3-1.7-5.1-2c-0.9-0.2-1.7-0.2-2.6-0.2c-0.5,0-1,0-1.4,0.1
				c-0.9-0.1-1,0.2-0.2,0.8c-1.9,0.5-3.7,1-5.6,1.5c0.2,0.3,0.3,0.6,0.5,0.9c1.4,2.6,5.6,1.4,5.6-1.5c0.2-0.3,0.5-0.7,0.7-1
				c-1.5-0.9-3-1.7-4.5-2.6c-0.1,0.7-0.2,1.3-0.2,2c2,0,4,0,6,0c-0.2-3.2,17.3-1.6,19.5-1.4c2.8,0.2,6.2,0,8.9,0.8
				c0.4-1.1,0.6-1.2,0.6-0.3c0,0.5,0.1,0.9,0.2,1.4c0.3,1.1,0.8,2,1.3,3c0.9-1.5,1.7-3,2.6-4.5c-2.1,0.2-3.9,0.6-5.9,1.2
				c-3.7,1.2-2.2,6.8,1.6,5.8c1.3-0.4,2.7-0.7,4-1.1c1.9-0.5,2.8-2.7,1.8-4.4c-2.3-4-6.3-1.6-9.2,0.4c-1.6,1.1-3.9,3.9-5.7,4.5
				c-2.8,1-7.9,0-10.8,0c0.9,0.5,1.7,1,2.6,1.5c-0.9-1.7-1.9-3.1-3.3-4.4c-0.4,1.7-0.9,3.3-1.3,5c0.8-0.2,2.6,2.2,3.4,2.7
				c1.1,0.7,1.8,0.8,3.2,0.7c1.5,0,3.1-1.3,3-3c0-0.6-0.1-1.2-0.2-1.8c0-1-0.7-1-2.2,0C166.6,170.8,172.4,172.4,173.8,168.8
				L173.8,168.8z"/>
		</g>
	</g>
	<g id="XMLID_826_">
		<g id="XMLID_809_">
			<path id="XMLID_814_" class="st5" d="M187.6,163.9c-0.1,0.6,0,1.1,0.2,1.7c0.2,0.8,1.5,0.7,1.5-0.2c0-0.9,0-1.7,0-2.6
				c-0.5,0.1-1,0.1-1.5,0.2c0.2,0.9,0.3,1.8,0.2,2.7c-0.1,1,1.4,1,1.5,0c0.1-1.1,0-2.1-0.3-3.1c-0.2-0.8-1.5-0.6-1.5,0.2
				c0,0.9,0,1.7,0,2.6c0.5-0.1,1-0.1,1.5-0.2c-0.1-0.4-0.2-0.8-0.1-1.3C189.2,162.9,187.7,162.9,187.6,163.9L187.6,163.9z"/>
		</g>
	</g>
	<g id="XMLID_833_">
		<g id="XMLID_802_">
			<path id="XMLID_807_" class="st5" d="M175.2,185.1C175.3,185.1,175.3,185.1,175.2,185.1c0.9-0.1,0.7-1.6-0.1-1.5
				c-2.3,0.3-4.6,0.5-6.9,0.5c-1.9,0-6.3,0.3-7.9-0.7c0.1,0.4,0.1,0.8,0.2,1.2c-0.3,0-0.5,0-0.8,0.1c0.8,0.5,1.6-0.8,0.8-1.3
				c0,0-0.1,0-0.1,0c-0.3-0.2-0.7-0.1-0.9,0.1c0,0-0.1,0.1-0.1,0.1c-0.3,0.4-0.3,0.9,0.2,1.2c1.6,1,4.6,0.8,6.4,0.9
				c3.1,0.1,6.2,0,9.2-0.4c-0.1-0.5-0.1-1-0.2-1.5c0,0-0.1,0-0.1,0C173.9,183.8,174.3,185.2,175.2,185.1L175.2,185.1z"/>
		</g>
	</g>
	<g id="XMLID_840_">
		<g id="XMLID_795_">
			<path id="XMLID_800_" class="st5" d="M176.1,183.7c-0.3-0.3-0.8-0.3-1.1-0.2c-0.9,0.3-0.5,1.7,0.4,1.4c-0.1-0.1-0.1-0.1,0,0
				c0.3,0.2,0.8,0.1,1-0.3C176.6,184.4,176.5,184,176.1,183.7L176.1,183.7z"/>
		</g>
	</g>
	<g id="XMLID_847_">
		<g id="XMLID_788_">
			<path id="XMLID_793_" class="st5" d="M166.9,182.9c0.8,0,1.6,0,2.4,0c1.4,0,2.2-2.1,0.8-2.8c-1.5-0.7-3.4-1.2-4.6,0.2
				c-0.9,1-0.8,2.8,0.3,3.6c2.3,1.6,9.3,0.2,7.6-3.7c-1.2-2.8-6.2-1.3-5.6,1.7c0.4,1.6,2.4,2.5,3.9,2.3c2-0.1,3.3-1.6,3.7-3.5
				c-1-0.1-2-0.3-2.9-0.4c0,1.4,0.4,2.2,0.9,3.4c0.1-0.6,0.2-1.2,0.2-1.8c-0.9,0.8-4.4,0.3-5.7,0.3c-1.8,0-4.2,0.3-6-0.3
				c0.3,0.3,0.7,0.7,1,1c-0.2-0.7-0.1-1.4,0.1-2.1c-0.3,0.3-0.7,0.7-1,1c1.8-0.3,4,0.3,5.7,0.4c1.9,0.1,3.8,0,5.6-0.1
				c1.6-0.1,2.2-2.7,0.4-2.9c-3.1-0.5-8-1.5-10.7,0.6c-1.5,1.2-1.3,4,1.1,3.8c1.9-0.2,2-3.1,0-3c-0.3,0-0.5,0-0.8,0
				c-1.9,0.1-1.9,3.1,0,3c0.3,0,0.5,0,0.8,0c0-1,0-2,0-3c0.5,1.3,1.3,1.7,2.3,1.2c0.8-0.1,1.5-0.2,2.3-0.1c1.4,0,2.8,0.3,4.2,0.5
				c0.1-1,0.3-2,0.4-2.9c-2.2,0.1-4.4,0.1-6.7,0c-1.8-0.1-3.7-0.5-5.5-0.2c-0.5,0.1-0.9,0.6-1,1c-0.4,1.1-0.6,3,0.1,4.1
				c0.9,1.2,2.9,1,4.2,1c2.9,0.1,8.9,1,11.3-1.1c0.5-0.5,0.5-1.2,0.2-1.8c-0.3-0.6-0.4-1.2-0.5-1.9c0-1.7-2.6-2.1-2.9-0.4
				c-1,1-2.2,1.5-3.5,1.5c-1.1-0.3-1.2,0.1-0.4,1.2c0.3-0.9,0.5-1.9,0.8-2.8c-0.8,0-1.6,0-2.4,0C165,180,165,183,166.9,182.9
				L166.9,182.9z"/>
		</g>
	</g>
	<g id="XMLID_854_">
		<g id="XMLID_781_">
			<path id="XMLID_786_" class="st5" d="M158.1,208c0.2-5,3.5-9.1,8.3-10.7c4.2-1.3,12.3-1.2,15.4,2.5c2.6,3.1,3.5,7.8,4.3,11.7
				c0.4,2.1,0.8,4.2,1,6.3c0.4,3.3,0.9,4.9-1,7.8c-1.9,2.9-3,2.7-6.1,3c-1.8,0.2-3.7,0.2-5.5,0.3c-3.6,0.1-7.5,0.3-11-0.2
				c-3.6-0.6-4.6-1.8-5-5.7c-0.2-1.8-0.3-3.6-0.4-5.4c-0.1-3.6,0.1-7.2,0.2-10.9c0-1-1.5-1-1.5,0c-0.3,6.4-1.1,13.7,0.7,20
				c1.1,3.8,4.3,3.3,7.8,3.5c6.2,0.3,13.5,0.9,19.6-0.7c3.8-1,4.4-3.5,4.1-7.2c-0.4-6.3-1.4-13.1-3.6-19.1c-1.7-4.6-5-6.7-9.7-7.7
				c-8.8-1.8-18.6,2.6-19.1,12.4C156.6,208.9,158.1,208.9,158.1,208L158.1,208z"/>
		</g>
	</g>
</g>
<g id="cup">
	<g id="XMLID_70_">
		<g id="XMLID_774_">
			<path id="XMLID_911_" class="st6" d="M-6,108.1c3.3,0,6.5,0.1,9.8,0.3c1.5,0.1,3,0.2,4.5,0.4c1,0.1,2.1,0.2,3.1,0.3
				c2.1,1.6,2.7,3.5,2,5.7c-0.1,0.9,1.3,1.4,1.4,0.4c0.5-3.2,0.4-6.3-3.1-7.5c-2.2-0.7-5-0.6-7.2-0.7c-3.5-0.2-7-0.4-10.6-0.4
				C-7,106.6-7,108.1-6,108.1L-6,108.1z"/>
		</g>
	</g>
	<g id="XMLID_77_">
		<g id="XMLID_230_">
			<path id="XMLID_772_" class="st6" d="M-7.4,106.9c-5.3-0.2-10.7-0.1-16,0.4c-1,0.1-1,1.6,0,1.5c5.3-0.5,10.7-0.6,16-0.4
				C-6.4,108.4-6.4,106.9-7.4,106.9L-7.4,106.9z"/>
		</g>
	</g>
	<g id="XMLID_84_">
		<g id="XMLID_222_">
			<path id="XMLID_228_" class="st6" d="M-24,107.5c-2.6,1-2.2,4.4-2,6.6c0.1,1,1.6,1,1.5,0c-0.1-1.3-0.7-4.6,0.9-5.2
				C-22.7,108.6-23.1,107.1-24,107.5L-24,107.5z"/>
		</g>
	</g>
	<g id="XMLID_175_">
		<g id="XMLID_216_">
			<path id="XMLID_220_" class="st6" d="M13.1,115.5c-12.9,0.3-25.7,0.8-38.5-0.2c-1-0.1-1,1.4,0,1.5c12.8,1,25.7,0.5,38.5,0.2
				C14.1,117,14.1,115.5,13.1,115.5L13.1,115.5z"/>
		</g>
	</g>
	<g id="XMLID_98_">
		<g id="XMLID_210_">
			<path id="XMLID_214_" class="st6" d="M11.1,109.1c-11.6,0.6-23.2,0.6-34.8-0.2c-1-0.1-1,1.4,0,1.5c11.6,0.8,23.2,0.8,34.8,0.2
				C12.1,110.5,12.1,109,11.1,109.1L11.1,109.1z"/>
		</g>
	</g>
	<g id="XMLID_105_">
		<g id="XMLID_204_">
			<path id="XMLID_208_" class="st6" d="M11.5,117.1c-0.9,4.3-1.6,8.6-2.1,13c-0.5,5,0,10.2-0.9,15.1c-0.2,0.9,1.3,1.4,1.4,0.4
				c0.7-3.9,0.3-7.9,0.6-11.8c0.4-5.5,1.2-10.9,2.4-16.3C13.2,116.6,11.7,116.2,11.5,117.1L11.5,117.1z"/>
		</g>
	</g>
	<g id="XMLID_119_">
		<g id="XMLID_198_">
			<path id="XMLID_202_" class="st6" d="M-24.2,117c1.5,6.9,2.9,13.9,4.4,20.8c1.1,5.1,1.6,10.6,4.5,15c0.5,0.8,1.8,0.1,1.3-0.8
				c-3.1-4.7-3.6-11.1-4.7-16.5c-1.3-6.3-2.7-12.6-4-18.9C-23,115.7-24.4,116.1-24.2,117L-24.2,117z"/>
		</g>
	</g>
	<g id="XMLID_126_">
		<g id="XMLID_191_">
			<path id="XMLID_195_" class="st6" d="M8.9,145.2c-0.2,1.1-0.5,2.1-0.9,3.2c-0.9,2.2-2.4,3.1-4.4,2.7c-1.8,0.4-3.9,0.1-5.7,0.1
				c-1.5,0-13.1,0-13.1,0c-0.1-1-1.6-1-1.5,0c0,0.1,0,0.2,0,0.3c0,0.2,0.1,0.5,0.4,0.6c2,0.8,4.4,0.4,6.5,0.5
				c4.1,0.1,8.3,0.1,12.4,0c5.5-0.1,6.4-1.3,7.7-7C10.5,144.7,9.1,144.3,8.9,145.2L8.9,145.2z"/>
		</g>
	</g>
	<g id="XMLID_133_">
		<g id="XMLID_184_">
			<path id="XMLID_188_" class="st6" d="M10.1,123.8c-10.8,1.9-21.7,2.2-32.6,1.1c-1-0.1-1,1.4,0,1.5c11.1,1.1,22.1,0.7,33-1.2
				C11.4,125.1,11,123.6,10.1,123.8L10.1,123.8z"/>
		</g>
	</g>
	<g id="XMLID_140_">
		<g id="XMLID_178_">
			<path id="XMLID_182_" class="st6" d="M9.8,134.3c-9.9,1.3-19.8,1.2-29.6-0.3c-0.9-0.1-1.4,1.3-0.4,1.4c10,1.5,20,1.7,30,0.4
				C10.8,135.6,10.8,134.1,9.8,134.3L9.8,134.3z"/>
		</g>
	</g>
	<g id="XMLID_147_">
		<g id="XMLID_171_">
			<path id="XMLID_176_" class="st6" d="M-5,115.4c5-0.1,10.6,0.5,15.5-0.4c2.4-0.4,3.7-1.8,3.4-4.2c-0.2-1.9-3.1-1.9-3,0
				c0.2,1.3,0.1,2.6-0.2,3.8c0.5-0.4,1-0.7,1.4-1.1c-6.1,0-12.3,0-18.4-0.1c-2.9-0.1-5.8-0.2-8.7-0.3c-3.1-0.1-7.3,0.8-7.4-3.3
				c-0.5,0.5-1,1-1.5,1.5c11.5-0.1,23.1-0.1,34.6-0.2c-0.5-0.5-1-1-1.5-1.5c0,0.5,0,1-0.1,1.5c0.5-0.5,1-1,1.5-1.5
				c-11.3,0.2-22.7,0.4-34,0.7c-1.7,0-2,2.4-0.4,2.9c6.5,2.2,13.2,1.8,20,1.1c1.9-0.2,2-2.9,0-3c-0.8,0-1.7-0.1-2.5-0.1
				c-1.9-0.1-1.9,2.9,0,3c0.8,0,1.7,0.1,2.5,0.1c0-1,0-2,0-3c-6.5,0.7-12.9,1.2-19.2-1c-0.1,1-0.3,2-0.4,2.9
				c11.3-0.2,22.7-0.4,34-0.7c0.8,0,1.5-0.7,1.5-1.5c0-0.5,0-1,0.1-1.5c0-0.8-0.7-1.5-1.5-1.5c-11.5,0.1-23.1,0.1-34.6,0.2
				c-0.8,0-1.5,0.7-1.5,1.5c0,1.6-0.3,4.4,1.3,5.6c1.9,1.4,7,0.7,9.1,0.7c9,0.4,18.1,0.5,27.1,0.4c0.6,0,1.3-0.5,1.4-1.1
				c0.3-1.6,0.5-3,0.3-4.6c-1,0-2,0-3,0c0.2,2-14.1,1.5-16,1.6C-7,112.4-7,115.4-5,115.4L-5,115.4z"/>
		</g>
	</g>
	<g id="XMLID_154_">
		<g id="XMLID_164_">
			<path id="XMLID_169_" class="st6" d="M1,128.1c-3.6-0.3-7.1-0.4-10.7-0.3c-1.6,0-1.9,2-0.8,2.8c7.1,5.1,14.5,1.8,21-2.6
				c-0.7-0.7-1.4-1.4-2.1-2.1c-1.7,2.4-2.3,4.6-2.1,7.5c0.5-0.5,1-1,1.5-1.5c-4.5,0.4-9.1,0.6-13.6,0.4c-1.9-0.1-3.9-0.2-5.8-0.4
				c-1.8-0.2-3.6-0.4-5.4-0.7c-0.8-1.2-1.2-2.5-1.4-3.9c-0.5,0.6-1,1.3-1.4,1.9c9.3,0.8,18.6,0.4,27.9-1c-0.4-0.9-0.8-1.8-1.2-2.7
				c-1.8,0.9-3.7,1.9-5.5,2.8c-1,0.5-1,2.1,0,2.6c1.4,0.8,2.9,1.4,4.4,2.1c0.1-1,0.3-2,0.4-2.9c-7.8-0.2-15.6-0.5-23.4-0.7
				c-1.9-0.1-1.9,2.9,0,3c7.8,0.2,15.6,0.5,23.4,0.7c1.8,0.1,1.9-2.4,0.4-2.9c-1.3-0.5-2.5-1.1-3.7-1.8c0,0.9,0,1.7,0,2.6
				c1.8-0.9,3.7-1.9,5.5-2.8c1.6-0.8,0.4-3-1.2-2.7c-9,1.4-18,1.7-27.1,0.9c-1-0.1-1.7,1-1.4,1.9c1.3,5.5,2.2,6,7.8,6.6
				c7.1,0.8,14.2,0.8,21.3,0.2c0.8-0.1,1.6-0.6,1.5-1.5c-0.2-2.2,0.4-4.2,1.7-6c0.9-1.2-0.8-2.9-2.1-2.1C3.4,129.2-2.7,132.5-9,128
				c-0.3,0.9-0.5,1.9-0.8,2.8c3.6-0.1,7.1,0,10.7,0.3C2.9,131.3,2.9,128.3,1,128.1L1,128.1z"/>
		</g>
	</g>
	<g id="XMLID_161_">
		<g id="XMLID_157_">
			<path id="XMLID_162_" class="st6" d="M-16.5,133.4c0-0.1,0-0.1,0-0.2c0-0.8-0.7-1.5-1.5-1.5c-0.8,0-1.5,0.7-1.5,1.5
				c0,0.1,0,0.1,0,0.2c0,0.8,0.7,1.5,1.5,1.5C-17.2,134.9-16.5,134.2-16.5,133.4L-16.5,133.4z"/>
		</g>
	</g>
	<g id="XMLID_91_">
		<g id="XMLID_145_">
			<path id="XMLID_155_" class="st6" d="M-22.4,113.1c-0.7,0-1.4,0-2.2,0c-0.8,0-1.5,0.7-1.5,1.5c0,0.8,0.7,1.5,1.5,1.5
				c0.7,0,1.4,0,2.2,0c0.8,0,1.5-0.7,1.5-1.5C-20.9,113.8-21.5,113.1-22.4,113.1L-22.4,113.1z"/>
		</g>
	</g>
	<g id="XMLID_112_">
		<g id="XMLID_138_">
			<path id="XMLID_143_" class="st7" d="M11.7,108.6c-11.7,1.2-23.4,1-35-0.6c-1-0.1-0.9,1.4,0,1.5c11.7,1.5,23.3,1.7,35,0.6
				C12.6,110,12.7,108.5,11.7,108.6L11.7,108.6z"/>
		</g>
	</g>
</g>
<g id="fork">
	<g id="XMLID_1183_">
		<g id="XMLID_134_">
			<g id="XMLID_334_">
				<path id="XMLID_400_" class="st8" d="M43.6,42.1c-1.6-0.2-3.2-0.5-4.7-0.9c-0.9-0.3-1.3,1.2-0.4,1.4c1.7,0.5,3.4,0.8,5.1,1
					C44.6,43.7,44.6,42.2,43.6,42.1L43.6,42.1z"/>
			</g>
		</g>
		<g id="XMLID_149_">
			<g id="XMLID_309_">
				<path id="XMLID_322_" class="st8" d="M43.3,43.8c1,0.5-3.7,19.5-4.1,21.4c-0.7,3.5-1.5,7-2.3,10.5c-0.5,2-1.6,4.5-1.2,6.5
					c0.1,0.5,0.7,0.7,1.1,0.4c0.1,0,0.1-0.1,0.2-0.1c0.3-0.2,0.5-0.7,0.3-1c0,0,0-0.1-0.1-0.1c-0.5-0.8-1.8-0.1-1.3,0.8
					c0.6,1,2.2-4.7,2.3-5.2c0.4-1.6,0.7-3.2,1.1-4.8c0.7-3.2,1.4-6.3,2-9.5c1.3-6.4,2.6-12.7,3.8-19.1c0.1-0.3,0-0.7-0.3-0.8
					c-0.2-0.1-0.4-0.2-0.6-0.3C43.2,42.1,42.4,43.4,43.3,43.8L43.3,43.8z"/>
			</g>
		</g>
		<g id="XMLID_150_">
			<g id="XMLID_298_">
				<path id="XMLID_307_" class="st8" d="M38.6,42.2c-1,0.9-1.5,2-1.5,3.2c-0.1,0.9-0.2,1.9-0.3,2.8c-0.2,1.8-0.5,3.6-0.7,5.4
					c-0.5,3.4-1.1,6.8-1.6,10.2c-0.9,5.7-2.2,11.7-1.8,17.5c0,0.3,0.2,0.6,0.6,0.7c2.1,0.5,1.6,0.4,3.7,0.5c0.3,0,0.7-0.2,0.7-0.6
					c0.5-3.4,0.9-6.8,1.4-10.2c0.1-0.9-1.3-1.4-1.4-0.4c-0.3,2-0.1,5-0.9,6.8c0.4,1.6-0.1,2.1-1.4,1.5c-1.4,0.2-1.8-0.4-1.1-1.9
					c-0.4-2,0.6-5.2,0.8-7.2c0.3-2.5,0.7-4.9,1.1-7.4c0.7-4.3,1.4-8.7,2-13c0.3-2.4,1.4-6,0.8-8.3c-0.1-0.4-0.5-0.7-0.9-0.5
					c-0.1,0-0.1,0-0.2,0.1c-0.4,0.1-0.6,0.5-0.5,0.9c0,0,0,0.1,0,0.1C37.3,43.5,38.7,43.1,38.6,42.2L38.6,42.2z"/>
			</g>
		</g>
		<g id="XMLID_151_">
			<g id="XMLID_290_">
				<path id="XMLID_296_" class="st8" d="M37.1,64.4c-0.7,3.9-1.4,7.8-1.9,11.7c-0.1,0.9,1.3,1.4,1.4,0.4c0.6-3.6,0.9-7.2,0.9-10.9
					c0-0.7-1-1-1.4-0.4c-2,3.5-2.1,7.1-2,11.1c0,1,1.5,1,1.5,0c0-2.3,0.1-4.3,0.6-6.6c0.2-0.9-1.1-1.3-1.4-0.4
					c-1,3-3.1,7.5-0.7,10.2c0.3,0.3,1,0.3,1.2-0.2c0.7-1.4,0.9-2.5,0.9-4.1c0-0.7-1.1-1.1-1.4-0.4c-0.8,1.9-1.2,3.4-1.3,5.4
					c0,0.8,1,1,1.4,0.4c0.8-1.1,1.2-2.1,1.6-3.5c-0.5-0.1-1-0.3-1.4-0.4c-0.1,0.9-0.3,1.9-0.4,2.8c-0.1,0.8,1,1.4,1.4,0.6
					c1.3-2.9,1.5-6.1,2.1-9.2c0.9-4.4,2.1-8.7,2.9-13.2c0.6-3.6,1-7.1,0.8-10.8c-0.2-3.4-0.2,1-0.4,2.2c-0.4,2.4-0.9,4.9-1.5,7.3
					c0.5,0.1,1,0.1,1.5,0.2c0-2.8,2.8-11.6-1.2-13.6c-3.1-1.6-3,2.5-3.5,4.3c0.5,0.1,1,0.3,1.4,0.4c0.2-1,0.5-2.1,0.7-3.1
					c-0.5,0-1,0-1.4,0c0.9,3.7-0.5,7.8-0.9,11.6c-0.5,3.7-0.6,7.3-0.2,11c0.1,0.9,1.5,1,1.5,0c0.1-3.3,0.3-6.6,0.6-9.8
					c0.3-2.3,0.9-11.5,3.7-12.5c-0.3-0.3-0.6-0.6-0.9-0.9c-0.7,2-1.5,4-2.4,5.9c0.5,0.1,0.9,0.3,1.4,0.4c0-1.8,0-3.5,0-5.3
					c0-0.8-1.3-1.1-1.5-0.2c-1.2,6.9-2.9,14-3.3,21c0,0.9,1.2,0.9,1.5,0.2c2.3-5.6,3.5-11.2,3.7-17.2c0-0.8-1.4-1-1.5-0.2
					c-1.6,10.8-3.2,21.6-5,32.4c-0.2,0.9,1.3,1.4,1.4,0.4c1.8-10.8,3.4-21.6,5-32.4c-0.5-0.1-1-0.1-1.5-0.2
					C39,54.4,37.8,60,35.5,65.4c0.5,0.1,1,0.1,1.5,0.2c0.4-6.8,2.1-13.8,3.2-20.6c-0.5-0.1-1-0.1-1.5-0.2c0,1.8,0,3.5,0,5.3
					c0,0.7,1.1,1.1,1.4,0.4c1-2,1.9-4.1,2.6-6.2c0.2-0.5-0.4-1.1-0.9-0.9c-2.9,1-3.3,5-3.9,7.6c-1.2,5.3-1.4,10.8-1.6,16.2
					c0.5,0,1,0,1.5,0c-0.5-4.9,0-9.6,0.7-14.5c0.4-2.8,1.1-5.7,0.4-8.5c-0.2-0.7-1.3-0.7-1.4,0c-0.2,1-0.5,2.1-0.7,3.1
					c-0.2,0.9,1.2,1.3,1.4,0.4c0.2-0.4,0.3-0.9,0.4-1.3c2.3,1.2,2.9,3,1.9,5.3c-0.2,1.7-0.5,3.2-0.5,4.9c0,0.8,1.3,1,1.5,0.2
					c0.9-4.2,1.7-8.5,2.3-12.8c0-0.3,0-0.7-0.3-0.8c-4.6-2.1-2.9,6.2-3,8.2c-0.3,4.7-1.4,9.3-2.5,13.8c-1,4.5-1.2,9.9-3.2,14.1
					c0.5,0.2,0.9,0.4,1.4,0.6c0.1-0.9,0.3-1.9,0.4-2.8c0.1-0.9-1.2-1.4-1.4-0.4c-0.2,1.2-0.7,2.2-1.4,3.1c0.5,0.1,0.9,0.3,1.4,0.4
					c0.4-1.6,0.7-3.1,1.1-4.7c-0.5-0.1-0.9-0.3-1.4-0.4c0-1.8,0.9-3.8,1.5-5.5c-0.5-0.1-1-0.3-1.4-0.4c-0.5,2.4-0.7,4.6-0.6,7
					c0.5,0,1,0,1.5,0c-0.1-3.6,0-7,1.8-10.3c-0.5-0.1-0.9-0.3-1.4-0.4c0,3.6-0.3,7-0.9,10.5c0.5,0.1,1,0.3,1.4,0.4
					c0.6-3.9,1.2-7.8,1.9-11.7C38.8,63.8,37.3,63.4,37.1,64.4L37.1,64.4z"/>
			</g>
		</g>
		<g id="XMLID_153_">
			<g id="XMLID_282_">
				<path id="XMLID_286_" class="st8" d="M40.8,44.6c0.1-0.2,0.3-0.4,0.4-0.6c-0.5-0.2-0.9-0.4-1.4-0.6C38.9,49.5,36,55,35,61
					c-0.1,0.5,0.2,0.9,0.7,0.9c2.9,0,3.9-2.1,4.5-4.7c0.2-0.9-1.1-1.3-1.4-0.4c-0.1,0.2-0.1,0.4-0.2,0.5c-0.3,0.9,1.2,1.3,1.4,0.4
					c0.1-0.2,0.1-0.4,0.2-0.5c-0.5-0.1-1-0.3-1.4-0.4c-0.2,1.7-1.2,2.9-3.1,3.6c0.2,0.3,0.5,0.6,0.7,0.9c1-6,3.9-11.5,4.8-17.6
					c0.1-0.8-0.9-1.4-1.4-0.6c-0.1,0.2-0.3,0.4-0.4,0.6C39,44.7,40.3,45.5,40.8,44.6L40.8,44.6z"/>
			</g>
		</g>
		<g id="XMLID_168_">
			<g id="XMLID_275_">
				<path id="XMLID_279_" class="st8" d="M39.2,42.7c0,0-0.1,0-0.1,0c-0.9-0.2-1.3,1.3-0.4,1.4c0,0,0.1,0,0.1,0
					C39.8,44.3,40.2,42.9,39.2,42.7L39.2,42.7z"/>
			</g>
		</g>
		<g id="XMLID_189_">
			<g id="XMLID_268_">
				<path id="XMLID_272_" class="st8" d="M39.1,42.5c-0.1-0.1-0.3-0.2-0.4-0.3c-0.3-0.2-0.8,0-1,0.3c-0.2,0.4-0.1,0.8,0.3,1
					c0.1,0.1,0.3,0.2,0.4,0.3c0.3,0.2,0.8,0,1-0.3C39.6,43.1,39.4,42.7,39.1,42.5L39.1,42.5z"/>
			</g>
		</g>
		<g id="XMLID_224_">
			<g id="XMLID_261_">
				<path id="XMLID_265_" class="st8" d="M43.7,39.3c-0.2,1.2-0.4,2.4-0.6,3.6c-0.1,0.9,1.3,1.4,1.4,0.4c0.2-1.2,0.4-2.4,0.6-3.6
					C45.3,38.7,43.9,38.3,43.7,39.3L43.7,39.3z"/>
			</g>
		</g>
		<g id="XMLID_231_">
			<g id="XMLID_257_">
				<path id="XMLID_308_" class="st8" d="M39,38.3c-0.2,1.2-0.5,2.5-0.8,3.7c-0.2,0.9,1.2,1.3,1.4,0.4c0.3-1.2,0.6-2.4,0.8-3.7
					C40.6,37.8,39.1,37.4,39,38.3L39,38.3z"/>
			</g>
		</g>
		<g id="XMLID_238_">
			<g id="XMLID_328_">
				<path id="XMLID_398_" class="st8" d="M44.7,39.9C50.5,39.5,55,32.3,55.8,27c0.8-5.5-2.6-14.2-8.3-15.9c-5.9-1.8-11.9,3-14.1,8.2
					c-1.3,3.2-1.5,6.7-0.6,10c0.5,1.6,1.2,3.2,2.3,4.6c1.1,1.5,3.6,2.9,3.9,4.8c0.2,0.9,1.6,0.5,1.4-0.4c-0.6-3.4-4.7-5.1-6-8.7
					c-2.2-6.2,0.7-14.1,7.1-16.5c7.7-2.9,12.7,5.6,12.7,12.3c0,4.9-4,12.7-9.5,13C43.7,38.5,43.7,40,44.7,39.9L44.7,39.9z"/>
			</g>
		</g>
		<g id="XMLID_364_">
			<g id="XMLID_478_">
				<path id="XMLID_482_" class="st8" d="M79.8,25.4c0.7,1,1.2,2.1,1.4,3.3c0.2,0.9,1.6,0.5,1.4-0.4c-0.3-1.3-0.8-2.6-1.6-3.7
					C80.5,23.9,79.2,24.6,79.8,25.4L79.8,25.4z"/>
			</g>
		</g>
		<g id="XMLID_371_">
			<g id="XMLID_467_">
				<path id="XMLID_473_" class="st8" d="M81.7,28.4c-5.5,1.8-11,3.7-16.4,5.5c-0.9,0.3-0.5,1.8,0.4,1.4c5.5-1.8,11-3.7,16.4-5.5
					C83,29.5,82.6,28,81.7,28.4L81.7,28.4z"/>
			</g>
		</g>
		<g id="XMLID_378_">
			<g id="XMLID_459_">
				<path id="XMLID_465_" class="st8" d="M79.7,24.3c-6.4,3.1-13.3,3.8-19.6,7c-0.9,0.4-0.1,1.7,0.8,1.3c6.3-3.2,13.3-3.9,19.6-7
					C81.3,25.2,80.5,23.9,79.7,24.3L79.7,24.3z"/>
			</g>
		</g>
		<g id="XMLID_385_">
			<g id="XMLID_451_">
				<path id="XMLID_457_" class="st8" d="M63.9,33.8c-1-0.5-2.1-1-3.2-1.4c-0.9-0.3-1.3,1.1-0.4,1.4c1,0.4,1.9,0.8,2.9,1.2
					C64.1,35.6,64.8,34.3,63.9,33.8L63.9,33.8z"/>
			</g>
		</g>
		<g id="XMLID_392_">
			<g id="XMLID_444_">
				<path id="XMLID_449_" class="st8" d="M63.8,35c-1-0.3-2-0.7-3-1.1c-0.9-0.4-1.6,0.9-0.8,1.3c1.1,0.5,2.2,0.9,3.4,1.3
					C64.3,36.8,64.7,35.3,63.8,35L63.8,35z"/>
			</g>
		</g>
		<g id="XMLID_399_">
			<g id="XMLID_438_">
				<path id="XMLID_442_" class="st8" d="M63,36.5c-0.9-0.4-1.8-0.8-2.6-1.2c-0.9-0.4-1.6,0.9-0.8,1.3c1,0.5,2,0.9,3,1.3
					c0.4,0.2,0.8-0.2,0.9-0.5C63.7,37,63.4,36.7,63,36.5L63,36.5z"/>
			</g>
		</g>
		<g id="XMLID_225_">
			<g id="XMLID_431_">
				<path id="XMLID_436_" class="st8" d="M64,35.1c-3.4,13.5-4.8,27.4-8.9,40.7c-0.3,0.9,1.2,1.3,1.4,0.4C60.6,62.9,62,49,65.4,35.5
					C65.7,34.6,64.2,34.2,64,35.1L64,35.1z"/>
			</g>
		</g>
		<g id="XMLID_232_">
			<g id="XMLID_424_">
				<path id="XMLID_429_" class="st8" d="M59.7,33.4c-2.8,13.6-5.6,27.3-8.3,40.9c-0.2,0.9,1.3,1.3,1.4,0.4
					c2.8-13.6,5.5-27.3,8.3-40.9C61.3,32.8,59.9,32.4,59.7,33.4L59.7,33.4z"/>
			</g>
		</g>
		<g id="XMLID_420_">
			<g id="XMLID_422_">
				<path id="XMLID_474_" class="st8" d="M55.3,74.5c-1.1,0-2.1-0.3-3-1c-0.7-0.6-1.8,0.4-1.1,1.1c1.1,1,2.5,1.6,4,1.5
					C56.3,76,56.3,74.5,55.3,74.5L55.3,74.5z"/>
			</g>
		</g>
		<g id="XMLID_294_">
			<g id="XMLID_469_">
				<path id="XMLID_477_" class="st8" d="M25.9,45.6c-1.6,0.4-3.1,0.7-4.7,0.8c-1,0.1-1,1.6,0,1.5c1.7-0.2,3.4-0.4,5.1-0.9
					C27.3,46.8,26.9,45.3,25.9,45.6L25.9,45.6z"/>
			</g>
		</g>
		<g id="XMLID_288_">
			<g id="XMLID_448_">
				<path id="XMLID_462_" class="st8" d="M26.3,47.3c0.9,0,3.3,18.7,3.7,20.6c0.5,3.2,1,6.4,1.5,9.6c0.4,2.4,0.2,6.2,1.5,8.3
					c0.3,0.5,1,0.4,1.3,0c0,0,0.1-0.1,0.1-0.1c0.2-0.2,0.1-0.7-0.1-0.9c0,0-0.1-0.1-0.1-0.1c-0.7-0.6-1.8,0.5-1.1,1.1
					c0-0.2-0.1-0.5-0.1-0.7c0.4,0,0.9,0,1.3,0c-1.4-2.1-1.2-7.4-1.6-9.8c-0.5-3.2-1-6.4-1.6-9.6c-1.1-6.4-2.2-12.8-3.4-19.2
					c-0.1-0.3-0.4-0.5-0.7-0.6c-0.2,0-0.4,0-0.7,0C25.4,45.7,25.4,47.2,26.3,47.3L26.3,47.3z"/>
			</g>
		</g>
		<g id="XMLID_287_">
			<g id="XMLID_417_">
				<path id="XMLID_434_" class="st8" d="M21.2,47.6c-0.7,1.1-0.8,2.3-0.3,3.4c0.2,0.9,0.5,1.8,0.7,2.7c0.4,1.5,0.7,3.1,1.1,4.6
					c0.8,3.4,1.5,6.8,2.2,10.1c1.3,6,2.3,12.3,4.9,17.9c0.1,0.3,0.5,0.4,0.8,0.3c1.2-0.1,2.4-0.3,3.5-0.8c0.4-0.1,0.6-0.5,0.5-0.9
					c-0.8-3.3-1.6-6.7-2.4-10c-0.2-0.9-1.7-0.5-1.4,0.4c0.5,2.2,1.4,4.5,1.6,6.7c0.2,2,0.2,5.5-2.5,0.6c-1.9-3.4-2.3-8.9-3.1-12.7
					c-1-4.3-1.8-8.6-2.8-12.9c-0.7-2.8-0.9-7.3-2.7-9.6c-0.3-0.4-0.8-0.5-1.2-0.2c0,0-0.1,0.1-0.1,0.1c-0.2,0.2-0.3,0.6-0.1,0.9
					c0,0,0.1,0.1,0.1,0.1C20.5,49.2,21.7,48.4,21.2,47.6L21.2,47.6z"/>
			</g>
		</g>
		<g id="XMLID_280_">
			<g id="XMLID_409_">
				<path id="XMLID_415_" class="st8" d="M27.9,68.8c0.7,3.9,1.5,7.7,2.4,11.6c0.2,0.9,1.6,0.5,1.4-0.4c-0.7-3.5-1.7-7-3-10.3
					c-0.3-0.8-1.4-0.6-1.5,0.2c-0.5,4,0.6,7.2,2.1,10.8c0.4,0.9,1.8,0.5,1.4-0.4c-0.9-2.2-1.5-4.3-1.9-6.6c-0.1-0.8-1.5-0.6-1.5,0.2
					c0.2,3.1-0.2,8.2,3,9.8c0.5,0.3,1.1-0.1,1.1-0.6c0.1-1.5-0.1-2.6-0.6-4c-0.3-0.8-1.4-0.7-1.5,0.2c-0.1,2,0.1,3.4,0.7,5.3
					c0.2,0.6,1.3,0.8,1.4,0c0.4-2.3,0.4-1.5,0.2-3.8c-0.5,0.1-1,0.1-1.5,0.2c0.2,0.9,0.4,1.9,0.6,2.8c0.2,0.8,1.4,0.6,1.5-0.2
					c0.1-3.7-1-7.2-1.6-10.8c-0.7-4.2-1.1-8.4-2-12.5c-0.7-3.3-1.6-6.6-3.1-9.7c-1.3-2.8,0.3,1.6,0.5,2.4c0.5,2.4,0.9,4.9,1.3,7.3
					c0.5-0.1,1-0.3,1.4-0.4c-1.1-3-1.5-11.4-5.8-12.2c-3.5-0.7-2,3.3-1.9,5.1c0.5-0.1,1-0.1,1.5-0.2c-0.2-1.1-0.3-2.1-0.5-3.2
					c-0.5,0.2-0.9,0.4-1.4,0.6c2.3,3.2,2.6,8.2,3.6,12c0.9,3.4,2,6.5,3.6,9.6c0.4,0.7,1.6,0.2,1.4-0.6c-1.2-3.4-2.3-6.8-3.2-10.2
					c-0.7-2.6-3.2-10.2-0.7-12.3c-0.4-0.2-0.9-0.4-1.3-0.5c0.1,2.2,0.1,4.4-0.2,6.6c0.5-0.1,1-0.1,1.5-0.2c-0.6-1.7-1.3-3.3-1.9-5
					c-0.3-0.9-1.6-0.6-1.4,0.4c1.4,6.6,1.9,14.5,4.5,20.7c0.3,0.7,1.4,0.3,1.4-0.4c0.1-6-0.8-11.7-2.7-17.4
					c-0.3-0.9-1.7-0.5-1.4,0.4c2.5,10.6,4.8,21.3,7.1,32c0.2,0.9,1.6,0.5,1.4-0.4c-2.3-10.7-4.6-21.3-7.1-32c-0.5,0.1-1,0.3-1.4,0.4
					c1.9,5.5,2.8,11.1,2.7,17c0.5-0.1,0.9-0.3,1.4-0.4c-2.6-6-3.1-13.9-4.4-20.4c-0.5,0.1-1,0.3-1.4,0.4c0.6,1.7,1.3,3.3,1.9,5
					c0.3,0.8,1.4,0.7,1.5-0.2c0.2-2.2,0.3-4.3,0.2-6.6c0-0.7-0.8-0.9-1.3-0.5c-2.1,1.8-1.2,5.2-0.9,7.6c0.8,5.6,2.6,11,4.4,16.4
					c0.5-0.2,0.9-0.4,1.4-0.6c-2.1-4-3.2-8.2-4.3-12.6c-0.7-3-1.1-6.5-2.9-9.1c-0.5-0.7-1.5-0.3-1.4,0.6c0.2,1.1,0.3,2.1,0.5,3.2
					c0.1,0.8,1.5,0.6,1.5-0.2c0-0.3-0.2-1.1-0.1-1.4c1.5-2.9,2.4,0,3.1,2.1c0.7,2.2,1,4.5,1.8,6.7c0.3,0.9,1.6,0.6,1.4-0.4
					c-0.7-4.3-1.5-8.5-2.4-12.7c-0.1-0.3-0.4-0.5-0.7-0.6c-5.2-0.3,0.2,8.4,0.6,10c1.1,3.8,1.6,7.7,2.2,11.5
					c0.7,5,2.4,10.4,2.3,15.5c0.5-0.1,1-0.1,1.5-0.2c-0.2-0.9-0.4-1.9-0.6-2.8c-0.2-0.8-1.5-0.7-1.5,0.2c-0.1,1.1-0.1,2.3-0.2,3.4
					c0.5,0,1,0,1.4,0C31,82.6,30.8,81,31,79.3c-0.5,0.1-1,0.1-1.5,0.2c0.6,1.1,0.7,2.3,0.5,3.6c0.4-0.2,0.8-0.4,1.1-0.6
					c-2.6-1.3-2.1-6.1-2.2-8.5c-0.5,0.1-1,0.1-1.5,0.2c0.4,2.3,1,4.4,1.9,6.6c0.5-0.1,1-0.3,1.4-0.4c-1.4-3.4-2.5-6.7-2-10.4
					c-0.5,0.1-1,0.1-1.5,0.2c1.3,3.4,2.3,6.8,3,10.3c0.5-0.1,1-0.3,1.4-0.4c-0.9-3.8-1.7-7.7-2.4-11.6
					C29.2,67.5,27.7,67.9,27.9,68.8L27.9,68.8z"/>
			</g>
		</g>
		<g id="XMLID_273_">
			<g id="XMLID_401_">
				<path id="XMLID_405_" class="st8" d="M24.2,49.1c0-0.2,0.1-0.5,0.1-0.7c-0.5,0-1,0-1.4,0c1.3,6,0.7,12.1,1.9,18.1
					c0.1,0.4,0.6,0.6,0.9,0.5c2.9-0.9,3-3.6,2.6-6.2c-0.1-0.8-1.5-0.6-1.5,0.2c0,0.2,0,0.4,0,0.6c0.1,1,1.6,1,1.5,0
					c0-0.2,0-0.4,0-0.6c-0.5,0.1-1,0.1-1.5,0.2c0.6,1.7,0.1,3.2-1.5,4.3c0.3,0.2,0.6,0.3,0.9,0.5c-1.2-6-0.6-12.2-1.9-18.1
					c-0.2-0.7-1.3-0.7-1.4,0c0,0.2-0.1,0.5-0.1,0.7C22.6,49.6,24,50,24.2,49.1L24.2,49.1z"/>
			</g>
		</g>
		<g id="XMLID_266_">
			<g id="XMLID_391_">
				<path id="XMLID_397_" class="st8" d="M21.9,47.8c0,0-0.1,0-0.1,0c-0.9,0.2-0.5,1.6,0.4,1.4c0,0,0.1,0,0.1,0
					C23.2,49,22.8,47.6,21.9,47.8L21.9,47.8z"/>
			</g>
		</g>
		<g id="XMLID_259_">
			<g id="XMLID_383_">
				<path id="XMLID_389_" class="st8" d="M21.9,47.6c-0.2-0.1-0.4-0.1-0.5-0.2c-0.9-0.3-1.3,1.2-0.4,1.4c0.2,0.1,0.4,0.1,0.5,0.2
					C22.4,49.3,22.8,47.9,21.9,47.6L21.9,47.6z"/>
			</g>
		</g>
		<g id="XMLID_252_">
			<g id="XMLID_375_">
				<path id="XMLID_381_" class="st8" d="M25,43.1c0.3,1.2,0.5,2.4,0.8,3.6c0.2,0.9,1.7,0.5,1.4-0.4c-0.3-1.2-0.5-2.4-0.8-3.6
					C26.2,41.7,24.8,42.1,25,43.1L25,43.1z"/>
			</g>
		</g>
		<g id="XMLID_245_">
			<g id="XMLID_368_">
				<path id="XMLID_373_" class="st8" d="M20.2,43.9c0.2,1.2,0.4,2.3,0.6,3.5c0.1,0.9,1.6,1,1.5,0c-0.1-1.3-0.4-2.6-0.6-3.9
					C21.5,42.5,20,42.9,20.2,43.9L20.2,43.9z"/>
			</g>
		</g>
		<g id="XMLID_295_">
			<g id="XMLID_361_">
				<path id="XMLID_366_" class="st8" d="M28.1,21.9c0-0.2-0.1-0.4-0.1-0.7c-0.2-0.9-1.6-0.5-1.4,0.4c0.8,4.6,4.1,14.3,0.4,18.2
					c-1.2,1.3-3,1.4-2,3.6c0.4,0.9,1.8,0.5,1.4-0.4c-0.4-0.9,2.4-2.4,3-3.4c0.8-1.2,0.6-2.6,0.6-4c-0.2-4.9-1.1-9.7-2-14.5
					c-0.5,0.1-1,0.3-1.4,0.4c0,0.2,0.1,0.4,0.1,0.7C26.9,23.2,28.3,22.8,28.1,21.9L28.1,21.9z"/>
			</g>
		</g>
		<g id="XMLID_301_">
			<g id="XMLID_355_">
				<path id="XMLID_359_" class="st8" d="M27.6,20.9c-0.5-1.4-0.9-2.8-1.4-4.2c-0.1-0.3-0.4-0.6-0.7-0.6c-0.8,0.1-1,0.1-1.6,0.3
					c-0.3,0.1-0.5,0.4-0.6,0.7c-0.2,2,0.7,4.7,1.1,6.7c0.3,1.4,2.3,8.3,0.3,8.5c-1,0.1-1,1.6,0,1.5c3.2-0.2,2.8-1.5,2.3-4.3
					c-0.4-2.4-0.9-4.8-1.3-7.2c-0.1-0.7-0.9-2.9-0.7-3.6c0.1-0.9,0.3-0.7,0.5,0.5c0.2,0.7,0.5,1.4,0.7,2.1
					C26.5,22.2,27.9,21.8,27.6,20.9L27.6,20.9z"/>
			</g>
		</g>
		<g id="XMLID_302_">
			<g id="XMLID_348_">
				<path id="XMLID_353_" class="st8" d="M19.6,17.9c1.2,4.1,1.6,8.3,2.4,12.4c0.2,1.2,0.4,4,2.2,3.7c1-0.1,0.5-1.6-0.4-1.4
					c0.6-0.1-2.5-14.2-2.7-15.1C20.8,16.6,19.4,17,19.6,17.9L19.6,17.9z"/>
			</g>
		</g>
		<g id="XMLID_303_">
			<g id="XMLID_342_">
				<path id="XMLID_346_" class="st8" d="M19.4,17.1c-3.3,0.8-2.9,1.2-2.2,4.6c0.9,4.1,1.5,8.2,3.3,12c0.4,0.9,1.7,0.1,1.3-0.8
					c-1.2-2.5-1.8-5.1-2.4-7.9c-0.4-2-2.3-5.9,0.3-6.5C20.7,18.3,20.3,16.9,19.4,17.1L19.4,17.1z"/>
			</g>
		</g>
		<g id="XMLID_304_">
			<g id="XMLID_335_">
				<path id="XMLID_339_" class="st8" d="M20.6,32.5c-0.9,0.3-1.7,0.5-2.7,0.6c-1,0.1-1,1.6,0,1.5c1-0.1,2.1-0.3,3.1-0.7
					C22,33.6,21.6,32.1,20.6,32.5L20.6,32.5z"/>
			</g>
		</g>
		<g id="XMLID_305_">
			<g id="XMLID_327_">
				<path id="XMLID_332_" class="st8" d="M13.6,19.4c1.1,4,1.5,7.9,2.3,12c0.2,1.1,0.8,3.1,2.3,3c0.6-0.1,0.9-0.6,0.6-1.1
					c0,0,0-0.1,0-0.1c-0.2-0.4-0.7-0.4-1-0.3c0,0,0,0-0.1,0c-0.9,0.4-0.1,1.7,0.8,1.3c0,0,0,0,0.1,0c-0.3-0.1-0.7-0.2-1-0.3
					c0,0,0,0.1,0,0.1c0.2-0.4,0.4-0.8,0.6-1.1C17.5,32.8,15.3,20,15,19C14.8,18,13.3,18.4,13.6,19.4L13.6,19.4z"/>
			</g>
		</g>
		<g id="XMLID_340_">
			<g id="XMLID_315_">
				<path id="XMLID_319_" class="st8" d="M14.2,18.6c-0.9,0.2-1.9,0.3-2.8,0.5c-0.9,0.2-0.5,1.6,0.4,1.4c0.9-0.2,1.9-0.3,2.8-0.5
					C15.6,19.9,15.2,18.4,14.2,18.6L14.2,18.6z"/>
			</g>
		</g>
		<g id="XMLID_352_">
			<g id="XMLID_313_">
				<path id="XMLID_443_" class="st8" d="M10.7,20.2c1.5,6.8,2,20.7,9.9,23.7c0.9,0.3,1.3-1.1,0.4-1.4c-6.9-2.6-7.5-16.6-8.9-22.6
					C12,18.9,10.5,19.3,10.7,20.2L10.7,20.2z"/>
			</g>
		</g>
	</g>
</g>
</svg>
