<?xml version="1.0"?>
<svg xmlns="http://www.w3.org/2000/svg" xmlns:xlink="http://www.w3.org/1999/xlink" version="1.1" viewBox="0 0 191 191" width="24px" height="24px"><g fill="none" fill-rule="nonzero" stroke="none" stroke-width="1" stroke-linecap="butt" stroke-linejoin="miter" stroke-miterlimit="10" stroke-dasharray="" stroke-dashoffset="0" font-family="none" font-weight="none" font-size="none" text-anchor="none" style="mix-blend-mode: normal"><path d="M0,191.98528v-191.98528h191.98528v191.98528z" fill="none"/><g fill="#d0cfcf"><path d="M63.66667,23.875c-21.97296,0 -39.79167,17.81871 -39.79167,39.79167v63.66667c0,21.97296 17.81871,39.79167 39.79167,39.79167h63.66667c21.97296,0 39.79167,-17.81871 39.79167,-39.79167v-63.66667c0,-21.97296 -17.81871,-39.79167 -39.79167,-39.79167zM143.25,39.79167c4.393,0 7.95833,3.56533 7.95833,7.95833c0,4.393 -3.56533,7.95833 -7.95833,7.95833c-4.393,0 -7.95833,-3.56533 -7.95833,-7.95833c0,-4.393 3.56533,-7.95833 7.95833,-7.95833zM95.5,55.70833c21.97296,0 39.79167,17.81871 39.79167,39.79167c0,21.97296 -17.81871,39.79167 -39.79167,39.79167c-21.97296,0 -39.79167,-17.81871 -39.79167,-39.79167c0,-21.97296 17.81871,-39.79167 39.79167,-39.79167zM95.5,71.625c-13.1858,0 -23.875,10.6892 -23.875,23.875c0,13.1858 10.6892,23.875 23.875,23.875c13.1858,0 23.875,-10.6892 23.875,-23.875c0,-13.1858 -10.6892,-23.875 -23.875,-23.875z"/></g></g></svg>
