<?xml version="1.0" encoding="utf-8"?>
<!-- Generator: Adobe Illustrator 19.0.0, SVG Export Plug-In . SVG Version: 6.00 Build 0)  -->
<svg version="1.1" xmlns="http://www.w3.org/2000/svg" xmlns:xlink="http://www.w3.org/1999/xlink" x="0px" y="0px"
	 viewBox="0 0 865 202" style="enable-background:new 0 0 865 202;" xml:space="preserve">
<style type="text/css">
	.st0{fill:#6CB99E;stroke:#010101;stroke-miterlimit:10;}
	.st1{fill:#7DCAAC;}
</style>
<g id="Layer_1">
	<rect id="XMLID_14_" x="-3.3" y="-3" class="st0" width="873" height="208.7"/>
</g>
<g id="Layer_2">
	<g id="XMLID_244_">
		<path id="XMLID_248_" class="st1" d="M41.9,118.3c-4.2,0-8.3,0-12.5,0c-1.9,0-1.9,3,0,3c4.2,0,8.3,0,12.5,0
			C43.8,121.3,43.8,118.3,41.9,118.3L41.9,118.3z"/>
	</g>
	<g id="XMLID_237_">
		<path id="XMLID_241_" class="st1" d="M318.8,136.3c-6.9,0-13.8,0-20.8,0c-1.9,0-1.9,3,0,3c6.9,0,13.8,0,20.8,0
			C320.7,139.3,320.7,136.3,318.8,136.3L318.8,136.3z"/>
	</g>
	<g id="XMLID_51_">
		<path id="XMLID_52_" class="st1" d="M825.5,54.8c-6.9,0-13.8,0-20.8,0c-1.9,0-1.9,3,0,3c6.9,0,13.8,0,20.8,0
			C827.5,57.8,827.5,54.8,825.5,54.8L825.5,54.8z"/>
	</g>
	<g id="XMLID_50_">
		<path id="XMLID_54_" class="st1" d="M318.8,115.8c-16.6,0-33.2,0-49.8,0c-3.9,0-3.9,6,0,6c16.6,0,33.2,0,49.8,0
			C322.6,121.8,322.6,115.8,318.8,115.8L318.8,115.8z"/>
	</g>
	<g id="XMLID_55_">
		<path id="XMLID_59_" class="st1" d="M855.2,9.1c-6.9,0-13.8,0-20.8,0c-1.9,0-1.9,3,0,3c6.9,0,13.8,0,20.8,0
			C857.1,12.1,857.1,9.1,855.2,9.1L855.2,9.1z"/>
	</g>
	<g id="XMLID_62_">
		<path id="XMLID_66_" class="st1" d="M328.2,126c-8.8,0-17.5,0-26.2,0c-3.9,0-3.9,6,0,6c8.8,0,17.5,0,26.2,0
			C332.1,132,332.1,126,328.2,126L328.2,126z"/>
	</g>
	<g id="XMLID_71_">
		<path id="XMLID_75_" class="st1" d="M148.6,171.9c-8.1,0-16.2,0-24.2,0c-3.9,0-3.9,6,0,6c8.1,0,16.2,0,24.2,0
			C152.5,177.9,152.5,171.9,148.6,171.9L148.6,171.9z"/>
	</g>
	<g id="XMLID_76_">
		<path id="XMLID_80_" class="st1" d="M178.9,162.8c-11.2,0-22.3,0-33.5,0c-3.9,0-3.9,6,0,6c11.2,0,22.3,0,33.5,0
			C182.6,168.8,182.6,162.8,178.9,162.8L178.9,162.8z"/>
	</g>
	<g id="XMLID_83_">
		<path id="XMLID_87_" class="st1" d="M330.5,142.6c-6.9,0-13.8,0-20.8,0c-1.9,0-1.9,3,0,3c6.9,0,13.8,0,20.8,0
			C332.4,145.6,332.4,142.6,330.5,142.6L330.5,142.6z"/>
	</g>
	<g id="XMLID_90_">
		<path id="XMLID_94_" class="st1" d="M324.5,106.9c-6.9,0-13.8,0-20.8,0c-1.9,0-1.9,3,0,3c6.9,0,13.8,0,20.8,0
			C326.4,109.9,326.4,106.9,324.5,106.9L324.5,106.9z"/>
	</g>
	<g id="XMLID_97_">
		<path id="XMLID_101_" class="st1" d="M318.8,136.3c-6.9,0-13.8,0-20.8,0c-1.9,0-1.9,3,0,3c6.9,0,13.8,0,20.8,0
			C320.7,139.3,320.7,136.3,318.8,136.3L318.8,136.3z"/>
	</g>
	<g id="XMLID_104_">
		<path id="XMLID_108_" class="st1" d="M153.6,155.4c-6.9,0-13.8,0-20.8,0c-1.9,0-1.9,3,0,3c6.9,0,13.8,0,20.8,0
			C155.5,158.4,155.5,155.4,153.6,155.4L153.6,155.4z"/>
	</g>
	<g id="XMLID_111_">
		<path id="XMLID_115_" class="st1" d="M159,181.1c-6.9,0-13.8,0-20.8,0c-1.9,0-1.9,3,0,3c6.9,0,13.8,0,20.8,0
			C160.9,184.1,160.9,181.1,159,181.1L159,181.1z"/>
	</g>
	<g id="XMLID_118_">
		<path id="XMLID_122_" class="st1" d="M460.3,174.5c-6.9,0-13.8,0-20.8,0c-1.9,0-1.9,3,0,3c6.9,0,13.8,0,20.8,0
			C462.2,177.5,462.2,174.5,460.3,174.5L460.3,174.5z"/>
	</g>
	<g id="XMLID_125_">
		<path id="XMLID_129_" class="st1" d="M483.5,166.5c-11.2,0-22.3,0-33.5,0c-3.9,0-3.9,6,0,6c11.2,0,22.3,0,33.5,0
			C487.4,172.5,487.4,166.5,483.5,166.5L483.5,166.5z"/>
	</g>
	<g id="XMLID_132_">
		<path id="XMLID_136_" class="st1" d="M466,180c-6.2,0-12.3,0-18.5,0c-3.9,0-3.9,6,0,6c6.2,0,12.3,0,18.5,0
			C469.9,186,469.9,180,466,180L466,180z"/>
	</g>
	<g id="XMLID_139_">
		<path id="XMLID_143_" class="st1" d="M487.2,158c-3.5,0-6.9,0-10.4,0c-3.9,0-3.9,6,0,6c3.5,0,6.9,0,10.4,0
			C491.1,164,491.1,158,487.2,158L487.2,158z"/>
	</g>
	<g id="XMLID_146_">
		<path id="XMLID_150_" class="st1" d="M493.5,190.5c-11.1,0-22.2,0-33.2,0c-1.9,0-1.9,3,0,3c11.1,0,22.2,0,33.2,0
			C495.4,193.5,495.4,190.5,493.5,190.5L493.5,190.5z"/>
	</g>
	<g id="XMLID_155_">
		<path id="XMLID_159_" class="st1" d="M823.8,48.5c-3.8,0-7.7,0-11.5,0c-1.9,0-1.9,3,0,3c3.8,0,7.7,0,11.5,0
			C825.8,51.5,825.8,48.5,823.8,48.5L823.8,48.5z"/>
	</g>
	<g id="XMLID_160_">
		<path id="XMLID_164_" class="st1" d="M827.2,174.3c-11.4,0-22.8,0-34.2,0c-1.9,0-1.9,3,0,3c11.4,0,22.8,0,34.2,0
			C829.2,177.3,829.2,174.3,827.2,174.3L827.2,174.3z"/>
	</g>
	<g id="XMLID_167_">
		<path id="XMLID_171_" class="st1" d="M810.5,181.3c-6.9,0-13.8,0-20.8,0c-1.9,0-1.9,3,0,3c6.9,0,13.8,0,20.8,0
			C812.4,184.3,812.4,181.3,810.5,181.3L810.5,181.3z"/>
	</g>
	<g id="XMLID_174_">
		<path id="XMLID_178_" class="st1" d="M820.5,187.3c-6.9,0-13.8,0-20.8,0c-1.9,0-1.9,3,0,3c6.9,0,13.8,0,20.8,0
			C822.4,190.3,822.4,187.3,820.5,187.3L820.5,187.3z"/>
	</g>
	<g id="XMLID_181_">
		<path id="XMLID_185_" class="st1" d="M838.5,165.3c-8.8,0-17.5,0-26.2,0c-3.9,0-3.9,6,0,6c8.8,0,17.5,0,26.2,0
			C842.4,171.3,842.4,165.3,838.5,165.3L838.5,165.3z"/>
	</g>
	<g id="XMLID_188_">
		<path id="XMLID_192_" class="st1" d="M819.2,194.3c-8.8,0-17.5,0-26.2,0c-3.9,0-3.9,6,0,6c8.8,0,17.5,0,26.2,0
			C823.1,200.3,823.1,194.3,819.2,194.3L819.2,194.3z"/>
	</g>
	<g id="XMLID_195_">
		<path id="XMLID_199_" class="st1" d="M118.5,30.4c-8.8,0-17.5,0-26.2,0c-3.9,0-3.9,6,0,6c8.8,0,17.5,0,26.2,0
			C122.4,36.4,122.4,30.4,118.5,30.4L118.5,30.4z"/>
	</g>
	<g id="XMLID_202_">
		<path id="XMLID_206_" class="st1" d="M65,91.8c-16.2,0-32.5,0-48.8,0c-3.9,0-3.9,6,0,6c16.2,0,32.5,0,48.8,0
			C68.9,97.8,68.9,91.8,65,91.8L65,91.8z"/>
	</g>
	<g id="XMLID_209_">
		<path id="XMLID_213_" class="st1" d="M56.8,101.3c-8.8,0-17.5,0-26.2,0c-3.9,0-3.9,6,0,6c8.8,0,17.5,0,26.2,0
			C60.6,107.3,60.6,101.3,56.8,101.3L56.8,101.3z"/>
	</g>
	<g id="XMLID_216_">
		<path id="XMLID_220_" class="st1" d="M37,84.3c-6.9,0-13.8,0-20.8,0c-1.9,0-1.9,3,0,3c6.9,0,13.8,0,20.8,0
			C38.9,87.3,38.9,84.3,37,84.3L37,84.3z"/>
	</g>
	<g id="XMLID_223_">
		<path id="XMLID_227_" class="st1" d="M60.5,110.4c-4.1,0-8.2,0-12.2,0c-1.9,0-1.9,3,0,3c4.1,0,8.2,0,12.2,0
			C62.4,113.4,62.4,110.4,60.5,110.4L60.5,110.4z"/>
	</g>
	<g id="XMLID_230_">
		<path id="XMLID_234_" class="st1" d="M124.2,40.7c-6.9,0-13.8,0-20.8,0c-1.9,0-1.9,3,0,3c6.9,0,13.8,0,20.8,0
			C126.2,43.7,126.2,40.7,124.2,40.7L124.2,40.7z"/>
	</g>
	<g id="XMLID_251_">
		<path id="XMLID_255_" class="st1" d="M45.1,120.8c-4.1,0-8.2,0-12.2,0c-1.9,0-1.9,3,0,3c4.1,0,8.2,0,12.2,0
			C47.1,123.8,47.1,120.8,45.1,120.8L45.1,120.8z"/>
	</g>
	<g id="XMLID_258_">
		<path id="XMLID_262_" class="st1" d="M111.9,22.6c-2,0-4.1,0-6.1,0c-1.9,0-1.9,3,0,3c2,0,4.1,0,6.1,0S113.9,22.6,111.9,22.6
			L111.9,22.6z"/>
	</g>
	<g id="XMLID_273_">
		<path id="XMLID_277_" class="st1" d="M512.8,130.9c-6.9,0-13.8,0-20.8,0c-1.9,0-1.9,3,0,3c6.9,0,13.8,0,20.8,0
			C514.7,133.9,514.7,130.9,512.8,130.9L512.8,130.9z"/>
	</g>
	<g id="XMLID_267_">
		<path id="XMLID_271_" class="st1" d="M502.3,124.2c-2,0-4.1,0-6.1,0c-1.9,0-1.9,3,0,3c2,0,4.1,0,6.1,0S504.3,124.2,502.3,124.2
			L502.3,124.2z"/>
	</g>
	<g id="XMLID_300_">
		<path id="XMLID_304_" class="st1" d="M495.6,5.8c-8.8,0-17.5,0-26.2,0c-3.9,0-3.9,6,0,6c8.8,0,17.5,0,26.2,0
			C499.5,11.8,499.5,5.8,495.6,5.8L495.6,5.8z"/>
	</g>
	<g id="XMLID_294_">
		<path id="XMLID_298_" class="st1" d="M501.4,16c-6.9,0-13.8,0-20.8,0c-1.9,0-1.9,3,0,3c6.9,0,13.8,0,20.8,0
			C503.3,19,503.3,16,501.4,16L501.4,16z"/>
	</g>
	<g id="XMLID_288_">
		<path id="XMLID_292_" class="st1" d="M489.1-2c-2,0-4.1,0-6.1,0c-1.9,0-1.9,3,0,3c2,0,4.1,0,6.1,0C491,1,491-2,489.1-2L489.1-2z"
			/>
	</g>
	<g id="XMLID_283_">
		<path id="XMLID_299_" class="st1" d="M292.9,5.2c-13,0-26.1,0-39.1,0c-3.9,0-3.9,6,0,6c13,0,26.1,0,39.1,0
			C296.8,11.2,296.8,5.2,292.9,5.2L292.9,5.2z"/>
	</g>
	<g id="XMLID_307_">
		<path id="XMLID_311_" class="st1" d="M299.1,15.5c-6.9,0-13.8,0-20.8,0c-1.9,0-1.9,3,0,3c6.9,0,13.8,0,20.8,0
			C301.1,18.5,301.1,15.5,299.1,15.5L299.1,15.5z"/>
	</g>
	<g id="XMLID_314_">
		<path id="XMLID_318_" class="st1" d="M284.5,20.8c-5.5,0-10.9,0-16.4,0c-1.9,0-1.9,3,0,3c5.5,0,10.9,0,16.4,0
			C286.5,23.8,286.5,20.8,284.5,20.8L284.5,20.8z"/>
	</g>
	<g id="XMLID_321_">
		<path id="XMLID_325_" class="st1" d="M283.7-0.8c-6.9,0-13.8,0-20.8,0c-1.9,0-1.9,3,0,3c6.9,0,13.8,0,20.8,0
			C285.6,2.2,285.6-0.8,283.7-0.8L283.7-0.8z"/>
	</g>
	<g id="XMLID_328_">
		<path id="XMLID_332_" class="st1" d="M298.6,26.8c-6.5,0-13,0-19.6,0c-3.9,0-3.9,6,0,6c6.5,0,13,0,19.6,0
			C302.4,32.8,302.4,26.8,298.6,26.8L298.6,26.8z"/>
	</g>
	<g id="XMLID_335_">
		<path id="XMLID_339_" class="st1" d="M438.4,45.7c-13,0-26.1,0-39.1,0c-3.9,0-3.9,6,0,6c13,0,26.1,0,39.1,0
			C442.3,51.7,442.3,45.7,438.4,45.7L438.4,45.7z"/>
	</g>
	<g id="XMLID_356_">
		<path id="XMLID_360_" class="st1" d="M186.1,101.6c-8.8,0-17.5,0-26.2,0c-3.9,0-3.9,6,0,6c8.8,0,17.5,0,26.2,0
			C190,107.6,190,101.6,186.1,101.6L186.1,101.6z"/>
	</g>
	<g id="XMLID_350_">
		<path id="XMLID_354_" class="st1" d="M191.9,111.8c-6.9,0-13.8,0-20.8,0c-1.9,0-1.9,3,0,3c6.9,0,13.8,0,20.8,0
			C193.8,114.8,193.8,111.8,191.9,111.8L191.9,111.8z"/>
	</g>
	<g id="XMLID_344_">
		<path id="XMLID_348_" class="st1" d="M179.6,93.8c-2,0-4.1,0-6.1,0c-1.9,0-1.9,3,0,3c2,0,4.1,0,6.1,0
			C181.5,96.8,181.5,93.8,179.6,93.8L179.6,93.8z"/>
	</g>
	<g id="XMLID_363_">
		<path id="XMLID_367_" class="st1" d="M431.2,66.3c-6.9,0-13.8,0-20.8,0c-1.9,0-1.9,3,0,3c6.9,0,13.8,0,20.8,0
			C433.2,69.3,433.2,66.3,431.2,66.3L431.2,66.3z"/>
	</g>
	<g id="XMLID_370_">
		<path id="XMLID_374_" class="st1" d="M430.1,72.7c-8.8,0-17.5,0-26.2,0c-3.9,0-3.9,6,0,6c8.8,0,17.5,0,26.2,0
			C434,78.7,434,72.7,430.1,72.7L430.1,72.7z"/>
	</g>
	<g id="XMLID_377_">
		<path id="XMLID_381_" class="st1" d="M430.3,57.5c-2,0-4.1,0-6.1,0c-1.9,0-1.9,3,0,3c2,0,4.1,0,6.1,0
			C432.2,60.5,432.2,57.5,430.3,57.5L430.3,57.5z"/>
	</g>
	<g id="XMLID_384_">
		<path id="XMLID_388_" class="st1" d="M176.1,117c-2,0-4.1,0-6.1,0c-1.9,0-1.9,3,0,3c2,0,4.1,0,6.1,0C178,120,178,117,176.1,117
			L176.1,117z"/>
	</g>
	<g id="XMLID_33_">
		<g id="XMLID_35_">
			<path id="XMLID_36_" class="st1" d="M855.2,17.5c-11.2,0-22.3,0-33.5,0c-3.9,0-3.9,6,0,6c11.2,0,22.3,0,33.5,0
				C859,23.5,859,17.5,855.2,17.5L855.2,17.5z"/>
		</g>
	</g>
	<g id="XMLID_8_">
		<g id="XMLID_31_">
			<path id="XMLID_32_" class="st1" d="M865.3,28.5c-11.2,0-22.3,0-33.5,0c-3.9,0-3.9,6,0,6c11.2,0,22.3,0,33.5,0
				C869.2,34.5,869.2,28.5,865.3,28.5L865.3,28.5z"/>
		</g>
	</g>
	<g id="XMLID_7_">
		<g id="XMLID_34_">
			<path id="XMLID_38_" class="st1" d="M825.5,40.3c-11.2,0-22.3,0-33.5,0c-3.9,0-3.9,6,0,6c11.2,0,22.3,0,33.5,0
				C829.5,46.3,829.5,40.3,825.5,40.3L825.5,40.3z"/>
		</g>
	</g>
	<g id="XMLID_53_">
		<path id="XMLID_56_" class="st1" d="M715.3,117c-6.9,0-13.8,0-20.8,0c-1.9,0-1.9,3,0,3c6.9,0,13.8,0,20.8,0
			C717.2,120,717.2,117,715.3,117L715.3,117z"/>
	</g>
	<g id="XMLID_48_">
		<path id="XMLID_49_" class="st1" d="M738.5,109c-11.2,0-22.3,0-33.5,0c-3.9,0-3.9,6,0,6c11.2,0,22.3,0,33.5,0
			C742.4,115,742.4,109,738.5,109L738.5,109z"/>
	</g>
	<g id="XMLID_46_">
		<path id="XMLID_47_" class="st1" d="M721,122.5c-6.2,0-12.3,0-18.5,0c-3.9,0-3.9,6,0,6c6.2,0,12.3,0,18.5,0
			C724.9,128.5,724.9,122.5,721,122.5L721,122.5z"/>
	</g>
	<g id="XMLID_44_">
		<path id="XMLID_45_" class="st1" d="M742.2,100.5c-3.5,0-6.9,0-10.4,0c-3.9,0-3.9,6,0,6c3.5,0,6.9,0,10.4,0
			C746.1,106.5,746.1,100.5,742.2,100.5L742.2,100.5z"/>
	</g>
	<g id="XMLID_42_">
		<path id="XMLID_43_" class="st1" d="M748.5,133c-11.1,0-22.2,0-33.2,0c-1.9,0-1.9,3,0,3c11.1,0,22.2,0,33.2,0
			C750.4,136,750.4,133,748.5,133L748.5,133z"/>
	</g>
	<g id="XMLID_40_">
		<path id="XMLID_41_" class="st1" d="M767.8,73.4c-6.9,0-13.8,0-20.8,0c-1.9,0-1.9,3,0,3c6.9,0,13.8,0,20.8,0
			C769.7,76.4,769.7,73.4,767.8,73.4L767.8,73.4z"/>
	</g>
	<g id="XMLID_37_">
		<path id="XMLID_39_" class="st1" d="M757.3,66.7c-2,0-4.1,0-6.1,0c-1.9,0-1.9,3,0,3c2,0,4.1,0,6.1,0S759.3,66.7,757.3,66.7
			L757.3,66.7z"/>
	</g>
	<g id="XMLID_70_">
		<path id="XMLID_72_" class="st1" d="M652.8,58.5c-6.9,0-13.8,0-20.8,0c-1.9,0-1.9,3,0,3c6.9,0,13.8,0,20.8,0
			C654.7,61.5,654.7,58.5,652.8,58.5L652.8,58.5z"/>
	</g>
	<g id="XMLID_68_">
		<path id="XMLID_69_" class="st1" d="M652.8,38c-16.6,0-33.2,0-49.8,0c-3.9,0-3.9,6,0,6c16.6,0,33.2,0,49.8,0
			C656.6,44,656.6,38,652.8,38L652.8,38z"/>
	</g>
	<g id="XMLID_65_">
		<path id="XMLID_67_" class="st1" d="M662.2,48.2c-8.8,0-17.5,0-26.2,0c-3.9,0-3.9,6,0,6c8.8,0,17.5,0,26.2,0
			C666.1,54.2,666.1,48.2,662.2,48.2L662.2,48.2z"/>
	</g>
	<g id="XMLID_63_">
		<path id="XMLID_64_" class="st1" d="M664.5,64.8c-6.9,0-13.8,0-20.8,0c-1.9,0-1.9,3,0,3c6.9,0,13.8,0,20.8,0
			C666.4,67.8,666.4,64.8,664.5,64.8L664.5,64.8z"/>
	</g>
	<g id="XMLID_60_">
		<path id="XMLID_61_" class="st1" d="M658.5,29.1c-6.9,0-13.8,0-20.8,0c-1.9,0-1.9,3,0,3c6.9,0,13.8,0,20.8,0
			C660.4,32.1,660.4,29.1,658.5,29.1L658.5,29.1z"/>
	</g>
	<g id="XMLID_57_">
		<path id="XMLID_58_" class="st1" d="M652.8,58.5c-6.9,0-13.8,0-20.8,0c-1.9,0-1.9,3,0,3c6.9,0,13.8,0,20.8,0
			C654.7,61.5,654.7,58.5,652.8,58.5L652.8,58.5z"/>
	</g>
	<g id="XMLID_85_">
		<path id="XMLID_86_" class="st1" d="M612.4,127c-13,0-26.1,0-39.1,0c-3.9,0-3.9,6,0,6c13,0,26.1,0,39.1,0
			C616.3,133,616.3,127,612.4,127L612.4,127z"/>
	</g>
	<g id="XMLID_82_">
		<path id="XMLID_84_" class="st1" d="M618.6,137.3c-6.9,0-13.8,0-20.8,0c-1.9,0-1.9,3,0,3c6.9,0,13.8,0,20.8,0
			C620.6,140.3,620.6,137.3,618.6,137.3L618.6,137.3z"/>
	</g>
	<g id="XMLID_79_">
		<path id="XMLID_81_" class="st1" d="M604,142.6c-5.5,0-10.9,0-16.4,0c-1.9,0-1.9,3,0,3c5.5,0,10.9,0,16.4,0
			C606,145.6,606,142.6,604,142.6L604,142.6z"/>
	</g>
	<g id="XMLID_77_">
		<path id="XMLID_78_" class="st1" d="M603.2,121c-6.9,0-13.8,0-20.8,0c-1.9,0-1.9,3,0,3c6.9,0,13.8,0,20.8,0
			C605.1,124,605.1,121,603.2,121L603.2,121z"/>
	</g>
	<g id="XMLID_73_">
		<path id="XMLID_74_" class="st1" d="M618.1,148.6c-6.5,0-13,0-19.6,0c-3.9,0-3.9,6,0,6c6.5,0,13,0,19.6,0
			C621.9,154.6,621.9,148.6,618.1,148.6L618.1,148.6z"/>
	</g>
	<g id="XMLID_91_">
		<path id="XMLID_92_" class="st1" d="M232.8,66.7c-6.9,0-13.8,0-20.8,0c-1.9,0-1.9,3,0,3c6.9,0,13.8,0,20.8,0
			C234.6,69.7,234.6,66.7,232.8,66.7L232.8,66.7z"/>
	</g>
	<g id="XMLID_88_">
		<path id="XMLID_89_" class="st1" d="M222.3,60c-2,0-4.1,0-6.1,0c-1.9,0-1.9,3,0,3c2,0,4.1,0,6.1,0S224.3,60,222.3,60L222.3,60z"/>
	</g>
	<g id="XMLID_96_">
		<path id="XMLID_98_" class="st1" d="M271.9,158.8c-6.9,0-13.8,0-20.8,0c-1.9,0-1.9,3,0,3c6.9,0,13.8,0,20.8,0
			C273.8,161.8,273.8,158.8,271.9,158.8L271.9,158.8z"/>
	</g>
	<g id="XMLID_93_">
		<path id="XMLID_95_" class="st1" d="M261.5,152.1c-2,0-4.1,0-6.1,0c-1.9,0-1.9,3,0,3c2,0,4.1,0,6.1,0S263.5,152.1,261.5,152.1
			L261.5,152.1z"/>
	</g>
	<g id="XMLID_102_">
		<path id="XMLID_103_" class="st1" d="M94.1,13.9c-6.9,0-13.8,0-20.8,0c-1.9,0-1.9,3,0,3c6.9,0,13.8,0,20.8,0
			C96,16.9,96,13.9,94.1,13.9L94.1,13.9z"/>
	</g>
	<g id="XMLID_99_">
		<path id="XMLID_100_" class="st1" d="M83.7,7.2c-2,0-4.1,0-6.1,0c-1.9,0-1.9,3,0,3c2,0,4.1,0,6.1,0S85.7,7.2,83.7,7.2L83.7,7.2z"
			/>
	</g>
</g>
</svg>
