<?xml version="1.0" encoding="utf-8"?>
<!-- Generator: Adobe Illustrator 19.0.0, SVG Export Plug-In . SVG Version: 6.00 Build 0)  -->
<svg version="1.1" xmlns="http://www.w3.org/2000/svg" xmlns:xlink="http://www.w3.org/1999/xlink" x="0px" y="0px"
	 viewBox="0 0 865 202" style="enable-background:new 0 0 865 202;" xml:space="preserve">
<style type="text/css">
	.st0{fill:#E6A69B;stroke:#010101;stroke-miterlimit:10;}
	.st1{fill:#D1877D;}
	.st2{fill:#E6A69C;}
	.st3{fill:#D1867C;}
	.st4{fill:#CE7B6F;}
</style>
<g id="Layer_1">
</g>
<g id="Layer_2">
	<rect id="XMLID_14_" x="-4.7" y="-3" class="st0" width="872.7" height="208"/>
	<g id="XMLID_193_">
		<g id="XMLID_196_">
			<path id="XMLID_197_" class="st1" d="M794.8,5.1c-41.9,8.7-83.9,17.4-125.7,26c-0.3,0.1-2.6,0.5-2.4,1
				c9.6,24.7,14.7,50.6,20.2,76.4c5.4,25.5,10.8,51.2,16.2,76.7c0.2,0.9,3.6,0.3,4.2,0.3c20.1-3.2,39.8-6.8,59.5-12
				c21.5-5.6,42.5-10.1,64.6-11.4c2.5-0.2,6.3-1.9,1.7-1.7c-20.2,1.1-40.1,4.5-59.8,9.5c-22.5,5.8-44.7,10.6-67.8,14.3
				c1.4,0.1,2.7,0.2,4.2,0.3c-5.4-25.5-10.8-51.2-16.2-76.7c-5.4-25.7-10.6-51.6-20.2-76.4c-0.7,0.3-1.6,0.7-2.4,1
				c41.9-8.7,83.9-17.4,125.7-26C801,5.4,797.3,4.5,794.8,5.1L794.8,5.1z"/>
		</g>
	</g>
	<g id="XMLID_189_">
		<g id="XMLID_190_">
			<path id="XMLID_191_" class="st1" d="M687.8,36.1c1.2,11.6,3.3,22.9,6.4,34.1c0.4,1.7,5.3,2.3,4.9,0.5
				c-3.1-11.2-5.2-22.6-6.4-34.1C692.5,34.7,687.6,34,687.8,36.1L687.8,36.1z"/>
		</g>
	</g>
	<g id="XMLID_183_">
		<g id="XMLID_184_">
			<path id="XMLID_186_" class="st1" d="M689.3,37.7c7.2,9.4,14.7,18.5,22.5,27.5c0.6,0.7,5,1.5,4.7-0.1
				c-1.7-11.1-6.2-21.4-7.5-32.6c-0.2-1.8-5.2-2-5-0.6c1.3,11.2,5.8,21.5,7.5,32.6c1.5,0,3.1-0.1,4.7-0.1
				c-7.7-9-15.2-18.1-22.5-27.5C692.8,35.7,688,35.9,689.3,37.7L689.3,37.7z"/>
		</g>
	</g>
	<g id="XMLID_177_">
		<g id="XMLID_179_">
			<path id="XMLID_182_" class="st1" d="M731.5,26.8c-5.9,1.6-11.9,2.9-17.7,4.2c-0.9,0.2-1.6,1.2-1.3,2.1
				c2.2,9.9,4.8,19.8,7.6,29.5c0.4,1.6,1.9,2.2,3.4,2c6-0.9,11.9-2.3,17.6-4.3c2.9-1.1,0.5-5-2-4.1c-5.7,2-11.5,3.5-17.6,4.3
				c1.2,0.7,2.3,1.3,3.4,2c-2.8-9.7-5.3-19.5-7.6-29.5c-0.5,0.7-0.9,1.4-1.3,2.1c6-1.2,11.9-2.6,17.7-4.2
				C736.7,30.1,734.2,26.2,731.5,26.8L731.5,26.8z"/>
		</g>
	</g>
	<g id="XMLID_172_">
		<g id="XMLID_175_">
			<path id="XMLID_176_" class="st1" d="M729.4,44c-3.7,0.4-7.3,0.9-10.9,1.4c-0.4,0.1-2.5,0.3-2.4,1c0,0.7,2.3,0.4,2.5,0.3
				c3.7-0.5,7.2-1,10.9-1.4c0.4-0.1,2.5-0.3,2.4-1C731.9,43.8,729.6,44.1,729.4,44L729.4,44z"/>
		</g>
	</g>
	<g id="XMLID_168_">
		<g id="XMLID_169_">
			<path id="XMLID_170_" class="st1" d="M728.7,43.4c-3.5,0.6-6.9,1.2-10.3,2.1c-0.8,0.2-1.6,0.6-0.9,1.4c0.7,0.8,2.6,0.7,3.4,0.6
				c3.4-0.8,6.9-1.4,10.3-2.1c0.8-0.2,1.6-0.6,0.9-1.4C731.5,43.1,729.5,43.2,728.7,43.4L728.7,43.4z"/>
		</g>
	</g>
	<g id="XMLID_162_">
		<g id="XMLID_163_">
			<path id="XMLID_165_" class="st1" d="M737.5,27.7c1.5,10.3,4.3,20.1,8.7,29.6c0.3,0.7,3.8,3.3,4.3,1.8c1.8-5.5,2.8-11,3.5-16.8
				c-1.4-0.5-3-1.1-4.4-1.6c2.6,5.3,5.7,10.2,9.6,14.6c0.4,0.4,3.7,2.9,4.1,1.5c2.7-11.2,3.8-22.5,2.8-34.1
				c-0.1-1.6-4.6-3.4-4.4-1.9c0.9,11.2,0,22.5-2.7,33.4c1.3,0.5,2.7,1,4.1,1.5c-3.7-4.3-6.7-8.8-9.1-13.9c-0.4-0.8-4.2-3.5-4.4-1.6
				c-0.6,5.5-1.5,10.9-3.3,16.2c1.4,0.6,2.9,1.3,4.3,1.8c-4.3-9.3-7-18.9-8.5-28.9C741.8,28,737.3,26.3,737.5,27.7L737.5,27.7z"/>
		</g>
	</g>
	<g id="XMLID_156_">
		<g id="XMLID_158_">
			<path id="XMLID_161_" class="st1" d="M771.3,60.4c-14.1-0.2-27.8,2.8-41.3,6.4c-14.1,3.8-28.1,7.7-42.3,11.5
				c-3,0.8-2.3,4.5,0.7,3.7c13.5-3.6,26.9-7.4,40.3-11c13.7-3.7,27.6-6.9,41.9-6.7C773.6,64.3,774.6,60.4,771.3,60.4L771.3,60.4z"/>
		</g>
	</g>
	<g id="XMLID_151_">
		<g id="XMLID_154_">
			<path id="XMLID_155_" class="st1" d="M691.2,88.6c2.4,12.8,5.5,25.4,9.2,37.9c0.7,2.5,4.8-0.2,4.2-2.5
				c-3.6-12.1-6.6-24.5-8.9-36.9C695,84.2,690.8,86.3,691.2,88.6L691.2,88.6z"/>
		</g>
	</g>
	<g id="XMLID_147_">
		<g id="XMLID_148_">
			<path id="XMLID_149_" class="st1" d="M694.5,88.7c11.1-3.9,22.4-6.8,33.9-8.9c-0.5-0.2-1.1-0.3-1.5-0.5
				c3.4,13.3,6.8,26.7,10.2,40c0.9-0.8,1.6-1.5,2.5-2.3c-6.1,1.5-12.1,3.1-18.3,4.6c-2.9,0.8-5.7,1.4-8.6,2.2
				c-2.7,0.6-6.4,2.5-9.1,2.2c0.4,0.2,0.7,0.6,1.1,0.8c0-0.1,0-0.2,0-0.3c-0.8,0.7-1.7,1.3-2.5,2c0.1,0,0.2,0,0.2,0
				c2.2-0.5,3.6-3.5,0.3-2.6c-0.1,0-0.2,0-0.2,0c-0.8,0.2-2.5,1-2.5,2c0,0.1,0,0.2,0,0.3c0,0.6,0.6,0.8,1.1,0.8
				c2.2,0.2,4.5-0.8,6.6-1.3c3.5-0.9,7.1-1.8,10.6-2.7c7.1-1.8,14.1-3.6,21.2-5.4c0.9-0.2,2.7-1.1,2.5-2.3
				c-3.4-13.3-6.8-26.7-10.2-40c-0.1-0.6-1.1-0.6-1.5-0.5C718.3,79,706.5,82,695.1,86C692.7,86.9,691.4,89.9,694.5,88.7L694.5,88.7z
				"/>
		</g>
	</g>
	<g id="XMLID_141_">
		<g id="XMLID_142_">
			<path id="XMLID_144_" class="st1" d="M790.6,64.3c-7.8,1.7-16,2.8-23.9,4.6c-8.5,1.9-16.3,4.7-24.9,5.9c-6.7,1,0.9,2.3,4.2,1.8
				c9-1.2,17.1-4.1,26-6.1c8.3-1.8,16.6-3,24.9-4.9C802.7,64.4,793.5,63.6,790.6,64.3L790.6,64.3z"/>
		</g>
	</g>
	<g id="XMLID_135_">
		<g id="XMLID_137_">
			<path id="XMLID_140_" class="st1" d="M791.5,69.5c-16.3,3.8-32.8,7.3-49.2,10.6c-5.5,1.1,2.6,2.5,5.9,1.9
				c16.4-3.3,32.9-6.8,49.2-10.6C803.1,70.1,795,68.7,791.5,69.5L791.5,69.5z"/>
		</g>
	</g>
	<g id="XMLID_130_">
		<g id="XMLID_133_">
			<path id="XMLID_134_" class="st1" d="M795.6,76.6c-15.8,3.1-31.4,6.2-47.2,9.5c-6.2,1.3-6.3,2.3,0.2,1c14.7-3.1,29.4-6,44.1-8.9
				C796.9,77.3,803.4,75.1,795.6,76.6L795.6,76.6z"/>
		</g>
	</g>
	<g id="XMLID_127_">
		<g id="XMLID_128_">
			<path id="XMLID_131_" class="st1" d="M793.5,87.1c-16.1,3.6-32.6,6.7-48.8,9.5c-4.6,0.8,4.4,1.3,6.3,0.9
				c16.9-2.9,33.7-6.2,50.4-9.7C803.8,87.3,795.9,86.6,793.5,87.1L793.5,87.1z"/>
		</g>
	</g>
	<g id="XMLID_126_">
		<g id="XMLID_132_">
			<path id="XMLID_138_" class="st1" d="M796.3,78.3c-16.6,2.9-32.9,6.3-49.3,10.2c-6.3,1.5-6,6.2,0.9,4.5
				c15.3-3.7,30.9-6.9,46.4-9.7C800.7,82.2,803.3,77,796.3,78.3L796.3,78.3z"/>
		</g>
	</g>
	<g id="XMLID_125_">
		<g id="XMLID_139_">
			<path id="XMLID_145_" class="st1" d="M799.8,91.8c-15.2,2.8-30.7,5.6-45.9,8.3c-2.7,0.5-9.5,5.1-5.5,4.4
				c15.2-2.8,30.7-5.6,45.9-8.3C796.9,95.7,803.5,91,799.8,91.8L799.8,91.8z"/>
		</g>
	</g>
	<g id="XMLID_124_">
		<g id="XMLID_146_">
			<path id="XMLID_152_" class="st1" d="M798.8,97.5c-14.9,2.7-29.8,5.5-44.9,8.6c-6.5,1.3-7.8,5.9-0.7,4.5
				c14.9-3,29.8-5.8,44.9-8.6C804.6,100.8,806,96.3,798.8,97.5L798.8,97.5z"/>
		</g>
	</g>
	<g id="XMLID_123_">
		<g id="XMLID_153_">
			<path id="XMLID_159_" class="st1" d="M798.5,103.6c-16.1,3.8-32.6,7.3-48.8,10.4c-0.2,0,2.8,4,5.5,3.5
				c16.3-3.2,32.7-6.7,48.8-10.4C804.4,107,801.1,103,798.5,103.6L798.5,103.6z"/>
		</g>
	</g>
	<g id="XMLID_121_">
		<g id="XMLID_160_">
			<path id="XMLID_166_" class="st1" d="M742.3,126.8c-11.1,2.7-22,5.3-33.1,8c-1.9,0.5-5,2.2-1.1,1.2c11.1-2.7,22-5.3,33.1-8
				C743,127.6,746.1,125.9,742.3,126.8L742.3,126.8z"/>
		</g>
	</g>
	<g id="XMLID_120_">
		<g id="XMLID_167_">
			<path id="XMLID_173_" class="st1" d="M741.4,134.2c0.6,0,1.1-0.1,1.7-0.1c-0.8-1.4-1.5-2.8-2.3-4.1c-10.5,2.9-20.9,5.3-31.6,7.5
				c-2.3,0.5,0.6,4.6,2.7,4.2c10.6-2.2,21.1-4.7,31.6-7.5c2.4-0.7-0.6-4.3-2.3-4.1c-0.6,0-1.1,0.1-1.7,0.1
				C736.7,130.2,739.4,134.4,741.4,134.2L741.4,134.2z"/>
		</g>
	</g>
	<g id="XMLID_119_">
		<g id="XMLID_174_">
			<path id="XMLID_180_" class="st1" d="M742.3,137.6c-11.1,2.4-22,4.8-33.1,7.2c-0.3,0.1,2.9,3.2,4.4,2.8c11.1-2.4,22-4.8,33.1-7.2
				C747.1,140.3,743.8,137.3,742.3,137.6L742.3,137.6z"/>
		</g>
	</g>
	<g id="XMLID_118_">
		<g id="XMLID_181_">
			<path id="XMLID_187_" class="st1" d="M744.2,144.5c-10.9,2.3-22,4.6-32.9,7c-2,0.5,0.8,2.7,2.6,2.3c10.9-2.4,21.9-4.8,32.9-7
				C748.8,146.4,746.1,144,744.2,144.5L744.2,144.5z"/>
		</g>
	</g>
	<g id="XMLID_117_">
		<g id="XMLID_188_">
			<path id="XMLID_194_" class="st1" d="M744.4,150.2c-10.3,2.7-20.7,5.3-31.1,7.5c-3,0.7,1.6,2.8,3.3,2.5
				c10.4-2.2,20.8-4.8,31.1-7.5C750.8,151.9,746.1,149.8,744.4,150.2L744.4,150.2z"/>
		</g>
	</g>
	<g id="XMLID_122_">
		<g id="XMLID_195_">
			<path id="XMLID_201_" class="st1" d="M747.3,156c-11.1,2.7-22.1,5.2-33.2,7.9c-0.2,0,2,4.2,3.4,3.8c11.1-2.7,22.1-5.2,33.2-7.9
				C750.9,159.9,748.7,155.7,747.3,156L747.3,156z"/>
		</g>
	</g>
	<g id="XMLID_129_">
		<g id="XMLID_202_">
			<path id="XMLID_208_" class="st1" d="M782.7,115.1c-10.2,2.1-20.4,4.2-30.5,6.2c-1.3,0.2-2.1,1.1-1.9,2.4
				c2.4,13.4,4.9,26.7,7.3,40c0.2,1.2,1.8,2.1,2.9,1.9c10.4-2.2,20.8-4.4,31.3-6.2c3.1-0.6,1.7-4.8-1.2-4.4
				c-10.4,1.9-20.8,4-31.3,6.2c0.9,0.6,2,1.2,2.9,1.9c-2.4-13.4-4.9-26.7-7.3-40c-0.7,0.8-1.2,1.7-1.9,2.4
				c10.2-2.1,20.4-4.2,30.5-6.2C787,118.8,785.5,114.5,782.7,115.1L782.7,115.1z"/>
		</g>
	</g>
	<g id="XMLID_136_">
		<g id="XMLID_209_">
			<path id="XMLID_215_" class="st1" d="M672.5,39.1c-4,1.1-7.9,2.2-12,3.3c-0.9,0.3-3.6,2.1-3.2,3.3c9.4,32.2,20.6,63.8,33.4,94.9
				c0.2,0.6,4.2-2.1,3.6-3.5c-12.8-30.9-23.8-62.4-33.2-94.5c-1.1,1.1-2.1,2.1-3.2,3.3c4-1.1,7.9-2.2,12-3.3
				C671,42.4,673.8,38.8,672.5,39.1L672.5,39.1z"/>
		</g>
	</g>
	<g id="XMLID_143_">
		<g id="XMLID_216_">
			<path id="XMLID_222_" class="st1" d="M712.1,183.8c1.9,4.7,4.3,9.2,7.3,13.7c0.7,0.9,6.1,0.4,7.5,0.2
				c40-9.3,80.1-18.6,119.9-27.9c-0.9,0.2-5.1-0.7-7.2-0.2c-40,9.3-80.1,18.6-119.9,27.9c2.5,0,4.9,0.1,7.5,0.2
				c-2.9-4.4-5.4-8.9-7.3-13.7C719.3,182.9,712.2,183.9,712.1,183.8L712.1,183.8z"/>
		</g>
	</g>
	<g id="XMLID_150_">
		<g id="XMLID_223_">
			<path id="XMLID_229_" class="st1" d="M111.1,36.3c-36.2-8.2-72.6-15-109.3-20.4c-3.1-0.5-1.8,4,0.5,4.3
				C39,25.7,75.4,32.5,111.6,40.7C114.6,41.3,113.4,36.8,111.1,36.3L111.1,36.3z"/>
		</g>
	</g>
	<g id="XMLID_157_">
		<g id="XMLID_230_">
			<path id="XMLID_236_" class="st1" d="M110.2,39.8c-12.4,25.5-14.2,54-20.1,81.4C87,135.4,82.2,149.1,78,163
				c-2.1,6.9-4,14-5.2,21.1c-0.6,3.6-1.1,7.1-1.4,10.7c-0.2,2-0.9,4.6,0.4,6.3c0.8,1.1,2.7,1.1,3.9,0.7c0.2-0.1,0.3-0.1,0.5-0.2
				c0.6-0.2,0.9-0.8,0.8-1.4c0-0.1-0.1-0.3-0.1-0.4c-0.4-1.9-5.4-1.9-4.9,0.4c0,0.1,0.1,0.3,0.1,0.4c0.3-0.5,0.5-1,0.8-1.4
				c-0.2,0.1-0.3,0.1-0.5,0.2c1.3,0.2,2.6,0.5,3.9,0.7c-1.1-1.5,0.4-7.2,0.6-9.2c0.4-3.3,1-6.5,1.7-9.8c1.4-6.8,3.3-13.5,5.3-20.2
				c4.1-13.3,8.5-26.4,11.5-40c5.7-26.8,7.5-54.7,19.7-79.7C115.9,39,111,38,110.2,39.8L110.2,39.8z"/>
		</g>
	</g>
	<g id="XMLID_164_">
		<g id="XMLID_237_">
			<path id="XMLID_243_" class="st1" d="M109.1,48.4c3.4,0.2,6.8,0.4,10.3,0.7c-0.6-0.3-1.2-0.5-1.9-0.8
				c-7.7,28.4-16.4,56.4-26,84.2c-0.3,0.7,4.5,1.3,5-0.2c9.7-27.7,18.4-55.8,26-84.2c0.2-0.6-1.6-0.8-1.9-0.8
				c-3.4-0.2-6.8-0.4-10.3-0.7C108.4,46.6,105.7,48.2,109.1,48.4L109.1,48.4z"/>
		</g>
	</g>
	<g id="XMLID_171_">
		<g id="XMLID_244_">
			<path id="XMLID_250_" class="st1" d="M13.5,30.1c-2.4-0.2-4.7-0.6-7-1.2c-1.1-0.3-2.6-0.2-3,1.1c-0.4,1.1,0.6,2.4,1.7,2.7
				c2.7,0.7,5.5,1.2,8.3,1.5C16.7,34.4,16.4,30.3,13.5,30.1L13.5,30.1z"/>
		</g>
	</g>
	<g id="XMLID_178_">
		<g id="XMLID_251_">
			<path id="XMLID_257_" class="st1" d="M12.1,37.6c-2.1-0.7-4.3-1.4-6.4-2.1c-1-0.3-2.5-0.5-3,0.6s0.7,2.3,1.6,2.6
				c2.1,0.7,4.3,1.4,6.4,2.1c1,0.3,2.5,0.5,3-0.6C14.2,39.2,13.1,38,12.1,37.6L12.1,37.6z"/>
		</g>
	</g>
	<g id="XMLID_185_">
		<g id="XMLID_258_">
			<path id="XMLID_264_" class="st1" d="M8,46.6c-1-0.4-2.1-0.8-3.1-1.2C4.1,45.1,2.4,45,2.1,46c-0.4,1.1,1.2,1.9,1.9,2.2
				c1,0.4,2.1,0.8,3.1,1.2c0.8,0.3,2.5,0.4,2.8-0.6C10.3,47.6,8.8,46.9,8,46.6L8,46.6z"/>
		</g>
	</g>
	<g id="XMLID_192_">
		<g id="XMLID_265_">
			<path id="XMLID_271_" class="st1" d="M17.7,33.4c-3,5.6-5.6,11.3-8,17.1c-0.1,0.3,4.5,1.4,5,0.2c2.4-5.8,5-11.5,8-17.1
				C22.8,33.5,18.4,32.3,17.7,33.4L17.7,33.4z"/>
		</g>
	</g>
	<g id="XMLID_199_">
		<g id="XMLID_272_">
			<path id="XMLID_278_" class="st1" d="M18.5,36.1c0.6,6.5,1.8,12.8,3.7,19c0.2,0.8,4.8-1,4.5-2.2c-1.9-6.2-3.1-12.6-3.7-19
				C22.9,33.3,18.3,34.7,18.5,36.1L18.5,36.1z"/>
		</g>
	</g>
	<g id="XMLID_206_">
		<g id="XMLID_279_">
			<path id="XMLID_285_" class="st1" d="M24,46.5c-2.6-0.5-5.3-1-7.9-1.4c-0.9-0.2-2.6-0.6-3.5-0.1c-0.8,0.5,0.3,0.7,0.8,0.8
				c2.6,0.5,5.3,1,7.9,1.4c0.9,0.2,2.6,0.6,3.4,0.1C25.6,46.8,24.5,46.6,24,46.5L24,46.5z"/>
		</g>
	</g>
	<g id="XMLID_213_">
		<g id="XMLID_286_">
			<path id="XMLID_292_" class="st1" d="M29.7,36.2c-1.3,6.3-2,12.7-2.1,19.2c0,0.6,4.8,0,4.8-1.3c0-6.3,0.7-12.6,2-18.8
				C34.7,34.4,30,35.1,29.7,36.2L29.7,36.2z"/>
		</g>
	</g>
	<g id="XMLID_220_">
		<g id="XMLID_293_">
			<path id="XMLID_299_" class="st1" d="M39.9,37.9c-2.6,1.7-5.4,2.8-8.5,3c-3.2,0.2-3,4.7,0.1,4.5c3.9-0.3,7.6-1.3,10.9-3.5
				C45,40.2,42.3,36.4,39.9,37.9L39.9,37.9z"/>
		</g>
	</g>
	<g id="XMLID_227_">
		<g id="XMLID_300_">
			<path id="XMLID_306_" class="st1" d="M30.8,44.7c2.7,3.7,4.9,7.6,6.6,11.8c0.5,1.2,5.2-0.4,4.8-1.4c-1.8-4.2-4-8.1-6.6-11.8
				C34.7,42.2,30.4,44.1,30.8,44.7L30.8,44.7z"/>
		</g>
	</g>
	<g id="XMLID_234_">
		<g id="XMLID_307_">
			<path id="XMLID_313_" class="st1" d="M46.2,39.9c-1.9,5.6-3.4,11.2-4.7,17c-0.6,2.6,3.8,4.7,4.5,1.7c1.3-5.7,2.8-11.4,4.7-17
				C51.5,39.1,47.1,37,46.2,39.9L46.2,39.9z"/>
		</g>
	</g>
	<g id="XMLID_241_">
		<g id="XMLID_314_">
			<path id="XMLID_320_" class="st1" d="M52.4,42.2c-0.7,5.4-1.8,10.6-3.5,15.7c-0.6,1.6,3.8,4,4.2,2.7c1.8-5.3,3-10.7,3.7-16.3
				C57,42.8,52.6,40.5,52.4,42.2L52.4,42.2z"/>
		</g>
	</g>
	<g id="XMLID_248_">
		<g id="XMLID_321_">
			<path id="XMLID_327_" class="st1" d="M55.6,46.5c1.2,1.4,1.8,4.4,2.6,6.2c1.1,2.4,2.2,4.7,3.4,6.9c0.2,0.4,2.4,3.4,2.5,2.7
				c1-5.4,2.6-10.5,5-15.5c0.6-1.2-2.8-4.2-2.8-4.2c-2.4,5-4.2,10.3-5.2,15.8c0.8,0.9,1.7,1.8,2.5,2.7c-1.8-3.4-3.5-6.9-5-10.5
				c-1-2.5-2-4.8-3.9-6.8C53,41.5,54.9,45.7,55.6,46.5L55.6,46.5z"/>
		</g>
	</g>
	<g id="XMLID_255_">
		<g id="XMLID_328_">
			<path id="XMLID_334_" class="st1" d="M86.6,47.8c-6.2-5.4-16.8,0.7-19.7,7.1c-3.9,8.5,7.6,11.1,13.4,8c2.9-1.6,0-4.3-2.5-3
				c-1.1,0.6-4,0.4-5.1-0.1c-2.5-1-1.7-3.8-0.5-5.5c1.7-2.4,7.3-6.6,10.2-4C84.3,52,88.6,49.5,86.6,47.8L86.6,47.8z"/>
		</g>
	</g>
	<g id="XMLID_262_">
		<g id="XMLID_335_">
			<path id="XMLID_341_" class="st1" d="M83.9,54.8c-2.8-0.6-5.5-0.9-8.3-0.9c-1.2,0-2.1,1.2-1.9,2.4c0.3,1.4,1.7,2,2.9,2
				c2.4,0,4.7,0.4,7.1,0.9c1.2,0.3,2.5-0.6,2.6-1.8C86.3,55.9,85,55,83.9,54.8L83.9,54.8z"/>
		</g>
	</g>
	<g id="XMLID_269_">
		<g id="XMLID_342_">
			<path id="XMLID_348_" class="st1" d="M79.8,58.8c-0.8,2.6-1.6,5.2-2.4,7.7c-0.3,0.8,1.8,0,2-0.1c0.8-0.4,2.1-1,2.4-2
				c0.8-2.6,1.6-5.2,2.4-7.7c0.3-0.8-1.8,0-2,0.1C81.4,57.2,80,57.8,79.8,58.8L79.8,58.8z"/>
		</g>
	</g>
	<g id="XMLID_276_">
		<g id="XMLID_349_">
			<path id="XMLID_355_" class="st1" d="M80.9,75.7c-2.4-8.4-22.9-8-20.7,2.1c1,4.7,6.7,4.8,10.4,5.5c2.1,0.4,4.1,0.4,5,2.7
				c0.8,2.2-0.1,5.5-1.3,7.3c-3.1,4.5-12.9,6.5-12.3-2.5c0.1-1.5-4.1-3.9-4.2-2.4c-0.8,11.8,17.8,17.8,21.8,5.3
				c1.5-4.8-0.4-10.3-5.2-12.3c-1.2-0.5-2.6-0.8-3.9-1.1c-0.5-0.1-6.1-0.6-6.3-1c-1.3-2,4-5.2,5-5.6c0.8-0.3,7.3-1,7.7,0.3
				C77.1,75.3,81.4,77.5,80.9,75.7L80.9,75.7z"/>
		</g>
	</g>
	<g id="XMLID_283_">
		<g id="XMLID_356_">
			<path id="XMLID_362_" class="st1" d="M56.8,68.4c-4.6,8.3-9.7,16.2-15.2,23.8c1.5,0.2,2.9,0.4,4.4,0.6c-1-3.7-1.7-7.3-2.1-11.1
				c-0.2-2.3-3.3-1.8-4.4-0.6c-2.9,3.3-5.7,6.6-8.6,10c1.5,0.4,2.9,0.8,4.4,1.2c0.2-10.3,1.2-20.5,2.8-30.7c0.5-3-4.4-2.8-4.8-0.1
				c-1.6,10.2-2.6,20.4-2.8,30.7c-0.1,2.6,3,2.8,4.4,1.2c2.9-3.3,5.7-6.6,8.6-10c-1.5-0.2-2.9-0.4-4.4-0.6c0.4,3.8,1.1,7.4,2.1,11.1
				c0.6,2,3.2,2.2,4.4,0.6c5.8-8,11.1-16.3,15.8-24.9C62.8,66.8,58.1,65.9,56.8,68.4L56.8,68.4z"/>
		</g>
	</g>
	<g id="XMLID_290_">
		<g id="XMLID_363_">
			<path id="XMLID_369_" class="st1" d="M28.2,60.5c-4.1-0.9-8.5-2.3-12.7-2.7c-1.7-0.1-2.8,0-3.7,1.7c-1.4,2.8-1,7.4-1.5,10.4
				c-0.7,4.6-1.6,9.2-2.6,13.8c-0.3,1.6,0.7,3.6,2.5,3.5c3.9-0.2,7.4,0.3,11.1,1.7c2.9,1.1,2.7-3.6,0.3-4.6c-4-1.5-7.9-2.1-12.2-1.9
				c0.8,1.2,1.7,2.3,2.5,3.5c1.2-5.5,2.3-11.1,3.1-16.8c0.4-2.6-0.2-6,2.8-6.3c2.8-0.2,7.3,1.5,10,2.1C31,65.7,30.8,61,28.2,60.5
				L28.2,60.5z"/>
		</g>
	</g>
	<g id="XMLID_297_">
		<g id="XMLID_370_">
			<path id="XMLID_376_" class="st1" d="M20.7,72.4c-3-0.4-5.9-1.1-8.8-2c-1.1-0.4-2.6-0.2-3.3,0.9c-0.6,1.1,0.2,2.4,1.3,2.8
				c3.3,1.1,6.7,1.9,10.1,2.4C23.2,76.9,23.8,72.8,20.7,72.4L20.7,72.4z"/>
		</g>
	</g>
	<g id="XMLID_304_">
		<g id="XMLID_377_">
			<path id="XMLID_383_" class="st1" d="M73.2,108.4c-13.4-3.2-27.6-2.7-40.5-8.1c-1.4-0.6-2.3,1.3-0.9,1.9
				c13.1,5.5,27.5,5,41.2,8.3C74.6,110.8,74.7,108.7,73.2,108.4L73.2,108.4z"/>
		</g>
	</g>
	<g id="XMLID_311_">
		<g id="XMLID_384_">
			<path id="XMLID_390_" class="st1" d="M69.9,112.7c-12.1-0.2-24-2.1-35.6-5.7c-1.4-0.4-2.3,1.7-0.8,2.2
				c11.8,3.7,23.9,5.6,36.2,5.8C71.3,114.9,71.6,112.7,69.9,112.7L69.9,112.7z"/>
		</g>
	</g>
	<g id="XMLID_318_">
		<g id="XMLID_391_">
			<path id="XMLID_397_" class="st1" d="M69.8,120.5c-12.3-1-24.2-3.4-35.9-7.4c-1.5-0.5-2,1.6-0.6,2.1c11.8,4,24,6.6,36.5,7.5
				C71.5,122.9,71.3,120.6,69.8,120.5L69.8,120.5z"/>
		</g>
	</g>
	<g id="XMLID_325_">
		<g id="XMLID_398_">
			<path id="XMLID_404_" class="st1" d="M67,126.6c-11-2-22-4-33.1-6c-1.6-0.3-1.2,1.4,0.1,1.6c11,2,22,4,33.1,6
				C68.7,128.5,68.3,126.8,67,126.6L67,126.6z"/>
		</g>
	</g>
	<g id="XMLID_332_">
		<g id="XMLID_405_">
			<path id="XMLID_411_" class="st1" d="M68.2,132.4c-11.6-2.1-23.1-4.3-34.6-6.8c-1-0.2-2.7,1.6-1.4,1.8
				c11.5,2.5,23.1,4.7,34.6,6.8C67.8,134.4,69.5,132.6,68.2,132.4L68.2,132.4z"/>
		</g>
	</g>
	<g id="XMLID_339_">
		<g id="XMLID_412_">
			<path id="XMLID_418_" class="st1" d="M4.4,94.3c4.9,0.8,9.9,1.6,14.8,2.4c2.2,0.4,6.2-0.1,6.7,2.9c0.3,1.7-1.4,5-1.9,6.7
				c-3,10.1-6,20.2-9,30.3c0.4-0.1,0.9-0.1,1.3-0.2c-4.4-0.7-8.7-1.6-13-2.7c-0.6-0.1-2.8,0-1.3,0.4c4.7,1.2,9.4,2.2,14.2,3
				c0.2,0,1.2,0.2,1.3-0.2c1.9-6.3,3.7-12.6,5.6-18.9c0.9-3.2,1.9-6.3,2.8-9.5c0.7-2.4,2.6-6,2.5-8.6c-0.1-2.4-1.7-2.6-3.8-3
				c-6.4-1.2-12.9-2.1-19.4-3.2C4.2,93.6,2.7,94,4.4,94.3L4.4,94.3z"/>
		</g>
	</g>
	<g id="XMLID_346_">
		<g id="XMLID_419_">
			<path id="XMLID_425_" class="st1" d="M66.8,139.9c-6.5-1-13.1-1.9-19.6-2.8c-3.1-0.4-6.2-0.8-9.4-1.2c-1.4-0.2-6.4-1.6-7.6-0.7
				c-1.5,1.1-1.5,5.3-1.9,7c-0.7,3.2-1.3,6.4-2,9.6c-1.4,7-2.9,14-4.3,21c-0.1,0.6,1.8,1.6,1.8,1.7c1.3-6.4,2.6-12.8,3.9-19.1
				c0.7-3.2,1.3-6.4,2-9.6c0.3-1.7,0.5-7.1,1.8-8.4c1.7-1.6,6.8,0.1,8.9,0.4c2.8,0.4,5.6,0.7,8.4,1.1c6.6,0.9,13.1,1.8,19.6,2.8
				C68.3,141.7,67.5,140,66.8,139.9L66.8,139.9z"/>
		</g>
	</g>
	<g id="XMLID_353_">
		<g id="XMLID_426_">
			<path id="XMLID_432_" class="st1" d="M66.2,141.7c-1.7,5.5-3.3,10.9-5,16.4c-0.9,3-1.8,6.1-2.8,9.1c-0.8,2.5-1.2,5.9-2.5,8.2
				c-1.6,3-4.3,1.6-7.3,1c-2.8-0.5-5.6-1.1-8.4-1.6c-5.9-1.1-11.9-2.3-17.8-3.5c-1.5-0.3-1.7,0.9-0.2,1.2c7.2,1.4,14.3,2.8,21.5,4.2
				c3.3,0.6,6.9,1.7,10.3,1.9c1,0.1,2.2,0.4,3.1-0.3c1.3-0.9,1.5-3.2,1.9-4.4c1-3.3,2-6.7,3-10c2.2-7.3,4.4-14.5,6.6-21.8
				C68.9,141.3,66.5,140.8,66.2,141.7L66.2,141.7z"/>
		</g>
	</g>
	<g id="XMLID_360_">
		<g id="XMLID_433_">
			<path id="XMLID_439_" class="st1" d="M56.3,184.3c-6.5-0.4-13-0.8-19.5-1.5c-1.6-0.2-16.4-1-16.6-2.2c-0.2-1.4-2.7-1.4-2.5,0.1
				c0.2,1.2,0.6,1.6,1.7,2.1c2.9,1.6,8.9,1.3,12.1,1.6c8.3,0.9,16.6,1.6,24.9,2C57.9,186.6,57.8,184.3,56.3,184.3L56.3,184.3z"/>
		</g>
	</g>
	<g id="XMLID_367_">
		<g id="XMLID_440_">
			<path id="XMLID_446_" class="st1" d="M54.2,189.7c-5.8-0.6-11.6-1.2-17.4-1.8c-2.6-0.3-5.1-0.5-7.7-0.8
				c-1.6-0.2-9.6-0.1-10.5-1.7c-0.5-0.9-2.7,0.3-2.2,1.1c0.8,1.5,2.2,1.3,3.9,1.5c3.5,0.4,7.1,0.7,10.6,1.1
				c7.4,0.8,14.8,1.5,22.2,2.3C54.1,191.6,55.7,189.9,54.2,189.7L54.2,189.7z"/>
		</g>
	</g>
	<g id="XMLID_374_">
		<g id="XMLID_447_">
			<path id="XMLID_453_" class="st1" d="M54.6,196.7c-5.6-0.6-11.3-1.2-16.9-1.8c-2.5-0.3-5-0.5-7.5-0.8c-3.1-0.3-8.5-0.1-11.2-1.7
				c-0.6-0.3-2.3,0.3-2.4,0.3c4.1,2.4,11,1.7,15.6,2.2c6.9,0.7,13.8,1.5,20.7,2.2C53.2,197.2,55.6,196.8,54.6,196.7L54.6,196.7z"/>
		</g>
	</g>
	<g id="XMLID_381_">
		<g id="XMLID_454_">
			<path id="XMLID_460_" class="st1" d="M16.9,144.4c-3.7-1.3-7.5-2.5-11.2-3.8c-0.8-0.3-2.9,1.1-1.8,1.4c3.7,1.3,7.5,2.5,11.2,3.8
				C16,146.1,18,144.7,16.9,144.4L16.9,144.4z"/>
		</g>
	</g>
	<g id="XMLID_388_">
		<g id="XMLID_461_">
			<path id="XMLID_467_" class="st1" d="M15,150.1c-3-0.2-5.9-1.1-8.7-2.4c-0.4-0.2-1.2-0.3-1.7-0.2c-0.1,0-0.9,0.1-0.5,0.3
				c3.4,1.6,7,2.4,10.8,2.8C16.4,150.7,16.5,150.2,15,150.1L15,150.1z"/>
		</g>
	</g>
	<g id="XMLID_395_">
		<g id="XMLID_468_">
			<path id="XMLID_474_" class="st1" d="M15.4,156.3c-3.1-1.1-6.1-2.2-9.2-3.3c-1.3-0.5-2.8,1.5-1.3,2c3.1,1.1,6.1,2.2,9.2,3.3
				C15.3,158.8,16.8,156.8,15.4,156.3L15.4,156.3z"/>
		</g>
	</g>
	<g id="XMLID_402_">
		<g id="XMLID_475_">
			<path id="XMLID_481_" class="st1" d="M10.9,160.9c-2.4-0.4-4.8-1-7.2-1.8C3.4,159,3.8,160,3.9,160c0.2,0.4,0.5,1.1,1,1.2
				c2.3,0.8,4.7,1.4,7.2,1.8C12.2,163.1,11.5,161,10.9,160.9L10.9,160.9z"/>
		</g>
	</g>
	<g id="XMLID_409_">
		<g id="XMLID_482_">
			<path id="XMLID_488_" class="st1" d="M8.2,166.7c-1.8-0.5-3.6-1-5.4-1.6c0,0,0.4,1,0.5,1.2c0.1,0.3,0.4,0.9,0.7,1
				c1.8,0.5,3.6,1,5.4,1.6c0,0-0.4-1-0.5-1.2C8.8,167.5,8.6,166.8,8.2,166.7L8.2,166.7z"/>
		</g>
	</g>
	<g id="XMLID_416_">
		<g id="XMLID_489_">
			<path id="XMLID_495_" class="st1" d="M8,172.2c-1.5-0.3-3.1-0.7-4.6-1c-0.6-0.1-1.1,0.4-1.1,1c0,0.7,0.6,1.2,1.2,1.3
				c1.5,0.3,3.1,0.7,4.6,1c0.6,0.1,1.1-0.4,1.1-1C9.2,172.8,8.6,172.3,8,172.2L8,172.2z"/>
		</g>
	</g>
	<g id="XMLID_423_">
		<g id="XMLID_496_">
			<path id="XMLID_503_" class="st1" d="M20.7,104.2c0-0.1,0-0.2,0-0.4c-1.9,1.5-3.8,3-5.7,4.4c0.1,0,0.1,0,0.2,0
				c-1.4-1-2.8-1.9-4.2-2.9c-0.2-0.6-1.9,4.4-2.1,5.3c-0.8,3-1.5,6-2.1,9c-0.7,3.6-2.8,9.3,0.6,12.2c2.4,2,6.9,1.4,8.5-1.3
				c4.5-7.8,7.9-16.1,10.2-24.7c1.3-4.9-8.6-4.9-9.8-0.4c-2.2,8.1-5.4,15.6-9.5,22.9c2.8-0.4,5.7-0.9,8.5-1.3
				c0.3,0.9,0.4,0.5,0.4-1.3c0.2-1.2,0.4-2.4,0.6-3.6c0.4-2.4,1-4.8,1.5-7.2c0.5-2.2,0.9-4.6,1.7-6.7c0.4-1.1,1.8-2.7,1.3-4.1
				c-0.6-1.8-2.2-2.9-4.2-2.9c-0.1,0-0.1,0-0.2,0c-2.6,0-5.8,1.4-5.7,4.4c0,0.1,0,0.2,0,0.4C11,110.5,20.9,109.1,20.7,104.2
				L20.7,104.2z"/>
		</g>
	</g>
	<g id="XMLID_430_">
		<g id="XMLID_504_">
			<path id="XMLID_511_" class="st1" d="M22.4,99.8c-4.3-1.3-8.7-2.2-13.1-2.6c-2.9-0.3-7.3,1.9-6.5,5.5c1.1,5.1,1.6,10.2,1.3,15.4
				c-0.4,5.9,9.2,4.5,9.5-0.5c0.4-5.9,0-11.7-1.3-17.5c-2.2,1.8-4.4,3.7-6.5,5.5c4.5,0.4,8.8,1.3,13.1,2.6
				C23.7,109.6,28.4,101.6,22.4,99.8L22.4,99.8z"/>
		</g>
	</g>
	<g id="XMLID_437_">
		<g id="XMLID_512_">
			<path id="XMLID_524_" class="st1" d="M17.9,102.1c0.1,0.7,0.8,1.3,1.4,1.6c1.8,1,7.4,2.2,8.4-0.6c1.6-4.4-2.9-5.2-6.2-5.9
				c-5.1-1.2-10.1-2-15.4-2.4c-1.6-0.1-5,0.2-5.2,2.4c-0.1,2.2,3.3,3,4.8,3.1c2.9,0.2,5.8,0.4,8.7,1c1.2,0.2,2.4,0.6,3.7,0.9
				c0.5,0.1,4.6,1.3,2.1,0.4c-0.7-0.6-1.5-1.2-2.2-1.8c0.1,0.1,0.1,0.2,0.2,0.3c2.8-0.2,5.6-0.4,8.4-0.6c0.3,0.3,0.6,0.6,1,1
				C27,97.9,17.1,97.8,17.9,102.1L17.9,102.1z"/>
		</g>
	</g>
	<g id="XMLID_444_">
		<g id="XMLID_526_">
			<path id="XMLID_537_" class="st1" d="M9.5,127.8c-0.1,0.4-0.1,0.7-0.2,1.1c0,0.1,0,0.3-0.1,0.4c0,0.4-0.1,0.3,0-0.2
				c1.1-0.8,2.2-1.7,3.4-2.5c0.5,0.1,0.5,0.1,0.2,0.1c-0.2,0-0.5-0.1-0.7-0.1c-0.5-0.1-1-0.1-1.5-0.2c-1-0.1-1.9-0.3-2.9-0.5
				c-2.3-0.4-4.7,1-4.7,3.5c0,2.4,1.7,5.2,4.2,5.7c2.1,0.4,4.3,0.7,6.4,0.9c1.9,0.2,3.6-0.7,4.2-2.6c0.4-1.1,0.4-2.4,0.6-3.5
				c0.4-2.4-1.9-5.2-4.2-5.7C11.6,123.8,9.9,125.3,9.5,127.8L9.5,127.8z"/>
		</g>
	</g>
	<g id="XMLID_451_">
		<g id="XMLID_538_">
			<path id="XMLID_545_" class="st1" d="M52.5,147.5c-0.9-0.6-1.8-1.1-2.8-1.5c-0.5-0.2-1.3-0.2-1.7,0.2s0,0.9,0.4,1.1
				c0.8,0.4,1.6,0.8,2.3,1.3c0.5,0.3,1.2,0.4,1.8,0.1C52.9,148.3,53,147.8,52.5,147.5L52.5,147.5z"/>
		</g>
	</g>
	<g id="XMLID_458_">
		<g id="XMLID_640_">
			<path id="XMLID_655_" class="st1" d="M51.9,147.9c-0.4,0.5-0.7,1.1-1,1.7c-0.1,0.3-0.2,0.7-0.3,1c0.1,0.4-0.1,0.5-0.3,0.3
				c-0.2,0-0.5-0.1-0.7-0.3c-1.4-0.6-2.7-1.2-4.2-1.6c-0.1,0,0.3,1,0.6,1.1c0.9,0.2,1.7,0.5,2.5,0.8c0.5,0.2,1,0.4,1.5,0.7
				c0.1,0,0.7,0.5,0.8,0.4c0.4-0.1,0.3,0.1,0.4-0.5c0.3-0.9,0.7-1.8,1.2-2.6C52.7,148.7,51.9,147.8,51.9,147.9L51.9,147.9z"/>
		</g>
	</g>
	<g id="XMLID_472_">
		<g id="XMLID_546_">
			<path id="XMLID_626_" class="st1" d="M50,152.2c1.3,2.2,2,4.5,1.2,7c-0.7,2-2.3,2.9-3.5,4.4c-2.9,3.6-2,8.3-4.7,12
				c0,0,1,0.1,1.2-0.1c2.6-3.5,2-7.7,4.4-11.4c1-1.5,2.5-2.3,3.4-3.9c1.5-2.8,0.9-5.6-0.7-8.2C51.1,151.8,50,152.2,50,152.2
				L50,152.2z"/>
		</g>
	</g>
	<g id="XMLID_479_">
		<g id="XMLID_547_">
			<path id="XMLID_553_" class="st1" d="M44.6,149.4c-2.7,0.3-4,1.6-5.4,4c-1.5,2.7-0.8,4.5-0.8,7.5c-0.2,7-8.1,6.6-10.2,12.4
				c-0.1,0.2,1.1,0.5,1.2,0.2c1.7-4.6,6.6-4.4,9-8.1c3-4.8-1.9-14.4,7.1-15.6C46,149.7,44.9,149.3,44.6,149.4L44.6,149.4z"/>
		</g>
	</g>
	<g id="XMLID_486_">
		<g id="XMLID_554_">
			<path id="XMLID_560_" class="st1" d="M782.3,133c0.2,1.6,0.3,3.2,0.3,4.8c0,1.8-1,2.9-2.5,3.9c-0.9,0.6,0.8,2.4,1.5,1.9
				c1.5-0.9,2.7-1.9,3-3.6c0.3-1.9,0-4-0.1-6C784.3,133.1,782.2,131.9,782.3,133L782.3,133z"/>
		</g>
	</g>
	<g id="XMLID_493_">
		<g id="XMLID_561_">
			<path id="XMLID_567_" class="st1" d="M784.3,132.3c-4.2-7.4-14.9-1.9-14.3,5.6c0.4,4.5,7.9,7,3.2,11.5c-3.5,3.3-6.2,5.6-6.7,10.9
				c-0.1,1,2.4,0.7,2.4-0.3c0.4-4.7,2.7-7.5,6.4-10.1c1.3-1,1.9-1.1,2.1-2.8c0.3-1.8-0.6-3.6-1.6-4.7c-1.8-2-3.5-2.9-3.2-6.2
				c0.4-4.4,7-7.8,9.6-3.1C782.5,133.9,784.9,133.2,784.3,132.3L784.3,132.3z"/>
		</g>
	</g>
	<g id="XMLID_500_">
		<g id="XMLID_568_">
			<path id="XMLID_574_" class="st1" d="M780,142.6c-0.2,1.5,0,4.1,1.6,4.7c1.1,0.4,2.2,0.2,3.3,0.7c1.1,0.6,2,1.4,2.7,2.6
				c0.4,0.7,2.7,0,2.4-0.6c-0.9-1.6-2.2-2.7-3.8-3.4c-0.8-0.3-1.5-0.3-2.2-0.5c-1.5-0.4-1.7-2.4-1.5-3.8
				C782.5,141.5,780.2,141.8,780,142.6L780,142.6z"/>
		</g>
	</g>
	<g id="XMLID_507_">
		<g id="XMLID_575_">
			<path id="XMLID_581_" class="st1" d="M788,150.5c1.1,1.6,1.3,3.8,0.9,5.7c-0.1,0.5,2.4,0.6,2.5-0.1c0.3-2,0.1-4.3-1-6
				C790,149.6,787.7,150,788,150.5L788,150.5z"/>
		</g>
	</g>
	<g id="XMLID_514_">
		<g id="XMLID_582_">
			<path id="XMLID_588_" class="st1" d="M714.9,97c1,2.1,2.1,4.4,2.8,6.6c1.1,2.8,0.4,3.8,0,6.6c-0.6,4.1,3,9,5,12.4
				c0.1,0.2,1.2-0.4,1.1-0.5c-1.3-2.2-2.5-4.4-3.6-6.7c-1.4-3.1-1.4-3.8-0.7-7.1c0.8-3.8-1.9-8.3-3.6-11.7
				C716,96.3,714.8,96.8,714.9,97L714.9,97z"/>
		</g>
	</g>
	<g id="XMLID_521_">
		<g id="XMLID_589_">
			<path id="XMLID_595_" class="st1" d="M715.9,96.3c-0.8,0.3-1.8,0.7-2.3,1.5c-0.5,1,0.5,2.2,0.9,3.2c0.4,0.8,1,1.8,1.1,2.7
				c0.2,0.4,0.2,0.7,0,1c-0.1,0.6-0.3,0.6-0.5-0.1c-0.3-0.3-0.4-0.7-0.6-1.1c-0.9-1.7-1.9-3.4-2.7-5.1c-0.2-0.5-1.3,0.2-1.1,0.5
				c0.9,2,2,3.8,3,5.6c0.5,0.8,0.8,1.9,1.9,1.4c1-0.4,1.4-1.5,1.2-2.5c-0.1-0.9-0.6-1.7-1-2.6c-0.5-1.2-2.2-3.2-0.2-3.9
				C716.4,96.8,716.6,96.1,715.9,96.3L715.9,96.3z"/>
		</g>
	</g>
	<g id="XMLID_528_">
		<g id="XMLID_596_">
			<path id="XMLID_602_" class="st1" d="M710.8,98.4c-1.2,0.5-2.3,0.9-1.7,2.3c0.4,1.2,1.4,2.4,2.1,3.5c0.7,1.2,1.5,2.4,2.1,3.7
				c0.3,0.6,1.4-0.2,1-0.7c-0.9-1.4-1.7-2.8-2.5-4.2c-0.3-0.6-0.7-1.2-1.1-1.8c-0.6-0.9-0.9-1.1,0.2-1.7
				C711.5,99.3,711.5,98.2,710.8,98.4L710.8,98.4z"/>
		</g>
	</g>
	<g id="XMLID_535_">
		<g id="XMLID_603_">
			<path id="XMLID_609_" class="st1" d="M713.4,107.1c-1.1,0.6-1.3,0.2-2.1-0.7c-0.4-0.5-0.8-1-1.2-1.5c-0.9-1.3-1.5-2.6-2-4
				c-0.2-0.7-1.3-0.4-1,0.4c0.7,2.2,1.9,4.2,3.5,6c1.3,1.5,1.8,1.8,3.5,0.8C714.7,107.7,714,106.7,713.4,107.1L713.4,107.1z"/>
		</g>
	</g>
	<g id="XMLID_542_">
		<g id="XMLID_610_">
			<path id="XMLID_616_" class="st1" d="M707,100.4c-0.6,0.3-2,0.8-2.2,1.6c-0.3,1.1,1.3,3.1,1.8,3.9c1.5,3,2.8,5,6.2,5.6
				c0.7,0.2,0.4-1-0.1-1.1c-2.8-0.6-3.9-2.2-5.1-4.5c-0.3-0.6-0.8-1.5-1-2.2c-0.5-1.4-0.1-1.7,1.2-2.4
				C708.1,101.1,707.4,100.1,707,100.4L707,100.4z"/>
		</g>
	</g>
	<g id="XMLID_549_">
		<g id="XMLID_617_">
			<path id="XMLID_623_" class="st1" d="M711.9,110.7c3.3,3.7,5.3,8.1,7.2,12.7c0.2,0.3,1.3,0.3,1.3,0.2c-1.9-4.5-3.8-8.9-7.2-12.7
				C712.9,110.5,711.9,110.6,711.9,110.7L711.9,110.7z"/>
		</g>
	</g>
	<g id="XMLID_556_">
		<g id="XMLID_624_">
			<path id="XMLID_630_" class="st1" d="M725.9,96.8c-3.6,0.8-5.5,5.2-6.1,8.5c-0.6,3.2,0.7,6.1,3.7,7.3c0.8,0.4,0.4-0.4,0-0.6
				c-5.7-2.5-1.5-13.5,3.3-14.5C727.3,97.3,726.3,96.6,725.9,96.8L725.9,96.8z"/>
		</g>
	</g>
	<g id="XMLID_563_">
		<g id="XMLID_631_">
			<path id="XMLID_637_" class="st1" d="M726.1,97.9c3.7,0.9,3.5,7.2,2.6,9.8c-0.7,2-2.2,3.5-3.9,4.5c-0.4,0.2,0.3,1.3,0.7,1
				c3.7-2.1,5.1-6.1,4.4-10.2c-0.4-2.6-1.5-5.5-4.3-6.2C725.2,96.7,725.7,97.8,726.1,97.9L726.1,97.9z"/>
		</g>
	</g>
	<g id="XMLID_570_">
		<g id="XMLID_638_">
			<path id="XMLID_643_" class="st1" d="M724.6,112.5c-0.1,3.1-0.3,6.2-0.6,9.3c0,0.3,1,0.9,1,0.6c0.3-3.1,0.6-6.1,0.6-9.3
				C725.7,112.7,724.7,112.2,724.6,112.5L724.6,112.5z"/>
		</g>
	</g>
	<g id="XMLID_577_">
		<g id="XMLID_644_">
			<path id="XMLID_650_" class="st1" d="M724.1,112.7c0-0.1,0-0.1,0-0.2c0-0.5-1.1-0.2-1.2,0.2c-0.7,2.3-1.4,4.5-2.2,6.7
				c-0.1,0.4,1.1,0.2,1.2-0.2c0.8-2.2,1.6-4.5,2.2-6.7c-0.4,0.1-0.8,0.2-1.2,0.2c0,0.1,0,0.1,0,0.2
				C722.9,113.5,724.1,113.2,724.1,112.7L724.1,112.7z"/>
		</g>
	</g>
	<g id="XMLID_584_">
		<g id="XMLID_651_">
			<path id="XMLID_657_" class="st1" d="M722.1,86.1C722.1,86.1,722.1,86,722.1,86.1c-0.2,0.1-0.4,0.3-0.4,0.4l0.1,0
				c-0.2,0-0.4,0.1-0.7,0.1c0.4,1.1,0.1,3,0.1,4.3c0.1,1,0.1,2.1,0.3,3.1c0.2,2.1,0.6,4.2,1,6.2c0,0.2,1.2-0.2,1.1-0.5
				c-0.5-2.7-1-5.4-1.2-8.1C722.3,89.8,722.8,87.4,722.1,86.1c0-0.3-0.5-0.1-0.6,0l-0.1,0c-0.2,0-0.6,0.3-0.4,0.5l0,0.1
				C721.1,86.9,722.3,86.5,722.1,86.1L722.1,86.1z"/>
		</g>
	</g>
	<g id="XMLID_591_">
		<g id="XMLID_658_">
			<path id="XMLID_663_" class="st1" d="M721.2,86.5c-2,1.9-2.9,4.2-3.1,7c0,1.8,0.2,3.6,0.4,5.4c0.2,1.6,0,4.4,1.6,5.4
				c0.2,0.2,1.1-0.6,1.1-0.6c-1.8-1.2-1.6-5.5-1.8-7.5c-0.4-3.6-0.1-7.2,2.7-9.9C722.4,85.9,721.4,86.4,721.2,86.5L721.2,86.5z"/>
		</g>
	</g>
	<g id="XMLID_598_">
		<g id="XMLID_664_">
			<path id="XMLID_670_" class="st1" d="M726.1,112.8c0.4,2.9,0.8,5.8,1.6,8.6c0,0,1.1-0.4,1-0.7c-0.7-2.8-1.2-5.7-1.6-8.6
				C727.1,112.1,726.1,112.6,726.1,112.8L726.1,112.8z"/>
		</g>
	</g>
	<g id="XMLID_465_">
		<g id="XMLID_671_">
			<path id="XMLID_677_" class="st1" d="M49.4,146.6c0.1-0.8-1.5-1.1-2.1-1.3c-0.3-0.1-0.9,0.1-1,0.4c-0.6,1.2-1.1,2.4-1.7,3.7
				c-0.2,0.5,1,0.2,1.1-0.1c0.6-1.2,1.1-2.4,1.7-3.7c-0.3,0.1-0.7,0.3-1,0.4c0.3,0.1,1.8,0.5,1.8,0.9
				C48.2,147.3,49.4,147,49.4,146.6L49.4,146.6z"/>
		</g>
	</g>
	<g id="XMLID_501_">
		<g id="XMLID_678_">
			<path id="XMLID_684_" class="st1" d="M55.2,150.7c0,2-0.2,3.6-0.6,5.5c1.4,0.7,2.8,1.5,4.2,2.2c-0.5-2.2-0.6-4.3-0.6-6.5
				c0-1.2-2.4-3.5-3.7-2.7c-0.4,0.3-0.9,0.5-1.3,0.8c1.2,1.1,2.4,2.1,3.6,3.2c0.2-1.2,0.4-2.4,0.6-3.6c0.3-1.7-3.2-4.7-4.1-2.6
				c-0.7,1.4-1.3,2.8-2,4.2c1.4,0.9,2.8,1.7,4.1,2.6c0.1-0.3,0.2-0.6,0.4-0.9c-1.4-0.7-2.8-1.5-4.2-2.2c0,2.3,1,4.2,1.1,6.4
				c0.1,1.4,4,4.1,4.2,2.2c0.2-2.6-0.4-4.3-2.1-6.3c-0.8-0.9-4.2-2.4-3.4,0.2c2.6,7.5-2.9,11.3-3.9,18.1c-0.3,2.5,0.1,4.5,2.6,5.5
				c8.8,3.6,10-11.2,9.6-16.6c-0.1-1.1-3-4.1-4-2.5c-0.7,1.1-5.3,12-4.7,12.2c0.8,0.6,1.6,1.2,2.4,1.8c-1.4-2.6,1-7.2,2.1-9.6
				c0.7-1.5-2.7-4.2-4-2.9c-2.5,2.6-3.7,5.7-4.9,9.1c1.4,0.9,2.8,1.7,4.1,2.6c0.3-0.9,0.6-1.9,0.8-2.8c0.5-1.7-3.4-4.6-4.1-2.6
				c-0.8,2.3-0.8,6-2.6,7.8c1.3,1,2.6,2,4,2.9c0.6-1.2,0.9-2.2,1.1-3.5c0.3-1.8-3.8-4.6-4.1-2.6c-0.2,1.3-0.5,2.3-1.1,3.5
				c-0.7,1.5,2.7,4.2,4,2.9c2-2.1,2-5.8,2.9-8.5c-1.4-0.9-2.8-1.7-4.1-2.6c-0.3,0.9-0.6,1.9-0.8,2.8c-0.5,1.7,3.4,4.6,4.1,2.6
				c1.1-3.1,2.2-6,4.6-8.4c-1.3-1-2.6-2-4-2.9c-1.9,4.2-5,12.5,1.5,14.3c0.4,0.1,0.9,0,1.2-0.3c2.8-3.3,3-8.9,5.3-12.6
				c-1.3-0.8-2.7-1.7-4-2.5c0.2,3.4-0.5,6.5-1.4,9.8c-0.2,0.9-0.4,2.3-0.9,3.1c-0.5,0.7-2.7,2.4-3.8,1.9c0.8,0.9,1.5,1.7,2.3,2.6
				c-0.8-4.3,2.4-7.8,3.9-11.5c1.4-3.5,0.9-6.8-0.3-10.3c-1.1,0.1-2.2,0.1-3.4,0.2c0.2,0.8,0.5,1.7,0.7,2.5c1.4,0.7,2.8,1.5,4.2,2.2
				c-0.1-2.1-1.1-4.3-1.1-6.4c0-1.4-3.4-4.2-4.2-2.2c-0.1,0.3-0.2,0.6-0.4,0.9c-0.7,1.7,3.2,4.6,4.1,2.6c0.7-1.4,1.3-2.8,2-4.2
				c-1.4-0.9-2.8-1.7-4.1-2.6c-0.2,1.2-0.4,2.4-0.6,3.6c-0.2,1.4,2.2,4.1,3.6,3.2c0.4-0.3,0.9-0.5,1.3-0.8c-1.2-0.9-2.4-1.8-3.7-2.7
				c-0.1,2.2,0.1,4.3,0.6,6.5c0.2,1.1,3.6,4.5,4.2,2.2c0.5-2.1,0.7-4.2,0.7-6.3C59.4,150.7,55.2,148.2,55.2,150.7L55.2,150.7z"/>
		</g>
	</g>
	<g id="XMLID_508_">
		<g id="XMLID_685_">
			<path id="XMLID_691_" class="st1" d="M61.5,147.9L61.5,147.9c0.6-0.2,0.8-0.5,0.6-1v-0.1c-0.3-1-3.1-2.8-4.1-1.9
				c-1.1,0.9-1.6,3-2.1,4.3c1.5,0.7,3,1.4,4.5,2.1c-0.3-2-1.4-4.2,0.7-5.7c1.5-1,3.7-1.1,5.4-1.8c-1.4-0.9-2.8-1.7-4.2-2.6
				c-1.7,3.3-3.1,6.7-3.9,10.3c-0.8,3.4-0.7,7-1.6,10.4c1.5,0.8,2.9,1.6,4.4,2.4c1-4.4,1.6-9.4,3.7-13.5c-1.5-0.7-3-1.4-4.5-2.1
				c0,0.2,0.1,0.5,0.1,0.7c0.1,1.2,4.1,3.5,4.5,2.1c0.3-1.2,0.5-2.4,0.8-3.6c0.4-1.7-4.1-3.6-4.4-2.4c-0.3,1.2-0.5,2.4-0.8,3.6
				c1.5,0.7,3,1.4,4.5,2.1c0-0.2-0.1-0.5-0.1-0.7c-0.1-1.2-3.7-3.6-4.5-2.1c-2.1,4-2.7,9.1-3.7,13.5c-0.4,1.7,4,3.7,4.4,2.4
				c0.9-3.4,0.8-7,1.6-10.4c0.8-3.6,2.2-7,3.9-10.3c0.8-1.6-3.1-3-4.2-2.6c-2.2,0.8-5.4,0.9-7,2.9c-1.5,1.9-0.1,3.4,0.3,5.7
				c0.2,1.1,3.8,3.6,4.5,2.1c0.3-0.7,1.1-3.3,1.7-3.8c-1.4-0.6-2.8-1.3-4.1-1.9v0.1c0.2-0.3,0.4-0.7,0.5-1h-0.1
				C56.2,145.4,60.1,148.3,61.5,147.9L61.5,147.9z"/>
		</g>
	</g>
	<g id="XMLID_515_">
		<g id="XMLID_692_">
			<path id="XMLID_698_" class="st1" d="M66.8,144c0.1-0.1,0.3-0.3,0.4-0.4c1.2-1.3-2.3-3.4-3.3-3.3c-2.5,0.3-5.1,0.5-7.6,0.1
				c-2.4-0.4-4.6-1.4-7-1.7c-2-0.2-4.1,0-6.1-0.3c-2.6-0.4-5.1-1.3-7.8-1.5c0.7,1.2,1.5,2.4,2.2,3.6c3.4,0.1,6.4,1.3,9.8,1.1
				c2.3-0.1-0.9-3.2-1.7-3.4c-2.9-1-6.7-2.4-9.8-1.8c-0.6,0.1-0.8,0.4-0.8,1c0.2,3.1,4.3,5.5,6.8,6.6s5.2,1.5,7.7,2.5
				c1.1,0.4,3.6,2.3,5.1,2c2.7-0.5,2.8-3.8,1.4-5.6c-2.7-3.4-9.7-2.8-13.4-3.2c-2.9-0.3,0.2,3,1.2,3.4c3.6,1.6,7.2,2.7,11,3.3
				c0.7,0.1,1.4-0.2,1.2-1c-0.4-2.2-1.2-3.8-2.5-5.6c-0.3,0.6-0.5,1.3-0.8,1.9c2.8,0.5,5.6,1.1,8.4,1.6c2.7,0.5-0.2-3.2-1.8-3.5
				c-2.8-0.5-5.6-1.1-8.4-1.6c-1.4-0.3-1.4,1-0.8,1.9c1,1.1,1.5,2.4,1.6,3.8c0.4-0.3,0.8-0.7,1.2-1c-3.5-0.6-6.7-1.6-10-3
				c0.4,1.1,0.8,2.3,1.2,3.4c2.6,0.3,5.1,0.6,7.7,0.9c5.2,0.8-2.1-0.5-3.3-0.9c-2.1-0.8-4.3-1.2-6.4-1.9c-9.2-3.2,2.3-0.4,3.8,0.1
				c-0.6-1.1-1.1-2.3-1.7-3.4c-3.4,0.2-6.5-1.1-9.8-1.1c-2.1,0,0.9,3.5,2.2,3.6c2.5,0.2,4.7,1,7.1,1.5c3,0.5,5.9,0.1,8.9,0.8
				c4.7,1.1,8.5,1.7,13.4,1.2c-1.1-1.1-2.2-2.2-3.3-3.3c-0.1,0.1-0.3,0.3-0.4,0.4C61.7,142.2,65.6,145.3,66.8,144L66.8,144z"/>
		</g>
	</g>
	<g id="XMLID_516_">
		<g id="XMLID_699_">
			<path id="XMLID_705_" class="st1" d="M36.4,139.9c-1.9,6.2-6,11.9-9.3,17.4c1.6-0.1,3.3-0.2,4.9-0.2c-0.1-3.3,1-6.4,1.5-9.6
				c0.2-1,0.4-9.6,0.9-9.8c-1.2-0.1-2.5-0.1-3.7-0.2c2.1,2.2,1.4,6.1,0.1,8.5c-0.6,1,4.2,1.3,4.8,0c1.5-2.7,2.2-6.9-0.2-9.4
				c-0.8-0.8-2.8-0.5-3.7-0.2c-3.1,1.1-2.5,4.6-2.8,7.5c-0.4,4.6-2.2,9.2-2,13.7c0.1,1.4,4.4,0.6,4.9-0.2c3.3-5.6,7.4-11.2,9.3-17.4
				C41.7,138.6,36.8,138.7,36.4,139.9L36.4,139.9z"/>
		</g>
	</g>
	<g id="XMLID_517_">
		<g id="XMLID_706_">
			<path id="XMLID_712_" class="st1" d="M38.8,142.2c-0.7,3.2-2.3,6.2-3.7,9.2c-0.7,1.5,3.7,3.3,4.6,1.9c0.7-1,1.5-1.8,2.5-2.4
				c0.8-0.6,2-0.9,2.8-1.5c1.4-1.2,1.8-4,1.7-5.6c-0.1-1.5-4.8-3-4.7-1.3c0.1,1.3-0.3,2.4-0.8,3.6c-0.5,1.1-1,1.2-2,1.7
				c-1.7,0.9-3.1,2.1-4.1,3.7c1.5,0.6,3.1,1.3,4.6,1.9c1.4-3,2.9-6,3.7-9.2C43.8,142.5,39.1,140.8,38.8,142.2L38.8,142.2z"/>
		</g>
	</g>
	<g id="XMLID_518_">
		<g id="XMLID_713_">
			<path id="XMLID_719_" class="st1" d="M47.9,175.5c-0.1,0.1-0.1,0.2-0.2,0.3c1,0,2.1,0.1,3.1,0.1c-2-0.3-4.2-0.8-6.4-0.7
				c1.4,0.2,2.8,0.5,4.2,0.7c0.8-1.1,1.8-2.2,2.3-3.5c0.6-1.4,0-3,0.5-4.4c0-0.1-4.6-1.4-5-0.6c-0.6,1.4,0,3-0.5,4.4
				c-0.5,1.3-1.5,2.4-2.3,3.5c-0.1,0.1,3.8,0.7,4.2,0.7c0.8,0,4.5,1.4,5,0C52.9,176,48.2,174.7,47.9,175.5L47.9,175.5z"/>
		</g>
	</g>
	<g id="XMLID_523_">
		<g id="XMLID_720_">
			<path id="XMLID_726_" class="st1" d="M29.8,155.9c-0.2,2.7,0.1,8.2,3,9.7c3,1.5,4.5-3.8,5-5.7c-0.9-0.1-1.7-0.2-2.6-0.3
				c1,1.4-1.6,3.3-2.3,3.8c1,1.1,2,2.2,3,3.2c0.2-2.2,1.4-4.4,1.9-6.6c0.4-1.8,0.5-3.6,1.7-5.1c-1.1-1-2.2-2-3.3-3
				c-0.2,2-0.4,4-0.6,6c1.1,0.3,2.2,0.6,3.3,0.9c-1-2.4,0-5-1-7.4c-0.4-1-1.2-2.2-2.4-2.2c-3.1-0.1-4.1,9.1-4.5,10.9
				c1.1,0.7,2.3,1.3,3.4,2c-0.5-1.9,0-8.2-3.8-7.6c-3.8,0.6-4.5,9.6-5.6,12.3c1.1,0.9,2.3,1.7,3.4,2.6c0-4.1,1.3-7.9,1.6-12
				c0.1-1.4-3-5-3.4-2.6c-0.2,1.2-2.2,13.1-2.9,13.1c0.6,1.5,1.1,3.1,1.7,4.6c1.1-0.2,2-0.4,3.1-0.3c-0.8-0.7-1.6-1.5-2.4-2.2
				c0,0.1,0.1,0.3,0.1,0.4c0.1-0.8,0.2-1.5,0.3-2.3c-0.1,0.1-0.2,0.2-0.3,0.2c1,1.1,2,2.2,3,3.2c0.3-2.1,3.3-3.5,5-4.3
				c-0.9-1.4-1.8-2.7-2.7-4.1c-0.4,0.4-0.8,0.8-1.2,1.2c-1.4,1.1,0.3,5,2.1,4.5c3.9-1.1,0.1-5.7-1.2-7.5c-2-2.7-3.3,0.5-1.8,2.5
				c0.4,0.5,0.8,1,1.1,1.5c0.6,1,0.7,0.6,0.2-1.2c0.7,1.5,1.4,3,2.1,4.5c0.8-0.6,1.1-0.9,1.8-1.7c1.1-1.3-1-4.9-2.7-4.1
				c-2.9,1.3-5.7,3.2-6.1,6.5c-0.1,1,1.7,4.4,3,3.2c0.1-0.1,0.2-0.2,0.3-0.2c0.7-0.6,0.6-1.5,0.3-2.3c0-0.1-0.1-0.3-0.1-0.4
				c-0.3-1.1-1.2-2.1-2.4-2.2c-1.1-0.1-2,0.1-3.1,0.3c-2.3,0.4-0.1,4.6,1.7,4.6c2,0,2.1-2.5,2.4-4c0.7-3.5,1.5-7.1,2.2-10.6
				c-1.1-0.9-2.3-1.7-3.4-2.6c-0.3,4-1.6,7.9-1.6,12c0,1.3,2.4,5,3.4,2.6s1.3-5,2.2-7.4c0.1-0.4,0.3-0.8,0.4-1.2
				c2.2-1.7,2.1-2.6-0.3-2.7c-0.3,0.3,0.3,2.4,0.3,2.6c0.2,0.8,2.9,4.5,3.4,2c0.2-1,1.7-9.4,2.7-9.4c-0.8-0.7-1.6-1.5-2.4-2.2
				c0.4,1,0,2.9,0.1,4c0.1,1.2,0.4,2.2,0.9,3.4c0.5,1.3,3,3.6,3.3,0.9c0.3-2,0.5-4,0.6-6c0.1-1.2-1.9-4.6-3.3-3
				c-1.4,1.8-1.6,3.7-2.1,5.9c-0.6,2.6-1.8,4.9-2,7.5c-0.1,1.1,1.5,4.2,3,3.2c4-2.7,4.5-6.9,1.7-10.7c-0.5-0.7-2.2-1.7-2.6-0.3
				c-0.3,1-1,4.4-2.4,4.4c0.6,0.3,1.2,0.7,1.7,1c-0.7-0.9-0.5-3.2-0.4-4.3C33.4,156.1,30,153,29.8,155.9L29.8,155.9z"/>
		</g>
	</g>
	<g id="XMLID_525_">
		<g id="XMLID_727_">
			<path id="XMLID_733_" class="st1" d="M702.8,105.6c0.3,1.5,0.6,2.7,1.2,4.1c0.4,0.8,2,6,1.7,6c1.1,0.8,2.1,1.6,3.1,2.4
				c-3.2-4.6-4.9-10.8-6.8-16c-0.2-0.7-3.8-3.5-3.9-2.5c-0.2,7.5,3.9,14.7,5.6,21.8c1.3,0.9,2.6,1.7,3.9,2.5
				c-0.7-1.8-1.3-3.5-2.1-5.2c-0.5-0.8-4-3.1-3.9-2.5c0.7,2.7,1.3,5,0.8,7.8c-0.2,1.2,2.7,3,3.7,3.2c2.1,0.1,6-2,6.5-4
				c0.6-2.4-2.8-5.8-4.1-7.3c-0.3-0.3-3.5-2.7-3.3-1.8c0.4,2.3,0.9,4.6,1.1,6.9c1.3,0.9,2.6,1.7,3.9,2.5c-1-2.3-2-3.9-3.6-5.5
				c-0.1-0.2-2.9-2.4-2.9-1.4c0.1,2.9,1.7,5.5,4.2,7c0.2,0.2,1.1,0.7,1.3,0.4c1.9-2,0.6-6.3-0.1-8.5c-1.6-4.9-4.4-9-4.5-14.4
				c-1.3-0.9-2.6-1.7-3.9-2.5c2,5.1,3.1,9.7,7.3,13.4c0.5,0.4,3.1,2,2.1,0.3c-1.2-2-2.5-4.1-3.8-6.1c-1.1-0.5-2.2-1-3.4-1.6
				c0.9,1.1,1.9,2.4,2.7,3.5c0.5,0.6,4.6,3.5,3.4,1.6c-0.8-1.2-1.5-2.5-2-3.8c-0.4-1-4.2-3.5-3.7-2.2c1.4,3.5,5.4,10.7,10.2,9.6
				c-1.2-1-2.4-1.9-3.6-2.9c1.9,3.4,3.4,6.9,4.5,10.6c0.3,0.9,2.8,3.7,3.8,3c2-1.2-1.2-6-1.8-7.3c-0.4-0.8-4-3.2-3.9-2.5
				c0.2,0.9,1.4,4.4,1,5.2c-0.5,1.4-2.8,1.9-4,1.8c0.7,0.4,1.5,0.7,2.2,1.2c-0.5-0.4-0.6-3.7-0.8-4.5c-0.4-1.6-0.8-3.2-1.2-4.8
				c-1.2-0.8-2.4-1.5-3.6-2.3c2.4,3.2,3.4,6.4,5,9.9c0.2,0.5,3.3,3.6,3.8,2.7c2.3-4.1-1.9-9.7-4.8-12.3c-0.2-0.2-2.2-1.8-2.4-0.9
				c-0.5,2.2,0.4,6.9-3.7,5.2c1,1,1.9,2.1,2.9,3.1c0.7,0,1.4-0.1,2-0.1c1.9,1-1.2-2.6-2.1-3c-1.5-0.7-2.3-0.9-3.8-0.2
				c-0.7,0.3,2.6,3,2.9,3.1c5.2,2.2,4.6-1.3,5.6-5.5c-0.8-0.3-1.6-0.6-2.4-0.9c1.6,1.5,3.1,5.9,1.9,8.1c1.3,0.9,2.5,1.9,3.8,2.7
				c-1.8-3.8-2.7-7.1-5.3-10.7c-0.3-0.5-3.8-3-3.6-2.3c1,4.3,1.3,11.5,5.9,13.8c1.4,0.7,3.2,1,4.6,0.1c2.5-1.4,0.8-4.6,0.2-7.1
				c-1.3-0.9-2.6-1.7-3.9-2.5c0.5,1.2,3.1,5.5,1.8,6.4c1.3,1,2.5,2.1,3.8,3c-1.2-3.9-2.7-7.6-4.6-11.2c-0.5-0.9-2.3-3.1-3.6-2.9
				c-1.6-1-2.6-2.2-3.1-4c-1.3-0.8-2.5-1.5-3.7-2.2c0.6,1.6,1.4,3,2.4,4.5c1.1,0.5,2.2,1,3.4,1.6c-0.9-1.1-1.9-2.4-2.7-3.5
				c-0.5-0.7-4.7-3.5-3.4-1.6c1.3,2,2.6,4,3.8,6.1c0.7,0.1,1.4,0.1,2.1,0.3c-2.6-2.3-3.2-7-4.4-10.1c-0.2-0.7-3.8-3.4-3.9-2.5
				c0.1,3.5,1.1,6.4,2.5,9.6c1.3,3.1,5.1,9.8,2.2,13c0.4,0.1,0.9,0.2,1.3,0.4c0.3-0.6,0.6-1.1,0.8-1.6c-1-0.4-1.9-1-2.9-1.4
				c0.8,1,1.4,2,1.8,3.1c0.3,0.7,3.9,3.3,3.9,2.5c-0.3-2.3-0.7-4.7-1.1-6.9c-1.1-0.6-2.2-1.2-3.3-1.8c1.7,1.4,2.5,3.3,2.5,5.6
				c-0.3,0.4-0.8,0.7-1.2,1c-1,1.3-3,2.2-4.6,2.1c1.2,1.1,2.4,2.1,3.7,3.2c0.5-2.7,0-5.1-0.8-7.8c-1.3-0.9-2.6-1.7-3.9-2.5
				c0.9,1.8,1.6,3.4,2.1,5.2c0.3,1.1,3.9,3,3.9,2.5c-1.6-7.2-5.8-14.5-5.6-21.8c-1.3-0.9-2.6-1.7-3.9-2.5c2.2,6.2,4.1,17,11.2,19.4
				c0.2,0.1,0.6,0.1,0.6-0.2c-0.7-3.7-2.6-6.9-3.3-10.7C706.4,107.1,702.7,105.3,702.8,105.6L702.8,105.6z"/>
		</g>
	</g>
	<g id="XMLID_661_">
		<g id="XMLID_734_">
			<path id="XMLID_740_" class="st1" d="M731.3,106.9c-0.6,1.6-1.2,3.1-2.1,4.6c1.4,0.8,2.8,1.8,4.2,2.6c2.6-7.9,3.2-18.9-5.9-22.4
				c-1.6-0.6-3,0.8-2.4,2.4c0.9,2.3,2.7,3.9,3.5,6c1.6,4.1,0.5,7-1.2,10.6c-1.1,2.3-0.8,5.9,0.4,8.1c0.9,1.9,2.3,2.2,4.1,1.8
				c4.9-1.2,5.8-4.4,4.9-8.5c-0.4-1.6-2.5-3.4-4.1-2c-1.4,1.2-2.3,2.4-3.2,4c-1.2,2.2,2.8,5.1,4.2,2.6c0.6-1.3,1.5-2.3,2.5-3.1
				c-1.4-0.7-2.7-1.3-4.1-2c0.7,1.5,0.2,2.9-1.5,4c-2,0.8-2.2,1-0.6,0.9c0.6,0.6,1.2,1.2,1.8,1.8c-0.1-0.4-1-3.8-0.9-4.1
				c0.1-0.5,0.9-1.1,1.2-1.6c1.2-2,1.6-4.2,1.7-6.4c0-2-0.3-4-1-5.9c-0.8-2.6-2.8-4.2-3.8-6.7c-0.8,0.8-1.5,1.6-2.4,2.4
				c5.4,2.1,3.7,11.5,2.3,15.6c-0.8,2.3,2.8,5.2,4.2,2.6c0.8-1.5,1.5-2.9,2.1-4.6C736.3,107.2,732.3,104.3,731.3,106.9L731.3,106.9z
				"/>
		</g>
	</g>
	<g id="XMLID_668_">
		<g id="XMLID_741_">
			<path id="XMLID_747_" class="st1" d="M722.3,82.8c0.6,4.1,1.1,8.1,1.7,12.2c1.3-1,2.7-1.9,4.1-2.8c-0.4-2.3-1-4.4-1.5-6.6
				c-0.5-2.1-1.6-4.4-1-6.5c-1.4,0.9-2.7,1.9-4.1,2.7c0.4,3.9,1.6,7.6,1.5,11.5c1.3-1,2.7-1.9,4.1-2.8c-0.4-1.4-0.5-2.6-0.7-3.9
				c0.1,0.4-4.1,1.7-4.1,2.8c0,3.2,0.4,6.1,1.2,9.1c0.1,0.3,3-1.8,3.2-1.9c0.2-0.1,0.4-0.3,0.5-0.4c-1,0.6-2.1,1.3-3.1,1.9
				c0.4,0,0.8,0,1.1,0.1c0.8,0.3,4.1-2.1,4.1-2.8c0.5-5.8,0.2-11.6-1-17.2c-1.3,1-2.7,1.9-4.1,2.8c1.8,4.5,3.1,9.2,3.7,13.9
				c-0.1-0.3,4.2-1.7,4.1-2.8c-0.6-4.9-1.8-9.4-3.7-13.9c0-0.1-4.3,2.1-4.1,2.8c1.2,5.7,1.5,11.4,1,17.2c1.3-1,2.7-1.9,4.1-2.8
				c-1.8-0.6-3.7,1.2-5.1,2.3c1.1-0.6,2.2-1.3,3.2-1.9c-0.8-3-1.2-6-1.2-9.1c-1.3,1-2.7,1.9-4.1,2.8c0.2,1.4,0.3,2.6,0.7,3.9
				c0-0.1,4.1-1.9,4.1-2.8c0.1-3.9-1.2-7.7-1.5-11.5c0,0.2-3.8,1.9-4.1,2.7c-0.5,1.9,0.1,3.6,0.6,5.6c0.7,2.6,1.2,5.3,1.7,7.8
				c0-0.2,4.2-1.8,4.1-2.8c-0.6-4.1-1.1-8.1-1.7-12.2C726.4,80.3,722.1,81.7,722.3,82.8L722.3,82.8z"/>
		</g>
	</g>
	<g id="XMLID_675_">
		<g id="XMLID_748_">
			<path id="XMLID_754_" class="st1" d="M730,116.8c-0.2-1.1-0.2-2.1,0-3.2c-1.6-0.1-3.3-0.3-5-0.4c0,2.5,0.3,5.2-0.2,7.7
				c-0.3,1.3,4.6,1.8,5,0.4c0.5-2.4,0.2-5.1,0.2-7.7c0-1.4-4.8-1.8-5-0.4c-0.1,1-0.1,2.1,0,3.2C725.3,118,730.2,118,730,116.8
				L730,116.8z"/>
		</g>
	</g>
	<g id="XMLID_682_">
		<g id="XMLID_755_">
			<path id="XMLID_761_" class="st1" d="M739,117.6L739,117.6c-0.1-0.6-0.6-1.2-1.1-1.5c-0.5-0.3-1.1-0.6-1.7-0.6
				c-0.5,0.1-1.1,0.2-1.4,0.7c-0.3,0.5-0.3,1-0.2,1.6c0,0,0,0,0,0.1c0.1,0.6,0.6,1.2,1.1,1.5c0.5,0.3,1.1,0.6,1.7,0.6
				c0.5-0.1,1.1-0.2,1.4-0.7C739.1,118.7,739.1,118.2,739,117.6L739,117.6z"/>
		</g>
	</g>
	<g id="XMLID_689_">
		<g id="XMLID_762_">
			<path id="XMLID_768_" class="st1" d="M723.4,113.9c0-0.4,0.1-0.7,0-1.1c0-1-1.2-1.6-2.1-1.7c-0.6-0.2-2.4-0.5-2.7,0.4
				c-0.3,1,0.3,2.1-0.1,3c-0.1,0.3,0.3,0.8,0.5,0.9c0.4,0.4,1.1,0.7,1.6,0.8c0.7,0.2,2.4,0.6,2.7-0.4c0.4-1-0.2-2,0.1-3
				c-1.6-0.5-3.2-0.9-4.9-1.4c0,0.4-0.1,0.7,0,1.1c0,1,1.2,1.6,2.1,1.7c0.5,0.2,1.2,0.3,1.8,0.2
				C722.6,114.4,723.3,114.3,723.4,113.9L723.4,113.9z"/>
		</g>
	</g>
	<g id="XMLID_696_">
		<g id="XMLID_769_">
			<path id="XMLID_775_" class="st1" d="M710.7,85.3c-2.3,2.5-1.2,5.8,0.5,8.4c1,1.3,3.1,1.8,4.3,0.5c1.2-1.5,1.2-3,1.4-4.9
				c0.3-2,0.3-3.6,2.3-4.9c0.9-0.6,2.3-0.8,3.2-1.2c-1.2-0.9-2.4-1.8-3.6-2.8c-0.7,2.7-1.6,2.8-3.5,4.7c-1.9,2.1,2.1,4,3.8,2.9
				c0.6-0.3,1-0.5,1.6-0.8c-1-1.2-2-2.4-2.9-3.6c-1.2,1.1-2.7,2.5-3.4,4c-0.3,0.7-0.3,1.4-0.4,2.1c0.1,0.8-0.1,1.6-0.2,2.4
				c0.2,1,0,1.3-0.7,0.9c-1.3,1-3.6,1.2-5.2,2.1c-2,1.2-4,2-6,3.1c-2.6,1.4,1.2,4.6,3.4,3.3c1.6-0.9,3.2-1.3,4.7-2.4
				c2.2-1.3,3.3-1.7,5.7-2.4c0.5-0.2,1-0.2,1.3-0.5c1.1-0.8,1.3-1.8,1.5-3.2c0.5-2.7,0.2-4.1,2.6-6.2c2-1.8-0.8-4.6-2.9-3.6
				c-0.9,0.5-1.7,0.8-2.6,1.4c1.3,1,2.5,2,3.8,2.9c0.8-0.9,2.2-1.3,2.9-2.3s0.9-2.4,1.2-3.5c0.5-1.8-1.9-3.6-3.6-2.8
				c-2.3,1.2-4.8,1.4-6.4,3.7c-1.8,2.5-0.6,6.6-2.4,8.7c1.5,0.1,2.8,0.4,4.3,0.5c-1.2-1.2-1.3-2.6-0.6-4.2
				C716.9,85.8,712.5,83.3,710.7,85.3L710.7,85.3z"/>
		</g>
	</g>
	<g id="XMLID_703_">
		<g id="XMLID_776_">
			<path id="XMLID_782_" class="st1" d="M708.6,88.4c-1-1.3-3.6,0.1-4.5,0.8c-2.1,1.5-4.2,4.7-3.2,7.5c0.7,2.2,3.2,1.5,4.9,0.6
				c3-1.7,3.9-5.6,5-8.7c0.7-2-3.8-0.3-4.4,1.1c-1.7,3.9,2.7,8.8,6.3,5.1c1.1-1.1,1.4-2.9-0.3-3.7c-1.9-1-4.3,0.7-5.9,1.9
				c1.1,0,2.2,0.1,3.3,0.1c0.9-2.7,2.3-5.1,4.3-7.2c0.9-0.9,2.6-1.8,2.6-3.4c0.1-0.2-0.1-0.4-0.3-0.6c-1.2-0.6-2.7-0.1-3.9,0.4
				c-3.8,1.6-6.9,2.6-11,3.1c-0.4,0.9-0.9,1.8-1.3,2.8c0.2,0,0.5-0.2,0.7-0.2c1.4-0.5,3.7-3.5,0.8-2.7c-2.3,0.6-6.9,1-7.7,3.9
				c-0.5,1.7,0.7,3.9,1.4,5.4c1.1,2.3,2.2,4.5,2.8,7c0.4,1.5,3.7-0.8,4.1-1.3c1.9-2.2,0.1-5.6-0.1-8.2c-0.2-2.1,0.6-2.8,2.6-2.7
				c2.1,0,4.1-0.2,6.2-0.6c0.7-0.1,4.5-2.6,2.3-2.9c-2.4-0.4-4.9-0.8-7.4-0.2c-1.7,0.3-4.7,2.5-6.2,1.9c-1.3-0.5-5.4,2.1-4.1,2.7
				c2.3,1.1,4.6,2,7,2.6c1,0.2,4.6-1.3,3.9-2.7c-0.5-0.8-0.9-1.7-1.5-2.4c-0.9-1.4-5.2,1.1-4.4,2.3c0.6,0.8,1,1.5,1.5,2.4
				c1.3-0.9,2.6-1.7,3.9-2.7c-2.3-0.6-4.2-1.4-6.3-2.3c-1.4,0.9-2.7,1.9-4.1,2.7c1.8,0.7,3.3,0.6,5.1-0.1c0.8-0.4,1.7-0.9,2.5-1.3
				c2.3-1,4.4-0.5,6.7-0.1c0.7-1,1.6-1.9,2.3-2.9c-4.4,0.9-9.9-0.6-13.4,3.1c-1.3,1.4-1.6,3-1.4,4.8c0.1,1.5,1.7,5.6,0.7,6.8
				c1.3-0.5,2.8-0.8,4.1-1.3c-0.5-1.8-1.1-3.6-1.9-5.2c-0.9-1.8-2.7-4.6-2.2-6.6c-0.5,0.5-1.1,1-1.7,1.4c0.9-0.5,2.4-0.7,3.4-1
				c0.2-0.9,0.5-1.8,0.8-2.7c-0.2,0-0.5,0.2-0.7,0.2c-0.9,0.3-3.8,3.1-1.3,2.8c2.4-0.3,4.9-0.5,7.2-1.2c1.5-0.4,5.4-1.1,6.2-2.4
				c-0.3,0-0.6-0.1-0.9-0.1c-0.4,0.4-0.9,0.8-1.2,1.2c-0.7,0.9-1.5,1.7-2.2,2.7c-1.2,1.7-2.1,3.6-2.7,5.4c-0.7,1.9,2.6,0.5,3.3,0.1
				c0.5-0.7,0.9-0.8,1.1-0.1c1.1-0.2,2-0.5,3.1-0.7c-1.9-0.7-3-2.8-2.1-4.7c-1.5,0.4-2.9,0.7-4.4,1.1c-0.5,1.4-1.5,3.2-1.7,4.6
				c-0.5,1.1-0.3,0.9,0.6-0.5c0.9-1.6,0.6-2.6-1.1-2.8C705.3,92.2,709.5,89.6,708.6,88.4L708.6,88.4z"/>
		</g>
	</g>
	<g id="XMLID_710_">
		<g id="XMLID_783_">
			<path id="XMLID_789_" class="st1" d="M716.8,97c1.1,0.7,1.3,0.5,0.8-0.6c-0.1-0.3-1.2-0.7-1.1-0.5c0.3,3-0.2-0.4,0.5,0.5
				c-0.1-0.2-1.1-0.6-1.1-0.4c0.3,0.8,0.5,1.4,0.8,2.1c0.2,0.3,1.2,0.7,1.1,0.5c-0.3-1.5,0.1-2.2,0.7-3.3c-0.3-0.1-0.8-0.4-1.1-0.5
				c0.1,1.2,0,3.8,0.5,4.8c1,2.2,0.5-0.9,0.2-1.8c0-0.2-1.1-0.8-1.1-0.5c-0.4,1.9,1.1,3.8,1.7,5.6c0.4,1.4,0.5,2.2,0.6,3.7
				c0,0.5,0,0.9,0.1,1.4c-0.4,1-0.1,1.6,0.9,1.8c0-0.2-1.1-0.7-1.1-0.5c-0.2,1.2-0.3,0.7,0.2,1.7c0,0.1,1.1,0.8,1.1,0.5
				c0.1-0.4,0.2-1,0.3-1.4c-0.3-0.1-0.7-0.3-1.1-0.5c0.3,0.5,0.6,0.9,0.9,1.4c0.1,0.2,1.1,0.5,1.1,0.4c-0.3-0.6-0.5-1.1-0.5-1.7
				c-0.1-0.3-1.1-0.6-1.1-0.5c0.7,2.8,0.8,5.6,0.8,8.5c0.1,0.3,1.1,0.7,1.1,0.5c0.3-2.1,0.2,0.3-0.7-1.7c0,0.2,1.1,0.7,1.1,0.5
				c0-0.3,0.1-0.5,0.1-0.8s-1.1-0.7-1.1-0.6c0,0.3-0.1,0.5-0.1,0.8c0.3,0.1,0.8,0.4,1.1,0.5c-0.3-0.6-0.5-0.7-1.2-1
				c0,0-0.5-0.2-0.5,0c0.1,0.6,0.1,1.1,0.2,1.7c0.3,0.1,0.8,0.4,1.1,0.5c0-1.6,0.1-3.6-0.3-5.1c-0.1-0.6-0.1-1.1-0.2-1.7
				c-1.6-0.9-1.8-1.4-0.7-1.3c-0.1-0.1-1.1-0.7-1.1-0.5c-0.1,0.4-0.2,1-0.3,1.4c0.3,0.1,0.8,0.4,1.1,0.5c-0.1-0.5-0.2-1.1-0.2-1.6
				c-0.3-0.1-0.8-0.4-1.1-0.5c0.1,0.5,0.2,1,0.3,1.5c0.1,0.3,1.2,0.7,1.1,0.5c-0.1-2,0.2-4.3-0.2-6.4c-0.4-2.1-2.6-4.9-2.1-7
				c-0.3-0.1-0.8-0.4-1.1-0.5c0.6,1.3,0.9,2.5,1.2,3.8c0.1,0.3,1.2,0.7,1.1,0.5c-0.2-2.1-0.5-4.3-0.7-6.4c0-0.2-1-0.7-1.1-0.5
				c-0.4,0.6-1.1,1.7-0.9,2.5c-0.2-0.9,1.2,1.2,0.5,0.2c0.1,0.2,1.3,0.7,1.1,0.3c-1.4-1.4-1.7-1.4-0.9-0.1c0.2,0.3,1.1,0.6,1.1,0.5
				c-0.1-0.3-0.2-0.5-0.3-0.8C717.8,97.3,716.7,97,716.8,97L716.8,97z"/>
		</g>
	</g>
	<g id="XMLID_717_">
		<g id="XMLID_790_">
			<path id="XMLID_796_" class="st1" d="M723.7,96.7l-0.1-0.1c-0.1-0.1-1.2-0.4-1.2-0.3c0.1,0.5,0.2,1.1,0.2,1.6
				c0,0.2,1.2,0.4,1.2,0.4C723.8,97.7,723.7,97.1,723.7,96.7c-0.5-0.2-0.9-0.2-1.3-0.4l0.1,0.1c0.1,0.2,0.5,0.2,0.8,0.3L723.7,96.7
				L723.7,96.7z"/>
		</g>
	</g>
	<g id="XMLID_724_">
		<g id="XMLID_797_">
			<path id="XMLID_803_" class="st1" d="M712.1,97.4c0.2,1.6,0.7,2.9,1.5,4.3c0.3,0.6,1.3,0.5,1.1-0.3c-0.3-1.5-0.7-2.9-1.2-4.4
				c-0.1-0.3-0.4-0.5-0.7-0.5c-1.7,0.3-1.6,1.5-1,2.9c0.5,0.9,1.2,1.8,1.7,2.7c0.4,0.9,0.7,1.8,1.3,2.6c0.3,0.3,0.8,0.4,0.9,0
				c0.8-1.4-0.3-3.3-1.1-4.4c-0.3-0.5-1.3-0.5-1.1,0.3c0.3,0.8,0.6,1.5,1,2.4c0.3,0.6,1.4,0.3,1-0.4c-0.3-0.6-0.6-1.3-0.8-2.1
				c-0.4,0.1-0.8,0.2-1.1,0.3c0.4,0.7,1.6,2.4,1,3.3c0.3,0,0.6,0,0.9,0c-0.8-0.8-1-2.1-1.5-3.1c-0.3-0.5-2.4-3.2-1-3.5
				c-0.2-0.2-0.5-0.3-0.7-0.5c0.4,1.5,0.8,2.9,1.2,4.4c0.4-0.1,0.8-0.2,1.1-0.3c-0.6-1.2-1.1-2.4-1.2-3.7
				C713.2,96.9,712,96.6,712.1,97.4L712.1,97.4z"/>
		</g>
	</g>
	<g id="XMLID_731_">
		<g id="XMLID_804_">
			<path id="XMLID_810_" class="st1" d="M708.1,99.6c0.1,2.3,1.7,4.1,2.5,6.2c0.4-0.2,0.7-0.3,1.1-0.6c-1.2-1.7-2.2-3.8-3-5.6
				c-0.2-0.5-1.1,0-1.1,0.4c-0.1,1.2,1,2.5,1.7,3.4c1.1,1.4,2.2,2.7,2.9,4.4c0.4-0.2,0.7-0.3,1.1-0.6c-0.7-0.6-1.3-1.3-1.6-2.1
				c-0.2-0.5-1.3,0.1-1.1,0.5c0.4,0.9,0.9,1.7,1.8,2.3c0.4,0.2,1.3-0.1,1.1-0.6c-0.4-1.2-1.1-2.2-2-3.3c-0.8-1.2-2.7-2.7-2.5-4.3
				c-0.4,0.2-0.8,0.3-1.1,0.4c1,1.9,1.8,4,3.2,5.8c0.3,0.4,1.3-0.2,1.1-0.6c-0.9-2.1-2.4-3.7-2.5-6
				C709.3,98.8,708.1,99.2,708.1,99.6L708.1,99.6z"/>
		</g>
	</g>
	<g id="XMLID_738_">
		<g id="XMLID_811_">
			<path id="XMLID_817_" class="st2" d="M716.1,100.6c0-0.1,0-0.1-0.1-0.2c-0.2-0.3-0.8,0.1-0.6,0.3c0.2,0.6,0.4,1,0.7,1.6
				c0.2,0.3,0.8-0.1,0.6-0.3c-0.7-1.3-1.3-2.5-2-3.8c-0.1,0.1-0.2,0.2-0.2,0.4c0.3-0.2,0.5-0.3,0.6-0.5c-0.2-0.1-0.4-0.1-0.5-0.2
				c-0.2,0.1-0.3,0.3-0.4,0.4c0,0.2,0.1,0.3,0.1,0.5c0.1,0,0.2,0,0.2-0.1c-0.1-0.1-0.2-0.3-0.3-0.4c-0.1,0-0.2,0.1-0.3,0.2
				s-0.2,0.2-0.1,0.3c0.7,1.2,4.2,6.4,1.5,7.1c-0.2,0-0.5,0.5-0.1,0.5c2.6,0.3,2.2-3.4,1.5-4.8c-0.2-0.3-0.8,0.1-0.6,0.3
				c0.2,0.6,1.4,4.1-0.6,3.9c-0.1,0.2-0.1,0.3-0.1,0.5c1.1-0.3,1.8-1,1.6-2.1c0-0.7-2.1-5.9-2.4-5.7c0.4-0.3,0-0.5-0.3-0.4
				c-0.1,0-0.2,0-0.2,0.1c-0.4,0.2-0.3,0.6,0.1,0.5c0.5-0.2,0.8-0.4,1.1-0.8c0.2-0.4-0.4-0.3-0.5-0.2c-0.1,0.1-0.3,0.2-0.4,0.3
				c-0.1,0-0.4,0.3-0.2,0.4c0.6,1.2,1.3,2.5,2,3.8c0.2-0.1,0.5-0.2,0.6-0.3c-0.3-0.6-0.5-1-0.7-1.6c-0.2,0.1-0.5,0.2-0.6,0.3
				c0,0.1,0,0.1,0.1,0.2C715.5,101.3,716.2,100.9,716.1,100.6L716.1,100.6z"/>
		</g>
	</g>
	<g id="XMLID_745_">
		<g id="XMLID_818_">
			<path id="XMLID_116_" class="st2" d="M711.1,99.3c-0.2,0.1-0.3,0.2-0.5,0.3c-0.3,0.2-0.1,0.5,0.2,0.4c0.4-0.2,3.5,6.1,3.9,6.7
				c0.2,0.3,0.8-0.1,0.6-0.3c-1.3-2.3-2.5-4.6-3.8-6.9c0-0.1-0.2-0.2-0.3,0c-0.1,0-0.3,0.1-0.4,0.2c0,0.1,0.2,0.3,0.2,0.4
				c0.2-0.1,0.3-0.2,0.5-0.3C712,99.3,711.5,99,711.1,99.3L711.1,99.3z"/>
		</g>
	</g>
	<g id="XMLID_752_">
		<g id="XMLID_114_">
			<path id="XMLID_115_" class="st2" d="M707.2,102.1c0.1,0,0.3-0.2,0.4-0.2c0.3-0.2,0.3-0.5-0.1-0.4c-0.1,0-0.2,0-0.3,0.1
				C707,101.7,706.7,102.1,707.2,102.1c0.3-0.2,2.2,3.6,2.5,4.2c0.6,0.9,1.2,2.4,2.3,2.5c2.4,0.3,3-2.4,1.9-4
				c-0.1-0.2-0.7,0-0.6,0.3c0.1,0.4,0.1,0.7,0.2,1.1c0.1,0.7,0.5,1.1-0.2,1.6c-0.9,0.6-1.6-0.5-2.2-1.2c-0.1-0.2-0.8,0.2-0.6,0.3
				c0.6,1,1.6,2,3,1.6c1.6-0.5,0.8-2.5,0.5-3.7c-0.2,0.1-0.5,0.2-0.6,0.3c0.3,0.5,0.4,0.6,0.5,1.2c0.1,0.3,0.1,0.6,0.1,0.9
				c-0.6,0.3-1.3,0.7-1.9,1c-0.5-0.2-1.3-1.9-1.7-2.4c-0.9-1.4-1.6-2.6-2.2-4.1c0-0.1-0.1-0.1-0.1-0.1c-0.2-0.1-0.3,0-0.5,0
				C707.3,101.7,707.3,101.9,707.2,102.1c0.1-0.1,0.2-0.1,0.3-0.2c0-0.1-0.1-0.3-0.1-0.4c-0.1,0-0.3,0.2-0.4,0.2
				C706.7,102,706.8,102.2,707.2,102.1L707.2,102.1z"/>
		</g>
	</g>
	<g id="XMLID_759_">
		<g id="XMLID_112_">
			<path id="XMLID_113_" class="st2" d="M713.4,108.8c1.1,0.2,1.5-0.8,1.5-1.7c0-0.3-0.6,0-0.7,0.1c-0.3,0.4-0.3,1-0.8,1.2
				c-0.5,0.2-0.2,0.5,0.2,0.4c0.8-0.3,0.8-1,1.2-1.6c-0.2,0-0.4,0.1-0.7,0.1c0,0.3,0.1,1-0.4,1C713.5,108.3,713,108.7,713.4,108.8
				L713.4,108.8z"/>
		</g>
	</g>
	<g id="XMLID_766_">
		<g id="XMLID_110_">
			<path id="XMLID_111_" class="st2" d="M707.4,102.7c0.3,1.2,1,2,1.8,2.9c0.6,0.7,1.6,1.8,2.5,2.2c1,0.4,2.5-0.1,2.7-1.2
				c0.1-0.2-0.6,0-0.7,0.2c-0.3,0.2-0.6,0.4-0.9,0.6c-0.2-0.1-0.5-0.1-0.7-0.2s-0.4-0.3-0.6-0.5c-0.5-0.5-1.1-0.9-1.5-1.5
				c-0.8-0.9-1.4-1.8-1.8-2.9C708,102.2,707.4,102.5,707.4,102.7L707.4,102.7z"/>
		</g>
	</g>
	<g id="XMLID_773_">
		<g id="XMLID_108_">
			<path id="XMLID_109_" class="st2" d="M723,111.7c0.5,1.5-0.5,3.5-1.1,4.9c-0.6,1.3-0.7,1.5,0.1,2.6c0.2,0.3,0.9-0.1,0.6-0.3
				c-0.5-0.7-0.7-0.8-0.3-1.7c0.3-0.8,0.6-1.6,0.9-2.4c0.4-1.2,0.8-2.3,0.4-3.4C723.6,111.1,723,111.3,723,111.7L723,111.7z"/>
		</g>
	</g>
	<g id="XMLID_780_">
		<g id="XMLID_106_">
			<path id="XMLID_107_" class="st2" d="M723.5,112.4c-0.1,2.2-0.5,4.2-1.4,6.2c-0.1,0.3,0.5,0.1,0.7-0.1c0.9-2,1.3-4.1,1.4-6.3
				C724.2,112,723.4,112.2,723.5,112.4L723.5,112.4z"/>
		</g>
	</g>
	<g id="XMLID_787_">
		<g id="XMLID_104_">
			<path id="XMLID_105_" class="st2" d="M723.2,115.1c-0.4,1-0.8,2-1.2,3c-0.1,0.3,0.6,0.1,0.7-0.1c0.3-1,0.7-2,1.2-3
				C723.9,114.7,723.3,114.9,723.2,115.1L723.2,115.1z"/>
		</g>
	</g>
	<g id="XMLID_794_">
		<g id="XMLID_102_">
			<path id="XMLID_103_" class="st2" d="M722,117.4c-0.2,0.2-0.3,0.5-0.5,0.7c-0.2,0.4,0.5,0.4,0.6,0.1c0.2-0.2,0.2-0.4,0.4-0.6
				C722.8,117.3,722.3,117.2,722,117.4L722,117.4z"/>
		</g>
	</g>
	<g id="XMLID_801_">
		<g id="XMLID_100_">
			<path id="XMLID_101_" class="st2" d="M721.8,116.9c-0.2,0.5-0.4,1-0.7,1.5c-0.2,0.5,0.5,0.4,0.6,0.1c0.2-0.5,0.5-1,0.7-1.5
				C722.7,116.6,722,116.6,721.8,116.9L721.8,116.9z"/>
		</g>
	</g>
	<g id="XMLID_808_">
		<g id="XMLID_98_">
			<path id="XMLID_99_" class="st2" d="M721.1,118.7c0.7,0.8,1.1,1.7,1.6,2.6c0.1,0.2,0.8-0.2,0.6-0.3c-0.5-0.9-1-1.8-1.6-2.6
				C721.7,118.2,721,118.6,721.1,118.7L721.1,118.7z"/>
		</g>
	</g>
	<g id="XMLID_815_">
		<g id="XMLID_96_">
			<path id="XMLID_97_" class="st2" d="M720.6,85.5c0,0.8,0,1.6,0.1,2.5c0.1,0.3,0.7,0.1,0.7-0.2c-0.1-0.8,0-1.7-0.1-2.5
				C721.3,85.1,720.5,85.3,720.6,85.5L720.6,85.5z"/>
		</g>
	</g>
	<g id="XMLID_93_">
		<g id="XMLID_94_">
			<path id="XMLID_95_" class="st2" d="M720.5,85.4c-0.8,1.2-1.6,2.4-1.8,3.9c-0.1,1.5,0.2,3,0.4,4.4c0.1,0.3,0.7,0.1,0.7-0.2
				c-0.2-1.3-0.5-2.6-0.5-3.9c0-1.5,0.9-2.9,1.7-4.1C721.3,85.1,720.6,85.2,720.5,85.4L720.5,85.4z"/>
		</g>
	</g>
	<g id="XMLID_90_">
		<g id="XMLID_91_">
			<path id="XMLID_92_" class="st2" d="M720,86.5c-0.1,1.5-1.1,3-1,4.5c0.1,0.3,0.7,0.1,0.7-0.2c-0.1-1.6,0.9-2.9,1-4.5
				C720.7,86.1,720,86.3,720,86.5L720,86.5z"/>
		</g>
	</g>
	<g id="XMLID_87_">
		<g id="XMLID_88_">
			<path id="XMLID_89_" class="st2" d="M720.1,86.8c0.2,1.3-0.4,2.4-0.6,3.7c0,0.1,0.7-0.1,0.7-0.2c0.2-1.3,0.8-2.4,0.6-3.7
				C720.7,86.4,720.1,86.6,720.1,86.8L720.1,86.8z"/>
		</g>
	</g>
	<g id="XMLID_84_">
		<g id="XMLID_85_">
			<path id="XMLID_86_" class="st2" d="M718.5,89.9c-0.1,3.4,0.6,6.6,1.2,9.9c0.1,0.3,0.7,0.1,0.7-0.2c-0.6-3.2-1.3-6.5-1.2-9.9
				C719.2,89.4,718.5,89.7,718.5,89.9L718.5,89.9z"/>
		</g>
	</g>
	<g id="XMLID_81_">
		<g id="XMLID_82_">
			<path id="XMLID_83_" class="st2" d="M726.4,112.4c0.6,2.5,1.3,4.9,2.2,7.4c0.1,0.3,0.8-0.1,0.6-0.3c-0.8-2.5-1.6-4.9-2.2-7.4
				C727,111.8,726.4,112.1,726.4,112.4L726.4,112.4z"/>
		</g>
	</g>
	<g id="XMLID_78_">
		<g id="XMLID_79_">
			<path id="XMLID_80_" class="st2" d="M726.5,111.9c-1.1,0.9-1.5,0.9-1.1,2.3c0.5,2,0.9,4.1,1.4,6.1c0,0.2,0.4,0.2,0.4,0.1
				c0.5-0.3,1-0.5,1.5-0.5c0.4-0.1,0.5-0.6,0-0.5c-0.7,0.1-1.2,0.3-1.7,0.6c0.1,0.1,0.3,0,0.4,0.1c-0.3-1.5-0.7-2.9-1-4.4
				c-0.1-0.7-0.5-1.4-0.5-2c-0.3-0.4-0.2-0.7,0.1-0.9c0.3-0.2,0.4-0.4,0.7-0.5C727.3,112,726.8,111.7,726.5,111.9L726.5,111.9z"/>
		</g>
	</g>
	<g id="XMLID_75_">
		<g id="XMLID_76_">
			<path id="XMLID_77_" class="st2" d="M726.1,113c-0.1,0.1-0.2,0.2-0.2,0.4c0.2,0,0.5-0.1,0.7-0.2c0.1-0.2,0.1-0.3,0.2-0.5
				c0.2-0.2-0.5,0-0.6,0c-0.9,0.8-0.2,2.2,0,3.2c0.2,1.3,0.2,3.3,1,4.4c0,0.1,0.1,0.1,0.2,0.1c0.6-0.1,1.3-0.6,1.4-1.2
				c0.1-0.6-0.8-1.8-1-2.5c-0.3-1.3-0.6-2.5-0.7-3.7c-0.1-0.3-0.6,0-0.7,0.2c-0.3,0.9-0.2,1.8,0,2.6c0.3,1.4,0.5,2.7,1,4.1
				c0.1,0.3,0.7-0.1,0.7-0.2c0.1-0.4,0.2-0.7,0.1-1.1c-0.1-0.3-0.7,0-0.7,0.2c0.1,0.5,0,0.7-0.1,1.1c0.2,0,0.5-0.2,0.7-0.2
				c-0.3-1.1-0.6-2.1-0.8-3.2c-0.2-1.1-0.7-2.3-0.1-3.3c-0.2,0-0.5,0.1-0.7,0.2c0.1,1,0.3,2.1,0.5,3.2c0.1,0.3,1.3,3.3,0.9,3.5
				c-0.3,0.1-0.8-2.8-0.8-3.1c-0.1-0.7-0.9-3.4-0.3-3.8C726.5,113.1,726.2,113,726.1,113c-0.3,0.4-0.3,0.3-0.3,0.7
				c0,0.3,0.6-0.1,0.7-0.2c0.1-0.1,0.2-0.2,0.2-0.4C726.9,112.7,726.2,112.8,726.1,113L726.1,113z"/>
		</g>
	</g>
	<g id="XMLID_72_">
		<g id="XMLID_73_">
			<path id="XMLID_74_" class="st3" d="M760.7,133.6c-2.4,5.3-0.5,8.4,0.9,13.5c1.8-0.9,3.6-1.7,5.4-2.7c-1.4-3.6-1.8-8.4-3.9-11.7
				c-1-1.6-5.1,1-5.5,2.3c-1,4,0.2,7.5,1.1,11.4c1.2,5,1.2,9.9,2.1,14.9c0.1,0.4,1,0.4,1.2,0.4c2-0.2,4.1-1,5.4-2.6
				c1.1-1.3,1.3-3.1,1.8-4.6c1-3.1,3-3.6,5.2-5.5c2.3-2.1,1.8-3.9,0-6.4c-1.2-1.7-2.9-3.1-3.9-5c-1.7-3-1.5-6.3-1.2-9.7
				c0.2-2-5,0.6-5.5,2c-1.1,3.2-1.5,6.2-1,9.5c0.3,2,4,8.8,2.1,10.3c1.1-0.5,2.3-1,3.4-1.5c1.3,0.5,1.4-0.4,0-2.5
				c-0.3-1.9-5.6,0.3-5.5,2c0.2,1.8,0.5,3.6,0.8,5.3c0.3,1.5,5.6-0.8,5.5-2.3c-0.1-1-0.1-2-0.2-3c-0.1-1.9-5.6,0.3-5.5,2
				c0.1,1,0.1,2,0.2,3c1.8-0.8,3.7-1.5,5.5-2.3c-0.4-1.6-0.6-3-0.8-4.6c-1.8,0.7-3.6,1.3-5.5,2c0.3,2,0.1,3.8,2.4,4
				c1.7,0.1,4.1-1.6,5-2.9c1.9-2.5,0.4-4.9-0.6-7.3c-1.9-4.5-1.9-8.9-0.3-13.5c-1.8,0.7-3.6,1.3-5.5,2c-0.7,5.4,0,9.3,3.5,13.5
				c0.9,1,2.1,2,2.7,3.2c0.9,2,1,1-0.4,2.4c-1.2,1.2-2.8,1.9-3.8,3.3c-0.8,1.1-2.3,3.5-2.2,4.8c-0.5,1.1-0.1,1,1-0.4
				c1.4-0.6,1.7-1.6,1.2-3c0.1-0.7-0.2-1.5-0.2-2.3c-0.7-5.9-3.9-12.4-2.4-18.3c-1.8,0.8-3.7,1.5-5.5,2.3c2,3.2,2.5,8.1,3.9,11.7
				c0.6,1.5,5.8-0.9,5.4-2.7c-1.2-4.5-3.3-7.3-1.1-12C766.9,130.3,761.4,132,760.7,133.6L760.7,133.6z"/>
		</g>
	</g>
	<g id="XMLID_69_">
		<g id="XMLID_70_">
			<path id="XMLID_71_" class="st3" d="M770.7,130.6c-0.1-1.6,0.3-2.9,1-4.4c0.3-0.8,0.8-2.9,1-3.2c-0.9,0.5-1.9,0.9-2.7,1.3
				c0.2,0,0.4-0.1,0.6-0.1c-0.5-0.2-1.2-0.3-1.7-0.5c0.7,0.5,3.6,3.1,2.6,4.1c0.6-0.4,1.4-0.8,2-1.2c-0.7,0.1-1.7,0-2.6,0.4
				c-1,0.4-1.9,1.2-2.5,2.1c-1.2,2.2-0.7,5.6-0.9,8.1c-0.2,2.8,5.5,1,5.7-1.6c0.1-1.1,0.1-2.3,0.2-3.3c0-0.6-0.1-2.1,0.1-2.5
				c-0.6,0.4-1.4,0.8-2,1.2c1.1-0.3,2.4-0.1,3.6-0.9c1.1-0.7,1.9-2,2-3.2c0.3-2.4-1.8-6-4.1-6.8c-2.4-1-5.2,1.1-5.9,3.3
				c-0.9,2.7-2.3,5.8-2.1,8.7C765.3,135.2,770.9,133.2,770.7,130.6L770.7,130.6z"/>
		</g>
	</g>
	<g id="XMLID_66_">
		<g id="XMLID_67_">
			<path id="XMLID_68_" class="st3" d="M772.3,126c-1.9-1.7-4.4-1.8-6.9-1.8c-0.1,0.5-0.3,1.2-0.4,1.7c0.6-0.5,1.3-1,2.1-1.1
				c0.9-0.3,4.8-3,1.9-2.8c-2.2,0.1-4.4,0.6-6.6,0.7c-1.4,0.1-3,0.7-4.2,1.6c-3.5,2.8-0.4,8-0.7,11.4c1.8-0.8,3.6-1.5,5.4-2.4
				c-0.7-1.8-1.3-3.7-1.9-5.5c-0.5-1.6-0.9-3.7-1.9-5.1c-0.3-0.4-0.8-0.3-1.1-0.3c-1.9,0.3-4.9,1.5-4.9,3.7c0,2.5,1.2,5.7,3.5,7
				c2.2,1.1,4.8,0.3,6.8-1c2.4-1.6,2.9-3.9,2.5-6.7c-0.2-1.2-5.3,1-5.4,2.4c-0.1,1.5-0.5,3.3-0.3,4.8c0.1,0.1,0.1,0.2,0.2,0.2
				c3.2,1.1,5.9-2.4,7.3-4.6c0.7-1.2-1-0.9-1.6-0.8c-1.2,0.2-2.8,1.1-3.6,2.1c-0.5,0.7-1.7,2,0.2,0.9c1-0.2,2-0.4,2.9-0.6
				c-0.3-0.1,0.2-3.7,0.2-4.1c-1.8,0.8-3.6,1.5-5.4,2.4c0-0.1,0,3.3-0.1,3.2c1.7-0.4,2.1-0.9,0.9-1.3c-0.5-0.3-0.8-0.7-1-1
				c-0.5-0.6-0.8-1.4-1-2.1c-0.1-0.3-0.9-2.9-0.9-2.9c-1.3,0.7-2.5,1.2-3.8,1.9c0.1,0,0.2,0,0.4-0.1c-0.3-0.1-0.7-0.2-1.1-0.3
				c1,1.4,1.4,3.5,1.9,5.1c0.7,1.8,1.3,3.7,1.9,5.5c0.5,1.3,5.3-1.2,5.4-2.4c0.4-3.2-2-6.6-0.4-9.9c-1,0.6-1.9,1.3-2.9,1.9
				c-0.9,0.4-1.6,0.3,0,0.3c0.6,0,1.3-0.1,1.9-0.2c1.4-0.2,2.8-0.7,4.2-0.7c0.6-0.9,1.3-1.9,1.9-2.8c-2.3,0.8-4.3,1.9-6.2,3.3
				c-0.4,0.3-1.8,1.8-0.4,1.7c2.2,0,4.4,0.1,6.1,1.6C768.4,130,773.4,127.1,772.3,126L772.3,126z"/>
		</g>
	</g>
	<g id="XMLID_63_">
		<g id="XMLID_64_">
			<path id="XMLID_65_" class="st3" d="M777,124.4c2.1-0.3,4.3-0.4,6.1-1.6c1.8-1.2,1.7-2.3,0.8-4c-0.7,0.9-1.4,1.7-2.2,2.5
				c0.1,0,0.3-0.2,0.4-0.2c-0.3-0.7-0.7-1.6-1.2-2.3c-1.8,1-4.2,0.4-6.1,1.2c-1.8,0.8-3.2,1.9-2.5,3.9c0.3,1,0.8,1.9,1.2,2.7
				c0.3,0.7,0.6,2,1.3,2.5c0.7,0.5,2,0.1,2.8,0.3c1,0.1,2,0.5,3.1,1c1.4,0.8,5.2-0.8,5.2-2.5c0-2.7-1.7-4.8-4.3-5.5
				c-1.4,1.2-2.7,2.3-4.1,3.5c1.2,0.3,2.3,0.4,3.4,0.3c1.1,0,4.4-1.2,4.2-2.8c-0.1,0-0.3,0.1-0.4,0.1c0.7-0.6,1.4-1.7,0.2-2.1
				c-1.2-0.4-3,0.7-3.9,1.4c-0.8,0.7-1.5,1.4-1.4,2.5c1.5-0.9,2.8-1.8,4.2-2.8c-0.8,0.1-1.5-0.1-2.4-0.2c-1.3-0.3-2.9,0.6-3.9,1.4
				c-0.7,0.5-1.5,1.7-0.2,2.1c1.7,0.5,3,2.2,2.9,4c1.8-0.9,3.4-1.7,5.2-2.5c-2.1-1.2-3.9-1.3-6.2-1.4c0.2,0.2,0.5,0.3,0.7,0.4
				c-0.7-0.9-1-2-1.5-3.1c-0.3-0.6-1.1-1.8-0.9-2.6c-0.3,0.5-0.7,0.8-0.9,1.3c0.1,0,0.2-0.1,0.2-0.1c-0.9,0.5-1.9,0.9-2.7,1.3
				c1.3-0.3,2.5-0.3,3.8-0.5c1.5-0.3,2.8-0.7,4.1-1.4c0.6-0.3,2.7-1.4,2.2-2.5s-2.7-0.2-3.2,0.1c-0.1,0-0.3,0.2-0.4,0.2
				c-0.6,0.3-2.6,1.4-2.2,2.5c0.2,0.6,0.5,1.1,0.6,1.7c0.1-0.2,0.1-0.5,0.1-0.7c0,0.1-0.1,0.1-0.1,0.2c0.9-0.7,1.9-1.4,2.8-2.1
				c-0.9,0.4-2.3,0.3-3.3,0.5c-1.2,0.2-3,1.1-3.4,2.2C774.7,124.6,776.1,124.6,777,124.4L777,124.4z"/>
		</g>
	</g>
	<g id="XMLID_60_">
		<g id="XMLID_61_">
			<path id="XMLID_62_" class="st3" d="M780.7,129.2c2.9,4.2,2.5,8.1,1.3,12.8c-0.3,1.1-1,2.6-0.5,3.7c0.3,0.7,1.4,0.8,2,1.3
				c1.4,0.9,2.4,1.8,3.4,3.2c1.2,1.7,5.8-0.7,5.4-2.7c-0.6-3.2-1.3-6.5-2-9.6c-0.4-1.6-5.9,0.5-5.4,2.7c0.7,3.2,1.5,6.4,2,9.6
				c1.8-0.9,3.6-1.7,5.4-2.7c-1.1-1.5-2.3-2.6-3.9-3.8c-2.1-1.6-1-2.9-0.4-5.5c1-4.3,0.6-8.1-1.9-11.8
				C785,124.8,779.7,127.7,780.7,129.2L780.7,129.2z"/>
		</g>
	</g>
	<g id="XMLID_57_">
		<g id="XMLID_58_">
			<path id="XMLID_59_" class="st2" d="M781.1,135.1c0.1-0.8,0.1-1.6-0.1-2.5c-0.2,0-0.5,0.2-0.7,0.2c0.4,0.5,0.7,1.1,0.9,1.7
				c0.2,0.3,0.7,0.1,0.7-0.2c0-1.2-0.5-2.1-1.3-3c-0.3-0.3-0.9,0.2-0.6,0.4c0.8,0.8,1.1,1.7,1.2,2.8c0.2,0,0.5-0.2,0.7-0.2
				c-0.3-0.6-0.6-1.1-0.9-1.7c-0.2-0.3-0.7-0.1-0.7,0.2c0.2,0.8,0.2,1.6,0.2,2.4C780.4,135.6,781.1,135.4,781.1,135.1L781.1,135.1z"
				/>
		</g>
	</g>
	<g id="XMLID_54_">
		<g id="XMLID_55_">
			<path id="XMLID_56_" class="st2" d="M782.1,133.9c0.5-3.5-5.1-4.1-7.4-3.1c-2.9,1.2-5.1,5.1-2,7.4c0.1,0.1,0.7-0.1,0.6-0.3
				c-0.3-1-0.5-2-0.3-3.1c0.4-2.1,2.5-3.9,4.7-3.4c0.1,0.1,0.8-0.3,0.5-0.4c-1.4-0.8-2.9-0.4-4,0.7c-0.2,0.1,0,0.2,0.1,0.2
				c-0.1,0,1.7-0.5,1.3-0.6c-0.2-0.1-0.6,0.2-0.7,0.3c-0.6,0.3-1.3,0.9-1.8,1.4c-0.3,0.3,0.2,0.2,0.3,0.1c1.1-0.5,2.1-1.1,3-2
				c0.3-0.3-0.1-0.3-0.3-0.1c-1.5,0.7-2.4,1.8-3.5,3c-0.2,0.4,0.4,0.1,0.6,0c1-1.1,2-2,3.2-2.9c0.1,0,0.2-0.2,0.1-0.2
				c-2.3-0.4-3.8,2-4.8,3.8c-0.2,0.2,0.5,0,0.6-0.1c0.7-0.9,1.4-1.7,2-2.6c0.2-0.2-0.4,0-0.5,0c-1.8,1.1-2.7,3-2.1,5
				c0,0.2,0.7-0.1,0.6-0.3c0-1,0.1-2,0.3-2.9c-0.2,0-0.5,0.2-0.7,0.2c0,0.9,0,1.7,0.2,2.7c0,0.2,0.7-0.1,0.6-0.3
				c0.2-0.9,0.3-1.7,0.3-2.6c0-0.2-0.7,0-0.7,0.2c-0.2,1.2-0.1,2.2,0,3.3c0,0.2,0.7-0.1,0.6-0.3c0.1-0.7,0-1.4,0-2.2
				c0-0.2-0.7,0-0.7,0.2c0,0.8,0.1,1.5,0.1,2.3c0,0.2,0.7,0,0.6-0.3c-0.2-0.8-0.2-1.5-0.1-2.2c-0.2,0-0.5,0.2-0.7,0.2
				c0.1,0.8,0.1,1.4,0,2.2c0.2-0.1,0.5-0.2,0.6-0.3c-0.1-1.1-0.2-2.1,0-3.2c-0.2,0-0.5,0.2-0.7,0.2c0,0.9-0.1,1.7-0.3,2.6
				c0.2-0.1,0.5-0.2,0.6-0.3c-0.2-0.9-0.3-1.7-0.3-2.6c0.1-0.2-0.6,0-0.7,0.2c-0.2,1-0.3,1.9-0.3,2.9c0.2-0.1,0.5-0.2,0.6-0.3
				c-0.5-1.7,0-3.5,1.7-4.5c-0.2,0-0.3,0-0.5,0c-0.6,0.9-1.3,1.8-2,2.5c0.2,0,0.4-0.1,0.6-0.1c0.2-0.5,0.5-0.8,0.7-1.2
				c0.5-1,1.3-1.6,2.4-1.8c0.1,0.3-1.5,1.2-1.7,1.4c-0.8,1.2-0.2,0.5,0.3,0c0.4-0.5,0.9-1,1.4-1.5c-1.6,1-1.3,1.1,0.8-0.1
				c0.2,0,0.6-0.5,0.1-0.3c-0.4,0.1-0.8,0.2-1.2,0.2c0.9-0.5,1.6-0.5,2.5,0c0.2-0.1,0.4-0.3,0.5-0.4c-4.3-0.8-6.9,3.5-5.6,7.2
				c0.2-0.1,0.5-0.3,0.6-0.3c-3.2-2.4-0.5-6.8,3.1-7.1c1.9-0.2,5.4,1,5,3.4C781.4,134.4,782,134.1,782.1,133.9L782.1,133.9z"/>
		</g>
	</g>
	<g id="XMLID_51_">
		<g id="XMLID_52_">
			<path id="XMLID_53_" class="st2" d="M771.3,134.8c-0.7,1.4-0.2,3.1-0.1,4.5c0.2,2.1,0.5,4.1,0.3,6.2c0,0.2,0.2,0.1,0.3,0
				c1.5-0.5,3-0.9,4.6-1.2c0.1,0,0.5-0.2,0.4-0.4c-1-2.4-2.1-4.6-3.6-6.7c-0.1-0.2-0.7,0-0.7,0.2c0.2,2,0.5,4,1,5.9
				c0.2-0.1,0.5-0.2,0.6-0.3c-1.4-2-1.6-4.3-1.8-6.6c-0.1-0.3-0.7,0-0.7,0.2c0,2.3,0.4,4.6,0.8,6.9c0.2-0.1,0.5-0.2,0.6-0.3
				c-0.6-1.8-0.8-3.7-0.7-5.7c-0.2,0-0.5,0.2-0.7,0.2c0.4,1.6,0.5,3.1,0.4,4.6c-0.1,0.2,0.7,0,0.7-0.2c0.1-1.6,0-3.1-0.4-4.7
				c0-0.2-0.7,0.1-0.7,0.2c0,1.9,0.1,3.8,0.7,5.8c0,0.2,0.7-0.1,0.6-0.3c-0.4-2.3-0.8-4.5-0.8-6.8c-0.2,0-0.5,0.2-0.7,0.2
				c0.2,2.4,0.4,4.7,1.8,6.7c0.1,0.2,0.7-0.1,0.6-0.3c-0.5-1.9-0.7-3.8-0.9-5.8c-0.2,0-0.5,0.2-0.7,0.2c1.4,2.2,2.6,4.4,3.6,6.7
				c0.2-0.1,0.3-0.3,0.4-0.4c-1.1,0.2-2.1,0.6-3.2,0.7c-0.8,0.1-0.9,0.4-1.1-0.6c-0.1-0.6,0-1.3-0.1-1.9c-0.1-2.2-1.2-5.4-0.2-7.5
				C772.1,134.3,771.4,134.6,771.3,134.8L771.3,134.8z"/>
		</g>
	</g>
	<g id="XMLID_48_">
		<g id="XMLID_49_">
			<path id="XMLID_50_" class="st2" d="M774.4,139.8c-0.1,1.1,0,2.2,0.1,3.3c0.1,0.3,0.7,0.1,0.7-0.2c-0.1-1.1-0.1-2.2-0.1-3.3
				C775.1,139.4,774.3,139.6,774.4,139.8L774.4,139.8z"/>
		</g>
	</g>
	<g id="XMLID_45_">
		<g id="XMLID_46_">
			<path id="XMLID_47_" class="st2" d="M773.1,140.3c0.2,1.4,0.3,2.8,1.1,4.1c0.2,0.3,0.8-0.1,0.6-0.3c-0.8-1.2-1-2.6-1.1-4
				C773.8,139.7,773.2,139.9,773.1,140.3L773.1,140.3z"/>
		</g>
	</g>
	<g id="XMLID_43_">
		<g id="XMLID_44_">
			<path id="XMLID_1019_" class="st2" d="M773.9,140.8c0.2,1.1,0.4,2.3,0.8,3.3c0.1,0.3,0.8-0.1,0.6-0.3c-0.4-1-0.6-2.1-0.8-3.2
				C774.6,140.3,773.9,140.5,773.9,140.8L773.9,140.8z"/>
		</g>
	</g>
	<g id="XMLID_42_">
		<g id="XMLID_1020_">
			<path id="XMLID_1025_" class="st2" d="M772.5,141.9c0.2,0.8,0.3,1.5,0.4,2.3c0,0.1,0.7-0.1,0.6-0.3c-0.2-0.8-0.3-1.5-0.4-2.3
				C773.2,141.5,772.5,141.7,772.5,141.9L772.5,141.9z"/>
		</g>
	</g>
	<g id="XMLID_41_">
		<g id="XMLID_1026_">
			<path id="XMLID_1031_" class="st2" d="M772.2,142.2c0,0.8,0.1,1.6,0.3,2.4c0.1,0.3,0.7,0,0.6-0.3c-0.2-0.8-0.3-1.6-0.2-2.3
				C772.9,141.6,772.2,141.9,772.2,142.2L772.2,142.2z"/>
		</g>
	</g>
	<g id="XMLID_40_">
		<g id="XMLID_1033_">
			<path id="XMLID_1038_" class="st2" d="M781.3,132.5c1.6,3.1,0.5,7,2.6,10c0.1-0.1,0.3-0.3,0.4-0.3c-1.5,0.5-2.9,0.7-4.5,0.7
				c-0.2,0-0.7,0.3-0.5,0.4c1.7,0.1,3.3-0.2,4.9-0.8c0,0,0.5-0.2,0.4-0.3c-2.1-3-0.9-6.8-2.6-10
				C781.8,132.1,781.2,132.5,781.3,132.5L781.3,132.5z"/>
		</g>
	</g>
	<g id="XMLID_39_">
		<g id="XMLID_1039_">
			<path id="XMLID_1044_" class="st2" d="M781.6,139.9c0.2,0.8,0.3,1.6,0.6,2.3c0,0.2,0.8-0.2,0.6-0.3c-0.3-0.8-0.5-1.5-0.6-2.3
				C782.2,139.5,781.6,139.7,781.6,139.9L781.6,139.9z"/>
		</g>
	</g>
	<g id="XMLID_38_">
		<g id="XMLID_1045_">
			<path id="XMLID_1050_" class="st2" d="M780.8,140.7c0,0.8,0.1,1.5,0.5,2.2c0.1,0.2,0.8-0.3,0.6-0.3c-0.4-0.6-0.6-1.4-0.5-2.1
				C781.5,140.4,780.8,140.6,780.8,140.7L780.8,140.7z"/>
		</g>
	</g>
	<g id="XMLID_37_">
		<g id="XMLID_1051_">
			<path id="XMLID_1057_" class="st2" d="M779.9,140.9c0,0.6,0,1.1,0.1,1.7c0,0.2,0.7,0,0.6-0.3c-0.1-0.5-0.2-1.1-0.1-1.6
				C780.6,140.4,779.9,140.7,779.9,140.9L779.9,140.9z"/>
		</g>
	</g>
	<g id="XMLID_36_">
		<g id="XMLID_1058_">
			<path id="XMLID_1064_" class="st2" d="M779.1,143c0.1,2.5,0.5,4.8,3.1,5.7c1.2,0.5,2.6,0.3,3.9,0.7c2.6,0.7,2.8,3.6,3.1,5.9
				c0.3-0.3,0.6-0.5,0.9-0.8c-0.9,0.1-2.1-4.4-2.5-5.1c-0.5,0.3-0.8,0.5-1.3,0.8c0.3,0.6,0.6,1,1,1.5c0.2,0.8,1.5,0.3,1.5-0.4
				c-0.1-1-0.4-1.5-1.2-2c-0.5-0.3-1.7,0.2-1.3,0.8c1.1,1.6,1.5,3.6,2.1,5.4c0,0.2,0.4,0.2,0.5,0.2c0.3-0.1,0.7,0,1-0.1
				c0.4-0.1,0.8-0.4,0.9-0.8c-0.2-1.9-0.5-5.3-2.5-6.3c-1-0.6-2.4-0.4-3.6-0.6c-3.2-0.6-3.9-2.5-4-5.4
				C780.5,141.8,779,142.3,779.1,143L779.1,143z"/>
		</g>
	</g>
	<g id="XMLID_35_">
		<g id="XMLID_1065_">
			<path id="XMLID_1071_" class="st2" d="M776.6,144.2c0.2,2.2,0.5,4.2-1.5,5.5c-1.2,0.8-2.5,1.3-3.6,2.2c-2.4,1.9-2.8,4.7-3.5,7.6
				c-0.2,0.7,1.2,0.3,1.4-0.2c0.5-2.1,0.8-4.7,2.4-6.5c1.4-1.5,3.5-2.1,5.1-3.1c1.9-1.3,1.4-3.9,1.1-5.9
				C778,143.1,776.6,143.6,776.6,144.2L776.6,144.2z"/>
		</g>
	</g>
	<g id="XMLID_34_">
		<g id="XMLID_1072_">
			<path id="XMLID_1078_" class="st4" d="M118.1,111.6c-1.9-0.1-3.7,0.3-5.4,1.2c-0.9,0.4-0.1,0.9,0.6,0.6c1.4-0.7,2.8-1,4.3-0.9
				C118,112.4,119,111.6,118.1,111.6L118.1,111.6z"/>
		</g>
	</g>
	<g id="XMLID_33_">
		<g id="XMLID_1079_">
			<path id="XMLID_1085_" class="st4" d="M117.4,112.4c-3.5,11.3-7.2,22.6-9.9,34.1c-1.3,5.4-2.1,10.9-3.1,16.3
				c-0.5,3-1.1,6-1.8,8.9c-0.4,1.7-0.9,3.4-1.5,5.1c-0.2,0.8-0.5,1.6-0.9,2.3c-0.5,1.6-1.8,2.7-3.7,3.2c0.3-0.8-1.2-0.7-1.4-0.2
				c-0.1,0.2-0.1,0.3-0.2,0.5c0,0.1-0.1,0.3,0,0.4c6.7,6.2,10.8-19.7,11.2-22.2c2.9-16.6,7.7-32.6,12.7-48.7
				C119.1,111.6,117.6,111.8,117.4,112.4L117.4,112.4z"/>
		</g>
	</g>
	<g id="XMLID_32_">
		<g id="XMLID_1086_">
			<path id="XMLID_1092_" class="st4" d="M111.6,113.1c-6.6,23.1-12.3,46.6-17,70.2c-0.1,0.6,1.3,0.4,1.5-0.2
				c4.7-23.6,10.3-47,17-70.2C113.2,112.4,111.7,112.6,111.6,113.1L111.6,113.1z"/>
		</g>
	</g>
	<g id="XMLID_31_">
		<g id="XMLID_1093_">
			<path id="XMLID_1099_" class="st4" d="M111.1,118.7c-2.6,9.1-5.2,18.1-7.8,27.2c-0.2,0.7,1.2,0.4,1.4,0
				c3.5-7.6,6.3-15.4,8.4-23.4c0.2-0.7-1.3-0.5-1.5,0.1c-2.7,9.2-5.1,18.5-7.4,27.8c-0.2,0.7,1.3,0.4,1.5-0.1
				c2.8-9.1,5.5-18.2,8.3-27.3c-0.5,0-1,0.1-1.5,0.1c-2.4,8-4.8,16-7.3,24.1c0.5,0,1-0.1,1.5-0.1c0.1-6.8,2-13.1,4.2-19.4
				c-0.5,0-0.9,0-1.4,0c-0.7,2.7-1.4,5.4-2.1,8.2c-0.2,0.7,1.3,0.5,1.5-0.1c1.5-5.1,3-10.1,4.5-15.2c0.5-1.6,3.8-10.3,0.9-2.6
				c-0.8,2.2-1.8,4.4-2.9,6.5c0.5,0,0.9,0,1.4,0c0.3-3.7,1.3-7,3-10.2c-0.5,0-0.9-0.1-1.4-0.1c-1.1,3-1.9,6-2.4,9.1
				c-0.1,0.7,1.3,0.5,1.5-0.1c0.8-3.4,1.6-6.8,2.4-10.2c0.1-0.3-0.3-0.4-0.5-0.4c-4-0.8-4.3,6-4.9,8.5c0.5,0,1-0.1,1.5-0.1
				c-0.1-1.7,0.2-3.4,0.9-5c-0.5,0-0.9,0-1.4,0c-0.2,2.7-0.5,5.3-0.7,8c-0.1,0.7,1.1,0.4,1.3,0.1c1-1.1,2-2.3,2.9-3.4
				c-0.4-0.1-0.9-0.2-1.3-0.3c-6,16.9-6.6,35.1-13.2,51.8c0.5,0,0.9,0,1.4,0c1.1-9.3,3.2-18.5,5.3-27.6c-0.5,0-1,0.1-1.5,0.1
				c-1.6,7.8-3.3,15.5-4.9,23.3c-0.1,0.7,1.3,0.5,1.5-0.1c1.9-7.9,3.7-15.9,5.6-23.8c-0.5,0-1,0.1-1.5,0.1
				c-1.6,7.2-3.3,14.4-4.9,21.6c0.5,0,1-0.1,1.5-0.1c0.2-7.4,1.4-14.6,3.5-21.7c0.2-0.6-1.2-0.4-1.4,0c-3.1,6.7-5.1,13.6-6.1,20.9
				c-0.1,0.7,1.3,0.4,1.5-0.1c1.6-5.4,3.4-10.7,5.3-15.9c-0.5,0-0.9,0-1.4,0c-3.3,10.1-5.6,20.5-7,31c-0.1,0.7,1.4,0.5,1.5-0.1
				c0.6-3.5,1.5-6.9,2.6-10.3c0.2-0.6-1.2-0.4-1.4,0c-1.9,3.8-3.2,7.6-3.8,11.8c-0.1,0.7,1.3,0.4,1.5-0.1c1.4-4.6,2.9-9.1,4.7-13.6
				c-0.5,0-0.9,0-1.4,0c-0.6,4.5-1.9,8.5-4.1,12.5c0.5,0,0.9,0.1,1.4,0.1c1.3-3.6,2.9-7,4.8-10.3c-0.5,0-0.9,0-1.4,0
				c-0.7,4.2-2.1,7.8-4.6,11.3c0.5,0,0.9,0,1.4,0c0.8-2.8,1.9-5.2,3.3-7.7c-0.5,0-0.9,0-1.4,0c-0.8,3.4-2.4,6-4.9,8.3
				c0.4,0,0.9,0.1,1.3,0.1c1-4.6,2.2-9.2,3.5-13.7c-0.5,0-1,0.1-1.5,0.1c-0.1,3.4-0.7,6.4-1.8,9.6c-0.3,0.9-1,1.7-0.6,2.6
				c0.2,0.4,0.7,0.3,1,0.2c0.1,0,0.2-0.1,0.3-0.1c0.2-0.1,0.5-0.3,0.4-0.6c0-0.1-0.1-0.2-0.1-0.2c-0.2-0.6-1.7-0.2-1.4,0.4
				c0.3,0.8,2.6-4.8,2.8-5.5c0.5-2.2,0.7-4.4,0.8-6.6c0-0.8-1.3-0.4-1.5,0.1c-1.4,4.5-2.5,9.1-3.5,13.7c-0.2,0.7,1.1,0.3,1.3,0.1
				c2.7-2.5,4.4-5.3,5.2-8.8c0.2-0.7-1.2-0.4-1.4,0c-1.4,2.6-2.5,5.2-3.4,8c-0.2,0.7,1.2,0.3,1.4,0c2.5-3.5,4-7.3,4.7-11.5
				c0.1-0.7-1.2-0.4-1.4,0c-1.9,3.3-3.4,6.7-4.8,10.3c-0.3,0.8,1.1,0.6,1.4,0.1c2.2-4.1,3.5-8.2,4.2-12.7c0.1-0.7-1.2-0.5-1.4,0
				c-1.8,4.5-3.4,9.1-4.8,13.8c0.5,0,1-0.1,1.5-0.1c0.6-4.1,1.9-7.8,3.7-11.5c-0.5,0-0.9,0-1.4,0c-1.1,3.4-2,6.8-2.6,10.3
				c0.5,0,1-0.1,1.5-0.1c1.4-10.6,3.7-20.9,7-31c0.2-0.6-1.2-0.5-1.4,0c-2,5.3-3.8,10.7-5.4,16.2c0.5,0,1-0.1,1.5-0.1
				c1-7.2,3-14,6-20.7c-0.5,0-0.9,0-1.4,0c-2.2,7.1-3.4,14.3-3.5,21.7c0,0.7,1.3,0.4,1.5-0.1c1.6-7.2,3.3-14.4,4.9-21.6
				c0.2-0.7-1.3-0.5-1.5,0.1c-1.9,7.9-3.7,15.9-5.6,23.8c0.5,0,1-0.1,1.5-0.1c1.6-7.8,3.3-15.5,4.9-23.3c0.1-0.7-1.3-0.5-1.5,0.1
				c-2.2,9.1-4.2,18.3-5.3,27.6c-0.1,0.7,1.2,0.5,1.4,0c6.6-16.7,7.2-34.9,13.2-51.8c0.3-0.8-1-0.6-1.3-0.3c-1,1.1-2,2.3-2.9,3.4
				c0.4,0,0.9,0.1,1.3,0.1c0.2-2.7,0.5-5.3,0.7-8c0.1-0.7-1.3-0.5-1.4,0c-0.6,1.8-0.9,3.3-1,5.3c0,0.8,1.3,0.4,1.5-0.1
				c0.3-1,0.5-2.1,0.8-3.1c0.2-0.7,0.9-4.5,1.1-2.1c0.1,2.2-1.3,5.5-1.8,7.7c0.5,0,1-0.1,1.5-0.1c0.5-3.1,1.2-5.9,2.3-8.9
				c0.3-0.8-1.1-0.6-1.4-0.1c-1.8,3.4-2.8,6.7-3.1,10.5c-0.1,0.7,1.2,0.4,1.4,0c1.9-3.8,3.4-7.6,4.5-11.7c0.1-0.4-0.4-0.4-0.7-0.4
				c-2.5,0.1-3,2.2-3.6,4.4c-1.9,6.3-3.7,12.6-5.6,18.9c0.5,0,1-0.1,1.5-0.1c0.7-2.7,1.4-5.4,2.1-8.2c0.2-0.6-1.3-0.5-1.4,0
				c-2.2,6.4-4.2,12.8-4.3,19.7c0,0.8,1.3,0.4,1.5-0.1c2.4-8,4.8-16,7.3-24.1c0.2-0.6-1.3-0.5-1.5,0.1c-2.8,9.1-5.5,18.2-8.3,27.3
				c0.5,0,1-0.1,1.5-0.1c2.3-9.3,4.6-18.6,7.4-27.8c-0.5,0-1,0.1-1.5,0.1c-2.2,8-4.9,15.7-8.4,23.2c0.5,0,0.9,0,1.4,0
				c2.6-9.1,5.2-18.1,7.8-27.2C112.8,118,111.3,118.1,111.1,118.7L111.1,118.7z"/>
		</g>
	</g>
	<g id="XMLID_8_">
		<g id="XMLID_1100_">
			<path id="XMLID_1106_" class="st4" d="M99.5,176.4c-0.2,1.6-0.7,3-1.7,4.3c0.4,0.1,0.9,0.2,1.3,0.3c0.2-0.3,0.4-0.6,0.5-0.9
				c0.4-0.6-0.9-0.8-1.2-0.4c-0.6,0.6-1.1,1.1-1.7,1.7c-0.3,0.3-1.1,1.2-1.3,1.3c0.2,0,0.5,0.1,0.7,0.1c-0.3-0.2,0.6-1.7,0.8-2
				c0.4-0.7-1-0.8-1.4-0.2s-1.7,2.9-0.2,3.2c0.6,0.1,1-0.4,1.4-0.7c0.9-0.8,1.8-1.7,2.7-2.6c-0.4-0.1-0.8-0.3-1.2-0.4
				c-0.2,0.3-0.4,0.6-0.5,0.9c-0.4,0.7,1,0.8,1.3,0.3c1.1-1.5,1.7-3.1,1.9-4.9C101,175.5,99.5,175.7,99.5,176.4L99.5,176.4z"/>
		</g>
	</g>
	<g id="XMLID_7_">
		<g id="XMLID_1107_">
			<path id="XMLID_1113_" class="st4" d="M96.5,179.6c-7.7-3.9-2.7-10.6,1.2-14.7c1.5-1.6,3.2-3.4,3.3-5.8c0.1-3.4-3.1-5.6-5.8-3.2
				c-0.7,0.6,0.2,1,0.8,0.8c2.5,1.4,3.1,3.3,1.7,5.5c-0.6,1.1-1.4,2-2.3,2.9c-0.7,0.8-1.3,1.4-1.9,2.2c-1.5,2.2-2.9,5.4-2.3,8.1
				c0.7,3.3,4.1,3.6,5.9,1c-0.4-0.1-0.9-0.1-1.3-0.2c-2.3,1.5-3.2,0.6-2.7-2.9c0.3-1.2,0.8-2.3,1.6-3.3c1.4-2.2,3.3-4,5.3-5.7
				c0.8-0.6-0.4-1.1-1-0.7c-4.4,3.8-11.1,10.9-4.3,15.9c0.4,0.3,0.9,0.1,1.2-0.2c1-1,1.3-1.8,1.5-3.2c0.1-0.7-1.1-0.5-1.3-0.2
				c-3.4-1.1-4.2-3-2.6-5.7c0.2-0.5,0.4-1,0.7-1.5c1-1.8,2.2-2.7,3.4-4.2c1.4-1.7,2.6-3.7,2.4-6c-0.3-2.7-2-3.8-4.5-2.9
				c0.3,0.3,0.5,0.5,0.8,0.8c3.4,0.2,4.2,1.5,2.3,4c-0.3,2.1-1.3,3.7-3.1,4.8c-0.4,0.4-0.9,0.8-1.3,1.2c-1.4,1.5-2.5,3.1-3,5.2
				c-0.8,3.7,0.9,6.9,4.2,8.5C96,180.7,97.3,179.9,96.5,179.6L96.5,179.6z"/>
		</g>
	</g>
	<g id="XMLID_1018_">
		<g id="XMLID_1114_">
			<path id="XMLID_1120_" class="st4" d="M117.3,107.7c-0.5,1.4-1,2.7-1.6,4c-0.3,0.7,1.1,0.8,1.4,0.2c0.6-1.3,1.1-2.6,1.6-4
				C118.9,107.1,117.5,107.1,117.3,107.7L117.3,107.7z"/>
		</g>
	</g>
	<g id="XMLID_1032_">
		<g id="XMLID_1121_">
			<path id="XMLID_1127_" class="st4" d="M118.2,107.9c0.4,0.5-0.7,2.7-0.9,3.3c-0.4,1.1-0.8,2.3-1.3,3.4c-0.1,0.3,1.3,0.1,1.4-0.2
				c0.5-1.3,1-2.6,1.4-3.9c0.2-0.6,1.2-2.4,0.8-2.9C119.4,107.2,118.1,107.8,118.2,107.9L118.2,107.9z"/>
		</g>
	</g>
	<g id="XMLID_1055_">
		<g id="XMLID_1128_">
			<path id="XMLID_1134_" class="st4" d="M117.8,107.8c-0.5,2-1,4-1.4,6c-0.1,0.6,1.3,0.3,1.5-0.2c0.5-2,1-4,1.4-6
				C119.4,107.1,117.9,107.3,117.8,107.8L117.8,107.8z"/>
		</g>
	</g>
	<g id="XMLID_1062_">
		<g id="XMLID_1135_">
			<path id="XMLID_1141_" class="st4" d="M116.5,109.5c-0.4,1.3-0.7,2.7-1.1,4c-0.2,0.7,1.3,0.6,1.5-0.1c0.4-1.3,0.7-2.7,1.1-4
				C118.2,108.7,116.7,108.9,116.5,109.5L116.5,109.5z"/>
		</g>
	</g>
	<g id="XMLID_1069_">
		<g id="XMLID_1142_">
			<path id="XMLID_1148_" class="st4" d="M119.1,107.1c-1.8-0.4-3.7,0.3-5.1,1.4c-1.7,1.3-2.1,4.1-2.6,6c-0.1,0.5,1.3,0.3,1.4-0.2
				c0.7-2.6,1.6-7.2,5.4-6.5C118.7,107.9,119.9,107.2,119.1,107.1L119.1,107.1z"/>
		</g>
	</g>
	<g id="XMLID_1076_">
		<g id="XMLID_1149_">
			<path id="XMLID_1154_" class="st4" d="M115.6,108c-0.9,1.7-1.6,3.4-1.9,5.3c-0.1,0.7,1.3,0.5,1.5-0.1c0.4-1.8,1-3.4,1.9-5
				C117.4,107.5,115.9,107.5,115.6,108L115.6,108z"/>
		</g>
	</g>
	<g id="XMLID_1083_">
		<g id="XMLID_1155_">
			<path id="XMLID_1160_" class="st4" d="M115.8,108.7c-0.6,1.4-1.1,2.8-1.6,4.2c-0.2,0.5,1.3,0.3,1.5-0.2c0.5-1.4,1-2.9,1.6-4.2
				C117.4,108.1,116,108.2,115.8,108.7L115.8,108.7z"/>
		</g>
	</g>
	<g id="XMLID_1090_">
		<g id="XMLID_1161_">
			<path id="XMLID_1166_" class="st4" d="M114.6,109c-1.2,1.6-1.9,3.4-2.1,5.4c-0.1,0.7,1.4,0.4,1.5-0.1c0.2-1.9,0.9-3.6,2-5.2
				C116.4,108.5,114.9,108.6,114.6,109L114.6,109z"/>
		</g>
	</g>
	<g id="XMLID_1097_">
		<g id="XMLID_1167_">
			<path id="XMLID_1172_" class="st4" d="M119.7,102.6c-0.5,1.9-1.1,3.8-1.8,5.6c-0.2,0.5,1.3,0.3,1.4-0.2c0.7-1.8,1.3-3.7,1.8-5.6
				C121.2,101.9,119.8,102.1,119.7,102.6L119.7,102.6z"/>
		</g>
	</g>
	<g id="XMLID_1104_">
		<g id="XMLID_1173_">
			<path id="XMLID_1178_" class="st4" d="M120.7,102.4c-1.6-0.4-3.9-0.4-5.3,0.7c-0.6,0.5-0.9,1.3-1.2,2c-0.5,1.2-0.9,2.5-1.1,3.8
				c-0.1,0.3,1.4,0.1,1.4-0.3c0.2-1.2,0.5-2.3,1-3.4c0.2-0.5,0.4-1.1,0.7-1.5c0.8-1.2,2.2-1.1,3.4-0.8
				C119.8,103.1,121.1,102.5,120.7,102.4L120.7,102.4z"/>
		</g>
	</g>
	<g id="XMLID_1111_">
		<g id="XMLID_1179_">
			<path id="XMLID_1183_" class="st4" d="M117,103c-0.7,1.5-1.3,3.1-1.9,4.7c-0.1,0.4,1.3,0.2,1.4-0.2c0.6-1.6,1.2-3.2,1.9-4.7
				C118.6,102.5,117.2,102.6,117,103L117,103z"/>
		</g>
	</g>
	<g id="XMLID_1118_">
		<g id="XMLID_1184_">
			<path id="XMLID_1188_" class="st4" d="M118.3,103c-0.7,1.6-1.2,3.2-1.5,5c-0.1,0.6,1.4,0.4,1.5-0.1c0.3-1.6,0.7-3.2,1.4-4.7
				C120,102.4,118.5,102.5,118.3,103L118.3,103z"/>
		</g>
	</g>
	<g id="XMLID_1125_">
		<g id="XMLID_1189_">
			<path id="XMLID_1193_" class="st4" d="M118.4,103.7c-0.2,1.2-0.7,2.3-1.5,3.3c-0.6,0.7,0.8,1,1.2,0.5c0.9-1.1,1.5-2.4,1.7-3.8
				C120.1,102.8,118.6,103,118.4,103.7L118.4,103.7z"/>
		</g>
	</g>
	<g id="XMLID_1132_">
		<g id="XMLID_1194_">
			<path id="XMLID_1198_" class="st4" d="M116.8,104.8c-0.1,0.9-0.5,1.7-1,2.4c-0.2,0.2,0.5,0.2,0.6,0.2c0.3,0,0.7-0.2,0.8-0.4
				c0.6-0.8,0.9-1.6,1-2.6C118.3,104.2,116.8,104.4,116.8,104.8L116.8,104.8z"/>
		</g>
	</g>
	<g id="XMLID_1139_">
		<g id="XMLID_1199_">
			<path id="XMLID_1203_" class="st4" d="M117.3,103c-1.1,0.1-1.7,0.7-2.1,1.7c-0.7,1.6-1.1,3.3-1.7,5c-0.2,0.6,1.3,0.4,1.5-0.2
				c0.3-1,0.7-2,1-3c0.2-0.5,0.6-2.6,1.2-2.6C117.9,103.9,118.3,103,117.3,103L117.3,103z"/>
		</g>
	</g>
	<g id="XMLID_1146_">
		<g id="XMLID_1204_">
			<path id="XMLID_1208_" class="st4" d="M120.5,102.4c0.4-1.1,1.7-3.3,1.3-4.6c-0.2-0.5-0.6-0.6-0.9-1c-0.4-0.8,0.2-2.8,0.3-3.7
				c0-0.1,0-0.1-0.1-0.2c-1.7-0.5-2.2,0.8-2.4,2.2c-0.2,1.3-0.3,1.2-1.1,2.3c-0.2,0.3-0.4,0.6-0.5,1c-0.7,1.7-1.2,3.5-1.7,5.3
				c-0.1,0.3,1.3,0.1,1.4-0.2c0.7-2.1,1.1-4.6,2.5-6.3c0.7-0.9,0.6-3.5,1.3-3.9c-0.3,0.1-0.7,0.1-1,0.2c0.4,0.1-0.4,3.3,0,4
				c0.2,0.3,0.4,0.2,0.6,0.6c0.2,0.5,0.1,1-0.1,1.6c-0.3,1-0.7,2-1,3C119,102.9,120.4,102.8,120.5,102.4L120.5,102.4z"/>
		</g>
	</g>
	<g id="XMLID_198_">
		<g id="XMLID_240_">
			<path id="XMLID_252_" class="st1" d="M784,17.2c-4.8-1.5-9.7-0.1-12.4,4.4c-2.1,3.7-3,8.9,0.4,12c3.4,3.1,7.3,2.4,11.4,1.4
				c2.2-1.2,4.1-0.8,5.7,1.3c2.3,0.7,3.3,2.1,2.9,4.4c-0.1,1.8-0.8,3.6-2,5c-3.5,4.1-12.2,5.6-14.1-0.8c-0.4-1.4-4.8-3.5-4.2-1.5
				c1.6,5.2,6.4,8.9,11.9,9.3c6.5,0.4,13.4-4.1,12.7-11.2c-0.5-5.3-5.5-9.7-10.7-10.4c-1.4-0.2-2.6,0-4,0.2
				c-2.8,0.5-6.9,3.3-7.5-1.1c-0.7-5.5,5.3-11.7,10.8-10C788,21.3,785.6,17.8,784,17.2L784,17.2z"/>
		</g>
	</g>
	<g id="XMLID_200_">
		<g id="XMLID_203_">
			<path id="XMLID_204_" class="st1" d="M752.1,162.8c-11.1,2.7-22,5.3-33.1,8c-1.9,0.5-5,2.2-1.1,1.2c11.1-2.7,22-5.3,33.1-8
				C752.8,163.6,755.9,161.9,752.1,162.8L752.1,162.8z"/>
		</g>
	</g>
	<g id="XMLID_205_">
		<g id="XMLID_253_">
			<path id="XMLID_261_" class="st1" d="M786.1,124.7c-1.3,0.8-1.2,1.8,0.1,3.2c0.3,1,0.6,2.1,0.8,3.2c0.6,2.5,0.8,5,1,7.6
				c1.5-0.1,2.9-0.2,4.4-0.2c-1.2-3.3-2.2-6.7-3.1-10.1c-1.4,0.3-2.9,0.6-4.3,0.9c1.6,6.3,3.3,12.5,4.9,18.8
				c0.8,2.9,5.1,2.3,4.3-0.9c-1.6-6.3-3.3-12.5-4.9-18.8c-0.8-2.9-5.1-2.3-4.3,0.9c0.8,3.4,1.8,6.8,3.1,10.1
				c0.8,2.2,4.7,2.8,4.4-0.2c-0.4-5.4-0.9-14.1-5-18.2c-3.1-3-5.8,0-6,3.4C781.5,127.3,786,127.9,786.1,124.7L786.1,124.7z"/>
		</g>
	</g>
	<g id="XMLID_207_">
		<g id="XMLID_263_">
			<path id="XMLID_273_" class="st1" d="M790.5,139.5c0.1,5.4,0.2,10.8,0.3,16.2c0,1,1,3.7,2.5,3.4c3-0.6,6-1.3,8.9-1.9
				c0.6-0.1,0.9-0.5,0.9-1.2c-0.8-11.5-3.6-22.5-6.9-33.5c-0.8-2.5-1.3-7.8-4.1-9.1c-2.2-1.1-8.8,1.2-10.6,2.4
				c-0.5,0.4-0.5,1-0.4,1.6c0.7,4.7,6.4,6.1,10.1,4c-0.5-0.2-1.1-0.4-1.6-0.6c1.4,1.4,1.5,5.2,1.8,7c0.5,2.6,0.9,5.1,1.4,7.7
				c1,5.8,1.5,11.4-0.8,16.9c1.1,0.9,2.2,1.8,3.2,2.7c-0.1-5.3-0.1-10.7-0.9-16c-0.9-6.1-4.4-13-1.5-18.9c-1-0.7-1.9-1.3-2.9-2
				c2,5.3,2.9,10.8,4.1,16.3c0.5,2.4,4.9,17.8,1.2,18.1c-2,0.2-0.1,4.8,1.6,4.6c6.8-0.7,2.5-11.5,1.7-15.3
				c-1.6-7.9-2.8-16.2-5.7-23.8c-0.2-0.5-2.1-3.5-2.9-2c-2.5,4.9-1.6,9.7-0.3,14.8c1.8,7.2,2.1,14.4,2.2,21.7c0,1.1,2.3,5.1,3.2,2.7
				c2.9-7,1.6-14.3,0.3-21.6c-0.9-5.3-0.9-12.7-5.1-16.7c-0.4-0.4-1-0.9-1.6-0.6c-0.4,0.2-4.7,1.3-4.6,1.6c-0.1,0.5-0.3,1.1-0.4,1.6
				c1-0.7,6.9-2.9,8.1-2.2c0.5,0.3,1.5,4.9,1.7,5.4c0.5,1.8,1.1,3.6,1.6,5.5c2.3,8.1,4,16.4,4.6,24.8c0.3-0.4,0.6-0.8,0.9-1.2
				c-3,0.6-6,1.3-8.9,1.9c0.8,1.1,1.6,2.3,2.5,3.4c-0.1-5.4-0.2-10.8-0.3-16.2C793.7,140.1,790.4,136.7,790.5,139.5L790.5,139.5z"/>
		</g>
	</g>
	<g id="XMLID_210_">
		<g id="XMLID_274_">
			<path id="XMLID_282_" class="st1" d="M801.7,111.9c-4.4-0.7-9.6,1.1-13.8,2.3c-2.4,0.7-0.4,5.2,1.7,4.6c3.8-1.1,8.9-3,12.9-2.3
				C805.2,116.9,803.8,112.2,801.7,111.9L801.7,111.9z"/>
		</g>
	</g>
	<g id="XMLID_212_">
		<g id="XMLID_284_">
			<path id="XMLID_294_" class="st1" d="M799.6,115.7c2.2,13,4.3,26.1,6.5,39.1c0.5,2.8,5.5,2.6,5-0.2c-2.2-13-4.3-26.1-6.5-39.1
				C804.1,112.7,799.2,112.9,799.6,115.7L799.6,115.7z"/>
		</g>
	</g>
	<g id="XMLID_214_">
		<g id="XMLID_295_">
			<path id="XMLID_303_" class="st1" d="M806.1,155c-2,0.1-3.9,0.1-5.9,0.2c-1,0,0.5,0.7,0.7,0.8c1,0.4,2.2,0.8,3.3,0.7
				c2-0.1,3.9-0.1,5.9-0.2c1,0-0.5-0.7-0.7-0.8C808.4,155.3,807.2,154.9,806.1,155L806.1,155z"/>
		</g>
	</g>
	<g id="XMLID_217_">
		<g id="XMLID_305_">
			<path id="XMLID_316_" class="st1" d="M805.5,154.7c-2.7,0.1-5.4,0.6-8,1.3c-1.1,0.3,0,1.4,0.4,1.7c1,0.6,2.3,0.9,3.4,0.6
				c2.3-0.6,4.7-0.9,7.2-1c1,0,1.1-0.9,0.4-1.5C808.1,154.9,806.7,154.7,805.5,154.7L805.5,154.7z"/>
		</g>
	</g>
	<g id="XMLID_218_">
		<g id="XMLID_317_">
			<path id="XMLID_329_" class="st1" d="M798,117.6c-0.1,4.8-0.3,9.6-0.4,14.4c0.9,1.3,1.7,2.5,2.6,3.8c-1.2-5.8-1.3-11.5-0.4-17.3
				c0.1-0.7-1.8-4.2-2.6-4.1c-2,0.1-6.7-0.2-7.8,1.8c-0.4,0.6,1.1,2.5,1.3,2.9c1.7,2.6,7.4,6.1,7.7,0.7c0.1-0.9-2.7-4-2.6-4.1
				c-0.8,1.8-0.6,1.1-0.7,3.1c0,0.5,2.2,4.5,2.6,4.1c1.5-1.1,2.1-2.2,2.5-3.9c-0.9-1.3-1.8-2.7-2.7-4c-0.3,6,0.5,11.8,1.7,17.7
				c0.6,3,1.3,6.1,2,9.1c0.8,3.5,3.5,9.3-1.4,10.5c0.9,1.4,1.8,2.8,2.6,4.1c0.1-0.2,0.2-0.4,0.3-0.6c-0.9-1.4-1.8-2.8-2.6-4.1
				c0.1,1.6,1.2,4.8,3,5.3c4.2,1.3,2.1-10.4,1.9-12.4c-0.5-6.4-1.6-12.7-3-18.9c-1-4.2-1.9-7.7-4.6-11c-1.2-1.6,0.9,2.7,1.4,3.3
				c-2-2.5-0.1,1.2,0.2,2.4c0.3,1.2,0.6,2.4,0.9,3.7c0.9,3.9,1.5,7.8,2,11.8c0.4,3.1,0.7,6.3,0.8,9.4c0.1,1.1,1.1,9.3-2.3,7.2
				c0.8,1.4,1.7,2.7,2.5,4.1c0-0.3,0-0.6-0.1-0.9c0-0.5-2.1-4.5-2.6-4.1c-0.5,0.4-0.4,0.3-0.4,0.9c0,0.7,1.8,4.3,2.6,4.1
				c1.1-0.3,2.3-0.5,3.4-0.8c0,0,0-0.1,0-0.1c-2-12.2-6.2-24.1-5.7-36.6c0-1.1-2.7-4-2.7-4c-0.4,1.9-1,2.6-2.4,3.7
				c0.9,1.4,1.8,2.8,2.6,4.1c0.2-0.9,0.4-1.9,0.6-2.8c-0.9-1.4-1.8-2.8-2.6-4.1c-0.1,2.2-3.5,4.2-5.1,1.8c0.4,1,0.9,1.9,1.3,2.9
				c1.1-1.9,6-1.7,7.8-1.8c-0.9-1.4-1.8-2.8-2.6-4.1c-0.9,6-0.7,11.9,0.5,17.9c0.2,1,2.6,3.6,2.6,3.8c0.1-4.8,0.3-9.6,0.4-14.4
				C800.8,120.3,798,118,798,117.6L798,117.6z"/>
		</g>
	</g>
	<g id="XMLID_231_">
		<g id="XMLID_330_">
			<path id="XMLID_337_" class="st1" d="M795.1,6.4c8.1,25.6,11.2,52.3,16.9,78.4c5.7,26,16.3,50.7,20.7,77c0.2,0.9,5.1,0.6,5,0.2
				c-4.3-26.3-14.9-51-20.7-77c-5.8-26.1-8.9-52.8-16.9-78.4C799.8,5.6,795.1,6.3,795.1,6.4L795.1,6.4z"/>
		</g>
	</g>
	<g id="XMLID_233_">
		<g id="XMLID_338_">
			<path id="XMLID_345_" class="st1" d="M800.6,12.7c2.9-0.4,5.9-1.1,8.7-2c0.6-0.2,2.1-0.8,1.5-1.7c-0.5-0.8-2.4-0.6-3.2-0.4
				c-2.4,0.7-4.9,1.3-7.4,1.7c-0.7,0.1-2.4,0.5-2.3,1.5C798.1,12.9,800,12.8,800.6,12.7L800.6,12.7z"/>
		</g>
	</g>
	<g id="XMLID_246_">
		<g id="XMLID_347_">
			<path id="XMLID_354_" class="st1" d="M807.2,9.8c4.2,26.9,9,53.4,16.9,79.5c7.9,26,14.5,52.3,18.9,79.1c0.4,2.2,4.1,4,3.6,0.7
				c-4.5-26.8-11.1-53.1-18.9-79.1c-7.9-26.1-12.7-52.6-16.9-79.5C810.4,8.3,806.7,6.5,807.2,9.8L807.2,9.8z"/>
		</g>
	</g>
	<g id="XMLID_211_">
		<g id="XMLID_359_">
			<path id="XMLID_366_" class="st1" d="M335-2.2c-22.3,7.9-30.7,31.4-45.6,47.6c-2.2,2.4,1.7,4.9,3.7,2.8
				C307.2,32.9,315.5,9.5,336.5,2C339.5,0.9,338-3.3,335-2.2L335-2.2z"/>
		</g>
	</g>
	<g id="XMLID_219_">
		<g id="XMLID_372_">
			<path id="XMLID_379_" class="st1" d="M292.3,47c-41.4-17.5-83.3-34-125.5-49.5c-1.3-0.5-5.6,1.8-3.7,2.5
				c42.2,15.4,84.1,31.9,125.5,49.5C289.9,50,294.2,47.8,292.3,47L292.3,47z"/>
		</g>
	</g>
	<g id="XMLID_221_">
		<g id="XMLID_385_">
			<path id="XMLID_392_" class="st1" d="M312.5,1.3c-5.3-1.8-10.1,6.8-12.9,10.4c-4.9,6.3-9.1,13.1-12.6,20.3
				c-0.2,0.5,4.2,2.8,4.4,2.3c2.9-5.9,6.2-11.6,10-16.9c1.8-2.5,3.8-5,5.8-7.4c1.4-1.6,5.4-7.5,8.1-6.6
				C317.3,4.1,313.2,1.6,312.5,1.3L312.5,1.3z"/>
		</g>
	</g>
	<g id="XMLID_224_">
		<g id="XMLID_396_">
			<path id="XMLID_403_" class="st1" d="M299.5-1.5c-5.1,1.9-8.5,6.1-11.8,10.1c-4.3,5.2-8.3,10.6-12,16.2c-1.5,2.3,2.1,5.7,3.8,3.2
				c3.1-4.6,6.3-9.2,9.8-13.5c3.4-4.2,6.9-9.6,12.2-11.5C304.2,2.1,302.2-2.4,299.5-1.5L299.5-1.5z"/>
		</g>
	</g>
	<g id="XMLID_225_">
		<g id="XMLID_408_">
			<path id="XMLID_415_" class="st1" d="M285.1-1.4c-7.9,7.6-14.8,16-20.7,25.2c-0.3,0.5,4.1,2.4,4.9,1.2
				c5.8-9.1,12.6-17.4,20.4-24.8C290.4-0.5,286-2.2,285.1-1.4L285.1-1.4z"/>
		</g>
	</g>
	<g id="XMLID_226_">
		<g id="XMLID_421_">
			<path id="XMLID_428_" class="st1" d="M266.6-0.1c-5.1,6.7-8.9,14-11.5,22c1.5-0.4,2.9-0.8,4.4-1.3c-8.6-3.2-17.2-6.4-25.8-9.5
				c-4.1-1.5-9.1-2.6-12.9-4.8c-2.4-1.4-3.3-1.2-0.9-4.2c1.5-1.9,3.3-3.5,5.2-4.9c2.1-1.5-2.7-1.3-3.8-0.5c-3.5,2.7-6.4,5.7-8.6,9.6
				c-0.2,0.3,0.2,0.6,0.4,0.7c14.1,5.2,28.2,10.4,42.3,15.7c1,0.4,4,0,4.4-1.3c2.5-7.8,6.1-14.9,11.1-21.4
				C272.1-1.6,267.4-1.2,266.6-0.1L266.6-0.1z"/>
		</g>
	</g>
	<g id="XMLID_232_">
		<g id="XMLID_434_">
			<path id="XMLID_441_" class="st1" d="M217.2,5.3c12.8,3.2,24.8,8.9,36.7,14.6c-0.1-1.4-0.2-2.8-0.3-4.1c-10.7-4.5-21.7-8-33-10.8
				c0.4,1.5,0.8,2.9,1.3,4.4c10.2,0.3,18.4,5.1,27.6,8.8c1.8,0.7,3.4,1.3,4.5-0.7c0.8-1.6,0.5-4.3,0.6-6c0.2-3,0.5-6,0.7-8.9
				c0.1-1.8-3.5-5.2-3.8-2.6c-0.6,4.7-2.2,10.4-1.5,15.1c0.2,1.3,1.1,2.8,2.6,3c5,0.8,8.1-9.2,9.1-12.9c0.4-1.5-2.3-4.9-3.6-3
				c-2.8,3.8-4.7,7.9-6.1,12.4c-0.4,1.2,2.1,4.8,3.4,3.3c3.8-4.2,6.2-8.8,7.4-14.3c0.3-1.5-2.4-5-3.6-3c-2.9,4.6-4.6,9.4-5.4,14.7
				c-0.2,1.4,2.7,5.2,3.6,3c2.4-5.5,4.7-11,7.1-16.4c-0.5,0.1-1.1,0.2-1.6,0.4c1.7,0.6,2,0.6,3.8,0.4c-0.7-1.5-1.4-2.9-2.2-4.4
				c-8.9,1.6-17.8,2.4-26.8,2.2c-2.8,0-0.4,4,1.3,4.4c5.3,1.3,10.7,2.2,16.2,2.7c2.7,0.2,0.4-4-1.3-4.4c-5.4-1.2-10.8-1.5-16.3-1
				c-1.8,0.2-0.4,3,0.3,3.6c3.6,3.3,7.5,5.3,12.3,6.1c2.2,0.3,1-2.9,0.2-3.6c-2.3-1.9-4.5-3.1-7.5-3.6c-1.9-0.3-1.3,2.3-0.6,3.1
				c2.1,2.6,4.5,4.5,7.6,5.8c2.8,1.1,1.4-3.4-0.3-4.1C240,5,230.2,1.8,220-0.5c0.6,1.5,1.1,2.9,1.7,4.4c7.9-0.3,15.9-0.7,23.8-1
				c-0.7-1.5-1.4-2.9-2.2-4.4c-6.7,0.8-13.3,1.1-20,0.8c-2.6-0.1-0.7,3.8,0.8,4.3c9,2.9,17.5,6.9,25.6,12c2.5,1.6,2.7-1.9,1.2-3.2
				c-3.9-3.5-7.8-6.8-11.9-10c-0.2,1.2-0.5,2.4-0.7,3.6c2.4,1.8,4.7,3.6,7.1,5.5c0.1-1.3,0.1-2.6,0.2-3.9c-4.4-1.7-8.8-3.4-13.1-5
				c0.3,1.4,0.5,2.9,0.8,4.3c5.6-0.1,11,0.7,16.3,2.4c-0.3-1.4-0.5-2.9-0.8-4.3c-5-0.5-9.8-1.4-14.7-2.6c0.4,1.5,0.8,2.9,1.3,4.4
				c9.7,0.8,24.1,4.7,31-4.4c1.2-1.6-2.1-5.3-3.5-3.4c-6.1,8-20.2,4.1-28.8,3.4c-2.8-0.2-0.4,4,1.3,4.4c4.9,1.2,9.7,2.1,14.7,2.6
				c2.6,0.3,0.6-3.8-0.8-4.3c-5.7-1.9-11.3-2.8-17.3-2.7c-2.6,0-0.6,3.7,0.8,4.3c4.4,1.7,8.8,3.4,13.1,5c2.8,1.1,1.3-3,0.2-3.9
				c-2.4-1.8-4.7-3.6-7.1-5.5c-2.6-2-2.4,2.3-0.7,3.6c3.8,2.9,7.4,6,11,9.2c0.4-1.1,0.8-2.1,1.2-3.2c-8.3-5.3-17.2-9.5-26.5-12.5
				c0.3,1.4,0.5,2.9,0.8,4.3c7,0.3,13.9,0,20.9-0.8c2.3-0.3-0.3-4.5-2.2-4.4c-7.9,0.3-15.9,0.7-23.8,1c-2.4,0.1,0.5,4.1,1.7,4.4
				c9.8,2.2,19.3,5.4,28.6,9.5c-0.1-1.4-0.2-2.8-0.3-4.1c-2-0.6-3.6-1.8-4.8-3.4c-0.2,1-0.4,2.1-0.6,3.1c1.7,0.2,3.2,0.9,4.6,2.1
				c0.1-1.2,0.1-2.4,0.2-3.6c-3.7-0.6-6.7-1.9-9.4-4.5c0.1,1.2,0.2,2.4,0.3,3.6c5.2-0.5,10.3-0.1,15.4,1.1c-0.4-1.5-0.8-2.9-1.3-4.4
				c-5.5-0.5-10.9-1.4-16.2-2.7c0.4,1.5,0.8,2.9,1.3,4.4c9.3,0.1,18.5-0.6,27.7-2.3c2.3-0.4-0.2-4.6-2.2-4.4
				c-0.6-0.1-1.3-0.1-1.9-0.2c-0.5-0.2-1.3-0.3-1.6,0.4c-2.4,5.5-4.7,11-7.1,16.4c1.2,1,2.4,2,3.6,3c0.7-5.1,2.4-9.6,5.1-13.9
				c-1.2-1-2.4-2-3.6-3c-1.1,4.9-3.2,9.1-6.6,12.9c1.1,1.1,2.2,2.2,3.4,3.3c1.3-4.3,3.1-8,5.7-11.5c-1.2-1-2.4-2-3.6-3
				c-0.4,1.5-3.6,11.5-6.5,11c0.9,1,1.7,2,2.6,3c-0.7-4.2,0.9-9.8,1.4-14.1c-1.3-0.9-2.5-1.7-3.8-2.6c-0.1,1.4,0.1,13.2-1.1,13.9
				c-1.6,1-7-2.6-9-3.4c-6.7-2.9-13.4-5.3-20.8-5.5c-2.8-0.1-0.4,4,1.3,4.4c11,2.7,21.6,6.2,32,10.5c2.8,1.2,1.4-3.3-0.3-4.1
				C241.4,9.9,229.1,4.2,216,0.9C213.6,0.3,215.4,4.8,217.2,5.3L217.2,5.3z"/>
		</g>
	</g>
	<g id="XMLID_238_">
		<g id="XMLID_445_">
			<path id="XMLID_452_" class="st1" d="M343.2,0.3c-8.9,6.1-17.1,13.2-24.2,21.3c-3.6,4.1-7,8.5-10,13.1c-1.5,2.3-3,4.6-4.3,7
				c-2.4,4.2-4.7,2.3-8.7,0.5c-2.9-1.3-0.3,2.2,1,2.9c2.9,1.3,5.7,2.3,8.7,3.3c0.2,0.1,0.8,0.2,1-0.1c9.6-17.9,23.3-33.2,40.1-44.7
				C348,2.7,344.3-0.5,343.2,0.3L343.2,0.3z"/>
		</g>
	</g>
	<g id="XMLID_357_">
		<g id="XMLID_457_">
			<path id="XMLID_464_" class="st1" d="M346.9,3.7c1.9-2.3,4.1-4.3,6.6-5.9c1-0.6,0-1.5-0.6-1.8c-0.9-0.5-2.5-0.7-3.4,0
				c-2.7,1.8-5.1,3.9-7.1,6.4C341.1,3.8,345.8,5.1,346.9,3.7L346.9,3.7z"/>
		</g>
	</g>
	<g id="XMLID_368_">
		<g id="XMLID_470_">
			<path id="XMLID_477_" class="st1" d="M591.5,29.3c-3.3,0.4-6.4,1.6-9.1,3.5c-0.8,0.6-1.2,1.7-0.2,2.3c1,0.6,2.6,0.1,3.4-0.5
				c1.7-1.2,3.5-1.8,5.5-2c1-0.1,2.5-0.8,2.6-2C593.8,29.4,592.3,29.2,591.5,29.3L591.5,29.3z"/>
		</g>
	</g>
	<g id="XMLID_380_">
		<g id="XMLID_483_">
			<path id="XMLID_490_" class="st1" d="M614.6,92.7c-1.9,1.2-3.9,2.2-6.1,2.9c-1.2,0.3-2.4,1.2-2.2,2.6c0.1,1.2,1.5,2.1,2.6,1.7
				c3.1-0.9,5.9-2.1,8.5-3.9c1-0.7,1.4-2.1,0.6-3.1C617.1,91.8,615.6,92,614.6,92.7L614.6,92.7z"/>
		</g>
	</g>
	<g id="XMLID_393_">
		<g id="XMLID_494_">
			<path id="XMLID_502_" class="st1" d="M465.6,54.4c-0.1,4.3,0.3,8.5,1.4,12.7c0.4,1.5,5,2.6,4.7,1.2c-1.1-4.2-1.5-8.4-1.4-12.7
				C470.4,54.2,465.7,52.7,465.6,54.4L465.6,54.4z"/>
		</g>
	</g>
	<g id="XMLID_406_">
		<g id="XMLID_509_">
			<path id="XMLID_520_" class="st1" d="M524.4,139.4c0,2.9,0,5.8,0,8.7c0,0.3,4.5-0.7,4.5-2.1c0-2.9,0-5.8,0-8.7
				C528.9,137,524.4,138,524.4,139.4L524.4,139.4z"/>
		</g>
	</g>
	<g id="XMLID_417_">
		<g id="XMLID_529_">
			<path id="XMLID_533_" class="st1" d="M654.2,171.9c-2.3,1.6-5,2.6-7.8,3c-2.7,0.4-0.3,4.6,1.8,4.3c3.5-0.5,6.6-1.7,9.5-3.7
				C659.6,174.2,656.2,170.6,654.2,171.9L654.2,171.9z"/>
		</g>
	</g>
	<g id="XMLID_429_">
		<g id="XMLID_539_">
			<path id="XMLID_544_" class="st1" d="M546,77c-2.2,2.1-4.3,4.1-6.5,6.2c-0.9,0.9-0.6,2.3,0.4,3c1.1,0.7,2.6,0.4,3.5-0.5
				c2.2-2.1,4.3-4.1,6.5-6.2c0.9-0.9,0.6-2.3-0.4-3C548.3,75.8,546.9,76.1,546,77L546,77z"/>
		</g>
	</g>
	<g id="XMLID_442_">
		<g id="XMLID_551_">
			<path id="XMLID_558_" class="st1" d="M844.5,29.8c0,0.4,0,0.9,0,1.3c0,0.3,0.3,0.8,0.5,1.1c0.3,0.5,0.7,1.1,1.1,1.6
				c0.3,0.4,0.6,0.8,1,1.1c0.1,0.1,0.4,0.3,0.4,0c0-0.4,0-0.9,0-1.3c0-0.3-0.3-0.8-0.5-1.1c-0.3-0.5-0.7-1.1-1.1-1.6
				c-0.3-0.4-0.6-0.8-1-1.1C844.8,29.7,844.5,29.5,844.5,29.8L844.5,29.8z"/>
		</g>
	</g>
	<g id="XMLID_455_">
		<g id="XMLID_564_">
			<path id="XMLID_571_" class="st1" d="M652.8,10c-0.9,1.1-1.8,2.2-2.6,3.4c-0.4,0.5,1.2,1.8,1.5,2.1c0.2,0.2,1.9,1.7,2.2,1.2
				c0.9-1.1,1.8-2.2,2.6-3.4c0.4-0.5-1.2-1.8-1.5-2.1C654.8,11.1,653.2,9.6,652.8,10L652.8,10z"/>
		</g>
	</g>
	<g id="XMLID_466_">
		<g id="XMLID_576_">
			<path id="XMLID_583_" class="st1" d="M869.1,94c-2.2,0.2-4.4,0-6.5-0.6c-1-0.3-2.2,0.4-3,1.1c-0.3,0.2-1.7,1.8-0.7,2.1
				c2.7,0.7,5.4,0.9,8.1,0.7c1.1-0.1,2.4-1,2.9-2C870.4,94.4,870,93.9,869.1,94L869.1,94z"/>
		</g>
	</g>
	<g id="XMLID_478_">
		<g id="XMLID_587_">
			<path id="XMLID_594_" class="st1" d="M386.4,135.5c-2,1.8-3.9,3.6-5.9,5.4c-0.6,0.5-1.1,1.5,0,1.7c1.1,0.2,2.5-0.7,3.2-1.4
				c2-1.8,3.9-3.6,5.9-5.4c0.6-0.5,1.1-1.5,0-1.7C388.6,133.9,387.2,134.8,386.4,135.5L386.4,135.5z"/>
		</g>
	</g>
	<g id="XMLID_491_">
		<g id="XMLID_600_">
			<path id="XMLID_606_" class="st1" d="M285.4,170.9c0,3.6,1.5,7.1,3.6,10c0.3,0.4,0.9,1.4,1,0.5c0.1-0.8-1-2.5-1.5-3.1
				c-0.2-0.3-0.3-0.5-0.1-0.1c-0.1-0.3-0.2-0.7-0.3-1c-0.2-0.7-0.2-1.4-0.2-2.1c0-1-0.7-2.1-1.2-2.9
				C286.6,172,285.4,170.4,285.4,170.9L285.4,170.9z"/>
		</g>
	</g>
	<g id="XMLID_505_">
		<g id="XMLID_611_">
			<path id="XMLID_615_" class="st1" d="M367.8,195.5c-0.8,2.2-1.5,4.4-2.3,6.6c-0.3,0.8,1.6,0.4,1.9,0.4c0.7-0.1,2.5-0.5,2.8-1.3
				c0.8-2.2,1.5-4.4,2.3-6.6c0.3-0.8-1.6-0.4-1.9-0.4C369.9,194.3,368,194.7,367.8,195.5L367.8,195.5z"/>
		</g>
	</g>
	<g id="XMLID_522_">
		<g id="XMLID_620_">
			<path id="XMLID_627_" class="st1" d="M418.9,135.6c1.1,2,2.2,4,3.3,6c0.4,0.8,2.3,0.8,3,0.9c0.3,0,2.2,0,1.8-0.7
				c-1.1-2-2.2-4-3.3-6c-0.4-0.8-2.3-0.8-3-0.9C420.4,134.9,418.5,134.9,418.9,135.6L418.9,135.6z"/>
		</g>
	</g>
	<g id="XMLID_534_">
		<g id="XMLID_632_">
			<path id="XMLID_636_" class="st1" d="M345.6,45.1c0.4,2.2,0.8,4.5,1.2,6.7c0.3,1.4,5,2.6,4.7,1.1c-0.4-2.2-0.8-4.5-1.2-6.7
				C350.1,44.8,345.3,43.7,345.6,45.1L345.6,45.1z"/>
		</g>
	</g>
	<g id="XMLID_548_">
		<g id="XMLID_642_">
			<path id="XMLID_648_" class="st1" d="M409.2,7.9c0-0.6,0-1.2,0-1.8c0-1.8-5-2.1-5-0.5c0,2.6,0,5.2,0,7.8c0,1.8,5,2.1,5,0.5
				c0-2.6,0-5.2,0-7.8c0-1.8-5-2.1-5-0.5c0,0.6,0,1.2,0,1.8C404.2,9.2,409.2,9.6,409.2,7.9L409.2,7.9z"/>
		</g>
	</g>
	<g id="XMLID_559_">
		<g id="XMLID_653_">
			<path id="XMLID_660_" class="st1" d="M164.9,75.6c-2,2-4,4-6,6c-0.5,0.5,1.6,0.6,1.8,0.6c0.8,0,2.4,0.1,3.1-0.6c2-2,4-4,6-6
				c0.5-0.5-1.6-0.6-1.8-0.6C167.2,75.1,165.6,75,164.9,75.6L164.9,75.6z"/>
		</g>
	</g>
	<g id="XMLID_572_">
		<g id="XMLID_666_">
			<path id="XMLID_673_" class="st1" d="M191.7,156.3c-0.9,2-1.8,4-2.7,6c-0.5,1.1,0.1,2.4,1.3,2.8c1.3,0.4,2.7-0.4,3.2-1.5
				c0.9-2,1.8-4,2.7-6c0.5-1.1-0.1-2.4-1.3-2.8C193.6,154.5,192.2,155.2,191.7,156.3L191.7,156.3z"/>
		</g>
	</g>
	<g id="XMLID_585_">
		<g id="XMLID_679_">
			<path id="XMLID_686_" class="st1" d="M223.6,121.9c0.5,2.9,1.6,5.6,3.6,7.8c0.9,0.9,2.3,1.1,3.4,0.4c0.9-0.5,1.7-2,0.9-3
				c-1.5-1.6-2.6-3.5-2.9-5.6c-0.2-1.3-1.2-2-2.5-1.9C225,119.6,223.4,120.6,223.6,121.9L223.6,121.9z"/>
		</g>
	</g>
	<g id="XMLID_597_">
		<g id="XMLID_690_">
			<path id="XMLID_697_" class="st1" d="M277.8,112.6c0.7,0.7,1.3,1.3,2,2c0.4,0.4,1,0.8,1.7,1c0.4,0.1,1.1,0.1,1.5-0.2
				c1-0.7,0.5-2-0.2-2.7c-0.7-0.7-1.3-1.3-2-2c-0.4-0.4-1-0.8-1.7-1c-0.4-0.1-1.1-0.1-1.5,0.2C276.7,110.6,277.1,111.9,277.8,112.6
				L277.8,112.6z"/>
		</g>
	</g>
	<g id="XMLID_607_">
		<g id="XMLID_702_">
			<path id="XMLID_709_" class="st1" d="M233,62.4c-1.5,1.6-3.1,3.1-4.6,4.7c-0.4,0.4,1.6,0.5,1.8,0.5c0.6,0,1.3,0,1.9-0.1
				c0.3,0,0.9-0.1,1.1-0.3c1.5-1.6,3.1-3.1,4.6-4.7c0.4-0.4-1.6-0.5-1.8-0.5c-0.6,0-1.3,0-1.9,0.1C233.8,62.1,233.2,62.1,233,62.4
				L233,62.4z"/>
		</g>
	</g>
	<g id="XMLID_618_">
		<g id="XMLID_715_">
			<path id="XMLID_722_" class="st1" d="M334.2,90.5c0,1.8,0,3.6,0,5.3c0,1.4,5,1.2,5-0.4c0-1.8,0-3.6,0-5.3
				C339.2,88.7,334.2,88.9,334.2,90.5L334.2,90.5z"/>
		</g>
	</g>
	<g id="XMLID_628_">
		<g id="XMLID_728_">
			<path id="XMLID_735_" class="st1" d="M116.8,191.5c-0.5,3.6-0.9,7.1-1.4,10.7c-0.2,1.5,3.6,4.4,3.7,3.1c0.5-3.6,0.9-7.1,1.4-10.7
				C120.8,193.1,117,190.2,116.8,191.5L116.8,191.5z"/>
		</g>
	</g>
	<g id="XMLID_639_">
		<g id="XMLID_739_">
			<path id="XMLID_746_" class="st1" d="M189.7,187.8c-0.9,1.1-1.8,2.2-2.7,3.3c-0.4,0.5,0.9,1.9,1.2,2.3c0.2,0.2,1.8,1.9,2.1,1.4
				c0.9-1.1,1.8-2.2,2.7-3.3c0.4-0.5-0.9-1.9-1.2-2.3C191.6,189,190,187.3,189.7,187.8L189.7,187.8z"/>
		</g>
	</g>
	<g id="XMLID_649_">
		<g id="XMLID_751_">
			<path id="XMLID_758_" class="st1" d="M136.9,24.6c-0.2,3.5,0.1,7,0.8,10.5c0.4,2.1,5.2,2.6,4.7-0.1c-0.6-3.1-0.7-6.3-0.6-9.5
				C141.9,23.2,137,22,136.9,24.6L136.9,24.6z"/>
		</g>
	</g>
	<g id="XMLID_662_">
		<g id="XMLID_764_">
			<path id="XMLID_771_" class="st1" d="M95.3,5.5c-1.7,2.1-3.7,3.9-6,5.3c-0.5,0.3,1.5,1.9,1.7,2c0.5,0.4,1.7,1.3,2.4,0.9
				c2.3-1.4,4.3-3.2,6-5.3C99.9,7.7,95.9,4.7,95.3,5.5L95.3,5.5z"/>
		</g>
	</g>
	<g id="XMLID_674_">
		<g id="XMLID_777_">
			<path id="XMLID_784_" class="st1" d="M194.9,38.5c-0.9,0.4-1.8,0.9-2.7,1.3c-0.3,0.1,0.3,0.2,0.3,0.2c0.5,0.1,1,0,1.5,0
				c1-0.1,2.1-0.1,3-0.6c0.9-0.4,1.8-0.9,2.7-1.3c0.3-0.1-0.3-0.2-0.3-0.2c-0.5-0.1-1,0-1.5,0C197,38,195.8,38.1,194.9,38.5
				L194.9,38.5z"/>
		</g>
	</g>
	<g id="XMLID_687_">
		<g id="XMLID_788_">
			<path id="XMLID_795_" class="st1" d="M14.8,10.2C13.1,6.2,11.1,2.4,9-1.3C7.6-3.7,3-2.3,4.6,0.4C6.8,4.2,8.7,8,10.5,11.9
				C11.6,14.5,16.1,13.1,14.8,10.2L14.8,10.2z"/>
		</g>
	</g>
	<g id="XMLID_700_">
		<g id="XMLID_800_">
			<path id="XMLID_807_" class="st1" d="M489.3,7c-1.3,1.1-2.7,2.2-4,3.3c-0.8,0.6,2.2,4.6,2.9,4.1c1.3-1.1,2.7-2.2,4-3.3
				C492.9,10.5,489.9,6.5,489.3,7L489.3,7z"/>
		</g>
	</g>
	<g id="XMLID_711_">
		<g id="XMLID_813_">
			<path id="XMLID_820_" class="st1" d="M569,182.4c-0.2,0.7-0.5,1.3-0.7,2c-0.4,1.2,0.3,2.5,1.5,2.8c1.2,0.3,2.7-0.3,3.2-1.5
				c0.2-0.7,0.5-1.3,0.7-2c0.4-1.2-0.3-2.5-1.5-2.8C570.9,180.6,569.4,181.1,569,182.4L569,182.4z"/>
		</g>
	</g>
	<g id="XMLID_723_">
		<g id="XMLID_1021_">
			<path id="XMLID_1027_" class="st1" d="M849.5,200.2c0.2,0.5,0.4,0.9,0.6,1.4c0.5,1.1,2.1,1.3,3.1,1.1c0.9-0.2,2.2-1,1.7-2.1
				c-0.2-0.5-0.4-0.9-0.6-1.4c-0.5-1.1-2.1-1.3-3.1-1.1C850.3,198.3,849,199.1,849.5,200.2L849.5,200.2z"/>
		</g>
	</g>
	<g id="XMLID_736_">
		<g id="XMLID_1030_">
			<path id="XMLID_1037_" class="st1" d="M854.9,147.4c-1.3,0.5-2.6,0.9-4,1.4c-0.9,0.3,0.3,1.7,0.6,2c0.6,0.6,1.9,1.7,2.9,1.3
				c1.3-0.5,2.6-0.9,4-1.4c0.9-0.3-0.3-1.7-0.6-2C857.2,148.1,855.9,147,854.9,147.4L854.9,147.4z"/>
		</g>
	</g>
	<g id="XMLID_749_">
		<g id="XMLID_1042_">
			<path id="XMLID_1048_" class="st1" d="M611.2,135.7c0.7,2,1.3,4,2,6c0.1,0.3,4.5-1.7,4.2-2.8c-0.7-2-1.3-4-2-6
				C615.3,132.6,610.9,134.7,611.2,135.7L611.2,135.7z"/>
		</g>
	</g>
	<g id="XMLID_760_">
		<g id="XMLID_1053_">
			<path id="XMLID_1060_" class="st1" d="M399.3,82c-2.4,1-4.8,1.9-7.2,2.9c-0.3,0.1,1.8,4.6,2.6,4.3c2.4-1,4.8-1.9,7.2-2.9
				C402.2,86.1,400.1,81.7,399.3,82L399.3,82z"/>
		</g>
	</g>
	<g id="XMLID_772_">
		<g id="XMLID_1066_">
			<path id="XMLID_1073_" class="st1" d="M462.3,182.7c-1.8,0-3.6,0-5.3,0c-0.5,0,0.4,2.3,0.5,2.5c0.3,0.5,0.8,2,1.6,2
				c1.8,0,3.6,0,5.3,0c0.5,0-0.4-2.3-0.5-2.5C463.6,184.2,463,182.7,462.3,182.7L462.3,182.7z"/>
		</g>
	</g>
</g>
</svg>
