<?xml version="1.0" encoding="UTF-8"?>
<svg enable-background="new 0 0 865 202" version="1.1" viewBox="0 0 865 202" xml:space="preserve" xmlns="http://www.w3.org/2000/svg">
<style type="text/css">
	.st0{fill:#E96095;stroke:#010101;stroke-miterlimit:10;}
	.st1{opacity:0.85;}
	.st2{fill:#FCDEEA;}
	.st3{fill:#FEF2F7;}
	.st4{fill:#FACDDF;}
	.st5{fill:#F8BBD3;}
	.st6{fill:#F27EAF;}
	.st7{fill:#F6ADCA;}
	.st8{fill:#F59DC1;}
	.st9{fill:#F38EB8;}
</style>

	<rect class="st0" x="-4.3" y="-3.3" width="874" height="209.3"/>


	
		
			<g class="st1">
				<g class="st1">
					
						<path class="st2" d="m445.5 179.8c-0.1-0.1-0.2-0.3-0.3-0.5l0.7-1.8-1.4-2c-0.1-0.6 0-1.2-0.1-1.7-0.2-0.7 0.4-1.5 0.9-2.6 0.2-1.9 0.5-3 0.4-4.2-1.8-0.4 1.1-3.5 2.2-5.5-0.5-0.4-1.1-0.8-1.6-1.1 0.9-0.9 0.6-1.9 1.8-3.2-0.4-2.2 0.4-3.6 1.5-5.1 0.1-0.4 0.1-0.7 0.2-1 0.6-0.4 1.2-0.8 1.7-1.2 0.7-1.5-0.8-1.5-1.2-2.4 1-0.7 2-1.5 3.1-2.2h1.1c0.3 0.5 0.6 1.1 1 1.5v1.8c-1 1.4-1.1 2-0.9 2 0.6 1.6 1.9-0.9 2.9-1.7 0.2 0.1 0.5 0.2 0.8 0.3-0.2 0.8-0.3 1.6-0.5 2.3-1.2 2 0.2 2.3-1.7 3.7 0.2 0.3 0.3 0.6 0.5 0.9-0.2 0.5-0.4 1-0.6 1.6-0.2 0.1-0.4 0.2-0.6 0.4-0.3-0.3-0.5-0.7-0.7-1.1-0.1-0.3-0.1-1.1 0.8-1.8-1.6-0.7-2.2-2.3-2.1-3.6-1 0.1-0.8 1.2-1.6 1.8-0.4 0.7-0.8 1.4-1.3 2.1 0.8 0.6 0.9 0.8 1.1 1-0.5 0.6-1 1.2-1.6 1.6-0.4 1.2-0.8 1.9-0.9 2.8 0.9 0.8 0.1 1.5 0 1.8 0.5 2.5-0.1 4.7-1.3 7.2-0.5 0-1.1 0.9-1.7 1.6 0.3 1.3 0.4 2.3 1.4 2.5 0.2-0.3 0.4-0.4 0.5-0.6l1.8-3.2c0.2-0.4 0.3-0.9 0.5-1.4l-0.5-1.6c0.5-0.2 1-0.7 1.6-1.3 0.5-0.6 1.1-1.2 1.6-1.7 0.5-0.2 1-0.4 1.6-0.6 0 1.2-1 2.2-1.8 3.5-0.9 1.2-1.7 2.3-2.5 3.5-0.4 1-0.7 2.1-1 3.2-0.8 2.1-0.5 4.1-1.8 4.9-0.4 0.6-0.7 1.1-1.1 1.6l-0.9-0.5z"/>
					
					
						<path class="st3" d="m446 171.6c0.6-0.7 1.2-1.6 1.7-1.6 1.2-2.5 1.8-4.7 1.3-7.2 0.1-0.4 0.9-1 0-1.8 0.2-0.9 0.5-1.5 0.9-2.8 0.7-0.4 1.2-1.1 1.6-1.6-0.2-0.2-0.4-0.3-1.1-1 0.5-0.7 0.9-1.4 1.3-2.1 0.8-0.6 0.6-1.7 1.6-1.8 0 1.3 0.5 2.9 2.1 3.6-0.9 0.8-0.9 1.6-0.8 1.8 0.2 0.4 0.4 0.8 0.7 1.1-0.5 0.6-0.9 1.2-1.4 1.8-0.2 0.3-0.5 0.6-0.7 0.9l-0.6 0.9c0.7 0.6-1.4 2.4 0.2 2.4-0.5 0.5-1.1 1.1-1.6 1.7s-1 1.1-1.6 1.3l0.5 1.6c-0.1 0.4-0.3 1-0.5 1.4l-1.8 3.2c-0.1 0.2-0.3 0.4-0.5 0.6-1-0.1-1-1.1-1.3-2.4z"/>
					
					
						<path class="st4" d="m452.8 164.1c-1.6-0.1 0.5-1.8-0.2-2.4l0.6-0.9c0.2-0.3 0.5-0.6 0.7-0.9 0.5-0.6 0.9-1.2 1.4-1.8 0.2-0.1 0.4-0.3 0.6-0.4 0.2-0.6 0.4-1 0.6-1.6-0.2-0.3-0.3-0.6-0.5-0.9 2-1.5 0.6-1.8 1.7-3.7 0.2-0.8 0.3-1.6 0.5-2.3-0.2-0.1-0.5-0.2-0.8-0.3-1 0.8-2.3 3.3-2.9 1.7-0.3-0.1-0.2-0.7 0.9-2v-1.8c-0.3-0.5-0.6-1.1-1-1.5 0.8-1.1 1.5-2.1 2.3-3.2l0.6-0.6c0.2-0.5 0.6-1.1 0.9-1.5 0.7 0.1 1.3 0.2 1.9 0.3 1.4-0.6-0.1-1.3 0.8-2.4 1.2-0.7 2.5-1.3 3.8-1.9 2.8-3 5.3-1 7.7-4.3 1.1-0.5 2.2-1.1 3.4-1.7 1.1-1.3 2.2-2.5 3.4-3.8l2.7-2.1c0 0.3 0.3 0.2 0.6 0.2 1.3-1 0.3-2.4 3.2-4.1 0.6-0.4 1.2-0.7 1.8-1.1 1-0.9 2.1-1.9 3.1-2.8 1.2-1 2.4-1.9 3.6-2.9 0.2-0.2 0.4-0.3 0.7-0.6 1.7-1.1 1.3 0.6 2.3 0.3 1.2-0.8 2.5-2.7 3.7-2.2 0.9-0.8 2-1.7 3-2.4 1.1-1.4 0.9-2.4 2.2-3.3 0.6-0.6 1.2-1.2 1.8-1.9l0.6-0.6c-0.3-1 0.7-1.8 1.3-2.2 0.6-0.8 1.2-1.7 1.8-2.5 0.5 0.2 0.9-0.2 1.3-0.8 0.5-0.6 0.9-1.2 1.5-1.3 1.3-1.3 2.5-2.6 3.7-3.9 0.8-2.4-0.2-5.2 1.5-4.4 1.1-1.4 1.1-3.5 2.5-5.4 0.8-1.7 1.5-3.6 2-5.5-0.1-1-0.2-2.1-0.4-3.1v-0.6-2.3c-0.1-1-0.4-2.1-0.6-2.9-0.9-1.5-2-3.4-0.9-3.8-0.1-0.3-0.2-0.6-0.3-0.8-1.2-0.1-1.2-1.8-1.8-1.9-0.4-0.1-1.2-1.8-0.9-2.6-0.1-0.3-0.3-0.5-0.4-0.8-0.6-0.9-1.2-1.8-1.8-2.6-1.1 0-1.7-1.3-2-2-0.5-0.6-1-1.1-1.5-1.7-0.5-0.5-1-1.1-1.6-1.6-1-0.9-2-1.8-3.1-2.6-0.5 0.4-1.2 0.1-1.9-0.7-0.7-0.7-1.4-1.7-1.7-2.7-0.5-0.3-1-0.7-1.5-1-0.6 0.1-1.2 0.1-1.8 0.1-0.5-0.4-1.3-0.7-2-1.1-0.6-0.4-1.2-0.7-1.4-1.2-0.5-0.2-1.1-0.5-1.6-0.7-1.7 0.2-1.5-0.7-2.6-0.9-0.1 0-0.3-0.1-0.4-0.1l-0.6 1.6c-1.5 0.9-2-0.9-3.2-1.3-0.4-0.2-0.7 0-1 0.1-0.2 0.9-0.9 0.6-1.8 0.2s-1.9-0.8-2.6 0c-1.2 0-0.5-1.7-2.9-1.1-0.4 0.9-1.6 1.1-3 1.1h-2.3c-0.8 0-1.5 0-2.1 0.1-0.5 0.6-1 1.3-1.4 1.8-2.5-0.2-4.1 1-5.6 2.3s-2.8 2.8-5.3 3.9c-1 0.1-1.6 0.7-2.3 1.3s-1.2 1.3-2.2 1.4c0.7 1.5-0.9 2.7-2.3 4.1-1.4 1.3-2.7 2.8-1.6 4-1.1 1.6-3 3.2-3.1 5-1.5 0.2-1.7 0.3-1.9 0.6-0.1 0.8 0.6 0.8 1 1.2-0.5 0.7-0.9 1.3-1.5 1.9-0.5-1.1-1.4 0.4-2.1 0.6 0.7 2.6-3.1 3.1-4.1 5.7-0.2 1 0.4 1.6 0.8 2.2s0.5 1.2-0.6 2.4c0.7 1.8 0.5 2.1-0.6 3.9-1.3 0.6-1.7 2.2-2.7 3.7-0.4 0-0.8 0.1-1.3 0.1-0.3 0.4-0.6 0.8-0.9 1.1-1.5 0.7-2.7 0.9-3.5 2.6-0.4-0.1-0.8-0.4-1.2-0.5-0.1-1.1-0.2-1.7-0.3-2.3-0.1-0.5-0.2-0.9-0.1-1.3 0.6-0.5 1.4-1 2-1.4-0.1-1.1-0.2-2.3-0.2-3.5 0.3-1 0.6-2 0.9-3-0.3-0.6-0.7-1.3-0.9-1.9 0-0.3 0.1-0.6 0.1-0.9 0.8-1.2 1.7-2.3 2.5-3.4 0.7-0.5 1.3-0.9 2-1.4 0.3 0.2 0.6 0.3 1.1 0.6 0.8-1.3 1.6-2.7 2.4-4 0.7-1.1 1.4-2.2 2.2-3.3 0.4-0.1 1-0.3 1.5-0.5 0-0.6-0.1-1.1-0.1-1.6 0.4-1.1 1.5-1.1 1.4-2.1-1.4 0 0.2-1.4 1.6-3.7 0.5-0.4 1-0.7 1.5-1.1 0.6-1.6 0-1.7 0.1-2.4 0.4-0.7 0.8-1.3 1.3-2-1.1-0.2 0.2-1.4 0.5-2.2 2.1-1.1 1.5-2.8 3.8-3.7 0.7-0.8-0.7-1 0.1-1.6l0.9-0.6c0.5 0.2 0.9 0.4 1.5 0.5 0.3-0.2 0.7-0.5 2.1-2 0.4 0.3 0.8 0.7 1.1 1.1 0.9-0.4 1.7-0.7 2.6-1 0.2-0.3 0.4-0.5 0.7-0.8 0.8-0.4 1.7-0.8 2.6-1.1s1.7-0.7 2.6-1c0.1 1 0.9 0.6 1.7 0.2 0.8-0.3 1.7-0.6 1.7 0.5 0.3-0.1 0.6-0.1 0.8-0.2-0.1-1.4-1-1.5-0.8-2.7 0.9-0.1 1.9-0.2 2.8-0.2 0 0.5 0.1 1 0.1 1.5 2.7 0.8 1-1.4 2.8-1.5 1 0.2 1.9 0.3 2.8 0.6 0.3 0.3 0.9 0.3 1.3 0.3 0.9-0.2 0.5-0.8 0.6-1.2l2.4 0.2c1.7-0.1 0.8-1.3 2.2-1.2 1.5 1.4 1.9 2.2 2.6 3.7 0.7-0.4 1.5-0.8 2.3-1.2 0.8-0.3 1.9 0.4 2.9 0.6 0.3 0.7 0.8 1.4 0.2 2.2 0.3 0.2 0.7 0.5 1.1 0.7l1.8-0.6c0.7 0.3 1.4 0.6 2 1.2 1.2 0.5 2.3 1.1 3.4 1.6 0.5 0.4 1 0.9 1.6 1.4 0.5 0.5 1 0.9 1.5 1.4 0.6 0.2 1.2 0.5 1.8 0.8s1.2 0.5 1.7 0.9c1.1 0.7 2.1 1.5 3.1 2.3 1.2 1.8 2.4 3.6 3.5 5.6 0.2 0.2 0.3 0.5 0.5 0.8 0.2-0.1 0.4-0.2 0.6-0.4 0.5 0.4 1.1 0.8 1.6 1.3 0.6 0.6 1.1 1.3 1.6 1.9 0.4 0.8 0.8 1.8 1.2 2.7 0.2 0.6 0.5 1.2 0.7 1.9 0 2.4 0.4 2.6 0.4 3.5 0.5 1.2 1.1 0.6 1.5 1.4l0.3 2.1c-0.3 1.4-0.5 2.5-0.6 3.4-0.1 1.4 0 2.6-0.4 4-0.2 1.1-0.4 2-0.7 3 0.2 0.6 0.5 1.3 0.7 1.9 0.1 1 0.2 2 0.3 2.9-0.3 1.1-0.5 2.1-0.8 3.1l-1.8 1.8c-0.8 1.1-1.6 2.1-2.3 3-0.4 0.2-0.7 0.4-0.9 0.5l-0.3 2.1c-0.4 1-0.9 2.1-1.3 3.1-0.1 0.1-0.2 0.2-0.3 0.4-0.6 0-1.3 0-1.9 0.1-0.2 0.2-0.4 0.4-0.6 0.7 0.2 1.2 0.9 0.6 1.1 1l-0.2 1c-1.9 2.4-2.5 0-3.8 2.6 0.2 0.4 0.4 0.9 0.6 1.2-0.5 0.6-1 1.1-1.5 1.6-1 0.7-2 1.4-3 2-0.7 0.6-1.4 1.2-2.1 1.7s-1.4 1.1-2.1 1.6c-0.6 1.8 1.4-0.2 1.8 0.7-0.4 1.8-0.2 1.7 0.1 1.6 1-0.5 0.6-1.3 1.3-1.9 0.1 0 0.3-0.1 0.5-0.1 0.4 0.4 0.7 0.9 1.2 1.3-0.1 0.5-0.1 0.9 0 1.4 0 0.1-0.1 0.3-0.2 0.5-1 0.8-1.9 1.5-2.8 2.3-0.1-0.3-0.4-0.2-0.7-0.1-1 0.5-0.6 1.3-1.4 1.9-0.9 0.3-1.7 0.6-2.6 1-1.7 0.8-1.3 2.1-2.6 3.1-0.4 0.3-0.6 0.5-1 0.8l-1.8 1.2c-0.9 1.1-2.2 2.1-3.5 3.2-1.4 1.1-2.8 2.1-4.1 3.1-1.2 1.1-3.4 0.8-3.7 2.5-2.5 1.5-4.7 4.7-6.7 4.6-0.4 0.8-1.2 1.6-2.1 2.4s-1.7 1.7-2.1 2.6c-1.1 0.6-2.2 1.1-3.2 1.6-1.4 1.8-3.9 3.5-4.1 5.3-0.8 0.4-1.6 0.9-2.4 1.3-0.6 0.5-1.2 1.1-1.4 1.7-1.8 1.4-2.8 3-4.3 2.1-0.1 0.2-0.2 0.5-0.3 0.7-0.3 0.3-0.6 0.8-0.9 1.1 0 0.1-0.1 0.2-0.2 0.3-0.2 0.6-0.4 1.3-0.6 1.9-0.2 0.2-0.4 0.5-0.7 0.8-0.2 0.4-0.4 0.7-0.5 1-0.2 0.5-0.4 0.9-0.6 1.4-0.4 0.1-1 0.3-1.5 0.5z"/>
					
					
						<path class="st2" d="m461 135.2c0.3-0.4 0.8-0.9 1.1-1.3 0.7-0.5 1.4-0.9 2.1-1.4 0.3-0.3 0.7-0.6 0.9-0.8 1.5-0.7 2.9-1.3 4.4-1.9l0.3-0.3 2.8-3.2c0.4-0.3 0.9-0.7 1.3-1 0.5 0.3 1.1 0.7 1.7 0.9 1.1-0.8 2.2-1.7 3.5-2.3-0.1-0.5-0.1-1-0.1-1.5 0.9-1 2.9-1.7 2.7-2.7-0.1-1.1-1.4-0.3-2.2 0.5-1 1.2-1.5 0.4-2.2 0.5 0.2-0.6 0.4-1.2 0.7-1.9 1.8-0.8 4.8-5.1 5.3-2.5 1.2-1.1 2.5-2.1 4.3-3.1-0.3-0.3-0.7-0.5-1-0.8-0.9 0.1-2.6 2.1-2.7 0.5l3.8-3c0.8-0.3 1.6-0.7 2.4-0.9 0.1 0.7 0.9 0.3 1.5 0.6 0.8-1.1 1.7-2.3 2.5-3.4 0.4-1.4-0.1-1.5 0.2-2.9 0.7-0.6 1.3-1.2 2-1.9 2.3-0.9 1.4 1.4 2.4 2.1 0.3-0.1 0.6-0.1 1-0.2 1.3-1.8 2.6-3.6 3.9-5.4 0.1-2 4-4 2.8-5.6 0.8-1.1 2-2.5 2.1-3.8-1-2.7-2.2 0.4-3.1 0-0.4-1.1 0.7-1.8 0.3-2.6 0.8-1.4 1.6-3.3 2.2-4.9 0.1-0.1 0.1-0.2 0.2-0.3l0.3-0.6c0-0.9 0.1-1.8 0.1-2.6v-0.9c0.4-0.3 0.7-0.7 1.1-1.1-0.3-1.2 0.4-2 0.7-3 0-0.1 0.1-0.3 0.1-0.4 0.4 0.1 0.7 0.2 1 0.5 0.8 0.6 1.1 1.9 0.5 3 0.7 0.1 0.7 0.7 0.4 1.4-0.2 0.7-0.6 1.4-0.4 2 1 0.6 1.8-0.2 2.6-1s1.5-1.7 2.7-1c0.6 1 0.5 2.2 0.4 3.2-0.1 0.9 0 1.6 0.9 1.7-0.5 2.1-2.1 2.1-2.7 4.4l1.1 0.7c1.2-2.3 2.4-4.5 3.3-6.8s1.4-4.6 1.1-6.6c-1 1-1.2 0.1-1.3-0.9-0.2-1.2-0.3-2.4-1.4-1 0 0.3 0 0.7-0.1 1l-0.3 1.8c-0.5-0.7-0.8-1.3-0.8-1.8 0-0.4 0.1-0.7 0.1-1-0.4-0.5-0.9-1-1.3-1.4-0.8-1.5-1-2.4-1.8-4.1-1 0.4-1.3-0.8-1.8-1.8s-1-1.6-1.9-0.2c-1.2 1.1-0.8-1.2-1.5-1.9 0.3-0.3 0.1-0.8-0.2-1.3s-0.8-1-1-1.5c-0.7 0-1.5-0.7-2 0.2 1 1.1-0.8 1 0.3 2.2-0.7 0-1.5 1.8-2 0.2-0.9 1.1-1.7 0.8-2.4 0.4-0.8-0.4-1.6-1.1-2.4-0.8-1.3 0.2-2.4-0.8-3.4-1.7-2.2 1-4.4-0.3-6.8-0.3l-0.5 1.2s-0.1 0-0.2-0.1c-0.2-0.3-0.4-0.5-0.5-0.7l-0.4-0.4c-0.4 0.6-0.7 1.1-1 1.7-0.3 0.5-0.6 1-1 1.6-0.4-0.1-0.8-0.2-1.1-0.3-0.5-2 1.1-2.2 1.8-3.2 0.4-0.1 0.8-0.3 1.2-0.4 0.3-0.3 0.7-0.6 1-1 0.3-0.3 0.8-0.1 1.2 0s0.8 0.1 0.9-0.7c1.1 0.7 1.7-0.2 2.5-0.4 0.8-0.6 0-1.5-0.5-1.9-0.7 0.1-1.2-0.1-1.5-0.3-0.4-0.2-0.6-0.6-0.8-0.9s-0.5-0.6-0.8-0.7-0.8-0.1-1.4 0.4c-1.3-1.3-4-1-4.9-2.3-0.7-0.8-1.3-0.9-1.4-1.8-0.7 0.1-1.4 0.7-2.1 1-0.8 0.4-1.6 0.6-2.6 0.3-0.9-0.3-1-2.2-3.2-1.4-0.1 0.5-0.2 1.1-0.3 1.6-1.3 0.8-2.7 0.2-2-1 0.4-0.2 1.1-0.1 1.6-0.7-0.4-0.2-0.9-0.5-1.3-0.7-0.5 0.1-1 0.2-1.5 0.5s-0.9 0.7-1.3 1.1c-0.8 0.8-1.5 1.6-2.4 2.1-0.2-0.4-0.6-0.6-1.1-0.7-0.5 0-1.1 0.2-1.7 0.5-0.2 0.6-0.6 1.2-1.2 1.6-0.5 0.4-1.1 0.7-1.7 0.4-0.7 1-1.4 2-2 3 0 0.6 0.5 0.9 0.8 1.4-1.5 1.3-2.6 3.3-3.8 5.1s-2.4 3.4-4.4 4c-0.8 1.5 2 0.7 0.5 2.6-1.5 2-2.7-2.2-4.2 2 0.9 0.5 1.1 0.6 1.3 0.7-0.4 0.6-0.8 1.9-1.5 1.8-0.9 2.5 2 1.6 0.1 3.8 0.3 0.6 0.6 1 0.8 1.9-0.2 0.9-0.5 1.8-0.7 2.6-0.5-0.2-0.9-0.5-1.3-0.8-0.5 0.3-1.1 0.6-1.6 0.9-0.5 0.9-0.3 2.8-1.2 2.8-0.9 0.2-1.9 0.3-2.8 0.5-0.5 0.6-1 1.1-1.5 1.7-0.5 0.3-0.9 0.7-1.3 1.1 0 0.5 0 1.1-0.1 1.6h-0.3c-0.4-0.1-0.8-0.3-1.2-0.5-0.6-0.6-0.7 0.9-1.3 0.8-0.8-0.5-1.5-1-2.2-1.6 1.4-1.5 1.9-1.8 2.9-2.7 0.2 0 0.4 0.1 0.5 0.1 0.3-0.4 0.6-0.8 0.9-1.1 0.5 0 0.9-0.1 1.3-0.1 1-1.6 1.4-3.1 2.7-3.7 1.1-1.8 1.2-2.1 0.6-3.9 1.1-1.2 1-1.8 0.6-2.4s-1-1.1-0.8-2.2c1-2.6 4.7-3.2 4.1-5.7 0.7-0.2 1.5-1.7 2.1-0.6 0.5-0.7 1-1.2 1.5-1.9-0.4-0.4-1.1-0.4-1-1.2 0.1-0.3 0.4-0.4 1.9-0.6 0.1-1.8 2-3.4 3.1-5-1.1-1.2 0.1-2.7 1.6-4 1.4-1.4 3-2.5 2.3-4.1 0.9-0.2 1.5-0.8 2.2-1.4s1.3-1.2 2.3-1.3c2.5-1.1 3.8-2.5 5.3-3.9 1.4-1.3 3.1-2.5 5.6-2.3 0.4-0.6 1-1.2 1.4-1.8 0.6 0 1.3 0 2.1-0.1 0.8 0 1.5 0.1 2.3 0 1.5 0 2.7-0.2 3-1.1 2.3-0.6 1.6 1.1 2.9 1.1 0.7-0.8 1.8-0.3 2.6 0 0.9 0.4 1.5 0.8 1.8-0.2 0.3-0.1 0.5-0.3 1-0.1 1.1 0.5 1.6 2.2 3.2 1.3l0.6-1.6c0.2 0.1 0.4 0.1 0.4 0.1 1 0.3 0.8 1.1 2.6 0.9 0.5 0.2 1.1 0.5 1.6 0.7 0.1 0.4 0.7 0.8 1.4 1.2s1.4 0.7 2 1.1c0.6 0 1.1-0.1 1.8-0.1 0.5 0.3 1 0.7 1.5 1 0.4 1 1 2.1 1.7 2.7 0.7 0.7 1.4 1.1 1.9 0.7 1 0.8 2.1 1.7 3.1 2.6l1.6 1.6c0.5 0.5 1 1.1 1.5 1.7 0.3 0.7 0.8 2 2 2 0.7 0.8 1.3 1.7 1.8 2.6 0.2 0.3 0.3 0.6 0.4 0.8-0.2 0.8 0.5 2.5 0.9 2.6 0.7 0.1 0.7 1.8 1.8 1.9 0.1 0.3 0.2 0.6 0.3 0.8-1.1 0.4 0 2.3 0.9 3.8 0.2 0.9 0.4 1.9 0.6 2.9 0 0.8 0.1 1.5 0 2.3v0.6c0.2 1.1 0.3 2.1 0.4 3.1-0.5 1.9-1.2 3.8-2 5.5-1.3 2-1.4 4.1-2.5 5.4-1.7-0.8-0.7 2.1-1.5 4.4-1.2 1.3-2.4 2.6-3.7 3.9-0.6 0.1-1.1 0.7-1.5 1.3-0.5 0.5-0.9 1-1.3 0.8-0.6 0.8-1.2 1.7-1.8 2.5-0.6 0.4-1.7 1.3-1.3 2.2-0.2 0.3-0.4 0.5-0.6 0.6-0.6 0.6-1.2 1.2-1.8 1.9-1.3 0.9-1.1 1.9-2.2 3.3l-3 2.4c-1.1-0.5-2.5 1.4-3.7 2.2-1.1 0.4-0.6-1.4-2.3-0.3-0.3 0.2-0.5 0.4-0.7 0.6-1.2 1-2.4 1.9-3.6 2.9-1.1 0.9-2.1 1.9-3.1 2.8-0.6 0.3-1.2 0.7-1.8 1.1-2.9 1.6-1.9 3-3.2 4.1-0.3 0-0.6 0.2-0.6-0.2l-2.7 2.1c-1.1 1.3-2.2 2.5-3.4 3.8-1.2 0.6-2.3 1.2-3.4 1.7-2.4 3.3-4.9 1.3-7.7 4.3-1.3 0.6-2.6 1.2-3.8 1.9l-0.2-0.2c0.2-0.8 0.3-1.6 0.4-2.4z"/>
					
					
						<path class="st5" d="m508.8 115.6c0.1-0.2 0.1-0.4 0.2-0.5v-1.4c-0.4-0.5-0.8-0.9-1.2-1.3-0.2 0.1-0.4 0.1-0.5 0.1-0.7 0.6-0.3 1.4-1.3 1.9-0.3 0.1-0.6 0.2-0.1-1.6-0.4-0.9-2.4 1.1-1.8-0.7 0.7-0.5 1.4-1.1 2.1-1.6s1.4-1.1 2.1-1.7c0.9-0.6 1.9-1.3 3-2 0.5-0.5 1-1.1 1.5-1.6l-0.6-1.2c1.3-2.6 1.9-0.3 3.8-2.6l0.2-1c-0.3-0.3-0.9 0.2-1.1-1 0.2-0.3 0.4-0.5 0.6-0.7 0.7-0.2 1.5-0.4 2.2-0.5 0.4-1 0.9-2.1 1.3-3.1l0.3-2.1c0.3-0.2 0.6-0.3 0.9-0.5 0.7-0.9 1.5-1.9 2.3-3l1.8-1.8c0.3-1 0.5-2 0.8-3.1-0.1-1-0.1-2-0.3-2.9-0.2-0.6-0.5-1.2-0.7-1.9 0.3-1 0.5-2 0.7-3 0.4-1.4 0.3-2.6 0.4-4 0.1-0.9 0.2-2 0.6-3.4-0.1-0.7-0.2-1.5-0.3-2.1-0.5-0.8-1-0.2-1.5-1.4 0-0.9-0.5-1.1-0.4-3.5-0.2-0.7-0.5-1.3-0.7-1.9-0.4-1-0.8-1.9-1.2-2.7-0.5-0.7-1-1.3-1.6-1.9-0.5-0.5-1.1-0.9-1.6-1.3-0.2 0.1-0.5 0.3-0.6 0.4-0.2-0.3-0.4-0.6-0.5-0.8-1-2-2.2-3.8-3.5-5.6-1-0.8-2-1.6-3.1-2.3-0.6-0.3-1.2-0.6-1.7-0.9-0.6-0.3-1.1-0.5-1.8-0.8-0.5-0.5-1-0.9-1.5-1.4s-1.1-0.9-1.6-1.4c-1.1-0.6-2.3-1.1-3.4-1.6-0.6-0.6-1.3-0.9-2-1.2-0.5 0.2-1.2 0.4-1.8 0.6-0.4-0.2-0.8-0.5-1.1-0.7 0.6-0.8 0.1-1.5-0.2-2.2-1-0.2-2-0.9-2.9-0.6-0.8 0.4-1.6 0.8-2.3 1.2-0.2 0-0.3-0.1-0.5-0.1-0.1-0.7-0.2-1.4-0.4-2.1-0.4-0.2-1.1-0.9-1.7-1.6-1.4-0.1-0.4 1.1-2.2 1.2l-2.4-0.2c-0.1 0.4 0.3 1-0.6 1.2-0.5 0-1.1 0-1.3-0.3-1-0.3-1.8-0.5-2.8-0.6-1.8 0.2 0 2.4-2.8 1.5 0-0.5-0.1-1-0.1-1.5-0.9 0-1.9 0.1-2.8 0.2-0.2 1.2 0.7 1.2 0.8 2.7-0.3 0.1-0.6 0.1-0.8 0.2 0-1.1-0.9-0.8-1.7-0.5-0.8 0.4-1.7 0.8-1.7-0.2-0.9 0.3-1.7 0.6-2.6 1s-1.7 0.7-2.6 1.1c-0.3 0.3-0.5 0.6-0.7 0.8-0.9 0.3-1.7 0.6-2.6 1-1.8 0.3-2.1 0.5-2.4 0.4-1.5 1.4-1.1-0.1-2.2-0.1-0.3 0.2-0.5 0.3-0.9 0.6-0.8 0.6 0.6 0.8-0.1 1.6-2.3 1-1.7 2.6-3.8 3.7-0.4 0.8-1.6 2-0.5 2.2-0.4 0.7-0.9 1.3-1.3 2-0.1 0.7 0.5 0.8-0.1 2.4-0.5 0.4-1 0.7-1.5 1.1-1.4 2.3-2.9 3.7-1.6 3.7 0.1 1.1-1.1 1.1-1.4 2.1 0.1 0.5 0.1 1.1 0.1 1.6-0.5 0.2-1 0.4-1.5 0.5-0.8 1.1-1.4 2.1-2.2 3.3-0.8 1.3-1.6 2.7-2.4 4-0.5-0.3-0.8-0.4-1.1-0.6-0.7 0.5-1.4 0.9-2 1.4-0.4-0.3-0.8-0.7-1.2-1l0.6-1.8c0.5-1.6 1-3.2 1.6-4.7l-0.4-0.2c0.7-1.2 1.5-2.3 2.2-3.5-0.3-0.3-0.7-0.8-1-1.1 0.6-0.7 1.3-1.5 1.9-2.1 0.3-0.9-0.5-0.7-0.7-1.2 0.2-0.2 0.3-0.5 0.6-0.8 0.2-0.3 0.5-0.7 0.8-1.1 0.2 0.1 0.3 0.2 0.4 0.3l1.2 0.9c-0.2 0.6-0.5 1.2-0.7 1.8l2.1 0.5c1.3-3.3 2.8-5.5 2.5-7 0.8-1.5 2.2-2.9 3.5-4.2 0.6-0.6 1.3-1.2 1.7-1.8 0.5-0.6 0.8-1.1 0.9-1.6-1.4 0.8-1.8 1.2-2.1 1.5-0.6-0.2-0.8-0.7-0.4-1.3 0.3-0.6 1.1-1.4 2.4-2.1-1.1-0.5-0.4-1.8-0.7-2.2 2.6-0.7 2-2.3 4.4-3.4l-0.5-1.1c0.2-0.3 0.5-0.6 0.8-1 1.8-0.9 3.8-1.7 5.6-2.3 2.5-1 5-1.8 7.6-2.4 2-0.2 4-0.5 6-0.6 0.9 0.1 1.9 0.1 2.8 0.2 2.4 0.3 3.1 0.1 3.6-0.3s0.7-0.8 2.1-0.8c2.1 0.4 4.1 0.8 6.1 1.4 3.8 1.3 6.1 1.5 6.1 2.7 1.7-0.6 3.6 0.8 4.5 0.5 4.1 1.1 7.3 3.5 11.3 5.8 0.8 0.4 1.5 0.9 2.3 1.5 0.8 0.5 1.6 1.1 2.3 1.6 0.3 0.3 0.8 0.7 1.2 1.1 0 0.5 0 0.9 0.1 1.5 1.3 1.6 2 1.8 2.5 2.1 0.6 0.5 1.3 1.2 2 2.1 0.7 0.8 1.4 1.7 2 2.7 1.3 2 2.5 4.1 3.4 5.9 0.3 0 0.6 0.1 0.9 0.3 0.3 0.9 0.5 1.8 0.7 2.9 0.4 1 0.8 2.2 1.1 3.3 0.8 1.1 1.6 2.3 2.4 3.5 0.3 1.1 0.5 2.1 0.7 3.3-0.3 0.3-0.6 0.4-0.9 0.7 0.5 1.2 0.6 2.4 0.6 3.5 0 1.9-0.5 3.5-0.9 5-0.5 1.6-0.9 3.1-1 5.1-0.6-1-1.5 1.7-1.4 2.6-0.3 0.6-0.5 0.9-0.8 1.5-0.7 0-1.5 0-2.3 0.1-0.9 1.6-1.9 3.3-3 4.7-0.6 1.1-1.1 2.1-1.6 3.1v4.3c0.6-0.2 1.1-0.4 1.7-0.6-0.4 1.8-1.1 2.8-1.8 3.7-0.3 0.3-0.6 0.7-1 1-0.3 0.8-0.6 1.6-1 2.4-0.5 0.2-0.9 0.5-1.3 0.7l-1.8 2.7c-0.6 0.8-1.3 1.7-1.9 2.5-1.1 0.4-2.2 0.8-3.2 1.3-1 0.7-2 1.5-3.1 2.5z"/>
					
					
						<path class="st3" d="m511.2 96.3c-3.3 1.1-1.2-1.8-0.4-1.4 0.1 0.5 0.3 0.9 0.4 1.4z"/>
					
					
						<path class="st4" d="m443.2 178.1c0.4-0.8 0.9-1.7 1.3-2.5l1.4 2-0.7 1.8c-0.5 0.1-1 0.4-1.5 0.6-0.3-0.7-0.3-1.3-0.5-1.9z"/>
					
					
						<path class="st4" d="m449.2 149.9c-0.3-0.4 0.2-1.4 0.5-2.4 0.1-0.7 0.3-1.3 0.4-2l1.5-0.9c0.2-0.5 0.6-1.1 0.9-1.5 0.5 0 0.9 0 1.3 0.1-0.1 0.5-0.3 1-0.4 1.4v0.7c-1.1 0.8-2.1 1.5-3.1 2.2 0.4 0.8 1.9 0.9 1.2 2.4-0.6 0.4-1.2 0.8-1.7 1.2l-0.6-1.2z"/>
					
					
						<path class="st4" d="m454.9 135.9c1.8-0.4 2.4-3.2 3.9-2.8 0.2 0.2 0.3 0.4 0.4 0.6-0.3 0.9-0.8 1.8-1.2 2.7-0.5 0.6-0.9 1.1-1.4 1.6-0.1 0.1-0.2 0.2-0.3 0.2-0.6-0.1-0.8-0.3-1-0.5 0-0.5-0.2-1.2-0.4-1.8z"/>
					
					
						<path class="st4" d="m459.5 127.6c0.5 0 0.9 0.1 1.3 0.2 0.1 0.5 0.3 0.8 0.4 1.3-0.3 0.5-0.7 1-1 1.5-0.6 0-1.2-0.1-1.7-0.2-0.8-0.5 0.7-1.8 1-2.8z"/>
					
					
						<path class="st4" d="m463.2 131.1c0.6-0.3 1.3-0.7 1.9-0.9 0.6-1.4 1.5-1.7 2-2.3 0.8-0.7 1.6-1.5 2.5-2.3 0.7-0.5 1.3-1 2-1.5l1.8-1.1c0.9-0.5 2.6-2.5 4-2.4 0.7 0 1.2 0.8 2.2-0.5 0.8-0.7 2.2-1.6 2.2-0.5 0.2 1-1.8 1.8-2.7 2.7 0 0.5 0 1 0.1 1.5-1.3 0.6-2.4 1.5-3.5 2.3-0.6-0.3-1.2-0.6-1.7-0.9-0.4 0.3-0.9 0.7-1.3 1l-2.8 3.2-0.3 0.3c-1.5 0.6-2.9 1.2-4.4 1.9-0.3 0.2-0.6 0.5-0.9 0.8-0.5-0.5-0.8-0.9-1.1-1.3z"/>
					
					
						<path class="st4" d="m462.5 115.4c0.1 0 0.3 0 0.5-0.1 0.4 0.6 0.9 1.2 1.3 1.8-0.5 0.6-0.5 1.3-1.4 1.7-0.8-0.4-1.6-0.7-2.4-1 1.3-0.6 0.8-1.8 2-2.4z"/>
					
					
						<path class="st4" d="m521.4 110.9c0.5-1.1 1.1-2.3 1.6-3.4 0.1-0.1 0.2-0.2 0.3-0.4l0.2 0.2c0.2 0.4 0.3 0.9 0.6 1.3 0.2 0.9-1.4 2.9-2.3 2.8-0.3-0.4-0.4-0.5-0.4-0.5z"/>
					
					
						<path class="st4" d="m521.7 97.5c0.7-1.1 0.1-1.6-0.1-2.4 0.2-0.1 0.3-0.1 0.4-0.3 0.6-1 1.1-2 1.6-3.1 1-1.4 2-3 3-4.7 0.8-0.1 1.5-0.1 2.3-0.1-0.1 0.7-0.2 1.6-0.3 2.4l-1.2 2.4c-1.4 0.8-1.1 1.8-1.6 2.7-1.8 2.2-0.7 2.1-1.2 2.8-0.3 0.4-0.5 0.8-0.8 1.2-0.6 0.2-1.1 0.4-1.7 0.6-0.1-0.5-0.2-1-0.4-1.5z"/>
					
					
						<path class="st4" d="m537.5 61.3c0.5 0.4 1 0.8 1.6 1.3 0.7 1.4 0.7 2 0.5 2.5s-0.7 0.9-1 2.1c-0.2-2.1-0.6-4-1.1-5.9z"/>
					
					
						<path class="st4" d="m529.1 45.4c-0.9-1.5-1.9-2.8-2.9-4.2-0.1-0.1-0.3-0.3-0.4-0.5-0.6-0.7-1.2-1.4-1.8-2.1l-4.2-4.2-2.3-2.1c-0.4-0.9-2.4-1.7-2.6-2.8 1.1 0.3 2.1 0.7 3 1.2s1.7 1.2 2.5 1.8c1.6 1.3 3.1 2.7 5 3.9 1.2 1.3 0.7 2.5 2 4.1 0.8 0.8 1.6 1.5 2.4 2.3 2.2 2.2 0.6 2.3 0.3 3.5-0.4-0.3-0.8-0.6-1-0.9z"/>
					
					
						<path class="st6" d="m527 45.1c-0.8-1-1.5-1.9-2.3-2.9-0.6-0.3-1.1-0.6-1.7-0.9-2-2.9-2.7-3.5-3.2-4.3-0.7-0.6-1.3-1-2.1-1.5-1.7-1.3-3.6-2.5-5.5-3.5-2.1-2-3.4-2.7-3.6-2.2-0.9-0.5-1.8-0.9-2.6-1.4-0.2 0.4-0.8 0.2-1.4-0.1-0.7-0.3-1.4-0.9-2-1.2-1.2-0.5-2.5-0.9-3.7-1.3-1.3-0.3-2.5-0.7-3.7-0.9-0.6-0.1-1.2-0.3-1.8-0.4-0.1 0-0.4-0.1-0.5-0.1l-1.6-1.6c-0.8 0.1-1.7 0-2.5-0.1-0.9 0-1.8-0.1-2.5 0.2h-0.6c-1.8-0.1-3.7-0.1-5.4-0.1-0.5 0-0.9 0-1.3 0.1-1.6 0-3.1 0.1-4.8 0.2-0.6-0.2-1.3-0.4-1.9-0.7 0.2-0.5 0.4-0.9 0.5-1.4 4.4-0.7 8.8-1 13.3-0.8 1.3 0.1 2.5 0.3 3.9 0.4 1.1 0.1 2.3 0.3 3.5 0.5s2.4 0.5 3.5 0.7c1.9 0.3 3.7 0.7 5.7 1.3 2.1 0.8 4.3 1.8 6.4 2.9 1.4-0.1 2.2 0.5 2.9 1.3 0.8 0.8 1.5 1.7 3 2.2 0.2 1 2.2 1.9 2.6 2.8l2.3 2.1 2.2 2.2c0.7 0.7 1.3 1.4 2 2 0.6 0.7 1.2 1.4 1.8 2.1 0.2 0.2 0.3 0.4 0.4 0.5 1 1.4 2 2.8 2.9 4.2-0.9-0.2-1.5-0.2-2.2-0.3z"/>
					
					
						<path class="st4" d="m502.5 23.1c-1.9-0.6-3.8-1-5.7-1.3l0.3-0.7c1.8 0.6 3.6 1.2 5.4 2z"/>
					
					
						<path class="st4" d="m489.8 20.5c-1.3-0.2-2.5-0.3-3.9-0.4 1.4-1.3 2.4-0.2 4 0l-0.1 0.4z"/>
					
					
						<path class="st4" d="m454.5 27.4c-0.1 0.2-0.2 0.5-0.3 0.7l-3 1.8c-1 0.6-1.9 1.3-2.8 1.9-0.5 0.2-0.9 0.2-1.3 0.3 1.9-3 3-4.5 6.9-5.9l0.5 1.2z"/>
					
					
						<path class="st2" d="m441.8 179.6c0.3-1.2 0.6-1.5 1.4-1.6 0.2 0.6 0.2 1.3 0.4 1.9-0.2 0.2-0.4 0.4-0.5 0.7-0.4-0.4-0.8-0.7-1.3-1z"/>
					
					
						<path class="st2" d="m450.2 145.5c-0.1-0.8 0.2-1.5 0.6-2.1s1-1 1.5-1.2c0.1 0.3 0.2 0.6 0.2 0.9-0.3 0.5-0.6 1-0.9 1.5-0.4 0.3-1 0.6-1.4 0.9z"/>
					
					
						<path class="st2" d="m462.5 115.4c-0.1-1.9 1.6-2.8 2.5-3.1 0.4 0.2 0.9 0.4 1.4 0.5-0.6 1.1-2.2 2.7-3.4 2.6-0.2-0.1-0.4 0-0.5 0z"/>
					
					
						<path class="st2" d="m496.9 21.8c-1.2-0.3-2.4-0.5-3.5-0.7-1.2-0.2-2.4-0.4-3.5-0.5l0.1-0.5c0.5-1.3 1.6-0.8 2.3-1.1 1.4 0.2 1.9 0.6 2.5 1 0.5 0.4 1.1 0.8 2.5 1.1l-0.4 0.7z"/>
					
					
						<path class="st2" d="m472.1 22.3c-0.8 0.1-1.6 0.3-2.4 0.5-1.7 0.1-3.2 0.3-4.8 0.5l-0.2-0.8c1.5-0.5 2.8-1.3 4.1-1.7s2.6-0.6 3.8 0.2c0 0.4-0.3 0.8-0.5 1.3z"/>
					
					
						<path class="st2" d="m457.9 25.8c-1.1 0.5-2.3 1-3.4 1.6l-0.5-1.2c1.2-0.5 2.5-0.8 3.6-1.2l0.3 0.8z"/>
					
					
						<path class="st5" d="m443.1 180.6c0.2-0.3 0.3-0.5 0.5-0.7 0.5-0.2 1-0.5 1.5-0.6 0.1 0.1 0.2 0.3 0.3 0.5-0.3 0.8-0.6 1.5-0.8 2.2-1.7 0.8-1.9-0.1-1.5-1.4z"/>
					
					
						<path class="st5" d="m455.5 161.2c0.2-0.3 0.5-0.6 0.7-0.8 0.2-0.6 0.4-1.3 0.6-1.9 0.1-0.1 0.2-0.2 0.2-0.3 0.3-0.4 0.6-0.8 0.9-1.1 0.1-0.3 0.2-0.5 0.3-0.7 1.5 0.9 2.5-0.6 4.3-2.1 0.2-0.6 0.8-1.2 1.4-1.7 0.8-0.4 1.6-0.9 2.4-1.3 0.2 0.1 0.4 0.1 0.6 0.1l-2.4 2.9c0.2 0.3 0.5 0.5 0.7 0.8-0.9 0.9-1.6 1.8-2.3 2.8-1 0.2-1.9 0.8-2.9 1.7-0.7 0.9-1.5 1.9-2.2 2.8-0.8 0.9-1.2 0-2.9 0 0.2-0.6 0.4-0.9 0.6-1.2z"/>
					
					
						<path class="st5" d="m452.3 142.2 0.6-0.6c-0.3-1.7 1.5-2.7 2.5-3.7 0.2 0.2 0.3 0.4 1 0.5-0.5 0.8-1 1.6-1.4 2.4-0.1 0.5 0 0.9 0 1.4l-1.2 1.2c-0.4-0.1-0.8-0.1-1.3-0.1 0-0.6-0.1-0.9-0.2-1.1z"/>
					
					
						<path class="st5" d="m458.3 139.3c0.8-0.5 1.7-1.1 2.5-1.6l0.2 0.2c-0.9 1.1 0.7 1.8-0.8 2.4-0.7-0.1-1.3-0.2-1.9-0.3v-0.7z"/>
					
					
						<path class="st5" d="m461.2 132.7c0.3-0.4 0.6-0.7 0.9-1.1 0.3-0.1 0.7-0.4 1.1-0.6 0.3 0.4 0.6 0.8 1.1 1.4-0.7 0.5-1.4 0.9-2.1 1.4-0.5-0.4-0.7-0.8-1-1.1z"/>
					
					
						<path class="st5" d="m483.2 129.6c-0.1-1.1-0.8-1.2-0.1-1.5 1.4-1.8 1.9 0.5 1.7 0.9-0.5 0.2-1.1 0.4-1.6 0.6z"/>
					
					
						<path class="st5" d="m487.4 128.3c0.3 1 0.1 1.3 0 1.6-0.9 1.1-1.2 0-2-0.7 0.7-0.3 1.3-0.6 2-0.9z"/>
					
					
						<path class="st5" d="m488.9 126.1c-0.9-0.7-0.6-1.8 0.8-2.5 0 0.3 0.6 0.2 0.9-0.1 1.7-0.9 0.9-1.7 2.6-3-1-0.7 0-1.2 0.8-1.9 0.6-0.5 1.3-1.1 1.9-1.6 0.5-0.5 1-1.1 1.5-1.6 0.4 0.3 0.9 0.5 1.3 0.9 0.2-0.1 0.5-0.2 0.8-0.4l2.1-2.1c2.8-0.5-1.7 2.5 1.1 2-0.5 0.4-1.5 3.5-2.5 1.8-0.4 0.2-0.8 0.5-1.1 0.6-1.1 1.5-0.3 1.5-0.3 1.9-1.7 1.6-2.6 1.7-4.3 2.9-1.3-1.3-3.7 2.1-5.6 3.1z"/>
					
					
						<path class="st5" d="m504 119.7c0.7-0.6 0.3-1.4 1.4-1.9 0.3-0.1 0.6-0.2 0.7 0.1 0.9-0.8 1.8-1.5 2.8-2.3 0.2 2-2.2 3.8-3.4 4.4-0.1 0.1-0.3 0.2-0.4 0.3-0.3 0.5-0.7 1-1.1 1.5-0.3 0.2-0.5 0.4-0.7 0.6-0.8 0.3-1.7 0.6-2.7 1-0.7 1-1.2 0.4-1.9 0.3 1.3-1 0.9-2.3 2.6-3.1 1-0.3 1.8-0.7 2.7-0.9z"/>
					
					
						<path class="st5" d="m524.6 97.3c-0.7-1.6 0.7-1.8 1.2-2.8 0.5-0.9 0.1-2 1.6-2.7l0.2 2.1-0.5 0.9-0.6 1.5c-0.6 0.3-1.3 0.7-1.9 1z"/>
					
					
						<path class="st5" d="m464.9 23.2c-0.9 0.6-1.8 1.3-2.7 1.9-0.8 0.3-1.5 0.6-2.3 0.9-0.7-0.1-1.4-0.2-2.1-0.2l-0.2-0.7c1.1-0.5 2.3-1 3.5-1.4s2.4-0.8 3.6-1.2l0.2 0.7z"/>
					
					
						<path class="st7" d="m455.3 33.7 0.5 1.1c-2.4 1.2-1.8 2.7-4.4 3.4 0.4 0.4-0.4 1.8 0.7 2.2-1.2 0.7-2 1.5-2.4 2.1-0.3 0.6-0.2 1.1 0.4 1.3 0.3-0.3 0.7-0.7 2.1-1.5-0.1 0.5-0.4 1-0.9 1.6s-1.1 1.1-1.7 1.8c-1.3 1.2-2.7 2.7-3.5 4.2 0.3 1.5-1.3 3.7-2.5 7l-2.1-0.5c0.2-0.6 0.5-1.2 0.7-1.8l-1.2-0.9c-0.1-0.1-0.2-0.2-0.4-0.3-0.3 0.4-0.6 0.8-0.8 1.1s-0.4 0.6-0.6 0.8c0.2 0.4 1 0.3 0.7 1.2-0.6 0.6-1.3 1.4-1.9 2.1 0.3 0.4 0.7 0.8 1 1.1-0.8 1.2-1.5 2.3-2.2 3.5l0.4 0.2c-0.5 1.5-1.1 3.1-1.6 4.7l-0.6 1.8c0.4 0.3 0.8 0.7 1.2 1-0.9 1.1-1.7 2.2-2.5 3.4 0 0.3-0.1 0.6-0.1 0.9 0.3 0.6 0.6 1.3 0.9 1.9-0.3 1-0.7 2-0.9 3 0 1.1 0.1 2.3 0.2 3.5-0.7 0.4-1.4 1-2 1.4-0.5-0.2-1.1-0.5-1.6-0.9-0.2 0.8-0.5 1.6-0.6 2.5-0.3 0.2-0.7 0.3-1 0.4-0.4 0.6-0.8 1.3-1.2 2-0.4-0.6-0.9-1.1-1.3-1.8-0.9 0.2-1.8 0.4-2.8 0.7 0-0.5 0.1-1.1 0.1-1.7 0.7-0.6 1.4-1.3 2.2-1.9l0.6 1.2 0.6-0.9c0.3-1.1 0.6-2.1 0.8-3.1 0.4 0.1 0.9-0.9 1.5-1.1l-0.3-1.8c0.2-0.6 0.4-1.3 0.6-1.9l-1.2-2.1c0.1-0.2 0.1-0.4 0.2-0.5l-1.1-0.5c0.2-0.6 0.5-1.3 0.7-1.9 0.9-0.2 1-1.4 0.9-3.5 0.5-1.2 1.1-2.3 1.6-3.4 0.4-0.9 0.9-1.7 1.3-2.5 0.1-0.9-0.7-0.8-1-1.2v-0.6c0.4-1 0.8-2.1 1.2-3.2 0.9-1.6 1.7-3.2 2.7-4.8 1.1-1.5 2.3-3 3.5-4.5 0.8-0.8 1.5-1.5 2.2-2.3 0.4-0.1 0.8-0.1 1.2-0.2 0.7-0.6 1.4-1.2 2-1.8 0.4 0.1 0.8 0.2 1.6 0.1 0.4-0.9 0.8-1.9 1.2-2.8-1.4-0.2 0.5-2.3-0.6-2.8 0.1-0.1 0.2-0.4 0.2-0.5 0.7-0.5 1.4-0.8 2.1-1.3 1-0.3 1.8-0.5 2.9-0.8 1.6-0.6 2.9-1.3 4.3-1.9z"/>
					
					
						<path class="st5" d="m431.9 85.2c-0.1 0.4 0 0.7 0.1 1.3 0.1 0.5 0.2 1.2 0.3 2.3-0.5 2.3-1.2 0.7-1.8 0.7-0.3-0.9-0.9-1.6-0.8-2.7 0.1-0.8 0.3-1.7 0.6-2.5 0.5 0.3 1.1 0.6 1.6 0.9z"/>
					
					
						<path class="st8" d="m455 140.6c0.4-0.8 0.9-1.6 1.4-2.4 0.1-0.1 0.2-0.2 0.3-0.2 0.6 0.4 1.1 0.8 1.6 1.3v0.7c-0.3 0.5-0.7 1-0.9 1.5l-0.6 0.6h-1.8v-1.5z"/>
					
					
						<path class="st7" d="m464.6 154.2c0.6-1 1.2-2.1 1.7-3.1 0.2 0.1 0.4 0.1 0.6 0.1 0.7-0.5 1.5-0.9 2.2-1.4-0.1-1.1 1-1.8 1.6-2.4 0.7-0.5 1.4-1 2.3-1.6 0.3-0.5 0.5-0.9 0.9-1.4 0.5 0 0.9-0.1 1.4-0.1 0.5-0.4 1.1-0.7 1.6-1.1l2.4-1.5c0.1 0.4 0.1 0.8 0.3 1.1-0.8 0.3-1.5 0.6-2.3 0.9 1.1 1 1.9 0 2.6-0.5 0.2 0.2 0.3 0.4 0.4 0.6-0.6 1-1.3 1.9-1.8 2.8-0.9 0.4-1.7 0.8-2.6 1.1-1.1 0.7-2.2 1.4-3.2 2.1 0-0.7-0.1-1.3-0.1-1.9-0.4 0-0.8 0.2-1.2 0.3-0.5 0.6-0.9 1.2-1.4 1.9 0.1 0.3 0.3 0.7 0.3 1l-2.1 1.5-2.9 2.2c-0.3-0.1-0.5-0.4-0.7-0.6z"/>
					
					
						<path class="st8" d="m470 150.2c0.5-0.7 0.9-1.3 1.4-1.9 0.4-0.1 0.8-0.3 1.2-0.3 0.1 0.6 0.1 1.2 0.1 1.9-0.8 0.4-1.6 0.9-2.3 1.4-0.2-0.5-0.3-0.8-0.4-1.1z"/>
					
					
						<path class="st8" d="m477.2 143.7c0.8-0.3 1.5-0.6 2.3-0.9-0.1-0.3-0.2-0.7-0.3-1.1 0.7-0.6 1.4-1.1 2.2-1.7 1-0.8 2-1.5 3-2.3 0.8-0.2 1.6-0.2 2.1-0.6 0.5-0.5 0.9-1 1.5-1.5 2.2-1.9 4.5-3.9 6.7-5.8 0.1-0.1 0.3-0.2 0.4-0.3 1.9-0.5 2.4-0.8 3.2-1.5l-0.5-0.6 0.6-0.5c1.5-0.7 2.2-1.1 2.6-0.9 0-1.5 1.3-2.1 2-2.6 0.1-0.3 0.2-0.6 0.3-1 0.2-0.2 0.4-0.4 0.7-0.6 0.3-0.5 0.7-1 1.1-1.5 0.1-0.1 0.2-0.2 0.4-0.3 0.6 0.1 1.3 0.2 1.9 0.3 0 0.1-0.1 0.3-0.2 0.5l-1.7 1.5c0.2 0.3 0.4 0.5 0.6 0.8-0.5 0.7-1.1 1.6-1.6 2.3-0.4 0.2-0.6 0.3-0.9 0.4-0.1 0.1-0.2 0.2-0.4 0.3-1.8 3-3.1 2.5-4.5 3.6-1.4 1.2-2.9 2.5-4.3 3.7-2-0.8-1.8 0.7-2.6 1.4-0.7 0.7-1.5 1.4-2.2 2-1.7 2.3-4.1 2.7-6.3 4.5l-3.1 2.5c-0.1-0.2-0.3-0.4-0.4-0.6-0.8 0.5-1.6 1.5-2.6 0.5z"/>
					
					
						<path class="st8" d="m515.8 112.2c-0.2-0.3-0.5-0.5-0.7-0.8 0.6-0.8 1.3-1.7 1.9-2.5l1.8-2.7c0.4-0.2 0.8-0.5 1.3-0.7 0.6-0.1 1.2-0.3 1.8-0.3 0.3-0.5 0.5-0.9 0.8-1.4 0.2-0.5 0.5-0.9 0.7-1.3 0.9-1 1.8-2 2.8-3 0-0.6 0.2-1.4 0.4-2 0.2-0.7 0.3-1.2 0.1-1.3l0.6-1.5 0.5-0.9c0.7-0.6 1.3-1.3 1.9-2 0.3-1.6 1.9-3.7 2-5.5 0.6-0.8 1.1-1.7 1.7-2.6 0.9-1.7 0.2-3.2 1.4-4.5 0.4-2 0.7-4.3 0.7-6.5v-0.6c-0.1-1.2-0.4-2.4-0.7-3.6 0.1-0.4 0.1-0.9 0.1-1.3-0.5-1.7-1-3.2-1.6-4.6 0-0.8-0.2-1.8-0.2-2.6-0.7-1.2-1.5-2.2-2.3-3.3-0.1-1-0.3-2-0.5-3-2.1-2.1-3.8-5.4-5.9-6.9-0.3-0.1-1.1-0.9-1.7-1.7s-1.1-1.5-0.7-1.6c-0.3-1.6-4.7-4.1-2.6-4.6 1.3 1.2 2 1.4 2.4 1.6 0.4 0.1 0.7 0.1 1.3 0.9 2.3 3.5 3.3 4.8 4.4 5.7 1 0.9 2 1.8 2.9 2.7 0.4 1.2 0.6 2.4 0.9 3.7 0.8 1.8 1.6 3.6 2.9 5.1-0.2-2.2-0.6-4.4-1.1-6.5 1.2 0.3 1.5 0.2 1.7 0.1 1.1 3.1 2.1 6 2.8 9.2 0.5 1.9 0.9 3.9 1.1 6 0.2 1.7 0.2 3.7 0.1 5.6-0.1 0.7-0.1 1.5-0.2 2.2 0 0.2 0 0.5-0.1 0.6 0.2 2.6 0 4.8-0.6 7.1-0.6 2.2-1.6 4.6-3.2 7.2-1.1 2.2-2.4 4.2-3.7 6.1 0.1-1 0.2-2.1 0.3-3.2-0.6 0.5-1.2 1.1-1.7 1.5-1 1.8-0.5 3.4-1.3 4.9 0 1.3-0.7 2.9-1.6 4.4-0.5 0.7-1 1.5-1.5 2.1-0.6 0.6-1.2 1.1-1.7 1.4-0.2 0.1-0.4 0.2-0.5 0.2-0.7 0.4-1.2 0.7-1.8 1-0.7 0.9-1.3 1.7-2.3 2-0.5 0.6-1 1.3-1.5 1.9l-0.7 0.7-0.9-0.9z"/>
					
					
						<path class="st8" d="m516.5 38.4c-0.8-0.9-1.5-1.7-2.4-2.5-0.3-0.5-0.6-0.9-1-1.4-0.5-0.2-0.9-0.3-1.3-0.3-0.9-0.6-1.8-1.2-2.7-1.7s-1.8-1.1-2.8-1.6c-0.4 0.8-2-0.9-2.9-0.6-2-0.7-1.2-1.5-3.2-2.4-0.9 0.4-1 0.7-1.1 0.9-0.6-0.2-1.3-0.5-2-0.7s-1.5-0.5-2.4-0.7c-1.8 0.5-3.1 0.5-3.6-0.1-0.2-0.3-0.3-0.7-0.3-1.1-3.4-1-5.3-0.7-7-0.3-1.3 0-2.6-0.1-3.9 0-0.8-0.2-1.5-0.4-2.3-0.7-0.8 0.6-1.5 1.1-2.3 1.7-0.7-0.2-1.5-0.5-2.3-0.7-0.7 0.1-1.5 0.2-2.8 0.5l-0.9 0.9c-2.6 0.6-5.1 1.4-7.6 2.4-0.7-0.7-1.5-1.3-2.4-2 0.9-0.3 1.9-0.5 2.8-0.8 3.4-0.2 4.1-1.1 4.4-1.7 1.6-0.9 2.5-0.5 3.6-0.1 0.9-0.4 1.9-0.7 2.8-1.1 1.3 0 2.8 0.1 4.1 0.3 1.1-0.5 2.3-1 3.6-1.4 2.4 0.2 2.9 0.2 4.9-0.6h0.6c0.7-0.3 1.6-0.2 2.5-0.2s1.8 0.1 2.5 0.1c0.5 0.5 1.1 1 1.6 1.6 0.1 0 0.4 0.1 0.5 0.1 0.6 0.1 1.2 0.3 1.8 0.4 1.2 0.2 2.5 0.6 3.7 0.9 1.2 0.4 2.5 0.8 3.7 1.3 0.5 0.3 1.3 0.8 2 1.2 0.7 0.3 1.2 0.5 1.4 0.1 0.9 0.4 1.8 0.9 2.6 1.4 0.2-0.5 1.5 0.2 3.6 2.2 1.9 1 3.8 2.3 5.5 3.5l-0.7 0.7c0.6 0.6 1 1.3 1.5 1.9-0.5 0.4-1.2 0.5-1.8 0.6z"/>
					
					
						<path class="st9" d="m456.2 32.7c-0.9-0.1-1.8-0.2-2.7-0.1 0.3-1.6 0.8-2.5-0.3-2.2-1.9 0.7-0.5 1.3-2.3 2l-1.6 0.8c-0.3-0.5-0.5-0.9-0.7-1.3 0.9-0.6 1.8-1.3 2.8-1.9s1.9-1.3 3-1.8c1.6-0.3 3.3-0.5 4.9-0.7l0.3 0.9c0.9-0.3 1.9-0.5 2.8-0.8-0.1 0.9-0.2 1.9-0.4 2.8-2.1 0.6-4 1.4-5.8 2.3z"/>
					
					
						<path class="st8" d="m455.3 33.7c-1.4 0.6-2.8 1.3-4.1 1.9 0.6-0.9 1-1.9 1.7-2.8 0.1-0.1 0.3-0.2 0.4-0.2 0.9 0 1.8 0.1 2.7 0.1-0.2 0.4-0.4 0.7-0.7 1z"/>
					
					
						<path class="st8" d="m446.1 38.3c1.1 0.5-0.8 2.6 0.6 2.8-0.4 1-0.8 1.9-1.2 2.8-0.8 0.1-1.2 0-1.6-0.1-0.7 0.6-1.4 1.2-2 1.8-0.4 0.1-0.8 0.2-1.2 0.2 0.2-0.7 0.5-1.6 0.8-2.3 1.2-1.5 2.4-2.9 3.7-4.4 0.3-0.2 0.5-0.5 0.9-0.8z"/>
					
					
						<path class="st8" d="m431 61.2c1.7 0 1.1 2 0.6 3.6-0.3 0-0.6 0-0.9 0.1-0.6 1.1-1.1 2.2-1.6 3.4 0.1 2.1-0.1 3.3-0.9 3.5-0.2 0.6-0.5 1.3-0.7 1.9l1.1 0.5c0 0.1-0.1 0.3-0.2 0.5-0.3 0.5-0.7 1.2-1.1 1.7-0.4-0.2-0.7-0.3-1.2-0.5-0.2-1.5 0.3-3.7 1.1-5.8 0-0.9 0.1-1.9 0.1-2.8 0.8-1.1 1.7-2 2.5-3 0.5-1 0.9-2.1 1.2-3.1z"/>
					
					
						<path class="st8" d="m434 64.1c0.3 1-0.6 2.1-1 3.1-0.5-0.3-0.9-0.5-1.3-0.7l0.6-1.2c0.6-0.5 1.1-0.9 1.7-1.2z"/>
					
					
						<path class="st8" d="m429 78.7 0.3 1.8c-0.6 0.2-1.1 1.2-1.5 1.1-0.3 1.1-0.6 2-0.8 3.1l-0.6 0.9-0.6-1.2c-0.8 0.5-1.5 1.3-2.2 1.9 0-1 0.1-2 0.1-3 0.6-0.2 1.1-0.5 1.7-0.8 0.2-1 0.4-2.1 0.7-3.1l1.6-1.2c0.4 0.1 0.8 0.3 1.3 0.5z"/>
					
					
						<path class="st7" d="m453.4 144.6c0.1-0.4 0.3-0.9 0.4-1.4l1.2-1.2h1.8c-0.8 1.1-1.5 2.1-2.3 3.2h-1.1v-0.6z"/>
					
					
						<path class="st7" d="m458.1 136.4 1.2-2.7c0.7-0.3 1.3-0.6 2-1 0.3 0.3 0.5 0.7 0.9 1.2-0.4 0.4-0.8 0.9-1.1 1.3 0 0.8-0.2 1.7-0.2 2.5-0.8 0.5-1.7 1.1-2.5 1.6-0.5-0.5-1.1-0.9-1.6-1.3 0.4-0.5 0.8-1.1 1.3-1.6z"/>
					
					
						<path class="st7" d="m484.4 137.8c0-0.9 1-1.3 2-2.1 1.7-2 5.8-3.5 6.6-6 1.1-1.3 0.8 0.5 2.1 0 0.9-0.7 1.8-1.4 2.8-2.2l0.5 0.6c-1.2 0.7-2.4 1.2-3.6 1.8-2.2 1.9-4.5 3.9-6.7 5.8-0.6 0.5-1 1-1.5 1.5-0.6 0.3-1.4 0.4-2.2 0.6z"/>
					
					
						<path class="st7" d="m497.8 124.5c0.4-0.3 0.6-0.5 1-0.8 0.7 0.1 1.2 0.7 1.9-0.3 0.9-0.3 1.8-0.7 2.7-1-0.1 0.3-0.2 0.7-0.3 1-1.3 1.5-1.4 2.1-2 2.6-0.5-0.2-1.2 0.1-2.6 0.9-0.4-0.9-1.8-1.1-0.7-2.4z"/>
					
					
						<path class="st7" d="m508.8 115.6c0.1-0.2 0.1-0.4 0.2-0.5 0.9-0.8 1.9-1.5 2.9-2.4 1.1-0.4 2.2-0.8 3.2-1.3 0.2 0.3 0.5 0.5 0.7 0.8-1 1.1-2 2.3-3.1 3.3s-2.1 2.1-3.1 3.1c-0.7 0.6-1.4 1.2-2.2 1.7-0.7-0.1-1.3-0.3-1.9-0.3 1.1-0.6 3.5-2.4 3.3-4.4z"/>
					
					
						<path class="st7" d="m521 103.1c0.4-0.3 0.7-0.7 1-1 0.7-0.9 1.4-1.9 1.8-3.7 0.3-0.4 0.5-0.7 0.8-1.2 0.6-0.3 1.3-0.7 1.9-1.1 0.3 0.1 0.1 0.7-0.1 1.3s-0.4 1.4-0.4 2c-0.9 1-1.9 2-2.8 3-0.2 0.4-0.4 0.9-0.7 1.3-0.2 0.4-0.5 0.9-0.8 1.4-0.6 0-1.2 0.1-1.8 0.3 0.5-0.7 0.8-1.5 1.1-2.3z"/>
					
					
						<path class="st7" d="m527.5 91.7 1.2-2.4 0.3-2.4c0.3-0.5 0.6-0.9 0.8-1.5 0-0.9 0.9-3.6 1.4-2.6 0.1-2 0.6-3.5 1-5.1 0.5-1.6 0.9-3.2 0.9-5 0-1.1-0.2-2.2-0.6-3.5 0.3-0.3 0.6-0.4 0.9-0.7-0.2-1.2-0.4-2.2-0.7-3.3-0.8-0.8-1.6-1.9-2-2.3-0.1-0.4-0.2-0.7-0.3-1.2-0.3-1.1-0.7-2.3-1.1-3.3-0.2-1.1-0.4-1.9-0.7-2.9-0.3-0.1-0.6-0.3-0.9-0.3-0.9-1.8-2.1-3.9-3.4-5.9-0.6-1-1.3-1.9-2-2.7s-1.3-1.5-2-2.1c-0.6-0.3-1.2-0.5-2.5-2.1-0.1-0.5-0.1-1-0.1-1.5-0.4-0.4-0.9-0.8-1.2-1.1-0.8-0.6-1.5-1.1-2.3-1.6s-1.6-1-2.3-1.5c-4-2.3-7.3-4.7-11.3-5.8-0.9 0.3-2.8-1.1-4.5-0.5 0-1.2-2.4-1.4-6.1-2.7-2-0.6-4-1-6.1-1.4-1.4-0.1-1.6 0.4-2.1 0.8s-1.2 0.6-3.6 0.3c-0.9-0.1-1.8-0.1-2.8-0.2-2 0.1-4 0.3-6 0.6l0.9-0.9c1.3-0.3 2.1-0.4 2.8-0.5 0.7 0.2 1.6 0.4 2.3 0.7 0.8-0.6 1.5-1.2 2.3-1.7 0.7 0.2 1.4 0.4 2.3 0.7 1.3-0.1 2.6 0 3.9 0 1.7-0.5 3.6-0.7 7 0.3 0 0.3 0.2 0.7 0.3 1.1 0.5 0.5 1.8 0.6 3.6 0.1 0.9 0.2 1.6 0.5 2.4 0.7 0.7 0.2 1.4 0.4 2 0.7 0.1-0.2 0.2-0.5 1.1-0.9 2 0.9 1.2 1.6 3.2 2.4 0.9-0.2 2.6 1.4 2.9 0.6 1 0.5 1.9 1 2.8 1.6 0.9 0.5 1.8 1.1 2.7 1.7 0.4 0 0.8 0.1 1.3 0.3 0.4 0.5 0.7 0.9 1 1.4 0.8 0.9 1.6 1.6 2.4 2.5 0.6-0.1 1.2-0.2 2-0.2 0.3 0.3 0.5 0.5 0.8 0.7-2 0.5 2.3 3 2.6 4.6-0.5 0.1 0 0.9 0.7 1.6 0.6 0.8 1.4 1.6 1.7 1.7 2.1 1.5 3.8 4.8 5.9 6.9 0.2 1 0.4 2 0.5 3 0.8 1.1 1.5 2.1 2.3 3.3 0.1 0.8 0.2 1.8 0.2 2.6 0.6 1.4 1.1 2.9 1.6 4.6 0 0.4 0 0.9-0.1 1.3 0.3 1.2 0.5 2.4 0.7 3.6v0.6c0 2.2-0.3 4.4-0.7 6.5-1.2 1.2-0.5 2.8-1.4 4.5-0.6 0.9-1.1 1.8-1.7 2.6-0.1 1.8-1.7 3.9-2 5.5-0.6 0.7-1.3 1.4-1.9 2l-0.3-2.3z"/>
					
					
						<path class="st7" d="m527.3 74.3 0.1-1.6v-1.2c0.6 0 1.2 0.1 1.8 0.1v0.6c0 0.2 0 0.3-0.1 0.5-0.1 0.6-0.2 1.3-0.3 1.8-0.7 0-1.1-0.1-1.5-0.2z"/>
					
					
						<path class="st7" d="m528.2 68c0.4-1.6 0.3-2.7 0.9-2.4 0.2 1.2 0.4 2.3 0.2 3.6-0.4-0.3-0.7-0.7-1.1-1.2z"/>
					
					
						<path class="st7" d="m518.5 47.4c-1.1-0.1-1.6-1.3-2.5-2-0.4-0.5-1-1-1.4-1.4 0.1-0.4 0.4-0.8 0.5-1.2 1 0.7 1.9 1.7 2.8 2.5 0.6 0.6 0.5 1.4 0.6 2.1z"/>
					
					
						<path class="st7" d="m514.3 42.1-1.8-1.2c-0.6-0.4-1.2-0.8-1.8-1.1-1-1.2-0.7-1.5-0.4-1.9 1.6 1.3 3.2 2.3 4.7 3.5l-0.7 0.7z"/>
					
					
						<path class="st7" d="m477.2 32.2c-0.5-0.5-1.1-1.1-1.7-1.6 1.2-0.1 2.5-0.3 3.7-0.3 1.5 0.6-0.4 1.8-2 1.9z"/>
					
					
						<path class="st7" d="m471.6 32.1c-0.9 0.1-1.7 0.2-2.6 0.3-0.2-0.6 0.2-1.1 0.9-1.3s1.5-0.2 2.2 0.4c-0.3 0.1-0.4 0.3-0.5 0.6z"/>
					
					
						<path class="st7" d="m459.1 36.8c-0.8 0.5-0.5-0.4-0.9-0.7 1-1.2 3.2-1.6 4-1.4 1.3 1.2-2.1 1.2-3.1 2.1z"/>
					
					
						<path class="st7" d="m443.3 57.7c0.4 0.9-0.5 1.7-0.4 2.4-0.9 1.2-1.8 1.9-2.4 1 0.2-0.8 0.3-1.6 0.6-2.3 0.7-0.4 1.4-0.7 2.2-1.1z"/>
					
					
						<path class="st9" d="m491.9 134.8c0.8-0.7 0.6-2.1 2.6-1.4-0.8 0.5-1.7 1-2.6 1.4z"/>
					
					
						<path class="st6" d="m506.1 123.1 1.7-1.5c1.3-1.6 1.6-2.4 1.8-3l3.1-3.1c1-1.1 2.1-2.2 3.1-3.3 0.3 0.3 0.5 0.6 0.9 0.9l0.7-0.7c0.2 0.2 0.4 0.5 0.7 0.7-1.3 2.4-2.2 3.6-3 3.9l-4.2 4.2c-1.4 1.4-2.8 2.6-4.3 3.9-0.8 1.1-1.2 0.4-2 0.4 0.4-0.8 1-1.7 1.5-2.4z"/>
					
					
						<path class="st9" d="m505.5 122.3 1.7-1.5c0.1-0.2 0.2-0.4 0.2-0.5 0.7-0.6 1.4-1.1 2.2-1.7-0.2 0.6-0.5 1.4-1.8 3l-1.7 1.5c-0.2-0.3-0.4-0.5-0.6-0.8z"/>
					
					
						<path class="st9" d="m517.4 112.4c0.5-0.7 1-1.3 1.5-1.9 0.9-0.2 1.5-1.1 2.3-2 0.6-0.3 1.2-0.6 1.8-1-0.5 1.1-1.1 2.3-1.6 3.4-1.1 0.9-2.2 1.4-3.3 2.2l-0.7-0.7z"/>
					
					
						<path class="st9" d="m528.3 99.4c0.8-1.6 0.3-3.2 1.3-4.9 0.6-0.5 1.2-1 1.7-1.5-0.1 1.1-0.2 2.1-0.3 3.2-1 1.1-1.8 2.2-2.7 3.2z"/>
					
					
						<path class="st9" d="m534 58.4c-1.3-1.5-2.1-3.3-2.9-5.1-0.3-1.3-0.5-2.4-0.9-3.7-0.9-0.9-1.9-1.8-2.9-2.7-1.1-0.8-2.1-2.1-4.4-5.7 0.6 0.3 1.1 0.6 1.7 0.9 0.8 1 1.5 1.9 2.3 2.9 0.7 0 1.3 0.1 2 0.3l0.9 0.9c0.6 1.2 1.1 2.2 1.8 3.4 0.4 0.7 0.8 1.5 1.2 2.2 0.6 2.2 1 4.4 1.2 6.6z"/>
					
					
						<path class="st9" d="m512.2 32c-2.1-2-3.4-2.7-3.6-2.2 0.2-0.6 1.5 0.2 3.6 2.2z"/>
					
					
						<path class="st9" d="m486.2 22.9c0.7-0.3 1.6-0.2 2.5-0.2s1.8 0.1 2.5 0.1c0.5 0.5 1.1 1 1.6 1.6l-1.6-1.6c-0.8 0.1-1.7 0-2.5-0.1-1 0-1.8 0-2.5 0.2z"/>
					
					
						<path class="st9" d="m466.6 25.8c-0.3 0.6-1 1.5-4.4 1.7 1.5-0.6 2.8-1.2 4.4-1.7z"/>
					
					
						<path class="st6" d="m453 32.8c-0.6 0.1-1.2 0.3-1.8 0.5-1 1-1.9 2.1-2.8 3.2-0.7 0.5-1.4 0.8-2.1 1.3 0 0.2-0.2 0.4-0.2 0.5-0.4 0.3-0.6 0.6-0.9 0.8-1.2 0.4-2.3 0.8-3.5 1.2l-0.8 0.8c-0.9 1.2-1.6 2.3-2.4 3.4-0.3 0.1-0.4 0-0.7 0.1-0.9 0.6-1.9 1.3-2.8 2-0.3-1.5 1.4-3 2-4.5 1.1-1.3 2.3-2.8 3.5-4.1 0.4-0.4 0.9-0.9 1.3-1.2 0.3 0 0.7 0.1 0.9 0.2 0.7-0.4 1.5-0.8 2.1-1.2 0.2-0.7 0.3-1.2 0.3-1.9 0.6-0.5 1.3-1.2 1.9-1.7 0.4-0.1 0.8-0.2 1.3-0.3 0.3 0.5 0.5 0.9 0.7 1.3l1.6-0.8c1.9-0.7 0.4-1.4 2.3-2 1.1-0.3 0.6 0.6 0.3 2.2 0.1 0-0.1 0.1-0.2 0.2z"/>
					
					
						<path class="st9" d="m444.9 35.7c-0.7 0.4-1.5 0.8-2.1 1.2-0.3-0.1-0.6-0.2-0.9-0.2 1.1-0.9 2.3-2 3.4-2.9-0.1 0.7-0.2 1.2-0.4 1.9z"/>
					
					
						<path class="st9" d="m445.2 39.1c-0.6 1.5-2.3 2.7-3.7 4.4-0.2 0.7-0.5 1.6-0.8 2.3-0.8 0.8-1.5 1.5-2.2 2.3-1.3 1.5-2.4 3-3.5 4.5-0.6-0.9-1.2-1.7-1.7-2.7 0.6-1.1 1.2-2.2 1.8-3.4 1-0.7 1.9-1.4 2.8-2 0.3 0 0.5 0 0.7-0.1 0.7-1.1 1.5-2.2 2.4-3.4l0.8-0.8c1.1-0.3 2.2-0.7 3.4-1.1z"/>
					
					
						<path class="st6" d="m433.2 49.9c0.5 1 1.1 1.9 1.7 2.7-1 1.7-1.8 3.2-2.7 4.8-0.4 1.1-0.8 2.1-1.2 3.2-0.5 0.5-1 0.8-1.5 1.2-0.6 0.7-1.3-0.3-1.9-0.6-0.2-0.8 0.2-1.4 0.5-2 1.1-0.6 2.2-1.2 3.4-1.9-0.4-0.8-0.8-1.6-1.1-2.5 0.8-1.6 1.7-3.2 2.8-4.9z"/>
					
					
						<path class="st9" d="m431.4 57.4c-1.2 0.7-2.3 1.3-3.4 1.9 0.7-1.4 1.4-2.9 2.3-4.4 0.3 0.9 0.7 1.7 1.1 2.5z"/>
					
					
						<path class="st9" d="m431 61.2c-0.4 1-0.8 2.1-1.1 3.2-0.9 1-1.7 1.9-2.5 3-0.5-1-0.9-2-1.3-3 0.5-1 1.1-2.1 1.6-3.1 0.6 0.3 1.3 1.2 1.9 0.6l1.5-1.2c-0.1 0.1-0.1 0.3-0.1 0.5z"/>
					
					
						<path class="st9" d="m429.6 76.7c-0.2 0.6-0.4 1.3-0.6 1.9-0.5-0.2-1-0.3-1.4-0.5-0.1-0.6-0.2-1.1-0.3-1.7 0.4-0.6 0.8-1.2 1.1-1.7 0.4 0.6 0.8 1.3 1.2 2z"/>
					
					
						<path class="st6" d="m427.4 67.4c0.2 0.7-0.1 1.3-0.2 2.2v0.6c-0.2 1.5-0.5 3.2-0.7 4.8-0.1 0.4-0.2 0.7-0.3 1 0.4 0.2 0.8 0.3 1.2 0.5 0.1 0.6 0.2 1.1 0.3 1.7l-1.6 1.2c-0.2-0.3-0.4-0.6-0.6-0.8-0.5 0.8-1 1.6-1.6 2.4 0 0.7-0.1 1.6-0.2 2.3-0.1 1-0.1 2-0.1 3-0.1 0.6-0.1 1.2-0.1 1.7-1.3 2.2-2 1.4-2.6 1.6-0.3-0.8-0.2-2-0.1-3.1s0.1-2-0.5-2.2c0.3-1.9 0.7-4.1 1.1-6 0.4-1.4 0.8-2.9 1.3-4.4 0.2-2.2 0.5-2.9 0.9-3.9 0.8-2 1.6-3.9 2.5-5.7 0.4 1.1 0.8 2.1 1.3 3.1z"/>
					
					
						<path class="st9" d="m426 79.3c-0.2 1-0.5 2.1-0.7 3.1-0.6 0.3-1.1 0.6-1.7 0.8 0.1-0.7 0.1-1.6 0.2-2.3 0.6-0.8 1.1-1.6 1.6-2.4 0.2 0.2 0.4 0.5 0.6 0.8z"/>
					
					
						<path class="st6" d="m469.7 22.7c0.6 1.1-0.2 1.6-1.2 2s-2.1 0.6-1.9 1.1c-1.5 0.5-2.9 1.1-4.4 1.7-0.9 0.3-1.9 0.6-2.8 0.8l-0.3-0.9c-1.6 0.2-3.3 0.4-4.9 0.7 0.1-0.2 0.2-0.5 0.3-0.7 1.1-0.6 2.3-1.1 3.4-1.6 0.7 0 1.4 0.1 2.1 0.2 0.7-0.3 1.4-0.6 2.3-0.9 0.9-0.6 1.8-1.3 2.7-1.9 1.6-0.2 3.1-0.4 4.7-0.5z"/>
					
					
						<path class="st5" d="m466.3 151.1c0.2-1.8 2.7-3.5 4.1-5.3 1-0.5 2.1-1.1 3.2-1.6 0.5-0.9 1.3-1.8 2.1-2.6 0.9-0.8 1.7-1.6 2.1-2.4 2 0.1 4.2-3.1 6.7-4.6 0.4-1.7 2.5-1.4 3.7-2.5 1.3-1 2.7-2 4.1-3.1s2.6-2.1 3.5-3.2l1.8-1.2c-1.1 1.3 0.3 1.4 0.6 2.4l-0.6 0.5c-0.9 0.8-1.8 1.5-2.8 2.2-0.1 0.1-0.2 0.2-0.4 0.3-2.7 2.3-6.7 3.7-8.3 5.8l-2 2.1c-1 0.8-2 1.5-3 2.3-0.7 0.6-1.4 1.1-2.2 1.7-0.7 0.5-1.6 1.1-2.4 1.5-0.6 0.4-1.1 0.7-1.6 1.1-0.5 0-0.9 0.1-1.4 0.1-0.3 0.5-0.6 0.9-0.9 1.4-0.8 0.5-1.6 1-2.3 1.6-0.6 0.6-1.7 1.2-1.6 2.4-0.7 0.5-1.5 0.9-2.2 1.4 0.2-0.2 0-0.2-0.2-0.3z"/>
					
					
						<path class="st8" d="m470 150.2c-0.2-0.1-0.5-0.2-0.8-0.3 0.3 0 0.5 0.1 0.8 0.3z"/>
					
					
						<path class="st7" d="m507.4 120.3c0 0.1-0.1 0.3-0.2 0.5 0.1-0.2 0.2-0.4 0.2-0.5z"/>
					
					
						<path class="st7" d="m430.8 64.9c0.3 0 0.6-0.1 0.9-0.1-0.3 0-0.6 0-0.9 0.1z"/>
					
					
						<path class="st9" d="m531.3 92.9c0.6-2.7 1.5-4.8 2.3-6.9s1.5-4.2 1.6-6.6c0.3-0.8 0.6-1.8 0.9-2.7 0.2-1.2 0.4-2.4 0.5-3.6 0.6 0.6 1.3 1.1 1.9 1.9 0 0.2 0 0.5-0.1 0.6-0.5 2.4-1.3 4.4-2.1 6.4-0.3 1.3-0.7 2.6-1.1 3.8-0.8 1.6-0.5 2.6-1 3.9-0.9 1.1-1.9 2.3-2.9 3.2z"/>
					
					
						<path class="st9" d="m523 41.3c-0.6-0.7-0.8-0.7-1.3-0.9-0.4-0.1-1.1-0.4-2.4-1.6-0.3-0.2-0.5-0.5-0.8-0.7-0.5-0.7-0.9-1.3-1.5-1.9l0.7-0.7c0.8 0.5 1.4 0.9 2.1 1.5 0.5 0.8 1.2 1.4 3.2 4.3z"/>
					
					
						<path class="st9" d="m485.5 22.9c-1.9 0.9-2.5 0.9-4.9 0.6-1.3 0.5-2.5 0.9-3.6 1.4-1.3-0.1-2.8-0.2-4.1-0.3-1 0.4-1.9 0.7-2.8 1.1-1-0.5-2-0.9-3.6 0.1-0.2-0.5 1-0.7 1.9-1.1 1-0.3 1.9-0.9 1.2-2 0.7-0.2 1.6-0.3 2.4-0.5 0.7 0.3 1.3 0.5 1.9 0.7 1.6-0.1 3.1-0.2 4.8-0.2 0.4 0 0.8 0 1.3-0.1 1.9 0.1 3.8 0.1 5.5 0.3z"/>
					
					
						<path class="st9" d="m486.2 22.9h-0.6 0.6z"/>
					
					
						<path class="st9" d="m453 32.8c-0.7 1-1.2 1.9-1.7 2.8-1 0.3-1.9 0.6-2.9 0.8 0.9-1.1 1.8-2.2 2.8-3.2 0.6-0.1 1.2-0.3 1.8-0.4z"/>
					
					
						<path class="st9" d="m453.4 32.5c-0.1 0.1-0.3 0.2-0.4 0.2 0.1 0 0.3-0.1 0.4-0.2z"/>
					
					
						<path class="st6" d="m431.1 60.6c0 0.2-0.1 0.4 0 0.6-0.1-0.2-0.1-0.4 0-0.6z"/>
					
				</g>
			</g>
		
	


	
		
			<g class="st1">
				<g class="st1">
					
						<path class="st2" d="m448.1 174.8c-0.2-0.1-0.3-0.3-0.5-0.3-0.1-0.7-0.1-1.4-0.2-2.1-0.7-0.4-1.5-0.8-2.2-1.1-0.3-0.5-0.6-1.1-1-1.5-0.5-0.5-0.5-1.6-0.8-2.8-1-1.7-1.6-2.8-2.5-3.6-1.6 1-1.7-3.3-3-5.3-0.6 0.2-1.3 0.5-1.8 0.7-0.2-1.2-1.2-1.4-1.7-3-2.2-0.5-3-1.6-3.9-3-0.3-0.2-0.6-0.3-0.8-0.4l-0.6-1.8c-1.2-0.8-1.7 0.5-2.5 0.7-0.4-1-0.8-1.9-1.3-3 0.1-0.3 0.1-0.6 0.2-1 0.5-0.3 1.1-0.5 1.6-0.8 0.6 0 1.2 0.1 1.7 0.2 1.1 1.2 1.6 1.4 1.7 1.1 1.7-0.2-0.5-2.1-1.1-3.1 0.2-0.2 0.3-0.5 0.4-0.7 0.8 0.3 1.5 0.6 2.3 0.9 0.9 0.8 1.5 0.9 2 1.1s1 0.4 1.5 1.7c0.3-0.1 0.7-0.1 1-0.2 0.5 0.4 0.9 0.8 1.4 1.3 0 0.3 0.1 0.6 0.2 0.8-0.4 0.1-0.9 0.2-1.3 0.2-0.3-0.1-1-0.3-1.5-1.5-1.1 1.3-2.9 1.4-4.1 1.1-0.2 0.9 1 1 1.3 2 0.5 0.6 1 1.2 1.4 1.9 0.9-0.4 1.1-0.6 1.3-0.7 0.3 0.7 0.7 1.4 0.8 2.1 0.9 0.9 1.3 1.6 1.9 2.2 1.2-0.3 1.3 0.8 1.6 1.1 2.4 1.1 3.9 3.4 4.8 6.4-0.3 0.3-0.2 1.6-0.2 2.5 1.1 1 1.7 1.9 2.6 1.4v-0.9c-0.2-1.4-0.4-2.9-0.8-4.3-0.2-0.5-0.5-1.1-0.7-1.6-0.5-0.3-1.1-0.6-1.6-0.9 0.4-1.2-0.5-3.4-0.8-5.1 0.1-0.6 0.1-1.3 0.2-1.9 1.1 0.8 1.6 2.6 2.3 4.3 0.5 1.8 0.9 3.5 1.2 5.2 0.5 1.2 1 2.5 1.4 3.7 0.7 2.6 2.1 4.5 1.3 6.1-0.1 0.8-0.2 1.5-0.3 2.2l-0.9-0.3z"/>
					
					
						<path class="st3" d="m444.1 166.7c0-1-0.2-2.2 0.2-2.5-0.9-3-2.3-5.3-4.8-6.4-0.3-0.3-0.4-1.4-1.6-1.1-0.7-0.6-1-1.3-1.9-2.2-0.1-0.8-0.5-1.5-0.8-2.1-0.2 0.1-0.5 0.2-1.3 0.7-0.5-0.7-0.9-1.3-1.4-1.9-0.3-0.9-1.4-1-1.3-2 1.2 0.3 2.9 0.3 4.1-1.1 0.5 1.2 1.3 1.5 1.5 1.5 0.5 0 0.9-0.1 1.3-0.2 0.5 0.8 0.8 1.5 1.2 2.2 0.4 0.8 0.8 1.5 1.1 2.3 0.9-0.4 1.4 2.9 2.3 1.4 0.4 1.7 1.2 3.9 0.8 5.1 0.5 0.3 1.1 0.6 1.6 0.9 0.3 0.5 0.5 1.1 0.7 1.6 0.3 1.4 0.6 2.8 0.8 4.3v0.9c-0.7 0.5-1.4-0.4-2.5-1.4z"/>
					
					
						<path class="st4" d="m442.8 155.3c-0.9 1.5-1.4-1.8-2.3-1.4-0.4-0.8-0.7-1.5-1.1-2.3s-0.8-1.5-1.2-2.2c-0.1-0.3-0.1-0.5-0.2-0.8-0.5-0.4-0.9-0.8-1.4-1.3-0.3 0.1-0.7 0.1-1 0.2-0.5-1.2-1-1.5-1.5-1.7s-1.1-0.3-2-1.1c-0.8-0.3-1.5-0.6-2.3-0.9-0.2 0.2-0.3 0.5-0.4 0.7 0.7 1 2.8 2.9 1.1 3.1-0.1 0.3-0.7 0-1.7-1.1-0.6-0.1-1.2-0.1-1.7-0.2-0.5 0.3-1.1 0.5-1.6 0.8-0.9-0.7-1.8-1.4-2.7-2l-0.5-0.5c-0.5-0.2-0.9-0.5-1.4-0.7l0.3-1.8c-0.6-1.3-1.2 0.3-2.2-0.4-0.7-1-1.3-2.1-2-3.1-3-1.9-1.6-4.7-5-6-0.7-0.8-1.4-1.7-2.2-2.5-1.4-0.6-2.8-1.2-4.1-1.8l-2.4-1.8c0.3-0.1 0.1-0.4 0-0.6-1.2-0.9-2.3 0.5-4.2-1.6-0.5-0.4-0.9-0.9-1.3-1.3-1-0.7-2.1-1.3-3-2-1.1-0.8-2.1-1.6-3.1-2.5-0.2-0.1-0.4-0.3-0.6-0.5-1.2-1.3 0.5-1.3 0-2.2-0.8-0.9-2.7-1.7-2.2-2.9-0.7-0.7-1.5-1.5-2.2-2.3-1.3-0.8-2.1-0.5-2.9-1.6l-2-2c-0.9 0.4-1.5-0.6-1.8-1.2-0.6-0.5-1.3-1.1-1.9-1.7 0.6-0.8-1.3-1.6-1.1-2.7-0.7-1.3-1.4-2.5-2-3.7-1.5-1-4.3-1.1-2.8-2.2-0.2-0.6-0.7-1.1-1.2-1.7s-0.9-1.2-1.1-2.1c-0.3-0.6-0.5-1.3-0.7-1.9s-0.4-1.3-0.5-1.9c-0.5-0.5-1-1-1.4-1.6l-0.6-1.8c-0.3-0.6-0.5-1.3-0.7-1.8-0.8-0.9-1.7-2.4-0.5-2.5 0-0.2 0-0.4-0.1-0.6-0.6-0.1-0.7-0.4-0.8-0.8-0.1-0.3-0.1-0.7-0.4-0.8-0.4-0.2-0.4-1.5 0.2-1.9v-0.7-2.2c-0.9-0.6-0.4-1.5-0.1-2 0.1-1.1 0.4-2.1 0.7-3.2 0.3-0.9 0.6-1.9 1-2.8-1-0.7 0.6-2.5 2.4-2.7 0.2-0.3 0.5-0.7 0.8-1-0.1-0.5-0.1-1 0-1.4 0.7-0.7 1.7-1.8 2.4-1.6 0.3-0.2 0.7-0.5 1-0.7 0.5-1.2 1-0.6 1.6-1 0.1 0 0.2-0.1 0.3-0.2l-0.8-1.5c0.1-0.8 0.6-1 1.1-0.9s1.1 0.3 1.5 0.2c0.4 0 0.4-0.3 0.6-0.5-0.3-0.9 0.4-0.9 1.1-0.9 0.8 0 1.7 0.2 2-0.8 1-0.2 0.8 1.4 2.5 0.6 0.2-0.9 1.2-1.2 2.4-1.2 1.2 0.1 2.5 0.4 3.5 0.6 0.5-0.5 1.1-1 1.6-1.3 1.9 1 3.5 0.8 5.2 0.6s3.8-0.4 5.9 1c1 1.4 3.2 1 4.1 2.6 1.2-1.2 2.8 0 4.3 1.2s2.8 2.4 4 1.3c1.6 1.2 2.9 3.3 4.5 3.8-0.2 1.5-0.2 1.7 0.1 1.9 0.8 0.3 1-0.4 1.4-0.7 0.5 0.6 0.9 1.3 1.3 1.9-1.2 0.1-0.1 1.4-0.3 2.1 2.6 0.3 1.4 3.8 2.9 5.7 1.4 1.3 3.2-1.1 3.8 2 1.8 0.5 2 0.9 2.6 2.8-0.5 1.3 0.3 2.7 0.5 4.4l-0.9 0.9c0 0.4 0 0.9-0.1 1.3-0.9 1.4-1.7 2.2-1.6 3.7-0.4 0.1-0.8 0.2-1.3 0.3-1-1.3-1.7-1.3-2-1.9 0.3-0.7 0.6-1.4 0.8-2.1-0.7-0.6-1.5-1.2-2.2-1.7l-1.3-2.1c-0.6-0.1-1.3-0.1-1.9-0.2-0.2-0.1-0.4-0.3-0.6-0.4-0.3-1.1-0.6-2.1-0.9-3.2 0-0.7 0.1-1.3 0.1-2.1 0.3-0.2 0.6-0.4 1-0.7-0.6-1.1-1.3-2.2-2.1-3.2l-1.8-2.7c0.1-0.4 0.1-0.9 0.1-1.4-0.5-0.1-1-0.1-1.4-0.1-0.8-0.5-0.5-1.5-1.5-1.6-0.4 1.3-1.2-0.3-3-1.5-0.3-0.5-0.5-0.8-0.8-1.3-1.3-0.4-1.5 0.2-2 0.2-0.5-0.3-1.1-0.5-1.6-0.7-0.2 1-1.2 0.2-1.8 0.2-1-1.4-2.2-0.2-3.3-1.5-0.7-0.1-0.6 1.1-1.1 0.8l-0.6-0.3c0-0.4 0.1-0.9 0-1.4-0.2-0.1-0.5-0.3-1.9-0.1l0.3-1.5c-0.6-0.3-1.1-0.6-1.7-0.9-0.2 0.1-0.5 0.2-0.8 0.2-1.2-0.3-2.4-0.6-3.6-0.7 0.3-0.9-0.3-0.9-1-0.8-0.6 0-1.2 0.1-1-1l-0.6-0.1c-0.2 1.4 0.3 1.7-0.1 2.8-0.5-0.2-1.1-0.3-1.7-0.4 0-0.5 0.1-1 0.1-1.5-1.8-1.2-0.8 1.2-1.9 1.2-0.6-0.2-1.2-0.4-1.9-0.6-0.2-0.3-0.6-0.2-0.9-0.2-0.5 0.4-0.1 0.9-0.1 1.3-0.5 0.1-1 0.2-1.4 0.3-0.9 0.5 0 1.4-0.7 1.7-1.3-0.9-1.8-1.3-2.9-2.4-0.2 0.7-0.3 1.4-0.4 2-0.2 0.6-0.9 0.6-1.4 1-0.5-0.3-1.2-0.5-1.5-1.4-0.3 0-0.6 0.1-0.9 0.3v1.5c-0.4 0.3-0.8 0.6-1.3 0.7-0.6 0.6-1.1 1.2-1.5 1.9-0.7 0.5-1.4 1.2-2 1.8-0.2 0.9-0.3 1.7-0.4 2.6-0.2 0.8-0.4 1.6-0.5 2.4-0.7 1.2-1.3 2.4-1.8 3.8 0 0.2-0.1 0.4-0.1 0.6 0.2 0 0.5 0.1 0.7 0.1l0.6 1.2c0.2 0.5 0.3 1 0.5 1.5v1.7c0 0.4 0.1 0.7 0.1 1.1-0.3 0.7-0.3 1.1-0.3 1.4s0.1 0.4 0.1 0.7c0.4 0.7 1 0.3 1.4 0.7 0.1 0.4 0.2 0.8 0.3 1.1-0.3 1.1-0.2 1.8 0 2.4s0.5 1.1 0.7 1.8c0.3 0.6 0.5 1.2 0.8 1.7l1.5 0.3 1.8 0.8c0.4 0.5 0.9 1 1.4 1.4 0 0.6 0.1 1.1 0.2 1.7 0.3 0.8 0.7 1.6 1.1 2.4v0.8c0.5 0.1 1.1 0.3 1.6 0.5 0.7 0.4 1.4 0.9 2.1 1.3 0 0 0.1 0.2 0.2 0.3-0.2 0.5-0.4 1.1-0.5 1.7 0.1 0.2 0.3 0.3 0.5 0.5 1.1-0.2 0.8-0.8 1.2-1l0.8 0.2c1.5 1.6-0.6 2.2 1.4 3.3l1.2-0.6 1.2 1.2c0.5 0.8 1 1.6 1.4 2.4 0.9 1.1 1.8 2.2 2.7 3.2 1.6 0.2-0.2-1.2 0.7-1.8 1.5 0 1.4-0.2 1.4-0.4-0.4-0.8-1.1-0.2-1.6-0.8 0-0.1 0-0.3-0.1-0.4 0.4-0.4 0.8-0.8 1.2-1.3 0.4 0 0.8-0.1 1.2-0.2h0.4c0.6 0.7 1.1 1.3 1.8 1.9-0.2 0.1-0.1 0.4-0.1 0.6 0.4 0.8 1.1 0.2 1.6 0.7 0.2 0.7 0.6 1.4 0.9 2.1 0.8 1.3 1.9 0.5 2.9 1.4 0.3 0.2 0.5 0.4 0.8 0.6 0.4 0.4 0.8 0.8 1.2 1.3 2.1 0.9 4.5 3.1 6.7 4.7 1.2 0.7 1.4 2.7 3 2.5 1.9 1.8 5.4 2.9 5.8 4.9 1.7 0.3 3.8 2.4 5.8 3 0.8 1 1.5 2 2.2 3 2.1 1.3 4.2 3.8 6.1 4.2 0.5 0.9 1.1 1.8 1.5 2.8 0.6 0.7 1.2 1.5 1.9 1.8 1.4 2.4 2.9 4.1 1.7 5.3 0.2 0.2 0.4 0.4 0.7 0.6 0.3 0.5 0.6 1 0.9 1.5 0 0.1 0.1 0.2 0.2 0.4 0.6 0.5 1.2 1 1.7 1.6 0.2 0.3 0.4 0.7 0.6 1.1 0.3 0.4 0.6 0.7 0.8 1 0.3 0.6 0.7 1 1 1.5 0.4 1.3 0.4 2 0.3 2.6z"/>
					
					
						<path class="st2" d="m416.6 142.3c-0.4-0.2-0.9-0.5-1.2-0.7-0.5-0.5-1-1-1.5-1.6-0.3-0.2-0.6-0.5-0.8-0.7-0.8-1.2-1.5-2.2-2.3-3.4-0.1-0.1-0.2-0.1-0.3-0.2-1.1-0.5-2.2-1.1-3.4-1.6l-1.2-0.9c0.2-0.6 0.4-1.2 0.5-1.8-1-0.7-2-1.4-2.8-2.4-0.5 0.2-0.9 0.4-1.3 0.6-1-0.5-2.1-2.1-3-1.6-1 0.4 0.1 1.4 0.9 1.9 1.3 0.5 0.7 1.2 0.9 1.9h-1.8c-1.1-1.3-5.6-2.9-3.4-4.1-1.2-0.8-2.4-1.7-3.6-3.1-0.2 0.4-0.4 0.8-0.6 1.1 0.3 0.8 2.4 1.8 1 2.3-1.2-0.9-2.3-1.8-3.5-2.7-0.4-0.7-0.9-1.4-1.3-2 0.6-0.2 0.1-0.9 0.4-1.6-1.2-0.6-2.4-1.1-3.5-1.7-1.4-0.1-1.5 0.3-2.8 0.2-0.7-0.6-1.3-1.2-2-1.7-1-2.1 1.3-1.5 2-2.6-0.1-0.3-0.1-0.5-0.2-0.9-1.7-1.1-3.4-2.2-5-3.5-1.9-0.2-3.3-4.2-5-3.2-0.9-1-1.9-2.4-3.1-2.9-3 0.1-0.2 2.3-0.8 3-1.2 0.1-1.6-1.3-2.5-1.2-1.3-1.2-2.9-3-4.2-4.7-0.1-0.1-0.1-0.2-0.2-0.4s-0.3-0.4-0.5-0.7c-0.9-0.7-1.8-1.6-2.6-2.5-0.3-0.4-0.6-0.6-0.8-1-0.1-0.8-0.2-1.5-0.3-2.3-0.8-0.8-1.1-1.8-1.4-2.8-0.2-1-0.4-2-0.7-3 1.5 0 3.3 2 3.8 4.2 1.3-0.6 1.6 2.6 2.8 3.3 1.2-0.3 0.9-1.6 0.9-2.8-0.1-1.2 0-2.4 1.4-2.6 2.1 0.8 2.9 3.4 4.2 2.1 1.2 1.3 0.2 2.6 1.8 4l1.1-0.7c-1.2-1.7-2.1-3.6-2.9-5.4-0.7-1.8-1.4-3.4-2.3-4.6-0.7 1.2-1.2 0.5-1.6-0.3s-0.8-1.6-1.4-0.2c0.2 0.8 0.4 1.7 0.7 2.6-1.4-0.6-1.6-1.5-1.6-2.3-0.5-0.3-1.1-0.8-1.7-1.2-1.1-1.5-1.3-2.6-1.9-4.6-1 0.2-1.2-1.3-1.3-2.6s-0.3-2.3-1.7-1.2c-0.8 0.4-0.9-0.1-0.7-0.9 0.1-0.7 0.4-1.7 0.3-2.3 0.9-0.3 0.5-2.6 1-4-0.5-0.6-0.4-2.1-1.4-1.8-0.3 2.2-1.4 0.1-1.6 2.6-0.5-0.6-2.5 0.8-1.4-2-1.5 0.4-1.7-0.9-1.6-2.6s0.6-3.7 0.2-4.6c-0.5-1.9 1-5.1 2.8-7.7-0.1-1.8 0.7-4.1 2.3-6.5s3.9-4.8 6.2-7l-0.6-1.1c0.1-0.1 0.4-0.2 0.5-0.3 1.7-0.6 2.8-1.1 3.7-1.4 0.2-0.9 0.3-1.7 0.5-2.5 0.4-0.8 0.7-1.6 1.2-2.5 0.7-0.3 1.5-0.6 2.2-0.9 0.8-0.3 1.5-0.6 2.2-0.8 1.7 0.5 1.1 1.2 0.1 2.1s-2.5 1.9-2.9 2.7c-0.9 0.6-1.8 1.3-2.6 2.1-0.4 0.7-0.8 1.4-1.1 2-0.3 0.7-1.5 1.3-2.3 2s-1.4 1.4-0.6 1.7c-2.5 1.7-2.1 3-2.7 4.3-0.1 1.3 1.9-0.1 3-0.8 1.5-2.2 3-2.6 4.3-2.9 0.6-0.2 1.2-0.3 1.8-0.6s1.1-0.9 1.7-1.7c0.7-0.1 1.6-0.4 2.5-0.6 0.9-0.3 1.8-0.5 2.7-0.7 1.8-0.4 3.4-0.6 4.2-0.1 1.3 0.5 2.2 0.5 2.6 1.4 1-0.3 2-0.8 3.2-1.3 1.2-0.4 2.5-0.6 3.9 0 0.6 0.2 0.8 0.8 1.2 1.3s1.1 0.9 2.6 1c0.4-0.4 0.8-0.9 1.2-1.3 1.1 0 2 0.3 2.4 0.8 0.4 0.4 0.3 0.9-0.5 1.1-0.6-0.1-1.3-0.5-2.3-0.2 0.4 0.4 0.8 0.8 1.1 1.2 1.2 0.5 2.6 0.5 4 0.5s2.8 0 4 0.5c-0.3 0.9 0.5 1.8 2.1 2.6 1.3-0.2 3.6 0.7 3.6 2 1.4 0.5 2.7 1 4 1.5 0.7 0 0.9-0.6 1.3-0.9 1.9 1.6 4.3 3 6.2 4.7s3.4 3.6 3.3 5.6c1.2 1.4 1.3-1.7 2.7 0.5s-3 1.7 0.2 4.7c0.9-0.6 1-0.7 1.2-0.8 0.4 0.6 1.4 1.6 1 2.2 1.8 2.1 2.4-1 3.4 2 0.7 0.1 1.3 0.1 2.1 0.5 0.7 0.8 1.3 1.7 1.9 2.5-0.5 0.2-1 0.3-1.5 0.5-0.1 0.6-0.2 1.3-0.3 1.9 0.4 1 1.9 2.4 1.3 3.2s-1.2 1.5-1.8 2.2c0 0.8-0.1 1.5-0.2 2.2l-0.5 1.6c0.2 0.4 0.5 0.9 0.7 1.3-0.1 0-0.2 0.1-0.2 0.1-0.4 0.1-0.8 0.2-1.3 0.2-0.8-0.1-0.2 1.1-0.7 1.2h-2.5c0.6-1.7 0.8-2.2 1.1-3.4 0.2-0.1 0.3-0.2 0.5-0.2 0-0.5 0.1-0.9 0.1-1.3 0.4-0.3 0.6-0.6 0.9-0.9-0.2-1.7-1-3-0.5-4.4-0.6-2-0.8-2.3-2.6-2.8-0.6-3.1-2.4-0.8-3.8-2-1.5-1.9-0.4-5.4-2.9-5.7 0.1-0.7-1-1.9 0.3-2.1-0.4-0.7-0.8-1.3-1.3-1.9-0.5 0.3-0.7 1-1.4 0.7-0.3-0.2-0.2-0.4-0.1-1.9-1.7-0.5-2.9-2.6-4.5-3.8-1.2 1.1-2.5-0.2-4-1.3-1.5-1.2-3.1-2.3-4.3-1.2-0.9-1.5-3-1.1-4.1-2.6-2.1-1.4-4.1-1.2-5.9-1s-3.3 0.4-5.2-0.6c-0.5 0.4-1.1 0.9-1.6 1.3-0.9-0.2-2.3-0.6-3.5-0.6s-2.2 0.2-2.4 1.2c-1.7 0.8-1.5-0.8-2.5-0.6-0.3 0.9-1.2 0.8-2 0.8s-1.5 0-1.1 0.9c-0.2 0.2-0.2 0.5-0.6 0.5-0.5 0.1-1-0.1-1.5-0.2s-1 0.1-1.1 0.9l0.8 1.5c-0.1 0.1-0.2 0.1-0.3 0.2-0.6 0.4-1.2-0.2-1.6 1-0.3 0.2-0.7 0.5-1 0.7-0.8-0.3-1.8 0.9-2.4 1.6v1.4c-0.3 0.3-0.6 0.6-0.8 1-1.8 0.2-3.4 2-2.4 2.7-0.4 0.9-0.7 1.8-1 2.8s-0.6 2.1-0.7 3.2c-0.3 0.5-0.8 1.4 0.1 2v2.2 0.7c-0.7 0.4-0.6 1.8-0.2 1.9 0.3 0.1 0.3 0.4 0.4 0.8 0.1 0.3 0.2 0.7 0.8 0.8 0 0.2 0 0.4 0.1 0.6-1.2 0.2-0.4 1.6 0.5 2.5 0.2 0.6 0.4 1.2 0.7 1.8l0.6 1.8c0.5 0.6 0.9 1.1 1.4 1.6 0.2 0.6 0.3 1.3 0.5 1.9s0.4 1.3 0.7 1.9c0.1 0.9 0.6 1.5 1.1 2.1s0.9 1.1 1.2 1.7c-1.5 1.1 1.2 1.2 2.8 2.2 0.6 1.2 1.3 2.4 2 3.7-0.2 1.1 1.7 1.9 1.1 2.7 0.6 0.6 1.3 1.1 1.9 1.7 0.2 0.6 0.8 1.5 1.8 1.2l2 2c0.7 1.1 1.6 0.9 2.9 1.6 0.7 0.8 1.4 1.6 2.2 2.3-0.5 1.2 1.4 2 2.2 2.9 0.4 0.9-1.2 0.9 0 2.2 0.2 0.2 0.4 0.3 0.6 0.5 1.1 0.9 2.1 1.7 3.1 2.5 1 0.7 2 1.4 3 2 0.4 0.4 0.8 0.9 1.3 1.3 2 2.1 3.1 0.8 4.2 1.6 0.1 0.3 0.3 0.5 0 0.6l2.4 1.8c1.4 0.6 2.8 1.2 4.1 1.8 0.8 0.8 1.5 1.7 2.2 2.5 3.5 1.2 2 4.1 5 6 0.7 1 1.4 2.1 2 3.1l-0.2 0.2c-1.3 0.3-2 0.4-2.8 0.5z"/>
					
					
						<path class="st5" d="m393.2 104.9h-0.4c-0.4 0.1-0.8 0.2-1.2 0.2-0.4 0.4-0.8 0.9-1.2 1.3 0 0.2 0.1 0.3 0.1 0.4 0.5 0.5 1.2 0 1.6 0.8 0.1 0.3 0.1 0.5-1.4 0.4-0.8 0.6 0.9 1.9-0.7 1.8-0.9-1-1.8-2.1-2.7-3.2-0.4-0.8-0.9-1.6-1.4-2.4l-1.2-1.2-1.2 0.6c-2-1.1 0.2-1.7-1.4-3.3l-0.8-0.2c-0.4 0.2-0.1 0.8-1.2 1-0.2-0.2-0.3-0.4-0.5-0.5 0.1-0.6 0.2-1.3 0.3-1.9-0.7-0.4-1.4-0.9-2.1-1.3-0.5-0.1-1.1-0.3-1.6-0.5v-0.8c-0.3-0.8-0.7-1.5-1.1-2.4-0.1-0.6-0.1-1.2-0.2-1.7-0.5-0.4-0.9-0.9-1.4-1.4l-1.8-0.8-1.5-0.3c-0.3-0.6-0.5-1.1-0.8-1.7-0.2-0.7-0.5-1.2-0.7-1.8s-0.3-1.4 0-2.4c-0.1-0.4-0.2-0.8-0.3-1.1-0.4-0.4-1 0-1.4-0.7 0.1-0.3 0-0.4-0.1-0.7 0-0.3 0-0.7 0.3-1.4 0-0.4-0.1-0.8-0.1-1.1 0-0.6-0.1-1.2 0-1.7-0.1-0.5-0.3-1-0.5-1.5l-0.6-1.2c-0.3 0-0.5-0.1-0.7-0.1 0-0.3 0.1-0.4 0.1-0.6 0.4-1.4 1.1-2.7 1.8-3.8 0.1-0.8 0.3-1.6 0.5-2.4 0.1-0.9 0.2-1.7 0.4-2.6 0.6-0.7 1.3-1.3 2-1.8 0.4-0.7 0.9-1.3 1.5-1.9 0.5-0.1 0.9-0.4 1.3-0.7v-1.5c0.3-0.2 0.6-0.2 0.9-0.3 0.3 0.9 1 1 1.5 1.4 0.5-0.4 1.2-0.4 1.4-1 0.1-0.7 0.3-1.4 0.4-2 0.1 0 0.2-0.1 0.3-0.1 0.4 0.5 0.8 1.1 1.2 1.7 0.3 0.1 0.9 0.4 1.5 0.8 0.7-0.3-0.2-1.2 0.7-1.7 0.5-0.1 0.9-0.2 1.4-0.3 0-0.4-0.4-0.9 0.1-1.3 0.3 0 0.7-0.1 0.9 0.2 0.7 0.2 1.2 0.4 1.9 0.6 1.1 0 0.1-2.4 1.9-1.2 0 0.5-0.1 1-0.1 1.5 0.6 0.1 1.2 0.2 1.7 0.4 0.4-1.1-0.2-1.4 0.1-2.8l0.6 0.1c-0.2 1.1 0.4 1 1 1 0.6-0.1 1.3-0.1 1 0.8 1.2 0.1 2.4 0.4 3.6 0.7 0.3-0.1 0.5-0.1 0.8-0.2 0.6 0.3 1.1 0.6 1.7 0.9 0.9 1 1 1.1 1.1 1.4 1.4 0.2 0.2 0.8 0.5 1.7 0.2 0.1 0.3 0.2 0.6 0.3 0.6 0.3 0.4-0.9 1.1-0.8 1 1.3 2.2 0.1 3.3 1.5 0.7 0 1.6 0.8 1.8-0.2 0.5 0.2 1.1 0.4 1.6 0.7 0.6 0 0.7-0.6 2-0.2 0.3 0.5 0.5 0.9 0.8 1.3 1.8 1.2 2.6 2.8 3 1.5 1 0 0.7 1.1 1.5 1.6 0.4 0 1 0.1 1.4 0.1 0 0.5 0 1-0.1 1.4l1.8 2.7c0.7 1 1.4 2.2 2.1 3.2-0.5 0.3-0.7 0.5-1 0.7 0 0.8 0 1.4-0.1 2.1-0.4 0.2-1 0.3-1.4 0.6-0.3-0.4-0.7-0.7-1-1.1-0.9-0.8-1.9-1.7-2.8-2.5l-0.4 0.3c-0.6-0.8-1.1-1.6-1.7-2.5-0.4 0.2-0.9 0.5-1.3 0.7-0.3-0.6-0.6-1.2-0.9-1.7-0.6-0.3-0.8 0.4-1.2 0.6-0.1-0.1-0.3-0.3-0.4-0.5l-0.6-0.6c0.1-0.1 0.3-0.2 0.4-0.4 0.3-0.3 0.7-0.7 1.1-1l1.2 0.6 1.1-1.8c-2.3-1.2-3.9-2.2-5.1-1.7-2.1-0.8-4-3.2-5.4-2.5 0.7 0.7 0.9 0.9 1.1 1-0.3 1.2-1.4 1.2-2.5 0.2-0.3 1.1-1.2 1.2-1.4 1.8-0.6-1.4-1.5 0-2.5-0.7l-0.5 1.1c-0.2 0.1-0.4 0.1-0.6 0.3-0.7-0.4-1.4-0.8-2.1-1.1-1-0.3-1.8-0.5-2.8-0.7-0.7-0.3-1.4-0.5-2.2-0.7-0.3-0.1-0.7-0.3-1.1-0.5-0.9-0.4-1.2-0.1-1.3 0.3s-0.1 0.8-0.6 0.9c-0.8-0.2-1.5-0.3-2.2-0.3-1.5-0.2-1.9 0.7-2.6-0.3 0 0.6-0.2 0.8-0.4 1s-0.4 0.3-0.3 0.6c-0.4 0.5-0.8 0.9-1.3 1.3s-1 1-1.2 1.7c-0.2 0.5-0.4 1.2-0.5 1.8-0.1 0.1-0.2 0.3-0.2 0.5-0.4 0-0.7-0.1-1.1 0-0.4 0.6-0.2 1 0 1.2 0 1.2-0.6 3-0.5 4.5 0.3 0 0.5 0.1 0.7 0.2-0.1 0.3-0.3 0.6-0.4 1 0 0.4 0.1 0.8 0.1 1.2 0.6 0.4 1.1 0.7 1.7 1l0.4 1c-0.3 0.2-0.6 0.3-0.9 0.5 1 0.7 1 1.5 1 2.3 0 0.4 0 0.9 0.2 1.3 0.1 0.4 0.4 0.8 0.9 1.2-1 0.1-0.4 1.3 0.2 1.4 0.1 0.3 0.1 0.5 0.2 0.8l-1.5 1.5c0.4 1 0.9 2 1.4 3 0.5 0.6 1 1.1 1.4 1.7 1.1 0.1 2.2 0.2 3.3 0.2 0.1-0.5 0.2-0.9 0.2-1.4 1.2 0.3 1.6 0.9 2.1 1.4 0.1 0.3 0.2 0.5 0.4 0.8 0.5 0.2 1.1 0.4 1.6 0.7 0.1 0.4 0.2 0.7 0.2 1 1.1 0.8 2.3 1.7 3.4 2.5 0.2 0.8 0.4 1.7 0.6 2.6 1 0.3 1.7 0.9 2.4 1.6z"/>
					
					
						<path class="st3" d="m376.7 104.5c0.4 3.1-1.9 1-1.4 0.3l1.4-0.3z"/>
					
					
						<path class="st4" d="m445.3 174.2c0-1 0-2-0.1-2.9 0.7 0.4 1.5 0.7 2.2 1.1 0.1 0.7 0.2 1.4 0.2 2.1-0.4 0.4-0.8 0.8-1.1 1.3-0.4-0.5-0.8-1.1-1.2-1.6z"/>
					
					
						<path class="st4" d="m428.4 152.6c-0.5 0.2-1.2-0.4-2-0.8-0.6-0.2-1.1-0.4-1.6-0.6-0.1-0.4-0.3-0.9-0.4-1.4-0.4-0.3-0.8-0.5-1.2-0.8l0.3-1.2c0.4 0.1 0.8 0.3 1.2 0.3h0.6c0.5 1 0.9 2 1.3 3 0.9-0.2 1.3-1.6 2.5-0.7l0.6 1.8c-0.4 0.2-0.8 0.3-1.3 0.4z"/>
					
					
						<path class="st4" d="m417.1 147.6c-0.2-1.5-2.7-1.5-2.3-2.9l0.5-0.5c0.8 0.1 1.6 0.3 2.4 0.5 0.5 0.3 1 0.7 1.4 1l0.2 0.2c-0.1 0.6-0.3 0.7-0.5 0.9-0.5 0.3-1.1 0.6-1.7 0.8z"/>
					
					
						<path class="st4" d="m410 145.5c0-0.4 0.1-0.8 0.1-1.2 0.4-0.2 0.7-0.5 1.1-0.7 0.4 0.2 0.9 0.4 1.4 0.5 0 0.5 0 1.1-0.1 1.6-0.5 0.8-1.6-0.2-2.5-0.2z"/>
					
					
						<path class="st4" d="m412.8 141.3c-0.3-0.5-0.7-1-1-1.5-1.3-0.1-1.7-0.8-2.3-1.2l-2.4-1.5c-0.6-0.4-1.1-0.9-1.7-1.3-0.4-0.4-0.9-0.8-1.3-1.3-0.6-0.6-2.8-1.5-2.9-2.8-0.2-0.6 0.5-1.3-0.9-1.9-0.8-0.5-1.9-1.5-0.9-1.9 0.9-0.5 2 1.1 3 1.6 0.4-0.2 0.8-0.3 1.3-0.6 0.8 0.9 1.8 1.6 2.8 2.4-0.1 0.6-0.3 1.3-0.5 1.8l1.2 0.9c1.1 0.5 2.3 1 3.4 1.6 0.1 0.1 0.2 0.1 0.3 0.2 0.8 1.2 1.5 2.3 2.3 3.4 0.2 0.2 0.5 0.4 0.8 0.7-0.6 0.7-0.9 1-1.2 1.4z"/>
					
					
						<path class="st4" d="m399.3 146.9c0-0.1-0.1-0.2-0.1-0.4 0.5-0.6 0.9-1.2 1.4-1.7 0.6 0.2 1.2 0 1.7 0.6l-0.6 2.4c-0.7-1-1.7-0.1-2.4-0.9z"/>
					
					
						<path class="st4" d="m391.4 95.1c-0.7-0.3-1.5-0.6-2.2-0.9l-0.2-0.2 0.2-0.2c0.4-0.2 0.8-0.3 1.1-0.6 0.8-0.3 1.7 0.8 1.4 1.5-0.2 0.3-0.3 0.4-0.3 0.4z"/>
					
					
						<path class="st4" d="m381.1 95.4c-0.6-0.6-1.2-0.2-1.9-0.1v-0.4c-0.5-0.5-1-1.1-1.4-1.7-0.5-1-1-2-1.4-3l1.5-1.5 1.2 0.6c0.2 0.4 0.5 0.8 0.8 1.2-0.3 1.1 0.6 1 1 1.4 0.6 1.6 1.2 0.7 1.5 1.1 0.2 0.2 0.3 0.4 0.5 0.7-0.1 0.5-0.2 0.9-0.2 1.4-0.7 0.1-1.2 0.2-1.6 0.3z"/>
					
					
						<path class="st4" d="m380.9 78.3h1.3c0.9 0.4-0.2 0.5-1 1.2l-0.3-1.2z"/>
					
					
						<path class="st4" d="m380.1 75.1c0.1-0.3 0.3-0.5 0.5-0.8v-0.1c0.1-0.3 0.2-0.6 0.4-0.8 0.2-0.3 0.5-0.5 0.7-0.7 0.5 0.1 0.2-0.3 0.9 0.1 0.5 0.6 0.5 0.8 0.4 1s-0.2 0.4 0.2 0.8c-0.1 0.1-1.3-0.1-1.4 0.1 0.1 0.2 0.2 0.3 0.3 0.5 0.4 0.4-0.8 0.1-1.8 0.2-0.1-0.1-0.2-0.2-0.2-0.3z"/>
					
					
						<path class="st6" d="m378.6 74.6c0.1-0.3 0.1-0.5 0.2-0.7l-0.6-0.6c0.7-0.6 0.8-0.7 1.2-0.8v-0.6c0.1-0.4 0.2-0.9 0.4-1.3 0.7-0.1 1-0.1 0.5-0.5 0.1-0.1 0.3-0.2 0.4-0.3-0.6-0.7 0.1-0.5 0.3-0.5 0.3-0.3 0.7-0.6 1.1-0.8 0.1 0 0.2-0.1 0.4-0.1h0.1c0.3 0.3 0.5 0.7 0.8 1 0.1-0.4 0.6-0.3 0.8-0.9h0.1c0.2 0 0.4 0 0.6-0.1 0.2 0 0.4 0 0.7-0.1h0.3c0.4 0 0.8 0.2 1.2 0.3 0.2 0.3 0.3 0.6 0.4 1-0.1 0.4-0.2 0.8-0.2 1.2-0.9 0-1.8 0.1-2.5 0.3-0.2 0-0.4 0-0.6 0.1-0.3 0.1-0.5 0.3-0.8 0.4 0 0.1-0.1 0.2-0.1 0.3s0 0.2-0.1 0.3-0.2 0.1-0.4 0.2c0.5 0.6 0.3 0.5 0 0.3-0.3-0.1-0.7-0.3-0.5 0-0.7-0.4-0.4 0.1-0.9-0.1-0.3 0.2-0.5 0.4-0.7 0.7-0.1 0.3-0.3 0.5-0.4 0.8v0.1c-0.2 0.2-0.4 0.5-0.5 0.8-0.2-0.1-0.7-0.2-1.2-0.4z"/>
					
					
						<path class="st4" d="m383.4 72.2c0-0.1 0-0.2 0.1-0.3 0-0.1 0.1-0.2 0.1-0.3l0.3 0.7c-0.1 0-0.2 0-0.3-0.1 0 0.1-0.1 0.1-0.2 0z"/>
					
					
						<path class="st4" d="m384.4 71.2c0.2-0.1 0.4-0.1 0.6-0.1 0.2 1.4-0.2 0.5-0.4 0.5l-0.2-0.4z"/>
					
					
						<path class="st4" d="m391.8 71.6c0.1-0.1 0.2-0.2 0.3-0.4 0.6 0.2 1.3 0.4 1.9 0.7 0.1 0.2 0.1 0.4 0.1 0.6-1.5 0.7-2.1 1.1-2.8 0.2l0.5-1.1z"/>
					
					
						<path class="st2" d="m444.8 176.2c-0.2-1.3-0.1-1.7 0.6-2.1 0.4 0.5 0.8 1.1 1.2 1.6-0.1 0.3-0.2 0.5-0.2 0.9-0.6-0.1-1.1-0.3-1.6-0.4z"/>
					
					
						<path class="st2" d="m424.8 151.2c-0.7 0-1.3-0.3-1.7-0.6-0.4-0.4-0.7-0.9-0.8-1.3 0.2-0.1 0.5-0.2 0.8-0.2 0.4 0.2 0.8 0.5 1.2 0.8 0.2 0.4 0.4 0.9 0.5 1.3z"/>
					
					
						<path class="st2" d="m399.3 146.9c-1.7 0.7-2.7-0.4-3.1-1.1 0.1-0.5 0.2-0.9 0.2-1.4 1.1 0.2 2.8 1 2.8 2.1 0 0.1 0.1 0.3 0.1 0.4z"/>
					
					
						<path class="st2" d="m383.6 71.6c0.2-0.1 0.4-0.3 0.8-0.4l0.1 0.4c0.4 1.3 0.2 1 0.3 1.5-0.1 0.1-0.2-0.2-0.4-0.4-0.1-0.2-0.3-0.4-0.4-0.4l-0.4-0.7z"/>
					
					
						<path class="st2" d="m387.6 69.6c0.2 0 0.4 0.1 0.6 0.1 0.4 0.3 0.7 0.6 1 0.9l-0.1 0.8c-0.3 0-0.7 0.3-0.9 0.4-0.3 0.1-0.5-0.1-0.7-1-0.1-0.4 0-0.8 0.1-1.2z"/>
					
					
						<path class="st2" d="m390.9 71.2c0.3 0.1 0.6 0.2 0.9 0.4l-0.5 1.1c-0.2-0.3-0.5-0.6-0.7-0.8l0.3-0.7z"/>
					
					
						<path class="st5" d="m446.3 176.7c0-0.4 0.1-0.6 0.2-0.9 0.4-0.4 0.7-0.9 1.1-1.3 0.2 0.1 0.3 0.3 0.5 0.3 0.1 0.9 0.1 1.8 0.2 2.6-1.3 1.6-1.8 0.7-2-0.7z"/>
					
					
						<path class="st5" d="m441.2 150.8c-0.2-0.4-0.4-0.8-0.6-1.1-0.6-0.5-1.1-1.1-1.7-1.6-0.1-0.2-0.2-0.3-0.2-0.4-0.3-0.5-0.6-1-0.9-1.5-0.3-0.3-0.5-0.4-0.7-0.6 1.3-1.2-0.2-2.9-1.7-5.3-0.7-0.3-1.3-1.1-1.9-1.8-0.5-0.9-1-1.9-1.5-2.8 0.1-0.2 0.1-0.4 0.1-0.7 1.1 0.9 2.2 2 3.3 3 0.3-0.2 0.5-0.4 0.8-0.6 1 1.1 2.1 2.3 3 3.5 0.1 1.3 0.7 2.5 1.5 3.9 0.4 0.6 0.8 1.3 1.2 2s0.8 1.3 1.1 2c0.7 1.4-0.3 1.3-1 2.9-0.2-0.2-0.5-0.6-0.8-0.9z"/>
					
					
						<path class="st5" d="m422.3 149.3c-0.1-0.2-0.3-0.3-0.5-0.5-1.5 0.4-2.1-1.1-3-1.8 0.2-0.2 0.4-0.4 0.5-0.9 0.7 0.3 1.4 0.7 2 1 0.4 0 0.8 0 1.2-0.1 0.3 0.3 0.6 0.7 0.9 1-0.1 0.4-0.3 0.8-0.3 1.2-0.2-0.1-0.5 0-0.8 0.1z"/>
					
					
						<path class="st5" d="m420.3 144.1c-0.4-0.7-1-1.4-1.5-2.1l0.2-0.2c1 0.7 1.6-0.9 2.2 0.4l-0.3 1.8c-0.2 0.1-0.4 0.1-0.6 0.1z"/>
					
					
						<path class="st5" d="m414.4 142.7c-0.3-0.2-0.6-0.4-1-0.5-0.2-0.3-0.4-0.5-0.6-0.8 0.3-0.4 0.7-0.7 1.2-1.3 0.5 0.6 0.9 1.1 1.5 1.6-0.5 0.4-0.8 0.7-1.1 1z"/>
					
					
						<path class="st5" d="m408 123.6c-0.9 0.5-1 1.1-1.3 0.6-1.9-0.7 0.1-1.8 0.5-1.8 0.2 0.4 0.5 0.8 0.8 1.2z"/>
					
					
						<path class="st5" d="m406 120.3c0.9-0.6 1.1-0.5 1.4-0.5 1.2 0.5 0.2 1.1-0.2 2l-1.2-1.5z"/>
					
					
						<path class="st5" d="m403.8 119.6c-0.4 1-1.5 1.1-2.3 0.1 0.3-0.1 0.1-0.6-0.2-0.8-1.1-1.3-1.6-0.2-3-1.4-0.5 1.1-1.1 0.4-1.8-0.2-0.5-0.4-1.1-0.9-1.6-1.3-0.5-0.3-1.1-0.6-1.5-0.9 0.2-0.4 0.4-0.9 0.7-1.4-0.1-0.2-0.2-0.4-0.4-0.6-0.7-0.5-1.3-0.9-2-1.4-0.6-2.4 2.2 1 1.7-1.5 0.4 0.3 3.1 0.4 1.7 1.8 0.2 0.3 0.5 0.6 0.6 0.8 1.3 0.6 1.3-0.1 1.7-0.3 1.6 1 1.8 1.8 3 2.9-1.1 1.8 2.2 2.8 3.4 4.2z"/>
					
					
						<path class="st5" d="m396.6 108.2c-0.5-0.5-1.2 0.1-1.6-0.7-0.1-0.3-0.1-0.5 0.1-0.6-0.7-0.6-1.2-1.3-1.8-1.9 1.7-0.6 3.1 1.1 3.6 1.9 0.1 0.1 0.2 0.2 0.3 0.2 0.4 0.2 0.9 0.3 1.3 0.5 0.2 0.2 0.4 0.3 0.5 0.4 0.3 0.6 0.6 1.4 0.9 2 0.9 0.3 0.4 0.9 0.4 1.6-0.9-0.9-2.1-0.1-2.9-1.4-0.2-0.7-0.6-1.4-0.8-2z"/>
					
					
						<path class="st5" d="m382.2 93.1c-1.5 0.4-1.1-0.6-1.5-1.1s-1.3-0.3-1-1.4c0.5 0 1 0 1.5 0.1l0.3 0.4c0.2 0.2 0.5 0.4 0.7 0.6v1.4z"/>
					
					
						<path class="st5" d="m389.2 70.6c0.3-0.3 0.6-0.5 0.9-0.8 0.2 0 0.4 0.1 0.6 0.2 0.1 0.4 0.1 0.7 0.2 1.1l-0.3 0.7c-0.3-0.1-0.6-0.2-0.8-0.3s-0.5-0.2-0.7-0.2l0.1-0.7z"/>
					
					
						<path class="st7" d="m394.7 66.4 0.5-1.1c0.9 0.7 1.8-0.7 2.5 0.7 0.2-0.5 1.1-0.7 1.4-1.8 1.1 1.1 2.2 1 2.5-0.2-0.2-0.1-0.4-0.3-1.1-1 1.4-0.7 3.4 1.7 5.4 2.5 1.2-0.5 2.8 0.5 5.1 1.7l-1 1.8-1.2-0.6c-0.4 0.4-0.8 0.7-1.1 1l-0.4 0.4 0.6 0.6c0.2 0.2 0.3 0.3 0.4 0.5 0.4-0.2 0.6-0.8 1.2-0.6 0.3 0.5 0.6 1.1 0.9 1.7 0.4-0.2 0.9-0.5 1.3-0.7 0.6 0.8 1.1 1.6 1.7 2.5l0.4-0.3c0.9 0.8 1.9 1.6 2.8 2.5 0.3 0.4 0.7 0.7 1 1.1 0.5-0.2 1-0.4 1.4-0.6 0.3 1.1 0.6 2.1 0.9 3.2 0.2 0.1 0.4 0.3 0.6 0.4 0.6 0.1 1.2 0.1 1.9 0.2l1.3 2.1c0.7 0.6 1.5 1.2 2.2 1.7-0.3 0.7-0.6 1.4-0.8 2.1-0.5 0.2-1.1 0.3-1.7 0.5 0.2 0.6 0.4 1.1 0.7 1.7-0.2 0.3-0.4 0.6-0.7 0.8-0.1 0.6-0.1 1.2-0.2 1.7-0.6-0.1-1.2-0.1-1.8-0.2-0.7 0.6-1.4 1.2-2.1 1.9-0.1-0.3-0.3-0.6-0.5-0.9 0.4-0.7 0.7-1.4 1-2.1 0.3 0.1 0.7 0.1 1 0.2l0.1-0.8c-0.3-0.7-0.5-1.3-0.8-2 0.4-0.2 0.2-1 0.6-1.5l-1.2-0.6c-0.2-0.4-0.5-0.8-0.7-1.2h-2c-0.1-0.1-0.1-0.2-0.2-0.3l-1.1 0.6c-0.2-0.3-0.5-0.8-0.7-1.1 0.4-0.7-0.2-1.2-1.7-1.7-0.5-0.7-0.9-1.4-1.4-2.1-0.4-0.5-0.8-1.1-1.1-1.5-0.6-0.3-0.9 0.4-1.4 0.6-0.1 0-0.3 0-0.4-0.1-0.5-0.5-1.1-0.9-1.7-1.3-0.7-0.8-1.5-1.5-2.2-2.2-0.6-0.8-1.2-1.6-1.9-2.3-0.3-0.5-0.6-0.9-1-1.3 0-0.3 0.1-0.6 0.1-0.9-0.3-0.4-0.6-0.7-0.9-1.1 0.1-0.4 0.3-0.7 0.3-1.3-0.6 0.1-1.2 0.1-1.8 0.2-0.3 1.1-1.5 0.7-1.8 1.7-0.1 0-0.2 0-0.3 0.1-0.2-0.3-0.4-0.5-0.7-0.7-0.1-0.5-0.3-0.9-0.5-1.4-0.7-0.4-1.2-0.8-1.7-1.2z"/>
					
					
						<path class="st5" d="m424.9 86.1c0.3 0.5 0.9 0.6 2 1.9 0.5 1.7-0.8 1.1-1.2 1.4-0.6-0.4-1.3-0.5-1.8-1.1-0.3-0.5-0.5-1.1-0.7-1.7 0.6-0.1 1.2-0.3 1.7-0.5z"/>
					
					
						<path class="st8" d="m421.3 146.9c-0.6-0.3-1.3-0.6-2-1l-0.2-0.2c0.4-0.6 0.8-1.1 1.2-1.6 0.2-0.1 0.4-0.1 0.6-0.1 0.4 0.2 0.9 0.5 1.4 0.7l0.5 0.5c-0.1 0.5-0.1 1.1-0.2 1.6-0.5 0.1-0.8 0.2-1.3 0.1z"/>
					
					
						<path class="st7" d="m435.4 138.1c-1.1-0.8-2.3-1.6-3.4-2.3 0.1-0.2 0.1-0.4 0.1-0.7-0.6-0.8-1.2-1.6-1.8-2.4-1.2 0.1-2-1-2.7-1.6-0.7-0.7-1.3-1.4-2-2.1-0.5-0.2-1-0.4-1.6-0.7-0.2-0.5-0.2-0.9-0.4-1.3l-1.4-1.4c-0.7-0.7-1.4-1.3-2.1-1.9 0.3-0.1 0.7-0.3 1-0.5 0.5 0.7 0.9 1.3 1.4 2 0.8-1.3-0.4-1.8-1.1-2.4 0.2-0.2 0.3-0.4 0.5-0.6 1.1 0.4 2.2 0.8 3.2 1.2 0.6 0.8 1.2 1.7 1.8 2.5 1 1 1.9 2.1 2.9 3.2-0.7 0.1-1.4 0.1-2 0.2 0.1 0.4 0.3 0.8 0.6 1.2 0.8 0.5 1.5 0.9 2.3 1.4 0.3-0.2 0.7-0.3 1.1-0.4 0.6 0.8 1.3 1.5 2 2.4 0.9 1.2 1.8 2.4 2.7 3.7-0.6 0.1-0.8 0.3-1.1 0.5z"/>
					
					
						<path class="st8" d="m430.5 131.8c-0.8-0.5-1.5-0.9-2.3-1.4l-0.6-1.2c0.6-0.1 1.3-0.2 2-0.2 0.6 0.8 1.3 1.7 1.9 2.5-0.3 0-0.7 0.2-1 0.3z"/>
					
					
						<path class="st8" d="m422.4 125.1c-0.5-0.7-0.9-1.4-1.4-2-0.3 0.2-0.6 0.4-1 0.5-0.7-0.5-1.4-1.1-2.1-1.6-1-0.7-1.8-1.4-2.8-2.1-0.3-0.7-0.6-1.4-1-1.7-0.6-0.3-1.1-0.5-1.6-0.9-2.1-1.3-4.2-2.7-6.2-4-0.1-0.1-0.2-0.2-0.3-0.2-0.7-1.5-1.1-1.8-1.7-2.3l-0.5 0.6-0.5-0.4c-0.8-1.1-1.1-1.5-1-2-1.3 0.5-2-0.4-2.3-1h-0.8c-0.2-0.1-0.3-0.3-0.5-0.4-0.4-0.2-0.9-0.3-1.3-0.5-0.1 0-0.2-0.1-0.3-0.2 0-0.6 0.2-1.1 0.3-1.8 0.1 0 0.3 0 0.4 0.1l1.3 1.1c0.2-0.3 0.4-0.5 0.7-0.8 0.6 0.2 1.3 0.5 2 0.7 0.1 0.3 0.3 0.4 0.4 0.6 0.1 0.1 0.2 0.1 0.3 0.2 2.7 0.6 2.4 1.9 3.4 2.7 1.2 0.8 2.5 1.7 3.8 2.5-0.4 2 0.9 1.4 1.6 1.8s1.5 0.8 2.2 1.3c2.3 0.7 3.4 2.9 5.6 4.4l3.1 2.4c-0.1 0.2-0.3 0.4-0.5 0.6 0.3 0.6 1.5 1.2 0.7 2.4z"/>
					
					
						<path class="st8" d="m391.2 99.6-0.7 0.7c-1.1-0.8-2.3-1.7-3.4-2.5-0.1-0.3-0.2-0.6-0.2-1l0.3-1.5c-0.6-0.3-1.1-0.7-1.6-1-0.4-0.7-0.8-1.4-1.1-2.1-0.9 0-1.8-0.8-2.2-0.4-0.3-0.2-0.5-0.4-0.7-0.6l-0.3-0.4c-0.1-0.5-0.1-1.1-0.1-1.5-0.9-0.4-1-1.7-1.8-2.1 0-0.5 0-1 0.1-1.5 0-0.8-1.2-0.8-0.5-1.7-0.3-0.7-0.5-1.4-0.8-2.1-0.2-0.3-0.5-0.6-0.8-0.9 0.1-0.2 0.1-0.3 0.2-0.4-0.4-0.4-0.7-0.8-1-1.2 0.1-0.3 0.2-0.6 0.4-0.8-0.3-0.3-0.8-0.6-1.1-1 0.3-0.3 0.5-0.6 0.8-0.9-0.4-0.4-0.6-0.9-0.7-1.3s-0.1-0.9-0.5-1.3c-0.3-0.2-0.2-1.5 0.6-1.1 0.8-0.2 0.2-1.8 1.7-0.9-0.2 0.9 0.8 0.9 0.5 1.3-0.9 0.8-0.9 1.2-0.5 1.6 0.2 0.3 0.6 0.6 0.8 0.9-0.3 0.3-0.7 0.5-1.1 0.8 0 0.5-0.1 1 0.8 1.4 0.4-0.6 1-1.1 1.5-1.5 1 0.1 1.2 0.1 1.5 0.1-0.4 0.6-0.4 1.1-0.4 1.8 0 0.4 0.1 0.8 0.2 1.2 0.1 0.5 0.1 1.1 0.3 1.8 0 0 0 0.1 0.1 0.2 1.3 0.9 1.6 1.7 1.9 4.1 0.3 0.9 0.7 1.8 1.2 2.8-0.6-0.1-1.2-0.3-1.8-0.4 0 0.4-0.1 0.9-0.1 1.3 0.6 0.8 1.9 0.5 2.6 1.1 1.8 0 3.4 1.7 3.8 3.4v0.4c0.1 0.5 0.2 0.9 0.2 1.4 0.5 0.5 1 0.9 0.9 1.7 0.4 0.3 0.8 0.6 1.3 0.9l0.5 0.5c-0.4 0.2-0.6 0.4-0.8 0.7z"/>
					
					
						<path class="st8" d="m376.7 70.8 0.9-0.6c0.3 0 0.5 0 0.7-0.1-0.1-0.2-0.1-0.4-0.2-0.5 0.3-0.4 0.7-0.8 1.1-1.1-0.6-0.6 0.3-0.4 0-0.9 0.4-0.4 0.9 0.5 1.3 0.3-0.3-0.7-0.4-0.9-0.5-1.1 0.3-0.2 0.6-0.3 1.1-0.5 0-1 0.3-1.4 0.7-1 0.2 0.3 0.4 0.6 0.5 0.9 1.1 0.1 1.5-0.3 1.9-0.9 0.4-0.1 0.9-0.1 1.3-0.1 0.3 0.3 0.6 0.5 0.8 0.7 0.3-0.5 0.5-1 0.8-1.5 0.2 0.3 0.5 0.7 0.7 1 0.2 0 0.5 0.1 1 0.1 0.2-0.2 0.3-0.4 0.5-0.7 1 0.2 1.8 0.4 2.8 0.7-0.1 0.9-0.2 1.8-0.3 2.8-0.3-0.2-0.5-0.4-0.8-0.6-0.7-1.2-1.2-0.5-1.4-0.1-0.6 0.4-0.7-0.2-0.9-1-0.3 0.1-0.6 0.2-0.9 0.4-0.4-0.3-0.8-0.6-1.2-0.8-0.3 0.4-0.7 0.8-0.9 1.3-0.6-0.2-0.8-0.1-1.1 0.9h-0.1c-0.2 0.6-0.6 0.5-0.8 0.9-0.2-0.4-0.5-0.7-0.8-1h-0.1c-0.1 0-0.2 0.1-0.4 0.1-0.4 0.3-0.8 0.5-1.1 0.8-0.2 0-0.9-0.2-0.3 0.5-0.1 0.1-0.3 0.2-0.4 0.3 0.4 0.4 0.2 0.4-0.5 0.5-0.2 0.4-0.3 0.8-0.4 1.3-0.3-0.1-0.6-0.3-0.9-0.5-0.2 0.1-0.5 0.2-0.7 0.3-0.6-0.2-1-0.5-1.4-0.8z"/>
					
					
						<path class="st9" d="m394.1 66.6c0.1 0.6 0.1 1.2 0.2 1.7-0.8 0.9-1.3 1.3-1.1 1.7 0.4 0.7 0.7-0.7 1.1 0 0.1 0.2 0.3 0.3 0.4 0.5-0.3 0.5-0.5 0.9-0.7 1.3-0.6-0.3-1.3-0.5-1.9-0.7-0.2-0.7-0.5-1.3-0.8-1.9l0.3-0.9c-0.3-0.2-0.5-0.4-0.8-0.6 0.3-0.8 0.7-1.5 1.1-2.2 0.8 0.3 1.5 0.7 2.2 1.1z"/>
					
					
						<path class="st8" d="m394.7 66.4c0.5 0.4 1 0.9 1.4 1.3-0.6 0.2-1.1 0.5-1.7 0.7 0 0-0.1-0.1-0.2-0.1-0.1-0.6-0.1-1.1-0.2-1.7 0.3-0.1 0.5-0.2 0.7-0.2z"/>
					
					
						<path class="st8" d="m397.6 69.8c0.4-1 1.6-0.7 1.8-1.7 0.6-0.1 1.2-0.1 1.8-0.2-0.1 0.6-0.2 1-0.3 1.3 0.3 0.3 0.6 0.7 0.9 1.1 0 0.3 0 0.6-0.1 0.9-0.5 0-1 0.1-1.4 0.1-0.8-0.4-1.5-0.8-2.3-1.1-0.1-0.2-0.2-0.3-0.4-0.4z"/>
					
					
						<path class="st8" d="m409 78.2c0.9-1.3 2-0.5 2.9 0.2-0.2 0.2-0.3 0.5-0.4 0.7 0.5 0.7 0.9 1.3 1.4 2.1 1.5 0.5 2.1 1 1.7 1.7 0.2 0.4 0.5 0.8 0.7 1.1l1.1-0.6c0 0.1 0.1 0.2 0.2 0.3 0.1 0.4 0.2 0.9 0.3 1.4-0.4 0.2-0.7 0.4-1.1 0.6-1-0.4-2-1.4-2.8-2.6-0.6-0.3-1.2-0.5-1.7-0.8-0.2-0.9-0.4-1.7-0.6-2.6-0.6-0.5-1.2-1-1.7-1.5z"/>
					
					
						<path class="st8" d="m412.5 76.4c0.9 0 1.3 0.9 1.7 1.5-0.4 0.3-0.8 0.5-1.3 0.8-0.2-0.3-0.3-0.5-0.5-0.8 0.2-0.4 0.1-1 0.1-1.5z"/>
					
					
						<path class="st8" d="m419.3 84.8 1.2 0.6c-0.4 0.5-0.2 1.3-0.6 1.5 0.3 0.7 0.6 1.3 0.8 2l-0.1 0.8c-0.3-0.1-0.7-0.1-1-0.2-0.4 0.7-0.7 1.4-1 2.1-0.4-0.5-0.7-0.9-1.1-1.4 0.3-0.4 0.6-0.8 1-1.3-0.3-0.6-0.7-1.2-1-1.7l0.5-1.5c0.4-0.4 0.8-0.7 1.3-0.9z"/>
					
					
						<path class="st7" d="m424.7 148.2-1.2-0.3c-0.3-0.3-0.6-0.7-0.9-1 0.1-0.5 0.1-1.1 0.2-1.6 1 0.7 1.8 1.3 2.7 2-0.1 0.3-0.1 0.6-0.2 1-0.2 0-0.4 0-0.6-0.1z"/>
					
					
						<path class="st7" d="m417.7 144.7c-0.8-0.2-1.6-0.4-2.4-0.5-0.3-0.5-0.6-1-0.9-1.5 0.3-0.3 0.6-0.6 1-1.1 0.4 0.3 0.8 0.5 1.2 0.7 0.7-0.1 1.5-0.2 2.2-0.3l1.5 2.1c-0.4 0.5-0.8 1.1-1.2 1.6-0.4-0.3-0.9-0.6-1.4-1z"/>
					
					
						<path class="st7" d="m415.1 119.9c-0.8 0.3-1.5-0.6-2.3-1.1-2.2-0.9-4.2-4.1-6.5-3.9-1.3-0.5 0.3-0.9-0.3-1.8l-2.2-1.7 0.5-0.6c0.7 0.9 1.3 1.7 2 2.5 2 1.3 4.1 2.7 6.2 4 0.6 0.4 1.1 0.6 1.6 0.9 0.4 0.3 0.7 1 1 1.7z"/>
					
					
						<path class="st7" d="m401.2 112.2c-0.3-0.2-0.5-0.4-0.8-0.6 0-0.7 0.5-1.3-0.4-1.6-0.4-0.7-0.7-1.4-0.9-2h0.8c1.3 0.7 1.9 0.6 2.3 1-0.1 0.5 0.2 1 1 2-0.8 0.6-0.8 1.8-2 1.2z"/>
					
					
						<path class="st7" d="m393.2 104.9h-0.4c-0.6-0.6-1.2-1.3-1.8-2-0.2-0.8-0.4-1.7-0.6-2.6l0.7-0.7c1.4 1.4 3 2.7 4.6 4 0.5 0.5 0.9 1 1.4 1.5l-0.3 1.8c-0.5-0.9-1.9-2.6-3.6-2z"/>
					
					
						<path class="st7" d="m385.2 96.1c-0.1-0.3-0.3-0.6-0.4-0.8-0.5-0.5-0.9-1.1-2.1-1.4-0.2-0.2-0.3-0.4-0.5-0.7 0-0.5 0-1 0.1-1.5 0.4-0.4 1.3 0.5 2.2 0.4 0.3 0.7 0.7 1.4 1.1 2.1 0.5 0.3 1 0.7 1.6 1-0.2 0.5-0.2 1-0.3 1.5-0.6-0.2-1.2-0.4-1.7-0.6z"/>
					
					
						<path class="st7" d="m379.7 90.6c-0.2-0.4-0.5-0.8-0.8-1.2l-1.2-0.6c-0.1-0.3-0.1-0.5-0.2-0.8-0.6-0.2-1.1-1.4-0.2-1.4-0.5-0.3-0.8-0.7-0.9-1.2-0.1-0.4-0.1-0.9-0.2-1.3 0-0.9-0.1-1.6-1-2.3 0.3-0.2 0.6-0.3 0.9-0.5l-0.4-1c-0.7-0.1-1.3-0.5-1.6-0.6 0-0.1 0-0.3-0.1-0.5-0.1-0.4-0.1-0.8-0.1-1.2 0.1-0.4 0.3-0.7 0.4-1-0.2-0.1-0.5-0.2-0.7-0.2-0.1-1.5 0.6-3.3 0.5-4.5-0.2-0.3-0.5-0.6 0-1.2h1.1c0.1-0.2 0.2-0.3 0.2-0.5 0.1-0.6 0.3-1.3 0.5-1.8 0.2-0.8 0.7-1.3 1.2-1.7s0.9-0.8 1.3-1.3c-0.1-0.3 0.1-0.4 0.3-0.6s0.4-0.4 0.4-1c0.7 1 1.1 0.1 2.6 0.3 0.8 0.1 1.5 0.1 2.2 0.3 0.4-0.1 0.5-0.5 0.6-0.9s0.4-0.7 1.3-0.3c0.4 0.1 0.7 0.3 1.1 0.5 0.7 0.2 1.5 0.4 2.2 0.7-0.2 0.2-0.3 0.4-0.5 0.7-0.4 0-0.7-0.1-1-0.1-0.2-0.3-0.5-0.7-0.7-1-0.3 0.5-0.5 1-0.8 1.5-0.2-0.2-0.5-0.5-0.8-0.7-0.4 0-0.9 0.1-1.3 0.1-0.4 0.6-0.9 1-1.9 0.9-0.1-0.3-0.3-0.6-0.5-0.9-0.3-0.4-0.7 0-0.7 1-0.4 0.2-0.8 0.3-1.1 0.5 0.1 0.2 0.3 0.4 0.5 1.1-0.4 0.1-1-0.7-1.3-0.3 0.2 0.5-0.7 0.3 0 0.9-0.4 0.3-0.7 0.7-1.1 1.1 0.1 0.2 0.2 0.4 0.2 0.5-0.2 0-0.4 0-0.7 0.1l-0.9 0.6c0.4 0.3 0.8 0.6 1.2 1l-0.1 0.2c-1.6-1-0.9 0.7-1.7 0.9-0.8-0.4-0.9 0.9-0.6 1.1 0.3 0.4 0.4 0.9 0.5 1.3s0.3 0.9 0.7 1.3c-0.3 0.3-0.5 0.6-0.8 0.9 0.3 0.4 0.7 0.7 1.1 1-0.2 0.2-0.2 0.5-0.4 0.8 0.3 0.4 0.6 0.8 1 1.2 0 0.1-0.1 0.3-0.2 0.4 0.3 0.3 0.5 0.6 0.8 0.9 0.2 0.7 0.5 1.4 0.8 2.1-0.7 0.9 0.5 0.9 0.5 1.7-0.1 0.5 0 1-0.1 1.5 0.8 0.4 0.9 1.7 1.8 2.1 0.1 0.5 0.1 1 0.1 1.5-0.4-0.1-0.9-0.1-1.4-0.1z"/>
					
					
						<path class="st7" d="m371 85.6c-0.2-0.5-0.4-0.9-0.5-1.4 0.5-0.2 1.1-0.3 1.7-0.5 0 0.1 0 0.2 0.1 0.3 0 0.4 0.1 0.8 0.1 1.1-0.6 0.2-1 0.4-1.4 0.5z"/>
					
					
						<path class="st7" d="m371.1 82.3c0.4-0.9 0.5-1.3 1-1.3 0.1 0.5 0.2 1 0.1 1.6-0.4 0-0.7-0.1-1.1-0.3z"/>
					
					
						<path class="st7" d="m371 71.7c-0.6-0.6-0.1-1 0-1.6 0.1-0.3 0.3-0.6 0.4-0.9l1.2 0.3c-0.1 0.5-0.3 1-0.4 1.6-0.2 0.4-0.7 0.5-1.2 0.6z"/>
					
					
						<path class="st7" d="m372.8 69.2c0.1-0.6 0.3-1.2 0.5-1.8 0.7-0.3 1-0.1 1.4 0.2-0.6 0.6-0.8 1.3-1 2.1-0.5-0.2-0.7-0.4-0.9-0.5z"/>
					
					
						<path class="st7" d="m386.3 59.1c0.3 0.6 0.5 1.2 0.8 1.8h-1.7c-0.9-0.7 0-1.9 0.9-1.8z"/>
					
					
						<path class="st7" d="m389.1 60.2c0.4 0.2 0.8 0.3 1.2 0.4-0.1 1.3-1.2 1.4-1.5 0 0.1 0 0.2-0.2 0.3-0.4z"/>
					
					
						<path class="st7" d="m395.7 61.9c0.5 0.1-0.1 0.6-0.1 1-0.9 0.2-1.7-0.6-1.8-1.3 0-1.6 1.2 0.2 1.9 0.3z"/>
					
					
						<path class="st7" d="m411.5 67.7c0.9-0.3 1.3 0.6 1.9 0.6 0.6 1 0.9 1.8-0.1 2.2-0.6-0.3-1.1-0.5-1.6-0.8-0.1-0.7-0.1-1.3-0.2-2z"/>
					
					
						<path class="st9" d="m410.9 114c-0.7-0.5-2 0.1-1.6-1.8 0.6 0.6 1.1 1.2 1.6 1.8z"/>
					
					
						<path class="st6" d="m399.5 105.4-1.3-1.1c-1.3-0.7-1.9-0.8-2.4-0.8-1.6-1.3-3.2-2.7-4.6-4 0.3-0.3 0.6-0.5 0.9-0.9l-0.5-0.5 0.7-0.7c1.7 0.7 2.5 1.1 2.6 1.8 2 1.7 4.1 3.4 6.2 5.1 0.9 0.3 0.4 0.9 0.4 1.6-0.7 0-1.4-0.3-2-0.5z"/>
					
					
						<path class="st9" d="m398.8 106.2-1.3-1.1c-0.1-0.1-0.3-0.1-0.4-0.1-0.5-0.5-0.9-1-1.4-1.5 0.5 0 1.1 0.1 2.4 0.8l1.3 1.1c-0.1 0.3-0.3 0.5-0.6 0.8z"/>
					
					
						<path class="st9" d="m391.6 98.2c-0.5-0.3-0.9-0.6-1.3-0.9 0.1-0.8-0.5-1.1-0.9-1.7-0.1-0.5-0.1-0.9-0.2-1.4 0.7 0.3 1.5 0.6 2.2 0.9 0.3 0.8 0.6 1.6 1 2.4-0.3 0.3-0.5 0.5-0.8 0.7z"/>
					
					
						<path class="st9" d="m385.4 90.4c-0.7-0.6-2.1-0.3-2.6-1.1 0-0.4 0.1-0.9 0.1-1.3 0.6 0.1 1.2 0.3 1.8 0.4 0.1 0.7 0.4 1.3 0.7 2z"/>
					
					
						<path class="st9" d="m378.4 78c-0.8-0.4-0.8-0.9-0.8-1.4 0.4-0.3 0.7-0.6 1.1-0.8-0.3-0.2-0.6-0.5-0.8-0.9-0.4-0.3-0.4-0.8 0.5-1.6l0.6 0.6c-0.1 0.3-0.2 0.5-0.2 0.7 0.5 0.2 0.9 0.3 1.4 0.5 0 0.1 0.1 0.2 0.2 0.2-0.2 0.2-0.3 0.4-0.4 0.6v0.5c-0.7 0.5-1.2 1-1.6 1.6z"/>
					
					
						<path class="st9" d="m379.9 70.7c0.7-0.1 1-0.1 0.5-0.5 0.4 0.3 0.2 0.4-0.5 0.5z"/>
					
					
						<path class="st9" d="m384.2 68.5c-0.2 0.6-0.6 0.5-0.8 0.9-0.2-0.4-0.5-0.7-0.8-1 0.3 0.3 0.5 0.7 0.8 1 0.2-0.5 0.7-0.3 0.8-0.9z"/>
					
					
						<path class="st9" d="m389.4 67.7c0.2-0.4 0.7-1.1 1.4 0.1-0.4-0.1-0.9-0.1-1.4-0.1z"/>
					
					
						<path class="st6" d="m394.4 68.4c0.1 0.3 0.2 0.5 0.4 0.8 0.6 0 1.2-0.1 1.8-0.1 0.3 0.2 0.5 0.5 0.7 0.7 0.1-0.1 0.2-0.1 0.3-0.1 0.2 0.1 0.3 0.2 0.4 0.3l0.3 2.1 0.3 0.3c0.6 0.2 1.1 0.5 1.7 0.7 0 0.2-0.1 0.3-0.2 0.6 0.1 0.5 0.3 1.1 0.4 1.7-1.1 0.5-1.5-0.4-2.3-0.4-0.5-0.4-1.1-0.8-1.7-1.1-0.2-0.1-0.4-0.3-0.5-0.4 0.1-0.3 0.2-0.5 0.3-0.8-0.1-0.3-0.3-0.6-0.4-0.9-0.4 0.2-0.7 0.5-1 0.8-0.2-0.1-0.5-0.2-0.8-0.2 0-0.2-0.1-0.4-0.1-0.6 0.3-0.5 0.5-0.9 0.7-1.3-0.1-0.2-0.3-0.3-0.4-0.5-0.4-0.7-0.7 0.7-1.1 0-0.2-0.4 0.2-0.8 1.1-1.7 0 0.1 0.1 0.1 0.1 0.1z"/>
					
					
						<path class="st9" d="m395.9 71.9c0.1 0.3 0.3 0.6 0.4 0.9-0.1 0.2-0.2 0.5-0.3 0.8-0.4-0.3-0.8-0.6-1.2-0.8 0.4-0.4 0.7-0.6 1.1-0.9z"/>
					
					
						<path class="st9" d="m398 70c0.9-0.3 1.4 0.5 2.3 1.1 0.5 0 1-0.1 1.4-0.1 0.4 0.4 0.7 0.8 1 1.3 0.7 0.7 1.3 1.5 1.9 2.3-0.8 0.5-1.7 1.1-2.5 1.6-0.5-0.3-1-0.6-1.6-0.9-0.1-0.6-0.3-1.2-0.4-1.7 0.1-0.2 0.1-0.4 0.2-0.6-0.5-0.3-1.1-0.5-1.7-0.7l-0.3-0.3c-0.1-0.6-0.1-1.3-0.3-2z"/>
					
					
						<path class="st6" d="m402.1 76.3c0.9-0.5 1.7-1.1 2.5-1.6 0.8 0.7 1.5 1.4 2.2 2.2 0.6 0.4 1.1 0.8 1.7 1.3 0.1 0.5 0.1 1 0.1 1.4 0.1 0.6-0.9 0.9-1.4 1.4-0.6 0-0.9-0.3-1.1-0.6 0.1-0.9 0.3-1.8 0.4-2.8-0.8 0.3-1.5 0.5-2.3 0.8-0.7-0.9-1.4-1.5-2.1-2.1z"/>
					
					
						<path class="st9" d="m406.5 77.5c-0.1 1-0.2 1.9-0.4 2.8-0.6-0.7-1.3-1.4-1.9-2.1 0.8-0.2 1.5-0.4 2.3-0.7z"/>
					
					
						<path class="st9" d="m409 78.2c0.5 0.5 1.1 1 1.7 1.5 0.2 0.9 0.4 1.7 0.6 2.6-0.9 0.1-1.9 0.2-2.8 0.4-0.4-0.6-0.8-1.2-1.2-1.7 0.5-0.4 1.5-0.8 1.4-1.4 0-0.4 0-0.9-0.1-1.4h0.4z"/>
					
					
						<path class="st9" d="m418.6 83.6c0.2 0.4 0.5 0.8 0.7 1.2-0.5 0.3-0.9 0.5-1.3 0.7-0.4-0.2-0.8-0.3-1.2-0.5 0-0.5-0.2-1-0.3-1.4h2.1z"/>
					
					
						<path class="st6" d="m411.2 82.3c0.6 0 0.8 0.4 1.3 0.7 0.2 0.1 0.3 0.1 0.4 0.1 0.8 0.6 1.6 1.3 2.4 2 0.1 0.2 0.3 0.4 0.4 0.6 0.4-0.2 0.7-0.4 1.1-0.6 0.4 0.2 0.8 0.3 1.2 0.5l-0.5 1.5c-0.3 0-0.6 0-0.9 0.1v2c0.3 0.3 0.6 0.7 0.9 1.1 0.4 0.5 0.7 0.9 1.1 1.4 0.2 0.3 0.4 0.6 0.5 0.9-0.4 1.8-1.2 1.7-1.7 2.1-1-0.4-1.2-2.5-2.3-2-0.5-0.9-1.1-2-1.7-2.9-0.4-0.7-0.9-1.5-1.3-2.2-1.1-0.8-1.3-1.1-1.6-1.7-0.7-1-1.3-2.1-2-3 0.8-0.4 1.8-0.5 2.7-0.6z"/>
					
					
						<path class="st9" d="m417.4 87c0.3 0.6 0.7 1.2 1 1.7-0.3 0.5-0.6 0.9-1 1.3-0.3-0.4-0.6-0.7-0.9-1.1v-2c0.3 0.1 0.6 0.1 0.9 0.1z"/>
					
					
						<path class="st6" d="m388.2 69.7c0-2.5 1.1-1.1 1.3-2 0.5 0 0.9 0 1.4 0.1 0.3 0.2 0.6 0.4 0.8 0.6l-0.3 0.9c0.3 0.6 0.6 1.3 0.8 1.9-0.1 0.1-0.2 0.2-0.3 0.4-0.3-0.2-0.6-0.3-0.9-0.4-0.1-0.4-0.1-0.7-0.2-1.1-0.2-0.1-0.4-0.1-0.6-0.2-0.3 0.2-0.6 0.5-0.9 0.8-0.4-0.4-0.8-0.7-1.1-1z"/>
					
					
						<path class="st5" d="m432 135.8c-1.9-0.4-4-2.9-6.1-4.2-0.7-1-1.4-2-2.2-3-2-0.6-4.1-2.7-5.8-3-0.4-2-3.9-3.1-5.8-4.9-1.6 0.2-1.8-1.8-3-2.5-2.2-1.6-4.6-3.8-6.7-4.7-0.4-0.4-0.8-0.8-1.2-1.3 1.3 0.5 1.2-0.7 2-1.3l0.5 0.4 2.2 1.7c0.1 0 0.2 0.1 0.3 0.2 2.4 1.6 4.3 4.7 6.6 5.4l2.3 1.1c1 0.7 1.8 1.4 2.8 2.1 0.7 0.5 1.4 1.1 2.1 1.6 0.7 0.6 1.4 1.3 2.1 1.9 0.5 0.5 1 0.9 1.4 1.4 0.2 0.5 0.2 0.9 0.4 1.3 0.6 0.3 1.1 0.5 1.6 0.7 0.7 0.7 1.4 1.5 2 2.1 0.7 0.5 1.5 1.7 2.7 1.6 0.6 0.8 1.2 1.6 1.8 2.4v1z"/>
					
					
						<path class="st8" d="m430.5 131.8c-0.1 0.2-0.2 0.5-0.2 0.8 0.1-0.2 0.1-0.5 0.2-0.8z"/>
					
					
						<path class="st7" d="m397.2 105c0.1 0 0.3 0 0.4 0.1-0.2 0-0.4-0.1-0.4-0.1z"/>
					
					
						<path class="st7" d="m411.4 79.1c0.1-0.3 0.3-0.5 0.4-0.7-0.1 0.2-0.2 0.5-0.4 0.7z"/>
					
					
						<path class="st9" d="m382.8 88c-2.4-1.3-2.1-3.2-3.4-4.3 0-0.3 0.1-0.7 0.1-1 0-0.4-0.1-0.7-0.1-1.1 0.7-0.1 1.3-0.2 2-0.3 0 0 0 0.1 0.1 0.2-0.1 0.3-0.1 0.7-0.1 1 0 0.4-0.1 0.7-0.1 1.1l0.6 1.2c0.1 0.7 0.8 0.6 1.1 1-0.1 0.7-0.2 1.5-0.2 2.2z"/>
					
					
						<path class="st9" d="m378.3 73.3c0.3-0.4-0.7-0.4-0.5-1.3l0.1-0.2c0.2-0.1 0.5-0.2 0.7-0.3 0.3 0.1 0.6 0.3 0.9 0.5v0.6c-0.4 0-0.5 0.1-1.2 0.7z"/>
					
					
						<path class="st9" d="m384.3 68.4c0.2-1 0.4-1.1 1.1-0.9 0.3-0.4 0.6-0.9 0.9-1.3 0.4 0.3 0.9 0.5 1.2 0.8 0.3-0.2 0.6-0.3 0.9-0.4 0.2 0.7 0.4 1.3 0.9 1-0.1 1-1.3-0.5-1.3 2-0.2 0-0.4-0.1-0.6-0.1-0.1-0.4-0.3-0.7-0.4-1-0.4-0.1-0.8-0.3-1.2-0.3h-0.3c-0.2 0-0.4 0-0.7 0.1 0 0.1-0.2 0.1-0.5 0.1z"/>
					
					
						<path class="st9" d="m384.2 68.5h0.1-0.1z"/>
					
					
						<path class="st9" d="m394.4 68.4c0.6-0.2 1.1-0.5 1.7-0.7 0.2 0.5 0.4 0.9 0.5 1.4-0.6 0-1.2 0-1.8 0.1-0.1-0.2-0.2-0.5-0.4-0.8z"/>
					
					
						<path class="st9" d="m394.3 68.3s0.1 0.1 0.2 0.1c-0.1 0-0.2 0-0.2-0.1z"/>
					
					
						<path class="st6" d="m408.6 78.1c0.1 0.1 0.3 0.1 0.4 0.1-0.2 0-0.3 0-0.4-0.1z"/>
					
				</g>
			</g>
		
	

</svg>
