<?xml version="1.0" encoding="utf-8"?>
<!-- Generator: Adobe Illustrator 19.0.0, SVG Export Plug-In . SVG Version: 6.00 Build 0)  -->
<svg version="1.1" id="Layer_1" xmlns="http://www.w3.org/2000/svg" xmlns:xlink="http://www.w3.org/1999/xlink" x="0px" y="0px"
	 viewBox="0 0 865 202" style="enable-background:new 0 0 865 202;" xml:space="preserve">
<style type="text/css">
	.st0{fill:#E96095;stroke:#010101;stroke-miterlimit:10;}
	.st1{opacity:0.85;}
	.st2{fill:#FCDEEA;}
	.st3{fill:#FEF2F7;}
	.st4{fill:#FACDDF;}
	.st5{fill:#F8BBD3;}
	.st6{fill:#F27EAF;}
	.st7{fill:#F6ADCA;}
	.st8{fill:#F59DC1;}
	.st9{fill:#F38EB8;}
</style>
<g id="Layer_1_1_">
	<rect id="XMLID_14_" x="-4.3" y="-3.3" class="st0" width="874" height="209.3"/>
</g>
<g id="XMLID_43_">
	<g id="XMLID_436_">
		<g id="XMLID_440_">
			<g id="XMLID_441_" class="st1">
				<g id="XMLID_442_" class="st1">
					<g id="XMLID_633_">
						<path id="XMLID_634_" class="st2" d="M445.5,179.8c-0.1-0.1-0.2-0.3-0.3-0.5l0.7-1.8l-1.4-2c-0.1-0.6,0-1.2-0.1-1.7
							c-0.2-0.7,0.4-1.5,0.9-2.6c0.2-1.9,0.5-3,0.4-4.2c-1.8-0.4,1.1-3.5,2.2-5.5c-0.5-0.4-1.1-0.8-1.6-1.1c0.9-0.9,0.6-1.9,1.8-3.2
							c-0.4-2.2,0.4-3.6,1.5-5.1c0.1-0.4,0.1-0.7,0.2-1c0.6-0.4,1.2-0.8,1.7-1.2c0.7-1.5-0.8-1.5-1.2-2.4c1-0.7,2-1.5,3.1-2.2
							c0.4,0,0.7,0,1.1,0c0.3,0.5,0.6,1.1,1,1.5c0,0.6,0,1.2,0,1.8c-1,1.4-1.1,2-0.9,2c0.6,1.6,1.9-0.9,2.9-1.7
							c0.2,0.1,0.5,0.2,0.8,0.3c-0.2,0.8-0.3,1.6-0.5,2.3c-1.2,2,0.2,2.3-1.7,3.7c0.2,0.3,0.3,0.6,0.5,0.9c-0.2,0.5-0.4,1-0.6,1.6
							c-0.2,0.1-0.4,0.2-0.6,0.4c-0.3-0.3-0.5-0.7-0.7-1.1c-0.1-0.3-0.1-1.1,0.8-1.8c-1.6-0.7-2.2-2.3-2.1-3.6
							c-1,0.1-0.8,1.2-1.6,1.8c-0.4,0.7-0.8,1.4-1.3,2.1c0.8,0.6,0.9,0.8,1.1,1c-0.5,0.6-1,1.2-1.6,1.6c-0.4,1.2-0.8,1.9-0.9,2.8
							c0.9,0.8,0.1,1.5,0,1.8c0.5,2.5-0.1,4.7-1.3,7.2c-0.5,0-1.1,0.9-1.7,1.6c0.3,1.3,0.4,2.3,1.4,2.5c0.2-0.3,0.4-0.4,0.5-0.6
							l1.8-3.2c0.2-0.4,0.3-0.9,0.5-1.4l-0.5-1.6c0.5-0.2,1-0.7,1.6-1.3c0.5-0.6,1.1-1.2,1.6-1.7c0.5-0.2,1-0.4,1.6-0.6
							c0,1.2-1,2.2-1.8,3.5c-0.9,1.2-1.7,2.3-2.5,3.5c-0.4,1-0.7,2.1-1,3.2c-0.8,2.1-0.5,4.1-1.8,4.9c-0.4,0.6-0.7,1.1-1.1,1.6
							L445.5,179.8z"/>
					</g>
					<g id="XMLID_631_">
						<path id="XMLID_632_" class="st3" d="M446,171.6c0.6-0.7,1.2-1.6,1.7-1.6c1.2-2.5,1.8-4.7,1.3-7.2c0.1-0.4,0.9-1,0-1.8
							c0.2-0.9,0.5-1.5,0.9-2.8c0.7-0.4,1.2-1.1,1.6-1.6c-0.2-0.2-0.4-0.3-1.1-1c0.5-0.7,0.9-1.4,1.3-2.1c0.8-0.6,0.6-1.7,1.6-1.8
							c0,1.3,0.5,2.9,2.1,3.6c-0.9,0.8-0.9,1.6-0.8,1.8c0.2,0.4,0.4,0.8,0.7,1.1c-0.5,0.6-0.9,1.2-1.4,1.8c-0.2,0.3-0.5,0.6-0.7,0.9
							c-0.2,0.3-0.4,0.6-0.6,0.9c0.7,0.6-1.4,2.4,0.2,2.4c-0.5,0.5-1.1,1.1-1.6,1.7c-0.5,0.6-1,1.1-1.6,1.3l0.5,1.6
							c-0.1,0.4-0.3,1-0.5,1.4l-1.8,3.2c-0.1,0.2-0.3,0.4-0.5,0.6C446.3,173.9,446.3,172.9,446,171.6z"/>
					</g>
					<g id="XMLID_629_">
						<path id="XMLID_630_" class="st4" d="M452.8,164.1c-1.6-0.1,0.5-1.8-0.2-2.4c0.2-0.3,0.4-0.6,0.6-0.9c0.2-0.3,0.5-0.6,0.7-0.9
							c0.5-0.6,0.9-1.2,1.4-1.8c0.2-0.1,0.4-0.3,0.6-0.4c0.2-0.6,0.4-1,0.6-1.6c-0.2-0.3-0.3-0.6-0.5-0.9c2-1.5,0.6-1.8,1.7-3.7
							c0.2-0.8,0.3-1.6,0.5-2.3c-0.2-0.1-0.5-0.2-0.8-0.3c-1,0.8-2.3,3.3-2.9,1.7c-0.3-0.1-0.2-0.7,0.9-2c0-0.6,0-1.2,0-1.8
							c-0.3-0.5-0.6-1.1-1-1.5c0.8-1.1,1.5-2.1,2.3-3.2l0.6-0.6c0.2-0.5,0.6-1.1,0.9-1.5c0.7,0.1,1.3,0.2,1.9,0.3
							c1.4-0.6-0.1-1.3,0.8-2.4c1.2-0.7,2.5-1.3,3.8-1.9c2.8-3,5.3-1,7.7-4.3c1.1-0.5,2.2-1.1,3.4-1.7c1.1-1.3,2.2-2.5,3.4-3.8
							l2.7-2.1c0,0.3,0.3,0.2,0.6,0.2c1.3-1,0.3-2.4,3.2-4.1c0.6-0.4,1.2-0.7,1.8-1.1c1-0.9,2.1-1.9,3.1-2.8c1.2-1,2.4-1.9,3.6-2.9
							c0.2-0.2,0.4-0.3,0.7-0.6c1.7-1.1,1.3,0.6,2.3,0.3c1.2-0.8,2.5-2.7,3.7-2.2c0.9-0.8,2-1.7,3-2.4c1.1-1.4,0.9-2.4,2.2-3.3
							c0.6-0.6,1.2-1.2,1.8-1.9c0.2-0.2,0.4-0.4,0.6-0.6c-0.3-1,0.7-1.8,1.3-2.2c0.6-0.8,1.2-1.7,1.8-2.5c0.5,0.2,0.9-0.2,1.3-0.8
							c0.5-0.6,0.9-1.2,1.5-1.3c1.3-1.3,2.5-2.6,3.7-3.9c0.8-2.4-0.2-5.2,1.5-4.4c1.1-1.4,1.1-3.5,2.5-5.4c0.8-1.7,1.5-3.6,2-5.5
							c-0.1-1-0.2-2.1-0.4-3.1l0-0.6c0-0.8,0-1.5,0-2.3c-0.1-1-0.4-2.1-0.6-2.9c-0.9-1.5-2-3.4-0.9-3.8c-0.1-0.3-0.2-0.6-0.3-0.8
							c-1.2-0.1-1.2-1.8-1.8-1.9c-0.4-0.1-1.2-1.8-0.9-2.6c-0.1-0.3-0.3-0.5-0.4-0.8c-0.6-0.9-1.2-1.8-1.8-2.6c-1.1,0-1.7-1.3-2-2
							c-0.5-0.6-1-1.1-1.5-1.7c-0.5-0.5-1-1.1-1.6-1.6c-1-0.9-2-1.8-3.1-2.6c-0.5,0.4-1.2,0.1-1.9-0.7c-0.7-0.7-1.4-1.7-1.7-2.7
							c-0.5-0.3-1-0.7-1.5-1c-0.6,0.1-1.2,0.1-1.8,0.1c-0.5-0.4-1.3-0.7-2-1.1c-0.6-0.4-1.2-0.7-1.4-1.2c-0.5-0.2-1.1-0.5-1.6-0.7
							c-1.7,0.2-1.5-0.7-2.6-0.9c-0.1,0-0.3-0.1-0.4-0.1l-0.6,1.6c-1.5,0.9-2-0.9-3.2-1.3c-0.4-0.2-0.7,0-1,0.1
							c-0.2,0.9-0.9,0.6-1.8,0.2c-0.9-0.4-1.9-0.8-2.6,0c-1.2,0-0.5-1.7-2.9-1.1c-0.4,0.9-1.6,1.1-3,1.1c-0.7,0-1.5,0-2.3,0
							c-0.8,0-1.5,0-2.1,0.1c-0.5,0.6-1,1.3-1.4,1.8c-2.5-0.2-4.1,1-5.6,2.3c-1.5,1.3-2.8,2.8-5.3,3.9c-1,0.1-1.6,0.7-2.3,1.3
							c-0.7,0.6-1.2,1.3-2.2,1.4c0.7,1.5-0.9,2.7-2.3,4.1c-1.4,1.3-2.7,2.8-1.6,4c-1.1,1.6-3,3.2-3.1,5c-1.5,0.2-1.7,0.3-1.9,0.6
							c-0.1,0.8,0.6,0.8,1,1.2c-0.5,0.7-0.9,1.3-1.5,1.9c-0.5-1.1-1.4,0.4-2.1,0.6c0.7,2.6-3.1,3.1-4.1,5.7c-0.2,1,0.4,1.6,0.8,2.2
							c0.4,0.6,0.5,1.2-0.6,2.4c0.7,1.8,0.5,2.1-0.6,3.9c-1.3,0.6-1.7,2.2-2.7,3.7c-0.4,0-0.8,0.1-1.3,0.1c-0.3,0.4-0.6,0.8-0.9,1.1
							c-1.5,0.7-2.7,0.9-3.5,2.6c-0.4-0.1-0.8-0.4-1.2-0.5c-0.1-1.1-0.2-1.7-0.3-2.3c-0.1-0.5-0.2-0.9-0.1-1.3c0.6-0.5,1.4-1,2-1.4
							c-0.1-1.1-0.2-2.3-0.2-3.5c0.3-1,0.6-2,0.9-3c-0.3-0.6-0.7-1.3-0.9-1.9c0-0.3,0.1-0.6,0.1-0.9c0.8-1.2,1.7-2.3,2.5-3.4
							c0.7-0.5,1.3-0.9,2-1.4c0.3,0.2,0.6,0.3,1.1,0.6c0.8-1.3,1.6-2.7,2.4-4c0.7-1.1,1.4-2.2,2.2-3.3c0.4-0.1,1-0.3,1.5-0.5
							c0-0.6-0.1-1.1-0.1-1.6c0.4-1.1,1.5-1.1,1.4-2.1c-1.4,0,0.2-1.4,1.6-3.7c0.5-0.4,1-0.7,1.5-1.1c0.6-1.6,0-1.7,0.1-2.4
							c0.4-0.7,0.8-1.3,1.3-2c-1.1-0.2,0.2-1.4,0.5-2.2c2.1-1.1,1.5-2.8,3.8-3.7c0.7-0.8-0.7-1,0.1-1.6c0.3-0.2,0.6-0.4,0.9-0.6
							c0.5,0.2,0.9,0.4,1.5,0.5c0.3-0.2,0.7-0.5,2.1-2c0.4,0.3,0.8,0.7,1.1,1.1c0.9-0.4,1.7-0.7,2.6-1c0.2-0.3,0.4-0.5,0.7-0.8
							c0.8-0.4,1.7-0.8,2.6-1.1c0.9-0.3,1.7-0.7,2.6-1c0.1,1,0.9,0.6,1.7,0.2c0.8-0.3,1.7-0.6,1.7,0.5c0.3-0.1,0.6-0.1,0.8-0.2
							c-0.1-1.4-1-1.5-0.8-2.7c0.9-0.1,1.9-0.2,2.8-0.2c0,0.5,0.1,1,0.1,1.5c2.7,0.8,1-1.4,2.8-1.5c1,0.2,1.9,0.3,2.8,0.6
							c0.3,0.3,0.9,0.3,1.3,0.3c0.9-0.2,0.5-0.8,0.6-1.2l2.4,0.2c1.7-0.1,0.8-1.3,2.2-1.2c1.5,1.4,1.9,2.2,2.6,3.7
							c0.7-0.4,1.5-0.8,2.3-1.2c0.8-0.3,1.9,0.4,2.9,0.6c0.3,0.7,0.8,1.4,0.2,2.2c0.3,0.2,0.7,0.5,1.1,0.7c0.6-0.2,1.2-0.4,1.8-0.6
							c0.7,0.3,1.4,0.6,2,1.2c1.2,0.5,2.3,1.1,3.4,1.6c0.5,0.4,1,0.9,1.6,1.4c0.5,0.5,1,0.9,1.5,1.4c0.6,0.2,1.2,0.5,1.8,0.8
							c0.6,0.3,1.2,0.5,1.7,0.9c1.1,0.7,2.1,1.5,3.1,2.3c1.2,1.8,2.4,3.6,3.5,5.6c0.2,0.2,0.3,0.5,0.5,0.8c0.2-0.1,0.4-0.2,0.6-0.4
							c0.5,0.4,1.1,0.8,1.6,1.3c0.6,0.6,1.1,1.3,1.6,1.9c0.4,0.8,0.8,1.8,1.2,2.7c0.2,0.6,0.5,1.2,0.7,1.9c0,2.4,0.4,2.6,0.4,3.5
							c0.5,1.2,1.1,0.6,1.5,1.4c0.1,0.7,0.2,1.4,0.3,2.1c-0.3,1.4-0.5,2.5-0.6,3.4c-0.1,1.4,0,2.6-0.4,4c-0.2,1.1-0.4,2-0.7,3
							c0.2,0.6,0.5,1.3,0.7,1.9c0.1,1,0.2,2,0.3,2.9c-0.3,1.1-0.5,2.1-0.8,3.1c-0.6,0.6-1.2,1.2-1.8,1.8c-0.8,1.1-1.6,2.1-2.3,3
							c-0.4,0.2-0.7,0.4-0.9,0.5c-0.1,0.7-0.2,1.4-0.3,2.1c-0.4,1-0.9,2.1-1.3,3.1c-0.1,0.1-0.2,0.2-0.3,0.4c-0.6,0-1.3,0-1.9,0.1
							c-0.2,0.2-0.4,0.4-0.6,0.7c0.2,1.2,0.9,0.6,1.1,1l-0.2,1c-1.9,2.4-2.5,0-3.8,2.6c0.2,0.4,0.4,0.9,0.6,1.2
							c-0.5,0.6-1,1.1-1.5,1.6c-1,0.7-2,1.4-3,2c-0.7,0.6-1.4,1.2-2.1,1.7c-0.7,0.5-1.4,1.1-2.1,1.6c-0.6,1.8,1.4-0.2,1.8,0.7
							c-0.4,1.8-0.2,1.7,0.1,1.6c1-0.5,0.6-1.3,1.3-1.9c0.1,0,0.3-0.1,0.5-0.1c0.4,0.4,0.7,0.9,1.2,1.3c-0.1,0.5-0.1,0.9,0,1.4
							c0,0.1-0.1,0.3-0.2,0.5c-1,0.8-1.9,1.5-2.8,2.3c-0.1-0.3-0.4-0.2-0.7-0.1c-1,0.5-0.6,1.3-1.4,1.9c-0.9,0.3-1.7,0.6-2.6,1
							c-1.7,0.8-1.3,2.1-2.6,3.1c-0.4,0.3-0.6,0.5-1,0.8c-0.6,0.4-1.2,0.8-1.8,1.2c-0.9,1.1-2.2,2.1-3.5,3.2
							c-1.4,1.1-2.8,2.1-4.1,3.1c-1.2,1.1-3.4,0.8-3.7,2.5c-2.5,1.5-4.7,4.7-6.7,4.6c-0.4,0.8-1.2,1.6-2.1,2.4
							c-0.9,0.8-1.7,1.7-2.1,2.6c-1.1,0.6-2.2,1.1-3.2,1.6c-1.4,1.8-3.9,3.5-4.1,5.3c-0.8,0.4-1.6,0.9-2.4,1.3
							c-0.6,0.5-1.2,1.1-1.4,1.7c-1.8,1.4-2.8,3-4.3,2.1c-0.1,0.2-0.2,0.5-0.3,0.7c-0.3,0.3-0.6,0.8-0.9,1.1c0,0.1-0.1,0.2-0.2,0.3
							c-0.2,0.6-0.4,1.3-0.6,1.9c-0.2,0.2-0.4,0.5-0.7,0.8c-0.2,0.4-0.4,0.7-0.5,1c-0.2,0.5-0.4,0.9-0.6,1.4
							C453.9,163.7,453.3,163.9,452.8,164.1z"/>
					</g>
					<g id="XMLID_627_">
						<path id="XMLID_628_" class="st2" d="M461,135.2c0.3-0.4,0.8-0.9,1.1-1.3c0.7-0.5,1.4-0.9,2.1-1.4c0.3-0.3,0.7-0.6,0.9-0.8
							c1.5-0.7,2.9-1.3,4.4-1.9c0.1-0.1,0.2-0.2,0.3-0.3l2.8-3.2c0.4-0.3,0.9-0.7,1.3-1c0.5,0.3,1.1,0.7,1.7,0.9
							c1.1-0.8,2.2-1.7,3.5-2.3c-0.1-0.5-0.1-1-0.1-1.5c0.9-1,2.9-1.7,2.7-2.7c-0.1-1.1-1.4-0.3-2.2,0.5c-1,1.2-1.5,0.4-2.2,0.5
							c0.2-0.6,0.4-1.2,0.7-1.9c1.8-0.8,4.8-5.1,5.3-2.5c1.2-1.1,2.5-2.1,4.3-3.1c-0.3-0.3-0.7-0.5-1-0.8c-0.9,0.1-2.6,2.1-2.7,0.5
							l3.8-3c0.8-0.3,1.6-0.7,2.4-0.9c0.1,0.7,0.9,0.3,1.5,0.6c0.8-1.1,1.7-2.3,2.5-3.4c0.4-1.4-0.1-1.5,0.2-2.9
							c0.7-0.6,1.3-1.2,2-1.9c2.3-0.9,1.4,1.4,2.4,2.1c0.3-0.1,0.6-0.1,1-0.2c1.3-1.8,2.6-3.6,3.9-5.4c0.1-2,4-4,2.8-5.6
							c0.8-1.1,2-2.5,2.1-3.8c-1-2.7-2.2,0.4-3.1,0c-0.4-1.1,0.7-1.8,0.3-2.6c0.8-1.4,1.6-3.3,2.2-4.9c0.1-0.1,0.1-0.2,0.2-0.3
							c0.1-0.2,0.2-0.4,0.3-0.6c0-0.9,0.1-1.8,0.1-2.6c0-0.3,0-0.6,0-0.9c0.4-0.3,0.7-0.7,1.1-1.1c-0.3-1.2,0.4-2,0.7-3
							c0-0.1,0.1-0.3,0.1-0.4c0.4,0.1,0.7,0.2,1,0.5c0.8,0.6,1.1,1.9,0.5,3c0.7,0.1,0.7,0.7,0.4,1.4c-0.2,0.7-0.6,1.4-0.4,2
							c1,0.6,1.8-0.2,2.6-1c0.8-0.8,1.5-1.7,2.7-1c0.6,1,0.5,2.2,0.4,3.2c-0.1,0.9,0,1.6,0.9,1.7c-0.5,2.1-2.1,2.1-2.7,4.4l1.1,0.7
							c1.2-2.3,2.4-4.5,3.3-6.8c0.9-2.3,1.4-4.6,1.1-6.6c-1,1-1.2,0.1-1.3-0.9c-0.2-1.2-0.3-2.4-1.4-1c0,0.3,0,0.7-0.1,1
							c-0.1,0.6-0.2,1.2-0.3,1.8c-0.5-0.7-0.8-1.3-0.8-1.8c0-0.4,0.1-0.7,0.1-1c-0.4-0.5-0.9-1-1.3-1.4c-0.8-1.5-1-2.4-1.8-4.1
							c-1,0.4-1.3-0.8-1.8-1.8c-0.5-1-1-1.6-1.9-0.2c-1.2,1.1-0.8-1.2-1.5-1.9c0.3-0.3,0.1-0.8-0.2-1.3c-0.3-0.5-0.8-1-1-1.5
							c-0.7,0-1.5-0.7-2,0.2c1,1.1-0.8,1,0.3,2.2c-0.7,0-1.5,1.8-2,0.2c-0.9,1.1-1.7,0.8-2.4,0.4c-0.8-0.4-1.6-1.1-2.4-0.8
							c-1.3,0.2-2.4-0.8-3.4-1.7c-2.2,1-4.4-0.3-6.8-0.3l-0.5,1.2c0,0-0.1,0-0.2-0.1c-0.2-0.3-0.4-0.5-0.5-0.7
							c-0.2-0.2-0.3-0.3-0.4-0.4c-0.4,0.6-0.7,1.1-1,1.7c-0.3,0.5-0.6,1-1,1.6c-0.4-0.1-0.8-0.2-1.1-0.3c-0.5-2,1.1-2.2,1.8-3.2
							c0.4-0.1,0.8-0.3,1.2-0.4c0.3-0.3,0.7-0.6,1-1c0.3-0.3,0.8-0.1,1.2,0c0.4,0.1,0.8,0.1,0.9-0.7c1.1,0.7,1.7-0.2,2.5-0.4
							c0.8-0.6,0-1.5-0.5-1.9c-0.7,0.1-1.2-0.1-1.5-0.3c-0.4-0.2-0.6-0.6-0.8-0.9c-0.2-0.3-0.5-0.6-0.8-0.7
							c-0.3-0.1-0.8-0.1-1.4,0.4c-1.3-1.3-4-1-4.9-2.3c-0.7-0.8-1.3-0.9-1.4-1.8c-0.7,0.1-1.4,0.7-2.1,1c-0.8,0.4-1.6,0.6-2.6,0.3
							c-0.9-0.3-1-2.2-3.2-1.4c-0.1,0.5-0.2,1.1-0.3,1.6c-1.3,0.8-2.7,0.2-2-1c0.4-0.2,1.1-0.1,1.6-0.7c-0.4-0.2-0.9-0.5-1.3-0.7
							c-0.5,0.1-1,0.2-1.5,0.5c-0.5,0.3-0.9,0.7-1.3,1.1c-0.8,0.8-1.5,1.6-2.4,2.1c-0.2-0.4-0.6-0.6-1.1-0.7c-0.5,0-1.1,0.2-1.7,0.5
							c-0.2,0.6-0.6,1.2-1.2,1.6c-0.5,0.4-1.1,0.7-1.7,0.4c-0.7,1-1.4,2-2,3c0,0.6,0.5,0.9,0.8,1.4c-1.5,1.3-2.6,3.3-3.8,5.1
							c-1.2,1.8-2.4,3.4-4.4,4c-0.8,1.5,2,0.7,0.5,2.6c-1.5,2-2.7-2.2-4.2,2c0.9,0.5,1.1,0.6,1.3,0.7c-0.4,0.6-0.8,1.9-1.5,1.8
							c-0.9,2.5,2,1.6,0.1,3.8c0.3,0.6,0.6,1,0.8,1.9c-0.2,0.9-0.5,1.8-0.7,2.6c-0.5-0.2-0.9-0.5-1.3-0.8c-0.5,0.3-1.1,0.6-1.6,0.9
							c-0.5,0.9-0.3,2.8-1.2,2.8c-0.9,0.2-1.9,0.3-2.8,0.5c-0.5,0.6-1,1.1-1.5,1.7c-0.5,0.3-0.9,0.7-1.3,1.1c0,0.5,0,1.1-0.1,1.6
							c-0.1,0-0.2,0-0.3,0c-0.4-0.1-0.8-0.3-1.2-0.5c-0.6-0.6-0.7,0.9-1.3,0.8c-0.8-0.5-1.5-1-2.2-1.6c1.4-1.5,1.9-1.8,2.9-2.7
							c0.2,0,0.4,0.1,0.5,0.1c0.3-0.4,0.6-0.8,0.9-1.1c0.5,0,0.9-0.1,1.3-0.1c1-1.6,1.4-3.1,2.7-3.7c1.1-1.8,1.2-2.1,0.6-3.9
							c1.1-1.2,1-1.8,0.6-2.4c-0.4-0.6-1-1.1-0.8-2.2c1-2.6,4.7-3.2,4.1-5.7c0.7-0.2,1.5-1.7,2.1-0.6c0.5-0.7,1-1.2,1.5-1.9
							c-0.4-0.4-1.1-0.4-1-1.2c0.1-0.3,0.4-0.4,1.9-0.6c0.1-1.8,2-3.4,3.1-5c-1.1-1.2,0.1-2.7,1.6-4c1.4-1.4,3-2.5,2.3-4.1
							c0.9-0.2,1.5-0.8,2.2-1.4c0.7-0.6,1.3-1.2,2.3-1.3c2.5-1.1,3.8-2.5,5.3-3.9c1.4-1.3,3.1-2.5,5.6-2.3c0.4-0.6,1-1.2,1.4-1.8
							c0.6,0,1.3,0,2.1-0.1c0.8,0,1.5,0.1,2.3,0c1.5,0,2.7-0.2,3-1.1c2.3-0.6,1.6,1.1,2.9,1.1c0.7-0.8,1.8-0.3,2.6,0
							c0.9,0.4,1.5,0.8,1.8-0.2c0.3-0.1,0.5-0.3,1-0.1c1.1,0.5,1.6,2.2,3.2,1.3l0.6-1.6c0.2,0.1,0.4,0.1,0.4,0.1
							c1,0.3,0.8,1.1,2.6,0.9c0.5,0.2,1.1,0.5,1.6,0.7c0.1,0.4,0.7,0.8,1.4,1.2c0.7,0.4,1.4,0.7,2,1.1c0.6,0,1.1-0.1,1.8-0.1
							c0.5,0.3,1,0.7,1.5,1c0.4,1,1,2.1,1.7,2.7c0.7,0.7,1.4,1.1,1.9,0.7c1,0.8,2.1,1.7,3.1,2.6c0.5,0.5,1.1,1.1,1.6,1.6
							c0.5,0.5,1,1.1,1.5,1.7c0.3,0.7,0.8,2,2,2c0.7,0.8,1.3,1.7,1.8,2.6c0.2,0.3,0.3,0.6,0.4,0.8c-0.2,0.8,0.5,2.5,0.9,2.6
							c0.7,0.1,0.7,1.8,1.8,1.9c0.1,0.3,0.2,0.6,0.3,0.8c-1.1,0.4,0,2.3,0.9,3.8c0.2,0.9,0.4,1.9,0.6,2.9c0,0.8,0.1,1.5,0,2.3l0,0.6
							c0.2,1.1,0.3,2.1,0.4,3.1c-0.5,1.9-1.2,3.8-2,5.5c-1.3,2-1.4,4.1-2.5,5.4c-1.7-0.8-0.7,2.1-1.5,4.4c-1.2,1.3-2.4,2.6-3.7,3.9
							c-0.6,0.1-1.1,0.7-1.5,1.3c-0.5,0.5-0.9,1-1.3,0.8c-0.6,0.8-1.2,1.7-1.8,2.5c-0.6,0.4-1.7,1.3-1.3,2.2
							c-0.2,0.3-0.4,0.5-0.6,0.6c-0.6,0.6-1.2,1.2-1.8,1.9c-1.3,0.9-1.1,1.9-2.2,3.3c-1,0.8-2,1.6-3,2.4c-1.1-0.5-2.5,1.4-3.7,2.2
							c-1.1,0.4-0.6-1.4-2.3-0.3c-0.3,0.2-0.5,0.4-0.7,0.6c-1.2,1-2.4,1.9-3.6,2.9c-1.1,0.9-2.1,1.9-3.1,2.8
							c-0.6,0.3-1.2,0.7-1.8,1.1c-2.9,1.6-1.9,3-3.2,4.1c-0.3,0-0.6,0.2-0.6-0.2l-2.7,2.1c-1.1,1.3-2.2,2.5-3.4,3.8
							c-1.2,0.6-2.3,1.2-3.4,1.7c-2.4,3.3-4.9,1.3-7.7,4.3c-1.3,0.6-2.6,1.2-3.8,1.9c-0.1-0.1-0.1-0.1-0.2-0.2
							C460.8,136.8,460.9,136,461,135.2z"/>
					</g>
					<g id="XMLID_625_">
						<path id="XMLID_626_" class="st5" d="M508.8,115.6c0.1-0.2,0.1-0.4,0.2-0.5c0-0.5,0-0.9,0-1.4c-0.4-0.5-0.8-0.9-1.2-1.3
							c-0.2,0.1-0.4,0.1-0.5,0.1c-0.7,0.6-0.3,1.4-1.3,1.9c-0.3,0.1-0.6,0.2-0.1-1.6c-0.4-0.9-2.4,1.1-1.8-0.7
							c0.7-0.5,1.4-1.1,2.1-1.6c0.7-0.5,1.4-1.1,2.1-1.7c0.9-0.6,1.9-1.3,3-2c0.5-0.5,1-1.1,1.5-1.6c-0.2-0.4-0.4-0.8-0.6-1.2
							c1.3-2.6,1.9-0.3,3.8-2.6l0.2-1c-0.3-0.3-0.9,0.2-1.1-1c0.2-0.3,0.4-0.5,0.6-0.7c0.7-0.2,1.5-0.4,2.2-0.5
							c0.4-1,0.9-2.1,1.3-3.1c0.1-0.7,0.2-1.4,0.3-2.1c0.3-0.2,0.6-0.3,0.9-0.5c0.7-0.9,1.5-1.9,2.3-3c0.6-0.6,1.2-1.2,1.8-1.8
							c0.3-1,0.5-2,0.8-3.1c-0.1-1-0.1-2-0.3-2.9c-0.2-0.6-0.5-1.2-0.7-1.9c0.3-1,0.5-2,0.7-3c0.4-1.4,0.3-2.6,0.4-4
							c0.1-0.9,0.2-2,0.6-3.4c-0.1-0.7-0.2-1.5-0.3-2.1c-0.5-0.8-1-0.2-1.5-1.4c0-0.9-0.5-1.1-0.4-3.5c-0.2-0.7-0.5-1.3-0.7-1.9
							c-0.4-1-0.8-1.9-1.2-2.7c-0.5-0.7-1-1.3-1.6-1.9c-0.5-0.5-1.1-0.9-1.6-1.3c-0.2,0.1-0.5,0.3-0.6,0.4c-0.2-0.3-0.4-0.6-0.5-0.8
							c-1-2-2.2-3.8-3.5-5.6c-1-0.8-2-1.6-3.1-2.3c-0.6-0.3-1.2-0.6-1.7-0.9c-0.6-0.3-1.1-0.5-1.8-0.8c-0.5-0.5-1-0.9-1.5-1.4
							c-0.5-0.5-1.1-0.9-1.6-1.4c-1.1-0.6-2.3-1.1-3.4-1.6c-0.6-0.6-1.3-0.9-2-1.2c-0.5,0.2-1.2,0.4-1.8,0.6
							c-0.4-0.2-0.8-0.5-1.1-0.7c0.6-0.8,0.1-1.5-0.2-2.2c-1-0.2-2-0.9-2.9-0.6c-0.8,0.4-1.6,0.8-2.3,1.2c-0.2,0-0.3-0.1-0.5-0.1
							c-0.1-0.7-0.2-1.4-0.4-2.1c-0.4-0.2-1.1-0.9-1.7-1.6c-1.4-0.1-0.4,1.1-2.2,1.2l-2.4-0.2c-0.1,0.4,0.3,1-0.6,1.2
							c-0.5,0-1.1,0-1.3-0.3c-1-0.3-1.8-0.5-2.8-0.6c-1.8,0.2,0,2.4-2.8,1.5c0-0.5-0.1-1-0.1-1.5c-0.9,0-1.9,0.1-2.8,0.2
							c-0.2,1.2,0.7,1.2,0.8,2.7c-0.3,0.1-0.6,0.1-0.8,0.2c0-1.1-0.9-0.8-1.7-0.5c-0.8,0.4-1.7,0.8-1.7-0.2c-0.9,0.3-1.7,0.6-2.6,1
							c-0.9,0.4-1.7,0.7-2.6,1.1c-0.3,0.3-0.5,0.6-0.7,0.8c-0.9,0.3-1.7,0.6-2.6,1c-1.8,0.3-2.1,0.5-2.4,0.4
							c-1.5,1.4-1.1-0.1-2.2-0.1c-0.3,0.2-0.5,0.3-0.9,0.6c-0.8,0.6,0.6,0.8-0.1,1.6c-2.3,1-1.7,2.6-3.8,3.7c-0.4,0.8-1.6,2-0.5,2.2
							c-0.4,0.7-0.9,1.3-1.3,2c-0.1,0.7,0.5,0.8-0.1,2.4c-0.5,0.4-1,0.7-1.5,1.1c-1.4,2.3-2.9,3.7-1.6,3.7c0.1,1.1-1.1,1.1-1.4,2.1
							c0.1,0.5,0.1,1.1,0.1,1.6c-0.5,0.2-1,0.4-1.5,0.5c-0.8,1.1-1.4,2.1-2.2,3.3c-0.8,1.3-1.6,2.7-2.4,4c-0.5-0.3-0.8-0.4-1.1-0.6
							c-0.7,0.5-1.4,0.9-2,1.4c-0.4-0.3-0.8-0.7-1.2-1c0.2-0.6,0.4-1.2,0.6-1.8c0.5-1.6,1-3.2,1.6-4.7l-0.4-0.2
							c0.7-1.2,1.5-2.3,2.2-3.5c-0.3-0.3-0.7-0.8-1-1.1c0.6-0.7,1.3-1.5,1.9-2.1c0.3-0.9-0.5-0.7-0.7-1.2c0.2-0.2,0.3-0.5,0.6-0.8
							c0.2-0.3,0.5-0.7,0.8-1.1c0.2,0.1,0.3,0.2,0.4,0.3c0.4,0.3,0.8,0.6,1.2,0.9c-0.2,0.6-0.5,1.2-0.7,1.8l2.1,0.5
							c1.3-3.3,2.8-5.5,2.5-7c0.8-1.5,2.2-2.9,3.5-4.2c0.6-0.6,1.3-1.2,1.7-1.8c0.5-0.6,0.8-1.1,0.9-1.6c-1.4,0.8-1.8,1.2-2.1,1.5
							c-0.6-0.2-0.8-0.7-0.4-1.3c0.3-0.6,1.1-1.4,2.4-2.1c-1.1-0.5-0.4-1.8-0.7-2.2c2.6-0.7,2-2.3,4.4-3.4l-0.5-1.1
							c0.2-0.3,0.5-0.6,0.8-1c1.8-0.9,3.8-1.7,5.6-2.3c2.5-1,5-1.8,7.6-2.4c2-0.2,4-0.5,6-0.6c0.9,0.1,1.9,0.1,2.8,0.2
							c2.4,0.3,3.1,0.1,3.6-0.3c0.5-0.4,0.7-0.8,2.1-0.8c2.1,0.4,4.1,0.8,6.1,1.4c3.8,1.3,6.1,1.5,6.1,2.7c1.7-0.6,3.6,0.8,4.5,0.5
							c4.1,1.1,7.3,3.5,11.3,5.8c0.8,0.4,1.5,0.9,2.3,1.5c0.8,0.5,1.6,1.1,2.3,1.6c0.3,0.3,0.8,0.7,1.2,1.1c0,0.5,0,0.9,0.1,1.5
							c1.3,1.6,2,1.8,2.5,2.1c0.6,0.5,1.3,1.2,2,2.1c0.7,0.8,1.4,1.7,2,2.7c1.3,2,2.5,4.1,3.4,5.9c0.3,0,0.6,0.1,0.9,0.3
							c0.3,0.9,0.5,1.8,0.7,2.9c0.4,1,0.8,2.2,1.1,3.3c0.8,1.1,1.6,2.3,2.4,3.5c0.3,1.1,0.5,2.1,0.7,3.3c-0.3,0.3-0.6,0.4-0.9,0.7
							c0.5,1.2,0.6,2.4,0.6,3.5c0,1.9-0.5,3.5-0.9,5c-0.5,1.6-0.9,3.1-1,5.1c-0.6-1-1.5,1.7-1.4,2.6c-0.3,0.6-0.5,0.9-0.8,1.5
							c-0.7,0-1.5,0-2.3,0.1c-0.9,1.6-1.9,3.3-3,4.7c-0.6,1.1-1.1,2.1-1.6,3.1c0,1.4,0,2.8,0,4.3c0.6-0.2,1.1-0.4,1.7-0.6
							c-0.4,1.8-1.1,2.8-1.8,3.7c-0.3,0.3-0.6,0.7-1,1c-0.3,0.8-0.6,1.6-1,2.4c-0.5,0.2-0.9,0.5-1.3,0.7l-1.8,2.7
							c-0.6,0.8-1.3,1.7-1.9,2.5c-1.1,0.4-2.2,0.8-3.2,1.3C510.9,113.8,509.9,114.6,508.8,115.6z"/>
					</g>
					<g id="XMLID_623_">
						<path id="XMLID_624_" class="st3" d="M511.2,96.3c-3.3,1.1-1.2-1.8-0.4-1.4C510.9,95.4,511.1,95.8,511.2,96.3z"/>
					</g>
					<g id="XMLID_621_">
						<path id="XMLID_622_" class="st4" d="M443.2,178.1c0.4-0.8,0.9-1.7,1.3-2.5l1.4,2l-0.7,1.8c-0.5,0.1-1,0.4-1.5,0.6
							C443.4,179.3,443.4,178.7,443.2,178.1z"/>
					</g>
					<g id="XMLID_619_">
						<path id="XMLID_620_" class="st4" d="M449.2,149.9c-0.3-0.4,0.2-1.4,0.5-2.4c0.1-0.7,0.3-1.3,0.4-2c0.5-0.3,1-0.6,1.5-0.9
							c0.2-0.5,0.6-1.1,0.9-1.5c0.5,0,0.9,0,1.3,0.1c-0.1,0.5-0.3,1-0.4,1.4c0,0.2,0,0.5,0,0.7c-1.1,0.8-2.1,1.5-3.1,2.2
							c0.4,0.8,1.9,0.9,1.2,2.4c-0.6,0.4-1.2,0.8-1.7,1.2C449.6,150.7,449.4,150.3,449.2,149.9z"/>
					</g>
					<g id="XMLID_617_">
						<path id="XMLID_618_" class="st4" d="M454.9,135.9c1.8-0.4,2.4-3.2,3.9-2.8c0.2,0.2,0.3,0.4,0.4,0.6c-0.3,0.9-0.8,1.8-1.2,2.7
							c-0.5,0.6-0.9,1.1-1.4,1.6c-0.1,0.1-0.2,0.2-0.3,0.2c-0.6-0.1-0.8-0.3-1-0.5C455.3,137.2,455.1,136.5,454.9,135.9z"/>
					</g>
					<g id="XMLID_615_">
						<path id="XMLID_616_" class="st4" d="M459.5,127.6c0.5,0,0.9,0.1,1.3,0.2c0.1,0.5,0.3,0.8,0.4,1.3c-0.3,0.5-0.7,1-1,1.5
							c-0.6,0-1.2-0.1-1.7-0.2C457.7,129.9,459.2,128.6,459.5,127.6z"/>
					</g>
					<g id="XMLID_613_">
						<path id="XMLID_614_" class="st4" d="M463.2,131.1c0.6-0.3,1.3-0.7,1.9-0.9c0.6-1.4,1.5-1.7,2-2.3c0.8-0.7,1.6-1.5,2.5-2.3
							c0.7-0.5,1.3-1,2-1.5l1.8-1.1c0.9-0.5,2.6-2.5,4-2.4c0.7,0,1.2,0.8,2.2-0.5c0.8-0.7,2.2-1.6,2.2-0.5c0.2,1-1.8,1.8-2.7,2.7
							c0,0.5,0,1,0.1,1.5c-1.3,0.6-2.4,1.5-3.5,2.3c-0.6-0.3-1.2-0.6-1.7-0.9c-0.4,0.3-0.9,0.7-1.3,1l-2.8,3.2
							c-0.1,0.1-0.2,0.2-0.3,0.3c-1.5,0.6-2.9,1.2-4.4,1.9c-0.3,0.2-0.6,0.5-0.9,0.8C463.8,131.9,463.5,131.5,463.2,131.1z"/>
					</g>
					<g id="XMLID_611_">
						<path id="XMLID_612_" class="st4" d="M462.5,115.4c0.1,0,0.3,0,0.5-0.1c0.4,0.6,0.9,1.2,1.3,1.8c-0.5,0.6-0.5,1.3-1.4,1.7
							c-0.8-0.4-1.6-0.7-2.4-1C461.8,117.2,461.3,116,462.5,115.4z"/>
					</g>
					<g id="XMLID_609_">
						<path id="XMLID_610_" class="st4" d="M521.4,110.9c0.5-1.1,1.1-2.3,1.6-3.4c0.1-0.1,0.2-0.2,0.3-0.4c0,0,0.1,0.1,0.2,0.2
							c0.2,0.4,0.3,0.9,0.6,1.3c0.2,0.9-1.4,2.9-2.3,2.8C521.5,111,521.4,110.9,521.4,110.9z"/>
					</g>
					<g id="XMLID_607_">
						<path id="XMLID_608_" class="st4" d="M521.7,97.5c0.7-1.1,0.1-1.6-0.1-2.4c0.2-0.1,0.3-0.1,0.4-0.3c0.6-1,1.1-2,1.6-3.1
							c1-1.4,2-3,3-4.7c0.8-0.1,1.5-0.1,2.3-0.1c-0.1,0.7-0.2,1.6-0.3,2.4c-0.4,0.8-0.8,1.6-1.2,2.4c-1.4,0.8-1.1,1.8-1.6,2.7
							c-1.8,2.2-0.7,2.1-1.2,2.8c-0.3,0.4-0.5,0.8-0.8,1.2c-0.6,0.2-1.1,0.4-1.7,0.6C522,98.5,521.9,98,521.7,97.5z"/>
					</g>
					<g id="XMLID_605_">
						<path id="XMLID_606_" class="st4" d="M537.5,61.3c0.5,0.4,1,0.8,1.6,1.3c0.7,1.4,0.7,2,0.5,2.5c-0.2,0.5-0.7,0.9-1,2.1
							C538.4,65.1,538,63.2,537.5,61.3z"/>
					</g>
					<g id="XMLID_603_">
						<path id="XMLID_604_" class="st4" d="M529.1,45.4c-0.9-1.5-1.9-2.8-2.9-4.2c-0.1-0.1-0.3-0.3-0.4-0.5
							c-0.6-0.7-1.2-1.4-1.8-2.1c-0.7-0.7-1.3-1.3-2-2l-2.2-2.2l-2.3-2.1c-0.4-0.9-2.4-1.7-2.6-2.8c1.1,0.3,2.1,0.7,3,1.2
							c0.9,0.5,1.7,1.2,2.5,1.8c1.6,1.3,3.1,2.7,5,3.9c1.2,1.3,0.7,2.5,2,4.1c0.8,0.8,1.6,1.5,2.4,2.3c2.2,2.2,0.6,2.3,0.3,3.5
							C529.7,46,529.3,45.7,529.1,45.4z"/>
					</g>
					<g id="XMLID_601_">
						<path id="XMLID_602_" class="st6" d="M527,45.1c-0.8-1-1.5-1.9-2.3-2.9c-0.6-0.3-1.1-0.6-1.7-0.9c-2-2.9-2.7-3.5-3.2-4.3
							c-0.7-0.6-1.3-1-2.1-1.5c-1.7-1.3-3.6-2.5-5.5-3.5c-2.1-2-3.4-2.7-3.6-2.2c-0.9-0.5-1.8-0.9-2.6-1.4c-0.2,0.4-0.8,0.2-1.4-0.1
							c-0.7-0.3-1.4-0.9-2-1.2c-1.2-0.5-2.5-0.9-3.7-1.3c-1.3-0.3-2.5-0.7-3.7-0.9c-0.6-0.1-1.2-0.3-1.8-0.4c-0.1,0-0.4-0.1-0.5-0.1
							c-0.5-0.5-1-1-1.6-1.6c-0.8,0.1-1.7,0-2.5-0.1c-0.9,0-1.8-0.1-2.5,0.2c-0.3,0-0.5,0-0.6,0c-1.8-0.1-3.7-0.1-5.4-0.1
							c-0.5,0-0.9,0-1.3,0.1c-1.6,0-3.1,0.1-4.8,0.2c-0.6-0.2-1.3-0.4-1.9-0.7c0.2-0.5,0.4-0.9,0.5-1.4c4.4-0.7,8.8-1,13.3-0.8
							c1.3,0.1,2.5,0.3,3.9,0.4c1.1,0.1,2.3,0.3,3.5,0.5c1.2,0.2,2.4,0.5,3.5,0.7c1.9,0.3,3.7,0.7,5.7,1.3c2.1,0.8,4.3,1.8,6.4,2.9
							c1.4-0.1,2.2,0.5,2.9,1.3c0.8,0.8,1.5,1.7,3,2.2c0.2,1,2.2,1.9,2.6,2.8l2.3,2.1l2.2,2.2c0.7,0.7,1.3,1.4,2,2
							c0.6,0.7,1.2,1.4,1.8,2.1c0.2,0.2,0.3,0.4,0.4,0.5c1,1.4,2,2.8,2.9,4.2C528.3,45.2,527.7,45.2,527,45.1z"/>
					</g>
					<g id="XMLID_599_">
						<path id="XMLID_600_" class="st4" d="M502.5,23.1c-1.9-0.6-3.8-1-5.7-1.3l0.3-0.7C498.9,21.7,500.7,22.3,502.5,23.1z"/>
					</g>
					<g id="XMLID_597_">
						<path id="XMLID_598_" class="st4" d="M489.8,20.5c-1.3-0.2-2.5-0.3-3.9-0.4c1.4-1.3,2.4-0.2,4,0L489.8,20.5z"/>
					</g>
					<g id="XMLID_595_">
						<path id="XMLID_596_" class="st4" d="M454.5,27.4c-0.1,0.2-0.2,0.5-0.3,0.7c-1,0.6-2,1.2-3,1.8c-1,0.6-1.9,1.3-2.8,1.9
							c-0.5,0.2-0.9,0.2-1.3,0.3c1.9-3,3-4.5,6.9-5.9L454.5,27.4z"/>
					</g>
					<g id="XMLID_593_">
						<path id="XMLID_594_" class="st2" d="M441.8,179.6c0.3-1.2,0.6-1.5,1.4-1.6c0.2,0.6,0.2,1.3,0.4,1.9c-0.2,0.2-0.4,0.4-0.5,0.7
							C442.7,180.2,442.3,179.9,441.8,179.6z"/>
					</g>
					<g id="XMLID_591_">
						<path id="XMLID_592_" class="st2" d="M450.2,145.5c-0.1-0.8,0.2-1.5,0.6-2.1c0.4-0.6,1-1,1.5-1.2c0.1,0.3,0.2,0.6,0.2,0.9
							c-0.3,0.5-0.6,1-0.9,1.5C451.2,144.9,450.6,145.2,450.2,145.5z"/>
					</g>
					<g id="XMLID_589_">
						<path id="XMLID_590_" class="st2" d="M462.5,115.4c-0.1-1.9,1.6-2.8,2.5-3.1c0.4,0.2,0.9,0.4,1.4,0.5
							c-0.6,1.1-2.2,2.7-3.4,2.6C462.8,115.3,462.6,115.4,462.5,115.4z"/>
					</g>
					<g id="XMLID_587_">
						<path id="XMLID_588_" class="st2" d="M496.9,21.8c-1.2-0.3-2.4-0.5-3.5-0.7c-1.2-0.2-2.4-0.4-3.5-0.5l0.1-0.5
							c0.5-1.3,1.6-0.8,2.3-1.1c1.4,0.2,1.9,0.6,2.5,1c0.5,0.4,1.1,0.8,2.5,1.1L496.9,21.8z"/>
					</g>
					<g id="XMLID_585_">
						<path id="XMLID_586_" class="st2" d="M472.1,22.3c-0.8,0.1-1.6,0.3-2.4,0.5c-1.7,0.1-3.2,0.3-4.8,0.5l-0.2-0.8
							c1.5-0.5,2.8-1.3,4.1-1.7c1.3-0.4,2.6-0.6,3.8,0.2C472.6,21.4,472.3,21.8,472.1,22.3z"/>
					</g>
					<g id="XMLID_583_">
						<path id="XMLID_584_" class="st2" d="M457.9,25.8c-1.1,0.5-2.3,1-3.4,1.6l-0.5-1.2c1.2-0.5,2.5-0.8,3.6-1.2L457.9,25.8z"/>
					</g>
					<g id="XMLID_581_">
						<path id="XMLID_582_" class="st5" d="M443.1,180.6c0.2-0.3,0.3-0.5,0.5-0.7c0.5-0.2,1-0.5,1.5-0.6c0.1,0.1,0.2,0.3,0.3,0.5
							c-0.3,0.8-0.6,1.5-0.8,2.2C442.9,182.8,442.7,181.9,443.1,180.6z"/>
					</g>
					<g id="XMLID_579_">
						<path id="XMLID_580_" class="st5" d="M455.5,161.2c0.2-0.3,0.5-0.6,0.7-0.8c0.2-0.6,0.4-1.3,0.6-1.9c0.1-0.1,0.2-0.2,0.2-0.3
							c0.3-0.4,0.6-0.8,0.9-1.1c0.1-0.3,0.2-0.5,0.3-0.7c1.5,0.9,2.5-0.6,4.3-2.1c0.2-0.6,0.8-1.2,1.4-1.7c0.8-0.4,1.6-0.9,2.4-1.3
							c0.2,0.1,0.4,0.1,0.6,0.1l-2.4,2.9c0.2,0.3,0.5,0.5,0.7,0.8c-0.9,0.9-1.6,1.8-2.3,2.8c-1,0.2-1.9,0.8-2.9,1.7
							c-0.7,0.9-1.5,1.9-2.2,2.8c-0.8,0.9-1.2,0-2.9,0C455.1,161.8,455.3,161.5,455.5,161.2z"/>
					</g>
					<g id="XMLID_577_">
						<path id="XMLID_578_" class="st5" d="M452.3,142.2c0.2-0.2,0.4-0.4,0.6-0.6c-0.3-1.7,1.5-2.7,2.5-3.7c0.2,0.2,0.3,0.4,1,0.5
							c-0.5,0.8-1,1.6-1.4,2.4c-0.1,0.5,0,0.9,0,1.4c-0.4,0.4-0.8,0.8-1.2,1.2c-0.4-0.1-0.8-0.1-1.3-0.1
							C452.5,142.7,452.4,142.4,452.3,142.2z"/>
					</g>
					<g id="XMLID_575_">
						<path id="XMLID_576_" class="st5" d="M458.3,139.3c0.8-0.5,1.7-1.1,2.5-1.6c0.1,0.1,0.1,0.1,0.2,0.2c-0.9,1.1,0.7,1.8-0.8,2.4
							c-0.7-0.1-1.3-0.2-1.9-0.3C458.3,139.7,458.3,139.4,458.3,139.3z"/>
					</g>
					<g id="XMLID_573_">
						<path id="XMLID_574_" class="st5" d="M461.2,132.7c0.3-0.4,0.6-0.7,0.9-1.1c0.3-0.1,0.7-0.4,1.1-0.6c0.3,0.4,0.6,0.8,1.1,1.4
							c-0.7,0.5-1.4,0.9-2.1,1.4C461.7,133.4,461.5,133,461.2,132.7z"/>
					</g>
					<g id="XMLID_571_">
						<path id="XMLID_572_" class="st5" d="M483.2,129.6c-0.1-1.1-0.8-1.2-0.1-1.5c1.4-1.8,1.9,0.5,1.7,0.9
							C484.3,129.2,483.7,129.4,483.2,129.6z"/>
					</g>
					<g id="XMLID_569_">
						<path id="XMLID_570_" class="st5" d="M487.4,128.3c0.3,1,0.1,1.3,0,1.6c-0.9,1.1-1.2,0-2-0.7
							C486.1,128.9,486.7,128.6,487.4,128.3z"/>
					</g>
					<g id="XMLID_567_">
						<path id="XMLID_568_" class="st5" d="M488.9,126.1c-0.9-0.7-0.6-1.8,0.8-2.5c0,0.3,0.6,0.2,0.9-0.1c1.7-0.9,0.9-1.7,2.6-3
							c-1-0.7,0-1.2,0.8-1.9c0.6-0.5,1.3-1.1,1.9-1.6c0.5-0.5,1-1.1,1.5-1.6c0.4,0.3,0.9,0.5,1.3,0.9c0.2-0.1,0.5-0.2,0.8-0.4
							c0.7-0.7,1.4-1.4,2.1-2.1c2.8-0.5-1.7,2.5,1.1,2c-0.5,0.4-1.5,3.5-2.5,1.8c-0.4,0.2-0.8,0.5-1.1,0.6c-1.1,1.5-0.3,1.5-0.3,1.9
							c-1.7,1.6-2.6,1.7-4.3,2.9C493.2,121.7,490.8,125.1,488.9,126.1z"/>
					</g>
					<g id="XMLID_565_">
						<path id="XMLID_566_" class="st5" d="M504,119.7c0.7-0.6,0.3-1.4,1.4-1.9c0.3-0.1,0.6-0.2,0.7,0.1c0.9-0.8,1.8-1.5,2.8-2.3
							c0.2,2-2.2,3.8-3.4,4.4c-0.1,0.1-0.3,0.2-0.4,0.3c-0.3,0.5-0.7,1-1.1,1.5c-0.3,0.2-0.5,0.4-0.7,0.6c-0.8,0.3-1.7,0.6-2.7,1
							c-0.7,1-1.2,0.4-1.9,0.3c1.3-1,0.9-2.3,2.6-3.1C502.3,120.3,503.1,119.9,504,119.7z"/>
					</g>
					<g id="XMLID_563_">
						<path id="XMLID_564_" class="st5" d="M524.6,97.3c-0.7-1.6,0.7-1.8,1.2-2.8c0.5-0.9,0.1-2,1.6-2.7l0.2,2.1l-0.5,0.9
							c-0.2,0.5-0.4,1-0.6,1.5C525.9,96.6,525.2,97,524.6,97.3z"/>
					</g>
					<g id="XMLID_561_">
						<path id="XMLID_562_" class="st5" d="M464.9,23.2c-0.9,0.6-1.8,1.3-2.7,1.9c-0.8,0.3-1.5,0.6-2.3,0.9
							c-0.7-0.1-1.4-0.2-2.1-0.2l-0.2-0.7c1.1-0.5,2.3-1,3.5-1.4c1.2-0.4,2.4-0.8,3.6-1.2L464.9,23.2z"/>
					</g>
					<g id="XMLID_559_">
						<path id="XMLID_560_" class="st7" d="M455.3,33.7l0.5,1.1c-2.4,1.2-1.8,2.7-4.4,3.4c0.4,0.4-0.4,1.8,0.7,2.2
							c-1.2,0.7-2,1.5-2.4,2.1c-0.3,0.6-0.2,1.1,0.4,1.3c0.3-0.3,0.7-0.7,2.1-1.5c-0.1,0.5-0.4,1-0.9,1.6c-0.5,0.6-1.1,1.1-1.7,1.8
							c-1.3,1.2-2.7,2.7-3.5,4.2c0.3,1.5-1.3,3.7-2.5,7l-2.1-0.5c0.2-0.6,0.5-1.2,0.7-1.8c-0.4-0.3-0.8-0.6-1.2-0.9
							c-0.1-0.1-0.2-0.2-0.4-0.3c-0.3,0.4-0.6,0.8-0.8,1.1c-0.2,0.3-0.4,0.6-0.6,0.8c0.2,0.4,1,0.3,0.7,1.2
							c-0.6,0.6-1.3,1.4-1.9,2.1c0.3,0.4,0.7,0.8,1,1.1c-0.8,1.2-1.5,2.3-2.2,3.5l0.4,0.2c-0.5,1.5-1.1,3.1-1.6,4.7
							c-0.2,0.6-0.4,1.2-0.6,1.8c0.4,0.3,0.8,0.7,1.2,1c-0.9,1.1-1.7,2.2-2.5,3.4c0,0.3-0.1,0.6-0.1,0.9c0.3,0.6,0.6,1.3,0.9,1.9
							c-0.3,1-0.7,2-0.9,3c0,1.1,0.1,2.3,0.2,3.5c-0.7,0.4-1.4,1-2,1.4c-0.5-0.2-1.1-0.5-1.6-0.9c-0.2,0.8-0.5,1.6-0.6,2.5
							c-0.3,0.2-0.7,0.3-1,0.4c-0.4,0.6-0.8,1.3-1.2,2c-0.4-0.6-0.9-1.1-1.3-1.8c-0.9,0.2-1.8,0.4-2.8,0.7c0-0.5,0.1-1.1,0.1-1.7
							c0.7-0.6,1.4-1.3,2.2-1.9c0.2,0.4,0.4,0.8,0.6,1.2c0.2-0.3,0.4-0.6,0.6-0.9c0.3-1.1,0.6-2.1,0.8-3.1c0.4,0.1,0.9-0.9,1.5-1.1
							c-0.1-0.6-0.2-1.2-0.3-1.8c0.2-0.6,0.4-1.3,0.6-1.9c-0.4-0.7-0.8-1.4-1.2-2.1c0.1-0.2,0.1-0.4,0.2-0.5l-1.1-0.5
							c0.2-0.6,0.5-1.3,0.7-1.9c0.9-0.2,1-1.4,0.9-3.5c0.5-1.2,1.1-2.3,1.6-3.4c0.4-0.9,0.9-1.7,1.3-2.5c0.1-0.9-0.7-0.8-1-1.2
							c0-0.1,0-0.4,0-0.6c0.4-1,0.8-2.1,1.2-3.2c0.9-1.6,1.7-3.2,2.7-4.8c1.1-1.5,2.3-3,3.5-4.5c0.8-0.8,1.5-1.5,2.2-2.3
							c0.4-0.1,0.8-0.1,1.2-0.2c0.7-0.6,1.4-1.2,2-1.8c0.4,0.1,0.8,0.2,1.6,0.1c0.4-0.9,0.8-1.9,1.2-2.8c-1.4-0.2,0.5-2.3-0.6-2.8
							c0.1-0.1,0.2-0.4,0.2-0.5c0.7-0.5,1.4-0.8,2.1-1.3c1-0.3,1.8-0.5,2.9-0.8C452.6,35,453.9,34.3,455.3,33.7z"/>
					</g>
					<g id="XMLID_557_">
						<path id="XMLID_558_" class="st5" d="M431.9,85.2c-0.1,0.4,0,0.7,0.1,1.3c0.1,0.5,0.2,1.2,0.3,2.3c-0.5,2.3-1.2,0.7-1.8,0.7
							c-0.3-0.9-0.9-1.6-0.8-2.7c0.1-0.8,0.3-1.7,0.6-2.5C430.8,84.6,431.4,84.9,431.9,85.2z"/>
					</g>
					<g id="XMLID_555_">
						<path id="XMLID_556_" class="st8" d="M455,140.6c0.4-0.8,0.9-1.6,1.4-2.4c0.1-0.1,0.2-0.2,0.3-0.2c0.6,0.4,1.1,0.8,1.6,1.3
							c0,0.2,0,0.4,0,0.7c-0.3,0.5-0.7,1-0.9,1.5l-0.6,0.6l-1.8,0C455,141.5,455,141.1,455,140.6z"/>
					</g>
					<g id="XMLID_553_">
						<path id="XMLID_554_" class="st7" d="M464.6,154.2c0.6-1,1.2-2.1,1.7-3.1c0.2,0.1,0.4,0.1,0.6,0.1c0.7-0.5,1.5-0.9,2.2-1.4
							c-0.1-1.1,1-1.8,1.6-2.4c0.7-0.5,1.4-1,2.3-1.6c0.3-0.5,0.5-0.9,0.9-1.4c0.5,0,0.9-0.1,1.4-0.1c0.5-0.4,1.1-0.7,1.6-1.1
							c0.8-0.5,1.6-1,2.4-1.5c0.1,0.4,0.1,0.8,0.3,1.1c-0.8,0.3-1.5,0.6-2.3,0.9c1.1,1,1.9,0,2.6-0.5c0.2,0.2,0.3,0.4,0.4,0.6
							c-0.6,1-1.3,1.9-1.8,2.8c-0.9,0.4-1.7,0.8-2.6,1.1c-1.1,0.7-2.2,1.4-3.2,2.1c0-0.7-0.1-1.3-0.1-1.9c-0.4,0-0.8,0.2-1.2,0.3
							c-0.5,0.6-0.9,1.2-1.4,1.9c0.1,0.3,0.3,0.7,0.3,1c-0.7,0.5-1.4,1-2.1,1.5l-2.9,2.2C465,154.7,464.8,154.4,464.6,154.2z"/>
					</g>
					<g id="XMLID_551_">
						<path id="XMLID_552_" class="st8" d="M470,150.2c0.5-0.7,0.9-1.3,1.4-1.9c0.4-0.1,0.8-0.3,1.2-0.3c0.1,0.6,0.1,1.2,0.1,1.9
							c-0.8,0.4-1.6,0.9-2.3,1.4C470.2,150.8,470.1,150.5,470,150.2z"/>
					</g>
					<g id="XMLID_549_">
						<path id="XMLID_550_" class="st8" d="M477.2,143.7c0.8-0.3,1.5-0.6,2.3-0.9c-0.1-0.3-0.2-0.7-0.3-1.1c0.7-0.6,1.4-1.1,2.2-1.7
							c1-0.8,2-1.5,3-2.3c0.8-0.2,1.6-0.2,2.1-0.6c0.5-0.5,0.9-1,1.5-1.5c2.2-1.9,4.5-3.9,6.7-5.8c0.1-0.1,0.3-0.2,0.4-0.3
							c1.9-0.5,2.4-0.8,3.2-1.5l-0.5-0.6l0.6-0.5c1.5-0.7,2.2-1.1,2.6-0.9c0-1.5,1.3-2.1,2-2.6c0.1-0.3,0.2-0.6,0.3-1
							c0.2-0.2,0.4-0.4,0.7-0.6c0.3-0.5,0.7-1,1.1-1.5c0.1-0.1,0.2-0.2,0.4-0.3c0.6,0.1,1.3,0.2,1.9,0.3c0,0.1-0.1,0.3-0.2,0.5
							l-1.7,1.5c0.2,0.3,0.4,0.5,0.6,0.8c-0.5,0.7-1.1,1.6-1.6,2.3c-0.4,0.2-0.6,0.3-0.9,0.4c-0.1,0.1-0.2,0.2-0.4,0.3
							c-1.8,3-3.1,2.5-4.5,3.6c-1.4,1.2-2.9,2.5-4.3,3.7c-2-0.8-1.8,0.7-2.6,1.4c-0.7,0.7-1.5,1.4-2.2,2c-1.7,2.3-4.1,2.7-6.3,4.5
							l-3.1,2.5c-0.1-0.2-0.3-0.4-0.4-0.6C479,143.7,478.2,144.7,477.2,143.7z"/>
					</g>
					<g id="XMLID_547_">
						<path id="XMLID_548_" class="st8" d="M515.8,112.2c-0.2-0.3-0.5-0.5-0.7-0.8c0.6-0.8,1.3-1.7,1.9-2.5l1.8-2.7
							c0.4-0.2,0.8-0.5,1.3-0.7c0.6-0.1,1.2-0.3,1.8-0.3c0.3-0.5,0.5-0.9,0.8-1.4c0.2-0.5,0.5-0.9,0.7-1.3c0.9-1,1.8-2,2.8-3
							c0-0.6,0.2-1.4,0.4-2c0.2-0.7,0.3-1.2,0.1-1.3c0.2-0.5,0.4-1,0.6-1.5l0.5-0.9c0.7-0.6,1.3-1.3,1.9-2c0.3-1.6,1.9-3.7,2-5.5
							c0.6-0.8,1.1-1.7,1.7-2.6c0.9-1.7,0.2-3.2,1.4-4.5c0.4-2,0.7-4.3,0.7-6.5l0-0.6c-0.1-1.2-0.4-2.4-0.7-3.6
							c0.1-0.4,0.1-0.9,0.1-1.3c-0.5-1.7-1-3.2-1.6-4.6c0-0.8-0.2-1.8-0.2-2.6c-0.7-1.2-1.5-2.2-2.3-3.3c-0.1-1-0.3-2-0.5-3
							c-2.1-2.1-3.8-5.4-5.9-6.9c-0.3-0.1-1.1-0.9-1.7-1.7c-0.6-0.8-1.1-1.5-0.7-1.6c-0.3-1.6-4.7-4.1-2.6-4.6
							c1.3,1.2,2,1.4,2.4,1.6c0.4,0.1,0.7,0.1,1.3,0.9c2.3,3.5,3.3,4.8,4.4,5.7c1,0.9,2,1.8,2.9,2.7c0.4,1.2,0.6,2.4,0.9,3.7
							c0.8,1.8,1.6,3.6,2.9,5.1c-0.2-2.2-0.6-4.4-1.1-6.5c1.2,0.3,1.5,0.2,1.7,0.1c1.1,3.1,2.1,6,2.8,9.2c0.5,1.9,0.9,3.9,1.1,6
							c0.2,1.7,0.2,3.7,0.1,5.6c-0.1,0.7-0.1,1.5-0.2,2.2c0,0.2,0,0.5-0.1,0.6c0.2,2.6,0,4.8-0.6,7.1c-0.6,2.2-1.6,4.6-3.2,7.2
							c-1.1,2.2-2.4,4.2-3.7,6.1c0.1-1,0.2-2.1,0.3-3.2c-0.6,0.5-1.2,1.1-1.7,1.5c-1,1.8-0.5,3.4-1.3,4.9c0,1.3-0.7,2.9-1.6,4.4
							c-0.5,0.7-1,1.5-1.5,2.1c-0.6,0.6-1.2,1.1-1.7,1.4c-0.2,0.1-0.4,0.2-0.5,0.2c-0.7,0.4-1.2,0.7-1.8,1c-0.7,0.9-1.3,1.7-2.3,2
							c-0.5,0.6-1,1.3-1.5,1.9c-0.3,0.3-0.5,0.5-0.7,0.7C516.2,112.6,516,112.4,515.8,112.2z"/>
					</g>
					<g id="XMLID_545_">
						<path id="XMLID_546_" class="st8" d="M516.5,38.4c-0.8-0.9-1.5-1.7-2.4-2.5c-0.3-0.5-0.6-0.9-1-1.4c-0.5-0.2-0.9-0.3-1.3-0.3
							c-0.9-0.6-1.8-1.2-2.7-1.7c-0.9-0.5-1.8-1.1-2.8-1.6c-0.4,0.8-2-0.9-2.9-0.6c-2-0.7-1.2-1.5-3.2-2.4c-0.9,0.4-1,0.7-1.1,0.9
							c-0.6-0.2-1.3-0.5-2-0.7c-0.7-0.2-1.5-0.5-2.4-0.7c-1.8,0.5-3.1,0.5-3.6-0.1c-0.2-0.3-0.3-0.7-0.3-1.1c-3.4-1-5.3-0.7-7-0.3
							c-1.3,0-2.6-0.1-3.9,0c-0.8-0.2-1.5-0.4-2.3-0.7c-0.8,0.6-1.5,1.1-2.3,1.7c-0.7-0.2-1.5-0.5-2.3-0.7c-0.7,0.1-1.5,0.2-2.8,0.5
							c-0.3,0.3-0.6,0.6-0.9,0.9c-2.6,0.6-5.1,1.4-7.6,2.4c-0.7-0.7-1.5-1.3-2.4-2c0.9-0.3,1.9-0.5,2.8-0.8c3.4-0.2,4.1-1.1,4.4-1.7
							c1.6-0.9,2.5-0.5,3.6-0.1c0.9-0.4,1.9-0.7,2.8-1.1c1.3,0,2.8,0.1,4.1,0.3c1.1-0.5,2.3-1,3.6-1.4c2.4,0.2,2.9,0.2,4.9-0.6
							c0.1,0,0.4,0,0.6,0c0.7-0.3,1.6-0.2,2.5-0.2c0.9,0,1.8,0.1,2.5,0.1c0.5,0.5,1.1,1,1.6,1.6c0.1,0,0.4,0.1,0.5,0.1
							c0.6,0.1,1.2,0.3,1.8,0.4c1.2,0.2,2.5,0.6,3.7,0.9c1.2,0.4,2.5,0.8,3.7,1.3c0.5,0.3,1.3,0.8,2,1.2c0.7,0.3,1.2,0.5,1.4,0.1
							c0.9,0.4,1.8,0.9,2.6,1.4c0.2-0.5,1.5,0.2,3.6,2.2c1.9,1,3.8,2.3,5.5,3.5c-0.2,0.2-0.5,0.5-0.7,0.7c0.6,0.6,1,1.3,1.5,1.9
							C517.8,38.2,517.1,38.3,516.5,38.4z"/>
					</g>
					<g id="XMLID_543_">
						<path id="XMLID_544_" class="st9" d="M456.2,32.7c-0.9-0.1-1.8-0.2-2.7-0.1c0.3-1.6,0.8-2.5-0.3-2.2c-1.9,0.7-0.5,1.3-2.3,2
							c-0.6,0.3-1,0.5-1.6,0.8c-0.3-0.5-0.5-0.9-0.7-1.3c0.9-0.6,1.8-1.3,2.8-1.9c1-0.6,1.9-1.3,3-1.8c1.6-0.3,3.3-0.5,4.9-0.7
							c0.1,0.3,0.2,0.6,0.3,0.9c0.9-0.3,1.9-0.5,2.8-0.8c-0.1,0.9-0.2,1.9-0.4,2.8C459.9,31,458,31.8,456.2,32.7z"/>
					</g>
					<g id="XMLID_541_">
						<path id="XMLID_542_" class="st8" d="M455.3,33.7c-1.4,0.6-2.8,1.3-4.1,1.9c0.6-0.9,1-1.9,1.7-2.8c0.1-0.1,0.3-0.2,0.4-0.2
							c0.9,0,1.8,0.1,2.7,0.1C455.8,33.1,455.6,33.4,455.3,33.7z"/>
					</g>
					<g id="XMLID_539_">
						<path id="XMLID_540_" class="st8" d="M446.1,38.3c1.1,0.5-0.8,2.6,0.6,2.8c-0.4,1-0.8,1.9-1.2,2.8c-0.8,0.1-1.2,0-1.6-0.1
							c-0.7,0.6-1.4,1.2-2,1.8c-0.4,0.1-0.8,0.2-1.2,0.2c0.2-0.7,0.5-1.6,0.8-2.3c1.2-1.5,2.4-2.9,3.7-4.4
							C445.5,38.9,445.7,38.6,446.1,38.3z"/>
					</g>
					<g id="XMLID_537_">
						<path id="XMLID_538_" class="st8" d="M431,61.2c1.7,0,1.1,2,0.6,3.6c-0.3,0-0.6,0-0.9,0.1c-0.6,1.1-1.1,2.2-1.6,3.4
							c0.1,2.1-0.1,3.3-0.9,3.5c-0.2,0.6-0.5,1.3-0.7,1.9l1.1,0.5c0,0.1-0.1,0.3-0.2,0.5c-0.3,0.5-0.7,1.2-1.1,1.7
							c-0.4-0.2-0.7-0.3-1.2-0.5c-0.2-1.5,0.3-3.7,1.1-5.8c0-0.9,0.1-1.9,0.1-2.8c0.8-1.1,1.7-2,2.5-3
							C430.3,63.3,430.7,62.2,431,61.2z"/>
					</g>
					<g id="XMLID_535_">
						<path id="XMLID_536_" class="st8" d="M434,64.1c0.3,1-0.6,2.1-1,3.1c-0.5-0.3-0.9-0.5-1.3-0.7c0.2-0.4,0.4-0.8,0.6-1.2
							C432.9,64.8,433.4,64.4,434,64.1z"/>
					</g>
					<g id="XMLID_533_">
						<path id="XMLID_534_" class="st8" d="M429,78.7c0.1,0.6,0.2,1.2,0.3,1.8c-0.6,0.2-1.1,1.2-1.5,1.1c-0.3,1.1-0.6,2-0.8,3.1
							c-0.2,0.3-0.4,0.6-0.6,0.9c-0.2-0.4-0.4-0.8-0.6-1.2c-0.8,0.5-1.5,1.3-2.2,1.9c0-1,0.1-2,0.1-3c0.6-0.2,1.1-0.5,1.7-0.8
							c0.2-1,0.4-2.1,0.7-3.1l1.6-1.2C428.1,78.3,428.5,78.5,429,78.7z"/>
					</g>
					<g id="XMLID_531_">
						<path id="XMLID_532_" class="st7" d="M453.4,144.6c0.1-0.4,0.3-0.9,0.4-1.4c0.4-0.4,0.8-0.8,1.2-1.2l1.8,0
							c-0.8,1.1-1.5,2.1-2.3,3.2c-0.4,0-0.7,0-1.1,0C453.4,145,453.4,144.8,453.4,144.6z"/>
					</g>
					<g id="XMLID_529_">
						<path id="XMLID_530_" class="st7" d="M458.1,136.4c0.4-0.9,0.8-1.8,1.2-2.7c0.7-0.3,1.3-0.6,2-1c0.3,0.3,0.5,0.7,0.9,1.2
							c-0.4,0.4-0.8,0.9-1.1,1.3c0,0.8-0.2,1.7-0.2,2.5c-0.8,0.5-1.7,1.1-2.5,1.6c-0.5-0.5-1.1-0.9-1.6-1.3
							C457.2,137.5,457.6,136.9,458.1,136.4z"/>
					</g>
					<g id="XMLID_527_">
						<path id="XMLID_528_" class="st7" d="M484.4,137.8c0-0.9,1-1.3,2-2.1c1.7-2,5.8-3.5,6.6-6c1.1-1.3,0.8,0.5,2.1,0
							c0.9-0.7,1.8-1.4,2.8-2.2l0.5,0.6c-1.2,0.7-2.4,1.2-3.6,1.8c-2.2,1.9-4.5,3.9-6.7,5.8c-0.6,0.5-1,1-1.5,1.5
							C486,137.5,485.2,137.6,484.4,137.8z"/>
					</g>
					<g id="XMLID_525_">
						<path id="XMLID_526_" class="st7" d="M497.8,124.5c0.4-0.3,0.6-0.5,1-0.8c0.7,0.1,1.2,0.7,1.9-0.3c0.9-0.3,1.8-0.7,2.7-1
							c-0.1,0.3-0.2,0.7-0.3,1c-1.3,1.5-1.4,2.1-2,2.6c-0.5-0.2-1.2,0.1-2.6,0.9C498.1,126,496.7,125.8,497.8,124.5z"/>
					</g>
					<g id="XMLID_523_">
						<path id="XMLID_524_" class="st7" d="M508.8,115.6c0.1-0.2,0.1-0.4,0.2-0.5c0.9-0.8,1.9-1.5,2.9-2.4c1.1-0.4,2.2-0.8,3.2-1.3
							c0.2,0.3,0.5,0.5,0.7,0.8c-1,1.1-2,2.3-3.1,3.3c-1.1,1-2.1,2.1-3.1,3.1c-0.7,0.6-1.4,1.2-2.2,1.7c-0.7-0.1-1.3-0.3-1.9-0.3
							C506.6,119.4,509,117.6,508.8,115.6z"/>
					</g>
					<g id="XMLID_521_">
						<path id="XMLID_522_" class="st7" d="M521,103.1c0.4-0.3,0.7-0.7,1-1c0.7-0.9,1.4-1.9,1.8-3.7c0.3-0.4,0.5-0.7,0.8-1.2
							c0.6-0.3,1.3-0.7,1.9-1.1c0.3,0.1,0.1,0.7-0.1,1.3c-0.2,0.6-0.4,1.4-0.4,2c-0.9,1-1.9,2-2.8,3c-0.2,0.4-0.4,0.9-0.7,1.3
							c-0.2,0.4-0.5,0.9-0.8,1.4c-0.6,0-1.2,0.1-1.8,0.3C520.4,104.7,520.7,103.9,521,103.1z"/>
					</g>
					<g id="XMLID_519_">
						<path id="XMLID_520_" class="st7" d="M527.5,91.7c0.4-0.8,0.8-1.6,1.2-2.4c0.1-0.8,0.2-1.6,0.3-2.4c0.3-0.5,0.6-0.9,0.8-1.5
							c0-0.9,0.9-3.6,1.4-2.6c0.1-2,0.6-3.5,1-5.1c0.5-1.6,0.9-3.2,0.9-5c0-1.1-0.2-2.2-0.6-3.5c0.3-0.3,0.6-0.4,0.9-0.7
							c-0.2-1.2-0.4-2.2-0.7-3.3c-0.8-0.8-1.6-1.9-2-2.3c-0.1-0.4-0.2-0.7-0.3-1.2c-0.3-1.1-0.7-2.3-1.1-3.3
							c-0.2-1.1-0.4-1.9-0.7-2.9c-0.3-0.1-0.6-0.3-0.9-0.3c-0.9-1.8-2.1-3.9-3.4-5.9c-0.6-1-1.3-1.9-2-2.7c-0.7-0.8-1.3-1.5-2-2.1
							c-0.6-0.3-1.2-0.5-2.5-2.1c-0.1-0.5-0.1-1-0.1-1.5c-0.4-0.4-0.9-0.8-1.2-1.1c-0.8-0.6-1.5-1.1-2.3-1.6c-0.8-0.5-1.6-1-2.3-1.5
							c-4-2.3-7.3-4.7-11.3-5.8c-0.9,0.3-2.8-1.1-4.5-0.5c0-1.2-2.4-1.4-6.1-2.7c-2-0.6-4-1-6.1-1.4c-1.4-0.1-1.6,0.4-2.1,0.8
							c-0.5,0.4-1.2,0.6-3.6,0.3c-0.9-0.1-1.8-0.1-2.8-0.2c-2,0.1-4,0.3-6,0.6c0.3-0.3,0.6-0.6,0.9-0.9c1.3-0.3,2.1-0.4,2.8-0.5
							c0.7,0.2,1.6,0.4,2.3,0.7c0.8-0.6,1.5-1.2,2.3-1.7c0.7,0.2,1.4,0.4,2.3,0.7c1.3-0.1,2.6,0,3.9,0c1.7-0.5,3.6-0.7,7,0.3
							c0,0.3,0.2,0.7,0.3,1.1c0.5,0.5,1.8,0.6,3.6,0.1c0.9,0.2,1.6,0.5,2.4,0.7c0.7,0.2,1.4,0.4,2,0.7c0.1-0.2,0.2-0.5,1.1-0.9
							c2,0.9,1.2,1.6,3.2,2.4c0.9-0.2,2.6,1.4,2.9,0.6c1,0.5,1.9,1,2.8,1.6c0.9,0.5,1.8,1.1,2.7,1.7c0.4,0,0.8,0.1,1.3,0.3
							c0.4,0.5,0.7,0.9,1,1.4c0.8,0.9,1.6,1.6,2.4,2.5c0.6-0.1,1.2-0.2,2-0.2c0.3,0.3,0.5,0.5,0.8,0.7c-2,0.5,2.3,3,2.6,4.6
							c-0.5,0.1,0,0.9,0.7,1.6c0.6,0.8,1.4,1.6,1.7,1.7c2.1,1.5,3.8,4.8,5.9,6.9c0.2,1,0.4,2,0.5,3c0.8,1.1,1.5,2.1,2.3,3.3
							c0.1,0.8,0.2,1.8,0.2,2.6c0.6,1.4,1.1,2.9,1.6,4.6c0,0.4,0,0.9-0.1,1.3c0.3,1.2,0.5,2.4,0.7,3.6l0,0.6c0,2.2-0.3,4.4-0.7,6.5
							c-1.2,1.2-0.5,2.8-1.4,4.5c-0.6,0.9-1.1,1.8-1.7,2.6c-0.1,1.8-1.7,3.9-2,5.5c-0.6,0.7-1.3,1.4-1.9,2L527.5,91.7z"/>
					</g>
					<g id="XMLID_517_">
						<path id="XMLID_518_" class="st7" d="M527.3,74.3l0.1-1.6l0-1.2c0.6,0,1.2,0.1,1.8,0.1c0,0.3,0,0.4,0,0.6c0,0.2,0,0.3-0.1,0.5
							c-0.1,0.6-0.2,1.3-0.3,1.8C528.1,74.5,527.7,74.4,527.3,74.3z"/>
					</g>
					<g id="XMLID_515_">
						<path id="XMLID_516_" class="st7" d="M528.2,68c0.4-1.6,0.3-2.7,0.9-2.4c0.2,1.2,0.4,2.3,0.2,3.6
							C528.9,68.9,528.6,68.5,528.2,68z"/>
					</g>
					<g id="XMLID_513_">
						<path id="XMLID_514_" class="st7" d="M518.5,47.4c-1.1-0.1-1.6-1.3-2.5-2c-0.4-0.5-1-1-1.4-1.4c0.1-0.4,0.4-0.8,0.5-1.2
							c1,0.7,1.9,1.7,2.8,2.5C518.5,45.9,518.4,46.7,518.5,47.4z"/>
					</g>
					<g id="XMLID_511_">
						<path id="XMLID_512_" class="st7" d="M514.3,42.1c-0.6-0.4-1.2-0.8-1.8-1.2c-0.6-0.4-1.2-0.8-1.8-1.1c-1-1.2-0.7-1.5-0.4-1.9
							c1.6,1.3,3.2,2.3,4.7,3.5C514.7,41.7,514.5,41.9,514.3,42.1z"/>
					</g>
					<g id="XMLID_509_">
						<path id="XMLID_510_" class="st7" d="M477.2,32.2c-0.5-0.5-1.1-1.1-1.7-1.6c1.2-0.1,2.5-0.3,3.7-0.3
							C480.7,30.9,478.8,32.1,477.2,32.2z"/>
					</g>
					<g id="XMLID_507_">
						<path id="XMLID_508_" class="st7" d="M471.6,32.1c-0.9,0.1-1.7,0.2-2.6,0.3c-0.2-0.6,0.2-1.1,0.9-1.3c0.7-0.2,1.5-0.2,2.2,0.4
							C471.8,31.6,471.7,31.8,471.6,32.1z"/>
					</g>
					<g id="XMLID_505_">
						<path id="XMLID_506_" class="st7" d="M459.1,36.8c-0.8,0.5-0.5-0.4-0.9-0.7c1-1.2,3.2-1.6,4-1.4
							C463.5,35.9,460.1,35.9,459.1,36.8z"/>
					</g>
					<g id="XMLID_503_">
						<path id="XMLID_504_" class="st7" d="M443.3,57.7c0.4,0.9-0.5,1.7-0.4,2.4c-0.9,1.2-1.8,1.9-2.4,1c0.2-0.8,0.3-1.6,0.6-2.3
							C441.8,58.4,442.5,58.1,443.3,57.7z"/>
					</g>
					<g id="XMLID_501_">
						<path id="XMLID_502_" class="st9" d="M491.9,134.8c0.8-0.7,0.6-2.1,2.6-1.4C493.7,133.9,492.8,134.4,491.9,134.8z"/>
					</g>
					<g id="XMLID_499_">
						<path id="XMLID_500_" class="st6" d="M506.1,123.1l1.7-1.5c1.3-1.6,1.6-2.4,1.8-3c1-1,2.1-2.1,3.1-3.1c1-1.1,2.1-2.2,3.1-3.3
							c0.3,0.3,0.5,0.6,0.9,0.9c0.2-0.2,0.4-0.4,0.7-0.7c0.2,0.2,0.4,0.5,0.7,0.7c-1.3,2.4-2.2,3.6-3,3.9l-4.2,4.2
							c-1.4,1.4-2.8,2.6-4.3,3.9c-0.8,1.1-1.2,0.4-2,0.4C505,124.7,505.6,123.8,506.1,123.1z"/>
					</g>
					<g id="XMLID_497_">
						<path id="XMLID_498_" class="st9" d="M505.5,122.3l1.7-1.5c0.1-0.2,0.2-0.4,0.2-0.5c0.7-0.6,1.4-1.1,2.2-1.7
							c-0.2,0.6-0.5,1.4-1.8,3l-1.7,1.5C505.9,122.8,505.7,122.6,505.5,122.3z"/>
					</g>
					<g id="XMLID_495_">
						<path id="XMLID_496_" class="st9" d="M517.4,112.4c0.5-0.7,1-1.3,1.5-1.9c0.9-0.2,1.5-1.1,2.3-2c0.6-0.3,1.2-0.6,1.8-1
							c-0.5,1.1-1.1,2.3-1.6,3.4c-1.1,0.9-2.2,1.4-3.3,2.2C517.8,112.8,517.6,112.6,517.4,112.4z"/>
					</g>
					<g id="XMLID_493_">
						<path id="XMLID_494_" class="st9" d="M528.3,99.4c0.8-1.6,0.3-3.2,1.3-4.9c0.6-0.5,1.2-1,1.7-1.5c-0.1,1.1-0.2,2.1-0.3,3.2
							C530,97.3,529.2,98.4,528.3,99.4z"/>
					</g>
					<g id="XMLID_491_">
						<path id="XMLID_492_" class="st9" d="M534,58.4c-1.3-1.5-2.1-3.3-2.9-5.1c-0.3-1.3-0.5-2.4-0.9-3.7c-0.9-0.9-1.9-1.8-2.9-2.7
							c-1.1-0.8-2.1-2.1-4.4-5.7c0.6,0.3,1.1,0.6,1.7,0.9c0.8,1,1.5,1.9,2.3,2.9c0.7,0,1.3,0.1,2,0.3c0.3,0.3,0.6,0.6,0.9,0.9
							c0.6,1.2,1.1,2.2,1.8,3.4c0.4,0.7,0.8,1.5,1.2,2.2C533.4,54,533.8,56.2,534,58.4z"/>
					</g>
					<g id="XMLID_489_">
						<path id="XMLID_490_" class="st9" d="M512.2,32c-2.1-2-3.4-2.7-3.6-2.2C508.8,29.2,510.1,30,512.2,32z"/>
					</g>
					<g id="XMLID_487_">
						<path id="XMLID_488_" class="st9" d="M486.2,22.9c0.7-0.3,1.6-0.2,2.5-0.2c0.9,0,1.8,0.1,2.5,0.1c0.5,0.5,1.1,1,1.6,1.6
							c-0.5-0.5-1-1-1.6-1.6c-0.8,0.1-1.7,0-2.5-0.1C487.7,22.7,486.9,22.7,486.2,22.9z"/>
					</g>
					<g id="XMLID_485_">
						<path id="XMLID_486_" class="st9" d="M466.6,25.8c-0.3,0.6-1,1.5-4.4,1.7C463.7,26.9,465,26.3,466.6,25.8z"/>
					</g>
					<g id="XMLID_483_">
						<path id="XMLID_484_" class="st6" d="M453,32.8c-0.6,0.1-1.2,0.3-1.8,0.5c-1,1-1.9,2.1-2.8,3.2c-0.7,0.5-1.4,0.8-2.1,1.3
							c0,0.2-0.2,0.4-0.2,0.5c-0.4,0.3-0.6,0.6-0.9,0.8c-1.2,0.4-2.3,0.8-3.5,1.2c-0.3,0.3-0.5,0.5-0.8,0.8
							c-0.9,1.2-1.6,2.3-2.4,3.4c-0.3,0.1-0.4,0-0.7,0.1c-0.9,0.6-1.9,1.3-2.8,2c-0.3-1.5,1.4-3,2-4.5c1.1-1.3,2.3-2.8,3.5-4.1
							c0.4-0.4,0.9-0.9,1.3-1.2c0.3,0,0.7,0.1,0.9,0.2c0.7-0.4,1.5-0.8,2.1-1.2c0.2-0.7,0.3-1.2,0.3-1.9c0.6-0.5,1.3-1.2,1.9-1.7
							c0.4-0.1,0.8-0.2,1.3-0.3c0.3,0.5,0.5,0.9,0.7,1.3c0.6-0.3,1-0.5,1.6-0.8c1.9-0.7,0.4-1.4,2.3-2c1.1-0.3,0.6,0.6,0.3,2.2
							C453.3,32.6,453.1,32.7,453,32.8z"/>
					</g>
					<g id="XMLID_481_">
						<path id="XMLID_482_" class="st9" d="M444.9,35.7c-0.7,0.4-1.5,0.8-2.1,1.2c-0.3-0.1-0.6-0.2-0.9-0.2c1.1-0.9,2.3-2,3.4-2.9
							C445.2,34.5,445.1,35,444.9,35.7z"/>
					</g>
					<g id="XMLID_479_">
						<path id="XMLID_480_" class="st9" d="M445.2,39.1c-0.6,1.5-2.3,2.7-3.7,4.4c-0.2,0.7-0.5,1.6-0.8,2.3
							c-0.8,0.8-1.5,1.5-2.2,2.3c-1.3,1.5-2.4,3-3.5,4.5c-0.6-0.9-1.2-1.7-1.7-2.7c0.6-1.1,1.2-2.2,1.8-3.4c1-0.7,1.9-1.4,2.8-2
							c0.3,0,0.5,0,0.7-0.1c0.7-1.1,1.5-2.2,2.4-3.4c0.3-0.3,0.5-0.5,0.8-0.8C442.9,39.9,444,39.5,445.2,39.1z"/>
					</g>
					<g id="XMLID_477_">
						<path id="XMLID_478_" class="st6" d="M433.2,49.9c0.5,1,1.1,1.9,1.7,2.7c-1,1.7-1.8,3.2-2.7,4.8c-0.4,1.1-0.8,2.1-1.2,3.2
							c-0.5,0.5-1,0.8-1.5,1.2c-0.6,0.7-1.3-0.3-1.9-0.6c-0.2-0.8,0.2-1.4,0.5-2c1.1-0.6,2.2-1.2,3.4-1.9c-0.4-0.8-0.8-1.6-1.1-2.5
							C431.2,53.2,432.1,51.6,433.2,49.9z"/>
					</g>
					<g id="XMLID_475_">
						<path id="XMLID_476_" class="st9" d="M431.4,57.4c-1.2,0.7-2.3,1.3-3.4,1.9c0.7-1.4,1.4-2.9,2.3-4.4
							C430.6,55.8,431,56.6,431.4,57.4z"/>
					</g>
					<g id="XMLID_473_">
						<path id="XMLID_474_" class="st9" d="M431,61.2c-0.4,1-0.8,2.1-1.1,3.2c-0.9,1-1.7,1.9-2.5,3c-0.5-1-0.9-2-1.3-3
							c0.5-1,1.1-2.1,1.6-3.1c0.6,0.3,1.3,1.2,1.9,0.6c0.5-0.4,1-0.8,1.5-1.2C431,60.8,431,61,431,61.2z"/>
					</g>
					<g id="XMLID_471_">
						<path id="XMLID_472_" class="st9" d="M429.6,76.7c-0.2,0.6-0.4,1.3-0.6,1.9c-0.5-0.2-1-0.3-1.4-0.5c-0.1-0.6-0.2-1.1-0.3-1.7
							c0.4-0.6,0.8-1.2,1.1-1.7C428.8,75.3,429.2,76,429.6,76.7z"/>
					</g>
					<g id="XMLID_469_">
						<path id="XMLID_470_" class="st6" d="M427.4,67.4c0.2,0.7-0.1,1.3-0.2,2.2c0,0.2,0,0.5,0,0.6c-0.2,1.5-0.5,3.2-0.7,4.8
							c-0.1,0.4-0.2,0.7-0.3,1c0.4,0.2,0.8,0.3,1.2,0.5c0.1,0.6,0.2,1.1,0.3,1.7l-1.6,1.2c-0.2-0.3-0.4-0.6-0.6-0.8
							c-0.5,0.8-1,1.6-1.6,2.4c0,0.7-0.1,1.6-0.2,2.3c-0.1,1-0.1,2-0.1,3c-0.1,0.6-0.1,1.2-0.1,1.7c-1.3,2.2-2,1.4-2.6,1.6
							c-0.3-0.8-0.2-2-0.1-3.1c0.1-1.1,0.1-2-0.5-2.2c0.3-1.9,0.7-4.1,1.1-6c0.4-1.4,0.8-2.9,1.3-4.4c0.2-2.2,0.5-2.9,0.9-3.9
							c0.8-2,1.6-3.9,2.5-5.7C426.5,65.4,426.9,66.4,427.4,67.4z"/>
					</g>
					<g id="XMLID_467_">
						<path id="XMLID_468_" class="st9" d="M426,79.3c-0.2,1-0.5,2.1-0.7,3.1c-0.6,0.3-1.1,0.6-1.7,0.8c0.1-0.7,0.1-1.6,0.2-2.3
							c0.6-0.8,1.1-1.6,1.6-2.4C425.6,78.7,425.8,79,426,79.3z"/>
					</g>
					<g id="XMLID_465_">
						<path id="XMLID_466_" class="st6" d="M469.7,22.7c0.6,1.1-0.2,1.6-1.2,2c-1,0.4-2.1,0.6-1.9,1.1c-1.5,0.5-2.9,1.1-4.4,1.7
							c-0.9,0.3-1.9,0.6-2.8,0.8c-0.1-0.3-0.2-0.6-0.3-0.9c-1.6,0.2-3.3,0.4-4.9,0.7c0.1-0.2,0.2-0.5,0.3-0.7
							c1.1-0.6,2.3-1.1,3.4-1.6c0.7,0,1.4,0.1,2.1,0.2c0.7-0.3,1.4-0.6,2.3-0.9c0.9-0.6,1.8-1.3,2.7-1.9
							C466.6,23,468.1,22.8,469.7,22.7z"/>
					</g>
					<g id="XMLID_463_">
						<path id="XMLID_464_" class="st5" d="M466.3,151.1c0.2-1.8,2.7-3.5,4.1-5.3c1-0.5,2.1-1.1,3.2-1.6c0.5-0.9,1.3-1.8,2.1-2.6
							c0.9-0.8,1.7-1.6,2.1-2.4c2,0.1,4.2-3.1,6.7-4.6c0.4-1.7,2.5-1.4,3.7-2.5c1.3-1,2.7-2,4.1-3.1c1.4-1.1,2.6-2.1,3.5-3.2
							c0.6-0.4,1.2-0.8,1.8-1.2c-1.1,1.3,0.3,1.4,0.6,2.4l-0.6,0.5c-0.9,0.8-1.8,1.5-2.8,2.2c-0.1,0.1-0.2,0.2-0.4,0.3
							c-2.7,2.3-6.7,3.7-8.3,5.8l-2,2.1c-1,0.8-2,1.5-3,2.3c-0.7,0.6-1.4,1.1-2.2,1.7c-0.7,0.5-1.6,1.1-2.4,1.5
							c-0.6,0.4-1.1,0.7-1.6,1.1c-0.5,0-0.9,0.1-1.4,0.1c-0.3,0.5-0.6,0.9-0.9,1.4c-0.8,0.5-1.6,1-2.3,1.6c-0.6,0.6-1.7,1.2-1.6,2.4
							c-0.7,0.5-1.5,0.9-2.2,1.4C466.7,151.2,466.5,151.2,466.3,151.1z"/>
					</g>
					<g id="XMLID_461_">
						<path id="XMLID_462_" class="st8" d="M470,150.2c-0.2-0.1-0.5-0.2-0.8-0.3C469.5,149.9,469.7,150,470,150.2z"/>
					</g>
					<g id="XMLID_459_">
						<path id="XMLID_460_" class="st7" d="M507.4,120.3c0,0.1-0.1,0.3-0.2,0.5C507.3,120.6,507.4,120.4,507.4,120.3z"/>
					</g>
					<g id="XMLID_457_">
						<path id="XMLID_458_" class="st7" d="M430.8,64.9c0.3,0,0.6-0.1,0.9-0.1C431.4,64.8,431.1,64.8,430.8,64.9z"/>
					</g>
					<g id="XMLID_455_">
						<path id="XMLID_456_" class="st9" d="M531.3,92.9c0.6-2.7,1.5-4.8,2.3-6.9c0.8-2.1,1.5-4.2,1.6-6.6c0.3-0.8,0.6-1.8,0.9-2.7
							c0.2-1.2,0.4-2.4,0.5-3.6c0.6,0.6,1.3,1.1,1.9,1.9c0,0.2,0,0.5-0.1,0.6c-0.5,2.4-1.3,4.4-2.1,6.4c-0.3,1.3-0.7,2.6-1.1,3.8
							c-0.8,1.6-0.5,2.6-1,3.9C533.3,90.8,532.3,92,531.3,92.9z"/>
					</g>
					<g id="XMLID_453_">
						<path id="XMLID_454_" class="st9" d="M523,41.3c-0.6-0.7-0.8-0.7-1.3-0.9c-0.4-0.1-1.1-0.4-2.4-1.6c-0.3-0.2-0.5-0.5-0.8-0.7
							c-0.5-0.7-0.9-1.3-1.5-1.9c0.2-0.2,0.5-0.5,0.7-0.7c0.8,0.5,1.4,0.9,2.1,1.5C520.3,37.8,521,38.4,523,41.3z"/>
					</g>
					<g id="XMLID_451_">
						<path id="XMLID_452_" class="st9" d="M485.5,22.9c-1.9,0.9-2.5,0.9-4.9,0.6c-1.3,0.5-2.5,0.9-3.6,1.4
							c-1.3-0.1-2.8-0.2-4.1-0.3c-1,0.4-1.9,0.7-2.8,1.1c-1-0.5-2-0.9-3.6,0.1c-0.2-0.5,1-0.7,1.9-1.1c1-0.3,1.9-0.9,1.2-2
							c0.7-0.2,1.6-0.3,2.4-0.5c0.7,0.3,1.3,0.5,1.9,0.7c1.6-0.1,3.1-0.2,4.8-0.2c0.4,0,0.8,0,1.3-0.1
							C481.9,22.7,483.8,22.7,485.5,22.9z"/>
					</g>
					<g id="XMLID_449_">
						<path id="XMLID_450_" class="st9" d="M486.2,22.9c-0.3,0-0.5,0-0.6,0C485.7,22.9,485.9,22.9,486.2,22.9z"/>
					</g>
					<g id="XMLID_447_">
						<path id="XMLID_448_" class="st9" d="M453,32.8c-0.7,1-1.2,1.9-1.7,2.8c-1,0.3-1.9,0.6-2.9,0.8c0.9-1.1,1.8-2.2,2.8-3.2
							C451.8,33.1,452.4,32.9,453,32.8z"/>
					</g>
					<g id="XMLID_445_">
						<path id="XMLID_446_" class="st9" d="M453.4,32.5c-0.1,0.1-0.3,0.2-0.4,0.2C453.1,32.7,453.3,32.6,453.4,32.5z"/>
					</g>
					<g id="XMLID_443_">
						<path id="XMLID_444_" class="st6" d="M431.1,60.6c0,0.2-0.1,0.4,0,0.6C431,61,431,60.8,431.1,60.6z"/>
					</g>
				</g>
			</g>
		</g>
	</g>
</g>
<g id="XMLID_44_">
	<g id="XMLID_236_">
		<g id="XMLID_240_">
			<g id="XMLID_241_" class="st1">
				<g id="XMLID_242_" class="st1">
					<g id="XMLID_433_">
						<path id="XMLID_434_" class="st2" d="M448.1,174.8c-0.2-0.1-0.3-0.3-0.5-0.3c-0.1-0.7-0.1-1.4-0.2-2.1
							c-0.7-0.4-1.5-0.8-2.2-1.1c-0.3-0.5-0.6-1.1-1-1.5c-0.5-0.5-0.5-1.6-0.8-2.8c-1-1.7-1.6-2.8-2.5-3.6c-1.6,1-1.7-3.3-3-5.3
							c-0.6,0.2-1.3,0.5-1.8,0.7c-0.2-1.2-1.2-1.4-1.7-3c-2.2-0.5-3-1.6-3.9-3c-0.3-0.2-0.6-0.3-0.8-0.4c-0.2-0.6-0.4-1.2-0.6-1.8
							c-1.2-0.8-1.7,0.5-2.5,0.7c-0.4-1-0.8-1.9-1.3-3c0.1-0.3,0.1-0.6,0.2-1c0.5-0.3,1.1-0.5,1.6-0.8c0.6,0,1.2,0.1,1.7,0.2
							c1.1,1.2,1.6,1.4,1.7,1.1c1.7-0.2-0.5-2.1-1.1-3.1c0.2-0.2,0.3-0.5,0.4-0.7c0.8,0.3,1.5,0.6,2.3,0.9c0.9,0.8,1.5,0.9,2,1.1
							c0.5,0.2,1,0.4,1.5,1.7c0.3-0.1,0.7-0.1,1-0.2c0.5,0.4,0.9,0.8,1.4,1.3c0,0.3,0.1,0.6,0.2,0.8c-0.4,0.1-0.9,0.2-1.3,0.2
							c-0.3-0.1-1-0.3-1.5-1.5c-1.1,1.3-2.9,1.4-4.1,1.1c-0.2,0.9,1,1,1.3,2c0.5,0.6,1,1.2,1.4,1.9c0.9-0.4,1.1-0.6,1.3-0.7
							c0.3,0.7,0.7,1.4,0.8,2.1c0.9,0.9,1.3,1.6,1.9,2.2c1.2-0.3,1.3,0.8,1.6,1.1c2.4,1.1,3.9,3.4,4.8,6.4c-0.3,0.3-0.2,1.6-0.2,2.5
							c1.1,1,1.7,1.9,2.6,1.4c0-0.4,0-0.6,0-0.9c-0.2-1.4-0.4-2.9-0.8-4.3c-0.2-0.5-0.5-1.1-0.7-1.6c-0.5-0.3-1.1-0.6-1.6-0.9
							c0.4-1.2-0.5-3.4-0.8-5.1c0.1-0.6,0.1-1.3,0.2-1.9c1.1,0.8,1.6,2.6,2.3,4.3c0.5,1.8,0.9,3.5,1.2,5.2c0.5,1.2,1,2.5,1.4,3.7
							c0.7,2.6,2.1,4.5,1.3,6.1c-0.1,0.8-0.2,1.5-0.3,2.2L448.1,174.8z"/>
					</g>
					<g id="XMLID_431_">
						<path id="XMLID_432_" class="st3" d="M444.1,166.7c0-1-0.2-2.2,0.2-2.5c-0.9-3-2.3-5.3-4.8-6.4c-0.3-0.3-0.4-1.4-1.6-1.1
							c-0.7-0.6-1-1.3-1.9-2.2c-0.1-0.8-0.5-1.5-0.8-2.1c-0.2,0.1-0.5,0.2-1.3,0.7c-0.5-0.7-0.9-1.3-1.4-1.9c-0.3-0.9-1.4-1-1.3-2
							c1.2,0.3,2.9,0.3,4.1-1.1c0.5,1.2,1.3,1.5,1.5,1.5c0.5,0,0.9-0.1,1.3-0.2c0.5,0.8,0.8,1.5,1.2,2.2c0.4,0.8,0.8,1.5,1.1,2.3
							c0.9-0.4,1.4,2.9,2.3,1.4c0.4,1.7,1.2,3.9,0.8,5.1c0.5,0.3,1.1,0.6,1.6,0.9c0.3,0.5,0.5,1.1,0.7,1.6c0.3,1.4,0.6,2.8,0.8,4.3
							c0,0.3,0,0.6,0,0.9C445.9,168.6,445.2,167.7,444.1,166.7z"/>
					</g>
					<g id="XMLID_429_">
						<path id="XMLID_430_" class="st4" d="M442.8,155.3c-0.9,1.5-1.4-1.8-2.3-1.4c-0.4-0.8-0.7-1.5-1.1-2.3
							c-0.4-0.8-0.8-1.5-1.2-2.2c-0.1-0.3-0.1-0.5-0.2-0.8c-0.5-0.4-0.9-0.8-1.4-1.3c-0.3,0.1-0.7,0.1-1,0.2c-0.5-1.2-1-1.5-1.5-1.7
							c-0.5-0.2-1.1-0.3-2-1.1c-0.8-0.3-1.5-0.6-2.3-0.9c-0.2,0.2-0.3,0.5-0.4,0.7c0.7,1,2.8,2.9,1.1,3.1c-0.1,0.3-0.7,0-1.7-1.1
							c-0.6-0.1-1.2-0.1-1.7-0.2c-0.5,0.3-1.1,0.5-1.6,0.8c-0.9-0.7-1.8-1.4-2.7-2l-0.5-0.5c-0.5-0.2-0.9-0.5-1.4-0.7
							c0.1-0.6,0.2-1.2,0.3-1.8c-0.6-1.3-1.2,0.3-2.2-0.4c-0.7-1-1.3-2.1-2-3.1c-3-1.9-1.6-4.7-5-6c-0.7-0.8-1.4-1.7-2.2-2.5
							c-1.4-0.6-2.8-1.2-4.1-1.8l-2.4-1.8c0.3-0.1,0.1-0.4,0-0.6c-1.2-0.9-2.3,0.5-4.2-1.6c-0.5-0.4-0.9-0.9-1.3-1.3
							c-1-0.7-2.1-1.3-3-2c-1.1-0.8-2.1-1.6-3.1-2.5c-0.2-0.1-0.4-0.3-0.6-0.5c-1.2-1.3,0.5-1.3,0-2.2c-0.8-0.9-2.7-1.7-2.2-2.9
							c-0.7-0.7-1.5-1.5-2.2-2.3c-1.3-0.8-2.1-0.5-2.9-1.6c-0.5-0.5-1-1-1.5-1.5c-0.2-0.2-0.3-0.3-0.5-0.5c-0.9,0.4-1.5-0.6-1.8-1.2
							c-0.6-0.5-1.3-1.1-1.9-1.7c0.6-0.8-1.3-1.6-1.1-2.7c-0.7-1.3-1.4-2.5-2-3.7c-1.5-1-4.3-1.1-2.8-2.2c-0.2-0.6-0.7-1.1-1.2-1.7
							c-0.5-0.6-0.9-1.2-1.1-2.1c-0.3-0.6-0.5-1.3-0.7-1.9c-0.2-0.6-0.4-1.3-0.5-1.9c-0.5-0.5-1-1-1.4-1.6c-0.2-0.6-0.4-1.2-0.6-1.8
							c-0.3-0.6-0.5-1.3-0.7-1.8c-0.8-0.9-1.7-2.4-0.5-2.5c0-0.2,0-0.4-0.1-0.6c-0.6-0.1-0.7-0.4-0.8-0.8c-0.1-0.3-0.1-0.7-0.4-0.8
							c-0.4-0.2-0.4-1.5,0.2-1.9c0-0.2,0-0.4,0-0.7c0-0.7,0-1.5,0-2.2c-0.9-0.6-0.4-1.5-0.1-2c0.1-1.1,0.4-2.1,0.7-3.2
							c0.3-0.9,0.6-1.9,1-2.8c-1-0.7,0.6-2.5,2.4-2.7c0.2-0.3,0.5-0.7,0.8-1c-0.1-0.5-0.1-1,0-1.4c0.7-0.7,1.7-1.8,2.4-1.6
							c0.3-0.2,0.7-0.5,1-0.7c0.5-1.2,1-0.6,1.6-1c0.1,0,0.2-0.1,0.3-0.2l-0.8-1.5c0.1-0.8,0.6-1,1.1-0.9c0.5,0.1,1.1,0.3,1.5,0.2
							c0.4,0,0.4-0.3,0.6-0.5c-0.3-0.9,0.4-0.9,1.1-0.9c0.8,0,1.7,0.2,2-0.8c1-0.2,0.8,1.4,2.5,0.6c0.2-0.9,1.2-1.2,2.4-1.2
							c1.2,0.1,2.5,0.4,3.5,0.6c0.5-0.5,1.1-1,1.6-1.3c1.9,1,3.5,0.8,5.2,0.6c1.7-0.2,3.8-0.4,5.9,1c1,1.4,3.2,1,4.1,2.6
							c1.2-1.2,2.8,0,4.3,1.2c1.5,1.2,2.8,2.4,4,1.3c1.6,1.2,2.9,3.3,4.5,3.8c-0.2,1.5-0.2,1.7,0.1,1.9c0.8,0.3,1-0.4,1.4-0.7
							c0.5,0.6,0.9,1.3,1.3,1.9c-1.2,0.1-0.1,1.4-0.3,2.1c2.6,0.3,1.4,3.8,2.9,5.7c1.4,1.3,3.2-1.1,3.8,2c1.8,0.5,2,0.9,2.6,2.8
							c-0.5,1.3,0.3,2.7,0.5,4.4c-0.3,0.3-0.6,0.6-0.9,0.9c0,0.4,0,0.9-0.1,1.3c-0.9,1.4-1.7,2.2-1.6,3.7c-0.4,0.1-0.8,0.2-1.3,0.3
							c-1-1.3-1.7-1.3-2-1.9c0.3-0.7,0.6-1.4,0.8-2.1c-0.7-0.6-1.5-1.2-2.2-1.7l-1.3-2.1c-0.6-0.1-1.3-0.1-1.9-0.2
							c-0.2-0.1-0.4-0.3-0.6-0.4c-0.3-1.1-0.6-2.1-0.9-3.2c0-0.7,0.1-1.3,0.1-2.1c0.3-0.2,0.6-0.4,1-0.7c-0.6-1.1-1.3-2.2-2.1-3.2
							c-0.6-0.9-1.2-1.8-1.8-2.7c0.1-0.4,0.1-0.9,0.1-1.4c-0.5-0.1-1-0.1-1.4-0.1c-0.8-0.5-0.5-1.5-1.5-1.6c-0.4,1.3-1.2-0.3-3-1.5
							c-0.3-0.5-0.5-0.8-0.8-1.3c-1.3-0.4-1.5,0.2-2,0.2c-0.5-0.3-1.1-0.5-1.6-0.7c-0.2,1-1.2,0.2-1.8,0.2c-1-1.4-2.2-0.2-3.3-1.5
							c-0.7-0.1-0.6,1.1-1.1,0.8c-0.2-0.1-0.4-0.2-0.6-0.3c0-0.4,0.1-0.9,0-1.4c-0.2-0.1-0.5-0.3-1.9-0.1c0.1-0.5,0.2-1,0.3-1.5
							c-0.6-0.3-1.1-0.6-1.7-0.9c-0.2,0.1-0.5,0.2-0.8,0.2c-1.2-0.3-2.4-0.6-3.6-0.7c0.3-0.9-0.3-0.9-1-0.8c-0.6,0-1.2,0.1-1-1
							l-0.6-0.1c-0.2,1.4,0.3,1.7-0.1,2.8c-0.5-0.2-1.1-0.3-1.7-0.4c0-0.5,0.1-1,0.1-1.5c-1.8-1.2-0.8,1.2-1.9,1.2
							c-0.6-0.2-1.2-0.4-1.9-0.6c-0.2-0.3-0.6-0.2-0.9-0.2c-0.5,0.4-0.1,0.9-0.1,1.3c-0.5,0.1-1,0.2-1.4,0.3c-0.9,0.5,0,1.4-0.7,1.7
							c-1.3-0.9-1.8-1.3-2.9-2.4c-0.2,0.7-0.3,1.4-0.4,2c-0.2,0.6-0.9,0.6-1.4,1c-0.5-0.3-1.2-0.5-1.5-1.4c-0.3,0-0.6,0.1-0.9,0.3
							c0,0.5,0,1.1,0,1.5c-0.4,0.3-0.8,0.6-1.3,0.7c-0.6,0.6-1.1,1.2-1.5,1.9c-0.7,0.5-1.4,1.2-2,1.8c-0.2,0.9-0.3,1.7-0.4,2.6
							c-0.2,0.8-0.4,1.6-0.5,2.4c-0.7,1.2-1.3,2.4-1.8,3.8c0,0.2-0.1,0.4-0.1,0.6c0.2,0,0.5,0.1,0.7,0.1c0.2,0.4,0.4,0.8,0.6,1.2
							c0.2,0.5,0.3,1,0.5,1.5c0,0.5,0,1.1,0,1.7c0,0.4,0.1,0.7,0.1,1.1c-0.3,0.7-0.3,1.1-0.3,1.4c0,0.3,0.1,0.4,0.1,0.7
							c0.4,0.7,1,0.3,1.4,0.7c0.1,0.4,0.2,0.8,0.3,1.1c-0.3,1.1-0.2,1.8,0,2.4c0.2,0.6,0.5,1.1,0.7,1.8c0.3,0.6,0.5,1.2,0.8,1.7
							c0.5,0.1,1,0.2,1.5,0.3l1.8,0.8c0.4,0.5,0.9,1,1.4,1.4c0,0.6,0.1,1.1,0.2,1.7c0.3,0.8,0.7,1.6,1.1,2.4c0,0.3,0,0.6,0,0.8
							c0.5,0.1,1.1,0.3,1.6,0.5c0.7,0.4,1.4,0.9,2.1,1.3c0,0,0.1,0.2,0.2,0.3c-0.2,0.5-0.4,1.1-0.5,1.7c0.1,0.2,0.3,0.3,0.5,0.5
							c1.1-0.2,0.8-0.8,1.2-1l0.8,0.2c1.5,1.6-0.6,2.2,1.4,3.3c0.4-0.2,0.8-0.4,1.2-0.6c0.4,0.4,0.8,0.8,1.2,1.2
							c0.5,0.8,1,1.6,1.4,2.4c0.9,1.1,1.8,2.2,2.7,3.2c1.6,0.2-0.2-1.2,0.7-1.8c1.5,0,1.4-0.2,1.4-0.4c-0.4-0.8-1.1-0.2-1.6-0.8
							c0-0.1,0-0.3-0.1-0.4c0.4-0.4,0.8-0.8,1.2-1.3c0.4,0,0.8-0.1,1.2-0.2c0.1,0,0.3,0,0.4,0c0.6,0.7,1.1,1.3,1.8,1.9
							c-0.2,0.1-0.1,0.4-0.1,0.6c0.4,0.8,1.1,0.2,1.6,0.7c0.2,0.7,0.6,1.4,0.9,2.1c0.8,1.3,1.9,0.5,2.9,1.4c0.3,0.2,0.5,0.4,0.8,0.6
							c0.4,0.4,0.8,0.8,1.2,1.3c2.1,0.9,4.5,3.1,6.7,4.7c1.2,0.7,1.4,2.7,3,2.5c1.9,1.8,5.4,2.9,5.8,4.9c1.7,0.3,3.8,2.4,5.8,3
							c0.8,1,1.5,2,2.2,3c2.1,1.3,4.2,3.8,6.1,4.2c0.5,0.9,1.1,1.8,1.5,2.8c0.6,0.7,1.2,1.5,1.9,1.8c1.4,2.4,2.9,4.1,1.7,5.3
							c0.2,0.2,0.4,0.4,0.7,0.6c0.3,0.5,0.6,1,0.9,1.5c0,0.1,0.1,0.2,0.2,0.4c0.6,0.5,1.2,1,1.7,1.6c0.2,0.3,0.4,0.7,0.6,1.1
							c0.3,0.4,0.6,0.7,0.8,1c0.3,0.6,0.7,1,1,1.5C442.9,154,442.9,154.7,442.8,155.3z"/>
					</g>
					<g id="XMLID_427_">
						<path id="XMLID_428_" class="st2" d="M416.6,142.3c-0.4-0.2-0.9-0.5-1.2-0.7c-0.5-0.5-1-1-1.5-1.6c-0.3-0.2-0.6-0.5-0.8-0.7
							c-0.8-1.2-1.5-2.2-2.3-3.4c-0.1-0.1-0.2-0.1-0.3-0.2c-1.1-0.5-2.2-1.1-3.4-1.6c-0.4-0.3-0.8-0.6-1.2-0.9
							c0.2-0.6,0.4-1.2,0.5-1.8c-1-0.7-2-1.4-2.8-2.4c-0.5,0.2-0.9,0.4-1.3,0.6c-1-0.5-2.1-2.1-3-1.6c-1,0.4,0.1,1.4,0.9,1.9
							c1.3,0.5,0.7,1.2,0.9,1.9c-0.6,0-1.2,0-1.8,0c-1.1-1.3-5.6-2.9-3.4-4.1c-1.2-0.8-2.4-1.7-3.6-3.1c-0.2,0.4-0.4,0.8-0.6,1.1
							c0.3,0.8,2.4,1.8,1,2.3c-1.2-0.9-2.3-1.8-3.5-2.7c-0.4-0.7-0.9-1.4-1.3-2c0.6-0.2,0.1-0.9,0.4-1.6c-1.2-0.6-2.4-1.1-3.5-1.7
							c-1.4-0.1-1.5,0.3-2.8,0.2c-0.7-0.6-1.3-1.2-2-1.7c-1-2.1,1.3-1.5,2-2.6c-0.1-0.3-0.1-0.5-0.2-0.9c-1.7-1.1-3.4-2.2-5-3.5
							c-1.9-0.2-3.3-4.2-5-3.2c-0.9-1-1.9-2.4-3.1-2.9c-3,0.1-0.2,2.3-0.8,3c-1.2,0.1-1.6-1.3-2.5-1.2c-1.3-1.2-2.9-3-4.2-4.7
							c-0.1-0.1-0.1-0.2-0.2-0.4c-0.1-0.2-0.3-0.4-0.5-0.7c-0.9-0.7-1.8-1.6-2.6-2.5c-0.3-0.4-0.6-0.6-0.8-1
							c-0.1-0.8-0.2-1.5-0.3-2.3c-0.8-0.8-1.1-1.8-1.4-2.8c-0.2-1-0.4-2-0.7-3c1.5,0,3.3,2,3.8,4.2c1.3-0.6,1.6,2.6,2.8,3.3
							c1.2-0.3,0.9-1.6,0.9-2.8c-0.1-1.2,0-2.4,1.4-2.6c2.1,0.8,2.9,3.4,4.2,2.1c1.2,1.3,0.2,2.6,1.8,4l1.1-0.7
							c-1.2-1.7-2.1-3.6-2.9-5.4c-0.7-1.8-1.4-3.4-2.3-4.6c-0.7,1.2-1.2,0.5-1.6-0.3c-0.4-0.8-0.8-1.6-1.4-0.2
							c0.2,0.8,0.4,1.7,0.7,2.6c-1.4-0.6-1.6-1.5-1.6-2.3c-0.5-0.3-1.1-0.8-1.7-1.2c-1.1-1.5-1.3-2.6-1.9-4.6
							c-1,0.2-1.2-1.3-1.3-2.6c-0.1-1.3-0.3-2.3-1.7-1.2c-0.8,0.4-0.9-0.1-0.7-0.9c0.1-0.7,0.4-1.7,0.3-2.3c0.9-0.3,0.5-2.6,1-4
							c-0.5-0.6-0.4-2.1-1.4-1.8c-0.3,2.2-1.4,0.1-1.6,2.6c-0.5-0.6-2.5,0.8-1.4-2c-1.5,0.4-1.7-0.9-1.6-2.6
							c0.1-1.7,0.6-3.7,0.2-4.6c-0.5-1.9,1-5.1,2.8-7.7c-0.1-1.8,0.7-4.1,2.3-6.5c1.6-2.4,3.9-4.8,6.2-7l-0.6-1.1
							c0.1-0.1,0.4-0.2,0.5-0.3c1.7-0.6,2.8-1.1,3.7-1.4c0.2-0.9,0.3-1.7,0.5-2.5c0.4-0.8,0.7-1.6,1.2-2.5c0.7-0.3,1.5-0.6,2.2-0.9
							c0.8-0.3,1.5-0.6,2.2-0.8c1.7,0.5,1.1,1.2,0.1,2.1c-1,0.9-2.5,1.9-2.9,2.7c-0.9,0.6-1.8,1.3-2.6,2.1c-0.4,0.7-0.8,1.4-1.1,2
							c-0.3,0.7-1.5,1.3-2.3,2c-0.8,0.7-1.4,1.4-0.6,1.7c-2.5,1.7-2.1,3-2.7,4.3c-0.1,1.3,1.9-0.1,3-0.8c1.5-2.2,3-2.6,4.3-2.9
							c0.6-0.2,1.2-0.3,1.8-0.6c0.6-0.3,1.1-0.9,1.7-1.7c0.7-0.1,1.6-0.4,2.5-0.6c0.9-0.3,1.8-0.5,2.7-0.7c1.8-0.4,3.4-0.6,4.2-0.1
							c1.3,0.5,2.2,0.5,2.6,1.4c1-0.3,2-0.8,3.2-1.3c1.2-0.4,2.5-0.6,3.9,0c0.6,0.2,0.8,0.8,1.2,1.3c0.4,0.5,1.1,0.9,2.6,1
							c0.4-0.4,0.8-0.9,1.2-1.3c1.1,0,2,0.3,2.4,0.8c0.4,0.4,0.3,0.9-0.5,1.1c-0.6-0.1-1.3-0.5-2.3-0.2c0.4,0.4,0.8,0.8,1.1,1.2
							c1.2,0.5,2.6,0.5,4,0.5c1.4,0,2.8,0,4,0.5c-0.3,0.9,0.5,1.8,2.1,2.6c1.3-0.2,3.6,0.7,3.6,2c1.4,0.5,2.7,1,4,1.5
							c0.7,0,0.9-0.6,1.3-0.9c1.9,1.6,4.3,3,6.2,4.7c1.9,1.7,3.4,3.6,3.3,5.6c1.2,1.4,1.3-1.7,2.7,0.5c1.4,2.2-3,1.7,0.2,4.7
							c0.9-0.6,1-0.7,1.2-0.8c0.4,0.6,1.4,1.6,1,2.2c1.8,2.1,2.4-1,3.4,2c0.7,0.1,1.3,0.1,2.1,0.5c0.7,0.8,1.3,1.7,1.9,2.5
							c-0.5,0.2-1,0.3-1.5,0.5c-0.1,0.6-0.2,1.3-0.3,1.9c0.4,1,1.9,2.4,1.3,3.2c-0.6,0.8-1.2,1.5-1.8,2.2c0,0.8-0.1,1.5-0.2,2.2
							l-0.5,1.6c0.2,0.4,0.5,0.9,0.7,1.3c-0.1,0-0.2,0.1-0.2,0.1c-0.4,0.1-0.8,0.2-1.3,0.2c-0.8-0.1-0.2,1.1-0.7,1.2
							c-0.9,0-1.7,0-2.5,0c0.6-1.7,0.8-2.2,1.1-3.4c0.2-0.1,0.3-0.2,0.5-0.2c0-0.5,0.1-0.9,0.1-1.3c0.4-0.3,0.6-0.6,0.9-0.9
							c-0.2-1.7-1-3-0.5-4.4c-0.6-2-0.8-2.3-2.6-2.8c-0.6-3.1-2.4-0.8-3.8-2c-1.5-1.9-0.4-5.4-2.9-5.7c0.1-0.7-1-1.9,0.3-2.1
							c-0.4-0.7-0.8-1.3-1.3-1.9c-0.5,0.3-0.7,1-1.4,0.7c-0.3-0.2-0.2-0.4-0.1-1.9c-1.7-0.5-2.9-2.6-4.5-3.8c-1.2,1.1-2.5-0.2-4-1.3
							c-1.5-1.2-3.1-2.3-4.3-1.2c-0.9-1.5-3-1.1-4.1-2.6c-2.1-1.4-4.1-1.2-5.9-1c-1.8,0.2-3.3,0.4-5.2-0.6c-0.5,0.4-1.1,0.9-1.6,1.3
							c-0.9-0.2-2.3-0.6-3.5-0.6c-1.2,0-2.2,0.2-2.4,1.2c-1.7,0.8-1.5-0.8-2.5-0.6c-0.3,0.9-1.2,0.8-2,0.8c-0.8,0-1.5,0-1.1,0.9
							c-0.2,0.2-0.2,0.5-0.6,0.5c-0.5,0.1-1-0.1-1.5-0.2c-0.5-0.1-1,0.1-1.1,0.9l0.8,1.5c-0.1,0.1-0.2,0.1-0.3,0.2
							c-0.6,0.4-1.2-0.2-1.6,1c-0.3,0.2-0.7,0.5-1,0.7c-0.8-0.3-1.8,0.9-2.4,1.6c0,0.5,0,0.9,0,1.4c-0.3,0.3-0.6,0.6-0.8,1
							c-1.8,0.2-3.4,2-2.4,2.7c-0.4,0.9-0.7,1.8-1,2.8c-0.3,1-0.6,2.1-0.7,3.2c-0.3,0.5-0.8,1.4,0.1,2c0,0.7,0,1.5,0,2.2
							c0,0.3,0,0.5,0,0.7c-0.7,0.4-0.6,1.8-0.2,1.9c0.3,0.1,0.3,0.4,0.4,0.8c0.1,0.3,0.2,0.7,0.8,0.8c0,0.2,0,0.4,0.1,0.6
							c-1.2,0.2-0.4,1.6,0.5,2.5c0.2,0.6,0.4,1.2,0.7,1.8c0.2,0.6,0.4,1.2,0.6,1.8c0.5,0.6,0.9,1.1,1.4,1.6c0.2,0.6,0.3,1.3,0.5,1.9
							c0.2,0.6,0.4,1.3,0.7,1.9c0.1,0.9,0.6,1.5,1.1,2.1c0.5,0.6,0.9,1.1,1.2,1.7c-1.5,1.1,1.2,1.2,2.8,2.2c0.6,1.2,1.3,2.4,2,3.7
							c-0.2,1.1,1.7,1.9,1.1,2.7c0.6,0.6,1.3,1.1,1.9,1.7c0.2,0.6,0.8,1.5,1.8,1.2c0.2,0.2,0.4,0.4,0.5,0.5c0.5,0.5,1,1,1.5,1.5
							c0.7,1.1,1.6,0.9,2.9,1.6c0.7,0.8,1.4,1.6,2.2,2.3c-0.5,1.2,1.4,2,2.2,2.9c0.4,0.9-1.2,0.9,0,2.2c0.2,0.2,0.4,0.3,0.6,0.5
							c1.1,0.9,2.1,1.7,3.1,2.5c1,0.7,2,1.4,3,2c0.4,0.4,0.8,0.9,1.3,1.3c2,2.1,3.1,0.8,4.2,1.6c0.1,0.3,0.3,0.5,0,0.6l2.4,1.8
							c1.4,0.6,2.8,1.2,4.1,1.8c0.8,0.8,1.5,1.7,2.2,2.5c3.5,1.2,2,4.1,5,6c0.7,1,1.4,2.1,2,3.1c-0.1,0.1-0.1,0.1-0.2,0.2
							C418.1,142.1,417.4,142.2,416.6,142.3z"/>
					</g>
					<g id="XMLID_425_">
						<path id="XMLID_426_" class="st5" d="M393.2,104.9c-0.2,0-0.3,0-0.4,0c-0.4,0.1-0.8,0.2-1.2,0.2c-0.4,0.4-0.8,0.9-1.2,1.3
							c0,0.2,0.1,0.3,0.1,0.4c0.5,0.5,1.2,0,1.6,0.8c0.1,0.3,0.1,0.5-1.4,0.4c-0.8,0.6,0.9,1.9-0.7,1.8c-0.9-1-1.8-2.1-2.7-3.2
							c-0.4-0.8-0.9-1.6-1.4-2.4c-0.4-0.4-0.8-0.8-1.2-1.2c-0.4,0.2-0.8,0.4-1.2,0.6c-2-1.1,0.2-1.7-1.4-3.3l-0.8-0.2
							c-0.4,0.2-0.1,0.8-1.2,1c-0.2-0.2-0.3-0.4-0.5-0.5c0.1-0.6,0.2-1.3,0.3-1.9c-0.7-0.4-1.4-0.9-2.1-1.3
							c-0.5-0.1-1.1-0.3-1.6-0.5c0-0.3,0-0.5,0-0.8c-0.3-0.8-0.7-1.5-1.1-2.4c-0.1-0.6-0.1-1.2-0.2-1.7c-0.5-0.4-0.9-0.9-1.4-1.4
							l-1.8-0.8c-0.5-0.1-1-0.2-1.5-0.3c-0.3-0.6-0.5-1.1-0.8-1.7c-0.2-0.7-0.5-1.2-0.7-1.8c-0.2-0.6-0.3-1.4,0-2.4
							c-0.1-0.4-0.2-0.8-0.3-1.1c-0.4-0.4-1,0-1.4-0.7c0.1-0.3,0-0.4-0.1-0.7c0-0.3,0-0.7,0.3-1.4c0-0.4-0.1-0.8-0.1-1.1
							c0-0.6-0.1-1.2,0-1.7c-0.1-0.5-0.3-1-0.5-1.5c-0.2-0.4-0.4-0.8-0.6-1.2c-0.3,0-0.5-0.1-0.7-0.1c0-0.3,0.1-0.4,0.1-0.6
							c0.4-1.4,1.1-2.7,1.8-3.8c0.1-0.8,0.3-1.6,0.5-2.4c0.1-0.9,0.2-1.7,0.4-2.6c0.6-0.7,1.3-1.3,2-1.8c0.4-0.7,0.9-1.3,1.5-1.9
							c0.5-0.1,0.9-0.4,1.3-0.7c0-0.5,0-1,0-1.5c0.3-0.2,0.6-0.2,0.9-0.3c0.3,0.9,1,1,1.5,1.4c0.5-0.4,1.2-0.4,1.4-1
							c0.1-0.7,0.3-1.4,0.4-2c0.1,0,0.2-0.1,0.3-0.1c0.4,0.5,0.8,1.1,1.2,1.7c0.3,0.1,0.9,0.4,1.5,0.8c0.7-0.3-0.2-1.2,0.7-1.7
							c0.5-0.1,0.9-0.2,1.4-0.3c0-0.4-0.4-0.9,0.1-1.3c0.3,0,0.7-0.1,0.9,0.2c0.7,0.2,1.2,0.4,1.9,0.6c1.1,0,0.1-2.4,1.9-1.2
							c0,0.5-0.1,1-0.1,1.5c0.6,0.1,1.2,0.2,1.7,0.4c0.4-1.1-0.2-1.4,0.1-2.8l0.6,0.1c-0.2,1.1,0.4,1,1,1c0.6-0.1,1.3-0.1,1,0.8
							c1.2,0.1,2.4,0.4,3.6,0.7c0.3-0.1,0.5-0.1,0.8-0.2c0.6,0.3,1.1,0.6,1.7,0.9c0.9,1,1,1.1,1.1,1.4c1.4,0.2,0.2,0.8,0.5,1.7
							c0.2,0.1,0.3,0.2,0.6,0.3c0.6,0.3,0.4-0.9,1.1-0.8c1,1.3,2.2,0.1,3.3,1.5c0.7,0,1.6,0.8,1.8-0.2c0.5,0.2,1.1,0.4,1.6,0.7
							c0.6,0,0.7-0.6,2-0.2c0.3,0.5,0.5,0.9,0.8,1.3c1.8,1.2,2.6,2.8,3,1.5c1,0,0.7,1.1,1.5,1.6c0.4,0,1,0.1,1.4,0.1
							c0,0.5,0,1-0.1,1.4c0.6,0.9,1.2,1.8,1.8,2.7c0.7,1,1.4,2.2,2.1,3.2c-0.5,0.3-0.7,0.5-1,0.7c0,0.8,0,1.4-0.1,2.1
							c-0.4,0.2-1,0.3-1.4,0.6c-0.3-0.4-0.7-0.7-1-1.1c-0.9-0.8-1.9-1.7-2.8-2.5l-0.4,0.3c-0.6-0.8-1.1-1.6-1.7-2.5
							c-0.4,0.2-0.9,0.5-1.3,0.7c-0.3-0.6-0.6-1.2-0.9-1.7c-0.6-0.3-0.8,0.4-1.2,0.6c-0.1-0.1-0.3-0.3-0.4-0.5
							c-0.2-0.2-0.4-0.4-0.6-0.6c0.1-0.1,0.3-0.2,0.4-0.4c0.3-0.3,0.7-0.7,1.1-1c0.4,0.2,0.8,0.4,1.2,0.6l1.1-1.8
							c-2.3-1.2-3.9-2.2-5.1-1.7c-2.1-0.8-4-3.2-5.4-2.5c0.7,0.7,0.9,0.9,1.1,1c-0.3,1.2-1.4,1.2-2.5,0.2c-0.3,1.1-1.2,1.2-1.4,1.8
							c-0.6-1.4-1.5,0-2.5-0.7l-0.5,1.1c-0.2,0.1-0.4,0.1-0.6,0.3c-0.7-0.4-1.4-0.8-2.1-1.1c-1-0.3-1.8-0.5-2.8-0.7
							c-0.7-0.3-1.4-0.5-2.2-0.7c-0.3-0.1-0.7-0.3-1.1-0.5c-0.9-0.4-1.2-0.1-1.3,0.3c-0.1,0.4-0.1,0.8-0.6,0.9
							c-0.8-0.2-1.5-0.3-2.2-0.3c-1.5-0.2-1.9,0.7-2.6-0.3c0,0.6-0.2,0.8-0.4,1c-0.2,0.2-0.4,0.3-0.3,0.6c-0.4,0.5-0.8,0.9-1.3,1.3
							c-0.5,0.4-1,1-1.2,1.7c-0.2,0.5-0.4,1.2-0.5,1.8c-0.1,0.1-0.2,0.3-0.2,0.5c-0.4,0-0.7-0.1-1.1,0c-0.4,0.6-0.2,1,0,1.2
							c0,1.2-0.6,3-0.5,4.5c0.3,0,0.5,0.1,0.7,0.2c-0.1,0.3-0.3,0.6-0.4,1c0,0.4,0.1,0.8,0.1,1.2c0.6,0.4,1.1,0.7,1.7,1l0.4,1
							c-0.3,0.2-0.6,0.3-0.9,0.5c1,0.7,1,1.5,1,2.3c0,0.4,0,0.9,0.2,1.3c0.1,0.4,0.4,0.8,0.9,1.2c-1,0.1-0.4,1.3,0.2,1.4
							c0.1,0.3,0.1,0.5,0.2,0.8c-0.5,0.5-1,1-1.5,1.5c0.4,1,0.9,2,1.4,3c0.5,0.6,1,1.1,1.4,1.7c1.1,0.1,2.2,0.2,3.3,0.2
							c0.1-0.5,0.2-0.9,0.2-1.4c1.2,0.3,1.6,0.9,2.1,1.4c0.1,0.3,0.2,0.5,0.4,0.8c0.5,0.2,1.1,0.4,1.6,0.7c0.1,0.4,0.2,0.7,0.2,1
							c1.1,0.8,2.3,1.7,3.4,2.5c0.2,0.8,0.4,1.7,0.6,2.6C391.8,103.6,392.5,104.2,393.2,104.9z"/>
					</g>
					<g id="XMLID_423_">
						<path id="XMLID_424_" class="st3" d="M376.7,104.5c0.4,3.1-1.9,1-1.4,0.3L376.7,104.5z"/>
					</g>
					<g id="XMLID_421_">
						<path id="XMLID_422_" class="st4" d="M445.3,174.2c0-1,0-2-0.1-2.9c0.7,0.4,1.5,0.7,2.2,1.1c0.1,0.7,0.2,1.4,0.2,2.1
							c-0.4,0.4-0.8,0.8-1.1,1.3C446.1,175.3,445.7,174.7,445.3,174.2z"/>
					</g>
					<g id="XMLID_419_">
						<path id="XMLID_420_" class="st4" d="M428.4,152.6c-0.5,0.2-1.2-0.4-2-0.8c-0.6-0.2-1.1-0.4-1.6-0.6c-0.1-0.4-0.3-0.9-0.4-1.4
							c-0.4-0.3-0.8-0.5-1.2-0.8c0.1-0.4,0.2-0.8,0.3-1.2c0.4,0.1,0.8,0.3,1.2,0.3c0.2,0,0.4,0,0.6,0c0.5,1,0.9,2,1.3,3
							c0.9-0.2,1.3-1.6,2.5-0.7c0.2,0.6,0.4,1.2,0.6,1.8C429.3,152.4,428.9,152.5,428.4,152.6z"/>
					</g>
					<g id="XMLID_417_">
						<path id="XMLID_418_" class="st4" d="M417.1,147.6c-0.2-1.5-2.7-1.5-2.3-2.9c0.2-0.2,0.4-0.4,0.5-0.5c0.8,0.1,1.6,0.3,2.4,0.5
							c0.5,0.3,1,0.7,1.4,1c0.1,0.1,0.2,0.2,0.2,0.2c-0.1,0.6-0.3,0.7-0.5,0.9C418.3,147.1,417.7,147.4,417.1,147.6z"/>
					</g>
					<g id="XMLID_415_">
						<path id="XMLID_416_" class="st4" d="M410,145.5c0-0.4,0.1-0.8,0.1-1.2c0.4-0.2,0.7-0.5,1.1-0.7c0.4,0.2,0.9,0.4,1.4,0.5
							c0,0.5,0,1.1-0.1,1.6C412,146.5,410.9,145.5,410,145.5z"/>
					</g>
					<g id="XMLID_413_">
						<path id="XMLID_414_" class="st4" d="M412.8,141.3c-0.3-0.5-0.7-1-1-1.5c-1.3-0.1-1.7-0.8-2.3-1.2c-0.8-0.5-1.6-1-2.4-1.5
							c-0.6-0.4-1.1-0.9-1.7-1.3c-0.4-0.4-0.9-0.8-1.3-1.3c-0.6-0.6-2.8-1.5-2.9-2.8c-0.2-0.6,0.5-1.3-0.9-1.9
							c-0.8-0.5-1.9-1.5-0.9-1.9c0.9-0.5,2,1.1,3,1.6c0.4-0.2,0.8-0.3,1.3-0.6c0.8,0.9,1.8,1.6,2.8,2.4c-0.1,0.6-0.3,1.3-0.5,1.8
							c0.4,0.3,0.8,0.6,1.2,0.9c1.1,0.5,2.3,1,3.4,1.6c0.1,0.1,0.2,0.1,0.3,0.2c0.8,1.2,1.5,2.3,2.3,3.4c0.2,0.2,0.5,0.4,0.8,0.7
							C413.4,140.6,413.1,140.9,412.8,141.3z"/>
					</g>
					<g id="XMLID_411_">
						<path id="XMLID_412_" class="st4" d="M399.3,146.9c0-0.1-0.1-0.2-0.1-0.4c0.5-0.6,0.9-1.2,1.4-1.7c0.6,0.2,1.2,0,1.7,0.6
							c-0.2,0.8-0.4,1.6-0.6,2.4C401,146.8,400,147.7,399.3,146.9z"/>
					</g>
					<g id="XMLID_409_">
						<path id="XMLID_410_" class="st4" d="M391.4,95.1c-0.7-0.3-1.5-0.6-2.2-0.9c0,0-0.1-0.1-0.2-0.2c0,0,0.1-0.1,0.2-0.2
							c0.4-0.2,0.8-0.3,1.1-0.6c0.8-0.3,1.7,0.8,1.4,1.5C391.5,95,391.4,95.1,391.4,95.1z"/>
					</g>
					<g id="XMLID_407_">
						<path id="XMLID_408_" class="st4" d="M381.1,95.4c-0.6-0.6-1.2-0.2-1.9-0.1c0-0.1,0-0.2,0-0.4c-0.5-0.5-1-1.1-1.4-1.7
							c-0.5-1-1-2-1.4-3c0.5-0.5,1-1,1.5-1.5c0.4,0.2,0.8,0.4,1.2,0.6c0.2,0.4,0.5,0.8,0.8,1.2c-0.3,1.1,0.6,1,1,1.4
							c0.6,1.6,1.2,0.7,1.5,1.1c0.2,0.2,0.3,0.4,0.5,0.7c-0.1,0.5-0.2,0.9-0.2,1.4C382,95.2,381.5,95.3,381.1,95.4z"/>
					</g>
					<g id="XMLID_405_">
						<path id="XMLID_406_" class="st4" d="M380.9,78.3c0.4,0,0.8,0,1.3,0c0.9,0.4-0.2,0.5-1,1.2C381.1,79.1,381,78.7,380.9,78.3z"
							/>
					</g>
					<g id="XMLID_403_">
						<path id="XMLID_404_" class="st4" d="M380.1,75.1c0.1-0.3,0.3-0.5,0.5-0.8c0,0,0-0.1,0-0.1c0.1-0.3,0.2-0.6,0.4-0.8
							c0.2-0.3,0.5-0.5,0.7-0.7c0.5,0.1,0.2-0.3,0.9,0.1c0.5,0.6,0.5,0.8,0.4,1c-0.1,0.2-0.2,0.4,0.2,0.8c-0.1,0.1-1.3-0.1-1.4,0.1
							c0.1,0.2,0.2,0.3,0.3,0.5c0.4,0.4-0.8,0.1-1.8,0.2C380.2,75.3,380.1,75.2,380.1,75.1z"/>
					</g>
					<g id="XMLID_401_">
						<path id="XMLID_402_" class="st6" d="M378.6,74.6c0.1-0.3,0.1-0.5,0.2-0.7c-0.2-0.2-0.4-0.4-0.6-0.6c0.7-0.6,0.8-0.7,1.2-0.8
							c0-0.2,0-0.4,0-0.6c0.1-0.4,0.2-0.9,0.4-1.3c0.7-0.1,1-0.1,0.5-0.5c0.1-0.1,0.3-0.2,0.4-0.3c-0.6-0.7,0.1-0.5,0.3-0.5
							c0.3-0.3,0.7-0.6,1.1-0.8c0.1,0,0.2-0.1,0.4-0.1c0,0,0.1,0,0.1,0c0.3,0.3,0.5,0.7,0.8,1c0.1-0.4,0.6-0.3,0.8-0.9
							c0.1,0,0.1,0,0.1,0c0.2,0,0.4,0,0.6-0.1c0.2,0,0.4,0,0.7-0.1c0.1,0,0.2,0,0.3,0c0.4,0,0.8,0.2,1.2,0.3c0.2,0.3,0.3,0.6,0.4,1
							c-0.1,0.4-0.2,0.8-0.2,1.2c-0.9,0-1.8,0.1-2.5,0.3c-0.2,0-0.4,0-0.6,0.1c-0.3,0.1-0.5,0.3-0.8,0.4c0,0.1-0.1,0.2-0.1,0.3
							c0,0.1,0,0.2-0.1,0.3c-0.1,0.1-0.2,0.1-0.4,0.2c0.5,0.6,0.3,0.5,0,0.3c-0.3-0.1-0.7-0.3-0.5,0c-0.7-0.4-0.4,0.1-0.9-0.1
							c-0.3,0.2-0.5,0.4-0.7,0.7c-0.1,0.3-0.3,0.5-0.4,0.8c0,0,0,0.1,0,0.1c-0.2,0.2-0.4,0.5-0.5,0.8
							C379.6,74.9,379.1,74.8,378.6,74.6z"/>
					</g>
					<g id="XMLID_399_">
						<path id="XMLID_400_" class="st4" d="M383.4,72.2c0-0.1,0-0.2,0.1-0.3c0-0.1,0.1-0.2,0.1-0.3l0.3,0.7c-0.1,0-0.2,0-0.3-0.1
							C383.6,72.3,383.5,72.3,383.4,72.2z"/>
					</g>
					<g id="XMLID_397_">
						<path id="XMLID_398_" class="st4" d="M384.4,71.2c0.2-0.1,0.4-0.1,0.6-0.1c0.2,1.4-0.2,0.5-0.4,0.5L384.4,71.2z"/>
					</g>
					<g id="XMLID_395_">
						<path id="XMLID_396_" class="st4" d="M391.8,71.6c0.1-0.1,0.2-0.2,0.3-0.4c0.6,0.2,1.3,0.4,1.9,0.7c0.1,0.2,0.1,0.4,0.1,0.6
							c-1.5,0.7-2.1,1.1-2.8,0.2L391.8,71.6z"/>
					</g>
					<g id="XMLID_393_">
						<path id="XMLID_394_" class="st2" d="M444.8,176.2c-0.2-1.3-0.1-1.7,0.6-2.1c0.4,0.5,0.8,1.1,1.2,1.6
							c-0.1,0.3-0.2,0.5-0.2,0.9C445.8,176.5,445.3,176.3,444.8,176.2z"/>
					</g>
					<g id="XMLID_391_">
						<path id="XMLID_392_" class="st2" d="M424.8,151.2c-0.7,0-1.3-0.3-1.7-0.6c-0.4-0.4-0.7-0.9-0.8-1.3c0.2-0.1,0.5-0.2,0.8-0.2
							c0.4,0.2,0.8,0.5,1.2,0.8C424.5,150.3,424.7,150.8,424.8,151.2z"/>
					</g>
					<g id="XMLID_389_">
						<path id="XMLID_390_" class="st2" d="M399.3,146.9c-1.7,0.7-2.7-0.4-3.1-1.1c0.1-0.5,0.2-0.9,0.2-1.4c1.1,0.2,2.8,1,2.8,2.1
							C399.2,146.6,399.3,146.8,399.3,146.9z"/>
					</g>
					<g id="XMLID_387_">
						<path id="XMLID_388_" class="st2" d="M383.6,71.6c0.2-0.1,0.4-0.3,0.8-0.4l0.1,0.4c0.4,1.3,0.2,1,0.3,1.5
							c-0.1,0.1-0.2-0.2-0.4-0.4c-0.1-0.2-0.3-0.4-0.4-0.4L383.6,71.6z"/>
					</g>
					<g id="XMLID_385_">
						<path id="XMLID_386_" class="st2" d="M387.6,69.6c0.2,0,0.4,0.1,0.6,0.1c0.4,0.3,0.7,0.6,1,0.9l-0.1,0.8
							c-0.3,0-0.7,0.3-0.9,0.4c-0.3,0.1-0.5-0.1-0.7-1C387.4,70.4,387.5,70,387.6,69.6z"/>
					</g>
					<g id="XMLID_383_">
						<path id="XMLID_384_" class="st2" d="M390.9,71.2c0.3,0.1,0.6,0.2,0.9,0.4l-0.5,1.1c-0.2-0.3-0.5-0.6-0.7-0.8L390.9,71.2z"/>
					</g>
					<g id="XMLID_381_">
						<path id="XMLID_382_" class="st5" d="M446.3,176.7c0-0.4,0.1-0.6,0.2-0.9c0.4-0.4,0.7-0.9,1.1-1.3c0.2,0.1,0.3,0.3,0.5,0.3
							c0.1,0.9,0.1,1.8,0.2,2.6C447,179,446.5,178.1,446.3,176.7z"/>
					</g>
					<g id="XMLID_379_">
						<path id="XMLID_380_" class="st5" d="M441.2,150.8c-0.2-0.4-0.4-0.8-0.6-1.1c-0.6-0.5-1.1-1.1-1.7-1.6
							c-0.1-0.2-0.2-0.3-0.2-0.4c-0.3-0.5-0.6-1-0.9-1.5c-0.3-0.3-0.5-0.4-0.7-0.6c1.3-1.2-0.2-2.9-1.7-5.3
							c-0.7-0.3-1.3-1.1-1.9-1.8c-0.5-0.9-1-1.9-1.5-2.8c0.1-0.2,0.1-0.4,0.1-0.7c1.1,0.9,2.2,2,3.3,3c0.3-0.2,0.5-0.4,0.8-0.6
							c1,1.1,2.1,2.3,3,3.5c0.1,1.3,0.7,2.5,1.5,3.9c0.4,0.6,0.8,1.3,1.2,2c0.4,0.7,0.8,1.3,1.1,2c0.7,1.4-0.3,1.3-1,2.9
							C441.8,151.5,441.5,151.1,441.2,150.8z"/>
					</g>
					<g id="XMLID_377_">
						<path id="XMLID_378_" class="st5" d="M422.3,149.3c-0.1-0.2-0.3-0.3-0.5-0.5c-1.5,0.4-2.1-1.1-3-1.8c0.2-0.2,0.4-0.4,0.5-0.9
							c0.7,0.3,1.4,0.7,2,1c0.4,0,0.8,0,1.2-0.1c0.3,0.3,0.6,0.7,0.9,1c-0.1,0.4-0.3,0.8-0.3,1.2
							C422.9,149.1,422.6,149.2,422.3,149.3z"/>
					</g>
					<g id="XMLID_375_">
						<path id="XMLID_376_" class="st5" d="M420.3,144.1c-0.4-0.7-1-1.4-1.5-2.1c0.1-0.1,0.1-0.1,0.2-0.2c1,0.7,1.6-0.9,2.2,0.4
							c-0.1,0.6-0.2,1.2-0.3,1.8C420.7,144.1,420.5,144.1,420.3,144.1z"/>
					</g>
					<g id="XMLID_373_">
						<path id="XMLID_374_" class="st5" d="M414.4,142.7c-0.3-0.2-0.6-0.4-1-0.5c-0.2-0.3-0.4-0.5-0.6-0.8c0.3-0.4,0.7-0.7,1.2-1.3
							c0.5,0.6,0.9,1.1,1.5,1.6C415,142.1,414.7,142.4,414.4,142.7z"/>
					</g>
					<g id="XMLID_371_">
						<path id="XMLID_372_" class="st5" d="M408,123.6c-0.9,0.5-1,1.1-1.3,0.6c-1.9-0.7,0.1-1.8,0.5-1.8
							C407.4,122.8,407.7,123.2,408,123.6z"/>
					</g>
					<g id="XMLID_369_">
						<path id="XMLID_370_" class="st5" d="M406,120.3c0.9-0.6,1.1-0.5,1.4-0.5c1.2,0.5,0.2,1.1-0.2,2
							C406.8,121.3,406.4,120.8,406,120.3z"/>
					</g>
					<g id="XMLID_367_">
						<path id="XMLID_368_" class="st5" d="M403.8,119.6c-0.4,1-1.5,1.1-2.3,0.1c0.3-0.1,0.1-0.6-0.2-0.8c-1.1-1.3-1.6-0.2-3-1.4
							c-0.5,1.1-1.1,0.4-1.8-0.2c-0.5-0.4-1.1-0.9-1.6-1.3c-0.5-0.3-1.1-0.6-1.5-0.9c0.2-0.4,0.4-0.9,0.7-1.4
							c-0.1-0.2-0.2-0.4-0.4-0.6c-0.7-0.5-1.3-0.9-2-1.4c-0.6-2.4,2.2,1,1.7-1.5c0.4,0.3,3.1,0.4,1.7,1.8c0.2,0.3,0.5,0.6,0.6,0.8
							c1.3,0.6,1.3-0.1,1.7-0.3c1.6,1,1.8,1.8,3,2.9C399.3,117.2,402.6,118.2,403.8,119.6z"/>
					</g>
					<g id="XMLID_365_">
						<path id="XMLID_366_" class="st5" d="M396.6,108.2c-0.5-0.5-1.2,0.1-1.6-0.7c-0.1-0.3-0.1-0.5,0.1-0.6
							c-0.7-0.6-1.2-1.3-1.8-1.9c1.7-0.6,3.1,1.1,3.6,1.9c0.1,0.1,0.2,0.2,0.3,0.2c0.4,0.2,0.9,0.3,1.3,0.5c0.2,0.2,0.4,0.3,0.5,0.4
							c0.3,0.6,0.6,1.4,0.9,2c0.9,0.3,0.4,0.9,0.4,1.6c-0.9-0.9-2.1-0.1-2.9-1.4C397.2,109.5,396.8,108.8,396.6,108.2z"/>
					</g>
					<g id="XMLID_363_">
						<path id="XMLID_364_" class="st5" d="M382.2,93.1c-1.5,0.4-1.1-0.6-1.5-1.1c-0.4-0.5-1.3-0.3-1-1.4c0.5,0,1,0,1.5,0.1l0.3,0.4
							c0.2,0.2,0.5,0.4,0.7,0.6C382.2,92.1,382.2,92.7,382.2,93.1z"/>
					</g>
					<g id="XMLID_361_">
						<path id="XMLID_362_" class="st5" d="M389.2,70.6c0.3-0.3,0.6-0.5,0.9-0.8c0.2,0,0.4,0.1,0.6,0.2c0.1,0.4,0.1,0.7,0.2,1.1
							l-0.3,0.7c-0.3-0.1-0.6-0.2-0.8-0.3c-0.2-0.1-0.5-0.2-0.7-0.2L389.2,70.6z"/>
					</g>
					<g id="XMLID_359_">
						<path id="XMLID_360_" class="st7" d="M394.7,66.4l0.5-1.1c0.9,0.7,1.8-0.7,2.5,0.7c0.2-0.5,1.1-0.7,1.4-1.8
							c1.1,1.1,2.2,1,2.5-0.2c-0.2-0.1-0.4-0.3-1.1-1c1.4-0.7,3.4,1.7,5.4,2.5c1.2-0.5,2.8,0.5,5.1,1.7L410,69
							c-0.4-0.2-0.8-0.4-1.2-0.6c-0.4,0.4-0.8,0.7-1.1,1c-0.1,0.1-0.2,0.2-0.4,0.4c0.2,0.2,0.4,0.4,0.6,0.6c0.2,0.2,0.3,0.3,0.4,0.5
							c0.4-0.2,0.6-0.8,1.2-0.6c0.3,0.5,0.6,1.1,0.9,1.7c0.4-0.2,0.9-0.5,1.3-0.7c0.6,0.8,1.1,1.6,1.7,2.5l0.4-0.3
							c0.9,0.8,1.9,1.6,2.8,2.5c0.3,0.4,0.7,0.7,1,1.1c0.5-0.2,1-0.4,1.4-0.6c0.3,1.1,0.6,2.1,0.9,3.2c0.2,0.1,0.4,0.3,0.6,0.4
							c0.6,0.1,1.2,0.1,1.9,0.2l1.3,2.1c0.7,0.6,1.5,1.2,2.2,1.7c-0.3,0.7-0.6,1.4-0.8,2.1c-0.5,0.2-1.1,0.3-1.7,0.5
							c0.2,0.6,0.4,1.1,0.7,1.7c-0.2,0.3-0.4,0.6-0.7,0.8c-0.1,0.6-0.1,1.2-0.2,1.7c-0.6-0.1-1.2-0.1-1.8-0.2
							c-0.7,0.6-1.4,1.2-2.1,1.9c-0.1-0.3-0.3-0.6-0.5-0.9c0.4-0.7,0.7-1.4,1-2.1c0.3,0.1,0.7,0.1,1,0.2l0.1-0.8
							c-0.3-0.7-0.5-1.3-0.8-2c0.4-0.2,0.2-1,0.6-1.5c-0.4-0.2-0.8-0.4-1.2-0.6c-0.2-0.4-0.5-0.8-0.7-1.2c-0.7,0-1.4,0-2,0
							c-0.1-0.1-0.1-0.2-0.2-0.3l-1.1,0.6c-0.2-0.3-0.5-0.8-0.7-1.1c0.4-0.7-0.2-1.2-1.7-1.7c-0.5-0.7-0.9-1.4-1.4-2.1
							c-0.4-0.5-0.8-1.1-1.1-1.5c-0.6-0.3-0.9,0.4-1.4,0.6c-0.1,0-0.3,0-0.4-0.1c-0.5-0.5-1.1-0.9-1.7-1.3c-0.7-0.8-1.5-1.5-2.2-2.2
							c-0.6-0.8-1.2-1.6-1.9-2.3c-0.3-0.5-0.6-0.9-1-1.3c0-0.3,0.1-0.6,0.1-0.9c-0.3-0.4-0.6-0.7-0.9-1.1c0.1-0.4,0.3-0.7,0.3-1.3
							c-0.6,0.1-1.2,0.1-1.8,0.2c-0.3,1.1-1.5,0.7-1.8,1.7c-0.1,0-0.2,0-0.3,0.1c-0.2-0.3-0.4-0.5-0.7-0.7c-0.1-0.5-0.3-0.9-0.5-1.4
							C395.7,67.2,395.2,66.8,394.7,66.4z"/>
					</g>
					<g id="XMLID_357_">
						<path id="XMLID_358_" class="st5" d="M424.9,86.1c0.3,0.5,0.9,0.6,2,1.9c0.5,1.7-0.8,1.1-1.2,1.4c-0.6-0.4-1.3-0.5-1.8-1.1
							c-0.3-0.5-0.5-1.1-0.7-1.7C423.8,86.5,424.4,86.3,424.9,86.1z"/>
					</g>
					<g id="XMLID_355_">
						<path id="XMLID_356_" class="st8" d="M421.3,146.9c-0.6-0.3-1.3-0.6-2-1c0,0-0.2-0.2-0.2-0.2c0.4-0.6,0.8-1.1,1.2-1.6
							c0.2-0.1,0.4-0.1,0.6-0.1c0.4,0.2,0.9,0.5,1.4,0.7l0.5,0.5c-0.1,0.5-0.1,1.1-0.2,1.6C422.1,146.9,421.8,147,421.3,146.9z"/>
					</g>
					<g id="XMLID_353_">
						<path id="XMLID_354_" class="st7" d="M435.4,138.1c-1.1-0.8-2.3-1.6-3.4-2.3c0.1-0.2,0.1-0.4,0.1-0.7
							c-0.6-0.8-1.2-1.6-1.8-2.4c-1.2,0.1-2-1-2.7-1.6c-0.7-0.7-1.3-1.4-2-2.1c-0.5-0.2-1-0.4-1.6-0.7c-0.2-0.5-0.2-0.9-0.4-1.3
							c-0.5-0.5-1-1-1.4-1.4c-0.7-0.7-1.4-1.3-2.1-1.9c0.3-0.1,0.7-0.3,1-0.5c0.5,0.7,0.9,1.3,1.4,2c0.8-1.3-0.4-1.8-1.1-2.4
							c0.2-0.2,0.3-0.4,0.5-0.6c1.1,0.4,2.2,0.8,3.2,1.2c0.6,0.8,1.2,1.7,1.8,2.5c1,1,1.9,2.1,2.9,3.2c-0.7,0.1-1.4,0.1-2,0.2
							c0.1,0.4,0.3,0.8,0.6,1.2c0.8,0.5,1.5,0.9,2.3,1.4c0.3-0.2,0.7-0.3,1.1-0.4c0.6,0.8,1.3,1.5,2,2.4c0.9,1.2,1.8,2.4,2.7,3.7
							C435.9,137.7,435.7,137.9,435.4,138.1z"/>
					</g>
					<g id="XMLID_351_">
						<path id="XMLID_352_" class="st8" d="M430.5,131.8c-0.8-0.5-1.5-0.9-2.3-1.4c-0.2-0.4-0.4-0.8-0.6-1.2c0.6-0.1,1.3-0.2,2-0.2
							c0.6,0.8,1.3,1.7,1.9,2.5C431.2,131.5,430.8,131.7,430.5,131.8z"/>
					</g>
					<g id="XMLID_349_">
						<path id="XMLID_350_" class="st8" d="M422.4,125.1c-0.5-0.7-0.9-1.4-1.4-2c-0.3,0.2-0.6,0.4-1,0.5c-0.7-0.5-1.4-1.1-2.1-1.6
							c-1-0.7-1.8-1.4-2.8-2.1c-0.3-0.7-0.6-1.4-1-1.7c-0.6-0.3-1.1-0.5-1.6-0.9c-2.1-1.3-4.2-2.7-6.2-4c-0.1-0.1-0.2-0.2-0.3-0.2
							c-0.7-1.5-1.1-1.8-1.7-2.3l-0.5,0.6l-0.5-0.4c-0.8-1.1-1.1-1.5-1-2c-1.3,0.5-2-0.4-2.3-1c-0.3,0-0.5,0-0.8,0
							c-0.2-0.1-0.3-0.3-0.5-0.4c-0.4-0.2-0.9-0.3-1.3-0.5c-0.1,0-0.2-0.1-0.3-0.2c0-0.6,0.2-1.1,0.3-1.8c0.1,0,0.3,0,0.4,0.1
							l1.3,1.1c0.2-0.3,0.4-0.5,0.7-0.8c0.6,0.2,1.3,0.5,2,0.7c0.1,0.3,0.3,0.4,0.4,0.6c0.1,0.1,0.2,0.1,0.3,0.2
							c2.7,0.6,2.4,1.9,3.4,2.7c1.2,0.8,2.5,1.7,3.8,2.5c-0.4,2,0.9,1.4,1.6,1.8c0.7,0.4,1.5,0.8,2.2,1.3c2.3,0.7,3.4,2.9,5.6,4.4
							l3.1,2.4c-0.1,0.2-0.3,0.4-0.5,0.6C422,123.3,423.2,123.9,422.4,125.1z"/>
					</g>
					<g id="XMLID_347_">
						<path id="XMLID_348_" class="st8" d="M391.2,99.6c-0.3,0.3-0.5,0.5-0.7,0.7c-1.1-0.8-2.3-1.7-3.4-2.5c-0.1-0.3-0.2-0.6-0.2-1
							c0.1-0.5,0.2-1,0.3-1.5c-0.6-0.3-1.1-0.7-1.6-1c-0.4-0.7-0.8-1.4-1.1-2.1c-0.9,0-1.8-0.8-2.2-0.4c-0.3-0.2-0.5-0.4-0.7-0.6
							l-0.3-0.4c-0.1-0.5-0.1-1.1-0.1-1.5c-0.9-0.4-1-1.7-1.8-2.1c0-0.5,0-1,0.1-1.5c0-0.8-1.2-0.8-0.5-1.7
							c-0.3-0.7-0.5-1.4-0.8-2.1c-0.2-0.3-0.5-0.6-0.8-0.9c0.1-0.2,0.1-0.3,0.2-0.4c-0.4-0.4-0.7-0.8-1-1.2c0.1-0.3,0.2-0.6,0.4-0.8
							c-0.3-0.3-0.8-0.6-1.1-1c0.3-0.3,0.5-0.6,0.8-0.9c-0.4-0.4-0.6-0.9-0.7-1.3c-0.1-0.4-0.1-0.9-0.5-1.3
							c-0.3-0.2-0.2-1.5,0.6-1.1c0.8-0.2,0.2-1.8,1.7-0.9c-0.2,0.9,0.8,0.9,0.5,1.3c-0.9,0.8-0.9,1.2-0.5,1.6
							c0.2,0.3,0.6,0.6,0.8,0.9c-0.3,0.3-0.7,0.5-1.1,0.8c0,0.5-0.1,1,0.8,1.4c0.4-0.6,1-1.1,1.5-1.5c1,0.1,1.2,0.1,1.5,0.1
							c-0.4,0.6-0.4,1.1-0.4,1.8c0,0.4,0.1,0.8,0.2,1.2c0.1,0.5,0.1,1.1,0.3,1.8c0,0,0,0.1,0.1,0.2c1.3,0.9,1.6,1.7,1.9,4.1
							c0.3,0.9,0.7,1.8,1.2,2.8c-0.6-0.1-1.2-0.3-1.8-0.4c0,0.4-0.1,0.9-0.1,1.3c0.6,0.8,1.9,0.5,2.6,1.1c1.8,0,3.4,1.7,3.8,3.4
							c0,0.2,0,0.3,0,0.4c0.1,0.5,0.2,0.9,0.2,1.4c0.5,0.5,1,0.9,0.9,1.7c0.4,0.3,0.8,0.6,1.3,0.9c0.2,0.2,0.3,0.3,0.5,0.5
							C391.6,99.1,391.4,99.3,391.2,99.6z"/>
					</g>
					<g id="XMLID_345_">
						<path id="XMLID_346_" class="st8" d="M376.7,70.8c0.3-0.2,0.6-0.4,0.9-0.6c0.3,0,0.5,0,0.7-0.1c-0.1-0.2-0.1-0.4-0.2-0.5
							c0.3-0.4,0.7-0.8,1.1-1.1c-0.6-0.6,0.3-0.4,0-0.9c0.4-0.4,0.9,0.5,1.3,0.3c-0.3-0.7-0.4-0.9-0.5-1.1c0.3-0.2,0.6-0.3,1.1-0.5
							c0-1,0.3-1.4,0.7-1c0.2,0.3,0.4,0.6,0.5,0.9c1.1,0.1,1.5-0.3,1.9-0.9c0.4-0.1,0.9-0.1,1.3-0.1c0.3,0.3,0.6,0.5,0.8,0.7
							c0.3-0.5,0.5-1,0.8-1.5c0.2,0.3,0.5,0.7,0.7,1c0.2,0,0.5,0.1,1,0.1c0.2-0.2,0.3-0.4,0.5-0.7c1,0.2,1.8,0.4,2.8,0.7
							c-0.1,0.9-0.2,1.8-0.3,2.8c-0.3-0.2-0.5-0.4-0.8-0.6c-0.7-1.2-1.2-0.5-1.4-0.1c-0.6,0.4-0.7-0.2-0.9-1
							c-0.3,0.1-0.6,0.2-0.9,0.4c-0.4-0.3-0.8-0.6-1.2-0.8c-0.3,0.4-0.7,0.8-0.9,1.3c-0.6-0.2-0.8-0.1-1.1,0.9c0,0-0.1,0-0.1,0
							c-0.2,0.6-0.6,0.5-0.8,0.9c-0.2-0.4-0.5-0.7-0.8-1c0,0-0.1,0-0.1,0c-0.1,0-0.2,0.1-0.4,0.1c-0.4,0.3-0.8,0.5-1.1,0.8
							c-0.2,0-0.9-0.2-0.3,0.5c-0.1,0.1-0.3,0.2-0.4,0.3c0.4,0.4,0.2,0.4-0.5,0.5c-0.2,0.4-0.3,0.8-0.4,1.3
							c-0.3-0.1-0.6-0.3-0.9-0.5c-0.2,0.1-0.5,0.2-0.7,0.3C377.5,71.4,377.1,71.1,376.7,70.8z"/>
					</g>
					<g id="XMLID_343_">
						<path id="XMLID_344_" class="st9" d="M394.1,66.6c0.1,0.6,0.1,1.2,0.2,1.7c-0.8,0.9-1.3,1.3-1.1,1.7c0.4,0.7,0.7-0.7,1.1,0
							c0.1,0.2,0.3,0.3,0.4,0.5c-0.3,0.5-0.5,0.9-0.7,1.3c-0.6-0.3-1.3-0.5-1.9-0.7c-0.2-0.7-0.5-1.3-0.8-1.9
							c0.1-0.3,0.2-0.6,0.3-0.9c-0.3-0.2-0.5-0.4-0.8-0.6c0.3-0.8,0.7-1.5,1.1-2.2C392.7,65.8,393.4,66.2,394.1,66.6z"/>
					</g>
					<g id="XMLID_341_">
						<path id="XMLID_342_" class="st8" d="M394.7,66.4c0.5,0.4,1,0.9,1.4,1.3c-0.6,0.2-1.1,0.5-1.7,0.7c0,0-0.1-0.1-0.2-0.1
							c-0.1-0.6-0.1-1.1-0.2-1.7C394.3,66.5,394.5,66.4,394.7,66.4z"/>
					</g>
					<g id="XMLID_339_">
						<path id="XMLID_340_" class="st8" d="M397.6,69.8c0.4-1,1.6-0.7,1.8-1.7c0.6-0.1,1.2-0.1,1.8-0.2c-0.1,0.6-0.2,1-0.3,1.3
							c0.3,0.3,0.6,0.7,0.9,1.1c0,0.3,0,0.6-0.1,0.9c-0.5,0-1,0.1-1.4,0.1c-0.8-0.4-1.5-0.8-2.3-1.1C397.9,70,397.8,69.9,397.6,69.8
							z"/>
					</g>
					<g id="XMLID_337_">
						<path id="XMLID_338_" class="st8" d="M409,78.2c0.9-1.3,2-0.5,2.9,0.2c-0.2,0.2-0.3,0.5-0.4,0.7c0.5,0.7,0.9,1.3,1.4,2.1
							c1.5,0.5,2.1,1,1.7,1.7c0.2,0.4,0.5,0.8,0.7,1.1l1.1-0.6c0,0.1,0.1,0.2,0.2,0.3c0.1,0.4,0.2,0.9,0.3,1.4
							c-0.4,0.2-0.7,0.4-1.1,0.6c-1-0.4-2-1.4-2.8-2.6c-0.6-0.3-1.2-0.5-1.7-0.8c-0.2-0.9-0.4-1.7-0.6-2.6
							C410.1,79.2,409.5,78.7,409,78.2z"/>
					</g>
					<g id="XMLID_335_">
						<path id="XMLID_336_" class="st8" d="M412.5,76.4c0.9,0,1.3,0.9,1.7,1.5c-0.4,0.3-0.8,0.5-1.3,0.8c-0.2-0.3-0.3-0.5-0.5-0.8
							C412.6,77.5,412.5,76.9,412.5,76.4z"/>
					</g>
					<g id="XMLID_333_">
						<path id="XMLID_334_" class="st8" d="M419.3,84.8c0.4,0.2,0.8,0.4,1.2,0.6c-0.4,0.5-0.2,1.3-0.6,1.5c0.3,0.7,0.6,1.3,0.8,2
							l-0.1,0.8c-0.3-0.1-0.7-0.1-1-0.2c-0.4,0.7-0.7,1.4-1,2.1c-0.4-0.5-0.7-0.9-1.1-1.4c0.3-0.4,0.6-0.8,1-1.3
							c-0.3-0.6-0.7-1.2-1-1.7l0.5-1.5C418.4,85.3,418.8,85,419.3,84.8z"/>
					</g>
					<g id="XMLID_331_">
						<path id="XMLID_332_" class="st7" d="M424.7,148.2c-0.4-0.1-0.8-0.2-1.2-0.3c-0.3-0.3-0.6-0.7-0.9-1c0.1-0.5,0.1-1.1,0.2-1.6
							c1,0.7,1.8,1.3,2.7,2c-0.1,0.3-0.1,0.6-0.2,1C425.1,148.3,424.9,148.3,424.7,148.2z"/>
					</g>
					<g id="XMLID_329_">
						<path id="XMLID_330_" class="st7" d="M417.7,144.7c-0.8-0.2-1.6-0.4-2.4-0.5c-0.3-0.5-0.6-1-0.9-1.5c0.3-0.3,0.6-0.6,1-1.1
							c0.4,0.3,0.8,0.5,1.2,0.7c0.7-0.1,1.5-0.2,2.2-0.3c0.5,0.7,1,1.4,1.5,2.1c-0.4,0.5-0.8,1.1-1.2,1.6
							C418.7,145.4,418.2,145.1,417.7,144.7z"/>
					</g>
					<g id="XMLID_327_">
						<path id="XMLID_328_" class="st7" d="M415.1,119.9c-0.8,0.3-1.5-0.6-2.3-1.1c-2.2-0.9-4.2-4.1-6.5-3.9
							c-1.3-0.5,0.3-0.9-0.3-1.8l-2.2-1.7l0.5-0.6c0.7,0.9,1.3,1.7,2,2.5c2,1.3,4.1,2.7,6.2,4c0.6,0.4,1.1,0.6,1.6,0.9
							C414.5,118.5,414.8,119.2,415.1,119.9z"/>
					</g>
					<g id="XMLID_325_">
						<path id="XMLID_326_" class="st7" d="M401.2,112.2c-0.3-0.2-0.5-0.4-0.8-0.6c0-0.7,0.5-1.3-0.4-1.6c-0.4-0.7-0.7-1.4-0.9-2
							c0.3,0,0.6,0,0.8,0c1.3,0.7,1.9,0.6,2.3,1c-0.1,0.5,0.2,1,1,2C402.4,111.6,402.4,112.8,401.2,112.2z"/>
					</g>
					<g id="XMLID_323_">
						<path id="XMLID_324_" class="st7" d="M393.2,104.9c-0.2,0-0.3,0-0.4,0c-0.6-0.6-1.2-1.3-1.8-2c-0.2-0.8-0.4-1.7-0.6-2.6
							c0.3-0.3,0.5-0.5,0.7-0.7c1.4,1.4,3,2.7,4.6,4c0.5,0.5,0.9,1,1.4,1.5c-0.1,0.6-0.2,1.2-0.3,1.8
							C396.3,106,394.9,104.3,393.2,104.9z"/>
					</g>
					<g id="XMLID_321_">
						<path id="XMLID_322_" class="st7" d="M385.2,96.1c-0.1-0.3-0.3-0.6-0.4-0.8c-0.5-0.5-0.9-1.1-2.1-1.4
							c-0.2-0.2-0.3-0.4-0.5-0.7c0-0.5,0-1,0.1-1.5c0.4-0.4,1.3,0.5,2.2,0.4c0.3,0.7,0.7,1.4,1.1,2.1c0.5,0.3,1,0.7,1.6,1
							c-0.2,0.5-0.2,1-0.3,1.5C386.3,96.5,385.7,96.3,385.2,96.1z"/>
					</g>
					<g id="XMLID_319_">
						<path id="XMLID_320_" class="st7" d="M379.7,90.6c-0.2-0.4-0.5-0.8-0.8-1.2c-0.4-0.2-0.8-0.4-1.2-0.6
							c-0.1-0.3-0.1-0.5-0.2-0.8c-0.6-0.2-1.1-1.4-0.2-1.4c-0.5-0.3-0.8-0.7-0.9-1.2c-0.1-0.4-0.1-0.9-0.2-1.3c0-0.9-0.1-1.6-1-2.3
							c0.3-0.2,0.6-0.3,0.9-0.5l-0.4-1c-0.7-0.1-1.3-0.5-1.6-0.6c0-0.1,0-0.3-0.1-0.5c-0.1-0.4-0.1-0.8-0.1-1.2
							c0.1-0.4,0.3-0.7,0.4-1c-0.2-0.1-0.5-0.2-0.7-0.2c-0.1-1.5,0.6-3.3,0.5-4.5c-0.2-0.3-0.5-0.6,0-1.2c0.4,0,0.7,0,1.1,0
							c0.1-0.2,0.2-0.3,0.2-0.5c0.1-0.6,0.3-1.3,0.5-1.8c0.2-0.8,0.7-1.3,1.2-1.7c0.5-0.4,0.9-0.8,1.3-1.3c-0.1-0.3,0.1-0.4,0.3-0.6
							c0.2-0.2,0.4-0.4,0.4-1c0.7,1,1.1,0.1,2.6,0.3c0.8,0.1,1.5,0.1,2.2,0.3c0.4-0.1,0.5-0.5,0.6-0.9c0.1-0.4,0.4-0.7,1.3-0.3
							c0.4,0.1,0.7,0.3,1.1,0.5c0.7,0.2,1.5,0.4,2.2,0.7c-0.2,0.2-0.3,0.4-0.5,0.7c-0.4,0-0.7-0.1-1-0.1c-0.2-0.3-0.5-0.7-0.7-1
							c-0.3,0.5-0.5,1-0.8,1.5c-0.2-0.2-0.5-0.5-0.8-0.7c-0.4,0-0.9,0.1-1.3,0.1c-0.4,0.6-0.9,1-1.9,0.9c-0.1-0.3-0.3-0.6-0.5-0.9
							c-0.3-0.4-0.7,0-0.7,1c-0.4,0.2-0.8,0.3-1.1,0.5c0.1,0.2,0.3,0.4,0.5,1.1c-0.4,0.1-1-0.7-1.3-0.3c0.2,0.5-0.7,0.3,0,0.9
							c-0.4,0.3-0.7,0.7-1.1,1.1c0.1,0.2,0.2,0.4,0.2,0.5c-0.2,0-0.4,0-0.7,0.1c-0.3,0.2-0.6,0.4-0.9,0.6c0.4,0.3,0.8,0.6,1.2,1
							l-0.1,0.2c-1.6-1-0.9,0.7-1.7,0.9c-0.8-0.4-0.9,0.9-0.6,1.1c0.3,0.4,0.4,0.9,0.5,1.3c0.1,0.4,0.3,0.9,0.7,1.3
							c-0.3,0.3-0.5,0.6-0.8,0.9c0.3,0.4,0.7,0.7,1.1,1c-0.2,0.2-0.2,0.5-0.4,0.8c0.3,0.4,0.6,0.8,1,1.2c0,0.1-0.1,0.3-0.2,0.4
							c0.3,0.3,0.5,0.6,0.8,0.9c0.2,0.7,0.5,1.4,0.8,2.1c-0.7,0.9,0.5,0.9,0.5,1.7c-0.1,0.5,0,1-0.1,1.5c0.8,0.4,0.9,1.7,1.8,2.1
							c0.1,0.5,0.1,1,0.1,1.5C380.7,90.6,380.2,90.6,379.7,90.6z"/>
					</g>
					<g id="XMLID_317_">
						<path id="XMLID_318_" class="st7" d="M371,85.6c-0.2-0.5-0.4-0.9-0.5-1.4c0.5-0.2,1.1-0.3,1.7-0.5c0,0.1,0,0.2,0.1,0.3
							c0,0.4,0.1,0.8,0.1,1.1C371.8,85.3,371.4,85.5,371,85.6z"/>
					</g>
					<g id="XMLID_315_">
						<path id="XMLID_316_" class="st7" d="M371.1,82.3c0.4-0.9,0.5-1.3,1-1.3c0.1,0.5,0.2,1,0.1,1.6
							C371.8,82.6,371.5,82.5,371.1,82.3z"/>
					</g>
					<g id="XMLID_313_">
						<path id="XMLID_314_" class="st7" d="M371,71.7c-0.6-0.6-0.1-1,0-1.6c0.1-0.3,0.3-0.6,0.4-0.9c0.4,0.1,0.8,0.2,1.2,0.3
							c-0.1,0.5-0.3,1-0.4,1.6C372,71.5,371.5,71.6,371,71.7z"/>
					</g>
					<g id="XMLID_311_">
						<path id="XMLID_312_" class="st7" d="M372.8,69.2c0.1-0.6,0.3-1.2,0.5-1.8c0.7-0.3,1-0.1,1.4,0.2c-0.6,0.6-0.8,1.3-1,2.1
							C373.2,69.5,373,69.3,372.8,69.2z"/>
					</g>
					<g id="XMLID_309_">
						<path id="XMLID_310_" class="st7" d="M386.3,59.1c0.3,0.6,0.5,1.2,0.8,1.8c-0.6,0-1.2,0-1.7,0C384.5,60.2,385.4,59,386.3,59.1
							z"/>
					</g>
					<g id="XMLID_307_">
						<path id="XMLID_308_" class="st7" d="M389.1,60.2c0.4,0.2,0.8,0.3,1.2,0.4c-0.1,1.3-1.2,1.4-1.5,0
							C388.9,60.6,389,60.4,389.1,60.2z"/>
					</g>
					<g id="XMLID_305_">
						<path id="XMLID_306_" class="st7" d="M395.7,61.9c0.5,0.1-0.1,0.6-0.1,1c-0.9,0.2-1.7-0.6-1.8-1.3
							C393.8,60,395,61.8,395.7,61.9z"/>
					</g>
					<g id="XMLID_303_">
						<path id="XMLID_304_" class="st7" d="M411.5,67.7c0.9-0.3,1.3,0.6,1.9,0.6c0.6,1,0.9,1.8-0.1,2.2c-0.6-0.3-1.1-0.5-1.6-0.8
							C411.6,69,411.6,68.4,411.5,67.7z"/>
					</g>
					<g id="XMLID_301_">
						<path id="XMLID_302_" class="st9" d="M410.9,114c-0.7-0.5-2,0.1-1.6-1.8C409.9,112.8,410.4,113.4,410.9,114z"/>
					</g>
					<g id="XMLID_299_">
						<path id="XMLID_300_" class="st6" d="M399.5,105.4l-1.3-1.1c-1.3-0.7-1.9-0.8-2.4-0.8c-1.6-1.3-3.2-2.7-4.6-4
							c0.3-0.3,0.6-0.5,0.9-0.9c-0.1-0.1-0.3-0.3-0.5-0.5c0.2-0.2,0.4-0.4,0.7-0.7c1.7,0.7,2.5,1.1,2.6,1.8c2,1.7,4.1,3.4,6.2,5.1
							c0.9,0.3,0.4,0.9,0.4,1.6C400.8,105.9,400.1,105.6,399.5,105.4z"/>
					</g>
					<g id="XMLID_297_">
						<path id="XMLID_298_" class="st9" d="M398.8,106.2l-1.3-1.1c-0.1-0.1-0.3-0.1-0.4-0.1c-0.5-0.5-0.9-1-1.4-1.5
							c0.5,0,1.1,0.1,2.4,0.8l1.3,1.1C399.3,105.7,399.1,105.9,398.8,106.2z"/>
					</g>
					<g id="XMLID_295_">
						<path id="XMLID_296_" class="st9" d="M391.6,98.2c-0.5-0.3-0.9-0.6-1.3-0.9c0.1-0.8-0.5-1.1-0.9-1.7c-0.1-0.5-0.1-0.9-0.2-1.4
							c0.7,0.3,1.5,0.6,2.2,0.9c0.3,0.8,0.6,1.6,1,2.4C392.1,97.8,391.9,98,391.6,98.2z"/>
					</g>
					<g id="XMLID_293_">
						<path id="XMLID_294_" class="st9" d="M385.4,90.4c-0.7-0.6-2.1-0.3-2.6-1.1c0-0.4,0.1-0.9,0.1-1.3c0.6,0.1,1.2,0.3,1.8,0.4
							C384.8,89.1,385.1,89.7,385.4,90.4z"/>
					</g>
					<g id="XMLID_291_">
						<path id="XMLID_292_" class="st9" d="M378.4,78c-0.8-0.4-0.8-0.9-0.8-1.4c0.4-0.3,0.7-0.6,1.1-0.8c-0.3-0.2-0.6-0.5-0.8-0.9
							c-0.4-0.3-0.4-0.8,0.5-1.6c0.2,0.2,0.4,0.4,0.6,0.6c-0.1,0.3-0.2,0.5-0.2,0.7c0.5,0.2,0.9,0.3,1.4,0.5c0,0.1,0.1,0.2,0.2,0.2
							c-0.2,0.2-0.3,0.4-0.4,0.6c0,0.2,0,0.3,0,0.5C379.3,76.9,378.8,77.4,378.4,78z"/>
					</g>
					<g id="XMLID_289_">
						<path id="XMLID_290_" class="st9" d="M379.9,70.7c0.7-0.1,1-0.1,0.5-0.5C380.8,70.5,380.6,70.6,379.9,70.7z"/>
					</g>
					<g id="XMLID_287_">
						<path id="XMLID_288_" class="st9" d="M384.2,68.5c-0.2,0.6-0.6,0.5-0.8,0.9c-0.2-0.4-0.5-0.7-0.8-1c0.3,0.3,0.5,0.7,0.8,1
							C383.6,68.9,384.1,69.1,384.2,68.5z"/>
					</g>
					<g id="XMLID_285_">
						<path id="XMLID_286_" class="st9" d="M389.4,67.7c0.2-0.4,0.7-1.1,1.4,0.1C390.4,67.7,389.9,67.7,389.4,67.7z"/>
					</g>
					<g id="XMLID_283_">
						<path id="XMLID_284_" class="st6" d="M394.4,68.4c0.1,0.3,0.2,0.5,0.4,0.8c0.6,0,1.2-0.1,1.8-0.1c0.3,0.2,0.5,0.5,0.7,0.7
							c0.1-0.1,0.2-0.1,0.3-0.1c0.2,0.1,0.3,0.2,0.4,0.3c0.1,0.7,0.2,1.4,0.3,2.1l0.3,0.3c0.6,0.2,1.1,0.5,1.7,0.7
							c0,0.2-0.1,0.3-0.2,0.6c0.1,0.5,0.3,1.1,0.4,1.7c-1.1,0.5-1.5-0.4-2.3-0.4c-0.5-0.4-1.1-0.8-1.7-1.1c-0.2-0.1-0.4-0.3-0.5-0.4
							c0.1-0.3,0.2-0.5,0.3-0.8c-0.1-0.3-0.3-0.6-0.4-0.9c-0.4,0.2-0.7,0.5-1,0.8c-0.2-0.1-0.5-0.2-0.8-0.2c0-0.2-0.1-0.4-0.1-0.6
							c0.3-0.5,0.5-0.9,0.7-1.3c-0.1-0.2-0.3-0.3-0.4-0.5c-0.4-0.7-0.7,0.7-1.1,0c-0.2-0.4,0.2-0.8,1.1-1.7
							C394.3,68.4,394.4,68.4,394.4,68.4z"/>
					</g>
					<g id="XMLID_281_">
						<path id="XMLID_282_" class="st9" d="M395.9,71.9c0.1,0.3,0.3,0.6,0.4,0.9c-0.1,0.2-0.2,0.5-0.3,0.8c-0.4-0.3-0.8-0.6-1.2-0.8
							C395.2,72.4,395.5,72.2,395.9,71.9z"/>
					</g>
					<g id="XMLID_279_">
						<path id="XMLID_280_" class="st9" d="M398,70c0.9-0.3,1.4,0.5,2.3,1.1c0.5,0,1-0.1,1.4-0.1c0.4,0.4,0.7,0.8,1,1.3
							c0.7,0.7,1.3,1.5,1.9,2.3c-0.8,0.5-1.7,1.1-2.5,1.6c-0.5-0.3-1-0.6-1.6-0.9c-0.1-0.6-0.3-1.2-0.4-1.7c0.1-0.2,0.1-0.4,0.2-0.6
							c-0.5-0.3-1.1-0.5-1.7-0.7l-0.3-0.3C398.2,71.4,398.2,70.7,398,70z"/>
					</g>
					<g id="XMLID_277_">
						<path id="XMLID_278_" class="st6" d="M402.1,76.3c0.9-0.5,1.7-1.1,2.5-1.6c0.8,0.7,1.5,1.4,2.2,2.2c0.6,0.4,1.1,0.8,1.7,1.3
							c0.1,0.5,0.1,1,0.1,1.4c0.1,0.6-0.9,0.9-1.4,1.4c-0.6,0-0.9-0.3-1.1-0.6c0.1-0.9,0.3-1.8,0.4-2.8c-0.8,0.3-1.5,0.5-2.3,0.8
							C403.5,77.5,402.8,76.9,402.1,76.3z"/>
					</g>
					<g id="XMLID_275_">
						<path id="XMLID_276_" class="st9" d="M406.5,77.5c-0.1,1-0.2,1.9-0.4,2.8c-0.6-0.7-1.3-1.4-1.9-2.1
							C405,78,405.7,77.8,406.5,77.5z"/>
					</g>
					<g id="XMLID_273_">
						<path id="XMLID_274_" class="st9" d="M409,78.2c0.5,0.5,1.1,1,1.7,1.5c0.2,0.9,0.4,1.7,0.6,2.6c-0.9,0.1-1.9,0.2-2.8,0.4
							c-0.4-0.6-0.8-1.2-1.2-1.7c0.5-0.4,1.5-0.8,1.4-1.4c0-0.4,0-0.9-0.1-1.4C408.7,78.2,408.8,78.2,409,78.2z"/>
					</g>
					<g id="XMLID_271_">
						<path id="XMLID_272_" class="st9" d="M418.6,83.6c0.2,0.4,0.5,0.8,0.7,1.2c-0.5,0.3-0.9,0.5-1.3,0.7c-0.4-0.2-0.8-0.3-1.2-0.5
							c0-0.5-0.2-1-0.3-1.4C417.2,83.6,417.9,83.6,418.6,83.6z"/>
					</g>
					<g id="XMLID_269_">
						<path id="XMLID_270_" class="st6" d="M411.2,82.3c0.6,0,0.8,0.4,1.3,0.7c0.2,0.1,0.3,0.1,0.4,0.1c0.8,0.6,1.6,1.3,2.4,2
							c0.1,0.2,0.3,0.4,0.4,0.6c0.4-0.2,0.7-0.4,1.1-0.6c0.4,0.2,0.8,0.3,1.2,0.5l-0.5,1.5c-0.3,0-0.6,0-0.9,0.1c0,0.6,0,1.3,0,2
							c0.3,0.3,0.6,0.7,0.9,1.1c0.4,0.5,0.7,0.9,1.1,1.4c0.2,0.3,0.4,0.6,0.5,0.9c-0.4,1.8-1.2,1.7-1.7,2.1c-1-0.4-1.2-2.5-2.3-2
							c-0.5-0.9-1.1-2-1.7-2.9c-0.4-0.7-0.9-1.5-1.3-2.2c-1.1-0.8-1.3-1.1-1.6-1.7c-0.7-1-1.3-2.1-2-3
							C409.3,82.5,410.3,82.4,411.2,82.3z"/>
					</g>
					<g id="XMLID_267_">
						<path id="XMLID_268_" class="st9" d="M417.4,87c0.3,0.6,0.7,1.2,1,1.7c-0.3,0.5-0.6,0.9-1,1.3c-0.3-0.4-0.6-0.7-0.9-1.1
							c0-0.7,0-1.3,0-2C416.8,87,417.1,87,417.4,87z"/>
					</g>
					<g id="XMLID_265_">
						<path id="XMLID_266_" class="st6" d="M388.2,69.7c0-2.5,1.1-1.1,1.3-2c0.5,0,0.9,0,1.4,0.1c0.3,0.2,0.6,0.4,0.8,0.6
							c-0.1,0.3-0.2,0.6-0.3,0.9c0.3,0.6,0.6,1.3,0.8,1.9c-0.1,0.1-0.2,0.2-0.3,0.4c-0.3-0.2-0.6-0.3-0.9-0.4
							c-0.1-0.4-0.1-0.7-0.2-1.1c-0.2-0.1-0.4-0.1-0.6-0.2c-0.3,0.2-0.6,0.5-0.9,0.8C388.9,70.3,388.5,70,388.2,69.7z"/>
					</g>
					<g id="XMLID_263_">
						<path id="XMLID_264_" class="st5" d="M432,135.8c-1.9-0.4-4-2.9-6.1-4.2c-0.7-1-1.4-2-2.2-3c-2-0.6-4.1-2.7-5.8-3
							c-0.4-2-3.9-3.1-5.8-4.9c-1.6,0.2-1.8-1.8-3-2.5c-2.2-1.6-4.6-3.8-6.7-4.7c-0.4-0.4-0.8-0.8-1.2-1.3c1.3,0.5,1.2-0.7,2-1.3
							l0.5,0.4l2.2,1.7c0.1,0,0.2,0.1,0.3,0.2c2.4,1.6,4.3,4.7,6.6,5.4l2.3,1.1c1,0.7,1.8,1.4,2.8,2.1c0.7,0.5,1.4,1.1,2.1,1.6
							c0.7,0.6,1.4,1.3,2.1,1.9c0.5,0.5,1,0.9,1.4,1.4c0.2,0.5,0.2,0.9,0.4,1.3c0.6,0.3,1.1,0.5,1.6,0.7c0.7,0.7,1.4,1.5,2,2.1
							c0.7,0.5,1.5,1.7,2.7,1.6c0.6,0.8,1.2,1.6,1.8,2.4C432,135.4,432,135.6,432,135.8z"/>
					</g>
					<g id="XMLID_261_">
						<path id="XMLID_262_" class="st8" d="M430.5,131.8c-0.1,0.2-0.2,0.5-0.2,0.8C430.4,132.4,430.4,132.1,430.5,131.8z"/>
					</g>
					<g id="XMLID_259_">
						<path id="XMLID_260_" class="st7" d="M397.2,105c0.1,0,0.3,0,0.4,0.1C397.4,105.1,397.2,105,397.2,105z"/>
					</g>
					<g id="XMLID_257_">
						<path id="XMLID_258_" class="st7" d="M411.4,79.1c0.1-0.3,0.3-0.5,0.4-0.7C411.7,78.6,411.6,78.9,411.4,79.1z"/>
					</g>
					<g id="XMLID_255_">
						<path id="XMLID_256_" class="st9" d="M382.8,88c-2.4-1.3-2.1-3.2-3.4-4.3c0-0.3,0.1-0.7,0.1-1c0-0.4-0.1-0.7-0.1-1.1
							c0.7-0.1,1.3-0.2,2-0.3c0,0,0,0.1,0.1,0.2c-0.1,0.3-0.1,0.7-0.1,1c0,0.4-0.1,0.7-0.1,1.1c0.2,0.4,0.4,0.8,0.6,1.2
							c0.1,0.7,0.8,0.6,1.1,1C382.9,86.5,382.8,87.3,382.8,88z"/>
					</g>
					<g id="XMLID_253_">
						<path id="XMLID_254_" class="st9" d="M378.3,73.3c0.3-0.4-0.7-0.4-0.5-1.3l0.1-0.2c0.2-0.1,0.5-0.2,0.7-0.3
							c0.3,0.1,0.6,0.3,0.9,0.5c0,0.2,0,0.4,0,0.6C379.1,72.6,379,72.7,378.3,73.3z"/>
					</g>
					<g id="XMLID_251_">
						<path id="XMLID_252_" class="st9" d="M384.3,68.4c0.2-1,0.4-1.1,1.1-0.9c0.3-0.4,0.6-0.9,0.9-1.3c0.4,0.3,0.9,0.5,1.2,0.8
							c0.3-0.2,0.6-0.3,0.9-0.4c0.2,0.7,0.4,1.3,0.9,1c-0.1,1-1.3-0.5-1.3,2c-0.2,0-0.4-0.1-0.6-0.1c-0.1-0.4-0.3-0.7-0.4-1
							c-0.4-0.1-0.8-0.3-1.2-0.3c-0.1,0-0.2,0-0.3,0c-0.2,0-0.4,0-0.7,0.1C384.8,68.4,384.6,68.4,384.3,68.4z"/>
					</g>
					<g id="XMLID_249_">
						<path id="XMLID_250_" class="st9" d="M384.2,68.5c0.1,0,0.1,0,0.1,0C384.3,68.5,384.3,68.5,384.2,68.5z"/>
					</g>
					<g id="XMLID_247_">
						<path id="XMLID_248_" class="st9" d="M394.4,68.4c0.6-0.2,1.1-0.5,1.7-0.7c0.2,0.5,0.4,0.9,0.5,1.4c-0.6,0-1.2,0-1.8,0.1
							C394.7,69,394.6,68.7,394.4,68.4z"/>
					</g>
					<g id="XMLID_245_">
						<path id="XMLID_246_" class="st9" d="M394.3,68.3c0,0,0.1,0.1,0.2,0.1C394.4,68.4,394.3,68.4,394.3,68.3z"/>
					</g>
					<g id="XMLID_243_">
						<path id="XMLID_244_" class="st6" d="M408.6,78.1c0.1,0.1,0.3,0.1,0.4,0.1C408.8,78.2,408.7,78.2,408.6,78.1z"/>
					</g>
				</g>
			</g>
		</g>
	</g>
</g>
</svg>
