<?xml version="1.0" encoding="utf-8"?>
<!-- Generator: Adobe Illustrator 19.0.0, SVG Export Plug-In . SVG Version: 6.00 Build 0)  -->
<svg version="1.1" xmlns="http://www.w3.org/2000/svg" xmlns:xlink="http://www.w3.org/1999/xlink" x="0px" y="0px"
	 viewBox="0 0 255.1 255.1" style="enable-background:new 0 0 255.1 255.1;" xml:space="preserve">
<style type="text/css">
	.st0{fill:#9BD6D5;}
	.st1{fill:#6DC6C1;}
</style>
<g id="Layer_1">
	<rect id="XMLID_8424_" y="0" class="st0" width="255.1" height="255.1"/>
</g>
<g id="drawings">
	<g id="XMLID_27_">
		<g id="XMLID_410_">
			<path id="XMLID_414_" class="st1" d="M120.5,114.2c1.5-1.9,0.7-1.3,2.2-0.6c0.6,0.3,3.9,2.1,3.6,2.5c-0.6,0.7-0.3,2.2,0.9,2.1
				c2-0.2-1.9,5.9-1.9,5.9c-0.7,1.1-1.4,2.3-2,3.4c-1.8,3-3.5,6-5.3,8.9c-3.8,6.2-8.5,12.4-16.2,13.4c-1.6,0.2-1.6,2.7,0,2.5
				c10.1-1.2,15.3-9.5,20.1-17.5c1.2-2,14.4-19.9,5.3-19.1c0.3,0.7,0.6,1.4,0.9,2.1c1.1-1.4,1.2-2.8-0.1-4.2
				c-0.7-0.8-1.6-0.8-2.3-1.3c-1.2-0.9-1.8-2-3.1-2.7c-0.3-0.2-0.9-0.3-1.3,0c-1,0.8-1.7,1.8-2.6,2.8
				C117.7,113.7,119.5,115.5,120.5,114.2L120.5,114.2z"/>
		</g>
	</g>
	<g id="XMLID_31_">
		<g id="XMLID_386_">
			<path id="XMLID_390_" class="st1" d="M104,147.3c2.5-0.1,5.2,0.9,4.4,3.9c-0.6,2.3-3,3.5-4.9,4.6c-1.4,0.8-0.1,2.9,1.3,2.2
				c3.1-1.7,6.4-4.1,6.3-8.1c-0.2-3.7-3.7-5.2-7-5C102.4,144.9,102.4,147.4,104,147.3L104,147.3z"/>
		</g>
	</g>
	<g id="XMLID_32_">
		<g id="XMLID_380_">
			<path id="XMLID_384_" class="st1" d="M102.4,149c2.8,1.5,3.1,5.1,0.3,6.8c-1.4,0.8-0.1,3,1.3,2.2c4.3-2.6,4.2-8.8-0.3-11.1
				C102.2,146.1,101,148.3,102.4,149L102.4,149z"/>
		</g>
	</g>
	<g id="XMLID_33_">
		<g id="XMLID_374_">
			<path id="XMLID_378_" class="st1" d="M101.1,149.3c0.5,1.4,0.4,2.8-0.1,4.2c0.8,0.1,1.6,0.2,2.5,0.3c-0.2-2.2-0.5-4.4-0.7-6.6
				c-0.2-1.6-2.7-1.6-2.5,0c0.2,2.2,0.5,4.4,0.7,6.6c0.1,1.4,1.9,1.7,2.5,0.3c0.7-1.8,0.7-3.7,0.1-5.5
				C103,147.1,100.5,147.8,101.1,149.3L101.1,149.3z"/>
		</g>
	</g>
	<g id="XMLID_35_">
		<g id="XMLID_368_">
			<path id="XMLID_372_" class="st1" d="M118.3,111.9c-1.7,6.1-7.3,9.9-9.8,15.7c-2.4,5.7-2,12.1-1.5,18.1c0.1,1.6,2.6,1.6,2.5,0
				c-0.6-7-1-14.2,3.1-20.3c2.9-4.3,6.7-7.6,8.2-12.8C121.1,111,118.7,110.4,118.3,111.9L118.3,111.9z"/>
		</g>
	</g>
	<g id="XMLID_37_">
		<g id="XMLID_362_">
			<path id="XMLID_366_" class="st1" d="M105.1,148c-1.1-9.2-9.9-12.9-17.5-16.1c-4.4-1.9-10.4-5.2-15.2-5.4c-3.1-0.2-4,2.9-5.1,5.3
				c-2.8,6.3-4.3,15.7,2.5,20.2c3.7,2.4,8,1.7,12,0.8c6.8-1.5,13-2,19.8-0.4c1.6,0.4,2.2-2,0.7-2.4c-5.6-1.3-11.3-1.6-17-0.5
				c-3.7,0.7-8,2.5-11.8,1.5c-5.7-1.6-6.9-8.1-5.8-13.1c0.8-3.4,1.9-8.9,5.9-8.4c3.1,0.3,6.7,2.3,9.6,3.4c7,2.8,18.2,6.3,19.2,15.2
				C102.8,149.6,105.3,149.6,105.1,148L105.1,148z"/>
		</g>
	</g>
	<g id="XMLID_45_">
		<g id="XMLID_338_">
			<path id="XMLID_342_" class="st1" d="M109,150.6c13-4,23.7,15,30,23.6c7.1,9.7,17.3,22.2,6.6,33.2c-2.6,2.6-5.1,4-8.7,4.5
				c-2.5,0.4-4.6,1.2-7,1.9c-5.9,1.9-12,2.5-18.2,2.6c-12.6,0.1-30.4,0.3-31.2-16.4c0-0.5-0.4-1.1-0.9-1.2
				c-6.2-1.2-4.1-12.6-3.2-16.6c1.1-4.7,3.1-9.1,5.3-13.4c4.7-8.7,11.1-17.9,21.8-19.1c1.6-0.2,1.6-2.7,0-2.5
				C87.6,149,77.4,167.3,74,181.5c-1.3,5.5-2.6,14.3,2.2,18.6c0.6,0.5,1.4,0.7,1.8,1.3c0.7,1,0.6,3.3,1,4.5c1.2,3.1,3.2,6,5.8,8.1
				c6.4,5.2,15.5,4.6,23.3,4.8c4.3,0.1,8.6,0,12.9-0.5c4.8-0.6,9.1-2.4,13.8-3.5c3.4-0.8,6.2-0.4,9.1-2.5c3-2.2,6.2-5.4,7.8-8.9
				c3-6.7,0.3-14.2-3.2-20.1c-5.2-8.5-11.7-16.7-18.1-24.3c-5.6-6.7-12.6-13.6-22-10.7C106.8,148.6,107.5,151,109,150.6L109,150.6z"
				/>
		</g>
	</g>
	<g id="XMLID_47_">
		<g id="XMLID_332_">
			<path id="XMLID_336_" class="st1" d="M99.2,156.7c-12.7,4.9-15.5,18.4-16.2,30.6c-0.1,1.6,2.4,1.6,2.5,0
				c0.6-10.8,2.9-23.8,14.3-28.2C101.3,158.5,100.7,156.1,99.2,156.7L99.2,156.7z"/>
		</g>
	</g>
	<g id="XMLID_49_">
		<g id="XMLID_326_">
			<path id="XMLID_330_" class="st1" d="M90.1,172.4c-1.6,6.4-4.4,14.7-0.5,20.7c0.9,1.4,3,0.1,2.2-1.3c-3.4-5.4-0.7-13.1,0.8-18.8
				C92.9,171.5,90.5,170.9,90.1,172.4L90.1,172.4z"/>
		</g>
	</g>
	<g id="XMLID_51_">
		<g id="XMLID_320_">
			<path id="XMLID_324_" class="st1" d="M111.8,163.8c3.2,13.1,10.9,24.3,22,31.9c1.3,0.9,2.6-1.3,1.3-2.2
				c-10.6-7.3-17.9-18-20.9-30.4C113.8,161.6,111.4,162.2,111.8,163.8L111.8,163.8z"/>
		</g>
	</g>
	<g id="XMLID_53_">
		<g id="XMLID_313_">
			<path id="XMLID_317_" class="st1" d="M127.7,197.4c-8.6,2.4-17.8,2.8-25-3.4c-1.2-1-3,0.7-1.8,1.8c7.9,6.7,17.9,6.6,27.4,4
				C129.9,199.4,129.3,196.9,127.7,197.4L127.7,197.4z"/>
		</g>
	</g>
	<g id="XMLID_57_">
		<g id="XMLID_301_">
			<path id="XMLID_305_" class="st1" d="M168.8,96.7c0.1,2.5-0.7,4.8-2.3,6.7c-1,1.2,0.7,3,1.8,1.8c2-2.4,3.1-5.3,3-8.5
				C171.3,95.1,168.8,95.1,168.8,96.7L168.8,96.7z"/>
		</g>
	</g>
	<g id="XMLID_63_">
		<g id="XMLID_283_">
			<path id="XMLID_287_" class="st1" d="M164.2,105.1c-2.5-1.9-5.5-4.3-7-7.2c-0.8-1-0.9-2-0.2-3c0.1-1.5,0.5-1.7,1.1-0.6
				c0.6,0.2,1.2,1,1.9,1.2c1.1,0.3,2,0.1,2.9-0.5c1-0.7,1.5-1.6,2.7-2c1.3-0.6,6.2-1.7,6.2,1c0,1.6,2.5,1.6,2.5,0
				c-0.1-3.7-3.2-5.5-6.5-4.4c-1.6,0.5-3.7,0.9-5,2c-0.9,0.8-1.4,1.7-2.9,1c-0.7-0.3-1-1.2-1.7-1.5c-2.9-1.1-4.3,2.6-4.1,4.9
				c0.4,4.7,5.5,8.8,9,11.3C164.2,108.2,165.5,106.1,164.2,105.1L164.2,105.1z"/>
		</g>
	</g>
	<g id="XMLID_65_">
		<g id="XMLID_277_">
			<path id="XMLID_281_" class="st1" d="M158.2,97c-0.1,3.3,1.1,6.3,3.2,8.8c1.1,1.2,2.8-0.6,1.8-1.8c-1.7-2-2.6-4.4-2.5-7.1
				C160.7,95.4,158.2,95.4,158.2,97L158.2,97z"/>
		</g>
	</g>
	<g id="XMLID_67_">
		<g id="XMLID_271_">
			<path id="XMLID_275_" class="st1" d="M169.3,104.6c-2.1-0.4-4.2-0.8-6.2-1.3c-1.6-0.3-2.2,2.1-0.7,2.4c2.1,0.4,4.2,0.8,6.2,1.3
				C170.2,107.3,170.9,104.9,169.3,104.6L169.3,104.6z"/>
		</g>
	</g>
	<g id="XMLID_69_">
		<g id="XMLID_265_">
			<path id="XMLID_269_" class="st1" d="M168.8,106.6c-2,0.1-3.9-0.3-5.6-1.4c-1.4-0.8-2.6,1.3-1.3,2.2c2.1,1.3,4.4,1.9,6.9,1.7
				C170.4,109,170.4,106.5,168.8,106.6L168.8,106.6z"/>
		</g>
	</g>
	<g id="XMLID_71_">
		<g id="XMLID_259_">
			<path id="XMLID_263_" class="st1" d="M168.6,106.3c21.3,11.7,22.8,38.8,27.3,60c1.1,5.3,2.5,10.7,4.4,15.8c0.3,0.7,1,1.8,1,2.6
				c0.1,3.2-2.7,3-5.2,3.4c-2.4,0.4-4.5,0.9-6.8,1.7c-12.8,4.3-26.2,4.7-39.2,0.9c-1.5-0.5-2.2,2-0.7,2.4c13.9,4,27.7,3.3,41.3-1.2
				c3-1,12.4-0.7,13.7-4.5c0.7-2.1-1.4-5-2.1-6.7c-1.1-3.1-2.1-6.2-2.8-9.4c-5.8-23.3-5.8-54-29.7-67.1
				C168.4,103.3,167.1,105.5,168.6,106.3L168.6,106.3z"/>
		</g>
	</g>
	<g id="XMLID_73_">
		<g id="XMLID_253_">
			<path id="XMLID_257_" class="st1" d="M158.3,106.5c-16.6,13.6-27.1,33.3-29.3,54.7c-0.2,1.6,2.3,1.6,2.5,0
				c2.1-20.7,12.5-39.7,28.6-52.9C161.3,107.3,159.5,105.5,158.3,106.5L158.3,106.5z"/>
		</g>
	</g>
	<g id="XMLID_75_">
		<g id="XMLID_247_">
			<path id="XMLID_251_" class="st1" d="M148.6,117.3c-8.7,11.9-13.9,25.6-15.5,40.2c-0.2,1.6,2.3,1.6,2.5,0
				c1.6-14.2,6.8-27.4,15.2-38.9C151.7,117.3,149.6,116,148.6,117.3L148.6,117.3z"/>
		</g>
	</g>
	<g id="XMLID_77_">
		<g id="XMLID_241_">
			<path id="XMLID_245_" class="st1" d="M164.7,123.5c1.5,14.1,2.8,28.4-0.9,42.3c-0.4,1.6,2,2.2,2.4,0.7c3.8-14.1,2.5-28.6,1-42.9
				C167.1,121.9,164.6,121.9,164.7,123.5L164.7,123.5z"/>
		</g>
	</g>
	<g id="XMLID_79_">
		<g id="XMLID_235_">
			<path id="XMLID_239_" class="st1" d="M172.5,134c0.9,8,1,16,0.2,24c-0.2,1.6,2.3,1.6,2.5,0c0.8-8,0.7-16-0.2-24
				C174.9,132.4,172.4,132.4,172.5,134L172.5,134z"/>
		</g>
	</g>
	<g id="XMLID_81_">
		<g id="XMLID_229_">
			<path id="XMLID_233_" class="st1" d="M182.3,158.2c1.1,11.4-10.1,18.8-20.3,19.7c-1.6,0.1-1.6,2.6,0,2.5c11.4-1,24-9.4,22.8-22.2
				C184.6,156.7,182.1,156.6,182.3,158.2L182.3,158.2z"/>
		</g>
	</g>
	<g id="XMLID_83_">
		<g id="XMLID_222_">
			<path id="XMLID_227_" class="st1" d="M151.8,153.4c-1.5,5.3-3,10.7-4.5,16c-0.4,1.6,2,2.2,2.4,0.7c1.5-5.3,3-10.7,4.5-16
				C154.7,152.5,152.3,151.9,151.8,153.4L151.8,153.4z"/>
		</g>
	</g>
	<g id="XMLID_85_">
		<g id="XMLID_216_">
			<path id="XMLID_220_" class="st1" d="M119.8,90.8c-1.2,0.6-2.5,0.6-3.9,0.2c-1-0.3-2.1,0.9-1.4,1.8c2,2.7,5.3,3.1,7.8,0.9
				c0.9-0.8,0-2.6-1.2-2.1c-1.1,0.5-2.2,0.9-3.4,1.4c-1.5,0.6-0.9,2.8,0.7,2.4c3-0.7,5.3-1.4,7.3-3.9c2.6-3.5,4.7-7.9,6.4-11.8
				c0.7-1.5,1.5-3.1,0.2-4.4c-1.8-1.8-4.7-1.1-6.7-0.2c-1,0.5-0.7,2,0.3,2.3c0.6,0.2,0.7,0.1,1.3,0.2c1.5,0.1,0-0.5-0.6,0
				c-1.5,1.3,0.5,1.2-2.5,3c-1.3,0.7-3.1,1-4.5,1.5c0.5,0.2,0.9,0.4,1.4,0.6c-0.9-1.4-1.8-3.8-4-3.4c-0.5,0.1-1.1,0.4-1.4,0.8
				c-0.1,0.2-0.7,2.9-1.4,2.3c-0.5-0.5-1.3-0.5-1.8,0c4.8-4.8,0.7-1.6,3.6-2c0.9-0.1,1.6-0.1,2.5-0.1c1.4,0.1,3.1,0.6,4.3-0.3
				c1.4-1.1,1.4-3.2,0.1-4.4c-0.7-0.6-1.5-0.7-2.4-0.7c-1.6,0-0.6,0.8-2.9,0.5c-0.7-0.1-1-0.7-1.8-0.8c-1.6,0-2.6,1.2-2.2,2.8
				c0.4,1.5,2.9,0.9,2.4-0.7c0.3,1.1,1.4,1.7,2.5,1.6c1.8,0,1.2-0.3,0.5-0.7c-1-0.6-3.9-0.4-5-0.3c-1.2,0.1-2.1,0.3-3,1.2
				c-2.7,2.6,0,8.8,3.2,5.6c-0.6,0-1.2,0-1.8,0c1.2,1.1,2.3,1.6,3.8,0.8c1.7-1,0.9-3.5,2.6-0.9c0.3,0.4,0.9,0.8,1.4,0.6
				c3.8-1.3,8.5-2.2,9.7-6.9c0.8-3.1-1.7-2-3.4-2.5c0.1,0.8,0.2,1.5,0.3,2.3c5.1-2.4,2.2,3.1,1.7,4c-0.8,1.6-1.7,3.2-2.6,4.8
				c-0.8,1.4-1.5,2.9-2.5,4.1c-1.6,1.8-3.5,2.4-5.8,2.9c0.2,0.8,0.4,1.6,0.7,2.4c1.1-0.5,2.2-0.9,3.4-1.4c-0.4-0.7-0.8-1.4-1.2-2.1
				c-1.3-0.1-2.6-0.2-3.9-0.3c-0.5,0.6-0.9,1.2-1.4,1.8c1.9,0.5,3.3,0.5,5.2-0.2C122,92.7,121.3,90.3,119.8,90.8L119.8,90.8z"/>
		</g>
	</g>
	<g id="XMLID_87_">
		<g id="XMLID_210_">
			<path id="XMLID_214_" class="st1" d="M110.7,80.8c1.1,3.4,2.2,6.8,3.3,10.2c0.5,1.5,2.9,0.9,2.4-0.7c-1.1-3.4-2.2-6.8-3.3-10.2
				C112.7,78.7,110.2,79.3,110.7,80.8L110.7,80.8z"/>
		</g>
	</g>
	<g id="XMLID_89_">
		<g id="XMLID_204_">
			<path id="XMLID_208_" class="st1" d="M113.8,86.3c-0.2,2.7,0.3,5.2,1.3,7.7c0.6,1.5,2.8,0.2,2.2-1.3c-0.9-2-1.2-4.2-1-6.4
				C116.4,84.6,113.9,84.7,113.8,86.3L113.8,86.3z"/>
		</g>
	</g>
	<g id="XMLID_95_">
		<g id="XMLID_186_">
			<path id="XMLID_190_" class="st1" d="M121,85.7c-0.5,1.8-1,3.5-1.4,5.3c-0.4,1.6,2,2.2,2.4,0.7c0.5-1.8,1-3.5,1.4-5.3
				C123.9,84.8,121.5,84.1,121,85.7L121,85.7z"/>
		</g>
	</g>
	<g id="XMLID_97_">
		<g id="XMLID_180_">
			<path id="XMLID_184_" class="st1" d="M122.2,93.8c14.8-0.7,16.8,16.5,17.1,27.5c0,1.6,2.5,1.6,2.5,0c-0.4-12.4-3.3-30.8-19.6-30
				C120.6,91.4,120.6,93.9,122.2,93.8L122.2,93.8z"/>
		</g>
	</g>
	<g id="XMLID_99_">
		<g id="XMLID_174_">
			<path id="XMLID_178_" class="st1" d="M113.8,92.8c-3.1-2.6-7.4-1.7-11.1-1.2c-4.6,0.6-9.2,2-12.5,5.4c-3.3,3.4-4.2,8.3-5.2,12.8
				c-1.3,6.3-2.1,12.8-2.4,19.2c-0.1,1.6,2.4,1.6,2.5,0c0.5-8.3,1.3-17.2,3.9-25.2c1.5-4.5,4.7-7.4,9.3-8.9c3.2-1,10.8-2.9,13.7-0.5
				C113.3,95.6,115.1,93.8,113.8,92.8L113.8,92.8z"/>
		</g>
	</g>
	<g id="XMLID_101_">
		<g id="XMLID_168_">
			<path id="XMLID_172_" class="st1" d="M78.2,154c-1.1,1.9-2.3,3.8-3.4,5.7c-0.8,1.4-1.8,2.8-1.4,4.5c0.7,3.2,5.4,4.3,8.1,4.6
				c1.6,0.1,1.6-2.4,0-2.5c-1.3-0.1-3.4-0.4-4.4-1.4c-1.5-1.5-1.1-2.3-0.2-4c1.1-1.9,2.3-3.8,3.4-5.7C81.1,153.9,79,152.6,78.2,154
				L78.2,154z"/>
		</g>
	</g>
	<g id="XMLID_105_">
		<g id="XMLID_156_">
			<path id="XMLID_160_" class="st1" d="M133.6,113.7c0.5,7.8,0.2,15.5-0.8,23.3c-0.2,1.6,2.3,1.6,2.5,0c1-7.7,1.2-15.5,0.8-23.3
				C136,112.1,133.5,112.1,133.6,113.7L133.6,113.7z"/>
		</g>
	</g>
	<g id="XMLID_107_">
		<g id="XMLID_150_">
			<path id="XMLID_154_" class="st1" d="M106.1,104.3c-7,7-9.3,16.4-11.2,25.9c-0.3,1.6,2.1,2.2,2.4,0.7c1.8-9,3.8-18.1,10.6-24.8
				C109,104.9,107.2,103.2,106.1,104.3L106.1,104.3z"/>
		</g>
	</g>
	<g id="XMLID_109_">
		<g id="XMLID_144_">
			<path id="XMLID_148_" class="st1" d="M58.3,147.7c0.2-3.5,0.6-7,1.4-10.4c0.3-1.1-0.8-1.8-1.8-1.4c-5.5,2.4-7.5,8.6-4.8,13.9
				c0.7,1.4,2.9,0.2,2.2-1.3c-2.1-4.1-0.3-8.6,3.9-10.4c-0.6-0.5-1.2-0.9-1.8-1.4c-0.8,3.7-1.3,7.3-1.5,11.1
				C55.7,149.4,58.2,149.3,58.3,147.7L58.3,147.7z"/>
		</g>
	</g>
	<g id="XMLID_113_">
		<g id="XMLID_132_">
			<path id="XMLID_136_" class="st1" d="M59.8,139.2c-0.6,3.5-1.8,6.7-3.6,9.7c-0.8,1.4,1.3,2.6,2.2,1.3c1.9-3.2,3.2-6.7,3.8-10.3
				C62.5,138.3,60.1,137.6,59.8,139.2L59.8,139.2z"/>
		</g>
	</g>
	<g id="XMLID_121_">
		<g id="XMLID_88_">
			<path id="XMLID_96_" class="st1" d="M37.9,142.1c0.7-0.5,2.5-1.6,2.7,0c0,0.4-0.3,1-0.3,1.5c0,0.8,0.4,1.5,0.8,2.1
				c0.3,0.4,2.4,2.3,0.5,1.9c-1.2-0.3-2.3-2.5-2.8-3.4c-0.7-1.4-2.9-0.2-2.2,1.3c1,2.1,3.1,5,5.8,4.8c2-0.1,3.2-2.1,2.4-3.9
				c-0.4-0.9-1.6-1.5-1.9-2.4c-0.4-1,0.4-2.1,0-3.2c-1.1-2.7-4.3-2.2-6.3-0.8C35.3,140.9,36.6,143,37.9,142.1L37.9,142.1z"/>
		</g>
	</g>
	<g id="XMLID_415_">
		<g id="XMLID_18_">
			<path id="XMLID_22_" class="st1" d="M43.2,161.1c-2.7,9.1,5.3,15.3,12.1,19.5c1.4,0.9,2.6-1.3,1.3-2.2c-5.8-3.6-13.3-8.8-11-16.7
				C46.1,160.2,43.7,159.6,43.2,161.1L43.2,161.1z"/>
		</g>
	</g>
	<g id="XMLID_1_">
		<g id="XMLID_418_">
			<path id="XMLID_422_" class="st1" d="M140.9,123.2c0.1-0.3,0.1-0.5,0.2-0.8c-0.8-0.1-1.6-0.2-2.5-0.3c0.3,3,0.4,6.1,0.1,9.1
				c-0.1,1.6,2.4,1.6,2.5,0c0.3-3.1,0.2-6.1-0.1-9.1c-0.2-1.4-2-1.7-2.5-0.3c-0.2,0.6-0.2,0.9-0.3,1.5
				C138.3,124.8,140.8,124.8,140.9,123.2L140.9,123.2z"/>
		</g>
	</g>
	<g id="XMLID_2_">
		<g id="XMLID_425_">
			<path id="XMLID_429_" class="st1" d="M73.3,75.6c1-2.4,2.1-5.4,4.1-7.3c2.1-1.9,5.1-2.3,7.7-1.3c-0.2-0.6-0.5-1.2-0.7-1.8
				c-1.3,2.7-2.3,5.4-3.1,8.3c-0.4,1.6,2,2.2,2.4,0.7c0.7-2.7,1.7-5.2,2.9-7.7c0.4-0.8,0.1-1.6-0.7-1.8c-2.9-1-6.1-0.8-8.7,0.9
				c-3.1,2-4.5,5.6-5.9,8.9C70.5,75.8,72.6,77.1,73.3,75.6L73.3,75.6z"/>
		</g>
	</g>
	<g id="XMLID_3_">
		<g id="XMLID_432_">
			<path id="XMLID_436_" class="st1" d="M79.8,68.1c-2.3,1.7-4.3,3.7-6.1,6.1c-1,1.3,1.2,2.5,2.2,1.3c1.5-2,3.2-3.7,5.2-5.2
				C82.4,69.3,81.1,67.1,79.8,68.1L79.8,68.1z"/>
		</g>
	</g>
	<g id="XMLID_4_">
		<g id="XMLID_439_">
			<path id="XMLID_443_" class="st1" d="M80.6,71.7c-2.7,0.8-5.3,1.9-7.7,3.3c-1.4,0.8-0.1,3,1.3,2.2c2.3-1.3,4.6-2.3,7.2-3
				C82.9,73.7,82.2,71.3,80.6,71.7L80.6,71.7z"/>
		</g>
	</g>
	<g id="XMLID_5_">
		<g id="XMLID_446_">
			<path id="XMLID_450_" class="st1" d="M73.3,75c-4.9-3.1-10.3-4.6-16.1-4.4c-1.6,0.1-1.6,2.6,0,2.5c5.3-0.2,10.3,1.2,14.8,4
				C73.4,78,74.7,75.8,73.3,75L73.3,75z"/>
		</g>
	</g>
	<g id="XMLID_6_">
		<g id="XMLID_453_">
			<path id="XMLID_457_" class="st1" d="M71,76.5c-3.1-0.3-6,0.4-8.9,1.7c-1,0.4-3.8,2.4-4.6,1.9c-1.4-0.8-1-5.4-0.9-6.7
				c0.1-1.6-2.4-1.6-2.5,0c-0.2,2.4-0.5,8.9,3.1,9.3c1.6,0.2,3.4-1.1,4.7-1.7c2.9-1.4,5.8-2.4,9.1-2C72.6,79.2,72.6,76.7,71,76.5
				L71,76.5z"/>
		</g>
	</g>
	<g id="XMLID_391_">
		<g id="XMLID_460_">
			<path id="XMLID_464_" class="st1" d="M70.8,75.3c-4.3-0.9-8.5-0.8-12.7,0.5c-1.5,0.5-0.9,2.9,0.7,2.4c3.7-1.2,7.5-1.3,11.3-0.5
				C71.7,78,72.4,75.6,70.8,75.3L70.8,75.3z"/>
		</g>
	</g>
	<g id="XMLID_403_">
		<g id="XMLID_467_">
			<path id="XMLID_471_" class="st1" d="M70,78.7c5.8-0.5,11.2-0.7,16,3.2c3.6,2.9,7.4,6.8,9.2,11.2c0.6,1.5,3,0.8,2.4-0.7
				c-2.1-5.2-6.5-10-11-13.2c-5-3.6-10.6-3.5-16.5-3C68.4,76.3,68.4,78.8,70,78.7L70,78.7z"/>
		</g>
	</g>
	<g id="XMLID_416_">
		<g id="XMLID_474_">
			<path id="XMLID_478_" class="st1" d="M64.2,77.4C50.8,95.6,41.4,124,52.3,145.5c0.7,1.4,2.9,0.2,2.2-1.3
				C44,123.5,53.6,96.1,66.4,78.6C67.3,77.3,65.1,76.1,64.2,77.4L64.2,77.4z"/>
		</g>
	</g>
	<g id="XMLID_423_">
		<g id="XMLID_481_">
			<path id="XMLID_485_" class="st1" d="M65.6,88.7c-6.7,10.6-9.7,22.8-8.5,35.3c0.2,1.6,2.7,1.6,2.5,0c-1.2-12.1,1.6-23.8,8.2-34
				C68.6,88.6,66.4,87.4,65.6,88.7L65.6,88.7z"/>
		</g>
	</g>
	<g id="XMLID_430_">
		<g id="XMLID_488_">
			<path id="XMLID_492_" class="st1" d="M68.3,98c0.3,7.7,3.9,14.4,10.1,19.1c1.3,1,2.5-1.2,1.3-2.2c-5.4-4.1-8.5-10.2-8.8-16.9
				C70.7,96.4,68.2,96.4,68.3,98L68.3,98z"/>
		</g>
	</g>
	<g id="XMLID_437_">
		<g id="XMLID_495_">
			<path id="XMLID_499_" class="st1" d="M74.3,97.8c1.6,4.9,4.6,9,8.8,12.1c1.3,0.9,2.6-1.2,1.3-2.2c-3.7-2.6-6.3-6.3-7.6-10.6
				C76.2,95.6,73.8,96.3,74.3,97.8L74.3,97.8z"/>
		</g>
	</g>
	<g id="XMLID_444_">
		<g id="XMLID_502_">
			<path id="XMLID_506_" class="st1" d="M117.6,94c-1.6-0.6-3.3-0.9-5-1.2c-0.7-0.1-1.3,0.2-1.5,0.9c-0.2,0.6,0.2,1.4,0.9,1.5
				c1.7,0.2,3.4,0.6,5,1.2C118.5,96.9,119.1,94.5,117.6,94L117.6,94z"/>
		</g>
	</g>
	<g id="XMLID_451_">
		<g id="XMLID_509_">
			<path id="XMLID_514_" class="st1" d="M159.6,105c-0.7,1.1-1.5,2-2.5,2.9c-0.5,0.4-0.5,1.3,0,1.8c0.5,0.5,1.3,0.4,1.8,0
				c1.1-1,2.1-2.1,2.9-3.4C162.6,104.9,160.4,103.6,159.6,105L159.6,105z"/>
		</g>
	</g>
	<g id="XMLID_458_">
		<g id="XMLID_517_">
			<path id="XMLID_521_" class="st1" d="M102.9,154.6c-1.7-3-5.1-4.9-8.6-4.6c-1.6,0.1-1.6,2.6,0,2.5c2.7-0.2,5.1,1,6.4,3.3
				C101.5,157.3,103.6,156,102.9,154.6L102.9,154.6z"/>
		</g>
	</g>
	<g id="XMLID_515_">
		<g id="XMLID_573_">
			<path id="XMLID_577_" class="st1" d="M27.6,106C32,99.3,35.2,91.7,39,84.6c4-7.3,8.1-14.4,13.2-21C62.7,49.9,76,41,92.3,35.3
				c9.1-3.2,18.5-6.7,28.1-7.8c8.2-0.9,16.3,0.2,24.1,2.6c16,5,29.9,16,39.6,29.5c11.9,16.5,18.6,35.7,23.2,55.4
				c2.6,11.1,19.3,6.4,17-4.7C216,70.8,195.7,31,156.7,14.6C136,6,115.3,7.5,94.4,14.4c-10.4,3.4-21.1,7-30.4,12.9
				C56.1,32.3,49,38.5,43,45.6C29.8,61,17.9,82.4,16.9,103.1C16.6,109.1,24.7,110.5,27.6,106L27.6,106z"/>
		</g>
	</g>
	<g id="XMLID_522_">
		<g id="XMLID_580_">
			<path id="XMLID_584_" class="st1" d="M232.7,75.5c-4.3,15.8-11.3,30.4-20.6,43.9c-5.7,8.2,7.6,15.8,13.4,7.8
				c10.3-14.4,17.6-30.5,22-47.6C249.9,70,235.3,66,232.7,75.5L232.7,75.5z"/>
		</g>
	</g>
	<g id="XMLID_529_">
		<g id="XMLID_587_">
			<path id="XMLID_591_" class="st1" d="M222.6,122c-6.1-5.4-14.3-9.1-21.4-13.2c-7.4-4.2-14.8-8.4-22.3-12.6
				c-9.3-5.2-17.7,9.5-8.3,14.2c7.7,3.8,15.3,7.6,23,11.3c7.3,3.6,15.1,8.5,23,10.5C222.3,133.6,227.4,126.2,222.6,122L222.6,122z"
				/>
		</g>
	</g>
	<g id="XMLID_536_">
		<g id="XMLID_598_">
			<path id="XMLID_607_" class="st1" d="M215.4,160.2c1.9,7-3.3,14.5-6.9,20.2c-3.9,6-8.6,11.5-13.8,16.3
				c-11.2,10.4-24.9,17.6-39.6,21.5c-16.6,4.4-34.3,4.6-51,1.2c-7.8-1.6-15.3-3.9-21.9-8.6c-6.2-4.4-11.4-10.5-15.7-16.7
				c-10.5-14.9-16.9-32.5-18.6-50.7c-1-11-17.7-11.4-17.4,0c0.9,37.9,23.1,82,61.9,92.9c38.5,10.8,82,1.8,112.2-24.4
				c14.6-12.7,31-33.7,29.7-54.2C233.3,143.6,211.7,146.8,215.4,160.2L215.4,160.2z"/>
		</g>
	</g>
	<g id="XMLID_543_">
		<g id="XMLID_601_">
			<path id="XMLID_605_" class="st1" d="M30.7,135.3c5.3,5.5,12.3,8.5,19.3,11.3c8.1,3.2,16.1,6.9,24.4,9.5
				c8.2,2.5,13.9-10.2,5.9-14.1c-7-3.4-14.5-5.8-21.7-8.6c-5.9-2.2-13.3-3.8-18.2-7.9C33.7,119.9,24.4,128.8,30.7,135.3L30.7,135.3z
				"/>
		</g>
	</g>
	<g id="XMLID_550_">
		<g id="XMLID_608_">
			<path id="XMLID_612_" class="st1" d="M29.6,123.7c-3.6,6.9-7.4,13.7-11.3,20.5c-3.6,6.2-10.9,13.9-8.7,21.4
				c1.1,3.9,4.9,5.7,8.7,4.9c7.4-1.4,11-12,14.3-18c3.8-6.8,7.3-13.8,10.8-20.8C47.7,122.7,34.4,114.7,29.6,123.7L29.6,123.7z"/>
		</g>
	</g>
</g>
</svg>
