<?xml version="1.0" encoding="utf-8"?>
<!-- Generator: Adobe Illustrator 19.0.0, SVG Export Plug-In . SVG Version: 6.00 Build 0)  -->
<svg version="1.1" id="Layer_1" xmlns="http://www.w3.org/2000/svg" xmlns:xlink="http://www.w3.org/1999/xlink" x="0px" y="0px"
	 viewBox="0 0 865 202" style="enable-background:new 0 0 865 202;" xml:space="preserve">
<style type="text/css">
	.st0{fill:#9BD6D4;stroke:#010101;stroke-miterlimit:10;}
	.st1{fill:#6DC6C1;}
</style>
<g id="Layer_1_1_">
	<rect id="XMLID_14_" x="-4.3" y="-4.7" class="st0" width="874.7" height="210.7"/>
</g>
<g id="XMLID_40_">
	<g id="XMLID_421_">
		<path id="XMLID_426_" class="st1" d="M415.4,93.9c1.5-1.9,0.7-1.3,2.2-0.6c0.6,0.3,3.9,2.1,3.6,2.5c-0.6,0.7-0.3,2.2,0.9,2.1
			c2-0.2-1.9,5.9-1.9,5.9c-0.7,1.1-1.4,2.3-2,3.4c-1.8,3-3.5,6-5.3,8.9c-3.8,6.2-8.5,12.4-16.2,13.4c-1.6,0.2-1.6,2.7,0,2.5
			c10.1-1.2,15.3-9.5,20.1-17.5c1.2-2,14.4-19.9,5.3-19.1c0.3,0.7,0.6,1.4,0.9,2.1c1.1-1.4,1.2-2.8-0.1-4.2
			c-0.7-0.8-1.6-0.8-2.3-1.3c-1.2-0.9-1.8-2-3.1-2.7c-0.3-0.2-0.9-0.3-1.3,0c-1,0.8-1.7,1.8-2.6,2.8
			C412.7,93.3,414.4,95.1,415.4,93.9L415.4,93.9z"/>
	</g>
</g>
<g id="XMLID_39_">
	<g id="XMLID_413_">
		<path id="XMLID_419_" class="st1" d="M398.9,127c2.5-0.1,5.2,0.9,4.4,3.9c-0.6,2.3-3,3.5-4.9,4.6c-1.4,0.8-0.1,2.9,1.3,2.2
			c3.1-1.7,6.4-4.1,6.3-8.1c-0.2-3.7-3.7-5.2-7-5C397.3,124.6,397.3,127.1,398.9,127L398.9,127z"/>
	</g>
</g>
<g id="XMLID_38_">
	<g id="XMLID_407_">
		<path id="XMLID_411_" class="st1" d="M397.3,128.7c2.8,1.5,3.1,5.1,0.3,6.8c-1.4,0.8-0.1,3,1.3,2.2c4.3-2.6,4.2-8.8-0.3-11.1
			C397.2,125.7,395.9,127.9,397.3,128.7L397.3,128.7z"/>
	</g>
</g>
<g id="XMLID_36_">
	<g id="XMLID_400_">
		<path id="XMLID_405_" class="st1" d="M396,129c0.5,1.4,0.4,2.8-0.1,4.2c0.8,0.1,1.6,0.2,2.5,0.3c-0.2-2.2-0.5-4.4-0.7-6.6
			c-0.2-1.6-2.7-1.6-2.5,0c0.2,2.2,0.5,4.4,0.7,6.6c0.1,1.4,1.9,1.7,2.5,0.3c0.7-1.8,0.7-3.7,0.1-5.5
			C397.9,126.8,395.5,127.4,396,129L396,129z"/>
	</g>
</g>
<g id="XMLID_35_">
	<g id="XMLID_394_">
		<path id="XMLID_398_" class="st1" d="M413.2,91.6c-1.7,6.1-7.3,9.9-9.8,15.7c-2.4,5.7-2,12.1-1.5,18.1c0.1,1.6,2.6,1.6,2.5,0
			c-0.6-7-1-14.2,3.1-20.3c2.9-4.3,6.7-7.6,8.2-12.8C416,90.7,413.6,90,413.2,91.6L413.2,91.6z"/>
	</g>
</g>
<g id="XMLID_37_">
	<g id="XMLID_387_">
		<path id="XMLID_392_" class="st1" d="M400,127.6c-1.1-9.2-9.9-12.9-17.5-16.1c-4.4-1.9-10.4-5.2-15.2-5.4c-3.1-0.2-4,2.9-5.1,5.3
			c-2.8,6.3-4.3,15.7,2.5,20.2c3.7,2.4,8,1.7,12,0.8c6.8-1.5,13-2,19.8-0.4c1.6,0.4,2.2-2,0.7-2.4c-5.6-1.3-11.3-1.6-17-0.5
			c-3.7,0.7-8,2.5-11.8,1.5c-5.7-1.6-6.9-8.1-5.8-13.1c0.8-3.4,1.9-8.9,5.9-8.4c3.1,0.3,6.7,2.3,9.6,3.4c7,2.8,18.2,6.3,19.2,15.2
			C397.7,129.2,400.2,129.2,400,127.6L400,127.6z"/>
	</g>
</g>
<g id="XMLID_45_">
	<g id="XMLID_381_">
		<path id="XMLID_385_" class="st1" d="M404,130.2c13-4,23.7,15,30,23.6c7.1,9.7,17.3,22.2,6.6,33.2c-2.6,2.6-5.1,4-8.7,4.5
			c-2.5,0.4-4.6,1.2-7,1.9c-5.9,1.9-12,2.5-18.2,2.6c-12.6,0.1-30.4,0.3-31.2-16.4c0-0.5-0.4-1.1-0.9-1.2
			c-6.2-1.2-4.1-12.6-3.2-16.6c1.1-4.7,3.1-9.1,5.3-13.4c4.7-8.7,11.1-17.9,21.8-19.1c1.6-0.2,1.6-2.7,0-2.5
			c-15.9,1.8-26.2,20.1-29.5,34.3c-1.3,5.5-2.6,14.3,2.2,18.6c0.6,0.5,1.4,0.7,1.8,1.3c0.7,1,0.6,3.3,1,4.5c1.2,3.1,3.2,6,5.8,8.1
			c6.4,5.2,15.5,4.6,23.3,4.8c4.3,0.1,8.6,0,12.9-0.5c4.8-0.6,9.1-2.4,13.8-3.5c3.4-0.8,6.2-0.4,9.1-2.5c3-2.2,6.2-5.4,7.8-8.9
			c3-6.7,0.3-14.2-3.2-20.1c-5.2-8.5-11.7-16.7-18.1-24.3c-5.6-6.7-12.6-13.6-22-10.7C401.8,128.3,402.4,130.7,404,130.2L404,130.2z
			"/>
	</g>
</g>
<g id="XMLID_47_">
	<g id="XMLID_375_">
		<path id="XMLID_379_" class="st1" d="M394.1,136.3c-12.7,4.9-15.5,18.4-16.2,30.6c-0.1,1.6,2.4,1.6,2.5,0
			c0.6-10.8,2.9-23.8,14.3-28.2C396.3,138.2,395.6,135.8,394.1,136.3L394.1,136.3z"/>
	</g>
</g>
<g id="XMLID_49_">
	<g id="XMLID_369_">
		<path id="XMLID_373_" class="st1" d="M385.1,152.1c-1.6,6.4-4.4,14.7-0.5,20.7c0.9,1.4,3,0.1,2.2-1.3c-3.4-5.4-0.7-13.1,0.8-18.8
			C387.9,151.2,385.5,150.5,385.1,152.1L385.1,152.1z"/>
	</g>
</g>
<g id="XMLID_51_">
	<g id="XMLID_363_">
		<path id="XMLID_367_" class="st1" d="M406.7,143.4c3.2,13.1,10.9,24.3,22,31.9c1.3,0.9,2.6-1.3,1.3-2.2
			c-10.6-7.3-17.9-18-20.9-30.4C408.7,141.2,406.3,141.9,406.7,143.4L406.7,143.4z"/>
	</g>
</g>
<g id="XMLID_53_">
	<g id="XMLID_357_">
		<path id="XMLID_361_" class="st1" d="M422.6,177c-8.6,2.4-17.8,2.8-25-3.4c-1.2-1-3,0.7-1.8,1.8c7.9,6.7,17.9,6.6,27.4,4
			C424.8,179,424.2,176.6,422.6,177L422.6,177z"/>
	</g>
</g>
<g id="XMLID_57_">
	<g id="XMLID_351_">
		<path id="XMLID_355_" class="st1" d="M463.7,76.4c0.1,2.5-0.7,4.8-2.3,6.7c-1,1.2,0.7,3,1.8,1.8c2-2.4,3.1-5.3,3-8.5
			C466.2,74.8,463.7,74.8,463.7,76.4L463.7,76.4z"/>
	</g>
</g>
<g id="XMLID_63_">
	<g id="XMLID_345_">
		<path id="XMLID_349_" class="st1" d="M459.1,84.8c-2.5-1.9-5.5-4.3-7-7.2c-0.8-1-0.9-2-0.2-3c0.1-1.5,0.5-1.7,1.1-0.6
			c0.6,0.2,1.2,1,1.9,1.2c1.1,0.3,2,0.1,2.9-0.5c1-0.7,1.5-1.6,2.7-2c1.3-0.6,6.2-1.7,6.2,1c0,1.6,2.5,1.6,2.5,0
			c-0.1-3.7-3.2-5.5-6.5-4.4c-1.6,0.5-3.7,0.9-5,2c-0.9,0.8-1.4,1.7-2.9,1c-0.7-0.3-1-1.2-1.7-1.5c-2.9-1.1-4.3,2.6-4.1,4.9
			c0.4,4.7,5.5,8.8,9,11.3C459.1,87.9,460.4,85.7,459.1,84.8L459.1,84.8z"/>
	</g>
</g>
<g id="XMLID_65_">
	<g id="XMLID_339_">
		<path id="XMLID_343_" class="st1" d="M453.1,76.6c-0.1,3.3,1.1,6.3,3.2,8.8c1.1,1.2,2.8-0.6,1.8-1.8c-1.7-2-2.6-4.4-2.5-7.1
			C455.7,75,453.2,75,453.1,76.6L453.1,76.6z"/>
	</g>
</g>
<g id="XMLID_67_">
	<g id="XMLID_333_">
		<path id="XMLID_337_" class="st1" d="M464.3,84.2c-2.1-0.4-4.2-0.8-6.2-1.3c-1.6-0.3-2.2,2.1-0.7,2.4c2.1,0.4,4.2,0.8,6.2,1.3
			C465.2,87,465.8,84.6,464.3,84.2L464.3,84.2z"/>
	</g>
</g>
<g id="XMLID_69_">
	<g id="XMLID_327_">
		<path id="XMLID_331_" class="st1" d="M463.7,86.2c-2,0.1-3.9-0.3-5.6-1.4c-1.4-0.8-2.6,1.3-1.3,2.2c2.1,1.3,4.4,1.9,6.9,1.7
			C465.3,88.6,465.3,86.1,463.7,86.2L463.7,86.2z"/>
	</g>
</g>
<g id="XMLID_71_">
	<g id="XMLID_321_">
		<path id="XMLID_325_" class="st1" d="M463.5,85.9c21.3,11.7,22.8,38.8,27.3,60c1.1,5.3,2.5,10.7,4.4,15.8c0.3,0.7,1,1.8,1,2.6
			c0.1,3.2-2.7,3-5.2,3.4c-2.4,0.4-4.5,0.9-6.8,1.7c-12.8,4.3-26.2,4.7-39.2,0.9c-1.5-0.5-2.2,2-0.7,2.4c13.9,4,27.7,3.3,41.3-1.2
			c3-1,12.4-0.7,13.7-4.5c0.7-2.1-1.4-5-2.1-6.7c-1.1-3.1-2.1-6.2-2.8-9.4c-5.8-23.3-5.8-54-29.7-67.1
			C463.3,83,462.1,85.1,463.5,85.9L463.5,85.9z"/>
	</g>
</g>
<g id="XMLID_73_">
	<g id="XMLID_315_">
		<path id="XMLID_319_" class="st1" d="M453.2,86.2c-16.6,13.6-27.1,33.3-29.3,54.7c-0.2,1.6,2.3,1.6,2.5,0
			c2.1-20.7,12.5-39.7,28.6-52.9C456.2,86.9,454.5,85.2,453.2,86.2L453.2,86.2z"/>
	</g>
</g>
<g id="XMLID_75_">
	<g id="XMLID_309_">
		<path id="XMLID_313_" class="st1" d="M443.5,97c-8.7,11.9-13.9,25.6-15.5,40.2c-0.2,1.6,2.3,1.6,2.5,0
			c1.6-14.2,6.8-27.4,15.2-38.9C446.7,96.9,444.5,95.7,443.5,97L443.5,97z"/>
	</g>
</g>
<g id="XMLID_77_">
	<g id="XMLID_303_">
		<path id="XMLID_307_" class="st1" d="M459.7,103.2c1.5,14.1,2.8,28.4-0.9,42.3c-0.4,1.6,2,2.2,2.4,0.7c3.8-14.1,2.5-28.6,1-42.9
			C462,101.6,459.5,101.6,459.7,103.2L459.7,103.2z"/>
	</g>
</g>
<g id="XMLID_79_">
	<g id="XMLID_297_">
		<path id="XMLID_301_" class="st1" d="M467.5,113.6c0.9,8,1,16,0.2,24c-0.2,1.6,2.3,1.6,2.5,0c0.8-8,0.7-16-0.2-24
			C469.8,112.1,467.3,112,467.5,113.6L467.5,113.6z"/>
	</g>
</g>
<g id="XMLID_81_">
	<g id="XMLID_291_">
		<path id="XMLID_295_" class="st1" d="M477.2,137.9c1.1,11.4-10.1,18.8-20.3,19.7c-1.6,0.1-1.6,2.6,0,2.5c11.4-1,24-9.4,22.8-22.2
			C479.6,136.3,477.1,136.3,477.2,137.9L477.2,137.9z"/>
	</g>
</g>
<g id="XMLID_83_">
	<g id="XMLID_285_">
		<path id="XMLID_289_" class="st1" d="M446.8,133.1c-1.5,5.3-3,10.7-4.5,16c-0.4,1.6,2,2.2,2.4,0.7c1.5-5.3,3-10.7,4.5-16
			C449.6,132.2,447.2,131.5,446.8,133.1L446.8,133.1z"/>
	</g>
</g>
<g id="XMLID_85_">
	<g id="XMLID_279_">
		<path id="XMLID_283_" class="st1" d="M414.7,70.5c-1.2,0.6-2.5,0.6-3.9,0.2c-1-0.3-2.1,0.9-1.4,1.8c2,2.7,5.3,3.1,7.8,0.9
			c0.9-0.8,0-2.6-1.2-2.1c-1.1,0.5-2.2,0.9-3.4,1.4c-1.5,0.6-0.9,2.8,0.7,2.4c3-0.7,5.3-1.4,7.3-3.9c2.6-3.5,4.7-7.9,6.4-11.8
			c0.7-1.5,1.5-3.1,0.2-4.4c-1.8-1.8-4.7-1.1-6.7-0.2c-1,0.5-0.7,2,0.3,2.3c0.6,0.2,0.7,0.1,1.3,0.2c1.5,0.1,0-0.5-0.6,0
			c-1.5,1.3,0.5,1.2-2.5,3c-1.3,0.7-3.1,1-4.5,1.5c0.5,0.2,0.9,0.4,1.4,0.6c-0.9-1.4-1.8-3.8-4-3.4c-0.5,0.1-1.1,0.4-1.4,0.8
			c-0.1,0.2-0.7,2.9-1.4,2.3c-0.5-0.5-1.3-0.5-1.8,0c4.8-4.8,0.7-1.6,3.6-2c0.9-0.1,1.6-0.1,2.5-0.1c1.4,0.1,3.1,0.6,4.3-0.3
			c1.4-1.1,1.4-3.2,0.1-4.4c-0.7-0.6-1.5-0.7-2.4-0.7c-1.6,0-0.6,0.8-2.9,0.5c-0.7-0.1-1-0.7-1.8-0.8c-1.6,0-2.6,1.2-2.2,2.8
			c0.4,1.5,2.9,0.9,2.4-0.7c0.3,1.1,1.4,1.7,2.5,1.6c1.8,0,1.2-0.3,0.5-0.7c-1-0.6-3.9-0.4-5-0.3c-1.2,0.1-2.1,0.3-3,1.2
			c-2.7,2.6,0,8.8,3.2,5.6c-0.6,0-1.2,0-1.8,0c1.2,1.1,2.3,1.6,3.8,0.8c1.7-1,0.9-3.5,2.6-0.9c0.3,0.4,0.9,0.8,1.4,0.6
			c3.8-1.3,8.5-2.2,9.7-6.9c0.8-3.1-1.7-2-3.4-2.5c0.1,0.8,0.2,1.5,0.3,2.3c5.1-2.4,2.2,3.1,1.7,4c-0.8,1.6-1.7,3.2-2.6,4.8
			c-0.8,1.4-1.5,2.9-2.5,4.1c-1.6,1.8-3.5,2.4-5.8,2.9c0.2,0.8,0.4,1.6,0.7,2.4c1.1-0.5,2.2-0.9,3.4-1.4c-0.4-0.7-0.8-1.4-1.2-2.1
			c-1.3-0.1-2.6-0.2-3.9-0.3c-0.5,0.6-0.9,1.2-1.4,1.8c1.9,0.5,3.3,0.5,5.2-0.2C416.9,72.4,416.3,70,414.7,70.5L414.7,70.5z"/>
	</g>
</g>
<g id="XMLID_87_">
	<g id="XMLID_273_">
		<path id="XMLID_277_" class="st1" d="M405.7,60.5c1.1,3.4,2.2,6.8,3.3,10.2c0.5,1.5,2.9,0.9,2.4-0.7c-1.1-3.4-2.2-6.8-3.3-10.2
			C407.6,58.3,405.2,59,405.7,60.5L405.7,60.5z"/>
	</g>
</g>
<g id="XMLID_89_">
	<g id="XMLID_267_">
		<path id="XMLID_271_" class="st1" d="M408.7,65.9c-0.2,2.7,0.3,5.2,1.3,7.7c0.6,1.5,2.8,0.2,2.2-1.3c-0.9-2-1.2-4.2-1-6.4
			C411.3,64.3,408.8,64.3,408.7,65.9L408.7,65.9z"/>
	</g>
</g>
<g id="XMLID_95_">
	<g id="XMLID_261_">
		<path id="XMLID_265_" class="st1" d="M416,65.3c-0.5,1.8-1,3.5-1.4,5.3c-0.4,1.6,2,2.2,2.4,0.7c0.5-1.8,1-3.5,1.4-5.3
			C418.8,64.4,416.4,63.8,416,65.3L416,65.3z"/>
	</g>
</g>
<g id="XMLID_97_">
	<g id="XMLID_255_">
		<path id="XMLID_259_" class="st1" d="M417.2,73.5c14.8-0.7,16.8,16.5,17.1,27.5c0,1.6,2.5,1.6,2.5,0c-0.4-12.4-3.3-30.8-19.6-30
			C415.6,71,415.6,73.5,417.2,73.5L417.2,73.5z"/>
	</g>
</g>
<g id="XMLID_99_">
	<g id="XMLID_249_">
		<path id="XMLID_253_" class="st1" d="M408.8,72.4c-3.1-2.6-7.4-1.7-11.1-1.2c-4.6,0.6-9.2,2-12.5,5.4c-3.3,3.4-4.2,8.3-5.2,12.8
			c-1.3,6.3-2.1,12.8-2.4,19.2c-0.1,1.6,2.4,1.6,2.5,0c0.5-8.3,1.3-17.2,3.9-25.2c1.5-4.5,4.7-7.4,9.3-8.9c3.2-1,10.8-2.9,13.7-0.5
			C408.2,75.2,410,73.5,408.8,72.4L408.8,72.4z"/>
	</g>
</g>
<g id="XMLID_101_">
	<g id="XMLID_243_">
		<path id="XMLID_247_" class="st1" d="M373.1,133.7c-1.1,1.9-2.3,3.8-3.4,5.7c-0.8,1.4-1.8,2.8-1.4,4.5c0.7,3.2,5.4,4.3,8.1,4.6
			c1.6,0.1,1.6-2.4,0-2.5c-1.3-0.1-3.4-0.4-4.4-1.4c-1.5-1.5-1.1-2.3-0.2-4c1.1-1.9,2.3-3.8,3.4-5.7
			C376.1,133.5,373.9,132.3,373.1,133.7L373.1,133.7z"/>
	</g>
</g>
<g id="XMLID_105_">
	<g id="XMLID_237_">
		<path id="XMLID_241_" class="st1" d="M428.5,93.4c0.5,7.8,0.2,15.5-0.8,23.3c-0.2,1.6,2.3,1.6,2.5,0c1-7.7,1.2-15.5,0.8-23.3
			C430.9,91.8,428.4,91.8,428.5,93.4L428.5,93.4z"/>
	</g>
</g>
<g id="XMLID_107_">
	<g id="XMLID_231_">
		<path id="XMLID_235_" class="st1" d="M401,84c-7,7-9.3,16.4-11.2,25.9c-0.3,1.6,2.1,2.2,2.4,0.7c1.8-9,3.8-18.1,10.6-24.8
			C403.9,84.6,402.2,82.8,401,84L401,84z"/>
	</g>
</g>
<g id="XMLID_109_">
	<g id="XMLID_225_">
		<path id="XMLID_229_" class="st1" d="M353.3,127.4c0.2-3.5,0.6-7,1.4-10.4c0.3-1.1-0.8-1.8-1.8-1.4c-5.5,2.4-7.5,8.6-4.8,13.9
			c0.7,1.4,2.9,0.2,2.2-1.3c-2.1-4.1-0.3-8.6,3.9-10.4c-0.6-0.5-1.2-0.9-1.8-1.4c-0.8,3.7-1.3,7.3-1.5,11.1
			C350.7,129,353.2,129,353.3,127.4L353.3,127.4z"/>
	</g>
</g>
<g id="XMLID_113_">
	<g id="XMLID_219_">
		<path id="XMLID_223_" class="st1" d="M354.8,118.8c-0.6,3.5-1.8,6.7-3.6,9.7c-0.8,1.4,1.3,2.6,2.2,1.3c1.9-3.2,3.2-6.7,3.8-10.3
			C357.4,117.9,355,117.2,354.8,118.8L354.8,118.8z"/>
	</g>
</g>
<g id="XMLID_121_">
	<g id="XMLID_213_">
		<path id="XMLID_217_" class="st1" d="M332.8,121.7c0.7-0.5,2.5-1.6,2.7,0c0,0.4-0.3,1-0.3,1.5c0,0.8,0.4,1.5,0.8,2.1
			c0.3,0.4,2.4,2.3,0.5,1.9c-1.2-0.3-2.3-2.5-2.8-3.4c-0.7-1.4-2.9-0.2-2.2,1.3c1,2.1,3.1,5,5.8,4.8c2-0.1,3.2-2.1,2.4-3.9
			c-0.4-0.9-1.6-1.5-1.9-2.4c-0.4-1,0.4-2.1,0-3.2c-1.1-2.7-4.3-2.2-6.3-0.8C330.3,120.5,331.5,122.7,332.8,121.7L332.8,121.7z"/>
	</g>
</g>
<g id="XMLID_415_">
	<g id="XMLID_207_">
		<path id="XMLID_211_" class="st1" d="M338.1,140.8c-2.7,9.1,5.3,15.3,12.1,19.5c1.4,0.9,2.6-1.3,1.3-2.2
			c-5.8-3.6-13.3-8.8-11-16.7C341,139.9,338.6,139.2,338.1,140.8L338.1,140.8z"/>
	</g>
</g>
<g id="XMLID_34_">
	<g id="XMLID_201_">
		<path id="XMLID_205_" class="st1" d="M435.8,102.8c0.1-0.3,0.1-0.5,0.2-0.8c-0.8-0.1-1.6-0.2-2.5-0.3c0.3,3,0.4,6.1,0.1,9.1
			c-0.1,1.6,2.4,1.6,2.5,0c0.3-3.1,0.2-6.1-0.1-9.1c-0.2-1.4-2-1.7-2.5-0.3c-0.2,0.6-0.2,0.9-0.3,1.5
			C433.3,104.4,435.8,104.4,435.8,102.8L435.8,102.8z"/>
	</g>
</g>
<g id="XMLID_33_">
	<g id="XMLID_195_">
		<path id="XMLID_199_" class="st1" d="M368.2,55.2c1-2.4,2.1-5.4,4.1-7.3c2.1-1.9,5.1-2.3,7.7-1.3c-0.2-0.6-0.5-1.2-0.7-1.8
			c-1.3,2.7-2.3,5.4-3.1,8.3c-0.4,1.6,2,2.2,2.4,0.7c0.7-2.7,1.7-5.2,2.9-7.7c0.4-0.8,0.1-1.6-0.7-1.8c-2.9-1-6.1-0.8-8.7,0.9
			c-3.1,2-4.5,5.6-5.9,8.9C365.4,55.4,367.5,56.7,368.2,55.2L368.2,55.2z"/>
	</g>
</g>
<g id="XMLID_32_">
	<g id="XMLID_189_">
		<path id="XMLID_193_" class="st1" d="M374.7,47.7c-2.3,1.7-4.3,3.7-6.1,6.1c-1,1.3,1.2,2.5,2.2,1.3c1.5-2,3.2-3.7,5.2-5.2
			C377.3,48.9,376,46.8,374.7,47.7L374.7,47.7z"/>
	</g>
</g>
<g id="XMLID_31_">
	<g id="XMLID_183_">
		<path id="XMLID_187_" class="st1" d="M375.6,51.3c-2.7,0.8-5.3,1.9-7.7,3.3c-1.4,0.8-0.1,3,1.3,2.2c2.3-1.3,4.6-2.3,7.2-3
			C377.8,53.3,377.1,50.9,375.6,51.3L375.6,51.3z"/>
	</g>
</g>
<g id="XMLID_8_">
	<g id="XMLID_177_">
		<path id="XMLID_181_" class="st1" d="M368.3,54.6c-4.9-3.1-10.3-4.6-16.1-4.4c-1.6,0.1-1.6,2.6,0,2.5c5.3-0.2,10.3,1.2,14.8,4
			C368.4,57.6,369.6,55.5,368.3,54.6L368.3,54.6z"/>
	</g>
</g>
<g id="XMLID_7_">
	<g id="XMLID_171_">
		<path id="XMLID_175_" class="st1" d="M365.9,56.2c-3.1-0.3-6,0.4-8.9,1.7c-1,0.4-3.8,2.4-4.6,1.9c-1.4-0.8-1-5.4-0.9-6.7
			c0.1-1.6-2.4-1.6-2.5,0c-0.2,2.4-0.5,8.9,3.1,9.3c1.6,0.2,3.4-1.1,4.7-1.7c2.9-1.4,5.8-2.4,9.1-2
			C367.5,58.8,367.5,56.3,365.9,56.2L365.9,56.2z"/>
	</g>
</g>
<g id="XMLID_391_">
	<g id="XMLID_165_">
		<path id="XMLID_169_" class="st1" d="M365.8,54.9c-4.3-0.9-8.5-0.8-12.7,0.5c-1.5,0.5-0.9,2.9,0.7,2.4c3.7-1.2,7.5-1.3,11.3-0.5
			C366.7,57.7,367.3,55.3,365.8,54.9L365.8,54.9z"/>
	</g>
</g>
<g id="XMLID_403_">
	<g id="XMLID_159_">
		<path id="XMLID_163_" class="st1" d="M365,58.3c5.8-0.5,11.2-0.7,16,3.2c3.6,2.9,7.4,6.8,9.2,11.2c0.6,1.5,3,0.8,2.4-0.7
			c-2.1-5.2-6.5-10-11-13.2c-5-3.6-10.6-3.5-16.5-3C363.4,56,363.4,58.5,365,58.3L365,58.3z"/>
	</g>
</g>
<g id="XMLID_416_">
	<g id="XMLID_153_">
		<path id="XMLID_157_" class="st1" d="M359.1,57c-13.4,18.2-22.8,46.6-11.9,68.1c0.7,1.4,2.9,0.2,2.2-1.3
			c-10.5-20.7-0.9-48.2,11.9-65.6C362.2,57,360.1,55.7,359.1,57L359.1,57z"/>
	</g>
</g>
<g id="XMLID_423_">
	<g id="XMLID_147_">
		<path id="XMLID_151_" class="st1" d="M360.5,68.4c-6.7,10.6-9.7,22.8-8.5,35.3c0.2,1.6,2.7,1.6,2.5,0c-1.2-12.1,1.6-23.8,8.2-34
			C363.5,68.3,361.4,67,360.5,68.4L360.5,68.4z"/>
	</g>
</g>
<g id="XMLID_430_">
	<g id="XMLID_141_">
		<path id="XMLID_145_" class="st1" d="M363.2,77.6c0.3,7.7,3.9,14.4,10.1,19.1c1.3,1,2.5-1.2,1.3-2.2c-5.4-4.1-8.5-10.2-8.8-16.9
			C365.7,76,363.2,76,363.2,77.6L363.2,77.6z"/>
	</g>
</g>
<g id="XMLID_437_">
	<g id="XMLID_135_">
		<path id="XMLID_139_" class="st1" d="M369.2,77.5c1.6,4.9,4.6,9,8.8,12.1c1.3,0.9,2.6-1.2,1.3-2.2c-3.7-2.6-6.3-6.3-7.6-10.6
			C371.1,75.3,368.7,75.9,369.2,77.5L369.2,77.5z"/>
	</g>
</g>
<g id="XMLID_444_">
	<g id="XMLID_129_">
		<path id="XMLID_133_" class="st1" d="M412.5,73.7c-1.6-0.6-3.3-0.9-5-1.2c-0.7-0.1-1.3,0.2-1.5,0.9c-0.2,0.6,0.2,1.4,0.9,1.5
			c1.7,0.2,3.4,0.6,5,1.2C413.4,76.6,414,74.2,412.5,73.7L412.5,73.7z"/>
	</g>
</g>
<g id="XMLID_451_">
	<g id="XMLID_123_">
		<path id="XMLID_127_" class="st1" d="M454.5,84.6c-0.7,1.1-1.5,2-2.5,2.9c-0.5,0.4-0.5,1.3,0,1.8c0.5,0.5,1.3,0.4,1.8,0
			c1.1-1,2.1-2.1,2.9-3.4C457.5,84.5,455.4,83.3,454.5,84.6L454.5,84.6z"/>
	</g>
</g>
<g id="XMLID_458_">
	<g id="XMLID_116_">
		<path id="XMLID_120_" class="st1" d="M397.8,134.3c-1.7-3-5.1-4.9-8.6-4.6c-1.6,0.1-1.6,2.6,0,2.5c2.7-0.2,5.1,1,6.4,3.3
			C396.4,136.9,398.6,135.7,397.8,134.3L397.8,134.3z"/>
	</g>
</g>
<g id="XMLID_515_">
	<g id="XMLID_108_">
		<path id="XMLID_114_" class="st1" d="M322.5,85.7c8.5-14,14.4-29.3,24.5-42.4c10.6-13.8,23.9-22.7,40.2-28.4
			c9.1-3.2,18.5-6.7,28.1-7.8c8.2-0.9,16.3,0.2,24.1,2.6c16,5,30,16.1,39.7,29.6c11.9,16.5,18.6,35.7,23.2,55.4
			c2.6,11,19.1,6.3,16.8-4.6c-8.3-39.5-28.6-79.3-67.6-95.6c-20.7-8.7-41.3-7.1-62.2-0.2c-10.4,3.4-21.1,7-30.4,12.9
			c-7.8,5-14.9,11.2-20.9,18.2c-13.4,15.8-24.4,36.6-26.2,57.5C311.4,88.7,319.8,90.2,322.5,85.7L322.5,85.7z"/>
	</g>
</g>
<g id="XMLID_522_">
	<g id="XMLID_98_">
		<path id="XMLID_104_" class="st1" d="M527.7,55.2c-4.3,15.8-11.3,30.5-20.6,43.9c-5.6,8.1,7.5,15.6,13.2,7.7
			c10.3-14.4,17.6-30.5,22-47.6C544.7,49.8,530.3,45.8,527.7,55.2L527.7,55.2z"/>
	</g>
</g>
<g id="XMLID_529_">
	<g id="XMLID_90_">
		<path id="XMLID_94_" class="st1" d="M517.5,101.7c-6.1-5.4-14.3-9.1-21.4-13.2c-7.4-4.2-14.8-8.4-22.3-12.6
			c-9.2-5.2-17.5,9.4-8.2,14c7.7,3.8,15.3,7.6,23,11.3c7.3,3.6,15.1,8.5,23,10.5C517.2,113.2,522.2,105.8,517.5,101.7L517.5,101.7z"
			/>
	</g>
</g>
<g id="XMLID_536_">
	<g id="XMLID_86_">
		<path id="XMLID_420_" class="st1" d="M510.4,139.8c1.9,7-3.3,14.6-6.9,20.2c-3.9,6-8.6,11.5-13.8,16.4
			c-11.2,10.4-24.9,17.6-39.7,21.5c-16.6,4.4-34.3,4.6-51.1,1.2c-7.8-1.6-15.3-3.9-21.9-8.7c-6.2-4.4-11.4-10.5-15.8-16.7
			c-10.5-14.9-16.9-32.5-18.6-50.7c-1-10.8-17.5-11.3-17.2,0c0.9,37.8,23.1,81.9,61.8,92.8c38.4,10.8,81.9,1.8,112.1-24.4
			c14.6-12.7,31-33.7,29.7-54.1C528.1,123.3,506.8,126.6,510.4,139.8L510.4,139.8z"/>
	</g>
</g>
<g id="XMLID_543_">
	<g id="XMLID_60_">
		<path id="XMLID_68_" class="st1" d="M325.7,114.8c5.3,5.5,12.2,8.5,19.3,11.3c8.1,3.2,16.1,6.9,24.4,9.5
			c8.1,2.4,13.7-10.1,5.9-13.9c-7-3.4-14.4-5.8-21.7-8.6c-5.9-2.2-13.3-3.8-18.2-7.9C328.7,99.6,319.5,108.4,325.7,114.8
			L325.7,114.8z"/>
	</g>
</g>
<g id="XMLID_550_">
	<g id="XMLID_72_">
		<path id="XMLID_82_" class="st1" d="M324.6,103.4c-3.6,6.9-7.4,13.7-11.3,20.5c-3.6,6.2-10.9,13.8-8.7,21.3
			c1.1,3.8,4.8,5.6,8.6,4.9c7.4-1.4,11-12,14.2-17.9c3.8-6.8,7.3-13.8,10.8-20.8C342.5,102.4,329.3,94.4,324.6,103.4L324.6,103.4z"
			/>
	</g>
</g>
<g id="XMLID_41_">
	<g id="XMLID_469_">
		<path id="XMLID_473_" class="st1" d="M27.6,23.4c1.6-2.4,3.3-4.8,4.9-7.1c1.3-1.9,1.9-3.9,4.4-2.5c1.2,0.7,2.2,2.6,3,3.6
			c4.1,4.9,8,10,11.8,15.1c1.4,1.9,4.7,0,3.2-1.9c-2.7-3.6-5.5-7.2-8.3-10.8c-2.5-3.2-5.3-7.9-8.7-10.1C32,5.8,26.8,18,24.3,21.5
			C23,23.5,26.2,25.4,27.6,23.4L27.6,23.4z"/>
	</g>
</g>
<g id="XMLID_42_">
	<g id="XMLID_463_">
		<path id="XMLID_467_" class="st1" d="M52.3,21c-0.5,3.3-1,6.7-1.4,10c0.8-0.4,1.5-0.9,2.3-1.3c-3.5-0.7-6.9-1.6-10.3-2.9
			c-2.2-0.9-3.2,2.7-1,3.6c3.3,1.3,6.7,2.3,10.3,2.9c0.9,0.2,2.2-0.2,2.3-1.3c0.5-3.3,1-6.7,1.4-10C56.3,19.6,52.7,18.6,52.3,21
			L52.3,21z"/>
	</g>
</g>
<g id="XMLID_43_">
	<g id="XMLID_456_">
		<path id="XMLID_461_" class="st1" d="M55.2,37.5c0.9,1.3,5,5.8,4.9,7.2c-0.1,2-1.1,1.3-2.9,1.2c-1.6-0.1-3.2-0.3-4.8-0.4
			c-6.3-0.7-12.6-1.4-19-0.8c-2.4,0.2-2.4,4,0,3.8c5.1-0.5,10.1-0.1,15.2,0.4c3.8,0.4,9.4,2,13.1,0.9c7-2.2-1.4-11.2-3.3-14.1
			C57.1,33.6,53.9,35.5,55.2,37.5L55.2,37.5z"/>
	</g>
</g>
<g id="XMLID_44_">
	<g id="XMLID_449_">
		<path id="XMLID_454_" class="st1" d="M37.2,38.7c-1.5,1.5-3.1,2.9-4.6,4.4c-0.9,0.8-2.1,1.7-2.2,3c-0.1,1.3,0.7,2.1,1.5,2.9
			c1.5,1.6,3,3.2,4.5,4.7c1.7,1.7,4.3-0.9,2.7-2.7c-1-1-1.9-2-2.9-3c-0.4-0.4-0.9-0.9-1.3-1.3c-0.2-0.2-0.4-0.4-0.6-0.7
			c-0.5-0.7-0.6-0.4-0.3,1c0.4,0.2,5.4-5.2,5.9-5.7C41.6,39.7,38.9,37,37.2,38.7L37.2,38.7z"/>
	</g>
</g>
<g id="XMLID_46_">
	<g id="XMLID_447_">
		<path id="XMLID_517_" class="st1" d="M25.7,44.9c-2.1,0.1-4.3,0.1-6.4,0c-1.8-0.1-4.4,0.4-3.5-2.8c0.3-1,1.6-2,2.2-2.7
			c2.7-3.1,5-6.4,7-10c-1.1,0-2.2,0-3.2,0c1.2,2.3,2.2,4.7,3.2,7.1c1.2-0.3,2.4-0.7,3.6-1c-0.2-0.5-0.4-1.1-0.6-1.6
			c-0.9-2.2-4.5-1.3-3.6,1c0.2,0.5,0.4,1.1,0.6,1.6c0.9,2.2,4.5,1.3,3.6-1c-1-2.8-2.2-5.4-3.6-8c-0.6-1.3-2.6-1.2-3.2,0
			c-2,3.5-4.2,6.7-6.9,9.7c-1.7,2-3.5,4-3.3,6.8c0.6,6.2,9.8,4.9,14,4.7C28.1,48.5,28.1,44.8,25.7,44.9L25.7,44.9z"/>
	</g>
</g>
<g id="XMLID_48_">
	<g id="XMLID_518_">
		<path id="XMLID_558_" class="st1" d="M22,26.1c-2.6,1-5.2,1.9-7.8,2.9c-2.2,0.8-1.3,4.5,1,3.6c2.6-1,5.2-1.9,7.8-2.9
			C25.2,28.9,24.3,25.3,22,26.1L22,26.1z"/>
	</g>
</g>
<g id="XMLID_428_">
	<g id="XMLID_511_">
		<path id="XMLID_516_" class="st1" d="M185,73.3c1.6-2.2,3.1-4.5,4.7-6.7c0.7-1,1.3-2.7,2.5-2.5c1,0.2,2.5,2.6,3,3.2
			c3.9,4.8,7.7,9.6,11.4,14.6c1.9,2.6,6.2,0.1,4.3-2.5c-2.8-3.8-5.6-7.5-8.6-11.1c-2.3-2.8-4.8-7.5-8.1-9.2
			c-6.1-3.2-11,8.1-13.5,11.7C178.8,73.4,183.1,75.9,185,73.3L185,73.3z"/>
	</g>
</g>
<g id="XMLID_427_">
	<g id="XMLID_505_">
		<path id="XMLID_509_" class="st1" d="M207,70.4c-0.5,3.2-0.9,6.3-1.4,9.5c1-0.6,2.1-1.2,3.1-1.7c-3.3-0.6-6.5-1.5-9.7-2.8
			c-3-1.2-4.3,3.7-1.3,4.8c3.1,1.2,6.4,2.1,9.7,2.8c1.2,0.2,2.9-0.3,3.1-1.7c0.5-3.2,0.9-6.3,1.4-9.5
			C212.3,68.6,207.5,67.3,207,70.4L207,70.4z"/>
	</g>
</g>
<g id="XMLID_84_">
	<g id="XMLID_499_">
		<path id="XMLID_503_" class="st1" d="M209.8,86.6c1.3,2,3.2,4,4.2,6.1c0.7,1.5,1.2,0.8-0.9,0.8c-1.6,0-3.2-0.3-4.8-0.4
			c-6.1-0.6-12.1-1.4-18.3-0.8c-3.2,0.3-3.2,5.3,0,5c5.2-0.5,10.3,0,15.4,0.5c3.5,0.4,8.4,1.7,11.8,0.6c7.1-2.4-0.9-11.2-3-14.3
			C212.3,81.4,208,83.9,209.8,86.6L209.8,86.6z"/>
	</g>
</g>
<g id="XMLID_70_">
	<g id="XMLID_493_">
		<path id="XMLID_497_" class="st1" d="M192.9,86.8c-1.4,1.4-2.9,2.8-4.3,4.2c-1,0.9-2.1,1.8-2.3,3.3c-0.2,1.5,0.7,2.4,1.7,3.4
			c1.4,1.5,2.8,3,4.3,4.5c2.2,2.3,5.8-1.2,3.5-3.5c-0.9-1-1.8-1.9-2.7-2.9c-0.4-0.4-0.8-0.8-1.2-1.3c-0.2-0.2-0.4-0.4-0.6-0.6
			c-0.7-0.9-0.8-0.3-0.3,1.9c0.6-0.1,2-1.9,2.5-2.4c1-1,2.1-2,3.1-3C198.8,88.1,195.2,84.6,192.9,86.8L192.9,86.8z"/>
	</g>
</g>
<g id="XMLID_59_">
	<g id="XMLID_487_">
		<path id="XMLID_491_" class="st1" d="M182.6,92.4c-2,0.1-4.1,0.1-6.1,0c-1.3-0.1-3.1,0.4-2.6-1.6c0.2-0.8,1.4-1.8,2-2.4
			c2.6-3,4.8-6.2,6.8-9.6c-1.4,0-2.9,0-4.3,0c1.1,2.1,2.1,4.3,2.9,6.6c1.6-0.4,3.2-0.9,4.8-1.3c-0.2-0.5-0.4-1-0.6-1.5
			c-1.2-3-6-1.7-4.8,1.3c0.2,0.5,0.4,1,0.6,1.5c1.2,3,6,1.7,4.8-1.3c-1-2.7-2.1-5.2-3.4-7.8c-0.9-1.7-3.4-1.6-4.3,0
			c-1.8,3.2-3.9,6.2-6.4,9c-1.7,2-3.5,4.1-3.3,6.9c0.5,6.5,9.5,5.4,14,5.2C185.8,97.3,185.8,92.3,182.6,92.4L182.6,92.4z"/>
	</g>
</g>
<g id="XMLID_58_">
	<g id="XMLID_485_">
		<path id="XMLID_510_" class="st1" d="M178.9,74.8c-2.5,0.9-4.9,1.8-7.4,2.7c-1.3,0.5-2.1,1.7-1.7,3.1c0.3,1.2,1.8,2.2,3.1,1.7
			c2.5-0.9,4.9-1.8,7.4-2.7c1.3-0.5,2.1-1.7,1.7-3.1C181.6,75.3,180.2,74.3,178.9,74.8L178.9,74.8z"/>
	</g>
</g>
<g id="XMLID_475_">
	<g id="XMLID_559_">
		<path id="XMLID_563_" class="st1" d="M247.2,149.4c1.6-2.2,3.1-4.5,4.7-6.7c0.7-1,1.3-2.7,2.5-2.5c1,0.2,2.5,2.6,3,3.2
			c3.9,4.8,7.7,9.6,11.4,14.6c1.9,2.6,6.2,0.1,4.3-2.5c-2.8-3.8-5.6-7.5-8.6-11.1c-2.3-2.8-4.8-7.5-8.1-9.2
			c-6.1-3.2-11,8.1-13.5,11.7C241,149.5,245.3,152,247.2,149.4L247.2,149.4z"/>
	</g>
</g>
<g id="XMLID_474_">
	<g id="XMLID_553_">
		<path id="XMLID_557_" class="st1" d="M269.2,146.6c-0.5,3.2-0.9,6.3-1.4,9.5c1-0.6,2.1-1.2,3.1-1.7c-3.3-0.6-6.5-1.5-9.7-2.8
			c-3-1.2-4.3,3.7-1.3,4.8c3.1,1.2,6.4,2.1,9.7,2.8c1.2,0.2,2.9-0.3,3.1-1.7c0.5-3.2,0.9-6.3,1.4-9.5
			C274.5,144.7,269.7,143.4,269.2,146.6L269.2,146.6z"/>
	</g>
</g>
<g id="XMLID_468_">
	<g id="XMLID_546_">
		<path id="XMLID_551_" class="st1" d="M272,162.7c1.3,2,3.2,4,4.2,6.1c0.7,1.5,1.2,0.8-0.9,0.8c-1.6,0-3.2-0.3-4.8-0.4
			c-6.1-0.6-12.1-1.4-18.3-0.8c-3.2,0.3-3.2,5.3,0,5c5.2-0.5,10.3,0,15.4,0.5c3.5,0.4,8.4,1.7,11.8,0.6c7.1-2.4-0.9-11.2-3-14.3
			C274.5,157.5,270.2,160,272,162.7L272,162.7z"/>
	</g>
</g>
<g id="XMLID_462_">
	<g id="XMLID_539_">
		<path id="XMLID_544_" class="st1" d="M255.1,163c-1.4,1.4-2.9,2.8-4.3,4.2c-1,0.9-2.1,1.8-2.3,3.3c-0.2,1.5,0.7,2.4,1.7,3.4
			c1.4,1.5,2.8,3,4.3,4.5c2.2,2.3,5.8-1.2,3.5-3.5c-0.9-1-1.8-1.9-2.7-2.9c-0.4-0.4-0.8-0.8-1.2-1.3c-0.2-0.2-0.4-0.4-0.6-0.6
			c-0.7-0.9-0.8-0.3-0.3,1.9c0.6-0.1,2-1.9,2.5-2.4c1-1,2.1-2,3.1-3C261,164.3,257.4,160.7,255.1,163L255.1,163z"/>
	</g>
</g>
<g id="XMLID_455_">
	<g id="XMLID_532_">
		<path id="XMLID_537_" class="st1" d="M244.8,168.6c-2,0.1-4.1,0.1-6.1,0c-1.3-0.1-3.1,0.4-2.6-1.6c0.2-0.8,1.4-1.8,2-2.4
			c2.6-3,4.8-6.2,6.8-9.6c-1.4,0-2.9,0-4.3,0c1.1,2.1,2.1,4.3,2.9,6.6c1.6-0.4,3.2-0.9,4.8-1.3c-0.2-0.5-0.4-1-0.6-1.5
			c-1.2-3-6-1.7-4.8,1.3c0.2,0.5,0.4,1,0.6,1.5c1.2,3,6,1.7,4.8-1.3c-1-2.7-2.1-5.2-3.4-7.8c-0.9-1.7-3.4-1.6-4.3,0
			c-1.8,3.2-3.9,6.2-6.4,9c-1.7,2-3.5,4.1-3.3,6.9c0.5,6.5,9.5,5.4,14,5.2C248,173.4,248,168.4,244.8,168.6L244.8,168.6z"/>
	</g>
</g>
<g id="XMLID_448_">
	<g id="XMLID_525_">
		<path id="XMLID_530_" class="st1" d="M241.1,150.9c-2.5,0.9-4.9,1.8-7.4,2.7c-1.3,0.5-2.1,1.7-1.7,3.1c0.3,1.2,1.8,2.2,3.1,1.7
			c2.5-0.9,4.9-1.8,7.4-2.7c1.3-0.5,2.1-1.7,1.7-3.1C243.8,151.4,242.3,150.4,241.1,150.9L241.1,150.9z"/>
	</g>
</g>
<g id="XMLID_435_">
	<g id="XMLID_601_">
		<path id="XMLID_605_" class="st1" d="M263.9,12.7c1.6-2.4,3.3-4.8,4.9-7.1c1.3-1.9,1.9-3.9,4.4-2.5c1.2,0.7,2.2,2.6,3,3.6
			c4.1,4.9,8,10,11.8,15.1c1.4,1.9,4.7,0,3.2-1.9c-2.7-3.6-5.5-7.2-8.3-10.8c-2.5-3.2-5.3-7.9-8.7-10.1c-6-3.8-11.2,8.3-13.7,11.8
			C259.3,12.8,262.6,14.7,263.9,12.7L263.9,12.7z"/>
	</g>
</g>
<g id="XMLID_434_">
	<g id="XMLID_595_">
		<path id="XMLID_599_" class="st1" d="M288.7,10.3c-0.5,3.3-1,6.7-1.4,10c0.8-0.4,1.5-0.9,2.3-1.3c-3.5-0.7-6.9-1.6-10.3-2.9
			c-2.2-0.9-3.2,2.7-1,3.6c3.3,1.3,6.7,2.3,10.3,2.9c0.9,0.2,2.2-0.2,2.3-1.3c0.5-3.3,1-6.7,1.4-10C292.7,9,289.1,7.9,288.7,10.3
			L288.7,10.3z"/>
	</g>
</g>
<g id="XMLID_433_">
	<g id="XMLID_589_">
		<path id="XMLID_593_" class="st1" d="M291.6,26.8c0.9,1.3,5,5.8,4.9,7.2c-0.1,2-1.1,1.3-2.9,1.2c-1.6-0.1-3.2-0.3-4.8-0.4
			c-6.3-0.7-12.6-1.4-19-0.8c-2.4,0.2-2.4,4,0,3.8c5.1-0.5,10.1-0.1,15.2,0.4c3.8,0.4,9.4,2,13.1,0.9c7-2.2-1.4-11.2-3.3-14.1
			C293.5,22.9,290.3,24.8,291.6,26.8L291.6,26.8z"/>
	</g>
</g>
<g id="XMLID_432_">
	<g id="XMLID_583_">
		<path id="XMLID_587_" class="st1" d="M273.6,28c-1.5,1.5-3.1,2.9-4.6,4.4c-0.9,0.8-2.1,1.7-2.2,3c-0.1,1.3,0.7,2.1,1.5,2.9
			c1.5,1.6,3,3.2,4.5,4.7c1.7,1.7,4.3-0.9,2.7-2.7c-1-1-1.9-2-2.9-3c-0.4-0.4-0.9-0.9-1.3-1.3c-0.2-0.2-0.4-0.4-0.6-0.7
			c-0.5-0.7-0.6-0.4-0.3,1c0.4,0.2,5.4-5.2,5.9-5.7C278,29,275.3,26.4,273.6,28L273.6,28z"/>
	</g>
</g>
<g id="XMLID_431_">
	<g id="XMLID_577_">
		<path id="XMLID_581_" class="st1" d="M262.1,34.2c-2.1,0.1-4.3,0.1-6.4,0c-1.8-0.1-4.4,0.4-3.5-2.8c0.3-1,1.6-2,2.2-2.7
			c2.7-3.1,5-6.4,7-10c-1.1,0-2.2,0-3.2,0c1.2,2.3,2.2,4.7,3.2,7.1c1.2-0.3,2.4-0.7,3.6-1c-0.2-0.5-0.4-1.1-0.6-1.6
			c-0.9-2.2-4.5-1.3-3.6,1c0.2,0.5,0.4,1.1,0.6,1.6c0.9,2.2,4.5,1.3,3.6-1c-1-2.8-2.2-5.4-3.6-8c-0.6-1.3-2.6-1.2-3.2,0
			c-2,3.5-4.2,6.7-6.9,9.7c-1.7,2-3.5,4-3.3,6.8c0.6,6.2,9.8,4.9,14,4.7C264.5,37.9,264.5,34.1,262.1,34.2L262.1,34.2z"/>
	</g>
</g>
<g id="XMLID_429_">
	<g id="XMLID_571_">
		<path id="XMLID_575_" class="st1" d="M258.4,15.4c-2.6,1-5.2,1.9-7.8,2.9c-2.2,0.8-1.3,4.5,1,3.6c2.6-1,5.2-1.9,7.8-2.9
			C261.6,18.2,260.6,14.6,258.4,15.4L258.4,15.4z"/>
	</g>
</g>
<g id="XMLID_565_">
	<g id="XMLID_643_">
		<path id="XMLID_647_" class="st1" d="M94.3,108.5c1.6-2.4,3.3-4.8,4.9-7.1c1.3-1.9,1.9-3.9,4.4-2.5c1.2,0.7,2.2,2.6,3,3.6
			c4.1,4.9,8,10,11.8,15.1c1.4,1.9,4.7,0,3.2-1.9c-2.7-3.6-5.5-7.2-8.3-10.8c-2.5-3.2-5.3-7.9-8.7-10.1c-6-3.8-11.2,8.3-13.7,11.8
			C89.7,108.6,92.9,110.4,94.3,108.5L94.3,108.5z"/>
	</g>
</g>
<g id="XMLID_564_">
	<g id="XMLID_637_">
		<path id="XMLID_641_" class="st1" d="M119.1,106.1c-0.5,3.3-1,6.7-1.4,10c0.8-0.4,1.5-0.9,2.3-1.3c-3.5-0.7-6.9-1.6-10.3-2.9
			c-2.2-0.9-3.2,2.7-1,3.6c3.3,1.3,6.7,2.3,10.3,2.9c0.9,0.2,2.2-0.2,2.3-1.3c0.5-3.3,1-6.7,1.4-10
			C123,104.7,119.4,103.7,119.1,106.1L119.1,106.1z"/>
	</g>
</g>
<g id="XMLID_446_">
	<g id="XMLID_631_">
		<path id="XMLID_635_" class="st1" d="M122,122.5c0.9,1.3,5,5.8,4.9,7.2c-0.1,2-1.1,1.3-2.9,1.2c-1.6-0.1-3.2-0.3-4.8-0.4
			c-6.3-0.7-12.6-1.4-19-0.8c-2.4,0.2-2.4,4,0,3.8c5.1-0.5,10.1-0.1,15.2,0.4c3.8,0.4,9.4,2,13.1,0.9c7-2.2-1.4-11.2-3.3-14.1
			C123.9,118.7,120.6,120.5,122,122.5L122,122.5z"/>
	</g>
</g>
<g id="XMLID_445_">
	<g id="XMLID_625_">
		<path id="XMLID_629_" class="st1" d="M104,123.8c-1.5,1.5-3.1,2.9-4.6,4.4c-0.9,0.8-2.1,1.7-2.2,3c-0.1,1.3,0.7,2.1,1.5,2.9
			c1.5,1.6,3,3.2,4.5,4.7c1.7,1.7,4.3-0.9,2.7-2.7c-1-1-1.9-2-2.9-3c-0.4-0.4-0.9-0.9-1.3-1.3c-0.2-0.2-0.4-0.4-0.6-0.7
			c-0.5-0.7-0.6-0.4-0.3,1c0.4,0.2,5.4-5.2,5.9-5.7C108.3,124.8,105.7,122.1,104,123.8L104,123.8z"/>
	</g>
</g>
<g id="XMLID_443_">
	<g id="XMLID_619_">
		<path id="XMLID_623_" class="st1" d="M92.4,129.9c-2.1,0.1-4.3,0.1-6.4,0c-1.8-0.1-4.4,0.4-3.5-2.8c0.3-1,1.6-2,2.2-2.7
			c2.7-3.1,5-6.4,7-10c-1.1,0-2.2,0-3.2,0c1.2,2.3,2.2,4.7,3.2,7.1c1.2-0.3,2.4-0.7,3.6-1c-0.2-0.5-0.4-1.1-0.6-1.6
			c-0.9-2.2-4.5-1.3-3.6,1c0.2,0.5,0.4,1.1,0.6,1.6c0.9,2.2,4.5,1.3,3.6-1c-1-2.8-2.2-5.4-3.6-8c-0.6-1.3-2.6-1.2-3.2,0
			c-2,3.5-4.2,6.7-6.9,9.7c-1.7,2-3.5,4-3.3,6.8c0.6,6.2,9.8,4.9,14,4.7C94.8,133.6,94.8,129.8,92.4,129.9L92.4,129.9z"/>
	</g>
</g>
<g id="XMLID_442_">
	<g id="XMLID_613_">
		<path id="XMLID_617_" class="st1" d="M88.7,111.2c-2.6,1-5.2,1.9-7.8,2.9c-2.2,0.8-1.3,4.5,1,3.6c2.6-1,5.2-1.9,7.8-2.9
			C92,114,91,110.3,88.7,111.2L88.7,111.2z"/>
	</g>
</g>
<g id="XMLID_607_">
	<g id="XMLID_685_">
		<path id="XMLID_689_" class="st1" d="M29.6,168.6c1.6-2.4,3.3-4.8,4.9-7.1c1.3-1.9,1.3-3.1,3.4-2.4c1,0.3,2.4,2.8,3,3.6
			c4,4.9,7.9,9.9,11.7,15c1.9,2.6,6.2,0.1,4.3-2.5c-2.7-3.7-5.5-7.3-8.4-10.9c-2.6-3.2-5.3-8-8.8-10.2c-6.5-4.1-11.8,8.1-14.5,12.1
			C23.5,168.7,27.8,171.2,29.6,168.6L29.6,168.6z"/>
	</g>
</g>
<g id="XMLID_606_">
	<g id="XMLID_679_">
		<path id="XMLID_683_" class="st1" d="M53.3,165.7c-0.5,3.3-1,6.7-1.4,10c1-0.6,2.1-1.2,3.1-1.7c-3.5-0.7-6.9-1.6-10.3-2.9
			c-3-1.2-4.3,3.7-1.3,4.8c3.3,1.3,6.7,2.3,10.3,2.9c1.2,0.2,2.9-0.3,3.1-1.7c0.5-3.3,1-6.7,1.4-10
			C58.5,163.9,53.7,162.5,53.3,165.7L53.3,165.7z"/>
	</g>
</g>
<g id="XMLID_600_">
	<g id="XMLID_673_">
		<path id="XMLID_677_" class="st1" d="M56.2,182.7c0.8,1.1,5.2,6.2,4.9,7.2c0.1,0.1,0.3,0.3,0.4,0.4c-1,0-1.9-0.1-2.9-0.2
			c-1.6-0.1-3.2-0.3-4.8-0.4c-6.3-0.7-12.6-1.4-19-0.8c-3.2,0.3-3.2,5.3,0,5c5.1-0.5,10.1-0.1,15.2,0.4c3.9,0.4,9.5,2,13.3,0.9
			c7.8-2.4-0.7-11.7-3-15C58.7,177.5,54.4,180,56.2,182.7L56.2,182.7z"/>
	</g>
</g>
<g id="XMLID_594_">
	<g id="XMLID_667_">
		<path id="XMLID_671_" class="st1" d="M38.3,183.2c-1.5,1.5-3.1,2.9-4.6,4.4c-1,1-2.2,1.9-2.4,3.4c-0.2,1.5,0.8,2.4,1.7,3.5
			c1.5,1.6,3,3.2,4.5,4.7c2.2,2.3,5.8-1.2,3.5-3.5c-1-1-1.9-2-2.9-3c-0.4-0.4-0.9-0.9-1.3-1.3c-0.2-0.2-0.4-0.4-0.6-0.7
			c-0.7-0.9-0.8-0.3-0.3,1.9c0.6,0,2.2-2.1,2.6-2.5c1.1-1.1,2.2-2.1,3.3-3.2C44.1,184.5,40.6,180.9,38.3,183.2L38.3,183.2z"/>
	</g>
</g>
<g id="XMLID_588_">
	<g id="XMLID_661_">
		<path id="XMLID_665_" class="st1" d="M27.2,189.1c-2.1,0.1-4.3,0.1-6.4,0c-1.4-0.1-3.6,0.4-2.9-1.9c0.3-0.9,1.5-1.9,2.1-2.6
			c2.7-3.1,5.1-6.5,7.1-10.1c-1.4,0-2.9,0-4.3,0c1.2,2.3,2.2,4.6,3.1,7c1.6-0.4,3.2-0.9,4.8-1.3c-0.2-0.5-0.4-1.1-0.6-1.6
			c-1.2-3-6-1.7-4.8,1.3c0.2,0.5,0.4,1.1,0.6,1.6c1.2,3,6,1.7,4.8-1.3c-1.1-2.8-2.3-5.5-3.6-8.2c-0.9-1.7-3.4-1.6-4.3,0
			c-1.9,3.4-4.2,6.6-6.8,9.6c-1.8,2.1-3.7,4.3-3.4,7.3c0.5,6.7,10,5.5,14.7,5.4C30.4,194,30.4,189,27.2,189.1L27.2,189.1z"/>
	</g>
</g>
<g id="XMLID_582_">
	<g id="XMLID_655_">
		<path id="XMLID_659_" class="st1" d="M23.3,170.4c-2.6,1-5.2,1.9-7.8,2.9c-3,1.1-1.7,5.9,1.3,4.8c2.6-1,5.2-1.9,7.8-2.9
			C27.7,174.1,26.4,169.3,23.3,170.4L23.3,170.4z"/>
	</g>
</g>
<g id="XMLID_649_">
	<g id="XMLID_727_">
		<path id="XMLID_731_" class="st1" d="M578,29.7c1.6-2.4,3.3-4.8,4.9-7.1c1.3-1.9,1.3-3.1,3.4-2.4c1,0.3,2.4,2.8,3,3.6
			c4,4.9,7.9,9.9,11.7,15c1.9,2.6,6.2,0.1,4.3-2.5c-2.7-3.7-5.5-7.3-8.4-10.9c-2.6-3.2-5.3-8-8.8-10.2c-6.5-4.1-11.8,8.1-14.5,12.1
			C571.8,29.8,576.2,32.3,578,29.7L578,29.7z"/>
	</g>
</g>
<g id="XMLID_648_">
	<g id="XMLID_721_">
		<path id="XMLID_725_" class="st1" d="M601.6,26.8c-0.5,3.3-1,6.7-1.4,10c1-0.6,2.1-1.2,3.1-1.7c-3.5-0.7-6.9-1.6-10.3-2.9
			c-3-1.2-4.3,3.7-1.3,4.8c3.3,1.3,6.7,2.3,10.3,2.9c1.2,0.2,2.9-0.3,3.1-1.7c0.5-3.3,1-6.7,1.4-10C606.9,25,602.1,23.6,601.6,26.8
			L601.6,26.8z"/>
	</g>
</g>
<g id="XMLID_642_">
	<g id="XMLID_715_">
		<path id="XMLID_719_" class="st1" d="M604.6,43.8c0.8,1.1,5.2,6.2,4.9,7.2c0.1,0.1,0.3,0.3,0.4,0.4c-1,0-1.9-0.1-2.9-0.2
			c-1.6-0.1-3.2-0.3-4.8-0.4c-6.3-0.7-12.6-1.4-19-0.8c-3.2,0.3-3.2,5.3,0,5c5.1-0.5,10.1-0.1,15.2,0.4c3.9,0.4,9.5,2,13.3,0.9
			c7.8-2.4-0.7-11.7-3-15C607.1,38.6,602.8,41.1,604.6,43.8L604.6,43.8z"/>
	</g>
</g>
<g id="XMLID_636_">
	<g id="XMLID_709_">
		<path id="XMLID_713_" class="st1" d="M586.7,44.3c-1.5,1.5-3.1,2.9-4.6,4.4c-1,1-2.2,1.9-2.4,3.4c-0.2,1.5,0.8,2.4,1.7,3.5
			c1.5,1.6,3,3.2,4.5,4.7c2.2,2.3,5.8-1.2,3.5-3.5c-1-1-1.9-2-2.9-3c-0.4-0.4-0.9-0.9-1.3-1.3c-0.2-0.2-0.4-0.4-0.6-0.7
			c-0.7-0.9-0.8-0.3-0.3,1.9c0.6,0,2.2-2.1,2.6-2.5c1.1-1.1,2.2-2.1,3.3-3.2C592.5,45.6,589,42,586.7,44.3L586.7,44.3z"/>
	</g>
</g>
<g id="XMLID_630_">
	<g id="XMLID_703_">
		<path id="XMLID_707_" class="st1" d="M575.6,50.2c-2.1,0.1-4.3,0.1-6.4,0c-1.4-0.1-3.6,0.4-2.9-1.9c0.3-0.9,1.5-1.9,2.1-2.6
			c2.7-3.1,5.1-6.5,7.1-10.1c-1.4,0-2.9,0-4.3,0c1.2,2.3,2.2,4.6,3.1,7c1.6-0.4,3.2-0.9,4.8-1.3c-0.2-0.5-0.4-1.1-0.6-1.6
			c-1.2-3-6-1.7-4.8,1.3c0.2,0.5,0.4,1.1,0.6,1.6c1.2,3,6,1.7,4.8-1.3c-1.1-2.8-2.3-5.5-3.6-8.2c-0.9-1.7-3.4-1.6-4.3,0
			c-1.9,3.4-4.2,6.6-6.8,9.6c-1.8,2.1-3.7,4.3-3.4,7.3c0.5,6.7,10,5.5,14.7,5.4C578.8,55.1,578.8,50.1,575.6,50.2L575.6,50.2z"/>
	</g>
</g>
<g id="XMLID_624_">
	<g id="XMLID_697_">
		<path id="XMLID_701_" class="st1" d="M571.7,31.5c-2.6,1-5.2,1.9-7.8,2.9c-3,1.1-1.7,5.9,1.3,4.8c2.6-1,5.2-1.9,7.8-2.9
			C576,35.2,574.7,30.4,571.7,31.5L571.7,31.5z"/>
	</g>
</g>
<g id="XMLID_691_">
	<g id="XMLID_769_">
		<path id="XMLID_773_" class="st1" d="M669.9,86.3c1.6-2.4,3.3-4.8,4.9-7.1c1.3-1.9,1.9-3.9,4.4-2.5c1.2,0.7,2.2,2.6,3,3.6
			c4.1,4.9,8,10,11.8,15.1c1.4,1.9,4.7,0,3.2-1.9c-2.7-3.6-5.5-7.2-8.3-10.8c-2.5-3.2-5.3-7.9-8.7-10.1c-6-3.8-11.2,8.3-13.7,11.8
			C665.3,86.4,668.5,88.2,669.9,86.3L669.9,86.3z"/>
	</g>
</g>
<g id="XMLID_690_">
	<g id="XMLID_763_">
		<path id="XMLID_767_" class="st1" d="M694.7,83.9c-0.5,3.3-1,6.7-1.4,10c0.8-0.4,1.5-0.9,2.3-1.3c-3.5-0.7-6.9-1.6-10.3-2.9
			c-2.2-0.9-3.2,2.7-1,3.6c3.3,1.3,6.7,2.3,10.3,2.9c0.9,0.2,2.2-0.2,2.3-1.3c0.5-3.3,1-6.7,1.4-10C698.6,82.5,695,81.5,694.7,83.9
			L694.7,83.9z"/>
	</g>
</g>
<g id="XMLID_684_">
	<g id="XMLID_757_">
		<path id="XMLID_761_" class="st1" d="M697.6,100.3c0.9,1.3,5,5.8,4.9,7.2c-0.1,2-1.1,1.3-2.9,1.2c-1.6-0.1-3.2-0.3-4.8-0.4
			c-6.3-0.7-12.6-1.4-19-0.8c-2.4,0.2-2.4,4,0,3.8c5.1-0.5,10.1-0.1,15.2,0.4c3.8,0.4,9.4,2,13.1,0.9c7-2.2-1.4-11.2-3.3-14.1
			C699.5,96.5,696.2,98.3,697.6,100.3L697.6,100.3z"/>
	</g>
</g>
<g id="XMLID_678_">
	<g id="XMLID_751_">
		<path id="XMLID_755_" class="st1" d="M679.5,101.6c-1.5,1.5-3.1,2.9-4.6,4.4c-0.9,0.8-2.1,1.7-2.2,3c-0.1,1.3,0.7,2.1,1.5,2.9
			c1.5,1.6,3,3.2,4.5,4.7c1.7,1.7,4.3-0.9,2.7-2.7c-1-1-1.9-2-2.9-3c-0.4-0.4-0.9-0.9-1.3-1.3c-0.2-0.2-0.4-0.4-0.6-0.7
			c-0.5-0.7-0.6-0.4-0.3,1c0.4,0.2,5.4-5.2,5.9-5.7C683.9,102.5,681.3,99.9,679.5,101.6L679.5,101.6z"/>
	</g>
</g>
<g id="XMLID_672_">
	<g id="XMLID_745_">
		<path id="XMLID_749_" class="st1" d="M668,107.7c-2.1,0.1-4.3,0.1-6.4,0c-1.8-0.1-4.4,0.4-3.5-2.8c0.3-1,1.6-2,2.2-2.7
			c2.7-3.1,5-6.4,7-10c-1.1,0-2.2,0-3.2,0c1.2,2.3,2.2,4.7,3.2,7.1c1.2-0.3,2.4-0.7,3.6-1c-0.2-0.5-0.4-1.1-0.6-1.6
			c-0.9-2.2-4.5-1.3-3.6,1c0.2,0.5,0.4,1.1,0.6,1.6c0.9,2.2,4.5,1.3,3.6-1c-1-2.8-2.2-5.4-3.6-8c-0.6-1.3-2.6-1.2-3.2,0
			c-2,3.5-4.2,6.7-6.9,9.7c-1.7,2-3.5,4-3.3,6.8c0.6,6.2,9.8,4.9,14,4.7C670.4,111.4,670.4,107.6,668,107.7L668,107.7z"/>
	</g>
</g>
<g id="XMLID_666_">
	<g id="XMLID_739_">
		<path id="XMLID_743_" class="st1" d="M664.3,89c-2.6,1-5.2,1.9-7.8,2.9c-2.2,0.8-1.3,4.5,1,3.6c2.6-1,5.2-1.9,7.8-2.9
			C667.6,91.8,666.6,88.1,664.3,89L664.3,89z"/>
	</g>
</g>
<g id="XMLID_733_">
	<g id="XMLID_811_">
		<path id="XMLID_815_" class="st1" d="M764.5,26.1c1.6-2.4,3.3-4.8,4.9-7.1c1.3-1.9,1.3-3.1,3.4-2.4c1,0.3,2.4,2.8,3,3.6
			c4,4.9,7.9,9.9,11.7,15c1.9,2.6,6.2,0.1,4.3-2.5c-2.7-3.7-5.5-7.3-8.4-10.9c-2.6-3.2-5.3-8-8.8-10.2c-6.5-4.1-11.8,8.1-14.5,12.1
			C758.3,26.2,762.7,28.7,764.5,26.1L764.5,26.1z"/>
	</g>
</g>
<g id="XMLID_732_">
	<g id="XMLID_805_">
		<path id="XMLID_809_" class="st1" d="M788.1,23.2c-0.5,3.3-1,6.7-1.4,10c1-0.6,2.1-1.2,3.1-1.7c-3.5-0.7-6.9-1.6-10.3-2.9
			c-3-1.2-4.3,3.7-1.3,4.8c3.3,1.3,6.7,2.3,10.3,2.9c1.2,0.2,2.9-0.3,3.1-1.7c0.5-3.3,1-6.7,1.4-10C793.4,21.4,788.6,20,788.1,23.2
			L788.1,23.2z"/>
	</g>
</g>
<g id="XMLID_726_">
	<g id="XMLID_799_">
		<path id="XMLID_803_" class="st1" d="M791.1,40.2c0.8,1.1,5.2,6.2,4.9,7.2c0.1,0.1,0.3,0.3,0.4,0.4c-1,0-1.9-0.1-2.9-0.2
			c-1.6-0.1-3.2-0.3-4.8-0.4c-6.3-0.7-12.6-1.4-19-0.8c-3.2,0.3-3.2,5.3,0,5c5.1-0.5,10.1-0.1,15.2,0.4c3.9,0.4,9.5,2,13.3,0.9
			c7.8-2.4-0.7-11.7-3-15C793.6,35,789.3,37.5,791.1,40.2L791.1,40.2z"/>
	</g>
</g>
<g id="XMLID_720_">
	<g id="XMLID_793_">
		<path id="XMLID_797_" class="st1" d="M773.2,40.6c-1.5,1.5-3.1,2.9-4.6,4.4c-1,1-2.2,1.9-2.4,3.4c-0.2,1.5,0.8,2.4,1.7,3.5
			c1.5,1.6,3,3.2,4.5,4.7c2.2,2.3,5.8-1.2,3.5-3.5c-1-1-1.9-2-2.9-3c-0.4-0.4-0.9-0.9-1.3-1.3c-0.2-0.2-0.4-0.4-0.6-0.7
			c-0.7-0.9-0.8-0.3-0.3,1.9c0.6,0,2.2-2.1,2.6-2.5c1.1-1.1,2.2-2.1,3.3-3.2C779,41.9,775.5,38.4,773.2,40.6L773.2,40.6z"/>
	</g>
</g>
<g id="XMLID_714_">
	<g id="XMLID_787_">
		<path id="XMLID_791_" class="st1" d="M762.1,46.6c-2.1,0.1-4.3,0.1-6.4,0c-1.4-0.1-3.6,0.4-2.9-1.9c0.3-0.9,1.5-1.9,2.1-2.6
			c2.7-3.1,5.1-6.5,7.1-10.1c-1.4,0-2.9,0-4.3,0c1.2,2.3,2.2,4.6,3.1,7c1.6-0.4,3.2-0.9,4.8-1.3c-0.2-0.5-0.4-1.1-0.6-1.6
			c-1.2-3-6-1.7-4.8,1.3c0.2,0.5,0.4,1.1,0.6,1.6c1.2,3,6,1.7,4.8-1.3c-1.1-2.8-2.3-5.5-3.6-8.2c-0.9-1.7-3.4-1.6-4.3,0
			c-1.9,3.4-4.2,6.6-6.8,9.6c-1.8,2.1-3.7,4.3-3.4,7.3c0.5,6.7,10,5.5,14.7,5.4C765.3,51.5,765.3,46.5,762.1,46.6L762.1,46.6z"/>
	</g>
</g>
<g id="XMLID_708_">
	<g id="XMLID_781_">
		<path id="XMLID_785_" class="st1" d="M758.2,27.9c-2.6,1-5.2,1.9-7.8,2.9c-3,1.1-1.7,5.9,1.3,4.8c2.6-1,5.2-1.9,7.8-2.9
			C762.5,31.6,761.2,26.7,758.2,27.9L758.2,27.9z"/>
	</g>
</g>
<g id="XMLID_775_">
	<g id="XMLID_1048_">
		<path id="XMLID_1052_" class="st1" d="M584.8,145.8c1.6-2.4,3.3-4.8,4.9-7.1c1.3-1.9,1.3-3.1,3.4-2.4c1,0.3,2.4,2.8,3,3.6
			c4,4.9,7.9,9.9,11.7,15c1.9,2.6,6.2,0.1,4.3-2.5c-2.7-3.7-5.5-7.3-8.4-10.9c-2.6-3.2-5.3-8-8.8-10.2c-6.5-4.1-11.8,8.1-14.5,12.1
			C578.6,145.9,583,148.4,584.8,145.8L584.8,145.8z"/>
	</g>
</g>
<g id="XMLID_774_">
	<g id="XMLID_1042_">
		<path id="XMLID_1046_" class="st1" d="M608.4,142.9c-0.5,3.3-1,6.7-1.4,10c1-0.6,2.1-1.2,3.1-1.7c-3.5-0.7-6.9-1.6-10.3-2.9
			c-3-1.2-4.3,3.7-1.3,4.8c3.3,1.3,6.7,2.3,10.3,2.9c1.2,0.2,2.9-0.3,3.1-1.7c0.5-3.3,1-6.7,1.4-10
			C613.7,141.1,608.9,139.7,608.4,142.9L608.4,142.9z"/>
	</g>
</g>
<g id="XMLID_768_">
	<g id="XMLID_1036_">
		<path id="XMLID_1040_" class="st1" d="M611.4,159.9c0.8,1.1,5.2,6.2,4.9,7.2c0.1,0.1,0.3,0.3,0.4,0.4c-1,0-1.9-0.1-2.9-0.2
			c-1.6-0.1-3.2-0.3-4.8-0.4c-6.3-0.7-12.6-1.4-19-0.8c-3.2,0.3-3.2,5.3,0,5c5.1-0.5,10.1-0.1,15.2,0.4c3.9,0.4,9.5,2,13.3,0.9
			c7.8-2.4-0.7-11.7-3-15C613.9,154.7,609.6,157.2,611.4,159.9L611.4,159.9z"/>
	</g>
</g>
<g id="XMLID_762_">
	<g id="XMLID_1030_">
		<path id="XMLID_1034_" class="st1" d="M593.5,160.3c-1.5,1.5-3.1,2.9-4.6,4.4c-1,1-2.2,1.9-2.4,3.4c-0.2,1.5,0.8,2.4,1.7,3.5
			c1.5,1.6,3,3.2,4.5,4.7c2.2,2.3,5.8-1.2,3.5-3.5c-1-1-1.9-2-2.9-3c-0.4-0.4-0.9-0.9-1.3-1.3c-0.2-0.2-0.4-0.4-0.6-0.7
			c-0.7-0.9-0.8-0.3-0.3,1.9c0.6,0,2.2-2.1,2.6-2.5c1.1-1.1,2.2-2.1,3.3-3.2C599.3,161.6,595.8,158.1,593.5,160.3L593.5,160.3z"/>
	</g>
</g>
<g id="XMLID_756_">
	<g id="XMLID_1024_">
		<path id="XMLID_1028_" class="st1" d="M582.4,166.3c-2.1,0.1-4.3,0.1-6.4,0c-1.4-0.1-3.6,0.4-2.9-1.9c0.3-0.9,1.5-1.9,2.1-2.6
			c2.7-3.1,5.1-6.5,7.1-10.1c-1.4,0-2.9,0-4.3,0c1.2,2.3,2.2,4.6,3.1,7c1.6-0.4,3.2-0.9,4.8-1.3c-0.2-0.5-0.4-1.1-0.6-1.6
			c-1.2-3-6-1.7-4.8,1.3c0.2,0.5,0.4,1.1,0.6,1.6c1.2,3,6,1.7,4.8-1.3c-1.1-2.8-2.3-5.5-3.6-8.2c-0.9-1.7-3.4-1.6-4.3,0
			c-1.9,3.4-4.2,6.6-6.8,9.6c-1.8,2.1-3.7,4.3-3.4,7.3c0.5,6.7,10,5.5,14.7,5.4C585.6,171.2,585.6,166.2,582.4,166.3L582.4,166.3z"
			/>
	</g>
</g>
<g id="XMLID_750_">
	<g id="XMLID_1018_">
		<path id="XMLID_1022_" class="st1" d="M578.5,147.6c-2.6,1-5.2,1.9-7.8,2.9c-3,1.1-1.7,5.9,1.3,4.8c2.6-1,5.2-1.9,7.8-2.9
			C582.8,151.3,581.6,146.5,578.5,147.6L578.5,147.6z"/>
	</g>
</g>
<g id="XMLID_817_">
	<g id="XMLID_1090_">
		<path id="XMLID_1094_" class="st1" d="M758,145.4c1.6-2.4,3.3-4.8,4.9-7.1c1.3-1.9,1.9-3.9,4.4-2.5c1.2,0.7,2.2,2.6,3,3.6
			c4.1,4.9,8,10,11.8,15.1c1.4,1.9,4.7,0,3.2-1.9c-2.7-3.6-5.5-7.2-8.3-10.8c-2.5-3.2-5.3-7.9-8.7-10.1c-6-3.8-11.2,8.3-13.7,11.8
			C753.4,145.5,756.7,147.4,758,145.4L758,145.4z"/>
	</g>
</g>
<g id="XMLID_816_">
	<g id="XMLID_1084_">
		<path id="XMLID_1088_" class="st1" d="M782.8,143c-0.5,3.3-1,6.7-1.4,10c0.8-0.4,1.5-0.9,2.3-1.3c-3.5-0.7-6.9-1.6-10.3-2.9
			c-2.2-0.9-3.2,2.7-1,3.6c3.3,1.3,6.7,2.3,10.3,2.9c0.9,0.2,2.2-0.2,2.3-1.3c0.5-3.3,1-6.7,1.4-10
			C786.8,141.6,783.2,140.6,782.8,143L782.8,143z"/>
	</g>
</g>
<g id="XMLID_810_">
	<g id="XMLID_1078_">
		<path id="XMLID_1082_" class="st1" d="M785.7,159.5c0.9,1.3,5,5.8,4.9,7.2c-0.1,2-1.1,1.3-2.9,1.2c-1.6-0.1-3.2-0.3-4.8-0.4
			c-6.3-0.7-12.6-1.4-19-0.8c-2.4,0.2-2.4,4,0,3.8c5.1-0.5,10.1-0.1,15.2,0.4c3.8,0.4,9.4,2,13.1,0.9c7-2.2-1.4-11.2-3.3-14.1
			C787.6,155.6,784.4,157.5,785.7,159.5L785.7,159.5z"/>
	</g>
</g>
<g id="XMLID_804_">
	<g id="XMLID_1072_">
		<path id="XMLID_1076_" class="st1" d="M767.7,160.7c-1.5,1.5-3.1,2.9-4.6,4.4c-0.9,0.8-2.1,1.7-2.2,3c-0.1,1.3,0.7,2.1,1.5,2.9
			c1.5,1.6,3,3.2,4.5,4.7c1.7,1.7,4.3-0.9,2.7-2.7c-1-1-1.9-2-2.9-3c-0.4-0.4-0.9-0.9-1.3-1.3c-0.2-0.2-0.4-0.4-0.6-0.7
			c-0.5-0.7-0.6-0.4-0.3,1c0.4,0.2,5.4-5.2,5.9-5.7C772.1,161.7,769.4,159,767.7,160.7L767.7,160.7z"/>
	</g>
</g>
<g id="XMLID_798_">
	<g id="XMLID_1066_">
		<path id="XMLID_1070_" class="st1" d="M756.2,166.9c-2.1,0.1-4.3,0.1-6.4,0c-1.8-0.1-4.4,0.4-3.5-2.8c0.3-1,1.6-2,2.2-2.7
			c2.7-3.1,5-6.4,7-10c-1.1,0-2.2,0-3.2,0c1.2,2.3,2.2,4.7,3.2,7.1c1.2-0.3,2.4-0.7,3.6-1c-0.2-0.5-0.4-1.1-0.6-1.6
			c-0.9-2.2-4.5-1.3-3.6,1c0.2,0.5,0.4,1.1,0.6,1.6c0.9,2.2,4.5,1.3,3.6-1c-1-2.8-2.2-5.4-3.6-8c-0.6-1.3-2.6-1.2-3.2,0
			c-2,3.5-4.2,6.7-6.9,9.7c-1.7,2-3.5,4-3.3,6.8c0.6,6.2,9.8,4.9,14,4.7C758.6,170.5,758.6,166.8,756.2,166.9L756.2,166.9z"/>
	</g>
</g>
<g id="XMLID_792_">
	<g id="XMLID_1060_">
		<path id="XMLID_1064_" class="st1" d="M752.5,148.1c-2.6,1-5.2,1.9-7.8,2.9c-2.2,0.8-1.3,4.5,1,3.6c2.6-1,5.2-1.9,7.8-2.9
			C755.7,150.9,754.8,147.3,752.5,148.1L752.5,148.1z"/>
	</g>
</g>
</svg>
