<?xml version="1.0" encoding="utf-8"?>
<!-- Generator: Adobe Illustrator 19.0.0, SVG Export Plug-In . SVG Version: 6.00 Build 0)  -->
<svg version="1.1" xmlns="http://www.w3.org/2000/svg" xmlns:xlink="http://www.w3.org/1999/xlink" x="0px" y="0px"
	 viewBox="0 0 865 202" style="enable-background:new 0 0 865 202;" xml:space="preserve">
<style type="text/css">
	.st0{fill:#ED6D24;stroke:#010101;stroke-miterlimit:10;}
	.st1{fill:#F68850;}
</style>
<g id="Layer_1">
	<g id="Layer_1_1_">
		<rect id="XMLID_14_" x="-3.3" y="-4.7" class="st0" width="873.3" height="210"/>
	</g>
</g>
<g id="Layer_2">
	<g id="XMLID_41_">
		<g id="XMLID_454_">
			<path id="XMLID_458_" class="st1" d="M783.2,18.7c1.3,12.9,4.9,25.3,8.7,37.6c0.4-0.5,0.8-1.1,1.2-1.6c-4.6,0.1-9.1,0.1-13.7,0
				c-1.6,0-1.6,2.5,0,2.5c4.6,0.1,9.1,0.1,13.7,0c0.8,0,1.4-0.8,1.2-1.6c-3.7-12.1-7.3-24.3-8.6-36.9
				C785.6,17.1,783.1,17.1,783.2,18.7L783.2,18.7z"/>
		</g>
	</g>
	<g id="XMLID_40_">
		<g id="XMLID_448_">
			<path id="XMLID_452_" class="st1" d="M782.1,18.9c-3.5,12.6-5.5,25.6-8.1,38.4c-0.2,0.9,0.6,1.8,1.5,1.5c1.2-0.3,2.4-0.6,3.7-0.8
				c1.6-0.4,0.9-2.8-0.7-2.4c-1.2,0.3-2.4,0.6-3.7,0.8c0.5,0.5,1,1,1.5,1.5c2.6-12.8,4.7-25.8,8.1-38.4
				C784.9,18,782.5,17.4,782.1,18.9L782.1,18.9z"/>
		</g>
	</g>
	<g id="XMLID_38_">
		<g id="XMLID_442_">
			<path id="XMLID_446_" class="st1" d="M784,26.2c-1.6,0.8-2.4,2-2.1,3.7c-0.1,1.3-0.3,2.6-0.4,3.8c-0.3,2.2-0.5,4.5-0.8,6.7
				c-0.3,3,0,13.7-4.2,13.4c0.4,0.5,0.8,1.1,1.2,1.6c1.7-7.4,3.2-14.9,4.4-22.4c-0.8-0.1-1.6-0.2-2.5-0.3
				c-0.7,7.9-1.4,15.9-2.2,23.8c0.8,0,1.7,0,2.5,0c0.3-4.5,1.1-8.8,2.4-13.1c-0.8,0-1.6,0-2.4,0c0.5,3.3,0.9,6.7,1.4,10
				c0.2,1.4,2.5,1,2.5-0.3c0-2.9,0-5.9,0-8.8c-0.8,0.1-1.6,0.2-2.5,0.3c0.5,3.2,0.7,6.4,0.7,9.6c0,1.4,2.2,1.8,2.5,0.3
				c0.4-3,0.9-5.9,1.3-8.9c-0.8-0.1-1.6-0.2-2.5-0.3c0.1,2.8,0.3,5.7,0.4,8.5c0.1,1.4,2.1,1.8,2.5,0.3c0.7-2.8,1.1-5.6,1.3-8.5
				c-0.8,0-1.7,0-2.5,0c0.2,2.3,0.5,4.7,0.7,7c0.1,1.4,1.9,1.7,2.5,0.3c0.8-2,1-3.7,0.8-5.8c-0.8,0.1-1.6,0.2-2.5,0.3
				c0.3,2.1,0.7,4.1,1.3,6.1c0.4,1.4,2.4,1.1,2.5-0.3c0-0.6,0-1.2,0.1-1.8c-0.8,0.2-1.6,0.4-2.3,0.6c0.8,1.6,0.7,1.4,1.8,2.8
				c0.2-0.7,0.4-1.4,0.6-2.1c-1.7,0.4-3.4,0.6-5.1,0.6c-1.6,0.1-1.6,2.3,0,2.5c4.3,0.5,1.4-7,1-8.8c-1.6-8.5-2.1-17.1-1.6-25.7
				c0.1-1.6-2.4-1.6-2.5,0c-0.7,9.9,2.4,20.2,4.7,29.7c0.4,1.6,2.8,0.9,2.4-0.7c-1.4-6.3-2.6-12.6-3.6-19c-0.8,0.2-1.6,0.4-2.4,0.7
				c2.2,7.7,4.3,15.3,6.5,23c0.8-0.2,1.6-0.4,2.4-0.7c-1-2.7-2-5.4-3-8.1c-0.5-1.5-2.9-0.9-2.4,0.7c1,3.3,2.4,6.3,4.1,9.3
				c0.7,1.2,2.6,0.4,2.3-1c-0.4-1.9-0.3-1.6-1.2-3.4c-0.7-1.3-2.7-0.4-2.3,1c0.6,2,1.3,3.7,2.3,5.6c0.4-0.6,0.7-1.3,1.1-1.9
				c-5.9-0.4-11.8-0.4-17.7-0.1c-1.6,0.1-1.6,2.6,0,2.5c5.9-0.3,11.8-0.2,17.7,0.1c1,0.1,1.5-1.1,1.1-1.9c-0.9-1.6-1.5-3.2-2-5
				c-0.8,0.3-1.5,0.6-2.3,1c0.3,0.9,0.7,1.8,1,2.8c0.8-0.3,1.5-0.6,2.3-1c-1.6-2.8-2.9-5.6-3.9-8.7c-0.8,0.2-1.6,0.4-2.4,0.7
				c1,2.7,2,5.4,3,8.1c0.5,1.5,2.9,0.9,2.4-0.7c-2.2-7.7-4.3-15.3-6.5-23c-0.4-1.6-2.6-0.9-2.4,0.7c1,6.4,2.2,12.7,3.6,19
				c0.8-0.2,1.6-0.4,2.4-0.7c-2.2-9.3-5.3-19.5-4.6-29.1c-0.8,0-1.7,0-2.5,0c-0.3,5.6-0.2,11.2,0.3,16.8c0.2,2.1,1.3,15,2.7,15.2
				c0,0.8,0,1.7,0,2.5c2-0.1,3.8-0.3,5.8-0.7c1-0.2,1.1-1.4,0.6-2.1c-0.5-0.8-1-1.5-1.4-2.3c-0.6-1.2-2.3-0.5-2.3,0.6
				c0,0.6,0,1.2-0.1,1.8c0.8-0.1,1.6-0.2,2.5-0.3c-0.5-2-0.9-4.1-1.3-6.1c-0.2-1.4-2.6-1.1-2.5,0.3c0.1,1.8-0.1,3.4-0.7,5.1
				c0.8,0.1,1.6,0.2,2.5,0.3c-0.2-2.3-0.5-4.7-0.7-7c-0.2-1.6-2.4-1.6-2.5,0c-0.2,2.6-0.6,5.2-1.3,7.8c0.8,0.1,1.6,0.2,2.5,0.3
				c-0.1-2.8-0.3-5.7-0.4-8.5c-0.1-1.3-2.2-1.8-2.5-0.3c-0.4,3-0.9,5.9-1.3,8.9c0.8,0.1,1.6,0.2,2.5,0.3c0-3.5-0.2-6.8-0.7-10.2
				c-0.2-1.4-2.5-1-2.5,0.3c0,2.9,0,5.9,0,8.8c0.8-0.1,1.6-0.2,2.5-0.3c-0.5-3.3-0.9-6.7-1.4-10c-0.2-1.3-2.1-1.1-2.4,0
				c-1.4,4.5-2.2,9.1-2.5,13.8c-0.1,1.6,2.4,1.6,2.5,0c0.7-7.9,1.4-15.9,2.2-23.8c0.1-1.4-2.2-1.7-2.5-0.3c-1.2,7.5-2.7,15-4.4,22.4
				c-0.2,0.8,0.4,1.5,1.2,1.6c5.7,0.3,5.3-3.6,5.8-8.3c0.5-4.2,0.9-8.3,1.4-12.5c0.4-3.3,1.5-7.4,0.9-10.6c-0.1-0.4-0.5-0.8-0.9-0.9
				c-0.1,0-0.2,0-0.3-0.1c-0.6-0.1-1.1,0.1-1.4,0.6c-0.1,0.1-0.1,0.2-0.2,0.2C780.9,26.3,783.1,27.5,784,26.2L784,26.2z"/>
		</g>
	</g>
	<g id="XMLID_37_">
		<g id="XMLID_436_">
			<path id="XMLID_440_" class="st1" d="M784.7,21.5c0-2,0-4.1,0-6.1c0-1.6-2.5-1.6-2.5,0c0,1.2,0,2.4,0,3.6c0.8,0,1.7,0,2.5,0
				c0.2-0.8,0.4-1.6,0.7-2.5c-0.8-0.2-1.6-0.4-2.3-0.6c0,7.2,1,14.2,3.2,21.1c2.3,7.2,5.6,14,7.6,21.3c0.4-0.5,0.8-1.1,1.2-1.6
				c-5,0.2-9.3-0.7-13.7-3.1c-1.4-0.8-2.7,1.4-1.3,2.2c4.7,2.6,9.6,3.7,14.9,3.5c0.8,0,1.4-0.8,1.2-1.6c-1.9-6.7-4.7-13-7-19.6
				c-2.5-7.2-3.7-14.5-3.7-22.1c0-1.3-1.7-1.7-2.3-0.6c-0.8,1.3-1,2.2-1,3.7c0,1.6,2.5,1.6,2.5,0c0-1.2,0-2.4,0-3.6
				c-0.8,0-1.7,0-2.5,0c0,2,0,4.1,0,6.1C782.2,23.1,784.7,23.1,784.7,21.5L784.7,21.5z"/>
		</g>
	</g>
	<g id="XMLID_36_">
		<g id="XMLID_430_">
			<path id="XMLID_434_" class="st1" d="M776.5,50.6c-1.6-5.7-3.6-11.2-6.1-16.6c-0.5-1-2-0.7-2.3,0.3c-1.5,5.5-2.9,10.9-4.4,16.4
				c-1.1,4-3.5,9.2-3.4,13.3c0,0.6,0.4,1,0.9,1.2c2,0.8,4.9,0.5,7,0.7c3.3,0.3,6.5,0.5,9.8,0.8c0.6,0,1.3-0.6,1.2-1.2
				c-0.3-2.9-1-5.4-2.2-8.1c-0.5-1.2-2.3-0.5-2.3,0.6c0,2.2,0.2,4.2,0.8,6.4c0.8-0.3,1.5-0.6,2.3-1c-3.3-7.4-5.7-15.2-7.2-23.2
				c-0.8,0.3-1.5,0.6-2.3,1c2.6,5.3,4.3,10.8,5.1,16.7c0.8-0.1,1.6-0.2,2.5-0.3c-1.7-4.7-3.3-9.5-5-14.2c-0.5-1.3-2.4-1.1-2.5,0.3
				c-0.1,6.5,1.3,12.5,4.3,18.3c0.7,1.3,2.7,0.4,2.3-1c-1.5-5.2-3.2-10.3-5.1-15.4c-0.5-1.3-2.4-1.1-2.5,0.3
				c-0.1,5.1,0.6,9.9,2.1,14.8c0.5,1.5,2.7,0.9,2.4-0.7c-1.1-5.5-2.1-11-3.2-16.5c-0.3-1.4-2.5-1.1-2.5,0.3c0.2,5.5-0.1,11-0.9,16.5
				c0.8,0.1,1.6,0.2,2.5,0.3c0.2-3.9,0.5-7.8,0.7-11.7c0.1-1.4-2.1-1.7-2.5-0.3c-1.2,4.3-2.2,8.5-2.9,12.9c0.8,0.1,1.6,0.2,2.5,0.3
				c0.1-2.9,0.5-5.6,1.3-8.4c-0.8-0.2-1.6-0.4-2.4-0.7c-1,3.4-1.7,6.8-2.2,10.3c-0.2,1.1,0.8,1.9,1.8,1.4c3.6-1.7,7.3-2,11.1-1
				c1.4,0.4,2.1-1.5,1-2.3c-2.7-1.9-5.5-3.7-8.4-5.4c-0.8-0.5-1.9,0.1-1.9,1.1c0.2,3.9,4.6,6.1,7.4,8.3c1.2,1,3-0.8,1.8-1.8
				c-2.9-2.3-5.9-3.5-9.6-3.7c-1.2-0.1-1.5,1.4-0.9,2.1c0.8,0.9,0.9,1,1.9,1.7c0-0.7,0-1.4,0-2.2c-0.9,0.3-1.8,0.6-2.7,0.8
				c-1.3,0.1-1.8,2.2-0.3,2.5c2.4,0.4,4.8,0.5,7.3,0.4c1.6-0.1,1.6-2.6,0-2.5c-2.3,0.1-4.3,0-6.6-0.4c-0.1,0.8-0.2,1.6-0.3,2.5
				c1.5-0.1,2.6-0.4,4-1.2c0.9-0.5,0.7-1.6,0-2.2c-0.5-0.4-0.9-0.9-1.4-1.3c-0.3,0.7-0.6,1.4-0.9,2.1c3.1,0.2,5.4,1.1,7.8,3
				c0.6-0.6,1.2-1.2,1.8-1.8c-1.7-1.3-6.5-4.1-6.7-6.5c-0.6,0.4-1.3,0.7-1.9,1.1c2.9,1.7,5.7,3.5,8.4,5.4c0.3-0.8,0.6-1.5,1-2.3
				c-4.6-1.2-8.8-0.8-13.1,1.2c0.6,0.5,1.2,0.9,1.8,1.4c0.5-3.5,1.2-6.9,2.2-10.3c0.5-1.5-2-2.2-2.4-0.7c-0.9,3-1.3,5.9-1.4,9
				c0,1.4,2.2,1.7,2.5,0.3c0.8-4.4,1.8-8.6,2.9-12.9c-0.8-0.1-1.6-0.2-2.5-0.3c-0.2,3.9-0.5,7.8-0.7,11.7c-0.1,1.4,2.2,1.7,2.5,0.3
				c0.8-5.7,1.2-11.4,1-17.1c-0.8,0.1-1.6,0.2-2.5,0.3c1.1,5.5,2.1,11,3.2,16.5c0.8-0.2,1.6-0.4,2.4-0.7c-1.5-4.7-2.1-9.3-2-14.1
				c-0.8,0.1-1.6,0.2-2.5,0.3c1.9,5.1,3.6,10.2,5.1,15.4c0.8-0.3,1.5-0.6,2.3-1c-2.8-5.4-4.1-11-4-17c-0.8,0.1-1.6,0.2-2.5,0.3
				c1.7,4.7,3.3,9.5,5,14.2c0.4,1.2,2.7,1.2,2.5-0.3c-0.8-6.3-2.6-12.3-5.4-18c-0.7-1.3-2.5-0.3-2.3,1c1.6,8.2,4,16.1,7.4,23.8
				c0.6,1.3,2.6,0.4,2.3-1c-0.5-1.9-0.8-3.7-0.7-5.7c-0.8,0.2-1.6,0.4-2.3,0.6c1,2.3,1.5,4.3,1.8,6.8c0.4-0.4,0.8-0.8,1.2-1.2
				c-3.6-0.3-7.1-0.5-10.7-0.8c-1.3-0.1-3.1,0.2-3.8-0.8c-0.8-1.2,0.7-4.1,1-5.4c2-7.4,4-14.8,5.9-22.2c-0.8,0.1-1.5,0.2-2.3,0.3
				c2.4,5.2,4.4,10.5,5.9,16C774.5,52.8,777,52.2,776.5,50.6L776.5,50.6z"/>
		</g>
	</g>
	<g id="XMLID_35_">
		<g id="XMLID_424_">
			<path id="XMLID_428_" class="st1" d="M520,130.9c-3.1,6.9-5.6,13.9-7.4,21.3c-0.4,1.6,2,2.2,2.4,0.7c1.8-7.1,4.1-14,7.2-20.7
				C522.9,130.7,520.7,129.5,520,130.9L520,130.9z"/>
		</g>
	</g>
	<g id="XMLID_34_">
		<g id="XMLID_418_">
			<path id="XMLID_422_" class="st1" d="M519.5,131.6c1.5,7.2,3.5,14.2,5.9,21c0.4-0.5,0.8-1.1,1.2-1.6c-4.1,0.2-8,0-12.1-0.5
				c-1.6-0.2-2.3,2.2-0.7,2.4c4.2,0.6,8.4,0.8,12.7,0.6c0.8,0,1.5-0.8,1.2-1.6c-2.4-6.9-4.4-13.9-5.9-21
				C521.6,129.3,519.2,130,519.5,131.6L519.5,131.6z"/>
		</g>
	</g>
	<g id="XMLID_33_">
		<g id="XMLID_412_">
			<path id="XMLID_416_" class="st1" d="M519.1,138c-0.4,4.3-1.2,8.5-2.6,12.6c0.8,0.1,1.6,0.2,2.5,0.3c0.4-4,1.1-7.9,2-11.8
				c0.3-1.4-1.5-2.2-2.3-1c-2.2,3.7-3.8,7.7-4.7,11.9c-0.3,1.3,1.6,2.3,2.3,1c2.3-4.4,4.1-8.9,5.4-13.7c-0.8,0-1.6,0-2.4,0
				c1.2,4.2,1.1,8.4,0.9,12.8c-0.1,1.6,2.4,1.6,2.5,0c0.1-2.4,0.1-4.8-0.2-7.2c-0.2-1.4-2-1.7-2.5-0.3c-0.9,2.5-1.6,9.6,2.3,10.4
				c3.9,0.8,2.5-6,1.5-7.6c-0.6-1-2.5-0.6-2.3,0.6c0.1,1.4,0.4,2.7,0.8,4c0.7-0.4,1.4-0.8,2.1-1.2c-1.2-1.1-2-2.2-2.4-3.8
				c-0.3-1.2-2.2-1.2-2.4,0c-0.4,1.7-0.7,3.4-1.9,4.7c-1,1.2,0.5,2.8,1.8,1.8c0.3-0.2,0.7-0.4,1-0.7c1.2-0.7,0.4-2.8-1-2.3
				c-1.4,0.5-2.7,1-4.1,1.6c-1.5,0.6-0.8,3,0.7,2.4c1.4-0.5,2.7-1,4.1-1.6c-0.3-0.8-0.6-1.5-1-2.3c-0.6,0.4-1,0.6-1.5,1.1
				c0.6,0.6,1.2,1.2,1.8,1.8c1.5-1.7,2-3.7,2.5-5.8c-0.8,0-1.6,0-2.4,0c0.5,2,1.5,3.6,3,4.9c0.9,0.8,2.5,0.1,2.1-1.2
				c-0.3-1.1-0.6-2.2-0.7-3.3c-0.8,0.2-1.6,0.4-2.3,0.6c0.8,1.3,1.2,3,0.3,4.5c0.4-0.2,0.7-0.4,1.1-0.6c-2.1,0.2-0.8-6.5-0.6-7.2
				c-0.8-0.1-1.6-0.2-2.5-0.3c0.3,2.4,0.3,4.8,0.2,7.2c0.8,0,1.7,0,2.5,0c0.2-4.5,0.3-9-1-13.4c-0.3-1.2-2.1-1.2-2.4,0
				c-1.2,4.6-2.9,9-5.2,13.1c0.8,0.3,1.5,0.6,2.3,1c0.8-4,2.3-7.8,4.4-11.3c-0.8-0.3-1.5-0.6-2.3-1c-1,4.1-1.7,8.2-2.1,12.4
				c-0.1,1.5,2,1.6,2.5,0.3c1.4-4.3,2.3-8.7,2.7-13.2C521.7,136.4,519.2,136.4,519.1,138L519.1,138z"/>
		</g>
	</g>
	<g id="XMLID_31_">
		<g id="XMLID_406_">
			<path id="XMLID_410_" class="st1" d="M630,135.2c3.8,7.2,7.3,14.6,10.5,22.1c0.4-0.6,0.7-1.3,1.1-1.9c-7,0.3-14,0.3-21,0
				c-1.6-0.1-1.6,2.4,0,2.5c7,0.4,14,0.4,21,0c1,0,1.5-1,1.1-1.9c-3.2-7.5-6.7-14.9-10.5-22.1C631.4,132.5,629.2,133.8,630,135.2
				L630,135.2z"/>
		</g>
	</g>
	<g id="XMLID_8_">
		<g id="XMLID_400_">
			<path id="XMLID_404_" class="st1" d="M629.3,134.3c-4.4,6.9-8.2,14.1-11.4,21.6c-0.5,1.3,0.8,2.5,2,1.5c1.1-1,3.1-0.5,4.5-1.2
				c1.5-0.8,2.1-2.2,2.9-3.7c2.2-4.5,3.7-9.4,4.7-14.3c0.2-1.2-1.1-2-2.1-1.2c-4.5,3.9-6.6,11.8-9,17.2c-0.7,1.4,1.5,2.7,2.2,1.3
				c2.2-4.6,4.5-9,8.2-12.5c-0.7-0.3-1.4-0.6-2.1-0.9c0.2,4.7-1.1,8.8-4,12.5c0.7,0.4,1.4,0.8,2.1,1.2c1.2-5.2,3.1-10.1,5.6-14.7
				c-0.8-0.1-1.5-0.2-2.3-0.3c1.6,5.4,1,10.6-1.6,15.6c0.8,0.1,1.5,0.2,2.3,0.3c-0.9-2.5-1.7-9.2,1-11.2c-0.6-0.2-1.2-0.5-1.8-0.7
				c0.9,3.9-0.2,7.5-3.1,10.3c0.7,0.4,1.4,0.8,2.1,1.2c0.9-3.4,1.9-6.7,2.8-10.1c-0.8-0.1-1.6-0.2-2.5-0.3c0.3,2.9-0.3,8.1,2.4,10
				c0.3,0.2,0.9,0.2,1.3,0c3.1-2,2.1-8.1,2-11.2c-0.8,0-1.7,0-2.5,0c0.4,3.5,1,6.9,2.1,10.3c0.4,1.3,2.6,1.1,2.5-0.3
				c-0.3-3.4-0.9-6.7-1.8-10c-0.8,0.3-1.5,0.6-2.3,1c1.7,2.8,3.1,5.7,4.1,8.8c0.6-0.5,1.2-0.9,1.8-1.4c-2.1-0.9-3.7-2.1-5.2-3.8
				c-1.1-1.2-2.8,0.6-1.8,1.8c1.2,1.4,2.3,2.8,3.3,4.3c0.2-0.6,0.5-1.2,0.7-1.8c-1.3,0.2-2.6,0.3-4,0.2c0,0.8,0,1.7,0,2.5
				c1.3-0.1,2.6,0,3.8,0.4c0-0.8,0-1.6,0-2.4c-1.2,0.4-2.4,0.7-3.6,0.9c-1.4,0.2-1.1,2.6,0.3,2.5c1.9-0.1,3.7-0.4,5.5-0.7
				c1.6-0.3,0.9-2.7-0.7-2.4c-1.6,0.3-3.2,0.5-4.9,0.6c0.1,0.8,0.2,1.6,0.3,2.5c1.3-0.2,2.4-0.5,3.6-0.9c1.1-0.4,1.3-2.1,0-2.4
				c-1.6-0.4-2.9-0.5-4.5-0.5c-1.6,0.1-1.6,2.4,0,2.5c1.6,0.1,3.1,0,4.6-0.3c0.8-0.1,1.2-1.2,0.7-1.8c-1.2-1.7-2.4-3.2-3.7-4.8
				c-0.6,0.6-1.2,1.2-1.8,1.8c1.7,1.8,3.4,3.1,5.7,4.2c0.9,0.4,2.2-0.3,1.8-1.4c-1.2-3.3-2.6-6.4-4.4-9.4c-0.7-1.2-2.7-0.4-2.3,1
				c0.8,3.1,1.4,6.2,1.7,9.3c0.8-0.1,1.6-0.2,2.5-0.3c-0.9-3.2-1.6-6.3-2-9.6c-0.2-1.6-2.5-1.6-2.5,0c0,2.6-0.1,5.2,0,7.7
				c0.1,2-0.2-2.2-0.3-2.7c-0.1-1.3-0.3-2.5-0.4-3.8c-0.1-1.4-2.1-1.8-2.5-0.3c-0.9,3.4-1.9,6.7-2.8,10.1c-0.3,1.2,1.2,2.1,2.1,1.2
				c3.6-3.5,4.9-7.9,3.8-12.8c-0.2-0.7-1.2-1.2-1.8-0.7c-3.8,2.8-3.6,9.9-2.2,14c0.3,0.9,1.8,1.3,2.3,0.3c2.9-5.6,3.6-11.4,1.8-17.5
				c-0.3-1-1.8-1.3-2.3-0.3c-2.6,4.9-4.6,9.9-5.9,15.3c-0.3,1.1,1.3,2.3,2.1,1.2c3.3-4.2,5-8.9,4.8-14.3c0-1.1-1.3-1.6-2.1-0.9
				c-3.9,3.7-6.3,8.2-8.6,13c0.7,0.4,1.4,0.8,2.2,1.3c1.3-2.9,2.6-5.7,3.9-8.6c1.3-2.8,2.3-6,4.7-8.1c-0.7-0.4-1.4-0.8-2.1-1.2
				c-0.9,4.5-2.2,8.9-4.1,13c-1.6,3.5-4.8,2.8-7.3,5c0.7,0.5,1.3,1,2,1.5c3.3-7.5,7-14.7,11.4-21.6
				C632.4,134.2,630.2,132.9,629.3,134.3L629.3,134.3z"/>
		</g>
	</g>
	<g id="XMLID_7_">
		<g id="XMLID_394_">
			<path id="XMLID_398_" class="st1" d="M641.8,127.7c-1.4,5.7-5.7,10-6.9,15.8c-0.3,1.6,2.1,2.2,2.4,0.7c1.3-5.7,5.5-10.1,6.9-15.8
				C644.6,126.8,642.1,126.1,641.8,127.7L641.8,127.7z"/>
		</g>
	</g>
	<g id="XMLID_32_">
		<g id="XMLID_388_">
			<path id="XMLID_392_" class="st1" d="M642,127.4c1.3,5.9,4.6,11.4,7.1,16.8c0.4-0.6,0.7-1.3,1.1-1.9c-1.8,0-12.9-1-13.4,0.8
				c0.5-1.5-1.9-2.2-2.4-0.7c-0.6,1.9,1.2,2.3,2.7,2.4c4.4,0.2,8.8,0,13.2,0c1,0,1.5-1,1.1-1.9c-2.4-5.2-5.6-10.5-6.9-16.2
				C644.1,125.2,641.7,125.8,642,127.4L642,127.4z"/>
		</g>
	</g>
	<g id="XMLID_39_">
		<g id="XMLID_382_">
			<path id="XMLID_386_" class="st1" d="M644.1,133.4c0-0.1,0-0.1,0-0.2c-0.2,0.5-0.4,0.9-0.6,1.4c0.1,0,0.1-0.1,0.2-0.1
				c-0.5-0.1-1-0.1-1.5-0.2c-0.2-0.6-0.2-0.6-0.2-0.1c0,0.3,0,0.6-0.1,0.9c-0.1,0.6-0.2,1.3-0.4,1.9c-0.2,0.7-0.5,1.3-0.9,1.9
				c-0.1,0.2-1.3,1.8,0.2,1.5c0.3-0.1,1-2.8,1.1-3.2c0.5-1.3,1.1-2.5,1.8-3.7c-0.7-0.4-1.4-0.8-2.2-1.3c-1.6,3.4-3.3,6.7-4.9,10.1
				c-0.5,1,0.3,2.1,1.4,1.8c1.9-0.5,2.9-2.4,3.8-4.1c1.1-2.1,1.8-4.3,2.2-6.6c-0.8,0.1-1.5,0.2-2.3,0.3c0.9,2.2,1.5,4.5,1.8,6.9
				c0.8-0.2,1.6-0.4,2.3-0.6c-0.9-1.2-1.4-2.5-1.5-4c-0.7,0.3-1.4,0.6-2.1,0.9c0.7,0.7,1.3,1.5,1.9,2.3c0.2,0.3,0.4,0.6,0.6,0.9
				c0.4,0.7,0.5,0.9,0.3,0.5c0.2-0.4,0.4-0.7,0.6-1.1c-0.8,0.5-2.3,0.2-3.1,0c-0.2,0.8-0.4,1.6-0.7,2.4c1.2,0.3,2.3,0.6,3.4,1.2
				c-0.1-0.6-0.3-1.1-0.4-1.7c-0.4-0.1-0.8-0.2-1.2-0.3c-0.3-0.5-0.4-1.1-0.2-1.6c0-0.4,0.1-1.3,0.4-1.6c0.4-0.4-0.1-0.4,0.5,0.1
				c0.4,0.4,0.8,1.1,1,1.6c0.2,0.5,0.5,1,0.6,1.5c0.1,0.3,0.2,0.6,0.3,0.9c0-0.1,0.1-0.2,0.1-0.3c-0.8,0.3-2.9-0.7-3.6-1
				c-1.5-0.5-2.2,1.9-0.7,2.4c1.8,0.6,7,2.7,6.7-1c-0.2-2.3-2.1-7-4.8-7.3c-2.9-0.4-3.5,4.8-2.9,6.7c0.9,2.7,4.2,3.4,5.9,1.1
				c0.4-0.5,0.1-1.4-0.4-1.7c-1.3-0.7-2.6-1.2-4-1.5c-1.6-0.3-2.2,2-0.7,2.4c1.5,0.4,5.2,1,5.6-1.2c0.4-1.8-2.4-4.4-3.5-5.7
				c-0.7-0.8-2.2-0.2-2.1,0.9c0.1,1.9,0.7,3.7,1.8,5.3c0.6,0.9,2.5,0.7,2.3-0.6c-0.3-2.9-1-5.5-2.2-8.2c-0.4-1-2.1-0.7-2.3,0.3
				c-0.3,1.6-0.7,3.1-1.3,4.6c-0.5,1.2-1.5,4-2.9,4.4c0.5,0.6,0.9,1.2,1.4,1.8c1.6-3.4,3.3-6.7,4.9-10.1c0.7-1.4-1.4-2.7-2.2-1.3
				c-0.8,1.5-6,10.7-1.4,10.4c1.8-0.1,2.9-3,3.5-4.4c0.6-1.6,1.5-4.2,0.3-5.7c-0.4-0.5-1.1-0.4-1.5-0.2c-0.1,0-0.1,0.1-0.2,0.1
				c-0.5,0.2-0.7,0.9-0.6,1.4c0,0.1,0,0.1,0,0.2C642.1,135.6,644.5,135,644.1,133.4L644.1,133.4z"/>
		</g>
	</g>
	<g id="XMLID_46_">
		<g id="XMLID_376_">
			<path id="XMLID_380_" class="st1" d="M631.5,142.4c1,1.2,1.9,2.5,2.7,3.9c0.6,1,2.4,0.6,2.3-0.6c0-0.9-0.3-1.8-0.8-2.5
				c-0.9-1.3-3.1-0.1-2.2,1.3c0.3,0.4,0.4,0.8,0.4,1.2c0.8-0.2,1.6-0.4,2.3-0.6c-0.9-1.5-1.9-3-3-4.4c-0.4-0.5-1.3-0.4-1.8,0
				C631,141.2,631.1,141.9,631.5,142.4L631.5,142.4z"/>
		</g>
	</g>
	<g id="XMLID_53_">
		<g id="XMLID_370_">
			<path id="XMLID_374_" class="st1" d="M534,115.6c1.5,6.5,3,13.1,4.7,19.6c0.3-0.5,0.6-1,0.9-1.5c-3.1,0.5-6,0.5-9.1,0
				c-1.6-0.2-2.3,2.2-0.7,2.4c3.5,0.5,6.9,0.5,10.4,0c0.7-0.1,1-0.9,0.9-1.5c-1.7-6.5-3.3-13-4.7-19.6
				C536,113.4,533.6,114.1,534,115.6L534,115.6z"/>
		</g>
	</g>
	<g id="XMLID_60_">
		<g id="XMLID_364_">
			<path id="XMLID_368_" class="st1" d="M533.9,114.9c-1.1,6.7-2.7,13.2-4.7,19.7c-0.4,1.3,1.7,2.3,2.3,1c1.8-4.2,3.7-8.3,5.5-12.5
				c-0.8-0.2-1.6-0.4-2.3-0.6c-0.4,4.1-0.6,8.1-0.5,12.2c0,1.6,2.5,1.6,2.5,0c0-1.9,0-3.8,0-5.6c0-1.5-2-1.6-2.5-0.3
				c-0.4,1-0.5,3.7-1.6,4c0.5,0.4,1.1,0.8,1.6,1.2c0.2-1.5,0.5-2.8,1.1-4.2c-0.8-0.1-1.6-0.2-2.5-0.3c-0.1,2.1,0.2,5.7,2.9,6.1
				c3.1,0.4,2.8-4.2,2.5-6.1c-0.2-1.4-2.5-1.1-2.5,0.3c0,1.1,0.1,1.3,0.3,2.3c0.8-0.2,1.6-0.4,2.4-0.7c-0.1-0.3-0.2-0.7-0.3-1
				c-0.8,0.2-1.6,0.4-2.4,0.7c0.1,0.3,0.3,0.7,0.4,1c0.6,1.5,3,0.8,2.4-0.7c-0.1-0.3-0.3-0.7-0.4-1c-0.6-1.4-2.9-0.9-2.4,0.7
				c0.1,0.3,0.2,0.7,0.3,1c0.5,1.5,2.8,0.9,2.4-0.7c-0.1-0.6-0.2-1.1-0.3-1.7c-0.8,0.1-1.6,0.2-2.5,0.3c-0.3,2.1-0.5,2.4-0.5,1
				c-0.1-0.6-0.1-1.1,0-1.7c0.1-1.5-2-1.6-2.5-0.3c-0.6,1.6-0.9,3.2-1.1,4.9c-0.1,0.8,0.9,1.4,1.6,1.2c3-0.8,2.5-3.3,3.4-5.8
				c-0.8-0.1-1.6-0.2-2.5-0.3c0.1,1.9,0.1,3.7,0,5.6c0.8,0,1.7,0,2.5,0c0-4.1,0.2-8.2,0.5-12.2c0.1-1.2-1.8-1.8-2.3-0.6
				c-1.8,4.2-3.7,8.3-5.5,12.5c0.8,0.3,1.5,0.6,2.3,1c2-6.5,3.6-13,4.7-19.7C536.5,114,534.1,113.3,533.9,114.9L533.9,114.9z"/>
		</g>
	</g>
	<g id="XMLID_67_">
		<g id="XMLID_358_">
			<path id="XMLID_362_" class="st1" d="M465.2,140.9c-3,10.2-7,20.6-7.9,31.2c-0.1,1.6,2.4,1.6,2.5,0c0.9-10.4,4.9-20.6,7.8-30.6
				C468,140,465.6,139.3,465.2,140.9L465.2,140.9z"/>
		</g>
	</g>
	<g id="XMLID_74_">
		<g id="XMLID_352_">
			<path id="XMLID_356_" class="st1" d="M465.6,141.8c3.4,10.2,7.1,20.3,11,30.3c0.4-0.5,0.8-1.1,1.2-1.6
				c-6.2-0.6-12.4-0.7-18.7-0.4c0.4,0.5,0.8,1.1,1.2,1.6c3.3-8,6.4-15.9,6.5-24.6c0-1.5-2-1.6-2.5-0.3c-2.5,7.4-4.4,14.9-5.6,22.6
				c-0.2,1.1,1.2,2.3,2.1,1.2c5.2-6.1,6.1-16.4,7.3-24.1c-0.8-0.1-1.6-0.2-2.5-0.3c-0.1,7.4-0.3,14.7-0.4,22.1c0,1.6,2.4,1.6,2.5,0
				c0.4-5.4,0.8-10.9,1.2-16.3c-0.8,0-1.7,0-2.5,0c0.6,5.9,1.3,11.8,1.9,17.7c0.2,1.6,2.6,1.6,2.5,0c-0.3-5.8-0.8-11.6-1.6-17.4
				c-0.8,0.2-1.6,0.4-2.4,0.7c1.2,6.1,2.5,12.1,3.9,18.2c0.8-0.2,1.6-0.4,2.4-0.7c-1.2-4.8-2.4-9.6-3.5-14.5c-0.8,0.3-1.5,0.6-2.3,1
				c2.1,4.3,4,8.6,5.7,13.1c0.8-0.3,1.5-0.6,2.3-1c-3.1-5.1-5.3-10.5-6.4-16.4c-0.8,0.2-1.6,0.4-2.4,0.7c2,5.4,4.1,10.6,6.5,15.9
				c0.5,1.1,2.5,0.6,2.3-0.6c-0.9-7.6-3.4-14.4-7.6-20.7c-0.8-1.2-2.6-0.4-2.3,1c1.6,7.2,3.2,14.4,4.8,21.7c0.8-0.3,1.5-0.6,2.3-1
				c-1.9-3.6-3.8-7.2-5.7-10.7c-0.5-0.9-2.1-0.8-2.3,0.3c-0.6,3.8-0.7,7.3-0.2,11.1c0.2,1.6,2.3,1.6,2.5,0c0.5-3.5,0.6-6.9,0.3-10.4
				c-0.1-1.5-1.9-1.6-2.5-0.3c-1.6,3.8-2.7,7.6-3.4,11.7c-0.3,1.6,2,2.2,2.4,0.7c1-3.8,1.7-7.6,2-11.5c0.1-1.5-2-1.5-2.5-0.3
				c-1.4,3.7-2.6,7.4-3.6,11.3c-0.3,1.1,1.3,2.2,2.1,1.2c0.6-0.7,1.1-1.4,1.8-2c1-1.4,2.2-1.8,3.8-1.5c0.5,0.7,1,1.3,1.5,2
				c0.7-0.6,0.7-0.7,1.2-1.5c0.3-0.6,0.1-1.3-0.4-1.7c-2.1-1.5-3.5-3.1-4.7-5.3c-0.5-1-2-0.7-2.3,0.3c-1,3.4-2,6.7-3,10.1
				c0.8,0.2,1.6,0.4,2.4,0.7c0.7-4.1,1.3-8.3,2-12.4c0.2-1.3-1.6-2.4-2.3-1c-1.8,4-3.4,8-4.7,12.2c0.8,0.2,1.6,0.4,2.4,0.7
				c0.7-2.8,1.4-5.7,2.1-8.5c0.3-1.3-1.6-2.3-2.3-1c-1.5,3.2-2.9,6.4-4,9.7c-0.5,1.5,1.9,2.2,2.4,0.7c1.1-3.1,2.3-6.1,3.8-9.1
				c-0.8-0.3-1.5-0.6-2.3-1c-0.7,2.8-1.4,5.7-2.1,8.5c-0.4,1.6,1.9,2.2,2.4,0.7c1.2-4,2.7-7.8,4.4-11.6c-0.8-0.3-1.5-0.6-2.3-1
				c-0.7,4.1-1.3,8.3-2,12.4c-0.3,1.6,1.9,2.2,2.4,0.7c1-3.4,2-6.7,3-10.1c-0.8,0.1-1.5,0.2-2.3,0.3c1.5,2.6,3.2,4.5,5.6,6.2
				c-0.1-0.6-0.3-1.1-0.4-1.7c-0.3,0.3-0.5,0.7-0.8,1c-1.1,0.9,0.3,2.7,1.5,2c1.3-0.8,1.9-1.6,2.4-3c0.2-0.5-0.1-1.2-0.6-1.4
				c-4.4-1.9-7.6,0.6-10.4,4c0.7,0.4,1.4,0.8,2.1,1.2c1-3.8,2.2-7.6,3.6-11.3c-0.8-0.1-1.6-0.2-2.5-0.3c-0.3,3.7-1,7.3-2,10.8
				c0.8,0.2,1.6,0.4,2.4,0.7c0.7-4.1,1.8-7.9,3.4-11.7c-0.8-0.1-1.6-0.2-2.5-0.3c0.3,3.5,0.1,6.9-0.3,10.4c0.8,0,1.7,0,2.5,0
				c-0.5-3.6-0.5-6.9,0.1-10.4c-0.8,0.1-1.5,0.2-2.3,0.3c1.9,3.6,3.8,7.2,5.7,10.7c0.7,1.3,2.6,0.4,2.3-1
				c-1.6-7.2-3.2-14.4-4.8-21.7c-0.8,0.3-1.5,0.6-2.3,1c4,5.9,6.4,12.4,7.3,19.5c0.8-0.2,1.6-0.4,2.3-0.6c-2.3-5-4.3-10.1-6.2-15.3
				c-0.6-1.5-2.7-0.9-2.4,0.7c1.2,6.1,3.4,11.7,6.7,17c0.7,1.2,2.8,0.4,2.3-1c-1.7-4.7-3.7-9.2-5.9-13.7c-0.6-1.3-2.6-0.4-2.3,1
				c1.2,4.8,2.4,9.6,3.5,14.5c0.4,1.6,2.8,0.9,2.4-0.7c-1.4-6-2.7-12.1-3.9-18.2c-0.3-1.6-2.6-0.9-2.4,0.7
				c0.8,5.6,1.3,11.1,1.5,16.7c0.8,0,1.7,0,2.5,0c-0.6-5.9-1.3-11.8-1.9-17.7c-0.2-1.6-2.4-1.6-2.5,0c-0.4,5.4-0.8,10.9-1.2,16.3
				c0.8,0,1.7,0,2.5,0c0.1-7.4,0.3-14.7,0.4-22.1c0-1.4-2.2-1.8-2.5-0.3c-1.1,6.9-1.9,17.4-6.6,23c0.7,0.4,1.4,0.8,2.1,1.2
				c1.2-7.7,3-15.2,5.6-22.6c-0.8-0.1-1.6-0.2-2.5-0.3c-0.1,8.5-3.2,16.2-6.4,24c-0.3,0.7,0.5,1.6,1.2,1.6
				c6.3-0.4,12.5-0.3,18.7,0.4c0.8,0.1,1.5-0.9,1.2-1.6c-3.9-10-7.6-20.1-11-30.3C467.5,139.6,465.1,140.3,465.6,141.8L465.6,141.8z
				"/>
		</g>
	</g>
	<g id="XMLID_81_">
		<g id="XMLID_346_">
			<path id="XMLID_350_" class="st1" d="M75.5,141.9c2.2,9.1,5.3,17.8,9.4,26.2c0.4-0.6,0.7-1.3,1.1-1.9c-5.7,0.3-11.4,0.7-17.1,1
				c-1.6,0.1-1.6,2.6,0,2.5c5.7-0.3,11.4-0.7,17.1-1c1-0.1,1.5-1,1.1-1.9c-4-8.2-7-16.7-9.1-25.6C77.6,139.7,75.2,140.3,75.5,141.9
				L75.5,141.9z"/>
		</g>
	</g>
	<g id="XMLID_88_">
		<g id="XMLID_340_">
			<path id="XMLID_344_" class="st1" d="M73.7,141.2c-1.3,9.2-3.2,18.4-5.7,27.3c0.8,0.2,1.6,0.4,2.4,0.7c1.7-7.7,5.5-14.7,6.8-22.5
				c-0.8-0.1-1.6-0.2-2.5-0.3c-0.9,7.6-2.3,15.2-4.2,22.6c0.8,0.2,1.6,0.4,2.4,0.7c1.3-5.5,3-10.8,5.2-16c-0.8-0.1-1.6-0.2-2.5-0.3
				c-0.1,4.3-0.7,8.4-2.1,12.5c0.8,0.1,1.6,0.2,2.5,0.3c0.2-3.9,0.6-7.7,1.5-11.6c-0.8,0-1.6,0-2.4,0c0.8,4.2,0.4,8.1-1.3,12
				c0.8,0.2,1.6,0.4,2.3,0.6c-0.4-5.4,0.1-10.5,1.6-15.7c-0.8,0-1.6,0-2.4,0c0.9,4.9,1.3,9.7,1.1,14.7c0.8-0.1,1.6-0.2,2.5-0.3
				c-1.3-4.1-1.8-8.1-1.2-12.5c-0.8,0-1.6,0-2.4,0c1.5,4.5,2.4,9,2.7,13.7c0.8-0.1,1.6-0.2,2.5-0.3c-0.8-4.5-1.2-8.9-1.3-13.4
				c-0.8,0.1-1.6,0.2-2.5,0.3c1.2,4.4,2.2,8.7,3.1,13.2c0.8-0.2,1.6-0.4,2.4-0.7c-1.2-3.6-2-7.2-2.4-10.9c-0.8,0.2-1.6,0.4-2.3,0.6
				c1.4,3.3,2.4,6.5,3,10c0.8-0.2,1.6-0.4,2.4-0.7c-1-2.5-1.7-5-2.1-7.7c-0.8,0.3-1.5,0.6-2.3,1c1.4,2.6,2.9,5.2,4.3,7.8
				c0.6-0.6,1.1-1.1,1.7-1.7c-5.1-2.6-5.4-10.8-6.2-15.8c-0.2-1.4-2.6-1.1-2.5,0.3c0.3,3.1,0.8,6.2,1.5,9.3c0.4,1.6,2.8,0.9,2.4-0.7
				c-1.5-7.1-2.7-14.2-3.3-21.4c-0.2-1.6-2.3-1.6-2.5,0c-0.5,4.1-0.9,8.1-1.1,12.2c-0.1,1.6,2.4,1.6,2.5,0c0.2-4.1,0.6-8.2,1.1-12.2
				c-0.8,0-1.7,0-2.5,0c0.7,7.4,1.8,14.7,3.4,22c0.8-0.2,1.6-0.4,2.4-0.7c-0.7-2.9-1.1-5.7-1.4-8.6c-0.8,0.1-1.6,0.2-2.5,0.3
				c0.9,5.7,1.5,14.3,7.4,17.3c1.1,0.6,2.3-0.6,1.7-1.7c-1.4-2.6-2.9-5.2-4.3-7.8c-0.7-1.3-2.5-0.4-2.3,1c0.4,2.7,1.1,5.2,2.1,7.7
				c0.6,1.5,2.7,0.9,2.4-0.7c-0.7-3.7-1.8-7.2-3.3-10.6c-0.5-1.1-2.5-0.6-2.3,0.6c0.5,4,1.3,7.8,2.5,11.6c0.5,1.5,2.7,0.9,2.4-0.7
				c-0.9-4.4-1.9-8.8-3.1-13.2c-0.4-1.3-2.5-1.1-2.5,0.3c0.1,4.7,0.5,9.4,1.4,14.1c0.2,1.4,2.6,1.1,2.5-0.3
				c-0.3-4.9-1.3-9.7-2.8-14.4c-0.3-1-2.2-1.3-2.4,0c-0.6,4.8-0.3,9.2,1.2,13.8c0.4,1.3,2.4,1.1,2.5-0.3c0.2-5.2-0.2-10.3-1.2-15.4
				c-0.2-1.3-2.1-1.1-2.4,0c-1.6,5.4-2.2,10.7-1.7,16.3c0.1,1.1,1.8,1.9,2.3,0.6c2-4.6,2.5-9,1.6-13.9c-0.2-1.2-2.2-1.2-2.4,0
				c-0.9,4.1-1.4,8.1-1.6,12.2c-0.1,1.5,2,1.6,2.5,0.3c1.4-4.3,2.1-8.6,2.2-13.1c0-1.5-1.9-1.6-2.5-0.3c-2.2,5.2-3.9,10.5-5.2,16
				c-0.4,1.6,2,2.2,2.4,0.7c2-7.7,3.4-15.4,4.3-23.3c0.2-1.4-2.2-1.7-2.5-0.3c-1.3,7.8-5.1,14.8-6.8,22.5c-0.3,1.6,2,2.2,2.4,0.7
				c2.5-9,4.4-18.1,5.7-27.3C76.3,140.3,73.9,139.6,73.7,141.2L73.7,141.2z"/>
		</g>
	</g>
	<g id="XMLID_95_">
		<g id="XMLID_334_">
			<path id="XMLID_338_" class="st1" d="M86.5,158.5c-1.8,6.1-3.7,12.1-5.8,18.1c-0.5,1.5,1.9,2.2,2.4,0.7c2.1-6,4-12,5.8-18.1
				C89.4,157.6,87,156.9,86.5,158.5L86.5,158.5z"/>
		</g>
	</g>
	<g id="XMLID_102_">
		<g id="XMLID_328_">
			<path id="XMLID_332_" class="st1" d="M86.8,159.4c3.2,6.1,6.8,11.9,10.9,17.5c0.4-0.6,0.7-1.3,1.1-1.9c-6,0.6-11.9,1.2-17.9,1.9
				c0.4,0.5,0.8,1.1,1.2,1.6c1.8-5.2,3.7-10.3,6.5-15c-0.8-0.3-1.5-0.6-2.3-1c-1.4,4.6-2.7,9.3-3.9,13.9c-0.4,1.6,1.9,2.2,2.4,0.7
				c1.3-4.2,2.4-8.4,3.4-12.6c-0.8-0.1-1.6-0.2-2.5-0.3c-0.1,3.4-0.4,6.7-1.2,10.1c-0.4,1.6,1.9,2.2,2.4,0.7
				c0.9-2.7,1.9-5.4,2.8-8.1c-0.8,0-1.6,0-2.4,0c0.5,2.7,0.1,4.9-1.1,7.3c0.8,0.1,1.5,0.2,2.3,0.3c-0.2-1.1-0.3-2.3-0.3-3.4
				c0-0.7,0-5,0.3-2.6c0.3,2.3,0.2,6.1-2.1,7.5c0.6,0.2,1.2,0.5,1.8,0.7c-0.4-1.1-1.7-9.5,0.4-9.5c1.4,0.1,0.6,8.2,0.5,9.1
				c0.6-0.2,1.2-0.5,1.8-0.7c-2.6-1.2-1.5-7.5-1-9.5c-0.7,0.2-1.4,0.4-2.1,0.6c2.2,2.6,2.9,5.8,3.5,9c0.8-0.3,1.5-0.6,2.3-1
				c-0.9-1.7-1.6-3.5-2.2-5.4c-0.7,0.4-1.4,0.8-2.1,1.2c1.5,1.6,2.8,3.2,4.1,4.9c0.5-0.6,0.9-1.2,1.4-1.8c-0.3-0.1-0.5-0.1-0.8-0.2
				c-0.2,0.8-0.4,1.6-0.7,2.4c0.4,0.1,0.9,0.3,1.3,0.4c0.3-0.8,0.6-1.5,1-2.3c-3.9-1.4-7.7-1.3-11.6,0.1c0.4,0.7,0.8,1.4,1.2,2.1
				c4.4-3.4,5.9-8.8,3.3-13.8c-0.7,0.4-1.4,0.8-2.2,1.3c1.9,3.7,4.1,7.3,6.4,10.9c0.9,1.3,3.1,0.1,2.2-1.3
				c-2.3-3.5-4.5-7.1-6.4-10.9c-0.7-1.4-2.9-0.2-2.2,1.3c2.1,4.1,0.5,8.1-2.9,10.8c-1,0.8,0.1,2.5,1.2,2.1c3.5-1.3,6.7-1.4,10.2-0.1
				c1.3,0.5,2.2-1.6,1-2.3c-0.9-0.4-0.9-0.5-1.9-0.6c-1.5-0.2-2.3,2-0.7,2.4c0.3,0.1,0.5,0.1,0.8,0.2c1,0.2,2.1-0.9,1.4-1.8
				c-1.4-1.9-2.8-3.7-4.4-5.4c-0.9-0.9-2.4,0-2.1,1.2c0.6,2.1,1.4,4,2.4,6c0.7,1.3,2.6,0.4,2.3-1c-0.8-3.7-1.7-7.1-4.2-10.1
				c-0.6-0.7-1.9-0.3-2.1,0.6c-0.8,3.3-1.7,10.5,2.2,12.3c0.7,0.3,1.7,0.1,1.8-0.7c0.4-2.3,1.5-13.4-3.1-12.6
				c-4.7,0.8-3.7,10.1-2.6,13c0.3,0.7,1.1,1.2,1.8,0.7c2.2-1.3,3-3.4,3.3-5.9c0.2-2.3,0.4-6.7-2-8c-0.4-0.2-0.9-0.3-1.3,0
				c-2.9,2-2.1,8-1.7,11c0.2,1.1,1.8,1.2,2.3,0.3c1.5-3,2-5.9,1.4-9.2c-0.2-1.3-2-1.1-2.4,0c-0.9,2.7-1.9,5.4-2.8,8.1
				c0.8,0.2,1.6,0.4,2.4,0.7c0.8-3.6,1.2-7.1,1.3-10.8c0-1.4-2.1-1.7-2.5-0.3c-1,4.3-2.1,8.5-3.4,12.6c0.8,0.2,1.6,0.4,2.4,0.7
				c1.2-4.7,2.5-9.3,3.9-13.9c0.4-1.4-1.6-2.2-2.3-1c-2.9,4.9-4.9,10.3-6.8,15.6c-0.2,0.7,0.4,1.7,1.2,1.6
				c5.9-0.7,11.9-1.4,17.9-1.9c0.8-0.1,1.7-1,1.1-1.9c-4.1-5.5-7.7-11.3-10.9-17.5C88.2,156.7,86,158,86.8,159.4L86.8,159.4z"/>
		</g>
	</g>
	<g id="XMLID_109_">
		<g id="XMLID_321_">
			<path id="XMLID_326_" class="st1" d="M169.9,97.4c2.8,4.7,5.7,9.5,8.5,14.2c0.4-0.6,0.7-1.3,1.1-1.9c-5.1,0-10.2,0-15.3,0
				c-1.6,0-1.6,2.5,0,2.5c5.1,0,10.2,0,15.3,0c0.9,0,1.6-1.1,1.1-1.9c-2.8-4.7-5.7-9.5-8.5-14.2C171.2,94.7,169.1,96,169.9,97.4
				L169.9,97.4z"/>
		</g>
	</g>
	<g id="XMLID_123_">
		<g id="XMLID_314_">
			<path id="XMLID_318_" class="st1" d="M265.4,58.9c-0.2,0.8-0.5,1.4-1.2,2c-0.5,0.4-0.4,1.3,0,1.8c0.5,0.5,1.2,0.4,1.8,0
				c0.9-0.8,1.6-1.9,1.8-3.1c0.1-0.7-0.2-1.3-0.9-1.5C266.3,57.9,265.5,58.3,265.4,58.9L265.4,58.9z"/>
		</g>
	</g>
	<g id="XMLID_130_">
		<g id="XMLID_307_">
			<path id="XMLID_311_" class="st1" d="M264.6,58.4c-2.6,11.9-4.6,24-5.9,36.1c-0.2,1.6,2.3,1.6,2.5,0c1.3-11.9,3.2-23.7,5.8-35.4
				C267.4,57.5,265,56.9,264.6,58.4L264.6,58.4z"/>
		</g>
	</g>
	<g id="XMLID_137_">
		<g id="XMLID_300_">
			<path id="XMLID_304_" class="st1" d="M265,58.8c4.9,11.8,9.5,23.6,13.8,35.6c0.4-0.5,0.8-1.1,1.2-1.6c-6.9-0.2-13.7,0.1-20.6,0.9
				c-1.6,0.2-1.6,2.7,0,2.5c6.9-0.8,13.7-1.1,20.6-0.9c0.8,0,1.5-0.8,1.2-1.6c-4.3-12-8.9-23.8-13.8-35.6
				C266.8,56.7,264.4,57.3,265,58.8L265,58.8z"/>
		</g>
	</g>
	<g id="XMLID_144_">
		<g id="XMLID_293_">
			<path id="XMLID_297_" class="st1" d="M265.1,67.5c0.4,7.9,0.4,15.7-0.2,23.5c0.8,0,1.7,0,2.5,0c-0.6-6.3-0.7-12.6-0.7-18.9
				c0-1.6-2.4-1.6-2.5,0c-0.3,6.8-0.6,13.6-1,20.3c0.8,0,1.7,0,2.5,0c-0.2-5.6-0.2-11.2-0.2-16.8c0-1.4-2.1-1.7-2.5-0.3
				c-1.4,5.4-2,10.7-2,16.3c0,1.7,2.3,1.5,2.5,0c0.2-1.7,0.5-3.5,0.7-5.2c-0.8,0-1.7,0-2.5,0c0.1,2.6-0.1,5-0.4,7.6
				c-0.2,1.5,2,1.5,2.5,0.3c1.4-3.5,5.2-3,8-2.6c0.8,0.1,1.5-0.9,1.2-1.6c-1.2-3.1-2.2-6.2-2.9-9.5c-0.8,0.2-1.6,0.4-2.4,0.7
				c1.2,3.6,2,7.3,2.6,11.1c0.8-0.2,1.6-0.4,2.4-0.7c-0.6-3.8-0.9-7.6-0.7-11.5c-0.8,0.2-1.6,0.4-2.3,0.6c2,3.4,2.4,7,2.8,10.9
				c0.8-0.1,1.6-0.2,2.5-0.3c-1.3-3.8-1.8-7.6-1.6-11.6c-0.8,0.2-1.6,0.4-2.3,0.6c2.3,3.7,3.6,7.4,3.9,11.8c0.8-0.2,1.6-0.4,2.3-0.6
				c-1-1.5-1.6-3.2-1.6-5c-0.8,0.2-1.6,0.4-2.3,0.6c2.2,3.5-3.8,6.6-5.4,0.7c-0.6-2.1-0.1-5,0.1-7.2c-0.8,0.1-1.6,0.2-2.5,0.3
				c0.8,3.7,1.2,7.3,1.3,11.1c0.8-0.1,1.6-0.2,2.5-0.3c-0.7-2.7-0.6-4.4,0.1-7.1c-0.8,0-1.6,0-2.4,0c-0.1-0.3,1.3,8.8-1.8,6.5
				c-0.3,0.8-0.6,1.5-1,2.3c4.1,1.1,7.1-1.2,7.2-5.5c-0.6,0.4-1.3,0.7-1.9,1.1c3.4,1.6,5.4,5.4,9.2,5.8c1,0.1,1.5-1.1,1.1-1.9
				c-2.9-5.3-7.5-8.5-9-14.7c-1.3-5.5-2.6-10.5-5.3-15.5c-0.5-0.9-2.1-0.8-2.3,0.3c-0.9,4.1-1,8.1-0.4,12.2c0.2,1.3,2.1,1.1,2.4,0
				c1.3-4.3,1.5-8.6,1.5-13.1c-0.8,0.1-1.6,0.2-2.5,0.3c1.9,6.4,3.8,12.8,5.8,19.2c0.4,1.3,2.6,1.1,2.5-0.3
				c-0.5-5.2-1.5-10.3-3.1-15.3c-0.4-1.2-2.1-1.2-2.4,0c-1.5,5,1.3,11.6,2.4,16.6c0.8-0.3,1.5-0.6,2.3-1c-1.2-2.2-2-4.4-2.5-6.8
				c-0.3-1.4-2.5-1.1-2.5,0.3c0,2.6,0.3,5.2,0.7,7.7c0.2,1.4,2.5,1,2.5-0.3c0-2.4-0.2-4.6-0.7-6.9c-0.3-1.4-2.6-1.1-2.5,0.3
				c0.1,1.2,0.2,2.5,0.4,3.7c0.2,1.6,2.7,1.6,2.5,0c-0.1-1.2-0.2-2.5-0.4-3.7c-0.8,0.1-1.6,0.2-2.5,0.3c0.4,2.2,0.6,4.1,0.6,6.3
				c0.8-0.1,1.6-0.2,2.5-0.3c-0.4-2.4-0.6-4.6-0.6-7.1c-0.8,0.1-1.6,0.2-2.5,0.3c0.6,2.7,1.5,5,2.8,7.4c0.7,1.3,2.6,0.4,2.3-1
				c-1-4.3-3.7-10.9-2.4-15.2c-0.8,0-1.6,0-2.4,0c1.5,4.8,2.5,9.6,3,14.6c0.8-0.1,1.6-0.2,2.5-0.3c-1.9-6.4-3.8-12.8-5.8-19.2
				c-0.4-1.3-2.5-1.1-2.5,0.3c0,4.2-0.1,8.3-1.4,12.4c0.8,0,1.6,0,2.4,0c-0.5-3.7-0.4-7.2,0.4-10.9c-0.8,0.1-1.5,0.2-2.3,0.3
				c3.2,5.9,3.7,11.9,5.9,18.1c1.7,4.8,5.9,7.7,8.3,12.1c0.4-0.6,0.7-1.3,1.1-1.9c-2.1-0.2-5.8-4.4-8-5.4c-0.8-0.4-1.9,0.1-1.9,1.1
				c-1.3,1-2.7,2.1-4,3.1c-1.5-0.4-2,1.5-1,2.3c5.5,4.2,6.2-6.4,5.4-9.3c-0.3-1.2-2.1-1.2-2.4,0c-0.8,2.9-0.8,5.5-0.1,8.5
				c0.3,1.4,2.5,1.1,2.5-0.3c-0.1-4-0.5-7.8-1.4-11.7c-0.3-1.5-2.3-1-2.5,0.3c-0.6,5.8-1.6,13.1,5.9,12.9c5.2-0.1,7-3.2,4.1-7.7
				c-0.6-1-2.4-0.7-2.3,0.6c0.2,2.3,0.8,4.3,1.9,6.3c0.6,1,2.4,0.6,2.3-0.6c-0.4-4.7-1.7-9-4.3-13c-0.7-1.1-2.3-0.6-2.3,0.6
				c-0.2,4.3,0.3,8.2,1.6,12.3c0.4,1.3,2.6,1.1,2.5-0.3c-0.4-4.3-1-8.4-3.1-12.2c-0.6-1.1-2.3-0.6-2.3,0.6
				c-0.1,4.1,0.2,8.1,0.8,12.2c0.3,1.6,2.6,0.9,2.4-0.7c-0.5-3.8-1.4-7.4-2.6-11.1c-0.5-1.5-2.8-0.9-2.4,0.7
				c0.7,3.3,1.6,6.4,2.9,9.5c0.4-0.5,0.8-1.1,1.2-1.6c-4.5-0.5-8.7-0.1-10.5,4.5c0.8,0.1,1.6,0.2,2.5,0.3c0.3-2.5,0.4-5,0.4-7.6
				c0-1.7-2.3-1.5-2.5,0c-0.2,1.7-0.5,3.5-0.7,5.2c0.8,0,1.7,0,2.5,0c-0.1-5.3,0.6-10.5,1.9-15.6c-0.8-0.1-1.6-0.2-2.5-0.3
				c0,5.6,0,11.2,0.2,16.8c0.1,1.6,2.4,1.6,2.5,0c0.3-6.8,0.6-13.6,1-20.3c-0.8,0-1.7,0-2.5,0c0,6.3,0,12.6,0.7,18.9
				c0.2,1.6,2.4,1.6,2.5,0c0.6-7.8,0.7-15.7,0.2-23.5C267.6,65.9,265.1,65.9,265.1,67.5L265.1,67.5z"/>
		</g>
	</g>
	<g id="XMLID_151_">
		<g id="XMLID_285_">
			<path id="XMLID_289_" class="st1" d="M279.9,69.9c-1.7,3.4-3.1,6.9-4.2,10.5c-0.5,1.5,1.9,2.2,2.4,0.7c1.1-3.4,2.4-6.7,4-9.9
				C282.7,69.7,280.6,68.5,279.9,69.9L279.9,69.9z"/>
		</g>
	</g>
	<g id="XMLID_158_">
		<g id="XMLID_278_">
			<path id="XMLID_282_" class="st1" d="M280.1,70.9c1.8,4.2,3.8,8.3,6.1,12.2c0.4-0.6,0.7-1.3,1.1-1.9c-3.5,0.1-7,0.3-10.4,0.7
				c-1.6,0.2-1.6,2.7,0,2.5c3.5-0.4,6.9-0.6,10.4-0.7c0.9,0,1.6-1,1.1-1.9c-2.3-4-4.3-8-6.1-12.2C281.6,68.1,279.5,69.4,280.1,70.9
				L280.1,70.9z"/>
		</g>
	</g>
	<g id="XMLID_165_">
		<g id="XMLID_271_">
			<path id="XMLID_275_" class="st1" d="M279.9,72.2c-1,3.2-1.9,6.5-2.5,9.9c-0.3,1.6,2,2.2,2.4,0.7c0.7-2.9,1.3-5.9,1.8-8.8
				c-0.8-0.1-1.6-0.2-2.5-0.3c0.3,2.5,0.5,4.9,0.8,7.4c0.1,1,1.3,1.8,2.1,0.9c0.6-0.7,1-1.4,1.3-2.3c-0.6,0.2-1.2,0.5-1.8,0.7
				c-0.5-1.5-0.5-1.8,0-0.8c0.3,0.4,0.5,0.9,0.4,1.4c0.7-0.3,1.4-0.6,2.1-0.9c-1.2-1.1-2.3-3-1.6-4.8c-0.3,0.3-0.6,0.6-0.9,0.9
				c-0.5,0.1,0,0.6,0.1,1c0.2,0.5,0.4,1.1,0.5,1.6c0.3,1.1,0.5,2.3,0.5,3.4c0.8-0.1,1.6-0.2,2.5-0.3c-0.7-1.6-1.1-3.2-1.3-4.9
				c-0.2-1.6-2.7-1.6-2.5,0c0.2,1.9,0.7,3.8,1.4,5.6c0.5,1.2,2.6,1.2,2.5-0.3c-0.1-1.9-1-9.9-4.4-8.5c-1.3,0.5-1.2,2.3-1.1,3.5
				c0.3,1.8,1.1,3.3,2.5,4.6c0.7,0.7,2.3,0.3,2.1-0.9c-0.2-2-1-4.4-3.4-4.6c-1.8-0.1-3.2,1.5-2.7,3.2c0.4,1.7,2.6,3.2,4.3,2.4
				c1.6-0.7,1.7-3,0.2-3.8c-0.7-0.4-1.6,0-1.8,0.7c-0.1,0.5-0.3,0.8-0.7,1.2c0.7,0.3,1.4,0.6,2.1,0.9c-0.3-2.5-0.5-4.9-0.8-7.4
				c-0.1-1.3-2.2-1.8-2.5-0.3c-0.5,3-1,5.9-1.8,8.8c0.8,0.2,1.6,0.4,2.4,0.7c0.6-3.3,1.5-6.6,2.5-9.9
				C282.8,71.3,280.4,70.7,279.9,72.2L279.9,72.2z"/>
		</g>
	</g>
	<g id="XMLID_172_">
		<g id="XMLID_264_">
			<path id="XMLID_268_" class="st1" d="M271.1,77.4c1.1,1.5,1.9,3.2,2.3,5c0.4,1.6,2.8,0.9,2.4-0.7c-0.5-2-1.4-3.9-2.6-5.6
				C272.3,74.8,270.1,76.1,271.1,77.4L271.1,77.4z"/>
		</g>
	</g>
	<g id="XMLID_179_">
		<g id="XMLID_257_">
			<path id="XMLID_261_" class="st1" d="M407.9,100.3c0.2-0.7,0.4-1.3,0.5-2c0.4-1.3-1.6-2.2-2.3-1c-2.4,4.7-4.4,9.6-5.9,14.8
				c-0.4,1.6,2,2.2,2.4,0.7c1.4-4.9,3.3-9.6,5.6-14.2c-0.8-0.3-1.5-0.6-2.3-1c-0.2,0.7-0.4,1.3-0.5,2
				C405.1,101.2,407.5,101.9,407.9,100.3L407.9,100.3z"/>
		</g>
	</g>
	<g id="XMLID_186_">
		<g id="XMLID_250_">
			<path id="XMLID_254_" class="st1" d="M406.8,98.1c2.1,4.9,4.1,9.8,6.2,14.7c0.4-0.5,0.8-1.1,1.2-1.6c-4.2,0.4-8.4,0.7-12.6,1
				c-1.6,0.1-1.6,2.6,0,2.5c4.2-0.3,8.4-0.6,12.6-1c0.7-0.1,1.5-0.8,1.2-1.6c-2.1-4.9-4.1-9.8-6.2-14.7
				C408.6,96,406.2,96.6,406.8,98.1L406.8,98.1z"/>
		</g>
	</g>
	<g id="XMLID_193_">
		<g id="XMLID_244_">
			<path id="XMLID_248_" class="st1" d="M407.2,101c-0.3,3.8-1.1,7.4-2.4,10.9c0.6-0.2,1.2-0.5,1.8-0.7c-0.7-0.4-0.2-3.5-0.2-4.2
				c0.2-1.7,0.5-3.3,0.9-4.9c-0.8-0.1-1.6-0.2-2.5-0.3c-0.3,3.5-1,6.9-2,10.3c0.8,0.1,1.6,0.2,2.5,0.3c0.3-2.7,1-5.2,2-7.7
				c-0.8-0.2-1.6-0.4-2.4-0.7c-0.3,2.1-2.4,8.2,1,8.8c3.4,0.6,4.8-4.4,5.3-6.7c-0.8,0-1.6,0-2.4,0c0.4,2,0.8,4,1.2,6
				c0.8-0.2,1.6-0.4,2.4-0.7c-0.5-1.9-1.3-3.7-2.5-5.3c-0.9-1.3-2.9-0.2-2.2,1.3c0.4,0.7,1.8,2.9,1.5,3.7c-0.6,1.5-2.3,0.1-3.2-0.5
				c-0.2,0.8-0.4,1.6-0.6,2.3c1,0,2,0,3,0c0-0.8,0-1.7,0-2.5c-0.2,0-0.4,0-0.7,0c-1.6-0.4-2.2,2-0.7,2.4c0.5,0.1,0.8,0.2,1.3,0.1
				c1.6-0.1,1.6-2.5,0-2.5c-1,0-2,0-3,0c-1.3,0-1.6,1.7-0.6,2.3c1.5,1,4.9,2.7,6.6,0.9c1.7-1.9-0.5-5.9-1.4-7.6
				c-0.7,0.4-1.4,0.8-2.2,1.3c1.1,1.4,1.8,2.9,2.3,4.7c0.4,1.6,2.7,0.9,2.4-0.7c-0.4-2-0.8-4-1.2-6c-0.2-1.2-2.2-1.2-2.4,0
				c-0.2,1.2-0.6,4.1-1.9,4.6c-0.5,0.5-0.5,0.2-0.2-0.9c0.1-0.4,0.1-0.9,0.2-1.3c0.1-1,0.3-2.1,0.4-3.1c0.2-1.6-1.8-2.2-2.4-0.7
				c-1.1,2.7-1.8,5.5-2.1,8.4c-0.2,1.4,2.1,1.6,2.5,0.3c1.1-3.6,1.8-7.2,2.1-11c0.1-1.4-2.1-1.7-2.5-0.3c-0.7,2.6-1.1,5.2-1.1,7.8
				c0,1.6,0,3.3,1.5,4.1c0.8,0.4,1.5,0,1.8-0.7c1.4-3.8,2.2-7.6,2.5-11.6C409.8,99.4,407.3,99.4,407.2,101L407.2,101z"/>
		</g>
	</g>
	<g id="XMLID_200_">
		<g id="XMLID_237_">
			<path id="XMLID_241_" class="st1" d="M823.8,100.3c3.3,8.6,7,17.1,10.9,25.4c0.4-0.6,0.7-1.3,1.1-1.9c-6.4-0.2-12.8-0.5-19.1-0.7
				c-1.6-0.1-1.6,2.4,0,2.5c6.4,0.2,12.8,0.5,19.1,0.7c1,0,1.5-1.1,1.1-1.9c-3.9-8.1-7.4-16.4-10.7-24.8
				C825.6,98.1,823.2,98.8,823.8,100.3L823.8,100.3z"/>
		</g>
	</g>
	<g id="XMLID_207_">
		<g id="XMLID_230_">
			<path id="XMLID_234_" class="st1" d="M823.3,99.6c-2.4,7.9-4.5,16.2-7.5,23.9c-0.5,1.4,1.6,2.1,2.3,1c3.9-6.2,6.1-12.9,6.9-20.2
				c-0.8,0-1.7,0-2.5,0c0.6,6.2-1.4,11.7-3.8,17.3c-0.5,1.2,1,2.7,2,1.5c4.1-5.2,5-11.3,5.3-17.7c-0.8,0-1.7,0-2.5,0
				c0.5,5.3,2.2,13.3-1.7,17.7c0.7,0.3,1.4,0.6,2.1,0.9c-0.6-5,1.3-10.8,2.2-15.8c-0.7,0.2-1.4,0.4-2.1,0.6c1.3,1.5,4.6,12,1.2,12.9
				c0.5,0.3,1,0.6,1.5,0.9c-0.7-3.7-2-10.7-1-13.9c-0.3,1.1,0.8,3.7,1,5.1c0.1,0.6,1.2,7.5,0.2,8.1c0.6,0.2,1.2,0.5,1.8,0.7
				c-1.1-4.1-1.2-7.9-0.2-12.1c-0.7,0.2-1.4,0.4-2.1,0.6c1.7,1.3,4.4,10.8,2,12.3c0.6,0.2,1.2,0.5,1.8,0.7c-0.4-1.4-1.5-5.3-0.5-5.6
				c0.9-0.2,1.8,4.8,2,5.7c0.6-0.5,1.2-0.9,1.8-1.4c-0.7-0.6-1.3-1.3-2-1.9c-0.8,0.3-1.5,0.6-2.3,1c0.4,0.6,0.8,1.2,1.2,1.8
				c0.9,1.3,3,0.1,2.2-1.3c-0.4-0.6-0.8-1.2-1.2-1.8c-0.7-1.1-2.8-0.4-2.3,1c0.7,1.8,1.3,2.6,3.1,3.4c1,0.5,2.1-0.3,1.8-1.4
				c-0.4-2.2-1.7-9.3-5.1-9c-3.8,0.4-1.8,8.2-1.2,10.2c0.2,0.8,1.1,1.2,1.8,0.7c2.6-1.6,1.8-5,1.5-7.7c-0.3-3.1-0.5-6.4-3.1-8.5
				c-0.7-0.6-1.8-0.4-2.1,0.6c-1.1,4.5-1.1,8.9,0.2,13.4c0.2,0.8,1.1,1.1,1.8,0.7c3.6-2,1.4-18.4-2.7-19.1c-0.5-0.1-1.2,0-1.4,0.6
				c-2.2,5-0.7,12.5,0.3,17.7c0.1,0.7,0.9,1,1.5,0.9c6-1.5,2.8-13.7-0.1-17c-0.6-0.7-1.9-0.4-2.1,0.6c-0.9,5.2-2.8,11.1-2.2,16.4
				c0.1,1,1.3,1.8,2.1,0.9c4.6-5.1,3.1-13.1,2.5-19.4c-0.1-1.6-2.4-1.6-2.5,0c-0.3,5.7-0.9,11.3-4.6,15.9c0.7,0.5,1.3,1,2,1.5
				c2.6-6,4.8-11.9,4.2-18.6c-0.2-1.6-2.3-1.6-2.5,0c-0.8,6.8-3,13.1-6.6,19c0.8,0.3,1.5,0.6,2.3,1c3.1-7.7,5.1-16,7.5-23.9
				C826.2,98.8,823.8,98.1,823.3,99.6L823.3,99.6z"/>
		</g>
	</g>
	<g id="XMLID_214_">
		<g id="XMLID_223_">
			<path id="XMLID_227_" class="st1" d="M124.9,24.7c2,4.1,4.2,8.1,6.8,11.9c0.4-0.6,0.7-1.3,1.1-1.9c-4.8,0.2-9.5,0.4-14.3,0.6
				c-1.6,0.1-1.6,2.6,0,2.5c4.8-0.2,9.5-0.4,14.3-0.6c0.9,0,1.6-1.1,1.1-1.9c-2.5-3.8-4.8-7.8-6.8-11.9
				C126.4,22,124.2,23.2,124.9,24.7L124.9,24.7z"/>
		</g>
	</g>
	<g id="XMLID_221_">
		<g id="XMLID_216_">
			<path id="XMLID_220_" class="st1" d="M124.1,23.4c-1.5,4.9-5.8,8.4-7.6,13.2c-0.4,1.1,1.3,2.2,2.1,1.2c2.4-3.1,4.8-6.2,7.2-9.3
				c-0.7-0.3-1.4-0.6-2.1-0.9c0,3-1.7,5.1-4.1,6.6c0.6,0.6,1.1,1.1,1.7,1.7c1.4-2.3,3.1-4.3,5.2-6.1c-0.7-0.3-1.4-0.6-2.1-0.9
				c0.2,2.2-0.4,3.9-2,5.5c0.7,0.5,1.3,1,2,1.5c0.4-0.8,0.9-1.6,1.2-2.4c0.4-0.8,0.4-2.5-0.2-0.3c0.1-0.1,0.3-0.1,0.4-0.2
				c0-0.6,0.1-1.3,0.3-1.9c0.3-1,0.9-1.8,1.7-2.6c-0.7-0.2-1.4-0.4-2.1-0.6c0.7,2.2,1.1,4.4,1,6.7c0.6-0.4,1.3-0.7,1.9-1.1
				c-0.1-0.1-0.3-0.3-0.4-0.4c-0.4,0.5-0.8,1.1-1.2,1.6c0.9-0.1,1.8,0.1,2.6,0.6c0.3-0.8,0.6-1.5,1-2.3c-0.8-0.2-1.6-0.3-2.5-0.2
				c-1.6,0-1.6,2.5,0,2.5c0.6-0.1,1.2,0,1.8,0.1c1.3,0.3,2.3-1.6,1-2.3c-1.3-0.6-2.4-1-3.9-1c-0.8,0-1.5,0.8-1.2,1.6
				c0.3,0.9,0.7,1.5,1.6,1.9c0.8,0.4,1.9-0.1,1.9-1.1c0-2.5-0.3-4.9-1.1-7.3c-0.3-0.9-1.4-1.3-2.1-0.6c-1.9,1.9-3.1,4.6-2.6,7.3
				c0.3,2.3,2.2,3,3.7,1.1c1-1.2,2.6-4.9,0.3-5.7c-2.6-1-4.5,3.5-5.2,5.1c-0.5,1.2,0.9,2.6,2,1.5c2-2,2.9-4.4,2.7-7.2
				c-0.1-1.1-1.3-1.6-2.1-0.9c-2.2,1.9-4,4.1-5.6,6.6c-0.7,1.1,0.7,2.4,1.7,1.7c3.2-1.9,5.4-4.9,5.4-8.7c0-1-1.4-1.8-2.1-0.9
				c-2.4,3.1-4.8,6.2-7.2,9.3c0.7,0.4,1.4,0.8,2.1,1.2c1.8-4.8,6.1-8.2,7.6-13.2C127,22.5,124.6,21.8,124.1,23.4L124.1,23.4z"/>
		</g>
	</g>
	<g id="XMLID_228_">
		<g id="XMLID_209_">
			<path id="XMLID_213_" class="st1" d="M541.8,44.5c-2.2,3.5-4.8,6.7-7.6,9.7c-1.1,1.2,0.7,2.9,1.8,1.8c3-3.2,5.6-6.6,8-10.2
				C544.9,44.4,542.7,43.2,541.8,44.5L541.8,44.5z"/>
		</g>
	</g>
	<g id="XMLID_235_">
		<g id="XMLID_202_">
			<path id="XMLID_206_" class="st1" d="M541.9,46.6c1.6,2,4.2,5,4.6,7.6c0.1-0.4,0.2-0.8,0.3-1.2c-0.3,0.2-1.9,0.1-2.4,0.1
				c-1.1,0.1-2.2,0.1-3.3,0.2c-2,0.1-4.1,0.2-6.1,0.2c-1.6,0-1.6,2.5,0,2.5c2.8-0.1,5.6-0.2,8.4-0.4c1.4-0.1,4.1,0.3,5.1-0.9
				c0.9-1.1-0.2-2.8-0.8-3.8c-1.1-2.2-2.6-4.2-4.2-6.1C542.6,43.6,540.9,45.3,541.9,46.6L541.9,46.6z"/>
		</g>
	</g>
	<g id="XMLID_256_">
		<g id="XMLID_149_">
			<path id="XMLID_162_" class="st1" d="M382.9,20.2c0.9,4.2,2,8.3,3.5,12.4c0.3,0.8,0.5,1.7,0.9,2.4c0.1,1.3,0.4,1.6,0.8,0.8
				c0.6-0.6,0.3-0.7-0.8-0.3c-0.6,0-6.1,1.1-6.5,0.3c-0.6-1.5-2.8-0.2-2.2,1.3c0.8,1.9,3.3,1.4,5,1.3c1.5-0.1,5.5,0.2,6.5-1.3
				c1-1.5-1-4.3-1.5-5.7c-1.4-3.8-2.5-7.8-3.3-11.7C385,18,382.6,18.6,382.9,20.2L382.9,20.2z"/>
		</g>
	</g>
	<g id="XMLID_270_">
		<g id="XMLID_188_">
			<path id="XMLID_192_" class="st1" d="M569.9,19.1c2.6,6.4,5.4,12.8,8.4,19.1c0.7,1.5,2.8,0.2,2.2-1.3c-2.9-6.1-5.6-12.2-8.1-18.5
				C571.7,16.9,569.3,17.6,569.9,19.1L569.9,19.1z"/>
		</g>
	</g>
	<g id="XMLID_277_">
		<g id="XMLID_181_">
			<path id="XMLID_185_" class="st1" d="M570.4,17.1c-3.3,7.6-7,14.9-11.3,21.9c-0.6,1,0.4,2,1.4,1.8c6.7-1,13.3-1.2,20.1-0.5
				c1.6,0.2,1.6-2.3,0-2.5c-7-0.7-13.8-0.5-20.7,0.6c0.5,0.6,0.9,1.2,1.4,1.8c4.3-7.1,8.1-14.4,11.3-21.9
				C573.2,16.9,571.1,15.7,570.4,17.1L570.4,17.1z"/>
		</g>
	</g>
	<g id="XMLID_284_">
		<g id="XMLID_168_">
			<path id="XMLID_173_" class="st1" d="M570.5,26.9c-0.8,3.8-2.5,7-5.2,9.8c0.6,0,1.2,0,1.8,0c-0.7-0.7,1.8-5.2,2.2-5.9
				c0.9-1.8,1.9-3.6,3-5.3c-0.8-0.3-1.5-0.6-2.3-1c-1.5,4.4-3.1,8.8-6.1,12.5c0.7,0.4,1.4,0.8,2.1,1.2c1.3-5.5,3.3-10.6,6.3-15.4
				c-0.8-0.3-1.5-0.6-2.3-1c-0.9,2.9-2,5.8-3.5,8.5c-0.9,1.6-3,6.4-4.7,7c0.5,0.5,1,1,1.5,1.5c1.2-3.8,2.8-7.4,4.3-11.1
				c0.2-0.4,0.3-0.7,0.5-1.1c-0.3,0.3-0.5,0.7-0.8,1c-0.1,0.7,0.2,1.7,0.3,2.4c0.3,2,0.5,4.1,0.8,6.1c0.2,1.2,2.2,1.9,2.5,0.3
				c0.5-3.3,0.6-6.9,2.5-9.8c-0.7,0-1.4,0-2.2,0c0.4,0.8,1.9,6.9,0.2,7.2c-0.5,0.1,0-2.3,0-2.1c0.3-1.3,1-2.2,2.2-2.9
				c-0.6-0.1-1.1-0.3-1.7-0.4c1.4,2.7,1.4,5.4,0.4,8.2c0.8-0.1,1.5-0.2,2.3-0.3c-0.9-0.7-0.9-1-0.1-1c1-0.2,0.7-0.1-1,0.2
				c-0.2,0.8-0.4,1.6-0.6,2.3c0.9-0.1,1.7,0.1,2.5,0.4c0.1-0.8,0.2-1.6,0.3-2.5c-2.6-0.1-5.2-0.1-7.8-0.2c0,0.8,0,1.7,0,2.5
				c2.4-0.1,4.7-0.1,7.1-0.2c-0.2-0.8-0.4-1.6-0.6-2.3c-1.1,0.8-2.4,1-3.8,0.9c0.1,0.8,0.2,1.6,0.3,2.5c2.5-0.4,4.9-0.3,7.4,0
				c1.3,0.2,1.7-1.8,0.6-2.3c-0.2-0.1-0.4-0.2-0.7-0.4c-1.4-0.8-2.7,1.4-1.3,2.2c0.2,0.1,0.4,0.2,0.7,0.4c0.2-0.8,0.4-1.6,0.6-2.3
				c-2.7-0.4-5.3-0.3-8,0.1c-1.5,0.2-1,2.3,0.3,2.5c1.9,0.2,3.4-0.2,5-1.3c1-0.7,0.7-2.4-0.6-2.3c-2.4,0.1-4.7,0.1-7.1,0.2
				c-1.6,0-1.6,2.5,0,2.5c2.6,0.1,5.2,0.1,7.8,0.2c1.4,0,1.7-2,0.3-2.5c-1.1-0.3-2-0.5-3.2-0.5c-1.2,0-1.7,1.7-0.6,2.3
				c1.5,0.8,3.6,1.5,4.8-0.2c1.1-1.5,0.5-4.5-0.7-5.8c-1.2-1.3-2.9-1.5-4.2-0.3c-2,1.8-1,4.4,0.3,6.2c0.7,0.9,1.9,0.8,2.3-0.3
				c1.3-3.5,1-6.8-0.7-10.1c-0.3-0.6-1.2-0.8-1.7-0.4c-2.8,1.6-6,8.6-1.8,10.5c1.9,0.9,3.1-1.1,3.6-2.7c1-3.1,0.6-6.2-0.6-9.1
				c-0.4-0.9-1.7-0.7-2.2,0c-2,3.1-2.3,6.8-2.8,10.4c0.8,0.1,1.6,0.2,2.5,0.3c-0.4-2.8-0.7-5.7-1.1-8.5c-0.2-1.5-0.2-2.6-1.6-3.4
				c-0.4-0.2-0.9-0.2-1.3,0c-1.7,1.1-2.3,3.8-3,5.5c-1.1,2.7-2.1,5.5-3,8.3c-0.3,0.9,0.6,1.8,1.5,1.5c2.5-0.8,4.2-4.6,5.4-6.6
				c1.9-3.3,3.4-6.9,4.6-10.5c0.4-1.4-1.6-2.2-2.3-1c-3.1,5-5.2,10.3-6.5,16c-0.3,1.1,1.2,2.2,2.1,1.2c3.3-4,5.1-8.7,6.8-13.6
				c0.5-1.4-1.5-2.1-2.3-1c-1.8,2.7-3.3,5.6-4.5,8.6c-0.7,1.8-1.9,4-0.3,5.6c0.5,0.5,1.3,0.5,1.8,0c3-3,5-6.6,5.9-10.9
				C573.3,26,570.9,25.3,570.5,26.9L570.5,26.9z"/>
		</g>
	</g>
	<g id="XMLID_291_">
		<g id="XMLID_128_">
			<path id="XMLID_147_" class="st1" d="M369.5,0.5c3.5,8.3,7.3,16.5,11.4,24.6c0.7,1.4,2.9,0.2,2.2-1.3c-4-7.9-7.7-15.9-11.1-24
				C371.3-1.6,368.8-1,369.5,0.5L369.5,0.5z"/>
		</g>
	</g>
	<g id="XMLID_298_">
		<g id="XMLID_153_">
			<path id="XMLID_157_" class="st1" d="M381.9,23.7c-6.9-0.1-13.9,0-20.8,0.3c-1.6,0.1-1.6,2.6,0,2.5c6.9-0.3,13.9-0.4,20.8-0.3
				C383.5,26.3,383.5,23.8,381.9,23.7L381.9,23.7z"/>
		</g>
	</g>
	<g id="XMLID_305_">
		<g id="XMLID_66_">
			<path id="XMLID_126_" class="st1" d="M365.4,0.3c-1.8,8.6-5.7,16.5-7.3,25.2c-0.2,1,0.9,2.1,1.8,1.4c2.7-1.9,3.3-0.6,4.4-3.9
				c1.5-4.4,2.6-9,3.9-13.5c0.4-1.3-1.6-2.2-2.3-1c-2.4,4.5-4.5,9-5.4,14.1c-0.2,1.3,1.5,2.3,2.3,1c2-3.5,3.2-7.1,3.5-11.2
				c0.1-1.5-2-1.5-2.5-0.3c-1.3,3.4-2.3,6.7-2.9,10.3c-0.2,1,0.8,2,1.8,1.4c5.5-3.2,6.1-12.4,6.6-18c0.1-1.5-2-1.5-2.5-0.3
				c-2.1,5.1-3.2,10.3-3.5,15.9c-0.1,1.4,2.2,1.7,2.5,0.3c1.4-6.2,2.5-12.5,3.4-18.8c-0.8-0.2-1.6-0.4-2.4-0.7
				c-0.7,5.2-1.5,10.4-2.3,15.5c0.8,0.2,1.6,0.4,2.4,0.7c0.7-4.8,1-9.5,0.9-14.4c0-1.4-2.2-1.8-2.5-0.3c-0.8,3.9-0.7,7.6,0.6,11.4
				c0.3,0.9,1.4,1.3,2.1,0.6c3.1-3.3,2.5-9.2,2.1-13.3c-0.1-1.6-2.4-1.6-2.5,0c-0.3,5,0.1,9.9,1.2,14.8c0.3,1.4,2.4,1.1,2.5-0.3
				c0.1-5.1,0-10.1-0.5-15.2c-0.8,0.1-1.6,0.2-2.5,0.3c1.5,5.3,3,10.6,4.5,15.9c0.8-0.2,1.6-0.4,2.4-0.7c-1.4-3.9-2.4-7.9-3-12
				c-0.8,0.3-1.5,0.6-2.3,1c2.1,4.9,4.1,9.7,6.2,14.6c0.6,1.3,2.7,0.4,2.3-1c-1.1-3.6-2.5-7-4.4-10.3c-0.7,0.4-1.4,0.8-2.2,1.3
				c2.7,3.9,4.7,7.9,6.2,12.4c0.4-0.5,0.8-1.1,1.2-1.6c-4.9-0.2-12.1-2-16.4,0.9c-1,0.6-0.7,2.4,0.6,2.3c4.3-0.3,8.6-0.3,12.9-0.2
				c1.2,0,1.6-1.4,0.9-2.1c-2-2.3-6.5-7.6-10.2-6.1c-1.6,0.6-2.3,2.3-1.3,3.9c3.3,5.3,11.6-0.1,7.3-5.9c-1.3-1.8-3.9-3.3-5.7-1.1
				c-1.8,2.2,0.2,5.2,1.8,6.8c1.6,1.5,5,3.9,6.7,1.3c1.6-2.5-1-5.9-2.7-7.6c-1-0.9-2.8,0.3-2,1.5c1.5,2.2,3.1,4.4,4.6,6.6
				c0.2-0.6,0.5-1.2,0.7-1.8c-2.3,0.7-6.4-3-8.1-4.2c-1.1-0.9-2.5,1-1.5,2c1.3,1.2,2.5,2.4,3.8,3.6c1.2,1.1,2.8-0.6,1.8-1.8
				c-2.2-2.5-5.4-2.1-7,0.8c-0.4,0.6-0.1,1.7,0.7,1.8c1.7,0.3,1.9,0.3,3.4-0.6c1.1-0.6,0.6-2.3-0.6-2.3c-1.8,0-1.5-0.1-3.2,0.6
				c-1.5,0.6-0.8,3,0.7,2.4c0.9-0.2,1.7-0.3,2.6-0.5c-0.2-0.8-0.4-1.6-0.6-2.3c-0.5,0.1-1,0.2-1.5,0.3c0.2,0.6,0.5,1.2,0.7,1.8
				c1-0.1,2.1-0.2,3.1-0.3c0.6-0.6,1.2-1.2,1.8-1.8c-1.3-1.2-2.5-2.4-3.8-3.6c-0.5,0.7-1,1.3-1.5,2c2.6,1.9,6.6,5.6,10,4.5
				c0.7-0.2,1.2-1.1,0.7-1.8c-1.5-2.2-3.1-4.4-4.6-6.6c-0.7,0.5-1.3,1-2,1.5c0.7,0.7,2.7,2.9,1.1,3.9c-0.9-0.9-1.9-1.8-2.8-2.7
				c-1.4,2-1.4,2.9,0,2.6c0.3,0.4,2.6,1.4,3.3,2c0.9,0.8,1.7,1.8,2.5,2.8c0.3-0.7,0.6-1.4,0.9-2.1c-4.3-0.2-8.6-0.1-12.9,0.2
				c0.2,0.8,0.4,1.6,0.6,2.3c3.6-2.5,11-0.7,15.2-0.6c0.8,0,1.5-0.8,1.2-1.6c-1.5-4.7-3.6-9-6.4-13c-0.9-1.3-3-0.2-2.2,1.3
				c1.8,3.1,3.1,6.3,4.2,9.7c0.8-0.3,1.5-0.6,2.3-1c-2.1-4.9-4.1-9.7-6.2-14.6c-0.6-1.4-2.5-0.3-2.3,1c0.6,4.1,1.6,8.1,3,12
				c0.5,1.5,2.9,0.9,2.4-0.7c-1.5-5.3-3-10.6-4.5-15.9c-0.4-1.3-2.6-1.1-2.5,0.3c0.4,5.1,0.6,10.1,0.5,15.2c0.8-0.1,1.6-0.2,2.5-0.3
				c-1.1-4.7-1.5-9.3-1.2-14.2c-0.8,0-1.7,0-2.5,0c0.3,3.3,1.1,9-1.4,11.6c0.7,0.2,1.4,0.4,2.1,0.6c-1.1-3.4-1.3-6.6-0.6-10.1
				c-0.8-0.1-1.6-0.2-2.5-0.3c0.1,4.6-0.1,9.1-0.8,13.7c-0.2,1.6,2.2,2.3,2.4,0.7c0.8-5.2,1.6-10.4,2.3-15.5
				c0.2-1.6-2.2-2.3-2.4-0.7c-0.9,6.3-2.1,12.6-3.4,18.8c0.8,0.1,1.6,0.2,2.5,0.3c0.2-5.3,1.3-10.3,3.4-15.2
				c-0.8-0.1-1.6-0.2-2.5-0.3c-0.4,4.2-1.2,13.4-5.4,15.9c0.6,0.5,1.2,0.9,1.8,1.4c0.6-3.5,1.6-6.9,2.9-10.3
				c-0.8-0.1-1.6-0.2-2.5-0.3c-0.3,3.6-1.4,6.8-3.2,9.9c0.8,0.3,1.5,0.6,2.3,1c0.9-4.9,2.9-9.1,5.2-13.5c-0.8-0.3-1.5-0.6-2.3-1
				c-1,3.3-1.9,6.6-2.9,9.9c-0.4,1.5-0.9,4.1-2,5.2c-0.3,0.3-1.8,0.5-2.3,0.9c0.6,0.5,1.2,0.9,1.8,1.4c1.6-8.6,5.5-16.6,7.3-25.2
				C368.2-0.6,365.8-1.3,365.4,0.3L365.4,0.3z"/>
		</g>
	</g>
	<g id="XMLID_242_">
		<g id="XMLID_58_">
			<path id="XMLID_64_" class="st1" d="M382.4,19.7c-1.6,5.9-3.2,11.7-3.7,17.8c-0.1,1.6,2.4,1.6,2.5,0c0.4-5.9,2.1-11.5,3.6-17.1
				C385.2,18.8,382.8,18.1,382.4,19.7L382.4,19.7z"/>
		</g>
	</g>
	<g id="XMLID_116_">
		<g id="XMLID_118_">
			<path id="XMLID_122_" class="st1" d="M169.2,96.6c-1.4,4.7-3.3,9.2-6,13.3c-0.9,1.4,1.3,2.6,2.2,1.3c2.7-4.3,4.8-9,6.2-13.9
				C172,95.7,169.6,95,169.2,96.6L169.2,96.6z"/>
		</g>
	</g>
	<g id="XMLID_159_">
		<g id="XMLID_111_">
			<path id="XMLID_115_" class="st1" d="M230.7,185.1c-1.9-12.2-3.8-24.4-5.7-36.6c-0.2-1.4-2-1-2.4,0c-4.8,11.9-9.6,23.8-14.3,35.6
				c-0.3,0.7,0.5,1.6,1.2,1.6c6.8-0.4,13.5-0.6,20.3-0.5c1.6,0,1.6-2.5,0-2.5c-6.8-0.1-13.5,0.1-20.3,0.5c0.4,0.5,0.8,1.1,1.2,1.6
				c4.8-11.9,9.6-23.8,14.3-35.6c-0.8,0-1.6,0-2.4,0c1.9,12.2,3.8,24.4,5.7,36.6C228.6,187.4,231,186.7,230.7,185.1L230.7,185.1z"/>
		</g>
	</g>
	<g id="XMLID_174_">
		<g id="XMLID_104_">
			<path id="XMLID_108_" class="st1" d="M237.4,156c-2.5,4.8-5.1,9.6-7.8,14.3c-0.8,1.4,1.4,2.7,2.2,1.3c2.7-4.7,5.3-9.5,7.8-14.3
				C240.3,155.9,238.2,154.6,237.4,156L237.4,156z"/>
		</g>
	</g>
	<g id="XMLID_175_">
		<g id="XMLID_97_">
			<path id="XMLID_101_" class="st1" d="M238.1,158.4c1.8,1.2,3.2,5.1,4.5,6.9c1.3,1.8,2.8,3.6,4.4,5.2c0.2-0.7,0.4-1.4,0.6-2.1
				c-5.7,1-11.6,1-17.3,1.3c-1.6,0.1-1.6,2.6,0,2.5c6-0.2,12.1-0.3,18-1.3c1-0.2,1.1-1.5,0.6-2.1c-2.2-2.3-4.2-4.9-5.9-7.6
				c-1.1-1.8-1.7-3.7-3.5-4.8C238,155.3,236.7,157.5,238.1,158.4L238.1,158.4z"/>
		</g>
	</g>
	<g id="XMLID_176_">
		<g id="XMLID_90_">
			<path id="XMLID_94_" class="st1" d="M418.6,72.7c-2,11.1-4.5,22-7.4,32.9c-0.4,1.6,2,2.2,2.4,0.7c2.9-10.9,5.4-21.8,7.4-32.9
				C421.3,71.8,418.8,71.1,418.6,72.7L418.6,72.7z"/>
		</g>
	</g>
	<g id="XMLID_177_">
		<g id="XMLID_83_">
			<path id="XMLID_87_" class="st1" d="M418.4,73.8c3.3,11.9,7.4,23.5,12.1,34.9c0.4-0.5,0.8-1.1,1.2-1.6
				c-6.3-0.4-12.6-0.5-18.9-0.4c-1.6,0-1.6,2.5,0,2.5c6.3-0.1,12.6,0.1,18.9,0.4c0.7,0,1.5-0.8,1.2-1.6c-4.8-11.4-8.8-23-12.1-34.9
				C420.4,71.5,418,72.2,418.4,73.8L418.4,73.8z"/>
		</g>
	</g>
	<g id="XMLID_178_">
		<g id="XMLID_76_">
			<path id="XMLID_80_" class="st1" d="M700.4,65.2c-3.1,8-6.3,16-9.4,24c-0.4,1,0.7,1.7,1.5,1.5c6.2-1.3,12.3-1.8,18.6-1.3
				c1.6,0.1,1.6-2.4,0-2.5c-6.5-0.5-12.9,0-19.2,1.4c0.5,0.5,1,1,1.5,1.5c3.1-8,6.3-16,9.4-24C703.4,64.4,701,63.7,700.4,65.2
				L700.4,65.2z"/>
		</g>
	</g>
	<g id="XMLID_263_">
		<g id="XMLID_69_">
			<path id="XMLID_73_" class="st1" d="M700.9,65.7c2.5,6.6,5.5,13,9.3,19c0.8,1.4,3,0.1,2.2-1.3c-3.6-5.8-6.6-11.9-9-18.4
				C702.7,63.5,700.3,64.2,700.9,65.7L700.9,65.7z"/>
		</g>
	</g>
	<g id="XMLID_43_">
		<g id="XMLID_142_">
			<path id="XMLID_164_" class="st1" d="M96.8,15.7c2.8,4.7,5.7,9.5,8.5,14.2c0.4-0.6,0.7-1.3,1.1-1.9c-5.1,0-10.2,0-15.3,0
				c-1.6,0-1.6,2.5,0,2.5c5.1,0,10.2,0,15.3,0c0.9,0,1.6-1.1,1.1-1.9c-2.8-4.7-5.7-9.5-8.5-14.2C98.2,13.1,96,14.3,96.8,15.7
				L96.8,15.7z"/>
		</g>
	</g>
	<g id="XMLID_42_">
		<g id="XMLID_135_">
			<path id="XMLID_141_" class="st1" d="M96.1,14.9c-1.4,4.7-3.3,9.2-6,13.3c-0.9,1.4,1.3,2.6,2.2,1.3c2.7-4.3,4.8-9,6.2-13.9
				C99,14,96.6,13.4,96.1,14.9L96.1,14.9z"/>
		</g>
	</g>
	<g id="XMLID_45_">
		<g id="XMLID_322_">
			<path id="XMLID_453_" class="st1" d="M607.6,179c2.8,4.7,5.7,9.5,8.5,14.2c0.4-0.6,0.7-1.3,1.1-1.9c-5.1,0-10.2,0-15.3,0
				c-1.6,0-1.6,2.5,0,2.5c5.1,0,10.2,0,15.3,0c0.9,0,1.6-1.1,1.1-1.9c-2.8-4.7-5.7-9.5-8.5-14.2C608.9,176.4,606.8,177.6,607.6,179
				L607.6,179z"/>
		</g>
	</g>
	<g id="XMLID_44_">
		<g id="XMLID_197_">
			<path id="XMLID_312_" class="st1" d="M606.9,178.2c-1.4,4.7-3.3,9.2-6,13.3c-0.9,1.4,1.3,2.6,2.2,1.3c2.7-4.3,4.8-9,6.2-13.9
				C609.7,177.3,607.3,176.7,606.9,178.2L606.9,178.2z"/>
		</g>
	</g>
	<g id="XMLID_57_">
		<g id="XMLID_475_">
			<path id="XMLID_479_" class="st1" d="M38.3,69.8c-3.1,6.9-5.6,13.9-7.4,21.3c-0.4,1.6,2,2.2,2.4,0.7c1.8-7.1,4.1-14,7.2-20.7
				C41.1,69.6,38.9,68.3,38.3,69.8L38.3,69.8z"/>
		</g>
	</g>
	<g id="XMLID_48_">
		<g id="XMLID_469_">
			<path id="XMLID_473_" class="st1" d="M37.8,70.5c1.5,7.2,3.5,14.2,5.9,21c0.4-0.5,0.8-1.1,1.2-1.6c-4.1,0.2-8,0-12.1-0.5
				c-1.6-0.2-2.3,2.2-0.7,2.4c4.2,0.6,8.4,0.8,12.7,0.6c0.8,0,1.5-0.8,1.2-1.6c-2.4-6.9-4.4-13.9-5.9-21
				C39.8,68.2,37.4,68.9,37.8,70.5L37.8,70.5z"/>
		</g>
	</g>
	<g id="XMLID_47_">
		<g id="XMLID_463_">
			<path id="XMLID_467_" class="st1" d="M37.3,76.9c-0.4,4.3-1.2,8.5-2.6,12.6c0.8,0.1,1.6,0.2,2.5,0.3c0.4-4,1.1-7.9,2-11.8
				c0.3-1.4-1.5-2.2-2.3-1c-2.2,3.7-3.8,7.7-4.7,11.9c-0.3,1.3,1.6,2.3,2.3,1c2.3-4.4,4.1-8.9,5.4-13.7c-0.8,0-1.6,0-2.4,0
				c1.2,4.2,1.1,8.4,0.9,12.8c-0.1,1.6,2.4,1.6,2.5,0c0.1-2.4,0.1-4.8-0.2-7.2c-0.2-1.4-2-1.7-2.5-0.3c-0.9,2.5-1.6,9.6,2.3,10.4
				c3.9,0.8,2.5-6,1.5-7.6c-0.6-1-2.5-0.6-2.3,0.6c0.1,1.4,0.4,2.7,0.8,4c0.7-0.4,1.4-0.8,2.1-1.2c-1.2-1.1-2-2.2-2.4-3.8
				c-0.3-1.2-2.2-1.2-2.4,0c-0.4,1.7-0.7,3.4-1.9,4.7c-1,1.2,0.5,2.8,1.8,1.8c0.3-0.2,0.7-0.4,1-0.7c1.2-0.7,0.4-2.8-1-2.3
				c-1.4,0.5-2.7,1-4.1,1.6c-1.5,0.6-0.8,3,0.7,2.4c1.4-0.5,2.7-1,4.1-1.6c-0.3-0.8-0.6-1.5-1-2.3c-0.6,0.4-1,0.6-1.5,1.1
				c0.6,0.6,1.2,1.2,1.8,1.8c1.5-1.7,2-3.7,2.5-5.8c-0.8,0-1.6,0-2.4,0c0.5,2,1.5,3.6,3,4.9c0.9,0.8,2.5,0.1,2.1-1.2
				c-0.3-1.1-0.6-2.2-0.7-3.3c-0.8,0.2-1.6,0.4-2.3,0.6c0.8,1.3,1.2,3,0.3,4.5c0.4-0.2,0.7-0.4,1.1-0.6c-2.1,0.2-0.8-6.5-0.6-7.2
				c-0.8-0.1-1.6-0.2-2.5-0.3c0.3,2.4,0.3,4.8,0.2,7.2c0.8,0,1.7,0,2.5,0c0.2-4.5,0.3-9-1-13.4c-0.3-1.2-2.1-1.2-2.4,0
				c-1.2,4.6-2.9,9-5.2,13.1c0.8,0.3,1.5,0.6,2.3,1c0.8-4,2.3-7.8,4.4-11.3c-0.8-0.3-1.5-0.6-2.3-1c-1,4.1-1.7,8.2-2.1,12.4
				c-0.1,1.5,2,1.6,2.5,0.3c1.4-4.3,2.3-8.7,2.7-13.2C40,75.3,37.5,75.3,37.3,76.9L37.3,76.9z"/>
		</g>
	</g>
	<g id="XMLID_132_">
		<g id="XMLID_496_">
			<path id="XMLID_500_" class="st1" d="M189.3,73.1c-3.1,6.9-5.6,13.9-7.4,21.3c-0.4,1.6,2,2.2,2.4,0.7c1.8-7.1,4.1-14,7.2-20.7
				C192.1,72.9,190,71.6,189.3,73.1L189.3,73.1z"/>
		</g>
	</g>
	<g id="XMLID_127_">
		<g id="XMLID_490_">
			<path id="XMLID_494_" class="st1" d="M188.8,73.7c1.5,7.2,3.5,14.2,5.9,21c0.4-0.5,0.8-1.1,1.2-1.6c-4.1,0.2-8,0-12.1-0.5
				c-1.6-0.2-2.3,2.2-0.7,2.4c4.2,0.6,8.4,0.8,12.7,0.6c0.8,0,1.5-0.8,1.2-1.6c-2.4-6.9-4.4-13.9-5.9-21
				C190.9,71.5,188.5,72.1,188.8,73.7L188.8,73.7z"/>
		</g>
	</g>
	<g id="XMLID_65_">
		<g id="XMLID_484_">
			<path id="XMLID_488_" class="st1" d="M188.4,80.1c-0.4,4.3-1.2,8.5-2.6,12.6c0.8,0.1,1.6,0.2,2.5,0.3c0.4-4,1.1-7.9,2-11.8
				c0.3-1.4-1.5-2.2-2.3-1c-2.2,3.7-3.8,7.7-4.7,11.9c-0.3,1.3,1.6,2.3,2.3,1c2.3-4.4,4.1-8.9,5.4-13.7c-0.8,0-1.6,0-2.4,0
				c1.2,4.2,1.1,8.4,0.9,12.8c-0.1,1.6,2.4,1.6,2.5,0c0.1-2.4,0.1-4.8-0.2-7.2c-0.2-1.4-2-1.7-2.5-0.3c-0.9,2.5-1.6,9.6,2.3,10.4
				c3.9,0.8,2.5-6,1.5-7.6c-0.6-1-2.5-0.6-2.3,0.6c0.1,1.4,0.4,2.7,0.8,4c0.7-0.4,1.4-0.8,2.1-1.2c-1.2-1.1-2-2.2-2.4-3.8
				c-0.3-1.2-2.2-1.2-2.4,0c-0.4,1.7-0.7,3.4-1.9,4.7c-1,1.2,0.5,2.8,1.8,1.8c0.3-0.2,0.7-0.4,1-0.7c1.2-0.7,0.4-2.8-1-2.3
				c-1.4,0.5-2.7,1-4.1,1.6c-1.5,0.6-0.8,3,0.7,2.4c1.4-0.5,2.7-1,4.1-1.6c-0.3-0.8-0.6-1.5-1-2.3c-0.6,0.4-1,0.6-1.5,1.1
				c0.6,0.6,1.2,1.2,1.8,1.8c1.5-1.7,2-3.7,2.5-5.8c-0.8,0-1.6,0-2.4,0c0.5,2,1.5,3.6,3,4.9c0.9,0.8,2.5,0.1,2.1-1.2
				c-0.3-1.1-0.6-2.2-0.7-3.3c-0.8,0.2-1.6,0.4-2.3,0.6c0.8,1.3,1.2,3,0.3,4.5c0.4-0.2,0.7-0.4,1.1-0.6c-2.1,0.2-0.8-6.5-0.6-7.2
				c-0.8-0.1-1.6-0.2-2.5-0.3c0.3,2.4,0.3,4.8,0.2,7.2c0.8,0,1.7,0,2.5,0c0.2-4.5,0.3-9-1-13.4c-0.3-1.2-2.1-1.2-2.4,0
				c-1.2,4.6-2.9,9-5.2,13.1c0.8,0.3,1.5,0.6,2.3,1c0.8-4,2.3-7.8,4.4-11.3c-0.8-0.3-1.5-0.6-2.3-1c-1,4.1-1.7,8.2-2.1,12.4
				c-0.1,1.5,2,1.6,2.5,0.3c1.4-4.3,2.3-8.7,2.7-13.2C191,78.5,188.5,78.5,188.4,80.1L188.4,80.1z"/>
		</g>
	</g>
	<g id="XMLID_195_">
		<g id="XMLID_510_">
			<path id="XMLID_514_" class="st1" d="M801.4,115.8c-3.1,8-6.3,16-9.4,24c-0.4,1,0.7,1.7,1.5,1.5c6.2-1.3,12.3-1.8,18.6-1.3
				c1.6,0.1,1.6-2.4,0-2.5c-6.5-0.5-12.9,0-19.2,1.4c0.5,0.5,1,1,1.5,1.5c3.1-8,6.3-16,9.4-24C804.4,114.9,801.9,114.3,801.4,115.8
				L801.4,115.8z"/>
		</g>
	</g>
	<g id="XMLID_166_">
		<g id="XMLID_504_">
			<path id="XMLID_508_" class="st1" d="M801.8,116.3c2.5,6.6,5.5,13,9.3,19c0.8,1.4,3,0.1,2.2-1.3c-3.6-5.8-6.6-11.9-9-18.4
				C803.7,114.1,801.2,114.8,801.8,116.3L801.8,116.3z"/>
		</g>
	</g>
	<g id="XMLID_461_">
		<g id="XMLID_524_">
			<path id="XMLID_528_" class="st1" d="M724.4,129.5c2.8,4.7,5.7,9.5,8.5,14.2c0.4-0.6,0.7-1.3,1.1-1.9c-5.1,0-10.2,0-15.3,0
				c-1.6,0-1.6,2.5,0,2.5c5.1,0,10.2,0,15.3,0c0.9,0,1.6-1.1,1.1-1.9c-2.8-4.7-5.7-9.5-8.5-14.2
				C725.7,126.8,723.6,128.1,724.4,129.5L724.4,129.5z"/>
		</g>
	</g>
	<g id="XMLID_196_">
		<g id="XMLID_518_">
			<path id="XMLID_522_" class="st1" d="M723.7,128.7c-1.4,4.7-3.3,9.2-6,13.3c-0.9,1.4,1.3,2.6,2.2,1.3c2.7-4.3,4.8-9,6.2-13.9
				C726.5,127.8,724.1,127.1,723.7,128.7L723.7,128.7z"/>
		</g>
	</g>
</g>
</svg>
