<?xml version="1.0" encoding="utf-8"?>
<!-- Generator: Adobe Illustrator 19.0.0, SVG Export Plug-In . SVG Version: 6.00 Build 0)  -->
<svg version="1.1" xmlns="http://www.w3.org/2000/svg" xmlns:xlink="http://www.w3.org/1999/xlink" x="0px" y="0px"
	 viewBox="0 0 255.1 255.1" style="enable-background:new 0 0 255.1 255.1;" xml:space="preserve">
<style type="text/css">
	.st0{fill:#EE6D23;}
	.st1{fill:#F68850;}
</style>
<g id="Layer_1">
	<rect id="XMLID_8424_" class="st0" width="255.1" height="255.1"/>
</g>
<g id="Layer_2">
	<g id="XMLID_1_">
		<g id="XMLID_13_">
			<path id="XMLID_17_" class="st1" d="M208.7,86.7c1.3,12.9,4.9,25.3,8.7,37.6c0.4-0.5,0.8-1.1,1.2-1.6c-4.6,0.1-9.1,0.1-13.7,0
				c-1.6,0-1.6,2.5,0,2.5c4.6,0.1,9.1,0.1,13.7,0c0.8,0,1.4-0.8,1.2-1.6c-3.7-12.1-7.3-24.3-8.6-36.9
				C211.1,85.1,208.6,85.1,208.7,86.7L208.7,86.7z"/>
		</g>
	</g>
	<g id="XMLID_2_">
		<g id="XMLID_20_">
			<path id="XMLID_24_" class="st1" d="M207.6,86.9c-3.5,12.6-5.5,25.6-8.1,38.4c-0.2,0.9,0.6,1.8,1.5,1.5c1.2-0.3,2.4-0.6,3.7-0.8
				c1.6-0.4,0.9-2.8-0.7-2.4c-1.2,0.3-2.4,0.6-3.7,0.8c0.5,0.5,1,1,1.5,1.5c2.6-12.8,4.7-25.8,8.1-38.4
				C210.4,86.1,208,85.4,207.6,86.9L207.6,86.9z"/>
		</g>
	</g>
	<g id="XMLID_3_">
		<g id="XMLID_27_">
			<path id="XMLID_31_" class="st1" d="M209.5,94.2c-1.6,0.8-2.4,2-2.1,3.7c-0.1,1.3-0.3,2.6-0.4,3.8c-0.3,2.2-0.5,4.5-0.8,6.7
				c-0.3,3,0,13.7-4.2,13.4c0.4,0.5,0.8,1.1,1.2,1.6c1.7-7.4,3.2-14.9,4.4-22.4c-0.8-0.1-1.6-0.2-2.5-0.3
				c-0.7,7.9-1.4,15.9-2.2,23.8c0.8,0,1.7,0,2.5,0c0.3-4.5,1.1-8.8,2.4-13.1c-0.8,0-1.6,0-2.4,0c0.5,3.3,0.9,6.7,1.4,10
				c0.2,1.4,2.5,1,2.5-0.3c0-2.9,0-5.9,0-8.8c-0.8,0.1-1.6,0.2-2.5,0.3c0.5,3.2,0.7,6.4,0.7,9.6c0,1.4,2.2,1.8,2.5,0.3
				c0.4-3,0.9-5.9,1.3-8.9c-0.8-0.1-1.6-0.2-2.5-0.3c0.1,2.8,0.3,5.7,0.4,8.5c0.1,1.4,2.1,1.8,2.5,0.3c0.7-2.8,1.1-5.6,1.3-8.5
				c-0.8,0-1.7,0-2.5,0c0.2,2.3,0.5,4.7,0.7,7c0.1,1.4,1.9,1.7,2.5,0.3c0.8-2,1-3.7,0.8-5.8c-0.8,0.1-1.6,0.2-2.5,0.3
				c0.3,2.1,0.7,4.1,1.3,6.1c0.4,1.4,2.4,1.1,2.5-0.3c0-0.6,0-1.2,0.1-1.8c-0.8,0.2-1.6,0.4-2.3,0.6c0.8,1.6,0.7,1.4,1.8,2.8
				c0.2-0.7,0.4-1.4,0.6-2.1c-1.7,0.4-3.4,0.6-5.1,0.6c-1.6,0.1-1.6,2.3,0,2.5c4.3,0.5,1.4-7,1-8.8c-1.6-8.5-2.1-17.1-1.6-25.7
				c0.1-1.6-2.4-1.6-2.5,0c-0.7,9.9,2.4,20.2,4.7,29.7c0.4,1.6,2.8,0.9,2.4-0.7c-1.4-6.3-2.6-12.6-3.6-19c-0.8,0.2-1.6,0.4-2.4,0.7
				c2.2,7.7,4.3,15.3,6.5,23c0.8-0.2,1.6-0.4,2.4-0.7c-1-2.7-2-5.4-3-8.1c-0.5-1.5-2.9-0.9-2.4,0.7c1,3.3,2.4,6.3,4.1,9.3
				c0.7,1.2,2.6,0.4,2.3-1c-0.4-1.9-0.3-1.6-1.2-3.4c-0.7-1.3-2.7-0.4-2.3,1c0.6,2,1.3,3.7,2.3,5.6c0.4-0.6,0.7-1.3,1.1-1.9
				c-5.9-0.4-11.8-0.4-17.7-0.1c-1.6,0.1-1.6,2.6,0,2.5c5.9-0.3,11.8-0.2,17.7,0.1c1,0.1,1.5-1.1,1.1-1.9c-0.9-1.6-1.5-3.2-2-5
				c-0.8,0.3-1.5,0.6-2.3,1c0.3,0.9,0.7,1.8,1,2.8c0.8-0.3,1.5-0.6,2.3-1c-1.6-2.8-2.9-5.6-3.9-8.7c-0.8,0.2-1.6,0.4-2.4,0.7
				c1,2.7,2,5.4,3,8.1c0.5,1.5,2.9,0.9,2.4-0.7c-2.2-7.7-4.3-15.3-6.5-23c-0.4-1.6-2.6-0.9-2.4,0.7c1,6.4,2.2,12.7,3.6,19
				c0.8-0.2,1.6-0.4,2.4-0.7c-2.2-9.3-5.3-19.5-4.6-29.1c-0.8,0-1.7,0-2.5,0c-0.3,5.6-0.2,11.2,0.3,16.8c0.2,2.1,1.3,15,2.7,15.2
				c0,0.8,0,1.7,0,2.5c2-0.1,3.8-0.3,5.8-0.7c1-0.2,1.1-1.4,0.6-2.1c-0.5-0.8-1-1.5-1.4-2.3c-0.6-1.2-2.3-0.5-2.3,0.6
				c0,0.6,0,1.2-0.1,1.8c0.8-0.1,1.6-0.2,2.5-0.3c-0.5-2-0.9-4.1-1.3-6.1c-0.2-1.4-2.6-1.1-2.5,0.3c0.1,1.8-0.1,3.4-0.7,5.1
				c0.8,0.1,1.6,0.2,2.5,0.3c-0.2-2.3-0.5-4.7-0.7-7c-0.2-1.6-2.4-1.6-2.5,0c-0.2,2.6-0.6,5.2-1.3,7.8c0.8,0.1,1.6,0.2,2.5,0.3
				c-0.1-2.8-0.3-5.7-0.4-8.5c-0.1-1.3-2.2-1.8-2.5-0.3c-0.4,3-0.9,5.9-1.3,8.9c0.8,0.1,1.6,0.2,2.5,0.3c0-3.5-0.2-6.8-0.7-10.2
				c-0.2-1.4-2.5-1-2.5,0.3c0,2.9,0,5.9,0,8.8c0.8-0.1,1.6-0.2,2.5-0.3c-0.5-3.3-0.9-6.7-1.4-10c-0.2-1.3-2.1-1.1-2.4,0
				c-1.4,4.5-2.2,9.1-2.5,13.8c-0.1,1.6,2.4,1.6,2.5,0c0.7-7.9,1.4-15.9,2.2-23.8c0.1-1.4-2.2-1.7-2.5-0.3c-1.2,7.5-2.7,15-4.4,22.4
				c-0.2,0.8,0.4,1.5,1.2,1.6c5.7,0.3,5.3-3.6,5.8-8.3c0.5-4.2,0.9-8.3,1.4-12.5c0.4-3.3,1.5-7.4,0.9-10.6c-0.1-0.4-0.5-0.8-0.9-0.9
				c-0.1,0-0.2,0-0.3-0.1c-0.6-0.1-1.1,0.1-1.4,0.6c-0.1,0.1-0.1,0.2-0.2,0.2C206.4,94.3,208.6,95.5,209.5,94.2L209.5,94.2z"/>
		</g>
	</g>
	<g id="XMLID_4_">
		<g id="XMLID_34_">
			<path id="XMLID_38_" class="st1" d="M210.2,89.5c0-2,0-4.1,0-6.1c0-1.6-2.5-1.6-2.5,0c0,1.2,0,2.4,0,3.6c0.8,0,1.7,0,2.5,0
				c0.2-0.8,0.4-1.6,0.7-2.5c-0.8-0.2-1.6-0.4-2.3-0.6c0,7.2,1,14.2,3.2,21.1c2.3,7.2,5.6,14,7.6,21.3c0.4-0.5,0.8-1.1,1.2-1.6
				c-5,0.2-9.3-0.7-13.7-3.1c-1.4-0.8-2.7,1.4-1.3,2.2c4.7,2.6,9.6,3.7,14.9,3.5c0.8,0,1.4-0.8,1.2-1.6c-1.9-6.7-4.7-13-7-19.6
				c-2.5-7.2-3.7-14.5-3.7-22.1c0-1.3-1.7-1.7-2.3-0.6c-0.8,1.3-1,2.2-1,3.7c0,1.6,2.5,1.6,2.5,0c0-1.2,0-2.4,0-3.6
				c-0.8,0-1.7,0-2.5,0c0,2,0,4.1,0,6.1C207.8,91.1,210.2,91.1,210.2,89.5L210.2,89.5z"/>
		</g>
	</g>
	<g id="XMLID_5_">
		<g id="XMLID_41_">
			<path id="XMLID_45_" class="st1" d="M202.1,118.6c-1.6-5.7-3.6-11.2-6.1-16.6c-0.5-1-2-0.7-2.3,0.3c-1.5,5.5-2.9,10.9-4.4,16.4
				c-1.1,4-3.5,9.2-3.4,13.3c0,0.6,0.4,1,0.9,1.2c2,0.8,4.9,0.5,7,0.7c3.3,0.3,6.5,0.5,9.8,0.8c0.6,0,1.3-0.6,1.2-1.2
				c-0.3-2.9-1-5.4-2.2-8.1c-0.5-1.2-2.3-0.5-2.3,0.6c0,2.2,0.2,4.2,0.8,6.4c0.8-0.3,1.5-0.6,2.3-1c-3.3-7.4-5.7-15.2-7.2-23.2
				c-0.8,0.3-1.5,0.6-2.3,1c2.6,5.3,4.3,10.8,5.1,16.7c0.8-0.1,1.6-0.2,2.5-0.3c-1.7-4.7-3.3-9.5-5-14.2c-0.5-1.3-2.4-1.1-2.5,0.3
				c-0.1,6.5,1.3,12.5,4.3,18.3c0.7,1.3,2.7,0.4,2.3-1c-1.5-5.2-3.2-10.3-5.1-15.4c-0.5-1.3-2.4-1.1-2.5,0.3
				c-0.1,5.1,0.6,9.9,2.1,14.8c0.5,1.5,2.7,0.9,2.4-0.7c-1.1-5.5-2.1-11-3.2-16.5c-0.3-1.4-2.5-1.1-2.5,0.3c0.2,5.5-0.1,11-0.9,16.5
				c0.8,0.1,1.6,0.2,2.5,0.3c0.2-3.9,0.5-7.8,0.7-11.7c0.1-1.4-2.1-1.7-2.5-0.3c-1.2,4.3-2.2,8.5-2.9,12.9c0.8,0.1,1.6,0.2,2.5,0.3
				c0.1-2.9,0.5-5.6,1.3-8.4c-0.8-0.2-1.6-0.4-2.4-0.7c-1,3.4-1.7,6.8-2.2,10.3c-0.2,1.1,0.8,1.9,1.8,1.4c3.6-1.7,7.3-2,11.1-1
				c1.4,0.4,2.1-1.5,1-2.3c-2.7-1.9-5.5-3.7-8.4-5.4c-0.8-0.5-1.9,0.1-1.9,1.1c0.2,3.9,4.6,6.1,7.4,8.3c1.2,1,3-0.8,1.8-1.8
				c-2.9-2.3-5.9-3.5-9.6-3.7c-1.2-0.1-1.5,1.4-0.9,2.1c0.8,0.9,0.9,1,1.9,1.7c0-0.7,0-1.4,0-2.2c-0.9,0.3-1.8,0.6-2.7,0.8
				c-1.3,0.1-1.8,2.2-0.3,2.5c2.4,0.4,4.8,0.5,7.3,0.4c1.6-0.1,1.6-2.6,0-2.5c-2.3,0.1-4.3,0-6.6-0.4c-0.1,0.8-0.2,1.6-0.3,2.5
				c1.5-0.1,2.6-0.4,4-1.2c0.9-0.5,0.7-1.6,0-2.2c-0.5-0.4-0.9-0.9-1.4-1.3c-0.3,0.7-0.6,1.4-0.9,2.1c3.1,0.2,5.4,1.1,7.8,3
				c0.6-0.6,1.2-1.2,1.8-1.8c-1.7-1.3-6.5-4.1-6.7-6.5c-0.6,0.4-1.3,0.7-1.9,1.1c2.9,1.7,5.7,3.5,8.4,5.4c0.3-0.8,0.6-1.5,1-2.3
				c-4.6-1.2-8.8-0.8-13.1,1.2c0.6,0.5,1.2,0.9,1.8,1.4c0.5-3.5,1.2-6.9,2.2-10.3c0.5-1.5-2-2.2-2.4-0.7c-0.9,3-1.3,5.9-1.4,9
				c0,1.4,2.2,1.7,2.5,0.3c0.8-4.4,1.8-8.6,2.9-12.9c-0.8-0.1-1.6-0.2-2.5-0.3c-0.2,3.9-0.5,7.8-0.7,11.7c-0.1,1.4,2.2,1.7,2.5,0.3
				c0.8-5.7,1.2-11.4,1-17.1c-0.8,0.1-1.6,0.2-2.5,0.3c1.1,5.5,2.1,11,3.2,16.5c0.8-0.2,1.6-0.4,2.4-0.7c-1.5-4.7-2.1-9.3-2-14.1
				c-0.8,0.1-1.6,0.2-2.5,0.3c1.9,5.1,3.6,10.2,5.1,15.4c0.8-0.3,1.5-0.6,2.3-1c-2.8-5.4-4.1-11-4-17c-0.8,0.1-1.6,0.2-2.5,0.3
				c1.7,4.7,3.3,9.5,5,14.2c0.4,1.2,2.7,1.2,2.5-0.3c-0.8-6.3-2.6-12.3-5.4-18c-0.7-1.3-2.5-0.3-2.3,1c1.6,8.2,4,16.1,7.4,23.8
				c0.6,1.3,2.6,0.4,2.3-1c-0.5-1.9-0.8-3.7-0.7-5.7c-0.8,0.2-1.6,0.4-2.3,0.6c1,2.3,1.5,4.3,1.8,6.8c0.4-0.4,0.8-0.8,1.2-1.2
				c-3.6-0.3-7.1-0.5-10.7-0.8c-1.3-0.1-3.1,0.2-3.8-0.8c-0.8-1.2,0.7-4.1,1-5.4c2-7.4,4-14.8,5.9-22.2c-0.8,0.1-1.5,0.2-2.3,0.3
				c2.4,5.2,4.4,10.5,5.9,16C200.1,120.9,202.5,120.2,202.1,118.6L202.1,118.6z"/>
		</g>
	</g>
	<g id="XMLID_6_">
		<g id="XMLID_48_">
			<path id="XMLID_52_" class="st1" d="M215,156.9c-3.1,6.9-5.6,13.9-7.4,21.3c-0.4,1.6,2,2.2,2.4,0.7c1.8-7.1,4.1-14,7.2-20.7
				C217.9,156.7,215.7,155.5,215,156.9L215,156.9z"/>
		</g>
	</g>
	<g id="XMLID_7_">
		<g id="XMLID_55_">
			<path id="XMLID_59_" class="st1" d="M214.5,157.6c1.5,7.2,3.5,14.2,5.9,21c0.4-0.5,0.8-1.1,1.2-1.6c-4.1,0.2-8,0-12.1-0.5
				c-1.6-0.2-2.3,2.2-0.7,2.4c4.2,0.6,8.4,0.8,12.7,0.6c0.8,0,1.5-0.8,1.2-1.6c-2.4-6.9-4.4-13.9-5.9-21
				C216.6,155.3,214.2,156,214.5,157.6L214.5,157.6z"/>
		</g>
	</g>
	<g id="XMLID_9_">
		<g id="XMLID_62_">
			<path id="XMLID_66_" class="st1" d="M214.1,164c-0.4,4.3-1.2,8.5-2.6,12.6c0.8,0.1,1.6,0.2,2.5,0.3c0.4-4,1.1-7.9,2-11.8
				c0.3-1.4-1.5-2.2-2.3-1c-2.2,3.7-3.8,7.7-4.7,11.9c-0.3,1.3,1.6,2.3,2.3,1c2.3-4.4,4.1-8.9,5.4-13.7c-0.8,0-1.6,0-2.4,0
				c1.2,4.2,1.1,8.4,0.9,12.8c-0.1,1.6,2.4,1.6,2.5,0c0.1-2.4,0.1-4.8-0.2-7.2c-0.2-1.4-2-1.7-2.5-0.3c-0.9,2.5-1.6,9.6,2.3,10.4
				c3.9,0.8,2.5-6,1.5-7.6c-0.6-1-2.5-0.6-2.3,0.6c0.1,1.4,0.4,2.7,0.8,4c0.7-0.4,1.4-0.8,2.1-1.2c-1.2-1.1-2-2.2-2.4-3.8
				c-0.3-1.2-2.2-1.2-2.4,0c-0.4,1.7-0.7,3.4-1.9,4.7c-1,1.2,0.5,2.8,1.8,1.8c0.3-0.2,0.7-0.4,1-0.7c1.2-0.7,0.4-2.8-1-2.3
				c-1.4,0.5-2.7,1-4.1,1.6c-1.5,0.6-0.8,3,0.7,2.4c1.4-0.5,2.7-1,4.1-1.6c-0.3-0.8-0.6-1.5-1-2.3c-0.6,0.4-1,0.6-1.5,1.1
				c0.6,0.6,1.2,1.2,1.8,1.8c1.5-1.7,2-3.7,2.5-5.8c-0.8,0-1.6,0-2.4,0c0.5,2,1.5,3.6,3,4.9c0.9,0.8,2.5,0.1,2.1-1.2
				c-0.3-1.1-0.6-2.2-0.7-3.3c-0.8,0.2-1.6,0.4-2.3,0.6c0.8,1.3,1.2,3,0.3,4.5c0.4-0.2,0.7-0.4,1.1-0.6c-2.1,0.2-0.8-6.5-0.6-7.2
				c-0.8-0.1-1.6-0.2-2.5-0.3c0.3,2.4,0.3,4.8,0.2,7.2c0.8,0,1.7,0,2.5,0c0.2-4.5,0.3-9-1-13.4c-0.3-1.2-2.1-1.2-2.4,0
				c-1.2,4.6-2.9,9-5.2,13.1c0.8,0.3,1.5,0.6,2.3,1c0.8-4,2.3-7.8,4.4-11.3c-0.8-0.3-1.5-0.6-2.3-1c-1,4.1-1.7,8.2-2.1,12.4
				c-0.1,1.5,2,1.6,2.5,0.3c1.4-4.3,2.3-8.7,2.7-13.2C216.7,162.4,214.2,162.4,214.1,164L214.1,164z"/>
		</g>
	</g>
	<g id="XMLID_11_">
		<g id="XMLID_69_">
			<path id="XMLID_73_" class="st1" d="M143.6,195.2c3.8,7.2,7.3,14.6,10.5,22.1c0.4-0.6,0.7-1.3,1.1-1.9c-7,0.3-14,0.3-21,0
				c-1.6-0.1-1.6,2.4,0,2.5c7,0.4,14,0.4,21,0c1,0,1.5-1,1.1-1.9c-3.2-7.5-6.7-14.9-10.5-22.1C145,192.5,142.9,193.7,143.6,195.2
				L143.6,195.2z"/>
		</g>
	</g>
	<g id="XMLID_18_">
		<g id="XMLID_76_">
			<path id="XMLID_80_" class="st1" d="M143,194.2c-4.4,6.9-8.2,14.1-11.4,21.6c-0.5,1.3,0.8,2.5,2,1.5c1.1-1,3.1-0.5,4.5-1.2
				c1.5-0.8,2.1-2.2,2.9-3.7c2.2-4.5,3.7-9.4,4.7-14.3c0.2-1.2-1.1-2-2.1-1.2c-4.5,3.9-6.6,11.8-9,17.2c-0.7,1.4,1.5,2.7,2.2,1.3
				c2.2-4.6,4.5-9,8.2-12.5c-0.7-0.3-1.4-0.6-2.1-0.9c0.2,4.7-1.1,8.8-4,12.5c0.7,0.4,1.4,0.8,2.1,1.2c1.2-5.2,3.1-10.1,5.6-14.7
				c-0.8-0.1-1.5-0.2-2.3-0.3c1.6,5.4,1,10.6-1.6,15.6c0.8,0.1,1.5,0.2,2.3,0.3c-0.9-2.5-1.7-9.2,1-11.2c-0.6-0.2-1.2-0.5-1.8-0.7
				c0.9,3.9-0.2,7.5-3.1,10.3c0.7,0.4,1.4,0.8,2.1,1.2c0.9-3.4,1.9-6.7,2.8-10.1c-0.8-0.1-1.6-0.2-2.5-0.3c0.3,2.9-0.3,8.1,2.4,10
				c0.3,0.2,0.9,0.2,1.3,0c3.1-2,2.1-8.1,2-11.2c-0.8,0-1.7,0-2.5,0c0.4,3.5,1,6.9,2.1,10.3c0.4,1.3,2.6,1.1,2.5-0.3
				c-0.3-3.4-0.9-6.7-1.8-10c-0.8,0.3-1.5,0.6-2.3,1c1.7,2.8,3.1,5.7,4.1,8.8c0.6-0.5,1.2-0.9,1.8-1.4c-2.1-0.9-3.7-2.1-5.2-3.8
				c-1.1-1.2-2.8,0.6-1.8,1.8c1.2,1.4,2.3,2.8,3.3,4.3c0.2-0.6,0.5-1.2,0.7-1.8c-1.3,0.2-2.6,0.3-4,0.2c0,0.8,0,1.7,0,2.5
				c1.3-0.1,2.6,0,3.8,0.4c0-0.8,0-1.6,0-2.4c-1.2,0.4-2.4,0.7-3.6,0.9c-1.4,0.2-1.1,2.6,0.3,2.5c1.9-0.1,3.7-0.4,5.5-0.7
				c1.6-0.3,0.9-2.7-0.7-2.4c-1.6,0.3-3.2,0.5-4.9,0.6c0.1,0.8,0.2,1.6,0.3,2.5c1.3-0.2,2.4-0.5,3.6-0.9c1.1-0.4,1.3-2.1,0-2.4
				c-1.6-0.4-2.9-0.5-4.5-0.5c-1.6,0.1-1.6,2.4,0,2.5c1.6,0.1,3.1,0,4.6-0.3c0.8-0.1,1.2-1.2,0.7-1.8c-1.2-1.7-2.4-3.2-3.7-4.8
				c-0.6,0.6-1.2,1.2-1.8,1.8c1.7,1.8,3.4,3.1,5.7,4.2c0.9,0.4,2.2-0.3,1.8-1.4c-1.2-3.3-2.6-6.4-4.4-9.4c-0.7-1.2-2.7-0.4-2.3,1
				c0.8,3.1,1.4,6.2,1.7,9.3c0.8-0.1,1.6-0.2,2.5-0.3c-0.9-3.2-1.6-6.3-2-9.6c-0.2-1.6-2.5-1.6-2.5,0c0,2.6-0.1,5.2,0,7.7
				c0.1,2-0.2-2.2-0.3-2.7c-0.1-1.3-0.3-2.5-0.4-3.8c-0.1-1.4-2.1-1.8-2.5-0.3c-0.9,3.4-1.9,6.7-2.8,10.1c-0.3,1.2,1.2,2.1,2.1,1.2
				c3.6-3.5,4.9-7.9,3.8-12.8c-0.2-0.7-1.2-1.2-1.8-0.7c-3.8,2.8-3.6,9.9-2.2,14c0.3,0.9,1.8,1.3,2.3,0.3c2.9-5.6,3.6-11.4,1.8-17.5
				c-0.3-1-1.8-1.3-2.3-0.3c-2.6,4.9-4.6,9.9-5.9,15.3c-0.3,1.1,1.3,2.3,2.1,1.2c3.3-4.2,5-8.9,4.8-14.3c0-1.1-1.3-1.6-2.1-0.9
				c-3.9,3.7-6.3,8.2-8.6,13c0.7,0.4,1.4,0.8,2.2,1.3c1.3-2.9,2.6-5.7,3.9-8.6c1.3-2.8,2.3-6,4.7-8.1c-0.7-0.4-1.4-0.8-2.1-1.2
				c-0.9,4.5-2.2,8.9-4.1,13c-1.6,3.5-4.8,2.8-7.3,5c0.7,0.5,1.3,1,2,1.5c3.3-7.5,7-14.7,11.4-21.6C146,194.1,143.8,192.9,143,194.2
				L143,194.2z"/>
		</g>
	</g>
	<g id="XMLID_25_">
		<g id="XMLID_83_">
			<path id="XMLID_87_" class="st1" d="M155.4,187.7c-1.4,5.7-5.7,10-6.9,15.8c-0.3,1.6,2.1,2.2,2.4,0.7c1.3-5.7,5.5-10.1,6.9-15.8
				C158.2,186.8,155.8,186.1,155.4,187.7L155.4,187.7z"/>
		</g>
	</g>
	<g id="XMLID_32_">
		<g id="XMLID_90_">
			<path id="XMLID_94_" class="st1" d="M155.7,187.3c1.3,5.9,4.6,11.4,7.1,16.8c0.4-0.6,0.7-1.3,1.1-1.9c-1.8,0-12.9-1-13.4,0.8
				c0.5-1.5-1.9-2.2-2.4-0.7c-0.6,1.9,1.2,2.3,2.7,2.4c4.4,0.2,8.8,0,13.2,0c1,0,1.5-1,1.1-1.9c-2.4-5.2-5.6-10.5-6.9-16.2
				C157.7,185.1,155.3,185.8,155.7,187.3L155.7,187.3z"/>
		</g>
	</g>
	<g id="XMLID_39_">
		<g id="XMLID_97_">
			<path id="XMLID_101_" class="st1" d="M157.7,193.4c0-0.1,0-0.1,0-0.2c-0.2,0.5-0.4,0.9-0.6,1.4c0.1,0,0.1-0.1,0.2-0.1
				c-0.5-0.1-1-0.1-1.5-0.2c-0.2-0.6-0.2-0.6-0.2-0.1c0,0.3,0,0.6-0.1,0.9c-0.1,0.6-0.2,1.3-0.4,1.9c-0.2,0.7-0.5,1.3-0.9,1.9
				c-0.1,0.2-1.3,1.8,0.2,1.5c0.3-0.1,1-2.8,1.1-3.2c0.5-1.3,1.1-2.5,1.8-3.7c-0.7-0.4-1.4-0.8-2.2-1.3c-1.6,3.4-3.3,6.7-4.9,10.1
				c-0.5,1,0.3,2.1,1.4,1.8c1.9-0.5,2.9-2.4,3.8-4.1c1.1-2.1,1.8-4.3,2.2-6.6c-0.8,0.1-1.5,0.2-2.3,0.3c0.9,2.2,1.5,4.5,1.8,6.9
				c0.8-0.2,1.6-0.4,2.3-0.6c-0.9-1.2-1.4-2.5-1.5-4c-0.7,0.3-1.4,0.6-2.1,0.9c0.7,0.7,1.3,1.5,1.9,2.3c0.2,0.3,0.4,0.6,0.6,0.9
				c0.4,0.7,0.5,0.9,0.3,0.5c0.2-0.4,0.4-0.7,0.6-1.1c-0.8,0.5-2.3,0.2-3.1,0c-0.2,0.8-0.4,1.6-0.7,2.4c1.2,0.3,2.3,0.6,3.4,1.2
				c-0.1-0.6-0.3-1.1-0.4-1.7c-0.4-0.1-0.8-0.2-1.2-0.3c-0.3-0.5-0.4-1.1-0.2-1.6c0-0.4,0.1-1.3,0.4-1.6c0.4-0.4-0.1-0.4,0.5,0.1
				c0.4,0.4,0.8,1.1,1,1.6c0.2,0.5,0.5,1,0.6,1.5c0.1,0.3,0.2,0.6,0.3,0.9c0-0.1,0.1-0.2,0.1-0.3c-0.8,0.3-2.9-0.7-3.6-1
				c-1.5-0.5-2.2,1.9-0.7,2.4c1.8,0.6,7,2.7,6.7-1c-0.2-2.3-2.1-7-4.8-7.3c-2.9-0.4-3.5,4.8-2.9,6.7c0.9,2.7,4.2,3.4,5.9,1.1
				c0.4-0.5,0.1-1.4-0.4-1.7c-1.3-0.7-2.6-1.2-4-1.5c-1.6-0.3-2.2,2-0.7,2.4c1.5,0.4,5.2,1,5.6-1.2c0.4-1.8-2.4-4.4-3.5-5.7
				c-0.7-0.8-2.2-0.2-2.1,0.9c0.1,1.9,0.7,3.7,1.8,5.3c0.6,0.9,2.5,0.7,2.3-0.6c-0.3-2.9-1-5.5-2.2-8.2c-0.4-1-2.1-0.7-2.3,0.3
				c-0.3,1.6-0.7,3.1-1.3,4.6c-0.5,1.2-1.5,4-2.9,4.4c0.5,0.6,0.9,1.2,1.4,1.8c1.6-3.4,3.3-6.7,4.9-10.1c0.7-1.4-1.4-2.7-2.2-1.3
				c-0.8,1.5-6,10.7-1.4,10.4c1.8-0.1,2.9-3,3.5-4.4c0.6-1.6,1.5-4.2,0.3-5.7c-0.4-0.5-1.1-0.4-1.5-0.2c-0.1,0-0.1,0.1-0.2,0.1
				c-0.5,0.2-0.7,0.9-0.6,1.4c0,0.1,0,0.1,0,0.2C155.8,195.6,158.2,194.9,157.7,193.4L157.7,193.4z"/>
		</g>
	</g>
	<g id="XMLID_46_">
		<g id="XMLID_104_">
			<path id="XMLID_108_" class="st1" d="M145.1,202.4c1,1.2,1.9,2.5,2.7,3.9c0.6,1,2.4,0.6,2.3-0.6c0-0.9-0.3-1.8-0.8-2.5
				c-0.9-1.3-3.1-0.1-2.2,1.3c0.3,0.4,0.4,0.8,0.4,1.2c0.8-0.2,1.6-0.4,2.3-0.6c-0.9-1.5-1.9-3-3-4.4c-0.4-0.5-1.3-0.4-1.8,0
				C144.6,201.1,144.7,201.8,145.1,202.4L145.1,202.4z"/>
		</g>
	</g>
	<g id="XMLID_53_">
		<g id="XMLID_111_">
			<path id="XMLID_115_" class="st1" d="M128.1,173.9c1.5,6.5,3,13.1,4.7,19.6c0.3-0.5,0.6-1,0.9-1.5c-3.1,0.5-6,0.5-9.1,0
				c-1.6-0.2-2.3,2.2-0.7,2.4c3.5,0.5,6.9,0.5,10.4,0c0.7-0.1,1-0.9,0.9-1.5c-1.7-6.5-3.3-13-4.7-19.6
				C130.1,171.6,127.7,172.3,128.1,173.9L128.1,173.9z"/>
		</g>
	</g>
	<g id="XMLID_60_">
		<g id="XMLID_118_">
			<path id="XMLID_122_" class="st1" d="M128,173.2c-1.1,6.7-2.7,13.2-4.7,19.7c-0.4,1.3,1.7,2.3,2.3,1c1.8-4.2,3.7-8.3,5.5-12.5
				c-0.8-0.2-1.6-0.4-2.3-0.6c-0.4,4.1-0.6,8.1-0.5,12.2c0,1.6,2.5,1.6,2.5,0c0-1.9,0-3.8,0-5.6c0-1.5-2-1.6-2.5-0.3
				c-0.4,1-0.5,3.7-1.6,4c0.5,0.4,1.1,0.8,1.6,1.2c0.2-1.5,0.5-2.8,1.1-4.2c-0.8-0.1-1.6-0.2-2.5-0.3c-0.1,2.1,0.2,5.7,2.9,6.1
				c3.1,0.4,2.8-4.2,2.5-6.1c-0.2-1.4-2.5-1.1-2.5,0.3c0,1.1,0.1,1.3,0.3,2.3c0.8-0.2,1.6-0.4,2.4-0.7c-0.1-0.3-0.2-0.7-0.3-1
				c-0.8,0.2-1.6,0.4-2.4,0.7c0.1,0.3,0.3,0.7,0.4,1c0.6,1.5,3,0.8,2.4-0.7c-0.1-0.3-0.3-0.7-0.4-1c-0.6-1.4-2.9-0.9-2.4,0.7
				c0.1,0.3,0.2,0.7,0.3,1c0.5,1.5,2.8,0.9,2.4-0.7c-0.1-0.6-0.2-1.1-0.3-1.7c-0.8,0.1-1.6,0.2-2.5,0.3c-0.3,2.1-0.5,2.4-0.5,1
				c-0.1-0.6-0.1-1.1,0-1.7c0.1-1.5-2-1.6-2.5-0.3c-0.6,1.6-0.9,3.2-1.1,4.9c-0.1,0.8,0.9,1.4,1.6,1.2c3-0.8,2.5-3.3,3.4-5.8
				c-0.8-0.1-1.6-0.2-2.5-0.3c0.1,1.9,0.1,3.7,0,5.6c0.8,0,1.7,0,2.5,0c0-4.1,0.2-8.2,0.5-12.2c0.1-1.2-1.8-1.8-2.3-0.6
				c-1.8,4.2-3.7,8.3-5.5,12.5c0.8,0.3,1.5,0.6,2.3,1c2-6.5,3.6-13,4.7-19.7C130.6,172.3,128.2,171.6,128,173.2L128,173.2z"/>
		</g>
	</g>
	<g id="XMLID_67_">
		<g id="XMLID_125_">
			<path id="XMLID_129_" class="st1" d="M170.8,223c-3,10.2-7,20.6-7.9,31.2c-0.1,1.6,2.4,1.6,2.5,0c0.9-10.4,4.9-20.6,7.8-30.6
				C173.7,222.1,171.3,221.5,170.8,223L170.8,223z"/>
		</g>
	</g>
	<g id="XMLID_74_">
		<g id="XMLID_132_">
			<path id="XMLID_136_" class="st1" d="M171.3,223.9c3.4,10.2,7.1,20.3,11,30.3c0.4-0.5,0.8-1.1,1.2-1.6
				c-6.2-0.6-12.4-0.7-18.7-0.4c0.4,0.5,0.8,1.1,1.2,1.6c3.3-8,6.4-15.9,6.5-24.6c0-1.5-2-1.6-2.5-0.3c-2.5,7.4-4.4,14.9-5.6,22.6
				c-0.2,1.1,1.2,2.3,2.1,1.2c5.2-6.1,6.1-16.4,7.3-24.1c-0.8-0.1-1.6-0.2-2.5-0.3c-0.1,7.4-0.3,14.7-0.4,22.1c0,1.6,2.4,1.6,2.5,0
				c0.4-5.4,0.8-10.9,1.2-16.3c-0.8,0-1.7,0-2.5,0c0.6,5.9,1.3,11.8,1.9,17.7c0.2,1.6,2.6,1.6,2.5,0c-0.3-5.8-0.8-11.6-1.6-17.4
				c-0.8,0.2-1.6,0.4-2.4,0.7c1.2,6.1,2.5,12.1,3.9,18.2c0.8-0.2,1.6-0.4,2.4-0.7c-1.2-4.8-2.4-9.6-3.5-14.5c-0.8,0.3-1.5,0.6-2.3,1
				c2.1,4.3,4,8.6,5.7,13.1c0.8-0.3,1.5-0.6,2.3-1c-3.1-5.1-5.3-10.5-6.4-16.4c-0.8,0.2-1.6,0.4-2.4,0.7c2,5.4,4.1,10.6,6.5,15.9
				c0.5,1.1,2.5,0.6,2.3-0.6c-0.9-7.6-3.4-14.4-7.6-20.7c-0.8-1.2-2.6-0.4-2.3,1c1.6,7.2,3.2,14.4,4.8,21.7c0.8-0.3,1.5-0.6,2.3-1
				c-1.9-3.6-3.8-7.2-5.7-10.7c-0.5-0.9-2.1-0.8-2.3,0.3c-0.6,3.8-0.7,7.3-0.2,11.1c0.2,1.6,2.3,1.6,2.5,0c0.5-3.5,0.6-6.9,0.3-10.4
				c-0.1-1.5-1.9-1.6-2.5-0.3c-1.6,3.8-2.7,7.6-3.4,11.7c-0.3,1.6,2,2.2,2.4,0.7c1-3.8,1.7-7.6,2-11.5c0.1-1.5-2-1.5-2.5-0.3
				c-1.4,3.7-2.6,7.4-3.6,11.3c-0.3,1.1,1.3,2.2,2.1,1.2c0.6-0.7,1.1-1.4,1.8-2c1-1.4,2.2-1.8,3.8-1.5c0.5,0.7,1,1.3,1.5,2
				c0.7-0.6,0.7-0.7,1.2-1.5c0.3-0.6,0.1-1.3-0.4-1.7c-2.1-1.5-3.5-3.1-4.7-5.3c-0.5-1-2-0.7-2.3,0.3c-1,3.4-2,6.7-3,10.1
				c0.8,0.2,1.6,0.4,2.4,0.7c0.7-4.1,1.3-8.3,2-12.4c0.2-1.3-1.6-2.4-2.3-1c-1.8,4-3.4,8-4.7,12.2c0.8,0.2,1.6,0.4,2.4,0.7
				c0.7-2.8,1.4-5.7,2.1-8.5c0.3-1.3-1.6-2.3-2.3-1c-1.5,3.2-2.9,6.4-4,9.7c-0.5,1.5,1.9,2.2,2.4,0.7c1.1-3.1,2.3-6.1,3.8-9.1
				c-0.8-0.3-1.5-0.6-2.3-1c-0.7,2.8-1.4,5.7-2.1,8.5c-0.4,1.6,1.9,2.2,2.4,0.7c1.2-4,2.7-7.8,4.4-11.6c-0.8-0.3-1.5-0.6-2.3-1
				c-0.7,4.1-1.3,8.3-2,12.4c-0.3,1.6,1.9,2.2,2.4,0.7c1-3.4,2-6.7,3-10.1c-0.8,0.1-1.5,0.2-2.3,0.3c1.5,2.6,3.2,4.5,5.6,6.2
				c-0.1-0.6-0.3-1.1-0.4-1.7c-0.3,0.3-0.5,0.7-0.8,1c-1.1,0.9,0.3,2.7,1.5,2c1.3-0.8,1.9-1.6,2.4-3c0.2-0.5-0.1-1.2-0.6-1.4
				c-4.4-1.9-7.6,0.6-10.4,4c0.7,0.4,1.4,0.8,2.1,1.2c1-3.8,2.2-7.6,3.6-11.3c-0.8-0.1-1.6-0.2-2.5-0.3c-0.3,3.7-1,7.3-2,10.8
				c0.8,0.2,1.6,0.4,2.4,0.7c0.7-4.1,1.8-7.9,3.4-11.7c-0.8-0.1-1.6-0.2-2.5-0.3c0.3,3.5,0.2,6.9-0.3,10.4c0.8,0,1.7,0,2.5,0
				c-0.5-3.6-0.5-6.9,0.1-10.4c-0.8,0.1-1.5,0.2-2.3,0.3c1.9,3.6,3.8,7.2,5.7,10.7c0.7,1.3,2.6,0.4,2.3-1
				c-1.6-7.2-3.2-14.4-4.8-21.7c-0.8,0.3-1.5,0.6-2.3,1c4,5.9,6.4,12.4,7.3,19.5c0.8-0.2,1.6-0.4,2.3-0.6c-2.3-5-4.3-10.1-6.2-15.3
				c-0.6-1.5-2.7-0.9-2.4,0.7c1.2,6.1,3.4,11.7,6.7,17c0.7,1.2,2.8,0.4,2.3-1c-1.7-4.7-3.7-9.2-5.9-13.7c-0.6-1.3-2.6-0.4-2.3,1
				c1.2,4.8,2.4,9.6,3.5,14.5c0.4,1.6,2.8,0.9,2.4-0.7c-1.4-6-2.7-12.1-3.9-18.2c-0.3-1.6-2.6-0.9-2.4,0.7
				c0.8,5.6,1.3,11.1,1.5,16.7c0.8,0,1.7,0,2.5,0c-0.6-5.9-1.3-11.8-1.9-17.7c-0.2-1.6-2.4-1.6-2.5,0c-0.4,5.4-0.8,10.9-1.2,16.3
				c0.8,0,1.7,0,2.5,0c0.1-7.4,0.3-14.7,0.4-22.1c0-1.4-2.2-1.8-2.5-0.3c-1.1,6.9-1.9,17.4-6.6,23c0.7,0.4,1.4,0.8,2.1,1.2
				c1.2-7.7,3-15.2,5.6-22.6c-0.8-0.1-1.6-0.2-2.5-0.3c-0.1,8.5-3.2,16.2-6.4,24c-0.3,0.7,0.5,1.6,1.2,1.6
				c6.3-0.4,12.5-0.3,18.7,0.4c0.8,0.1,1.5-0.9,1.2-1.6c-3.9-10-7.6-20.1-11-30.3C173.2,221.7,170.8,222.4,171.3,223.9L171.3,223.9z
				"/>
		</g>
	</g>
	<g id="XMLID_81_">
		<g id="XMLID_139_">
			<path id="XMLID_143_" class="st1" d="M49,79.6c2.2,9.1,5.3,17.8,9.4,26.2c0.4-0.6,0.7-1.3,1.1-1.9c-5.7,0.3-11.4,0.7-17.1,1
				c-1.6,0.1-1.6,2.6,0,2.5c5.7-0.3,11.4-0.7,17.1-1c1-0.1,1.5-1,1.1-1.9c-4-8.2-7-16.7-9.1-25.6C51,77.4,48.6,78,49,79.6L49,79.6z"
				/>
		</g>
	</g>
	<g id="XMLID_88_">
		<g id="XMLID_146_">
			<path id="XMLID_150_" class="st1" d="M47.1,78.9c-1.3,9.2-3.2,18.4-5.7,27.3c0.8,0.2,1.6,0.4,2.4,0.7c1.7-7.7,5.5-14.7,6.8-22.5
				c-0.8-0.1-1.6-0.2-2.5-0.3c-0.9,7.6-2.3,15.2-4.2,22.6c0.8,0.2,1.6,0.4,2.4,0.7c1.3-5.5,3-10.8,5.2-16c-0.8-0.1-1.6-0.2-2.5-0.3
				c-0.1,4.3-0.7,8.4-2.1,12.5c0.8,0.1,1.6,0.2,2.5,0.3c0.2-3.9,0.6-7.7,1.5-11.6c-0.8,0-1.6,0-2.4,0c0.8,4.2,0.4,8.1-1.3,12
				c0.8,0.2,1.6,0.4,2.3,0.6c-0.4-5.4,0.1-10.5,1.6-15.7c-0.8,0-1.6,0-2.4,0c0.9,4.9,1.3,9.7,1.1,14.7c0.8-0.1,1.6-0.2,2.5-0.3
				c-1.3-4.1-1.8-8.1-1.2-12.5c-0.8,0-1.6,0-2.4,0c1.5,4.5,2.4,9,2.7,13.7c0.8-0.1,1.6-0.2,2.5-0.3c-0.8-4.5-1.2-8.9-1.3-13.4
				c-0.8,0.1-1.6,0.2-2.5,0.3c1.2,4.4,2.2,8.7,3.1,13.2c0.8-0.2,1.6-0.4,2.4-0.7c-1.2-3.6-2-7.2-2.4-10.9c-0.8,0.2-1.6,0.4-2.3,0.6
				c1.4,3.3,2.4,6.5,3,10c0.8-0.2,1.6-0.4,2.4-0.7c-1-2.5-1.7-5-2.1-7.7c-0.8,0.3-1.5,0.6-2.3,1c1.4,2.6,2.9,5.2,4.3,7.8
				c0.6-0.6,1.1-1.1,1.7-1.7c-5.1-2.6-5.4-10.8-6.2-15.8c-0.2-1.4-2.6-1.1-2.5,0.3c0.3,3.1,0.8,6.2,1.5,9.3c0.4,1.6,2.8,0.9,2.4-0.7
				c-1.5-7.1-2.7-14.2-3.3-21.4c-0.2-1.6-2.3-1.6-2.5,0c-0.5,4.1-0.9,8.1-1.1,12.2c-0.1,1.6,2.4,1.6,2.5,0c0.2-4.1,0.6-8.2,1.1-12.2
				c-0.8,0-1.7,0-2.5,0c0.7,7.4,1.8,14.7,3.4,22c0.8-0.2,1.6-0.4,2.4-0.7c-0.7-2.9-1.1-5.7-1.4-8.6c-0.8,0.1-1.6,0.2-2.5,0.3
				c0.9,5.7,1.5,14.3,7.4,17.3c1.1,0.6,2.3-0.6,1.7-1.7c-1.4-2.6-2.9-5.2-4.3-7.8c-0.7-1.3-2.5-0.4-2.3,1c0.4,2.7,1.1,5.2,2.1,7.7
				c0.6,1.5,2.7,0.9,2.4-0.7c-0.7-3.7-1.8-7.2-3.3-10.6c-0.5-1.1-2.5-0.6-2.3,0.6c0.5,4,1.3,7.8,2.5,11.6c0.5,1.5,2.7,0.9,2.4-0.7
				c-0.9-4.4-1.9-8.8-3.1-13.2c-0.4-1.3-2.5-1.1-2.5,0.3c0.1,4.7,0.5,9.4,1.4,14.1c0.2,1.4,2.6,1.1,2.5-0.3
				c-0.3-4.9-1.3-9.7-2.8-14.4c-0.3-1-2.2-1.3-2.4,0c-0.6,4.8-0.3,9.2,1.2,13.8c0.4,1.3,2.4,1.1,2.5-0.3c0.2-5.2-0.2-10.3-1.2-15.4
				c-0.2-1.3-2.1-1.1-2.4,0c-1.6,5.4-2.2,10.7-1.7,16.3c0.1,1.1,1.8,1.9,2.3,0.6c2-4.6,2.5-9,1.6-13.9c-0.2-1.2-2.2-1.2-2.4,0
				c-0.9,4.1-1.4,8.1-1.6,12.2c-0.1,1.5,2,1.6,2.5,0.3c1.4-4.3,2.1-8.6,2.2-13.1c0-1.5-1.9-1.6-2.5-0.3c-2.2,5.2-3.9,10.5-5.2,16
				c-0.4,1.6,2,2.2,2.4,0.7c2-7.7,3.4-15.4,4.3-23.3c0.2-1.4-2.2-1.7-2.5-0.3c-1.3,7.8-5.1,14.8-6.8,22.5c-0.3,1.6,2,2.2,2.4,0.7
				c2.5-9,4.4-18.1,5.7-27.3C49.8,78,47.4,77.3,47.1,78.9L47.1,78.9z"/>
		</g>
	</g>
	<g id="XMLID_95_">
		<g id="XMLID_153_">
			<path id="XMLID_157_" class="st1" d="M60,96.2c-1.8,6.1-3.7,12.1-5.8,18.1c-0.5,1.5,1.9,2.2,2.4,0.7c2.1-6,4-12,5.8-18.1
				C62.9,95.3,60.4,94.6,60,96.2L60,96.2z"/>
		</g>
	</g>
	<g id="XMLID_102_">
		<g id="XMLID_160_">
			<path id="XMLID_164_" class="st1" d="M60.2,97.1c3.2,6.1,6.8,11.9,10.9,17.5c0.4-0.6,0.7-1.3,1.1-1.9c-6,0.6-11.9,1.2-17.9,1.9
				c0.4,0.5,0.8,1.1,1.2,1.6c1.8-5.2,3.7-10.3,6.5-15c-0.8-0.3-1.5-0.6-2.3-1c-1.4,4.6-2.7,9.3-3.9,13.9c-0.4,1.6,1.9,2.2,2.4,0.7
				c1.3-4.2,2.4-8.4,3.4-12.6c-0.8-0.1-1.6-0.2-2.5-0.3c-0.1,3.4-0.4,6.7-1.2,10.1c-0.4,1.6,1.9,2.2,2.4,0.7
				c0.9-2.7,1.9-5.4,2.8-8.1c-0.8,0-1.6,0-2.4,0c0.5,2.7,0.1,4.9-1.1,7.3c0.8,0.1,1.5,0.2,2.3,0.3c-0.2-1.1-0.3-2.3-0.3-3.4
				c0-0.7,0-5,0.3-2.6c0.3,2.3,0.2,6.1-2.1,7.5c0.6,0.2,1.2,0.5,1.8,0.7c-0.4-1.1-1.7-9.5,0.4-9.5c1.4,0.1,0.6,8.2,0.5,9.1
				c0.6-0.2,1.2-0.5,1.8-0.7c-2.6-1.2-1.5-7.5-1-9.5c-0.7,0.2-1.4,0.4-2.1,0.6c2.2,2.6,2.9,5.8,3.5,9c0.8-0.3,1.5-0.6,2.3-1
				c-0.9-1.7-1.6-3.5-2.2-5.4c-0.7,0.4-1.4,0.8-2.1,1.2c1.5,1.6,2.8,3.2,4.1,4.9c0.5-0.6,0.9-1.2,1.4-1.8c-0.3-0.1-0.5-0.1-0.8-0.2
				c-0.2,0.8-0.4,1.6-0.7,2.4c0.4,0.1,0.9,0.3,1.3,0.4c0.3-0.8,0.6-1.5,1-2.3c-3.9-1.4-7.7-1.3-11.6,0.1c0.4,0.7,0.8,1.4,1.2,2.1
				c4.4-3.4,5.9-8.8,3.3-13.8c-0.7,0.4-1.4,0.8-2.2,1.3c1.9,3.7,4.1,7.3,6.4,10.9c0.9,1.3,3.1,0.1,2.2-1.3
				c-2.3-3.5-4.5-7.1-6.4-10.9c-0.7-1.4-2.9-0.2-2.2,1.3c2.1,4.1,0.5,8.1-2.9,10.8c-1,0.8,0.1,2.5,1.2,2.1c3.5-1.3,6.7-1.4,10.2-0.1
				c1.3,0.5,2.2-1.6,1-2.3c-0.9-0.4-0.9-0.5-1.9-0.6c-1.5-0.2-2.3,2-0.7,2.4c0.3,0.1,0.5,0.1,0.8,0.2c1,0.2,2.1-0.9,1.4-1.8
				c-1.4-1.9-2.8-3.7-4.4-5.4c-0.9-0.9-2.4,0-2.1,1.2c0.6,2.1,1.4,4,2.4,6c0.7,1.3,2.6,0.4,2.3-1c-0.8-3.7-1.7-7.1-4.2-10.1
				c-0.6-0.7-1.9-0.3-2.1,0.6c-0.8,3.3-1.7,10.5,2.2,12.3c0.7,0.3,1.7,0.1,1.8-0.7c0.4-2.3,1.5-13.4-3.1-12.6
				c-4.7,0.8-3.7,10.1-2.6,13c0.3,0.7,1.1,1.2,1.8,0.7c2.2-1.3,3-3.4,3.3-5.9c0.2-2.3,0.4-6.7-2-8c-0.4-0.2-0.9-0.3-1.3,0
				c-2.9,2-2.1,8-1.7,11c0.2,1.1,1.8,1.2,2.3,0.3c1.5-3,2-5.9,1.4-9.2c-0.2-1.3-2-1.1-2.4,0c-0.9,2.7-1.9,5.4-2.8,8.1
				c0.8,0.2,1.6,0.4,2.4,0.7c0.8-3.6,1.2-7.1,1.3-10.8c0-1.4-2.1-1.7-2.5-0.3c-1,4.3-2.1,8.5-3.4,12.6c0.8,0.2,1.6,0.4,2.4,0.7
				c1.2-4.7,2.5-9.3,3.9-13.9c0.4-1.4-1.6-2.2-2.3-1c-2.9,4.9-4.9,10.3-6.8,15.6c-0.2,0.7,0.4,1.7,1.2,1.6
				c5.9-0.7,11.9-1.4,17.9-1.9c0.8-0.1,1.7-1,1.1-1.9c-4.1-5.5-7.7-11.3-10.9-17.5C61.6,94.4,59.5,95.7,60.2,97.1L60.2,97.1z"/>
		</g>
	</g>
	<g id="XMLID_109_">
		<g id="XMLID_167_">
			<path id="XMLID_171_" class="st1" d="M24.4,123.5c2.8,4.7,5.7,9.5,8.5,14.2c0.4-0.6,0.7-1.3,1.1-1.9c-5.1,0-10.2,0-15.3,0
				c-1.6,0-1.6,2.5,0,2.5c5.1,0,10.2,0,15.3,0c0.9,0,1.6-1.1,1.1-1.9c-2.8-4.7-5.7-9.5-8.5-14.2C25.7,120.8,23.6,122.1,24.4,123.5
				L24.4,123.5z"/>
		</g>
	</g>
	<g id="XMLID_123_">
		<g id="XMLID_181_">
			<path id="XMLID_185_" class="st1" d="M38.3,147.4c-0.2,0.8-0.5,1.4-1.2,2c-0.5,0.4-0.4,1.3,0,1.8c0.5,0.5,1.2,0.4,1.8,0
				c0.9-0.8,1.6-1.9,1.8-3.1c0.1-0.7-0.2-1.3-0.9-1.5C39.2,146.4,38.4,146.8,38.3,147.4L38.3,147.4z"/>
		</g>
	</g>
	<g id="XMLID_130_">
		<g id="XMLID_188_">
			<path id="XMLID_192_" class="st1" d="M37.5,146.9c-2.6,11.9-4.6,24-5.9,36.1c-0.2,1.6,2.3,1.6,2.5,0c1.3-11.9,3.2-23.7,5.8-35.4
				C40.3,146,37.9,145.3,37.5,146.9L37.5,146.9z"/>
		</g>
	</g>
	<g id="XMLID_137_">
		<g id="XMLID_195_">
			<path id="XMLID_199_" class="st1" d="M37.9,147.3c4.9,11.8,9.5,23.6,13.8,35.6c0.4-0.5,0.8-1.1,1.2-1.6
				c-6.9-0.2-13.7,0.1-20.6,0.9c-1.6,0.2-1.6,2.7,0,2.5c6.9-0.8,13.7-1.1,20.6-0.9c0.8,0,1.5-0.8,1.2-1.6
				c-4.3-12-8.9-23.8-13.8-35.6C39.7,145.2,37.3,145.8,37.9,147.3L37.9,147.3z"/>
		</g>
	</g>
	<g id="XMLID_144_">
		<g id="XMLID_202_">
			<path id="XMLID_206_" class="st1" d="M38,156c0.4,7.9,0.4,15.7-0.2,23.5c0.8,0,1.7,0,2.5,0c-0.6-6.3-0.7-12.6-0.7-18.9
				c0-1.6-2.4-1.6-2.5,0c-0.3,6.8-0.6,13.6-1,20.3c0.8,0,1.7,0,2.5,0c-0.2-5.6-0.2-11.2-0.2-16.8c0-1.4-2.1-1.7-2.5-0.3
				c-1.4,5.4-2,10.7-2,16.3c0,1.7,2.3,1.5,2.5,0c0.2-1.7,0.5-3.5,0.7-5.2c-0.8,0-1.7,0-2.5,0c0.1,2.6-0.1,5-0.4,7.6
				c-0.2,1.5,2,1.5,2.5,0.3c1.4-3.5,5.2-3,8-2.6c0.8,0.1,1.5-0.9,1.2-1.6c-1.2-3.1-2.2-6.2-2.9-9.5c-0.8,0.2-1.6,0.4-2.4,0.7
				c1.2,3.6,2,7.3,2.6,11.1c0.8-0.2,1.6-0.4,2.4-0.7c-0.6-3.8-0.9-7.6-0.7-11.5c-0.8,0.2-1.6,0.4-2.3,0.6c2,3.4,2.4,7,2.8,10.9
				c0.8-0.1,1.6-0.2,2.5-0.3c-1.3-3.8-1.8-7.6-1.6-11.6c-0.8,0.2-1.6,0.4-2.3,0.6c2.3,3.7,3.6,7.4,3.9,11.8c0.8-0.2,1.6-0.4,2.3-0.6
				c-1-1.5-1.6-3.2-1.6-5c-0.8,0.2-1.6,0.4-2.3,0.6c2.2,3.5-3.8,6.6-5.4,0.7c-0.6-2.1-0.1-5,0.1-7.2c-0.8,0.1-1.6,0.2-2.5,0.3
				c0.8,3.7,1.2,7.3,1.3,11.1c0.8-0.1,1.6-0.2,2.5-0.3c-0.7-2.7-0.6-4.4,0.1-7.1c-0.8,0-1.6,0-2.4,0c-0.1-0.3,1.3,8.8-1.8,6.5
				c-0.3,0.8-0.6,1.5-1,2.3c4.1,1.1,7.1-1.2,7.2-5.5c-0.6,0.4-1.3,0.7-1.9,1.1c3.4,1.6,5.4,5.4,9.2,5.8c1,0.1,1.5-1.1,1.1-1.9
				c-2.9-5.3-7.5-8.5-9-14.7c-1.3-5.5-2.6-10.5-5.3-15.5c-0.5-0.9-2.1-0.8-2.3,0.3c-0.9,4.1-1,8.1-0.4,12.2c0.2,1.3,2.1,1.1,2.4,0
				c1.3-4.3,1.5-8.6,1.5-13.1c-0.8,0.1-1.6,0.2-2.5,0.3c1.9,6.4,3.8,12.8,5.8,19.2c0.4,1.3,2.6,1.1,2.5-0.3
				c-0.5-5.2-1.5-10.3-3.1-15.3c-0.4-1.2-2.1-1.2-2.4,0c-1.5,5,1.3,11.6,2.4,16.6c0.8-0.3,1.5-0.6,2.3-1c-1.2-2.2-2-4.4-2.5-6.8
				c-0.3-1.4-2.5-1.1-2.5,0.3c0,2.6,0.3,5.2,0.7,7.7c0.2,1.4,2.5,1,2.5-0.3c0-2.4-0.2-4.6-0.7-6.9c-0.3-1.4-2.6-1.1-2.5,0.3
				c0.1,1.2,0.2,2.5,0.4,3.7c0.2,1.6,2.7,1.6,2.5,0c-0.1-1.2-0.2-2.5-0.4-3.7c-0.8,0.1-1.6,0.2-2.5,0.3c0.4,2.2,0.6,4.1,0.6,6.3
				c0.8-0.1,1.6-0.2,2.5-0.3c-0.4-2.4-0.6-4.6-0.6-7.1c-0.8,0.1-1.6,0.2-2.5,0.3c0.6,2.7,1.5,5,2.8,7.4c0.7,1.3,2.6,0.4,2.3-1
				c-1-4.3-3.7-10.9-2.4-15.2c-0.8,0-1.6,0-2.4,0c1.5,4.8,2.5,9.6,3,14.6c0.8-0.1,1.6-0.2,2.5-0.3c-1.9-6.4-3.8-12.8-5.8-19.2
				c-0.4-1.3-2.5-1.1-2.5,0.3c0,4.2-0.1,8.3-1.4,12.4c0.8,0,1.6,0,2.4,0c-0.5-3.7-0.4-7.2,0.4-10.9c-0.8,0.1-1.5,0.2-2.3,0.3
				c3.2,5.9,3.7,11.9,5.9,18.1c1.7,4.8,5.9,7.7,8.3,12.1c0.4-0.6,0.7-1.3,1.1-1.9c-2.1-0.2-5.8-4.4-8-5.4c-0.8-0.4-1.9,0.1-1.9,1.1
				c-1.3,1-2.7,2.1-4,3.1c-1.5-0.4-2,1.5-1,2.3c5.5,4.2,6.2-6.4,5.4-9.3c-0.3-1.2-2.1-1.2-2.4,0c-0.8,2.9-0.8,5.5-0.1,8.5
				c0.3,1.4,2.5,1.1,2.5-0.3c-0.1-4-0.5-7.8-1.4-11.7c-0.3-1.5-2.3-1-2.5,0.3C38,175,37,182.2,44.5,182c5.2-0.1,7-3.2,4.1-7.7
				c-0.6-1-2.4-0.7-2.3,0.6c0.2,2.3,0.8,4.3,1.9,6.3c0.6,1,2.4,0.6,2.3-0.6c-0.4-4.7-1.7-9-4.3-13c-0.7-1.1-2.3-0.6-2.3,0.6
				c-0.2,4.3,0.3,8.2,1.6,12.3c0.4,1.3,2.6,1.1,2.5-0.3c-0.4-4.3-1-8.4-3.1-12.2c-0.6-1.1-2.3-0.6-2.3,0.6
				c-0.1,4.1,0.2,8.1,0.8,12.2c0.3,1.6,2.6,0.9,2.4-0.7c-0.5-3.8-1.4-7.4-2.6-11.1c-0.5-1.5-2.8-0.9-2.4,0.7
				c0.7,3.3,1.6,6.4,2.9,9.5c0.4-0.5,0.8-1.1,1.2-1.6c-4.5-0.5-8.7-0.1-10.5,4.5c0.8,0.1,1.6,0.2,2.5,0.3c0.3-2.5,0.4-5,0.4-7.6
				c0-1.7-2.3-1.5-2.5,0c-0.2,1.7-0.5,3.5-0.7,5.2c0.8,0,1.7,0,2.5,0c-0.1-5.3,0.6-10.5,1.9-15.6c-0.8-0.1-1.6-0.2-2.5-0.3
				c0,5.6,0,11.2,0.2,16.8c0.1,1.6,2.4,1.6,2.5,0c0.3-6.8,0.6-13.6,1-20.3c-0.8,0-1.7,0-2.5,0c0,6.3,0,12.6,0.7,18.9
				c0.2,1.6,2.4,1.6,2.5,0c0.6-7.8,0.7-15.7,0.2-23.5C40.4,154.4,37.9,154.4,38,156L38,156z"/>
		</g>
	</g>
	<g id="XMLID_151_">
		<g id="XMLID_209_">
			<path id="XMLID_213_" class="st1" d="M52.7,158.4c-1.7,3.4-3.1,6.9-4.2,10.5c-0.5,1.5,1.9,2.2,2.4,0.7c1.1-3.4,2.4-6.7,4-9.9
				C55.6,158.2,53.5,157,52.7,158.4L52.7,158.4z"/>
		</g>
	</g>
	<g id="XMLID_158_">
		<g id="XMLID_216_">
			<path id="XMLID_220_" class="st1" d="M53,159.4c1.8,4.2,3.8,8.3,6.1,12.2c0.4-0.6,0.7-1.3,1.1-1.9c-3.5,0.1-7,0.3-10.4,0.7
				c-1.6,0.2-1.6,2.7,0,2.5c3.5-0.4,6.9-0.6,10.4-0.7c0.9,0,1.6-1,1.1-1.9c-2.3-4-4.3-8-6.1-12.2C54.5,156.6,52.4,157.9,53,159.4
				L53,159.4z"/>
		</g>
	</g>
	<g id="XMLID_165_">
		<g id="XMLID_223_">
			<path id="XMLID_227_" class="st1" d="M52.8,160.7c-1,3.2-1.9,6.5-2.5,9.9c-0.3,1.6,2,2.2,2.4,0.7c0.7-2.9,1.3-5.9,1.8-8.8
				c-0.8-0.1-1.6-0.2-2.5-0.3c0.3,2.5,0.5,4.9,0.8,7.4c0.1,1,1.3,1.8,2.1,0.9c0.6-0.7,1-1.4,1.3-2.3c-0.6,0.2-1.2,0.5-1.8,0.7
				c-0.5-1.5-0.5-1.8,0-0.8c0.3,0.4,0.5,0.9,0.4,1.4c0.7-0.3,1.4-0.6,2.1-0.9c-1.2-1.1-2.3-3-1.6-4.8c-0.3,0.3-0.6,0.6-0.9,0.9
				c-0.5,0.1,0,0.6,0.1,1c0.2,0.5,0.4,1.1,0.5,1.6c0.3,1.1,0.5,2.3,0.5,3.4c0.8-0.1,1.6-0.2,2.5-0.3c-0.7-1.6-1.1-3.2-1.3-4.9
				c-0.2-1.6-2.7-1.6-2.5,0c0.2,1.9,0.7,3.8,1.4,5.6c0.5,1.2,2.6,1.2,2.5-0.3c-0.1-1.9-1-9.9-4.4-8.5c-1.3,0.5-1.2,2.3-1.1,3.5
				c0.3,1.8,1.1,3.3,2.5,4.6c0.7,0.7,2.3,0.3,2.1-0.9c-0.2-2-1-4.4-3.4-4.6c-1.8-0.1-3.2,1.5-2.7,3.2c0.4,1.7,2.6,3.2,4.3,2.4
				c1.6-0.7,1.7-3,0.2-3.8c-0.7-0.4-1.6,0-1.8,0.7c-0.1,0.5-0.3,0.8-0.7,1.2c0.7,0.3,1.4,0.6,2.1,0.9c-0.3-2.5-0.5-4.9-0.8-7.4
				c-0.1-1.3-2.2-1.8-2.5-0.3c-0.5,3-1,5.9-1.8,8.8c0.8,0.2,1.6,0.4,2.4,0.7c0.6-3.3,1.5-6.6,2.5-9.9
				C55.7,159.8,53.3,159.1,52.8,160.7L52.8,160.7z"/>
		</g>
	</g>
	<g id="XMLID_172_">
		<g id="XMLID_230_">
			<path id="XMLID_234_" class="st1" d="M44,165.9c1.1,1.5,1.9,3.2,2.3,5c0.4,1.6,2.8,0.9,2.4-0.7c-0.5-2-1.4-3.9-2.6-5.6
				C45.2,163.3,43,164.6,44,165.9L44,165.9z"/>
		</g>
	</g>
	<g id="XMLID_179_">
		<g id="XMLID_237_">
			<path id="XMLID_241_" class="st1" d="M102.9,126.3c0.2-0.7,0.4-1.3,0.5-2c0.4-1.3-1.6-2.2-2.3-1c-2.4,4.7-4.4,9.6-5.9,14.8
				c-0.4,1.6,2,2.2,2.4,0.7c1.4-4.9,3.3-9.6,5.6-14.2c-0.8-0.3-1.5-0.6-2.3-1c-0.2,0.7-0.4,1.3-0.5,2
				C100.1,127.2,102.5,127.9,102.9,126.3L102.9,126.3z"/>
		</g>
	</g>
	<g id="XMLID_186_">
		<g id="XMLID_244_">
			<path id="XMLID_248_" class="st1" d="M101.8,124.1c2.1,4.9,4.1,9.8,6.2,14.7c0.4-0.5,0.8-1.1,1.2-1.6c-4.2,0.4-8.4,0.7-12.6,1
				c-1.6,0.1-1.6,2.6,0,2.5c4.2-0.3,8.4-0.6,12.6-1c0.7-0.1,1.5-0.8,1.2-1.6c-2.1-4.9-4.1-9.8-6.2-14.7
				C103.6,122,101.2,122.6,101.8,124.1L101.8,124.1z"/>
		</g>
	</g>
	<g id="XMLID_193_">
		<g id="XMLID_251_">
			<path id="XMLID_255_" class="st1" d="M102.2,127c-0.3,3.8-1.1,7.4-2.4,10.9c0.6-0.2,1.2-0.5,1.8-0.7c-0.7-0.4-0.2-3.5-0.2-4.2
				c0.2-1.7,0.5-3.3,0.9-4.9c-0.8-0.1-1.6-0.2-2.5-0.3c-0.3,3.5-1,6.9-2,10.3c0.8,0.1,1.6,0.2,2.5,0.3c0.3-2.7,1-5.2,2-7.7
				c-0.8-0.2-1.6-0.4-2.4-0.7c-0.3,2.1-2.4,8.2,1,8.8c3.4,0.6,4.8-4.4,5.3-6.7c-0.8,0-1.6,0-2.4,0c0.4,2,0.8,4,1.2,6
				c0.8-0.2,1.6-0.4,2.4-0.7c-0.5-1.9-1.3-3.7-2.5-5.3c-0.9-1.3-2.9-0.2-2.2,1.3c0.4,0.7,1.8,2.9,1.5,3.7c-0.6,1.5-2.3,0.1-3.2-0.5
				c-0.2,0.8-0.4,1.6-0.6,2.3c1,0,2,0,3,0c0-0.8,0-1.7,0-2.5c-0.2,0-0.4,0-0.7,0c-1.6-0.4-2.2,2-0.7,2.4c0.5,0.1,0.8,0.2,1.3,0.1
				c1.6-0.1,1.6-2.5,0-2.5c-1,0-2,0-3,0c-1.3,0-1.6,1.7-0.6,2.3c1.5,1,4.9,2.7,6.6,0.9c1.7-1.9-0.5-5.9-1.4-7.6
				c-0.7,0.4-1.4,0.8-2.2,1.3c1.1,1.4,1.8,2.9,2.3,4.7c0.4,1.6,2.7,0.9,2.4-0.7c-0.4-2-0.8-4-1.2-6c-0.2-1.2-2.2-1.2-2.4,0
				c-0.2,1.2-0.6,4.1-1.9,4.6c-0.5,0.5-0.5,0.2-0.2-0.9c0.1-0.4,0.1-0.9,0.2-1.3c0.1-1,0.3-2.1,0.4-3.1c0.2-1.6-1.8-2.2-2.4-0.7
				c-1.1,2.7-1.8,5.5-2.1,8.4c-0.2,1.4,2.1,1.6,2.5,0.3c1.1-3.6,1.8-7.2,2.1-11c0.1-1.4-2.1-1.7-2.5-0.3c-0.7,2.6-1.1,5.2-1.1,7.8
				c0,1.6,0,3.3,1.5,4.1c0.8,0.4,1.5,0,1.8-0.7c1.4-3.8,2.2-7.6,2.5-11.6C104.8,125.4,102.3,125.4,102.2,127L102.2,127z"/>
		</g>
	</g>
	<g id="XMLID_200_">
		<g id="XMLID_258_">
			<path id="XMLID_262_" class="st1" d="M150.7,8c3.3,8.6,7,17.1,10.9,25.4c0.4-0.6,0.7-1.3,1.1-1.9c-6.4-0.2-12.8-0.5-19.1-0.7
				c-1.6-0.1-1.6,2.4,0,2.5c6.4,0.2,12.8,0.5,19.1,0.7c1,0,1.5-1.1,1.1-1.9c-3.9-8.1-7.4-16.4-10.7-24.8
				C152.5,5.9,150.1,6.5,150.7,8L150.7,8z"/>
		</g>
	</g>
	<g id="XMLID_207_">
		<g id="XMLID_265_">
			<path id="XMLID_269_" class="st1" d="M150.2,7.4c-2.4,7.9-4.5,16.2-7.5,23.9c-0.5,1.4,1.6,2.1,2.3,1c3.9-6.2,6.1-12.9,6.9-20.2
				c-0.8,0-1.7,0-2.5,0c0.6,6.2-1.4,11.7-3.8,17.3c-0.5,1.2,1,2.7,2,1.5c4.1-5.2,5-11.3,5.3-17.7c-0.8,0-1.7,0-2.5,0
				c0.5,5.3,2.2,13.3-1.7,17.7c0.7,0.3,1.4,0.6,2.1,0.9c-0.6-5,1.3-10.8,2.2-15.8c-0.7,0.2-1.4,0.4-2.1,0.6c1.3,1.5,4.6,12,1.2,12.9
				c0.5,0.3,1,0.6,1.5,0.9c-0.7-3.7-2-10.7-1-13.9c-0.3,1.1,0.8,3.7,1,5.1c0.1,0.6,1.2,7.5,0.2,8.1c0.6,0.2,1.2,0.5,1.8,0.7
				c-1.1-4.1-1.2-7.9-0.2-12.1c-0.7,0.2-1.4,0.4-2.1,0.6c1.7,1.3,4.4,10.8,2,12.3c0.6,0.2,1.2,0.5,1.8,0.7c-0.4-1.4-1.5-5.3-0.5-5.6
				c0.9-0.2,1.8,4.8,2,5.7c0.6-0.5,1.2-0.9,1.8-1.4c-0.7-0.6-1.3-1.3-2-1.9c-0.8,0.3-1.5,0.6-2.3,1c0.4,0.6,0.8,1.2,1.2,1.8
				c0.9,1.3,3,0.1,2.2-1.3c-0.4-0.6-0.8-1.2-1.2-1.8c-0.7-1.1-2.8-0.4-2.3,1c0.7,1.8,1.3,2.6,3.1,3.4c1,0.5,2.1-0.3,1.8-1.4
				c-0.4-2.2-1.7-9.3-5.1-9c-3.8,0.4-1.8,8.2-1.2,10.2c0.2,0.8,1.1,1.2,1.8,0.7c2.6-1.6,1.8-5,1.5-7.7c-0.3-3.1-0.5-6.4-3.1-8.5
				c-0.7-0.6-1.8-0.4-2.1,0.6c-1.1,4.5-1.1,8.9,0.2,13.4c0.2,0.8,1.1,1.1,1.8,0.7c3.6-2,1.4-18.4-2.7-19.1c-0.5-0.1-1.2,0-1.4,0.6
				c-2.2,5-0.7,12.5,0.3,17.7c0.1,0.7,0.9,1,1.5,0.9c6-1.5,2.8-13.7-0.1-17c-0.6-0.7-1.9-0.4-2.1,0.6c-0.9,5.2-2.8,11.1-2.2,16.4
				c0.1,1,1.3,1.8,2.1,0.9c4.6-5.1,3.1-13.1,2.5-19.4c-0.1-1.6-2.4-1.6-2.5,0c-0.3,5.7-0.9,11.3-4.6,15.9c0.7,0.5,1.3,1,2,1.5
				c2.6-6,4.8-11.9,4.2-18.6c-0.2-1.6-2.3-1.6-2.5,0c-0.8,6.8-3,13.1-6.6,19c0.8,0.3,1.5,0.6,2.3,1c3.1-7.7,5.1-16,7.5-23.9
				C153.1,6.5,150.7,5.9,150.2,7.4L150.2,7.4z"/>
		</g>
	</g>
	<g id="XMLID_214_">
		<g id="XMLID_272_">
			<path id="XMLID_276_" class="st1" d="M139,39.2c2,4.1,4.2,8.1,6.8,11.9c0.4-0.6,0.7-1.3,1.1-1.9c-4.8,0.2-9.5,0.4-14.3,0.6
				c-1.6,0.1-1.6,2.6,0,2.5c4.8-0.2,9.5-0.4,14.3-0.6c0.9,0,1.6-1.1,1.1-1.9c-2.5-3.8-4.8-7.8-6.8-11.9
				C140.4,36.5,138.3,37.8,139,39.2L139,39.2z"/>
		</g>
	</g>
	<g id="XMLID_221_">
		<g id="XMLID_279_">
			<path id="XMLID_283_" class="st1" d="M138.1,37.9c-1.5,4.9-5.8,8.4-7.6,13.2c-0.4,1.1,1.3,2.2,2.1,1.2c2.4-3.1,4.8-6.2,7.2-9.3
				c-0.7-0.3-1.4-0.6-2.1-0.9c0,3-1.7,5.1-4.1,6.6c0.6,0.6,1.1,1.1,1.7,1.7c1.4-2.3,3.1-4.3,5.2-6.1c-0.7-0.3-1.4-0.6-2.1-0.9
				c0.2,2.2-0.4,3.9-2,5.5c0.7,0.5,1.3,1,2,1.5c0.4-0.8,0.9-1.6,1.2-2.4c0.4-0.8,0.4-2.5-0.2-0.3c0.1-0.1,0.3-0.1,0.4-0.2
				c0-0.6,0.1-1.3,0.3-1.9c0.3-1,0.9-1.8,1.7-2.6c-0.7-0.2-1.4-0.4-2.1-0.6c0.7,2.2,1.1,4.4,1,6.7c0.6-0.4,1.3-0.7,1.9-1.1
				c-0.1-0.1-0.3-0.3-0.4-0.4c-0.4,0.5-0.8,1.1-1.2,1.6c0.9-0.1,1.8,0.1,2.6,0.6c0.3-0.8,0.6-1.5,1-2.3c-0.8-0.2-1.6-0.3-2.5-0.2
				c-1.6,0-1.6,2.5,0,2.5c0.6-0.1,1.2,0,1.8,0.1c1.3,0.3,2.3-1.6,1-2.3c-1.3-0.6-2.4-1-3.9-1c-0.8,0-1.5,0.8-1.2,1.6
				c0.3,0.9,0.7,1.5,1.6,1.9c0.8,0.4,1.9-0.1,1.9-1.1c0-2.5-0.3-4.9-1.1-7.3c-0.3-0.9-1.4-1.3-2.1-0.6c-1.9,1.9-3.1,4.6-2.6,7.3
				c0.3,2.3,2.2,3,3.7,1.1c1-1.2,2.6-4.9,0.3-5.7c-2.6-1-4.5,3.5-5.2,5.1c-0.5,1.2,0.9,2.6,2,1.5c2-2,2.9-4.4,2.7-7.2
				c-0.1-1.1-1.3-1.6-2.1-0.9c-2.2,1.9-4,4.1-5.6,6.6c-0.7,1.1,0.7,2.4,1.7,1.7c3.2-1.9,5.4-4.9,5.4-8.7c0-1-1.4-1.8-2.1-0.9
				c-2.4,3.1-4.8,6.2-7.2,9.3c0.7,0.4,1.4,0.8,2.1,1.2c1.8-4.8,6.1-8.2,7.6-13.2C141,37.1,138.6,36.4,138.1,37.9L138.1,37.9z"/>
		</g>
	</g>
	<g id="XMLID_228_">
		<g id="XMLID_286_">
			<path id="XMLID_290_" class="st1" d="M170.8,51.8c-2.2,3.5-4.8,6.7-7.6,9.7c-1.1,1.2,0.7,2.9,1.8,1.8c3-3.2,5.6-6.6,8-10.2
				C173.9,51.7,171.7,50.5,170.8,51.8L170.8,51.8z"/>
		</g>
	</g>
	<g id="XMLID_235_">
		<g id="XMLID_293_">
			<path id="XMLID_297_" class="st1" d="M170.9,53.9c1.6,2,4.2,5,4.6,7.6c0.1-0.4,0.2-0.8,0.3-1.2c-0.3,0.2-1.9,0.1-2.4,0.1
				c-1.1,0.1-2.2,0.1-3.3,0.2c-2,0.1-4.1,0.2-6.1,0.2c-1.6,0-1.6,2.5,0,2.5c2.8-0.1,5.6-0.2,8.4-0.4c1.4-0.1,4.1,0.3,5.1-0.9
				c0.9-1.1-0.2-2.8-0.8-3.8c-1.1-2.2-2.6-4.2-4.2-6.1C171.6,50.9,169.9,52.6,170.9,53.9L170.9,53.9z"/>
		</g>
	</g>
	<g id="XMLID_256_">
		<g id="XMLID_314_">
			<path id="XMLID_318_" class="st1" d="M77.7,19.1c0.9,4.2,2,8.3,3.5,12.4c0.3,0.8,0.5,1.7,0.9,2.4c0.1,1.3,0.4,1.6,0.8,0.8
				c0.6-0.6,0.3-0.7-0.8-0.3c-0.6,0-6.1,1.1-6.5,0.3c-0.6-1.5-2.8-0.2-2.2,1.3c0.8,1.9,3.3,1.4,5,1.3c1.5-0.1,5.5,0.2,6.5-1.3
				c1-1.5-1-4.3-1.5-5.7c-1.4-3.8-2.5-7.8-3.3-11.7C79.7,16.8,77.3,17.5,77.7,19.1L77.7,19.1z"/>
		</g>
	</g>
	<g id="XMLID_270_">
		<g id="XMLID_328_">
			<path id="XMLID_332_" class="st1" d="M244.5,18.3c2.6,6.4,5.4,12.8,8.4,19.1c0.7,1.5,2.8,0.2,2.2-1.3c-2.9-6.1-5.6-12.2-8.1-18.5
				C246.3,16.2,243.9,16.9,244.5,18.3L244.5,18.3z"/>
		</g>
	</g>
	<g id="XMLID_277_">
		<g id="XMLID_335_">
			<path id="XMLID_339_" class="st1" d="M245,16.4c-3.3,7.6-7,14.9-11.3,21.9c-0.6,1,0.4,2,1.4,1.8c6.7-1,13.3-1.2,20.1-0.5
				c1.6,0.2,1.6-2.3,0-2.5c-7-0.7-13.8-0.5-20.7,0.6c0.5,0.6,0.9,1.2,1.4,1.8c4.3-7.1,8.1-14.4,11.3-21.9
				C247.8,16.2,245.7,15,245,16.4L245,16.4z"/>
		</g>
	</g>
	<g id="XMLID_284_">
		<g id="XMLID_342_">
			<path id="XMLID_346_" class="st1" d="M245.1,26.2c-0.8,3.8-2.5,7-5.2,9.8c0.6,0,1.2,0,1.8,0c-0.7-0.7,1.8-5.2,2.2-5.9
				c0.9-1.8,1.9-3.6,3-5.3c-0.8-0.3-1.5-0.6-2.3-1c-1.5,4.4-3.1,8.8-6.1,12.5c0.7,0.4,1.4,0.8,2.1,1.2c1.3-5.5,3.3-10.6,6.3-15.4
				c-0.8-0.3-1.5-0.6-2.3-1c-0.9,2.9-2,5.8-3.5,8.5c-0.9,1.6-3,6.4-4.7,7c0.5,0.5,1,1,1.5,1.5c1.2-3.8,2.8-7.4,4.3-11.1
				c0.2-0.4,0.3-0.7,0.5-1.1c-0.3,0.3-0.5,0.7-0.8,1c-0.1,0.7,0.2,1.7,0.3,2.4c0.3,2,0.5,4.1,0.8,6.1c0.2,1.2,2.2,1.9,2.5,0.3
				c0.5-3.3,0.6-6.9,2.5-9.8c-0.7,0-1.4,0-2.2,0c0.4,0.8,1.9,6.9,0.2,7.2c-0.5,0.1,0-2.3,0-2.1c0.3-1.3,1-2.2,2.2-2.9
				c-0.6-0.1-1.1-0.3-1.7-0.4c1.4,2.7,1.4,5.4,0.4,8.2c0.8-0.1,1.5-0.2,2.3-0.3c-0.9-0.7-0.9-1-0.1-1c1-0.2,0.7-0.1-1,0.2
				c-0.2,0.8-0.4,1.6-0.6,2.3c0.9-0.1,1.7,0.1,2.5,0.4c0.1-0.8,0.2-1.6,0.3-2.5c-2.6-0.1-5.2-0.1-7.8-0.2c0,0.8,0,1.7,0,2.5
				c2.4-0.1,4.7-0.1,7.1-0.2c-0.2-0.8-0.4-1.6-0.6-2.3c-1.1,0.8-2.4,1-3.8,0.9c0.1,0.8,0.2,1.6,0.3,2.5c2.5-0.4,4.9-0.3,7.4,0
				c1.3,0.2,1.7-1.8,0.6-2.3c-0.2-0.1-0.4-0.2-0.7-0.4c-1.4-0.8-2.7,1.4-1.3,2.2c0.2,0.1,0.4,0.2,0.7,0.4c0.2-0.8,0.4-1.6,0.6-2.3
				c-2.7-0.4-5.3-0.3-8,0.1c-1.5,0.2-1,2.3,0.3,2.5c1.9,0.2,3.4-0.2,5-1.3c1-0.7,0.7-2.4-0.6-2.3c-2.4,0.1-4.7,0.1-7.1,0.2
				c-1.6,0-1.6,2.5,0,2.5c2.6,0.1,5.2,0.1,7.8,0.2c1.4,0,1.7-2,0.3-2.5c-1.1-0.3-2-0.5-3.2-0.5c-1.2,0-1.7,1.7-0.6,2.3
				c1.5,0.8,3.6,1.5,4.8-0.2c1.1-1.5,0.5-4.5-0.7-5.8c-1.2-1.3-2.9-1.5-4.2-0.3c-2,1.8-1,4.4,0.3,6.2c0.7,0.9,1.9,0.8,2.3-0.3
				c1.3-3.5,1-6.8-0.7-10.1c-0.3-0.6-1.2-0.8-1.7-0.4c-2.8,1.6-6,8.6-1.8,10.5c1.9,0.9,3.1-1.1,3.6-2.7c1-3.1,0.6-6.2-0.6-9.1
				c-0.4-0.9-1.7-0.7-2.2,0c-2,3.1-2.3,6.8-2.8,10.4c0.8,0.1,1.6,0.2,2.5,0.3c-0.4-2.8-0.7-5.7-1.1-8.5c-0.2-1.5-0.2-2.6-1.6-3.4
				c-0.4-0.2-0.9-0.2-1.3,0c-1.7,1.1-2.3,3.8-3,5.5c-1.1,2.7-2.1,5.5-3,8.3c-0.3,0.9,0.6,1.8,1.5,1.5c2.5-0.8,4.2-4.6,5.4-6.6
				c1.9-3.3,3.4-6.9,4.6-10.5c0.4-1.4-1.6-2.2-2.3-1c-3.1,5-5.2,10.3-6.5,16c-0.3,1.1,1.2,2.2,2.1,1.2c3.3-4,5.1-8.7,6.8-13.6
				c0.5-1.4-1.5-2.1-2.3-1c-1.8,2.7-3.3,5.6-4.5,8.6c-0.7,1.8-1.9,4-0.3,5.6c0.5,0.5,1.3,0.5,1.8,0c3-3,5-6.6,5.9-10.9
				C247.9,25.3,245.5,24.6,245.1,26.2L245.1,26.2z"/>
		</g>
	</g>
	<g id="XMLID_291_">
		<g id="XMLID_349_">
			<path id="XMLID_353_" class="st1" d="M64.2-0.6c3.5,8.3,7.3,16.5,11.4,24.6c0.7,1.4,2.9,0.2,2.2-1.3c-4-7.9-7.7-15.9-11.1-24
				C66-2.8,63.6-2.1,64.2-0.6L64.2-0.6z"/>
		</g>
	</g>
	<g id="XMLID_298_">
		<g id="XMLID_356_">
			<path id="XMLID_360_" class="st1" d="M76.7,22.6c-6.9-0.1-13.9,0-20.8,0.3c-1.6,0.1-1.6,2.6,0,2.5c6.9-0.3,13.9-0.4,20.8-0.3
				C78.3,25.1,78.3,22.6,76.7,22.6L76.7,22.6z"/>
		</g>
	</g>
	<g id="XMLID_305_">
		<g id="XMLID_363_">
			<path id="XMLID_367_" class="st1" d="M60.2-0.8c-1.8,8.6-5.7,16.5-7.3,25.2c-0.2,1,0.9,2.1,1.8,1.4c2.7-1.9,3.3-0.6,4.4-3.9
				c1.5-4.4,2.6-9,3.9-13.5c0.4-1.3-1.6-2.2-2.3-1c-2.4,4.5-4.5,9-5.4,14.1c-0.2,1.3,1.5,2.3,2.3,1c2-3.5,3.2-7.1,3.5-11.2
				c0.1-1.5-2-1.5-2.5-0.3c-1.3,3.4-2.3,6.7-2.9,10.3c-0.2,1,0.8,2,1.8,1.4c5.5-3.2,6.1-12.4,6.6-18c0.1-1.5-2-1.5-2.5-0.3
				c-2.1,5.1-3.2,10.3-3.5,15.9c-0.1,1.4,2.2,1.7,2.5,0.3c1.4-6.2,2.5-12.5,3.4-18.8c-0.8-0.2-1.6-0.4-2.4-0.7
				c-0.7,5.2-1.5,10.4-2.3,15.5c0.8,0.2,1.6,0.4,2.4,0.7c0.7-4.8,1-9.5,0.9-14.4c0-1.4-2.2-1.8-2.5-0.3C59.6,6.4,59.7,10,61,13.8
				c0.3,0.9,1.4,1.3,2.1,0.6c3.1-3.3,2.5-9.2,2.1-13.3c-0.1-1.6-2.4-1.6-2.5,0c-0.3,5,0.1,9.9,1.2,14.8c0.3,1.4,2.4,1.1,2.5-0.3
				c0.1-5.1,0-10.1-0.5-15.2c-0.8,0.1-1.6,0.2-2.5,0.3C65,6,66.5,11.3,68,16.6c0.8-0.2,1.6-0.4,2.4-0.7C69,12,68,8.1,67.3,4
				c-0.8,0.3-1.5,0.6-2.3,1c2.1,4.9,4.1,9.7,6.2,14.6c0.6,1.3,2.7,0.4,2.3-1c-1.1-3.6-2.5-7-4.4-10.3c-0.7,0.4-1.4,0.8-2.2,1.3
				c2.7,3.9,4.7,7.9,6.2,12.4c0.4-0.5,0.8-1.1,1.2-1.6c-4.9-0.2-12.1-2-16.4,0.9c-1,0.6-0.7,2.4,0.6,2.3c4.3-0.3,8.6-0.3,12.9-0.2
				c1.2,0,1.6-1.4,0.9-2.1c-2-2.3-6.5-7.6-10.2-6.1c-1.6,0.6-2.3,2.3-1.3,3.9c3.3,5.3,11.6-0.1,7.3-5.9c-1.3-1.8-3.9-3.3-5.7-1.1
				c-1.8,2.2,0.2,5.2,1.8,6.8c1.6,1.5,5,3.9,6.7,1.3c1.6-2.5-1-5.9-2.7-7.6c-1-0.9-2.8,0.3-2,1.5c1.5,2.2,3.1,4.4,4.6,6.6
				c0.2-0.6,0.5-1.2,0.7-1.8c-2.3,0.7-6.4-3-8.1-4.2c-1.1-0.9-2.5,1-1.5,2c1.3,1.2,2.5,2.4,3.8,3.6c1.2,1.1,2.8-0.6,1.8-1.8
				c-2.2-2.5-5.4-2.1-7,0.8c-0.4,0.6-0.1,1.7,0.7,1.8c1.7,0.3,1.9,0.3,3.4-0.6c1.1-0.6,0.6-2.3-0.6-2.3c-1.8,0-1.5-0.1-3.2,0.6
				c-1.5,0.6-0.8,3,0.7,2.4c0.9-0.2,1.7-0.3,2.6-0.5c-0.2-0.8-0.4-1.6-0.6-2.3c-0.5,0.1-1,0.2-1.5,0.3c0.2,0.6,0.5,1.2,0.7,1.8
				c1-0.1,2.1-0.2,3.1-0.3c0.6-0.6,1.2-1.2,1.8-1.8c-1.3-1.2-2.5-2.4-3.8-3.6c-0.5,0.7-1,1.3-1.5,2c2.6,1.9,6.6,5.6,10,4.5
				c0.7-0.2,1.2-1.1,0.7-1.8c-1.5-2.2-3.1-4.4-4.6-6.6c-0.7,0.5-1.3,1-2,1.5c0.7,0.7,2.7,2.9,1.1,3.9c-0.9-0.9-1.9-1.8-2.8-2.7
				c-1.4,2-1.4,2.9,0,2.6c0.3,0.4,2.6,1.4,3.3,2c0.9,0.8,1.7,1.8,2.5,2.8c0.3-0.7,0.6-1.4,0.9-2.1c-4.3-0.2-8.6-0.1-12.9,0.2
				c0.2,0.8,0.4,1.6,0.6,2.3c3.6-2.5,11-0.7,15.2-0.6c0.8,0,1.5-0.8,1.2-1.6c-1.5-4.7-3.6-9-6.4-13c-0.9-1.3-3-0.2-2.2,1.3
				c1.8,3.1,3.1,6.3,4.2,9.7c0.8-0.3,1.5-0.6,2.3-1c-2.1-4.9-4.1-9.7-6.2-14.6c-0.6-1.4-2.5-0.3-2.3,1c0.6,4.1,1.6,8.1,3,12
				c0.5,1.5,2.9,0.9,2.4-0.7c-1.5-5.3-3-10.6-4.5-15.9c-0.4-1.3-2.6-1.1-2.5,0.3c0.4,5.1,0.6,10.1,0.5,15.2c0.8-0.1,1.6-0.2,2.5-0.3
				c-1.1-4.7-1.5-9.3-1.2-14.2c-0.8,0-1.7,0-2.5,0c0.3,3.3,1.1,9-1.4,11.6c0.7,0.2,1.4,0.4,2.1,0.6c-1.1-3.4-1.3-6.6-0.6-10.1
				C62,3,61.2,2.9,60.4,2.8c0.1,4.6-0.1,9.1-0.8,13.7c-0.2,1.6,2.2,2.3,2.4,0.7c0.8-5.2,1.6-10.4,2.3-15.5c0.2-1.6-2.2-2.3-2.4-0.7
				c-0.9,6.3-2.1,12.6-3.4,18.8c0.8,0.1,1.6,0.2,2.5,0.3c0.2-5.3,1.3-10.3,3.4-15.2c-0.8-0.1-1.6-0.2-2.5-0.3
				c-0.4,4.2-1.2,13.4-5.4,15.9c0.6,0.5,1.2,0.9,1.8,1.4c0.6-3.5,1.6-6.9,2.9-10.3c-0.8-0.1-1.6-0.2-2.5-0.3
				c-0.3,3.6-1.4,6.8-3.2,9.9c0.8,0.3,1.5,0.6,2.3,1c0.9-4.9,2.9-9.1,5.2-13.5c-0.8-0.3-1.5-0.6-2.3-1c-1,3.3-1.9,6.6-2.9,9.9
				c-0.4,1.5-0.9,4.1-2,5.2c-0.3,0.3-1.8,0.5-2.3,0.9c0.6,0.5,1.2,0.9,1.8,1.4c1.6-8.6,5.5-16.6,7.3-25.2
				C62.9-1.7,60.5-2.4,60.2-0.8L60.2-0.8z"/>
		</g>
	</g>
	<g id="XMLID_312_">
		<g id="XMLID_370_">
			<path id="XMLID_374_" class="st1" d="M-1.8,23.7c2.7,4.2,5.8,8.2,9,11.9c0-0.6,0-1.2,0-1.8C6.5,34.5,3.9,34,3.1,34
				c-1.4,0-2.9-0.1-4.3-0.2c-1.6-0.1-1.6,2.4,0,2.5c2.2,0.1,4.5,0.2,6.7,0.2c1.4,0,2.4,0,3.5-0.9c0.5-0.5,0.4-1.3,0-1.8
				c-3.1-3.6-6-7.4-8.7-11.4C-0.6,21.1-2.7,22.3-1.8,23.7L-1.8,23.7z"/>
		</g>
	</g>
	<g id="XMLID_319_">
		<g id="XMLID_377_">
			<path id="XMLID_381_" class="st1" d="M-0.4,26.8c-0.1,2.8,0.2,5.5,0.8,8.2c0.3,1.4,2.4,1,2.5-0.3c0-1.5,0.1-3,0.1-4.6
				c-0.5,0.4-1.1,0.8-1.6,1.2c0.5,0.1,1.2,3.2,1.4,3.8c0.4,1.3,2.4,1.1,2.5-0.3c0-0.8,0.1-1.7,0.1-2.5c-0.6,0.4-1.3,0.7-1.9,1.1
				C3.8,33.4,4,33.7,4.2,34c0.2-0.4,0.4-0.7,0.6-1.1c-0.1,0-0.2,0.1-0.2,0.1c0.4,0,0.8,0,1.3,0c-0.3-0.1-0.5-0.3-0.7-0.5
				c-1.4-0.8-2.6,1.3-1.3,2.2c0.8,0.5,1.2,0.8,2.2,0.4c0.4-0.2,0.6-0.7,0.6-1.1c0-1.3-0.9-2.3-2-2.8c-0.9-0.4-1.8,0.1-1.9,1.1
				c0,0.8-0.1,1.7-0.1,2.5c0.8-0.1,1.6-0.2,2.5-0.3c-0.6-1.8-0.9-5-3.1-5.6c-0.8-0.2-1.6,0.4-1.6,1.2c0,1.5-0.1,3-0.1,4.6
				c0.8-0.1,1.6-0.2,2.5-0.3c-0.5-2.5-0.8-5-0.7-7.5C2.1,25.2-0.4,25.2-0.4,26.8L-0.4,26.8z"/>
		</g>
	</g>
	<g id="XMLID_242_">
		<g id="XMLID_308_">
			<path id="XMLID_321_" class="st1" d="M77.1,18.5c-1.6,5.9-3.2,11.7-3.7,17.8c-0.1,1.6,2.4,1.6,2.5,0c0.4-5.9,2.1-11.5,3.6-17.1
				C79.9,17.7,77.5,17,77.1,18.5L77.1,18.5z"/>
		</g>
	</g>
	<g id="XMLID_116_">
		<g id="XMLID_301_">
			<path id="XMLID_307_" class="st1" d="M23.7,122.7c-1.4,4.7-3.3,9.2-6,13.3c-0.9,1.4,1.3,2.6,2.2,1.3c2.7-4.3,4.8-9,6.2-13.9
				C26.5,121.8,24.1,121.1,23.7,122.7L23.7,122.7z"/>
		</g>
	</g>
	<g id="XMLID_159_">
		<g id="XMLID_324_">
			<path id="XMLID_340_" class="st1" d="M87.2,250c-1.9-12.2-3.8-24.4-5.7-36.6c-0.2-1.4-2-1-2.4,0c-4.8,11.9-9.6,23.8-14.3,35.6
				c-0.3,0.7,0.5,1.6,1.2,1.6c6.8-0.4,13.5-0.6,20.3-0.5c1.6,0,1.6-2.5,0-2.5c-6.8-0.1-13.5,0.1-20.3,0.5c0.4,0.5,0.8,1.1,1.2,1.6
				c4.8-11.9,9.6-23.8,14.3-35.6c-0.8,0-1.6,0-2.4,0c1.9,12.2,3.8,24.4,5.7,36.6C85.1,252.2,87.5,251.5,87.2,250L87.2,250z"/>
		</g>
	</g>
	<g id="XMLID_174_">
		<g id="XMLID_361_">
			<path id="XMLID_376_" class="st1" d="M93.9,220.9c-2.5,4.8-5.1,9.6-7.8,14.3c-0.8,1.4,1.4,2.7,2.2,1.3c2.7-4.7,5.3-9.5,7.8-14.3
				C96.8,220.7,94.7,219.4,93.9,220.9L93.9,220.9z"/>
		</g>
	</g>
	<g id="XMLID_175_">
		<g id="XMLID_384_">
			<path id="XMLID_388_" class="st1" d="M94.6,223.2c1.8,1.2,3.2,5.1,4.5,6.9c1.3,1.8,2.8,3.6,4.4,5.2c0.2-0.7,0.4-1.4,0.6-2.1
				c-5.7,1-11.6,1-17.3,1.3c-1.6,0.1-1.6,2.6,0,2.5c6-0.2,12.1-0.3,18-1.3c1-0.2,1.1-1.5,0.6-2.1c-2.2-2.3-4.2-4.9-5.9-7.6
				c-1.1-1.8-1.7-3.7-3.5-4.8C94.5,220.2,93.2,222.3,94.6,223.2L94.6,223.2z"/>
		</g>
	</g>
	<g id="XMLID_176_">
		<g id="XMLID_391_">
			<path id="XMLID_395_" class="st1" d="M113.6,98.7c-2,11.1-4.5,22-7.4,32.9c-0.4,1.6,2,2.2,2.4,0.7c2.9-10.9,5.4-21.8,7.4-32.9
				C116.3,97.8,113.8,97.1,113.6,98.7L113.6,98.7z"/>
		</g>
	</g>
	<g id="XMLID_177_">
		<g id="XMLID_398_">
			<path id="XMLID_402_" class="st1" d="M113.4,99.8c3.3,11.9,7.4,23.5,12.1,34.9c0.4-0.5,0.8-1.1,1.2-1.6
				c-6.3-0.4-12.6-0.5-18.9-0.4c-1.6,0-1.6,2.5,0,2.5c6.3-0.1,12.6,0.1,18.9,0.4c0.7,0,1.5-0.8,1.2-1.6c-4.8-11.4-8.8-23-12.1-34.9
				C115.4,97.5,113,98.2,113.4,99.8L113.4,99.8z"/>
		</g>
	</g>
	<g id="XMLID_178_">
		<g id="XMLID_405_">
			<path id="XMLID_409_" class="st1" d="M245.6,198.6c-3.1,8-6.3,16-9.4,24c-0.4,1,0.7,1.7,1.5,1.5c6.2-1.3,12.3-1.8,18.6-1.3
				c1.6,0.1,1.6-2.4,0-2.5c-6.5-0.5-12.9,0-19.2,1.4c0.5,0.5,1,1,1.5,1.5c3.1-8,6.3-16,9.4-24C248.6,197.8,246.2,197.1,245.6,198.6
				L245.6,198.6z"/>
		</g>
	</g>
	<g id="XMLID_263_">
		<g id="XMLID_412_">
			<path id="XMLID_416_" class="st1" d="M246,199.1c2.5,6.6,5.5,13,9.3,19c0.8,1.4,3,0.1,2.2-1.3c-3.6-5.8-6.6-11.9-9-18.4
				C247.9,196.9,245.5,197.6,246,199.1L246,199.1z"/>
		</g>
	</g>
	<g id="XMLID_292_">
		<g id="XMLID_419_">
			<path id="XMLID_423_" class="st1" d="M206.6-1.1c2.3,5.9,5,11.7,7.9,17.3c0.4-0.6,0.7-1.3,1.1-1.9c-6.2,0.1-12.4,0.2-18.6,0.4
				c-1.6,0-1.6,2.5,0,2.5c6.2-0.1,12.4-0.2,18.6-0.4c1,0,1.5-1,1.1-1.9c-2.8-5.4-5.4-11-7.7-16.7C208.5-3.2,206.1-2.6,206.6-1.1
				L206.6-1.1z"/>
		</g>
	</g>
	<g id="XMLID_322_">
		<g id="XMLID_426_">
			<path id="XMLID_430_" class="st1" d="M201.6-0.6c-1.7,5.1-3.7,10.1-5.8,15.1c-0.6,1.5,1.5,2.7,2.2,1.3c2.3-5.1,4.3-10.3,6.1-15.7
				C204.5-1.5,202.1-2.1,201.6-0.6L201.6-0.6z"/>
		</g>
	</g>
</g>
</svg>
