<?xml version="1.0" encoding="utf-8"?>
<!-- Generator: Adobe Illustrator 19.0.0, SVG Export Plug-In . SVG Version: 6.00 Build 0)  -->
<svg version="1.1" id="Layer_1" xmlns="http://www.w3.org/2000/svg" xmlns:xlink="http://www.w3.org/1999/xlink" x="0px" y="0px"
	 viewBox="0 0 399 168" style="enable-background:new 0 0 399 168;" xml:space="preserve">
<style type="text/css">
	.st0{fill:#1B998B;}
	.st1{fill:#42AD9B;}
	.st2{fill:#34A595;}
	.st3{fill:#F79A72;}
	.st4{fill:#EC825C;}
	.st5{fill:#E84855;}
	.st6{fill:#F2778A;}
	.st7{fill:none;}
	.st8{font-family:'billy';}
	.st9{font-size:11px;}
</style>
<g id="XMLID_27_">
	<g id="XMLID_39_">
		<path id="XMLID_43_" class="st0" d="M212.6,33.7c-17.9-1.2-35.8-1.7-53.7-1.5c-3.2,0-3.2,5,0,5c17.9-0.2,35.8,0.3,53.7,1.5
			C215.8,38.9,215.8,33.9,212.6,33.7L212.6,33.7z"/>
	</g>
</g>
<g id="XMLID_28_">
	<g id="XMLID_46_">
		<path id="XMLID_50_" class="st0" d="M211.1,38.6c4,3.3,7.6,7,10.6,11.3c0.7-1.3,1.4-2.5,2.2-3.8c-23.5-0.2-47.1-0.9-70.6-2.1
			c0.8,1.1,1.6,2.1,2.4,3.2c0.8-3.6,2.3-6.6,4.7-9.3c2.1-2.4-1.4-5.9-3.5-3.5c-3,3.4-5,7.1-6,11.5c-0.4,1.6,0.7,3.1,2.4,3.2
			c23.5,1.2,47,1.9,70.6,2.1c1.8,0,3.3-2.2,2.2-3.8c-3.3-4.6-7-8.7-11.4-12.3C212.1,33,208.6,36.6,211.1,38.6L211.1,38.6z"/>
	</g>
</g>
<g id="XMLID_30_">
	<g id="XMLID_60_">
		<path id="XMLID_64_" class="st0" d="M153.9,49.3c0.4,11,0.8,22.1,1.2,33.1c0.2,6-1.6,17.5,6.3,19.4c3.1,0.7,4.5-4.1,1.3-4.8
			c-3.4-0.8-2.5-10.1-2.6-12.6c-0.1-3.9-0.3-7.8-0.4-11.7c-0.3-7.8-0.6-15.6-0.8-23.4C158.8,46.1,153.8,46.1,153.9,49.3L153.9,49.3z
			"/>
	</g>
</g>
<g id="XMLID_29_">
	<g id="XMLID_55_">
		<path id="XMLID_59_" class="st0" d="M214.1,51.4c0,8,0,16.1,0,24.1c0,3.9,0,7.7,0,11.6c0,3.3,1.1,9.9-0.5,12.9
			c-1.6,2.8,2.7,5.3,4.3,2.5c1.5-2.7,1.2-5.6,1.2-8.6c0-4.8,0-9.6,0-14.5c0-9.3,0-18.6,0-28C219.1,48.1,214.1,48.1,214.1,51.4
			L214.1,51.4z"/>
	</g>
</g>
<g id="XMLID_31_">
	<g id="XMLID_67_">
		<path id="XMLID_71_" class="st0" d="M214.3,99.3c-9-0.1-18-0.2-26.9-0.3c-4.3,0-8.6-0.1-13-0.1c-3.2,0-10.6,1.2-13.1-0.9
			c-2.5-2-6,1.5-3.5,3.5c2.7,2.2,5.3,2.2,8.7,2.2c5.3,0.1,10.6,0.1,16,0.2c10.6,0.1,21.3,0.2,31.9,0.3
			C217.5,104.3,217.5,99.3,214.3,99.3L214.3,99.3z"/>
	</g>
</g>
<g id="XMLID_32_">
	<g id="XMLID_74_">
		<path id="XMLID_78_" class="st0" d="M198.7,66.5c-3.1-4.9-10-5.4-13.8-0.8c-4,4.9-1.6,12.3,2.4,16.5c4,4.1,10.8,5.9,15.3,1.4
			c4.4-4.4,3.3-11.6-0.7-15.8c-4.1-4.2-11.8-7.2-16.8-2.6c-4.3,4-3.6,10.6-0.1,14.8c3.7,4.5,10.2,7.9,15.9,5.3
			c6.4-3,7.5-10,7.4-16.4c-0.1-4.6-7.1-7.2-9.3-2.5c-1.7,3.5-3.1,7.4-0.8,11c1.8,2.9,5.5,4.6,8.8,3.4c7.4-2.7,7-14.6,5.8-20.7
			c-1.1-5.3-8-4.1-9.6,0c-1.2,3.1-1.8,6.2-2.1,9.5c-0.4,4.9,7.1,6.9,9.3,2.5c2.9-5.8,4.6-11.6,5.3-18.1c0.3-2.6-2.5-5.1-5-5
			c-16.9,0.5-33.8,0.5-50.8,0c-2.6-0.1-5.1,2.4-5,5c0.7,13.2,0.5,26.8,2.2,39.9c0.7,5.4,4,8.2,9.3,8.9c6.5,0.9,13.2,1.4,19.8,1.5
			c6.4,0.1,12.8-0.1,19.1-0.6c4.4-0.4,11,0,12.3-5.4c0.6-2.4-0.5-5-1-7.3c-0.7-3-1.3-6.1-1.8-9.2c-1-7-1.2-14.1-0.9-21.1
			c0.3-6.1-7.9-6.2-9.8-1.3c-3.1,7.7-1.8,16.6-5.7,24c2.9,0,5.8,0,8.6,0c-3.7-8.2-1.1-18.2-5.3-26.1c-1.7-3.2-5.1-4.8-8.5-3.2
			c-3.2,1.4-4.6,4.7-5.7,7.9c-2.4,7.4-1.8,15.7,1.3,22.7c2.6,5.9,9.4,14.4,16.5,9c5.6-4.2,5-15.7,4.6-21.9
			c-0.4-6.2-2.3-17.8-10.3-18.4C183,52,200.1,90.8,202.7,97c2.3-2.3,4.6-4.6,6.8-6.8c-6.5-3.4-14-3.4-20.4-6.7
			c-3.2-1.7-4.9-3.9-5-7.6c-0.1-2.9,1-9.1,5.1-7.5c-0.7-2.8-1.5-5.6-2.2-8.4c-1.4,1.3-9.6-3.8-11.6-4.2c-4.2-0.9-8.6,0.4-11,4.1
			c-2.5,3.7-2,8.2-1.5,12.4c0.7,6.2,1.5,12.4,2.3,18.6c0.7,5.4,8,7.1,9.8,1.3c3.3-10.5,6.2-21.6,2.2-32.3c-2.2-6-11.8-3.5-9.6,2.7
			c2.4,6.9,4.6,13.9,7.1,20.8c1.8,4.9,4,9.9,8.2,13.3c3.7,3,9.9,5,13.8,1.1c4.3-4.3,1.1-10.5-3.2-13.2c-6.6-4.3-28.8-9.1-27.8,4.8
			c0.4,5.7,5.5,7.9,10.5,6.2c5.6-1.9,10.1-6.6,12.5-11.9c2.1-4.7-3.9-10.8-7.9-6.1c-3,3.6-6,7.2-9,10.8c-4.1,4.9,2.5,11.8,7.1,7.1
			c3.4-3.5,6.8-7,10.2-10.5c4.5-4.6-2.6-11.7-7.1-7.1c-3.4,3.5-6.8,7-10.2,10.5c2.4,2.4,4.7,4.7,7.1,7.1c3-3.6,6-7.2,9-10.8
			c-2.6-2-5.2-4-7.9-6.1c-1.1,2.4-2.4,4.5-4.5,6.1c-0.4,0.3-2.6,1.2-2.7,1.5c0.7,1.3,1.5,2.6,2.2,4c0.6-0.1,1.2-0.1,1.8,0
			c2.6,0.6,5.3,0.6,7.9,1.4c2.5,0.8,2.9,2.4,4.9,0c2-2.4,1-1.4-0.8-2.8c-3.2-2.5-4.4-7.5-5.7-11.1c-2-5.9-4.1-11.8-6.1-17.8
			c-3.2,0.9-6.4,1.8-9.6,2.7c3.4,9.1,0.6,18.2-2.2,27c3.3,0.4,6.5,0.9,9.8,1.3c-0.6-5-1.2-9.9-1.8-14.9c-0.3-2.3-0.7-4.7-0.8-7
			c-0.1-2.5-0.4-3.5,2.4-3c3.6,0.7,6.3,3.6,10.2,4c3.6,0.4,6.4-0.5,9-2.9c3-2.8,1.1-7.1-2.2-8.4c-13.1-5-19.8,12.1-17.1,22.2
			c3.7,14.2,19.4,12.4,29.7,17.9c4.8,2.5,8.7-2.4,6.8-6.8c-3-7-5.3-14.2-7.2-21.5c-0.4-1.8-0.9-3.6-1.2-5.4
			c-0.2-1.1-0.4-2.2-0.7-3.3c-1.4,0.5-2.9,1-4.3,1.5c-0.2,0.6,1.5,3.9,1.7,5c0.4,2,0.5,4,0.5,6.1c0,3.3-0.8,6.7-0.7,10
			c0,0.6-0.2,1.2-0.3,1.9c1.6-0.5,2-1.1,1-1.9c-0.2-1.2-1.8-2.8-2.3-4c-1.2-2.8-1.7-5.8-1.7-8.9c0-1.7,0.3-7.7,2.2-8.6
			c-1.3,0.2-2.6,0.3-3.9,0.5c0.3,0.1,0.6,0.1,0.9,0.2c-1-0.8-2-1.5-3-2.3c2.5,3.9,2.2,9.9,2.7,14.4c0.5,4.6,1.5,8.7,3.4,12.9
			c1.5,3.4,7,3.1,8.6,0c4.4-8.3,3.2-17.8,6.7-26.4c-3.3-0.4-6.5-0.9-9.8-1.3c-0.4,9.8,0.3,19.7,2.2,29.3c0.1,0.7,1.2,7.2,1.7,7.3
			c2.4-3.3,2.1-4.6-0.7-3.7c-1.3,0.1-2.5,0.2-3.8,0.3c-5.1,0.4-10.2,0.5-15.3,0.5c-5.1-0.1-10.2-0.3-15.3-0.8
			c-1.6-0.1-4.9-0.1-5.8-1c-0.9-0.9-0.3-6.4-0.4-7.7c-0.6-10.3-1.1-20.6-1.7-30.8c-1.7,1.7-3.3,3.3-5,5c16.9,0.5,33.8,0.5,50.8,0
			c-1.7-1.7-3.3-3.3-5-5c-0.5,4.6-1.9,8.9-3.9,13c3.1,0.8,6.2,1.7,9.3,2.5c0.2-2.5,0.8-4.6,1.7-6.9c-3.2,0-6.4,0-9.6,0
			c0.3,1.7,0.5,3.4,0.3,5.1c-0.1,0.6-0.2,1.2-0.3,1.9c-1.3,2.6,0.2,3.2,4.4,1.7c-3.1-0.8-6.2-1.7-9.3-2.5c0,1.7,0.6,5.4-1,6.7
			c-2.3,1.9-4.7-3.2-5.4-2.8c0.6-0.4,3.4,2.6,3.6,3.7c-0.1-0.7-0.6-0.7-1.1-1.4c-0.6-0.6-1-1.3-1.2-2.1c-0.3-1.4-1.3-1.9-3.1-1.5
			C193.6,76.9,202.2,71.9,198.7,66.5L198.7,66.5z"/>
	</g>
</g>
<g id="XMLID_33_">
	<g id="XMLID_81_">
		<path id="XMLID_85_" class="st0" d="M174.7,46.9c6.1-0.5,12.1-0.8,18.2-0.9c2.9,0,5.8,0,8.6,0c2.8,0.1,6.2-0.4,8.9,0.4
			c-1.2-1.2-2.3-2.3-3.5-3.5c1.3,3.7,3.6,6.1,7.7,6.1c6.5,0,6.4-9.6,0-10c-9.7-0.7-19.4-1.4-29.1-2.3c-9-0.9-18.1-2.8-26.9-0.1
			c-6.2,1.8-3.5,11.5,2.7,9.6c8.3-2.5,17.7-0.1,26.2,0.7c9.1,0.8,18.1,1.5,27.2,2.1c0-3.3,0-6.7,0-10c2,1.8,2.4,1.8,1.4,0.1
			c-0.3-0.6-0.7-1.1-1.3-1.4c-0.9-0.7-1.9-1-3-1.2c-3.9-0.7-8.3-0.5-12.2-0.5c-8.3-0.1-16.7,0.2-25,0.9
			C168.4,37.4,168.3,47.4,174.7,46.9L174.7,46.9z"/>
	</g>
</g>
<g id="XMLID_35_">
	<g id="XMLID_211_">
		<path id="XMLID_422_" class="st1" d="M216.2,49.9c-20.1,0.3-40.1,0.1-60.2-0.7c-2.4-0.1-2.4,3.7,0,3.8c20,0.8,40.1,1,60.2,0.7
			C218.7,53.6,218.7,49.8,216.2,49.9L216.2,49.9z"/>
	</g>
</g>
<g id="XMLID_37_">
	<g id="XMLID_95_">
		<path id="XMLID_99_" class="st2" d="M151.5,17.9c0.4,2,0.7,4,1.1,6c0.3,1.6,2.7,0.9,2.4-0.7c-0.4-2-0.7-4-1.1-6
			C153.7,15.6,151.3,16.3,151.5,17.9L151.5,17.9z"/>
	</g>
</g>
<g id="XMLID_38_">
	<g id="XMLID_102_">
		<path id="XMLID_106_" class="st2" d="M153.3,18c0.3-0.4,2.6-1.4,2.2-0.3c-0.1,0.3-1.4,0.7-1.7,0.9c-0.8,0.5-0.8,1.7,0,2.2
			c1.6,0.9,3,2.1,4.1,3.6c0.9,1.3,3.1,0,2.2-1.3c-1.3-1.9-3-3.3-5-4.5c0,0.7,0,1.4,0,2.2c1-0.6,2.2-0.9,2.8-1.9c0.5-1,0.3-2.2-0.4-3
			c-1.7-2-5.1-1-6.3,1C150.3,18.1,152.4,19.3,153.3,18L153.3,18z"/>
	</g>
</g>
<g id="XMLID_51_">
	<g id="XMLID_109_">
		<path id="XMLID_113_" class="st2" d="M166.4,14.7c-1.8-0.1-3.5-0.1-5.3,0c-1,0-1.5,1-1.1,1.9c0.9,2.1,1.5,4.3,1.8,6.6
			c0.1,0.6,0.5,1.3,1.2,1.2c1.3-0.1,2.6-0.1,3.8-0.2c1.6-0.1,1.6-2.6,0-2.5c-1.3,0.1-2.6,0.1-3.8,0.2c0.4,0.4,0.8,0.8,1.2,1.2
			c-0.3-2.8-1-5.4-2.1-7.9c-0.4,0.6-0.7,1.3-1.1,1.9c1.8-0.1,3.5-0.1,5.3,0C168,17.3,168,14.8,166.4,14.7L166.4,14.7z"/>
	</g>
</g>
<g id="XMLID_53_">
	<g id="XMLID_116_">
		<path id="XMLID_120_" class="st2" d="M164.6,17.8c-0.8,0-1.6-0.1-2.3-0.1c-0.7,0-1.2,0.6-1.2,1.2c0,0.7,0.6,1.2,1.2,1.2
			c0.8,0,1.6,0.1,2.3,0.1c0.7,0,1.2-0.6,1.2-1.2C165.8,18.4,165.3,17.9,164.6,17.8L164.6,17.8z"/>
	</g>
</g>
<g id="XMLID_65_">
	<g id="XMLID_123_">
		<path id="XMLID_127_" class="st2" d="M174.5,16c-0.3-1.4-1.8-2.3-3.2-1.9c-1.6,0.4-2.4,2-2.5,3.5c-0.4,3.6,2.5,6.8,6.2,6.1
			c1.6-0.3,0.9-2.7-0.7-2.4c-1.3,0.2-2.4-0.6-2.9-1.8c-0.2-0.6-0.3-1.3-0.1-1.9c0-0.1,0.6-1.5,0.8-0.8
			C172.4,18.3,174.8,17.6,174.5,16L174.5,16z"/>
	</g>
</g>
<g id="XMLID_72_">
	<g id="XMLID_130_">
		<path id="XMLID_134_" class="st2" d="M176,16.7c0.9,1.7,2.2,3.1,3.8,4.3c0.5,0.4,1.4,0.1,1.7-0.4c0.4-0.6,0.1-1.3-0.4-1.7
			c-1.2-0.9-2.1-2.1-2.9-3.4C177.4,14,175.2,15.3,176,16.7L176,16.7z"/>
	</g>
</g>
<g id="XMLID_79_">
	<g id="XMLID_137_">
		<path id="XMLID_141_" class="st2" d="M180.2,15.6c-0.6,2.4-1.2,4.9-1.7,7.3c-0.4,1.6,2,2.2,2.4,0.7c0.6-2.4,1.2-4.9,1.7-7.3
			C183,14.7,180.6,14,180.2,15.6L180.2,15.6z"/>
	</g>
</g>
<g id="XMLID_86_">
	<g id="XMLID_144_">
		<path id="XMLID_148_" class="st2" d="M189.4,15.3c-3-0.7-6.7,1.4-6,4.9c0.7,3.7,4.8,4.4,7.8,3.8c1.6-0.3,0.9-2.7-0.7-2.4
			c-1.5,0.3-3.7,0.3-4.5-1.3c-0.9-1.8,1.2-2.9,2.7-2.6C190.3,18.1,191,15.7,189.4,15.3L189.4,15.3z"/>
	</g>
</g>
<g id="XMLID_93_">
	<g id="XMLID_151_">
		<path id="XMLID_155_" class="st2" d="M191.9,16.4c0.7,2.1,1.1,4.3,1.1,6.5c0,0.9,0.8,1.4,1.6,1.2c1.2-0.2,2.4-0.5,3.6-0.7
			c1.6-0.3,0.9-2.7-0.7-2.4c-1.2,0.2-2.4,0.5-3.6,0.7c0.5,0.4,1.1,0.8,1.6,1.2c-0.1-2.5-0.5-4.9-1.2-7.2
			C193.8,14.2,191.4,14.8,191.9,16.4L191.9,16.4z"/>
	</g>
</g>
<g id="XMLID_100_">
	<g id="XMLID_158_">
		<path id="XMLID_162_" class="st2" d="M198.1,16.2c0,1.7,0.1,3.4,0.5,5.1c0.2,1.2,0.6,2.8,2,3c1.6,0.2,2.3-2.2,0.7-2.4
			c-0.2,0-0.5-2.4-0.5-2.7c-0.1-1-0.2-2-0.2-3C200.6,14.6,198.1,14.6,198.1,16.2L198.1,16.2z"/>
	</g>
</g>
<g id="XMLID_107_">
	<g id="XMLID_165_">
		<path id="XMLID_169_" class="st2" d="M203.7,18c0,1.8,0,3.6,0,5.3c0,1.6,2.5,1.6,2.5,0c0-1.8,0-3.6,0-5.3
			C206.2,16.4,203.7,16.4,203.7,18L203.7,18z"/>
	</g>
</g>
<g id="XMLID_114_">
	<g id="XMLID_172_">
		<path id="XMLID_176_" class="st2" d="M204.3,19.3c1.4,1.7,2.8,3.3,4.3,5c0.8,0.9,2.1,0.1,2.1-0.9c0.1-2.2,0.4-4.4,0.8-6.6
			c0.3-1.6-2.1-2.2-2.4-0.7c-0.4,2.4-0.7,4.8-0.9,7.2c0.7-0.3,1.4-0.6,2.1-0.9c-1.4-1.7-2.8-3.3-4.3-5
			C205.1,16.3,203.3,18.1,204.3,19.3L204.3,19.3z"/>
	</g>
</g>
<g id="XMLID_121_">
	<g id="XMLID_179_">
		<path id="XMLID_183_" class="st2" d="M217.9,15c-3.3-0.6-5.9,1.9-6.2,5.2c-0.1,1.3,0,2.9,1.2,3.7c1.4,1,3.7,1,5.3,1
			c1.6,0,1.6-2.5,0-2.5c-1,0-2,0-3-0.2c-0.9-0.2-1.1-0.3-1.1-1.3c0-1.7,1.1-3.8,3.1-3.4C218.8,17.6,219.5,15.2,217.9,15L217.9,15z"
			/>
	</g>
</g>
<g id="XMLID_128_">
	<g id="XMLID_186_">
		<path id="XMLID_190_" class="st2" d="M220.3,19c-1.4-0.3-2.9-0.5-4.3-0.4c-1.6,0.1-1.6,2.6,0,2.5c1.2-0.1,2.5,0,3.7,0.3
			C221.2,21.7,221.8,19.3,220.3,19L220.3,19z"/>
	</g>
</g>
<g id="XMLID_135_">
	<g id="XMLID_193_">
		<path id="XMLID_197_" class="st2" d="M217.5,20.7c0.3,1.2,0.6,2.4,0.8,3.7c0.4,1.6,2.8,0.9,2.4-0.7c-0.3-1.2-0.6-2.4-0.8-3.7
			C219.6,18.5,217.2,19.1,217.5,20.7L217.5,20.7z"/>
	</g>
</g>
<g id="XMLID_185_">
	<g id="XMLID_249_">
		<path id="XMLID_253_" class="st3" d="M75.1,33.5c-17.9-1.2-35.8-1.7-53.7-1.5c-3.2,0-3.2,5,0,5c17.9-0.2,35.8,0.3,53.7,1.5
			C78.3,38.7,78.3,33.7,75.1,33.5L75.1,33.5z"/>
	</g>
</g>
<g id="XMLID_184_">
	<g id="XMLID_243_">
		<path id="XMLID_247_" class="st3" d="M73.6,38.4c4,3.3,7.6,7,10.6,11.3c0.7-1.3,1.4-2.5,2.2-3.8c-23.5-0.2-47.1-0.9-70.6-2.1
			c0.8,1.1,1.6,2.1,2.4,3.2c0.8-3.6,2.3-6.6,4.7-9.3c2.1-2.4-1.4-5.9-3.5-3.5c-3,3.4-5,7.1-6,11.5c-0.4,1.6,0.7,3.1,2.4,3.2
			c23.5,1.2,47,1.9,70.6,2.1c1.8,0,3.3-2.2,2.2-3.8c-3.3-4.6-7-8.7-11.4-12.3C74.6,32.9,71.1,36.4,73.6,38.4L73.6,38.4z"/>
	</g>
</g>
<g id="XMLID_177_">
	<g id="XMLID_237_">
		<path id="XMLID_241_" class="st3" d="M16.4,49.2c0.4,11,0.8,22.1,1.2,33.1c0.2,6-1.6,17.5,6.3,19.4c3.1,0.7,4.5-4.1,1.3-4.8
			c-3.4-0.8-2.5-10.1-2.6-12.6c-0.1-3.9-0.3-7.8-0.4-11.7C22,64.7,21.7,57,21.4,49.2C21.3,46,16.3,45.9,16.4,49.2L16.4,49.2z"/>
	</g>
</g>
<g id="XMLID_170_">
	<g id="XMLID_232_">
		<path id="XMLID_236_" class="st3" d="M76.6,51.2c0,8,0,16.1,0,24.1c0,3.9,0,7.7,0,11.6c0,3.3,1.1,9.9-0.5,12.9
			c-1.6,2.8,2.7,5.3,4.3,2.5c1.5-2.7,1.2-5.6,1.2-8.6c0-4.8,0-9.6,0-14.5c0-9.3,0-18.6,0-28C81.6,48,76.6,48,76.6,51.2L76.6,51.2z"
			/>
	</g>
</g>
<g id="XMLID_163_">
	<g id="XMLID_226_">
		<path id="XMLID_230_" class="st3" d="M76.8,99.1c-9-0.1-18-0.2-26.9-0.3c-4.3,0-8.6-0.1-13-0.1c-3.2,0-10.6,1.2-13.1-0.9
			c-2.5-2-6,1.5-3.5,3.5c2.7,2.2,5.3,2.2,8.7,2.2c5.3,0.1,10.6,0.1,16,0.2c10.6,0.1,21.3,0.2,31.9,0.3C80,104.1,80,99.1,76.8,99.1
			L76.8,99.1z"/>
	</g>
</g>
<g id="XMLID_156_">
	<g id="XMLID_506_">
		<path id="XMLID_521_" class="st3" d="M61.2,66.3c-3.1-4.9-10-5.4-13.8-0.8c-4,4.9-1.6,12.3,2.4,16.5c4,4.1,10.8,5.9,15.3,1.4
			c4.4-4.4,3.3-11.6-0.7-15.8c-4.1-4.2-11.8-7.2-16.8-2.6c-4.3,4-3.6,10.6-0.1,14.8c3.7,4.5,10.2,7.9,15.9,5.3
			c6.4-3,7.5-10,7.4-16.4c-0.1-4.6-7.1-7.2-9.3-2.5c-1.7,3.5-3.1,7.4-0.8,11c1.8,2.9,5.5,4.6,8.8,3.4c7.4-2.7,7-14.6,5.8-20.7
			c-1.1-5.3-8-4.1-9.6,0c-1.2,3.1-1.8,6.2-2.1,9.5c-0.4,4.9,7.1,6.9,9.3,2.5c2.9-5.8,4.6-11.6,5.3-18.1c0.3-2.6-2.5-5.1-5-5
			c-16.9,0.5-33.8,0.5-50.8,0c-2.6-0.1-5.1,2.4-5,5c0.7,13.2,0.5,26.8,2.2,39.9c0.7,5.4,4,8.2,9.3,8.9c6.5,0.9,13.2,1.4,19.8,1.5
			c6.4,0.1,12.8-0.1,19.1-0.6c4.4-0.4,11,0,12.3-5.4c0.6-2.4-0.5-5-1-7.3c-0.7-3-1.3-6.1-1.8-9.2c-1-7-1.2-14.1-0.9-21.1
			c0.3-6.1-7.9-6.2-9.8-1.3c-3.1,7.7-1.8,16.6-5.7,24c2.9,0,5.8,0,8.6,0c-3.7-8.2-1.1-18.2-5.3-26.1c-1.7-3.2-5.1-4.8-8.5-3.2
			c-3.2,1.4-4.6,4.7-5.7,7.9c-2.4,7.4-1.8,15.7,1.3,22.7c2.6,5.9,9.4,14.4,16.5,9c5.6-4.2,5-15.7,4.6-21.9
			c-0.4-6.2-2.3-17.8-10.3-18.4c-16.8-1.3,0.3,37.4,2.9,43.7c2.3-2.3,4.6-4.6,6.8-6.8c-6.5-3.4-14-3.4-20.4-6.7
			c-3.2-1.7-4.9-3.9-5-7.6c-0.1-2.9,1-9.1,5.1-7.5c-0.7-2.8-1.5-5.6-2.2-8.4c-1.4,1.3-9.6-3.8-11.6-4.2c-4.2-0.9-8.6,0.4-11,4.1
			c-2.5,3.7-2,8.2-1.5,12.4c0.7,6.2,1.5,12.4,2.3,18.6c0.7,5.4,8,7.1,9.8,1.3c3.3-10.5,6.2-21.6,2.2-32.3c-2.2-6-11.8-3.5-9.6,2.7
			c2.4,6.9,4.6,13.9,7.1,20.8c1.8,4.9,4,9.9,8.2,13.3c3.7,3,9.9,5,13.8,1.1c4.3-4.3,1.1-10.5-3.2-13.2c-6.6-4.3-28.8-9.1-27.8,4.8
			c0.4,5.7,5.5,7.9,10.5,6.2c5.6-1.9,10.1-6.6,12.5-11.9c2.1-4.7-3.9-10.8-7.9-6.1c-3,3.6-6,7.2-9,10.8c-4.1,4.9,2.5,11.8,7.1,7.1
			c3.4-3.5,6.8-7,10.2-10.5c4.5-4.6-2.6-11.7-7.1-7.1c-3.4,3.5-6.8,7-10.2,10.5c2.4,2.4,4.7,4.7,7.1,7.1c3-3.6,6-7.2,9-10.8
			c-2.6-2-5.2-4-7.9-6.1c-1.1,2.4-2.4,4.5-4.5,6.1c-0.4,0.3-2.6,1.2-2.7,1.5c0.7,1.3,1.5,2.6,2.2,4c0.6-0.1,1.2-0.1,1.8,0
			c2.6,0.6,5.3,0.6,7.9,1.4c2.5,0.8,2.9,2.4,4.9,0c2-2.4,1-1.4-0.8-2.8c-3.2-2.5-4.4-7.5-5.7-11.1c-2-5.9-4.1-11.8-6.1-17.8
			c-3.2,0.9-6.4,1.8-9.6,2.7c3.4,9.1,0.6,18.2-2.2,27c3.3,0.4,6.5,0.9,9.8,1.3c-0.6-5-1.2-9.9-1.8-14.9c-0.3-2.3-0.7-4.7-0.8-7
			c-0.1-2.5-0.4-3.5,2.4-3c3.6,0.7,6.3,3.6,10.2,4c3.6,0.4,6.4-0.5,9-2.9c3-2.8,1.1-7.1-2.2-8.4c-13.1-5-19.8,12.1-17.1,22.2
			C40.9,94.9,56.6,93.2,67,98.6c4.8,2.5,8.7-2.4,6.8-6.8c-3-7-5.3-14.2-7.2-21.5c-0.4-1.8-0.9-3.6-1.2-5.4c-0.2-1.1-0.4-2.2-0.7-3.3
			c-1.4,0.5-2.9,1-4.3,1.5c-0.2,0.6,1.5,3.9,1.7,5c0.4,2,0.5,4,0.5,6.1c0,3.3-0.8,6.7-0.7,10c0,0.6-0.2,1.2-0.3,1.9
			c1.6-0.5,2-1.1,1-1.9c-0.2-1.2-1.8-2.8-2.3-4c-1.2-2.8-1.7-5.8-1.7-8.9c0-1.7,0.3-7.7,2.2-8.6c-1.3,0.2-2.6,0.3-3.9,0.5
			c0.3,0.1,0.6,0.1,0.9,0.2c-1-0.8-2-1.5-3-2.3c2.5,3.9,2.2,9.9,2.7,14.4c0.5,4.6,1.5,8.7,3.4,12.9c1.5,3.4,7,3.1,8.6,0
			c4.4-8.3,3.2-17.8,6.7-26.4c-3.3-0.4-6.5-0.9-9.8-1.3c-0.4,9.8,0.3,19.7,2.2,29.3c0.1,0.7,1.2,7.2,1.7,7.3
			c2.4-3.3,2.1-4.6-0.7-3.7c-1.3,0.1-2.5,0.2-3.8,0.3c-5.1,0.4-10.2,0.5-15.3,0.5s-10.2-0.3-15.3-0.8c-1.6-0.1-4.9-0.1-5.8-1
			c-0.9-0.9-0.3-6.4-0.4-7.7c-0.6-10.3-1.1-20.6-1.7-30.8c-1.7,1.7-3.3,3.3-5,5c16.9,0.5,33.8,0.5,50.8,0c-1.7-1.7-3.3-3.3-5-5
			c-0.5,4.6-1.9,8.9-3.9,13c3.1,0.8,6.2,1.7,9.3,2.5c0.2-2.5,0.8-4.6,1.7-6.9c-3.2,0-6.4,0-9.6,0c0.3,1.7,0.5,3.4,0.3,5.1
			c-0.1,0.6-0.2,1.2-0.3,1.9c-1.3,2.6,0.2,3.2,4.4,1.7c-3.1-0.8-6.2-1.7-9.3-2.5c0,1.7,0.6,5.4-1,6.7c-2.3,1.9-4.7-3.2-5.4-2.8
			c0.6-0.4,3.4,2.6,3.6,3.7c-0.1-0.7-0.6-0.7-1.1-1.4c-0.6-0.6-1-1.3-1.2-2.1c-0.3-1.4-1.3-1.9-3.1-1.5
			C56.1,76.8,64.7,71.8,61.2,66.3L61.2,66.3z"/>
	</g>
</g>
<g id="XMLID_149_">
	<g id="XMLID_214_">
		<path id="XMLID_218_" class="st3" d="M37.2,46.7c6.1-0.5,12.1-0.8,18.2-0.9c2.9,0,5.8,0,8.6,0c2.8,0.1,6.2-0.4,8.9,0.4
			c-1.2-1.2-2.3-2.3-3.5-3.5c1.3,3.7,3.6,6.1,7.7,6.1c6.5,0,6.4-9.6,0-10c-9.7-0.7-19.4-1.4-29.1-2.3c-9-0.9-18.1-2.8-26.9-0.1
			c-6.2,1.8-3.5,11.5,2.7,9.6c8.3-2.5,17.7-0.1,26.2,0.7c9.1,0.8,18.1,1.5,27.2,2.1c0-3.3,0-6.7,0-10c2,1.8,2.4,1.8,1.4,0.1
			c-0.3-0.6-0.7-1.1-1.3-1.4c-0.9-0.7-1.9-1-3-1.2c-3.9-0.7-8.3-0.5-12.2-0.5c-8.3-0.1-16.7,0.2-25,0.9
			C30.9,37.2,30.8,47.2,37.2,46.7L37.2,46.7z"/>
	</g>
</g>
<g id="XMLID_142_">
	<g id="XMLID_372_">
		<path id="XMLID_450_" class="st4" d="M78.7,49.7C58.7,50,38.6,49.8,18.6,49c-2.4-0.1-2.4,3.7,0,3.8c20,0.8,40.1,1,60.2,0.7
			C81.2,53.4,81.2,49.7,78.7,49.7L78.7,49.7z"/>
	</g>
</g>
<g id="XMLID_191_">
	<g id="XMLID_256_">
		<path id="XMLID_260_" class="st3" d="M21.4,14c-1.8,0-5-0.7-5.4,1.7c-0.2,1.2,0.1,2.6,0.2,3.8c0.1,1.5,0.2,3,0.4,4.6
			c0.1,1.6,2.6,1.6,2.5,0c-0.1-1.8-0.3-3.7-0.4-5.5c0-0.4-0.1-0.9-0.1-1.3c0-0.4-0.1-0.8,0-0.9c0.3-0.2,2.4,0.1,2.8,0.1
			C23,16.5,23,14,21.4,14L21.4,14z"/>
	</g>
</g>
<g id="XMLID_192_">
	<g id="XMLID_263_">
		<path id="XMLID_267_" class="st3" d="M20.4,19.5c-1.1,0-2.2,0-3.3,0c-1.6,0-1.6,2.5,0,2.5c1.1,0,2.2,0,3.3,0
			C22,22,22,19.5,20.4,19.5L20.4,19.5z"/>
	</g>
</g>
<g id="XMLID_198_">
	<g id="XMLID_270_">
		<path id="XMLID_274_" class="st3" d="M24.1,19.3c1.3-0.2,2.2,3.5,0.8,3.4c-1.9-0.1-0.9-3-0.1-3.6c1.3-0.9,0-3.1-1.3-2.2
			c-1.6,1.2-2.6,3.1-2.2,5.2c0.4,1.9,2.1,3.4,4.1,3c2.1-0.4,2.8-2.4,2.4-4.3c-0.4-2-1.4-4.4-3.9-4.1C22.5,17,22.5,19.5,24.1,19.3
			L24.1,19.3z"/>
	</g>
</g>
<g id="XMLID_199_">
	<g id="XMLID_277_">
		<path id="XMLID_281_" class="st3" d="M30.6,18.8c1-0.3,2.3,2.5,0.9,2.7c-1.3,0.2-1.6-2.7-0.5-3c1.5-0.5,0.9-2.9-0.7-2.4
			c-4.2,1.3-2.6,9,1.8,7.8c4.5-1.2,2-8.9-2.2-7.6C28.4,16.9,29,19.3,30.6,18.8L30.6,18.8z"/>
	</g>
</g>
<g id="XMLID_200_">
	<g id="XMLID_284_">
		<path id="XMLID_288_" class="st3" d="M35.8,16.2c0.2,2.4,0.2,4.8,0.1,7.2c-0.1,1.6,2.4,1.6,2.5,0c0.1-2.4,0-4.8-0.1-7.2
			C38.2,14.6,35.7,14.6,35.8,16.2L35.8,16.2z"/>
	</g>
</g>
<g id="XMLID_201_">
	<g id="XMLID_291_">
		<path id="XMLID_295_" class="st3" d="M37.4,18c1.3-0.6,3,0.1,3.3,1.6c0.3,1.5-2.7,2.1-3.8,2.2c-1.6,0.1-1.6,2.6,0,2.5
			c2.9-0.2,7.1-1.7,6.2-5.3c-0.8-3.2-4.2-4.4-7-3.1C34.7,16.5,35.9,18.7,37.4,18L37.4,18z"/>
	</g>
</g>
<g id="XMLID_225_">
	<g id="XMLID_298_">
		<path id="XMLID_302_" class="st3" d="M49.3,17.2c0.5,2.1,1,4.2,1.5,6.3c0.2,1,1.4,1.1,2.1,0.6c0.3-0.3,0.5-0.5,0.7-0.9
			c0.1-0.2,0.1-0.3,0.2-0.5c0.2-0.4,0.1-0.5-0.2-0.2c-0.3-0.1-0.6-0.2-0.9-0.4c0.8,0.7,1.2,1.8,2.1,2.4c0.9,0.6,1.9,0.5,2.6-0.5
			c0.7-1,0.9-2.5,1.1-3.7c0.1-0.7,0.2-1.3,0.2-2c0.1-0.6-0.1-1.5,0.2-2.1c-0.2,0.2-0.4,0.5-0.6,0.7c0.1,0,0.2-0.1,0.2-0.1
			c-0.4,0-0.8,0-1.3,0c0.1,0,0.1,0.1,0.2,0.1c1.4,0.9,2.6-1.3,1.3-2.2c-1.3-0.8-2.3,0.3-2.4,1.6c-0.1,1.2-0.1,2.3-0.3,3.5
			c-0.1,0.5-0.2,0.9-0.3,1.4c-0.1,0.3-0.1,0.5-0.2,0.8c-0.3,0.5-0.3,0.7,0,0.4c0.3,0,0.6,0.1,1,0.1c-1.2-0.7-1.5-2.6-3-2.7
			c-0.6,0-1,0.2-1.4,0.7c-0.4,0.4-0.4,1.4-0.8,1.7c0.7,0.2,1.4,0.4,2.1,0.6c-0.5-2.1-1-4.2-1.5-6.3C51.3,15,48.9,15.7,49.3,17.2
			L49.3,17.2z"/>
	</g>
</g>
<g id="XMLID_242_">
	<g id="XMLID_305_">
		<path id="XMLID_309_" class="st3" d="M60.6,16.3c-1.2,2.3-1.8,4.6-2.1,7.2c-0.2,1.6,2.3,1.6,2.5,0c0.2-2.1,0.8-4,1.8-5.9
			C63.5,16.1,61.4,14.8,60.6,16.3L60.6,16.3z"/>
	</g>
</g>
<g id="XMLID_254_">
	<g id="XMLID_312_">
		<path id="XMLID_316_" class="st3" d="M60.9,17.9c0.7,1.8,1.3,3.6,1.6,5.5c0.3,1.6,2.7,0.9,2.4-0.7c-0.4-1.9-0.9-3.7-1.6-5.5
			C62.7,15.8,60.3,16.4,60.9,17.9L60.9,17.9z"/>
	</g>
</g>
<g id="XMLID_261_">
	<g id="XMLID_319_">
		<path id="XMLID_323_" class="st3" d="M63.1,20.5c-1.1,0.1-2.2,0.1-3.3,0.2c-1.6,0.1-1.6,2.6,0,2.5c1.1-0.1,2.2-0.1,3.3-0.2
			C64.7,22.9,64.7,20.4,63.1,20.5L63.1,20.5z"/>
	</g>
</g>
<g id="XMLID_268_">
	<g id="XMLID_326_">
		<path id="XMLID_330_" class="st3" d="M69.7,15.2c-1.8-0.3-4.1-0.2-4.7,1.9c-0.3,0.9,0,1.8,0.5,2.6c0.3,0.5,0.7,0.9,1,1.4
			c0.2,0.3,0.4,0.5,0.6,0.8c0.1,0.4,0.3,0.4,0.4,0c-1.5-0.5-2.2,1.9-0.7,2.4c1.4,0.5,3.1-0.6,3-2.2c-0.1-0.9-0.7-1.6-1.2-2.3
			c-0.3-0.4-0.7-0.8-0.9-1.2c-0.4-0.3-0.3-0.7,0.1-1.1c0.4-0.1,0.8-0.1,1.3,0C70.6,17.9,71.3,15.5,69.7,15.2L69.7,15.2z"/>
	</g>
</g>
<g id="XMLID_275_">
	<g id="XMLID_333_">
		<path id="XMLID_337_" class="st3" d="M75.7,15.3c-1.6,0-3.2,0.2-4.8,0.5c-1.6,0.4-0.9,2.8,0.7,2.4c1.4-0.3,2.8-0.5,4.2-0.4
			C77.3,17.8,77.3,15.3,75.7,15.3L75.7,15.3z"/>
	</g>
</g>
<g id="XMLID_282_">
	<g id="XMLID_340_">
		<path id="XMLID_344_" class="st3" d="M72.1,17.4c0.2,1.9,0.3,3.8,0.5,5.7c0.1,1.6,2.6,1.6,2.5,0c-0.2-1.9-0.3-3.8-0.5-5.7
			C74.5,15.8,72,15.8,72.1,17.4L72.1,17.4z"/>
	</g>
</g>
<g id="XMLID_289_">
	<g id="XMLID_347_">
		<path id="XMLID_351_" class="st3" d="M83.1,15.8c-1.3,0.2-3.4,0.1-4.3,1.2c-0.9,1.2-0.9,3.2-0.9,4.6c0,1.2-0.3,3,1,3.5
			c0.6,0.3,1.2,0.1,1.8,0c1.1-0.1,2.2-0.3,3.2-0.4c1.6-0.2,0.9-2.6-0.7-2.4c-0.8,0.1-1.9,0.1-2.7,0.4c-0.6-0.1-0.7,0-0.4,0.4
			c0.2,0.6,0.2,0.5,0.1-0.2c0.1-0.4,0-0.9,0-1.4c0-0.7-0.1-2.3,0.3-2.9c0.3-0.4,1.8-0.4,2.4-0.5C84.6,18.1,84.7,15.6,83.1,15.8
			L83.1,15.8z"/>
	</g>
</g>
<g id="XMLID_296_">
	<g id="XMLID_354_">
		<path id="XMLID_358_" class="st3" d="M82.9,19.5c-1.6,0-3.1,0-4.7,0c-1.6,0-1.6,2.5,0,2.5c1.6,0,3.1,0,4.7,0
			C84.5,22,84.5,19.5,82.9,19.5L82.9,19.5z"/>
	</g>
</g>
<g id="XMLID_346_">
	<g id="XMLID_410_">
		<path id="XMLID_414_" class="st5" d="M351.5,30.4c-17.9-1.2-35.8-1.7-53.7-1.5c-3.2,0-3.2,5,0,5c17.9-0.2,35.8,0.3,53.7,1.5
			C354.7,35.6,354.7,30.6,351.5,30.4L351.5,30.4z"/>
	</g>
</g>
<g id="XMLID_345_">
	<g id="XMLID_404_">
		<path id="XMLID_408_" class="st5" d="M350,35.3c4,3.3,7.6,7,10.6,11.3c0.7-1.3,1.4-2.5,2.2-3.8c-23.5-0.2-47.1-0.9-70.6-2.1
			c0.8,1.1,1.6,2.1,2.4,3.2c0.8-3.6,2.3-6.6,4.7-9.3c2.1-2.4-1.4-5.9-3.5-3.5c-3,3.4-5,7.1-6,11.5c-0.4,1.6,0.7,3.1,2.4,3.2
			c23.5,1.2,47,1.9,70.6,2.1c1.8,0,3.3-2.2,2.2-3.8c-3.3-4.6-7-8.7-11.4-12.3C351,29.8,347.5,33.3,350,35.3L350,35.3z"/>
	</g>
</g>
<g id="XMLID_338_">
	<g id="XMLID_398_">
		<path id="XMLID_402_" class="st5" d="M292.8,46.1c0.4,11,0.8,22.1,1.2,33.1c0.2,6-1.6,17.5,6.3,19.4c3.1,0.7,4.5-4.1,1.3-4.8
			c-3.4-0.8-2.5-10.1-2.6-12.6c-0.1-3.9-0.3-7.8-0.4-11.7c-0.3-7.8-0.6-15.6-0.8-23.4C297.7,42.9,292.7,42.9,292.8,46.1L292.8,46.1z
			"/>
	</g>
</g>
<g id="XMLID_331_">
	<g id="XMLID_392_">
		<path id="XMLID_396_" class="st5" d="M353,48.1c0,8,0,16.1,0,24.1c0,3.9,0,7.7,0,11.6c0,3.3,1.1,9.9-0.5,12.9
			c-1.6,2.8,2.7,5.3,4.3,2.5c1.5-2.7,1.2-5.6,1.2-8.6c0-4.8,0-9.6,0-14.5c0-9.3,0-18.6,0-28C358,44.9,353,44.9,353,48.1L353,48.1z"
			/>
	</g>
</g>
<g id="XMLID_324_">
	<g id="XMLID_386_">
		<path id="XMLID_390_" class="st5" d="M353.2,96c-9-0.1-18-0.2-26.9-0.3c-4.3,0-8.6-0.1-13-0.1c-3.2,0-10.6,1.2-13.1-0.9
			c-2.5-2-6,1.5-3.5,3.5c2.7,2.2,5.3,2.2,8.7,2.2c5.3,0.1,10.6,0.1,16,0.2c10.6,0.1,21.3,0.2,31.9,0.3
			C356.4,101.1,356.4,96.1,353.2,96L353.2,96z"/>
	</g>
</g>
<g id="XMLID_317_">
	<g id="XMLID_380_">
		<path id="XMLID_384_" class="st5" d="M337.6,63.3c-3.1-4.9-10-5.4-13.8-0.8c-4,4.9-1.6,12.3,2.4,16.5c4,4.1,10.8,5.9,15.3,1.4
			c4.4-4.4,3.3-11.6-0.7-15.8c-4.1-4.2-11.8-7.2-16.8-2.6c-4.3,4-3.6,10.6-0.1,14.8c3.7,4.5,10.2,7.9,15.9,5.3
			c6.4-3,7.5-10,7.4-16.4c-0.1-4.6-7.1-7.2-9.3-2.5c-1.7,3.5-3.1,7.4-0.8,11c1.8,2.9,5.5,4.6,8.8,3.4c7.4-2.7,7-14.6,5.8-20.7
			c-1.1-5.3-8-4.1-9.6,0c-1.2,3.1-1.8,6.2-2.1,9.5c-0.4,4.9,7.1,6.9,9.3,2.5c2.9-5.8,4.6-11.6,5.3-18.1c0.3-2.6-2.5-5.1-5-5
			c-16.9,0.5-33.8,0.5-50.8,0c-2.6-0.1-5.1,2.4-5,5c0.7,13.2,0.5,26.8,2.2,39.9c0.7,5.4,4,8.2,9.3,8.9c6.5,0.9,13.2,1.4,19.8,1.5
			c6.4,0.1,12.8-0.1,19.1-0.6c4.4-0.4,11,0,12.3-5.4c0.6-2.4-0.5-5-1-7.3c-0.7-3-1.3-6.1-1.8-9.2c-1-7-1.2-14.1-0.9-21.1
			c0.3-6.1-7.9-6.2-9.8-1.3c-3.1,7.7-1.8,16.6-5.7,24c2.9,0,5.8,0,8.6,0c-3.7-8.2-1.1-18.2-5.3-26.1c-1.7-3.2-5.1-4.8-8.5-3.2
			c-3.2,1.4-4.6,4.7-5.7,7.9c-2.4,7.4-1.8,15.7,1.3,22.7c2.6,5.9,9.4,14.4,16.5,9c5.6-4.2,5-15.7,4.6-21.9
			c-0.4-6.2-2.3-17.8-10.3-18.4c-16.8-1.3,0.3,37.4,2.9,43.7c2.3-2.3,4.6-4.6,6.8-6.8c-6.5-3.4-14-3.4-20.4-6.7
			c-3.2-1.7-4.9-3.9-5-7.6c-0.1-2.9,1-9.1,5.1-7.5c-0.7-2.8-1.5-5.6-2.2-8.4c-1.4,1.3-9.6-3.8-11.6-4.2c-4.2-0.9-8.6,0.4-11,4.1
			c-2.5,3.7-2,8.2-1.5,12.4c0.7,6.2,1.5,12.4,2.3,18.6c0.7,5.4,8,7.1,9.8,1.3c3.3-10.5,6.2-21.6,2.2-32.3c-2.2-6-11.8-3.5-9.6,2.7
			c2.4,6.9,4.6,13.9,7.1,20.8c1.8,4.9,4,9.9,8.2,13.3c3.7,3,9.9,5,13.8,1.1c4.3-4.3,1.1-10.5-3.2-13.2c-6.6-4.3-28.8-9.1-27.8,4.8
			c0.4,5.7,5.5,7.9,10.5,6.2c5.6-1.9,10.1-6.6,12.5-11.9c2.1-4.7-3.9-10.8-7.9-6.1c-3,3.6-6,7.2-9,10.8c-4.1,4.9,2.5,11.8,7.1,7.1
			c3.4-3.5,6.8-7,10.2-10.5c4.5-4.6-2.6-11.7-7.1-7.1c-3.4,3.5-6.8,7-10.2,10.5c2.4,2.4,4.7,4.7,7.1,7.1c3-3.6,6-7.2,9-10.8
			c-2.6-2-5.2-4-7.9-6.1c-1.1,2.4-2.4,4.5-4.5,6.1c-0.4,0.3-2.6,1.2-2.7,1.5c0.7,1.3,1.5,2.6,2.2,4c0.6-0.1,1.2-0.1,1.8,0
			c2.6,0.6,5.3,0.6,7.9,1.4c2.5,0.8,2.9,2.4,4.9,0c2-2.4,1-1.4-0.8-2.8c-3.2-2.5-4.4-7.5-5.7-11.1c-2-5.9-4.1-11.8-6.1-17.8
			c-3.2,0.9-6.4,1.8-9.6,2.7c3.4,9.1,0.6,18.2-2.2,27c3.3,0.4,6.5,0.9,9.8,1.3c-0.6-5-1.2-9.9-1.8-14.9c-0.3-2.3-0.7-4.7-0.8-7
			c-0.1-2.5-0.4-3.5,2.4-3c3.6,0.7,6.3,3.6,10.2,4c3.6,0.4,6.4-0.5,9-2.9c3-2.8,1.1-7.1-2.2-8.4c-13.1-5-19.8,12.1-17.1,22.2
			c3.7,14.2,19.4,12.4,29.7,17.9c4.8,2.5,8.7-2.4,6.8-6.8c-3-7-5.3-14.2-7.2-21.5c-0.4-1.8-0.9-3.6-1.2-5.4
			c-0.2-1.1-0.4-2.2-0.7-3.3c-1.4,0.5-2.9,1-4.3,1.5c-0.2,0.6,1.5,3.9,1.7,5c0.4,2,0.5,4,0.5,6.1c0,3.3-0.8,6.7-0.7,10
			c0,0.6-0.2,1.2-0.3,1.9c1.6-0.5,2-1.1,1-1.9c-0.2-1.2-1.8-2.8-2.3-4c-1.2-2.8-1.7-5.8-1.7-8.9c0-1.7,0.3-7.7,2.2-8.6
			c-1.3,0.2-2.6,0.3-3.9,0.5c0.3,0.1,0.6,0.1,0.9,0.2c-1-0.8-2-1.5-3-2.3c2.5,3.9,2.2,9.9,2.7,14.4c0.5,4.6,1.5,8.7,3.4,12.9
			c1.5,3.4,7,3.1,8.6,0c4.4-8.3,3.2-17.8,6.7-26.4c-3.3-0.4-6.5-0.9-9.8-1.3c-0.4,9.8,0.3,19.7,2.2,29.3c0.1,0.7,1.2,7.2,1.7,7.3
			c2.4-3.3,2.1-4.6-0.7-3.7c-1.3,0.1-2.5,0.2-3.8,0.3c-5.1,0.4-10.2,0.5-15.3,0.5c-5.1-0.1-10.2-0.3-15.3-0.8
			c-1.6-0.1-4.9-0.1-5.8-1c-0.9-0.9-0.3-6.4-0.4-7.7c-0.6-10.3-1.1-20.6-1.7-30.8c-1.7,1.7-3.3,3.3-5,5c16.9,0.5,33.8,0.5,50.8,0
			c-1.7-1.7-3.3-3.3-5-5c-0.5,4.6-1.9,8.9-3.9,13c3.1,0.8,6.2,1.7,9.3,2.5c0.2-2.5,0.8-4.6,1.7-6.9c-3.2,0-6.4,0-9.6,0
			c0.3,1.7,0.5,3.4,0.3,5.1c-0.1,0.6-0.2,1.2-0.3,1.9c-1.3,2.6,0.2,3.2,4.4,1.7c-3.1-0.8-6.2-1.7-9.3-2.5c0,1.7,0.6,5.4-1,6.7
			c-2.3,1.9-4.7-3.2-5.4-2.8c0.6-0.4,3.4,2.6,3.6,3.7c-0.1-0.7-0.6-0.7-1.1-1.4c-0.6-0.6-1-1.3-1.2-2.1c-0.3-1.4-1.3-1.9-3.1-1.5
			C332.5,73.7,341.1,68.7,337.6,63.3L337.6,63.3z"/>
	</g>
</g>
<g id="XMLID_310_">
	<g id="XMLID_374_">
		<path id="XMLID_378_" class="st5" d="M313.6,43.6c6.1-0.5,12.1-0.8,18.2-0.9c2.9,0,5.8,0,8.6,0c2.8,0.1,6.2-0.4,8.9,0.4
			c-1.2-1.2-2.3-2.3-3.5-3.5c1.3,3.7,3.6,6.1,7.7,6.1c6.5,0,6.4-9.6,0-10c-9.7-0.7-19.4-1.4-29.1-2.3c-9-0.9-18.1-2.8-26.9-0.1
			c-6.2,1.8-3.5,11.5,2.7,9.6c8.3-2.5,17.7-0.1,26.2,0.7c9.1,0.8,18.1,1.5,27.2,2.1c0-3.3,0-6.7,0-10c2,1.8,2.4,1.8,1.4,0.1
			c-0.3-0.6-0.7-1.1-1.3-1.4c-0.9-0.7-1.9-1-3-1.2c-3.9-0.7-8.3-0.5-12.2-0.5c-8.3-0.1-16.7,0.2-25,0.9
			C307.3,34.2,307.2,44.2,313.6,43.6L313.6,43.6z"/>
	</g>
</g>
<g id="XMLID_303_">
	<g id="XMLID_457_">
		<path id="XMLID_472_" class="st6" d="M355.1,46.6C335.1,47,315,46.7,295,45.9c-2.4-0.1-2.4,3.7,0,3.8c20,0.8,40.1,1,60.2,0.7
			C357.6,50.3,357.6,46.6,355.1,46.6L355.1,46.6z"/>
	</g>
</g>
<g id="XMLID_352_">
	<g id="XMLID_417_">
		<path id="XMLID_421_" class="st5" d="M312.3,15.1c-3.1,0.2-6.2,0.4-9.2,0.6c-1.6,0.1-1.6,2.6,0,2.5c3.1-0.2,6.2-0.4,9.2-0.6
			C313.9,17.5,313.9,15,312.3,15.1L312.3,15.1z"/>
	</g>
</g>
<g id="XMLID_353_">
	<g id="XMLID_424_">
		<path id="XMLID_428_" class="st5" d="M307.1,17.2c-0.1,1.9-0.1,3.8,0.1,5.8c0.1,1.6,2.6,1.6,2.5,0c-0.2-1.9-0.2-3.8-0.1-5.8
			C309.7,15.6,307.1,15.6,307.1,17.2L307.1,17.2z"/>
	</g>
</g>
<g id="XMLID_359_">
	<g id="XMLID_431_">
		<path id="XMLID_435_" class="st5" d="M312.8,19.2c0,0.9,0,1.8,0.1,2.7c0.8,0,1.7,0,2.5,0c-0.1-1.1-0.3-2.2-0.1-3.3
			c0.2-0.9,1.2-2.6,2.4-2c1.6,0.8-1.2,1.3-1.7,1.4c-1,0.2-1.7,0.5-2.5,1.1c-0.6,0.5-0.4,1.6,0.3,2c1.9,1.1,3.9,2.2,5.9,3.2
			c1.4,0.7,2.7-1.4,1.3-2.2c-2-1-4-2.1-5.9-3.2c0.1,0.7,0.2,1.3,0.3,2c0.9-0.7,2.2-0.5,3.2-0.9c0.8-0.3,1.6-0.8,2-1.6
			c0.8-1.6-0.2-3.4-1.7-4c-1.8-0.7-3.7,0-4.9,1.4c-1.4,1.7-1.2,4-1,6.1c0.2,1.5,2.5,1.7,2.5,0c0-0.9,0-1.8-0.1-2.7
			C315.3,17.5,312.8,17.5,312.8,19.2L312.8,19.2z"/>
	</g>
</g>
<g id="XMLID_360_">
	<g id="XMLID_438_">
		<path id="XMLID_442_" class="st5" d="M325.5,23.2c0.1-2.4,1.1-4.5,2.8-6.2c-0.6,0-1.2,0-1.8,0c1,0.9,1.1,2.3,1.5,3.5
			c0.3,1.2,0.8,2.3,1.7,3.3c1.1,1.2,2.9-0.6,1.8-1.8c-0.9-1-1.1-2.4-1.4-3.6c-0.3-1.2-0.8-2.3-1.7-3.2c-0.5-0.5-1.3-0.5-1.8,0
			c-2.2,2.1-3.4,4.9-3.6,7.9C322.9,24.8,325.4,24.8,325.5,23.2L325.5,23.2z"/>
	</g>
</g>
<g id="XMLID_361_">
	<g id="XMLID_445_">
		<path id="XMLID_449_" class="st5" d="M328.8,19.7c-1.7,0-3.3,0-5,0c-1.6,0-1.6,2.5,0,2.5c1.7,0,3.3,0,5,0
			C330.4,22.2,330.4,19.7,328.8,19.7L328.8,19.7z"/>
	</g>
</g>
<g id="XMLID_362_">
	<g id="XMLID_452_">
		<path id="XMLID_456_" class="st5" d="M335,14.1c-1.9,0.3-4.4,1.7-3.5,4.1c0.3,0.9,1.1,1.5,1.9,1.9c1.2,0.7,2,1.3,2.6,2.5
			c0.1-0.6,0.3-1.1,0.4-1.7c-0.9,0.6-1.6,0.7-2.6,0.4c-1.5-0.5-2.2,1.9-0.7,2.4c1.6,0.5,3.2,0.3,4.6-0.6c0.6-0.4,0.8-1.1,0.4-1.7
			c-0.6-1.1-1.4-2.1-2.5-2.8c-0.4-0.3-1-0.5-1.4-0.8c-1-0.9,0.6-1.1,1.3-1.2C337.2,16.2,336.5,13.8,335,14.1L335,14.1z"/>
	</g>
</g>
<g id="XMLID_391_">
	<g id="XMLID_459_">
		<path id="XMLID_463_" class="st5" d="M339.7,15.8c-0.4,2.5-0.2,4.9,0.7,7.2c0.6,1.5,3,0.8,2.4-0.7c-0.7-1.9-1-3.9-0.7-5.9
			C342.3,14.9,339.9,14.2,339.7,15.8L339.7,15.8z"/>
	</g>
</g>
<g id="XMLID_403_">
	<g id="XMLID_466_">
		<path id="XMLID_470_" class="st5" d="M346.2,15.9c0.1,2.1,0.4,4.1,1.1,6.1c0.5,1.5,2.9,0.9,2.4-0.7c-0.6-1.8-0.9-3.6-1-5.4
			C348.6,14.3,346.1,14.3,346.2,15.9L346.2,15.9z"/>
	</g>
</g>
<g id="XMLID_415_">
	<g id="XMLID_473_">
		<path id="XMLID_477_" class="st5" d="M347,16.8c-2.1,0.3-4.2,0.5-6.2,0.8c-1.6,0.2-1.6,2.7,0,2.5c2.1-0.3,4.2-0.5,6.2-0.8
			C348.6,19.1,348.6,16.6,347,16.8L347,16.8z"/>
	</g>
</g>
<g id="XMLID_73_">
	<g id="XMLID_480_">
		<path id="XMLID_484_" class="st1" d="M185,69.4c0.4-0.9,1.4-3.2,2.4-3.1c0.9,0.1,2.3,2.4,2.7,3c1.4,1.8,2.8,3.5,4.6,4.8
			c1.9,1.4,3.8-1.8,1.9-3.2c-3-2.2-4.6-7.3-8.3-8.6c-3.4-1.3-6,3.6-7,6.1C180.5,70.6,184.1,71.6,185,69.4L185,69.4z"/>
	</g>
</g>
<g id="XMLID_88_">
	<g id="XMLID_487_">
		<path id="XMLID_491_" class="st1" d="M195.6,66.3c-0.3,2.1-0.5,4.3-0.5,6.5c0.6-0.6,1.2-1.2,1.9-1.9c-2.4,0.3-4.8,0.4-7.2,0.2
			c-2.4-0.1-2.4,3.6,0,3.8c2.4,0.1,4.8,0,7.2-0.2c1-0.1,1.9-0.8,1.9-1.9c0-1.8,0.1-3.7,0.3-5.5C199.6,64.9,196,63.9,195.6,66.3
			L195.6,66.3z"/>
	</g>
</g>
<g id="XMLID_89_">
	<g id="XMLID_494_">
		<path id="XMLID_498_" class="st1" d="M199.2,78.3c0.6,1.2,1.3,2.3,1.9,3.5c0.4,0.8,1.6,2.4,1.6,3.3c0.2-0.4,0.4-0.9,0.5-1.3
			c-0.2,0.2-2.6,0.1-2.8,0.1c-1,0.1-2.1,0.1-3.1,0.2c-2.1,0.1-4.2,0.2-6.2,0.4c-2.4,0.1-2.4,3.9,0,3.8c2.8-0.2,5.6-0.3,8.3-0.5
			c1.8-0.1,4.6,0.3,6.1-0.9c1.2-1,1-2.1,0.6-3.4c-0.9-2.4-2.4-4.8-3.6-7C201.2,74.3,198,76.2,199.2,78.3L199.2,78.3z"/>
	</g>
</g>
<g id="XMLID_90_">
	<g id="XMLID_501_">
		<path id="XMLID_505_" class="st1" d="M192.6,81.3c-0.9,0.8-1.9,1.4-3.1,1.9c-0.9,0.4-1.9,0.7-2.3,1.7c-0.5,1.2,0.2,2.1,1,3
			c1,1,2.1,1.8,3.2,2.7c1.8,1.6,4.5-1.1,2.7-2.7c-1.3-1.1-2.8-2.1-3.9-3.4c0.2,0.4,0.4,0.9,0.5,1.3c-0.7,0.9-0.8,1.2-0.2,0.9
			c0.3-0.1,0.6-0.2,0.9-0.4c0.4-0.2,0.8-0.4,1.2-0.6c0.9-0.5,1.8-1.2,2.6-1.9C197,82.4,194.4,79.7,192.6,81.3L192.6,81.3z"/>
	</g>
</g>
<g id="XMLID_91_">
	<g id="XMLID_508_">
		<path id="XMLID_512_" class="st1" d="M182.3,85.6c-1.4,0.1-2.8,0.1-4.3,0.1c-2.3-0.1-1.4-0.5-0.3-2.1c1.6-2.5,3.1-4.9,4.7-7.4
			c-1.1,0-2.2,0-3.2,0c0.8,1.3,1.5,2.6,2,4c0.8,2.2,4.4,1.3,3.6-1c-0.7-1.9-1.1-5.2-3.4-5.7c-2.2-0.6-5.4,1.1-7.6,1.7
			c-2.3,0.6-1.3,4.3,1,3.6c1.5-0.4,3-0.8,4.5-1.3c0.3-0.1,0.5-0.2,0.8-0.2c0.5-0.2,0.6-0.1,0.2,0.3c0.5,0.6,0.7,1.9,0.9,2.6
			c1.2-0.3,2.4-0.7,3.6-1c-0.6-1.7-1.4-3.3-2.4-4.9c-0.8-1.2-2.5-1.2-3.2,0c-1.3,2.1-2.6,4.2-3.9,6.2c-1.1,1.7-3,3.8-2.7,5.9
			c0.6,4,7.1,3.1,9.8,2.9C184.7,89.2,184.7,85.4,182.3,85.6L182.3,85.6z"/>
	</g>
</g>
<g id="XMLID_92_">
	<g id="XMLID_515_">
		<path id="XMLID_519_" class="st6" d="M333.5,61.1c-6.6,3.8-12.6,8.6-17.6,14.3c-1.6,1.8,1,4.5,2.7,2.7
			c4.9-5.5,10.5-10.1,16.9-13.7C337.5,63.1,335.6,59.9,333.5,61.1L333.5,61.1z"/>
	</g>
</g>
<g id="XMLID_207_">
	<g id="XMLID_522_">
		<path id="XMLID_526_" class="st6" d="M313.9,64.4c5.9,4.4,11.9,8.8,17.8,13.2c1.9,1.4,3.8-1.8,1.9-3.2
			c-5.9-4.4-11.9-8.8-17.8-13.2C313.8,59.8,311.9,63,313.9,64.4L313.9,64.4z"/>
	</g>
</g>
<g id="XMLID_204_">
	<g id="XMLID_529_">
		<path id="XMLID_533_" class="st4" d="M45,59.3c-6.8,3.6-13.4,7.6-19.7,11.9c-2,1.3-0.1,4.6,1.9,3.2c6.4-4.3,12.9-8.3,19.7-11.9
			C49.1,61.4,47.2,58.1,45,59.3L45,59.3z"/>
	</g>
</g>
<g id="XMLID_209_">
	<g id="XMLID_536_">
		<path id="XMLID_540_" class="st4" d="M47.7,62.6c0.2-0.1,0.7,0,0.9,0.2c0.4,0.4,0.2,0.9-0.1,1.4c-0.6,0.8-0.1,2.1,0.7,2.6
			c0.9,0.5,2,0.2,2.6-0.7c1.2-1.7,1-4.2-0.3-5.7c-1.4-1.6-3.7-1.9-5.6-1c-0.9,0.4-1.1,1.8-0.7,2.6C45.7,62.9,46.8,63,47.7,62.6
			L47.7,62.6z"/>
	</g>
</g>
<g id="XMLID_220_">
	<g id="XMLID_543_">
		<path id="XMLID_547_" class="st4" d="M48.7,67.5c7.8,6.6,14.5,14.2,20,22.8c0.5-0.9,1.1-1.9,1.6-2.8C56.6,86.4,44.5,80,32.6,73.6
			c-2.1-1.1-4,2.1-1.9,3.2C43.2,83.6,55.9,90,70.3,91.3c1.4,0.1,2.3-1.7,1.6-2.8c-5.6-8.9-12.5-16.8-20.6-23.5
			C49.5,63.3,46.8,66,48.7,67.5L48.7,67.5z"/>
	</g>
</g>
<g id="XMLID_221_">
	<g id="XMLID_550_">
		<path id="XMLID_554_" class="st4" d="M30.7,73.9c-0.8,0.2-1.6,0.3-2.4,0.5c0,0-0.7,0.1-0.7,0.1c-0.1,0-0.1,0,0.1,0.1
			c0.2,0.3,0.2,0.6,0.2,0.9c0.6-0.8,0.1-2.1-0.7-2.6c-1-0.6-1.9-0.1-2.6,0.7c-1.2,1.6-0.1,3.8,1.6,4.4c1.7,0.6,3.7-0.1,5.4-0.5
			C34.1,77,33.1,73.4,30.7,73.9L30.7,73.9z"/>
	</g>
</g>
<g id="XMLID_222_">
	<g id="XMLID_557_">
		<path id="XMLID_561_" class="st4" d="M46.5,64.5c-2.9,0.8-5.3,2.5-7.8,4c-2.9,1.7-5.7,3.4-8.6,5.1c-2.1,1.2-0.2,4.5,1.9,3.2
			c2.5-1.5,5-3,7.5-4.5c2.6-1.5,5.1-3.5,8-4.2C49.9,67.5,48.9,63.8,46.5,64.5L46.5,64.5z"/>
	</g>
</g>
<g id="XMLID_223_">
	<g id="XMLID_564_">
		<path id="XMLID_568_" class="st4" d="M40.7,76.5c2.4,0,2.4-3.8,0-3.8C38.3,72.8,38.3,76.5,40.7,76.5L40.7,76.5z"/>
	</g>
</g>
<g id="XMLID_478_">
	<g id="XMLID_571_">
		<path id="XMLID_575_" class="st4" d="M49.3,71.8c0-0.1,0-0.1,0-0.2c0-1-0.9-1.9-1.9-1.9c-1,0-1.9,0.8-1.9,1.9c0,0.1,0,0.1,0,0.2
			c0,1,0.9,1.9,1.9,1.9C48.4,73.7,49.3,72.9,49.3,71.8L49.3,71.8z"/>
	</g>
</g>
<g id="XMLID_492_">
	<g id="XMLID_578_">
		<path id="XMLID_582_" class="st4" d="M46.5,78.7c2.4,0,2.4-3.8,0-3.8C44.1,75,44.1,78.7,46.5,78.7L46.5,78.7z"/>
	</g>
</g>
<g id="XMLID_527_">
	<g id="XMLID_585_">
		<path id="XMLID_589_" class="st4" d="M55.3,75.7c0-0.1,0-0.1,0-0.2c0-1-0.9-1.9-1.9-1.9c-1,0-1.9,0.8-1.9,1.9c0,0.1,0,0.1,0,0.2
			c0,1,0.9,1.9,1.9,1.9C54.4,77.5,55.3,76.7,55.3,75.7L55.3,75.7z"/>
	</g>
</g>
<g id="XMLID_534_">
	<g id="XMLID_592_">
		<path id="XMLID_596_" class="st4" d="M49.8,80.8c0,0.1,0,0.1,0,0.2c0,1,0.9,1.9,1.9,1.9c1,0,1.9-0.8,1.9-1.9c0-0.1,0-0.1,0-0.2
			c0-1-0.9-1.9-1.9-1.9C50.7,79,49.8,79.8,49.8,80.8L49.8,80.8z"/>
	</g>
</g>
<g id="XMLID_541_">
	<g id="XMLID_599_">
		<path id="XMLID_603_" class="st4" d="M60.9,83.7c0.1-0.1,0.1-0.1,0.2-0.2c0.7-0.7,0.7-2,0-2.7c-0.7-0.7-1.9-0.7-2.7,0
			c-0.1,0.1-0.1,0.1-0.2,0.2c-0.7,0.7-0.7,2,0,2.7C59,84.3,60.1,84.4,60.9,83.7L60.9,83.7z"/>
	</g>
</g>
<g id="XMLID_548_">
	<g id="XMLID_606_">
		<path id="XMLID_610_" class="st4" d="M59.4,79.4c2.4,0,2.4-3.8,0-3.8C57,75.6,57,79.4,59.4,79.4L59.4,79.4z"/>
	</g>
</g>
<g id="XMLID_555_">
	<g id="XMLID_613_">
		<path id="XMLID_617_" class="st4" d="M63.5,86.2c2.4,0,2.4-3.8,0-3.8C61.1,82.5,61.1,86.2,63.5,86.2L63.5,86.2z"/>
	</g>
</g>
<rect id="XMLID_562_" x="-8" y="114.3" class="st7" width="115.8" height="27.2"/>
<text id="XMLID_569_" transform="matrix(1 0 0 1 20.2675 119.8508)"><tspan x="0" y="0" class="st8 st9">fruits, meat, bones,</tspan><tspan x="-3.7" y="13.2" class="st8 st9">bread, tea leaves, etc</tspan></text>
<rect id="XMLID_2_" x="129" y="113.1" class="st7" width="115.8" height="27.2"/>
<text id="XMLID_1_" transform="matrix(1 0 0 1 130.2321 118.6524)"><tspan x="0" y="0" class="st8 st9">plastic bottles, aluminium cans, glass, </tspan><tspan x="7.9" y="13.2" class="st8 st9">paper, cardboard boxes, letters</tspan></text>
<rect id="XMLID_4_" x="268.4" y="112" class="st7" width="115.8" height="61"/>
<text id="XMLID_3_" transform="matrix(1 0 0 1 269.2852 117.5986)"><tspan x="0" y="0" class="st8 st9">plastic wraps, styrofoam, cooking oil, </tspan><tspan x="-0.4" y="13.2" class="st8 st9">dirty tissues and cutlery, electronics, </tspan><tspan x="9.9" y="26.4" class="st8 st9">ceramics, appliances, pots/pans, </tspan><tspan x="25.5" y="39.6" class="st8 st9">diapers, hangers, etc</tspan></text>
</svg>
