<?xml version="1.0" encoding="utf-8"?>
<!-- Generator: Adobe Illustrator 19.0.0, SVG Export Plug-In . SVG Version: 6.00 Build 0)  -->
<svg version="1.1" id="Layer_1" xmlns="http://www.w3.org/2000/svg" xmlns:xlink="http://www.w3.org/1999/xlink" x="0px" y="0px"
	 viewBox="-98 336.9 399 168" style="enable-background:new -98 336.9 399 168;" xml:space="preserve">
<style type="text/css">
	.st0{fill:#1B998B;}
	.st1{fill:#42AD9B;}
	.st2{fill:#34A595;}
	.st3{fill:#F79A72;}
	.st4{fill:#EC825C;}
	.st5{fill:#E84855;}
	.st6{fill:#F2778A;}
	.st7{fill:none;}
	.st8{fill:#231F20;}
	.st9{font-family:'OpenSans';}
	.st10{font-size:7px;}
</style>
<g id="XMLID_27_">
	<g id="XMLID_39_">
		<path id="XMLID_43_" class="st0" d="M114.6,370.6c-17.9-1.2-35.8-1.7-53.7-1.5c-3.2,0-3.2,5,0,5c17.9-0.2,35.8,0.3,53.7,1.5
			C117.8,375.8,117.8,370.8,114.6,370.6L114.6,370.6z"/>
	</g>
</g>
<g id="XMLID_28_">
	<g id="XMLID_46_">
		<path id="XMLID_50_" class="st0" d="M113.1,375.5c4,3.3,7.6,7,10.6,11.3c0.7-1.3,1.4-2.5,2.2-3.8c-23.5-0.2-47.1-0.9-70.6-2.1
			c0.8,1.1,1.6,2.1,2.4,3.2c0.8-3.6,2.3-6.6,4.7-9.3c2.1-2.4-1.4-5.9-3.5-3.5c-3,3.4-5,7.1-6,11.5c-0.4,1.6,0.7,3.1,2.4,3.2
			c23.5,1.2,47,1.9,70.6,2.1c1.8,0,3.3-2.2,2.2-3.8c-3.3-4.6-7-8.7-11.4-12.3C114.1,369.9,110.6,373.5,113.1,375.5L113.1,375.5z"/>
	</g>
</g>
<g id="XMLID_30_">
	<g id="XMLID_60_">
		<path id="XMLID_64_" class="st0" d="M55.9,386.2c0.4,11,0.8,22.1,1.2,33.1c0.2,6-1.6,17.5,6.3,19.4c3.1,0.7,4.5-4.1,1.3-4.8
			c-3.4-0.8-2.5-10.1-2.6-12.6c-0.1-3.9-0.3-7.8-0.4-11.7c-0.3-7.8-0.6-15.6-0.8-23.4C60.8,383,55.8,383,55.9,386.2L55.9,386.2z"/>
	</g>
</g>
<g id="XMLID_29_">
	<g id="XMLID_55_">
		<path id="XMLID_59_" class="st0" d="M116.1,388.3c0,8,0,16.1,0,24.1c0,3.9,0,7.7,0,11.6c0,3.3,1.1,9.9-0.5,12.9
			c-1.6,2.8,2.7,5.3,4.3,2.5c1.5-2.7,1.2-5.6,1.2-8.6c0-4.8,0-9.6,0-14.5c0-9.3,0-18.6,0-28C121.1,385,116.1,385,116.1,388.3
			L116.1,388.3z"/>
	</g>
</g>
<g id="XMLID_31_">
	<g id="XMLID_67_">
		<path id="XMLID_71_" class="st0" d="M116.3,436.2c-9-0.1-18-0.2-26.9-0.3c-4.3,0-8.6-0.1-13-0.1c-3.2,0-10.6,1.2-13.1-0.9
			c-2.5-2-6,1.5-3.5,3.5c2.7,2.2,5.3,2.2,8.7,2.2c5.3,0.1,10.6,0.1,16,0.2c10.6,0.1,21.3,0.2,31.9,0.3
			C119.5,441.2,119.5,436.2,116.3,436.2L116.3,436.2z"/>
	</g>
</g>
<g id="XMLID_32_">
	<g id="XMLID_74_">
		<path id="XMLID_78_" class="st0" d="M100.7,403.4c-3.1-4.9-10-5.4-13.8-0.8c-4,4.9-1.6,12.3,2.4,16.5c4,4.1,10.8,5.9,15.3,1.4
			c4.4-4.4,3.3-11.6-0.7-15.8c-4.1-4.2-11.8-7.2-16.8-2.6c-4.3,4-3.6,10.6-0.1,14.8c3.7,4.5,10.2,7.9,15.9,5.3
			c6.4-3,7.5-10,7.4-16.4c-0.1-4.6-7.1-7.2-9.3-2.5c-1.7,3.5-3.1,7.4-0.8,11c1.8,2.9,5.5,4.6,8.8,3.4c7.4-2.7,7-14.6,5.8-20.7
			c-1.1-5.3-8-4.1-9.6,0c-1.2,3.1-1.8,6.2-2.1,9.5c-0.4,4.9,7.1,6.9,9.3,2.5c2.9-5.8,4.6-11.6,5.3-18.1c0.3-2.6-2.5-5.1-5-5
			c-16.9,0.5-33.8,0.5-50.8,0c-2.6-0.1-5.1,2.4-5,5c0.7,13.2,0.5,26.8,2.2,39.9c0.7,5.4,4,8.2,9.3,8.9c6.5,0.9,13.2,1.4,19.8,1.5
			c6.4,0.1,12.8-0.1,19.1-0.6c4.4-0.4,11,0,12.3-5.4c0.6-2.4-0.5-5-1-7.3c-0.7-3-1.3-6.1-1.8-9.2c-1-7-1.2-14.1-0.9-21.1
			c0.3-6.1-7.9-6.2-9.8-1.3c-3.1,7.7-1.8,16.6-5.7,24c2.9,0,5.8,0,8.6,0c-3.7-8.2-1.1-18.2-5.3-26.1c-1.7-3.2-5.1-4.8-8.5-3.2
			c-3.2,1.4-4.6,4.7-5.7,7.9c-2.4,7.4-1.8,15.7,1.3,22.7c2.6,5.9,9.4,14.4,16.5,9c5.6-4.2,5-15.7,4.6-21.9
			c-0.4-6.2-2.3-17.8-10.3-18.4c-16.6-1.4,0.5,37.4,3.1,43.6c2.3-2.3,4.6-4.6,6.8-6.8c-6.5-3.4-14-3.4-20.4-6.7
			c-3.2-1.7-4.9-3.9-5-7.6c-0.1-2.9,1-9.1,5.1-7.5c-0.7-2.8-1.5-5.6-2.2-8.4c-1.4,1.3-9.6-3.8-11.6-4.2c-4.2-0.9-8.6,0.4-11,4.1
			c-2.5,3.7-2,8.2-1.5,12.4c0.7,6.2,1.5,12.4,2.3,18.6c0.7,5.4,8,7.1,9.8,1.3c3.3-10.5,6.2-21.6,2.2-32.3c-2.2-6-11.8-3.5-9.6,2.7
			c2.4,6.9,4.6,13.9,7.1,20.8c1.8,4.9,4,9.9,8.2,13.3c3.7,3,9.9,5,13.8,1.1c4.3-4.3,1.1-10.5-3.2-13.2c-6.6-4.3-28.8-9.1-27.8,4.8
			c0.4,5.7,5.5,7.9,10.5,6.2c5.6-1.9,10.1-6.6,12.5-11.9c2.1-4.7-3.9-10.8-7.9-6.1c-3,3.6-6,7.2-9,10.8c-4.1,4.9,2.5,11.8,7.1,7.1
			c3.4-3.5,6.8-7,10.2-10.5c4.5-4.6-2.6-11.7-7.1-7.1c-3.4,3.5-6.8,7-10.2,10.5c2.4,2.4,4.7,4.7,7.1,7.1c3-3.6,6-7.2,9-10.8
			c-2.6-2-5.2-4-7.9-6.1c-1.1,2.4-2.4,4.5-4.5,6.1c-0.4,0.3-2.6,1.2-2.7,1.5c0.7,1.3,1.5,2.6,2.2,4c0.6-0.1,1.2-0.1,1.8,0
			c2.6,0.6,5.3,0.6,7.9,1.4c2.5,0.8,2.9,2.4,4.9,0c2-2.4,1-1.4-0.8-2.8c-3.2-2.5-4.4-7.5-5.7-11.1c-2-5.9-4.1-11.8-6.1-17.8
			c-3.2,0.9-6.4,1.8-9.6,2.7c3.4,9.1,0.6,18.2-2.2,27c3.3,0.4,6.5,0.9,9.8,1.3c-0.6-5-1.2-9.9-1.8-14.9c-0.3-2.3-0.7-4.7-0.8-7
			c-0.1-2.5-0.4-3.5,2.4-3c3.6,0.7,6.3,3.6,10.2,4c3.6,0.4,6.4-0.5,9-2.9c3-2.8,1.1-7.1-2.2-8.4c-13.1-5-19.8,12.1-17.1,22.2
			c3.7,14.2,19.4,12.4,29.7,17.9c4.8,2.5,8.7-2.4,6.8-6.8c-3-7-5.3-14.2-7.2-21.5c-0.4-1.8-0.9-3.6-1.2-5.4
			c-0.2-1.1-0.4-2.2-0.7-3.3c-1.4,0.5-2.9,1-4.3,1.5c-0.2,0.6,1.5,3.9,1.7,5c0.4,2,0.5,4,0.5,6.1c0,3.3-0.8,6.7-0.7,10
			c0,0.6-0.2,1.2-0.3,1.9c1.6-0.5,2-1.1,1-1.9c-0.2-1.2-1.8-2.8-2.3-4c-1.2-2.8-1.7-5.8-1.7-8.9c0-1.7,0.3-7.7,2.2-8.6
			c-1.3,0.2-2.6,0.3-3.9,0.5c0.3,0.1,0.6,0.1,0.9,0.2c-1-0.8-2-1.5-3-2.3c2.5,3.9,2.2,9.9,2.7,14.4c0.5,4.6,1.5,8.7,3.4,12.9
			c1.5,3.4,7,3.1,8.6,0c4.4-8.3,3.2-17.8,6.7-26.4c-3.3-0.4-6.5-0.9-9.8-1.3c-0.4,9.8,0.3,19.7,2.2,29.3c0.1,0.7,1.2,7.2,1.7,7.3
			c2.4-3.3,2.1-4.6-0.7-3.7c-1.3,0.1-2.5,0.2-3.8,0.3c-5.1,0.4-10.2,0.5-15.3,0.5c-5.1-0.1-10.2-0.3-15.3-0.8
			c-1.6-0.1-4.9-0.1-5.8-1c-0.9-0.9-0.3-6.4-0.4-7.7c-0.6-10.3-1.1-20.6-1.7-30.8c-1.7,1.7-3.3,3.3-5,5c16.9,0.5,33.8,0.5,50.8,0
			c-1.7-1.7-3.3-3.3-5-5c-0.5,4.6-1.9,8.9-3.9,13c3.1,0.8,6.2,1.7,9.3,2.5c0.2-2.5,0.8-4.6,1.7-6.9c-3.2,0-6.4,0-9.6,0
			c0.3,1.7,0.5,3.4,0.3,5.1c-0.1,0.6-0.2,1.2-0.3,1.9c-1.3,2.6,0.2,3.2,4.4,1.7c-3.1-0.8-6.2-1.7-9.3-2.5c0,1.7,0.6,5.4-1,6.7
			c-2.3,1.9-4.7-3.2-5.4-2.8c0.6-0.4,3.4,2.6,3.6,3.7c-0.1-0.7-0.6-0.7-1.1-1.4c-0.6-0.6-1-1.3-1.2-2.1c-0.3-1.4-1.3-1.9-3.1-1.5
			C95.6,413.8,104.2,408.8,100.7,403.4L100.7,403.4z"/>
	</g>
</g>
<g id="XMLID_33_">
	<g id="XMLID_81_">
		<path id="XMLID_85_" class="st0" d="M76.7,383.8c6.1-0.5,12.1-0.8,18.2-0.9c2.9,0,5.8,0,8.6,0c2.8,0.1,6.2-0.4,8.9,0.4
			c-1.2-1.2-2.3-2.3-3.5-3.5c1.3,3.7,3.6,6.1,7.7,6.1c6.5,0,6.4-9.6,0-10c-9.7-0.7-19.4-1.4-29.1-2.3c-9-0.9-18.1-2.8-26.9-0.1
			c-6.2,1.8-3.5,11.5,2.7,9.6c8.3-2.5,17.7-0.1,26.2,0.7c9.1,0.8,18.1,1.5,27.2,2.1c0-3.3,0-6.7,0-10c2,1.8,2.4,1.8,1.4,0.1
			c-0.3-0.6-0.7-1.1-1.3-1.4c-0.9-0.7-1.9-1-3-1.2c-3.9-0.7-8.3-0.5-12.2-0.5c-8.3-0.1-16.7,0.2-25,0.9
			C70.4,374.3,70.3,384.3,76.7,383.8L76.7,383.8z"/>
	</g>
</g>
<g id="XMLID_35_">
	<g id="XMLID_211_">
		<path id="XMLID_422_" class="st1" d="M118.2,386.8c-20.1,0.3-40.1,0.1-60.2-0.7c-2.4-0.1-2.4,3.7,0,3.8c20,0.8,40.1,1,60.2,0.7
			C120.7,390.5,120.7,386.7,118.2,386.8L118.2,386.8z"/>
	</g>
</g>
<g id="XMLID_37_">
	<g id="XMLID_95_">
		<path id="XMLID_99_" class="st2" d="M53.5,354.8c0.4,2,0.7,4,1.1,6c0.3,1.6,2.7,0.9,2.4-0.7c-0.4-2-0.7-4-1.1-6
			C55.7,352.5,53.3,353.2,53.5,354.8L53.5,354.8z"/>
	</g>
</g>
<g id="XMLID_38_">
	<g id="XMLID_102_">
		<path id="XMLID_106_" class="st2" d="M55.3,354.9c0.3-0.4,2.6-1.4,2.2-0.3c-0.1,0.3-1.4,0.7-1.7,0.9c-0.8,0.5-0.8,1.7,0,2.2
			c1.6,0.9,3,2.1,4.1,3.6c0.9,1.3,3.1,0,2.2-1.3c-1.3-1.9-3-3.3-5-4.5c0,0.7,0,1.4,0,2.2c1-0.6,2.2-0.9,2.8-1.9c0.5-1,0.3-2.2-0.4-3
			c-1.7-2-5.1-1-6.3,1C52.3,355,54.4,356.2,55.3,354.9L55.3,354.9z"/>
	</g>
</g>
<g id="XMLID_51_">
	<g id="XMLID_109_">
		<path id="XMLID_113_" class="st2" d="M68.4,351.6c-1.8-0.1-3.5-0.1-5.3,0c-1,0-1.5,1-1.1,1.9c0.9,2.1,1.5,4.3,1.8,6.6
			c0.1,0.6,0.5,1.3,1.2,1.2c1.3-0.1,2.6-0.1,3.8-0.2c1.6-0.1,1.6-2.6,0-2.5c-1.3,0.1-2.6,0.1-3.8,0.2c0.4,0.4,0.8,0.8,1.2,1.2
			c-0.3-2.8-1-5.4-2.1-7.9c-0.4,0.6-0.7,1.3-1.1,1.9c1.8-0.1,3.5-0.1,5.3,0C70,354.2,70,351.7,68.4,351.6L68.4,351.6z"/>
	</g>
</g>
<g id="XMLID_53_">
	<g id="XMLID_116_">
		<path id="XMLID_120_" class="st2" d="M66.6,354.7c-0.8,0-1.6-0.1-2.3-0.1s-1.2,0.6-1.2,1.2c0,0.7,0.6,1.2,1.2,1.2
			c0.8,0,1.6,0.1,2.3,0.1s1.2-0.6,1.2-1.2C67.8,355.3,67.3,354.8,66.6,354.7L66.6,354.7z"/>
	</g>
</g>
<g id="XMLID_65_">
	<g id="XMLID_123_">
		<path id="XMLID_127_" class="st2" d="M76.5,352.9c-0.3-1.4-1.8-2.3-3.2-1.9c-1.6,0.4-2.4,2-2.5,3.5c-0.4,3.6,2.5,6.8,6.2,6.1
			c1.6-0.3,0.9-2.7-0.7-2.4c-1.3,0.2-2.4-0.6-2.9-1.8c-0.2-0.6-0.3-1.3-0.1-1.9c0-0.1,0.6-1.5,0.8-0.8
			C74.4,355.2,76.8,354.5,76.5,352.9L76.5,352.9z"/>
	</g>
</g>
<g id="XMLID_72_">
	<g id="XMLID_130_">
		<path id="XMLID_134_" class="st2" d="M78,353.6c0.9,1.7,2.2,3.1,3.8,4.3c0.5,0.4,1.4,0.1,1.7-0.4c0.4-0.6,0.1-1.3-0.4-1.7
			c-1.2-0.9-2.1-2.1-2.9-3.4C79.4,350.9,77.2,352.2,78,353.6L78,353.6z"/>
	</g>
</g>
<g id="XMLID_79_">
	<g id="XMLID_137_">
		<path id="XMLID_141_" class="st2" d="M82.2,352.5c-0.6,2.4-1.2,4.9-1.7,7.3c-0.4,1.6,2,2.2,2.4,0.7c0.6-2.4,1.2-4.9,1.7-7.3
			C85,351.6,82.6,350.9,82.2,352.5L82.2,352.5z"/>
	</g>
</g>
<g id="XMLID_86_">
	<g id="XMLID_144_">
		<path id="XMLID_148_" class="st2" d="M91.4,352.2c-3-0.7-6.7,1.4-6,4.9c0.7,3.7,4.8,4.4,7.8,3.8c1.6-0.3,0.9-2.7-0.7-2.4
			c-1.5,0.3-3.7,0.3-4.5-1.3c-0.9-1.8,1.2-2.9,2.7-2.6C92.3,355,93,352.6,91.4,352.2L91.4,352.2z"/>
	</g>
</g>
<g id="XMLID_93_">
	<g id="XMLID_151_">
		<path id="XMLID_155_" class="st2" d="M93.9,353.3c0.7,2.1,1.1,4.3,1.1,6.5c0,0.9,0.8,1.4,1.6,1.2c1.2-0.2,2.4-0.5,3.6-0.7
			c1.6-0.3,0.9-2.7-0.7-2.4c-1.2,0.2-2.4,0.5-3.6,0.7c0.5,0.4,1.1,0.8,1.6,1.2c-0.1-2.5-0.5-4.9-1.2-7.2
			C95.8,351.1,93.4,351.7,93.9,353.3L93.9,353.3z"/>
	</g>
</g>
<g id="XMLID_100_">
	<g id="XMLID_158_">
		<path id="XMLID_162_" class="st2" d="M100.1,353.1c0,1.7,0.1,3.4,0.5,5.1c0.2,1.2,0.6,2.8,2,3c1.6,0.2,2.3-2.2,0.7-2.4
			c-0.2,0-0.5-2.4-0.5-2.7c-0.1-1-0.2-2-0.2-3C102.6,351.5,100.1,351.5,100.1,353.1L100.1,353.1z"/>
	</g>
</g>
<g id="XMLID_107_">
	<g id="XMLID_165_">
		<path id="XMLID_169_" class="st2" d="M105.7,354.9c0,1.8,0,3.6,0,5.3c0,1.6,2.5,1.6,2.5,0c0-1.8,0-3.6,0-5.3
			C108.2,353.3,105.7,353.3,105.7,354.9L105.7,354.9z"/>
	</g>
</g>
<g id="XMLID_114_">
	<g id="XMLID_172_">
		<path id="XMLID_176_" class="st2" d="M106.3,356.2c1.4,1.7,2.8,3.3,4.3,5c0.8,0.9,2.1,0.1,2.1-0.9c0.1-2.2,0.4-4.4,0.8-6.6
			c0.3-1.6-2.1-2.2-2.4-0.7c-0.4,2.4-0.7,4.8-0.9,7.2c0.7-0.3,1.4-0.6,2.1-0.9c-1.4-1.7-2.8-3.3-4.3-5
			C107.1,353.2,105.3,355,106.3,356.2L106.3,356.2z"/>
	</g>
</g>
<g id="XMLID_121_">
	<g id="XMLID_179_">
		<path id="XMLID_183_" class="st2" d="M119.9,351.9c-3.3-0.6-5.9,1.9-6.2,5.2c-0.1,1.3,0,2.9,1.2,3.7c1.4,1,3.7,1,5.3,1
			s1.6-2.5,0-2.5c-1,0-2,0-3-0.2c-0.9-0.2-1.1-0.3-1.1-1.3c0-1.7,1.1-3.8,3.1-3.4C120.8,354.5,121.5,352.1,119.9,351.9L119.9,351.9z
			"/>
	</g>
</g>
<g id="XMLID_128_">
	<g id="XMLID_186_">
		<path id="XMLID_190_" class="st2" d="M122.3,355.9c-1.4-0.3-2.9-0.5-4.3-0.4c-1.6,0.1-1.6,2.6,0,2.5c1.2-0.1,2.5,0,3.7,0.3
			C123.2,358.6,123.8,356.2,122.3,355.9L122.3,355.9z"/>
	</g>
</g>
<g id="XMLID_135_">
	<g id="XMLID_193_">
		<path id="XMLID_197_" class="st2" d="M119.5,357.6c0.3,1.2,0.6,2.4,0.8,3.7c0.4,1.6,2.8,0.9,2.4-0.7c-0.3-1.2-0.6-2.4-0.8-3.7
			C121.6,355.4,119.2,356,119.5,357.6L119.5,357.6z"/>
	</g>
</g>
<g id="XMLID_185_">
	<g id="XMLID_249_">
		<path id="XMLID_253_" class="st3" d="M-22.9,370.4c-17.9-1.2-35.8-1.7-53.7-1.5c-3.2,0-3.2,5,0,5c17.9-0.2,35.8,0.3,53.7,1.5
			C-19.7,375.6-19.7,370.6-22.9,370.4L-22.9,370.4z"/>
	</g>
</g>
<g id="XMLID_184_">
	<g id="XMLID_243_">
		<path id="XMLID_247_" class="st3" d="M-24.4,375.3c4,3.3,7.6,7,10.6,11.3c0.7-1.3,1.4-2.5,2.2-3.8c-23.5-0.2-47.1-0.9-70.6-2.1
			c0.8,1.1,1.6,2.1,2.4,3.2c0.8-3.6,2.3-6.6,4.7-9.3c2.1-2.4-1.4-5.9-3.5-3.5c-3,3.4-5,7.1-6,11.5c-0.4,1.6,0.7,3.1,2.4,3.2
			c23.5,1.2,47,1.9,70.6,2.1c1.8,0,3.3-2.2,2.2-3.8c-3.3-4.6-7-8.7-11.4-12.3C-23.4,369.8-26.9,373.3-24.4,375.3L-24.4,375.3z"/>
	</g>
</g>
<g id="XMLID_177_">
	<g id="XMLID_237_">
		<path id="XMLID_241_" class="st3" d="M-81.6,386.1c0.4,11,0.8,22.1,1.2,33.1c0.2,6-1.6,17.5,6.3,19.4c3.1,0.7,4.5-4.1,1.3-4.8
			c-3.4-0.8-2.5-10.1-2.6-12.6c-0.1-3.9-0.3-7.8-0.4-11.7c-0.2-7.9-0.5-15.6-0.8-23.4C-76.7,382.9-81.7,382.8-81.6,386.1
			L-81.6,386.1z"/>
	</g>
</g>
<g id="XMLID_170_">
	<g id="XMLID_232_">
		<path id="XMLID_236_" class="st3" d="M-21.4,388.1c0,8,0,16.1,0,24.1c0,3.9,0,7.7,0,11.6c0,3.3,1.1,9.9-0.5,12.9
			c-1.6,2.8,2.7,5.3,4.3,2.5c1.5-2.7,1.2-5.6,1.2-8.6c0-4.8,0-9.6,0-14.5c0-9.3,0-18.6,0-28C-16.4,384.9-21.4,384.9-21.4,388.1
			L-21.4,388.1z"/>
	</g>
</g>
<g id="XMLID_163_">
	<g id="XMLID_226_">
		<path id="XMLID_230_" class="st3" d="M-21.2,436c-9-0.1-18-0.2-26.9-0.3c-4.3,0-8.6-0.1-13-0.1c-3.2,0-10.6,1.2-13.1-0.9
			c-2.5-2-6,1.5-3.5,3.5c2.7,2.2,5.3,2.2,8.7,2.2c5.3,0.1,10.6,0.1,16,0.2c10.6,0.1,21.3,0.2,31.9,0.3C-18,441-18,436-21.2,436
			L-21.2,436z"/>
	</g>
</g>
<g id="XMLID_156_">
	<g id="XMLID_506_">
		<path id="XMLID_521_" class="st3" d="M-36.8,403.2c-3.1-4.9-10-5.4-13.8-0.8c-4,4.9-1.6,12.3,2.4,16.5c4,4.1,10.8,5.9,15.3,1.4
			c4.4-4.4,3.3-11.6-0.7-15.8c-4.1-4.2-11.8-7.2-16.8-2.6c-4.3,4-3.6,10.6-0.1,14.8c3.7,4.5,10.2,7.9,15.9,5.3
			c6.4-3,7.5-10,7.4-16.4c-0.1-4.6-7.1-7.2-9.3-2.5c-1.7,3.5-3.1,7.4-0.8,11c1.8,2.9,5.5,4.6,8.8,3.4c7.4-2.7,7-14.6,5.8-20.7
			c-1.1-5.3-8-4.1-9.6,0c-1.2,3.1-1.8,6.2-2.1,9.5c-0.4,4.9,7.1,6.9,9.3,2.5c2.9-5.8,4.6-11.6,5.3-18.1c0.3-2.6-2.5-5.1-5-5
			c-16.9,0.5-33.8,0.5-50.8,0c-2.6-0.1-5.1,2.4-5,5c0.7,13.2,0.5,26.8,2.2,39.9c0.7,5.4,4,8.2,9.3,8.9c6.5,0.9,13.2,1.4,19.8,1.5
			c6.4,0.1,12.8-0.1,19.1-0.6c4.4-0.4,11,0,12.3-5.4c0.6-2.4-0.5-5-1-7.3c-0.7-3-1.3-6.1-1.8-9.2c-1-7-1.2-14.1-0.9-21.1
			c0.3-6.1-7.9-6.2-9.8-1.3c-3.1,7.7-1.8,16.6-5.7,24c2.9,0,5.8,0,8.6,0c-3.7-8.2-1.1-18.2-5.3-26.1c-1.7-3.2-5.1-4.8-8.5-3.2
			c-3.2,1.4-4.6,4.7-5.7,7.9c-2.4,7.4-1.8,15.7,1.3,22.7c2.6,5.9,9.4,14.4,16.5,9c5.6-4.2,5-15.7,4.6-21.9s-2.3-17.8-10.3-18.4
			c-16.8-1.3,0.3,37.4,2.9,43.7c2.3-2.3,4.6-4.6,6.8-6.8c-6.5-3.4-14-3.4-20.4-6.7c-3.2-1.7-4.9-3.9-5-7.6c-0.1-2.9,1-9.1,5.1-7.5
			c-0.7-2.8-1.5-5.6-2.2-8.4c-1.4,1.3-9.6-3.8-11.6-4.2c-4.2-0.9-8.6,0.4-11,4.1c-2.5,3.7-2,8.2-1.5,12.4c0.7,6.2,1.5,12.4,2.3,18.6
			c0.7,5.4,8,7.1,9.8,1.3c3.3-10.5,6.2-21.6,2.2-32.3c-2.2-6-11.8-3.5-9.6,2.7c2.4,6.9,4.6,13.9,7.1,20.8c1.8,4.9,4,9.9,8.2,13.3
			c3.7,3,9.9,5,13.8,1.1c4.3-4.3,1.1-10.5-3.2-13.2c-6.6-4.3-28.8-9.1-27.8,4.8c0.4,5.7,5.5,7.9,10.5,6.2
			c5.6-1.9,10.1-6.6,12.5-11.9c2.1-4.7-3.9-10.8-7.9-6.1c-3,3.6-6,7.2-9,10.8c-4.1,4.9,2.5,11.8,7.1,7.1c3.4-3.5,6.8-7,10.2-10.5
			c4.5-4.6-2.6-11.7-7.1-7.1c-3.4,3.5-6.8,7-10.2,10.5c2.4,2.4,4.7,4.7,7.1,7.1c3-3.6,6-7.2,9-10.8c-2.6-2-5.2-4-7.9-6.1
			c-1.1,2.4-2.4,4.5-4.5,6.1c-0.4,0.3-2.6,1.2-2.7,1.5c0.7,1.3,1.5,2.6,2.2,4c0.6-0.1,1.2-0.1,1.8,0c2.6,0.6,5.3,0.6,7.9,1.4
			c2.5,0.8,2.9,2.4,4.9,0s1-1.4-0.8-2.8c-3.2-2.5-4.4-7.5-5.7-11.1c-2-5.9-4.1-11.8-6.1-17.8c-3.2,0.9-6.4,1.8-9.6,2.7
			c3.4,9.1,0.6,18.2-2.2,27c3.3,0.4,6.5,0.9,9.8,1.3c-0.6-5-1.2-9.9-1.8-14.9c-0.3-2.3-0.7-4.7-0.8-7c-0.1-2.5-0.4-3.5,2.4-3
			c3.6,0.7,6.3,3.6,10.2,4c3.6,0.4,6.4-0.5,9-2.9c3-2.8,1.1-7.1-2.2-8.4c-13.1-5-19.8,12.1-17.1,22.2c3.9,14.1,19.6,12.4,30,17.8
			c4.8,2.5,8.7-2.4,6.8-6.8c-3-7-5.3-14.2-7.2-21.5c-0.4-1.8-0.9-3.6-1.2-5.4c-0.2-1.1-0.4-2.2-0.7-3.3c-1.4,0.5-2.9,1-4.3,1.5
			c-0.2,0.6,1.5,3.9,1.7,5c0.4,2,0.5,4,0.5,6.1c0,3.3-0.8,6.7-0.7,10c0,0.6-0.2,1.2-0.3,1.9c1.6-0.5,2-1.1,1-1.9
			c-0.2-1.2-1.8-2.8-2.3-4c-1.2-2.8-1.7-5.8-1.7-8.9c0-1.7,0.3-7.7,2.2-8.6c-1.3,0.2-2.6,0.3-3.9,0.5c0.3,0.1,0.6,0.1,0.9,0.2
			c-1-0.8-2-1.5-3-2.3c2.5,3.9,2.2,9.9,2.7,14.4c0.5,4.6,1.5,8.7,3.4,12.9c1.5,3.4,7,3.1,8.6,0c4.4-8.3,3.2-17.8,6.7-26.4
			c-3.3-0.4-6.5-0.9-9.8-1.3c-0.4,9.8,0.3,19.7,2.2,29.3c0.1,0.7,1.2,7.2,1.7,7.3c2.4-3.3,2.1-4.6-0.7-3.7c-1.3,0.1-2.5,0.2-3.8,0.3
			c-5.1,0.4-10.2,0.5-15.3,0.5s-10.2-0.3-15.3-0.8c-1.6-0.1-4.9-0.1-5.8-1c-0.9-0.9-0.3-6.4-0.4-7.7c-0.6-10.3-1.1-20.6-1.7-30.8
			c-1.7,1.7-3.3,3.3-5,5c16.9,0.5,33.8,0.5,50.8,0c-1.7-1.7-3.3-3.3-5-5c-0.5,4.6-1.9,8.9-3.9,13c3.1,0.8,6.2,1.7,9.3,2.5
			c0.2-2.5,0.8-4.6,1.7-6.9c-3.2,0-6.4,0-9.6,0c0.3,1.7,0.5,3.4,0.3,5.1c-0.1,0.6-0.2,1.2-0.3,1.9c-1.3,2.6,0.2,3.2,4.4,1.7
			c-3.1-0.8-6.2-1.7-9.3-2.5c0,1.7,0.6,5.4-1,6.7c-2.3,1.9-4.7-3.2-5.4-2.8c0.6-0.4,3.4,2.6,3.6,3.7c-0.1-0.7-0.6-0.7-1.1-1.4
			c-0.6-0.6-1-1.3-1.2-2.1c-0.3-1.4-1.3-1.9-3.1-1.5C-41.9,413.7-33.3,408.7-36.8,403.2L-36.8,403.2z"/>
	</g>
</g>
<g id="XMLID_149_">
	<g id="XMLID_214_">
		<path id="XMLID_218_" class="st3" d="M-60.8,383.6c6.1-0.5,12.1-0.8,18.2-0.9c2.9,0,5.8,0,8.6,0c2.8,0.1,6.2-0.4,8.9,0.4
			c-1.2-1.2-2.3-2.3-3.5-3.5c1.3,3.7,3.6,6.1,7.7,6.1c6.5,0,6.4-9.6,0-10c-9.7-0.7-19.4-1.4-29.1-2.3c-9-0.9-18.1-2.8-26.9-0.1
			c-6.2,1.8-3.5,11.5,2.7,9.6c8.3-2.5,17.7-0.1,26.2,0.7c9.1,0.8,18.1,1.5,27.2,2.1c0-3.3,0-6.7,0-10c2,1.8,2.4,1.8,1.4,0.1
			c-0.3-0.6-0.7-1.1-1.3-1.4c-0.9-0.7-1.9-1-3-1.2c-3.9-0.7-8.3-0.5-12.2-0.5c-8.3-0.1-16.7,0.2-25,0.9
			C-67.1,374.1-67.2,384.1-60.8,383.6L-60.8,383.6z"/>
	</g>
</g>
<g id="XMLID_142_">
	<g id="XMLID_372_">
		<path id="XMLID_450_" class="st4" d="M-19.3,386.6c-20,0.3-40.1,0.1-60.1-0.7c-2.4-0.1-2.4,3.7,0,3.8c20,0.8,40.1,1,60.2,0.7
			C-16.8,390.3-16.8,386.6-19.3,386.6L-19.3,386.6z"/>
	</g>
</g>
<g id="XMLID_191_">
	<g id="XMLID_256_">
		<path id="XMLID_260_" class="st3" d="M-76.6,350.9c-1.8,0-5-0.7-5.4,1.7c-0.2,1.2,0.1,2.6,0.2,3.8c0.1,1.5,0.2,3,0.4,4.6
			c0.1,1.6,2.6,1.6,2.5,0c-0.1-1.8-0.3-3.7-0.4-5.5c0-0.4-0.1-0.9-0.1-1.3s-0.1-0.8,0-0.9c0.3-0.2,2.4,0.1,2.8,0.1
			C-75,353.4-75,350.9-76.6,350.9L-76.6,350.9z"/>
	</g>
</g>
<g id="XMLID_192_">
	<g id="XMLID_263_">
		<path id="XMLID_267_" class="st3" d="M-77.6,356.4c-1.1,0-2.2,0-3.3,0c-1.6,0-1.6,2.5,0,2.5c1.1,0,2.2,0,3.3,0
			C-76,358.9-76,356.4-77.6,356.4L-77.6,356.4z"/>
	</g>
</g>
<g id="XMLID_198_">
	<g id="XMLID_270_">
		<path id="XMLID_274_" class="st3" d="M-73.9,356.2c1.3-0.2,2.2,3.5,0.8,3.4c-1.9-0.1-0.9-3-0.1-3.6c1.3-0.9,0-3.1-1.3-2.2
			c-1.6,1.2-2.6,3.1-2.2,5.2c0.4,1.9,2.1,3.4,4.1,3c2.1-0.4,2.8-2.4,2.4-4.3c-0.4-2-1.4-4.4-3.9-4.1
			C-75.5,353.9-75.5,356.4-73.9,356.2L-73.9,356.2z"/>
	</g>
</g>
<g id="XMLID_199_">
	<g id="XMLID_277_">
		<path id="XMLID_281_" class="st3" d="M-67.4,355.7c1-0.3,2.3,2.5,0.9,2.7c-1.3,0.2-1.6-2.7-0.5-3c1.5-0.5,0.9-2.9-0.7-2.4
			c-4.2,1.3-2.6,9,1.8,7.8c4.5-1.2,2-8.9-2.2-7.6C-69.6,353.8-69,356.2-67.4,355.7L-67.4,355.7z"/>
	</g>
</g>
<g id="XMLID_200_">
	<g id="XMLID_284_">
		<path id="XMLID_288_" class="st3" d="M-62.2,353.1c0.2,2.4,0.2,4.8,0.1,7.2c-0.1,1.6,2.4,1.6,2.5,0c0.1-2.4,0-4.8-0.1-7.2
			C-59.8,351.5-62.3,351.5-62.2,353.1L-62.2,353.1z"/>
	</g>
</g>
<g id="XMLID_201_">
	<g id="XMLID_291_">
		<path id="XMLID_295_" class="st3" d="M-60.6,354.9c1.3-0.6,3,0.1,3.3,1.6s-2.7,2.1-3.8,2.2c-1.6,0.1-1.6,2.6,0,2.5
			c2.9-0.2,7.1-1.7,6.2-5.3c-0.8-3.2-4.2-4.4-7-3.1C-63.3,353.4-62.1,355.6-60.6,354.9L-60.6,354.9z"/>
	</g>
</g>
<g id="XMLID_225_">
	<g id="XMLID_298_">
		<path id="XMLID_302_" class="st3" d="M-48.7,354.1c0.5,2.1,1,4.2,1.5,6.3c0.2,1,1.4,1.1,2.1,0.6c0.3-0.3,0.5-0.5,0.7-0.9
			c0.1-0.2,0.1-0.3,0.2-0.5c0.2-0.4,0.1-0.5-0.2-0.2c-0.3-0.1-0.6-0.2-0.9-0.4c0.8,0.7,1.2,1.8,2.1,2.4c0.9,0.6,1.9,0.5,2.6-0.5
			c0.7-1,0.9-2.5,1.1-3.7c0.1-0.7,0.2-1.3,0.2-2c0.1-0.6-0.1-1.5,0.2-2.1c-0.2,0.2-0.4,0.5-0.6,0.7c0.1,0,0.2-0.1,0.2-0.1
			c-0.4,0-0.8,0-1.3,0c0.1,0,0.1,0.1,0.2,0.1c1.4,0.9,2.6-1.3,1.3-2.2c-1.3-0.8-2.3,0.3-2.4,1.6c-0.1,1.2-0.1,2.3-0.3,3.5
			c-0.1,0.5-0.2,0.9-0.3,1.4c-0.1,0.3-0.1,0.5-0.2,0.8c-0.3,0.5-0.3,0.7,0,0.4c0.3,0,0.6,0.1,1,0.1c-1.2-0.7-1.5-2.6-3-2.7
			c-0.6,0-1,0.2-1.4,0.7c-0.4,0.4-0.4,1.4-0.8,1.7c0.7,0.2,1.4,0.4,2.1,0.6c-0.5-2.1-1-4.2-1.5-6.3
			C-46.7,351.9-49.1,352.6-48.7,354.1L-48.7,354.1z"/>
	</g>
</g>
<g id="XMLID_242_">
	<g id="XMLID_305_">
		<path id="XMLID_309_" class="st3" d="M-37.4,353.2c-1.2,2.3-1.8,4.6-2.1,7.2c-0.2,1.6,2.3,1.6,2.5,0c0.2-2.1,0.8-4,1.8-5.9
			C-34.5,353-36.6,351.7-37.4,353.2L-37.4,353.2z"/>
	</g>
</g>
<g id="XMLID_254_">
	<g id="XMLID_312_">
		<path id="XMLID_316_" class="st3" d="M-37.1,354.8c0.7,1.8,1.3,3.6,1.6,5.5c0.3,1.6,2.7,0.9,2.4-0.7c-0.4-1.9-0.9-3.7-1.6-5.5
			C-35.3,352.7-37.7,353.3-37.1,354.8L-37.1,354.8z"/>
	</g>
</g>
<g id="XMLID_261_">
	<g id="XMLID_319_">
		<path id="XMLID_323_" class="st3" d="M-34.9,357.4c-1.1,0.1-2.2,0.1-3.3,0.2c-1.6,0.1-1.6,2.6,0,2.5c1.1-0.1,2.2-0.1,3.3-0.2
			C-33.3,359.8-33.3,357.3-34.9,357.4L-34.9,357.4z"/>
	</g>
</g>
<g id="XMLID_268_">
	<g id="XMLID_326_">
		<path id="XMLID_330_" class="st3" d="M-28.3,352.1c-1.8-0.3-4.1-0.2-4.7,1.9c-0.3,0.9,0,1.8,0.5,2.6c0.3,0.5,0.7,0.9,1,1.4
			c0.2,0.3,0.4,0.5,0.6,0.8c0.1,0.4,0.3,0.4,0.4,0c-1.5-0.5-2.2,1.9-0.7,2.4c1.4,0.5,3.1-0.6,3-2.2c-0.1-0.9-0.7-1.6-1.2-2.3
			c-0.3-0.4-0.7-0.8-0.9-1.2c-0.4-0.3-0.3-0.7,0.1-1.1c0.4-0.1,0.8-0.1,1.3,0C-27.4,354.8-26.7,352.4-28.3,352.1L-28.3,352.1z"/>
	</g>
</g>
<g id="XMLID_275_">
	<g id="XMLID_333_">
		<path id="XMLID_337_" class="st3" d="M-22.3,352.2c-1.6,0-3.2,0.2-4.8,0.5c-1.6,0.4-0.9,2.8,0.7,2.4c1.4-0.3,2.8-0.5,4.2-0.4
			C-20.7,354.7-20.7,352.2-22.3,352.2L-22.3,352.2z"/>
	</g>
</g>
<g id="XMLID_282_">
	<g id="XMLID_340_">
		<path id="XMLID_344_" class="st3" d="M-25.9,354.3c0.2,1.9,0.3,3.8,0.5,5.7c0.1,1.6,2.6,1.6,2.5,0c-0.2-1.9-0.3-3.8-0.5-5.7
			C-23.5,352.7-26,352.7-25.9,354.3L-25.9,354.3z"/>
	</g>
</g>
<g id="XMLID_289_">
	<g id="XMLID_347_">
		<path id="XMLID_351_" class="st3" d="M-14.9,352.7c-1.3,0.2-3.4,0.1-4.3,1.2c-0.9,1.2-0.9,3.2-0.9,4.6c0,1.2-0.3,3,1,3.5
			c0.6,0.3,1.2,0.1,1.8,0c1.1-0.1,2.2-0.3,3.2-0.4c1.6-0.2,0.9-2.6-0.7-2.4c-0.8,0.1-1.9,0.1-2.7,0.4c-0.6-0.1-0.7,0-0.4,0.4
			c0.2,0.6,0.2,0.5,0.1-0.2c0.1-0.4,0-0.9,0-1.4c0-0.7-0.1-2.3,0.3-2.9c0.3-0.4,1.8-0.4,2.4-0.5C-13.4,355-13.3,352.5-14.9,352.7
			L-14.9,352.7z"/>
	</g>
</g>
<g id="XMLID_296_">
	<g id="XMLID_354_">
		<path id="XMLID_358_" class="st3" d="M-15.1,356.4c-1.6,0-3.1,0-4.7,0s-1.6,2.5,0,2.5s3.1,0,4.7,0S-13.5,356.4-15.1,356.4
			L-15.1,356.4z"/>
	</g>
</g>
<g id="XMLID_346_">
	<g id="XMLID_410_">
		<path id="XMLID_414_" class="st5" d="M253.5,367.3c-17.9-1.2-35.8-1.7-53.7-1.5c-3.2,0-3.2,5,0,5c17.9-0.2,35.8,0.3,53.7,1.5
			C256.7,372.5,256.7,367.5,253.5,367.3L253.5,367.3z"/>
	</g>
</g>
<g id="XMLID_345_">
	<g id="XMLID_404_">
		<path id="XMLID_408_" class="st5" d="M252,372.2c4,3.3,7.6,7,10.6,11.3c0.7-1.3,1.4-2.5,2.2-3.8c-23.5-0.2-47.1-0.9-70.6-2.1
			c0.8,1.1,1.6,2.1,2.4,3.2c0.8-3.6,2.3-6.6,4.7-9.3c2.1-2.4-1.4-5.9-3.5-3.5c-3,3.4-5,7.1-6,11.5c-0.4,1.6,0.7,3.1,2.4,3.2
			c23.5,1.2,47,1.9,70.6,2.1c1.8,0,3.3-2.2,2.2-3.8c-3.3-4.6-7-8.7-11.4-12.3C253,366.7,249.5,370.2,252,372.2L252,372.2z"/>
	</g>
</g>
<g id="XMLID_338_">
	<g id="XMLID_398_">
		<path id="XMLID_402_" class="st5" d="M194.8,383c0.4,11,0.8,22.1,1.2,33.1c0.2,6-1.6,17.5,6.3,19.4c3.1,0.7,4.5-4.1,1.3-4.8
			c-3.4-0.8-2.5-10.1-2.6-12.6c-0.1-3.9-0.3-7.8-0.4-11.7c-0.3-7.8-0.6-15.6-0.8-23.4C199.7,379.8,194.7,379.8,194.8,383L194.8,383z
			"/>
	</g>
</g>
<g id="XMLID_331_">
	<g id="XMLID_392_">
		<path id="XMLID_396_" class="st5" d="M255,385c0,8,0,16.1,0,24.1c0,3.9,0,7.7,0,11.6c0,3.3,1.1,9.9-0.5,12.9
			c-1.6,2.8,2.7,5.3,4.3,2.5c1.5-2.7,1.2-5.6,1.2-8.6c0-4.8,0-9.6,0-14.5c0-9.3,0-18.6,0-28C260,381.8,255,381.8,255,385L255,385z"
			/>
	</g>
</g>
<g id="XMLID_324_">
	<g id="XMLID_386_">
		<path id="XMLID_390_" class="st5" d="M255.2,432.9c-9-0.1-18-0.2-26.9-0.3c-4.3,0-8.6-0.1-13-0.1c-3.2,0-10.6,1.2-13.1-0.9
			c-2.5-2-6,1.5-3.5,3.5c2.7,2.2,5.3,2.2,8.7,2.2c5.3,0.1,10.6,0.1,16,0.2c10.6,0.1,21.3,0.2,31.9,0.3
			C258.4,438,258.4,433,255.2,432.9L255.2,432.9z"/>
	</g>
</g>
<g id="XMLID_317_">
	<g id="XMLID_380_">
		<path id="XMLID_384_" class="st5" d="M239.6,400.2c-3.1-4.9-10-5.4-13.8-0.8c-4,4.9-1.6,12.3,2.4,16.5c4,4.1,10.8,5.9,15.3,1.4
			c4.4-4.4,3.3-11.6-0.7-15.8c-4.1-4.2-11.8-7.2-16.8-2.6c-4.3,4-3.6,10.6-0.1,14.8c3.7,4.5,10.2,7.9,15.9,5.3
			c6.4-3,7.5-10,7.4-16.4c-0.1-4.6-7.1-7.2-9.3-2.5c-1.7,3.5-3.1,7.4-0.8,11c1.8,2.9,5.5,4.6,8.8,3.4c7.4-2.7,7-14.6,5.8-20.7
			c-1.1-5.3-8-4.1-9.6,0c-1.2,3.1-1.8,6.2-2.1,9.5c-0.4,4.9,7.1,6.9,9.3,2.5c2.9-5.8,4.6-11.6,5.3-18.1c0.3-2.6-2.5-5.1-5-5
			c-16.9,0.5-33.8,0.5-50.8,0c-2.6-0.1-5.1,2.4-5,5c0.7,13.2,0.5,26.8,2.2,39.9c0.7,5.4,4,8.2,9.3,8.9c6.5,0.9,13.2,1.4,19.8,1.5
			c6.4,0.1,12.8-0.1,19.1-0.6c4.4-0.4,11,0,12.3-5.4c0.6-2.4-0.5-5-1-7.3c-0.7-3-1.3-6.1-1.8-9.2c-1-7-1.2-14.1-0.9-21.1
			c0.3-6.1-7.9-6.2-9.8-1.3c-3.1,7.7-1.8,16.6-5.7,24c2.9,0,5.8,0,8.6,0c-3.7-8.2-1.1-18.2-5.3-26.1c-1.7-3.2-5.1-4.8-8.5-3.2
			c-3.2,1.4-4.6,4.7-5.7,7.9c-2.4,7.4-1.8,15.7,1.3,22.7c2.6,5.9,9.4,14.4,16.5,9c5.6-4.2,5-15.7,4.6-21.9s-2.3-17.8-10.3-18.4
			c-16.8-1.3,0.3,37.4,2.9,43.7c2.3-2.3,4.6-4.6,6.8-6.8c-6.5-3.4-14-3.4-20.4-6.7c-3.2-1.7-4.9-3.9-5-7.6c-0.1-2.9,1-9.1,5.1-7.5
			c-0.7-2.8-1.5-5.6-2.2-8.4c-1.4,1.3-9.6-3.8-11.6-4.2c-4.2-0.9-8.6,0.4-11,4.1c-2.5,3.7-2,8.2-1.5,12.4c0.7,6.2,1.5,12.4,2.3,18.6
			c0.7,5.4,8,7.1,9.8,1.3c3.3-10.5,6.2-21.6,2.2-32.3c-2.2-6-11.8-3.5-9.6,2.7c2.4,6.9,4.6,13.9,7.1,20.8c1.8,4.9,4,9.9,8.2,13.3
			c3.7,3,9.9,5,13.8,1.1c4.3-4.3,1.1-10.5-3.2-13.2c-6.6-4.3-28.8-9.1-27.8,4.8c0.4,5.7,5.5,7.9,10.5,6.2
			c5.6-1.9,10.1-6.6,12.5-11.9c2.1-4.7-3.9-10.8-7.9-6.1c-3,3.6-6,7.2-9,10.8c-4.1,4.9,2.5,11.8,7.1,7.1c3.4-3.5,6.8-7,10.2-10.5
			c4.5-4.6-2.6-11.7-7.1-7.1c-3.4,3.5-6.8,7-10.2,10.5c2.4,2.4,4.7,4.7,7.1,7.1c3-3.6,6-7.2,9-10.8c-2.6-2-5.2-4-7.9-6.1
			c-1.1,2.4-2.4,4.5-4.5,6.1c-0.4,0.3-2.6,1.2-2.7,1.5c0.7,1.3,1.5,2.6,2.2,4c0.6-0.1,1.2-0.1,1.8,0c2.6,0.6,5.3,0.6,7.9,1.4
			c2.5,0.8,2.9,2.4,4.9,0s1-1.4-0.8-2.8c-3.2-2.5-4.4-7.5-5.7-11.1c-2-5.9-4.1-11.8-6.1-17.8c-3.2,0.9-6.4,1.8-9.6,2.7
			c3.4,9.1,0.6,18.2-2.2,27c3.3,0.4,6.5,0.9,9.8,1.3c-0.6-5-1.2-9.9-1.8-14.9c-0.3-2.3-0.7-4.7-0.8-7c-0.1-2.5-0.4-3.5,2.4-3
			c3.6,0.7,6.3,3.6,10.2,4c3.6,0.4,6.4-0.5,9-2.9c3-2.8,1.1-7.1-2.2-8.4c-13.1-5-19.8,12.1-17.1,22.2c3.7,14.2,19.4,12.4,29.7,17.9
			c4.8,2.5,8.7-2.4,6.8-6.8c-3-7-5.3-14.2-7.2-21.5c-0.4-1.8-0.9-3.6-1.2-5.4c-0.2-1.1-0.4-2.2-0.7-3.3c-1.4,0.5-2.9,1-4.3,1.5
			c-0.2,0.6,1.5,3.9,1.7,5c0.4,2,0.5,4,0.5,6.1c0,3.3-0.8,6.7-0.7,10c0,0.6-0.2,1.2-0.3,1.9c1.6-0.5,2-1.1,1-1.9
			c-0.2-1.2-1.8-2.8-2.3-4c-1.2-2.8-1.7-5.8-1.7-8.9c0-1.7,0.3-7.7,2.2-8.6c-1.3,0.2-2.6,0.3-3.9,0.5c0.3,0.1,0.6,0.1,0.9,0.2
			c-1-0.8-2-1.5-3-2.3c2.5,3.9,2.2,9.9,2.7,14.4c0.5,4.6,1.5,8.7,3.4,12.9c1.5,3.4,7,3.1,8.6,0c4.4-8.3,3.2-17.8,6.7-26.4
			c-3.3-0.4-6.5-0.9-9.8-1.3c-0.4,9.8,0.3,19.7,2.2,29.3c0.1,0.7,1.2,7.2,1.7,7.3c2.4-3.3,2.1-4.6-0.7-3.7c-1.3,0.1-2.5,0.2-3.8,0.3
			c-5.1,0.4-10.2,0.5-15.3,0.5c-5.1-0.1-10.2-0.3-15.3-0.8c-1.6-0.1-4.9-0.1-5.8-1c-0.9-0.9-0.3-6.4-0.4-7.7
			c-0.6-10.3-1.1-20.6-1.7-30.8c-1.7,1.7-3.3,3.3-5,5c16.9,0.5,33.8,0.5,50.8,0c-1.7-1.7-3.3-3.3-5-5c-0.5,4.6-1.9,8.9-3.9,13
			c3.1,0.8,6.2,1.7,9.3,2.5c0.2-2.5,0.8-4.6,1.7-6.9c-3.2,0-6.4,0-9.6,0c0.3,1.7,0.5,3.4,0.3,5.1c-0.1,0.6-0.2,1.2-0.3,1.9
			c-1.3,2.6,0.2,3.2,4.4,1.7c-3.1-0.8-6.2-1.7-9.3-2.5c0,1.7,0.6,5.4-1,6.7c-2.3,1.9-4.7-3.2-5.4-2.8c0.6-0.4,3.4,2.6,3.6,3.7
			c-0.1-0.7-0.6-0.7-1.1-1.4c-0.6-0.6-1-1.3-1.2-2.1c-0.3-1.4-1.3-1.9-3.1-1.5C234.5,410.6,243.1,405.6,239.6,400.2L239.6,400.2z"/>
	</g>
</g>
<g id="XMLID_310_">
	<g id="XMLID_374_">
		<path id="XMLID_378_" class="st5" d="M215.6,380.5c6.1-0.5,12.1-0.8,18.2-0.9c2.9,0,5.8,0,8.6,0c2.8,0.1,6.2-0.4,8.9,0.4
			c-1.2-1.2-2.3-2.3-3.5-3.5c1.3,3.7,3.6,6.1,7.7,6.1c6.5,0,6.4-9.6,0-10c-9.7-0.7-19.4-1.4-29.1-2.3c-9-0.9-18.1-2.8-26.9-0.1
			c-6.2,1.8-3.5,11.5,2.7,9.6c8.3-2.5,17.7-0.1,26.2,0.7c9.1,0.8,18.1,1.5,27.2,2.1c0-3.3,0-6.7,0-10c2,1.8,2.4,1.8,1.4,0.1
			c-0.3-0.6-0.7-1.1-1.3-1.4c-0.9-0.7-1.9-1-3-1.2c-3.9-0.7-8.3-0.5-12.2-0.5c-8.3-0.1-16.7,0.2-25,0.9
			C209.3,371.1,209.2,381.1,215.6,380.5L215.6,380.5z"/>
	</g>
</g>
<g id="XMLID_303_">
	<g id="XMLID_457_">
		<path id="XMLID_472_" class="st6" d="M257.1,383.5c-20,0.4-40.1,0.1-60.1-0.7c-2.4-0.1-2.4,3.7,0,3.8c20,0.8,40.1,1,60.2,0.7
			C259.6,387.2,259.6,383.5,257.1,383.5L257.1,383.5z"/>
	</g>
</g>
<g id="XMLID_352_">
	<g id="XMLID_417_">
		<path id="XMLID_421_" class="st5" d="M214.3,352c-3.1,0.2-6.2,0.4-9.2,0.6c-1.6,0.1-1.6,2.6,0,2.5c3.1-0.2,6.2-0.4,9.2-0.6
			C215.9,354.4,215.9,351.9,214.3,352L214.3,352z"/>
	</g>
</g>
<g id="XMLID_353_">
	<g id="XMLID_424_">
		<path id="XMLID_428_" class="st5" d="M209.1,354.1c-0.1,1.9-0.1,3.8,0.1,5.8c0.1,1.6,2.6,1.6,2.5,0c-0.2-1.9-0.2-3.8-0.1-5.8
			C211.7,352.5,209.1,352.5,209.1,354.1L209.1,354.1z"/>
	</g>
</g>
<g id="XMLID_359_">
	<g id="XMLID_431_">
		<path id="XMLID_435_" class="st5" d="M214.8,356.1c0,0.9,0,1.8,0.1,2.7c0.8,0,1.7,0,2.5,0c-0.1-1.1-0.3-2.2-0.1-3.3
			c0.2-0.9,1.2-2.6,2.4-2c1.6,0.8-1.2,1.3-1.7,1.4c-1,0.2-1.7,0.5-2.5,1.1c-0.6,0.5-0.4,1.6,0.3,2c1.9,1.1,3.9,2.2,5.9,3.2
			c1.4,0.7,2.7-1.4,1.3-2.2c-2-1-4-2.1-5.9-3.2c0.1,0.7,0.2,1.3,0.3,2c0.9-0.7,2.2-0.5,3.2-0.9c0.8-0.3,1.6-0.8,2-1.6
			c0.8-1.6-0.2-3.4-1.7-4c-1.8-0.7-3.7,0-4.9,1.4c-1.4,1.7-1.2,4-1,6.1c0.2,1.5,2.5,1.7,2.5,0c0-0.9,0-1.8-0.1-2.7
			C217.3,354.4,214.8,354.4,214.8,356.1L214.8,356.1z"/>
	</g>
</g>
<g id="XMLID_360_">
	<g id="XMLID_438_">
		<path id="XMLID_442_" class="st5" d="M227.5,360.1c0.1-2.4,1.1-4.5,2.8-6.2c-0.6,0-1.2,0-1.8,0c1,0.9,1.1,2.3,1.5,3.5
			c0.3,1.2,0.8,2.3,1.7,3.3c1.1,1.2,2.9-0.6,1.8-1.8c-0.9-1-1.1-2.4-1.4-3.6c-0.3-1.2-0.8-2.3-1.7-3.2c-0.5-0.5-1.3-0.5-1.8,0
			c-2.2,2.1-3.4,4.9-3.6,7.9C224.9,361.7,227.4,361.7,227.5,360.1L227.5,360.1z"/>
	</g>
</g>
<g id="XMLID_361_">
	<g id="XMLID_445_">
		<path id="XMLID_449_" class="st5" d="M230.8,356.6c-1.7,0-3.3,0-5,0c-1.6,0-1.6,2.5,0,2.5c1.7,0,3.3,0,5,0
			C232.4,359.1,232.4,356.6,230.8,356.6L230.8,356.6z"/>
	</g>
</g>
<g id="XMLID_362_">
	<g id="XMLID_452_">
		<path id="XMLID_456_" class="st5" d="M237,351c-1.9,0.3-4.4,1.7-3.5,4.1c0.3,0.9,1.1,1.5,1.9,1.9c1.2,0.7,2,1.3,2.6,2.5
			c0.1-0.6,0.3-1.1,0.4-1.7c-0.9,0.6-1.6,0.7-2.6,0.4c-1.5-0.5-2.2,1.9-0.7,2.4c1.6,0.5,3.2,0.3,4.6-0.6c0.6-0.4,0.8-1.1,0.4-1.7
			c-0.6-1.1-1.4-2.1-2.5-2.8c-0.4-0.3-1-0.5-1.4-0.8c-1-0.9,0.6-1.1,1.3-1.2C239.2,353.1,238.5,350.7,237,351L237,351z"/>
	</g>
</g>
<g id="XMLID_391_">
	<g id="XMLID_459_">
		<path id="XMLID_463_" class="st5" d="M241.7,352.7c-0.4,2.5-0.2,4.9,0.7,7.2c0.6,1.5,3,0.8,2.4-0.7c-0.7-1.9-1-3.9-0.7-5.9
			C244.3,351.8,241.9,351.1,241.7,352.7L241.7,352.7z"/>
	</g>
</g>
<g id="XMLID_403_">
	<g id="XMLID_466_">
		<path id="XMLID_470_" class="st5" d="M248.2,352.8c0.1,2.1,0.4,4.1,1.1,6.1c0.5,1.5,2.9,0.9,2.4-0.7c-0.6-1.8-0.9-3.6-1-5.4
			C250.6,351.2,248.1,351.2,248.2,352.8L248.2,352.8z"/>
	</g>
</g>
<g id="XMLID_415_">
	<g id="XMLID_473_">
		<path id="XMLID_477_" class="st5" d="M249,353.7c-2.1,0.3-4.2,0.5-6.2,0.8c-1.6,0.2-1.6,2.7,0,2.5c2.1-0.3,4.2-0.5,6.2-0.8
			C250.6,356,250.6,353.5,249,353.7L249,353.7z"/>
	</g>
</g>
<g id="XMLID_73_">
	<g id="XMLID_480_">
		<path id="XMLID_484_" class="st1" d="M87,406.3c0.4-0.9,1.4-3.2,2.4-3.1c0.9,0.1,2.3,2.4,2.7,3c1.4,1.8,2.8,3.5,4.6,4.8
			c1.9,1.4,3.8-1.8,1.9-3.2c-3-2.2-4.6-7.3-8.3-8.6c-3.4-1.3-6,3.6-7,6.1C82.5,407.5,86.1,408.5,87,406.3L87,406.3z"/>
	</g>
</g>
<g id="XMLID_88_">
	<g id="XMLID_487_">
		<path id="XMLID_491_" class="st1" d="M97.6,403.2c-0.3,2.1-0.5,4.3-0.5,6.5c0.6-0.6,1.2-1.2,1.9-1.9c-2.4,0.3-4.8,0.4-7.2,0.2
			c-2.4-0.1-2.4,3.6,0,3.8c2.4,0.1,4.8,0,7.2-0.2c1-0.1,1.9-0.8,1.9-1.9c0-1.8,0.1-3.7,0.3-5.5C101.6,401.8,98,400.8,97.6,403.2
			L97.6,403.2z"/>
	</g>
</g>
<g id="XMLID_89_">
	<g id="XMLID_494_">
		<path id="XMLID_498_" class="st1" d="M101.2,415.2c0.6,1.2,1.3,2.3,1.9,3.5c0.4,0.8,1.6,2.4,1.6,3.3c0.2-0.4,0.4-0.9,0.5-1.3
			c-0.2,0.2-2.6,0.1-2.8,0.1c-1,0.1-2.1,0.1-3.1,0.2c-2.1,0.1-4.2,0.2-6.2,0.4c-2.4,0.1-2.4,3.9,0,3.8c2.8-0.2,5.6-0.3,8.3-0.5
			c1.8-0.1,4.6,0.3,6.1-0.9c1.2-1,1-2.1,0.6-3.4c-0.9-2.4-2.4-4.8-3.6-7C103.2,411.2,100,413.1,101.2,415.2L101.2,415.2z"/>
	</g>
</g>
<g id="XMLID_90_">
	<g id="XMLID_501_">
		<path id="XMLID_505_" class="st1" d="M94.6,418.2c-0.9,0.8-1.9,1.4-3.1,1.9c-0.9,0.4-1.9,0.7-2.3,1.7c-0.5,1.2,0.2,2.1,1,3
			c1,1,2.1,1.8,3.2,2.7c1.8,1.6,4.5-1.1,2.7-2.7c-1.3-1.1-2.8-2.1-3.9-3.4c0.2,0.4,0.4,0.9,0.5,1.3c-0.7,0.9-0.8,1.2-0.2,0.9
			c0.3-0.1,0.6-0.2,0.9-0.4c0.4-0.2,0.8-0.4,1.2-0.6c0.9-0.5,1.8-1.2,2.6-1.9C99,419.3,96.4,416.6,94.6,418.2L94.6,418.2z"/>
	</g>
</g>
<g id="XMLID_91_">
	<g id="XMLID_508_">
		<path id="XMLID_512_" class="st1" d="M84.3,422.5c-1.4,0.1-2.8,0.1-4.3,0.1c-2.3-0.1-1.4-0.5-0.3-2.1c1.6-2.5,3.1-4.9,4.7-7.4
			c-1.1,0-2.2,0-3.2,0c0.8,1.3,1.5,2.6,2,4c0.8,2.2,4.4,1.3,3.6-1c-0.7-1.9-1.1-5.2-3.4-5.7c-2.2-0.6-5.4,1.1-7.6,1.7
			c-2.3,0.6-1.3,4.3,1,3.6c1.5-0.4,3-0.8,4.5-1.3c0.3-0.1,0.5-0.2,0.8-0.2c0.5-0.2,0.6-0.1,0.2,0.3c0.5,0.6,0.7,1.9,0.9,2.6
			c1.2-0.3,2.4-0.7,3.6-1c-0.6-1.7-1.4-3.3-2.4-4.9c-0.8-1.2-2.5-1.2-3.2,0c-1.3,2.1-2.6,4.2-3.9,6.2c-1.1,1.7-3,3.8-2.7,5.9
			c0.6,4,7.1,3.1,9.8,2.9C86.7,426.1,86.7,422.3,84.3,422.5L84.3,422.5z"/>
	</g>
</g>
<g id="XMLID_92_">
	<g id="XMLID_515_">
		<path id="XMLID_519_" class="st6" d="M235.5,398c-6.6,3.8-12.6,8.6-17.6,14.3c-1.6,1.8,1,4.5,2.7,2.7c4.9-5.5,10.5-10.1,16.9-13.7
			C239.5,400,237.6,396.8,235.5,398L235.5,398z"/>
	</g>
</g>
<g id="XMLID_207_">
	<g id="XMLID_522_">
		<path id="XMLID_526_" class="st6" d="M215.9,401.3c5.9,4.4,11.9,8.8,17.8,13.2c1.9,1.4,3.8-1.8,1.9-3.2
			c-5.9-4.4-11.9-8.8-17.8-13.2C215.8,396.7,213.9,399.9,215.9,401.3L215.9,401.3z"/>
	</g>
</g>
<g id="XMLID_204_">
	<g id="XMLID_529_">
		<path id="XMLID_533_" class="st4" d="M-53,396.2c-6.8,3.6-13.4,7.6-19.7,11.9c-2,1.3-0.1,4.6,1.9,3.2c6.4-4.3,12.9-8.3,19.7-11.9
			C-48.9,398.3-50.8,395-53,396.2L-53,396.2z"/>
	</g>
</g>
<g id="XMLID_209_">
	<g id="XMLID_536_">
		<path id="XMLID_540_" class="st4" d="M-50.3,399.5c0.2-0.1,0.7,0,0.9,0.2c0.4,0.4,0.2,0.9-0.1,1.4c-0.6,0.8-0.1,2.1,0.7,2.6
			c0.9,0.5,2,0.2,2.6-0.7c1.2-1.7,1-4.2-0.3-5.7c-1.4-1.6-3.7-1.9-5.6-1c-0.9,0.4-1.1,1.8-0.7,2.6
			C-52.3,399.8-51.2,399.9-50.3,399.5L-50.3,399.5z"/>
	</g>
</g>
<g id="XMLID_220_">
	<g id="XMLID_543_">
		<path id="XMLID_547_" class="st4" d="M-49.3,404.4c7.8,6.6,14.5,14.2,20,22.8c0.5-0.9,1.1-1.9,1.6-2.8
			c-13.7-1.1-25.8-7.5-37.7-13.9c-2.1-1.1-4,2.1-1.9,3.2c12.5,6.8,25.2,13.2,39.6,14.5c1.4,0.1,2.3-1.7,1.6-2.8
			c-5.6-8.9-12.5-16.8-20.6-23.5C-48.5,400.2-51.2,402.9-49.3,404.4L-49.3,404.4z"/>
	</g>
</g>
<g id="XMLID_221_">
	<g id="XMLID_550_">
		<path id="XMLID_554_" class="st4" d="M-67.3,410.8c-0.8,0.2-1.6,0.3-2.4,0.5l-0.7,0.1c-0.1,0-0.1,0,0.1,0.1
			c0.2,0.3,0.2,0.6,0.2,0.9c0.6-0.8,0.1-2.1-0.7-2.6c-1-0.6-1.9-0.1-2.6,0.7c-1.2,1.6-0.1,3.8,1.6,4.4c1.7,0.6,3.7-0.1,5.4-0.5
			C-63.9,413.9-64.9,410.3-67.3,410.8L-67.3,410.8z"/>
	</g>
</g>
<g id="XMLID_222_">
	<g id="XMLID_557_">
		<path id="XMLID_561_" class="st4" d="M-51.5,401.4c-2.9,0.8-5.3,2.5-7.8,4c-2.9,1.7-5.7,3.4-8.6,5.1c-2.1,1.2-0.2,4.5,1.9,3.2
			c2.5-1.5,5-3,7.5-4.5c2.6-1.5,5.1-3.5,8-4.2C-48.1,404.4-49.1,400.7-51.5,401.4L-51.5,401.4z"/>
	</g>
</g>
<g id="XMLID_223_">
	<g id="XMLID_564_">
		<path id="XMLID_568_" class="st4" d="M-57.3,413.4c2.4,0,2.4-3.8,0-3.8C-59.7,409.7-59.7,413.4-57.3,413.4L-57.3,413.4z"/>
	</g>
</g>
<g id="XMLID_478_">
	<g id="XMLID_571_">
		<path id="XMLID_575_" class="st4" d="M-48.7,408.7c0-0.1,0-0.1,0-0.2c0-1-0.9-1.9-1.9-1.9s-1.9,0.8-1.9,1.9c0,0.1,0,0.1,0,0.2
			c0,1,0.9,1.9,1.9,1.9C-49.6,410.6-48.7,409.8-48.7,408.7L-48.7,408.7z"/>
	</g>
</g>
<g id="XMLID_492_">
	<g id="XMLID_578_">
		<path id="XMLID_582_" class="st4" d="M-51.5,415.6c2.4,0,2.4-3.8,0-3.8C-53.9,411.9-53.9,415.6-51.5,415.6L-51.5,415.6z"/>
	</g>
</g>
<g id="XMLID_527_">
	<g id="XMLID_585_">
		<path id="XMLID_589_" class="st4" d="M-42.7,412.6c0-0.1,0-0.1,0-0.2c0-1-0.9-1.9-1.9-1.9s-1.9,0.8-1.9,1.9c0,0.1,0,0.1,0,0.2
			c0,1,0.9,1.9,1.9,1.9C-43.6,414.4-42.7,413.6-42.7,412.6L-42.7,412.6z"/>
	</g>
</g>
<g id="XMLID_534_">
	<g id="XMLID_592_">
		<path id="XMLID_596_" class="st4" d="M-48.2,417.7c0,0.1,0,0.1,0,0.2c0,1,0.9,1.9,1.9,1.9s1.9-0.8,1.9-1.9c0-0.1,0-0.1,0-0.2
			c0-1-0.9-1.9-1.9-1.9C-47.3,415.9-48.2,416.7-48.2,417.7L-48.2,417.7z"/>
	</g>
</g>
<g id="XMLID_541_">
	<g id="XMLID_599_">
		<path id="XMLID_603_" class="st4" d="M-37.1,420.6c0.1-0.1,0.1-0.1,0.2-0.2c0.7-0.7,0.7-2,0-2.7c-0.7-0.7-1.9-0.7-2.7,0
			c-0.1,0.1-0.1,0.1-0.2,0.2c-0.7,0.7-0.7,2,0,2.7C-39,421.2-37.9,421.3-37.1,420.6L-37.1,420.6z"/>
	</g>
</g>
<g id="XMLID_548_">
	<g id="XMLID_606_">
		<path id="XMLID_610_" class="st4" d="M-38.6,416.3c2.4,0,2.4-3.8,0-3.8S-41,416.3-38.6,416.3L-38.6,416.3z"/>
	</g>
</g>
<g id="XMLID_555_">
	<g id="XMLID_613_">
		<path id="XMLID_617_" class="st4" d="M-34.5,423.1c2.4,0,2.4-3.8,0-3.8C-36.9,419.4-36.9,423.1-34.5,423.1L-34.5,423.1z"/>
	</g>
</g>
<rect id="XMLID_562_" x="-106" y="451.2" class="st7" width="115.8" height="27.2"/>
<rect id="XMLID_2_" x="31" y="450" class="st7" width="115.8" height="27.2"/>
<rect id="XMLID_4_" x="170.4" y="448.9" class="st7" width="115.8" height="61"/>
<rect id="XMLID_15_" x="-115.2" y="449.6" class="st7" width="145.5" height="34.2"/>
<text id="XMLID_569_" transform="matrix(1 0 0 1 -73.8723 454.8818)"><tspan x="0" y="0" class="st8 st9 st10">fruits, meat, bones,</tspan><tspan x="-2.9" y="12" class="st8 st9 st10">bread, tea leaves, etc</tspan></text>
<rect id="XMLID_21_" x="18.9" y="449.1" class="st7" width="136" height="50.7"/>
<text id="XMLID_5_" transform="matrix(1 0 0 1 25.9334 454.3752)"><tspan x="0" y="0" class="st8 st9 st10">plastic bottles, aluminium cans, glass, </tspan><tspan x="9.8" y="12" class="st8 st9 st10">paper, cardboard boxes, letters</tspan></text>
<rect id="XMLID_17_" x="155.5" y="448.2" class="st7" width="145.5" height="76.7"/>
<text id="XMLID_1_" transform="matrix(1 0 0 1 160.0644 453.5517)"><tspan x="0" y="0" class="st8 st9 st10">plastic wraps, styrofoam, cooking oil, dirty </tspan><tspan x="1.3" y="12" class="st8 st9 st10">tissues and cutlery, electronics, ceramics, </tspan><tspan x="-2.9" y="24" class="st8 st9 st10">appliances, pots/pans, diapers, hangers, etc</tspan></text>
</svg>
