<?xml version="1.0" encoding="utf-8"?>
<!-- Generator: Adobe Illustrator 19.0.0, SVG Export Plug-In . SVG Version: 6.00 Build 0)  -->
<svg version="1.1" xmlns="http://www.w3.org/2000/svg" xmlns:xlink="http://www.w3.org/1999/xlink" x="0px" y="0px"
	 viewBox="0 0 255.1 255.1" style="enable-background:new 0 0 255.1 255.1;" xml:space="preserve">
<style type="text/css">
	.st0{fill:#7DCAAC;}
	.st1{fill:#6BB99E;stroke:#543928;stroke-miterlimit:10;}
</style>
<g id="Layer_1">
	<g id="XMLID_186_">
		<g id="XMLID_244_">
			<path id="XMLID_248_" class="st0" d="M19.9,134c-4.2,0-8.3,0-12.5,0c-1.9,0-1.9,3,0,3c4.2,0,8.3,0,12.5,0
				C21.8,137,21.8,134,19.9,134L19.9,134z"/>
		</g>
	</g>
	<g id="XMLID_179_">
		<g id="XMLID_237_">
			<path id="XMLID_241_" class="st0" d="M146.8,155.5c-6.9,0-13.8,0-20.8,0c-1.9,0-1.9,3,0,3c6.9,0,13.8,0,20.8,0
				C148.7,158.5,148.7,155.5,146.8,155.5L146.8,155.5z"/>
		</g>
	</g>
	<rect id="XMLID_1_" x="-3.4" y="-3.2" class="st1" width="263.1" height="261.4"/>
	<g id="XMLID_5_">
		<g id="XMLID_41_">
			<path id="XMLID_45_" class="st0" d="M228.2,118.5c-6.9,0-13.8,0-20.8,0c-1.9,0-1.9,3,0,3c6.9,0,13.8,0,20.8,0
				C230.2,121.5,230.2,118.5,228.2,118.5L228.2,118.5z"/>
		</g>
	</g>
	<g id="XMLID_6_">
		<g id="XMLID_50_">
			<path id="XMLID_54_" class="st0" d="M146.8,135c-16.6,0-33.2,0-49.8,0c-3.9,0-3.9,6,0,6c16.6,0,33.2,0,49.8,0
				C150.6,141,150.6,135,146.8,135L146.8,135z"/>
		</g>
	</g>
	<g id="XMLID_7_">
		<g id="XMLID_55_">
			<path id="XMLID_59_" class="st0" d="M257.8,72.8c-6.9,0-13.8,0-20.8,0c-1.9,0-1.9,3,0,3c6.9,0,13.8,0,20.8,0
				C259.7,75.8,259.7,72.8,257.8,72.8L257.8,72.8z"/>
		</g>
	</g>
	<g id="XMLID_8_">
		<g id="XMLID_62_">
			<path id="XMLID_66_" class="st0" d="M156.2,145.2c-8.8,0-17.5,0-26.2,0c-3.9,0-3.9,6,0,6c8.8,0,17.5,0,26.2,0
				C160.1,151.2,160.1,145.2,156.2,145.2L156.2,145.2z"/>
		</g>
	</g>
	<g id="XMLID_11_">
		<g id="XMLID_71_">
			<path id="XMLID_75_" class="st0" d="M50.5,195c-8.1,0-16.2,0-24.2,0c-3.9,0-3.9,6,0,6c8.1,0,16.2,0,24.2,0
				C54.4,201,54.4,195,50.5,195L50.5,195z"/>
		</g>
	</g>
	<g id="XMLID_13_">
		<g id="XMLID_76_">
			<path id="XMLID_80_" class="st0" d="M80.8,185.8c-11.2,0-22.3,0-33.5,0c-3.9,0-3.9,6,0,6c11.2,0,22.3,0,33.5,0
				C84.6,191.8,84.6,185.8,80.8,185.8L80.8,185.8z"/>
		</g>
	</g>
	<g id="XMLID_25_">
		<g id="XMLID_83_">
			<path id="XMLID_87_" class="st0" d="M158.5,161.8c-6.9,0-13.8,0-20.8,0c-1.9,0-1.9,3,0,3c6.9,0,13.8,0,20.8,0
				C160.4,164.8,160.4,161.8,158.5,161.8L158.5,161.8z"/>
		</g>
	</g>
	<g id="XMLID_32_">
		<g id="XMLID_90_">
			<path id="XMLID_94_" class="st0" d="M152.5,126.1c-6.9,0-13.8,0-20.8,0c-1.9,0-1.9,3,0,3c6.9,0,13.8,0,20.8,0
				C154.4,129.1,154.4,126.1,152.5,126.1L152.5,126.1z"/>
		</g>
	</g>
	<g id="XMLID_33_">
		<g id="XMLID_97_">
			<path id="XMLID_101_" class="st0" d="M146.8,155.5c-6.9,0-13.8,0-20.8,0c-1.9,0-1.9,3,0,3c6.9,0,13.8,0,20.8,0
				C148.7,158.5,148.7,155.5,146.8,155.5L146.8,155.5z"/>
		</g>
	</g>
	<g id="XMLID_46_">
		<g id="XMLID_104_">
			<path id="XMLID_108_" class="st0" d="M55.5,178.5c-6.9,0-13.8,0-20.8,0c-1.9,0-1.9,3,0,3c6.9,0,13.8,0,20.8,0
				C57.4,181.5,57.4,178.5,55.5,178.5L55.5,178.5z"/>
		</g>
	</g>
	<g id="XMLID_48_">
		<g id="XMLID_111_">
			<path id="XMLID_115_" class="st0" d="M60.9,204.2c-6.9,0-13.8,0-20.8,0c-1.9,0-1.9,3,0,3c6.9,0,13.8,0,20.8,0
				C62.8,207.2,62.8,204.2,60.9,204.2L60.9,204.2z"/>
		</g>
	</g>
	<g id="XMLID_49_">
		<g id="XMLID_118_">
			<path id="XMLID_122_" class="st0" d="M105.8,226c-6.9,0-13.8,0-20.8,0c-1.9,0-1.9,3,0,3c6.9,0,13.8,0,20.8,0
				C107.7,229,107.7,226,105.8,226L105.8,226z"/>
		</g>
	</g>
	<g id="XMLID_67_">
		<g id="XMLID_125_">
			<path id="XMLID_129_" class="st0" d="M129,218c-11.2,0-22.3,0-33.5,0c-3.9,0-3.9,6,0,6c11.2,0,22.3,0,33.5,0
				C132.9,224,132.9,218,129,218L129,218z"/>
		</g>
	</g>
	<g id="XMLID_69_">
		<g id="XMLID_132_">
			<path id="XMLID_136_" class="st0" d="M111.5,231.5c-6.2,0-12.3,0-18.5,0c-3.9,0-3.9,6,0,6c6.2,0,12.3,0,18.5,0
				C115.4,237.5,115.4,231.5,111.5,231.5L111.5,231.5z"/>
		</g>
	</g>
	<g id="XMLID_81_">
		<g id="XMLID_139_">
			<path id="XMLID_143_" class="st0" d="M132.7,209.5c-3.5,0-6.9,0-10.4,0c-3.9,0-3.9,6,0,6c3.5,0,6.9,0,10.4,0
				C136.6,215.5,136.6,209.5,132.7,209.5L132.7,209.5z"/>
		</g>
	</g>
	<g id="XMLID_88_">
		<g id="XMLID_146_">
			<path id="XMLID_150_" class="st0" d="M139,242c-11.1,0-22.2,0-33.2,0c-1.9,0-1.9,3,0,3c11.1,0,22.2,0,33.2,0
				C140.9,245,140.9,242,139,242L139,242z"/>
		</g>
	</g>
	<g id="XMLID_95_">
		<g id="XMLID_155_">
			<path id="XMLID_159_" class="st0" d="M226.5,112.2c-3.8,0-7.7,0-11.5,0c-1.9,0-1.9,3,0,3c3.8,0,7.7,0,11.5,0
				C228.4,115.2,228.4,112.2,226.5,112.2L226.5,112.2z"/>
		</g>
	</g>
	<g id="XMLID_102_">
		<g id="XMLID_160_">
			<path id="XMLID_164_" class="st0" d="M224.2,194.8c-11.4,0-22.8,0-34.2,0c-1.9,0-1.9,3,0,3c11.4,0,22.8,0,34.2,0
				C226.2,197.8,226.2,194.8,224.2,194.8L224.2,194.8z"/>
		</g>
	</g>
	<g id="XMLID_109_">
		<g id="XMLID_167_">
			<path id="XMLID_171_" class="st0" d="M207.5,201.8c-6.9,0-13.8,0-20.8,0c-1.9,0-1.9,3,0,3c6.9,0,13.8,0,20.8,0
				C209.4,204.8,209.4,201.8,207.5,201.8L207.5,201.8z"/>
		</g>
	</g>
	<g id="XMLID_116_">
		<g id="XMLID_174_">
			<path id="XMLID_178_" class="st0" d="M217.5,207.8c-6.9,0-13.8,0-20.8,0c-1.9,0-1.9,3,0,3c6.9,0,13.8,0,20.8,0
				C219.4,210.8,219.4,207.8,217.5,207.8L217.5,207.8z"/>
		</g>
	</g>
	<g id="XMLID_123_">
		<g id="XMLID_181_">
			<path id="XMLID_185_" class="st0" d="M235.5,185.8c-8.8,0-17.5,0-26.2,0c-3.9,0-3.9,6,0,6c8.8,0,17.5,0,26.2,0
				C239.4,191.8,239.4,185.8,235.5,185.8L235.5,185.8z"/>
		</g>
	</g>
	<g id="XMLID_130_">
		<g id="XMLID_188_">
			<path id="XMLID_192_" class="st0" d="M216.2,214.8c-8.8,0-17.5,0-26.2,0c-3.9,0-3.9,6,0,6c8.8,0,17.5,0,26.2,0
				C220.1,220.8,220.1,214.8,216.2,214.8L216.2,214.8z"/>
		</g>
	</g>
	<g id="XMLID_137_">
		<g id="XMLID_195_">
			<path id="XMLID_199_" class="st0" d="M20.5,57.5c-8.8,0-17.5,0-26.2,0c-3.9,0-3.9,6,0,6c8.8,0,17.5,0,26.2,0
				C24.4,63.5,24.4,57.5,20.5,57.5L20.5,57.5z"/>
		</g>
	</g>
	<g id="XMLID_138_">
		<g id="XMLID_202_">
			<path id="XMLID_206_" class="st0" d="M43,107.5c-16.2,0-32.5,0-48.8,0c-3.9,0-3.9,6,0,6c16.2,0,32.5,0,48.8,0
				C46.9,113.5,46.9,107.5,43,107.5L43,107.5z"/>
		</g>
	</g>
	<g id="XMLID_151_">
		<g id="XMLID_209_">
			<path id="XMLID_213_" class="st0" d="M34.8,117c-8.8,0-17.5,0-26.2,0c-3.9,0-3.9,6,0,6c8.8,0,17.5,0,26.2,0
				C38.6,123,38.6,117,34.8,117L34.8,117z"/>
		</g>
	</g>
	<g id="XMLID_153_">
		<g id="XMLID_216_">
			<path id="XMLID_220_" class="st0" d="M15,100c-6.9,0-13.8,0-20.8,0c-1.9,0-1.9,3,0,3c6.9,0,13.8,0,20.8,0
				C16.9,103,16.9,100,15,100L15,100z"/>
		</g>
	</g>
	<g id="XMLID_165_">
		<g id="XMLID_223_">
			<path id="XMLID_227_" class="st0" d="M38.5,126.1c-4.1,0-8.2,0-12.2,0c-1.9,0-1.9,3,0,3c4.1,0,8.2,0,12.2,0
				C40.4,129.1,40.4,126.1,38.5,126.1L38.5,126.1z"/>
		</g>
	</g>
	<g id="XMLID_172_">
		<g id="XMLID_230_">
			<path id="XMLID_234_" class="st0" d="M26.2,67.8c-6.9,0-13.8,0-20.8,0c-1.9,0-1.9,3,0,3c6.9,0,13.8,0,20.8,0
				C28.2,70.8,28.2,67.8,26.2,67.8L26.2,67.8z"/>
		</g>
	</g>
	<g id="XMLID_193_">
		<g id="XMLID_251_">
			<path id="XMLID_255_" class="st0" d="M23.1,136.5c-4.1,0-8.2,0-12.2,0c-1.9,0-1.9,3,0,3c4.1,0,8.2,0,12.2,0
				C25.1,139.5,25.1,136.5,23.1,136.5L23.1,136.5z"/>
		</g>
	</g>
	<g id="XMLID_200_">
		<g id="XMLID_258_">
			<path id="XMLID_262_" class="st0" d="M13.9,49.7c-2,0-4.1,0-6.1,0c-1.9,0-1.9,3,0,3c2,0,4.1,0,6.1,0
				C15.9,52.7,15.9,49.7,13.9,49.7L13.9,49.7z"/>
		</g>
	</g>
	<g id="XMLID_214_">
		<g id="XMLID_273_">
			<path id="XMLID_277_" class="st0" d="M223.3,153.5c-6.9,0-13.8,0-20.8,0c-1.9,0-1.9,3,0,3c6.9,0,13.8,0,20.8,0
				C225.2,156.5,225.2,153.5,223.3,153.5L223.3,153.5z"/>
		</g>
	</g>
	<g id="XMLID_207_">
		<g id="XMLID_267_">
			<path id="XMLID_271_" class="st0" d="M212.9,146.8c-2,0-4.1,0-6.1,0c-1.9,0-1.9,3,0,3c2,0,4.1,0,6.1,0
				C214.9,149.8,214.9,146.8,212.9,146.8L212.9,146.8z"/>
		</g>
	</g>
	<g id="XMLID_242_">
		<g id="XMLID_300_">
			<path id="XMLID_304_" class="st0" d="M194.6,27.8c-8.8,0-17.5,0-26.2,0c-3.9,0-3.9,6,0,6c8.8,0,17.5,0,26.2,0
				C198.5,33.8,198.5,27.8,194.6,27.8L194.6,27.8z"/>
		</g>
	</g>
	<g id="XMLID_235_">
		<g id="XMLID_294_">
			<path id="XMLID_298_" class="st0" d="M200.4,38c-6.9,0-13.8,0-20.8,0c-1.9,0-1.9,3,0,3c6.9,0,13.8,0,20.8,0
				C202.3,41,202.3,38,200.4,38L200.4,38z"/>
		</g>
	</g>
	<g id="XMLID_228_">
		<g id="XMLID_288_">
			<path id="XMLID_292_" class="st0" d="M188.1,20c-2,0-4.1,0-6.1,0c-1.9,0-1.9,3,0,3c2,0,4.1,0,6.1,0C190,23,190,20,188.1,20
				L188.1,20z"/>
		</g>
	</g>
	<g id="XMLID_221_">
		<g id="XMLID_283_">
			<path id="XMLID_299_" class="st0" d="M126,52.2c-13,0-26.1,0-39.1,0c-3.9,0-3.9,6,0,6c13,0,26.1,0,39.1,0
				C129.9,58.2,129.9,52.2,126,52.2L126,52.2z"/>
		</g>
	</g>
	<g id="XMLID_249_">
		<g id="XMLID_307_">
			<path id="XMLID_311_" class="st0" d="M132.2,62.5c-6.9,0-13.8,0-20.8,0c-1.9,0-1.9,3,0,3c6.9,0,13.8,0,20.8,0
				C134.2,65.5,134.2,62.5,132.2,62.5L132.2,62.5z"/>
		</g>
	</g>
	<g id="XMLID_250_">
		<g id="XMLID_314_">
			<path id="XMLID_318_" class="st0" d="M117.6,67.8c-5.5,0-10.9,0-16.4,0c-1.9,0-1.9,3,0,3c5.5,0,10.9,0,16.4,0
				C119.6,70.8,119.6,67.8,117.6,67.8L117.6,67.8z"/>
		</g>
	</g>
	<g id="XMLID_256_">
		<g id="XMLID_321_">
			<path id="XMLID_325_" class="st0" d="M116.8,46.2c-6.9,0-13.8,0-20.8,0c-1.9,0-1.9,3,0,3c6.9,0,13.8,0,20.8,0
				C118.7,49.2,118.7,46.2,116.8,46.2L116.8,46.2z"/>
		</g>
	</g>
	<g id="XMLID_264_">
		<g id="XMLID_328_">
			<path id="XMLID_332_" class="st0" d="M131.7,73.8c-6.5,0-13,0-19.6,0c-3.9,0-3.9,6,0,6c6.5,0,13,0,19.6,0
				C135.5,79.8,135.5,73.8,131.7,73.8L131.7,73.8z"/>
		</g>
	</g>
	<g id="XMLID_265_">
		<g id="XMLID_335_">
			<path id="XMLID_339_" class="st0" d="M262.4,6.2c-13,0-26.1,0-39.1,0c-3.9,0-3.9,6,0,6c13,0,26.1,0,39.1,0
				C266.3,12.2,266.3,6.2,262.4,6.2L262.4,6.2z"/>
		</g>
	</g>
	<g id="XMLID_281_">
		<g id="XMLID_356_">
			<path id="XMLID_360_" class="st0" d="M72.6,7.8c-8.8,0-17.5,0-26.2,0c-3.9,0-3.9,6,0,6c8.8,0,17.5,0,26.2,0
				C76.5,13.8,76.5,7.8,72.6,7.8L72.6,7.8z"/>
		</g>
	</g>
	<g id="XMLID_279_">
		<g id="XMLID_350_">
			<path id="XMLID_354_" class="st0" d="M78.4,18c-6.9,0-13.8,0-20.8,0c-1.9,0-1.9,3,0,3c6.9,0,13.8,0,20.8,0
				C80.3,21,80.3,18,78.4,18L78.4,18z"/>
		</g>
	</g>
	<g id="XMLID_266_">
		<g id="XMLID_344_">
			<path id="XMLID_348_" class="st0" d="M66.1,0c-2,0-4.1,0-6.1,0c-1.9,0-1.9,3,0,3c2,0,4.1,0,6.1,0C68,3,68,0,66.1,0L66.1,0z"/>
		</g>
	</g>
	<g id="XMLID_305_">
		<g id="XMLID_363_">
			<path id="XMLID_367_" class="st0" d="M255.2,26.8c-6.9,0-13.8,0-20.8,0c-1.9,0-1.9,3,0,3c6.9,0,13.8,0,20.8,0
				C257.2,29.8,257.2,26.8,255.2,26.8L255.2,26.8z"/>
		</g>
	</g>
	<g id="XMLID_312_">
		<g id="XMLID_370_">
			<path id="XMLID_374_" class="st0" d="M254.1,33.2c-8.8,0-17.5,0-26.2,0c-3.9,0-3.9,6,0,6c8.8,0,17.5,0,26.2,0
				C258,39.2,258,33.2,254.1,33.2L254.1,33.2z"/>
		</g>
	</g>
	<g id="XMLID_319_">
		<g id="XMLID_377_">
			<path id="XMLID_381_" class="st0" d="M254.3,18c-2,0-4.1,0-6.1,0c-1.9,0-1.9,3,0,3c2,0,4.1,0,6.1,0C256.2,21,256.2,18,254.3,18
				L254.3,18z"/>
		</g>
	</g>
	<g id="XMLID_326_">
		<g id="XMLID_384_">
			<path id="XMLID_388_" class="st0" d="M62.6,23.2c-2,0-4.1,0-6.1,0c-1.9,0-1.9,3,0,3c2,0,4.1,0,6.1,0
				C64.5,26.2,64.5,23.2,62.6,23.2L62.6,23.2z"/>
		</g>
	</g>
</g>
<g id="Layer_2">
	<g id="XMLID_2_">
		<g id="XMLID_16_">
			<path id="XMLID_24_" class="st0" d="M257.8,81.2c-11.2,0-22.3,0-33.5,0c-3.9,0-3.9,6,0,6c11.2,0,22.3,0,33.5,0
				C261.6,87.2,261.6,81.2,257.8,81.2L257.8,81.2z"/>
		</g>
	</g>
	<g id="XMLID_3_">
		<g id="XMLID_27_">
			<path id="XMLID_31_" class="st0" d="M268,92.2c-11.2,0-22.3,0-33.5,0c-3.9,0-3.9,6,0,6c11.2,0,22.3,0,33.5,0
				C271.9,98.2,271.9,92.2,268,92.2L268,92.2z"/>
		</g>
	</g>
	<g id="XMLID_4_">
		<g id="XMLID_34_">
			<path id="XMLID_38_" class="st0" d="M228.2,104c-11.2,0-22.3,0-33.5,0c-3.9,0-3.9,6,0,6c11.2,0,22.3,0,33.5,0
				C232.1,110,232.1,104,228.2,104L228.2,104z"/>
		</g>
	</g>
</g>
</svg>
