<?xml version="1.0" encoding="utf-8"?>
<!-- Generator: Adobe Illustrator 19.0.0, SVG Export Plug-In . SVG Version: 6.00 Build 0)  -->
<svg version="1.1" id="Layer_1" xmlns="http://www.w3.org/2000/svg" xmlns:xlink="http://www.w3.org/1999/xlink" x="0px" y="0px"
	 viewBox="0 0 255.1 255.1" style="enable-background:new 0 0 255.1 255.1;" xml:space="preserve">
<style type="text/css">
	.st0{fill:#3E99D4;}
	.st1{fill:#4EB0E3;}
</style>
<rect id="XMLID_8417_" class="st0" width="255.1" height="255.1"/>
<g id="XMLID_2_">
	<g id="XMLID_83_">
		<path id="XMLID_91_" class="st1" d="M228.5,219.1c4.2,4.5,6,10.2,6.8,16.3c0.9,7.5-0.7,13-4.9,19.1c-1.3,2,2.1,2.9,3.2,1.2
			c4.6-6.7,6.4-12.5,5.3-20.7c-0.8-6.6-2.8-12.9-7.3-17.8C230.3,215.6,227,217.5,228.5,219.1L228.5,219.1z"/>
	</g>
</g>
<g id="XMLID_42_">
	<g id="XMLID_92_">
		<path id="XMLID_98_" class="st1" d="M228.1,217.1c-3.5,2.8-8,4.2-11.5,7.2c-3.3,2.8-6.1,6.3-8.1,10.1c-3.6,6.8-5.7,15.7-0.8,22.4
			c1.2,1.7,4.6,0.2,3.2-1.7c-5-6.8-1.2-16.7,3.2-22.8c2.2-3.2,5.1-5.9,8.4-8c2.7-1.7,5.7-2.8,8.3-4.9
			C232.6,217.9,229.7,215.7,228.1,217.1L228.1,217.1z"/>
	</g>
</g>
<g id="XMLID_64_">
	<g id="XMLID_99_">
		<path id="XMLID_105_" class="st1" d="M230.9,225.1c0,0,0.1-0.1,0.1-0.1c0-0.1,0-0.2-0.1-0.4c0-0.1-0.1-0.1-0.1-0.2
			c-0.2-0.4-2.5-2.6-3-1.9c-1.1,1.7-1.1,4.7-1.7,6.7c-0.8,2.9-1.8,5.8-2.8,8.6c-2.1,5.4-4.6,10.5-7.1,15.7c-0.4,0.8,2.8,2.7,3,2.2
			c2.5-5.2,5-10.3,7.1-15.7c1-2.5,1.9-5.1,2.6-7.7c0.6-2.3,0.6-5.6,1.9-7.6c-1-0.6-2-1.2-3-1.9c0,0,0,0-0.1,0
			C227.5,223.1,230.1,225.7,230.9,225.1L230.9,225.1z"/>
	</g>
</g>
<g id="XMLID_65_">
	<g id="XMLID_106_">
		<path id="XMLID_112_" class="st1" d="M225.4,240.8c-1.2-3.8-2.8-7.3-4.9-10.6c-0.5-0.9-4.1-1.5-3.3-0.2c2,3.2,3.5,6.6,4.7,10.2
			C222.2,241.1,225.7,241.8,225.4,240.8L225.4,240.8z"/>
	</g>
</g>
<g id="XMLID_66_">
	<g id="XMLID_113_">
		<path id="XMLID_119_" class="st1" d="M222.9,244.5c-1.3-3.1-2.9-6.1-4.6-9c-0.6-0.9-3.9,0.2-3.7,0.5c1.7,2.9,3.3,5.9,4.6,9
			C219.6,246,223.1,245,222.9,244.5L222.9,244.5z"/>
	</g>
</g>
<g id="XMLID_67_">
	<g id="XMLID_120_">
		<path id="XMLID_126_" class="st1" d="M218.6,252.5c-1.4-4.7-4.2-8.5-7.2-12.2c-0.4-0.5-0.9-0.8-1.2-0.1c-0.3,0.6,0.6,2,0.9,2.4
			c2.2,2.7,4.6,5.4,5.5,8.9c0.2,0.6,0.7,2,1.4,2.2C218.7,253.7,218.8,253.2,218.6,252.5L218.6,252.5z"/>
	</g>
</g>
<g id="XMLID_68_">
	<g id="XMLID_127_">
		<path id="XMLID_133_" class="st1" d="M231.7,234.5c-2.6,2.1-5.5,3.8-8.4,5.4c-2,1.1,1,2.9,2.5,2.1c3.2-1.8,6.3-3.6,9.1-5.9
			c0.7-0.6,0.1-1.5-0.5-1.9C233.5,233.8,232.4,233.9,231.7,234.5L231.7,234.5z"/>
	</g>
</g>
<g id="XMLID_70_">
	<g id="XMLID_134_">
		<path id="XMLID_140_" class="st1" d="M229.1,241.2c-2.4,1.4-4.8,2.8-7.3,4c-0.5,0.3-1.6,0.9-1.3,1.7c0.3,0.7,1.6,0.3,2.1,0.1
			c2.8-1.4,5.5-2.9,8.2-4.5c0.5-0.3,1.3-1.1,0.7-1.6C230.9,240.3,229.6,240.9,229.1,241.2L229.1,241.2z"/>
	</g>
</g>
<g id="XMLID_72_">
	<g id="XMLID_141_">
		<path id="XMLID_269_" class="st1" d="M225.6,246.8c-1.5,1-3.1,1.8-4.8,2.5c-1.7,0.7,0.5,3.7,2,3.1c1.9-0.8,3.6-1.7,5.3-2.8
			c0.7-0.5,0.1-1.8-0.4-2.2C227.2,246.7,226.3,246.3,225.6,246.8L225.6,246.8z"/>
	</g>
</g>
<g id="XMLID_79_">
	<g id="XMLID_148_">
		<path id="XMLID_154_" class="st1" d="M184.6,238.2c8.6-8.3,13.6-19.4,14-31.4c0-1-1.8-3.1-2.9-2.3c-2.3,1.7-4.7,3.5-7,5.2
			c1,0.8,1.9,1.5,2.9,2.3c0.6-6.1,0.5-12-0.4-18.1c-0.1-0.9-1.9-2.7-2.9-2c-1.8,1.4-3.4,2.9-4.9,4.7c1,0.7,1.9,1.3,2.9,2
			c-0.3-4.2-1.8-8.2-4.4-11.6c-2.9-3.7-7.2-5.8-10.4-9.1c-0.4-0.4-2.2-1.4-2.1-0.1c0.2,2.7,0.4,5.5,0.7,8.2c0.8,0.2,1.6,0.3,2.4,0.5
			c-4.9-6.4-14.2-8.1-20.8-12.2c-0.3-0.2-1.6-0.9-1.7-0.1c-0.9,7.5-2.8,15.6-1,23.1c0.4-0.1,0.9-0.3,1.3-0.4
			c-1.7-0.8-3.5-1.6-5.2-2.5c-0.3-0.2-1.2-0.5-1.3,0.2c-0.8,4.4,1.1,8,3.3,11.7c0.2-0.4,0.4-0.8,0.6-1.3c-1.8-0.5-3.4-1-5.2-1.8
			c-0.5-0.2-1.3-0.4-1.3,0.4c0.7,9.6,7.5,17.6,16.5,20.5c-0.6-0.9-1.2-1.8-1.8-2.7c-2.8,1.5-5.5,1.7-8.7,1.6c-1.1,0-0.3,1.3,0,1.7
			c9.1,10.8,22.7,13.3,36.2,13.6c-0.8-0.7-1.6-1.4-2.4-2.2c0.4,6-0.5,11.7-2.8,17.3c-0.4,1,2.5,3.3,3,2.1c2.4-5.8,3.3-11.6,2.8-17.9
			c-0.1-0.9-1.5-2.1-2.4-2.2c-11.8-0.3-24.5-1.9-32.5-11.4c0,0.6,0,1.1,0,1.7c3.3,0.1,6.2-0.1,9.3-1.7c1.3-0.7-1.2-2.5-1.8-2.7
			c-7.4-2.4-11.8-8.8-12.4-16.4c-0.4,0.1-0.9,0.3-1.3,0.4c1.9,0.9,3.9,1.6,5.9,2.1c1,0.3,1-0.6,0.6-1.3c-1.9-3.2-3.4-6-2.7-9.8
			c-0.4,0.1-0.9,0.1-1.3,0.2c1.7,0.8,3.5,1.6,5.2,2.5c0.4,0.2,1.5,0.4,1.3-0.4c-1.8-7.3,0.1-15.2,1-22.5c-0.6,0-1.1-0.1-1.7-0.1
			c2.7,1.7,5.5,3.3,8.4,4.6c3.8,1.8,8.2,2.8,10.9,6.3c0.4,0.5,2.5,1.9,2.4,0.5c-0.2-2.7-0.4-5.5-0.7-8.2c-0.7,0-1.4-0.1-2.1-0.1
			c2.2,2.2,4.7,3.7,7,5.7c3.8,3.3,5.6,7.3,5.9,12.2c0.1,0.8,2.1,2.9,2.9,2c1.5-1.7,3.1-3.2,4.9-4.7c-1-0.7-1.9-1.3-2.9-2
			c0.8,5.8,0.9,11.6,0.3,17.5c-0.1,1,1.9,3,2.9,2.3c2.3-1.7,4.7-3.5,7-5.2c-1-0.8-1.9-1.5-2.9-2.3c-0.4,11.9-5.2,22.7-13.8,31
			C181,236.5,183.7,239.1,184.6,238.2L184.6,238.2z"/>
	</g>
</g>
<g id="XMLID_87_">
	<g id="XMLID_155_">
		<path id="XMLID_161_" class="st1" d="M155.5,185.1c9.2,16.1,17.8,31.8,24.1,49.2c0.2,0.5,3.8-0.6,3.6-0.9
			c-6.3-17.5-15-33.1-24.1-49.2C158.7,183.5,155.4,185,155.5,185.1L155.5,185.1z"/>
	</g>
</g>
<g id="XMLID_95_">
	<g id="XMLID_162_">
		<path id="XMLID_168_" class="st1" d="M169.2,191.6c0.1-0.8,0.2-1.6,0.2-2.5c-1.2-0.1-2.4-0.3-3.6-0.4c0,4.4-0.2,8.8-0.4,13.2
			c-0.1,2.1,3.4,3.2,3.6,0.8c0.3-4.7,0.4-9.4,0.4-14.1c0-1.9-3.5-2.5-3.6-0.4c0,0.8-0.1,1.6-0.2,2.5
			C165.3,192.9,168.8,193.9,169.2,191.6L169.2,191.6z"/>
	</g>
</g>
<g id="XMLID_102_">
	<g id="XMLID_169_">
		<path id="XMLID_175_" class="st1" d="M173,194.5c-0.3,5.5-0.7,11-1,16.5c-0.1,1.5,3.7,1.7,3.7,0.3c0.3-5.5,0.7-11,1-16.5
			C176.9,193.4,173.1,193.1,173,194.5L173,194.5z"/>
	</g>
</g>
<g id="XMLID_109_">
	<g id="XMLID_176_">
		<path id="XMLID_182_" class="st1" d="M176.8,208c-0.3,3.1-0.6,6.2-0.9,9.3c-0.1,0.8,3.6,0.9,3.7-0.3c0.3-3.1,0.7-6.2,0.9-9.3
			C180.6,206.9,176.9,206.9,176.8,208L176.8,208z"/>
	</g>
</g>
<g id="XMLID_116_">
	<g id="XMLID_183_">
		<path id="XMLID_189_" class="st1" d="M168.3,203.8c-3.5-0.8-7-1.8-10.5-2.8c-1.7-0.5-4,1.8-1.6,2.5c3.5,1,7,1.9,10.5,2.8
			C168.5,206.7,170.7,204.4,168.3,203.8L168.3,203.8z"/>
	</g>
</g>
<g id="XMLID_123_">
	<g id="XMLID_190_">
		<path id="XMLID_197_" class="st1" d="M174.5,213.7c-2.5,0.1-5-1.1-7.4-1.7c-2.4-0.6-4.8-1-7.3-1.2c-2.4-0.3-1,2.5,0.7,2.7
			c3,0.3,6,0.8,8.9,1.7c2.3,0.7,4.3,1.4,6.7,1.3C178.3,216.3,176,213.6,174.5,213.7L174.5,213.7z"/>
	</g>
</g>
<g id="XMLID_130_">
	<g id="XMLID_198_">
		<path id="XMLID_204_" class="st1" d="M177,221.2c-2.7-0.6-5.3-1.2-8-1.8c-1.8-0.4-3.4,1.4-1,2c2.7,0.6,5.3,1.3,8,1.8
			C177.8,223.6,179.5,221.8,177,221.2L177,221.2z"/>
	</g>
</g>
<g id="XMLID_137_">
	<g id="XMLID_205_">
		<path id="XMLID_219_" class="st1" d="M178.7,226.9c-1.6-0.3-3.1-0.6-4.7-0.9c-2.4-0.4-2.3,2.9-0.3,3.3c1.6,0.3,3.1,0.6,4.7,0.9
			C180.9,230.6,180.8,227.2,178.7,226.9L178.7,226.9z"/>
	</g>
</g>
<g id="XMLID_144_">
	<g id="XMLID_220_">
		<path id="XMLID_286_" class="st1" d="M180.5,218.6c-0.6,1.8-1.2,3.7-1.8,5.5c-0.6,1.9,2.5,3.9,3.2,1.7c0.6-1.8,1.2-3.7,1.8-5.5
			C184.3,218.4,181.2,216.5,180.5,218.6L180.5,218.6z"/>
	</g>
</g>
<g id="XMLID_151_">
	<g id="XMLID_209_">
		<path id="XMLID_213_" class="st1" d="M94.4,84.3c-0.5-10.1,8-18.6,18.3-16.7c2.3,0.4-0.6-1.3-1.5-1.5c-10.9-2-20.9,5.6-20.3,17
			C90.9,84.2,94.5,84.7,94.4,84.3L94.4,84.3z"/>
	</g>
</g>
<g id="XMLID_158_">
	<g id="XMLID_287_">
		<path id="XMLID_291_" class="st1" d="M110,67.1c-1,3.8-2.8,7.9-5.6,10.8c-3.3,3.6-8.5,4.3-13.2,4.8c-2.5,0.3-1.2,2.6,0.8,2.4
			c5-0.5,10.9-1.4,14.8-5c3.6-3.3,5.7-8.1,6.9-12.7C114.1,65.9,110.4,65.4,110,67.1L110,67.1z"/>
	</g>
</g>
<g id="XMLID_165_">
	<g id="XMLID_223_">
		<path id="XMLID_227_" class="st1" d="M96.2,133.6c1.7-11.5-3.3-22.8-12.9-29.4c-1.3-0.9-4.4,1-2.7,2.2c9,6.2,13.6,16.8,12,27.6
			C92.2,135.8,95.9,135.2,96.2,133.6L96.2,133.6z"/>
	</g>
</g>
<g id="XMLID_172_">
	<g id="XMLID_230_">
		<path id="XMLID_234_" class="st1" d="M80.2,104.8c-2,4.8-4.2,11.3-1.1,16.1c3.4,5.3,9.2,9.8,13.9,13.8c1,0.8,4.5-0.1,3.1-1.3
			c-4.3-3.7-8.7-7.5-12.3-11.9c-4.1-4.9-2.2-11,0-16.4C84.4,103.7,80.7,103.6,80.2,104.8L80.2,104.8z"/>
	</g>
</g>
<g id="XMLID_179_">
	<g id="XMLID_237_">
		<path id="XMLID_241_" class="st1" d="M93.1,104.3c-1.7-6.4,0.7-17,8.6-18.5c-1.1-0.1-2.3-0.2-3.4-0.2c3.3,2.6,4.1,9.7,3.1,13.5
			c-0.5,2-1.7,3.6-3.1,5.1c-1.1,1.2-5.3,6.1-7.2,6.2c0.9,0.1,1.9,0.2,2.8,0.4c-0.6-2.5-1-4.9-1.3-7.4c-0.1-0.6-3.8-0.4-3.7-0.2
			c0.3,2.5,0.7,4.9,1.3,7.4c0.1,0.5,2.4,0.4,2.8,0.4c3.9-0.1,9-5.7,10.9-8.9c2.2-3.7,2.5-14-2.1-16.4c-2.3-1.2-5.4,0.5-7.1,1.8
			c-5.3,4-7,10.5-5.4,16.8C89.6,104.8,93.1,104.3,93.1,104.3L93.1,104.3z"/>
	</g>
</g>
<g id="XMLID_186_">
	<g id="XMLID_244_">
		<path id="XMLID_248_" class="st1" d="M87,97.1C83.1,93,81.3,87,82.1,81.4c0.4-2.6,1.5-1.5,2.4,0c0.7,1.2,0.6,2.9,0.8,4.2
			c0.4,3.7,0.1,7.3-1.1,10.9c-0.5,1.5,3.2,1.9,3.6,0.7c1.7-4.7,3.6-22.5-6.2-20.2c-3.8,0.9-3.5,5.8-3.2,8.8c0.4,4.6,2.2,8.7,5.4,12
			C84.5,98.7,88.2,98.3,87,97.1L87,97.1z"/>
	</g>
</g>
<g id="XMLID_193_">
	<g id="XMLID_251_">
		<path id="XMLID_255_" class="st1" d="M93.4,143.1c0.3-5-1.2-9.4-5.8-11.9c-4-2.2-8.8-2.5-13.3-2.8c-0.1,0-1,0-1,0.2
			c1.4,4.9,4.1,9.2,8,12.4c2.6,2.1,6.4,4.2,9.7,2.6c0.1,0-2.6-1.3-3.5-0.8c-1.5,0.7-5.6-4.4-6.4-5.4c-1.9-2.4-3.2-5.2-4-8.1
			c-0.3,0.1-0.7,0.1-1,0.2c4.4,0.3,9.1,0.8,11.8,4.7c1.7,2.4,1.9,5.4,1.7,8.3C89.7,143.3,93.4,143.7,93.4,143.1L93.4,143.1z"/>
	</g>
</g>
<g id="XMLID_200_">
	<g id="XMLID_258_">
		<path id="XMLID_262_" class="st1" d="M96.3,139.5c1.1-3.7,3.8-6.5,6.6-9c1.7-1.5,3.5-3,5.5-4.2c1.5-1,3.2-2.8,4.2-0.6
			c1.6,3.3-0.8,7.9-3.2,10.1c-2.8,2.4-9.3,5-12.8,2.8c-1.7-1.1-3.8,0.7-1.7,2c4.3,2.7,11.5,1.2,15.6-1.3c4.5-2.8,7.3-8.4,5.7-13.6
			c-0.5-1.8-1.6-4-3.6-4.5c-2.2-0.6-4.6,1.4-6.3,2.5c-5.3,3.4-11.6,8.3-13.4,14.6C92.2,140,95.8,141.1,96.3,139.5L96.3,139.5z"/>
	</g>
</g>
<g id="XMLID_214_">
	<g id="XMLID_272_">
		<path id="XMLID_276_" class="st1" d="M103,159.7c0.9-4,2.6-7.6,5.4-10.7c1.5-1.7,3.2-3.1,5.1-4.3c1-0.6,5.5-3.4,6.6-2.8
			c1.5,0.8,0,5.5-0.5,6.6c-0.9,2.1-2.3,4.1-4.1,5.5c-4.2,3.4-9.8,4.1-15.1,3.9c-1.9-0.1,1,2,1.9,2.1c6,0.3,12.6-0.6,17.2-4.9
			c3-2.9,6.9-10.5,2.8-14.1c-3.5-3-9.4,0.1-12.5,2.1c-5.3,3.5-8.9,8.9-10.3,15C99.4,159.3,102.8,160.6,103,159.7L103,159.7z"/>
	</g>
</g>
<g id="XMLID_235_">
	<g id="XMLID_293_">
		<path id="XMLID_297_" class="st1" d="M122.9,232.3c0-0.4,0.1-0.7,0.3-1.1c0.2-0.3,0.7-0.4,0.8-0.7c-1.4-0.4-1.8-0.3-1.1,0.1
			c0.2,0.1,0.3,0.3,0.4,0.4c0.2,0.3,0.4,0.6,0.5,0.9c0.3,0.8,0.3,1.7-0.1,2.5c-0.2,0.5-0.5,0.7-0.9,1c-0.6,0.2-0.4,0.2,0.8,0.1
			c-0.1-0.1-0.3-0.2-0.4-0.3c-1.2-1-1.3-3.3-0.5-4.6c0.1-0.1,0.2-0.2,0.3-0.3c-1.7-0.5-2.3-0.4-1.7,0.2c0.2,0.5,0.4,0.9,0.4,1.4
			c0,0.3,0.2,2.3-0.2,2.4c0.8,0,1.5,0.1,2.3,0.1c0.4,0.1,0-0.3,0-0.5c-0.1-0.2-0.1-0.5-0.1-0.7c0-0.4,0.1-1,0.5-1.1
			c-1.1-0.1-2.3-0.2-3.4-0.4c0.2,0.3,0.3,0.6,0.4,1c0.3,0.9,3.8,0.6,3.7,0.3c-0.1-0.4-0.3-0.8-0.6-1.2c-0.5-0.7-2.7-0.6-3.4-0.4
			c-1.2,0.5-1.4,2.1-0.5,3c0.6,0.6,1.6,0.7,2.3,0.8c0.7,0.1,1.8,0.1,2.3-0.5c0.9-1,0.5-3.5-0.4-4.4c-1.1-1.1-3.6-1.3-4.9-0.7
			c-1.4,0.5-1.6,2.7-1.3,3.9c0.4,1.6,1.7,2.4,3.2,2.7c1.5,0.3,3.6,0.5,4.9-0.5c1.2-0.9,1.4-2.7,0.8-4c-0.9-1.9-3-2.4-4.9-2.3
			c-1.5,0-3.4,0.7-3.3,2.4C119.1,232.7,122.9,232.9,122.9,232.3L122.9,232.3z"/>
	</g>
</g>
<g id="XMLID_249_">
	<g id="XMLID_307_">
		<path id="XMLID_311_" class="st1" d="M137.8,23c0.8,0.9,2.3,1.9,3.5,1c1-0.8,0.9-2.3,0.6-3.4c-0.7-2.4-3.9-5.4-6.2-2.9
			c-2,2.2-0.7,6.2,2.2,6.9c1.2,0.3,2.4-0.3,2.8-1.4c0.6-1.3,0-2.9-0.9-3.9c-0.6-0.6-1.4-1.2-2.3-1c-0.6,0.1-1.3,0.6-1.4,1.3
			c-0.3,1.5,1.7,3.7,3.2,3.4c1.2-0.2-0.9-3.2-2.1-3c0.6,0.6,1.1,1.2,1.7,1.7c0.1-0.1,0.2-0.2,0.3-0.3c0.1,0,0.3-0.2,0.4-0.1
			c-0.4-0.3-0.7-0.6-1.1-0.8c-0.7-0.7-0.3-0.7-0.4-0.1c0,0.2-0.1,0.4-0.2,0.6c-0.3,0.5-0.6,0.6-1.1,0.8c-0.1,0-0.1,0-0.2,0
			c0.6,1.1,0.9,1.4,0.8,0.9c0-0.2,0-0.4,0-0.6c0.1-0.5,0.3-1,0.6-1.4c0.3-0.3,0.6-0.6,1-0.8c0,0,0.6-0.1,0.6,0
			c-0.2-0.1-0.3-0.2-0.5-0.4c-0.1-0.1-0.1-0.1,0,0c-0.1,0.4,0.1,0.8,0,1.1c-0.1,0.2-0.2,0.5-0.4,0.6c-0.6,0.4-0.5-0.4,0.3,0.7
			c-0.3-0.4-1.3-1.3-1.9-0.8C136.6,21.5,137.5,22.7,137.8,23L137.8,23z"/>
	</g>
</g>
<g id="XMLID_256_">
	<g id="XMLID_314_">
		<path id="XMLID_318_" class="st1" d="M189.6,170.7c-6.9-10.6-7.7-24-2-35.3c1-1.9-2.4-0.8-3,0.3c-6,11.9-5.4,25.8,1.9,37.1
			C187.3,173.9,190.4,171.9,189.6,170.7L189.6,170.7z"/>
	</g>
</g>
<g id="XMLID_263_">
	<g id="XMLID_321_">
		<path id="XMLID_325_" class="st1" d="M188.1,135.3c5-10.1,12.9-18,23.2-22.7c2.1-1-0.4-3.4-2.2-2.6c-10.7,4.9-19.2,13.2-24.4,23.8
			C183.8,135.7,187.3,137,188.1,135.3L188.1,135.3z"/>
	</g>
</g>
<g id="XMLID_270_">
	<g id="XMLID_328_">
		<path id="XMLID_332_" class="st1" d="M208.8,111.6c2,9.6,3.7,20.4-2.1,29.2c-6.1,9.2-16.4,8.4-26,6.4c0.2,0,1.6,2.3,2.6,2.5
			c9.7,2,20.1,2.9,26.3-6.5c5.8-8.8,4.1-19.7,2.1-29.4C211.5,112.8,208.8,111.6,208.8,111.6L208.8,111.6z"/>
	</g>
</g>
<g id="XMLID_277_">
	<g id="XMLID_335_">
		<path id="XMLID_339_" class="st1" d="M206.2,116.8c-3.7,12.2-9.9,26.5-21.8,32.8c-1.4,0.7,2.1,0.1,2.7-0.2
			c12.5-6.6,18.9-20.8,22.7-33.6C209.7,115.9,206.5,115.8,206.2,116.8L206.2,116.8z"/>
	</g>
</g>
<g id="XMLID_284_">
	<g id="XMLID_342_">
		<path id="XMLID_346_" class="st1" d="M198.4,119.8c1.2,4.7,1.7,9.5,1.6,14.3c0,1,3.2-0.5,3.2-1.7c0.2-4.9-0.4-9.6-1.6-14.3
			C201.3,117,198.1,118.8,198.4,119.8L198.4,119.8z"/>
	</g>
</g>
<g id="XMLID_312_">
	<g id="XMLID_370_">
		<path id="XMLID_374_" class="st1" d="M210,131.6c-3.7,2.1-8.1,2.4-12.1,3.7c-2.2,0.7-1.4,3.6,0.8,2.9c4.4-1.3,9-1.8,13-4.1
			C213.9,132.9,211.9,130.5,210,131.6L210,131.6z"/>
	</g>
</g>
<g id="XMLID_333_">
	<g id="XMLID_391_">
		<path id="XMLID_395_" class="st1" d="M63.2,36c-0.4,0.4-0.8,0.4-1.4,0.5c-0.1,0-0.2,0-0.2-0.1c1,1.3,1.4,1.6,1.2,1
			c0-0.2-0.1-0.5,0-0.7c0.1-0.5,0.5-1.1,1-1.3c0.2-0.1,0.4-0.2,0.7-0.2c0.1,0,0.2,0,0.3,0c-0.9-1-1.2-1.3-0.9-0.8
			c0,0.6,0.1,1-0.2,1.5c-0.3,0.5-0.8,0.8-1.4,0.9c-0.2,0-0.4,0-0.6,0c-0.7-0.2-0.3,0.2,1.1,1.1c0-0.2-0.1-0.3,0-0.5
			c0.1-0.8,0.8-1.1,1.5-1c0.6,0.1-0.5-1.3-0.5-1.4c-0.5-0.5-1.2-1.2-2-1.3c-1-0.1-1.9,0.6-1.9,1.6c0,1.3,1.2,2.5,2.2,3.1
			c0.9,0.6,2,1.1,3.1,0.8c0.8-0.3,1.5-0.9,1.7-1.7c0.3-1-0.3-2-0.9-2.8c-0.8-1-2-2.1-3.4-2.3c-2-0.4-3.3,1.8-2.4,3.5
			c0.9,1.7,3.9,4.2,5.8,2.4C66.5,38,63.8,35.4,63.2,36L63.2,36z"/>
	</g>
</g>
<g id="XMLID_347_">
	<g id="XMLID_405_">
		<path id="XMLID_409_" class="st1" d="M205,16.2c0.3,0.4,0.4,0.6,0.4,0.3c0,0,0-0.1,0-0.1c0.1-0.1,0.2-0.3,0.3-0.4
			c0.4-0.4,1-0.5,1.5-0.5c0.2,0,0.5,0,0.6,0.1c0.3,0.2,0.1,0,0,0c0.1,0.2-0.3,0.9-0.5,1.1c-0.4,0.4-0.9,0.6-1.5,0.8
			c-0.3,0.1-1.5,0.1-1.7,0.3c0.6,1,0.9,1.2,0.8,0.7c0-0.2,0-0.3,0-0.5c0-0.3,0.2-0.5,0.3-0.7c0-0.1,0.3-0.2,0.3-0.2
			c-0.3-0.3-0.5-0.5-0.8-0.8c0,0.2-0.1,0.4-0.2,0.7c1.1,0.4,2.2,0.7,3.3,1.1c0-0.3,0-0.5,0.2-0.8c0.8-1.7-2-4.1-2.9-2.2
			c-0.4,0.8-0.6,1.5-0.5,2.4c0.1,1.5,2.7,3.1,3.3,1.1c0.6-2-0.1-4.3-2.4-4.8c-1.9-0.4-3.3,1-3.6,2.8c-0.4,2,0.3,4.5,2.7,4.7
			c1.7,0.2,3.8-0.4,5.1-1.5c3.4-2.8,0.9-7.8-3.2-7.7c-1.6,0-3.4,0.9-4,2.4c-0.8,1.9,0.3,3.9,2,4.9c0.8,0.4,1.7,0,2-0.8
			C206.5,17.6,205.8,16.7,205,16.2L205,16.2z"/>
	</g>
</g>
<g id="XMLID_375_">
	<g id="XMLID_433_">
		<path id="XMLID_437_" class="st1" d="M182.4,154.1c-3.2-5.7-9.2-8.4-15-10.8c-7.2-2.9-14.8-4.8-22.5-6.2c-2.3-0.4-1.9,3.2,0.2,3.5
			c6.2,1.1,12.3,2.6,18.3,4.8c5.8,2.1,12.9,4.6,16,10.2C180.5,157.7,183.5,156.2,182.4,154.1L182.4,154.1z"/>
	</g>
</g>
<g id="XMLID_382_">
	<g id="XMLID_440_">
		<path id="XMLID_444_" class="st1" d="M178.9,156.4c-1.2,1-2.4,2.1-3.9,2.8c-2.9,1.2-8.9,0.7-11.6-1c-2.7-1.8-4.9-4.7-6.4-7.5
			c-2.7-4.9-4.1-10.3-9.4-13.1c-0.9-0.5-3.3,0-3.6-0.1c5.2,2.7,6.6,8.1,9.3,12.9c2.1,3.9,5.2,7.4,9.3,9.3c6.8,3.2,14.2,2,19.9-2.7
			C182.5,156.9,179.6,155.8,178.9,156.4L178.9,156.4z"/>
	</g>
</g>
<g id="XMLID_389_">
	<g id="XMLID_447_">
		<path id="XMLID_451_" class="st1" d="M143.1,140c1.8,3.6,4.9,6.2,6.9,9.6c1.1,2,4.2,0.7,3-1.4c-2-3.5-5.1-6.1-6.9-9.6
			C145.1,136.6,142,137.9,143.1,140L143.1,140z"/>
	</g>
</g>
<g id="XMLID_403_">
	<g id="XMLID_461_">
		<path id="XMLID_465_" class="st1" d="M162.9,146c2,4.1,3.9,8.2,5.9,12.2c0.9,1.9,3.9,1.5,2.9-0.7c-2-4.1-3.9-8.2-5.9-12.2
			C164.9,143.4,161.9,143.8,162.9,146L162.9,146z"/>
	</g>
</g>
<g id="XMLID_410_">
	<g id="XMLID_468_">
		<path id="XMLID_472_" class="st1" d="M179.2,140.8c-4.6-5.4-8-11.5-10.7-18c-1.1-2.8-2.2-5.7-3.1-8.6c-0.5-1.6-1-3.2-1.4-4.8
			c-0.9-3-0.5-2.5,2.5-2.2c4.1,0.4,8.5,1.1,11.2,4.6c2.4,3,3.3,7.3,3.4,11.1c0.2,7.2-3.5,13.8-5,20.6c-0.4,1.6,3.4,1.9,3.7,0.3
			c2.3-9.8,7.5-18.8,3.4-29c-3-7.4-9.9-9.7-17.4-10.1c-1.8-0.1-5.1-0.6-6.1,1.3c-1.2,2.3,1.8,7.9,2.6,10.3
			c3.1,9.3,7.2,18.2,13.6,25.7C176.9,143,180.5,142.3,179.2,140.8L179.2,140.8z"/>
	</g>
</g>
<g id="XMLID_417_">
	<g id="XMLID_475_">
		<path id="XMLID_479_" class="st1" d="M169.4,108.9c3.1,8.1,6.1,16.3,8.9,24.5c0.3,0.8,3.9,0.2,3.7-0.1c-2.8-8.2-5.8-16.4-8.9-24.5
			C172.8,107.9,169.3,108.6,169.4,108.9L169.4,108.9z"/>
	</g>
</g>
<g id="XMLID_452_">
	<g id="XMLID_510_">
		<path id="XMLID_514_" class="st1" d="M168.4,108.7c0.5,1.1,1,2.1,1.5,3.2c0.2,0.4,3.5-1.3,3.3-1.8c-0.5-1.1-1-2.1-1.5-3.2
			C171.5,106.6,168.1,108.2,168.4,108.7L168.4,108.7z"/>
	</g>
</g>
<g id="XMLID_459_">
	<g id="XMLID_517_">
		<path id="XMLID_521_" class="st1" d="M190.8,123.7c-1.8-15.8,4.8-30.2,14.4-42.4c-1,0.1-2,0.2-3,0.3c1.1,5.3,2.1,10.7,2.4,16.1
			c0.3,6.3-1.4,11.6-4.3,17.1c-1,1.9,2.4,1.3,3,0.1c2.5-4.8,4.5-9.4,4.8-14.9c0.3-6.5-1.1-13.3-2.4-19.6c-0.3-1.3-2.5-0.4-3,0.3
			c-10,12.7-17.3,27.7-15.4,44.3C187.5,126.5,190.9,125.1,190.8,123.7L190.8,123.7z"/>
	</g>
</g>
<g id="XMLID_466_">
	<g id="XMLID_524_">
		<path id="XMLID_528_" class="st1" d="M200.4,87.6c-0.6,6.7-2.1,13.2-4,19.7c-1.6,5.5-2.8,12.6-6.9,16.8c-1.1,1.2,2,3.1,3,2.1
			c4.3-4.5,5.5-11.4,7.2-17.3c1.9-6.7,3.5-13.4,4.1-20.3C204,87.3,200.6,86,200.4,87.6L200.4,87.6z"/>
	</g>
</g>
<g id="XMLID_473_">
	<g id="XMLID_531_">
		<path id="XMLID_535_" class="st1" d="M187.3,122.6c-0.2,2.1,0,4.1,0.5,6.2c0.5,1.8,4.1,1,3.6-1c-0.5-1.8-0.5-3.6-0.3-5.4
			C191.2,120.5,187.5,120.7,187.3,122.6L187.3,122.6z"/>
	</g>
</g>
<g id="XMLID_515_">
	<g id="XMLID_573_">
		<path id="XMLID_577_" class="st1" d="M178.4,141.6C178.4,141.6,178.3,141.6,178.4,141.6c0.1,0.3,0.2,0.5,0.4,0.8c0,0,0-0.1,0-0.1
			c-1.1,0-2.3,0-3.4,0c0.4,0.5,0.5,1.8,0.8,2.5c0.3,1,0.6,2,0.9,2.9c0.6,1.8,1.1,3.6,1.7,5.5c0.3,1.1,4,1.1,3.6-0.3
			c-0.6-2.1-1.3-4.2-1.9-6.3c-0.5-1.5-0.7-3.9-1.7-5c-0.6-0.7-2.9-0.9-3.4,0c0,0,0,0.1,0,0.1c-0.2,0.4,0.1,0.7,0.4,0.9
			c0,0,0,0,0.1,0C176.6,143.2,180.2,142.6,178.4,141.6L178.4,141.6z"/>
	</g>
</g>
<g id="XMLID_522_">
	<g id="XMLID_580_">
		<path id="XMLID_584_" class="st1" d="M171.3,133.5c-12-2.3-22.6-8.3-33-14.5c-1-0.6-4.5,0-2.8,1.1c10.9,6.4,22,12.7,34.6,15.1
			C171.8,135.5,173.8,134,171.3,133.5L171.3,133.5z"/>
	</g>
</g>
<g id="XMLID_557_">
	<g id="XMLID_615_">
		<path id="XMLID_619_" class="st1" d="M164.5,119.3c-9-6.5-17.7-13.4-25.5-21.2c-3.8-3.8-7.4-7.8-10.7-12c-3.4-4.3-6.2-9-10.2-12.9
			c-0.8,0.8-1.6,1.5-2.4,2.3c9.7,1.2,20,2.6,27.1,10.1c7.5,7.9,9.2,19.1,9.2,29.6c0,1.7,3.5,0.6,3.6-0.9c0-11-1.9-22.5-9.7-30.7
			c-7.3-7.8-18.3-9.4-28.4-10.6c-0.9-0.1-3.6,1.1-2.4,2.3c3.9,3.9,6.8,8.6,10.2,12.9c3.3,4.2,6.9,8.2,10.7,12
			c7.9,7.8,16.6,14.7,25.5,21.2C162.6,122.2,165.8,120.2,164.5,119.3L164.5,119.3z"/>
	</g>
</g>
<g id="XMLID_578_">
	<g id="XMLID_636_">
		<path id="XMLID_640_" class="st1" d="M141.8,85.7c0.4,6.5,1.3,12.9,2.6,19.3c0.2,0.8,3.6,1.5,3.5,1c-1.2-6.3-2.1-12.6-2.5-19
			C145.3,86,141.8,85.4,141.8,85.7L141.8,85.7z"/>
	</g>
</g>
<g id="XMLID_585_">
	<g id="XMLID_643_">
		<path id="XMLID_647_" class="st1" d="M145.5,107.3c-5.2-2-10.7-3.6-16.3-3.3c-4.9,0.3-9.7,2-14.3,3.6c-0.2,0.1,1.5,3.2,2.3,2.9
			c5.1-1.8,10.3-3.7,15.9-3.6c5,0,9.8,1.5,14.5,3.3C147.5,110.2,146.5,107.7,145.5,107.3L145.5,107.3z"/>
	</g>
</g>
<g id="XMLID_599_">
	<g id="XMLID_657_">
		<path id="XMLID_661_" class="st1" d="M135.6,115.5c-8.3-2.6-16.6-5.5-24.8-8.7c-2.3-0.9-2.1,2-0.2,2.7c8.2,3.1,16.4,6,24.8,8.7
			C137.7,119,137.5,116.2,135.6,115.5L135.6,115.5z"/>
	</g>
</g>
<g id="XMLID_634_">
	<g id="XMLID_692_">
		<path id="XMLID_696_" class="st1" d="M175.9,102.2c3.3-2,4.1-7.2,4.3-10.8c0-0.3-2.2-0.9-2.4-0.6c-2.7,3-4.9,6.2-6.6,9.8
			c0,0.1,2.2,1,2.4,0.6c1.8-3.6,4-6.8,6.6-9.8c-0.8-0.2-1.6-0.4-2.4-0.6c-0.2,3.5-1,8.7-4.3,10.8
			C173.8,101.3,175.3,102.5,175.9,102.2L175.9,102.2z"/>
	</g>
</g>
<g id="XMLID_641_">
	<g id="XMLID_699_">
		<path id="XMLID_703_" class="st1" d="M173,99.9c-0.8-5.4-1.9-10.6-3.5-15.8c-0.3-0.9-1.9-1.1-2.3-0.2c-1.6,4.3-2.9,8.6-0.9,13
			c0.6,1.3,2.9,0.8,2.3-0.7c-1.7-3.8-0.5-7.6,0.9-11.3c-0.8-0.1-1.5-0.1-2.3-0.2c1.5,5,2.6,10,3.3,15.2
			C170.7,101.4,173.2,101.5,173,99.9L173,99.9z"/>
	</g>
</g>
<g id="XMLID_648_">
	<g id="XMLID_706_">
		<path id="XMLID_710_" class="st1" d="M173.1,101.2c-12.3-3.4-19.5-14.1-22.9-25.9c-0.3-1.1-2.6-0.2-2.3,1
			c3.5,12.3,11.2,23.1,24,26.7C173.1,103.4,174.6,101.6,173.1,101.2L173.1,101.2z"/>
	</g>
</g>
<g id="XMLID_655_">
	<g id="XMLID_713_">
		<path id="XMLID_717_" class="st1" d="M166,97c-1.9-6.7-5.2-12.6-9.9-17.7c-0.5-0.5-2-0.9-2.1,0.1c-0.4,3.5-0.1,6.9,1.1,10.3
			c0.4,1.1,2.8,1.4,2.3,0.1c-1.1-3.2-1.5-6.4-1-9.8c-0.7,0-1.4,0.1-2.1,0.1c4.5,4.8,7.6,10.4,9.4,16.7C164,98,166.4,98.4,166,97
			L166,97z"/>
	</g>
</g>
<g id="XMLID_662_">
	<g id="XMLID_720_">
		<path id="XMLID_724_" class="st1" d="M166.5,96.5c0,0.6,0,1.2,0,1.8c0,0.5,0.5,1,0.9,1.3c0.2,0.1,1.1,0.6,1.1,0.1
			c0-0.6,0-1.2,0-1.8c0-0.5-0.5-1-0.9-1.3C167.4,96.4,166.5,96,166.5,96.5L166.5,96.5z"/>
	</g>
</g>
<g id="XMLID_669_">
	<g id="XMLID_727_">
		<path id="XMLID_731_" class="st1" d="M174.8,103.6c6.6,0.7,12.3-5.4,13.8-11.4c0.2-0.8-2.1-1.7-2.3-1.1
			c-1.4,5.5-6.6,11.7-12.9,11.1C172.2,102.1,174.1,103.6,174.8,103.6L174.8,103.6z"/>
	</g>
</g>
<g id="XMLID_676_">
	<g id="XMLID_734_">
		<path id="XMLID_738_" class="st1" d="M188.6,93.3c0.9-6.7,3-13,6.2-19c-0.7,0.1-1.5,0.2-2.2,0.4c-0.3,3.9,0.9,7.6-0.4,11.5
			c-1.2,3.5-3.5,6.6-6.7,8.4c-1.3,0.8-0.6,2.1,0.8,1.4c3.3-1.9,5.7-4.6,7.4-8.1c2.3-4.7,0.9-9,1.2-14c0.1-1.2-1.9-0.1-2.2,0.4
			c-3.3,6.1-5.5,12.5-6.4,19.4C186.2,95,188.5,94.3,188.6,93.3L188.6,93.3z"/>
	</g>
</g>
<g id="XMLID_683_">
	<g id="XMLID_741_">
		<path id="XMLID_745_" class="st1" d="M189.2,89.7c-0.2-4.3-0.6-8.6-1.2-12.9c-0.1-0.5-2.3-0.3-2.5,0.1c-2.7,6.4-3.9,13.1-3.4,20.1
			c0,0.5,2.5,0.3,2.5-0.2c-0.5-6.9,0.6-13.5,3.3-19.9c-0.8,0-1.6,0.1-2.5,0.1c0.6,4.3,1,8.5,1.2,12.9
			C186.7,90.4,189.2,90.2,189.2,89.7L189.2,89.7z"/>
	</g>
</g>
<g id="XMLID_690_">
	<g id="XMLID_748_">
		<path id="XMLID_752_" class="st1" d="M183.4,90.4c-0.2-3.6-0.7-7-1.7-10.4c-0.1-0.5-2.2-0.9-2.4-0.4c-1.6,3.6-2.5,7.4-2.8,11.3
			c0,0.6,2.4,1,2.5,0.5c0.3-3.9,1.2-7.7,2.8-11.3c-0.8-0.1-1.6-0.3-2.4-0.4c1,3.3,1.5,6.7,1.7,10.2
			C180.9,90.6,183.4,90.8,183.4,90.4L183.4,90.4z"/>
	</g>
</g>
<g id="XMLID_697_">
	<g id="XMLID_755_">
		<path id="XMLID_759_" class="st1" d="M172.4,91.1c-0.8-3.8-1.2-7.2,0.1-10.8c1-2.9,2.3-5.8,3.3-8.7c-0.8,0.2-1.6,0.4-2.4,0.5
			c1.6,5.7,2.7,11.5,3.5,17.4c0.1,0.7,2.5,0.1,2.4-0.7c-0.8-5.9-1.9-11.7-3.5-17.4c-0.2-0.8-2.2,0-2.4,0.5c-1.2,3.3-2.7,6.5-3.7,9.8
			c-1,3.4-0.5,6.6,0.3,10C170.2,92.6,172.6,91.9,172.4,91.1L172.4,91.1z"/>
	</g>
</g>
<g id="XMLID_704_">
	<g id="XMLID_762_">
		<path id="XMLID_766_" class="st1" d="M180.5,81.1c1.9-4.4,4.5-8.2,7.8-11.6c-0.8,0.1-1.6,0.3-2.4,0.4c-0.2,2.7-0.6,5.4-1.2,8.1
			c0,0,2.3,0.1,2.4-0.5c0.6-2.7,1-5.4,1.2-8.1c0-0.3-2.2,0.2-2.4,0.4c-3.3,3.4-6,7.2-7.8,11.6C178,81.7,180.3,81.7,180.5,81.1
			L180.5,81.1z"/>
	</g>
</g>
<g id="XMLID_711_">
	<g id="XMLID_769_">
		<path id="XMLID_773_" class="st1" d="M193.1,89.9c6.4-7.4,10.4-15.2,13.2-24.5c0.3-1.1-1.6-1.2-2.1-0.7
			c-4.8,3.9-8.7,8.4-11.9,13.8c-0.6,1,1.9,1.2,2.4,0.3c3-5.1,6.7-9.4,11.3-13.1c-0.7-0.2-1.4-0.5-2.1-0.7c-2.8,9.1-6.7,16.9-13,24.1
			C190.1,90.1,192.4,90.6,193.1,89.9L193.1,89.9z"/>
	</g>
</g>
<g id="XMLID_718_">
	<g id="XMLID_776_">
		<path id="XMLID_780_" class="st1" d="M169,86c-0.3-5.2-2.1-9.8-5.3-13.9c-0.2-0.2-2-1.5-2.1-1c-0.6,2.8-1.9,5.3-2.2,8.1
			c-0.3,2.7,0.1,5.3,0.9,7.9c0.2,0.6,2.3,1.2,2.2,1c-0.9-2.9-1.3-5.8-0.8-8.8c0.4-2.4,1.5-4.6,2.1-7c-0.7-0.3-1.4-0.6-2.1-1
			c3.2,4,4.9,8.5,5.2,13.6C166.8,85.6,169,86.4,169,86L169,86z"/>
	</g>
</g>
<g id="XMLID_725_">
	<g id="XMLID_783_">
		<path id="XMLID_787_" class="st1" d="M160.8,79c-1.9-3.8-5.7-5.9-8.5-9.1c-0.3-0.3-2.4-0.4-2.5,0.1c-0.1,3.8,0.9,7.3,2.9,10.5
			c0.3,0.5,2.6,0.1,2.4-0.2c-2-3.1-3-6.6-2.8-10.3c-0.8,0-1.6,0.1-2.5,0.1c2.7,3.1,6.5,5.2,8.4,8.9C158.6,79.6,160.8,79.1,160.8,79
			L160.8,79z"/>
	</g>
</g>
<g id="XMLID_732_">
	<g id="XMLID_790_">
		<path id="XMLID_794_" class="st1" d="M150,75.9c-2.7-3.6-5-7.5-7-11.6c-0.7,0.4-1.5,0.7-2.2,1.1c2.9,2.3,5.3,5,7.2,8.1
			c0.2,0.3,2.4-0.9,2.2-1.1c-2-3.1-4.4-5.8-7.2-8.1c-0.3-0.2-2.4,0.8-2.2,1.1c1.9,4.1,4.2,8,7,11.6C148,77.4,150.1,76.1,150,75.9
			L150,75.9z"/>
	</g>
</g>
<g id="XMLID_739_">
	<g id="XMLID_797_">
		<path id="XMLID_801_" class="st1" d="M174.3,74.6c-0.3-3.4-1.2-6.5-2.8-9.5c-0.3-0.5-1.3-1.1-1.8-0.5c-2.8,3.4-3.6,9.6-2,13.6
			c0.5,1.3,2.7,1.2,2.1-0.3c-0.8-2-0.8-4-0.4-6c0.4-1.7,0.9-4.1,2-5.4c-0.6-0.2-1.2-0.3-1.8-0.5c1.4,2.6,2.2,5.4,2.4,8.4
			C172.2,75.7,174.5,76.2,174.3,74.6L174.3,74.6z"/>
	</g>
</g>
<g id="XMLID_746_">
	<g id="XMLID_804_">
		<path id="XMLID_808_" class="st1" d="M201.1,77.9c4.4-4.8,8.9-9.4,14-13.5c5.4-4.3,12.6-10,20-7.9c1,0.3,2.6-1.6,1.3-1.9
			c-6.7-1.9-12.8,1.7-18.1,5.4c-6.9,4.8-13,10.7-18.6,17C198.5,78.1,200.2,78.9,201.1,77.9L201.1,77.9z"/>
	</g>
</g>
<g id="XMLID_753_">
	<g id="XMLID_811_">
		<path id="XMLID_815_" class="st1" d="M235.1,53.6c-6.6-4.9-15.2-4.5-21.1,1.4c-0.7,0.7,1,2.5,1.8,1.7c5.2-5.2,12.7-6.1,18.7-1.7
			C235.8,56.1,236.1,54.4,235.1,53.6L235.1,53.6z"/>
	</g>
</g>
<g id="XMLID_760_">
	<g id="XMLID_818_">
		<path id="XMLID_822_" class="st1" d="M198,73.3c8-16,3-33.4,0.3-50c-0.1-0.9-1.9-1.4-2.3-0.6C187.5,38,183.3,55,183.8,72.4
			c0,1.1,2.5,1.4,2.5,0.1c-0.5-17.1,3.6-33.8,12-48.8c-0.8-0.2-1.6-0.4-2.3-0.6c2.6,16.2,7.7,33.5-0.1,49.1
			C195.2,73.4,197.5,74.3,198,73.3L198,73.3z"/>
	</g>
</g>
<g id="XMLID_767_">
	<g id="XMLID_825_">
		<path id="XMLID_829_" class="st1" d="M202.4,50.8c1.8-12.3,10.9-20.7,20.3-28.1c-0.8-0.3-1.5-0.7-2.3-1c-3.5,8-2,17-4,25.4
			c-2,8.4-6.8,15.1-14.2,19.6c-0.2,0.1,1.7,1.4,2.2,1.1c6.8-4.1,11.6-10.3,13.9-17.9c2.6-8.9,0.8-18.6,4.5-27.2c0.1-0.3-2-1.2-2.3-1
			c-9.3,7.3-18.5,15.7-20.3,28.1C200,50.4,202.4,51,202.4,50.8L202.4,50.8z"/>
	</g>
</g>
<g id="XMLID_774_">
	<g id="XMLID_832_">
		<path id="XMLID_836_" class="st1" d="M185,58.8c-1.2-6.9-4.2-12.8-8.9-17.9c-0.2-0.2-1.1-1-1.3-0.4c-3.9,9.8-5.4,20.2-0.4,29.9
			c0.4,0.7,2.3,1.7,1.5,0.3c-4.8-9.3-3-19.3,0.7-28.6c-0.4-0.1-0.9-0.3-1.3-0.4c4.2,4.5,6.8,9.8,7.8,15.9
			C183.3,58.3,185.2,59.7,185,58.8L185,58.8z"/>
	</g>
</g>
<g id="XMLID_781_">
	<g id="XMLID_839_">
		<path id="XMLID_843_" class="st1" d="M173.4,61.5c-2.7-6.9-5.6-13.3-10.8-18.8c-4.8-5-10.5-9.1-16.2-13c-0.4-0.3-1.6-0.6-1.5,0.3
			c1,8.1,1.3,16.8,4.3,24.5c2.8,7.4,7.2,14.3,11.5,20.9c0.5,0.7,2.8,1.3,2,0.1c-4.5-6.8-9.2-14.2-11.9-22
			c-2.5-7.3-2.8-15.4-3.7-22.9c-0.5,0.1-1,0.2-1.5,0.3c5.2,3.6,10.4,7.2,14.8,11.7c5.2,5.3,8.1,11.5,10.8,18.4
			C171.5,61.7,173.8,62.6,173.4,61.5L173.4,61.5z"/>
	</g>
</g>
<g id="XMLID_788_">
	<g id="XMLID_846_">
		<path id="XMLID_850_" class="st1" d="M152.4,69.5c-0.1,0-0.2,0.1-0.3,0.1c0.4,0,0.8,0.1,1.3,0.1c-2.5-1.8-4.4-6.1-5.7-8.8
			c-1.5-3.1-2.6-6.3-3.4-9.6c-0.7,0.3-1.5,0.6-2.2,0.9c2.3,1.3,4.2,2.9,5.9,5c0.5,0.6,2.8-0.2,2.3-0.9c-1.8-2.1-3.8-3.8-6.2-5.2
			c-0.5-0.3-2.4,0.1-2.2,0.9c1.2,4.7,3,9.2,5.4,13.4c1.1,1.8,2.7,6.1,5.4,5.3C154.1,70.1,153.8,69,152.4,69.5L152.4,69.5z"/>
	</g>
</g>
<g id="XMLID_795_">
	<g id="XMLID_853_">
		<path id="XMLID_857_" class="st1" d="M143.8,65.5c-6.7-3.9-12.2-9.2-19.7-11.8c-3-1-6.1-1.7-9.2-2c-3.7-0.3-8.8,1-12.2-0.7
			c-0.2,0.4-0.4,0.9-0.6,1.3c3.5-2.4,10.8-1.4,14.8-1.5c6.4,0,10.7,1.6,15.7,5.2c0.7,0.5,2.7-1,1.9-1.6c-5.7-4.1-10.4-5.5-17.4-5.4
			c-4.9,0.1-11.4-0.8-15.7,2.1c-0.2,0.2-1.2,1-0.6,1.3c2.6,1.3,4.9,0.8,7.7,0.7c4.4-0.2,8.7,0.5,12.9,1.8c7.7,2.5,13.5,8,20.4,12
			C142.6,67.5,144.6,66,143.8,65.5L143.8,65.5z"/>
	</g>
</g>
<g id="XMLID_802_">
	<g id="XMLID_860_">
		<path id="XMLID_864_" class="st1" d="M146.3,60.4c-16.7-2.7-21.5-21.8-29.8-33.9c-0.2,0.6-0.4,1.1-0.6,1.7
			c12.6,1.5,23,9.1,30.1,19.4c0.8,1.1,2.7,0.7,1.8-0.6c-7.5-11-18.5-19.3-32-21c-1.1-0.1-1.1,1-0.6,1.7c8.7,12.7,13.7,32,31.3,34.9
			C148,62.8,147.5,60.6,146.3,60.4L146.3,60.4z"/>
	</g>
</g>
<g id="XMLID_809_">
	<g id="XMLID_867_">
		<path id="XMLID_871_" class="st1" d="M166.4,43.5c-0.5-5-0.6-10,0-15c0.3-2.8,0.9-5.7,1.6-8.4c0.3-1.3,0.2-2.5,1.6-2.7
			c1.6-0.2,2.8,1.9,3.7,3.1c6.4,8.7,7,19.9,6.3,30.3c-0.1,1.3,2.4,1.4,2.5,0c0.5-7.7,0.4-15.6-2.3-22.9c-1.5-4.3-4.5-10.7-8.7-12.9
			c-8.8-4.6-7.7,24.7-7.3,28.5C164.1,44.8,166.6,44.9,166.4,43.5L166.4,43.5z"/>
	</g>
</g>
<g id="XMLID_816_">
	<g id="XMLID_874_">
		<path id="XMLID_878_" class="st1" d="M164.1,44.6c-0.1,1.1,0,2.2,0.5,3.2c0.3,0.7,2.7,0.2,2.5-0.2c-0.4-1-0.6-2.1-0.5-3.2
			C166.6,43.8,164.2,43.9,164.1,44.6L164.1,44.6z"/>
	</g>
</g>
<g id="XMLID_823_">
	<g id="XMLID_881_">
		<path id="XMLID_885_" class="st1" d="M165.1,37.8c-2.8-9.3-9.4-16.3-15.3-23.8c-0.5-0.7-2.7-0.6-2.4,0.6c1.7,7.5,2.3,17.2,7,23.6
			c0.6,0.9,3,0.2,2.3-0.8c-4.5-6.1-5.2-15.9-6.9-23.2c-0.8,0.2-1.6,0.4-2.4,0.6c5.7,7.3,12.4,14.2,15.1,23.3
			C162.9,39.3,165.4,38.9,165.1,37.8L165.1,37.8z"/>
	</g>
</g>
<g id="XMLID_830_">
	<g id="XMLID_888_">
		<path id="XMLID_892_" class="st1" d="M181.8,35.7c1.7-7.2,2.7-15,6.1-21.7c-0.7-0.5-1.4-0.9-2-1.4c0.4,10,0.5,20,0.1,30.1
			c0,0.7,2.1,1.8,2.1,1.2c0.3-10,0.3-20-0.1-30.1c0-0.5-1.8-1.9-2-1.4c-3.4,6.7-4.5,14.6-6.2,21.9C179.5,35,181.6,36.3,181.8,35.7
			L181.8,35.7z"/>
	</g>
</g>
<g id="XMLID_837_">
	<g id="XMLID_895_">
		<path id="XMLID_899_" class="st1" d="M171.9,102c-0.3,1.9,0,3.6,0.9,5.3c0.4,0.7,2.7-0.2,2.4-0.7c-0.8-1.6-1.1-3.3-0.9-5
			C174.4,100.9,172,101.4,171.9,102L171.9,102z"/>
	</g>
</g>
<g id="XMLID_844_">
	<g id="XMLID_902_">
		<path id="XMLID_906_" class="st1" d="M256.7,124.7c-5.9-16.5-29.2-6.3-34.2,5.6c-5.4,12.9,0.8,33.8,17.2,33.5c1,0,0-2.3-0.9-2.3
			c-15.8,0.3-20.2-20.4-13.6-31.9c2.3-4,6.1-7.3,10.3-9.2c6-2.7,16.8-3.4,19.6,4.3C255.7,125.9,257.3,126.3,256.7,124.7L256.7,124.7
			z"/>
	</g>
</g>
<g id="XMLID_851_">
	<g id="XMLID_909_">
		<path id="XMLID_913_" class="st1" d="M255.8,134.5c-10.8-5.3-24.9-3.7-30.7,8.1c-4,8.4-0.3,18.1,8.7,20.7
			c8.8,2.5,22.1-8.7,14.2-17c-1.9-2-4.7-3.5-7.4-3.7c-4.7-0.4-10,3.3-7.1,8.2c0.2,0.3,2,1.5,2,1.3c-0.3-4.4,7.5-5.6,9.3-1.6
			c1.1,2.5,0.2,5.5-1.2,7.7c-0.2,0.3,1.9,1.7,2,1.5c2.7-4.1,2-9.1-2.1-12c-3.1-2.2-10.3-1.5-10,3.2c0.7,0.4,1.3,0.9,2,1.3
			c-5.5-9.3,17-11.7,11.9,1.6c-3.1,8-16.4,13.6-21.1,2.7c-2.8-6.7,0.7-14.6,5.9-18.9c7-5.8,16.8-5.6,24.7-1.8
			C258,136.2,256.2,134.7,255.8,134.5L255.8,134.5z"/>
	</g>
</g>
<g id="XMLID_858_">
	<g id="XMLID_916_">
		<path id="XMLID_920_" class="st1" d="M254.4,115.3c1.6,0,1.4-1.7-0.1-1.7C252.7,113.5,252.9,115.3,254.4,115.3L254.4,115.3z"/>
	</g>
</g>
<g id="XMLID_900_">
	<g id="XMLID_958_">
		<path id="XMLID_962_" class="st1" d="M238.9,179.1c-0.2-4.2-3.6-10.3-8.8-9.3c-6.6,1.3-3.3,10.6-0.1,13.5
			c4.5,4.1,9.7,3.1,13.9-0.8c2.9-2.6,5-5.9,6.7-9.4c2.3-4.6,3.5-10.7,9.2-12.1c1.1-0.3-0.7-1.8-1.6-1.6c-6.5,1.7-7.7,8.7-10.5,13.9
			c-1.8,3.4-4.2,7.2-7.5,9.2c-4,2.4-10,0.7-11.4-3.9c-0.5-1.7-0.5-3.4,0.2-5c5.4-1.1,7.9,0.4,7.5,4.5
			C236.6,179.2,238.9,180.1,238.9,179.1L238.9,179.1z"/>
	</g>
</g>
<g id="XMLID_956_">
	<g id="XMLID_1014_">
		<path id="XMLID_1018_" class="st1" d="M70.3,149.6c6.6,7.6,0.9,16.8-4.6,23.1c0.8,0,1.6-0.1,2.5-0.1c-3.6-8-3.4-17.5,4.2-23.3
			c-0.8,0-1.6,0-2.3,0c0.2,6.6,2.3,14.3-3.4,19.3c0.8,0,1.6-0.1,2.5-0.1c-0.4-2.9,4.6-17.3-0.2-16.6c-2.1,0.3-2.3,2.2-2.7,4.1
			c-0.9,4.4-1.6,10.3,0.3,14.5c0.2,0.5,2.5,0.4,2.5-0.2c0-3.3,0.3-6.5,0.9-9.8c0.6-3.2,1.5-5.9,0.3-9.1c-0.8,0.1-1.7,0.2-2.5,0.2
			c2.8,5.1,2.6,10.6-0.4,15.6c0.8,0,1.6,0,2.4,0c1.6-3.9,2.8-7.8,3.6-12c-0.8,0.1-1.7,0.2-2.5,0.2c1.1,2.9,1.1,5.3-0.2,8.2
			c-0.2,0.5,2.2,0.5,2.4,0c1.3-2.9,1.4-5.4,0.2-8.4c-0.2-0.5-2.4-0.3-2.5,0.2c-0.8,4.1-1.9,7.9-3.5,11.8c-0.2,0.5,2.1,0.5,2.4,0
			c3.1-5,3.3-10.6,0.5-15.8c-0.3-0.6-2.6-0.1-2.5,0.2c1.2,3.1,0.3,5.9-0.3,9.1c-0.6,3.2-0.8,6.5-0.9,9.8c0.8-0.1,1.7-0.2,2.5-0.2
			c-2.5-5.3,0.2-10.7-0.3-16.1c-0.2-2.3-0.5,2.6-0.5,2.6c-0.2,1.4-0.4,2.8-0.6,4.2c-0.4,2.6-1.4,5.2-1,7.8c0.1,0.7,2.2,0.1,2.5-0.1
			c5.8-5,3.7-12.8,3.5-19.5c0-0.6-2.1-0.2-2.3,0c-7.7,5.8-8.2,15.3-4.5,23.7c0.3,0.6,2.1,0.3,2.5-0.1c5.6-6.4,11.2-15.7,4.5-23.5
			C72.2,148.7,70,149.2,70.3,149.6L70.3,149.6z"/>
	</g>
</g>
<g id="XMLID_963_">
	<g id="XMLID_1021_">
		<path id="XMLID_1025_" class="st1" d="M65.4,174.5c-6.4,27.9-12.9,56.8-27.5,81.8c-0.4,0.7,1.8,1.8,2.3,1
			c14.7-25,21.1-53.9,27.5-81.8C67.9,174.7,65.6,173.8,65.4,174.5L65.4,174.5z"/>
	</g>
</g>
<g id="XMLID_970_">
	<g id="XMLID_1028_">
		<path id="XMLID_1032_" class="st1" d="M58.8,181.6c1.3-3.7,2.5-7.7,1.4-11.7c-1.1-3.6-4.1-6.4-5.8-9.6c-0.4-0.8-1.8-1.2-2.1-0.1
			c-2.1,7.8-2,14.7,5.3,19.4c1.4,0.9,2.3-1,1.1-1.8c-6.4-4.1-6-10-4.2-16.7c-0.7,0-1.4-0.1-2.1-0.1c1.4,2.5,3.4,4.6,4.7,7.1
			c2.2,4,0.9,8.3-0.5,12.4C56.2,181.9,58.3,183.1,58.8,181.6L58.8,181.6z"/>
	</g>
</g>
<g id="XMLID_977_">
	<g id="XMLID_1035_">
		<path id="XMLID_1039_" class="st1" d="M52.5,162.2c0.6,5.3,2.1,10.3,4.6,15c0.3,0.5,2,2,1.3,0.7c-2.3-4.4-3.8-9.1-4.3-14.1
			C54,163.2,52.5,161.6,52.5,162.2L52.5,162.2z"/>
	</g>
</g>
<g id="XMLID_984_">
	<g id="XMLID_1042_">
		<path id="XMLID_1046_" class="st1" d="M54.5,165c1.2,3.4,2,6.8,2.4,10.4c0.1,0.7,1.7,2.5,1.7,1c0-3.4-0.8-10.4-4.7-11.7
			c-0.4-0.1-0.6,0.2-0.5,0.6c0.5,3.9,1.4,7.7,2.9,11.4c0.2,0.5,1.6,1.8,1.5,0.5c-0.3-3.2-0.8-6.3-1.6-9.4c-0.4-1.4-0.7-3-2.2-3.5
			c-0.2-0.1-0.4,0-0.5,0.1c-2.7,3.9,0.1,10.4,2.9,13.4c0.3,0.3,1.3,0.9,1.2-0.1c-0.7-3.5-1.5-7.1-2.4-10.5c-0.5-0.1-1-0.1-1.5-0.2
			c0.7,1.8,1.3,3.5,1.6,5.4c0.1,0.7,1.8,2.5,1.7,1c-0.1-1.2-0.8-3.4-0.5-4.6c0.1,0.9,0.3,1.8,0.4,2.8c0.1,0.9,0,1.9-0.2,2.8
			c0.6,0.4,1.1,0.8,1.7,1.3c-0.1-1.5-0.2-3.1-0.3-4.6c0-0.5-1.5-2.4-1.7-1.3c-0.4,3.2-0.5,6.3-0.4,9.5c0.3-0.1,0.6-0.2,1-0.3
			c-2.4-2.4-2.4-5.9-2.5-9.1c0-0.8-1.7-2.4-1.7-1c0.1,4.4,0.7,8.5,3.9,11.7c0.4,0.4,1,0.4,1-0.3c-0.1-3,0-6.1,0.4-9.1
			c-0.6-0.4-1.1-0.8-1.7-1.3c0.1,1.5,0.2,3.1,0.3,4.6c0,0.5,1.5,2.4,1.7,1.3c0.4-2.4,0.5-7.2-1.9-8.9c-2.9-2.1-1.3,4.5-1.2,5.4
			c0.6,0.3,1.1,0.7,1.7,1c-0.4-2.3-1-4.4-1.9-6.5c-0.3-0.7-1.9-1.7-1.5-0.2c0.9,3.3,1.7,6.6,2.3,10c0.4,0,0.8-0.1,1.2-0.1
			c-1.4-1.5-2.3-3.2-2.6-5.2c0-0.2-0.2-5.1,0.5-4.8c-0.3-0.3-0.7-0.7-1-1c1.6,3,1.8,7.3,2.1,10.7c0.5,0.2,1,0.3,1.5,0.5
			c-1.3-3.3-2.1-6.7-2.6-10.3c-0.2,0.2-0.4,0.4-0.5,0.6c2.2,0.7,2.4,6.7,2.4,8.5c0.6,0.3,1.1,0.7,1.7,1c-0.5-4-1.4-7.8-2.8-11.5
			C55.4,163.9,53.9,163.5,54.5,165L54.5,165z"/>
	</g>
</g>
<g id="XMLID_991_">
	<g id="XMLID_1049_">
		<path id="XMLID_1053_" class="st1" d="M62.2,194.6c-3.7-7.1-8.7-13.3-14.8-18.4c-0.7-0.6-2.8,0.8-1.9,1.5c6.1,5,11,11.1,14.6,18.1
			C60.5,196.7,62.7,195.5,62.2,194.6L62.2,194.6z"/>
	</g>
</g>
<g id="XMLID_998_">
	<g id="XMLID_1056_">
		<path id="XMLID_1060_" class="st1" d="M48.3,174.8c-2.2-1.5-4.1-3.5-5.3-5.9c-0.6-1.1-2.8-5.6-1.3-6.6c-0.8,0-1.5,0-2.3,0
			c5.9,1.6,6.9,7.2,6.6,12.4c0,0.2,2.5,0.3,2.5,0c0.2-3.5,0.2-7.3-2.5-9.9c-1.5-1.5-3.6-2.9-5.8-2.8c-2.7,0.1-1.3,3.3-0.6,5
			c1.2,3.2,3.4,5.8,6.2,7.8C46.4,175.3,48.1,174.7,48.3,174.8L48.3,174.8z"/>
	</g>
</g>
<g id="XMLID_1005_">
	<g id="XMLID_1063_">
		<path id="XMLID_1067_" class="st1" d="M40.2,162.1c0.7,1.7,1.8,3.1,2.8,4.7c1.3,2.2,2.2,4.6,2.9,7.1c0.1,0.5,1.6,2,1.5,1.6
			c-0.5-2-1.2-3.9-2-5.7c-1-2.1-2.7-4-3.6-6.2C41.5,163.2,40.1,161.7,40.2,162.1L40.2,162.1z"/>
	</g>
</g>
<g id="XMLID_1012_">
	<g id="XMLID_1070_">
		<path id="XMLID_1074_" class="st1" d="M42.2,163.5c-2.7,1,1.9,9.5,4.8,8.8c0.3-0.1,0.3-0.4,0.3-0.7c-0.2-2.1-0.9-4-2-5.8
			c-0.7-1.1-2.1-3.5-3.7-3.4c-3.4,0.3,1.6,7.4,2.5,8.3c0.3,0.3,1.5,1.1,1.5,0.1c0-2.4-0.8-4.4-2.3-6.2c-1-1.2-2.1-0.2-1.1,0.9
			c1,1.2,1.4,2.5,1.4,4.1c0.5,0,1,0.1,1.5,0.1c-0.7-0.8-1.4-1.7-1.9-2.7c-0.2-0.5-1.2-2.4-0.2-2c0.7,0.3,1.3,2.1,1.6,2.7
			c0.4,1,0.6,2.1,0.7,3.2c0.1-0.2,0.2-0.5,0.3-0.7c-0.9,0.2-2.9-4.5-2.2-4.7C44.5,165.2,43,163.2,42.2,163.5L42.2,163.5z"/>
	</g>
</g>
<g id="XMLID_1019_">
	<g id="XMLID_1077_">
		<path id="XMLID_1081_" class="st1" d="M40.8,174.5c-6.2-5.1-13.6-7.9-21.6-7.9c0,0.1,0,0.1,0.1,0.2c4.8,8.1,13.9,17,23.2,8.5
			c0.2-0.2-1.5-1.7-1.7-1.8c-5.7-3.1-12.8-3.9-19-5.3c-0.2,0,0.3,0.5,0.3,0.5c1.6,2,12.4,11.9,13.5,6.8c1-4.8-8.7-7.3-11.2-7.6
			c0,0,0,0-0.1,0c-0.1,4.2,8.3,7,11.2,7.6c0.1,0-0.8-1.1-0.9-1.2c-3-3-6.3-4.5-10.4-5.5c-0.2,0,0.1,0.3,0.1,0.3
			c2.7,3.3,5.7,6,9.7,7.6c0.2,0.1-0.5-0.7-0.5-0.8c-1.7-1.9-8.5-9.1-11.1-7.2c0,0,0,0,0,0.1c1.2,3.2,5.2,6,7.9,7.7
			c0.2,0.1,0.2,0.1,0.1-0.1c-2.1-3.3-4.7-6.1-7.8-8.5c0-0.1-0.1-0.1-0.2-0.1c-1.2,2.8,4.6,7.2,6.5,8.5c0.2,0.1,0.2,0.1,0.1-0.1
			c-2-3.1-4.5-5.7-7.3-8c0,0-0.4-0.3-0.3-0.1c0.7,1.8,1.7,3.2,3,4.7c0.2,0.2,1.4,1.3,1.1,0.9c-1.2-1.8-2.4-3.5-3.8-5.1
			c-0.2-0.3-1.4-1.1-1.4-1.2c1.3,3.3,4.2,5.4,7.2,7.1c-0.4-0.2-1-1.4-1.6-1.8c-1.7-0.7-3-2-3.8-3.7c-0.5-0.4-0.9-0.8-1.4-1.2
			c1.6,1.9,9.9,10.3,5.7,4.4c-2.3-3.1-0.6-1.7,1.2-0.7c1.1,0.6,3.1,1.6,3.6,2.9c-0.3-0.8-6.8-3.7-3.4-3.3c0.9,0.1,2.5,0.8,3.3,1.2
			c1.4,0.8,1.8,1.1,0,0.7c-1.3-0.3-2.6-0.8-3.1-2.1c-0.8-1-0.7-1.2,0.3-0.8c0.7,0.1,1.5,0.3,2.2,0.6c1,0.5,3.7,2.7,3.1,4
			c-0.5,1.1-3.2-0.1-3.9-0.4c-0.7-0.3-5.8-2.8-4.6-3.9c0.2-0.2,2.7,0.6,3.1,0.7c4.9,1.1,10,1.8,14.5,4.2c-0.6-0.6-1.1-1.2-1.7-1.8
			c-2.1,1.9-4.4,3.1-7.2,3.3c-1.8,0.2-3.8,0-5.4-0.8c-2-1.8-3.9-3.7-5.9-5.5c-1-0.8-0.9-1.4,0.1-2.1c1.4-1.1,7.8,1.2,9.3,1.7
			c3.8,1.3,7.2,3.3,10.3,5.9C42.6,176.5,41,174.7,40.8,174.5L40.8,174.5z"/>
	</g>
</g>
<g id="XMLID_1026_">
	<g id="XMLID_1084_">
		<path id="XMLID_1088_" class="st1" d="M30.3,172.3c-1.1,0.2-2.2,0-3.1-0.8c-0.2,0.6-0.5,1.1-0.7,1.7c0.9-0.1,4.8,0.3,4.8,1.9
			c-1.5-0.1-2.7-0.7-3.6-1.7c-1.8-1.5-1.9-1.9-0.3-1.1c0.9,0.6,1.8,0.6,2.8-0.1c0.9,0.2,1.7,0.6,2.4,1c1.5,0.8,2.8,1.8,3.9,3
			c0.4-0.6,0.7-1.2,1.1-1.8c-1.3-0.8-2.7-1.7-4-2.5c-0.2,0.7-0.3,1.4-0.5,2.1c2.1,0.5,4.1,1,6.2,1.5c0.1-0.7,0.1-1.5,0.2-2.2
			c-1.2-0.3-2.5-0.6-3.7-0.9c-0.1,0.7-0.1,1.5-0.2,2.2c0.8,0.2,1.6,0.3,2.4,0.5c-0.3-0.6-0.6-1.3-0.8-1.9c-0.6,0.7-2.4,2.1-3.4,1.7
			c-0.1,0-0.3-0.7-0.4-0.8c-0.9-0.6-1.6-1.5-2.5-2c-1.1-0.7-2.2-1.2-3.4-1.6c-1.3-0.5-5-1.2-5.7-2.4c-0.3,0.5-0.6,0.9-0.9,1.4
			c1.8,0.1,3.7,1.9,5.3,2.7c1.4,0.7,2.1-1.3,0.8-2c-2.3-1.2-3.7-2.9-6.5-3c-0.7,0-1.2,0.8-0.9,1.4c1,1.7,2.5,2.1,4.3,2.8
			c3,1.1,5.4,2.3,7.8,4.3c2.3,1.9,5.3,1.7,7.3-0.8c0.5-0.7,0-1.8-0.8-1.9c-0.8-0.2-1.6-0.3-2.4-0.5c-1.6-0.3-1.6,1.9-0.2,2.2
			c1.2,0.3,2.5,0.6,3.7,0.9c1.6,0.4,1.6-1.8,0.2-2.2c-2.1-0.5-4.1-1-6.2-1.5c-1.5-0.4-1.5,1.4-0.5,2.1c1.3,0.8,2.7,1.7,4,2.5
			c1.3,0.8,2-0.9,1.1-1.8c-2.2-2.2-6.2-5.4-9.6-4.8c-2.4,0.4-2.9,2.5-1.7,4.4c0.8,1.4,3.8,3.6,4.9,1.3c1.1-2.3-2.5-5.8-4.3-6.5
			c-1.7-0.7-3.7-0.2-3.5,2c0.2,2.7,3.9,5.3,6.1,6.2c1.9,0.8,4.9,0.5,4-2.2c-1-3-4.8-4.4-7.6-4.1c-0.9,0.1-1.2,0.9-0.7,1.7
			c1.3,1.9,3.1,2.1,5.3,2C32.3,174.5,31.6,172.2,30.3,172.3L30.3,172.3z"/>
	</g>
</g>
<g id="XMLID_1033_">
	<g id="XMLID_1091_">
		<path id="XMLID_1095_" class="st1" d="M50,181.7c-4-1.6-8.2-1.6-12.3-0.2c-2.3,0.8-4.6,1.9-6.7,3.2c-1.6,1-1.7,0.8-0.9,2.2
			c1.5,2.4,7.4,3,9.8,2.9c5.4-0.4,7.9-4.1,9.9-8.6c0.2-0.5-2-0.7-2.3-0.6c-2.2,1-4.4,2-6.6,3.1c-1.4,0.7-4.5,1.6-4.8,3.4
			c0,0.1,0.1,0.2,0.1,0.2c2.7,1.6,6.7,1.1,8.5-1.6c2.5-3.5-1.7-4.2-4.4-3.6c-1.9,0.4-7.8,4.5-4,5.7c3.4,1.1,9.7-2.2,10.5-5.7
			c0-0.1-0.1-0.2-0.1-0.2c-3.4-2.1-8-0.3-9.8,3.1c-0.2,0.4,1.6,0.6,1.8,0.6c1.9,0,7.8-1,6.9-3.9c-0.1-0.4-1.5-0.5-1.8-0.5
			c-2.5,0-4.7,1.8-6.3,3.7c-0.4,0.5,1.8,0.7,2,0.7c2.2-0.2,3.8-0.9,5.3-2.5c0.5-0.5-1.9-0.7-2.2-0.6c-1.5,0.4-2.8,1.1-3.6,2.5
			c0,0.1-1.5,2.8-1.3,1.3c0,0.1,1.9-1.4,1.9-1.4c0.5-0.4-1.8-0.7-2-0.7c-2.2,0.3-3.7,1-5.2,2.7c-0.4,0.4,1.9,0.9,2.3,0.6
			c1.6-1.1,2.7-2.3,3.6-4c0.2-0.4-2-0.7-2.3-0.6c-1.9,0.8-3.6,1.9-5.2,3.3c-0.3,0.2,0.4,0.5,0.5,0.5c3.6,1.4,7.2,1.8,11,1.3
			c-0.6-0.3-1.2-0.5-1.9-0.8c-2.2,1-5.5,0.8-7.8,0.3c-0.2-0.1-2.1-0.2-1.5,0.3c1.8,1.5,4.5,2,6.7,1c2.1-1,3-3,4.4-4.6
			c2-2.2,4.1-2.4,6.7-3.3c0.1,0,0.2-0.1,0.2-0.2c-0.8-3.6-8.8,0-10.4,1.1c-0.5,0.3,1.6,0.7,1.7,0.7c3-0.2,5.8-0.7,8.6-1.6
			c-0.8-0.2-1.5-0.4-2.3-0.6c-0.3,0.6-0.6,1.2-0.8,1.8c-0.3,0.4,2,1.1,2.3,0.6c0.8-1.1,0.6-0.6,1-2c0.2-0.6-2-0.6-2.3-0.6
			c-2.5,0.8-5,1.3-7.7,1.5c0.6,0.2,1.2,0.5,1.7,0.7c0.9-0.6,1.8-1.2,2.8-1.5c3.1-1.2,2.3-0.6,1.6-0.4c-1.1,0.3-2.2,0.6-3.2,1.2
			c-2,1.2-6.1,8.6-9,6.2c-0.5,0.1-1,0.2-1.5,0.3c3.6,0.9,7.2,1.5,10.7-0.2c0.8-0.4-1.6-0.8-1.9-0.8c-1.3,0.2-7.3,0.5-6.6-1.3
			c0.3-0.9,3.5-2.1,4-2.4c-0.8-0.2-1.5-0.4-2.3-0.6c-0.9,1.7-2,2.7-3.5,3.8c0.8,0.2,1.6,0.4,2.3,0.6c1.3-1.5,2.3-2.2,4.5-2.5
			c-0.7-0.2-1.3-0.5-2-0.7c-0.7,0.8-1.6,1.4-2.6,1.7c-0.1,0-0.3,0.1-0.2,0.3c1.1,1.2,2.4,2.2,4.2,2.1c0.7,0,1.3-0.1,1.8-0.6
			c1.8-1.8,1.2-3.7,4.3-4.5c-0.7-0.2-1.5-0.4-2.2-0.6c-1.3,1.4-2.7,2.1-4.6,2.3c0.7,0.2,1.3,0.5,2,0.7c1.1-1.3,3.2-3.4,5.1-3.4
			c-0.6-0.2-1.2-0.3-1.8-0.5c0.7,2.3-4.9,3.2-5.6,3.3c0.6,0.2,1.2,0.4,1.8,0.6c0,0,3.6-5.2,4.2-2.2c0.1,0.4-2.3,2.1-2.5,2.3
			c-0.9,0.6-1.9,1-3,1.3c-0.7,0.4-0.8,0.3-0.4-0.3c-0.2-1.1,2.7-3.3,3.6-3.4c2.9-0.3,1.3,1.9,0.4,2.8c-0.6,0.6-1.4,1.1-2.2,1.4
			c-0.7-0.8-0.5-1.3,0.7-1.4c2.2-2.1,6.4-3.2,9.2-4.5c-0.8-0.2-1.5-0.4-2.3-0.6c-0.8,1.9-1.7,3.9-3.1,5.5c-0.8,0.8-1.7,1.5-2.8,1.9
			c-1.3,0.5-8.6,0.9-9.2-1.3c-0.4-1.6,2.9-2.6,4.2-3.2c3.8-1.8,7.9-3.2,12.1-1.5C49.3,182.4,51.5,182.3,50,181.7L50,181.7z"/>
	</g>
</g>
<g id="XMLID_1040_">
	<g id="XMLID_1098_">
		<path id="XMLID_1102_" class="st1" d="M72.7,180.9c-0.5-2.7,0.3-5.1,1.9-7.3c0.5-0.7,3.4-4.2,4.6-4c-0.3-0.3-0.6-0.6-0.9-0.9
			c2.6,4.6-3.1,9.2-6.7,10.7c-1.2,0.5-0.1,2.7,1,2.2c3-1.3,5.9-3.2,7.3-6.3c0.9-1.9,1.7-6-0.2-7.6c-2-1.7-4.9,1.9-6.1,3.2
			c-2.5,2.7-3.6,6.1-2.9,9.8C70.9,182,73,182.5,72.7,180.9L72.7,180.9z"/>
	</g>
</g>
<g id="XMLID_1047_">
	<g id="XMLID_1105_">
		<path id="XMLID_1109_" class="st1" d="M77.3,169.2c-0.3,3.8-3.6,6.3-5,9.6c-0.2,0.6,1.5,2.2,1.7,1.7c1.5-3.4,4.8-5.7,5-9.6
			C79.1,170.1,77.3,168.8,77.3,169.2L77.3,169.2z"/>
	</g>
</g>
<g id="XMLID_1054_">
	<g id="XMLID_1112_">
		<path id="XMLID_1116_" class="st1" d="M75.8,169.7c-2,2.3-3.2,5.1-3.3,8.1c0,0.5,0.4,1,0.6,1.4c0.1,0.1,0.7,0.9,0.7,0.6
			c0.2-3,1.3-5.7,3.2-8C77.4,171.4,75.9,169.6,75.8,169.7L75.8,169.7z"/>
	</g>
</g>
<g id="XMLID_1061_">
	<g id="XMLID_1119_">
		<path id="XMLID_1123_" class="st1" d="M63.4,197.9c-0.3-2.9,5.6-7.2,7.7-8.8c3.5-2.7,7.4-4.7,11.6-6c1.5-0.5,0.8-2.5-0.6-2.1
			c-4.8,1.6-9.2,3.8-13.2,6.9c-2.5,2-8.3,6.4-8,9.9C61,199.2,63.5,199.2,63.4,197.9L63.4,197.9z"/>
	</g>
</g>
<g id="XMLID_1068_">
	<g id="XMLID_1126_">
		<path id="XMLID_1130_" class="st1" d="M69.6,191.1c2-1.4,4.2-2,6.6-1.6c1.4,0.2,6.3,1.7,6.6,3.5c0.2,1.4-2,1.9-2.9,2
			c-1.2,0.2-2.4,0.2-3.6,0c-3-0.6-5.5-2.4-7.2-5c-0.3,0.5-0.6,0.9-0.9,1.4c3.9-0.4,9.2-0.8,11.6,2.8c0.1-0.5,0.1-1,0.2-1.5
			c-2.4,1.4-7.1-1.8-9-3.1c-0.2,0.6-0.3,1.2-0.5,1.9c3.1-0.4,7.9-0.5,10.1,2.1c0.2-0.5,0.5-1.1,0.7-1.6c-1.7,0.2-3.2-0.2-4.4-1.5
			c0,0.4,0,0.9,0,1.3c0.3-0.3,3.9,0.8,2.1,1c-0.8,0.1-1.7-0.5-2.4-0.8c-1.8-0.8-3.6-1.6-5.4-2.4c-1.2-0.5-2.3,0.9-1.1,1.7
			c1.2,0.8,4,2,4.6,3.4c0.4-0.5,0.8-0.9,1.2-1.4c-1.8-0.5-3.4-1.2-5-2.2c-1-0.7-2.5,0.1-1.7,1.3c3.3,4.7,9.9,3.6,14.9,2.9
			c1.6-0.2,1-2.4-0.4-2.2c-3.9,0.6-9.9,1.8-12.6-1.9c-0.6,0.4-1.1,0.9-1.7,1.3c2,1.3,4,2.2,6.2,2.8c0.8,0.2,1.6-0.6,1.2-1.4
			c-0.9-2-3.6-3.2-5.4-4.4c-0.4,0.6-0.8,1.2-1.1,1.7c1.5,0.7,11.6,6.7,12.1,2.1c0.3-3-5.5-5.2-7.5-3.3c-0.4,0.3-0.3,1,0,1.3
			c1.8,2,4,2.9,6.7,2.6c0.8-0.1,1.4-0.9,0.7-1.6c-2.9-3.3-8.4-3.7-12.4-3.2C69.2,189.5,68.7,190.6,69.6,191.1
			c3.1,2.2,8.2,5.6,12,3.5c0.6-0.3,0.5-1,0.2-1.5c-3-4.4-9.2-4.4-13.9-3.9c-0.6,0.1-1.4,0.7-0.9,1.4c2.3,3.6,5.8,6.2,10.2,6.6
			c2,0.2,8.2,0,8.9-2.7c0.6-2.7-4.6-5.5-6.6-6.3c-3.8-1.6-8-1.2-11.4,1.1C66.8,190.1,68.5,191.8,69.6,191.1L69.6,191.1z"/>
	</g>
</g>
<g id="XMLID_1075_">
	<g id="XMLID_1133_">
		<path id="XMLID_1137_" class="st1" d="M84.1,181.2c4.8-3.5,7.8-9.1,9.1-14.8c0-0.1,0-0.1-0.1-0.1c-2.3-0.3-4.6,2.5-5.9,4
			c-2.9,3.3-4.7,7.2-5.5,11.4c0,0.1,2.1-0.4,2.2-1c0.9-4.8,3.6-11.2,8.1-13.8c-0.5,0.2-1,0.4-1.4,0.6c1.1,0.1-1.9,6.6-2.2,7.2
			c-1.5,2.7-3.4,5.2-5.9,7.1C81.6,182.3,83.8,181.4,84.1,181.2L84.1,181.2z"/>
	</g>
</g>
<g id="XMLID_1082_">
	<g id="XMLID_1140_">
		<path id="XMLID_1144_" class="st1" d="M89.9,167.6c-2.6,4-4.6,8.3-6.3,12.8c-0.3,0.8,1.4,2.5,1.7,1.7c1.6-4.5,3.7-8.7,6.3-12.8
			C92,168.6,90.4,166.8,89.9,167.6L89.9,167.6z"/>
	</g>
</g>
<g id="XMLID_1089_">
	<g id="XMLID_1147_">
		<path id="XMLID_1151_" class="st1" d="M86.9,170.2c-1.8,3.1-3.3,6.3-4.4,9.7c-0.3,1,2.1,1.6,2.4,0.6c1.1-3.3,2.5-6.4,4.2-9.3
			C89.7,170.2,87.4,169.3,86.9,170.2L86.9,170.2z"/>
	</g>
</g>
<g id="XMLID_1096_">
	<g id="XMLID_1154_">
		<path id="XMLID_1158_" class="st1" d="M83.7,186.1c1-1.7,2.4-3.1,4.4-3.6c1.9-0.5,5.6,0.8,5.7,3.1c0,1.1-0.7,1.2-1.7,1.5
			c-1,0.3-2.1,0.3-3.1,0.2c-2-0.3-5-1.7-6.1-3.5c0,0.4,0.1,0.7,0.1,1.1c1-1.2,3.2-1.4,4.6-1.1c0.5,0.1,3.3,0.9,2.4,1.8
			c-0.6-0.1-1.2-0.1-1.8-0.2c-0.9-0.3-1.5-0.9-2-1.6c0.1,0.3,0.1,0.6,0.2,1c0.2-0.7,1.2-0.9,1.7-1c1-0.2,2-0.3,2.4,0.7
			c0.6,1.6-1.3,0.3-1.9-0.1c-2.4-1.5,1.7,0.7,2.1,1.1c-0.2-0.5-0.4-1.1-0.6-1.6c-1,0.9-5.7-0.3-6.9-0.5c-1.2-0.1,0,1.7,0.4,1.9
			c1.6,0.8,3,0.8,4.8,0.5c-0.4-0.7-0.9-1.4-1.3-2c-0.7,0.2-1.4,0.4-2.1,0.6c-1,0.3,0.4,1.9,0.9,2c0.8,0.2,0.9,0.2,1.7,0.2
			c1.2,0-0.1-2.1-0.9-2.1c-0.4,0-0.8-0.1-1.2-0.1c0.3,0.7,0.6,1.3,0.9,2c0.7-0.2,1.4-0.4,2.1-0.6c1-0.3-0.5-2.2-1.3-2
			c-1.1,0.2-2.3,0.4-3.4-0.1c0.1,0.6,0.3,1.3,0.4,1.9c1.8,0.2,3.7,0.5,5.5,0.7c0.8,0.1,1.5,0.2,2.1-0.4c0.5-0.5-0.2-1.3-0.6-1.6
			c-1.3-1.2-3.7-3.2-5.5-1.8c-0.2,0.1-0.2,0.4-0.1,0.6c0.6,1.9,2.5,3.3,4.3,4c1.6,0.6,4.4,0.6,3.7-1.9c-0.8-3.1-9.4-5.2-9.2-1.5
			c0.1,3.1,8.5,6.1,7.9,2.4c-0.7-4-8.7-5.8-11.1-2.8c-0.3,0.4-0.1,0.8,0.1,1.1c1.4,2.5,4.9,4.5,7.6,5.1c2,0.4,7.5,0.4,7-2.8
			c-0.4-2.4-3.9-5.2-6.2-5.8c-3.4-1-6.4,1.2-8.1,4C81.3,185.3,83.1,187.1,83.7,186.1L83.7,186.1z"/>
	</g>
</g>
<g id="XMLID_1103_">
	<g id="XMLID_1161_">
		<path id="XMLID_1165_" class="st1" d="M91.3,177.9c2.5-4,8.4-6.4,12.8-3.6c-0.5-0.5-1-0.9-1.6-1.4c1.1,3.3-3.6,3.7-5.5,3.7
			c-2.4,0.1-5,0.4-7.5-0.1c0.6,0.5,1.2,1.1,1.8,1.6c1.9,0,3.8-0.1,5.7-0.7c1.4-0.4,4.2-1.1,4.8-2.6c0-0.1,0-0.1-0.1-0.2
			c-2.6-3.4-6.7-1.6-9.6,0.9c-0.2,0.2,1.6,1.5,1.9,1.6c2.4,0.6,6.9,0.7,8.6-1.5c0-0.1,0-0.1-0.1-0.2c-0.9-1.1-2-1.9-3.4-2.2
			c0.6,0.5,1.2,1.1,1.8,1.6c0.7,0,1-0.1,1.6-0.6c0.2-0.2-1.6-1.5-1.9-1.6c-0.5-0.3-1-0.4-1.6-0.4c0.2,0,1.1,1.6,1.8,1.6
			c0.6,0,1.1,0.1,1.6,0.4c-0.6-0.5-1.2-1.1-1.9-1.6c-0.3,0.5-0.8,0.7-1.5,0.6c0.1,0,1.2,1.5,1.8,1.6c-0.2-0.2-0.4-0.3-0.5-0.5
			c-0.4,0.2-0.7,0.4-1.1,0.6c-0.7,0.3-1.3,0.5-2,0.7c-1.7,0.4-3.4,0.3-5-0.1c0.6,0.5,1.2,1.1,1.9,1.6c1.9-1.6,4.7-3.1,7.3-2.7
			c-0.6-0.5-1.2-1-1.8-1.4c0.8,1-3.2,2.4-3.7,2.6c-2.1,0.7-4.2,1-6.4,0.9c0.1,0,1.2,1.5,1.8,1.6c3,0.6,7.1,0.5,10.2-0.1
			c2.2-0.4,4.2-2.4,2.4-4.3c-4.1-4.3-11.7-1.8-14.5,2.6C89.1,176.6,91.2,178.1,91.3,177.9L91.3,177.9z"/>
	</g>
</g>
<g id="XMLID_1110_">
	<g id="XMLID_1168_">
		<path id="XMLID_1172_" class="st1" d="M92.3,208.5c-11,9.8-23.3,18.3-38.4,19.4c-0.7,0.1-1.8,1.2-2.1,1.2
			c16.5-1.2,30.5-10.7,42.5-21.5C94.4,207.5,92.7,208.2,92.3,208.5L92.3,208.5z"/>
	</g>
</g>
<g id="XMLID_1117_">
	<g id="XMLID_1175_">
		<path id="XMLID_1179_" class="st1" d="M66.2,226.7c-2.2-5,0.5-11.5,4.6-14.9c0.5-0.4-1.6-1.7-2-1.3c-4.2,3.4-7.2,10-4.8,15.2
			C64.3,226.4,66.3,226.9,66.2,226.7L66.2,226.7z"/>
	</g>
</g>
<g id="XMLID_1124_">
	<g id="XMLID_1182_">
		<path id="XMLID_1186_" class="st1" d="M69.1,211.2c1.3,2.3,1.2,5,0.4,7.5c-0.8,2.6-2.6,3.6-5.1,4.4c-1.4,0.5-0.2,2.6,1.1,2.2
			c3-1,5.3-2.4,6.3-5.6c0.9-3.1,1-6.4-0.6-9.2C70.5,209.3,68.3,209.8,69.1,211.2L69.1,211.2z"/>
	</g>
</g>
<g id="XMLID_1131_">
	<g id="XMLID_1189_">
		<path id="XMLID_1193_" class="st1" d="M69.5,210.5c-1.7,4-3.4,8-5.1,12c-0.4,1,1.6,2.4,2.1,1.3c1.7-4,3.4-8,5.1-12
			C72,210.8,70,209.4,69.5,210.5L69.5,210.5z"/>
	</g>
</g>
<g id="XMLID_1138_">
	<g id="XMLID_1196_">
		<path id="XMLID_1200_" class="st1" d="M67.9,211.8c-2.3,3-2.6,6.7-2.8,10.4c-0.1,1.3,2.4,1.7,2.5,0.3c0.2-3.3,0.4-6.6,2.4-9.4
			C70.9,212,68.7,210.8,67.9,211.8L67.9,211.8z"/>
	</g>
</g>
<g id="XMLID_1145_">
	<g id="XMLID_1203_">
		<path id="XMLID_1207_" class="st1" d="M69.1,213.5c0.1,3.3-1,6.3-3.2,8.8c-0.8,0.9,0.6,2.9,1.5,1.9c2.5-2.9,3.8-6.5,3.7-10.3
			C71.2,212.5,69.1,211.8,69.1,213.5L69.1,213.5z"/>
	</g>
</g>
<g id="XMLID_1152_">
	<g id="XMLID_1210_">
		<path id="XMLID_1214_" class="st1" d="M67.6,217.2c0.1,3-1,5.8-3.3,7.7c-1.2,1,0.8,2.2,1.8,1.4c2.7-2.3,4.2-5.6,4-9.2
			C70,215.8,67.5,215.9,67.6,217.2L67.6,217.2z"/>
	</g>
</g>
<g id="XMLID_1159_">
	<g id="XMLID_1217_">
		<path id="XMLID_1221_" class="st1" d="M66.3,223c-0.3,1-0.8,2-1.5,2.8c-0.3,0.4-0.2,0.7,0.3,0.7c0.5,0,1.3-0.3,1.6-0.7
			c0.9-1,1.5-2.2,1.9-3.5c0.1-0.5-0.9-0.3-1.1-0.3C67.2,222.2,66.5,222.5,66.3,223L66.3,223z"/>
	</g>
</g>
<g id="XMLID_1166_">
	<g id="XMLID_1224_">
		<path id="XMLID_1228_" class="st1" d="M78,212.5c2.4-1.5,2.7-4.2,2.5-6.9c-0.1-1.6-0.6-2.8-2.5-2.5c-1.7,0.2-3.2,2.4-3.8,3.8
			c-1,2.1-1,4.3-0.3,6.4c0.2,0.5,2.5,0.7,2.4,0.4c-1.2-3.4,0.1-8.3,3.7-9.8c-0.3,0-0.6,0-0.9,0c0.1,0,0.1,0,0.2,0
			c-0.5-0.2-1-0.4-1.4-0.6c1.1,2.7,0.4,6.8-2.1,8.4C75.5,211.9,77.4,212.9,78,212.5L78,212.5z"/>
	</g>
</g>
<g id="XMLID_1173_">
	<g id="XMLID_1231_">
		<path id="XMLID_1235_" class="st1" d="M77,205.1c-0.2,3.1-1,5.9-2.5,8.6c-0.5,0.9,1.5,2.4,2.1,1.3c1.6-2.8,2.4-5.8,2.6-9.1
			C79.2,204.9,77,203.7,77,205.1L77,205.1z"/>
	</g>
</g>
<g id="XMLID_1180_">
	<g id="XMLID_1238_">
		<path id="XMLID_1242_" class="st1" d="M76,207.3c-0.6,2.7-1.2,5.3-1.8,8c0-0.2,2.2-0.3,2.3-0.9c0.6-2.7,1.2-5.3,1.8-8
			C78.3,206.6,76.2,206.7,76,207.3L76,207.3z"/>
	</g>
</g>
<g id="XMLID_1187_">
	<g id="XMLID_1245_">
		<path id="XMLID_1249_" class="st1" d="M74.7,207.9c-0.5,2-0.8,3.9-0.8,5.9c-0.1,1.3,2.3,2.1,2.3,0.6c0.1-1.8,0.3-3.6,0.7-5.4
			C77.2,207.8,75,206.6,74.7,207.9L74.7,207.9z"/>
	</g>
</g>
<g id="XMLID_1194_">
	<g id="XMLID_1252_">
		<path id="XMLID_1256_" class="st1" d="M77.5,208.8c-0.3,2-1.3,3.7-2.9,4.9c-0.6,0.4,1.5,1.7,2.1,1.2c1.7-1.2,2.8-3,3.1-5.1
			C79.9,209,77.6,208.2,77.5,208.8L77.5,208.8z"/>
	</g>
</g>
<g id="XMLID_1201_">
	<g id="XMLID_1259_">
		<path id="XMLID_1263_" class="st1" d="M75,222.8c1.8-2.3,7-1.8,9.1-0.6c2.4,1.3,1.3,2.3-0.5,3.6c-4.3,3-9.2,0.6-11.6-3.3
			c-0.7,0.2-1.5,0.4-2.2,0.6c2.6,1.4,5.5,1.9,8.5,1.6c1.6-0.2,5.1-0.5,5.2-2.4c0-0.1-0.1-0.2-0.2-0.2c-2.6-1.4-8.2-0.8-10.1,1.6
			c-2.6,3.2,5.6,2.8,7.2,2.4c1.7-0.4,6.4-3.4,2.8-4.4c-1.8-0.5-9.6,0.5-7.4,3.7c1.4,2,8.7,1.3,9.9-0.7c2-3.1-5.4-2.5-6.8-2
			c-2.6,1-5.1,4.8-0.8,5.1c1.7,0.1,9.1-2,7.3-4.8c-1.4-2.1-8.1-0.6-9.1,1.3c-1.6,3.1,6.2,2.1,7.1-0.4c0.1-0.2,0-0.2-0.2-0.3
			c-1.7-1.1-4.3,0-5.7,1c-0.4,0.3,0.3,0.5,0.5,0.5c1.5,0.2,2.7,0,3.9-1c0.7-0.6-1.8-0.5-2.2-0.2c-1,0.7-1.3,1.2-1.6,2.4
			c-0.1,0.4,1.2,0.3,1.3,0.3c1-0.1,1.5-0.2,2.2-0.9c0.1-0.1,0.2-0.3,0.1-0.4c-0.2-0.2-0.5-0.3-0.7-0.5c-0.6-0.4-2.7,0.3-2.4,0.5
			c0.2,0.1,0.4,0.2,0.6,0.3c0.4,0.1,0.9,0.2,1.3,0.3c0.4-0.6,0.8-1.3,1.3-1.9c-0.7-0.1-1.5-0.1-2.2-0.2c-0.2,0.1-0.3,0.2-0.5,0.3
			c0.2,0.2,0.3,0.4,0.5,0.5c0.3-2.1,1.3-2.1,3.1-0.1c-0.4,0.4-0.7,0.7-1.1,1.1c-3.5,0.4-4.4-0.1-2.6-1.7c-0.2,1.6,0.2,1.8,1.3,0.6
			c2.7-1.5,1.3-1.9-4.2-1.4c4.3,0.1,4.9,0.3,1.8,0.5c-2.4,0.2-4.1-0.1-6.3-1.2c-0.4-0.2-2.6,0-2.2,0.6c3.6,5.9,13,7.2,17.7,1.6
			c2.5-3-3.5-4.1-5.6-4.2c-2.9-0.2-7.2-0.1-9.2,2.5C72.3,223.2,74.5,223.4,75,222.8L75,222.8z"/>
	</g>
</g>
<g id="XMLID_1208_">
	<g id="XMLID_1266_">
		<path id="XMLID_1270_" class="st1" d="M82.2,216.8c-0.2-2.9,1-5.2,2.5-7.5c0.5-0.8,1.1-1.6,1.7-2.3c0.5-0.7,1.1-1.3,1.7-1.9
			c1.2-1,1.9-0.8,2,0.6c1.6,2.6-1.7,6.2-3.5,7.8c-1.9,1.8-4.2,3.1-6.4,4.4c0.5,0.4,0.9,0.8,1.4,1.2c2.7-2.1,5.5-4.5,6.9-7.8
			c0.7-1.4,2.1-5.1-0.1-6c-2-0.8-4.1,2.2-4.9,3.5c-1.7,2.5-3.3,5.3-2.9,8.4c0.1,0.6,1.1,0.5,1.5,0.4c2.2-0.6,3.6-2.9,4.7-4.8
			c1.3-2,3.2-4.9,3.3-7.3c0-0.4-0.2-0.6-0.6-0.7c-4-1.4-6.8,5.8-7.7,8.6c-0.1,0.4,0.1,0.8,0.5,0.9c1.6,0.3,2.4-0.4,3.4-1.5
			c2.1-2.2,3.8-4.7,5.4-7.3c0.8-1.4-1.4-1.3-2.1-0.6c-1.5,1.6-2.4,3.3-3,5.4c-0.3,1.2,1.4,1.1,2,0.6c2.1-1.8,2.9-4.1,2.2-6.7
			c-0.2-0.7-1.3-0.6-1.8-0.3c-1.1,0.7-1.5,1.3-1.7,2.5c-0.1,1,1.6,0.8,2.1,0.4c0.8-0.7,1-1.3,0.8-2.4c-0.2-0.9-1.9-0.5-2.2,0.1
			c-1.1,1.7-2.2,3.4-3.4,5.2c-0.8,1.3,1.5,1.5,2.1,0.6c1.1-1.7,2.2-3.4,3.4-5.2c-0.7,0-1.5,0.1-2.2,0.1c0,0.2-0.1,0.4-0.1,0.5
			c0.7,0.1,1.4,0.2,2.1,0.4c0.1-0.3,0.3-0.5,0.4-0.8c-0.6-0.1-1.2-0.2-1.8-0.3c0.5,1.9,0,3.6-1.5,4.9c0.7,0.2,1.3,0.4,2,0.6
			c0.5-1.9,1.4-3.5,2.7-5c-0.7-0.2-1.4-0.4-2.1-0.6c-0.8,1.3-1.6,2.6-2.5,3.8c-0.3,0.4-2.8,3.9-2.9,3.9c0.2,0.3,0.3,0.6,0.5,0.9
			c0.5-1.6,1.1-3.2,2.1-4.6c0.4-0.6,1-1.1,1.3-1.7c0.9-1.6-0.5,0.7-0.6,0.8c-1.1,2.1-2.9,7.2-5.5,7.9c0.5,0.1,1,0.3,1.5,0.4
			c-0.3-2.1,0.8-3.9,1.7-5.6c0.5-0.8,1-2.2,1.8-2.7c0.8-0.6,0.5-1.2,0.4,0.4c-0.1,4-4.3,7.3-7.1,9.5c-1.2,0.9,0.5,1.7,1.4,1.2
			c3.7-2.1,7.4-4.5,9.8-8c1.5-2.2,3.1-6.9-0.1-8.6c-2.5-1.3-5,1.5-6.4,3.2c-2.6,3.1-5.1,7-4.8,11.2
			C79.9,218.4,82.3,217.9,82.2,216.8L82.2,216.8z"/>
	</g>
</g>
<g id="XMLID_1215_">
	<g id="XMLID_1273_">
		<path id="XMLID_1277_" class="st1" d="M96.9,206.9c0.2-2.2,1.1-4.1,2.5-5.8c0.4-0.6,0.9-1.1,1.4-1.6c0.8-0.9,1.1-2.1,1,0.2
			c-0.1,4.2-4.3,6.4-7.7,7.5c0.5,0.7,1,1.3,1.5,2c2.9-2.3,5.7-4.7,6.3-8.6c0.1-0.8-1-2.1-1.8-1.5c-2.5,1.8-3.9,5.2-5.5,7.8
			c-0.5,0.9,1.2,2.5,1.9,1.5c1.6-2.2,3.3-4.4,4.5-6.8c0.6-1.2,0.4-2.3-0.8-3c-1.4-0.8-1.2,1.3-0.2,1.9c0.1,0.1,0.2,0.1,0.3,0.2
			c-0.3-0.4-0.6-0.8-0.9-1.2c0.1,1-1.5,2.8-2.1,3.6c-0.9,1.3-1.8,2.6-2.7,3.9c0.6,0.5,1.3,1,1.9,1.5c1.5-2.4,2.9-5.7,5.2-7.4
			c-0.6-0.5-1.2-1-1.8-1.5c-0.5,3.5-3.2,5.7-5.9,7.8c-0.8,0.6,0.6,2.3,1.5,2c4.6-1.5,11.1-6.2,7.8-11.9c-1.5-2.5-3.1-0.9-4.4,0.7
			c-1.9,2.3-3.5,4.7-3.8,7.7C94.8,206.8,96.8,208.2,96.9,206.9L96.9,206.9z"/>
	</g>
</g>
<g id="XMLID_1222_">
	<g id="XMLID_1280_">
		<path id="XMLID_1284_" class="st1" d="M90.5,217.9c1-1,2.2-2.3,3.5-2.9c1.3-0.6,4.3-0.7,5.6,0c0.8,0.5,1.5,1.2,1.6,2.1
			c0.3,1.8-1,1.5-3,2c-2,0.5-2.7,0.8-4.5,0.3c-1.6-0.4-3-1.2-4.3-2.2c-0.7,0.2-1.3,0.5-2,0.7c3.7,0.3,7.6,0.4,11.2-0.7
			c2.1-0.7,3.5-2.3,0.3-2.6c-2.3-0.3-5,0.5-6.8,2c-3,2.7,0.8,2.5,2.9,2.1c1-0.2,6.2-1.6,4.8-3.1c-1.2-1.4-6,0.4-7.2,1
			c-0.7,0.3-2,1-1.6,2c0.4,0.9,2.1,0.7,3,0.7c2.4-0.1,5.7-0.4,7.3-2.4c0-0.1,0-0.1,0-0.2c-2-1.5-5.9-1.5-7.8,0.2
			c-3.3,2.9,3.4,2.8,5,2.3c1.1-0.4,2.8-1,3-2.4c0.3-1.8-1.6-2-3-2c-1.7-0.1-9.2,1-7.7,4.3c1,2.4,5.9,0.6,7.3-0.5
			c1.1-0.9,2.7-2.9,1.1-4.1c-1.2-0.8-3.2-0.4-4.5-0.1c-2.4,0.7-6.6,4.5-2,5.2c1.9,0.3,8.2-0.5,7.6-3.5c-0.5-2.7-7.4-1.3-8.1,0.9
			c-1.4,4,7.6,0.5,8.6-0.1c0.6-0.3-1.5-0.2-1.8-0.1c-1.2,0.4-2.4,0.8-3,2c0,0,0,0.1,0,0.1c1,1.4,6.7,0.2,6.4-1.6
			c-0.4-2.9-7.5,0.4-8.5,1.3c-0.1,0.1-0.2,0.2-0.1,0.3c1.6,1.3,7.9-0.3,5.9-2.4c-1.7-1.8-6.4,0.7-6.7,2.7c0,0,0,0.1,0.1,0.1
			c2,0.9,4-0.7,4.9-2.3c0.3-0.5-1.9,0-2.1,0.1c-0.9,0.4-3.1,1.4-2.4,2.7c0.5,0.9,2.7,0.5,3.5,0.3c0.9-0.3,2.2-1.2,1.2-2
			c-0.8-0.6-2.1,0-2.8,0.4c-1,0.5,1.4,0.3,1.8,0.1c0.2-0.1,0.3-0.2,0.5-0.3c-0.7,0.1-1.4,0.2-2.1,0.2c0.8-0.2,1.6-0.6,2.2-1.3
			c-0.7,0-1.4,0.1-2.1,0.1c-0.3,0.8-0.9,1.4-1.6,1.8c0.6-0.1,1.2-0.1,1.8-0.2c-0.3-1.1,0-1.5,1-1.3c1.2-0.2,1.2,0-0.1,0.5
			c0.8,0.2,1.7,0.4,2.5,0.6c-1.2-0.4-0.8-0.8,1.1-1.3c-0.6,0-1.2-0.1-1.8-0.1c-5.2,0.8-5.5,0.6-0.9-0.7c0.3,1.2-0.5,1.5-2.4,1
			c-2.3,1.2-3,1-2.1-0.7c0.6-1.2,1.5-1.5,2.6-1c4.5,0.7-1.8,3.9-2.3,3.3c0-0.7,0-1.4,0-2.1c3.5-2.2,5.3-2.2,5.4,0
			c-3.2,2.1-4.5,2.4-3.9,0.7c0.2-1.2,1.3-1.5,3.1-0.8c-6.1,1.2-6.5,1.4-1.4,0.5c-1-0.1-1.9-0.3-2.9-0.4c1-1.5,1.5-1.4,1.7,0.3
			c-0.6,0-1.1,0.1-1.7,0.1c-1.6,0-3.2-0.1-4.8-0.2c-0.2,0-2.4,0.4-2,0.7c5.1,3.9,12.3,3.5,17.3-0.5c0.1,0,0.1-0.1,0.1-0.2
			c-4.8-6.5-11.4-3.7-16.4,1C88.1,218.2,90,218.4,90.5,217.9L90.5,217.9z"/>
	</g>
</g>
<g id="XMLID_1229_">
	<g id="XMLID_1287_">
		<path id="XMLID_1291_" class="st1" d="M55.2,222.1c-0.5-2.1-1.9-3.9-3.2-5.6c-1.6-2.2-3.2-4.2-5-6.3c-1.1-1.3-0.6,0.2,0,0.8
			c2.3,2.7,5.7,6,6.6,9.5C53.7,221.1,55.3,222.6,55.2,222.1L55.2,222.1z"/>
	</g>
</g>
<g id="XMLID_1236_">
	<g id="XMLID_1294_">
		<path id="XMLID_1298_" class="st1" d="M48.7,211.3c-1-1.9-2-3.9-2.4-6.1c-0.2-1.2-0.3-2.4-0.1-3.5c0.1-0.9,0.4-1.7,0.8-2.5
			c-0.2,0.3,0,0.5,0.4,0.7c3.5,2.6,3.3,10.5,0.2,13.2c0.7,0.2,1.5,0.5,2.2,0.7c0-2.5-0.1-5-0.4-7.5c-0.2-1.9,0.1-4.8-1.2-6.2
			c-0.4-0.5-1.6-0.8-2.1-0.3c-1.6,1.4-1,5.3-0.8,7.2c0.2,2.2,0.7,5,2.4,6.6c0.5,0.5,1.4,0.5,2,0.2c2.5-1.3,1.1-10.6-0.7-12.1
			c-3.5-3-3.6,3.8-3,5.6c0.3,0.9,2.7,1,2.4,0c-0.1-0.4-0.9-4.7,0-4.8c-0.5-0.1-1-0.2-1.5-0.4c1.4,1.2,2.6,9.6,0.8,10.6
			c0.7,0.1,1.3,0.1,2,0.2c-1.5-1.4-1.8-4.6-1.9-6.5c-0.1-1.1-0.5-4.8,0.4-5.6c-0.7-0.1-1.4-0.2-2.1-0.3c1.1,1.3,0.9,4.7,1,6.3
			c0.2,2.2,0.3,4.4,0.3,6.6c0,0.9,1.7,1.2,2.2,0.7c4.2-3.8,3.6-13.4-1.8-16.1c-1.8-0.9-2.9-0.4-3.7,1.4c-1.6,3.9,0.3,8.3,2,11.8
			C46.7,212.1,49.2,212.2,48.7,211.3L48.7,211.3z"/>
	</g>
</g>
<g id="XMLID_1243_">
	<g id="XMLID_1301_">
		<path id="XMLID_1305_" class="st1" d="M45.2,209.8c1.9,4.8,5.8,8.6,7.1,13.7c0,0.1,2.4-0.6,2.3-0.9c-1.2-5.1-5.2-8.8-7.1-13.7
			C47.4,208.7,45.1,209.6,45.2,209.8L45.2,209.8z"/>
	</g>
</g>
<g id="XMLID_1250_">
	<g id="XMLID_1308_">
		<path id="XMLID_1312_" class="st1" d="M80.6,216.3c-8.6,6.7-18.7,10.6-29.6,11.5c-1.1,0.1,0.6,1.8,1.4,1.8
			c11-0.9,21.2-4.8,30-11.6C83.2,217.3,81.2,215.8,80.6,216.3L80.6,216.3z"/>
	</g>
</g>
<g id="XMLID_1257_">
	<g id="XMLID_1315_">
		<path id="XMLID_1319_" class="st1" d="M46.6,202.5c0.2-2.1,0.7-4.2,1.3-6.2c0.2-0.5-2.1-1.4-2.3-0.9c-0.7,1.6-1.1,3.2-1.2,5
			c0.8,0.3,1.6,0.6,2.3,0.9c0-1.6,0.2-3.3,0.6-4.9c-0.7-0.2-1.5-0.5-2.2-0.7c1.2,1.7,2,3.6,2.6,5.6c0.2,0.6,2.4,1.1,2.3,0.7
			c-0.6-2.1-1.5-4.1-2.7-5.9c-0.2-0.3-2.1-1.2-2.2-0.7c-0.4,1.6-0.6,3.2-0.6,4.9c0,0.7,2.3,1.2,2.3,0.9c0.1-1.7,0.5-3.4,1.2-5
			c-0.8-0.3-1.6-0.6-2.3-0.9c-0.6,2-1.1,4.1-1.3,6.2C44.2,202.2,46.6,202.8,46.6,202.5L46.6,202.5z"/>
	</g>
</g>
<g id="XMLID_1264_">
	<g id="XMLID_1322_">
		<path id="XMLID_1326_" class="st1" d="M41.5,205.9c-2.6,0.4-5.2-2.7-6.5-4.7c-0.6-0.9-1.4-2.2-1.7-3.3c-0.3-0.6-0.4-1.2-0.2-1.9
			c-0.3-1,0-1.3,0.9-1c3.4-0.5,5.8,4.1,6.4,6.7c0.4,1.8,0.6,3.7,0.7,5.6c0.6,0.5,1.2,0.9,1.7,1.4c-1.4-5.2-4.9-11.9-10.7-13.1
			c-0.1,0-0.3-0.1-0.3,0.1c-0.3,2.5,1.4,4.4,2.9,6.2c1.5,1.8,3.5,4.5,5.8,5.1c0.1,0,0.2,0,0.3,0c1.5-1.9-0.6-5.4-1.7-7.2
			c-0.7-1.2-3.7-5.6-5.6-5.1c-2.8,0.7,4,11.6,6.3,11.9c2.3,0.3-0.1-4.6-0.4-5.3c-0.7-1.5-2.7-5.4-4.7-5.7c-2.5-0.3,0.1,3.5,0.5,4.2
			c1.7,2.5,3.7,5.3,6.6,6.4c0.4,0.1,0.4-0.3,0.3-0.5c-1.3-4.6-3.9-8.4-7.5-11.4c-0.1-0.1-0.7-0.5-0.8-0.1c-0.2,3.4,2.9,7.1,5.1,9.5
			c0.1,0.1,0.9,1,1.1,0.7c1.5-2-2.2-8.6-4.6-8.9c0,0-0.1,0-0.1,0c-1.3,2,2,6.1,3.6,7c3.4,2,0.2-4.1-0.4-5c-0.7-1-5.2-6.4-5.6-2.8
			c-0.4,3,3.6,5.9,5.7,7.2c0.1,0.1,0.5,0.3,0.5,0c0.2-2.4-1.3-4.2-3.2-5.6c-1.7-1.2-2.7-1.1-2.3,1.1c0.1,0.6,1.9,2.1,1.7,1.4
			c-0.5-2.3,2.8,0.4,1.9,1c-0.5-0.4-1-0.8-1.4-1.1c-2.1-2.8-1.7-3.3,1.2-1.5c1.5,1.8,1.6,2.2,0.4,1.3c-0.6-0.1-0.9-0.4-0.6-0.8
			c0.1-0.1,2.3,4,1.6,4.8c0.4,0.2,0.8,0.5,1.1,0.7c-1.6-1.8-4.2-4.6-4.1-7.3c-0.3,0-0.5-0.1-0.8-0.1c2.9,2.4,4.7,5.4,5.7,9
			c0.1-0.2,0.2-0.3,0.3-0.5c-1.1-0.4-2.3-1.8-3.1-2.7c-0.3-0.4-2.5-2.4-0.9-2.1c1,0.2,1,0.7,1.4,1.6c0.2,0.4,1.2,3,0.5,3.2
			c-0.3,0.1-3-4-3.1-4.4c-0.6-0.5-0.5-1,0.3-1.4c0.5-0.9,0.9-0.9,1.3,0c0.7,0.5,1.6,2.3,1.8,3.1c0.2,0.6,0.5,2.8-0.2,3.1
			c-0.2,0.1-1.5-1.3-1.7-1.6c-1-1.1-3-2.9-2.9-4.5c-0.3-1.2,0.1-1.3,1.2-0.4c0.4,0.3,0.7,0.5,1.1,0.8c0.8,0.7,1.6,1.6,2.2,2.4
			c1.2,1.8,2.1,3.8,2.6,5.9c0.1,0.4,1.8,2.3,1.7,1.4c-0.2-4.2-0.8-8.4-3.6-11.7c-1-1.2-2.3-2.3-3.7-3.1c-0.9-0.5-3.3-1.5-4.3-0.8
			c-1.9,1.4,2.1,7.5,3.1,8.9c1.7,2.4,5.1,6.5,8.5,6C43.5,207.8,42.2,205.8,41.5,205.9L41.5,205.9z"/>
	</g>
</g>
<g id="XMLID_1271_">
	<g id="XMLID_1329_">
		<path id="XMLID_1333_" class="st1" d="M31.8,201.9c-2.4-3.2-5.9-4.3-9.8-4.8c-1.9-0.2-6.1-1.1-7.8-0.2c-1.1,0.5-1,0.8-0.8,2
			c1.5,7.7,13.2,10.6,18.7,5.8c0.5-0.5-0.7-2-1.1-2.2c-1.8-0.9-11.5-6.1-13-3.5c-0.8,1.3,1.2,3.7,2.1,4.5c1.5,1.4,7.7,4.8,8.3,1.3
			c0.3-1.9-1.6-4-3.1-4.9c-1.5-0.9-7.4-3-8.1-0.1c-0.5,2.1,2.9,3.3,4.1,3.7c1.8,0.6,8.6,2.8,7.6-1c-0.5-2-2.3-3-4.3-2.5
			c0,0,0,0.1-0.1,0.1c-0.2,1.1,0.3,2.1,1,2.9c0.6,0.7,3.8,2.9,4.8,1.9c2.3-2.4-5-5.4-6.2-5.6c-0.6-0.1,0.6,1.8,0.7,2
			c1,1,4.6,3.6,5.3,1.2c0.5-1.6-1.5-2.9-2.7-3.3c-5.8-1.8-2.1,6.1,2,5.6c0,0,0-0.1,0.1-0.1c0.7-2.9-4.1-5.7-6.5-5.2
			c-2.9,0.6-0.6,4.5,1.3,5c0.1,0,0.1,0,0.2-0.1c1.5-2.2-2.9-4.5-4.4-4.6c-0.1,0-0.2,0.1-0.2,0.2c0.3,2,1.2,3.7,3.2,4.4
			c0.2,0.1,0.2-0.2,0.2-0.2c0-1.3-0.4-2.3-1.3-3.3c-0.7-0.8-2.9-2.3-3.9-1.2c-1.6,1.8,2.6,4.8,3.7,5.2c0.2,0.1,0.2-0.2,0.2-0.2
			c0.1-1.3-0.2-2.4-1-3.5c-0.8-1.2-3.4-3.2-4.9-2.7c-3,1.1,1.4,5.6,2.6,6.2c0.2,0.1,0.3,0.1,0.3-0.2c0.1-2-1.3-5.4-3.7-5.5
			c-0.1,0-0.1,0-0.2,0.1c-1.1,3,4.4,5.6,6.4,6.3c0.5,0.2-0.6-1.8-0.7-2c-1.8-1.8-3.7-3.3-6-4.6c-0.7-0.4,0.3,1.7,0.6,1.9
			c1.4,1.3,3.4,3.3,5.3,3.7c2.4,0.5,3-2.5,5.5-2.4c-0.4-0.7-0.7-1.5-1.1-2.2c-0.7,0.6-1.4,0.8-2.2,1.4c-0.5,0.4,0.7,1.9,1,2.1
			c0,0,0.1,0.1,0.1,0.1c0.1,0.1,0.2,0.1,0.2,0.1c0,0,0-0.1,0.1-0.1c0.4-0.6-1.1-2.4-1.2-2.2c0,0,0,0,0,0.1c0.3,0.7,0.7,1.4,1,2.1
			c0.7-0.5,1.4-0.7,2.2-1.4c0.4-0.4-0.6-2.2-1.1-2.2c-1.7-0.1-1.9,1.1-3.4,1.8c-2.5,1.2-5-1-6.8-2.7c0.2,0.6,0.4,1.3,0.6,1.9
			c2.1,1.2,3.9,2.6,5.6,4.4c-0.2-0.7-0.5-1.3-0.7-2c-0.5-0.2-4.3-1.6-4.1-2.2c0.3-1,4.1,0.6,4.4,0.6c2.5,0.6,6.3-0.6,8.1,2.1
			c-0.2-0.5-0.4-1-0.5-1.5c0,0.1-4,0-1.5-0.9c0.8-0.3,2.4,0.4,2.9,0.8c-0.4-0.6-0.7-1.3-1.1-1.9c0.3,2.7-4.1-0.5-4.3-0.6
			c0.2,0.7,0.5,1.3,0.7,2c0.6,0.1,1.3,0.2,1.9,0.4c1.7,0.5,2.1,0.7,1.3,0.8c-0.2,0.1-0.5,0-0.7-0.1c-0.2,0-0.5-0.2-0.8-0.3
			c-0.9-0.1-2,0.1-3-0.1c-1.2-0.2-4.1-0.6-4.8-1c0.1,0.1,3.6-0.5,4.9-0.1c0.5,0.2,2.3,0.7,2.5,1.2c-0.3,0.6-0.7,1.3-1,1.9
			c-0.4-0.1-0.8-0.2-1.2-0.3c-1.5-0.1-5.9-2.4-3-3.1c1.3-0.3,4,1,5.2,1.5c1.9,0.7,3.7,1.6,5.5,2.5c-0.4-0.7-0.7-1.5-1.1-2.2
			c-2.1,1.8-4.5,2.4-7.3,2.3c-1.1,0-2.2-0.2-3.2-0.5c-1-0.3-1.9-0.6-2.8-1.2c-1.6-0.4-2-1.3-1.3-2.6c-0.2-1.4,0.3-1.9,1.6-1.5
			c0.9,0,1.7,0,2.6,0.1c1.2,0.1,2.4,0.2,3.5,0.3c3,0.5,6,1.3,7.9,3.9C32.8,204.6,32.2,202.4,31.8,201.9L31.8,201.9z"/>
	</g>
</g>
<g id="XMLID_1278_">
	<g id="XMLID_1336_">
		<path id="XMLID_1340_" class="st1" d="M40.2,209c-5.7-2.1-15.3-1.3-19,4.3c-0.1,0.1-0.1,0.2,0,0.3c0.9,1.8,6.1,0.8,7.7,0.5
			c3.6-0.8,6.8-2.6,9.6-4.9c0.6-0.5,0.4-1-0.4-0.9c-5.1,0.6-10.3,1.4-14.1,5c-0.2,0.2-0.3,0.6,0.1,0.7c1.4,0.3,2.4,0,3.7-0.7
			c2.7-1.3,5.2-2.9,7.9-4.3c0.7-0.4,0.9-1.3-0.1-1.1c-1.6,0.3-11.9,1.7-11.3,4.8c0.3,1.4,2.2,0.8,3.1,0.6c3.8-1,7.1-2.7,11-3.4
			c0.1-0.4,0.1-0.8,0.2-1.2c-4.1,1.9-8.4,3.1-12.9,3.6c-0.8,0.1-2.4,1.6-0.8,1.4c4.9-0.6,9.6-1.9,14.1-4c0.6-0.3,1.5-1.4,0.2-1.2
			c-2.6,0.4-5.2,1.1-7.6,2c-0.7,0.3-5.5,1.9-2.5,0.3c1.6-0.8,4.1-1.1,5.8-1.5c0-0.4-0.1-0.7-0.1-1.1c-1.5,0.8-2.9,1.6-4.4,2.4
			c-0.3,0.2-3.3,1.4-1.8,0.9c2.9-1.1,5.8-1.6,8.9-1.9c-0.1-0.3-0.3-0.6-0.4-0.9c-2,1.6-4.2,3-6.7,3.8c-1.5,0.4-3.1,0.6-4.7,0.5
			c-1.6-0.1-2.3,0-0.8-1.2c4-3,9.2-3.2,13.8-1.6C39.1,210.6,41.2,209.3,40.2,209L40.2,209z"/>
	</g>
</g>
<g id="XMLID_1285_">
	<g id="XMLID_1343_">
		<path id="XMLID_1347_" class="st1" d="M47.5,215.2c-0.9-2.4-4.6-2.8-6.8-2.8c-1.9,0-9.8,0.7-9.7,3.2c0.1,2.6,5.5,3.6,7.3,3.6
			c3.2,0.1,9.3-1.3,10.8-4.4c0.2-0.3-1.8-0.7-2-0.7c-2.4,0-11.3-0.2-12,3.1c0,0.1,0.1,0.1,0.1,0.2c1.5,1.1,3.5,1.4,5.4,1.3
			c1.7-0.1,7.4-2,5.7-4.6c-0.8-1.2-3.4-1.3-4.7-1.2c-2.8,0.1-6.8,1.1-8.6,3.4c0,0,0,0.1,0,0.1c1.3,2.8,10.3,1.1,10.5-1.5
			c0-0.1-0.2-0.2-0.3-0.3c-2-1-4.4-1.2-6.6-0.8c-1.3,0.3-5.6,1.5-3.4,3.3c1.2,1,3.8,1,5.2,0.9c1.7-0.1,7.1-1.6,6.7-3.8
			c-0.1-0.3-0.9-0.5-1.1-0.6c-1.7-0.5-9.9,0.5-7.7,2.9c2.2,2.4,8,0.4,9.1-2.1c0.2-0.4-1.8-0.7-2-0.7c-3-0.2-5.7,0.6-8,2.6
			c-0.2,0.2,1.8,1.1,2.3,0.8c2.1-1.8,4.5-2.7,7.4-2.5c-0.7-0.2-1.3-0.5-2-0.7c-1,2.5-3.7,2.9-6.2,2.7c0.6,0.2,1.3,0.4,1.9,0.6
			c-1.9-1.5,4.5-3,5.2-2.8c-0.4-0.2-0.8-0.4-1.1-0.6c0.2,1.3-2,2.3-3,2.8c-1,0.5-6.6,1.3-3.8-0.7c0.7-0.5,2-0.9,2.8-1
			c0.6-0.4,1-0.3,1.4,0.2c0.7,0.4,0.6,0.7-0.5,0.9c-0.5,0.4-2.9,1.3-3.1,0.6c-0.1-0.6,0.7-0.9,1.4-1.2c0.9-0.5,5.7-2.4,6.3-1.5
			c0.7,1.1-2.1,3-2.8,3.4c-0.6,0.3-3.5,0.9-3.8,0.1c-0.3-0.6,2.8-1.3,3.1-1.3c2.6-0.6,5.3-0.9,8-0.9c-0.7-0.2-1.3-0.5-2-0.7
			c-1.6,3.1-10.9,6.1-13,2.7c-1.1-1.9,1.4-2.1,2.8-2.6c2-0.6,7.6-2.3,8.6,0.4C45.4,215.3,47.6,215.5,47.5,215.2L47.5,215.2z"/>
	</g>
</g>
<g id="XMLID_1292_">
	<g id="XMLID_1350_">
		<path id="XMLID_1354_" class="st1" d="M42,250.4c-3.5-2.7-6.6-5.9-9.1-9.6c-0.2-0.4-2.3,1-2.1,1.4c2.5,3.7,5.6,6.9,9.1,9.6
			C40.4,252.2,42.1,250.5,42,250.4L42,250.4z"/>
	</g>
</g>
<g id="XMLID_1320_">
	<g id="XMLID_1378_">
		<path id="XMLID_1382_" class="st1" d="M29.7,236.4c-1.6-5.3-0.7-10.5,1.1-15.6c-0.8,0.1-1.6,0.3-2.4,0.4
			c2.4,5.3,2.2,11.1-0.7,16.1c-0.7,1.2,1.8,1.3,2.3,0.4c3.1-5.5,3.4-11.7,0.7-17.4c-0.4-0.9-2.1-0.3-2.4,0.4
			c-1.8,5.2-2.8,10.6-1.1,16C27.5,237.9,30,237.4,29.7,236.4L29.7,236.4z"/>
	</g>
</g>
<g id="XMLID_1327_">
	<g id="XMLID_1385_">
		<path id="XMLID_1389_" class="st1" d="M28.8,223.4c-0.3,3.9-0.5,7.9-0.8,11.8c-0.1,1.1,1.9,2.4,2,0.9c0.3-3.9,0.5-7.9,0.8-11.8
			C30.9,223.1,28.9,221.9,28.8,223.4L28.8,223.4z"/>
	</g>
</g>
<g id="XMLID_1334_">
	<g id="XMLID_1392_">
		<path id="XMLID_1396_" class="st1" d="M26.7,233.1c-5-3.3-11-7.5-14-12.8c-0.1-0.1-0.7-1.3-0.8-1.3c0,0,1.2,0.4,1.7,0.6
			c1.4,0.7,2.5,1.8,3.4,3.1c1.8,2.6,2.4,5.9,3,8.9c0.8-0.3,1.5-0.6,2.3-1c-2-4.6-5.2-8.3-9.6-10.8c-0.5-0.3-2.7,0.6-2.1,1.1
			c1.3,1.2,2.6,2.4,3.9,3.7c0.4,0.4,2.5-0.5,2.2-1c-0.8-1.5-1.7-2.8-2.8-4.2c-0.5-0.6-2.6,0.6-2.3,1c1,1.3,1.9,2.7,2.8,4.2
			c0.7-0.3,1.5-0.7,2.2-1c-1.3-1.2-2.6-2.4-3.9-3.7c-0.7,0.4-1.4,0.8-2.1,1.1c4.3,2.4,7.5,6,9.5,10.6c0.3,0.6,2.4-0.3,2.3-1
			c-0.8-4.2-1.8-8.9-5.5-11.5c-1.6-1.2-4.7-2.4-6.5-0.8c-3.8,3.3,12,14.4,14.3,15.9C25.1,234.7,27.2,233.5,26.7,233.1L26.7,233.1z"
			/>
	</g>
</g>
<g id="XMLID_1341_">
	<g id="XMLID_1399_">
		<path id="XMLID_1403_" class="st1" d="M25.5,238.6c-3.1-4.7-8.7-7.4-14.3-6.9c-1.7,0.1-3.9,0.4-4,2.5c-0.2,2.4,2.1,4.7,4.1,5.7
			c1.7,0.9,12.5,2.6,12.1-1.2c-0.2-1.8-4.9-3-6.3-3.5c-1.9-0.8-5.1-2.6-7.1-1.5c-0.3,0.1-0.7,0.5-0.6,0.8c0.4,3.5,7.4,4.9,10.2,4.9
			c2.4,0,4.9-2,2.3-4.1c-1.8-1.4-8.2-3.1-9.9-0.7c-2.2,3.2,5.9,4,7.4,4.2c0.5,0.1,1.6-0.4,1.6-1.1c-0.4-3.7-9.9-7.8-10.9-2.6
			c-0.4,2.4,2,4.6,4.1,5c2.3,0.3,2.7-0.9,3-2.9c0.2-1.2-2.2-0.7-2.4,0.4c-0.1,0.5-0.2,1.1-0.3,1.6c0.4-0.3,0.8-0.6,1.2-0.8
			c-2,0.4-4.3-3.7-1.7-3.7c1.3,0,4.4,2,4.5,3.3c0.5-0.4,1-0.7,1.6-1.1c-1.4-0.2-2.8-0.4-4.1-0.9c-3.5-1.1,0.7-0.7,1.6-0.5
			c1.1,0,1.8,0.4,2.3,1.3c0.8,0.7,0.6,0.9-0.6,0.5c-1,0.1-2.8-0.5-3.8-0.9c0.4,0.2-3.9-1.9-3.8-1.2c0,0.1,3,1,3.2,1.1
			c1.3,0.5,2.6,1,3.9,1.6c0.5,0.2,1,0.5,1.5,0.7c0.6,0.3,0.7,0.3,0.1,0.1c-0.4,0.6-3.6,0.3-4.3,0.2c-1.7-0.2-3.3-0.8-4.6-1.9
			c-0.7-0.7-2.2-2.4-1.7-3.4c0.3-0.7,2.4-0.4,3-0.4c4.4,0.2,8.3,2.7,10.8,6.4C24,240.7,26.2,239.6,25.5,238.6L25.5,238.6z"/>
	</g>
</g>
<g id="XMLID_1348_">
	<g id="XMLID_1406_">
		<path id="XMLID_1410_" class="st1" d="M17.7,222.8c-1.3-1.8-3-3.2-5.1-4.2c-0.5,0.5-1,1.1-1.4,1.6c1.7,0.8,3.2,1.8,4.5,3.2
			c0.2-0.4,0.4-0.8,0.6-1.3c-0.1,0-0.1,0.1-0.2,0.1c0.3,0,0.6-0.1,1-0.1c0,0,0.1,0,0.1,0.1c-0.9-0.7-3,0.5-1.9,1.4
			c0.6,0.5,1.3,0.4,2,0.1c0.4-0.2,1-0.8,0.6-1.3c-1.5-1.6-3.3-2.8-5.3-3.8c-1-0.5-2.8,1-1.4,1.6c1.7,0.8,3.1,2.1,4.2,3.6
			C16.1,224.7,18.4,223.8,17.7,222.8L17.7,222.8z"/>
	</g>
</g>
<g id="XMLID_1355_">
	<g id="XMLID_1413_">
		<path id="XMLID_1417_" class="st1" d="M16.7,222.8c-1.7-0.5-3.4-1.4-4.1-3c-0.7-1.6-0.2-3.3-0.8-4.9c-0.8,0.1-1.5,0.3-2.3,0.4
			c4.4,1.8,8.8,6,8.6,11.1c0.8-0.1,1.6-0.2,2.4-0.3c-2.4-3.1-4.8-6.2-7.2-9.2c-0.4-0.5-2.7,0-2.4,0.4c2.4,3.1,4.8,6.2,7.2,9.2
			c0.3,0.4,2.4,0.3,2.4-0.3c0.2-5.3-4.4-9.6-9-11.5c-0.3-0.1-2.5-0.1-2.3,0.4c0.7,1.9,0,4.1,1.3,5.9c1,1.4,2.7,2.1,4.3,2.6
			C15.5,223.7,17.8,223.2,16.7,222.8L16.7,222.8z"/>
	</g>
</g>
<g id="XMLID_1362_">
	<g id="XMLID_1420_">
		<path id="XMLID_1424_" class="st1" d="M31.8,242.2c-2.9-4.9-6.5-9.1-10.9-12.6c-0.5-0.4-2.6,0.5-2.3,0.7c4.4,3.5,8,7.6,10.8,12.4
			C29.7,243.3,32,242.4,31.8,242.2L31.8,242.2z"/>
	</g>
</g>
<g id="XMLID_1369_">
	<g id="XMLID_1427_">
		<path id="XMLID_1431_" class="st1" d="M31.6,243.7c-2.1-2.1-5-1.2-7.5-0.3c-3.5,1.3-7,3-9.1,6.2c0,0.1,2,0.1,2.4-0.5
			c1.9-2.8,8.7-7.9,11.8-4.8C29.6,244.8,31.5,243.7,31.6,243.7L31.6,243.7z"/>
	</g>
</g>
<g id="XMLID_1376_">
	<g id="XMLID_1434_">
		<path id="XMLID_1438_" class="st1" d="M29,243.1c1.9,6.6-8.2,6.9-11.9,5.2c0,0.6,0,1.1,0,1.7c3.4-1.3,7.7-1.4,10.7-3.5
			c1.2-0.9,2.7-2.8,1.1-4c-1.9-1.5-6.2,0.7-8,1.6c-1.3,0.7-5.1,2.4-4.5,4.4c0.8,2.2,5.5,1,7.1,0.6c1.9-0.5,6.1-1.7,6.6-4
			c0.4-2.3-2.5-2.2-3.9-1.8c-2.9,0.7-5.6,1.9-7.3,4.5c-0.4,0.5-0.1,1.1,0.5,1.4c3.4,1.8,8.3-1.2,9.9-4.3c0.4-0.7-0.7-1.3-1.2-1.3
			c-3.6,0-6.6,1.9-8,5.3c-0.5,1.3,1.9,1.7,2.4,0.5c1-2.3,3-3.8,5.6-3.8c-0.4-0.4-0.8-0.8-1.2-1.3c-0.8,1.6-4.2,4.1-6.2,3.1
			c0.2,0.5,0.3,0.9,0.5,1.4c0.9-1.3,2-2.2,3.5-2.8c1.1-0.5,3.9-1.2,1.4,0.2c-1.4,0.8-3.8,1.5-5.4,1.4c-0.3,0-0.9,0.2-0.9,0
			c0-0.4,2-1.3,2.3-1.5c1.3-0.7,2.7-1.2,4.1-1.6c0,0,1.3-0.5,1.2-0.5c0.2,0.1-2.5,1.8-2.8,1.9c-2.8,0.9-5.7,1.5-8.4,2.5
			c-0.8,0.3-0.7,1.4,0,1.7c5.3,2.4,18.1,1.2,15.6-7.5C31.1,241.3,28.6,241.8,29,243.1L29,243.1z"/>
	</g>
</g>
<g id="XMLID_1383_">
	<g id="XMLID_1441_">
		<path id="XMLID_1445_" class="st1" d="M8.8,219.5c-2-5.8-4.5-11.5-10.6-13.9c-0.9-0.3-2.4-0.2-0.8,0.4c5.3,2,7.4,7.9,9.1,12.9
			C6.6,219.4,8.9,219.7,8.8,219.5L8.8,219.5z"/>
	</g>
</g>
<g id="XMLID_1390_">
	<g id="XMLID_1448_">
		<path id="XMLID_1452_" class="st1" d="M7.1,218.4c-2.6,0.1-4.9-0.7-6.9-2.4c-0.9-0.7-3,0.5-1.9,1.4c2.4,2,5.4,3,8.5,2.8
			C8.3,220.2,8.8,218.3,7.1,218.4L7.1,218.4z"/>
	</g>
</g>
<g id="XMLID_1397_">
	<g id="XMLID_1455_">
		<path id="XMLID_1459_" class="st1" d="M-0.4,208.6c0.5,3.5,1.1,7,1.8,10.4c0.1,0.4,2.1-0.6,2.2-1.1c0.4-2.7,0.1-5.2-0.7-7.8
			c-0.7,0.4-1.5,0.8-2.2,1.2c1.2,1.4,2.2,3,2.8,4.8c0.4,1,0.4,3.3,1.3,3.8c0.4,0.2,2.1-0.7,2.1-1.1c-0.1-2.2-2.7-4.3-4.7-5
			c-0.4-0.1-2.4,0.9-2.1,1.2c1,1.1,1.9,2.3,2.9,3.4c0.4,0.5,2.4-0.9,2.2-1.2c-1-1.1-1.9-2.3-2.9-3.4c-0.7,0.4-1.4,0.8-2.1,1.2
			c1.8,0.6,4.5,2.6,4.5,4.7c0.7-0.4,1.4-0.8,2.1-1.1c-0.6-0.3-1.1-3.7-1.4-4.3c-0.6-1.5-1.5-2.8-2.5-4.1c-0.3-0.4-2.4,0.7-2.2,1.2
			c0.8,2.5,1,5,0.7,7.6c0.7-0.4,1.5-0.7,2.2-1.1c-0.7-3.4-1.4-6.9-1.8-10.4C1.8,207.1-0.5,207.9-0.4,208.6L-0.4,208.6z"/>
	</g>
</g>
<g id="XMLID_1404_">
	<g id="XMLID_1462_">
		<path id="XMLID_1466_" class="st1" d="M11.7,226.2c-4.1-3.9-10.9-5-15.4-1c-1,0.9,0.9,2.5,1.7,1.7c3.5-3.2,8.7-2.8,12.1,0.3
			C11.2,228.2,12.9,227.3,11.7,226.2L11.7,226.2z"/>
	</g>
</g>
<g id="XMLID_1411_">
	<g id="XMLID_1469_">
		<path id="XMLID_1473_" class="st1" d="M9.3,225.6c-3,2.4-7.2,5.8-11.2,3.6c-1.4-0.8,0,1,0.5,1.3c4.7,2.6,8.8-0.3,12.5-3.3
			C11.5,227,9.8,225.2,9.3,225.6L9.3,225.6z"/>
	</g>
</g>
<g id="XMLID_1418_">
	<g id="XMLID_1476_">
		<path id="XMLID_1480_" class="st1" d="M7.7,228.1c0.9-0.5,1.4-1,1.8-1.9c0.3-0.7-1-0.9-1.3-0.8c-2.1,0.3-4.1,0.7-6,1.5
			c-1.2,0.5-3.3,1-3.4,2.5c0,0.4,0.7,0.6,1,0.6c2.7,0.4,7-0.9,8.4-3.5c1.5-2.8-2.7-3.3-4.5-2.9c-1.4,0.3-2.6,1-3.7,2
			c-0.7,0.7-2,2.3-1.2,3.3c1.6,2.1,6.4-0.7,7.8-1.7c0.5-0.3,0.3-0.8-0.1-1c-2-1.2-4.5-1-6.4,0.2c-0.6,0.4-0.2,1,0.4,1.1
			c2,0.6,3.9-0.1,5.6-1.1c1.1-0.6,0.2-1.4-0.8-1.3c-2.3,0.3-4.5,0.8-6.6,1.8c0.5,0.3,1.1,0.7,1.6,1c1.7-1.1,3.2-1.2,5-1.7
			c0.7-0.2,1.5-0.7,1-1.4c-0.5-0.8-2.9-0.3-2.4,0.6c0,0,0,0,0,0c0.3-0.2,0.5-0.4,0.8-0.6c-1.1,0.3-2.3,0.3-3.4,0.7
			c-1.1,0.4-2,0.9-2.9,1.5c-1.2,0.8,1,1.3,1.6,1c1.7-0.7,3.5-1.2,5.3-1.4c-0.3-0.4-0.5-0.9-0.8-1.3c-1,0.5-1.9,1.2-3.1,0.8
			c0.1,0.4,0.2,0.8,0.4,1.1c1-0.7,1.9-0.5,2.9,0.1c0-0.3-0.1-0.7-0.1-1c-0.3,0.2-3.1,2.1-3.5,1.7c-0.9-0.8,2.2-2.7,2.7-2.8
			c0.6-0.2,1.5-0.5,1.9,0.2c0.4,0.8-0.9,1.8-1.4,2.1c-1.3,0.8-2.6,1.3-4.2,1.1c0.3,0.2,0.7,0.4,1,0.6c0.1-0.6,3.1-1.4,3.5-1.6
			c1.2-0.4,2.4-0.6,3.6-0.8c-0.4-0.3-0.9-0.5-1.3-0.8c-0.2,0.3-0.5,0.6-0.7,0.9C4.9,227.7,6.7,228.6,7.7,228.1L7.7,228.1z"/>
	</g>
</g>
<g id="XMLID_1425_">
	<g id="XMLID_1483_">
		<path id="XMLID_1487_" class="st1" d="M57.5,243.7c-0.1-1.9-0.5-4.6,0.8-6.1c1.2-1.4,4.3-3.1,6.1-3.3c-0.5-0.3-1-0.5-1.5-0.8
			c0.3,0.5,0.1,1.8-0.1,2.3c-0.2,1-0.8,1.9-1.5,2.6c-1.5,1.6-3.5,2.3-5.5,2.7c-1.1,0.2,0.6,1.9,1.4,1.8c2.5-0.5,5.2-1.5,6.8-3.7
			c1.1-1.6,1.8-4.2,0.6-5.9c-0.3-0.4-1-0.9-1.5-0.8c-2.1,0.2-4.9,1.9-6.4,3.2c-1.9,1.7-1.4,4.5-1.3,6.8
			C55.3,243.5,57.5,244.6,57.5,243.7L57.5,243.7z"/>
	</g>
</g>
<g id="XMLID_1432_">
	<g id="XMLID_1490_">
		<path id="XMLID_1494_" class="st1" d="M63,234.3c-3.2,2-6.9,4.6-7.1,8.8c0,0.6,2.3-0.1,2.3-0.7c0.2-3.8,3.2-6,6.2-7.9
			c0.4-0.2,0.6-0.5,0.2-0.7C64.2,233.5,63.3,234.1,63,234.3L63,234.3z"/>
	</g>
</g>
<g id="XMLID_1439_">
	<g id="XMLID_1497_">
		<path id="XMLID_1501_" class="st1" d="M62.4,234.8c-0.7,3.1-3.2,5-5.9,6.5c-1.4,0.8,0.5,1.6,1.4,1.1c3.1-1.7,6.1-3.9,6.9-7.5
			C65.1,233.8,62.6,233.9,62.4,234.8L62.4,234.8z"/>
	</g>
</g>
<g id="XMLID_1446_">
	<g id="XMLID_1504_">
		<path id="XMLID_1508_" class="st1" d="M60.2,235.3c-0.5,1-1,2-1.6,3c-0.5,1-0.9,2.2-1.6,3.1c0.4-0.3,0.8-0.6,1.1-0.8
			c-0.1,0-0.1,0.1-0.2,0.1c0.3-0.1,0.6-0.2,0.9-0.2c0,0-0.1-0.1-0.1-0.1c-0.5-0.3-2.4,1.1-2,1.4c0.8,0.5,2.3-1,2.7-1.6
			c1.1-1.9,2-3.9,3-5.9c0.2-0.3-0.9,0.1-1,0.1C61,234.5,60.5,234.8,60.2,235.3L60.2,235.3z"/>
	</g>
</g>
<g id="XMLID_1453_">
	<g id="XMLID_1511_">
		<path id="XMLID_1515_" class="st1" d="M58,235.2c-1.3,1.2-2,2.8-2.2,4.6c-0.1,0.6,1.3,1.3,1.7,1.5c0.9,0.3,1.7-0.9,2.2-1.4
			c0.9-0.9,1.7-1.8,2.6-2.8c0.3-0.3-1.6-1.9-2-1.6c-1.3,1.3-2.6,2.7-3.9,4c-0.3,0.3,1.6,1.9,2,1.6c1.3-1.3,2.6-2.7,3.9-4
			c-0.7-0.5-1.3-1-2-1.6c-0.7,0.8-1.4,1.5-2.1,2.3c-0.3,0.3-0.6,0.6-1,1c-0.2,0.2-0.8,1-1.2,0.9c0.6,0.5,1.2,1,1.7,1.5
			c0.2-1.7,0.9-3.2,2.1-4.4C60.3,236.5,58.4,234.8,58,235.2L58,235.2z"/>
	</g>
</g>
<g id="XMLID_1460_">
	<g id="XMLID_1518_">
		<path id="XMLID_1522_" class="st1" d="M65.2,244.2c-9,1.4-17.5,4.2-25.6,8.4c-1.2,0.6,0.2,2.7,1.3,2.1c7.9-4.2,16.3-6.9,25.1-8.3
			C67.5,246.2,66.4,244,65.2,244.2L65.2,244.2z"/>
	</g>
</g>
<g id="XMLID_1481_">
	<g id="XMLID_1539_">
		<path id="XMLID_1543_" class="st1" d="M54.8,242.9c-0.7,1.6-1.5,3.2-2.3,4.7c-0.5,0.9,1.9,1.8,2.3,0.9c0.8-1.6,1.5-3.1,2.3-4.7
			C57.6,242.8,55.3,241.9,54.8,242.9L54.8,242.9z"/>
	</g>
</g>
<g id="XMLID_1488_">
	<g id="XMLID_1546_">
		<path id="XMLID_1550_" class="st1" d="M57.9,249.2c2.4-1.3,5.2-1.7,7.6-0.2c1.1,0.7,2.4,1.6,1.9,2.9c-0.6,1.4-2.4,0.9-3.7,0.5
			c-1.1-0.3-2-0.9-3-1.5c-0.9-0.6-3.8-2.1-0.2-1.1c2,0.6,4.1,1.5,5.5,3c0-0.4,0-0.8,0-1.1c-1.4,0.6-4.8-3.2-5.7-4.1
			c-0.3,0.4-0.6,0.8-0.8,1.1c1.1,0.3,2.1,0.6,3.1,1c0.5,0.2,1.8,0.5,2.1,0.9c0.5,0.1,0.6,0.3,0,0.5c-0.3,0.4-0.7,0.4-1.1-0.2
			c-0.9-0.4-1.9-1.6-2.6-2.3c-0.1,0.3-0.3,0.6-0.4,1c1.1-0.1,2.2,0.1,3.3,0.6c1.1,0.5,1,0.9-0.1,0.4c-1.5-0.6-3.1-2.5-4.2-3.6
			c-0.3,0.4-0.6,0.8-0.8,1.1c2.3,0.8,4.6,1.7,6.9,2.6c1.4,0.6,2-0.8,0.6-1.4c-2.5-1.1-5-2-7.5-2.9c-0.9-0.3-1.6,0.4-0.8,1.1
			c0.9,0.9,8.9,8.5,10.1,4.8c0.4-1.3-1.8-2.6-2.6-3.1c-1.8-1.1-3.9-1.5-6-1.4c-0.5,0-0.8,0.6-0.4,1c1.2,1.4,6.7,7,8.7,4
			c2.1-3.1-6.8-5.3-8.3-5.7c-0.8-0.2-1.6,0.4-0.8,1.1c2,1.9,6,6.4,9.1,5c0.5-0.2,0.3-0.8,0-1.1c-1.7-1.8-3.9-2.8-6.2-3.6
			c-1.5-0.5-3.9-1.4-5.3-0.1c-0.2,0.2-0.2,0.4-0.1,0.6c0.3,1.1,1.9,1.8,2.7,2.4c1.3,0.9,2.6,1.7,4.1,2.2c1.5,0.5,6.9,1.8,7.7-0.5
			c0.7-2.1-3.4-5.1-4.8-5.8c-3.1-1.5-6.6-1.4-9.6,0.2C55.2,248.3,57.1,249.7,57.9,249.2L57.9,249.2z"/>
	</g>
</g>
<g id="XMLID_1495_">
	<g id="XMLID_1553_">
		<path id="XMLID_1557_" class="st1" d="M69,242.1c-1.1-1.9,0.7-3.6,2.1-4.9c0.6-0.6,3.4-3.2,4.2-2.5c0.7,0.6,0.1,2.6-0.2,3.2
			c-0.3,0.6-0.7,1.2-1.1,1.6c-1.4,1.5-3.4,2.2-5.4,2.5c0.3,0.7,0.6,1.4,0.9,2.1c2.1-1.2,3.9-2.8,5.2-4.8c0.8-1.2,2.7-3.8,1.3-5.1
			c-3.2-3.1-7.4,6.8-8.1,8.6c-0.4,1.1,1.4,2.4,2.1,1.3c1.9-2.7,3.5-5.5,5-8.4c0.5-1-1-2.1-1.9-1.5c-3,2.2-5.3,5-6.9,8.3
			c-0.6,1.3,1.7,2.3,2.3,1c1.4-3,3.4-5.5,6.1-7.5c-0.6-0.5-1.3-1-1.9-1.5c-1.4,2.7-3,5.3-4.7,7.9c0.7,0.4,1.4,0.8,2.1,1.3
			c0.5-1.5,1.1-2.9,1.9-4.2c0.4-0.7,0.8-1.3,1.3-1.9c0.3-0.4,1.7-1.3,1.1-1.8c-0.2-0.4-0.3-0.7-0.5-1.1c-0.4,3.1-3.6,6-6.1,7.4
			c-1.1,0.6-0.1,2.2,0.9,2.1c3-0.5,6-1.6,7.8-4.2c1.4-2,2.1-5.7-0.1-7.5c-2.1-1.8-5.5,1.3-7,2.6c-2.1,1.9-4.5,4.6-2.8,7.5
			C67.4,244,69.8,243.5,69,242.1L69,242.1z"/>
	</g>
</g>
<g id="XMLID_1502_">
	<g id="XMLID_1560_">
		<path id="XMLID_1564_" class="st1" d="M69.8,247.4c3.5-1.5,7.3-1.2,10.5,0.9c-0.2-0.6-0.3-1.3-0.5-1.9c-3.7,2-8.1,1.7-11.5-0.9
			c0,0.7,0,1.3,0.1,2c3,0.3,5.9,0.9,8.7,1.6c1.2,0.3,0.4-2-0.5-2.2c-2.9-0.7-5.8-1.2-8.7-1.6c-1.3-0.1-0.4,1.6,0.1,2
			c3.9,3,9,3.5,13.3,1.2c0.7-0.4-0.1-1.7-0.5-1.9c-3.8-2.5-8.2-2.9-12.3-1.1C67.5,245.7,68.8,247.8,69.8,247.4L69.8,247.4z"/>
	</g>
</g>
<g id="XMLID_1509_">
	<g id="XMLID_1567_">
		<path id="XMLID_1571_" class="st1" d="M78,243.3c5.7-5.4,13.5-7.1,21-4.9c-0.2-0.4-0.4-0.9-0.6-1.3c-3.4,6.4-12.9,6.8-18.7,4.2
			c-0.3,0.7-0.7,1.3-1,2c6.7-0.3,12.6-2.2,18.3-5.7c1.1-0.7,0.3-1.9-0.8-1.8c-6.7,0.7-13,1.7-18,6.5c-0.5,0.4-0.3,1.1,0.2,1.4
			c2.1,1.6,6.1,0,8.3-0.6c3.7-1.1,7.1-2.8,10.3-4.9c1-0.7,0.4-2.1-0.8-1.8c-5.1,1.3-9.9,2.7-14.4,5.4c-0.9,0.6-0.5,1.7,0.5,1.8
			c6.3,0.7,12-1.4,16.5-5.8c1-0.9-0.4-1.8-1.3-1.5c-3.8,1.5-7.4,3.2-11,5.1c-1.4,0.7-0.6,2.6,0.8,1.8c3.6-1.9,7.3-3.6,11-5.1
			c-0.4-0.5-0.9-1-1.3-1.5c-3.9,3.8-8.8,5.3-14.2,4.8c0.2,0.6,0.3,1.2,0.5,1.8c4.1-2.5,8.6-3.7,13.2-4.9c-0.3-0.6-0.5-1.2-0.8-1.8
			c-2.5,1.6-5,3-7.8,3.9c-1.5,0.5-6.3,2.4-7.8,1.3c0.1,0.5,0.1,1,0.2,1.4c4.5-4.2,10.5-4.9,16.4-5.5c-0.3-0.6-0.5-1.2-0.8-1.8
			c-5,3.1-10.5,4.8-16.5,5.1c-0.8,0-2.3,1.4-1,2c7.1,3.3,18.3,2.3,22.4-5.4c0.3-0.5,0-1.1-0.6-1.3c-8.6-2.6-17.5-0.3-23.9,5.8
			C75,243.4,77.1,244.2,78,243.3L78,243.3z"/>
	</g>
</g>
<g id="XMLID_1516_">
	<g id="XMLID_1574_">
		<path id="XMLID_1578_" class="st1" d="M91.5,248.3c3.4-1.1,5.5,2.4,6.4,5.1c0.4-0.3,0.8-0.6,1.1-1c-3.2,0.4-6.3-0.2-9-2
			c-0.9-0.6-1.5-0.7-0.8-1.6c0.7-1,1.6-0.3,2.6,0.2c1.6,0.7,3,1.5,4,3c0.2-0.3,0.3-0.5,0.5-0.8c-1,0.3-3.6-1.1-4.4-1.5
			c-1.3-0.6-2.6-1.3-3.8-2.1c-0.5,0.4-1,0.8-1.4,1.2c3.2,0.9,6.1,2.2,8.8,4c0.7,0.5,3.1-0.1,2.1-0.8c-3.9-2.8-7.6-3.5-12-4.8
			c-1-0.3-2.8,0.8-1.2,1.3c4.1,1.2,7.6,1.8,11.1,4.3c0.7-0.3,1.4-0.6,2.1-0.8c-3-2-6.2-3.5-9.7-4.5c-0.7-0.2-2.7,0.5-1.4,1.2
			c3,1.8,7.6,4.8,11.3,3.6c0.3-0.1,0.7-0.5,0.5-0.8c-1.5-2.4-4.6-4-7.3-4.6c-1.3-0.3-5.2-0.6-5.5,1.4c-0.3,1.9,3.8,3.9,5.2,4.5
			c2.7,1.2,5.7,1.5,8.6,1.1c0.5-0.1,1.4-0.3,1.1-1c-1.5-4.5-5.4-7.2-10.1-5.7C88.6,247.7,90.6,248.6,91.5,248.3L91.5,248.3z"/>
	</g>
</g>
<g id="XMLID_1523_">
	<g id="XMLID_1581_">
		<path id="XMLID_1585_" class="st1" d="M98.2,245.7c1.4-1.3,3-2.3,4.8-3c1.4-0.5,4.2-1.5,5.6-0.9c-0.3-0.3-0.6-0.6-0.9-0.9
			c0.4,2.2-2.4,3.5-4.1,3.9c-2.1,0.4-4.3,0.4-6.4,0.2c0.5,0.5,1,0.9,1.4,1.4c0.9-1.2,3.4-1.5,4.7-1.9c1.6-0.6,3.2-1.1,4.9-1.7
			c-0.6-0.5-1.2-1-1.8-1.4c-2.2,0.9-4.3,1.8-6.5,2.7c-1.1,0.5,0.9,1.8,1.8,1.4c2.2-0.9,4.3-1.8,6.5-2.7c1.2-0.5-1-1.7-1.8-1.4
			c-1.9,0.7-3.8,1.3-5.7,2c-1.4,0.5-3.4,0.7-4.3,1.9c-0.6,0.8,0.9,1.4,1.4,1.4c2.8,0.2,6.2,0.3,8.9-0.8c1.4-0.6,4.2-2.9,3.1-4.7
			c-1-1.6-4.6-0.9-6-0.6c-2.9,0.6-5.6,2-7.8,4C95.3,245.2,97.5,246.3,98.2,245.7L98.2,245.7z"/>
	</g>
</g>
<g id="XMLID_1719_">
	<g id="XMLID_367_">
		<path id="XMLID_378_" class="st1" d="M57.8,147.4c-4.5-4.8-6.2-10.5-5.2-17c1.1-7.1,4.2-14.3,0.7-21.3c-1.8-3.6-5.7-7.3-10-6.5
			c-3,0.5-3.1,1.8-2.7,4.8c0.8-0.3,1.6-0.6,2.3-0.9c-1.1-1.2-0.5-0.9-2.1-1c-0.5,0-2,0.4-2.2,0.9c-1,1.5-0.9,2.9-0.4,4.6
			c0.8-0.3,1.6-0.6,2.3-0.9c-1-0.9-3-1.2-4.1,0c-0.9,1-0.6,0.4-0.6,1.7c0.3,0.5,0.6,1.1,1,1.5c-0.1,0.3-0.3,0.6-0.4,0.9
			c-0.1-0.5-0.4,1.9-0.4,1.7c0.8,0.5,0.9,1.1,0.3,2c-0.1,1,0.1,1.8,0.6,2.6c0.8-0.3,1.6-0.6,2.3-0.9c-1-0.6-2.3-0.3-3.2,0.3
			c-2.2,1.5-0.9,3.3,0.2,5.4c0.8-0.3,1.5-0.6,2.3-0.9c-0.4-0.1-0.9-0.1-1.3-0.2c-0.3,0-2.3,0.6-2.3,0.9c0.1,0.6,0.2,1.3,0.2,1.9
			c0.8-0.3,1.6-0.6,2.3-0.9c-2.1-1.6-3.8-3.6-6.6-2.9c-1.7,0.4-3.2,1.3-3.1,3.1c0.8-0.3,1.6-0.6,2.3-0.9c-1.6-1.7-5.4-2.2-6.2,0.7
			c0.8-0.3,1.6-0.6,2.3-0.9c-1.8-1-5.5,0.1-4.5,2.6c0.8-0.3,1.5-0.6,2.3-0.9c-1.9,0.1-5,1-2.7,3.2c0.7-0.3,1.4-0.6,2.1-0.9
			c-1.8,0.3-3.5,0.8-4.5,2.4c0.8-0.3,1.5-0.6,2.3-0.9c-2.8-3.8-10.9-0.7-7.7,2.9c0.3,0.4,2.3-0.9,2.3-0.9c-0.8-0.9-1.3-1.5-0.2-2.5
			c1.2-1.1,2.5,0.4,3.2,1.4c0.2,0.3,2.1-0.6,2.3-0.9c0.1-0.2,0.2-0.4,0.3-0.6c0.2,0,2.2-0.8,2.1-0.9c-0.9-0.5-1.1-1.2-0.5-2.2
			c-0.7,0.3-1.5,0.6-2.2,0.9c0.3,0,0.6,0,0.9,0c0.2,0,2.4-0.7,2.3-0.9c-0.1-0.3-0.1-0.5-0.2-0.8c0.3,0.2,2.2-0.5,2.3-0.9
			c0.7,0,1.2,0.4,1.5,1.1c0.2,0.2,2.3-0.6,2.3-0.9c-0.2-3.5,4.1,1,5,1.6c0.3,0.2,2.4-0.6,2.3-0.9c-0.1-0.6-0.2-1.3-0.2-1.9
			c-0.8,0.3-1.5,0.6-2.3,0.9c0.4,0.1,0.9,0.1,1.3,0.2c0.3,0,2.4-0.7,2.3-0.9c-0.3-0.6-1.4-3.7-1.7-3.9c0.3,0.2,2.4-0.7,2.3-0.9
			c-0.8-1.9-0.3-2.1-0.3-4c0-0.8-1-1.5,0.3-2.7c0,0,0,0,0-0.1c-0.3-1.4-2-2-0.6-3.6c-0.7,0.3-1.5,0.6-2.2,0.9
			c0.6,0.3,1.2,0.5,1.8,0.8c0.2,0.2,2.4-0.7,2.3-0.9c-0.5-1.6-0.7-2.8,0.3-4.5c-0.7,0.3-1.5,0.6-2.2,0.9c0.7,0.3,1.3,0.7,2,1
			c0.2,0.2,2.4-0.6,2.3-0.9c-0.2-1.3-0.4-2.4,0.1-3.7c-0.6,0.3-1.1,0.5-1.7,0.8c4.2-1.4,8.6,3.7,10,7.1c1.9,4.3,1.4,9.1,0.6,13.6
			c-1.8,9.1-3.5,16.7,3.6,24.1C55.8,148.7,57.7,147.3,57.8,147.4L57.8,147.4z"/>
	</g>
</g>
<g id="XMLID_1726_">
	<g id="XMLID_379_">
		<path id="XMLID_384_" class="st1" d="M15.4,135.5c4.6,3.9,7.5,9.4,13.8,10.7c3.1,0.6,6.2,0.1,9.2-0.7c1.1-0.3,2.2-0.8,3.4-1.1
			c3.3-0.7,8,0.2,10.9,2.1c2.4,1.6,4.4,3.8,6.1,6c0.3,0.4,2.5,1.1,2.1,0.6c-1.7-2.3-3.3-4.6-4.7-7.1c-0.3-0.6-2.4-1-2.3-0.8
			c1.5,2.6,3,5,4.9,7.3c0.7,0.2,1.4,0.4,2.1,0.6c-3.5-4.5-9.1-9.8-15-10.8c-4.5-0.7-8.5,2.3-12.9,2.6c-5.1,0.4-8.6-1.7-11.9-5.3
			c-1.2-1.4-2.5-2.7-3.9-3.9C16.9,135.4,14.5,134.7,15.4,135.5L15.4,135.5z"/>
	</g>
</g>
<g id="XMLID_1761_">
	<g id="XMLID_360_">
		<path id="XMLID_364_" class="st1" d="M45.4,112.7c1.2,2.6,2.4,5.3,2.9,8.1c0.5,3-0.2,5.8-0.9,8.7c-0.2,0.9,1.9,2.2,2.1,1.2
			c1.6-6.6,0.6-11.5-2.1-17.7C47,112.2,44.8,111.4,45.4,112.7L45.4,112.7z"/>
	</g>
</g>
<g id="XMLID_1768_">
	<g id="XMLID_353_">
		<path id="XMLID_358_" class="st1" d="M44.8,121.2c1.2,2.9,0.5,5.8-0.2,8.7c-0.1,0.3,2.3,0.4,2.5-0.4c0.7-2.9,1.4-5.9,0.2-8.7
			C47,120.2,44.6,120.8,44.8,121.2L44.8,121.2z"/>
	</g>
</g>
<g id="XMLID_1775_">
	<g id="XMLID_341_">
		<path id="XMLID_351_" class="st1" d="M41.6,123.6c0.5,1.6,0.8,3.3,0.9,5c0.1,0.7,2.3,1.6,2.3,0.9c-0.1-1.7-0.4-3.4-0.9-5
			c-0.2-0.5-0.7-0.9-1.2-1C42.5,123.3,41.4,123.1,41.6,123.6L41.6,123.6z"/>
	</g>
</g>
<g id="XMLID_1782_">
	<g id="XMLID_304_">
		<path id="XMLID_334_" class="st1" d="M40.1,129.9c0.2,4.1,2.5,7.6,6,9.6c0.6,0.4,2.7-0.7,2.2-1c-3.5-2-5.6-5.4-5.8-9.4
			C42.4,128.6,40,129.1,40.1,129.9L40.1,129.9z"/>
	</g>
</g>
<g id="XMLID_1789_">
	<g id="XMLID_283_">
		<path id="XMLID_302_" class="st1" d="M41.9,136.9c-1.9-1-2.9-3-4.1-4.6c-0.9-1.2-1.8-2.2-2.9-3.2c-0.1-0.1-0.9-0.8-1.1-0.6
			c-0.2,0.2,0.7,0.9,0.8,1c1.8,1.6,2.8,3.8,4.4,5.6c1.2,1.3,2.5,2.4,4,3.2c0.5,0.3,0.4,0,0.3-0.3C43.1,137.6,42.3,137.1,41.9,136.9
			L41.9,136.9z"/>
	</g>
</g>
<g id="XMLID_1796_">
	<g id="XMLID_279_">
		<path id="XMLID_303_" class="st1" d="M44.1,139.5c-4.5-1.6-8.7-3.7-12.6-6.5c-0.5-0.4-2.4,0.3-2.4,0.2c3.9,2.8,8.1,4.9,12.6,6.5
			C42.3,140,43.9,139.4,44.1,139.5L44.1,139.5z"/>
	</g>
</g>
<g id="XMLID_1803_">
	<g id="XMLID_340_">
		<path id="XMLID_366_" class="st1" d="M41.6,139.7c-6-0.8-11.3-3.9-17.2-5.1c-1.4-0.3-2.3,1.9-0.7,2.2c5.9,1.2,11.2,4.3,17.2,5.1
			C42.4,142.1,43.3,140,41.6,139.7L41.6,139.7z"/>
	</g>
</g>
<g id="XMLID_1894_">
	<g id="XMLID_1952_">
		<path id="XMLID_1956_" class="st1" d="M79.5-0.6c8.6,4,9.6,13.7,8.1,22.1c-0.7,3.8-1.8,7.4-2.6,11.1c-0.4,1.7-0.8,3.4-1,5.2
			c-0.2,1.3,0.4,3.7-1.1,3c-0.5-0.2-2.3-4-2.7-4.6c-1-1.5-2-2.9-3.1-4.3c-2-2.7-4-5.4-5.7-8.3c-4.6-7.9-5.1-16.8,0.9-24.1
			c0.9-1.1-0.8-2.9-1.7-1.8c-5.8,7.1-6.5,16-2.5,24.2c2.4,5.1,6.1,9.4,9.3,14c1.3,1.9,3.3,8.2,6.2,8.3c3,0.1,2.4-4.6,2.7-6.5
			c1-6.1,3.2-11.9,3.9-18c1.1-8.7-1.2-18.3-9.7-22.2C79-3.3,78.2-1.2,79.5-0.6L79.5-0.6z"/>
	</g>
</g>
<g id="XMLID_1901_">
	<g id="XMLID_1959_">
		<path id="XMLID_1963_" class="st1" d="M78.8-1.1c0.4,5.6,0.5,11-1.2,16.4c-1.4,4.2-3.4,8.2-5.3,12.3c-0.2,0.5,2,1.6,2.2,1.2
			c2-4.6,4.5-9.1,5.8-14c1.3-4.9,1-9.9,0.7-14.9C80.9-0.7,78.7-1.5,78.8-1.1L78.8-1.1z"/>
	</g>
</g>
<g id="XMLID_1908_">
	<g id="XMLID_1966_">
		<path id="XMLID_1970_" class="st1" d="M90.8,17.3c-4.5-2-8-5.3-10.2-9.7c-0.7-1.4-1.9-0.7-1.3,0.6c2.5,5.1,6.6,9.1,11.8,11.3
			C92.2,20,91.6,17.7,90.8,17.3L90.8,17.3z"/>
	</g>
</g>
<g id="XMLID_1915_">
	<g id="XMLID_1973_">
		<path id="XMLID_1977_" class="st1" d="M62-3.2c-7.5,4.8-9,18.5-5.9,26.2c3.3,8.2,9.2-1.6,11.1-5.7c0.3-0.6-1.6-2-1.7-1.9
			c-1,2.3-2.7,6.6-5,7.9c-4.4,2.4-4.1-5.9-4-8.4c0.2-5.8,2-12.9,7.1-16.2C64-1.5,62.5-3.5,62-3.2L62-3.2z"/>
	</g>
</g>
<g id="XMLID_1922_">
	<g id="XMLID_1980_">
		<path id="XMLID_1984_" class="st1" d="M66.1,3.3c-2.5,3-5.7,5.2-9.4,6.5c-1.5,0.5-0.5,2.7,0.8,2.2c4.1-1.4,7.6-3.8,10.4-7.1
			C68.9,3.9,67,2.3,66.1,3.3L66.1,3.3z"/>
	</g>
</g>
<g id="XMLID_1929_">
	<g id="XMLID_1987_">
		<path id="XMLID_1991_" class="st1" d="M60,9.9c0.4,3.6,1.1,7.1,2.2,10.5c0.2,0.8,2.7,0.5,2.5-0.1c-1-3.4-1.8-6.9-2.2-10.5
			C62.4,9.1,59.9,9.3,60,9.9L60,9.9z"/>
	</g>
</g>
<g id="XMLID_1936_">
	<g id="XMLID_1994_">
		<path id="XMLID_1998_" class="st1" d="M93.7-1.4c2.4,0.5,5.3,1.3,7.2,3.1c2.5,2.4,3,5.5,3.2,8.8c0,0.8,0.3,2-0.4,2.6
			c-0.6,0.5-3.2,0.4-4,0.4c-1.8,0-7.4-0.2-8.3-1.9c-0.2-0.4-2-2-1.5-1c1.6,3,4.4,4,7.7,4.6c1.9,0.3,5.5,0.9,7.2-0.1
			c1.7-1,1.1-2.5,0.9-4.5c-0.8-7.6-6.2-12.5-13.5-14C92.1-3.4,93-1.6,93.7-1.4L93.7-1.4z"/>
	</g>
</g>
<g id="XMLID_1943_">
	<g id="XMLID_2001_">
		<path id="XMLID_2005_" class="st1" d="M91.6-3.1c2.5,5.8,3.9,11.8,4.1,18.2c0,0.7,1.8,2.4,1.8,1.4c-0.2-6.7-1.7-13-4.3-19.2
			C92.9-3.5,91-4.6,91.6-3.1L91.6-3.1z"/>
	</g>
</g>
<g id="XMLID_1950_">
	<g id="XMLID_2008_">
		<path id="XMLID_2012_" class="st1" d="M104.1,6.5c-3.4,0.1-6.6-0.4-9.7-1.5c-1-0.4-2.5,0.3-0.9,0.9c3.8,1.3,7.6,1.9,11.6,1.8
			C106.7,7.6,104.9,6.5,104.1,6.5L104.1,6.5z"/>
	</g>
</g>
<g id="XMLID_1957_">
	<g id="XMLID_2015_">
		<path id="XMLID_2019_" class="st1" d="M50.1,14.1c-7.5,13.2-10.7,27.9-9.7,43c0.1,1,1.7,1.2,2.2,0.5c2.9-4.1,5.4-8.3,7.5-12.8
			c0.6-1.3-1.8-2-2.3-0.8c-2.1,4.3-4.5,8.4-7.2,12.3c0.7,0.2,1.5,0.3,2.2,0.5c-1-14.7,2.3-29.1,9.6-41.9
			C53.1,13.6,50.8,12.9,50.1,14.1L50.1,14.1z"/>
	</g>
</g>
<g id="XMLID_1964_">
	<g id="XMLID_2022_">
		<path id="XMLID_2026_" class="st1" d="M56.2,22.9c-0.8,6.6-3.2,12.5-7.1,17.8c-0.8,1.1,0.9,2.9,1.7,1.8c4.2-5.6,6.7-11.9,7.6-18.8
			C58.5,22.3,56.4,21.3,56.2,22.9L56.2,22.9z"/>
	</g>
</g>
<g id="XMLID_1971_">
	<g id="XMLID_2029_">
		<path id="XMLID_2033_" class="st1" d="M89.3,16.1c-0.4,5.4,1.8,10.3,5.8,14c0.9,0.8,2.4,0.6,1.2-0.6c-3.5-3.2-5.1-7.7-4.7-12.3
			C91.6,16.3,89.4,15.2,89.3,16.1L89.3,16.1z"/>
	</g>
</g>
<g id="XMLID_1978_">
	<g id="XMLID_2036_">
		<path id="XMLID_2040_" class="st1" d="M90.7,13.2c3.2,3.7,6.3,7.6,7.3,12.5c0.3,1.4,2.8,1.4,2.5-0.1c-1.1-5.3-4.3-9.5-7.7-13.6
			C91.8,10.9,89.6,12,90.7,13.2L90.7,13.2z"/>
	</g>
</g>
<g id="XMLID_1985_">
	<g id="XMLID_2043_">
		<path id="XMLID_2047_" class="st1" d="M98.4,26.3c0.2,1.7,0.4,3.4,0.4,5.1c0.1-0.1,0.3-0.2,0.4-0.3c-1.1,0.3-2.1,0.4-3.2,0
			c-0.4-0.2-1.3-0.4-1.7,0c-0.4,0.3,0,0.6,0.4,0.8c2,0.7,4.1,0.8,6.2,0.2c0.1,0,0.4-0.2,0.4-0.3c0-1.7-0.2-3.4-0.4-5.1
			C100.7,25.8,98.3,25.7,98.4,26.3L98.4,26.3z"/>
	</g>
</g>
<g id="XMLID_1992_">
	<g id="XMLID_2050_">
		<path id="XMLID_2054_" class="st1" d="M54.1-1.6c-6.6-0.1-11.5,3.8-15.6,8.5c-5.3,6-10.2,12.5-11.5,20.6c-0.1,0.4,0.6,0.3,0.8,0.3
			C33,27,38,23.5,42.5,21c4.8-2.8,9.3-5.7,12.7-10.3c0.5-0.7-1.8-0.1-2.2,0.4c-3.5,4.8-8.7,7.7-13.8,10.5c-1.8,1-4.1,2.6-6,3.2
			c-3.3,1.1-3.9,0.7-2.8-2.6c2.9-8.5,12.8-22.6,22.4-22.4C53.4-0.2,55.4-1.6,54.1-1.6L54.1-1.6z"/>
	</g>
</g>
<g id="XMLID_2006_">
	<g id="XMLID_2064_">
		<path id="XMLID_2068_" class="st1" d="M31.9,95.3c-0.6-7.7-8.2-17.2-13.6-22.3c-3.4-3.2-10.7-8.3-15.6-5.5c-6.6,3.8,2,15,5.4,18.1
			c6.7,6,14.1,9.7,22.8,12c0.3,0.1,1.8,0.1,1.2-0.5c-6.3-6.8-12.5-13.6-18.8-20.5c-0.5-0.5-2.8-0.6-2.2,0
			c6.3,6.8,12.5,13.6,18.8,20.5c0.4-0.2,0.8-0.3,1.2-0.5c-10.7-2.8-26.7-10.7-28-23.4c-0.4-3.7,0.1-6.9,8.1-3.7
			c1.5,0.6,3.1,2,4.3,3.1c1.8,1.6,3.4,3.6,4.9,5.5c3.5,4.6,8.5,10.8,9,16.7C29.5,95.6,32,95.8,31.9,95.3L31.9,95.3z"/>
	</g>
</g>
<g id="XMLID_2013_">
	<g id="XMLID_2071_">
		<path id="XMLID_2075_" class="st1" d="M16.1,79.4c-0.1-3.3-0.7-6.4-1.7-9.5c-0.3-0.9-2.7-1.3-2.3,0c0.9,3,1.5,6,1.6,9.1
			C13.7,79.9,16.1,80.5,16.1,79.4L16.1,79.4z"/>
	</g>
</g>
<g id="XMLID_2020_">
	<g id="XMLID_2078_">
		<path id="XMLID_2082_" class="st1" d="M18.3,82.2c1.1-1.9,1.6-3.9,1.6-6.1c0-1.4-2.5-1.8-2.4-0.3c0.1,1.8-0.3,3.4-1.2,5
			C15.5,82.1,17.6,83.4,18.3,82.2L18.3,82.2z"/>
	</g>
</g>
<g id="XMLID_2027_">
	<g id="XMLID_2085_">
		<path id="XMLID_2089_" class="st1" d="M22,87.9c0.7-1.7,1.2-3.5,1.5-5.3c0.2-1.3-2.2-1.5-2.5-0.2c-0.3,1.6-0.8,3.2-1.4,4.7
			C19.1,88.5,21.5,89,22,87.9L22,87.9z"/>
	</g>
</g>
<g id="XMLID_2034_">
	<g id="XMLID_2092_">
		<path id="XMLID_2096_" class="st1" d="M22.9,88.4c-3.3-1.7-6.6-3.1-10.1-4.1c-1.2-0.4-2.6,1.4-1.1,1.9c3.3,1,6.5,2.3,9.6,3.9
			C22.3,90.6,24.1,89.1,22.9,88.4L22.9,88.4z"/>
	</g>
</g>
<g id="XMLID_2041_">
	<g id="XMLID_2099_">
		<path id="XMLID_2103_" class="st1" d="M18.5,82.3c-3.8-1.2-7.7-2.1-11.7-2.7c-1.6-0.2-1.3,1.8,0.1,2c3.8,0.5,7.4,1.4,11.1,2.6
			C19.4,84.6,19.9,82.8,18.5,82.3L18.5,82.3z"/>
	</g>
</g>
<g id="XMLID_2048_">
	<g id="XMLID_2106_">
		<path id="XMLID_2110_" class="st1" d="M12.9,77.5C10.4,76,7.7,75,4.8,74.4c-1.3-0.3-0.6,2.1,0.3,2.3c2.7,0.5,5.2,1.5,7.6,2.9
			C14.1,80.3,13.7,77.9,12.9,77.5L12.9,77.5z"/>
	</g>
</g>
<g id="XMLID_2055_">
	<g id="XMLID_2113_">
		<path id="XMLID_2117_" class="st1" d="M26,75.9c-7-8.3-10.4-18.5-9.9-29.3c-0.7,0.3-1.4,0.6-2.1,0.9C25.1,53,24.7,70.3,24.2,80.8
			c-0.1,1.1,2.4,0.6,2.4-0.4c0.6-11.1,0.8-28.6-10.8-34.4c-0.6-0.3-2.1,0-2.1,0.9C13.1,58,16.7,68.5,23.8,77
			C24.4,77.7,26.7,76.7,26,75.9L26,75.9z"/>
	</g>
</g>
<g id="XMLID_2062_">
	<g id="XMLID_2120_">
		<path id="XMLID_2124_" class="st1" d="M18.4,54.5c0,7.8,1.8,15.3,5.2,22.4c0.3,0.7,2.7,1.3,2.2,0.3c-3.3-7-5-14.3-5.1-22
			C20.7,54.3,18.4,53.6,18.4,54.5L18.4,54.5z"/>
	</g>
</g>
<g id="XMLID_2069_">
	<g id="XMLID_2127_">
		<path id="XMLID_2131_" class="st1" d="M29.9,87.2c-0.5-3.9,0-7.8,2-11.3c1.1-1.9,6.3-8.2,8-5.5c1.9,2.9-1,9-2.4,11.5
			c-2,3.4-5.1,6-8.6,7.8c-0.3,0.2,1.7,0.1,2.2-0.1c4.7-2.3,8.4-6.1,10.4-10.9c1-2.4,2.9-9.5-0.6-10.2c-2.8-0.5-6.6,2.5-8.4,4.1
			c-4.2,3.9-5.8,9.5-5,15.1C27.5,87.9,30,87.5,29.9,87.2L29.9,87.2z"/>
	</g>
</g>
<g id="XMLID_2076_">
	<g id="XMLID_2134_">
		<path id="XMLID_2138_" class="st1" d="M39.8,70.4c-4.6,6.1-8.7,12.5-12.2,19.2c-0.6,1.1,1.9,0.9,2.3,0.1c3.5-6.6,7.5-12.9,12-18.8
			C42.7,69.7,40.4,69.7,39.8,70.4L39.8,70.4z"/>
	</g>
</g>
<g id="XMLID_2083_">
	<g id="XMLID_2141_">
		<path id="XMLID_2145_" class="st1" d="M40.7,79.1c-3.7-0.2-7.3,0.3-10.6,2c-0.2,0.1,0.8,0.2,0.9,0.2c0.5,0,1.1,0,1.5-0.2
			c2-1,4.1-1.7,6.5-1.5c0.5,0,1.3,0.1,1.8-0.1C41,79.2,41.3,79.2,40.7,79.1L40.7,79.1z"/>
	</g>
</g>
<g id="XMLID_2090_">
	<g id="XMLID_2148_">
		<path id="XMLID_2152_" class="st1" d="M35,82.3c-1.1,0.2-2.2,0.4-3.3,0.7c-1.4,0.3-0.3,2.5,0.9,2.3c1.1-0.2,2.2-0.4,3.3-0.7
			C37.3,84.4,36.3,82.1,35,82.3L35,82.3z"/>
	</g>
</g>
<g id="XMLID_2097_">
	<g id="XMLID_2155_">
		<path id="XMLID_2159_" class="st1" d="M33.6,71.6c-0.3,2.9-0.6,5.8-0.9,8.7c-0.2,1.4,2.3,1.6,2.5,0.2c0.4-2.9,0.7-5.8,0.9-8.7
			C36.2,70.4,33.7,70.1,33.6,71.6L33.6,71.6z"/>
	</g>
</g>
<g id="XMLID_2104_">
	<g id="XMLID_2162_">
		<path id="XMLID_2166_" class="st1" d="M16.8,58.1c-6.5-6.6-14-11.6-22.6-15c-0.6-0.2-2.3,0.9-2.2,1c8.5,3.4,16,8.4,22.4,14.9
			C14.9,59.4,16.9,58.1,16.8,58.1L16.8,58.1z"/>
	</g>
</g>
<g id="XMLID_2111_">
	<g id="XMLID_2169_">
		<path id="XMLID_2173_" class="st1" d="M13.1,61.8c0.1,0.1-3.5,1-3.6,1c-1.9,0.2-3.6,0.1-5.5-0.7c-2-0.9-3.5-2.4-4.7-4.1
			c-0.5-0.6-2.9-0.7-2.2,0.3c2.6,3.6,6.5,5.8,11,6c1.3,0.1,9.5-0.8,6.9-3.1C14.3,60.7,12,60.9,13.1,61.8L13.1,61.8z"/>
	</g>
</g>
<g id="XMLID_2118_">
	<g id="XMLID_2176_">
		<path id="XMLID_2180_" class="st1" d="M13.9,56.3c-4.3,1.2-8.7,2.2-13.2,2.9c-1.6,0.3-0.9,2.3,0.6,2.1c4.4-0.8,8.8-1.7,13.2-2.9
			C16,58,15.4,55.9,13.9,56.3L13.9,56.3z"/>
	</g>
</g>
<g id="XMLID_2125_">
	<g id="XMLID_2183_">
		<path id="XMLID_2187_" class="st1" d="M9.6,53.8c-3.1,0.2-6.1,0.8-9.1,1.7c-0.6,0.2-2.3,1.7-0.8,1.2c2.8-0.8,5.7-1.4,8.6-1.6
			C8.9,55.1,10.9,53.7,9.6,53.8L9.6,53.8z"/>
	</g>
</g>
<g id="XMLID_2132_">
	<g id="XMLID_2190_">
		<path id="XMLID_2194_" class="st1" d="M5.8,51.3c-2.3,0.1-4.7,0.3-7,0.6c-0.4,0.1-1,0.4-0.8,0.9c0.2,0.5,1.2,0.5,1.6,0.4
			c2.1-0.2,4.2-0.4,6.3-0.5C7.4,52.6,7.3,51.2,5.8,51.3L5.8,51.3z"/>
	</g>
</g>
<g id="XMLID_2139_">
	<g id="XMLID_2197_">
		<path id="XMLID_2201_" class="st1" d="M17.4,46.9c-1.1-3.3-1.4-6.8-0.8-10.2c0.3-1.7,0.8-3.3,1.5-4.8c1.2-2.7,2-4.2,4.4-1.7
			c2.3,2.4,2.6,6.7,2.8,9.9c0.3,5.4,0,9.1-6.3,11.9c-0.6,0.3-2.1,1.9-0.7,1.3c3.3-1.5,7.3-3.5,8.6-7.2c1.5-4.2,1-16.8-4-19.1
			c-2.7-1.2-4.6,1.7-5.8,3.8c-3.2,5.4-3.7,11.6-1.8,17.5C15.4,48.7,17.6,47.6,17.4,46.9L17.4,46.9z"/>
	</g>
</g>
<g id="XMLID_2146_">
	<g id="XMLID_2204_">
		<path id="XMLID_2208_" class="st1" d="M22.5,31.1c-4.2,0.5-7.2,5.4-9.2,8.7c-0.3,0.4,1.9,1.7,2.2,1.1c1.9-3,4.8-8,8.8-8.5
			C25,32.3,23.1,31,22.5,31.1L22.5,31.1z"/>
	</g>
</g>
<g id="XMLID_2153_">
	<g id="XMLID_2211_">
		<path id="XMLID_2215_" class="st1" d="M23.6,35c-2.9,2.2-5.3,5-7.1,8.2c-0.5,0.9,1.7,2.1,2.2,1.2c1.7-3.1,4-5.8,6.8-7.9
			C26.4,35.8,24.4,34.3,23.6,35L23.6,35z"/>
	</g>
</g>
<g id="XMLID_2160_">
	<g id="XMLID_2218_">
		<path id="XMLID_2222_" class="st1" d="M25.3,41.7c-2.5,2.1-4.8,4.5-6.8,7.1c-0.3,0.4,0.8,0.4,0.9,0.3c0.5,0,1.2-0.1,1.5-0.5
			c1.9-2.5,4.1-4.8,6.6-6.8c0.4-0.4-0.3-0.5-0.5-0.5C26.4,41.2,25.7,41.3,25.3,41.7L25.3,41.7z"/>
	</g>
</g>
</svg>
