<?xml version="1.0" encoding="utf-8"?>
<!-- Generator: Adobe Illustrator 19.0.0, SVG Export Plug-In . SVG Version: 6.00 Build 0)  -->
<svg version="1.1" id="Layer_1" xmlns="http://www.w3.org/2000/svg" xmlns:xlink="http://www.w3.org/1999/xlink" x="0px" y="0px"
	 viewBox="0 0 255.1 255.1" style="enable-background:new 0 0 255.1 255.1;" xml:space="preserve">
<style type="text/css">
	.st0{fill:#E6A69B;stroke:#543928;stroke-miterlimit:10;}
	.st1{fill:#D1877D;}
	.st2{fill:#E6A69B;}
	.st3{fill:#D1867C;}
	.st4{fill:#CE7B6F;}
</style>
<rect id="XMLID_1_" x="-5.1" y="-2.9" class="st0" width="263.1" height="261"/>
<g id="Layer_2">
	<g id="XMLID_2_">
		<g id="XMLID_34_">
			<path id="XMLID_40_" class="st1" d="M256.5,24.7c-32.2,0.5-64.5,1-96.7,1.5c-0.2,0-2,0-1.9,0.5c3.5,26.1,3.6,52.5,3.9,78.8
				c0.3,26.1,0.6,52.3,0.9,78.4c0,0.9,2.6,1,3.1,1.1c15.3,0.7,30.4,0.9,45.7-0.4c16.7-1.4,32.9-1.8,49.4,1.2
				c1.9,0.3,4.9-0.7,1.5-1.3c-15.1-2.8-30.3-3.3-45.6-2.1c-17.5,1.4-34.6,1.8-52.2,1.1c1,0.4,2,0.7,3.1,1.1
				c-0.3-26.1-0.6-52.3-0.9-78.4c-0.3-26.3-0.4-52.7-3.9-78.8c-0.6,0.2-1.3,0.4-1.9,0.5c32.2-0.5,64.5-1,96.7-1.5
				C261.1,26.2,258.5,24.6,256.5,24.7L256.5,24.7z"/>
		</g>
	</g>
	<g id="XMLID_3_">
		<g id="XMLID_41_">
			<path id="XMLID_47_" class="st1" d="M177.9,34.6c-1,11.6-1.1,23.1-0.2,34.7c0.1,1.8,4.8,3.3,4.7,1.4c-0.9-11.6-0.8-23.2,0.2-34.7
				C182.8,34.2,178.1,32.5,177.9,34.6L177.9,34.6z"/>
		</g>
	</g>
	<g id="XMLID_4_">
		<g id="XMLID_48_">
			<path id="XMLID_54_" class="st1" d="M179.1,36.5c5.3,10.6,10.9,21,16.8,31.3c0.5,0.8,4.6,2.4,4.6,0.8c0.5-11.2-2-22.2-1.1-33.4
				c0.1-1.8-4.7-3-4.8-1.5c-0.9,11.2,1.6,22.2,1.1,33.4c1.5,0.3,3.1,0.5,4.6,0.8c-5.8-10.3-11.4-20.7-16.8-31.3
				C182.9,35.2,178.1,34.5,179.1,36.5L179.1,36.5z"/>
		</g>
	</g>
	<g id="XMLID_5_">
		<g id="XMLID_55_">
			<path id="XMLID_61_" class="st1" d="M222.6,33.9c-6.1,0.4-12.2,0.6-18.2,0.7c-0.9,0-1.8,0.9-1.7,1.8c0.3,10.1,0.9,20.3,1.8,30.4
				c0.1,1.6,1.4,2.5,3,2.6c6.1,0.3,12.1,0,18.1-0.9c3.1-0.5,1.4-4.8-1.2-4.4c-6,0.9-12,1.2-18.1,0.9c1,0.9,2,1.7,3,2.6
				c-0.9-10.1-1.5-20.2-1.8-30.4c-0.6,0.6-1.2,1.2-1.7,1.8c6.1,0,12.2-0.3,18.2-0.7C227,38.1,225.3,33.8,222.6,33.9L222.6,33.9z"/>
		</g>
	</g>
	<g id="XMLID_6_">
		<g id="XMLID_62_">
			<path id="XMLID_68_" class="st1" d="M217.2,50.4c-3.7-0.3-7.3-0.5-11-0.7c-0.4,0-2.5-0.2-2.5,0.5c-0.1,0.7,2.2,0.8,2.4,0.8
				c3.7,0.2,7.3,0.4,11,0.7c0.4,0,2.5,0.2,2.5-0.5C219.7,50.6,217.4,50.5,217.2,50.4L217.2,50.4z"/>
		</g>
	</g>
	<g id="XMLID_7_">
		<g id="XMLID_69_">
			<path id="XMLID_75_" class="st1" d="M216.6,49.6c-3.5-0.1-7-0.1-10.5,0.1c-0.8,0-1.7,0.3-1.2,1.2c0.5,0.9,2.4,1.2,3.2,1.2
				c3.5-0.1,7-0.1,10.5-0.1c0.8,0,1.7-0.3,1.2-1.2C219.4,49.9,217.5,49.6,216.6,49.6L216.6,49.6z"/>
		</g>
	</g>
	<g id="XMLID_8_">
		<g id="XMLID_76_">
			<path id="XMLID_82_" class="st1" d="M228.3,35.9c-0.5,10.4,0.4,20.6,2.9,30.7c0.2,0.8,3.1,4,3.9,2.6c2.8-5.1,4.9-10.3,6.6-15.8
				c-1.3-0.8-2.7-1.6-4-2.4c1.5,5.7,3.6,11.1,6.6,16.2c0.3,0.5,3.1,3.6,3.7,2.2c4.8-10.5,8-21.4,9.3-32.9c0.2-1.6-3.9-4.2-4-2.7
				c-1.3,11.2-4.3,22.1-9,32.3c1.2,0.7,2.5,1.5,3.7,2.2c-2.8-4.9-4.9-9.9-6.3-15.4c-0.2-0.9-3.5-4.2-4-2.4
				c-1.6,5.3-3.6,10.4-6.3,15.3c1.3,0.9,2.6,1.8,3.9,2.6c-2.4-9.9-3.3-19.9-2.8-30C232.4,37,228.4,34.5,228.3,35.9L228.3,35.9z"/>
		</g>
	</g>
	<g id="XMLID_12_">
		<g id="XMLID_83_">
			<path id="XMLID_89_" class="st1" d="M255.2,74.5c-13.8-2.9-27.8-2.6-41.8-1.6c-14.6,1-29.1,2.2-43.7,3.2c-3.1,0.2-3.1,4,0,3.8
				c13.9-1,27.8-2.1,41.7-3.1c14.2-1,28.4-1.5,42.4,1.4C256.7,78.7,258.4,75.1,255.2,74.5L255.2,74.5z"/>
		</g>
	</g>
	<g id="XMLID_16_">
		<g id="XMLID_90_">
			<path id="XMLID_96_" class="st1" d="M171.2,86.8c-0.1,13,0.5,26,1.8,39c0.2,2.6,4.8,0.7,4.6-1.7c-1.2-12.6-1.8-25.3-1.7-37.9
				C175.8,83.2,171.2,84.5,171.2,86.8L171.2,86.8z"/>
		</g>
	</g>
	<g id="XMLID_24_">
		<g id="XMLID_97_">
			<path id="XMLID_103_" class="st1" d="M174.4,87.6c11.6-1.7,23.3-2.4,35-2.2c-0.5-0.3-1-0.5-1.4-0.8c0.8,13.7,1.6,27.5,2.4,41.2
				c1-0.6,1.9-1.2,2.9-1.8c-6.3,0.3-12.5,0.7-18.8,1c-3,0.2-5.9,0.3-8.9,0.5c-2.8,0.1-6.8,1.2-9.4,0.4c0.3,0.3,0.6,0.7,0.9,1
				c0-0.1,0-0.2,0.1-0.3c-0.9,0.5-1.9,1-2.8,1.5c0.1,0,0.2,0,0.2,0c2.3-0.1,4.2-2.7,0.8-2.5c-0.1,0-0.2,0-0.2,0
				c-0.8,0-2.6,0.5-2.8,1.5c0,0.1,0,0.2-0.1,0.3c-0.1,0.6,0.4,0.9,0.9,1c2.1,0.6,4.6,0.1,6.7,0c3.6-0.2,7.3-0.4,10.9-0.6
				c7.3-0.4,14.5-0.8,21.8-1.2c0.9,0,2.9-0.6,2.9-1.8c-0.8-13.7-1.6-27.5-2.4-41.2c0-0.6-1-0.8-1.4-0.8c-12.1-0.2-24.2,0.5-36.2,2.2
				C173,85.4,171.1,88.1,174.4,87.6L174.4,87.6z"/>
		</g>
	</g>
	<g id="XMLID_31_">
		<g id="XMLID_104_">
			<path id="XMLID_110_" class="st1" d="M245.6,82c-3.8,0.2-7.7-0.3-11.5-0.1c-4.1,0.2-8,1.5-12.1,1c-3.2-0.3,0.2,2.4,1.8,2.6
				c4.3,0.5,8.3-0.8,12.6-1c4-0.2,8,0.2,12,0C251.2,84.4,247,81.9,245.6,82L245.6,82z"/>
		</g>
	</g>
	<g id="XMLID_38_">
		<g id="XMLID_111_">
			<path id="XMLID_117_" class="st1" d="M246,87.3c-8,0.6-16.1,0.9-24.1,1c-2.7,0,1,3,2.6,3c8-0.1,16.1-0.4,24.1-1
				C251.4,90.1,247.7,87.2,246,87.3L246,87.3z"/>
		</g>
	</g>
	<g id="XMLID_45_">
		<g id="XMLID_118_">
			<path id="XMLID_124_" class="st1" d="M246.2,95c-7.1,0-14.1,0.1-21.2,0.3c-2.8,0.1-2.9,1.1,0,1c6.6-0.2,13.2-0.3,19.8-0.3
				C246.7,96,249.7,95,246.2,95L246.2,95z"/>
		</g>
	</g>
	<g id="XMLID_52_">
		<g id="XMLID_125_">
			<path id="XMLID_131_" class="st1" d="M246.2,102.9c-8.2,0.4-16.5,0.3-24.7,0c-2.3-0.1,2,2.1,3,2.1c8.5,0.4,17,0.4,25.5,0.1
				C251.2,105.1,247.4,102.9,246.2,102.9L246.2,102.9z"/>
		</g>
	</g>
	<g id="XMLID_59_">
		<g id="XMLID_132_">
			<path id="XMLID_138_" class="st1" d="M245.9,96.8c-7.6-0.3-15.1-0.1-22.7,0.6c-2.9,0.3-3.2,4.9,0,4.6c7.1-0.7,14.3-0.9,21.4-0.6
				C247.5,101.5,249.1,96.9,245.9,96.8L245.9,96.8z"/>
		</g>
	</g>
	<g id="XMLID_66_">
		<g id="XMLID_139_">
			<path id="XMLID_145_" class="st1" d="M248.9,109.7c-7.4-0.2-14.9-0.4-22.3-0.6c-1.3,0-4.9,3.2-3,3.3c7.4,0.2,14.9,0.4,22.3,0.6
				C247.2,113,250.7,109.7,248.9,109.7L248.9,109.7z"/>
		</g>
	</g>
	<g id="XMLID_73_">
		<g id="XMLID_146_">
			<path id="XMLID_152_" class="st1" d="M246.9,116.2c-6.9-0.2-13.8-0.3-20.8-0.2c-3,0-4,4.3-0.7,4.3c6.9-0.1,13.8,0,20.8,0.2
				C249.2,120.5,250.2,116.3,246.9,116.2L246.9,116.2z"/>
		</g>
	</g>
	<g id="XMLID_80_">
		<g id="XMLID_153_">
			<path id="XMLID_159_" class="st1" d="M246,122.1c-7.4,0.6-14.9,0.9-22.3,0.9c-0.1,0,0.9,4.5,2.1,4.5c7.4,0,14.9-0.3,22.3-0.9
				C248.3,126.6,247.2,122,246,122.1L246,122.1z"/>
		</g>
	</g>
	<g id="XMLID_87_">
		<g id="XMLID_160_">
			<path id="XMLID_166_" class="st1" d="M209.8,134.1c-10.1,0.5-20.1,1-30.2,1.5c-1.7,0.1-4.7,1.2-1.2,1c10.1-0.5,20.1-1,30.2-1.5
				C210.3,135,213.3,133.9,209.8,134.1L209.8,134.1z"/>
		</g>
	</g>
	<g id="XMLID_94_">
		<g id="XMLID_167_">
			<path id="XMLID_173_" class="st1" d="M206.5,141.2c0.5,0.1,0.9,0.1,1.4,0.2c-0.4-1.5-0.8-3-1.2-4.5c-9.1,0.8-18.1,1.2-27.3,1.3
				c-2,0-0.2,4.6,1.6,4.6c9.1-0.1,18.2-0.6,27.3-1.3c2.1-0.2,0.2-4.3-1.2-4.5c-0.5-0.1-0.9-0.1-1.4-0.2
				C203.2,136.4,204.8,141,206.5,141.2L206.5,141.2z"/>
		</g>
	</g>
	<g id="XMLID_101_">
		<g id="XMLID_174_">
			<path id="XMLID_180_" class="st1" d="M206.8,144.7c-9.6,0.2-19.1,0.5-28.7,0.7c-0.3,0,1.9,3.7,3.2,3.6c9.6-0.2,19.1-0.5,28.7-0.7
				C210.3,148.3,208.1,144.7,206.8,144.7L206.8,144.7z"/>
		</g>
	</g>
	<g id="XMLID_108_">
		<g id="XMLID_181_">
			<path id="XMLID_187_" class="st1" d="M208,151.8c-9.7,0.2-19.5,0.5-29.2,1c-1.8,0.1,0.2,4.6,1.8,4.5c9.7-0.5,19.5-0.8,29.2-1
				C211.6,156.3,209.7,151.7,208,151.8L208,151.8z"/>
		</g>
	</g>
	<g id="XMLID_115_">
		<g id="XMLID_188_">
			<path id="XMLID_194_" class="st1" d="M207.7,161.5c-9.3,0.7-18.6,1.2-27.9,1.4c-2.7,0.1,0.9,3.1,2.4,3.1
				c9.3-0.2,18.6-0.7,27.9-1.4C212.9,164.4,209.2,161.4,207.7,161.5L207.7,161.5z"/>
		</g>
	</g>
	<g id="XMLID_122_">
		<g id="XMLID_195_">
			<path id="XMLID_201_" class="st1" d="M209.3,167.7c-10.2,0.5-20.3,0.9-30.5,1.4c-0.2,0,1,4.5,2.3,4.4c10.2-0.5,20.3-0.9,30.5-1.4
				C211.8,172.2,210.6,167.7,209.3,167.7L209.3,167.7z"/>
		</g>
	</g>
	<g id="XMLID_129_">
		<g id="XMLID_202_">
			<path id="XMLID_208_" class="st1" d="M255.9,130.3c-10.4,0.1-20.8,0.2-31.1,0.3c-1.3,0-2.3,0.7-2.3,2
				c-0.2,13.6-0.3,27.1-0.5,40.7c0,1.2,1.4,2.4,2.5,2.4c10.6-0.2,21.2-0.3,31.9-0.1c3.2,0,2.6-4.4-0.3-4.5
				c-10.6-0.1-21.2-0.1-31.9,0.1c0.8,0.8,1.7,1.6,2.5,2.4c0.2-13.6,0.3-27.1,0.5-40.7c-0.8,0.7-1.5,1.4-2.3,2
				c10.4-0.1,20.8-0.2,31.1-0.3C259.4,134.8,258.8,130.3,255.9,130.3L255.9,130.3z"/>
		</g>
	</g>
	<g id="XMLID_136_">
		<g id="XMLID_209_">
			<path id="XMLID_215_" class="st1" d="M162.3,34.7c-4.1,0.3-8.2,0.6-12.4,0.9c-0.9,0.1-3.9,1.4-3.8,2.6c3.1,33.4,8,66.6,14.6,99.5
				c0.1,0.6,4.5-1.3,4.2-2.7c-6.6-32.8-11.4-65.8-14.5-99.1c-1.3,0.9-2.5,1.7-3.8,2.6c4.1-0.3,8.2-0.6,12.4-0.9
				C160.2,37.6,163.6,34.6,162.3,34.7L162.3,34.7z"/>
		</g>
	</g>
	<g id="XMLID_143_">
		<g id="XMLID_216_">
			<path id="XMLID_222_" class="st1" d="M173.5,184.3c0.6,5,1.6,9.9,2.9,14.8c0.3,1,3.8,1.6,4.7,1.6c26.3-1.5,52.6-2.9,78.8-4.4
				c-0.6,0-3.1-1.7-4.5-1.6c-26.3,1.5-52.6,2.9-78.8,4.4c1.6,0.5,3.1,1,4.7,1.6c-1.3-4.9-2.3-9.8-2.9-14.8
				C178.1,184.7,173.5,184.4,173.5,184.3L173.5,184.3z"/>
		</g>
	</g>
	<g id="XMLID_150_">
		<g id="XMLID_223_">
			<path id="XMLID_229_" class="st1" d="M100.5,89.8c-36.2-8.2-72.6-15-109.3-20.4c-3.1-0.5-1.8,4,0.5,4.3
				C28.4,79.2,64.8,86,101,94.2C104,94.8,102.8,90.3,100.5,89.8L100.5,89.8z"/>
		</g>
	</g>
	<g id="XMLID_157_">
		<g id="XMLID_230_">
			<path id="XMLID_236_" class="st1" d="M99.6,93.3c-12.4,25.5-14.2,54-20.1,81.4c-3.1,14.2-7.9,27.9-12.1,41.8
				c-2.1,6.9-4,14-5.2,21.1c-0.6,3.6-1.1,7.1-1.4,10.7c-0.2,2-0.9,4.6,0.4,6.3c0.8,1.1,2.7,1.1,3.9,0.7c0.2-0.1,0.3-0.1,0.5-0.2
				c0.6-0.2,0.9-0.8,0.8-1.4c0-0.1-0.1-0.3-0.1-0.4c-0.4-1.9-5.4-1.9-4.9,0.4c0,0.1,0.1,0.3,0.1,0.4c0.3-0.5,0.5-1,0.8-1.4
				c-0.2,0.1-0.3,0.1-0.5,0.2c1.3,0.2,2.6,0.5,3.9,0.7c-1.1-1.5,0.4-7.2,0.6-9.2c0.4-3.3,1-6.5,1.7-9.8c1.4-6.8,3.3-13.5,5.3-20.2
				c4.1-13.3,8.5-26.4,11.5-40c5.7-26.8,7.5-54.7,19.7-79.7C105.3,92.5,100.4,91.5,99.6,93.3L99.6,93.3z"/>
		</g>
	</g>
	<g id="XMLID_164_">
		<g id="XMLID_237_">
			<path id="XMLID_243_" class="st1" d="M98.5,101.9c3.4,0.2,6.8,0.4,10.3,0.7c-0.6-0.3-1.2-0.5-1.9-0.8
				c-7.7,28.4-16.4,56.4-26,84.2c-0.3,0.7,4.5,1.3,5-0.2c9.7-27.7,18.4-55.8,26-84.2c0.2-0.6-1.6-0.8-1.9-0.8
				c-3.4-0.2-6.8-0.4-10.3-0.7C97.8,100.1,95.1,101.7,98.5,101.9L98.5,101.9z"/>
		</g>
	</g>
	<g id="XMLID_171_">
		<g id="XMLID_244_">
			<path id="XMLID_250_" class="st1" d="M2.9,83.6c-2.4-0.2-4.7-0.6-7-1.2c-1.1-0.3-2.6-0.2-3,1.1c-0.4,1.1,0.6,2.4,1.7,2.7
				c2.7,0.7,5.5,1.2,8.3,1.5C6.1,87.9,5.8,83.8,2.9,83.6L2.9,83.6z"/>
		</g>
	</g>
	<g id="XMLID_178_">
		<g id="XMLID_251_">
			<path id="XMLID_257_" class="st1" d="M1.5,91.1c-2.1-0.7-4.3-1.4-6.4-2.1c-1-0.3-2.5-0.5-3,0.6c-0.5,1.1,0.7,2.3,1.6,2.6
				c2.1,0.7,4.3,1.4,6.4,2.1c1,0.3,2.5,0.5,3-0.6C3.6,92.7,2.5,91.5,1.5,91.1L1.5,91.1z"/>
		</g>
	</g>
	<g id="XMLID_185_">
		<g id="XMLID_258_">
			<path id="XMLID_264_" class="st1" d="M-2.6,100.1c-1-0.4-2.1-0.8-3.1-1.2c-0.8-0.3-2.5-0.4-2.8,0.6c-0.4,1.1,1.2,1.9,1.9,2.2
				c1,0.4,2.1,0.8,3.1,1.2c0.8,0.3,2.5,0.4,2.8-0.6C-0.3,101.1-1.8,100.4-2.6,100.1L-2.6,100.1z"/>
		</g>
	</g>
	<g id="XMLID_192_">
		<g id="XMLID_265_">
			<path id="XMLID_271_" class="st1" d="M7.1,86.9c-3,5.6-5.6,11.3-8,17.1c-0.1,0.3,4.5,1.4,5,0.2c2.4-5.8,5-11.5,8-17.1
				C12.2,87,7.8,85.8,7.1,86.9L7.1,86.9z"/>
		</g>
	</g>
	<g id="XMLID_199_">
		<g id="XMLID_272_">
			<path id="XMLID_278_" class="st1" d="M7.9,89.6c0.6,6.5,1.8,12.8,3.7,19c0.2,0.8,4.8-1,4.5-2.2c-1.9-6.2-3.1-12.6-3.7-19
				C12.3,86.8,7.7,88.2,7.9,89.6L7.9,89.6z"/>
		</g>
	</g>
	<g id="XMLID_206_">
		<g id="XMLID_279_">
			<path id="XMLID_285_" class="st1" d="M13.4,100c-2.6-0.5-5.3-1-7.9-1.4C4.6,98.4,2.9,98,2,98.5c-0.8,0.5,0.3,0.7,0.8,0.8
				c2.6,0.5,5.3,1,7.9,1.4c0.9,0.2,2.6,0.6,3.4,0.1C15,100.3,13.9,100.1,13.4,100L13.4,100z"/>
		</g>
	</g>
	<g id="XMLID_213_">
		<g id="XMLID_286_">
			<path id="XMLID_292_" class="st1" d="M19.1,89.7c-1.3,6.3-2,12.7-2.1,19.2c0,0.6,4.8,0,4.8-1.3c0-6.3,0.7-12.6,2-18.8
				C24.1,87.9,19.4,88.6,19.1,89.7L19.1,89.7z"/>
		</g>
	</g>
	<g id="XMLID_220_">
		<g id="XMLID_293_">
			<path id="XMLID_299_" class="st1" d="M29.3,91.4c-2.6,1.7-5.4,2.8-8.5,3c-3.2,0.2-3,4.7,0.1,4.5c3.9-0.3,7.6-1.3,10.9-3.5
				C34.4,93.7,31.7,89.9,29.3,91.4L29.3,91.4z"/>
		</g>
	</g>
	<g id="XMLID_227_">
		<g id="XMLID_300_">
			<path id="XMLID_306_" class="st1" d="M20.2,98.2c2.7,3.7,4.9,7.6,6.6,11.8c0.5,1.2,5.2-0.4,4.8-1.4c-1.8-4.2-4-8.1-6.6-11.8
				C24.1,95.7,19.8,97.6,20.2,98.2L20.2,98.2z"/>
		</g>
	</g>
	<g id="XMLID_234_">
		<g id="XMLID_307_">
			<path id="XMLID_313_" class="st1" d="M35.6,93.4c-1.9,5.6-3.4,11.2-4.7,17c-0.6,2.6,3.8,4.7,4.5,1.7c1.3-5.7,2.8-11.4,4.7-17
				C40.9,92.6,36.5,90.5,35.6,93.4L35.6,93.4z"/>
		</g>
	</g>
	<g id="XMLID_241_">
		<g id="XMLID_314_">
			<path id="XMLID_320_" class="st1" d="M41.8,95.7c-0.7,5.4-1.8,10.6-3.5,15.7c-0.6,1.6,3.8,4,4.2,2.7c1.8-5.3,3-10.7,3.7-16.3
				C46.4,96.3,42,94,41.8,95.7L41.8,95.7z"/>
		</g>
	</g>
	<g id="XMLID_248_">
		<g id="XMLID_321_">
			<path id="XMLID_327_" class="st1" d="M45,100c1.2,1.4,1.8,4.4,2.6,6.2c1.1,2.4,2.2,4.7,3.4,6.9c0.2,0.4,2.4,3.4,2.5,2.7
				c1-5.4,2.6-10.5,5-15.5c0.6-1.2-2.8-4.2-2.8-4.2c-2.4,5-4.2,10.3-5.2,15.8c0.8,0.9,1.7,1.8,2.5,2.7c-1.8-3.4-3.5-6.9-5-10.5
				c-1-2.5-2-4.8-3.9-6.8C42.4,95,44.3,99.2,45,100L45,100z"/>
		</g>
	</g>
	<g id="XMLID_255_">
		<g id="XMLID_328_">
			<path id="XMLID_334_" class="st1" d="M76,101.3c-6.2-5.4-16.8,0.7-19.7,7.1c-3.9,8.5,7.6,11.1,13.4,8c2.9-1.6,0-4.3-2.5-3
				c-1.1,0.6-4,0.4-5.1-0.1c-2.5-1-1.7-3.8-0.5-5.5c1.7-2.4,7.3-6.6,10.2-4C73.7,105.5,78,103,76,101.3L76,101.3z"/>
		</g>
	</g>
	<g id="XMLID_262_">
		<g id="XMLID_335_">
			<path id="XMLID_341_" class="st1" d="M73.3,108.3c-2.8-0.6-5.5-0.9-8.3-0.9c-1.2,0-2.1,1.2-1.9,2.4c0.3,1.4,1.7,2,2.9,2
				c2.4,0,4.7,0.4,7.1,0.9c1.2,0.3,2.5-0.6,2.6-1.8C75.7,109.4,74.4,108.5,73.3,108.3L73.3,108.3z"/>
		</g>
	</g>
	<g id="XMLID_269_">
		<g id="XMLID_342_">
			<path id="XMLID_348_" class="st1" d="M69.2,112.3c-0.8,2.6-1.6,5.2-2.4,7.7c-0.3,0.8,1.8,0,2-0.1c0.8-0.4,2.1-1,2.4-2
				c0.8-2.6,1.6-5.2,2.4-7.7c0.3-0.8-1.8,0-2,0.1C70.8,110.7,69.4,111.3,69.2,112.3L69.2,112.3z"/>
		</g>
	</g>
	<g id="XMLID_276_">
		<g id="XMLID_349_">
			<path id="XMLID_355_" class="st1" d="M70.3,129.2c-2.4-8.4-22.9-8-20.7,2.1c1,4.7,6.7,4.8,10.4,5.5c2.1,0.4,4.1,0.4,5,2.7
				c0.8,2.2-0.1,5.5-1.3,7.3c-3.1,4.5-12.9,6.5-12.3-2.5c0.1-1.5-4.1-3.9-4.2-2.4c-0.8,11.8,17.8,17.8,21.8,5.3
				c1.5-4.8-0.4-10.3-5.2-12.3c-1.2-0.5-2.6-0.8-3.9-1.1c-0.5-0.1-6.1-0.6-6.3-1c-1.3-2,4-5.2,5-5.6c0.8-0.3,7.3-1,7.7,0.3
				C66.5,128.8,70.8,131,70.3,129.2L70.3,129.2z"/>
		</g>
	</g>
	<g id="XMLID_283_">
		<g id="XMLID_356_">
			<path id="XMLID_362_" class="st1" d="M46.2,121.9c-4.6,8.3-9.7,16.2-15.2,23.8c1.5,0.2,2.9,0.4,4.4,0.6c-1-3.7-1.7-7.3-2.1-11.1
				c-0.2-2.3-3.3-1.8-4.4-0.6c-2.9,3.3-5.7,6.6-8.6,10c1.5,0.4,2.9,0.8,4.4,1.2c0.2-10.3,1.2-20.5,2.8-30.7c0.5-3-4.4-2.8-4.8-0.1
				c-1.6,10.2-2.6,20.4-2.8,30.7c-0.1,2.6,3,2.8,4.4,1.2c2.9-3.3,5.7-6.6,8.6-10c-1.5-0.2-2.9-0.4-4.4-0.6c0.4,3.8,1.1,7.4,2.1,11.1
				c0.6,2,3.2,2.2,4.4,0.6c5.8-8,11.1-16.3,15.8-24.9C52.2,120.3,47.5,119.4,46.2,121.9L46.2,121.9z"/>
		</g>
	</g>
	<g id="XMLID_290_">
		<g id="XMLID_363_">
			<path id="XMLID_369_" class="st1" d="M17.6,114c-4.1-0.9-8.5-2.3-12.7-2.7c-1.7-0.1-2.8,0-3.7,1.7c-1.4,2.8-1,7.4-1.5,10.4
				c-0.7,4.6-1.6,9.2-2.6,13.8c-0.3,1.6,0.7,3.6,2.5,3.5c3.9-0.2,7.4,0.3,11.1,1.7c2.9,1.1,2.7-3.6,0.3-4.6c-4-1.5-7.9-2.1-12.2-1.9
				c0.8,1.2,1.7,2.3,2.5,3.5c1.2-5.5,2.3-11.1,3.1-16.8c0.4-2.6-0.2-6,2.8-6.3c2.8-0.2,7.3,1.5,10,2.1
				C20.4,119.2,20.2,114.5,17.6,114L17.6,114z"/>
		</g>
	</g>
	<g id="XMLID_297_">
		<g id="XMLID_370_">
			<path id="XMLID_376_" class="st1" d="M10.1,125.9c-3-0.4-5.9-1.1-8.8-2c-1.1-0.4-2.6-0.2-3.3,0.9c-0.6,1.1,0.2,2.4,1.3,2.8
				c3.3,1.1,6.7,1.9,10.1,2.4C12.6,130.4,13.2,126.3,10.1,125.9L10.1,125.9z"/>
		</g>
	</g>
	<g id="XMLID_304_">
		<g id="XMLID_377_">
			<path id="XMLID_383_" class="st1" d="M62.6,161.9c-13.4-3.2-27.6-2.7-40.5-8.1c-1.4-0.6-2.3,1.3-0.9,1.9
				c13.1,5.5,27.5,5,41.2,8.3C64,164.3,64.1,162.2,62.6,161.9L62.6,161.9z"/>
		</g>
	</g>
	<g id="XMLID_311_">
		<g id="XMLID_384_">
			<path id="XMLID_390_" class="st1" d="M59.3,166.2c-12.1-0.2-24-2.1-35.6-5.7c-1.4-0.4-2.3,1.7-0.8,2.2
				c11.8,3.7,23.9,5.6,36.2,5.8C60.7,168.4,61,166.2,59.3,166.2L59.3,166.2z"/>
		</g>
	</g>
	<g id="XMLID_318_">
		<g id="XMLID_391_">
			<path id="XMLID_397_" class="st1" d="M59.2,174c-12.3-1-24.2-3.4-35.9-7.4c-1.5-0.5-2,1.6-0.6,2.1c11.8,4,24,6.6,36.5,7.5
				C60.9,176.4,60.7,174.1,59.2,174L59.2,174z"/>
		</g>
	</g>
	<g id="XMLID_325_">
		<g id="XMLID_398_">
			<path id="XMLID_404_" class="st1" d="M56.4,180.1c-11-2-22-4-33.1-6c-1.6-0.3-1.2,1.4,0.1,1.6c11,2,22,4,33.1,6
				C58.1,182,57.7,180.3,56.4,180.1L56.4,180.1z"/>
		</g>
	</g>
	<g id="XMLID_332_">
		<g id="XMLID_405_">
			<path id="XMLID_411_" class="st1" d="M57.6,185.9c-11.6-2.1-23.1-4.3-34.6-6.8c-1-0.2-2.7,1.6-1.4,1.8
				c11.5,2.5,23.1,4.7,34.6,6.8C57.2,187.9,58.9,186.1,57.6,185.9L57.6,185.9z"/>
		</g>
	</g>
	<g id="XMLID_339_">
		<g id="XMLID_412_">
			<path id="XMLID_418_" class="st1" d="M-6.2,147.8c4.9,0.8,9.9,1.6,14.8,2.4c2.2,0.4,6.2-0.1,6.7,2.9c0.3,1.7-1.4,5-1.9,6.7
				c-3,10.1-6,20.2-9,30.3c0.4-0.1,0.9-0.1,1.3-0.2c-4.4-0.7-8.7-1.6-13-2.7c-0.6-0.1-2.8,0-1.3,0.4c4.7,1.2,9.4,2.2,14.2,3
				c0.2,0,1.2,0.2,1.3-0.2c1.9-6.3,3.7-12.6,5.6-18.9c0.9-3.2,1.9-6.3,2.8-9.5c0.7-2.4,2.6-6,2.5-8.6c-0.1-2.4-1.7-2.6-3.8-3
				c-6.4-1.2-12.9-2.1-19.4-3.2C-6.4,147.1-7.9,147.5-6.2,147.8L-6.2,147.8z"/>
		</g>
	</g>
	<g id="XMLID_346_">
		<g id="XMLID_419_">
			<path id="XMLID_425_" class="st1" d="M56.2,193.4c-6.5-1-13.1-1.9-19.6-2.8c-3.1-0.4-6.2-0.8-9.4-1.2c-1.4-0.2-6.4-1.6-7.6-0.7
				c-1.5,1.1-1.5,5.3-1.9,7c-0.7,3.2-1.3,6.4-2,9.6c-1.4,7-2.9,14-4.3,21c-0.1,0.6,1.8,1.6,1.8,1.7c1.3-6.4,2.6-12.8,3.9-19.1
				c0.7-3.2,1.3-6.4,2-9.6c0.3-1.7,0.5-7.1,1.8-8.4c1.7-1.6,6.8,0.1,8.9,0.4c2.8,0.4,5.6,0.7,8.4,1.1c6.6,0.9,13.1,1.8,19.6,2.8
				C57.7,195.2,56.9,193.5,56.2,193.4L56.2,193.4z"/>
		</g>
	</g>
	<g id="XMLID_353_">
		<g id="XMLID_426_">
			<path id="XMLID_432_" class="st1" d="M55.6,195.2c-1.7,5.5-3.3,10.9-5,16.4c-0.9,3-1.8,6.1-2.8,9.1c-0.8,2.5-1.2,5.9-2.5,8.2
				c-1.6,3-4.3,1.6-7.3,1c-2.8-0.5-5.6-1.1-8.4-1.6c-5.9-1.1-11.9-2.3-17.8-3.5c-1.5-0.3-1.7,0.9-0.2,1.2c7.2,1.4,14.3,2.8,21.5,4.2
				c3.3,0.6,6.9,1.7,10.3,1.9c1,0.1,2.2,0.4,3.1-0.3c1.3-0.9,1.5-3.2,1.9-4.4c1-3.3,2-6.7,3-10c2.2-7.3,4.4-14.5,6.6-21.8
				C58.3,194.8,55.9,194.3,55.6,195.2L55.6,195.2z"/>
		</g>
	</g>
	<g id="XMLID_360_">
		<g id="XMLID_433_">
			<path id="XMLID_439_" class="st1" d="M45.7,237.8c-6.5-0.4-13-0.8-19.5-1.5c-1.6-0.2-16.4-1-16.6-2.2c-0.2-1.4-2.7-1.4-2.5,0.1
				c0.2,1.2,0.6,1.6,1.7,2.1c2.9,1.6,8.9,1.3,12.1,1.6c8.3,0.9,16.6,1.6,24.9,2C47.3,240.1,47.2,237.8,45.7,237.8L45.7,237.8z"/>
		</g>
	</g>
	<g id="XMLID_367_">
		<g id="XMLID_440_">
			<path id="XMLID_446_" class="st1" d="M43.6,243.2c-5.8-0.6-11.6-1.2-17.4-1.8c-2.6-0.3-5.1-0.5-7.7-0.8
				c-1.6-0.2-9.6-0.1-10.5-1.7c-0.5-0.9-2.7,0.3-2.2,1.1c0.8,1.5,2.2,1.3,3.9,1.5c3.5,0.4,7.1,0.7,10.6,1.1
				c7.4,0.8,14.8,1.5,22.2,2.3C43.5,245.1,45.1,243.4,43.6,243.2L43.6,243.2z"/>
		</g>
	</g>
	<g id="XMLID_374_">
		<g id="XMLID_447_">
			<path id="XMLID_453_" class="st1" d="M44,250.2c-5.6-0.6-11.3-1.2-16.9-1.8c-2.5-0.3-5-0.5-7.5-0.8c-3.1-0.3-8.5-0.1-11.2-1.7
				c-0.6-0.3-2.3,0.3-2.4,0.3c4.1,2.4,11,1.7,15.6,2.2c6.9,0.7,13.8,1.5,20.7,2.2C42.6,250.7,45,250.3,44,250.2L44,250.2z"/>
		</g>
	</g>
	<g id="XMLID_381_">
		<g id="XMLID_454_">
			<path id="XMLID_460_" class="st1" d="M6.3,197.9c-3.7-1.3-7.5-2.5-11.2-3.8c-0.8-0.3-2.9,1.1-1.8,1.4c3.7,1.3,7.5,2.5,11.2,3.8
				C5.4,199.6,7.4,198.2,6.3,197.9L6.3,197.9z"/>
		</g>
	</g>
	<g id="XMLID_388_">
		<g id="XMLID_461_">
			<path id="XMLID_467_" class="st1" d="M4.4,203.6c-3-0.2-5.9-1.1-8.7-2.4c-0.4-0.2-1.2-0.3-1.7-0.2c-0.1,0-0.9,0.1-0.5,0.3
				c3.4,1.6,7,2.4,10.8,2.8C5.8,204.2,5.9,203.7,4.4,203.6L4.4,203.6z"/>
		</g>
	</g>
	<g id="XMLID_395_">
		<g id="XMLID_468_">
			<path id="XMLID_474_" class="st1" d="M4.8,209.8c-3.1-1.1-6.1-2.2-9.2-3.3c-1.3-0.5-2.8,1.5-1.3,2c3.1,1.1,6.1,2.2,9.2,3.3
				C4.7,212.3,6.2,210.3,4.8,209.8L4.8,209.8z"/>
		</g>
	</g>
	<g id="XMLID_402_">
		<g id="XMLID_475_">
			<path id="XMLID_481_" class="st1" d="M0.3,214.4c-2.4-0.4-4.8-1-7.2-1.8c-0.3-0.1,0.1,0.9,0.2,0.9c0.2,0.4,0.5,1.1,1,1.2
				c2.3,0.8,4.7,1.4,7.2,1.8C1.6,216.6,0.9,214.5,0.3,214.4L0.3,214.4z"/>
		</g>
	</g>
	<g id="XMLID_409_">
		<g id="XMLID_482_">
			<path id="XMLID_488_" class="st1" d="M-2.4,220.2c-1.8-0.5-3.6-1-5.4-1.6c0,0,0.4,1,0.5,1.2c0.1,0.3,0.4,0.9,0.7,1
				c1.8,0.5,3.6,1,5.4,1.6c0,0-0.4-1-0.5-1.2C-1.8,221-2,220.3-2.4,220.2L-2.4,220.2z"/>
		</g>
	</g>
	<g id="XMLID_416_">
		<g id="XMLID_489_">
			<path id="XMLID_495_" class="st1" d="M-2.6,225.7c-1.5-0.3-3.1-0.7-4.6-1c-0.6-0.1-1.1,0.4-1.1,1c0,0.7,0.6,1.2,1.2,1.3
				c1.5,0.3,3.1,0.7,4.6,1c0.6,0.1,1.1-0.4,1.1-1C-1.4,226.3-2,225.8-2.6,225.7L-2.6,225.7z"/>
		</g>
	</g>
	<g id="XMLID_423_">
		<g id="XMLID_496_">
			<path id="XMLID_503_" class="st1" d="M10.1,157.7c0-0.1,0-0.2,0-0.4c-1.9,1.5-3.8,3-5.7,4.4c0.1,0,0.1,0,0.2,0
				c-1.4-1-2.8-1.9-4.2-2.9c-0.2-0.6-1.9,4.4-2.1,5.3c-0.8,3-1.5,6-2.1,9c-0.7,3.6-2.8,9.3,0.6,12.2c2.4,2,6.9,1.4,8.5-1.3
				c4.5-7.8,7.9-16.1,10.2-24.7c1.3-4.9-8.6-4.9-9.8-0.4c-2.2,8.1-5.4,15.6-9.5,22.9c2.8-0.4,5.7-0.9,8.5-1.3
				c0.3,0.9,0.4,0.5,0.4-1.3c0.2-1.2,0.4-2.4,0.6-3.6c0.4-2.4,1-4.8,1.5-7.2c0.5-2.2,0.9-4.6,1.7-6.7c0.4-1.1,1.8-2.7,1.3-4.1
				c-0.6-1.8-2.2-2.9-4.2-2.9c-0.1,0-0.1,0-0.2,0c-2.6,0-5.8,1.4-5.7,4.4c0,0.1,0,0.2,0,0.4C0.4,164,10.3,162.6,10.1,157.7
				L10.1,157.7z"/>
		</g>
	</g>
	<g id="XMLID_430_">
		<g id="XMLID_504_">
			<path id="XMLID_511_" class="st1" d="M11.8,153.3c-4.3-1.3-8.7-2.2-13.1-2.6c-2.9-0.3-7.3,1.9-6.5,5.5c1.1,5.1,1.6,10.2,1.3,15.4
				c-0.4,5.9,9.2,4.5,9.5-0.5c0.4-5.9,0-11.7-1.3-17.5c-2.2,1.8-4.4,3.7-6.5,5.5c4.5,0.4,8.8,1.3,13.1,2.6
				C13.1,163.1,17.8,155.1,11.8,153.3L11.8,153.3z"/>
		</g>
	</g>
	<g id="XMLID_437_">
		<g id="XMLID_512_">
			<path id="XMLID_524_" class="st1" d="M7.3,155.6c0.1,0.7,0.8,1.3,1.4,1.6c1.8,1,7.4,2.2,8.4-0.6c1.6-4.4-2.9-5.2-6.2-5.9
				c-5.1-1.2-10.1-2-15.4-2.4c-1.6-0.1-5,0.2-5.2,2.4c-0.1,2.2,3.3,3,4.8,3.1c2.9,0.2,5.8,0.4,8.7,1c1.2,0.2,2.4,0.6,3.7,0.9
				c0.5,0.1,4.6,1.3,2.1,0.4c-0.7-0.6-1.5-1.2-2.2-1.8c0.1,0.1,0.1,0.2,0.2,0.3c2.8-0.2,5.6-0.4,8.4-0.6c0.3,0.3,0.6,0.6,1,1
				C16.4,151.4,6.5,151.3,7.3,155.6L7.3,155.6z"/>
		</g>
	</g>
	<g id="XMLID_444_">
		<g id="XMLID_526_">
			<path id="XMLID_537_" class="st1" d="M-1.1,181.3c-0.1,0.4-0.1,0.7-0.2,1.1c0,0.1,0,0.3-0.1,0.4c0,0.4-0.1,0.3,0-0.2
				c1.1-0.8,2.2-1.7,3.4-2.5c0.5,0.1,0.5,0.1,0.2,0.1c-0.2,0-0.5-0.1-0.7-0.1c-0.5-0.1-1-0.1-1.5-0.2c-1-0.1-1.9-0.3-2.9-0.5
				c-2.3-0.4-4.7,1-4.7,3.5c0,2.4,1.7,5.2,4.2,5.7c2.1,0.4,4.3,0.7,6.4,0.9c1.9,0.2,3.6-0.7,4.2-2.6c0.4-1.1,0.4-2.4,0.6-3.5
				c0.4-2.4-1.9-5.2-4.2-5.7C1,177.3-0.7,178.8-1.1,181.3L-1.1,181.3z"/>
		</g>
	</g>
	<g id="XMLID_451_">
		<g id="XMLID_538_">
			<path id="XMLID_545_" class="st1" d="M41.9,201c-0.9-0.6-1.8-1.1-2.8-1.5c-0.5-0.2-1.3-0.2-1.7,0.2c-0.4,0.4,0,0.9,0.4,1.1
				c0.8,0.4,1.6,0.8,2.3,1.3c0.5,0.3,1.2,0.4,1.8,0.1C42.3,201.8,42.4,201.3,41.9,201L41.9,201z"/>
		</g>
	</g>
	<g id="XMLID_458_">
		<g id="XMLID_640_">
			<path id="XMLID_655_" class="st1" d="M41.3,201.4c-0.4,0.5-0.7,1.1-1,1.7c-0.1,0.3-0.2,0.7-0.3,1c0.1,0.4-0.1,0.5-0.3,0.3
				c-0.2,0-0.5-0.1-0.7-0.3c-1.4-0.6-2.7-1.2-4.2-1.6c-0.1,0,0.3,1,0.6,1.1c0.9,0.2,1.7,0.5,2.5,0.8c0.5,0.2,1,0.4,1.5,0.7
				c0.1,0,0.7,0.5,0.8,0.4c0.4-0.1,0.3,0.1,0.4-0.5c0.3-0.9,0.7-1.8,1.2-2.6C42.1,202.2,41.3,201.3,41.3,201.4L41.3,201.4z"/>
		</g>
	</g>
	<g id="XMLID_472_">
		<g id="XMLID_546_">
			<path id="XMLID_626_" class="st1" d="M39.4,205.7c1.3,2.2,2,4.5,1.2,7c-0.7,2-2.3,2.9-3.5,4.4c-2.9,3.6-2,8.3-4.7,12
				c0,0,1,0.1,1.2-0.1c2.6-3.5,2-7.7,4.4-11.4c1-1.5,2.5-2.3,3.4-3.9c1.5-2.8,0.9-5.6-0.7-8.2C40.5,205.3,39.4,205.7,39.4,205.7
				L39.4,205.7z"/>
		</g>
	</g>
	<g id="XMLID_479_">
		<g id="XMLID_547_">
			<path id="XMLID_553_" class="st1" d="M34,202.9c-2.7,0.3-4,1.6-5.4,4c-1.5,2.7-0.8,4.5-0.8,7.5c-0.2,7-8.1,6.6-10.2,12.4
				c-0.1,0.2,1.1,0.5,1.2,0.2c1.7-4.6,6.6-4.4,9-8.1c3-4.8-1.9-14.4,7.1-15.6C35.4,203.2,34.3,202.8,34,202.9L34,202.9z"/>
		</g>
	</g>
	<g id="XMLID_486_">
		<g id="XMLID_554_">
			<path id="XMLID_560_" class="st1" d="M252.1,147.8c-0.1,1.6-0.3,3.2-0.6,4.8c-0.4,1.8-1.5,2.7-3.2,3.3c-1,0.4,0.3,2.5,1.1,2.2
				c1.6-0.6,3-1.3,3.6-3c0.7-1.8,0.8-3.9,1-5.9C254,148.3,252.2,146.7,252.1,147.8L252.1,147.8z"/>
		</g>
	</g>
	<g id="XMLID_493_">
		<g id="XMLID_561_">
			<path id="XMLID_567_" class="st1" d="M254.2,147.5c-2.7-8.1-14.3-4.7-15.1,2.8c-0.5,4.5,6.4,8.4,0.9,11.9
				c-4.1,2.6-7.2,4.3-8.7,9.4c-0.3,1,2.2,1.1,2.4,0.2c1.3-4.5,4.1-6.8,8.2-8.7c1.5-0.7,2.1-0.7,2.6-2.3c0.6-1.7,0.1-3.6-0.7-4.9
				c-1.4-2.3-2.9-3.5-2-6.7c1.2-4.2,8.4-6.3,10-1.2C252.1,148.8,254.6,148.5,254.2,147.5L254.2,147.5z"/>
		</g>
	</g>
	<g id="XMLID_500_">
		<g id="XMLID_568_">
			<path id="XMLID_574_" class="st1" d="M248,156.8c-0.5,1.4-0.8,4,0.7,4.9c1,0.6,2.1,0.6,3.1,1.3c1,0.8,1.7,1.8,2.1,3.1
				c0.3,0.8,2.7,0.5,2.5-0.1c-0.6-1.7-1.6-3.1-3.1-4.1c-0.7-0.4-1.4-0.6-2.1-0.9c-1.4-0.7-1.2-2.7-0.7-4
				C250.7,156.2,248.3,156.1,248,156.8L248,156.8z"/>
		</g>
	</g>
	<g id="XMLID_507_">
		<g id="XMLID_575_">
			<path id="XMLID_581_" class="st1" d="M254.3,166.1c0.8,1.8,0.5,4-0.2,5.8c-0.2,0.5,2.2,1,2.5,0.4c0.7-1.9,0.9-4.2,0.2-6.1
				C256.5,165.6,254.1,165.5,254.3,166.1L254.3,166.1z"/>
		</g>
	</g>
	<g id="XMLID_514_">
		<g id="XMLID_582_">
			<path id="XMLID_588_" class="st1" d="M192.8,99.6c0.6,2.3,1.2,4.7,1.5,7c0.5,3-0.3,3.8-1.3,6.5c-1.4,3.9,1.2,9.4,2.5,13.1
				c0.1,0.2,1.3-0.2,1.2-0.3c-0.9-2.4-1.6-4.8-2.2-7.3c-0.8-3.3-0.6-4,0.7-7.1c1.5-3.6-0.3-8.5-1.3-12.2
				C194,99.1,192.8,99.4,192.8,99.6L192.8,99.6z"/>
		</g>
	</g>
	<g id="XMLID_521_">
		<g id="XMLID_589_">
			<path id="XMLID_595_" class="st1" d="M193.9,99.1c-0.8,0.1-1.9,0.3-2.5,1c-0.7,0.9,0.1,2.3,0.3,3.3c0.2,0.9,0.6,1.9,0.6,2.9
				c0.1,0.4,0.1,0.7-0.2,1c-0.2,0.6-0.4,0.5-0.5-0.2c-0.2-0.3-0.3-0.8-0.4-1.2c-0.6-1.8-1.2-3.7-1.7-5.5c-0.1-0.5-1.3-0.1-1.2,0.3
				c0.5,2.1,1.2,4.1,1.9,6.1c0.3,0.9,0.4,2,1.6,1.7c1.1-0.2,1.7-1.2,1.7-2.2c0.1-0.9-0.3-1.8-0.5-2.7c-0.3-1.3-1.5-3.6,0.6-3.9
				C194.3,99.7,194.7,99,193.9,99.1L193.9,99.1z"/>
		</g>
	</g>
	<g id="XMLID_528_">
		<g id="XMLID_596_">
			<path id="XMLID_602_" class="st1" d="M188.5,100.2c-1.3,0.3-2.4,0.4-2.1,1.9c0.2,1.3,0.9,2.6,1.4,3.8c0.5,1.3,1,2.6,1.4,4
				c0.2,0.7,1.4,0.1,1.1-0.5c-0.6-1.5-1.1-3.1-1.7-4.6c-0.2-0.7-0.5-1.3-0.7-2c-0.4-1-0.7-1.3,0.5-1.6
				C189.1,101.2,189.3,100.1,188.5,100.2L188.5,100.2z"/>
		</g>
	</g>
	<g id="XMLID_535_">
		<g id="XMLID_603_">
			<path id="XMLID_609_" class="st1" d="M189.4,109.2c-1.2,0.4-1.3-0.1-1.9-1.1c-0.3-0.6-0.6-1.1-0.9-1.7c-0.6-1.4-1-2.8-1.2-4.3
				c-0.1-0.7-1.2-0.6-1.1,0.2c0.3,2.3,1.1,4.5,2.3,6.6c1,1.7,1.4,2.1,3.3,1.5C190.6,110.1,190.1,109,189.4,109.2L189.4,109.2z"/>
		</g>
	</g>
	<g id="XMLID_542_">
		<g id="XMLID_610_">
			<path id="XMLID_616_" class="st1" d="M184.4,101.4c-0.7,0.2-2.1,0.4-2.5,1.1c-0.5,1,0.7,3.3,1,4.2c0.9,3.2,1.8,5.4,5,6.7
				c0.7,0.3,0.6-0.9,0.1-1.1c-2.6-1.1-3.4-2.9-4.1-5.4c-0.2-0.7-0.5-1.6-0.6-2.4c-0.2-1.5,0.2-1.7,1.6-2.1
				C185.4,102.3,184.9,101.2,184.4,101.4L184.4,101.4z"/>
		</g>
	</g>
	<g id="XMLID_549_">
		<g id="XMLID_617_">
			<path id="XMLID_623_" class="st1" d="M187.3,112.5c2.5,4.3,3.6,9,4.6,13.8c0.1,0.3,1.2,0.5,1.2,0.4c-1-4.8-2-9.5-4.6-13.8
				C188.3,112.5,187.3,112.4,187.3,112.5L187.3,112.5z"/>
		</g>
	</g>
	<g id="XMLID_556_">
		<g id="XMLID_624_">
			<path id="XMLID_630_" class="st1" d="M203.7,101.5c-3.7,0.1-6.4,4.1-7.6,7.2c-1.2,3-0.5,6.1,2.2,7.9c0.7,0.5,0.5-0.3,0.1-0.6
				c-5.1-3.5,1.1-13.5,6-13.6C204.9,102.3,204.1,101.4,203.7,101.5L203.7,101.5z"/>
		</g>
	</g>
	<g id="XMLID_563_">
		<g id="XMLID_631_">
			<path id="XMLID_637_" class="st1" d="M203.7,102.6c3.5,1.6,2.1,7.7,0.7,10.1c-1.1,1.8-2.8,3-4.7,3.7c-0.4,0.1,0.1,1.3,0.5,1.1
				c4-1.4,6.2-5,6.3-9.2c0.1-2.6-0.4-5.7-3-6.9C203,101.3,203.3,102.5,203.7,102.6L203.7,102.6z"/>
		</g>
	</g>
	<g id="XMLID_570_">
		<g id="XMLID_638_">
			<path id="XMLID_643_" class="st1" d="M199.4,116.7c-0.7,3-1.5,6-2.4,9c-0.1,0.3,0.8,1.1,0.9,0.8c0.9-3,1.8-5.9,2.4-9
				C200.4,117.1,199.5,116.4,199.4,116.7L199.4,116.7z"/>
		</g>
	</g>
	<g id="XMLID_577_">
		<g id="XMLID_644_">
			<path id="XMLID_650_" class="st1" d="M198.9,116.8c0-0.1,0-0.1,0-0.2c0.1-0.5-1-0.4-1.2,0c-1.1,2.1-2.2,4.2-3.4,6.2
				c-0.2,0.4,1,0.4,1.2,0c1.2-2,2.4-4.1,3.4-6.2c-0.4,0-0.8,0-1.2,0c0,0.1,0,0.1,0,0.2C197.5,117.3,198.8,117.3,198.9,116.8
				L198.9,116.8z"/>
		</g>
	</g>
	<g id="XMLID_584_">
		<g id="XMLID_651_">
			<path id="XMLID_657_" class="st1" d="M202,90.3C202,90.3,202,90.2,202,90.3c-0.2,0.1-0.4,0.2-0.5,0.3c0,0,0.1,0,0.1,0
				c-0.2,0-0.4,0-0.7,0c0.2,1.2-0.5,3-0.7,4.2c-0.1,1-0.3,2.1-0.3,3.1c-0.2,2.1-0.2,4.2-0.2,6.3c0,0.2,1.2,0,1.2-0.3
				c0-2.8,0.1-5.5,0.4-8.2C201.5,94,202.4,91.7,202,90.3c0.1-0.3-0.5-0.2-0.6-0.1c0,0-0.1,0-0.1,0c-0.2,0-0.6,0.2-0.5,0.4
				c0,0,0,0.1,0,0.1C200.8,90.9,202.1,90.7,202,90.3L202,90.3z"/>
		</g>
	</g>
	<g id="XMLID_591_">
		<g id="XMLID_658_">
			<path id="XMLID_663_" class="st1" d="M201,90.5c-2.3,1.5-3.7,3.6-4.4,6.3c-0.4,1.8-0.5,3.6-0.6,5.4c-0.1,1.6-0.8,4.3,0.5,5.6
				c0.2,0.2,1.2-0.4,1.2-0.4c-1.5-1.5-0.5-5.7-0.3-7.7c0.3-3.6,1.3-7.1,4.5-9.2C202.3,90.1,201.2,90.4,201,90.5L201,90.5z"/>
		</g>
	</g>
	<g id="XMLID_598_">
		<g id="XMLID_664_">
			<path id="XMLID_670_" class="st1" d="M200.8,117.3c-0.2,2.9-0.3,5.8-0.1,8.7c0,0,1.2-0.2,1.1-0.5c-0.1-2.9-0.1-5.8,0.1-8.7
				C201.9,116.8,200.8,117,200.8,117.3L200.8,117.3z"/>
		</g>
	</g>
	<g id="XMLID_465_">
		<g id="XMLID_671_">
			<path id="XMLID_677_" class="st1" d="M38.8,200.1c0.1-0.8-1.5-1.1-2.1-1.3c-0.3-0.1-0.9,0.1-1,0.4c-0.6,1.2-1.1,2.4-1.7,3.7
				c-0.2,0.5,1,0.2,1.1-0.1c0.6-1.2,1.1-2.4,1.7-3.7c-0.3,0.1-0.7,0.3-1,0.4c0.3,0.1,1.8,0.5,1.8,0.9
				C37.6,200.8,38.8,200.5,38.8,200.1L38.8,200.1z"/>
		</g>
	</g>
	<g id="XMLID_501_">
		<g id="XMLID_678_">
			<path id="XMLID_684_" class="st1" d="M44.6,204.2c0,2-0.2,3.6-0.6,5.5c1.4,0.7,2.8,1.5,4.2,2.2c-0.5-2.2-0.6-4.3-0.6-6.5
				c0-1.2-2.4-3.5-3.7-2.7c-0.4,0.3-0.9,0.5-1.3,0.8c1.2,1.1,2.4,2.1,3.6,3.2c0.2-1.2,0.4-2.4,0.6-3.6c0.3-1.7-3.2-4.7-4.1-2.6
				c-0.7,1.4-1.3,2.8-2,4.2c1.4,0.9,2.8,1.7,4.1,2.6c0.1-0.3,0.2-0.6,0.4-0.9c-1.4-0.7-2.8-1.5-4.2-2.2c0,2.3,1,4.2,1.1,6.4
				c0.1,1.4,4,4.1,4.2,2.2c0.2-2.6-0.4-4.3-2.1-6.3c-0.8-0.9-4.2-2.4-3.4,0.2c2.6,7.5-2.9,11.3-3.9,18.1c-0.3,2.5,0.1,4.5,2.6,5.5
				c8.8,3.6,10-11.2,9.6-16.6c-0.1-1.1-3-4.1-4-2.5c-0.7,1.1-5.3,12-4.7,12.2c0.8,0.6,1.6,1.2,2.4,1.8c-1.4-2.6,1-7.2,2.1-9.6
				c0.7-1.5-2.7-4.2-4-2.9c-2.5,2.6-3.7,5.7-4.9,9.1c1.4,0.9,2.8,1.7,4.1,2.6c0.3-0.9,0.6-1.9,0.8-2.8c0.5-1.7-3.4-4.6-4.1-2.6
				c-0.8,2.3-0.8,6-2.6,7.8c1.3,1,2.6,2,4,2.9c0.6-1.2,0.9-2.2,1.1-3.5c0.3-1.8-3.8-4.6-4.1-2.6c-0.2,1.3-0.5,2.3-1.1,3.5
				c-0.7,1.5,2.7,4.2,4,2.9c2-2.1,2-5.8,2.9-8.5c-1.4-0.9-2.8-1.7-4.1-2.6c-0.3,0.9-0.6,1.9-0.8,2.8c-0.5,1.7,3.4,4.6,4.1,2.6
				c1.1-3.1,2.2-6,4.6-8.4c-1.3-1-2.6-2-4-2.9c-1.9,4.2-5,12.5,1.5,14.3c0.4,0.1,0.9,0,1.2-0.3c2.8-3.3,3-8.9,5.3-12.6
				c-1.3-0.8-2.7-1.7-4-2.5c0.2,3.4-0.5,6.5-1.4,9.8c-0.2,0.9-0.4,2.3-0.9,3.1c-0.5,0.7-2.7,2.4-3.8,1.9c0.8,0.9,1.5,1.7,2.3,2.6
				c-0.8-4.3,2.4-7.8,3.9-11.5c1.4-3.5,0.9-6.8-0.3-10.3c-1.1,0.1-2.2,0.1-3.4,0.2c0.2,0.8,0.5,1.7,0.7,2.5c1.4,0.7,2.8,1.5,4.2,2.2
				c-0.1-2.1-1.1-4.3-1.1-6.4c0-1.4-3.4-4.2-4.2-2.2c-0.1,0.3-0.2,0.6-0.4,0.9c-0.7,1.7,3.2,4.6,4.1,2.6c0.7-1.4,1.3-2.8,2-4.2
				c-1.4-0.9-2.8-1.7-4.1-2.6c-0.2,1.2-0.4,2.4-0.6,3.6c-0.2,1.4,2.2,4.1,3.6,3.2c0.4-0.3,0.9-0.5,1.3-0.8c-1.2-0.9-2.4-1.8-3.7-2.7
				c-0.1,2.2,0.1,4.3,0.6,6.5c0.2,1.1,3.6,4.5,4.2,2.2c0.5-2.1,0.7-4.2,0.7-6.3C48.8,204.2,44.6,201.7,44.6,204.2L44.6,204.2z"/>
		</g>
	</g>
	<g id="XMLID_508_">
		<g id="XMLID_685_">
			<path id="XMLID_691_" class="st1" d="M50.9,201.4C50.9,201.4,50.9,201.4,50.9,201.4c0.6-0.2,0.8-0.5,0.6-1c0,0,0-0.1,0-0.1
				c-0.3-1-3.1-2.8-4.1-1.9c-1.1,0.9-1.6,3-2.1,4.3c1.5,0.7,3,1.4,4.5,2.1c-0.3-2-1.4-4.2,0.7-5.7c1.5-1,3.7-1.1,5.4-1.8
				c-1.4-0.9-2.8-1.7-4.2-2.6c-1.7,3.3-3.1,6.7-3.9,10.3c-0.8,3.4-0.7,7-1.6,10.4c1.5,0.8,2.9,1.6,4.4,2.4c1-4.4,1.6-9.4,3.7-13.5
				c-1.5-0.7-3-1.4-4.5-2.1c0,0.2,0.1,0.5,0.1,0.7c0.1,1.2,4.1,3.5,4.5,2.1c0.3-1.2,0.5-2.4,0.8-3.6c0.4-1.7-4.1-3.6-4.4-2.4
				c-0.3,1.2-0.5,2.4-0.8,3.6c1.5,0.7,3,1.4,4.5,2.1c0-0.2-0.1-0.5-0.1-0.7c-0.1-1.2-3.7-3.6-4.5-2.1c-2.1,4-2.7,9.1-3.7,13.5
				c-0.4,1.7,4,3.7,4.4,2.4c0.9-3.4,0.8-7,1.6-10.4c0.8-3.6,2.2-7,3.9-10.3c0.8-1.6-3.1-3-4.2-2.6c-2.2,0.8-5.4,0.9-7,2.9
				c-1.5,1.9-0.1,3.4,0.3,5.7c0.2,1.1,3.8,3.6,4.5,2.1c0.3-0.7,1.1-3.3,1.7-3.8c-1.4-0.6-2.8-1.3-4.1-1.9c0,0,0,0.1,0,0.1
				c0.2-0.3,0.4-0.7,0.5-1c0,0-0.1,0-0.1,0C45.6,198.9,49.5,201.8,50.9,201.4L50.9,201.4z"/>
		</g>
	</g>
	<g id="XMLID_515_">
		<g id="XMLID_692_">
			<path id="XMLID_698_" class="st1" d="M56.2,197.5c0.1-0.1,0.3-0.3,0.4-0.4c1.2-1.3-2.3-3.4-3.3-3.3c-2.5,0.3-5.1,0.5-7.6,0.1
				c-2.4-0.4-4.6-1.4-7-1.7c-2-0.2-4.1,0-6.1-0.3c-2.6-0.4-5.1-1.3-7.8-1.5c0.7,1.2,1.5,2.4,2.2,3.6c3.4,0.1,6.4,1.3,9.8,1.1
				c2.3-0.1-0.9-3.2-1.7-3.4c-2.9-1-6.7-2.4-9.8-1.8c-0.6,0.1-0.8,0.4-0.8,1c0.2,3.1,4.3,5.5,6.8,6.6c2.5,1.1,5.2,1.5,7.7,2.5
				c1.1,0.4,3.6,2.3,5.1,2c2.7-0.5,2.8-3.8,1.4-5.6c-2.7-3.4-9.7-2.8-13.4-3.2c-2.9-0.3,0.2,3,1.2,3.4c3.6,1.6,7.2,2.7,11,3.3
				c0.7,0.1,1.4-0.2,1.2-1c-0.4-2.2-1.2-3.8-2.5-5.6c-0.3,0.6-0.5,1.3-0.8,1.9c2.8,0.5,5.6,1.1,8.4,1.6c2.7,0.5-0.2-3.2-1.8-3.5
				c-2.8-0.5-5.6-1.1-8.4-1.6c-1.4-0.3-1.4,1-0.8,1.9c1,1.1,1.5,2.4,1.6,3.8c0.4-0.3,0.8-0.7,1.2-1c-3.5-0.6-6.7-1.6-10-3
				c0.4,1.1,0.8,2.3,1.2,3.4c2.6,0.3,5.1,0.6,7.7,0.9c5.2,0.8-2.1-0.5-3.3-0.9c-2.1-0.8-4.3-1.2-6.4-1.9c-9.2-3.2,2.3-0.4,3.8,0.1
				c-0.6-1.1-1.1-2.3-1.7-3.4c-3.4,0.2-6.5-1.1-9.8-1.1c-2.1,0,0.9,3.5,2.2,3.6c2.5,0.2,4.7,1,7.1,1.5c3,0.5,5.9,0.1,8.9,0.8
				c4.7,1.1,8.5,1.7,13.4,1.2c-1.1-1.1-2.2-2.2-3.3-3.3c-0.1,0.1-0.3,0.3-0.4,0.4C51.1,195.7,55,198.8,56.2,197.5L56.2,197.5z"/>
		</g>
	</g>
	<g id="XMLID_516_">
		<g id="XMLID_699_">
			<path id="XMLID_705_" class="st1" d="M25.8,193.4c-1.9,6.2-6,11.9-9.3,17.4c1.6-0.1,3.3-0.2,4.9-0.2c-0.1-3.3,1-6.4,1.5-9.6
				c0.2-1,0.4-9.6,0.9-9.8c-1.2-0.1-2.5-0.1-3.7-0.2c2.1,2.2,1.4,6.1,0.1,8.5c-0.6,1,4.2,1.3,4.8,0c1.5-2.7,2.2-6.9-0.2-9.4
				c-0.8-0.8-2.8-0.5-3.7-0.2c-3.1,1.1-2.5,4.6-2.8,7.5c-0.4,4.6-2.2,9.2-2,13.7c0.1,1.4,4.4,0.6,4.9-0.2c3.3-5.6,7.4-11.2,9.3-17.4
				C31.1,192.1,26.2,192.2,25.8,193.4L25.8,193.4z"/>
		</g>
	</g>
	<g id="XMLID_517_">
		<g id="XMLID_706_">
			<path id="XMLID_712_" class="st1" d="M28.2,195.7c-0.7,3.2-2.3,6.2-3.7,9.2c-0.7,1.5,3.7,3.3,4.6,1.9c0.7-1,1.5-1.8,2.5-2.4
				c0.8-0.6,2-0.9,2.8-1.5c1.4-1.2,1.8-4,1.7-5.6c-0.1-1.5-4.8-3-4.7-1.3c0.1,1.3-0.3,2.4-0.8,3.6c-0.5,1.1-1,1.2-2,1.7
				c-1.7,0.9-3.1,2.1-4.1,3.7c1.5,0.6,3.1,1.3,4.6,1.9c1.4-3,2.9-6,3.7-9.2C33.2,196,28.5,194.3,28.2,195.7L28.2,195.7z"/>
		</g>
	</g>
	<g id="XMLID_518_">
		<g id="XMLID_713_">
			<path id="XMLID_719_" class="st1" d="M37.3,229c-0.1,0.1-0.1,0.2-0.2,0.3c1,0,2.1,0.1,3.1,0.1c-2-0.3-4.2-0.8-6.4-0.7
				c1.4,0.2,2.8,0.5,4.2,0.7c0.8-1.1,1.8-2.2,2.3-3.5c0.6-1.4,0-3,0.5-4.4c0-0.1-4.6-1.4-5-0.6c-0.6,1.4,0,3-0.5,4.4
				c-0.5,1.3-1.5,2.4-2.3,3.5c-0.1,0.1,3.8,0.7,4.2,0.7c0.8,0,4.5,1.4,5,0C42.3,229.5,37.6,228.2,37.3,229L37.3,229z"/>
		</g>
	</g>
	<g id="XMLID_523_">
		<g id="XMLID_720_">
			<path id="XMLID_726_" class="st1" d="M19.2,209.4c-0.2,2.7,0.1,8.2,3,9.7c3,1.5,4.5-3.8,5-5.7c-0.9-0.1-1.7-0.2-2.6-0.3
				c1,1.4-1.6,3.3-2.3,3.8c1,1.1,2,2.2,3,3.2c0.2-2.2,1.4-4.4,1.9-6.6c0.4-1.8,0.5-3.6,1.7-5.1c-1.1-1-2.2-2-3.3-3
				c-0.2,2-0.4,4-0.6,6c1.1,0.3,2.2,0.6,3.3,0.9c-1-2.4,0-5-1-7.4c-0.4-1-1.2-2.2-2.4-2.2c-3.1-0.1-4.1,9.1-4.5,10.9
				c1.1,0.7,2.3,1.3,3.4,2c-0.5-1.9,0-8.2-3.8-7.6c-3.8,0.6-4.5,9.6-5.6,12.3c1.1,0.9,2.3,1.7,3.4,2.6c0-4.1,1.3-7.9,1.6-12
				c0.1-1.4-3-5-3.4-2.6c-0.2,1.2-2.2,13.1-2.9,13.1c0.6,1.5,1.1,3.1,1.7,4.6c1.1-0.2,2-0.4,3.1-0.3c-0.8-0.7-1.6-1.5-2.4-2.2
				c0,0.1,0.1,0.3,0.1,0.4c0.1-0.8,0.2-1.5,0.3-2.3c-0.1,0.1-0.2,0.2-0.3,0.2c1,1.1,2,2.2,3,3.2c0.3-2.1,3.3-3.5,5-4.3
				c-0.9-1.4-1.8-2.7-2.7-4.1c-0.4,0.4-0.8,0.8-1.2,1.2c-1.4,1.1,0.3,5,2.1,4.5c3.9-1.1,0.1-5.7-1.2-7.5c-2-2.7-3.3,0.5-1.8,2.5
				c0.4,0.5,0.8,1,1.1,1.5c0.6,1,0.7,0.6,0.2-1.2c0.7,1.5,1.4,3,2.1,4.5c0.8-0.6,1.1-0.9,1.8-1.7c1.1-1.3-1-4.9-2.7-4.1
				c-2.9,1.3-5.7,3.2-6.1,6.5c-0.1,1,1.7,4.4,3,3.2c0.1-0.1,0.2-0.2,0.3-0.2c0.7-0.6,0.6-1.5,0.3-2.3c0-0.1-0.1-0.3-0.1-0.4
				c-0.3-1.1-1.2-2.1-2.4-2.2c-1.1-0.1-2,0.1-3.1,0.3c-2.3,0.4-0.1,4.6,1.7,4.6c2,0,2.1-2.5,2.4-4c0.7-3.5,1.5-7.1,2.2-10.6
				c-1.1-0.9-2.3-1.7-3.4-2.6c-0.3,4-1.6,7.9-1.6,12c0,1.3,2.4,5,3.4,2.6c1-2.4,1.3-5,2.2-7.4c0.1-0.4,0.3-0.8,0.4-1.2
				c2.2-1.7,2.1-2.6-0.3-2.7c-0.3,0.3,0.3,2.4,0.3,2.6c0.2,0.8,2.9,4.5,3.4,2c0.2-1,1.7-9.4,2.7-9.4c-0.8-0.7-1.6-1.5-2.4-2.2
				c0.4,1,0,2.9,0.1,4c0.1,1.2,0.4,2.2,0.9,3.4c0.5,1.3,3,3.6,3.3,0.9c0.3-2,0.5-4,0.6-6c0.1-1.2-1.9-4.6-3.3-3
				c-1.4,1.8-1.6,3.7-2.1,5.9c-0.6,2.6-1.8,4.9-2,7.5c-0.1,1.1,1.5,4.2,3,3.2c4-2.7,4.5-6.9,1.7-10.7c-0.5-0.7-2.2-1.7-2.6-0.3
				c-0.3,1-1,4.4-2.4,4.4c0.6,0.3,1.2,0.7,1.7,1c-0.7-0.9-0.5-3.2-0.4-4.3C22.8,209.6,19.4,206.5,19.2,209.4L19.2,209.4z"/>
		</g>
	</g>
	<g id="XMLID_525_">
		<g id="XMLID_727_">
			<path id="XMLID_733_" class="st1" d="M179.3,105.7c0,1.5,0.1,2.8,0.4,4.3c0.2,0.9,0.8,6.3,0.5,6.2c0.9,1,1.7,2,2.6,3
				c-2.3-5.1-2.7-11.5-3.6-17c-0.1-0.7-3.1-4.2-3.3-3.2c-1.6,7.3,1,15.2,1.3,22.5c1.1,1.1,2.2,2.2,3.3,3.2c-0.3-1.9-0.6-3.7-1.1-5.5
				c-0.3-0.9-3.3-3.8-3.3-3.2c0.2,2.8,0.3,5.2-0.7,7.8c-0.4,1.1,2.1,3.5,3,3.8c2,0.5,6.3-0.8,7.2-2.7c1-2.2-1.6-6.2-2.6-7.9
				c-0.2-0.3-2.9-3.3-2.9-2.4c0,2.3,0,4.7-0.2,7c1.1,1.1,2.2,2.2,3.3,3.2c-0.5-2.4-1.2-4.2-2.5-6.1c-0.1-0.2-2.4-2.9-2.6-1.9
				c-0.5,2.9,0.6,5.7,2.8,7.7c0.2,0.2,0.9,0.9,1.2,0.6c2.2-1.6,1.8-6.1,1.5-8.4c-0.6-5.1-2.6-9.7-1.7-15c-1.1-1.1-2.2-2.2-3.3-3.2
				c1,5.4,1.2,10.1,4.6,14.5c0.4,0.5,2.7,2.6,2,0.7c-0.8-2.2-1.7-4.5-2.6-6.7c-1-0.7-2-1.4-3-2.2c0.7,1.3,1.4,2.7,2,4
				c0.4,0.7,3.8,4.3,3,2.2c-0.6-1.3-1-2.7-1.2-4.1c-0.2-1.1-3.5-4.2-3.2-2.9c0.7,3.7,3.3,11.5,8.2,11.4c-1-1.2-2-2.3-3-3.5
				c1.2,3.7,2,7.4,2.4,11.3c0.1,0.9,2,4.2,3.2,3.7c2.2-0.8,0-6.1-0.4-7.5c-0.2-0.9-3.3-3.9-3.3-3.2c0,0.9,0.5,4.6,0,5.3
				c-0.8,1.3-3.1,1.3-4.3,1c0.6,0.5,1.3,1,1.9,1.6c-0.4-0.5,0.1-3.8,0.1-4.6c-0.1-1.6-0.2-3.3-0.3-4.9c-1-1-2.1-1.9-3.1-2.9
				c1.7,3.6,2.1,6.9,3,10.7c0.1,0.5,2.5,4.2,3.2,3.4c3-3.6,0-9.9-2.4-13c-0.2-0.2-1.8-2.2-2.2-1.3c-0.9,2.1-0.9,6.9-4.6,4.4
				c0.8,1.2,1.5,2.4,2.3,3.6c0.7,0.1,1.4,0.2,2,0.3c1.7,1.4-0.7-2.8-1.5-3.4c-1.3-1-2.1-1.3-3.7-0.9c-0.8,0.2,2,3.4,2.3,3.6
				c4.7,3.2,4.8-0.4,6.5-4.3c-0.7-0.4-1.5-0.9-2.2-1.3c1.3,1.8,1.9,6.4,0.3,8.3c1.1,1.1,2.1,2.3,3.2,3.4c-1-4.1-1.3-7.5-3.2-11.5
				c-0.2-0.5-3.2-3.7-3.1-2.9c0.2,4.4-0.9,11.5,3.1,14.7c1.2,0.9,2.9,1.6,4.5,1c2.7-0.9,1.7-4.4,1.6-6.9c-1.1-1.1-2.2-2.2-3.3-3.2
				c0.3,1.3,2,6,0.5,6.6c1.1,1.2,2.1,2.5,3.2,3.7c-0.4-4.1-1.2-8-2.4-11.9c-0.3-1-1.7-3.5-3-3.5c-1.4-1.3-2.1-2.7-2.3-4.5
				c-1.1-1-2.2-2-3.2-2.9c0.3,1.7,0.8,3.2,1.5,4.9c1,0.7,2,1.4,3,2.2c-0.7-1.3-1.4-2.7-2-4c-0.4-0.8-3.9-4.3-3-2.2
				c0.9,2.2,1.8,4.4,2.6,6.7c0.7,0.2,1.3,0.4,2,0.7c-2.1-2.8-1.8-7.5-2.4-10.8c-0.1-0.7-3.1-4.1-3.3-3.2c-0.6,3.4-0.1,6.5,0.6,9.9
				c0.7,3.3,3.1,10.6-0.3,13.2c0.4,0.2,0.8,0.4,1.2,0.6c0.4-0.5,0.8-1,1.1-1.4c-0.9-0.6-1.7-1.3-2.6-1.9c0.6,1.1,1,2.2,1.2,3.4
				c0.2,0.8,3.2,4,3.3,3.2c0.1-2.3,0.2-4.7,0.2-7c-1-0.8-1.9-1.6-2.9-2.4c1.4,1.7,1.8,3.7,1.4,6c-0.4,0.3-0.9,0.5-1.4,0.7
				c-1.2,1.1-3.4,1.6-4.9,1.2c1,1.3,2,2.5,3,3.8c1-2.6,1-5,0.7-7.8c-1.1-1.1-2.2-2.2-3.3-3.2c0.5,1.9,0.9,3.6,1.1,5.5
				c0.1,1.1,3.3,3.7,3.3,3.2c-0.2-7.4-2.9-15.3-1.3-22.5c-1.1-1.1-2.2-2.2-3.3-3.2c1,6.5,0.8,17.5,7.3,21.2c0.2,0.1,0.6,0.2,0.6-0.1
				c0-3.8-1.2-7.3-1.2-11.1C182.6,107.9,179.3,105.4,179.3,105.7L179.3,105.7z"/>
		</g>
	</g>
	<g id="XMLID_661_">
		<g id="XMLID_734_">
			<path id="XMLID_740_" class="st1" d="M207,112.5c-0.9,1.5-1.8,2.8-2.9,4.1c1.2,1.1,2.4,2.3,3.6,3.4c4.1-7.3,6.8-17.9-1.5-23.1
				c-1.5-0.9-3.1,0.2-2.8,1.9c0.4,2.4,1.9,4.3,2.3,6.6c0.8,4.3-0.9,7-3.2,10.2c-1.5,2-1.9,5.6-1.2,8c0.5,2,1.8,2.6,3.7,2.6
				c5-0.2,6.5-3.2,6.4-7.4c-0.1-1.7-1.8-3.8-3.6-2.7c-1.6,0.9-2.7,1.9-3.9,3.3c-1.6,1.9,1.8,5.5,3.6,3.4c0.8-1.2,1.9-2,3.1-2.6
				c-1.2-0.9-2.4-1.8-3.6-2.7c0.4,1.6-0.4,2.9-2.2,3.6c-2.1,0.4-2.4,0.6-0.8,0.8c0.5,0.7,1,1.4,1.4,2.1c0-0.4-0.3-3.9-0.1-4.2
				c0.2-0.5,1.1-0.9,1.5-1.3c1.6-1.7,2.4-3.8,2.9-6c0.4-2,0.5-4,0.2-6c-0.3-2.7-1.9-4.7-2.4-7.3c-0.9,0.6-1.8,1.3-2.8,1.9
				c4.9,3.1,1.4,12-0.7,15.8c-1.2,2.1,1.8,5.6,3.6,3.4c1.1-1.3,2-2.6,2.9-4.1C211.9,113.7,208.5,110.1,207,112.5L207,112.5z"/>
		</g>
	</g>
	<g id="XMLID_668_">
		<g id="XMLID_741_">
			<path id="XMLID_747_" class="st1" d="M202.8,87.1c-0.2,4.1-0.5,8.2-0.7,12.3c1.5-0.7,3-1.4,4.6-2c0-2.3-0.1-4.5-0.2-6.8
				c-0.1-2.2-0.7-4.6,0.3-6.6c-1.5,0.6-3,1.3-4.5,1.9c-0.4,3.9,0.1,7.8-0.7,11.6c1.5-0.7,3-1.4,4.6-2c-0.1-1.4,0-2.6,0.1-4
				c0,0.4-4.4,0.9-4.6,2c-0.6,3.1-0.8,6.1-0.6,9.2c0,0.3,3.3-1.2,3.5-1.3c0.2-0.1,0.4-0.2,0.6-0.3c-1.1,0.4-2.3,0.9-3.4,1.3
				c0.4,0.1,0.8,0.2,1.1,0.3c0.7,0.4,4.4-1.3,4.6-2c1.6-5.6,2.4-11.3,2.3-17.1c-1.5,0.7-3,1.4-4.6,2c0.9,4.8,1.3,9.6,1,14.4
				c0-0.3,4.5-0.9,4.6-2c0.3-4.9,0-9.6-1-14.4c0-0.1-4.6,1.2-4.6,2c0.1,5.8-0.7,11.5-2.3,17.1c1.5-0.7,3-1.4,4.6-2
				c-1.7-0.9-3.9,0.5-5.4,1.3c1.2-0.4,2.4-0.9,3.5-1.3c-0.2-3.1,0-6.1,0.6-9.2c-1.5,0.7-3,1.4-4.6,2c-0.1,1.4-0.2,2.6-0.1,4
				c0-0.1,4.4-1.1,4.6-2c0.8-3.8,0.3-7.8,0.7-11.6c0,0.2-4.1,1.1-4.5,1.9c-0.9,1.8-0.6,3.6-0.5,5.6c0.2,2.7,0.2,5.4,0.2,8
				c0-0.2,4.5-1,4.6-2c0.2-4.1,0.5-8.2,0.7-12.3C207.3,85.4,202.8,86,202.8,87.1L202.8,87.1z"/>
		</g>
	</g>
	<g id="XMLID_675_">
		<g id="XMLID_748_">
			<path id="XMLID_754_" class="st1" d="M203.9,121.9c0-1.1,0.2-2.1,0.6-3.1c-1.6-0.4-3.2-0.9-4.8-1.3c-0.5,2.5-0.7,5.2-1.7,7.5
				c-0.5,1.2,4.2,2.7,4.8,1.3c1-2.3,1.2-5,1.7-7.5c0.3-1.4-4.4-2.7-4.8-1.3c-0.3,1-0.5,2-0.6,3.1C199,122.2,203.8,123.1,203.9,121.9
				L203.9,121.9z"/>
		</g>
	</g>
	<g id="XMLID_682_">
		<g id="XMLID_755_">
			<path id="XMLID_761_" class="st1" d="M212.5,124.4C212.5,124.4,212.5,124.4,212.5,124.4c0-0.6-0.4-1.3-0.8-1.7
				c-0.4-0.4-1-0.8-1.6-0.9c-0.5,0-1.1,0-1.5,0.4c-0.4,0.4-0.5,0.9-0.5,1.5c0,0,0,0,0,0.1c0,0.6,0.4,1.3,0.8,1.7
				c0.4,0.4,1,0.8,1.6,0.9c0.5,0,1.1,0,1.5-0.4C212.4,125.5,212.5,125,212.5,124.4L212.5,124.4z"/>
		</g>
	</g>
	<g id="XMLID_689_">
		<g id="XMLID_762_">
			<path id="XMLID_768_" class="st1" d="M197.9,117.8c0.1-0.4,0.2-0.7,0.2-1.1c0.2-1-0.9-1.8-1.7-2.1c-0.6-0.3-2.3-1-2.7-0.1
				c-0.5,0.9-0.1,2.1-0.7,2.9c-0.2,0.3,0.1,0.8,0.3,1c0.3,0.5,0.9,0.9,1.4,1.1c0.7,0.3,2.2,1,2.7,0.1c0.6-0.9,0.2-2,0.7-2.9
				c-1.5-0.8-3-1.5-4.5-2.3c-0.1,0.4-0.2,0.7-0.2,1.1c-0.2,1,0.9,1.8,1.7,2.1c0.5,0.3,1.1,0.5,1.7,0.5
				C197.1,118.2,197.8,118.2,197.9,117.8L197.9,117.8z"/>
		</g>
	</g>
	<g id="XMLID_696_">
		<g id="XMLID_769_">
			<path id="XMLID_775_" class="st1" d="M191,87.3c-2.7,2-2.3,5.5-1.1,8.3c0.7,1.5,2.7,2.4,4.1,1.3c1.5-1.2,1.7-2.7,2.3-4.5
				c0.7-1.9,1-3.5,3.2-4.4c1-0.4,2.4-0.3,3.4-0.6c-1-1.1-2-2.2-3-3.4c-1.2,2.5-2.1,2.4-4.3,4c-2.3,1.7,1.3,4.3,3.2,3.6
				c0.6-0.2,1.1-0.3,1.7-0.5c-0.7-1.4-1.5-2.7-2.2-4.1c-1.4,0.8-3.1,1.9-4.1,3.3c-0.4,0.6-0.6,1.3-0.8,2c-0.1,0.8-0.4,1.6-0.7,2.3
				c0,1-0.3,1.3-0.9,0.7c-1.5,0.7-3.8,0.5-5.5,1.1c-2.2,0.8-4.3,1.2-6.5,1.9c-2.8,0.9,0.3,4.7,2.7,3.9c1.7-0.6,3.4-0.7,5.1-1.4
				c2.4-0.9,3.6-1,6.1-1.3c0.5-0.1,1,0,1.4-0.2c1.2-0.6,1.6-1.5,2.1-2.9c1-2.6,1-4,3.7-5.6c2.3-1.4,0.1-4.7-2.2-4.1
				c-1,0.3-1.8,0.5-2.8,0.9c1.1,1.2,2.1,2.4,3.2,3.6c1-0.7,2.4-0.9,3.3-1.7c0.9-0.8,1.3-2.2,1.8-3.2c0.8-1.7-1.2-3.9-3-3.4
				c-2.5,0.7-5,0.5-7,2.4c-2.2,2.1-1.9,6.4-4,8.1c1.4,0.4,2.7,0.9,4.1,1.3c-0.9-1.4-0.8-2.8,0.2-4.2C196.9,89,193.1,85.7,191,87.3
				L191,87.3z"/>
		</g>
	</g>
	<g id="XMLID_703_">
		<g id="XMLID_776_">
			<path id="XMLID_782_" class="st1" d="M188.3,90c-0.7-1.5-3.5-0.6-4.6-0.1c-2.4,1.1-5,3.8-4.6,6.7c0.3,2.3,2.9,2.1,4.7,1.5
				c3.3-1.1,4.9-4.8,6.6-7.6c1.1-1.8-3.7-1-4.5,0.2c-2.4,3.5,1,9.2,5.2,6.2c1.3-0.9,1.9-2.6,0.4-3.7c-1.7-1.3-4.4-0.1-6.1,0.7
				c1.1,0.2,2.1,0.5,3.2,0.7c1.4-2.5,3.2-4.6,5.6-6.2c1.1-0.7,2.9-1.3,3.2-2.8c0.1-0.2,0-0.4-0.2-0.6c-1.1-0.8-2.6-0.6-3.9-0.4
				c-4,0.8-7.3,1.2-11.4,0.9c-0.6,0.8-1.2,1.6-1.8,2.5c0.2,0,0.5-0.1,0.7-0.1c1.5-0.2,4.3-2.7,1.3-2.5c-2.4,0.1-7-0.3-8.3,2.4
				c-0.8,1.6-0.1,4,0.3,5.6c0.6,2.5,1.3,4.8,1.4,7.4c0.1,1.5,3.8-0.1,4.3-0.5c2.3-1.8,1.2-5.5,1.5-8.1c0.2-2.1,1.1-2.6,3.1-2.1
				c2.1,0.4,4.1,0.6,6.2,0.6c0.7,0,4.9-1.7,2.8-2.4c-2.3-0.9-4.7-1.7-7.2-1.6c-1.7,0-5.1,1.6-6.5,0.7c-1.2-0.7-5.7,1-4.5,1.9
				c2,1.5,4.1,2.8,6.4,3.9c0.9,0.4,4.8-0.4,4.3-1.9c-0.3-0.9-0.6-1.8-1-2.6c-0.6-1.5-5.3,0.1-4.8,1.4c0.4,0.9,0.7,1.7,1,2.6
				c1.4-0.6,2.9-1.2,4.3-1.9c-2.1-1-3.9-2.2-5.7-3.5c-1.5,0.6-3,1.3-4.5,1.9c1.6,1,3.1,1.2,5,0.9c0.9-0.2,1.8-0.6,2.7-0.8
				c2.4-0.5,4.4,0.3,6.6,1.2c0.9-0.8,1.9-1.6,2.8-2.4c-4.5,0-9.6-2.5-13.7,0.5c-1.5,1.1-2.1,2.6-2.3,4.4c-0.2,1.5,0.6,5.8-0.6,6.8
				c1.4-0.2,2.9-0.3,4.3-0.5c-0.1-1.9-0.4-3.7-0.9-5.5c-0.5-1.9-1.8-5-0.9-6.9c-0.6,0.4-1.3,0.8-1.9,1.1c1-0.3,2.5-0.2,3.5-0.3
				c0.4-0.8,0.8-1.7,1.3-2.5c-0.2,0-0.5,0.1-0.7,0.1c-0.9,0.1-4.3,2.3-1.8,2.5c2.4,0.2,4.9,0.4,7.3,0.2c1.5-0.1,5.5,0,6.5-1.2
				c-0.3-0.1-0.6-0.2-0.9-0.3c-0.5,0.3-1,0.6-1.4,0.9c-0.9,0.7-1.8,1.4-2.7,2.2c-1.5,1.4-2.7,3.1-3.7,4.8c-1,1.7,2.5,1,3.2,0.7
				c0.6-0.6,1-0.6,1.1,0.1c1.1,0,2.1-0.1,3.2-0.1c-1.7-1-2.4-3.3-1.2-5c-1.5,0.1-3,0.1-4.5,0.2c-0.8,1.3-2.1,2.8-2.6,4.2
				c-0.7,1-0.5,0.8,0.7-0.4c1.2-1.4,1.1-2.4-0.5-3C184.3,93,188.9,91.3,188.3,90L188.3,90z"/>
		</g>
	</g>
	<g id="XMLID_710_">
		<g id="XMLID_783_">
			<path id="XMLID_789_" class="st1" d="M194.7,100c0.9,0.9,1.2,0.7,0.9-0.4c0-0.3-1-0.9-1-0.7c-0.3,3-0.1-0.4,0.4,0.6
				c-0.1-0.2-1-0.8-1-0.6c0.1,0.8,0.2,1.5,0.4,2.2c0.1,0.3,1,0.9,1,0.7c0-1.5,0.5-2.1,1.3-3.1c-0.3-0.2-0.7-0.5-1-0.7
				c-0.1,1.2-0.7,3.7-0.4,4.8c0.6,2.4,0.7-0.8,0.5-1.7c0-0.2-0.9-1-1-0.7c-0.8,1.8,0.4,3.9,0.6,5.8c0.1,1.4,0.1,2.3-0.1,3.7
				c-0.1,0.5-0.2,0.9-0.2,1.4c-0.6,0.9-0.4,1.6,0.5,1.9c0-0.2-0.9-0.9-1-0.7c-0.4,1.1-0.4,0.6-0.1,1.7c0,0.1,0.9,1,1,0.7
				c0.2-0.4,0.4-0.9,0.6-1.3c-0.3-0.2-0.6-0.4-1-0.7c0.2,0.5,0.4,1,0.6,1.5c0.1,0.2,1,0.7,1,0.6c-0.2-0.6-0.3-1.2-0.2-1.8
				c0-0.3-1-0.8-1-0.7c0.1,2.9-0.3,5.6-0.8,8.5c0,0.3,0.9,0.9,1,0.7c0.7-2,0.1,0.3-0.4-1.8c0,0.2,0.9,0.9,1,0.7
				c0.1-0.3,0.2-0.5,0.3-0.8c0.1-0.3-0.9-0.9-1-0.8c-0.1,0.3-0.2,0.5-0.3,0.8c0.3,0.2,0.7,0.5,1,0.7c-0.2-0.6-0.4-0.8-1-1.2
				c0,0-0.5-0.3-0.5-0.1c0,0.6-0.1,1.1-0.1,1.7c0.3,0.2,0.7,0.5,1,0.7c0.3-1.6,0.8-3.5,0.7-5.1c0-0.6,0.1-1.1,0.1-1.7
				c-1.4-1.2-1.5-1.7-0.4-1.4c-0.1-0.1-0.9-0.9-1-0.7c-0.2,0.4-0.4,0.9-0.6,1.3c0.3,0.2,0.7,0.5,1,0.7c0-0.5,0-1.1,0.1-1.6
				c-0.3-0.2-0.7-0.5-1-0.7c0,0.5,0,1,0,1.5c0,0.3,1,0.9,1,0.7c0.3-2,1-4.2,1-6.3c0-2.1-1.6-5.3-0.7-7.3c-0.3-0.2-0.7-0.5-1-0.7
				c0.3,1.4,0.4,2.6,0.4,4c0,0.3,1,0.9,1,0.7c0.2-2.1,0.3-4.3,0.5-6.4c0-0.2-0.8-0.9-1-0.7c-0.5,0.5-1.4,1.5-1.4,2.3
				c0-0.9,1,1.4,0.4,0.3c0.1,0.2,1.1,0.9,1,0.5c-1.1-1.6-1.4-1.7-0.9-0.3c0.1,0.3,1,0.8,1,0.7c0-0.3-0.1-0.5-0.1-0.8
				C195.6,100.4,194.6,99.9,194.7,100L194.7,100z"/>
		</g>
	</g>
	<g id="XMLID_717_">
		<g id="XMLID_790_">
			<path id="XMLID_796_" class="st1" d="M201.5,101c0,0-0.1-0.1-0.1-0.1c-0.1-0.1-1.1-0.6-1.1-0.5c0,0.5,0,1.1-0.1,1.6
				c0,0.2,1.1,0.6,1.1,0.6C201.4,102,201.4,101.4,201.5,101c-0.4-0.3-0.8-0.4-1.2-0.6c0,0,0.1,0.1,0.1,0.1c0.1,0.2,0.4,0.3,0.7,0.4
				C201.1,100.9,201.5,101,201.5,101L201.5,101z"/>
		</g>
	</g>
	<g id="XMLID_724_">
		<g id="XMLID_797_">
			<path id="XMLID_803_" class="st1" d="M190,99.5c-0.1,1.6,0.1,3,0.6,4.5c0.2,0.6,1.2,0.7,1.1-0.1c0-1.5-0.1-3-0.3-4.5
				c0-0.3-0.3-0.6-0.6-0.6c-1.7,0-1.9,1.2-1.5,2.7c0.3,1,0.8,2,1.1,3c0.2,1,0.3,1.9,0.8,2.8c0.2,0.3,0.7,0.5,0.9,0.2
				c1-1.2,0.3-3.3-0.2-4.5c-0.2-0.5-1.2-0.7-1.1,0.1c0.1,0.8,0.3,1.6,0.5,2.5c0.2,0.7,1.3,0.6,1.1-0.2c-0.2-0.7-0.3-1.4-0.4-2.2
				c-0.4,0-0.8,0-1.1,0.1c0.3,0.8,1.1,2.7,0.4,3.4c0.3,0.1,0.6,0.1,0.9,0.2c-0.6-0.9-0.6-2.3-0.9-3.3c-0.2-0.5-1.7-3.6-0.3-3.6
				c-0.2-0.2-0.4-0.4-0.6-0.6c0.1,1.5,0.2,3,0.3,4.5c0.4,0,0.8,0,1.1-0.1c-0.4-1.3-0.6-2.6-0.5-3.9C191.2,99.2,190.1,98.7,190,99.5
				L190,99.5z"/>
		</g>
	</g>
	<g id="XMLID_731_">
		<g id="XMLID_804_">
			<path id="XMLID_810_" class="st1" d="M185.7,100.9c-0.3,2.3,0.9,4.4,1.3,6.6c0.4-0.1,0.8-0.2,1.2-0.4c-0.9-1.9-1.4-4.1-1.9-6.1
				c-0.1-0.5-1.1-0.2-1.2,0.2c-0.3,1.2,0.5,2.6,1,3.7c0.8,1.6,1.6,3.1,2,4.9c0.4-0.1,0.8-0.2,1.2-0.4c-0.6-0.7-1-1.5-1.2-2.4
				c-0.1-0.5-1.3-0.2-1.2,0.3c0.2,1,0.6,1.8,1.3,2.6c0.3,0.3,1.3,0.2,1.2-0.4c-0.2-1.3-0.7-2.4-1.3-3.6c-0.6-1.3-2.1-3.2-1.6-4.7
				c-0.4,0.1-0.8,0.1-1.2,0.2c0.6,2.1,1,4.3,2,6.3c0.2,0.4,1.3,0.1,1.2-0.4c-0.5-2.2-1.6-4.1-1.3-6.4
				C187,100.3,185.7,100.5,185.7,100.9L185.7,100.9z"/>
		</g>
	</g>
	<g id="XMLID_738_">
		<g id="XMLID_811_">
			<path id="XMLID_817_" class="st2" d="M193.3,103.4c0-0.1,0-0.1-0.1-0.2c-0.1-0.3-0.8-0.1-0.7,0.2c0.1,0.6,0.2,1.1,0.4,1.7
				c0.1,0.3,0.8,0.1,0.7-0.2c-0.4-1.4-0.8-2.7-1.2-4.1c-0.1,0.1-0.2,0.2-0.3,0.3c0.3-0.1,0.5-0.2,0.7-0.4c-0.2-0.1-0.4-0.2-0.5-0.3
				c-0.2,0.1-0.3,0.2-0.5,0.3c0,0.2,0,0.3,0,0.5c0.1,0,0.2,0,0.2-0.1c-0.1-0.1-0.1-0.3-0.2-0.4c-0.1,0-0.2,0.1-0.3,0.1
				c-0.1,0-0.2,0.2-0.2,0.3c0.5,1.3,2.9,7.1,0.1,7.3c-0.2,0-0.6,0.4-0.2,0.5c2.5,0.8,2.8-2.9,2.4-4.4c-0.1-0.3-0.8-0.1-0.7,0.2
				c0.1,0.6,0.6,4.3-1.3,3.7c-0.1,0.2-0.2,0.3-0.2,0.5c1.1-0.1,1.9-0.6,2-1.7c0.1-0.7-0.9-6.2-1.3-6.1c0.4-0.2,0.1-0.5-0.2-0.4
				c-0.1,0-0.2,0-0.2,0.1c-0.4,0.1-0.4,0.5,0,0.5c0.5-0.1,0.9-0.2,1.2-0.6c0.3-0.3-0.3-0.4-0.5-0.3c-0.1,0.1-0.3,0.1-0.4,0.2
				c-0.1,0-0.4,0.2-0.3,0.3c0.4,1.3,0.8,2.7,1.2,4.1c0.2-0.1,0.5-0.1,0.7-0.2c-0.2-0.6-0.3-1.1-0.4-1.7c-0.2,0.1-0.5,0.1-0.7,0.2
				c0,0.1,0,0.1,0.1,0.2C192.6,103.9,193.4,103.7,193.3,103.4L193.3,103.4z"/>
		</g>
	</g>
	<g id="XMLID_745_">
		<g id="XMLID_818_">
			<path id="XMLID_824_" class="st2" d="M188.7,101.1c-0.2,0.1-0.3,0.1-0.5,0.2c-0.3,0.1-0.2,0.5,0.1,0.4c0.4-0.1,2.3,6.7,2.5,7.3
				c0.1,0.3,0.8,0.1,0.7-0.2c-0.8-2.5-1.6-5-2.4-7.5c0-0.1-0.2-0.2-0.3-0.1c-0.1,0-0.3,0-0.4,0.1c0,0.1,0.1,0.3,0.1,0.4
				c0.2-0.1,0.3-0.1,0.5-0.2C189.5,101.3,189.1,100.9,188.7,101.1L188.7,101.1z"/>
		</g>
	</g>
	<g id="XMLID_752_">
		<g id="XMLID_825_">
			<path id="XMLID_831_" class="st2" d="M184.3,103.1c0.1,0,0.3-0.1,0.4-0.1c0.3-0.1,0.4-0.4,0-0.4c-0.1,0-0.2,0-0.3,0
				C184.2,102.7,183.8,103,184.3,103.1c0.3-0.1,1.5,4,1.7,4.6c0.4,1,0.7,2.6,1.8,2.9c2.3,0.8,3.4-1.8,2.6-3.6
				c-0.1-0.2-0.7-0.1-0.7,0.2c0,0.4,0,0.7,0,1.1c0,0.7,0.3,1.2-0.5,1.5c-1,0.4-1.5-0.8-1.9-1.6c-0.1-0.2-0.8,0-0.7,0.2
				c0.4,1.1,1.2,2.3,2.6,2.1c1.7-0.2,1.3-2.3,1.2-3.5c-0.2,0.1-0.5,0.1-0.7,0.2c0.2,0.5,0.3,0.7,0.3,1.3c0,0.3,0,0.6-0.1,0.9
				c-0.7,0.2-1.4,0.4-2.1,0.6c-0.5-0.3-0.9-2.1-1.2-2.7c-0.6-1.5-1.1-2.9-1.4-4.4c0-0.1-0.1-0.1-0.1-0.1c-0.2-0.1-0.3-0.1-0.5-0.1
				C184.5,102.8,184.4,102.9,184.3,103.1c0.1-0.1,0.2-0.1,0.3-0.1c0-0.1,0-0.3,0-0.4c-0.1,0-0.3,0.1-0.4,0.1
				C183.8,102.9,183.9,103.2,184.3,103.1L184.3,103.1z"/>
		</g>
	</g>
	<g id="XMLID_759_">
		<g id="XMLID_832_">
			<path id="XMLID_838_" class="st2" d="M189.1,110.9c1,0.4,1.6-0.5,1.8-1.4c0.1-0.3-0.6-0.1-0.7,0c-0.4,0.3-0.5,0.9-1,1
				c-0.5,0.1-0.3,0.5,0.1,0.4c0.8-0.1,1-0.8,1.5-1.3c-0.2,0-0.4,0-0.7,0c-0.1,0.3-0.1,1-0.6,0.9
				C189.3,110.4,188.7,110.7,189.1,110.9L189.1,110.9z"/>
		</g>
	</g>
	<g id="XMLID_766_">
		<g id="XMLID_839_">
			<path id="XMLID_845_" class="st2" d="M184.4,103.8c0.1,1.2,0.6,2.2,1.2,3.2c0.5,0.8,1.2,2.1,2,2.6c0.9,0.6,2.5,0.4,2.9-0.7
				c0.1-0.2-0.6-0.1-0.7,0.1c-0.3,0.1-0.7,0.3-1,0.4c-0.2-0.1-0.5-0.2-0.7-0.3c-0.2-0.1-0.3-0.4-0.5-0.6c-0.4-0.6-0.9-1.1-1.2-1.8
				c-0.6-1-1-2-1.2-3.2C185.1,103.4,184.4,103.6,184.4,103.8L184.4,103.8z"/>
		</g>
	</g>
	<g id="XMLID_773_">
		<g id="XMLID_846_">
			<path id="XMLID_852_" class="st2" d="M198,115.6c0.2,1.6-1.2,3.3-2,4.6c-0.8,1.2-1,1.3-0.4,2.6c0.1,0.3,0.9,0.1,0.7-0.2
				c-0.4-0.8-0.5-0.9,0-1.7c0.4-0.7,0.9-1.5,1.3-2.2c0.6-1.1,1.2-2.1,1.1-3.3C198.7,115.1,198,115.2,198,115.6L198,115.6z"/>
		</g>
	</g>
	<g id="XMLID_780_">
		<g id="XMLID_853_">
			<path id="XMLID_859_" class="st2" d="M198.3,116.4c-0.5,2.1-1.3,4-2.6,5.8c-0.2,0.3,0.5,0.2,0.7,0c1.3-1.8,2.1-3.8,2.6-5.9
				C199.1,116.1,198.3,116.2,198.3,116.4L198.3,116.4z"/>
		</g>
	</g>
	<g id="XMLID_787_">
		<g id="XMLID_860_">
			<path id="XMLID_866_" class="st2" d="M197.5,119c-0.6,0.9-1.2,1.8-1.7,2.7c-0.2,0.3,0.6,0.2,0.7,0c0.5-0.9,1.1-1.8,1.7-2.7
				C198.3,118.7,197.6,118.8,197.5,119L197.5,119z"/>
		</g>
	</g>
	<g id="XMLID_794_">
		<g id="XMLID_867_">
			<path id="XMLID_873_" class="st2" d="M195.9,121c-0.2,0.2-0.4,0.4-0.6,0.6c-0.3,0.3,0.4,0.5,0.6,0.2c0.2-0.2,0.3-0.3,0.5-0.5
				C196.7,121,196.2,120.8,195.9,121L195.9,121z"/>
		</g>
	</g>
	<g id="XMLID_801_">
		<g id="XMLID_874_">
			<path id="XMLID_880_" class="st2" d="M195.8,120.5c-0.3,0.4-0.6,0.9-1,1.3c-0.3,0.4,0.4,0.5,0.6,0.2c0.3-0.4,0.7-0.9,1-1.3
				C196.7,120.3,196,120.2,195.8,120.5L195.8,120.5z"/>
		</g>
	</g>
	<g id="XMLID_808_">
		<g id="XMLID_881_">
			<path id="XMLID_887_" class="st2" d="M194.8,122.1c0.5,0.9,0.8,1.9,1.1,2.9c0.1,0.2,0.8,0,0.7-0.2c-0.3-1-0.6-2-1.1-2.9
				C195.4,121.7,194.7,122,194.8,122.1L194.8,122.1z"/>
		</g>
	</g>
	<g id="XMLID_815_">
		<g id="XMLID_888_">
			<path id="XMLID_894_" class="st2" d="M200.6,89.4c-0.2,0.8-0.3,1.6-0.4,2.5c0,0.3,0.7,0.2,0.7-0.1c0.1-0.8,0.3-1.7,0.4-2.5
				C201.4,89.1,200.6,89.2,200.6,89.4L200.6,89.4z"/>
		</g>
	</g>
	<g id="XMLID_822_">
		<g id="XMLID_895_">
			<path id="XMLID_901_" class="st2" d="M200.5,89.3c-1,1-2,2.1-2.5,3.5c-0.4,1.4-0.4,3-0.4,4.4c0,0.3,0.7,0.2,0.7-0.1
				c0.1-1.3,0-2.6,0.3-3.9c0.3-1.5,1.4-2.7,2.5-3.7C201.4,89.1,200.7,89.1,200.5,89.3L200.5,89.3z"/>
		</g>
	</g>
	<g id="XMLID_829_">
		<g id="XMLID_902_">
			<path id="XMLID_908_" class="st2" d="M199.8,90.3c-0.4,1.5-1.6,2.7-1.8,4.2c0,0.3,0.7,0.2,0.7-0.1c0.2-1.6,1.4-2.7,1.8-4.2
				C200.6,90,199.9,90.1,199.8,90.3L199.8,90.3z"/>
		</g>
	</g>
	<g id="XMLID_836_">
		<g id="XMLID_909_">
			<path id="XMLID_915_" class="st2" d="M199.9,90.6c-0.1,1.3-0.9,2.3-1.3,3.5c0,0.1,0.7,0,0.7-0.1c0.4-1.2,1.2-2.2,1.3-3.5
				C200.6,90.3,199.9,90.4,199.9,90.6L199.9,90.6z"/>
		</g>
	</g>
	<g id="XMLID_843_">
		<g id="XMLID_916_">
			<path id="XMLID_922_" class="st2" d="M197.7,93.3c-0.7,3.3-0.7,6.6-0.7,9.9c0,0.3,0.7,0.2,0.7-0.1c0-3.3,0-6.6,0.7-9.9
				C198.5,93,197.8,93.1,197.7,93.3L197.7,93.3z"/>
		</g>
	</g>
	<g id="XMLID_850_">
		<g id="XMLID_923_">
			<path id="XMLID_929_" class="st2" d="M201.2,116.9c0.1,2.6,0.3,5.1,0.7,7.7c0,0.3,0.8,0.1,0.7-0.2c-0.3-2.6-0.6-5.1-0.7-7.7
				C201.9,116.4,201.2,116.6,201.2,116.9L201.2,116.9z"/>
		</g>
	</g>
	<g id="XMLID_857_">
		<g id="XMLID_930_">
			<path id="XMLID_936_" class="st2" d="M201.4,116.5c-1.3,0.7-1.6,0.6-1.5,2.1c0.1,2.1,0.1,4.2,0.2,6.3c0,0.2,0.3,0.3,0.4,0.2
				c0.5-0.2,1.1-0.3,1.6-0.2c0.4,0,0.6-0.5,0.1-0.5c-0.7,0-1.2,0.1-1.8,0.3c0.1,0.1,0.3,0.1,0.4,0.2c0-1.5-0.1-3-0.1-4.5
				c0-0.7-0.2-1.5-0.1-2.1c-0.2-0.4-0.1-0.7,0.3-0.9c0.3-0.1,0.5-0.3,0.8-0.4C202.1,116.7,201.7,116.3,201.4,116.5L201.4,116.5z"/>
		</g>
	</g>
	<g id="XMLID_864_">
		<g id="XMLID_937_">
			<path id="XMLID_943_" class="st2" d="M200.8,117.5c-0.1,0.1-0.2,0.2-0.3,0.3c0.2,0,0.5,0,0.7-0.1c0.1-0.2,0.2-0.3,0.3-0.5
				c0.2-0.2-0.5-0.1-0.6-0.1c-1,0.6-0.6,2.1-0.6,3.1c-0.1,1.3-0.4,3.3,0.1,4.5c0,0.1,0.1,0.1,0.2,0.1c0.6,0,1.4-0.3,1.6-0.9
				c0.2-0.6-0.4-1.9-0.5-2.6c-0.1-1.3-0.1-2.6,0-3.8c0-0.3-0.6-0.1-0.7,0.1c-0.5,0.8-0.5,1.7-0.5,2.6c0,1.4,0,2.8,0.2,4.2
				c0,0.3,0.7,0,0.7-0.1c0.2-0.4,0.3-0.7,0.3-1.1c0-0.3-0.7-0.1-0.7,0.1c0,0.5-0.1,0.7-0.3,1.1c0.2,0,0.5-0.1,0.7-0.1
				c-0.1-1.1-0.2-2.2-0.2-3.3c0-1.1-0.2-2.4,0.5-3.3c-0.2,0-0.5,0-0.7,0.1c-0.1,1-0.1,2.1-0.1,3.2c0,0.3,0.6,3.5,0.2,3.6
				c-0.3,0-0.2-2.9-0.2-3.2c0-0.7-0.2-3.5,0.4-3.8c-0.2,0-0.4-0.1-0.6-0.1c-0.3,0.3-0.2,0.2-0.3,0.6c-0.1,0.3,0.6,0,0.7-0.1
				c0.1-0.1,0.2-0.2,0.3-0.3C201.6,117.3,200.9,117.3,200.8,117.5L200.8,117.5z"/>
		</g>
	</g>
	<g id="XMLID_871_">
		<g id="XMLID_944_">
			<path id="XMLID_950_" class="st3" d="M230.8,144.3c-3.4,4.7-2.1,8.1-1.7,13.4c1.9-0.5,3.9-1,5.8-1.6c-0.7-3.8-0.2-8.6-1.6-12.2
				c-0.7-1.8-5.2,0-5.8,1.2c-1.7,3.7-1.2,7.4-1.1,11.4c0.2,5.1-0.7,10-0.8,15c0,0.4,0.9,0.6,1.1,0.6c2,0.2,4.2-0.2,5.8-1.5
				c1.3-1.1,1.9-2.8,2.7-4.2c1.6-2.8,3.6-3,6.2-4.4c2.7-1.6,2.5-3.5,1.2-6.3c-0.9-1.9-2.3-3.6-2.9-5.7c-1.1-3.3-0.3-6.5,0.7-9.7
				c0.6-1.9-5-0.4-5.8,0.9c-1.7,2.9-2.7,5.8-2.8,9.1c-0.1,2,2.2,9.4,0.1,10.5c1.2-0.3,2.4-0.5,3.6-0.8c1.2,0.7,1.4-0.1,0.5-2.5
				c0.1-1.9-5.6-0.8-5.8,0.9c-0.1,1.8-0.2,3.6-0.2,5.4c0,1.5,5.6,0.3,5.8-1.2c0.1-1,0.3-2,0.4-3c0.3-1.9-5.5-0.8-5.8,0.9
				c-0.1,1-0.3,2-0.4,3c1.9-0.4,3.9-0.8,5.8-1.2c-0.1-1.6,0-3.1,0.1-4.7c-1.9,0.3-3.8,0.6-5.8,0.9c-0.1,2-0.6,3.8,1.6,4.4
				c1.7,0.4,4.3-0.8,5.5-1.9c2.3-2.1,1.3-4.7,0.8-7.3c-1-4.8-0.2-9.1,2.3-13.3c-1.9,0.3-3.8,0.6-5.8,0.9c-1.7,5.2-1.8,9.1,0.9,13.9
				c0.7,1.2,1.7,2.4,2,3.7c0.5,2.1,0.8,1.2-0.9,2.3c-1.4,0.9-3.1,1.3-4.4,2.5c-1,0.9-2.9,3-3.1,4.3c-0.7,1-0.3,1,1.1-0.2
				c1.5-0.3,2-1.2,1.7-2.7c0.2-0.7,0.1-1.5,0.2-2.3c0.4-5.9-1.5-12.9,1.1-18.4c-1.9,0.4-3.9,0.8-5.8,1.2c1.4,3.5,0.9,8.4,1.6,12.2
				c0.3,1.6,5.9,0.2,5.8-1.6c-0.3-4.6-1.8-7.8,1.2-12C237.5,142.2,231.8,142.9,230.8,144.3L230.8,144.3z"/>
		</g>
	</g>
	<g id="XMLID_878_">
		<g id="XMLID_951_">
			<path id="XMLID_957_" class="st3" d="M241.2,143.3c0.2-1.6,0.9-2.8,1.8-4.1c0.4-0.7,1.3-2.7,1.6-2.9c-1,0.3-2,0.5-2.9,0.8
				c0.2,0,0.4,0,0.6,0c-0.5-0.3-1.1-0.5-1.6-0.8c0.6,0.6,2.9,3.7,1.8,4.5c0.7-0.3,1.5-0.5,2.2-0.8c-0.7,0-1.7-0.3-2.6-0.1
				c-1.1,0.2-2.1,0.8-2.9,1.6c-1.6,1.9-1.8,5.4-2.4,7.8c-0.7,2.7,5.2,2,5.9-0.5c0.3-1.1,0.5-2.2,0.8-3.2c0.1-0.6,0.3-2.1,0.6-2.4
				c-0.7,0.3-1.5,0.5-2.2,0.8c1.1-0.1,2.4,0.4,3.7-0.2c1.2-0.5,2.2-1.6,2.6-2.8c0.8-2.3-0.6-6.2-2.7-7.5c-2.2-1.4-5.3,0.1-6.4,2.1
				c-1.4,2.5-3.4,5.2-3.7,8.1C235,146.7,240.9,145.9,241.2,143.3L241.2,143.3z"/>
		</g>
	</g>
	<g id="XMLID_885_">
		<g id="XMLID_958_">
			<path id="XMLID_964_" class="st3" d="M243.6,139c-1.5-2-4-2.6-6.4-3.1c-0.2,0.5-0.5,1.1-0.7,1.6c0.7-0.4,1.5-0.7,2.3-0.7
				c0.9-0.1,5.3-2,2.4-2.4c-2.2-0.3-4.4-0.2-6.6-0.6c-1.4-0.2-3.1,0.1-4.4,0.8c-4,2.1-1.9,7.8-2.9,11.1c1.9-0.4,3.8-0.8,5.8-1.3
				c-0.3-1.9-0.6-3.9-0.8-5.8c-0.2-1.7-0.2-3.8-0.9-5.4c-0.2-0.4-0.7-0.4-1-0.5c-1.9-0.1-5.1,0.5-5.5,2.7c-0.5,2.5,0.1,5.8,2.1,7.5
				c1.9,1.5,4.7,1.2,6.9,0.3c2.7-1.1,3.6-3.3,3.7-6.1c0-1.2-5.4,0-5.8,1.3c-0.4,1.5-1.1,3.1-1.2,4.7c0.1,0.1,0.1,0.2,0.2,0.2
				c2.9,1.7,6.2-1.2,8-3.1c0.9-1-0.8-1.1-1.4-1.1c-1.2,0-3,0.5-3.9,1.4c-0.6,0.6-2,1.6,0,0.9c1,0,2,0,3,0c-0.3-0.2,0.9-3.6,1-4
				c-1.9,0.4-3.8,0.8-5.8,1.3c0-0.1-0.6,3.2-0.7,3.1c1.8-0.1,2.2-0.5,1.1-1.1c-0.4-0.4-0.7-0.8-0.8-1.2c-0.4-0.7-0.5-1.5-0.6-2.3
				c0-0.3-0.3-3-0.3-3c-1.4,0.4-2.7,0.7-4.1,1.1c0.1,0,0.2,0,0.4,0c-0.3-0.2-0.7-0.3-1-0.5c0.7,1.6,0.7,3.7,0.9,5.4
				c0.3,1.9,0.6,3.9,0.8,5.8c0.2,1.4,5.4-0.2,5.8-1.3c1-3.1-0.7-6.9,1.5-9.8c-1.1,0.4-2.1,0.9-3.2,1.3c-1,0.2-1.6,0-0.1,0.3
				c0.6,0.1,1.3,0.2,1.9,0.2c1.4,0.1,2.9-0.1,4.3,0.1c0.8-0.8,1.6-1.6,2.4-2.4c-2.4,0.3-4.6,1-6.7,2.1c-0.4,0.2-2.1,1.4-0.7,1.6
				c2.2,0.4,4.3,0.9,5.7,2.7C239,142.2,244.5,140.3,243.6,139L243.6,139z"/>
		</g>
	</g>
	<g id="XMLID_892_">
		<g id="XMLID_965_">
			<path id="XMLID_971_" class="st3" d="M248.5,138.4c2.1,0.1,4.3,0.4,6.3-0.4c2-0.8,2.1-1.9,1.6-3.8c-0.9,0.7-1.7,1.4-2.6,2
				c0.1,0,0.3-0.1,0.4-0.1c-0.2-0.8-0.4-1.7-0.7-2.5c-1.9,0.6-4.2-0.4-6.2,0c-1.9,0.4-3.5,1.3-3.2,3.3c0.1,1,0.4,2,0.7,2.9
				c0.2,0.8,0.2,2.1,0.8,2.7c0.6,0.6,1.9,0.5,2.7,0.8c1,0.3,1.9,0.9,2.8,1.6c1.2,1,5.3,0.2,5.6-1.5c0.5-2.7-0.8-5-3.2-6.2
				c-1.6,0.9-3.1,1.7-4.7,2.6c1.1,0.5,2.2,0.8,3.3,1c1.1,0.2,4.5-0.3,4.7-1.9c-0.1,0-0.3,0-0.4,0c0.8-0.5,1.7-1.4,0.6-2
				c-1.1-0.6-3.1,0.1-4.1,0.6c-0.9,0.5-1.7,1.1-1.9,2.2c1.6-0.6,3.1-1.2,4.7-1.9c-0.8-0.1-1.5-0.4-2.3-0.7c-1.2-0.5-3,0-4.1,0.6
				c-0.8,0.4-1.8,1.4-0.6,2c1.6,0.8,2.5,2.7,2.1,4.5c1.9-0.5,3.7-1,5.6-1.5c-1.8-1.6-3.6-2-5.8-2.6c0.2,0.2,0.4,0.4,0.6,0.5
				c-0.5-1-0.6-2.2-0.9-3.3c-0.2-0.7-0.7-2-0.4-2.7c-0.4,0.4-0.8,0.7-1.1,1.1c0.1,0,0.2-0.1,0.2-0.1c-1,0.3-2,0.5-2.9,0.8
				c1.3-0.1,2.5,0.2,3.8,0.2c1.5,0,2.9-0.1,4.3-0.6c0.7-0.2,2.9-0.9,2.6-2c-0.3-1.1-2.6-0.7-3.2-0.5c-0.1,0-0.3,0.1-0.4,0.1
				c-0.7,0.2-2.8,0.9-2.6,2c0.1,0.6,0.3,1.2,0.3,1.8c0.1-0.2,0.2-0.5,0.2-0.7c0,0.1-0.1,0.1-0.1,0.2c1-0.5,2.1-1,3.1-1.5
				c-1,0.2-2.3-0.1-3.3-0.1c-1.2,0-3.2,0.5-3.8,1.5C246.3,138.1,247.6,138.4,248.5,138.4L248.5,138.4z"/>
		</g>
	</g>
	<g id="XMLID_899_">
		<g id="XMLID_972_">
			<path id="XMLID_978_" class="st3" d="M251.3,143.8c2,4.7,0.9,8.4-1.2,12.8c-0.5,1-1.5,2.4-1.2,3.5c0.2,0.8,1.2,1.1,1.7,1.7
				c1.2,1.2,2,2.2,2.7,3.8c0.9,1.9,5.8,0.4,5.8-1.6c0-3.3,0-6.6-0.1-9.8c-0.1-1.7-5.9-0.6-5.8,1.6c0.1,3.3,0.2,6.6,0.1,9.8
				c1.9-0.5,3.9-1,5.8-1.6c-0.8-1.7-1.8-3-3.1-4.5c-1.8-2-0.4-3,0.7-5.5c1.8-4,2.1-7.8,0.4-11.9
				C256.3,140.3,250.6,142.1,251.3,143.8L251.3,143.8z"/>
		</g>
	</g>
	<g id="XMLID_906_">
		<g id="XMLID_979_">
			<path id="XMLID_985_" class="st2" d="M250.5,149.7c0.3-0.8,0.4-1.6,0.4-2.5c-0.2,0-0.5,0.1-0.7,0.1c0.3,0.6,0.5,1.2,0.6,1.8
				c0.1,0.3,0.7,0.2,0.7-0.1c0.2-1.2-0.1-2.2-0.7-3.2c-0.2-0.3-0.9,0-0.7,0.3c0.6,0.9,0.7,1.9,0.6,3c0.2,0,0.5-0.1,0.7-0.1
				c-0.2-0.6-0.4-1.2-0.6-1.8c-0.1-0.3-0.7-0.2-0.7,0.1c0,0.8-0.1,1.6-0.3,2.4C249.7,150,250.4,150,250.5,149.7L250.5,149.7z"/>
		</g>
	</g>
	<g id="XMLID_913_">
		<g id="XMLID_986_">
			<path id="XMLID_992_" class="st2" d="M251.7,148.7c1.2-3.3-4.2-5-6.7-4.5c-3.1,0.6-6,4-3.4,6.9c0.1,0.1,0.7,0,0.7-0.2
				c-0.1-1-0.1-2.1,0.3-3.1c0.8-2,3.2-3.3,5.3-2.4c0.1,0.1,0.8-0.1,0.6-0.3c-1.2-1.1-2.8-1-4.1-0.1c-0.2,0.1,0,0.2,0.1,0.2
				c-0.1,0,1.8-0.2,1.4-0.3c-0.2-0.1-0.6,0.1-0.8,0.2c-0.7,0.2-1.4,0.6-2,1c-0.3,0.2,0.2,0.2,0.3,0.2c1.2-0.3,2.3-0.7,3.3-1.4
				c0.3-0.2,0-0.3-0.3-0.2c-1.6,0.4-2.7,1.3-4,2.3c-0.3,0.3,0.4,0.2,0.6,0.1c1.2-0.9,2.4-1.6,3.7-2.2c0.1,0,0.2-0.2,0.1-0.2
				c-2.2-0.8-4.1,1.2-5.4,2.8c-0.2,0.2,0.5,0.1,0.6,0c0.9-0.7,1.7-1.4,2.5-2.2c0.2-0.2-0.4-0.1-0.5-0.1c-2,0.7-3.2,2.4-3,4.5
				c0,0.2,0.7,0,0.7-0.2c0.2-1,0.5-1.9,0.9-2.8c-0.2,0-0.5,0.1-0.7,0.1c-0.2,0.9-0.3,1.7-0.3,2.7c0,0.2,0.7,0,0.7-0.2
				c0.4-0.8,0.6-1.6,0.8-2.5c0-0.2-0.7-0.1-0.7,0.1c-0.4,1.1-0.5,2.1-0.6,3.2c0,0.2,0.7,0,0.7-0.2c0.2-0.7,0.3-1.4,0.4-2.2
				c0-0.2-0.7-0.1-0.7,0.1c-0.2,0.8-0.2,1.5-0.3,2.3c0,0.2,0.7,0.1,0.7-0.2c0-0.8,0.1-1.5,0.3-2.2c-0.2,0-0.5,0.1-0.7,0.1
				c-0.1,0.8-0.2,1.4-0.4,2.2c0.2-0.1,0.5-0.1,0.7-0.2c0.1-1.1,0.2-2.1,0.6-3.1c-0.2,0-0.5,0.1-0.7,0.1c-0.2,0.9-0.4,1.7-0.8,2.5
				c0.2-0.1,0.5-0.1,0.7-0.2c0-0.9,0-1.7,0.2-2.6c0.1-0.2-0.6-0.1-0.7,0.1c-0.4,0.9-0.7,1.8-0.9,2.8c0.2-0.1,0.5-0.1,0.7-0.2
				c-0.2-1.8,0.7-3.4,2.5-4.1c-0.2,0-0.3-0.1-0.5-0.1c-0.8,0.8-1.6,1.5-2.4,2.1c0.2,0,0.4,0,0.6,0c0.3-0.4,0.6-0.7,0.9-1
				c0.7-0.9,1.6-1.3,2.7-1.3c0,0.3-1.7,0.9-1.9,1.1c-1,1-0.3,0.4,0.3,0.1c0.5-0.4,1.1-0.8,1.7-1.2c-1.8,0.7-1.5,0.8,0.8,0.1
				c0.2,0,0.7-0.4,0.2-0.3c-0.4,0-0.8,0-1.2,0c1-0.3,1.7-0.2,2.4,0.5c0.2-0.1,0.4-0.2,0.6-0.3c-4.1-1.6-7.4,2.1-6.9,6
				c0.2-0.1,0.5-0.2,0.7-0.2c-2.7-3,0.8-6.8,4.4-6.4c1.9,0.2,5.1,2,4.3,4.3C250.9,149,251.6,148.9,251.7,148.7L251.7,148.7z"/>
		</g>
	</g>
	<g id="XMLID_920_">
		<g id="XMLID_993_">
			<path id="XMLID_999_" class="st2" d="M241,147.5c-0.9,1.2-0.8,3-1,4.4c-0.2,2.1-0.3,4.1-0.9,6.1c0,0.2,0.2,0.1,0.3,0.1
				c1.6-0.2,3.1-0.3,4.7-0.3c0.1,0,0.5-0.1,0.5-0.3c-0.5-2.5-1.2-4.9-2.2-7.3c-0.1-0.2-0.7-0.1-0.7,0.1c-0.2,2-0.3,4-0.2,6
				c0.2-0.1,0.5-0.1,0.7-0.2c-1-2.2-0.8-4.5-0.5-6.8c0-0.3-0.7-0.1-0.7,0.1c-0.4,2.3-0.5,4.6-0.5,6.9c0.2-0.1,0.5-0.1,0.7-0.2
				c-0.2-1.9-0.1-3.8,0.4-5.7c-0.2,0-0.5,0.1-0.7,0.1c0.1,1.6-0.1,3.1-0.5,4.6c-0.1,0.2,0.7,0.1,0.7-0.1c0.4-1.6,0.6-3,0.5-4.7
				c0-0.2-0.7,0-0.7,0.1c-0.4,1.9-0.6,3.8-0.4,5.8c0,0.2,0.7,0,0.7-0.2c0-2.3,0.1-4.6,0.5-6.8c-0.2,0-0.5,0.1-0.7,0.1
				c-0.3,2.4-0.5,4.7,0.5,6.9c0.1,0.2,0.7,0,0.7-0.2c-0.1-2,0-3.9,0.2-5.9c-0.2,0-0.5,0.1-0.7,0.1c1,2.4,1.7,4.8,2.2,7.3
				c0.2-0.1,0.3-0.2,0.5-0.3c-1.1,0-2.2,0.2-3.3,0.1c-0.8-0.1-1,0.2-1-0.8c0-0.6,0.3-1.3,0.3-1.9c0.3-2.2-0.2-5.5,1.2-7.4
				C241.8,147.2,241.1,147.3,241,147.5L241,147.5z"/>
		</g>
	</g>
	<g id="XMLID_927_">
		<g id="XMLID_1000_">
			<path id="XMLID_1006_" class="st2" d="M243,153c-0.3,1.1-0.4,2.2-0.5,3.3c0,0.3,0.7,0.2,0.7-0.1c0.1-1.1,0.3-2.2,0.5-3.3
				C243.8,152.7,243,152.8,243,153L243,153z"/>
		</g>
	</g>
	<g id="XMLID_934_">
		<g id="XMLID_1007_">
			<path id="XMLID_1012_" class="st2" d="M241.7,153.2c-0.1,1.4-0.2,2.8,0.3,4.2c0.1,0.3,0.8,0.1,0.7-0.2c-0.6-1.3-0.5-2.7-0.3-4.1
				C242.5,152.8,241.8,152.9,241.7,153.2L241.7,153.2z"/>
		</g>
	</g>
	<g id="XMLID_941_">
		<g id="XMLID_1013_">
			<path id="XMLID_1019_" class="st2" d="M242.4,153.9c0,1.1,0,2.3,0.2,3.4c0,0.3,0.8,0.1,0.7-0.2c-0.2-1.1-0.2-2.2-0.2-3.3
				C243.1,153.5,242.4,153.6,242.4,153.9L242.4,153.9z"/>
		</g>
	</g>
	<g id="XMLID_948_">
		<g id="XMLID_1020_">
			<path id="XMLID_1025_" class="st2" d="M240.8,154.7c0,0.8,0,1.5,0,2.3c0,0.1,0.7,0,0.7-0.2c0-0.8,0-1.5,0-2.3
				C241.5,154.4,240.8,154.5,240.8,154.7L240.8,154.7z"/>
		</g>
	</g>
	<g id="XMLID_955_">
		<g id="XMLID_1026_">
			<path id="XMLID_1031_" class="st2" d="M240.4,154.9c-0.2,0.8-0.2,1.6-0.2,2.4c0,0.3,0.7,0.1,0.7-0.2c0-0.8,0-1.6,0.2-2.3
				C241.2,154.5,240.5,154.6,240.4,154.9L240.4,154.9z"/>
		</g>
	</g>
	<g id="XMLID_962_">
		<g id="XMLID_1033_">
			<path id="XMLID_1038_" class="st2" d="M251.2,147.2c1,3.4-0.9,7,0.6,10.3c0.1-0.1,0.3-0.2,0.4-0.2c-1.6,0.2-3,0.1-4.5-0.2
				c-0.2,0-0.8,0.2-0.6,0.3c1.7,0.4,3.3,0.4,5,0.2c0,0,0.5-0.1,0.4-0.2c-1.5-3.3,0.4-6.9-0.6-10.3
				C251.8,146.9,251.1,147.1,251.2,147.2L251.2,147.2z"/>
		</g>
	</g>
	<g id="XMLID_969_">
		<g id="XMLID_1039_">
			<path id="XMLID_1044_" class="st2" d="M250.1,154.5c0,0.8,0,1.6,0.1,2.4c0,0.2,0.8,0,0.7-0.2c-0.1-0.8-0.2-1.6-0.1-2.4
				C250.8,154.2,250.1,154.3,250.1,154.5L250.1,154.5z"/>
		</g>
	</g>
	<g id="XMLID_976_">
		<g id="XMLID_1045_">
			<path id="XMLID_1050_" class="st2" d="M249.1,155.1c-0.2,0.8-0.2,1.5,0.1,2.3c0.1,0.2,0.8-0.1,0.7-0.2c-0.3-0.7-0.3-1.5-0.1-2.2
				C249.9,154.9,249.2,155,249.1,155.1L249.1,155.1z"/>
		</g>
	</g>
	<g id="XMLID_983_">
		<g id="XMLID_1051_">
			<path id="XMLID_1057_" class="st2" d="M248.2,155.1c-0.1,0.6-0.2,1.1-0.2,1.7c0,0.2,0.7,0.1,0.7-0.2c0-0.5,0-1.1,0.2-1.6
				C249,154.8,248.3,154.9,248.2,155.1L248.2,155.1z"/>
		</g>
	</g>
	<g id="XMLID_990_">
		<g id="XMLID_1058_">
			<path id="XMLID_1064_" class="st2" d="M247,157c-0.4,2.5-0.4,4.8,1.9,6.2c1.1,0.7,2.5,0.8,3.7,1.4c2.4,1.2,2.1,4.1,1.9,6.4
				c0.3-0.2,0.7-0.4,1-0.6c-0.9-0.1-1.2-4.7-1.5-5.5c-0.5,0.2-0.9,0.3-1.4,0.5c0.2,0.6,0.4,1.1,0.7,1.7c0,0.8,1.4,0.6,1.5-0.1
				c0.1-1-0.1-1.5-0.8-2.2c-0.4-0.4-1.7-0.1-1.4,0.5c0.8,1.8,0.8,3.8,1,5.7c0,0.2,0.3,0.3,0.5,0.3c0.3,0,0.7,0.1,1,0.1
				c0.4,0,0.9-0.2,1-0.6c0.2-1.9,0.5-5.3-1.2-6.7c-0.9-0.8-2.3-0.9-3.4-1.3c-3-1.2-3.4-3.2-2.9-6.1C248.6,156.1,247.1,156.3,247,157
				L247,157z"/>
		</g>
	</g>
	<g id="XMLID_997_">
		<g id="XMLID_1065_">
			<path id="XMLID_1071_" class="st2" d="M244.4,157.7c-0.2,2.2-0.3,4.2-2.5,5.1c-1.3,0.6-2.7,0.8-4,1.5c-2.7,1.4-3.7,4.1-4.9,6.8
				c-0.3,0.7,1.1,0.5,1.4,0.1c0.9-2,1.7-4.5,3.6-5.9c1.7-1.2,3.8-1.4,5.6-2.1c2.1-0.9,2.1-3.6,2.2-5.6
				C245.9,156.9,244.5,157.2,244.4,157.7L244.4,157.7z"/>
		</g>
	</g>
	<g id="XMLID_9_">
		<g id="XMLID_1072_">
			<path id="XMLID_1078_" class="st4" d="M107.5,165.1c-1.9-0.1-3.7,0.3-5.4,1.2c-0.9,0.4-0.1,0.9,0.6,0.6c1.4-0.7,2.8-1,4.3-0.9
				C107.4,165.9,108.4,165.1,107.5,165.1L107.5,165.1z"/>
		</g>
	</g>
	<g id="XMLID_11_">
		<g id="XMLID_1079_">
			<path id="XMLID_1085_" class="st4" d="M106.8,165.9c-3.5,11.3-7.2,22.6-9.9,34.1c-1.3,5.4-2.1,10.9-3.1,16.3
				c-0.5,3-1.1,6-1.8,8.9c-0.4,1.7-0.9,3.4-1.5,5.1c-0.2,0.8-0.5,1.6-0.9,2.3c-0.5,1.6-1.8,2.7-3.7,3.2c0.3-0.8-1.2-0.7-1.4-0.2
				c-0.1,0.2-0.1,0.3-0.2,0.5c0,0.1-0.1,0.3,0,0.4c6.7,6.2,10.8-19.7,11.2-22.2c2.9-16.6,7.7-32.6,12.7-48.7
				C108.5,165.1,107,165.3,106.8,165.9L106.8,165.9z"/>
		</g>
	</g>
	<g id="XMLID_13_">
		<g id="XMLID_1086_">
			<path id="XMLID_1092_" class="st4" d="M101,166.6c-6.6,23.1-12.3,46.6-17,70.2c-0.1,0.6,1.3,0.4,1.5-0.2
				c4.7-23.6,10.3-47,17-70.2C102.6,165.9,101.1,166.1,101,166.6L101,166.6z"/>
		</g>
	</g>
	<g id="XMLID_15_">
		<g id="XMLID_1093_">
			<path id="XMLID_1099_" class="st4" d="M100.5,172.2c-2.6,9.1-5.2,18.1-7.8,27.2c-0.2,0.7,1.2,0.4,1.4,0
				c3.5-7.6,6.3-15.4,8.4-23.4c0.2-0.7-1.3-0.5-1.5,0.1c-2.7,9.2-5.1,18.5-7.4,27.8c-0.2,0.7,1.3,0.4,1.5-0.1
				c2.8-9.1,5.5-18.2,8.3-27.3c-0.5,0-1,0.1-1.5,0.1c-2.4,8-4.8,16-7.3,24.1c0.5,0,1-0.1,1.5-0.1c0.1-6.8,2-13.1,4.2-19.4
				c-0.5,0-0.9,0-1.4,0c-0.7,2.7-1.4,5.4-2.1,8.2c-0.2,0.7,1.3,0.5,1.5-0.1c1.5-5.1,3-10.1,4.5-15.2c0.5-1.6,3.8-10.3,0.9-2.6
				c-0.8,2.2-1.8,4.4-2.9,6.5c0.5,0,0.9,0,1.4,0c0.3-3.7,1.3-7,3-10.2c-0.5,0-0.9-0.1-1.4-0.1c-1.1,3-1.9,6-2.4,9.1
				c-0.1,0.7,1.3,0.5,1.5-0.1c0.8-3.4,1.6-6.8,2.4-10.2c0.1-0.3-0.3-0.4-0.5-0.4c-4-0.8-4.3,6-4.9,8.5c0.5,0,1-0.1,1.5-0.1
				c-0.1-1.7,0.2-3.4,0.9-5c-0.5,0-0.9,0-1.4,0c-0.2,2.7-0.5,5.3-0.7,8c-0.1,0.7,1.1,0.4,1.3,0.1c1-1.1,2-2.3,2.9-3.4
				c-0.4-0.1-0.9-0.2-1.3-0.3c-6,16.9-6.6,35.1-13.2,51.8c0.5,0,0.9,0,1.4,0c1.1-9.3,3.2-18.5,5.3-27.6c-0.5,0-1,0.1-1.5,0.1
				c-1.6,7.8-3.3,15.5-4.9,23.3c-0.1,0.7,1.3,0.5,1.5-0.1c1.9-7.9,3.7-15.9,5.6-23.8c-0.5,0-1,0.1-1.5,0.1
				c-1.6,7.2-3.3,14.4-4.9,21.6c0.5,0,1-0.1,1.5-0.1c0.2-7.4,1.4-14.6,3.5-21.7c0.2-0.6-1.2-0.4-1.4,0c-3.1,6.7-5.1,13.6-6.1,20.9
				c-0.1,0.7,1.3,0.4,1.5-0.1c1.6-5.4,3.4-10.7,5.3-15.9c-0.5,0-0.9,0-1.4,0c-3.3,10.1-5.6,20.5-7,31c-0.1,0.7,1.4,0.5,1.5-0.1
				c0.6-3.5,1.5-6.9,2.6-10.3c0.2-0.6-1.2-0.4-1.4,0c-1.9,3.8-3.2,7.6-3.8,11.8c-0.1,0.7,1.3,0.4,1.5-0.1c1.4-4.6,2.9-9.1,4.7-13.6
				c-0.5,0-0.9,0-1.4,0c-0.6,4.5-1.9,8.5-4.1,12.5c0.5,0,0.9,0.1,1.4,0.1c1.3-3.6,2.9-7,4.8-10.3c-0.5,0-0.9,0-1.4,0
				c-0.7,4.2-2.1,7.8-4.6,11.3c0.5,0,0.9,0,1.4,0c0.8-2.8,1.9-5.2,3.3-7.7c-0.5,0-0.9,0-1.4,0c-0.8,3.4-2.4,6-4.9,8.3
				c0.4,0,0.9,0.1,1.3,0.1c1-4.6,2.2-9.2,3.5-13.7c-0.5,0-1,0.1-1.5,0.1c-0.1,3.4-0.7,6.4-1.8,9.6c-0.3,0.9-1,1.7-0.6,2.6
				c0.2,0.4,0.7,0.3,1,0.2c0.1,0,0.2-0.1,0.3-0.1c0.2-0.1,0.5-0.3,0.4-0.6c0-0.1-0.1-0.2-0.1-0.2c-0.2-0.6-1.7-0.2-1.4,0.4
				c0.3,0.8,2.6-4.8,2.8-5.5c0.5-2.2,0.7-4.4,0.8-6.6c0-0.8-1.3-0.4-1.5,0.1c-1.4,4.5-2.5,9.1-3.5,13.7c-0.2,0.7,1.1,0.3,1.3,0.1
				c2.7-2.5,4.4-5.3,5.2-8.8c0.2-0.7-1.2-0.4-1.4,0c-1.4,2.6-2.5,5.2-3.4,8c-0.2,0.7,1.2,0.3,1.4,0c2.5-3.5,4-7.3,4.7-11.5
				c0.1-0.7-1.2-0.4-1.4,0c-1.9,3.3-3.4,6.7-4.8,10.3c-0.3,0.8,1.1,0.6,1.4,0.1c2.2-4.1,3.5-8.2,4.2-12.7c0.1-0.7-1.2-0.5-1.4,0
				c-1.8,4.5-3.4,9.1-4.8,13.8c0.5,0,1-0.1,1.5-0.1c0.6-4.1,1.9-7.8,3.7-11.5c-0.5,0-0.9,0-1.4,0c-1.1,3.4-2,6.8-2.6,10.3
				c0.5,0,1-0.1,1.5-0.1c1.4-10.6,3.7-20.9,7-31c0.2-0.6-1.2-0.5-1.4,0c-2,5.3-3.8,10.7-5.4,16.2c0.5,0,1-0.1,1.5-0.1
				c1-7.2,3-14,6-20.7c-0.5,0-0.9,0-1.4,0c-2.2,7.1-3.4,14.3-3.5,21.7c0,0.7,1.3,0.4,1.5-0.1c1.6-7.2,3.3-14.4,4.9-21.6
				c0.2-0.7-1.3-0.5-1.5,0.1c-1.9,7.9-3.7,15.9-5.6,23.8c0.5,0,1-0.1,1.5-0.1c1.6-7.8,3.3-15.5,4.9-23.3c0.1-0.7-1.3-0.5-1.5,0.1
				c-2.2,9.1-4.2,18.3-5.3,27.6c-0.1,0.7,1.2,0.5,1.4,0c6.6-16.7,7.2-34.9,13.2-51.8c0.3-0.8-1-0.6-1.3-0.3c-1,1.1-2,2.3-2.9,3.4
				c0.4,0,0.9,0.1,1.3,0.1c0.2-2.7,0.5-5.3,0.7-8c0.1-0.7-1.3-0.5-1.4,0c-0.6,1.8-0.9,3.3-1,5.3c0,0.8,1.3,0.4,1.5-0.1
				c0.3-1,0.5-2.1,0.8-3.1c0.2-0.7,0.9-4.5,1.1-2.1c0.1,2.2-1.3,5.5-1.8,7.7c0.5,0,1-0.1,1.5-0.1c0.5-3.1,1.2-5.9,2.3-8.9
				c0.3-0.8-1.1-0.6-1.4-0.1c-1.8,3.4-2.8,6.7-3.1,10.5c-0.1,0.7,1.2,0.4,1.4,0c1.9-3.8,3.4-7.6,4.5-11.7c0.1-0.4-0.4-0.4-0.7-0.4
				c-2.5,0.1-3,2.2-3.6,4.4c-1.9,6.3-3.7,12.6-5.6,18.9c0.5,0,1-0.1,1.5-0.1c0.7-2.7,1.4-5.4,2.1-8.2c0.2-0.6-1.3-0.5-1.4,0
				c-2.2,6.4-4.2,12.8-4.3,19.7c0,0.8,1.3,0.4,1.5-0.1c2.4-8,4.8-16,7.3-24.1c0.2-0.6-1.3-0.5-1.5,0.1c-2.8,9.1-5.5,18.2-8.3,27.3
				c0.5,0,1-0.1,1.5-0.1c2.3-9.3,4.6-18.6,7.4-27.8c-0.5,0-1,0.1-1.5,0.1c-2.2,8-4.9,15.7-8.4,23.2c0.5,0,0.9,0,1.4,0
				c2.6-9.1,5.2-18.1,7.8-27.2C102.2,171.5,100.7,171.6,100.5,172.2L100.5,172.2z"/>
		</g>
	</g>
	<g id="XMLID_17_">
		<g id="XMLID_1100_">
			<path id="XMLID_1106_" class="st4" d="M88.9,229.9c-0.2,1.6-0.7,3-1.7,4.3c0.4,0.1,0.9,0.2,1.3,0.3c0.2-0.3,0.4-0.6,0.5-0.9
				c0.4-0.6-0.9-0.8-1.2-0.4c-0.6,0.6-1.1,1.1-1.7,1.7c-0.3,0.3-1.1,1.2-1.3,1.3c0.2,0,0.5,0.1,0.7,0.1c-0.3-0.2,0.6-1.7,0.8-2
				c0.4-0.7-1-0.8-1.4-0.2c-0.4,0.6-1.7,2.9-0.2,3.2c0.6,0.1,1-0.4,1.4-0.7c0.9-0.8,1.8-1.7,2.7-2.6c-0.4-0.1-0.8-0.3-1.2-0.4
				c-0.2,0.3-0.4,0.6-0.5,0.9c-0.4,0.7,1,0.8,1.3,0.3c1.1-1.5,1.7-3.1,1.9-4.9C90.4,229,88.9,229.2,88.9,229.9L88.9,229.9z"/>
		</g>
	</g>
	<g id="XMLID_1004_">
		<g id="XMLID_1107_">
			<path id="XMLID_1113_" class="st4" d="M85.9,233.1c-7.7-3.9-2.7-10.6,1.2-14.7c1.5-1.6,3.2-3.4,3.3-5.8c0.1-3.4-3.1-5.6-5.8-3.2
				c-0.7,0.6,0.2,1,0.8,0.8c2.5,1.4,3.1,3.3,1.7,5.5c-0.6,1.1-1.4,2-2.3,2.9c-0.7,0.8-1.3,1.4-1.9,2.2c-1.5,2.2-2.9,5.4-2.3,8.1
				c0.7,3.3,4.1,3.6,5.9,1c-0.4-0.1-0.9-0.1-1.3-0.2c-2.3,1.5-3.2,0.6-2.7-2.9c0.3-1.2,0.8-2.3,1.6-3.3c1.4-2.2,3.3-4,5.3-5.7
				c0.8-0.6-0.4-1.1-1-0.7C84,220.9,77.3,228,84.1,233c0.4,0.3,0.9,0.1,1.2-0.2c1-1,1.3-1.8,1.5-3.2c0.1-0.7-1.1-0.5-1.3-0.2
				c-3.4-1.1-4.2-3-2.6-5.7c0.2-0.5,0.4-1,0.7-1.5c1-1.8,2.2-2.7,3.4-4.2c1.4-1.7,2.6-3.7,2.4-6c-0.3-2.7-2-3.8-4.5-2.9
				c0.3,0.3,0.5,0.5,0.8,0.8c3.4,0.2,4.2,1.5,2.3,4c-0.3,2.1-1.3,3.7-3.1,4.8c-0.4,0.4-0.9,0.8-1.3,1.2c-1.4,1.5-2.5,3.1-3,5.2
				c-0.8,3.7,0.9,6.9,4.2,8.5C85.4,234.2,86.7,233.4,85.9,233.1L85.9,233.1z"/>
		</g>
	</g>
	<g id="XMLID_1018_">
		<g id="XMLID_1114_">
			<path id="XMLID_1120_" class="st4" d="M106.7,161.2c-0.5,1.4-1,2.7-1.6,4c-0.3,0.7,1.1,0.8,1.4,0.2c0.6-1.3,1.1-2.6,1.6-4
				C108.3,160.6,106.9,160.6,106.7,161.2L106.7,161.2z"/>
		</g>
	</g>
	<g id="XMLID_1032_">
		<g id="XMLID_1121_">
			<path id="XMLID_1127_" class="st4" d="M107.6,161.4c0.4,0.5-0.7,2.7-0.9,3.3c-0.4,1.1-0.8,2.3-1.3,3.4c-0.1,0.3,1.3,0.1,1.4-0.2
				c0.5-1.3,1-2.6,1.4-3.9c0.2-0.6,1.2-2.4,0.8-2.9C108.8,160.7,107.5,161.3,107.6,161.4L107.6,161.4z"/>
		</g>
	</g>
	<g id="XMLID_1055_">
		<g id="XMLID_1128_">
			<path id="XMLID_1134_" class="st4" d="M107.2,161.3c-0.5,2-1,4-1.4,6c-0.1,0.6,1.3,0.3,1.5-0.2c0.5-2,1-4,1.4-6
				C108.8,160.6,107.3,160.8,107.2,161.3L107.2,161.3z"/>
		</g>
	</g>
	<g id="XMLID_1062_">
		<g id="XMLID_1135_">
			<path id="XMLID_1141_" class="st4" d="M105.9,163c-0.4,1.3-0.7,2.7-1.1,4c-0.2,0.7,1.3,0.6,1.5-0.1c0.4-1.3,0.7-2.7,1.1-4
				C107.6,162.2,106.1,162.4,105.9,163L105.9,163z"/>
		</g>
	</g>
	<g id="XMLID_1069_">
		<g id="XMLID_1142_">
			<path id="XMLID_1148_" class="st4" d="M108.5,160.6c-1.8-0.4-3.7,0.3-5.1,1.4c-1.7,1.3-2.1,4.1-2.6,6c-0.1,0.5,1.3,0.3,1.4-0.2
				c0.7-2.6,1.6-7.2,5.4-6.5C108.1,161.4,109.3,160.7,108.5,160.6L108.5,160.6z"/>
		</g>
	</g>
	<g id="XMLID_1076_">
		<g id="XMLID_1149_">
			<path id="XMLID_1154_" class="st4" d="M105,161.5c-0.9,1.7-1.6,3.4-1.9,5.3c-0.1,0.7,1.3,0.5,1.5-0.1c0.4-1.8,1-3.4,1.9-5
				C106.8,161,105.3,161,105,161.5L105,161.5z"/>
		</g>
	</g>
	<g id="XMLID_1083_">
		<g id="XMLID_1155_">
			<path id="XMLID_1160_" class="st4" d="M105.2,162.2c-0.6,1.4-1.1,2.8-1.6,4.2c-0.2,0.5,1.3,0.3,1.5-0.2c0.5-1.4,1-2.9,1.6-4.2
				C106.8,161.6,105.4,161.7,105.2,162.2L105.2,162.2z"/>
		</g>
	</g>
	<g id="XMLID_1090_">
		<g id="XMLID_1161_">
			<path id="XMLID_1166_" class="st4" d="M104,162.5c-1.2,1.6-1.9,3.4-2.1,5.4c-0.1,0.7,1.4,0.4,1.5-0.1c0.2-1.9,0.9-3.6,2-5.2
				C105.8,162,104.3,162.1,104,162.5L104,162.5z"/>
		</g>
	</g>
	<g id="XMLID_1097_">
		<g id="XMLID_1167_">
			<path id="XMLID_1172_" class="st4" d="M109.1,156.1c-0.5,1.9-1.1,3.8-1.8,5.6c-0.2,0.5,1.3,0.3,1.4-0.2c0.7-1.8,1.3-3.7,1.8-5.6
				C110.6,155.4,109.2,155.6,109.1,156.1L109.1,156.1z"/>
		</g>
	</g>
	<g id="XMLID_1104_">
		<g id="XMLID_1173_">
			<path id="XMLID_1178_" class="st4" d="M110.1,155.9c-1.6-0.4-3.9-0.4-5.3,0.7c-0.6,0.5-0.9,1.3-1.2,2c-0.5,1.2-0.9,2.5-1.1,3.8
				c-0.1,0.3,1.4,0.1,1.4-0.3c0.2-1.2,0.5-2.3,1-3.4c0.2-0.5,0.4-1.1,0.7-1.5c0.8-1.2,2.2-1.1,3.4-0.8
				C109.2,156.6,110.5,156,110.1,155.9L110.1,155.9z"/>
		</g>
	</g>
	<g id="XMLID_1111_">
		<g id="XMLID_1179_">
			<path id="XMLID_1183_" class="st4" d="M106.4,156.5c-0.7,1.5-1.3,3.1-1.9,4.7c-0.1,0.4,1.3,0.2,1.4-0.2c0.6-1.6,1.2-3.2,1.9-4.7
				C108,156,106.6,156.1,106.4,156.5L106.4,156.5z"/>
		</g>
	</g>
	<g id="XMLID_1118_">
		<g id="XMLID_1184_">
			<path id="XMLID_1188_" class="st4" d="M107.7,156.5c-0.7,1.6-1.2,3.2-1.5,5c-0.1,0.6,1.4,0.4,1.5-0.1c0.3-1.6,0.7-3.2,1.4-4.7
				C109.4,155.9,107.9,156,107.7,156.5L107.7,156.5z"/>
		</g>
	</g>
	<g id="XMLID_1125_">
		<g id="XMLID_1189_">
			<path id="XMLID_1193_" class="st4" d="M107.8,157.2c-0.2,1.2-0.7,2.3-1.5,3.3c-0.6,0.7,0.8,1,1.2,0.5c0.9-1.1,1.5-2.4,1.7-3.8
				C109.5,156.3,108,156.5,107.8,157.2L107.8,157.2z"/>
		</g>
	</g>
	<g id="XMLID_1132_">
		<g id="XMLID_1194_">
			<path id="XMLID_1198_" class="st4" d="M106.2,158.3c-0.1,0.9-0.5,1.7-1,2.4c-0.2,0.2,0.5,0.2,0.6,0.2c0.3,0,0.7-0.2,0.8-0.4
				c0.6-0.8,0.9-1.6,1-2.6C107.7,157.7,106.2,157.9,106.2,158.3L106.2,158.3z"/>
		</g>
	</g>
	<g id="XMLID_1139_">
		<g id="XMLID_1199_">
			<path id="XMLID_1203_" class="st4" d="M106.7,156.5c-1.1,0.1-1.7,0.7-2.1,1.7c-0.7,1.6-1.1,3.3-1.7,5c-0.2,0.6,1.3,0.4,1.5-0.2
				c0.3-1,0.7-2,1-3c0.2-0.5,0.6-2.6,1.2-2.6C107.3,157.4,107.7,156.5,106.7,156.5L106.7,156.5z"/>
		</g>
	</g>
	<g id="XMLID_1146_">
		<g id="XMLID_1204_">
			<path id="XMLID_1208_" class="st4" d="M109.9,155.9c0.4-1.1,1.7-3.3,1.3-4.6c-0.2-0.5-0.6-0.6-0.9-1c-0.4-0.8,0.2-2.8,0.3-3.7
				c0-0.1,0-0.1-0.1-0.2c-1.7-0.5-2.2,0.8-2.4,2.2c-0.2,1.3-0.3,1.2-1.1,2.3c-0.2,0.3-0.4,0.6-0.5,1c-0.7,1.7-1.2,3.5-1.7,5.3
				c-0.1,0.3,1.3,0.1,1.4-0.2c0.7-2.1,1.1-4.6,2.5-6.3c0.7-0.9,0.6-3.5,1.3-3.9c-0.3,0.1-0.7,0.1-1,0.2c0.4,0.1-0.4,3.3,0,4
				c0.2,0.3,0.4,0.2,0.6,0.6c0.2,0.5,0.1,1-0.1,1.6c-0.3,1-0.7,2-1,3C108.4,156.4,109.8,156.3,109.9,155.9L109.9,155.9z"/>
		</g>
	</g>
</g>
</svg>
