<?xml version="1.0" encoding="utf-8"?>
<!-- Generator: Adobe Illustrator 24.0.1, SVG Export Plug-In . SVG Version: 6.00 Build 0)  -->
<svg version="1.1" id="Layer_1" xmlns="http://www.w3.org/2000/svg" xmlns:xlink="http://www.w3.org/1999/xlink" x="0px" y="0px"
	 viewBox="0 0 255.11 255.11" style="enable-background:new 0 0 255.11 255.11;" xml:space="preserve">
<style type="text/css">
	.st0{fill:#918CC3;}
	.st1{fill:none;stroke:#FBD6E6;stroke-miterlimit:10;}
	.st2{opacity:0.55;}
	.st3{fill:none;stroke:#C5DFF4;stroke-miterlimit:10;}
	.st4{fill:#7371B5;}
</style>
<rect id="XMLID_18_" class="st0" width="255.11" height="255.11"/>
<g id="Layer_2">
	<g id="XMLID_41_">
		<g id="XMLID_53_">
			<path id="XMLID_57_" class="st1" d="M88.91,113.82"/>
		</g>
	</g>
	<g id="XMLID_42_" class="st2">
		<g id="XMLID_60_">
			<path id="XMLID_64_" class="st3" d="M161.91,65.15"/>
		</g>
	</g>
</g>
<g>
	<g>
		<path class="st0" d="M113.17,97.16c27.49-8.99,57.41-9.95,85.46-2.91c7.83,1.97,15.51,4.54,22.92,7.74
			c1.75,0.76,3.28-1.83,1.51-2.59c-13.52-5.83-27.77-9.69-42.38-11.54c-14.6-1.85-29.43-1.63-43.98,0.6
			c-8.25,1.27-16.39,3.21-24.33,5.81C110.54,94.87,111.32,97.77,113.17,97.16L113.17,97.16z"/>
	</g>
</g>
<g>
	<g>
		<path class="st4" d="M261.71,80.84c-9.84-14.11-24.59-23.72-40.64-29.42c-18.58-6.6-38.28-7.51-57.82-6.97
			c-22.28,0.61-44.51,2-66.81,1.75c-21.11-0.24-42.82-1.21-63-7.97C16.81,32.66,1,22.51-8.43,7.4c-1.11-1.78-2.11-3.61-3.03-5.49
			c-0.85-1.74-3.43-0.22-2.59,1.51c7.62,15.62,21.81,27.19,37.5,34.15c18.97,8.41,39.96,10.55,60.49,11.33
			c22.29,0.85,44.6-0.07,66.87-0.99c20.41-0.85,41.11-1.54,61.03,3.79c16.45,4.41,32.29,12.61,43.48,25.72
			c1.35,1.58,2.61,3.23,3.81,4.94C260.22,83.92,262.82,82.43,261.71,80.84L261.71,80.84z"/>
	</g>
</g>
<g>
	<g>
		<path class="st4" d="M19.3,30.14c0.16,3.22,0.19,6.45,0.09,9.68c-0.02,0.79,0.71,1.54,1.5,1.5c0.83-0.04,1.47-0.66,1.5-1.5
			c0.1-3.23,0.07-6.45-0.09-9.68c-0.04-0.78-0.66-1.54-1.5-1.5C20.02,28.67,19.26,29.3,19.3,30.14L19.3,30.14z"/>
	</g>
</g>
<g>
	<g>
		<path class="st4" d="M19.89,29.93c0.7,0.24,1.39,0.5,1.85,0.96c0.13,0.13,0.11,0.08,0.24,0.33c-0.07-0.13,0.05,0.28,0.05,0.34
			c0.02,0.5-0.14,1.02-0.24,1.5c-0.5,2.43-0.99,4.86-1.49,7.29c-0.16,0.79,0.23,1.62,1.05,1.85c0.74,0.2,1.68-0.25,1.85-1.05
			c0.29-1.43,0.59-2.87,0.88-4.3c0.3-1.47,0.67-2.95,0.88-4.44c0.19-1.38-0.11-2.72-1.15-3.7c-0.87-0.83-2-1.28-3.11-1.67
			c-0.76-0.27-1.64,0.3-1.85,1.05C18.61,28.91,19.12,29.66,19.89,29.93L19.89,29.93z"/>
	</g>
</g>
<g>
	<g>
		<path class="st4" d="M54.75,40.48c0,2.78,0,5.56,0,8.33c0,0.78,0.69,1.54,1.5,1.5c0.81-0.04,1.5-0.66,1.5-1.5
			c0-2.78,0-5.56,0-8.33c0-0.78-0.69-1.54-1.5-1.5C55.43,39.02,54.75,39.64,54.75,40.48L54.75,40.48z"/>
	</g>
</g>
<g>
	<g>
		<path class="st4" d="M55.91,41.32c0.48,0,0.95,0,1.43,0c0.2,0,0.41,0,0.61,0c0.12,0,0.24,0,0.35,0c-0.07-0.01-0.14-0.02-0.21-0.03
			c-0.18-0.18-0.36-0.36-0.54-0.54c-0.03-0.03-0.01-0.22-0.03-0.25c0.05,0.05-0.13,0.65-0.15,0.74c-0.09,0.42-0.17,0.84-0.26,1.27
			c-0.18,0.88-0.36,1.76-0.54,2.64c-0.36,1.76-0.73,3.52-1.09,5.28c-0.16,0.79,0.23,1.62,1.05,1.85c0.74,0.2,1.68-0.25,1.85-1.05
			c0.55-2.67,1.1-5.35,1.65-8.02c0.26-1.28,0.95-2.98,0.01-4.11c-0.93-1.12-2.81-0.77-4.11-0.77
			C53.98,38.32,53.98,41.32,55.91,41.32L55.91,41.32z"/>
	</g>
</g>
<g>
	<g>
		<path class="st4" d="M56.01,48.69c-1.11-1.78-2.91-0.91-4.21,0.08c-1.48,1.12-3.14,1.99-4.91,2.54c-3.59,1.13-7.48,1.12-11.1,0.12
			c-7.49-2.06-13.1-8.18-16.58-14.89c-0.89-1.71-3.48-0.2-2.59,1.51c3.58,6.88,9.2,12.94,16.58,15.68
			c3.55,1.32,7.46,1.71,11.21,1.18c1.87-0.26,3.66-0.77,5.39-1.52c0.91-0.4,1.79-0.86,2.62-1.41c0.42-0.28,0.82-0.58,1.22-0.88
			c0.17-0.13,0.34-0.26,0.51-0.4c0.45-0.19,0.22-0.37-0.72-0.52C54.44,51.84,57.04,50.33,56.01,48.69L56.01,48.69z"/>
	</g>
</g>
<g>
	<g>
		<path class="st4" d="M20.4,37.79c-2.27-1.56-4.94,0.86-6.63,2.24c-1.87,1.53-3.51,3.29-4.96,5.21c-2.92,3.85-4.93,8.4-5.78,13.16
			c-0.33,1.89,2.56,2.7,2.89,0.8c0.72-4.03,2.27-7.83,4.58-11.21c1.13-1.65,2.45-3.16,3.9-4.53c0.72-0.67,1.47-1.32,2.26-1.91
			c0.42-0.31,1.72-1.51,2.22-1.17C20.49,41.48,21.99,38.88,20.4,37.79L20.4,37.79z"/>
	</g>
</g>
<g>
	<g>
		<path class="st4" d="M5.38,60.33c0.75-0.23,1.59,1.8,1.84,2.28c0.77,1.44,1.5,2.91,2.18,4.39c1.35,2.91,2.51,5.89,3.53,8.92
			c0.62-0.62,1.23-1.23,1.85-1.85c-1.51-0.41-2.81-2.13-3.68-3.35c-1.01-1.4-1.83-2.94-2.49-4.54c-1.37-3.34-2.13-6.9-2.87-10.43
			c-0.39-1.89-3.29-1.09-2.89,0.8c0.83,3.95,1.73,7.89,3.37,11.6c0.78,1.78,1.76,3.44,2.96,4.97c1.24,1.58,2.81,3.3,4.81,3.84
			c1.06,0.29,2.22-0.74,1.85-1.85c-1.25-3.74-2.74-7.4-4.46-10.95c-1.2-2.47-3.1-7.86-6.79-6.73C2.74,58,3.52,60.9,5.38,60.33
			L5.38,60.33z"/>
	</g>
</g>
<g>
	<g>
		<path class="st4" d="M15.64,40.83c1.59,5.77,3.07,11.57,4.44,17.39c0.44,1.88,3.33,1.08,2.89-0.8
			c-1.36-5.83-2.84-11.63-4.44-17.39C18.02,38.18,15.12,38.97,15.64,40.83L15.64,40.83z"/>
	</g>
</g>
<g>
	<g>
		<path class="st4" d="M18.83,57.43c-1.82,5.39-2.85,11.03-3.09,16.72c-0.08,1.93,2.92,1.93,3,0c0.23-5.43,1.24-10.77,2.98-15.92
			C22.34,56.39,19.45,55.6,18.83,57.43L18.83,57.43z"/>
	</g>
</g>
<g>
	<g>
		<path class="st4" d="M57.22,52.86c-0.62,0.73-0.68-0.22-0.27,0.38c0.21,0.31,0.58,0.61,0.84,0.88c0.47,0.49,0.94,0.98,1.42,1.47
			c1.09,1.12,2.21,2.21,3.41,3.23c2.3,1.96,4.81,3.57,7.69,4.54c-0.22-0.84-0.44-1.67-0.66-2.51c-5,4.19-8.67,9.75-10.63,15.97
			c-0.58,1.85,2.31,2.63,2.89,0.8c1.81-5.74,5.24-10.78,9.86-14.64c0.92-0.77,0.32-2.18-0.66-2.51c-3.36-1.12-6.12-3.39-8.62-5.83
			c-1.23-1.2-2.33-2.58-3.63-3.7c-1.05-0.91-2.73-1.4-3.77-0.19C53.86,52.21,55.97,54.34,57.22,52.86L57.22,52.86z"/>
	</g>
</g>
<g>
	<g>
		<path class="st4" d="M68.92,63.52c1.2,5.74-2.06,11.82-7.31,14.26c-0.73,0.34-0.92,1.4-0.54,2.05c0.44,0.75,1.31,0.88,2.05,0.54
			c6.51-3.03,10.15-10.68,8.69-17.65C71.42,60.83,68.53,61.63,68.92,63.52L68.92,63.52z"/>
	</g>
</g>
<g>
	<g>
		<path class="st4" d="M54.94,61.17c-0.45,13.32,5.22,26.6,14.87,35.74c2.76,2.62,5.85,4.89,9.17,6.73c0.25-0.93,0.5-1.86,0.76-2.8
			c-6.94,0.23-11.21,5.91-17.2,8.45c-2.41,1.02-5.24,1.31-7.59-0.06c-2.86-1.66-2.42-4.77-1.98-7.59c0.41-2.61,0.62-5.53-0.97-7.82
			c-1.72-2.48-4.91-2.85-7.52-1.65c-2.81,1.29-4.43,4.1-6.29,6.43c-1.87,2.34-3.95,4.63-6.5,6.24c-2.48,1.57-5.32,2.43-8.25,1.9
			c-2.66-0.48-4.95-1.91-6.04-4.45c-0.76-1.77-3.34-0.24-2.59,1.51c2.11,4.91,8.03,6.73,12.96,5.85
			c6.22-1.12,10.66-6.38,14.25-11.16c1.37-1.82,4.39-5.58,7.02-3.54c2.29,1.78,0.96,5.96,0.69,8.26c-0.35,2.95,0.21,5.89,2.61,7.84
			c2.09,1.7,4.93,2.34,7.58,2.03c3.53-0.42,6.6-2.41,9.45-4.41c3.12-2.19,6.4-4.71,10.37-4.84c1.44-0.05,2.1-2.05,0.76-2.8
			c-11-6.12-18.9-17.08-21.61-29.34c-0.77-3.47-1.07-7-0.95-10.55C58.01,59.24,55.01,59.24,54.94,61.17L54.94,61.17z"/>
	</g>
</g>
<g>
	<g>
		<path class="st4" d="M9.21,74.82c-0.41,10.46,1.16,20.95,4.63,30.83c0.64,1.81,3.54,1.03,2.89-0.8
			c-3.39-9.65-4.93-19.81-4.52-30.03C12.29,72.89,9.28,72.89,9.21,74.82L9.21,74.82z"/>
	</g>
</g>
<g>
	<g>
		<path class="st4" d="M36.94,75.83c0.44,4.03,2.07,7.72,4.42,10.99c1.17,1.62,2.46,3.15,3.85,4.59c1.3,1.35,2.97,2.64,3.6,4.46
			c0.63,1.81,3.53,1.03,2.89-0.8c-0.65-1.86-1.88-3.29-3.26-4.67c-1.38-1.39-2.74-2.81-3.94-4.36c-2.29-2.97-4.15-6.45-4.57-10.23
			c-0.09-0.81-0.63-1.5-1.5-1.5C37.7,74.33,36.86,75.02,36.94,75.83L36.94,75.83z"/>
	</g>
</g>
<g>
	<g>
		<path class="st4" d="M42.26,98.92c1.71,3.2,3.93,6.15,6.52,8.69c0.56,0.55,1.57,0.6,2.12,0c0.55-0.59,0.6-1.53,0-2.12
			c-0.61-0.6-1.2-1.21-1.76-1.85c-0.29-0.33-0.57-0.66-0.85-1c-0.14-0.17-0.28-0.34-0.41-0.51c-0.05-0.07-0.13-0.17-0.03-0.04
			c-0.07-0.1-0.15-0.19-0.22-0.29c-1.04-1.39-1.96-2.85-2.78-4.38c-0.37-0.69-1.39-0.97-2.05-0.54
			C42.09,97.32,41.86,98.18,42.26,98.92L42.26,98.92z"/>
	</g>
</g>
<g>
	<g>
		<path class="st4" d="M77.46,103.15c1.9,4.17-3.58,7.45-6.41,9.23c-3.66,2.31-7.53,4.45-11.82,5.29c-7.8,1.52-15.07-2.7-21.87-5.89
			c-3.94-1.85-8-3.56-12.34-4.18c-0.81-0.12-1.6,0.2-1.85,1.05c-0.2,0.7,0.25,1.73,1.05,1.85c8.63,1.23,15.77,6.7,23.97,9.25
			c4.2,1.3,8.58,1.65,12.87,0.6c4.68-1.15,8.94-3.67,12.94-6.29c4.15-2.72,8.47-7.06,6.04-12.41
			C79.25,99.89,76.67,101.41,77.46,103.15L77.46,103.15z"/>
	</g>
</g>
<g>
	<g>
		<path class="st4" d="M94.75,43.82c0,2.67,0,5.33,0,8c0,0.78,0.69,1.54,1.5,1.5c0.81-0.04,1.5-0.66,1.5-1.5c0-2.67,0-5.33,0-8
			c0-0.78-0.69-1.54-1.5-1.5C95.43,42.35,94.75,42.97,94.75,43.82L94.75,43.82z"/>
	</g>
</g>
<g>
	<g>
		<path class="st4" d="M96.4,45.12c0.18-0.12,0.37-0.25,0.56-0.35c0.08-0.04,0.16-0.08,0.24-0.13c0.35-0.18-0.14,0.02,0.07-0.03
			c0.1-0.03,0.21-0.07,0.31-0.1c0.17-0.05,0.1,0-0.03-0.01c0.05,0,0.35,0.05,0.16-0.01c-0.12-0.02-0.11-0.01,0.03,0.02
			c-0.05-0.02-0.1-0.04-0.14-0.05c-0.23-0.15,0.06,0.06-0.06-0.07c-0.16-0.18,0.1,0.18-0.02-0.04c-0.1-0.19,0.02,0.1,0.03,0.15
			c-0.05-0.2-0.02-0.16-0.02,0.02c0,0.1-0.01,0.21-0.02,0.31c0.01-0.14,0.03-0.18-0.01-0.02c-0.05,0.21-0.1,0.41-0.16,0.62
			c-0.63,2.1-1.33,4.19-1.99,6.28c-0.24,0.75,0.28,1.67,1.05,1.85c0.82,0.19,1.59-0.25,1.85-1.05c0.41-1.3,0.83-2.61,1.24-3.91
			c0.39-1.23,0.9-2.47,1.02-3.76c0.13-1.38-0.59-2.8-1.98-3.22c-1.27-0.39-2.61,0.19-3.65,0.9c-0.65,0.44-1,1.34-0.54,2.05
			C94.76,45.22,95.71,45.59,96.4,45.12L96.4,45.12z"/>
	</g>
</g>
<g>
	<g>
		<path class="st4" d="M121.75,45.48c0,2.44,0,4.89,0,7.33c0,0.78,0.69,1.54,1.5,1.5c0.81-0.04,1.5-0.66,1.5-1.5
			c0-2.44,0-4.89,0-7.33c0-0.78-0.69-1.54-1.5-1.5C122.43,44.02,121.75,44.64,121.75,45.48L121.75,45.48z"/>
	</g>
</g>
<g>
	<g>
		<path class="st4" d="M123.67,46.22c0.16-0.18,0.32-0.35,0.5-0.51c0.02-0.02,0.22-0.19,0.15-0.13c-0.07,0.05,0.23-0.16,0.24-0.16
			c0.18-0.11,0.36-0.21,0.55-0.31c0.05-0.02,0.1-0.04,0.14-0.07c-0.09,0.04-0.09,0.04,0.01,0c0.12-0.04,0.25-0.08,0.38-0.12
			c-0.63-0.48-1.27-0.96-1.9-1.45c0.09,3.3-0.39,6.41-1.45,9.54c-0.25,0.74,0.29,1.67,1.05,1.85c0.83,0.19,1.58-0.25,1.85-1.05
			c1.12-3.32,1.65-6.84,1.55-10.34c-0.03-0.95-0.94-1.73-1.9-1.45c-1.26,0.38-2.42,1.08-3.29,2.07c-0.54,0.61-0.6,1.52,0,2.12
			C122.09,46.77,123.13,46.83,123.67,46.22L123.67,46.22z"/>
	</g>
</g>
<g>
	<g>
		<path class="st4" d="M130.4,54.01c-0.16-0.16-0.3-0.37-0.47-0.51c0.13,0.17,0.15,0.2,0.05,0.07c-0.04-0.05-0.08-0.11-0.12-0.16
			c-0.06-0.08-0.11-0.16-0.17-0.25c-0.26-0.39-0.49-0.8-0.74-1.19c-0.54-0.85-1.15-1.67-2.03-2.2c-1.65-1-4.18-0.98-5.2,0.9
			c-0.37,0.69-0.19,1.67,0.54,2.05c0.7,0.37,1.65,0.2,2.05-0.54c0.03-0.06,0.09-0.12,0.11-0.19c-0.17,0.21-0.2,0.26-0.1,0.14
			c0.02-0.02,0.03-0.03,0.05-0.05c0.17-0.19-0.3,0.19-0.09,0.07c0.06-0.03,0.12-0.06,0.17-0.1c-0.3,0.22-0.27,0.1-0.11,0.05
			c0.06-0.02,0.14-0.03,0.2-0.05c-0.32,0.12-0.31,0.03-0.12,0.02c0.07,0,0.15,0,0.22,0c0.07,0,0.15,0.02,0.22,0.02
			c-0.43-0.01-0.24-0.03-0.1,0c0.15,0.03,0.3,0.08,0.44,0.13c0.27,0.09-0.32-0.17-0.07-0.03c0.07,0.04,0.14,0.07,0.21,0.11
			c0.07,0.04,0.13,0.08,0.2,0.12c0.16,0.1,0.13,0.18-0.06-0.05c0.1,0.12,0.25,0.23,0.35,0.35c0.05,0.05,0.18,0.17,0.19,0.23
			c-0.04-0.05-0.08-0.1-0.11-0.15c0.04,0.05,0.08,0.11,0.12,0.16c0.23,0.33,0.44,0.67,0.65,1.01c0.46,0.76,0.95,1.52,1.59,2.14
			c0.57,0.54,1.57,0.6,2.12,0C130.94,55.54,131.01,54.59,130.4,54.01L130.4,54.01z"/>
	</g>
</g>
<g>
	<g>
		<path class="st4" d="M121.05,51.8c-0.03-0.01-0.07-0.03-0.1-0.04c0.35,0.62,0.7,1.23,1.05,1.85c0.01-0.05,0.02-0.11,0.03-0.16
			c-0.23,0.3-0.46,0.6-0.69,0.9c0.04-0.02,0.09-0.04,0.13-0.06c-0.61-0.08-1.21-0.16-1.82-0.23c0.06,0.06,0.11,0.13,0.17,0.19
			c-0.15-0.35-0.29-0.71-0.44-1.06c0.14,1.71-0.42,3.66-0.91,5.28c-0.54,1.76-1.3,3.44-2.26,5.01c-0.62,1.02-1.69,3.04-3.17,2.61
			c-1.39-0.41-2.19-2.17-2.74-3.37c-1.35-2.94-2.28-6.06-4.36-8.6c-2.19-2.67-5.6-4.1-9.03-3.9c-1.92,0.11-1.93,3.11,0,3
			c4.32-0.25,7.04,2.5,8.74,6.18c1.45,3.12,2.34,7.41,5.63,9.18c3.9,2.11,6.75-1.98,8.31-5c0.93-1.8,1.66-3.71,2.14-5.68
			c0.42-1.71,1.3-4.5,0.04-5.96c-0.46-0.54-1.24-0.5-1.82-0.23c-0.45,0.21-0.77,0.63-0.85,1.12c-0.14,0.88,0.23,1.5,1.05,1.85
			c0.03,0.01,0.07,0.03,0.1,0.04c0.75,0.32,1.64-0.34,1.85-1.05C122.35,52.79,121.8,52.12,121.05,51.8L121.05,51.8z"/>
	</g>
</g>
<g>
	<g>
		<path class="st4" d="M96.81,55.48c0.38,5.3,1.11,10.57,2.19,15.76c0.16,0.79,1.1,1.25,1.85,1.05c0.82-0.23,1.21-1.05,1.05-1.85
			c-1.02-4.94-1.72-9.93-2.08-14.97c-0.06-0.81-0.65-1.5-1.5-1.5C97.55,53.98,96.75,54.66,96.81,55.48L96.81,55.48z"/>
	</g>
</g>
<g>
	<g>
		<path class="st4" d="M100.08,58.56c0.55,1.89,1.11,3.78,1.66,5.67c0.22,0.75,1.07,1.3,1.85,1.05c0.76-0.25,1.28-1.04,1.05-1.85
			c-0.55-1.89-1.11-3.78-1.66-5.67c-0.22-0.75-1.07-1.3-1.85-1.05C100.36,56.97,99.84,57.76,100.08,58.56L100.08,58.56z"/>
	</g>
</g>
<g>
	<g>
		<path class="st4" d="M94.25,49.93c-7.25,21.62-3.92,44.82,0.1,66.73c2.11,11.53,4.28,23.11,7.84,34.3
			c3.5,11,8.24,21.58,13.32,31.93c5.2,10.59,11.16,21.04,19.79,29.24c1.4,1.33,3.52-0.79,2.12-2.12
			c-7.55-7.17-12.98-16.13-17.68-25.35c-5.1-10-9.8-20.28-13.47-30.89c-3.77-10.91-6.1-22.2-8.22-33.52
			c-2.04-10.9-4.01-21.84-4.76-32.91C92.45,75,93.18,62.52,97.14,50.73C97.75,48.9,94.86,48.11,94.25,49.93L94.25,49.93z"/>
	</g>
</g>
<g>
	<g>
		<path class="st4" d="M134.39,212.87c1.22,1.12,3.04,0.99,4.11-0.3c1.13-1.35,0.99-3.49,0.94-5.13c-0.11-3.94-1.01-7.83-2.13-11.59
			c-1.14-3.85-2.5-7.63-3.48-11.53c-0.98-3.87-1.46-7.82-1.35-11.81c0.11-4.07,0.83-8.11,2.1-11.98c0.84-2.54,2.36-7.06,5.78-6.74
			c1.46,0.14,2.36,1.03,2.06,2.53c-0.4,2.03-1.34,3.98-1.81,6.01c-0.47,2.04-0.79,4.12-0.94,6.2c-0.11,1.47-0.09,3.02,0.46,4.42
			c0.63,1.64,2.02,2.93,3.84,3.02c1.76,0.09,3.26-0.96,4.29-2.3c1.15-1.5,1.58-3.18,1.88-5.02c0.29-1.77,0.5-3.68,1.95-4.91
			c-0.79-0.1-1.57-0.2-2.36-0.3c1.14,1.54,2.28,3.08,3.42,4.62c0.91,1.23,1.79,2.68,3.19,3.41c3.19,1.65,5.04-1.7,6-4.15
			c1.34-3.43,2.47-7.05,4.13-10.35c1.17-2.31,4.18-5.75,7.02-3.56c1.78,1.37,2.02,4.22,1.98,6.28c-0.06,3.6-0.83,7.25-1.87,10.68
			c-1.76,5.81-4.32,12.65,0.24,17.91c1.98,2.28,5.04,3.19,7.85,2.01c2.74-1.14,4.75-3.94,3.88-6.96c-0.54-1.85-3.43-1.06-2.89,0.8
			c0.62,2.14-1.91,3.88-3.86,3.71c-2.32-0.2-3.76-2.61-4.3-4.63c-0.78-2.92,0.05-5.95,0.93-8.75c1-3.2,2-6.36,2.51-9.69
			c0.69-4.47,1.38-10.97-2.96-13.95c-2.19-1.51-5.06-1.24-7.26,0.12c-2.54,1.58-3.86,4.28-4.94,6.95c-0.72,1.78-1.4,3.58-2.1,5.37
			c-0.62,1.6-1.1,3.54-2.05,4.97c-1,1.51-2.14-0.65-2.78-1.5c-1.19-1.61-2.38-3.21-3.57-4.82c-0.61-0.82-1.56-0.98-2.36-0.3
			c-2.63,2.22-2.22,5.55-3.18,8.51c-0.33,1.03-1.34,2.95-2.66,2.85c-1.26-0.1-1.46-1.88-1.5-2.84c-0.13-3.87,0.95-7.9,2.22-11.52
			c0.58-1.66,1.03-3.46,0.18-5.11c-0.62-1.2-1.76-2.03-3.03-2.44c-7.31-2.36-10.28,7.62-11.43,12.77
			c-1.69,7.58-1.28,15.31,0.79,22.77c1.15,4.15,2.64,8.2,3.74,12.37c0.54,2.06,1,4.15,1.22,6.27c0.11,1.09,0.16,2.18,0.15,3.28
			c-0.01,0.48,0.01,0.99-0.06,1.46c-0.01,0.09-0.13,0.39-0.11,0.47c0.15,0.57-0.48-0.37,0.23,0.28
			C135.09,209.45,132.96,211.57,134.39,212.87L134.39,212.87z"/>
	</g>
</g>
<g>
	<g>
		<path class="st4" d="M128.36,54.16c2.05,13.18,6.18,27.1,17.06,35.74c5.21,4.14,11.23,6.18,17.82,6.79
			c7.3,0.67,14.7-0.11,21.92,1.41c7.08,1.48,14.31,5.34,17.06,12.43c0.62-0.62,1.23-1.23,1.85-1.85
			c-5.29-1.41-10.09,1.91-11.56,6.98c-0.73,2.52-0.73,5.21-1.54,7.72c-0.65,2-2.04,4.41-4.38,4.54c-1.92,0.1-1.93,3.1,0,3
			c5.22-0.28,7.29-5.64,7.98-10.07c0.39-2.47,0.62-5.36,2.31-7.34c1.56-1.83,4.1-2.54,6.4-1.93c1.02,0.27,2.28-0.74,1.85-1.85
			c-2.32-5.97-7.27-10.27-13.11-12.68c-6.81-2.81-14.2-2.93-21.45-3.04c-6.87-0.11-13.78-0.51-19.84-4.08
			c-5.35-3.14-9.54-8-12.49-13.4c-3.9-7.14-5.73-15.19-6.97-23.16C130.96,51.46,128.07,52.27,128.36,54.16L128.36,54.16z"/>
	</g>
</g>
<g>
	<g>
		<path class="st4" d="M168.71,104.25c2.19,14.71,15.25,23.84,25.35,33.27c5.15,4.81,10.26,10.24,12.93,16.88
			c0.63,1.58,1.12,3.21,1.44,4.88c0.29,1.5,0.87,3.92-0.12,5.26c-1,1.36-3.01,1.46-4.54,1.46c-2.04,0-4.08-0.13-6.05,0.55
			c-8.31,2.87-9.6,12.75-15.79,17.93c-1.48,1.24,0.65,3.35,2.12,2.12c2.98-2.49,4.81-5.93,6.75-9.23c1.76-3.01,3.89-6.27,7.21-7.73
			c3.59-1.58,7.82,0.34,11.25-1.96c3.28-2.2,2.66-6.4,1.94-9.76c-3.19-14.85-17.18-23.68-27.29-33.65
			c-5.85-5.76-11.08-12.49-12.32-20.83C171.32,101.55,168.43,102.36,168.71,104.25L168.71,104.25z"/>
	</g>
</g>
<g>
	<g>
		<path class="st4" d="M175.74,149.66c-10.12-11.29-18.59-23.97-25.18-37.61c-0.84-1.74-3.43-0.22-2.59,1.51
			c6.71,13.87,15.37,26.75,25.65,38.22C174.91,153.22,177.03,151.1,175.74,149.66L175.74,149.66z"/>
	</g>
</g>
<g>
	<g>
		<path class="st4" d="M140.63,148.01c-4.06-6.96-8.12-13.93-12.19-20.89c-0.97-1.67-3.57-0.16-2.59,1.51
			c4.06,6.96,8.12,13.93,12.19,20.89C139.01,151.19,141.6,149.68,140.63,148.01L140.63,148.01z"/>
	</g>
</g>
<g>
	<g>
		<path class="st4" d="M143.23,151.18c-0.62-0.51-1.17-1.09-1.67-1.73c0.08,0.1,0.16,0.2,0.23,0.3c-0.58-0.75-1.06-1.57-1.43-2.45
			c0.05,0.12,0.1,0.24,0.15,0.36c-0.04-0.09-0.07-0.18-0.11-0.27c-0.15-0.38-0.33-0.68-0.69-0.9c-0.32-0.19-0.8-0.27-1.16-0.15
			c-0.36,0.12-0.71,0.34-0.9,0.69c-0.18,0.33-0.3,0.79-0.15,1.16c0.78,1.96,1.97,3.74,3.6,5.1c0.31,0.26,0.64,0.44,1.06,0.44
			c0.37,0,0.81-0.16,1.06-0.44c0.26-0.29,0.46-0.66,0.44-1.06C143.65,151.86,143.53,151.43,143.23,151.18L143.23,151.18z"/>
	</g>
</g>
<g>
	<g>
		<path class="st4" d="M162.39,162.85c4.27,7.68,7.47,15.87,9.58,24.41c0.46,1.87,3.36,1.08,2.89-0.8
			c-2.17-8.77-5.5-17.22-9.88-25.12C164.04,159.65,161.45,161.16,162.39,162.85L162.39,162.85z"/>
	</g>
</g>
<g>
	<g>
		<path class="st4" d="M142.3,170.77c-1.48-4.59-4.08-8.77-7.58-12.09c-1.4-1.33-3.53,0.79-2.12,2.12
			c3.13,2.97,5.49,6.67,6.81,10.77c0.25,0.77,1.04,1.27,1.85,1.05C142.01,172.41,142.54,171.54,142.3,170.77L142.3,170.77z"/>
	</g>
</g>
<g>
	<g>
		<path class="st4" d="M163.21,44.39c-0.23-0.3-0.45-0.6-0.68-0.9c-0.39-0.52-1.01-0.91-1.69-0.69c-0.64,0.21-1.09,0.76-1.1,1.45
			c-0.05,2.8,0.3,5.61,1.02,8.32c0.2,0.76,1.08,1.3,1.85,1.05c0.78-0.25,1.26-1.03,1.05-1.85c-0.17-0.63-0.32-1.27-0.44-1.91
			c-0.06-0.32-0.12-0.64-0.17-0.97c-0.03-0.17-0.05-0.35-0.08-0.52c0.04,0.26-0.02-0.15-0.02-0.2c-0.15-1.3-0.22-2.61-0.2-3.92
			c-0.93,0.25-1.86,0.5-2.8,0.76c0.23,0.3,0.45,0.6,0.68,0.9c0.47,0.62,1.32,1.01,2.05,0.54C163.29,46.05,163.71,45.06,163.21,44.39
			L163.21,44.39z"/>
	</g>
</g>
<g>
	<g>
		<path class="st4" d="M161.7,43.82c0.02-0.01,0.27-0.2,0.29-0.18c-0.17,0.07-0.2,0.08-0.09,0.05c0.05-0.02,0.11-0.03,0.17-0.04
			c-0.06,0.01-0.12,0.01-0.17,0.02c0.08-0.01,0.15-0.01,0.23-0.01c0.31-0.02-0.27-0.06,0.05,0.02c-0.37-0.48-0.73-0.96-1.1-1.45
			c0,2.42,0.01,4.83,0.01,7.25c0,0.78,0.69,1.54,1.5,1.5c0.81-0.04,1.5-0.66,1.5-1.5c0-2.42-0.01-4.83-0.01-7.25
			c0-0.65-0.46-1.28-1.1-1.45c-0.93-0.25-1.98-0.12-2.78,0.44c-0.64,0.45-1,1.33-0.54,2.05C160.06,43.92,161.02,44.3,161.7,43.82
			L161.7,43.82z"/>
	</g>
</g>
<g>
	<g>
		<path class="st4" d="M186.97,43.14c-0.14,3.11-0.27,6.23-0.41,9.34c-0.03,0.78,0.71,1.54,1.5,1.5c0.84-0.04,1.46-0.66,1.5-1.5
			c0.14-3.11,0.27-6.23,0.41-9.34c0.03-0.78-0.71-1.54-1.5-1.5C187.63,41.68,187.01,42.3,186.97,43.14L186.97,43.14z"/>
	</g>
</g>
<g>
	<g>
		<path class="st4" d="M188.27,46.06c0.07-0.01,0.24-0.03,0.08-0.01c0.13-0.02,0.26-0.03,0.4-0.04c0.24-0.02,0.48-0.04,0.72-0.05
			c0.48-0.02,0.96,0,1.44,0.03c-0.48-0.63-0.96-1.27-1.45-1.9c-0.67,2.77-1.34,5.55-2.01,8.32c-0.18,0.76,0.24,1.66,1.05,1.85
			c0.77,0.18,1.65-0.23,1.85-1.05c0.67-2.77,1.34-5.55,2.01-8.32c0.24-1-0.46-1.83-1.45-1.9c-1.15-0.08-2.28,0-3.42,0.18
			c-0.78,0.12-1.28,1.14-1.05,1.85C186.7,45.86,187.44,46.19,188.27,46.06L188.27,46.06z"/>
	</g>
</g>
<g>
	<g>
		<path class="st4" d="M186.95,49.37c-2.02,0.58-3.73,2.1-5.62,3.01c-1.88,0.9-3.95,1.54-6.04,1.58c-2.2,0.05-4.32-0.58-6.4-1.22
			c-2.23-0.69-4.45-1.38-6.67-2.08c-1.85-0.58-2.64,2.32-0.8,2.89c2.37,0.74,4.73,1.49,7.1,2.21c2.19,0.67,4.46,1.25,6.77,1.2
			c2.21-0.05,4.34-0.61,6.37-1.47c1.07-0.45,2.1-0.97,3.11-1.55c0.97-0.56,1.9-1.38,2.99-1.69
			C189.6,51.73,188.81,48.84,186.95,49.37L186.95,49.37z"/>
	</g>
</g>
<g>
	<g>
		<path class="st4" d="M189.11,52.16c6.52,15.2,16.21,28.98,28.3,40.27c0.1-0.79,0.2-1.57,0.3-2.36c-1.52,0.81-2.42,2.16-3.44,3.5
			c-0.46,0.6-0.93,1.2-1.64,1.52c-0.32,0.15-1.19,0.5-1.48,0.12c-0.81-1.05-2.26-0.92-2.74,0.36c-0.3,0.8-1.14,1.35-1.98,1.44
			c-0.93,0.11-1.67-0.46-2.32-1.05c-1.4-1.25-2.78-2.84-4.81-2.89c-2.33-0.06-4.14,1.88-6.28,2.55c-2.43,0.76-4.95,0.68-7.36-0.14
			c-1.83-0.62-2.62,2.28-0.8,2.89c2.69,0.91,5.62,1.02,8.37,0.31c1.36-0.35,2.67-0.93,3.87-1.66c1.02-0.62,1.92-1.33,3.05-0.57
			c1.86,1.25,3.01,3.24,5.43,3.52c2.55,0.3,4.82-1.28,5.71-3.61c-0.91,0.12-1.83,0.24-2.74,0.36c1.48,1.91,3.86,2,5.87,0.8
			c2.02-1.21,2.73-3.76,4.79-4.86c0.84-0.45,0.99-1.71,0.3-2.36c-11.92-11.13-21.41-24.67-27.83-39.66
			C190.94,48.88,188.35,50.4,189.11,52.16L189.11,52.16z"/>
	</g>
</g>
<g>
	<g>
		<path class="st4" d="M159.39,50.73c-3.11,14.64-3.58,29.7-1.43,44.51c0.28,1.9,3.17,1.09,2.89-0.8
			c-2.07-14.25-1.56-28.83,1.43-42.91C162.68,49.65,159.79,48.84,159.39,50.73L159.39,50.73z"/>
	</g>
</g>
<g>
	<g>
		<path class="st4" d="M166.91,96.41c2.5-0.23,3.9-2.03,5.36-3.86c1.49-1.87,3.25-3.69,5.25-5.01c0.76-0.5,1.76-1.09,2.69-0.71
			c0.87,0.36,1.33,1.29,1.51,2.15c0.47,2.3-0.47,5-1.53,7.01c-0.9,1.71,1.69,3.22,2.59,1.51c1.38-2.61,2.36-5.79,1.93-8.77
			c-0.39-2.69-2.51-5.2-5.42-5.01c-1.48,0.1-2.79,0.84-3.95,1.71c-1.17,0.87-2.27,1.82-3.3,2.86c-0.96,0.98-1.8,2.04-2.65,3.11
			c-0.6,0.75-1.42,1.9-2.47,2c-0.81,0.07-1.5,0.64-1.5,1.5C165.41,95.67,166.1,96.49,166.91,96.41L166.91,96.41z"/>
	</g>
</g>
<g>
	<g>
		<path class="st4" d="M187.38,67.03c-2.22-3.19-4.78-5.93-8.71-6.78c-1.73-0.37-3.54-0.25-5.23,0.3c-0.68,0.22-7.32,3.38-2.41,1.51
			c1.33,0,2.66,0,3.99,0c2.13,1.77,2.59,1.66,1.36-0.33c-0.44-1-0.88-2-1.32-3c-2.53-5.75-12.64-4.33-13.71,1.79
			c-1.07,6.14-1.77,12.3-1.98,18.52c4.91-0.66,9.82-1.33,14.73-1.99c-0.34-2.27-0.68-4.55-1.01-6.82
			c-1.26-8.47-14.82-6.28-14.73,1.99c0.05,4.84,0.11,9.67,0.16,14.51c0.07,5.97,6.25,8.96,11.29,6.48c1.97-0.97,3.44-2.51,4.51-4.41
			c1.15-2.02,0.52-2.5,2.31-3.3c1.32-0.59,7.72-0.32,6.88,1.25c4.66,1.26,9.32,2.52,13.98,3.79c0.01-0.37,0.01-0.74,0.02-1.11
			c-0.34,1.26-0.68,2.52-1.02,3.79c-2.6,0.58-2.7,1.01-0.3,1.29c0.57,0.16,1.15,0.32,1.72,0.49c1.2,0.26,6.91,1.83,3.41-0.17
			c-3.25-1.86-0.15,1.04,0.68,1.84c1.33,1.29,2.76,2.02,4.54,2.45c7.12,1.72,12.8-7.15,7.3-12.54C204.87,77.81,198,67.65,193,56.17
			c-2.11-4.85-8.49-4.21-11.78-1.52c-2.75,2.24-5.34,4.31-9.01,3.99c1.26,4.66,2.52,9.32,3.79,13.98c1.86-1.21,3.72-2.41,5.58-3.62
			c5.62-3.65,4.16-14.95-3.79-13.98c-3.81,0.47-6.65,0.1-9.97-1.88c-6.9-4.12-13.26,3.83-10.26,10.26c0.78,1.68,0.84,3.26,0.77,5.07
			c-0.34,9.65,14.66,9.64,15,0c0.16-4.56-0.91-8.54-2.82-12.65c-3.42,3.42-6.84,6.84-10.26,10.26c5.32,3.18,11.36,4.69,17.54,3.93
			c-1.26-4.66-2.52-9.32-3.79-13.98c-1.86,1.21-3.72,2.41-5.58,3.62c-6.5,4.21-3.57,13.34,3.79,13.98
			c7.74,0.67,13.92-3.73,19.62-8.38c-3.93-0.51-7.85-1.01-11.78-1.52c5.47,12.57,13.38,23.86,23.17,33.44
			c2.43-4.18,4.86-8.36,7.3-12.54c2.37,2.19,2.91,2.51,1.63,0.94c-0.42-0.71-0.93-1.33-1.55-1.87c-1.21-1.19-2.57-1.99-4.19-2.48
			c-2.93-0.89-6.68-1.46-9.73-1.93c-7.28-1.12-14.06,3.62-14.21,11.23c-0.14,7.32,10.45,10.37,13.98,3.79
			c5.24-9.78-0.73-21.04-11.27-23.6c-4.71-1.14-9.95-0.8-14.44,1c-2.42,0.97-4.63,2.33-6.39,4.28c-0.7,0.78-1.36,1.7-1.86,2.62
			c-0.28,0.64-0.55,1.29-0.82,1.93c-0.65,1.32-0.46,1.22,0.56-0.31c3.76,2.16,7.52,4.32,11.29,6.48c-0.05-4.84-0.11-9.67-0.16-14.51
			c-4.91,0.66-9.82,1.33-14.73,1.99c0.34,2.27,0.68,4.55,1.01,6.82c1.28,8.65,14.45,6.1,14.73-1.99c0.17-4.89,0.61-9.71,1.45-14.54
			c-4.57,0.6-9.14,1.19-13.71,1.79c1.65,3.73,2.99,7.74,6.97,9.55c1.88,0.85,3.91,1.18,5.94,0.68c0.9-0.33,1.78-0.69,2.65-1.08
			c1.68-1.34,2.01-1.58,1-0.72c-1.33,0-2.66,0-3.99,0c-0.08-0.04-0.17-0.08-0.25-0.11C179.91,82.47,192.92,74.98,187.38,67.03
			L187.38,67.03z"/>
	</g>
</g>
<g>
	<g>
		<path class="st4" d="M218.41,48.82c0,2.56,0,5.11,0,7.67c0,0.78,0.69,1.54,1.5,1.5c0.81-0.04,1.5-0.66,1.5-1.5
			c0-2.56,0-5.11,0-7.67c0-0.78-0.69-1.54-1.5-1.5C219.1,47.35,218.41,47.97,218.41,48.82L218.41,48.82z"/>
	</g>
</g>
<g>
	<g>
		<path class="st4" d="M221.03,49.5c-0.44,0.17-0.83,0.11-1.18-0.17c-0.09-0.13-0.11-0.15-0.05-0.05c0.05,0.09,0.05,0.08-0.01-0.05
			c0.03,0.09,0.06,0.18,0.07,0.27c-0.06-0.33-0.02,0.18-0.03,0.21c-0.01,0.21-0.02,0.42-0.02,0.64c-0.04,0.95-0.07,1.91-0.11,2.86
			c-0.07,1.87-0.15,3.74-0.22,5.61c-0.03,0.81,0.71,1.5,1.5,1.5c0.84,0,1.47-0.69,1.5-1.5c0.1-2.44,0.19-4.87,0.29-7.31
			c0.04-1.13,0.24-2.32-0.21-3.39c-0.49-1.16-1.84-2.03-3.04-1.22c-0.67,0.46-0.97,1.32-0.54,2.05
			C219.37,49.62,220.36,49.96,221.03,49.5L221.03,49.5z"/>
	</g>
</g>
<g>
	<g>
		<path class="st4" d="M224.18,58.9c-0.17,0.02-0.34,0.06-0.51,0.07c0.33-0.03,0.02,0-0.05,0.01c-0.09,0.01-0.17,0.02-0.26,0.03
			c-0.36,0.04-0.73,0.07-1.09,0.08c-0.17,0-0.34,0-0.51,0c-0.09,0-0.17-0.01-0.26-0.01c0,0-0.4-0.04-0.18-0.01
			c0.19,0.02-0.08-0.02-0.12-0.02c-0.08-0.02-0.17-0.03-0.25-0.05c-0.15-0.03-0.3-0.08-0.44-0.12c-0.05-0.02-0.13-0.06-0.19-0.07
			c0.07,0,0.27,0.13,0.08,0.03c-0.12-0.06-0.24-0.12-0.35-0.18c-0.07-0.04-0.14-0.09-0.21-0.13c-0.04-0.03-0.22-0.17-0.05-0.03
			c0.17,0.14-0.01-0.01-0.04-0.04c-0.05-0.04-0.1-0.09-0.14-0.13c-0.1-0.1-0.19-0.24-0.3-0.32c0.06,0.04,0.17,0.24,0.06,0.07
			c-0.03-0.05-0.07-0.11-0.1-0.16c-0.03-0.06-0.06-0.11-0.09-0.17c-0.13-0.24,0.07,0.22,0.02,0.05c-0.04-0.14-0.08-0.28-0.11-0.42
			c-0.15-0.77-1.11-1.28-1.85-1.05c-0.82,0.27-1.21,1.02-1.05,1.85c0.34,1.71,1.77,2.92,3.33,3.52c1.73,0.67,3.67,0.37,5.45,0.11
			c0.78-0.11,1.28-1.14,1.05-1.85C225.75,59.09,225.02,58.78,224.18,58.9L224.18,58.9z"/>
	</g>
</g>
<g>
	<g>
		<path class="st4" d="M224.77,62.83c0.35-0.48,0.71-0.97,1.06-1.45c-0.93-0.25-1.86-0.5-2.8-0.76
			c-1.17,15.38,7.89,28.83,10.88,43.46c0.05,0.26,0.24,2.27,0.39,2.34c0.14-0.09,0.28-0.19,0.42-0.28
			c-0.11-0.06-0.22-0.12-0.32-0.19c-0.09-0.1-0.27-0.18-0.38-0.26c-0.27-0.19-0.52-0.39-0.76-0.6c-0.99-0.87-1.8-1.89-2.49-3.01
			c-1.45-2.38-2.34-5.04-3.23-7.67c-1.84-5.45-3.77-10.63-8.55-14.17c-1.28-0.95-2.84-1.87-3.64-3.29
			c-1.09-1.92,0.04-4.25,0.51-6.19c1.11-4.64,1.36-9.44,0.76-14.17c-0.24-1.89-3.24-1.91-3,0c0.58,4.55,0.39,9.15-0.71,13.6
			c-0.51,2.09-1.31,4.17-0.88,6.35c0.32,1.63,1.33,3,2.55,4.08c1.24,1.1,2.68,1.94,3.92,3.03c1.1,0.96,1.99,2.09,2.75,3.34
			c1.56,2.6,2.49,5.52,3.46,8.38c0.97,2.86,1.96,5.79,3.56,8.36c0.77,1.24,1.69,2.41,2.77,3.39c1.13,1.02,2.75,2.41,4.39,1.99
			c1.96-0.5,1.97-2.54,1.71-4.16c-0.35-2.08-0.85-4.14-1.42-6.18c-1.1-3.9-2.51-7.71-3.91-11.51c-3.16-8.56-6.45-17.36-5.75-26.64
			c0.12-1.63-2.01-1.83-2.8-0.76c-0.35,0.48-0.71,0.97-1.06,1.45C221.03,62.87,223.64,64.37,224.77,62.83L224.77,62.83z"/>
	</g>
</g>
<g>
	<g>
		<path class="st4" d="M239.81,58.75c-0.46,3.23-0.72,6.47-0.74,9.73c0,0.78,0.69,1.54,1.5,1.5c0.82-0.04,1.49-0.66,1.5-1.5
			c0.02-2.97,0.23-6.11,0.63-8.93c0.11-0.77-0.19-1.65-1.05-1.85C240.95,57.54,239.93,57.92,239.81,58.75L239.81,58.75z"/>
	</g>
</g>
<g>
	<g>
		<path class="st4" d="M242.35,59.82c-0.13-1.8-1.05-3.41-2.63-4.33c-1.01-0.59-2.22,0.17-2.26,1.3c-0.1,3.32-0.09,6.64,0.02,9.96
			c0.02,0.6,0.45,1.35,1.1,1.45c0.16,0.02,0.31,0.06,0.46,0.11c-0.13-0.05,0.08,0.08,0.08,0.08c0.06,0.05,0.11,0.11,0.17,0.17
			c-0.06-0.07-0.06-0.06-0.01,0.02c0.05,0.09,0.05,0.09,0.01,0c0.03,0.1,0.06,0.2,0.08,0.31c0.17,0.79,1.1,1.25,1.85,1.05
			c0.82-0.23,1.21-1.05,1.05-1.85c-0.29-1.38-1.49-2.58-2.89-2.79c0.37,0.48,0.73,0.96,1.1,1.45c-0.12-3.32-0.13-6.64-0.02-9.96
			c-0.75,0.43-1.5,0.86-2.26,1.3c0.31,0.18,0.62,0.46,0.79,0.74c0.23,0.38,0.33,0.7,0.35,1c0.06,0.81,0.65,1.5,1.5,1.5
			C241.62,61.32,242.41,60.63,242.35,59.82L242.35,59.82z"/>
	</g>
</g>
<g>
	<g>
		<path class="st4" d="M242.26,68.83c-1.51-0.18-2.91-1.09-3.75-2.34c-0.86-1.27-2.66-0.73-2.8,0.76
			c-0.59,6.52-1.19,13.03-1.78,19.55c-0.18,1.92,2.83,1.91,3,0c0.59-6.52,1.19-13.03,1.78-19.55c-0.93,0.25-1.86,0.5-2.8,0.76
			c1.5,2.21,3.71,3.51,6.35,3.83c0.81,0.1,1.5-0.76,1.5-1.5C243.76,69.44,243.07,68.93,242.26,68.83L242.26,68.83z"/>
	</g>
</g>
<g>
	<g>
		<path class="st4" d="M242.25,73.32c1.93,0,1.93-3,0-3C240.32,70.32,240.31,73.32,242.25,73.32L242.25,73.32z"/>
	</g>
</g>
<g>
	<g>
		<path class="st4" d="M240.94,71.83c-0.22,4.9,0.88,9.79,3.12,14.14c1.08,2.11,2.45,4.07,4.04,5.83c1.7,1.88,3.69,3.5,4.94,5.74
			c0.94,1.69,3.53,0.18,2.59-1.51c-1.14-2.04-2.8-3.65-4.42-5.31c-1.63-1.67-3.04-3.5-4.17-5.54c-2.26-4.08-3.3-8.7-3.09-13.35
			C244.02,69.9,241.02,69.9,240.94,71.83L240.94,71.83z"/>
	</g>
</g>
<g>
	<g>
		<path class="st4" d="M234.58,86.7c-1.58,3.71,1.13,6.45,3.93,8.5c2.55,1.87,5.17,3.89,7.03,6.49c0.89,1.25,1.6,2.62,1.96,4.12
			c0.39,1.61,0.18,3.37,1.13,4.81c0.84,1.27,2.37,2.01,3.86,1.52c1.36-0.44,2.1-1.8,2.38-3.12c0.4-1.89,0.36-3.96,0.31-5.88
			c-0.06-2.11-0.36-4.21-1.17-6.17c-0.31-0.76-0.99-1.27-1.85-1.05c-0.71,0.19-1.35,1.1-1.05,1.85c0.73,1.79,1.03,3.65,1.07,5.58
			c0.03,1.58,0.1,3.32-0.21,4.88c-0.05,0.25-0.2,1.03-0.46,1.09c-0.6,0.13-0.75-1.7-0.77-1.92c-0.19-1.65-0.48-3.16-1.16-4.69
			c-1.29-2.91-3.57-5.31-5.98-7.33c-1.25-1.06-2.58-2.02-3.89-3c-1.14-0.85-3.26-2.45-2.53-4.16c0.32-0.75,0.22-1.6-0.54-2.05
			C236.01,85.78,234.9,85.95,234.58,86.7L234.58,86.7z"/>
	</g>
</g>
<g>
	<g>
		<path class="st4" d="M7.45,54.81c2.97,5.11,5.41,10.49,7.29,16.09c0.61,1.82,3.51,1.04,2.89-0.8c-1.96-5.84-4.49-11.48-7.59-16.81
			C9.07,51.63,6.48,53.13,7.45,54.81L7.45,54.81z"/>
	</g>
</g>
<g>
	<g>
		<path class="st4" d="M67.96,58.39c-1.62-0.42-2.93,0.54-3.76,1.87c-0.9,1.45-1.4,3.22-2.03,4.8c-1.39,3.44-2.77,6.88-4.16,10.32
			c-0.3,0.75,0.33,1.65,1.05,1.85c0.86,0.24,1.54-0.29,1.85-1.05c1.15-2.85,2.3-5.7,3.45-8.55c0.55-1.38,1.11-2.75,1.66-4.13
			c0.22-0.55,0.42-1.11,0.72-1.63c0.07-0.12,0.43-0.59,0.43-0.59C69.04,61.76,69.83,58.87,67.96,58.39L67.96,58.39z"/>
	</g>
</g>
<g>
	<g>
		<path class="st4" d="M71.45,96.71c-1.7,0.81-3.04,2.13-4.44,3.36c-1.33,1.18-2.79,2.08-4.5,2.58c-3.3,0.95-6.84,0.41-9.69-1.51
			c-1.6-1.08-3.11,1.52-1.51,2.59c3.32,2.24,7.54,2.89,11.42,1.97c1.92-0.46,3.71-1.33,5.26-2.54c1.66-1.3,3.05-2.94,4.98-3.85
			C74.71,98.47,73.18,95.89,71.45,96.71L71.45,96.71z"/>
	</g>
</g>
<g>
	<g>
		<path class="st4" d="M41.78,86.24c-2.96,0.65-4.78,3.18-6.18,5.67c-0.72,1.28-1.41,2.65-2.49,3.67c-1.25,1.19-3.01,1.54-4.66,1.85
			c-6.37,1.18-13.06-0.4-18.37-4.04c-1.6-1.09-3.1,1.51-1.51,2.59c5.66,3.87,12.69,5.49,19.47,4.54c1.66-0.23,3.36-0.56,4.89-1.25
			c1.59-0.72,2.77-1.92,3.76-3.34c1.65-2.37,2.72-6.11,5.9-6.8C44.46,88.72,43.67,85.83,41.78,86.24L41.78,86.24z"/>
	</g>
</g>
<g>
	<g>
		<path class="st4" d="M53.23,50.13c-1.59,5.14-6.98,10.55-12.79,8.83c-3.01-0.89-5.77-2.98-8.45-4.56
			c-2.24-1.32-5.85-2.74-6.92-5.32c-0.73-1.76-3.63-0.99-2.89,0.8c1.43,3.46,4.84,5.07,7.89,6.87c3.23,1.91,6.66,4.56,10.41,5.32
			c7.2,1.46,13.64-4.69,15.64-11.14C56.7,49.08,53.8,48.29,53.23,50.13L53.23,50.13z"/>
	</g>
</g>
<g>
	<g>
		<path class="st4" d="M98.02,12.74c13.71,9.6,31.67,7.83,46.33,1.5c0.35-0.15,1.13-0.44,0.84-0.92c-0.25-0.41-1.6-0.01-1.88,0.11
			c-7.04,3.04-14.64,5.03-22.36,4.77c-7.19-0.24-14.29-2.34-20.21-6.49C100.04,11.22,97.49,12.38,98.02,12.74L98.02,12.74z"/>
	</g>
</g>
<g>
	<g>
		<path class="st4" d="M66.53,5.16c4.74,13.52,19.5,18.52,32.55,19.5c0.66,0.05,1.6-0.2,1.89-0.87c0.27-0.64-0.24-1.12-0.87-1.17
			c-12.24-0.93-26.21-5.51-30.67-18.23C68.98,3.11,66.09,3.91,66.53,5.16L66.53,5.16z"/>
	</g>
</g>
<g>
	<g>
		<path class="st4" d="M191.09,18.3c3.92,1.62,8.27,0.8,12.17-0.45c3.9-1.25,8.08-3.21,12.26-2.2c8.22,1.98,11.21,11.12,12.03,18.52
			c0.14,1.22,3.04,0.53,2.9-0.78c-0.87-7.83-4.04-16.43-12.15-19.26c-4.15-1.45-8.49-0.46-12.52,0.88
			c-4.17,1.39-8.66,3.24-12.99,1.45C191.67,16,189.42,17.61,191.09,18.3L191.09,18.3z"/>
	</g>
</g>
<g>
	<g>
		<path class="st4" d="M226.22,9.11c5.46,5.13,9.26,11.78,10.9,19.1c0.26,1.16,3.16,0.41,2.9-0.78c-1.67-7.44-5.57-14.3-11.13-19.52
			C228.06,7.12,225.32,8.26,226.22,9.11L226.22,9.11z"/>
	</g>
</g>
<g>
	<g>
		<path class="st4" d="M20.44,175.88c1.46,2.32,2.93,4.64,4.39,6.96c0.45,0.71,3.14-0.4,2.9-0.78c-1.46-2.32-2.93-4.64-4.39-6.96
			C22.89,174.39,20.21,175.51,20.44,175.88L20.44,175.88z"/>
	</g>
</g>
<g>
	<g>
		<path class="st4" d="M24.2,182.71c8.85,8.14,18.09,19.78,31.6,17.91c4.93-0.68,9.99-3.42,12.4-7.91c1.2-2.24,1.88-5.39,0.63-7.75
			c-1.28-2.42-4.07-2.93-6.48-2.01c-2.46,0.94-3.48,3.24-3.95,5.67c-0.5,2.58-0.55,5.24-0.16,7.84c0.79,5.26,3.36,10.29,7.27,13.92
			c4.4,4.09,10.26,6.04,15.96,7.51c5.72,1.48,11.43,2.81,16.99,4.81c12.09,4.37,23.71,11.3,31.01,22.15
			c0.51,0.76,3.18-0.35,2.9-0.78c-5.75-8.56-14.14-14.79-23.39-19.17c-4.56-2.16-9.3-3.91-14.13-5.35
			c-5.25-1.56-10.67-2.53-15.87-4.26c-5.12-1.7-9.89-4.32-13.23-8.66c-2.96-3.85-4.67-8.68-4.86-13.52c-0.1-2.43,0.1-5.08,1.04-7.35
			c0.23-0.56,0.52-1.13,0.94-1.58c0.53-0.57,0.58-0.52,1.36-0.13c1.22,0.6,1.94,1.84,2.2,3.13c0.99,4.95-2.98,9.72-7.32,11.5
			c-5.76,2.36-12.49-0.42-17.33-3.65c-5.57-3.71-9.97-8.86-14.86-13.36C26.32,181.14,23.68,182.23,24.2,182.71L24.2,182.71z"/>
	</g>
</g>
<g>
	<g>
		<path class="st4" d="M69.74,224.6c4.55,1.6,9.35,0.89,14.05,0.75c2.39-0.07,4.77,0.07,7.06,0.8c2.28,0.73,4.36,1.97,6.25,3.43
			c0.83,0.65,3.47-0.57,2.28-1.5c-3.84-2.98-8.27-4.51-13.13-4.55c-4.93-0.04-10,1.04-14.77-0.64
			C70.45,222.53,68.08,224.02,69.74,224.6L69.74,224.6z"/>
	</g>
</g>
<g>
	<g>
		<path class="st4" d="M19.29,142c6.12,4.68,14.28,8.16,22.12,7.76c3.82-0.2,7.31-1.86,10.03-4.53c2.88-2.82,4.71-6.44,6.49-10.01
			c0.64-1.29-2.26-1.04-2.71-0.12c-2.87,5.77-6.57,13-14,12.94c-6.84-0.06-13.88-3.1-19.24-7.2c-0.55-0.42-1.32-0.34-1.93-0.07
			C19.75,140.89,18.73,141.58,19.29,142L19.29,142z"/>
	</g>
</g>
<g>
	<g>
		<path class="st4" d="M177.89,211.03c3.51,3.71,7.76,6.7,12.45,8.75c4.81,2.1,10.43,3.57,15.65,2.28c4.94-1.22,8.7-4.9,11.67-8.84
			c3.13-4.15,5.52-8.87,7.04-13.84c1.52-4.97,2.19-10.25,1.85-15.44c-0.18-2.71-0.68-5.43-1.79-7.92c-0.89-1.99-2.25-4.1-4.6-4.38
			c-5.2-0.63-7.37,5.21-6.36,9.38c1.14,4.7,4.93,8.78,8.93,11.3c4.85,3.05,10.4,3.35,15.74,1.43c5.54-1.99,10.15-5.95,14.42-9.88
			c1.19-1.09-1.67-0.92-2.29-0.34c-6.06,5.58-14.09,12.66-22.88,8.91c-3.88-1.66-7.47-4.9-9.55-8.57c-1.01-1.77-1.75-3.79-1.77-5.85
			c-0.01-1.2,0.82-5.61,2.68-4.73c1.9,0.9,2.85,3.45,3.46,5.3c0.71,2.18,1.03,4.48,1.14,6.77c0.21,4.45-0.34,8.94-1.52,13.23
			c-1.2,4.34-3.04,8.51-5.51,12.28c-2.28,3.48-5.14,7.22-8.92,9.15c-4.64,2.36-10.6,0.39-15.06-1.55
			c-4.57-1.99-8.65-4.91-12.07-8.52C179.97,209.29,177.23,210.33,177.89,211.03L177.89,211.03z"/>
	</g>
</g>
<g>
	<g>
		<path class="st4" d="M74.69,158.09c-0.35-3.04-1.84-5.77-4.17-7.74c-0.55-0.47-2.44,0.22-2.79,0.75c-1.92,2.93,0.53,5.95,2.65,7.9
			c0.91-0.32,1.82-0.65,2.73-0.98c-1.87-0.82-3.88-0.87-5.78-0.08c-1.35,0.56-2.48,1.66-2.17,3.24c0.34,1.76,2.21,1.72,3.61,1.38
			c1.58-0.38,3.85-1.18,4.27-2.97c-0.95,0.17-1.9,0.35-2.85,0.52c-0.52,2.51-0.79,5.07-0.74,7.64c0.02,0.91,0.01,1.89,0.59,2.66
			c0.54,0.71,1.35,0.63,2.16,0.52c0.36-0.05,1.6-0.32,1.7-0.77c1-4.47,1.53-9.01,1.58-13.59c-0.97,0.26-1.93,0.52-2.9,0.78
			c1.63,2.29,3.32,4.61,5.79,6.03c0.54,0.31,2.75-0.11,2.82-0.88c0.31-3.82-3.27-6.5-6.83-6.23c-0.3,0.36-0.61,0.72-0.91,1.08
			c1.88-0.29,3.53-1.2,4.56-2.83c0.63-0.99,1.99-3.59,0.82-4.63c-0.67-0.6-1.85-0.32-2.6-0.08c-0.89,0.28-1.65,0.77-2.17,1.56
			c-1.29,1.96-1.85,4.69-2.26,6.96c-0.11,0.62,2.7,0.16,2.85-0.52c0.32-1.45,0.45-2.9,0.37-4.38c-0.02-0.47-2.94,0-2.9,0.78
			c0.07,1.4-0.03,2.76-0.33,4.13c0.95-0.17,1.9-0.35,2.85-0.52c0.26-1.42,0.61-2.81,1.08-4.18c0.22-0.65,0.47-1.3,0.75-1.92
			c0.13-0.3,0.26-0.59,0.44-0.86c0.44-0.41,0.31-0.49-0.38-0.23c-0.69-0.05-0.82,0.06-0.38,0.33c0.27,1.08,0.04,1.93-0.41,2.95
			c-0.23,0.52-0.49,1.03-0.83,1.49c-0.18,0.24-0.38,0.48-0.61,0.68c-0.13,0.11-0.63,0.3-0.31,0.25c-0.38,0.06-1.47,0.28-1.64,0.7
			c-0.18,0.44,0.39,0.4,0.74,0.37c3.04-0.23,5.43,3.09,5.2,5.88c0.94-0.29,1.88-0.58,2.82-0.88c-2.41-1.39-4.05-3.61-5.63-5.83
			c-0.4-0.56-2.89,0.06-2.9,0.78c-0.05,4.49-0.56,8.95-1.54,13.33c0.57-0.26,1.14-0.52,1.7-0.77c-0.07,0.01-0.14,0.02-0.21,0.03
			c0.31-0.01,0.61-0.02,0.92-0.04c-1.43-0.15-1.13-3.18-1.11-4.08c0.03-2.09,0.27-4.17,0.7-6.22c0.12-0.6-2.7-0.17-2.85,0.52
			c-0.11,0.49-0.6,1.5-1.24,1.49c-0.54-0.01-0.84-0.9-0.9-1.3c-0.09-0.63,0.09-1.14,0.41-1.66c0.07-0.11,0.48-0.34,0.11-0.2
			c-0.36,0.14,0.17,0.07,0.32,0.09c0.52,0.07,1.01,0.24,1.49,0.45c0.5,0.22,3.26-0.49,2.73-0.98c-1.98-1.83-4.34-4.69-2.53-7.45
			c-0.93,0.25-1.86,0.5-2.79,0.75c2.27,1.92,3.67,4.6,4.01,7.55C71.85,159.39,74.77,158.83,74.69,158.09L74.69,158.09z"/>
	</g>
</g>
<g>
	<g>
		<path class="st4" d="M68.22,158.1c-0.43,0.54-0.87,1.09-1.3,1.63c-0.09,0.13-0.13,0.28-0.1,0.43c0.03,0.12,0.1,0.2,0.2,0.26
			c0.1,0.09,0.22,0.14,0.36,0.16c0.23,0.05,0.46,0.05,0.69,0.02c0.57-0.07,1.16-0.26,1.64-0.57c0.33-0.22,0.66-0.5,0.85-0.85
			c0.08-0.1,0.11-0.21,0.1-0.33c0.02-0.11-0.02-0.21-0.11-0.29c-0.09-0.1-0.2-0.16-0.33-0.19c-0.15-0.06-0.3-0.09-0.46-0.09
			c-0.38-0.01-0.79,0.06-1.14,0.22c-0.11,0.06-0.22,0.11-0.33,0.17c-0.18,0.11-0.33,0.24-0.45,0.41c-0.04,0.08-0.09,0.15-0.15,0.22
			c0.06-0.07,0.12-0.14,0.19-0.21c-0.06,0.07-0.12,0.13-0.2,0.18c0.09-0.07,0.17-0.13,0.26-0.2c-0.05,0.04-0.11,0.07-0.16,0.1
			c0.11-0.06,0.22-0.11,0.33-0.17c-0.06,0.03-0.12,0.06-0.18,0.08c0.13-0.04,0.25-0.09,0.38-0.13c-0.05,0.02-0.11,0.03-0.16,0.04
			c0.13-0.03,0.26-0.05,0.39-0.08c-0.03,0.01-0.06,0.01-0.1,0.01c0.39,0.29,0.78,0.59,1.16,0.88c0.43-0.54,0.87-1.09,1.3-1.63
			c0.08-0.1,0.11-0.21,0.1-0.33c0.02-0.11-0.02-0.21-0.11-0.29c-0.09-0.1-0.2-0.16-0.33-0.19c-0.15-0.06-0.3-0.09-0.46-0.09
			c-0.38-0.01-0.79,0.06-1.14,0.22c-0.11,0.06-0.22,0.11-0.33,0.17C68.49,157.8,68.34,157.93,68.22,158.1L68.22,158.1z"/>
	</g>
</g>
<g>
	<g>
		<path class="st4" d="M164.23,228.64c1.54-0.66,2.88-1.84,3.58-3.39c0.59-1.3,1.14-3.72-0.44-4.53c-1.63-0.84-3.66,0.33-4.41,1.82
			c-0.9,1.8-1.34,3.88-1.47,5.87c-0.09,1.33,2.47,0.81,2.83-0.04c0.3-0.72,0.61-1.45,0.91-2.17c-0.94,0.01-1.89,0.03-2.83,0.04
			c-0.01,0.89-0.22,1.72-0.8,2.43c0.88-0.02,1.76-0.03,2.64-0.05c-0.57-2.38-1.31-5.1-3.56-6.45c-2.11-1.26-4.76-1.03-6.61,0.56
			c-0.39,0.33-0.33,0.84,0.06,1.11c2.1,1.5,4.21,3.01,6.31,4.51c0.3-0.55,0.6-1.1,0.9-1.64c-3.94,1.18-6.83,4.89-6.25,9.09
			c0.07,0.52,0.91,0.59,1.29,0.55c0.62-0.05,1.16-0.35,1.53-0.84c1.76-2.32,3.41-4.72,4.95-7.2c-0.94,0.01-1.89,0.03-2.83,0.04
			c-0.04,3.16-0.23,6.36-0.09,9.51c0.11,2.49,1.4,5.05,4.22,5.05c0.61,0,1.63-0.18,1.9-0.84c1.68-4.22,1.21-8.93-1.36-12.69
			c-0.57-0.83-3.17-0.1-2.78,0.99c0.67,1.87,1.96,3.47,3.72,4.42c1.53,0.83,4.41,1.43,5.31-0.65c0.68-1.57-0.89-3.53-2-4.47
			c-1.49-1.26-3.31-2.01-5.12-2.69c-0.46,0.61-0.93,1.22-1.39,1.84c2.79,0.43,5.54-0.48,7.67-2.28c0.9-0.76-0.36-1.33-1.03-1.28
			c-2.77,0.2-5.44,1.18-7.66,2.85c-0.41,0.31-0.67,0.68-0.4,1.16c0.42,0.75-0.26,1.91-0.46,2.66c-0.27,1.05-0.33,2.12-0.28,3.19
			c0.11,2.16,0.72,4.25,1.36,6.31c0.36,1.18,3.11,0.44,2.9-0.78c-0.52-2.95-0.63-5.93-0.31-8.91c0.07-0.66,0.28-1.36,0.3-2.02
			c0.02-0.12,0.06-0.23,0.12-0.34c-0.51,0.16-1.02,0.32-1.53,0.48c-0.02,0.13,0.46,0.6,0.56,0.75c0.79,1.16,1.39,2.41,1.83,3.73
			c0.4,1.18,3.29,0.37,2.9-0.78c-0.56-1.67-1.37-3.48-2.54-4.82c-1.13-1.29-3.34-0.88-4.07,0.65c-0.37,0.78-0.4,1.78-0.49,2.62
			c-0.11,1.01-0.18,2.03-0.19,3.06c-0.03,2.13,0.15,4.25,0.52,6.34c0.97-0.26,1.93-0.52,2.9-0.78c-0.68-2.21-1.41-4.52-1.35-6.85
			c0.03-1.09,0.26-2.1,0.6-3.13c0.31-0.94,0.4-1.73-0.1-2.61c-0.13,0.39-0.27,0.77-0.4,1.16c1.63-1.23,3.44-1.93,5.48-2.08
			c-0.34-0.43-0.69-0.85-1.03-1.28c-1.21,1.02-2.7,1.3-4.23,1.06c-0.96-0.15-3,1.23-1.39,1.84c2.09,0.79,4.67,1.82,5.7,3.97
			c0.12,0.24,0.2,0.5,0.27,0.76c0.04,0.14,0.07,0.29,0.08,0.43c0.89-0.11,1.08-0.21,0.57-0.31c-0.44-0.34-1.11-0.49-1.59-0.84
			c-1.09-0.79-1.88-1.91-2.33-3.17c-0.93,0.33-1.86,0.66-2.78,0.99c2.24,3.27,2.77,7.59,1.29,11.27c0.63-0.28,1.27-0.56,1.9-0.84
			c-2.39,0-2.39-3.51-2.37-5.14c0.03-2.61,0.07-5.21,0.1-7.82c0.02-1.42-2.37-0.7-2.83,0.04c-1.54,2.47-3.19,4.87-4.95,7.2
			c0.94-0.09,1.88-0.19,2.82-0.28c-0.37-2.64,1.14-5.77,3.82-6.57c0.64-0.19,1.81-0.99,0.9-1.64c-2.1-1.5-4.21-3.01-6.31-4.51
			c0.02,0.37,0.04,0.74,0.06,1.11c0.87-0.74,2.51,0.62,3.03,1.26c1.08,1.35,1.47,3.09,1.87,4.73c0.25,1.02,2.18,0.51,2.64-0.05
			c0.82-0.99,1.32-2.09,1.34-3.39c0.02-1.33-2.46-0.84-2.83,0.04c-0.3,0.72-0.61,1.45-0.91,2.17c0.94-0.01,1.89-0.03,2.83-0.04
			c0.08-1.14,0.25-2.27,0.56-3.37c0.15-0.55,0.33-1.1,0.56-1.63c0.09-0.21,0.2-0.42,0.3-0.62c0.04-0.08,0.09-0.15,0.15-0.21
			c0.26-0.3,0.07-0.16-0.57,0.4c-0.11,0.36,0.04,0.96-0.03,1.37c-0.08,0.44-0.22,0.85-0.42,1.25c-0.43,0.84-1.07,1.49-1.94,1.86
			c-0.48,0.21-1.13,0.79-0.73,1.34C162.68,229.06,163.72,228.86,164.23,228.64L164.23,228.64z"/>
	</g>
</g>
<g>
	<g>
		<path class="st4" d="M226.15,126.16c0.18,1.06,1.51,1.18,2.37,1.05c1.29-0.2,2.2-1,2.65-2.2c0.95-2.53,1.06-5.41,0.64-8.06
			c-0.15-0.93-2.24-0.25-2.61,0.15c-2.57,2.78-3.23,6.43-3.72,10.06c0.97-0.19,1.93-0.38,2.9-0.57c-0.25-3.53-0.89-7.83-4.69-9.24
			c-0.84-0.31-2.22-0.01-2.6,0.88c-0.79,1.85,0.65,4.13,1.48,5.74c1,1.93,2.17,3.77,3.48,5.51c0.15-0.33,0.3-0.66,0.45-1
			c-1.52,0.8-2.85,1.87-3.96,3.17c-0.7,0.82-2.6,3.01-1.33,4c1.47,1.14,3.6-0.22,4.42-1.49c1.22-1.86,2.38-3.76,3.57-5.64
			c-0.93,0.12-1.87,0.24-2.8,0.36c0.1,2.52,0.49,5.44,2.97,6.71c0.6,0.31,2.53,0.01,2.6-0.88c0.25-2.88-0.41-5.61-1.9-8.08
			c-0.51,0.46-1.03,0.91-1.54,1.37c1.1-0.18,2.25,0.38,3.38,0.29c1.04-0.08,2.15-0.43,2.9-1.2c1.62-1.67-0.34-3.56-2.14-3.66
			c-1.23-0.07-2.46,0.34-3.52,0.94c-0.98,0.55-1.82,1.43-2.9,1.79c-2.15,0.74-4.81-0.27-6.85-0.96c-0.67-0.23-1.45-0.11-2.05,0.27
			c-0.44,0.28-0.82,0.77-0.25,1.13c2.15,1.35,4.79,1.75,7.27,1.27c0.52-0.1,1.54-0.33,1.65-0.98c0.11-0.62-0.85-0.7-1.25-0.62
			c-1.91,0.37-3.72-0.04-5.36-1.07c-0.77,0.47-1.54,0.93-2.31,1.4c3.69,1.25,7.69,2.23,11.33,0.27c0.98-0.53,3.16-2.92,3.95-1.01
			c0.12,0.29,0.11,0.73,0.01,0.88c0.04-0.06,0.28-0.07,0.05-0.07c-0.15,0-0.29-0.03-0.44-0.06c-1.04-0.17-2.01-0.4-3.08-0.22
			c-0.55,0.09-2.04,0.55-1.54,1.37c1.32,2.18,1.91,4.77,1.7,7.31c0.87-0.29,1.73-0.59,2.6-0.88c-2.12-1.09-2.29-3.99-2.38-6.09
			c-0.02-0.47-0.99-0.45-1.25-0.41c-0.53,0.06-1.24,0.29-1.55,0.77c-0.75,1.19-1.5,2.38-2.26,3.56c-0.38,0.59-0.75,1.19-1.13,1.78
			c-0.08,0.13-0.45,0.57-0.49,0.74c0.82,0.26,1.18,0.17,1.08-0.29c-0.04-0.14-0.01-0.27,0.07-0.4c0.32-0.95,1.21-1.94,1.91-2.64
			c0.77-0.77,1.64-1.38,2.6-1.88c0.35-0.18,0.74-0.61,0.45-1c-1.23-1.62-2.34-3.34-3.28-5.15c-0.75-1.45-2.19-3.66-1.48-5.32
			c-0.87,0.29-1.73,0.59-2.6,0.88c3.47,1.29,3.87,5.44,4.1,8.61c0.07,0.96,2.79,0.27,2.9-0.57c0.43-3.17,0.88-6.77,3.14-9.22
			c-0.87,0.05-1.74,0.1-2.61,0.15c0.25,1.58,0.29,3.17,0.05,4.76c-0.11,0.74-0.27,1.48-0.48,2.2c-0.09,0.3-0.26,0.63-0.32,0.93
			c-0.35,0.47-0.03,0.47,0.96,0.01c-0.07-0.06-0.09-0.15-0.08-0.24C228.88,124.4,225.97,125.08,226.15,126.16L226.15,126.16z"/>
	</g>
</g>
<g>
	<g>
		<path class="st4" d="M157.58,23.31c2.96,1.73,8.45-0.41,7.41-4.4c-0.21-0.79-2.22-0.05-2.58,0.26c-1.93,1.66-3.54,3.56-4.86,5.73
			c0.96-0.2,1.92-0.41,2.89-0.61c0.02-1.82-0.04-3.64-0.2-5.45c-0.05-0.6-0.15-1.24-0.62-1.68c-0.54-0.51-1.41-0.41-2.07-0.23
			c-0.67,0.18-1.43,0.56-1.65,1.27c-0.2,0.66-0.16,1.48-0.15,2.16c0.02,1.73,0.39,3.43,1.03,5.04c0.94-0.3,1.87-0.61,2.81-0.91
			c-1.14-1.28-2.77-2.06-4.47-2.2c-1.68-0.14-3.98,0.41-3.54,2.56c0.31,1.5,1.74,2.3,3.17,2.32c2.07,0.03,4.02-0.95,5.43-2.43
			c-0.92,0.09-1.84,0.18-2.77,0.27c-1.29,2.76-1.93,5.73-1.95,8.78c-0.01,0.68,2.8,0.14,2.89-0.61c0.37-3.27,0.99-6.49,1.84-9.67
			c-0.93,0.25-1.86,0.5-2.79,0.75c1.95,1.66,1.44,5.28,4.18,6.15c0.71,0.23,2.03-0.05,2.5-0.67c1.64-2.17,0.07-5.27-2.55-5.54
			c-0.38-0.04-2.95,0.45-2.27,1.21c0.63,0.7,1.49,1.05,2.42,1.11c0.68,0.04,1.5-0.11,2.05-0.55c0.41-0.33,0.4-0.77-0.22-0.81
			c-0.65-0.04-1.11-0.33-1.54-0.8c-0.76,0.4-1.52,0.8-2.27,1.21c1.82,0.19,2.78,2.88,1.73,4.28c0.83-0.22,1.67-0.45,2.5-0.67
			c-1.18-0.38-1.6-1.66-1.99-2.72c-0.42-1.17-0.85-2.41-1.83-3.24c-0.57-0.48-2.59-0.01-2.79,0.75c-0.85,3.17-1.46,6.4-1.84,9.67
			c0.96-0.2,1.92-0.41,2.89-0.61c0.02-2.93,0.69-5.79,1.93-8.45c0.23-0.49-0.83-0.47-1.02-0.45c-0.61,0.06-1.31,0.26-1.75,0.72
			c-0.75,0.79-1.37,1.33-2.29,0.53c-0.65-0.57-1.11-1.68-0.53-2.45c-0.64,0.25-1.28,0.49-1.93,0.74c1.6-0.07,3.06,0.72,4.11,1.9
			c0.45,0.51,3.1-0.18,2.81-0.91c-0.47-1.16-0.8-2.36-0.94-3.6c-0.07-0.57-0.1-1.15-0.09-1.72c0-0.33,0.02-0.66,0.05-0.98
			c0.01-0.16,0.03-0.31,0.06-0.47c0.11-0.24,0.04-0.25-0.19-0.04c-0.37,0.12-0.73,0.24-1.1,0.36c-0.79,0.14-0.54-0.02-0.33,0.42
			c0.09,0.19,0.13,0.38,0.16,0.58c0.11,0.66,0.12,1.36,0.16,2.02c0.08,1.3,0.1,2.6,0.08,3.9c-0.01,0.46,1.23,0.26,1.41,0.22
			c0.55-0.12,1.17-0.33,1.48-0.84c1.14-1.88,2.58-3.59,4.25-5.03c-0.86,0.09-1.72,0.17-2.58,0.26c0.21,0.81,0.12,1.67-0.35,2.38
			c-0.1,0.15-0.24,0.26-0.35,0.39c-0.04,0.05-0.3,0.17-0.13,0.12c0.14-0.04-0.26-0.04-0.29-0.05c-0.23-0.05-0.47-0.15-0.67-0.27
			c-0.55-0.32-1.33-0.14-1.89,0.08C158.24,22.4,157.07,23.01,157.58,23.31L157.58,23.31z"/>
	</g>
</g>
<g>
	<g>
		<path class="st4" d="M20.75,223.91c2.61,0.6,5.43,0.11,7.8-1.1c0.1-0.05,0.9-0.47,0.54-0.65c-2.48-1.23-5.6-0.7-7.89,0.73
			c0.84-0.08,1.69-0.16,2.53-0.24c1.07-1.38,1.74-2.99,1.97-4.73c0.15-1.14,0.42-3.67-1.18-3.88c-0.57-0.07-2.4,0.1-2.62,0.81
			c-0.71,2.26-1.22,4.57-1.56,6.92c0.97-0.26,1.93-0.52,2.9-0.78c-0.68-2.46-1.62-4.83-2.79-7.1c-0.35-0.68-2.57,0.19-2.88,0.65
			c-2.27,3.39,0.11,7.18,2.15,10c0.32-0.23,0.64-0.46,0.96-0.69c0.77-0.26,0.39-0.24,0.04-0.55c-0.77,0.35-1.54,0.7-2.31,1.06
			c0.72,0.02,1.45,0.03,2.17,0.05c0.67,0.01,1.49-0.17,2.05-0.55c0.44-0.3,0.42-0.56-0.16-0.59c-1.81-0.1-3.76-0.14-5.52,0.37
			c-0.83,0.24-2.91,0.99-2.43,2.23c0.45,1.16,2.54,0.57,3.32,0.28c0.62-0.23,1.22-0.54,1.64-1.06c0.5-0.61,0.72-1.39,1.33-1.92
			c-0.91,0.13-1.82,0.26-2.73,0.39c-0.69,1.4-1.18,2.86-1.45,4.4c-0.08,0.47-0.3,1.13,0.08,1.52c0.41,0.42,1.18,0.28,1.69,0.19
			c2.95-0.55,4.38-3.82,5.17-6.42c-0.96,0.22-1.92,0.43-2.88,0.65c-0.25,2.08-0.5,4.16-0.76,6.24c-0.16,1.32-0.82,3.4,0.46,4.35
			c0.49,0.36,2.6-0.14,2.79-0.75c1.09-3.39,1.01-6.99-0.29-10.31c-0.94,0.29-1.88,0.58-2.82,0.87c1.09,0.65,2.1,1.39,3.04,2.23
			c0.91-0.32,1.82-0.65,2.73-0.97c-0.98-0.61-1.83-1.34-2.57-2.23c-0.43-0.52-3.14,0.49-2.73,0.97c0.74,0.89,1.59,1.62,2.57,2.23
			c0.56,0.35,3.18-0.57,2.73-0.97c-0.95-0.84-1.95-1.58-3.04-2.23c-0.4-0.24-3.06,0.25-2.82,0.87c1.26,3.23,1.4,6.75,0.33,10.06
			c0.93-0.25,1.86-0.5,2.79-0.75c-1.17-0.86-0.4-3.38-0.25-4.54c0.24-1.95,0.47-3.9,0.71-5.85c0.05-0.38-2.69,0.04-2.88,0.65
			c-0.28,0.91-0.63,1.8-1.07,2.65c-0.21,0.4-0.43,0.79-0.68,1.17c-0.2,0.31-0.88,0.96-0.94,1.28c0.46-0.16,0.92-0.33,1.38-0.5
			c-0.01-0.08-0.02-0.17-0.02-0.25c0.05-0.19,0.04-0.41,0.07-0.6c0.08-0.53,0.2-1.06,0.34-1.57c0.28-1.01,0.66-1.98,1.12-2.92
			c0.2-0.42-0.85-0.28-0.97-0.27c-0.59,0.08-1.3,0.26-1.76,0.66c-0.45,0.39-0.74,0.84-1.04,1.36c-0.04,0.08-0.55,0.86-0.56,0.85
			c0.37-0.08,0.75-0.16,1.12-0.24c-0.15-0.05-0.25-0.15-0.31-0.3c-0.15-0.33,0.06-0.4,0.11-0.68c-0.49,0.05-0.49,0.05,0,0.01
			c0.12-0.01,0.25-0.02,0.37-0.03c0.89-0.05,1.78-0.03,2.68,0.01c0.63-0.38,1.26-0.76,1.89-1.14c-0.72-0.02-1.45-0.03-2.17-0.05
			c-0.28-0.01-2.87,0.57-2.31,1.06c1.03,0.91,2.51,0.58,3.69,0.18c0.09-0.03,1.13-0.44,0.96-0.69c-1.98-2.73-4.4-6.44-2.19-9.75
			c-0.96,0.22-1.92,0.43-2.88,0.65c1.18,2.27,2.11,4.64,2.79,7.1c0.18,0.64,2.81-0.15,2.9-0.78c0.32-2.26,0.83-4.48,1.51-6.67
			c-0.87,0.27-1.75,0.54-2.62,0.81c1.2,0.16,0.74,3.31,0.59,4.06c-0.29,1.46-0.94,2.8-1.85,3.98c-0.26,0.34,0.75,0.3,0.79,0.29
			c0.58-0.04,1.24-0.22,1.74-0.54c0.93-0.58,2.02-0.27,2.95,0.2c0.18-0.22,0.36-0.43,0.54-0.65c-1.23,0.63-2.42,0.64-3.76,0.34
			c-0.63-0.15-1.46,0.11-2.02,0.38C20.88,223.31,20.12,223.76,20.75,223.91L20.75,223.91z"/>
	</g>
</g>
<g>
	<g>
		<path class="st4" d="M49.19,15.5c0.26-1.37,0.26-2.75,0.01-4.12c-0.17-0.95-2.5-0.15-2.79,0.38c-1,1.82-1.29,3.87-0.67,5.88
			c0.93-0.31,1.87-0.63,2.8-0.94c-1.34-1.18-2.95-1.75-4.72-1.85c-0.53-0.03-2.85,0.74-1.73,1.46c2.21,1.43,5.65,0.75,7.46-1.04
			c0.45-0.45,0.74-0.97,1.08-1.5c0.05-0.07,0.23-0.24,0.24-0.32c0.03-0.25-1.03,0.34-0.99,0.25c-0.01,0.02,0.1,0.1,0.08,0.14
			c-0.07,0.13-0.08,0.22-0.17,0.35c-0.39,0.56-1.23,1.08-1.78,1.46c-0.62,0.43-1.28,0.8-1.97,1.12c-0.32,0.15-0.9,0.42-0.89,0.84
			c0.01,0.41,0.55,0.48,0.87,0.49c0.95,0.02,1.85,0.29,2.68,0.74c0.75,0.4,1.92,1.19,2.03,2.12c0.02,0.19-0.04,0.38-0.01,0.41
			c0.16-0.1,0.33-0.16,0.52-0.2c0.18,0.01,0.2,0,0.06-0.02c-0.29-0.19-0.61-0.24-0.91-0.49c-0.72-0.62-1.31-1.32-2.16-1.78
			c-0.42-0.23-1.12-0.08-1.53,0.06c-0.3,0.1-1.05,0.4-1.07,0.81c-0.13,2.53-0.26,5.06-0.39,7.59c0.96-0.19,1.93-0.39,2.89-0.58
			c-1.08-3.2-0.95-6.58-0.78-9.91c0.06-1.14-2.46-0.44-2.79,0.19c-1.07,2.05-2.53,3.79-4.39,5.17c0.83,0.07,1.66,0.14,2.5,0.21
			c0.7-0.78,1.29-1.64,1.76-2.58c0.4-0.8,0.91-1.86,0.58-2.77c-0.68-1.87-3.95-1.16-4.62,0.34c-0.26,0.59,0.96,0.6,1.24,0.56
			c0.61-0.08,1.39-0.35,1.66-0.95c-1.46,0.13-1.92,0.31-1.37,0.55c0.04,0.04,0.08,0.07,0.11,0.11c0.07,0.21,0.16,0.38,0.17,0.61
			c0.02,0.51-0.24,1.06-0.44,1.5c-0.44,0.96-1.06,1.83-1.77,2.62c-0.41,0.46,0.25,0.74,0.61,0.78c0.67,0.06,1.36-0.17,1.89-0.56
			c1.99-1.47,3.63-3.37,4.77-5.57c-0.93,0.06-1.86,0.12-2.79,0.19c-0.18,3.45-0.35,6.98,0.77,10.3c0.3,0.88,2.85,0.25,2.89-0.58
			c0.13-2.53,0.26-5.06,0.39-7.59c-0.87,0.29-1.74,0.58-2.6,0.87c1.23,0.67,1.89,2.01,3.32,2.37c1.34,0.33,3.34-0.01,4.14-1.26
			c0.87-1.37-0.62-2.73-1.66-3.43c-1.36-0.92-2.93-1.35-4.56-1.39c0,0.44-0.01,0.89-0.01,1.33c1.72-0.8,3.35-1.8,4.74-3.09
			c0.49-0.46,1.2-1.11,0.9-1.86c-0.26-0.65-1.13-0.8-1.74-0.81c-0.9,0-1.85,0.33-2.52,0.93c-0.59,0.53-0.82,1.28-1.35,1.85
			c-0.8,0.86-1.86,0.64-2.78,0.05c-0.58,0.49-1.16,0.97-1.73,1.46c1.19,0.07,2.29,0.61,3.17,1.4c0.43,0.39,1.24,0.23,1.72,0.06
			c0.34-0.12,1.24-0.49,1.08-1c-0.52-1.69-0.41-3.52,0.46-5.09c-0.93,0.13-1.86,0.25-2.79,0.38c0.23,1.25,0.23,2.48-0.01,3.73
			C46.11,16.92,49.01,16.44,49.19,15.5L49.19,15.5z"/>
	</g>
</g>
</svg>
