<?xml version="1.0" encoding="utf-8"?>
<!-- Generator: Adobe Illustrator 19.0.0, SVG Export Plug-In . SVG Version: 6.00 Build 0)  -->
<svg version="1.1" id="Layer_1" xmlns="http://www.w3.org/2000/svg" xmlns:xlink="http://www.w3.org/1999/xlink" x="0px" y="0px"
	 viewBox="0 0 255.1 255.1" style="enable-background:new 0 0 255.1 255.1;" xml:space="preserve">
<style type="text/css">
	.st0{fill:#EA6095;}
	.st1{fill:none;stroke:#FBD6E6;stroke-miterlimit:10;}
	.st2{opacity:0.55;}
	.st3{fill:none;stroke:#C5DFF4;stroke-miterlimit:10;}
	.st4{opacity:0.85;}
	.st5{fill:#FCDEEA;}
	.st6{fill:#FEF2F7;}
	.st7{fill:#FACDDF;}
	.st8{fill:#F8BBD3;}
	.st9{fill:#F27EAF;}
	.st10{fill:#F6ADCA;}
	.st11{fill:#F59DC1;}
	.st12{fill:#F38EB8;}
</style>
<rect id="XMLID_18_" class="st0" width="255.1" height="255.1"/>
<g id="Layer_2">
	<g id="XMLID_41_">
		<g id="XMLID_53_">
			<path id="XMLID_57_" class="st1" d="M88.9,113.8"/>
		</g>
	</g>
	<g id="XMLID_42_" class="st2">
		<g id="XMLID_60_">
			<path id="XMLID_64_" class="st3" d="M161.9,65.1"/>
		</g>
	</g>
	<g id="XMLID_43_">
		<g id="XMLID_261_">
			<g id="XMLID_265_">
				<g id="XMLID_266_" class="st4">
					<g id="XMLID_267_" class="st4">
						<g id="XMLID_458_">
							<path id="XMLID_459_" class="st5" d="M130.5,219.1c-0.1-0.1-0.2-0.3-0.3-0.5l0.7-1.8l-1.4-2c-0.1-0.6,0-1.2-0.1-1.7
								c-0.2-0.7,0.4-1.5,0.9-2.6c0.2-1.9,0.5-3,0.4-4.2c-1.8-0.4,1.1-3.5,2.2-5.5c-0.5-0.4-1.1-0.8-1.6-1.1
								c0.9-0.9,0.6-1.9,1.8-3.2c-0.4-2.2,0.4-3.6,1.5-5.1c0.1-0.4,0.1-0.7,0.2-1c0.6-0.4,1.2-0.8,1.7-1.2c0.7-1.5-0.8-1.5-1.2-2.4
								c1-0.7,2-1.5,3.1-2.2c0.4,0,0.7,0,1.1,0c0.3,0.5,0.6,1.1,1,1.5c0,0.6,0,1.2,0,1.8c-1,1.4-1.1,2-0.9,2
								c0.6,1.6,1.9-0.9,2.9-1.7c0.2,0.1,0.5,0.2,0.8,0.3c-0.2,0.8-0.3,1.6-0.5,2.3c-1.2,2,0.2,2.3-1.7,3.7c0.2,0.3,0.3,0.6,0.5,0.9
								c-0.2,0.5-0.4,1-0.6,1.6c-0.2,0.1-0.4,0.2-0.6,0.4c-0.3-0.3-0.5-0.7-0.7-1.1c-0.1-0.3-0.1-1.1,0.8-1.8
								c-1.6-0.7-2.2-2.3-2.1-3.6c-1,0.1-0.8,1.2-1.6,1.8c-0.4,0.7-0.8,1.4-1.3,2.1c0.8,0.6,0.9,0.8,1.1,1c-0.5,0.6-1,1.2-1.6,1.6
								c-0.4,1.2-0.8,1.9-0.9,2.8c0.9,0.8,0.1,1.5,0,1.8c0.5,2.5-0.1,4.7-1.3,7.2c-0.5,0-1.1,0.9-1.7,1.6c0.3,1.3,0.4,2.3,1.4,2.5
								c0.2-0.3,0.4-0.4,0.5-0.6l1.8-3.2c0.2-0.4,0.3-0.9,0.5-1.4l-0.5-1.6c0.5-0.2,1-0.7,1.6-1.3c0.5-0.6,1.1-1.2,1.6-1.7
								c0.5-0.2,1-0.4,1.6-0.6c0,1.2-1,2.2-1.8,3.5c-0.9,1.2-1.7,2.3-2.5,3.5c-0.4,1-0.7,2.1-1,3.2c-0.8,2.1-0.5,4.1-1.8,4.9
								c-0.4,0.6-0.7,1.1-1.1,1.6L130.5,219.1z"/>
						</g>
						<g id="XMLID_456_">
							<path id="XMLID_457_" class="st6" d="M131,210.8c0.6-0.7,1.2-1.6,1.7-1.6c1.2-2.5,1.8-4.7,1.3-7.2c0.1-0.4,0.9-1,0-1.8
								c0.2-0.9,0.5-1.5,0.9-2.8c0.7-0.4,1.2-1.1,1.6-1.6c-0.2-0.2-0.4-0.3-1.1-1c0.5-0.7,0.9-1.4,1.3-2.1c0.8-0.6,0.6-1.7,1.6-1.8
								c0,1.3,0.5,2.9,2.1,3.6c-0.9,0.8-0.9,1.6-0.8,1.8c0.2,0.4,0.4,0.8,0.7,1.1c-0.5,0.6-0.9,1.2-1.4,1.8
								c-0.2,0.3-0.5,0.6-0.7,0.9c-0.2,0.3-0.4,0.6-0.6,0.9c0.7,0.6-1.4,2.4,0.2,2.4c-0.5,0.5-1.1,1.1-1.6,1.7
								c-0.5,0.6-1,1.1-1.6,1.3l0.5,1.6c-0.1,0.4-0.3,1-0.5,1.4l-1.8,3.2c-0.1,0.2-0.3,0.4-0.5,0.6
								C131.4,213.2,131.3,212.2,131,210.8z"/>
						</g>
						<g id="XMLID_454_">
							<path id="XMLID_455_" class="st7" d="M137.9,203.4c-1.6-0.1,0.5-1.8-0.2-2.4c0.2-0.3,0.4-0.6,0.6-0.9
								c0.2-0.3,0.5-0.6,0.7-0.9c0.5-0.6,0.9-1.2,1.4-1.8c0.2-0.1,0.4-0.3,0.6-0.4c0.2-0.6,0.4-1,0.6-1.6c-0.2-0.3-0.3-0.6-0.5-0.9
								c2-1.5,0.6-1.8,1.7-3.7c0.2-0.8,0.3-1.6,0.5-2.3c-0.2-0.1-0.5-0.2-0.8-0.3c-1,0.8-2.3,3.3-2.9,1.7c-0.3-0.1-0.2-0.7,0.9-2
								c0-0.6,0-1.2,0-1.8c-0.3-0.5-0.6-1.1-1-1.5c0.8-1.1,1.5-2.1,2.3-3.2l0.6-0.6c0.2-0.5,0.6-1.1,0.9-1.5
								c0.7,0.1,1.3,0.2,1.9,0.3c1.4-0.6-0.1-1.3,0.8-2.4c1.2-0.7,2.5-1.3,3.8-1.9c2.8-3,5.3-1,7.7-4.3c1.1-0.5,2.2-1.1,3.4-1.7
								c1.1-1.3,2.2-2.5,3.4-3.8l2.7-2.1c0,0.3,0.3,0.2,0.6,0.2c1.3-1,0.3-2.4,3.2-4.1c0.6-0.4,1.2-0.7,1.8-1.1
								c1-0.9,2.1-1.9,3.1-2.8c1.2-1,2.4-1.9,3.6-2.9c0.2-0.2,0.4-0.3,0.7-0.6c1.7-1.1,1.3,0.6,2.3,0.3c1.2-0.8,2.5-2.7,3.7-2.2
								c0.9-0.8,2-1.7,3-2.4c1.1-1.4,0.9-2.4,2.2-3.3c0.6-0.6,1.2-1.2,1.8-1.9c0.2-0.2,0.4-0.4,0.6-0.6c-0.3-1,0.7-1.8,1.3-2.2
								c0.6-0.8,1.2-1.7,1.8-2.5c0.5,0.2,0.9-0.2,1.3-0.8c0.5-0.6,0.9-1.2,1.5-1.3c1.3-1.3,2.5-2.6,3.7-3.9c0.8-2.4-0.2-5.2,1.5-4.4
								c1.1-1.4,1.1-3.5,2.5-5.4c0.8-1.7,1.5-3.6,2-5.5c-0.1-1-0.2-2.1-0.4-3.1l0-0.6c0-0.8,0-1.5,0-2.3c-0.1-1-0.4-2.1-0.6-2.9
								c-0.9-1.5-2-3.4-0.9-3.8c-0.1-0.3-0.2-0.6-0.3-0.8c-1.2-0.1-1.2-1.8-1.8-1.9c-0.4-0.1-1.2-1.8-0.9-2.6
								c-0.1-0.3-0.3-0.5-0.4-0.8c-0.6-0.9-1.2-1.8-1.8-2.6c-1.1,0-1.7-1.3-2-2c-0.5-0.6-1-1.1-1.5-1.7c-0.5-0.5-1-1.1-1.6-1.6
								c-1-0.9-2-1.8-3.1-2.6c-0.5,0.4-1.2,0.1-1.9-0.7c-0.7-0.7-1.4-1.7-1.7-2.7c-0.5-0.3-1-0.7-1.5-1c-0.6,0.1-1.2,0.1-1.8,0.1
								c-0.5-0.4-1.3-0.7-2-1.1c-0.6-0.4-1.2-0.7-1.4-1.2c-0.5-0.2-1.1-0.5-1.6-0.7c-1.7,0.2-1.5-0.7-2.6-0.9
								c-0.1,0-0.3-0.1-0.4-0.1l-0.6,1.6c-1.5,0.9-2-0.9-3.2-1.3c-0.4-0.2-0.7,0-1,0.1c-0.2,0.9-0.9,0.6-1.8,0.2
								c-0.9-0.4-1.9-0.8-2.6,0c-1.2,0-0.5-1.7-2.9-1.1c-0.4,0.9-1.6,1.1-3,1.1c-0.7,0-1.5,0-2.3,0c-0.8,0-1.5,0-2.1,0.1
								c-0.5,0.6-1,1.3-1.4,1.8c-2.5-0.2-4.1,1-5.6,2.3c-1.5,1.3-2.8,2.8-5.3,3.9c-1,0.1-1.6,0.7-2.3,1.3c-0.7,0.6-1.2,1.3-2.2,1.4
								c0.7,1.5-0.9,2.7-2.3,4.1c-1.4,1.3-2.7,2.8-1.6,4c-1.1,1.6-3,3.2-3.1,5c-1.5,0.2-1.7,0.3-1.9,0.6c-0.1,0.8,0.6,0.8,1,1.2
								c-0.5,0.7-0.9,1.3-1.5,1.9c-0.5-1.1-1.4,0.4-2.1,0.6c0.7,2.6-3.1,3.1-4.1,5.7c-0.2,1,0.4,1.6,0.8,2.2
								c0.4,0.6,0.5,1.2-0.6,2.4c0.7,1.8,0.5,2.1-0.6,3.9c-1.3,0.6-1.7,2.2-2.7,3.7c-0.4,0-0.8,0.1-1.3,0.1
								c-0.3,0.4-0.6,0.8-0.9,1.1c-1.5,0.7-2.7,0.9-3.5,2.6c-0.4-0.1-0.8-0.4-1.2-0.5c-0.1-1.1-0.2-1.7-0.3-2.3
								c-0.1-0.5-0.2-0.9-0.1-1.3c0.6-0.5,1.4-1,2-1.4c-0.1-1.1-0.2-2.3-0.2-3.5c0.3-1,0.6-2,0.9-3c-0.3-0.6-0.7-1.3-0.9-1.9
								c0-0.3,0.1-0.6,0.1-0.9c0.8-1.2,1.7-2.3,2.5-3.4c0.7-0.5,1.3-0.9,2-1.4c0.3,0.2,0.6,0.3,1.1,0.6c0.8-1.3,1.6-2.7,2.4-4
								c0.7-1.1,1.4-2.2,2.2-3.3c0.4-0.1,1-0.3,1.5-0.5c0-0.6-0.1-1.1-0.1-1.6c0.4-1.1,1.5-1.1,1.4-2.1c-1.4,0,0.2-1.4,1.6-3.7
								c0.5-0.4,1-0.7,1.5-1.1c0.6-1.6,0-1.7,0.1-2.4c0.4-0.7,0.8-1.3,1.3-2c-1.1-0.2,0.2-1.4,0.5-2.2c2.1-1.1,1.5-2.8,3.8-3.7
								c0.7-0.8-0.7-1,0.1-1.6c0.3-0.2,0.6-0.4,0.9-0.6c0.5,0.2,0.9,0.4,1.5,0.5c0.3-0.2,0.7-0.5,2.1-2c0.4,0.3,0.8,0.7,1.1,1.1
								c0.9-0.4,1.7-0.7,2.6-1c0.2-0.3,0.4-0.5,0.7-0.8c0.8-0.4,1.7-0.8,2.6-1.1c0.9-0.3,1.7-0.7,2.6-1c0.1,1,0.9,0.6,1.7,0.2
								c0.8-0.3,1.7-0.6,1.7,0.5c0.3-0.1,0.6-0.1,0.8-0.2c-0.1-1.4-1-1.5-0.8-2.7c0.9-0.1,1.9-0.2,2.8-0.2c0,0.5,0.1,1,0.1,1.5
								c2.7,0.8,1-1.4,2.8-1.5c1,0.2,1.9,0.3,2.8,0.6c0.3,0.3,0.9,0.3,1.3,0.3c0.9-0.2,0.5-0.8,0.6-1.2l2.4,0.2
								c1.7-0.1,0.8-1.3,2.2-1.2c1.5,1.4,1.9,2.2,2.6,3.7c0.7-0.4,1.5-0.8,2.3-1.2c0.8-0.3,1.9,0.4,2.9,0.6c0.3,0.7,0.8,1.4,0.2,2.2
								c0.3,0.2,0.7,0.5,1.1,0.7c0.6-0.2,1.2-0.4,1.8-0.6c0.7,0.3,1.4,0.6,2,1.2c1.2,0.5,2.3,1.1,3.4,1.6c0.5,0.4,1,0.9,1.6,1.4
								c0.5,0.5,1,0.9,1.5,1.4c0.6,0.2,1.2,0.5,1.8,0.8c0.6,0.3,1.2,0.5,1.7,0.9c1.1,0.7,2.1,1.5,3.1,2.3c1.2,1.8,2.4,3.6,3.5,5.6
								c0.2,0.2,0.3,0.5,0.5,0.8c0.2-0.1,0.4-0.2,0.6-0.4c0.5,0.4,1.1,0.8,1.6,1.3c0.6,0.6,1.1,1.3,1.6,1.9c0.4,0.8,0.8,1.8,1.2,2.7
								c0.2,0.6,0.5,1.2,0.7,1.9c0,2.4,0.4,2.6,0.4,3.5c0.5,1.2,1.1,0.6,1.5,1.4c0.1,0.7,0.2,1.4,0.3,2.1c-0.3,1.4-0.5,2.5-0.6,3.4
								c-0.1,1.4,0,2.6-0.4,4c-0.2,1.1-0.4,2-0.7,3c0.2,0.6,0.5,1.3,0.7,1.9c0.1,1,0.2,2,0.3,2.9c-0.3,1.1-0.5,2.1-0.8,3.1
								c-0.6,0.6-1.2,1.2-1.8,1.8c-0.8,1.1-1.6,2.1-2.3,3c-0.4,0.2-0.7,0.4-0.9,0.5c-0.1,0.7-0.2,1.4-0.3,2.1
								c-0.4,1-0.9,2.1-1.3,3.1c-0.1,0.1-0.2,0.2-0.3,0.4c-0.6,0-1.3,0-1.9,0.1c-0.2,0.2-0.4,0.4-0.6,0.7c0.2,1.2,0.9,0.6,1.1,1
								l-0.2,1c-1.9,2.4-2.5,0-3.8,2.6c0.2,0.4,0.4,0.9,0.6,1.2c-0.5,0.6-1,1.1-1.5,1.6c-1,0.7-2,1.4-3,2c-0.7,0.6-1.4,1.2-2.1,1.7
								c-0.7,0.5-1.4,1.1-2.1,1.6c-0.6,1.8,1.4-0.2,1.8,0.7c-0.4,1.8-0.2,1.7,0.1,1.6c1-0.5,0.6-1.3,1.3-1.9c0.1,0,0.3-0.1,0.5-0.1
								c0.4,0.4,0.7,0.9,1.2,1.3c-0.1,0.5-0.1,0.9,0,1.4c0,0.1-0.1,0.3-0.2,0.5c-1,0.8-1.9,1.5-2.8,2.3c-0.1-0.3-0.4-0.2-0.7-0.1
								c-1,0.5-0.6,1.3-1.4,1.9c-0.9,0.3-1.7,0.6-2.6,1c-1.7,0.8-1.3,2.1-2.6,3.1c-0.4,0.3-0.6,0.5-1,0.8c-0.6,0.4-1.2,0.8-1.8,1.2
								c-0.9,1.1-2.2,2.1-3.5,3.2c-1.4,1.1-2.8,2.1-4.1,3.1c-1.2,1.1-3.4,0.8-3.7,2.5c-2.5,1.5-4.7,4.7-6.7,4.6
								c-0.4,0.8-1.2,1.6-2.1,2.4c-0.9,0.8-1.7,1.7-2.1,2.6c-1.1,0.6-2.2,1.1-3.2,1.6c-1.4,1.8-3.9,3.5-4.1,5.3
								c-0.8,0.4-1.6,0.9-2.4,1.3c-0.6,0.5-1.2,1.1-1.4,1.7c-1.8,1.4-2.8,3-4.3,2.1c-0.1,0.2-0.2,0.5-0.3,0.7
								c-0.3,0.3-0.6,0.8-0.9,1.1c0,0.1-0.1,0.2-0.2,0.3c-0.2,0.6-0.4,1.3-0.6,1.9c-0.2,0.2-0.4,0.5-0.7,0.8c-0.2,0.4-0.4,0.7-0.5,1
								c-0.2,0.5-0.4,0.9-0.6,1.4C138.9,202.9,138.4,203.2,137.9,203.4z"/>
						</g>
						<g id="XMLID_452_">
							<path id="XMLID_453_" class="st5" d="M146,174.4c0.3-0.4,0.8-0.9,1.1-1.3c0.7-0.5,1.4-0.9,2.1-1.4c0.3-0.3,0.7-0.6,0.9-0.8
								c1.5-0.7,2.9-1.3,4.4-1.9c0.1-0.1,0.2-0.2,0.3-0.3l2.8-3.2c0.4-0.3,0.9-0.7,1.3-1c0.5,0.3,1.1,0.7,1.7,0.9
								c1.1-0.8,2.2-1.7,3.5-2.3c-0.1-0.5-0.1-1-0.1-1.5c0.9-1,2.9-1.7,2.7-2.7c-0.1-1.1-1.4-0.3-2.2,0.5c-1,1.2-1.5,0.4-2.2,0.5
								c0.2-0.6,0.4-1.2,0.7-1.9c1.8-0.8,4.8-5.1,5.3-2.5c1.2-1.1,2.5-2.1,4.3-3.1c-0.3-0.3-0.7-0.5-1-0.8c-0.9,0.1-2.6,2.1-2.7,0.5
								l3.8-3c0.8-0.3,1.6-0.7,2.4-0.9c0.1,0.7,0.9,0.3,1.5,0.6c0.8-1.1,1.7-2.3,2.5-3.4c0.4-1.4-0.1-1.5,0.2-2.9
								c0.7-0.6,1.3-1.2,2-1.9c2.3-0.9,1.4,1.4,2.4,2.1c0.3-0.1,0.6-0.1,1-0.2c1.3-1.8,2.6-3.6,3.9-5.4c0.1-2,4-4,2.8-5.6
								c0.8-1.1,2-2.5,2.1-3.8c-1-2.7-2.2,0.4-3.1,0c-0.4-1.1,0.7-1.8,0.3-2.6c0.8-1.4,1.6-3.3,2.2-4.9c0.1-0.1,0.1-0.2,0.2-0.3
								c0.1-0.2,0.2-0.4,0.3-0.6c0-0.9,0.1-1.8,0.1-2.6c0-0.3,0-0.6,0-0.9c0.4-0.3,0.7-0.7,1.1-1.1c-0.3-1.2,0.4-2,0.7-3
								c0-0.1,0.1-0.3,0.1-0.4c0.4,0.1,0.7,0.2,1,0.5c0.8,0.6,1.1,1.9,0.5,3c0.7,0.1,0.7,0.7,0.4,1.4c-0.2,0.7-0.6,1.4-0.4,2
								c1,0.6,1.8-0.2,2.6-1c0.8-0.8,1.5-1.7,2.7-1c0.6,1,0.5,2.2,0.4,3.2c-0.1,0.9,0,1.6,0.9,1.7c-0.5,2.1-2.1,2.1-2.7,4.4l1.1,0.7
								c1.2-2.3,2.4-4.5,3.3-6.8c0.9-2.3,1.4-4.6,1.1-6.6c-1,1-1.2,0.1-1.3-0.9c-0.2-1.2-0.3-2.4-1.4-1c0,0.3,0,0.7-0.1,1
								c-0.1,0.6-0.2,1.2-0.3,1.8c-0.5-0.7-0.8-1.3-0.8-1.8c0-0.4,0.1-0.7,0.1-1c-0.4-0.5-0.9-1-1.3-1.4c-0.8-1.5-1-2.4-1.8-4.1
								c-1,0.4-1.3-0.8-1.8-1.8c-0.5-1-1-1.6-1.9-0.2c-1.2,1.1-0.8-1.2-1.5-1.9c0.3-0.3,0.1-0.8-0.2-1.3c-0.3-0.5-0.8-1-1-1.5
								c-0.7,0-1.5-0.7-2,0.2c1,1.1-0.8,1,0.3,2.2c-0.7,0-1.5,1.8-2,0.2c-0.9,1.1-1.7,0.8-2.4,0.4c-0.8-0.4-1.6-1.1-2.4-0.8
								c-1.3,0.2-2.4-0.8-3.4-1.7c-2.2,1-4.4-0.3-6.8-0.3l-0.5,1.2c0,0-0.1,0-0.2-0.1c-0.2-0.3-0.4-0.5-0.5-0.7
								c-0.2-0.2-0.3-0.3-0.4-0.4c-0.4,0.6-0.7,1.1-1,1.7c-0.3,0.5-0.6,1-1,1.6c-0.4-0.1-0.8-0.2-1.1-0.3c-0.5-2,1.1-2.2,1.8-3.2
								c0.4-0.1,0.8-0.3,1.2-0.4c0.3-0.3,0.7-0.6,1-1c0.3-0.3,0.8-0.1,1.2,0c0.4,0.1,0.8,0.1,0.9-0.7c1.1,0.7,1.7-0.2,2.5-0.4
								c0.8-0.6,0-1.5-0.5-1.9c-0.7,0.1-1.2-0.1-1.5-0.3c-0.4-0.2-0.6-0.6-0.8-0.9c-0.2-0.3-0.5-0.6-0.8-0.7
								c-0.3-0.1-0.8-0.1-1.4,0.4c-1.3-1.3-4-1-4.9-2.3c-0.7-0.8-1.3-0.9-1.4-1.8c-0.7,0.1-1.4,0.7-2.1,1c-0.8,0.4-1.6,0.6-2.6,0.3
								c-0.9-0.3-1-2.2-3.2-1.4c-0.1,0.5-0.2,1.1-0.3,1.6c-1.3,0.8-2.7,0.2-2-1c0.4-0.2,1.1-0.1,1.6-0.7c-0.4-0.2-0.9-0.5-1.3-0.7
								c-0.5,0.1-1,0.2-1.5,0.5c-0.5,0.3-0.9,0.7-1.3,1.1c-0.8,0.8-1.5,1.6-2.4,2.1c-0.2-0.4-0.6-0.6-1.1-0.7
								c-0.5,0-1.1,0.2-1.7,0.5c-0.2,0.6-0.6,1.2-1.2,1.6c-0.5,0.4-1.1,0.7-1.7,0.4c-0.7,1-1.4,2-2,3c0,0.6,0.5,0.9,0.8,1.4
								c-1.5,1.3-2.6,3.3-3.8,5.1c-1.2,1.8-2.4,3.4-4.4,4c-0.8,1.5,2,0.7,0.5,2.6c-1.5,2-2.7-2.2-4.2,2c0.9,0.5,1.1,0.6,1.3,0.7
								c-0.4,0.6-0.8,1.9-1.5,1.8c-0.9,2.5,2,1.6,0.1,3.8c0.3,0.6,0.6,1,0.8,1.9c-0.2,0.9-0.5,1.8-0.7,2.6c-0.5-0.2-0.9-0.5-1.3-0.8
								c-0.5,0.3-1.1,0.6-1.6,0.9c-0.5,0.9-0.3,2.8-1.2,2.8c-0.9,0.2-1.9,0.3-2.8,0.5c-0.5,0.6-1,1.1-1.5,1.7
								c-0.5,0.3-0.9,0.7-1.3,1.1c0,0.5,0,1.1-0.1,1.6c-0.1,0-0.2,0-0.3,0c-0.4-0.1-0.8-0.3-1.2-0.5c-0.6-0.6-0.7,0.9-1.3,0.8
								c-0.8-0.5-1.5-1-2.2-1.6c1.4-1.5,1.9-1.8,2.9-2.7c0.2,0,0.4,0.1,0.5,0.1c0.3-0.4,0.6-0.8,0.9-1.1c0.5,0,0.9-0.1,1.3-0.1
								c1-1.6,1.4-3.1,2.7-3.7c1.1-1.8,1.2-2.1,0.6-3.9c1.1-1.2,1-1.8,0.6-2.4c-0.4-0.6-1-1.1-0.8-2.2c1-2.6,4.7-3.2,4.1-5.7
								c0.7-0.2,1.5-1.7,2.1-0.6c0.5-0.7,1-1.2,1.5-1.9c-0.4-0.4-1.1-0.4-1-1.2c0.1-0.3,0.4-0.4,1.9-0.6c0.1-1.8,2-3.4,3.1-5
								c-1.1-1.2,0.1-2.7,1.6-4c1.4-1.4,3-2.5,2.3-4.1c0.9-0.2,1.5-0.8,2.2-1.4c0.7-0.6,1.3-1.2,2.3-1.3c2.5-1.1,3.8-2.5,5.3-3.9
								c1.4-1.3,3.1-2.5,5.6-2.3c0.4-0.6,1-1.2,1.4-1.8c0.6,0,1.3,0,2.1-0.1c0.8,0,1.5,0.1,2.3,0c1.5,0,2.7-0.2,3-1.1
								c2.3-0.6,1.6,1.1,2.9,1.1c0.7-0.8,1.8-0.3,2.6,0c0.9,0.4,1.5,0.8,1.8-0.2c0.3-0.1,0.5-0.3,1-0.1c1.1,0.5,1.6,2.2,3.2,1.3
								l0.6-1.6c0.2,0.1,0.4,0.1,0.4,0.1c1,0.3,0.8,1.1,2.6,0.9c0.5,0.2,1.1,0.5,1.6,0.7c0.1,0.4,0.7,0.8,1.4,1.2
								c0.7,0.4,1.4,0.7,2,1.1c0.6,0,1.1-0.1,1.8-0.1c0.5,0.3,1,0.7,1.5,1c0.4,1,1,2.1,1.7,2.7c0.7,0.7,1.4,1.1,1.9,0.7
								c1,0.8,2.1,1.7,3.1,2.6c0.5,0.5,1.1,1.1,1.6,1.6c0.5,0.5,1,1.1,1.5,1.7c0.3,0.7,0.8,2,2,2c0.7,0.8,1.3,1.7,1.8,2.6
								c0.2,0.3,0.3,0.6,0.4,0.8c-0.2,0.8,0.5,2.5,0.9,2.6c0.7,0.1,0.7,1.8,1.8,1.9c0.1,0.3,0.2,0.6,0.3,0.8c-1.1,0.4,0,2.3,0.9,3.8
								c0.2,0.9,0.4,1.9,0.6,2.9c0,0.8,0.1,1.5,0,2.3l0,0.6c0.2,1.1,0.3,2.1,0.4,3.1c-0.5,1.9-1.2,3.8-2,5.5c-1.3,2-1.4,4.1-2.5,5.4
								c-1.7-0.8-0.7,2.1-1.5,4.4c-1.2,1.3-2.4,2.6-3.7,3.9c-0.6,0.1-1.1,0.7-1.5,1.3c-0.5,0.5-0.9,1-1.3,0.8
								c-0.6,0.8-1.2,1.7-1.8,2.5c-0.6,0.4-1.7,1.3-1.3,2.2c-0.2,0.3-0.4,0.5-0.6,0.6c-0.6,0.6-1.2,1.2-1.8,1.9
								c-1.3,0.9-1.1,1.9-2.2,3.3c-1,0.8-2,1.6-3,2.4c-1.1-0.5-2.5,1.4-3.7,2.2c-1.1,0.4-0.6-1.4-2.3-0.3c-0.3,0.2-0.5,0.4-0.7,0.6
								c-1.2,1-2.4,1.9-3.6,2.9c-1.1,0.9-2.1,1.9-3.1,2.8c-0.6,0.3-1.2,0.7-1.8,1.1c-2.9,1.6-1.9,3-3.2,4.1c-0.3,0-0.6,0.2-0.6-0.2
								l-2.7,2.1c-1.1,1.3-2.2,2.5-3.4,3.8c-1.2,0.6-2.3,1.2-3.4,1.7c-2.4,3.3-4.9,1.3-7.7,4.3c-1.3,0.6-2.6,1.2-3.8,1.9
								c-0.1-0.1-0.1-0.1-0.2-0.2C145.9,176.1,146,175.2,146,174.4z"/>
						</g>
						<g id="XMLID_450_">
							<path id="XMLID_451_" class="st8" d="M193.9,154.9c0.1-0.2,0.1-0.4,0.2-0.5c0-0.5,0-0.9,0-1.4c-0.4-0.5-0.8-0.9-1.2-1.3
								c-0.2,0.1-0.4,0.1-0.5,0.1c-0.7,0.6-0.3,1.4-1.3,1.9c-0.3,0.1-0.6,0.2-0.1-1.6c-0.4-0.9-2.4,1.1-1.8-0.7
								c0.7-0.5,1.4-1.1,2.1-1.6c0.7-0.5,1.4-1.1,2.1-1.7c0.9-0.6,1.9-1.3,3-2c0.5-0.5,1-1.1,1.5-1.6c-0.2-0.4-0.4-0.8-0.6-1.2
								c1.3-2.6,1.9-0.3,3.8-2.6l0.2-1c-0.3-0.3-0.9,0.2-1.1-1c0.2-0.3,0.4-0.5,0.6-0.7c0.7-0.2,1.5-0.4,2.2-0.5
								c0.4-1,0.9-2.1,1.3-3.1c0.1-0.7,0.2-1.4,0.3-2.1c0.3-0.2,0.6-0.3,0.9-0.5c0.7-0.9,1.5-1.9,2.3-3c0.6-0.6,1.2-1.2,1.8-1.8
								c0.3-1,0.5-2,0.8-3.1c-0.1-1-0.1-2-0.3-2.9c-0.2-0.6-0.5-1.2-0.7-1.9c0.3-1,0.5-2,0.7-3c0.4-1.4,0.3-2.6,0.4-4
								c0.1-0.9,0.2-2,0.6-3.4c-0.1-0.7-0.2-1.5-0.3-2.1c-0.5-0.8-1-0.2-1.5-1.4c0-0.9-0.5-1.1-0.4-3.5c-0.2-0.7-0.5-1.3-0.7-1.9
								c-0.4-1-0.8-1.9-1.2-2.7c-0.5-0.7-1-1.3-1.6-1.9c-0.5-0.5-1.1-0.9-1.6-1.3c-0.2,0.1-0.5,0.3-0.6,0.4
								c-0.2-0.3-0.4-0.6-0.5-0.8c-1-2-2.2-3.8-3.5-5.6c-1-0.8-2-1.6-3.1-2.3c-0.6-0.3-1.2-0.6-1.7-0.9c-0.6-0.3-1.1-0.5-1.8-0.8
								c-0.5-0.5-1-0.9-1.5-1.4c-0.5-0.5-1.1-0.9-1.6-1.4c-1.1-0.6-2.3-1.1-3.4-1.6c-0.6-0.6-1.3-0.9-2-1.2
								c-0.5,0.2-1.2,0.4-1.8,0.6c-0.4-0.2-0.8-0.5-1.1-0.7c0.6-0.8,0.1-1.5-0.2-2.2c-1-0.2-2-0.9-2.9-0.6c-0.8,0.4-1.6,0.8-2.3,1.2
								c-0.2,0-0.3-0.1-0.5-0.1c-0.1-0.7-0.2-1.4-0.4-2.1c-0.4-0.2-1.1-0.9-1.7-1.6c-1.4-0.1-0.4,1.1-2.2,1.2l-2.4-0.2
								c-0.1,0.4,0.3,1-0.6,1.2c-0.5,0-1.1,0-1.3-0.3c-1-0.3-1.8-0.5-2.8-0.6c-1.8,0.2,0,2.4-2.8,1.5c0-0.5-0.1-1-0.1-1.5
								c-0.9,0-1.9,0.1-2.8,0.2c-0.2,1.2,0.7,1.2,0.8,2.7c-0.3,0.1-0.6,0.1-0.8,0.2c0-1.1-0.9-0.8-1.7-0.5c-0.8,0.4-1.7,0.8-1.7-0.2
								c-0.9,0.3-1.7,0.6-2.6,1c-0.9,0.4-1.7,0.7-2.6,1.1c-0.3,0.3-0.5,0.6-0.7,0.8c-0.9,0.3-1.7,0.6-2.6,1
								c-1.8,0.3-2.1,0.5-2.4,0.4c-1.5,1.4-1.1-0.1-2.2-0.1c-0.3,0.2-0.5,0.3-0.9,0.6c-0.8,0.6,0.6,0.8-0.1,1.6
								c-2.3,1-1.7,2.6-3.8,3.7c-0.4,0.8-1.6,2-0.5,2.2c-0.4,0.7-0.9,1.3-1.3,2c-0.1,0.7,0.5,0.8-0.1,2.4c-0.5,0.4-1,0.7-1.5,1.1
								c-1.4,2.3-2.9,3.7-1.6,3.7c0.1,1.1-1.1,1.1-1.4,2.1c0.1,0.5,0.1,1.1,0.1,1.6c-0.5,0.2-1,0.4-1.5,0.5
								c-0.8,1.1-1.4,2.1-2.2,3.3c-0.8,1.3-1.6,2.7-2.4,4c-0.5-0.3-0.8-0.4-1.1-0.6c-0.7,0.5-1.4,0.9-2,1.4c-0.4-0.3-0.8-0.7-1.2-1
								c0.2-0.6,0.4-1.2,0.6-1.8c0.5-1.6,1-3.2,1.6-4.7l-0.4-0.2c0.7-1.2,1.5-2.3,2.2-3.5c-0.3-0.3-0.7-0.8-1-1.1
								c0.6-0.7,1.3-1.5,1.9-2.1c0.3-0.9-0.5-0.7-0.7-1.2c0.2-0.2,0.3-0.5,0.6-0.8c0.2-0.3,0.5-0.7,0.8-1.1c0.2,0.1,0.3,0.2,0.4,0.3
								c0.4,0.3,0.8,0.6,1.2,0.9c-0.2,0.6-0.5,1.2-0.7,1.8l2.1,0.5c1.3-3.3,2.8-5.5,2.5-7c0.8-1.5,2.2-2.9,3.5-4.2
								c0.6-0.6,1.3-1.2,1.7-1.8c0.5-0.6,0.8-1.1,0.9-1.6c-1.4,0.8-1.8,1.2-2.1,1.5c-0.6-0.2-0.8-0.7-0.4-1.3
								c0.3-0.6,1.1-1.4,2.4-2.1c-1.1-0.5-0.4-1.8-0.7-2.2c2.6-0.7,2-2.3,4.4-3.4l-0.5-1.1c0.2-0.3,0.5-0.6,0.8-1
								c1.8-0.9,3.8-1.7,5.6-2.3c2.5-1,5-1.8,7.6-2.4c2-0.2,4-0.5,6-0.6c0.9,0.1,1.9,0.1,2.8,0.2c2.4,0.3,3.1,0.1,3.6-0.3
								c0.5-0.4,0.7-0.8,2.1-0.8c2.1,0.4,4.1,0.8,6.1,1.4c3.8,1.3,6.1,1.5,6.1,2.7c1.7-0.6,3.6,0.8,4.5,0.5
								c4.1,1.1,7.3,3.5,11.3,5.8c0.8,0.4,1.5,0.9,2.3,1.5c0.8,0.5,1.6,1.1,2.3,1.6c0.3,0.3,0.8,0.7,1.2,1.1c0,0.5,0,0.9,0.1,1.5
								c1.3,1.6,2,1.8,2.5,2.1c0.6,0.5,1.3,1.2,2,2.1c0.7,0.8,1.4,1.7,2,2.7c1.3,2,2.5,4.1,3.4,5.9c0.3,0,0.6,0.1,0.9,0.3
								c0.3,0.9,0.5,1.8,0.7,2.9c0.4,1,0.8,2.2,1.1,3.3c0.8,1.1,1.6,2.3,2.4,3.5c0.3,1.1,0.5,2.1,0.7,3.3c-0.3,0.3-0.6,0.4-0.9,0.7
								c0.5,1.2,0.6,2.4,0.6,3.5c0,1.9-0.5,3.5-0.9,5c-0.5,1.6-0.9,3.1-1,5.1c-0.6-1-1.5,1.7-1.4,2.6c-0.3,0.6-0.5,0.9-0.8,1.5
								c-0.7,0-1.5,0-2.3,0.1c-0.9,1.6-1.9,3.3-3,4.7c-0.6,1.1-1.1,2.1-1.6,3.1c0,1.4,0,2.8,0,4.3c0.6-0.2,1.1-0.4,1.7-0.6
								c-0.4,1.8-1.1,2.8-1.8,3.7c-0.3,0.3-0.6,0.7-1,1c-0.3,0.8-0.6,1.6-1,2.4c-0.5,0.2-0.9,0.5-1.3,0.7l-1.8,2.7
								c-0.6,0.8-1.3,1.7-1.9,2.5c-1.1,0.4-2.2,0.8-3.2,1.3C195.9,153,194.9,153.9,193.9,154.9z"/>
						</g>
						<g id="XMLID_448_">
							<path id="XMLID_449_" class="st6" d="M196.3,135.6c-3.3,1.1-1.2-1.8-0.4-1.4C196,134.6,196.1,135.1,196.3,135.6z"/>
						</g>
						<g id="XMLID_446_">
							<path id="XMLID_447_" class="st7" d="M128.3,217.3c0.4-0.8,0.9-1.7,1.3-2.5l1.4,2l-0.7,1.8c-0.5,0.1-1,0.4-1.5,0.6
								C128.5,218.6,128.4,217.9,128.3,217.3z"/>
						</g>
						<g id="XMLID_444_">
							<path id="XMLID_445_" class="st7" d="M134.3,189.2c-0.3-0.4,0.2-1.4,0.5-2.4c0.1-0.6,0.3-1.3,0.4-2c0.5-0.3,1-0.6,1.5-0.9
								c0.2-0.5,0.6-1.1,0.9-1.5c0.5,0,0.9,0,1.3,0.1c-0.1,0.5-0.3,1-0.4,1.4c0,0.2,0,0.5,0,0.7c-1.1,0.8-2.1,1.5-3.1,2.2
								c0.4,0.8,1.9,0.9,1.2,2.4c-0.6,0.4-1.2,0.8-1.7,1.2C134.6,190,134.4,189.6,134.3,189.2z"/>
						</g>
						<g id="XMLID_442_">
							<path id="XMLID_443_" class="st7" d="M139.9,175.1c1.8-0.4,2.4-3.2,3.9-2.8c0.2,0.2,0.3,0.4,0.4,0.6
								c-0.3,0.9-0.8,1.8-1.2,2.7c-0.5,0.6-0.9,1.1-1.4,1.6c-0.1,0.1-0.2,0.2-0.3,0.2c-0.6-0.1-0.8-0.3-1-0.5
								C140.3,176.4,140.1,175.8,139.9,175.1z"/>
						</g>
						<g id="XMLID_440_">
							<path id="XMLID_441_" class="st7" d="M144.6,166.9c0.5,0,0.9,0.1,1.3,0.2c0.1,0.5,0.3,0.8,0.4,1.3c-0.3,0.5-0.7,1-1,1.5
								c-0.6,0-1.2-0.1-1.7-0.2C142.7,169.1,144.2,167.8,144.6,166.9z"/>
						</g>
						<g id="XMLID_438_">
							<path id="XMLID_439_" class="st7" d="M148.2,170.3c0.6-0.3,1.3-0.7,1.9-0.9c0.6-1.4,1.5-1.7,2-2.3c0.8-0.7,1.6-1.5,2.5-2.3
								c0.7-0.5,1.3-1,2-1.5l1.8-1.1c0.9-0.5,2.6-2.5,4-2.4c0.7,0,1.2,0.8,2.2-0.5c0.8-0.7,2.2-1.6,2.2-0.5c0.2,1-1.8,1.8-2.7,2.7
								c0,0.5,0,1,0.1,1.5c-1.3,0.6-2.4,1.5-3.5,2.3c-0.6-0.3-1.2-0.6-1.7-0.9c-0.4,0.3-0.9,0.7-1.3,1l-2.8,3.2
								c-0.1,0.1-0.2,0.2-0.3,0.3c-1.5,0.6-2.9,1.2-4.4,1.9c-0.3,0.2-0.6,0.5-0.9,0.8C148.8,171.1,148.5,170.7,148.2,170.3z"/>
						</g>
						<g id="XMLID_436_">
							<path id="XMLID_437_" class="st7" d="M147.5,154.6c0.1,0,0.3,0,0.5-0.1c0.4,0.6,0.9,1.2,1.3,1.8c-0.5,0.6-0.5,1.3-1.4,1.7
								c-0.8-0.4-1.6-0.7-2.4-1C146.8,156.5,146.3,155.2,147.5,154.6z"/>
						</g>
						<g id="XMLID_434_">
							<path id="XMLID_435_" class="st7" d="M206.4,150.1c0.5-1.1,1.1-2.3,1.6-3.4c0.1-0.1,0.2-0.2,0.3-0.4c0,0,0.1,0.1,0.2,0.2
								c0.2,0.4,0.3,0.9,0.6,1.3c0.2,0.9-1.4,2.9-2.3,2.8C206.5,150.3,206.4,150.2,206.4,150.1z"/>
						</g>
						<g id="XMLID_432_">
							<path id="XMLID_433_" class="st7" d="M206.8,136.7c0.7-1.1,0.1-1.6-0.1-2.4c0.2-0.1,0.3-0.1,0.4-0.3c0.6-1,1.1-2,1.6-3.1
								c1-1.4,2-3,3-4.7c0.8-0.1,1.5-0.1,2.3-0.1c-0.1,0.7-0.2,1.6-0.3,2.4c-0.4,0.8-0.8,1.6-1.2,2.4c-1.4,0.8-1.1,1.8-1.6,2.7
								c-1.8,2.2-0.7,2.1-1.2,2.8c-0.3,0.4-0.5,0.8-0.8,1.2c-0.6,0.2-1.1,0.4-1.7,0.6C207.1,137.7,206.9,137.2,206.8,136.7z"/>
						</g>
						<g id="XMLID_430_">
							<path id="XMLID_431_" class="st7" d="M222.5,100.5c0.5,0.4,1,0.8,1.6,1.3c0.7,1.4,0.7,2,0.5,2.5c-0.2,0.5-0.7,0.9-1,2.1
								C223.4,104.4,223,102.4,222.5,100.5z"/>
						</g>
						<g id="XMLID_428_">
							<path id="XMLID_429_" class="st7" d="M214.1,84.7c-0.9-1.5-1.9-2.8-2.9-4.2c-0.1-0.1-0.3-0.3-0.4-0.5
								c-0.6-0.7-1.2-1.4-1.8-2.1c-0.7-0.7-1.3-1.3-2-2l-2.2-2.2l-2.3-2.1c-0.4-0.9-2.4-1.7-2.6-2.8c1.1,0.3,2.1,0.7,3,1.2
								c0.9,0.5,1.7,1.2,2.5,1.8c1.6,1.3,3.1,2.7,5,3.9c1.2,1.3,0.7,2.5,2,4.1c0.8,0.8,1.6,1.5,2.4,2.3c2.2,2.2,0.6,2.3,0.3,3.5
								C214.7,85.3,214.4,85,214.1,84.7z"/>
						</g>
						<g id="XMLID_426_">
							<path id="XMLID_427_" class="st9" d="M212.1,84.4c-0.8-1-1.5-1.9-2.3-2.9c-0.6-0.3-1.1-0.6-1.7-0.9c-2-2.9-2.7-3.5-3.2-4.3
								c-0.7-0.6-1.3-1-2.1-1.5c-1.7-1.3-3.6-2.5-5.5-3.5c-2.1-2-3.4-2.7-3.6-2.2c-0.9-0.5-1.8-0.9-2.6-1.4
								c-0.2,0.4-0.8,0.2-1.4-0.1c-0.7-0.3-1.4-0.9-2-1.2c-1.2-0.5-2.5-0.9-3.7-1.3c-1.3-0.3-2.5-0.7-3.7-0.9
								c-0.6-0.1-1.2-0.3-1.8-0.4c-0.1,0-0.4-0.1-0.5-0.1c-0.5-0.5-1-1-1.6-1.6c-0.8,0.1-1.7,0-2.5-0.1c-0.9,0-1.8-0.1-2.5,0.2
								c-0.3,0-0.5,0-0.6,0c-1.8-0.1-3.7-0.1-5.4-0.1c-0.5,0-0.9,0-1.3,0.1c-1.6,0-3.1,0.1-4.8,0.2c-0.6-0.2-1.3-0.4-1.9-0.7
								c0.2-0.5,0.4-0.9,0.5-1.4c4.4-0.7,8.8-1,13.3-0.8c1.3,0.1,2.5,0.3,3.9,0.4c1.1,0.1,2.3,0.3,3.5,0.5c1.2,0.2,2.4,0.5,3.5,0.7
								c1.9,0.3,3.7,0.7,5.7,1.3c2.1,0.8,4.3,1.8,6.4,2.9c1.4-0.1,2.2,0.5,2.9,1.3c0.8,0.8,1.5,1.7,3,2.2c0.2,1,2.2,1.9,2.6,2.8
								l2.3,2.1l2.2,2.2c0.7,0.7,1.3,1.4,2,2c0.6,0.7,1.2,1.4,1.8,2.1c0.2,0.2,0.3,0.4,0.4,0.5c1,1.4,2,2.8,2.9,4.2
								C213.4,84.5,212.8,84.4,212.1,84.4z"/>
						</g>
						<g id="XMLID_424_">
							<path id="XMLID_425_" class="st7" d="M187.6,62.4c-1.9-0.6-3.8-1-5.7-1.3l0.3-0.7C184,60.9,185.7,61.6,187.6,62.4z"/>
						</g>
						<g id="XMLID_422_">
							<path id="XMLID_423_" class="st7" d="M174.9,59.8c-1.3-0.2-2.5-0.3-3.9-0.4c1.4-1.3,2.4-0.2,4,0L174.9,59.8z"/>
						</g>
						<g id="XMLID_420_">
							<path id="XMLID_421_" class="st7" d="M139.5,66.7c-0.1,0.2-0.2,0.5-0.3,0.7c-1,0.6-2,1.2-3,1.8c-1,0.6-1.9,1.3-2.8,1.9
								c-0.5,0.2-0.9,0.2-1.3,0.3c1.9-3,3-4.5,6.9-5.9L139.5,66.7z"/>
						</g>
						<g id="XMLID_418_">
							<path id="XMLID_419_" class="st5" d="M126.9,218.9c0.3-1.2,0.6-1.5,1.4-1.6c0.2,0.6,0.2,1.3,0.4,1.9
								c-0.2,0.2-0.4,0.4-0.5,0.7C127.7,219.5,127.3,219.2,126.9,218.9z"/>
						</g>
						<g id="XMLID_416_">
							<path id="XMLID_417_" class="st5" d="M135.2,184.8c-0.1-0.8,0.2-1.5,0.6-2.1c0.4-0.6,1-1,1.5-1.2c0.1,0.3,0.2,0.6,0.2,0.9
								c-0.3,0.5-0.6,1-0.9,1.5C136.2,184.1,135.7,184.5,135.2,184.8z"/>
						</g>
						<g id="XMLID_414_">
							<path id="XMLID_415_" class="st5" d="M147.5,154.6c-0.1-1.9,1.6-2.8,2.5-3.1c0.4,0.2,0.9,0.4,1.4,0.5
								c-0.6,1.1-2.2,2.7-3.4,2.6C147.8,154.6,147.7,154.7,147.5,154.6z"/>
						</g>
						<g id="XMLID_412_">
							<path id="XMLID_413_" class="st5" d="M181.9,61c-1.2-0.3-2.4-0.5-3.5-0.7c-1.2-0.2-2.4-0.4-3.5-0.5l0.1-0.5
								c0.5-1.3,1.6-0.8,2.3-1.1c1.4,0.2,1.9,0.6,2.5,1c0.5,0.4,1.1,0.8,2.5,1.1L181.9,61z"/>
						</g>
						<g id="XMLID_410_">
							<path id="XMLID_411_" class="st5" d="M157.2,61.6c-0.8,0.1-1.6,0.3-2.4,0.5c-1.7,0.1-3.2,0.3-4.8,0.5l-0.2-0.8
								c1.5-0.5,2.8-1.3,4.1-1.7c1.3-0.4,2.6-0.6,3.8,0.2C157.6,60.6,157.4,61.1,157.2,61.6z"/>
						</g>
						<g id="XMLID_408_">
							<path id="XMLID_409_" class="st5" d="M142.9,65c-1.1,0.5-2.3,1-3.4,1.6l-0.5-1.2c1.2-0.5,2.5-0.8,3.6-1.2L142.9,65z"/>
						</g>
						<g id="XMLID_406_">
							<path id="XMLID_407_" class="st8" d="M128.1,219.8c0.2-0.3,0.3-0.5,0.5-0.7c0.5-0.2,1-0.5,1.5-0.6c0.1,0.1,0.2,0.3,0.3,0.5
								c-0.3,0.8-0.6,1.5-0.8,2.2C128,222.1,127.8,221.1,128.1,219.8z"/>
						</g>
						<g id="XMLID_404_">
							<path id="XMLID_405_" class="st8" d="M140.5,200.4c0.2-0.3,0.5-0.6,0.7-0.8c0.2-0.6,0.4-1.3,0.6-1.9c0.1-0.1,0.2-0.2,0.2-0.3
								c0.3-0.4,0.6-0.8,0.9-1.1c0.1-0.3,0.2-0.5,0.3-0.7c1.5,0.9,2.5-0.6,4.3-2.1c0.2-0.6,0.8-1.2,1.4-1.7c0.8-0.4,1.6-0.9,2.4-1.3
								c0.2,0.1,0.4,0.1,0.6,0.1l-2.4,2.9c0.2,0.3,0.5,0.5,0.7,0.8c-0.9,0.9-1.6,1.8-2.3,2.8c-1,0.2-1.9,0.8-2.9,1.7
								c-0.7,0.9-1.5,1.9-2.2,2.8c-0.8,0.9-1.2,0-2.9,0C140.2,201.1,140.4,200.8,140.5,200.4z"/>
						</g>
						<g id="XMLID_402_">
							<path id="XMLID_403_" class="st8" d="M137.4,181.4c0.2-0.2,0.4-0.4,0.6-0.6c-0.3-1.7,1.5-2.7,2.5-3.7c0.2,0.2,0.3,0.4,1,0.5
								c-0.5,0.8-1,1.6-1.4,2.4c-0.1,0.5,0,0.9,0,1.4c-0.4,0.4-0.8,0.8-1.2,1.2c-0.4-0.1-0.8-0.1-1.3-0.1
								C137.5,182,137.5,181.7,137.4,181.4z"/>
						</g>
						<g id="XMLID_400_">
							<path id="XMLID_401_" class="st8" d="M143.3,178.5c0.8-0.5,1.7-1.1,2.5-1.6c0.1,0.1,0.1,0.1,0.2,0.2
								c-0.9,1.1,0.7,1.8-0.8,2.4c-0.7-0.1-1.3-0.2-1.9-0.3C143.3,178.9,143.4,178.7,143.3,178.5z"/>
						</g>
						<g id="XMLID_398_">
							<path id="XMLID_399_" class="st8" d="M146.3,172c0.3-0.4,0.6-0.7,0.9-1.1c0.3-0.1,0.7-0.4,1.1-0.6c0.3,0.4,0.6,0.8,1.1,1.4
								c-0.7,0.5-1.4,0.9-2.1,1.4C146.8,172.6,146.5,172.3,146.3,172z"/>
						</g>
						<g id="XMLID_396_">
							<path id="XMLID_397_" class="st8" d="M168.2,168.9c-0.1-1.1-0.8-1.2-0.1-1.5c1.4-1.8,1.9,0.5,1.7,0.9
								C169.3,168.4,168.7,168.7,168.2,168.9z"/>
						</g>
						<g id="XMLID_394_">
							<path id="XMLID_395_" class="st8" d="M172.4,167.6c0.3,1,0.1,1.3,0,1.6c-0.9,1.1-1.2,0-2-0.7
								C171.1,168.1,171.7,167.8,172.4,167.6z"/>
						</g>
						<g id="XMLID_392_">
							<path id="XMLID_393_" class="st8" d="M174,165.4c-0.9-0.7-0.6-1.8,0.8-2.5c0,0.3,0.6,0.2,0.9-0.1c1.7-0.9,0.9-1.7,2.6-3
								c-1-0.7,0-1.2,0.8-1.9c0.6-0.5,1.3-1.1,1.9-1.6c0.5-0.5,1-1.1,1.5-1.6c0.4,0.3,0.9,0.5,1.3,0.9c0.2-0.1,0.5-0.2,0.8-0.4
								c0.7-0.7,1.4-1.4,2.1-2.1c2.8-0.5-1.7,2.5,1.1,2c-0.5,0.4-1.5,3.5-2.5,1.8c-0.4,0.2-0.8,0.5-1.1,0.6
								c-1.1,1.5-0.3,1.5-0.3,1.9c-1.7,1.6-2.6,1.7-4.3,2.9C178.2,161,175.9,164.4,174,165.4z"/>
						</g>
						<g id="XMLID_390_">
							<path id="XMLID_391_" class="st8" d="M189.1,158.9c0.7-0.6,0.3-1.4,1.4-1.9c0.3-0.1,0.6-0.2,0.7,0.1c0.9-0.8,1.8-1.5,2.8-2.3
								c0.2,2-2.2,3.8-3.4,4.4c-0.1,0.1-0.3,0.2-0.4,0.3c-0.3,0.5-0.7,1-1.1,1.5c-0.3,0.2-0.5,0.4-0.7,0.6c-0.8,0.3-1.7,0.6-2.7,1
								c-0.7,1-1.2,0.4-1.9,0.3c1.3-1,0.9-2.3,2.6-3.1C187.3,159.5,188.2,159.2,189.1,158.9z"/>
						</g>
						<g id="XMLID_388_">
							<path id="XMLID_389_" class="st8" d="M209.7,136.5c-0.7-1.6,0.7-1.8,1.2-2.8c0.5-0.9,0.1-2,1.6-2.7l0.2,2.1l-0.5,0.9
								c-0.2,0.5-0.4,1-0.6,1.5C210.9,135.8,210.3,136.2,209.7,136.5z"/>
						</g>
						<g id="XMLID_386_">
							<path id="XMLID_387_" class="st8" d="M149.9,62.5c-0.9,0.6-1.8,1.3-2.7,1.9c-0.8,0.3-1.5,0.6-2.3,0.9
								c-0.7-0.1-1.4-0.2-2.1-0.2l-0.2-0.7c1.1-0.5,2.3-1,3.5-1.4c1.2-0.4,2.4-0.8,3.6-1.2L149.9,62.5z"/>
						</g>
						<g id="XMLID_384_">
							<path id="XMLID_385_" class="st10" d="M140.4,73l0.5,1.1c-2.4,1.2-1.8,2.7-4.4,3.4c0.4,0.4-0.4,1.8,0.7,2.2
								c-1.2,0.7-2,1.5-2.4,2.1c-0.3,0.6-0.2,1.1,0.4,1.3c0.3-0.3,0.7-0.7,2.1-1.5c-0.1,0.5-0.4,1-0.9,1.6c-0.5,0.6-1.1,1.1-1.7,1.8
								c-1.3,1.2-2.7,2.7-3.5,4.2c0.3,1.5-1.3,3.7-2.5,7l-2.1-0.5c0.2-0.6,0.5-1.2,0.7-1.8c-0.4-0.3-0.8-0.6-1.2-0.9
								c-0.1-0.1-0.2-0.2-0.4-0.3c-0.3,0.4-0.6,0.8-0.8,1.1c-0.2,0.3-0.4,0.6-0.6,0.8c0.2,0.4,1,0.3,0.7,1.2
								c-0.6,0.6-1.3,1.4-1.9,2.1c0.3,0.4,0.7,0.8,1,1.1c-0.8,1.2-1.5,2.3-2.2,3.5l0.4,0.2c-0.5,1.5-1.1,3.1-1.6,4.7
								c-0.2,0.6-0.4,1.2-0.6,1.8c0.4,0.3,0.8,0.7,1.2,1c-0.9,1.1-1.7,2.2-2.5,3.4c0,0.3-0.1,0.6-0.1,0.9c0.3,0.6,0.6,1.3,0.9,1.9
								c-0.3,1-0.7,2-0.9,3c0,1.1,0.1,2.3,0.2,3.5c-0.7,0.4-1.4,1-2,1.4c-0.5-0.2-1.1-0.5-1.6-0.9c-0.2,0.8-0.5,1.6-0.6,2.5
								c-0.3,0.2-0.7,0.3-1,0.4c-0.4,0.6-0.8,1.3-1.2,2c-0.4-0.6-0.9-1.1-1.3-1.8c-0.9,0.2-1.8,0.4-2.8,0.7c0-0.5,0.1-1.1,0.1-1.7
								c0.7-0.6,1.4-1.3,2.2-1.9c0.2,0.4,0.4,0.8,0.6,1.2c0.2-0.3,0.4-0.6,0.6-0.9c0.3-1.1,0.6-2.1,0.8-3.1c0.4,0.1,0.9-0.9,1.5-1.1
								c-0.1-0.6-0.2-1.2-0.3-1.8c0.2-0.6,0.4-1.3,0.6-1.9c-0.4-0.7-0.8-1.4-1.2-2.1c0.1-0.2,0.1-0.4,0.2-0.5l-1.1-0.5
								c0.2-0.6,0.5-1.3,0.7-1.9c0.9-0.2,1-1.4,0.9-3.5c0.5-1.2,1.1-2.3,1.6-3.4c0.4-0.9,0.9-1.7,1.3-2.5c0.1-0.9-0.7-0.8-1-1.2
								c0-0.1,0-0.4,0-0.6c0.4-1,0.8-2.1,1.2-3.2c0.9-1.6,1.7-3.2,2.7-4.8c1.1-1.5,2.3-3,3.5-4.5c0.8-0.8,1.5-1.5,2.2-2.3
								c0.4-0.1,0.8-0.1,1.2-0.2c0.7-0.6,1.4-1.2,2-1.8c0.4,0.1,0.8,0.2,1.6,0.1c0.4-0.9,0.8-1.9,1.2-2.8c-1.4-0.2,0.5-2.3-0.6-2.8
								c0.1-0.1,0.2-0.4,0.2-0.5c0.7-0.5,1.4-0.8,2.1-1.3c1-0.3,1.8-0.5,2.9-0.8C137.6,74.2,139,73.6,140.4,73z"/>
						</g>
						<g id="XMLID_382_">
							<path id="XMLID_383_" class="st8" d="M117,124.4c-0.1,0.4,0,0.7,0.1,1.3c0.1,0.5,0.2,1.2,0.3,2.3c-0.5,2.3-1.2,0.7-1.8,0.7
								c-0.3-0.9-0.9-1.6-0.8-2.7c0.1-0.8,0.3-1.7,0.6-2.5C115.9,123.9,116.4,124.2,117,124.4z"/>
						</g>
						<g id="XMLID_380_">
							<path id="XMLID_381_" class="st11" d="M140.1,179.9c0.4-0.8,0.9-1.6,1.4-2.4c0.1-0.1,0.2-0.2,0.3-0.2
								c0.6,0.4,1.1,0.8,1.6,1.3c0,0.2,0,0.4,0,0.7c-0.3,0.5-0.7,1-0.9,1.5l-0.6,0.6l-1.8,0C140,180.8,140,180.4,140.1,179.9z"/>
						</g>
						<g id="XMLID_378_">
							<path id="XMLID_379_" class="st10" d="M149.6,193.4c0.6-1,1.2-2.1,1.7-3.1c0.2,0.1,0.4,0.1,0.6,0.1c0.7-0.5,1.5-0.9,2.2-1.4
								c-0.1-1.1,1-1.8,1.6-2.4c0.7-0.5,1.4-1,2.3-1.6c0.3-0.5,0.5-0.9,0.9-1.4c0.5,0,0.9-0.1,1.4-0.1c0.5-0.4,1.1-0.7,1.6-1.1
								c0.8-0.5,1.6-1,2.4-1.5c0.1,0.4,0.1,0.8,0.3,1.1c-0.8,0.3-1.5,0.6-2.3,0.9c1.1,1,1.9,0,2.6-0.5c0.2,0.2,0.3,0.4,0.4,0.6
								c-0.6,1-1.3,1.9-1.8,2.8c-0.9,0.4-1.7,0.8-2.6,1.1c-1.1,0.7-2.2,1.4-3.2,2.1c0-0.7-0.1-1.3-0.1-1.9c-0.4,0-0.8,0.2-1.2,0.3
								c-0.5,0.6-0.9,1.2-1.4,1.9c0.1,0.3,0.3,0.7,0.3,1c-0.7,0.5-1.4,1-2.1,1.5l-2.9,2.2C150.1,193.9,149.9,193.7,149.6,193.4z"/>
						</g>
						<g id="XMLID_376_">
							<path id="XMLID_377_" class="st11" d="M155,189.4c0.5-0.7,0.9-1.3,1.4-1.9c0.4-0.1,0.8-0.3,1.2-0.3c0.1,0.6,0.1,1.2,0.1,1.9
								c-0.8,0.4-1.6,0.9-2.3,1.4C155.3,190.1,155.2,189.7,155,189.4z"/>
						</g>
						<g id="XMLID_374_">
							<path id="XMLID_375_" class="st11" d="M162.2,183c0.8-0.3,1.5-0.6,2.3-0.9c-0.1-0.3-0.2-0.7-0.3-1.1c0.7-0.6,1.4-1.1,2.2-1.7
								c1-0.8,2-1.5,3-2.3c0.8-0.2,1.6-0.2,2.1-0.6c0.5-0.5,0.9-1,1.5-1.5c2.2-1.9,4.5-3.9,6.7-5.8c0.1-0.1,0.3-0.2,0.4-0.3
								c1.9-0.5,2.4-0.8,3.2-1.5l-0.5-0.6l0.6-0.5c1.5-0.7,2.2-1.1,2.6-0.9c0-1.5,1.3-2.1,2-2.6c0.1-0.3,0.2-0.6,0.3-1
								c0.2-0.2,0.4-0.4,0.7-0.6c0.3-0.5,0.7-1,1.1-1.5c0.1-0.1,0.2-0.2,0.4-0.3c0.6,0.1,1.3,0.2,1.9,0.3c0,0.1-0.1,0.3-0.2,0.5
								l-1.7,1.5c0.2,0.3,0.4,0.5,0.6,0.8c-0.5,0.7-1.1,1.6-1.6,2.3c-0.4,0.2-0.6,0.3-0.9,0.4c-0.1,0.1-0.2,0.2-0.4,0.3
								c-1.8,3-3.1,2.5-4.5,3.6c-1.4,1.2-2.9,2.5-4.3,3.7c-2-0.8-1.8,0.7-2.6,1.4c-0.7,0.7-1.5,1.4-2.2,2c-1.7,2.3-4.1,2.7-6.3,4.5
								l-3.1,2.5c-0.1-0.2-0.3-0.4-0.4-0.6C164.1,183,163.3,184,162.2,183z"/>
						</g>
						<g id="XMLID_372_">
							<path id="XMLID_373_" class="st11" d="M200.9,151.4c-0.2-0.3-0.5-0.5-0.7-0.8c0.6-0.8,1.3-1.7,1.9-2.5l1.8-2.7
								c0.4-0.2,0.8-0.5,1.3-0.7c0.6-0.1,1.2-0.3,1.8-0.3c0.3-0.5,0.5-0.9,0.8-1.4c0.2-0.5,0.5-0.9,0.7-1.3c0.9-1,1.8-2,2.8-3
								c0-0.6,0.2-1.4,0.4-2c0.2-0.7,0.3-1.2,0.1-1.3c0.2-0.5,0.4-1,0.6-1.5l0.5-0.9c0.7-0.6,1.3-1.3,1.9-2c0.3-1.6,1.9-3.7,2-5.5
								c0.6-0.8,1.1-1.7,1.7-2.6c0.9-1.7,0.2-3.2,1.4-4.5c0.4-2,0.7-4.3,0.7-6.5l0-0.6c-0.1-1.2-0.4-2.4-0.7-3.6
								c0.1-0.4,0.1-0.9,0.1-1.3c-0.5-1.7-1-3.2-1.6-4.6c0-0.8-0.2-1.8-0.2-2.6c-0.7-1.2-1.5-2.2-2.3-3.3c-0.1-1-0.3-2-0.5-3
								c-2.1-2.1-3.8-5.4-5.9-6.9c-0.3-0.1-1.1-0.9-1.7-1.7c-0.6-0.8-1.1-1.5-0.7-1.6c-0.3-1.6-4.7-4.1-2.6-4.6
								c1.3,1.2,2,1.4,2.4,1.6c0.4,0.1,0.7,0.1,1.3,0.9c2.3,3.5,3.3,4.8,4.4,5.7c1,0.9,2,1.8,2.9,2.7c0.4,1.2,0.6,2.4,0.9,3.7
								c0.8,1.8,1.6,3.6,2.9,5.1c-0.2-2.2-0.6-4.4-1.1-6.5c1.2,0.3,1.5,0.2,1.7,0.1c1.1,3.1,2.1,6,2.8,9.2c0.5,1.9,0.9,3.9,1.1,6
								c0.2,1.7,0.2,3.7,0.1,5.6c-0.1,0.7-0.1,1.5-0.2,2.2c0,0.2,0,0.5-0.1,0.6c0.2,2.6,0,4.8-0.6,7.1c-0.6,2.2-1.6,4.6-3.2,7.2
								c-1.1,2.2-2.4,4.2-3.7,6.1c0.1-1,0.2-2.1,0.3-3.2c-0.6,0.5-1.2,1.1-1.7,1.5c-1,1.8-0.5,3.4-1.3,4.9c0,1.3-0.7,2.9-1.6,4.4
								c-0.5,0.7-1,1.5-1.5,2.1c-0.6,0.6-1.2,1.1-1.7,1.4c-0.2,0.1-0.4,0.2-0.5,0.2c-0.7,0.4-1.2,0.7-1.8,1c-0.7,0.9-1.3,1.7-2.3,2
								c-0.5,0.6-1,1.3-1.5,1.9c-0.3,0.3-0.5,0.5-0.7,0.7C201.3,151.9,201.1,151.7,200.9,151.4z"/>
						</g>
						<g id="XMLID_370_">
							<path id="XMLID_371_" class="st11" d="M201.6,77.6c-0.8-0.9-1.5-1.7-2.4-2.5c-0.3-0.5-0.6-0.9-1-1.4
								c-0.5-0.2-0.9-0.3-1.3-0.3c-0.9-0.6-1.8-1.2-2.7-1.7c-0.9-0.5-1.8-1.1-2.8-1.6c-0.4,0.8-2-0.9-2.9-0.6
								c-2-0.7-1.2-1.5-3.2-2.4c-0.9,0.4-1,0.7-1.1,0.9c-0.6-0.2-1.3-0.5-2-0.7c-0.7-0.2-1.5-0.5-2.4-0.7c-1.8,0.5-3.1,0.5-3.6-0.1
								c-0.2-0.3-0.3-0.7-0.3-1.1c-3.4-1-5.3-0.7-7-0.3c-1.3,0-2.6-0.1-3.9,0c-0.8-0.2-1.5-0.4-2.3-0.7c-0.8,0.6-1.5,1.1-2.3,1.7
								c-0.7-0.2-1.5-0.5-2.3-0.7c-0.7,0.1-1.5,0.2-2.8,0.5c-0.3,0.3-0.6,0.6-0.9,0.9c-2.6,0.6-5.1,1.4-7.6,2.4
								c-0.7-0.7-1.5-1.3-2.4-2c0.9-0.3,1.9-0.5,2.8-0.8c3.4-0.2,4.1-1.1,4.4-1.7c1.6-0.9,2.5-0.5,3.6-0.1c0.9-0.4,1.9-0.7,2.8-1.1
								c1.3,0,2.8,0.1,4.1,0.3c1.1-0.5,2.3-1,3.6-1.4c2.4,0.2,2.9,0.2,4.9-0.6c0.1,0,0.4,0,0.6,0c0.7-0.3,1.6-0.2,2.5-0.2
								c0.9,0,1.8,0.1,2.5,0.1c0.5,0.5,1.1,1,1.6,1.6c0.1,0,0.4,0.1,0.5,0.1c0.6,0.1,1.2,0.3,1.8,0.4c1.2,0.2,2.5,0.6,3.7,0.9
								c1.2,0.4,2.5,0.8,3.7,1.3c0.5,0.3,1.3,0.8,2,1.2c0.7,0.3,1.2,0.5,1.4,0.1c0.9,0.4,1.8,0.9,2.6,1.4c0.2-0.5,1.5,0.2,3.6,2.2
								c1.9,1,3.8,2.3,5.5,3.5c-0.2,0.2-0.5,0.5-0.7,0.7c0.6,0.6,1,1.3,1.5,1.9C202.8,77.4,202.2,77.5,201.6,77.6z"/>
						</g>
						<g id="XMLID_368_">
							<path id="XMLID_369_" class="st12" d="M141.2,71.9c-0.9-0.1-1.8-0.2-2.7-0.1c0.3-1.6,0.8-2.5-0.3-2.2c-1.9,0.7-0.5,1.3-2.3,2
								c-0.6,0.3-1,0.5-1.6,0.8c-0.3-0.5-0.5-0.9-0.7-1.3c0.9-0.6,1.8-1.3,2.8-1.9c1-0.6,1.9-1.3,3-1.8c1.6-0.3,3.3-0.5,4.9-0.7
								c0.1,0.3,0.2,0.6,0.3,0.9c0.9-0.3,1.9-0.5,2.8-0.8c-0.1,0.9-0.2,1.9-0.4,2.8C145,70.3,143,71.1,141.2,71.9z"/>
						</g>
						<g id="XMLID_366_">
							<path id="XMLID_367_" class="st11" d="M140.4,73c-1.4,0.6-2.8,1.3-4.1,1.9c0.6-0.9,1-1.9,1.7-2.8c0.1-0.1,0.3-0.2,0.4-0.2
								c0.9,0,1.8,0.1,2.7,0.1C140.9,72.3,140.6,72.6,140.4,73z"/>
						</g>
						<g id="XMLID_364_">
							<path id="XMLID_365_" class="st11" d="M131.2,77.6c1.1,0.5-0.8,2.6,0.6,2.8c-0.4,1-0.8,1.9-1.2,2.8c-0.8,0.1-1.2,0-1.6-0.1
								c-0.7,0.6-1.4,1.2-2,1.8c-0.4,0.1-0.8,0.2-1.2,0.2c0.2-0.7,0.5-1.6,0.8-2.3c1.2-1.5,2.4-2.9,3.7-4.4
								C130.5,78.1,130.8,77.9,131.2,77.6z"/>
						</g>
						<g id="XMLID_362_">
							<path id="XMLID_363_" class="st11" d="M116.1,100.4c1.7,0,1.1,2,0.6,3.6c-0.3,0-0.6,0-0.9,0.1c-0.6,1.1-1.1,2.2-1.6,3.4
								c0.1,2.1-0.1,3.3-0.9,3.5c-0.2,0.6-0.5,1.3-0.7,1.9l1.1,0.5c0,0.1-0.1,0.3-0.2,0.5c-0.3,0.5-0.7,1.2-1.1,1.7
								c-0.4-0.2-0.7-0.3-1.2-0.5c-0.2-1.5,0.3-3.7,1.1-5.8c0-0.9,0.1-1.9,0.1-2.8c0.8-1.1,1.7-2,2.5-3
								C115.3,102.6,115.7,101.4,116.1,100.4z"/>
						</g>
						<g id="XMLID_360_">
							<path id="XMLID_361_" class="st11" d="M119,103.3c0.3,1-0.6,2.1-1,3.1c-0.5-0.3-0.9-0.5-1.3-0.7c0.2-0.4,0.4-0.8,0.6-1.2
								C117.9,104.1,118.5,103.7,119,103.3z"/>
						</g>
						<g id="XMLID_358_">
							<path id="XMLID_359_" class="st11" d="M114.1,117.9c0.1,0.6,0.2,1.2,0.3,1.8c-0.6,0.2-1.1,1.2-1.5,1.1
								c-0.3,1.1-0.6,2-0.8,3.1c-0.2,0.3-0.4,0.6-0.6,0.9c-0.2-0.4-0.4-0.8-0.6-1.2c-0.8,0.5-1.5,1.3-2.2,1.9c0-1,0.1-2,0.1-3
								c0.6-0.2,1.1-0.5,1.7-0.8c0.2-1,0.4-2.1,0.7-3.1l1.6-1.2C113.1,117.6,113.6,117.7,114.1,117.9z"/>
						</g>
						<g id="XMLID_356_">
							<path id="XMLID_357_" class="st10" d="M138.5,183.8c0.1-0.4,0.3-0.9,0.4-1.4c0.4-0.4,0.8-0.8,1.2-1.2l1.8,0
								c-0.8,1.1-1.5,2.1-2.3,3.2c-0.4,0-0.7,0-1.1,0C138.4,184.3,138.5,184,138.5,183.8z"/>
						</g>
						<g id="XMLID_354_">
							<path id="XMLID_355_" class="st10" d="M143.1,175.6c0.4-0.9,0.8-1.8,1.2-2.7c0.7-0.3,1.3-0.6,2-1c0.3,0.3,0.5,0.7,0.9,1.2
								c-0.4,0.4-0.8,0.9-1.1,1.3c0,0.8-0.2,1.7-0.2,2.5c-0.8,0.5-1.7,1.1-2.5,1.6c-0.5-0.5-1.1-0.9-1.6-1.3
								C142.2,176.7,142.7,176.2,143.1,175.6z"/>
						</g>
						<g id="XMLID_352_">
							<path id="XMLID_353_" class="st10" d="M169.4,177c0-0.9,1-1.3,2-2.1c1.7-2,5.8-3.5,6.6-6c1.1-1.3,0.8,0.5,2.1,0
								c0.9-0.7,1.8-1.4,2.8-2.2l0.5,0.6c-1.2,0.7-2.4,1.2-3.6,1.8c-2.2,1.9-4.5,3.9-6.7,5.8c-0.6,0.5-1,1-1.5,1.5
								C171,176.8,170.2,176.9,169.4,177z"/>
						</g>
						<g id="XMLID_350_">
							<path id="XMLID_351_" class="st10" d="M182.8,163.8c0.4-0.3,0.6-0.5,1-0.8c0.7,0.1,1.2,0.7,1.9-0.3c0.9-0.3,1.8-0.7,2.7-1
								c-0.1,0.3-0.2,0.7-0.3,1c-1.3,1.5-1.4,2.1-2,2.6c-0.5-0.2-1.2,0.1-2.6,0.9C183.1,165.2,181.8,165.1,182.8,163.8z"/>
						</g>
						<g id="XMLID_348_">
							<path id="XMLID_349_" class="st10" d="M193.9,154.9c0.1-0.2,0.1-0.4,0.2-0.5c0.9-0.8,1.9-1.5,2.9-2.4
								c1.1-0.4,2.2-0.8,3.2-1.3c0.2,0.3,0.5,0.5,0.7,0.8c-1,1.1-2,2.3-3.1,3.3c-1.1,1-2.1,2.1-3.1,3.1c-0.7,0.6-1.4,1.2-2.2,1.7
								c-0.7-0.1-1.3-0.3-1.9-0.3C191.7,158.7,194.1,156.8,193.9,154.9z"/>
						</g>
						<g id="XMLID_346_">
							<path id="XMLID_347_" class="st10" d="M206.1,142.4c0.4-0.3,0.7-0.7,1-1c0.7-0.9,1.4-1.9,1.8-3.7c0.3-0.4,0.5-0.7,0.8-1.2
								c0.6-0.3,1.3-0.7,1.9-1.1c0.3,0.1,0.1,0.7-0.1,1.3c-0.2,0.6-0.4,1.4-0.4,2c-0.9,1-1.9,2-2.8,3c-0.2,0.4-0.4,0.9-0.7,1.3
								c-0.2,0.4-0.5,0.9-0.8,1.4c-0.6,0-1.2,0.1-1.8,0.3C205.4,144,205.7,143.2,206.1,142.4z"/>
						</g>
						<g id="XMLID_344_">
							<path id="XMLID_345_" class="st10" d="M212.5,131c0.4-0.8,0.8-1.6,1.2-2.4c0.1-0.8,0.2-1.6,0.3-2.4c0.3-0.5,0.6-0.9,0.8-1.5
								c0-0.9,0.9-3.6,1.4-2.6c0.1-2,0.6-3.5,1-5.1c0.5-1.6,0.9-3.2,0.9-5c0-1.1-0.2-2.2-0.6-3.5c0.3-0.3,0.6-0.4,0.9-0.7
								c-0.2-1.2-0.4-2.2-0.7-3.3c-0.8-0.8-1.6-1.9-2-2.3c-0.1-0.4-0.2-0.7-0.3-1.2c-0.3-1.1-0.7-2.3-1.1-3.3
								c-0.2-1.1-0.4-1.9-0.7-2.9c-0.3-0.1-0.6-0.3-0.9-0.3c-0.9-1.8-2.1-3.9-3.4-5.9c-0.6-1-1.3-1.9-2-2.7c-0.7-0.8-1.3-1.5-2-2.1
								c-0.6-0.3-1.2-0.5-2.5-2.1c-0.1-0.5-0.1-1-0.1-1.5c-0.4-0.4-0.9-0.8-1.2-1.1c-0.8-0.6-1.5-1.1-2.3-1.6
								c-0.8-0.5-1.6-1-2.3-1.5c-4-2.3-7.3-4.7-11.3-5.8c-0.9,0.3-2.8-1.1-4.5-0.5c0-1.2-2.4-1.4-6.1-2.7c-2-0.6-4-1-6.1-1.4
								c-1.4-0.1-1.6,0.4-2.1,0.8c-0.5,0.4-1.2,0.6-3.6,0.3c-0.9-0.1-1.8-0.1-2.8-0.2c-2,0.1-4,0.3-6,0.6c0.3-0.3,0.6-0.6,0.9-0.9
								c1.3-0.3,2.1-0.4,2.8-0.5c0.7,0.2,1.6,0.4,2.3,0.7c0.8-0.6,1.5-1.2,2.3-1.7c0.7,0.2,1.4,0.4,2.3,0.7c1.3-0.1,2.6,0,3.9,0
								c1.7-0.5,3.6-0.7,7,0.3c0,0.3,0.2,0.7,0.3,1.1c0.5,0.5,1.8,0.6,3.6,0.1c0.9,0.2,1.6,0.5,2.4,0.7c0.7,0.2,1.4,0.4,2,0.7
								c0.1-0.2,0.2-0.5,1.1-0.9c2,0.9,1.2,1.6,3.2,2.4c0.9-0.2,2.6,1.4,2.9,0.6c1,0.5,1.9,1,2.8,1.6c0.9,0.5,1.8,1.1,2.7,1.7
								c0.4,0,0.8,0.1,1.3,0.3c0.4,0.5,0.7,0.9,1,1.4c0.8,0.9,1.6,1.6,2.4,2.5c0.6-0.1,1.2-0.2,2-0.2c0.3,0.3,0.5,0.5,0.8,0.7
								c-2,0.5,2.3,3,2.6,4.6c-0.5,0.1,0,0.9,0.7,1.6c0.6,0.8,1.4,1.6,1.7,1.7c2.1,1.5,3.8,4.8,5.9,6.9c0.2,1,0.4,2,0.5,3
								c0.8,1.1,1.5,2.1,2.3,3.3c0.1,0.8,0.2,1.8,0.2,2.6c0.6,1.4,1.1,2.9,1.6,4.6c0,0.4,0,0.9-0.1,1.3c0.3,1.2,0.5,2.4,0.7,3.6
								l0,0.6c0,2.2-0.3,4.4-0.7,6.5c-1.2,1.2-0.5,2.8-1.4,4.5c-0.6,0.9-1.1,1.8-1.7,2.6c-0.1,1.8-1.7,3.9-2,5.5
								c-0.6,0.7-1.3,1.4-1.9,2L212.5,131z"/>
						</g>
						<g id="XMLID_342_">
							<path id="XMLID_343_" class="st10" d="M212.4,113.6l0.1-1.6l0-1.2c0.6,0,1.2,0.1,1.8,0.1c0,0.3,0,0.4,0,0.6
								c0,0.2,0,0.3-0.1,0.5c-0.1,0.6-0.2,1.3-0.3,1.8C213.2,113.7,212.8,113.7,212.4,113.6z"/>
						</g>
						<g id="XMLID_340_">
							<path id="XMLID_341_" class="st10" d="M213.2,107.3c0.4-1.6,0.3-2.7,0.9-2.4c0.2,1.2,0.4,2.3,0.2,3.6
								C214,108.1,213.6,107.8,213.2,107.3z"/>
						</g>
						<g id="XMLID_338_">
							<path id="XMLID_339_" class="st10" d="M203.5,86.7c-1.1-0.1-1.6-1.3-2.5-2c-0.4-0.5-1-1-1.4-1.4c0.1-0.4,0.4-0.8,0.5-1.2
								c1,0.7,1.9,1.7,2.8,2.5C203.5,85.2,203.5,85.9,203.5,86.7z"/>
						</g>
						<g id="XMLID_336_">
							<path id="XMLID_337_" class="st10" d="M199.4,81.4c-0.6-0.4-1.2-0.8-1.8-1.2c-0.6-0.4-1.2-0.8-1.8-1.1
								c-1-1.2-0.7-1.5-0.4-1.9c1.6,1.3,3.2,2.3,4.7,3.5C199.8,81,199.6,81.2,199.4,81.4z"/>
						</g>
						<g id="XMLID_334_">
							<path id="XMLID_335_" class="st10" d="M162.3,71.4c-0.5-0.5-1.1-1.1-1.7-1.6c1.2-0.1,2.5-0.3,3.7-0.3
								C165.8,70.2,163.8,71.3,162.3,71.4z"/>
						</g>
						<g id="XMLID_332_">
							<path id="XMLID_333_" class="st10" d="M156.6,71.3c-0.9,0.1-1.7,0.2-2.6,0.3c-0.2-0.6,0.2-1.1,0.9-1.3
								c0.7-0.2,1.5-0.2,2.2,0.4C156.9,70.9,156.7,71.1,156.6,71.3z"/>
						</g>
						<g id="XMLID_330_">
							<path id="XMLID_331_" class="st10" d="M144.1,76c-0.8,0.5-0.5-0.4-0.9-0.7c1-1.2,3.2-1.6,4-1.4
								C148.6,75.1,145.2,75.1,144.1,76z"/>
						</g>
						<g id="XMLID_328_">
							<path id="XMLID_329_" class="st10" d="M128.3,96.9c0.4,0.9-0.5,1.7-0.4,2.4c-0.9,1.2-1.8,1.9-2.4,1c0.2-0.8,0.3-1.6,0.6-2.3
								C126.8,97.7,127.6,97.3,128.3,96.9z"/>
						</g>
						<g id="XMLID_326_">
							<path id="XMLID_327_" class="st12" d="M177,174.1c0.8-0.7,0.6-2.1,2.6-1.4C178.7,173.2,177.8,173.7,177,174.1z"/>
						</g>
						<g id="XMLID_324_">
							<path id="XMLID_325_" class="st9" d="M191.2,162.4l1.7-1.5c1.3-1.6,1.6-2.4,1.8-3c1-1,2.1-2.1,3.1-3.1c1-1.1,2.1-2.2,3.1-3.3
								c0.3,0.3,0.5,0.6,0.9,0.9c0.2-0.2,0.4-0.4,0.7-0.7c0.2,0.2,0.4,0.5,0.7,0.7c-1.3,2.4-2.2,3.6-3,3.9l-4.2,4.2
								c-1.4,1.4-2.8,2.6-4.3,3.9c-0.8,1.1-1.2,0.4-2,0.4C190.1,163.9,190.6,163.1,191.2,162.4z"/>
						</g>
						<g id="XMLID_322_">
							<path id="XMLID_323_" class="st12" d="M190.5,161.5l1.7-1.5c0.1-0.2,0.2-0.4,0.2-0.5c0.7-0.6,1.4-1.1,2.2-1.7
								c-0.2,0.6-0.5,1.4-1.8,3l-1.7,1.5C190.9,162.1,190.7,161.8,190.5,161.5z"/>
						</g>
						<g id="XMLID_320_">
							<path id="XMLID_321_" class="st12" d="M202.4,151.6c0.5-0.7,1-1.3,1.5-1.9c0.9-0.2,1.5-1.1,2.3-2c0.6-0.3,1.2-0.6,1.8-1
								c-0.5,1.1-1.1,2.3-1.6,3.4c-1.1,0.9-2.2,1.4-3.3,2.2C202.8,152.1,202.6,151.8,202.4,151.6z"/>
						</g>
						<g id="XMLID_318_">
							<path id="XMLID_319_" class="st12" d="M213.3,138.7c0.8-1.6,0.3-3.2,1.3-4.9c0.6-0.5,1.2-1,1.7-1.5c-0.1,1.1-0.2,2.1-0.3,3.2
								C215.1,136.5,214.3,137.6,213.3,138.7z"/>
						</g>
						<g id="XMLID_316_">
							<path id="XMLID_317_" class="st12" d="M219.1,97.7c-1.3-1.5-2.1-3.3-2.9-5.1c-0.3-1.3-0.5-2.4-0.9-3.7
								c-0.9-0.9-1.9-1.8-2.9-2.7c-1.1-0.8-2.1-2.1-4.4-5.7c0.6,0.3,1.1,0.6,1.7,0.9c0.8,1,1.5,1.9,2.3,2.9c0.7,0,1.3,0.1,2,0.3
								c0.3,0.3,0.6,0.6,0.9,0.9c0.6,1.2,1.1,2.2,1.8,3.4c0.4,0.7,0.8,1.5,1.2,2.2C218.5,93.3,218.9,95.5,219.1,97.7z"/>
						</g>
						<g id="XMLID_314_">
							<path id="XMLID_315_" class="st12" d="M197.3,71.2c-2.1-2-3.4-2.7-3.6-2.2C193.8,68.5,195.2,69.3,197.3,71.2z"/>
						</g>
						<g id="XMLID_312_">
							<path id="XMLID_313_" class="st12" d="M171.2,62.2c0.7-0.3,1.6-0.2,2.5-0.2c0.9,0,1.8,0.1,2.5,0.1c0.5,0.5,1.1,1,1.6,1.6
								c-0.5-0.5-1-1-1.6-1.6c-0.8,0.1-1.7,0-2.5-0.1C172.8,62,171.9,61.9,171.2,62.2z"/>
						</g>
						<g id="XMLID_310_">
							<path id="XMLID_311_" class="st12" d="M151.6,65.1c-0.3,0.6-1,1.5-4.4,1.7C148.7,66.2,150.1,65.6,151.6,65.1z"/>
						</g>
						<g id="XMLID_308_">
							<path id="XMLID_309_" class="st9" d="M138.1,72c-0.6,0.1-1.2,0.3-1.8,0.5c-1,1-1.9,2.1-2.8,3.2c-0.7,0.5-1.4,0.8-2.1,1.3
								c0,0.2-0.2,0.4-0.2,0.5c-0.4,0.3-0.6,0.6-0.9,0.8c-1.2,0.4-2.3,0.8-3.5,1.2c-0.3,0.3-0.5,0.5-0.8,0.8
								c-0.9,1.2-1.6,2.3-2.4,3.4c-0.3,0.1-0.4,0-0.7,0.1c-0.9,0.6-1.9,1.3-2.8,2c-0.3-1.5,1.4-3,2-4.5c1.1-1.3,2.3-2.8,3.5-4.1
								c0.4-0.4,0.9-0.9,1.3-1.2c0.3,0,0.7,0.1,0.9,0.2c0.7-0.4,1.5-0.8,2.1-1.2c0.2-0.7,0.3-1.2,0.3-1.9c0.6-0.5,1.3-1.2,1.9-1.7
								c0.4-0.1,0.8-0.2,1.3-0.3c0.3,0.5,0.5,0.9,0.7,1.3c0.6-0.3,1-0.5,1.6-0.8c1.9-0.7,0.4-1.4,2.3-2c1.1-0.3,0.6,0.6,0.3,2.2
								C138.4,71.8,138.2,72,138.1,72z"/>
						</g>
						<g id="XMLID_306_">
							<path id="XMLID_307_" class="st12" d="M130,75c-0.7,0.4-1.5,0.8-2.1,1.2c-0.3-0.1-0.6-0.2-0.9-0.2c1.1-0.9,2.3-2,3.4-2.9
								C130.2,73.7,130.1,74.3,130,75z"/>
						</g>
						<g id="XMLID_304_">
							<path id="XMLID_305_" class="st12" d="M130.2,78.4c-0.6,1.5-2.3,2.7-3.7,4.4c-0.2,0.7-0.5,1.6-0.8,2.3
								c-0.8,0.8-1.5,1.5-2.2,2.3c-1.3,1.5-2.4,3-3.5,4.5c-0.6-0.9-1.2-1.7-1.7-2.7c0.6-1.1,1.2-2.2,1.8-3.4c1-0.7,1.9-1.4,2.8-2
								c0.3,0,0.5,0,0.7-0.1c0.7-1.1,1.5-2.2,2.4-3.4c0.3-0.3,0.5-0.5,0.8-0.8C127.9,79.1,129,78.8,130.2,78.4z"/>
						</g>
						<g id="XMLID_302_">
							<path id="XMLID_303_" class="st9" d="M118.2,89.2c0.5,1,1.1,1.9,1.7,2.7c-1,1.7-1.8,3.2-2.7,4.8c-0.4,1.1-0.8,2.1-1.2,3.2
								c-0.5,0.5-1,0.8-1.5,1.2c-0.6,0.7-1.3-0.3-1.9-0.6c-0.2-0.8,0.2-1.4,0.5-2c1.1-0.6,2.2-1.2,3.4-1.9c-0.4-0.8-0.8-1.6-1.1-2.5
								C116.2,92.5,117.2,90.8,118.2,89.2z"/>
						</g>
						<g id="XMLID_300_">
							<path id="XMLID_301_" class="st12" d="M116.5,96.7c-1.2,0.7-2.3,1.3-3.4,1.9c0.7-1.4,1.4-2.9,2.3-4.4
								C115.7,95,116,95.9,116.5,96.7z"/>
						</g>
						<g id="XMLID_298_">
							<path id="XMLID_299_" class="st12" d="M116.1,100.4c-0.4,1-0.8,2.1-1.1,3.2c-0.9,1-1.7,1.9-2.5,3c-0.5-1-0.9-2-1.3-3
								c0.5-1,1.1-2.1,1.6-3.1c0.6,0.3,1.3,1.2,1.9,0.6c0.5-0.4,1-0.8,1.5-1.2C116.1,100.1,116.1,100.3,116.1,100.4z"/>
						</g>
						<g id="XMLID_296_">
							<path id="XMLID_297_" class="st12" d="M114.7,116c-0.2,0.6-0.4,1.3-0.6,1.9c-0.5-0.2-1-0.3-1.4-0.5c-0.1-0.6-0.2-1.1-0.3-1.7
								c0.4-0.6,0.8-1.2,1.1-1.7C113.9,114.6,114.3,115.3,114.7,116z"/>
						</g>
						<g id="XMLID_294_">
							<path id="XMLID_295_" class="st9" d="M112.4,106.6c0.2,0.7-0.1,1.3-0.2,2.2c0,0.2,0,0.5,0,0.6c-0.2,1.5-0.5,3.2-0.7,4.8
								c-0.1,0.4-0.2,0.7-0.3,1c0.4,0.2,0.8,0.3,1.2,0.5c0.1,0.6,0.2,1.1,0.3,1.7l-1.6,1.2c-0.2-0.3-0.4-0.6-0.6-0.8
								c-0.5,0.8-1,1.6-1.6,2.4c0,0.7-0.1,1.6-0.2,2.3c-0.1,1-0.1,2-0.1,3c-0.1,0.6-0.1,1.2-0.1,1.7c-1.3,2.2-2,1.4-2.6,1.6
								c-0.3-0.8-0.2-2-0.1-3.1c0.1-1.1,0.1-2-0.5-2.2c0.3-1.9,0.7-4.1,1.1-6c0.4-1.4,0.8-2.9,1.3-4.4c0.2-2.2,0.5-2.9,0.9-3.9
								c0.8-2,1.6-3.9,2.5-5.7C111.5,104.6,111.9,105.7,112.4,106.6z"/>
						</g>
						<g id="XMLID_292_">
							<path id="XMLID_293_" class="st12" d="M111,118.6c-0.2,1-0.5,2.1-0.7,3.1c-0.6,0.3-1.1,0.6-1.7,0.8c0.1-0.7,0.1-1.6,0.2-2.3
								c0.6-0.8,1.1-1.6,1.6-2.4C110.7,118,110.9,118.3,111,118.6z"/>
						</g>
						<g id="XMLID_290_">
							<path id="XMLID_291_" class="st9" d="M154.8,62c0.6,1.1-0.2,1.6-1.2,2c-1,0.4-2.1,0.6-1.9,1.1c-1.5,0.5-2.9,1.1-4.4,1.7
								c-0.9,0.3-1.9,0.6-2.8,0.8c-0.1-0.3-0.2-0.6-0.3-0.9c-1.6,0.2-3.3,0.4-4.9,0.7c0.1-0.2,0.2-0.5,0.3-0.7
								c1.1-0.6,2.3-1.1,3.4-1.6c0.7,0,1.4,0.1,2.1,0.2c0.7-0.3,1.4-0.6,2.3-0.9c0.9-0.6,1.8-1.3,2.7-1.9
								C151.6,62.3,153.1,62.1,154.8,62z"/>
						</g>
						<g id="XMLID_288_">
							<path id="XMLID_289_" class="st8" d="M151.4,190.4c0.2-1.8,2.7-3.5,4.1-5.3c1-0.5,2.1-1.1,3.2-1.6c0.5-0.9,1.3-1.8,2.1-2.6
								c0.9-0.8,1.7-1.6,2.1-2.4c2,0.1,4.2-3.1,6.7-4.6c0.4-1.7,2.5-1.4,3.7-2.5c1.3-1,2.7-2,4.1-3.1c1.4-1.1,2.6-2.1,3.5-3.2
								c0.6-0.4,1.2-0.8,1.8-1.2c-1.1,1.3,0.3,1.4,0.6,2.4l-0.6,0.5c-0.9,0.8-1.8,1.5-2.8,2.2c-0.1,0.1-0.2,0.2-0.4,0.3
								c-2.7,2.3-6.7,3.7-8.3,5.8l-2,2.1c-1,0.8-2,1.5-3,2.3c-0.7,0.6-1.4,1.1-2.2,1.7c-0.7,0.5-1.6,1.1-2.4,1.5
								c-0.6,0.4-1.1,0.7-1.6,1.1c-0.5,0-0.9,0.1-1.4,0.1c-0.3,0.5-0.6,0.9-0.9,1.4c-0.8,0.5-1.6,1-2.3,1.6
								c-0.6,0.6-1.7,1.2-1.6,2.4c-0.7,0.5-1.5,0.9-2.2,1.4C151.7,190.4,151.5,190.4,151.4,190.4z"/>
						</g>
						<g id="XMLID_286_">
							<path id="XMLID_287_" class="st11" d="M155,189.4c-0.2-0.1-0.5-0.2-0.8-0.3C154.5,189.2,154.8,189.3,155,189.4z"/>
						</g>
						<g id="XMLID_284_">
							<path id="XMLID_285_" class="st10" d="M192.5,159.6c0,0.1-0.1,0.3-0.2,0.5C192.4,159.9,192.4,159.7,192.5,159.6z"/>
						</g>
						<g id="XMLID_282_">
							<path id="XMLID_283_" class="st10" d="M115.8,104.1c0.3,0,0.6-0.1,0.9-0.1C116.4,104,116.1,104.1,115.8,104.1z"/>
						</g>
						<g id="XMLID_280_">
							<path id="XMLID_281_" class="st12" d="M216.4,132.2c0.6-2.7,1.5-4.8,2.3-6.9c0.8-2.1,1.5-4.2,1.6-6.6
								c0.3-0.8,0.6-1.8,0.9-2.7c0.2-1.2,0.4-2.4,0.5-3.6c0.6,0.6,1.3,1.1,1.9,1.9c0,0.2,0,0.5-0.1,0.6c-0.5,2.4-1.3,4.4-2.1,6.4
								c-0.3,1.3-0.7,2.6-1.1,3.8c-0.8,1.6-0.5,2.6-1,3.9C218.4,130.1,217.3,131.2,216.4,132.2z"/>
						</g>
						<g id="XMLID_278_">
							<path id="XMLID_279_" class="st12" d="M208.1,80.6c-0.6-0.7-0.8-0.7-1.3-0.9c-0.4-0.1-1.1-0.4-2.4-1.6
								c-0.3-0.2-0.5-0.5-0.8-0.7c-0.5-0.7-0.9-1.3-1.5-1.9c0.2-0.2,0.5-0.5,0.7-0.7c0.8,0.5,1.4,0.9,2.1,1.5
								C205.4,77.1,206.1,77.7,208.1,80.6z"/>
						</g>
						<g id="XMLID_276_">
							<path id="XMLID_277_" class="st12" d="M170.6,62.1c-1.9,0.9-2.5,0.9-4.9,0.6c-1.3,0.5-2.5,0.9-3.6,1.4
								c-1.3-0.1-2.8-0.2-4.1-0.3c-1,0.4-1.9,0.7-2.8,1.1c-1-0.5-2-0.9-3.6,0.1c-0.2-0.5,1-0.7,1.9-1.1c1-0.3,1.9-0.9,1.2-2
								c0.7-0.2,1.6-0.3,2.4-0.5c0.7,0.3,1.3,0.5,1.9,0.7c1.6-0.1,3.1-0.2,4.8-0.2c0.4,0,0.8,0,1.3-0.1
								C166.9,62,168.8,62,170.6,62.1z"/>
						</g>
						<g id="XMLID_274_">
							<path id="XMLID_275_" class="st12" d="M171.2,62.2c-0.3,0-0.5,0-0.6,0C170.7,62.1,171,62.1,171.2,62.2z"/>
						</g>
						<g id="XMLID_272_">
							<path id="XMLID_273_" class="st12" d="M138.1,72c-0.7,1-1.2,1.9-1.7,2.8c-1,0.3-1.9,0.6-2.9,0.8c0.9-1.1,1.8-2.2,2.8-3.2
								C136.9,72.3,137.5,72.2,138.1,72z"/>
						</g>
						<g id="XMLID_270_">
							<path id="XMLID_271_" class="st12" d="M138.5,71.8c-0.1,0.1-0.3,0.2-0.4,0.2C138.2,72,138.4,71.8,138.5,71.8z"/>
						</g>
						<g id="XMLID_268_">
							<path id="XMLID_269_" class="st9" d="M116.1,99.9c0,0.2-0.1,0.4,0,0.6C116.1,100.3,116.1,100.1,116.1,99.9z"/>
						</g>
					</g>
				</g>
			</g>
		</g>
	</g>
	<g id="XMLID_44_">
		<g id="XMLID_462_">
			<g id="XMLID_466_">
				<g id="XMLID_467_" class="st4">
					<g id="XMLID_468_" class="st4">
						<g id="XMLID_659_">
							<path id="XMLID_660_" class="st5" d="M129.8,216.4c-0.2-0.1-0.3-0.3-0.5-0.3c-0.1-0.7-0.1-1.4-0.2-2.1
								c-0.7-0.4-1.5-0.8-2.2-1.1c-0.3-0.5-0.6-1.1-1-1.5c-0.5-0.5-0.5-1.6-0.8-2.8c-1-1.7-1.6-2.8-2.5-3.6c-1.6,1-1.7-3.3-3-5.3
								c-0.6,0.2-1.3,0.5-1.8,0.7c-0.2-1.2-1.2-1.4-1.7-3c-2.2-0.5-3-1.6-3.9-3c-0.3-0.2-0.6-0.3-0.8-0.4c-0.2-0.6-0.4-1.2-0.6-1.8
								c-1.2-0.8-1.7,0.5-2.5,0.7c-0.4-1-0.8-1.9-1.3-3c0.1-0.3,0.1-0.6,0.2-1c0.5-0.3,1.1-0.5,1.6-0.8c0.6,0,1.2,0.1,1.7,0.2
								c1.1,1.2,1.6,1.4,1.7,1.1c1.7-0.2-0.5-2.1-1.1-3.1c0.2-0.2,0.3-0.5,0.4-0.7c0.8,0.3,1.5,0.6,2.3,0.9c0.9,0.8,1.5,0.9,2,1.1
								c0.5,0.2,1,0.4,1.5,1.7c0.3-0.1,0.7-0.1,1-0.2c0.5,0.4,0.9,0.8,1.4,1.3c0,0.3,0.1,0.6,0.2,0.8c-0.4,0.1-0.9,0.2-1.3,0.2
								c-0.3-0.1-1-0.3-1.5-1.5c-1.1,1.3-2.9,1.4-4.1,1.1c-0.2,0.9,1,1,1.3,2c0.5,0.6,1,1.2,1.4,1.9c0.9-0.4,1.1-0.6,1.3-0.7
								c0.3,0.7,0.7,1.4,0.8,2.1c0.9,0.9,1.3,1.6,1.9,2.2c1.2-0.3,1.3,0.8,1.6,1.1c2.4,1.1,3.9,3.4,4.8,6.4
								c-0.3,0.3-0.2,1.6-0.2,2.5c1.1,1,1.7,1.9,2.6,1.4c0-0.4,0-0.6,0-0.9c-0.2-1.4-0.4-2.9-0.8-4.3c-0.2-0.5-0.5-1.1-0.7-1.6
								c-0.5-0.3-1.1-0.6-1.6-0.9c0.4-1.2-0.5-3.4-0.8-5.1c0.1-0.6,0.1-1.3,0.2-1.9c1.1,0.8,1.6,2.6,2.3,4.3
								c0.5,1.8,0.9,3.5,1.2,5.2c0.5,1.2,1,2.5,1.4,3.7c0.7,2.6,2.1,4.5,1.3,6.1c-0.1,0.8-0.2,1.5-0.3,2.2L129.8,216.4z"/>
						</g>
						<g id="XMLID_657_">
							<path id="XMLID_658_" class="st6" d="M125.8,208.3c0-1-0.2-2.2,0.2-2.5c-0.9-3-2.3-5.3-4.8-6.4c-0.3-0.3-0.4-1.4-1.6-1.1
								c-0.7-0.6-1-1.3-1.9-2.2c-0.1-0.8-0.5-1.5-0.8-2.1c-0.2,0.1-0.5,0.2-1.3,0.7c-0.5-0.7-0.9-1.3-1.4-1.9c-0.3-0.9-1.4-1-1.3-2
								c1.2,0.3,2.9,0.3,4.1-1.1c0.5,1.2,1.3,1.5,1.5,1.5c0.5,0,0.9-0.1,1.3-0.2c0.5,0.8,0.8,1.5,1.2,2.2c0.4,0.8,0.8,1.5,1.1,2.3
								c0.9-0.4,1.4,2.9,2.3,1.4c0.4,1.7,1.2,3.9,0.8,5.1c0.5,0.3,1.1,0.6,1.6,0.9c0.3,0.5,0.5,1.1,0.7,1.6c0.3,1.4,0.6,2.8,0.8,4.3
								c0,0.3,0,0.6,0,0.9C127.5,210.2,126.9,209.3,125.8,208.3z"/>
						</g>
						<g id="XMLID_655_">
							<path id="XMLID_656_" class="st7" d="M124.5,196.9c-0.9,1.5-1.4-1.8-2.3-1.4c-0.4-0.8-0.7-1.5-1.1-2.3
								c-0.4-0.8-0.8-1.5-1.2-2.2c-0.1-0.3-0.1-0.5-0.2-0.8c-0.5-0.4-0.9-0.8-1.4-1.3c-0.3,0.1-0.7,0.1-1,0.2
								c-0.5-1.2-1-1.5-1.5-1.7c-0.5-0.2-1.1-0.3-2-1.1c-0.8-0.3-1.5-0.6-2.3-0.9c-0.2,0.2-0.3,0.5-0.4,0.7c0.7,1,2.8,2.9,1.1,3.1
								c-0.1,0.3-0.7,0-1.7-1.1c-0.6-0.1-1.2-0.1-1.7-0.2c-0.5,0.3-1.1,0.5-1.6,0.8c-0.9-0.7-1.8-1.4-2.7-2l-0.5-0.5
								c-0.5-0.2-0.9-0.5-1.4-0.7c0.1-0.6,0.2-1.2,0.3-1.8c-0.6-1.3-1.2,0.3-2.2-0.4c-0.7-1-1.3-2.1-2-3.1c-3-1.9-1.6-4.7-5-6
								c-0.7-0.8-1.4-1.7-2.2-2.5c-1.4-0.6-2.8-1.2-4.1-1.8l-2.4-1.8c0.3-0.1,0.1-0.4,0-0.6c-1.2-0.9-2.3,0.5-4.2-1.6
								c-0.5-0.4-0.9-0.9-1.3-1.3c-1-0.7-2.1-1.3-3-2c-1.1-0.8-2.1-1.6-3.1-2.5c-0.2-0.1-0.4-0.3-0.6-0.5c-1.2-1.3,0.5-1.3,0-2.2
								c-0.8-0.9-2.7-1.7-2.2-2.9c-0.7-0.7-1.5-1.5-2.2-2.3c-1.3-0.8-2.1-0.5-2.9-1.6c-0.5-0.5-1-1-1.5-1.5
								c-0.2-0.2-0.3-0.3-0.5-0.5c-0.9,0.4-1.5-0.6-1.8-1.2c-0.6-0.5-1.3-1.1-1.9-1.7c0.6-0.8-1.3-1.6-1.1-2.7
								c-0.7-1.3-1.4-2.5-2-3.7c-1.5-1-4.3-1.1-2.8-2.2c-0.2-0.6-0.7-1.1-1.2-1.7c-0.5-0.6-0.9-1.2-1.1-2.1
								c-0.3-0.6-0.5-1.3-0.7-1.9c-0.2-0.6-0.4-1.3-0.5-1.9c-0.5-0.5-1-1-1.4-1.6c-0.2-0.6-0.4-1.2-0.6-1.8
								c-0.3-0.6-0.5-1.3-0.7-1.8c-0.8-0.9-1.7-2.4-0.5-2.5c0-0.2,0-0.4-0.1-0.6c-0.6-0.1-0.7-0.4-0.8-0.8c-0.1-0.3-0.1-0.7-0.4-0.8
								c-0.4-0.2-0.4-1.5,0.2-1.9c0-0.2,0-0.4,0-0.7c0-0.7,0-1.5,0-2.2c-0.9-0.6-0.4-1.5-0.1-2c0.1-1.1,0.4-2.1,0.7-3.2
								c0.3-0.9,0.6-1.9,1-2.8c-1-0.7,0.6-2.5,2.4-2.7c0.2-0.3,0.5-0.7,0.8-1c-0.1-0.5-0.1-1,0-1.4c0.7-0.7,1.7-1.8,2.4-1.6
								c0.3-0.2,0.7-0.5,1-0.7c0.5-1.2,1-0.6,1.6-1c0.1,0,0.2-0.1,0.3-0.2l-0.8-1.5c0.1-0.8,0.6-1,1.1-0.9c0.5,0.1,1.1,0.3,1.5,0.2
								c0.4,0,0.4-0.3,0.6-0.5c-0.3-0.9,0.4-0.9,1.1-0.9c0.8,0,1.7,0.2,2-0.8c1-0.2,0.8,1.4,2.5,0.6c0.2-0.9,1.2-1.2,2.4-1.2
								c1.2,0.1,2.5,0.4,3.5,0.6c0.5-0.5,1.1-1,1.6-1.3c1.9,1,3.5,0.8,5.2,0.6c1.7-0.2,3.8-0.4,5.9,1c1,1.4,3.2,1,4.1,2.6
								c1.2-1.2,2.8,0,4.3,1.2c1.5,1.2,2.8,2.4,4,1.3c1.6,1.2,2.9,3.3,4.5,3.8c-0.2,1.5-0.2,1.7,0.1,1.9c0.8,0.3,1-0.4,1.4-0.7
								c0.5,0.6,0.9,1.3,1.3,1.9c-1.2,0.1-0.1,1.4-0.3,2.1c2.6,0.3,1.4,3.8,2.9,5.7c1.4,1.3,3.2-1.1,3.8,2c1.8,0.5,2,0.9,2.6,2.8
								c-0.5,1.3,0.3,2.7,0.5,4.4c-0.3,0.3-0.6,0.6-0.9,0.9c0,0.4,0,0.9-0.1,1.3c-0.9,1.4-1.7,2.2-1.6,3.7c-0.4,0.1-0.8,0.2-1.3,0.3
								c-1-1.3-1.7-1.3-2-1.9c0.3-0.7,0.6-1.4,0.8-2.1c-0.7-0.6-1.5-1.2-2.2-1.7l-1.3-2.1c-0.6-0.1-1.3-0.1-1.9-0.2
								c-0.2-0.1-0.4-0.3-0.6-0.4c-0.3-1.1-0.6-2.1-0.9-3.2c0-0.7,0.1-1.3,0.1-2.1c0.3-0.2,0.6-0.4,1-0.7c-0.6-1.1-1.3-2.2-2.1-3.2
								c-0.6-0.9-1.2-1.8-1.8-2.7c0.1-0.4,0.1-0.9,0.1-1.4c-0.5-0.1-1-0.1-1.4-0.1c-0.8-0.5-0.5-1.5-1.5-1.6c-0.4,1.3-1.2-0.3-3-1.5
								c-0.3-0.5-0.5-0.8-0.8-1.3c-1.3-0.4-1.5,0.2-2,0.2c-0.5-0.3-1.1-0.5-1.6-0.7c-0.2,1-1.2,0.2-1.8,0.2c-1-1.4-2.2-0.2-3.3-1.5
								c-0.7-0.1-0.6,1.1-1.1,0.8c-0.2-0.1-0.4-0.2-0.6-0.3c0-0.4,0.1-0.9,0-1.4c-0.2-0.1-0.5-0.3-1.9-0.1c0.1-0.5,0.2-1,0.3-1.5
								c-0.6-0.3-1.1-0.6-1.7-0.9c-0.2,0.1-0.5,0.2-0.8,0.2c-1.2-0.3-2.4-0.6-3.6-0.7c0.3-0.9-0.3-0.9-1-0.8c-0.6,0-1.2,0.1-1-1
								l-0.6-0.1c-0.2,1.4,0.3,1.7-0.1,2.8c-0.5-0.2-1.1-0.3-1.7-0.4c0-0.5,0.1-1,0.1-1.5c-1.8-1.2-0.8,1.2-1.9,1.2
								c-0.6-0.2-1.2-0.4-1.9-0.6c-0.2-0.3-0.6-0.2-0.9-0.2c-0.5,0.4-0.1,0.9-0.1,1.3c-0.5,0.1-1,0.2-1.4,0.3
								c-0.9,0.5,0,1.4-0.7,1.7c-1.3-0.9-1.8-1.3-2.9-2.4c-0.2,0.7-0.3,1.4-0.4,2c-0.2,0.6-0.9,0.6-1.4,1c-0.5-0.3-1.2-0.5-1.5-1.4
								c-0.3,0-0.6,0.1-0.9,0.3c0,0.5,0,1.1,0,1.5c-0.4,0.3-0.8,0.6-1.3,0.7c-0.6,0.6-1.1,1.2-1.5,1.9c-0.7,0.5-1.4,1.2-2,1.8
								c-0.2,0.9-0.3,1.7-0.4,2.6c-0.2,0.8-0.4,1.6-0.5,2.4c-0.7,1.2-1.3,2.4-1.8,3.8c0,0.2-0.1,0.4-0.1,0.6c0.2,0,0.5,0.1,0.7,0.1
								c0.2,0.4,0.4,0.8,0.6,1.2c0.2,0.5,0.3,1,0.5,1.5c0,0.5,0,1.1,0,1.7c0,0.4,0.1,0.7,0.1,1.1c-0.3,0.7-0.3,1.1-0.3,1.4
								c0,0.3,0.1,0.4,0.1,0.7c0.4,0.7,1,0.3,1.4,0.7c0.1,0.4,0.2,0.8,0.3,1.1c-0.3,1.1-0.2,1.8,0,2.4c0.2,0.6,0.5,1.1,0.7,1.8
								c0.3,0.6,0.5,1.2,0.8,1.7c0.5,0.1,1,0.2,1.5,0.3l1.8,0.8c0.4,0.5,0.9,1,1.4,1.4c0,0.6,0.1,1.1,0.2,1.7
								c0.3,0.8,0.7,1.6,1.1,2.4c0,0.3,0,0.6,0,0.8c0.5,0.1,1.1,0.3,1.6,0.5c0.7,0.4,1.4,0.9,2.1,1.3c0,0,0.1,0.2,0.2,0.3
								c-0.2,0.5-0.4,1.1-0.5,1.7c0.1,0.2,0.3,0.3,0.5,0.5c1.1-0.2,0.8-0.8,1.2-1l0.8,0.2c1.5,1.6-0.6,2.2,1.4,3.3
								c0.4-0.2,0.8-0.4,1.2-0.6c0.4,0.4,0.8,0.8,1.2,1.2c0.5,0.8,1,1.6,1.4,2.4c0.9,1.1,1.8,2.2,2.7,3.2c1.6,0.2-0.2-1.2,0.7-1.8
								c1.5,0,1.4-0.2,1.4-0.4c-0.4-0.8-1.1-0.2-1.6-0.8c0-0.1,0-0.3-0.1-0.4c0.4-0.4,0.8-0.8,1.2-1.3c0.4,0,0.8-0.1,1.2-0.2
								c0.1,0,0.3,0,0.4,0c0.6,0.7,1.1,1.3,1.8,1.9c-0.2,0.1-0.1,0.4-0.1,0.6c0.4,0.8,1.1,0.2,1.6,0.7c0.2,0.7,0.6,1.4,0.9,2.1
								c0.8,1.3,1.9,0.5,2.9,1.4c0.3,0.2,0.5,0.4,0.8,0.6c0.4,0.4,0.8,0.8,1.2,1.3c2.1,0.9,4.5,3.1,6.7,4.7c1.2,0.7,1.4,2.7,3,2.5
								c1.9,1.8,5.4,2.9,5.8,4.9c1.7,0.3,3.8,2.4,5.8,3c0.8,1,1.5,2,2.2,3c2.1,1.3,4.2,3.8,6.1,4.2c0.5,0.9,1.1,1.8,1.5,2.8
								c0.6,0.7,1.2,1.5,1.9,1.8c1.4,2.4,2.9,4.1,1.7,5.3c0.2,0.2,0.4,0.4,0.7,0.6c0.3,0.5,0.6,1,0.9,1.5c0,0.1,0.1,0.2,0.2,0.4
								c0.6,0.5,1.2,1,1.7,1.6c0.2,0.3,0.4,0.7,0.6,1.1c0.3,0.4,0.6,0.7,0.8,1c0.3,0.6,0.7,1,1,1.5
								C124.6,195.6,124.6,196.3,124.5,196.9z"/>
						</g>
						<g id="XMLID_653_">
							<path id="XMLID_654_" class="st5" d="M98.3,183.9c-0.4-0.2-0.9-0.5-1.2-0.7c-0.5-0.5-1-1-1.5-1.6c-0.3-0.2-0.6-0.5-0.8-0.7
								c-0.8-1.2-1.5-2.2-2.3-3.4c-0.1-0.1-0.2-0.1-0.3-0.2c-1.1-0.5-2.2-1.1-3.4-1.6c-0.4-0.3-0.8-0.6-1.2-0.9
								c0.2-0.6,0.4-1.2,0.5-1.8c-1-0.7-2-1.4-2.8-2.4c-0.5,0.2-0.9,0.4-1.3,0.6c-1-0.5-2.1-2.1-3-1.6c-1,0.4,0.1,1.4,0.9,1.9
								c1.3,0.5,0.7,1.2,0.9,1.9c-0.6,0-1.2,0-1.8,0c-1.1-1.3-5.6-2.9-3.4-4.1c-1.2-0.8-2.4-1.7-3.6-3.1c-0.2,0.4-0.4,0.8-0.6,1.1
								c0.3,0.8,2.4,1.8,1,2.3c-1.2-0.9-2.3-1.8-3.5-2.7c-0.4-0.7-0.9-1.4-1.3-2c0.6-0.2,0.1-0.9,0.4-1.6c-1.2-0.6-2.4-1.1-3.5-1.7
								c-1.4-0.1-1.5,0.3-2.8,0.2c-0.7-0.6-1.3-1.2-2-1.7c-1-2.1,1.3-1.5,2-2.6c-0.1-0.3-0.1-0.5-0.2-0.9c-1.7-1.1-3.4-2.2-5-3.5
								c-1.9-0.2-3.3-4.2-5-3.2c-0.9-1-1.9-2.4-3.1-2.9c-3,0.1-0.2,2.3-0.8,3c-1.2,0.1-1.6-1.3-2.5-1.2c-1.3-1.2-2.9-3-4.2-4.7
								c-0.1-0.1-0.1-0.2-0.2-0.4c-0.1-0.2-0.3-0.4-0.5-0.7c-0.9-0.7-1.8-1.6-2.6-2.5c-0.3-0.4-0.6-0.6-0.8-1
								c-0.1-0.8-0.2-1.5-0.3-2.3c-0.8-0.8-1.1-1.8-1.4-2.8c-0.2-1-0.4-2-0.7-3c1.5,0,3.3,2,3.8,4.2c1.3-0.6,1.6,2.6,2.8,3.3
								c1.2-0.3,0.9-1.6,0.9-2.8c-0.1-1.2,0-2.4,1.4-2.6c2.1,0.8,2.9,3.4,4.2,2.1c1.2,1.3,0.2,2.6,1.8,4l1.1-0.7
								c-1.2-1.7-2.1-3.6-2.9-5.4c-0.7-1.8-1.4-3.4-2.3-4.6c-0.7,1.2-1.2,0.5-1.6-0.3c-0.4-0.8-0.8-1.6-1.4-0.2
								c0.2,0.8,0.4,1.7,0.7,2.6c-1.4-0.6-1.6-1.5-1.6-2.3c-0.5-0.3-1.1-0.8-1.7-1.2c-1.1-1.5-1.3-2.6-1.9-4.6
								c-1,0.2-1.2-1.3-1.3-2.6c-0.1-1.3-0.3-2.3-1.7-1.2c-0.8,0.4-0.9-0.1-0.7-0.9c0.1-0.7,0.4-1.7,0.3-2.3c0.9-0.3,0.5-2.6,1-4
								c-0.5-0.6-0.4-2.1-1.4-1.8c-0.3,2.2-1.4,0.1-1.6,2.6c-0.5-0.6-2.5,0.8-1.4-2c-1.5,0.4-1.7-0.9-1.6-2.6
								c0.1-1.7,0.6-3.7,0.2-4.6c-0.5-1.9,1-5.1,2.8-7.7c-0.1-1.8,0.7-4.1,2.3-6.5c1.6-2.4,3.9-4.8,6.2-7l-0.6-1.1
								c0.1-0.1,0.4-0.2,0.5-0.3c1.7-0.6,2.8-1.1,3.7-1.4c0.2-0.9,0.3-1.7,0.5-2.5c0.4-0.8,0.7-1.6,1.2-2.5c0.7-0.3,1.5-0.6,2.2-0.9
								c0.8-0.3,1.5-0.6,2.2-0.8c1.7,0.5,1.1,1.2,0.1,2.1c-1,0.9-2.5,1.9-2.9,2.7c-0.9,0.6-1.8,1.3-2.6,2.1c-0.4,0.7-0.8,1.4-1.1,2
								c-0.3,0.7-1.5,1.3-2.3,2c-0.8,0.7-1.4,1.4-0.6,1.7c-2.5,1.7-2.1,3-2.7,4.3c-0.1,1.3,1.9-0.1,3-0.8c1.5-2.2,3-2.6,4.3-2.9
								c0.6-0.2,1.2-0.3,1.8-0.6c0.6-0.3,1.1-0.9,1.7-1.7c0.7-0.1,1.6-0.4,2.5-0.6c0.9-0.3,1.8-0.5,2.7-0.7c1.8-0.4,3.4-0.6,4.2-0.1
								c1.3,0.5,2.2,0.5,2.6,1.4c1-0.3,2-0.8,3.2-1.3c1.2-0.4,2.5-0.6,3.9,0c0.6,0.2,0.8,0.8,1.2,1.3c0.4,0.5,1.1,0.9,2.6,1
								c0.4-0.4,0.8-0.9,1.2-1.3c1.1,0,2,0.3,2.4,0.8c0.4,0.4,0.3,0.9-0.5,1.1c-0.6-0.1-1.3-0.5-2.3-0.2c0.4,0.4,0.8,0.8,1.1,1.2
								c1.2,0.5,2.6,0.5,4,0.5c1.4,0,2.8,0,4,0.5c-0.3,0.9,0.5,1.8,2.1,2.6c1.3-0.2,3.6,0.7,3.6,2c1.4,0.5,2.7,1,4,1.5
								c0.7,0,0.9-0.6,1.3-0.9c1.9,1.6,4.3,3,6.2,4.7c1.9,1.7,3.4,3.6,3.3,5.6c1.2,1.4,1.3-1.7,2.7,0.5c1.4,2.2-3,1.7,0.2,4.7
								c0.9-0.6,1-0.7,1.2-0.8c0.4,0.6,1.4,1.6,1,2.2c1.8,2.1,2.4-1,3.4,2c0.7,0.1,1.3,0.1,2.1,0.5c0.7,0.8,1.3,1.7,1.9,2.5
								c-0.5,0.2-1,0.3-1.5,0.5c-0.1,0.6-0.2,1.3-0.3,1.9c0.4,1,1.9,2.4,1.3,3.2c-0.6,0.8-1.2,1.5-1.8,2.2c0,0.8-0.1,1.5-0.2,2.2
								l-0.5,1.6c0.2,0.4,0.5,0.9,0.7,1.3c-0.1,0-0.2,0.1-0.2,0.1c-0.4,0.1-0.8,0.2-1.3,0.2c-0.8-0.1-0.2,1.1-0.7,1.2
								c-0.9,0-1.7,0-2.5,0c0.6-1.7,0.8-2.2,1.1-3.4c0.2-0.1,0.3-0.2,0.5-0.2c0-0.5,0.1-0.9,0.1-1.3c0.4-0.3,0.6-0.6,0.9-0.9
								c-0.2-1.7-1-3-0.5-4.4c-0.6-2-0.8-2.3-2.6-2.8c-0.6-3.1-2.4-0.8-3.8-2c-1.5-1.9-0.4-5.4-2.9-5.7c0.1-0.7-1-1.9,0.3-2.1
								c-0.4-0.7-0.8-1.3-1.3-1.9c-0.5,0.3-0.7,1-1.4,0.7c-0.3-0.2-0.2-0.4-0.1-1.9c-1.7-0.5-2.9-2.6-4.5-3.8
								c-1.2,1.1-2.5-0.2-4-1.3c-1.5-1.2-3.1-2.3-4.3-1.2c-0.9-1.5-3-1.1-4.1-2.6c-2.1-1.4-4.1-1.2-5.9-1c-1.8,0.2-3.3,0.4-5.2-0.6
								c-0.5,0.4-1.1,0.9-1.6,1.3c-0.9-0.2-2.3-0.6-3.5-0.6c-1.2,0-2.2,0.2-2.4,1.2c-1.7,0.8-1.5-0.8-2.5-0.6
								c-0.3,0.9-1.2,0.8-2,0.8c-0.8,0-1.5,0-1.1,0.9c-0.2,0.2-0.2,0.5-0.6,0.5c-0.5,0.1-1-0.1-1.5-0.2c-0.5-0.1-1,0.1-1.1,0.9
								l0.8,1.5c-0.1,0.1-0.2,0.1-0.3,0.2c-0.6,0.4-1.2-0.2-1.6,1c-0.3,0.2-0.7,0.5-1,0.7c-0.8-0.3-1.8,0.9-2.4,1.6
								c0,0.5,0,0.9,0,1.4c-0.3,0.3-0.6,0.6-0.8,1c-1.8,0.2-3.4,2-2.4,2.7c-0.4,0.9-0.7,1.8-1,2.8c-0.3,1-0.6,2.1-0.7,3.2
								c-0.3,0.5-0.8,1.4,0.1,2c0,0.7,0,1.5,0,2.2c0,0.3,0,0.5,0,0.7c-0.7,0.4-0.6,1.8-0.2,1.9c0.3,0.1,0.3,0.4,0.4,0.8
								c0.1,0.3,0.2,0.7,0.8,0.8c0,0.2,0,0.4,0.1,0.6c-1.2,0.2-0.4,1.6,0.5,2.5c0.2,0.6,0.4,1.2,0.7,1.8c0.2,0.6,0.4,1.2,0.6,1.8
								c0.5,0.6,0.9,1.1,1.4,1.6c0.2,0.6,0.3,1.3,0.5,1.9c0.2,0.6,0.4,1.3,0.7,1.9c0.1,0.9,0.6,1.5,1.1,2.1c0.5,0.6,0.9,1.1,1.2,1.7
								c-1.5,1.1,1.2,1.2,2.8,2.2c0.6,1.2,1.3,2.4,2,3.7c-0.2,1.1,1.7,1.9,1.1,2.7c0.6,0.6,1.3,1.1,1.9,1.7c0.2,0.6,0.8,1.5,1.8,1.2
								c0.2,0.2,0.4,0.4,0.5,0.5c0.5,0.5,1,1,1.5,1.5c0.7,1.1,1.6,0.9,2.9,1.6c0.7,0.8,1.4,1.6,2.2,2.3c-0.5,1.2,1.4,2,2.2,2.9
								c0.4,0.9-1.2,0.9,0,2.2c0.2,0.2,0.4,0.3,0.6,0.5c1.1,0.9,2.1,1.7,3.1,2.5c1,0.7,2,1.4,3,2c0.4,0.4,0.8,0.9,1.3,1.3
								c2,2.1,3.1,0.8,4.2,1.6c0.1,0.3,0.3,0.5,0,0.6l2.4,1.8c1.4,0.6,2.8,1.2,4.1,1.8c0.8,0.8,1.5,1.7,2.2,2.5c3.5,1.2,2,4.1,5,6
								c0.7,1,1.4,2.1,2,3.1c-0.1,0.1-0.1,0.1-0.2,0.2C99.8,183.7,99,183.8,98.3,183.9z"/>
						</g>
						<g id="XMLID_651_">
							<path id="XMLID_652_" class="st8" d="M74.9,146.5c-0.2,0-0.3,0-0.4,0c-0.4,0.1-0.8,0.2-1.2,0.2c-0.4,0.4-0.8,0.9-1.2,1.3
								c0,0.2,0.1,0.3,0.1,0.4c0.5,0.5,1.2,0,1.6,0.8c0.1,0.3,0.1,0.5-1.4,0.4c-0.8,0.6,0.9,1.9-0.7,1.8c-0.9-1-1.8-2.1-2.7-3.2
								c-0.4-0.8-0.9-1.6-1.4-2.4c-0.4-0.4-0.8-0.8-1.2-1.2c-0.4,0.2-0.8,0.4-1.2,0.6c-2-1.1,0.2-1.7-1.4-3.3l-0.8-0.2
								c-0.4,0.2-0.1,0.8-1.2,1c-0.2-0.2-0.3-0.4-0.5-0.5c0.1-0.6,0.2-1.3,0.3-1.9c-0.7-0.4-1.4-0.9-2.1-1.3
								c-0.5-0.1-1.1-0.3-1.6-0.5c0-0.3,0-0.5,0-0.8c-0.3-0.8-0.7-1.5-1.1-2.4c-0.1-0.6-0.1-1.2-0.2-1.7c-0.5-0.4-0.9-0.9-1.4-1.4
								l-1.8-0.8c-0.5-0.1-1-0.2-1.5-0.3c-0.3-0.6-0.5-1.1-0.8-1.7c-0.2-0.7-0.5-1.2-0.7-1.8c-0.2-0.6-0.3-1.4,0-2.4
								c-0.1-0.4-0.2-0.8-0.3-1.1c-0.4-0.4-1,0-1.4-0.7c0.1-0.3,0-0.4-0.1-0.7c0-0.3,0-0.7,0.3-1.4c0-0.4-0.1-0.8-0.1-1.1
								c0-0.6-0.1-1.2,0-1.7c-0.1-0.5-0.3-1-0.5-1.5c-0.2-0.4-0.4-0.8-0.6-1.2c-0.3,0-0.5-0.1-0.7-0.1c0-0.3,0.1-0.4,0.1-0.6
								c0.4-1.4,1.1-2.7,1.8-3.8c0.1-0.8,0.3-1.6,0.5-2.4c0.1-0.9,0.2-1.7,0.4-2.6c0.6-0.7,1.3-1.3,2-1.8c0.4-0.7,0.9-1.3,1.5-1.9
								c0.5-0.1,0.9-0.4,1.3-0.7c0-0.5,0-1,0-1.5c0.3-0.2,0.6-0.2,0.9-0.3c0.3,0.9,1,1,1.5,1.4c0.5-0.4,1.2-0.4,1.4-1
								c0.1-0.7,0.3-1.4,0.4-2c0.1,0,0.2-0.1,0.3-0.1c0.4,0.5,0.8,1.1,1.2,1.7c0.3,0.1,0.9,0.4,1.5,0.8c0.7-0.3-0.2-1.2,0.7-1.7
								c0.5-0.1,0.9-0.2,1.4-0.3c0-0.4-0.4-0.9,0.1-1.3c0.3,0,0.7-0.1,0.9,0.2c0.7,0.2,1.2,0.4,1.9,0.6c1.1,0,0.1-2.4,1.9-1.2
								c0,0.5-0.1,1-0.1,1.5c0.6,0.1,1.2,0.2,1.7,0.4c0.4-1.1-0.2-1.4,0.1-2.8l0.6,0.1c-0.2,1.1,0.4,1,1,1c0.6-0.1,1.3-0.1,1,0.8
								c1.2,0.1,2.4,0.4,3.6,0.7c0.3-0.1,0.5-0.1,0.8-0.2c0.6,0.3,1.1,0.6,1.7,0.9c0.9,1,1,1.1,1.1,1.4c1.4,0.2,0.2,0.8,0.5,1.7
								c0.2,0.1,0.3,0.2,0.6,0.3c0.6,0.3,0.4-0.9,1.1-0.8c1,1.3,2.2,0.1,3.3,1.5c0.7,0,1.6,0.8,1.8-0.2c0.5,0.2,1.1,0.4,1.6,0.7
								c0.6,0,0.7-0.6,2-0.2c0.3,0.5,0.5,0.9,0.8,1.3c1.8,1.2,2.6,2.8,3,1.5c1,0,0.7,1.1,1.5,1.6c0.4,0,1,0.1,1.4,0.1
								c0,0.5,0,1-0.1,1.4c0.6,0.9,1.2,1.8,1.8,2.7c0.7,1,1.4,2.2,2.1,3.2c-0.5,0.3-0.7,0.5-1,0.7c0,0.8,0,1.4-0.1,2.1
								c-0.4,0.2-1,0.3-1.4,0.6c-0.3-0.4-0.7-0.7-1-1.1c-0.9-0.8-1.9-1.7-2.8-2.5l-0.4,0.3c-0.6-0.8-1.1-1.6-1.7-2.5
								c-0.4,0.2-0.9,0.5-1.3,0.7c-0.3-0.6-0.6-1.2-0.9-1.7c-0.6-0.3-0.8,0.4-1.2,0.6c-0.1-0.1-0.3-0.3-0.4-0.5
								c-0.2-0.2-0.4-0.4-0.6-0.6c0.1-0.1,0.3-0.2,0.4-0.4c0.3-0.3,0.7-0.7,1.1-1c0.4,0.2,0.8,0.4,1.2,0.6l1.1-1.8
								c-2.3-1.2-3.9-2.2-5.1-1.7c-2.1-0.8-4-3.2-5.4-2.5c0.7,0.7,0.9,0.9,1.1,1c-0.3,1.2-1.4,1.2-2.5,0.2c-0.3,1.1-1.2,1.2-1.4,1.8
								c-0.6-1.4-1.5,0-2.5-0.7l-0.5,1.1c-0.2,0.1-0.4,0.1-0.6,0.3c-0.7-0.4-1.4-0.8-2.1-1.1c-1-0.3-1.8-0.5-2.8-0.7
								c-0.7-0.3-1.4-0.5-2.2-0.7c-0.3-0.1-0.7-0.3-1.1-0.5c-0.9-0.4-1.2-0.1-1.3,0.3c-0.1,0.4-0.1,0.8-0.6,0.9
								c-0.8-0.2-1.5-0.3-2.2-0.3c-1.5-0.2-1.9,0.7-2.6-0.3c0,0.6-0.2,0.8-0.4,1c-0.2,0.2-0.4,0.3-0.3,0.6c-0.4,0.5-0.8,0.9-1.3,1.3
								c-0.5,0.4-1,1-1.2,1.7c-0.2,0.5-0.4,1.2-0.5,1.8c-0.1,0.1-0.2,0.3-0.2,0.5c-0.4,0-0.7-0.1-1.1,0c-0.4,0.6-0.2,1,0,1.2
								c0,1.2-0.6,3-0.5,4.5c0.3,0,0.5,0.1,0.7,0.2c-0.1,0.3-0.3,0.6-0.4,1c0,0.4,0.1,0.8,0.1,1.2c0.6,0.4,1.1,0.7,1.7,1l0.4,1
								c-0.3,0.2-0.6,0.3-0.9,0.5c1,0.7,1,1.5,1,2.3c0,0.4,0,0.9,0.2,1.3c0.1,0.4,0.4,0.8,0.9,1.2c-1,0.1-0.4,1.3,0.2,1.4
								c0.1,0.3,0.1,0.5,0.2,0.8c-0.5,0.5-1,1-1.5,1.5c0.4,1,0.9,2,1.4,3c0.5,0.6,1,1.1,1.4,1.7c1.1,0.1,2.2,0.2,3.3,0.2
								c0.1-0.5,0.2-0.9,0.2-1.4c1.2,0.3,1.6,0.9,2.1,1.4c0.1,0.3,0.2,0.5,0.4,0.8c0.5,0.2,1.1,0.4,1.6,0.7c0.1,0.4,0.2,0.7,0.2,1
								c1.1,0.8,2.3,1.7,3.4,2.5c0.2,0.8,0.4,1.7,0.6,2.6C73.4,145.2,74.1,145.8,74.9,146.5z"/>
						</g>
						<g id="XMLID_649_">
							<path id="XMLID_650_" class="st6" d="M58.3,146.1c0.4,3.1-1.9,1-1.4,0.3L58.3,146.1z"/>
						</g>
						<g id="XMLID_647_">
							<path id="XMLID_648_" class="st7" d="M127,215.8c0-1,0-2-0.1-2.9c0.7,0.4,1.5,0.7,2.2,1.1c0.1,0.7,0.2,1.4,0.2,2.1
								c-0.4,0.4-0.8,0.8-1.1,1.3C127.8,216.9,127.4,216.3,127,215.8z"/>
						</g>
						<g id="XMLID_645_">
							<path id="XMLID_646_" class="st7" d="M110.1,194.1c-0.5,0.2-1.2-0.4-2-0.8c-0.6-0.2-1.1-0.4-1.6-0.6
								c-0.1-0.4-0.3-0.9-0.4-1.4c-0.4-0.3-0.8-0.5-1.2-0.8c0.1-0.4,0.2-0.8,0.3-1.2c0.4,0.1,0.8,0.3,1.2,0.3c0.2,0,0.4,0,0.6,0
								c0.5,1,0.9,2,1.3,3c0.9-0.2,1.3-1.6,2.5-0.7c0.2,0.6,0.4,1.2,0.6,1.8C111,194,110.6,194.1,110.1,194.1z"/>
						</g>
						<g id="XMLID_643_">
							<path id="XMLID_644_" class="st7" d="M98.8,189.2c-0.2-1.5-2.7-1.5-2.3-2.9c0.2-0.2,0.4-0.4,0.5-0.5c0.8,0.1,1.6,0.3,2.4,0.5
								c0.5,0.3,1,0.7,1.4,1c0.1,0.1,0.2,0.2,0.2,0.2c-0.1,0.6-0.3,0.7-0.5,0.9C100,188.7,99.4,189,98.8,189.2z"/>
						</g>
						<g id="XMLID_641_">
							<path id="XMLID_642_" class="st7" d="M91.7,187.1c0-0.4,0.1-0.8,0.1-1.2c0.4-0.2,0.7-0.5,1.1-0.7c0.4,0.2,0.9,0.4,1.4,0.5
								c0,0.5,0,1.1-0.1,1.6C93.7,188.1,92.5,187.1,91.7,187.1z"/>
						</g>
						<g id="XMLID_639_">
							<path id="XMLID_640_" class="st7" d="M94.5,182.9c-0.3-0.5-0.7-1-1-1.5c-1.3-0.1-1.7-0.8-2.3-1.2c-0.8-0.5-1.6-1-2.4-1.5
								c-0.6-0.4-1.1-0.9-1.7-1.3c-0.4-0.4-0.9-0.8-1.3-1.3c-0.6-0.6-2.8-1.5-2.9-2.8c-0.2-0.6,0.5-1.3-0.9-1.9
								c-0.8-0.5-1.9-1.5-0.9-1.9c0.9-0.5,2,1.1,3,1.6c0.4-0.2,0.8-0.3,1.3-0.6c0.8,0.9,1.8,1.6,2.8,2.4c-0.1,0.6-0.3,1.3-0.5,1.8
								c0.4,0.3,0.8,0.6,1.2,0.9c1.1,0.5,2.3,1,3.4,1.6c0.1,0.1,0.2,0.1,0.3,0.2c0.8,1.2,1.5,2.3,2.3,3.4c0.2,0.2,0.5,0.4,0.8,0.7
								C95.1,182.2,94.8,182.5,94.5,182.9z"/>
						</g>
						<g id="XMLID_637_">
							<path id="XMLID_638_" class="st7" d="M81,188.5c0-0.1-0.1-0.2-0.1-0.4c0.5-0.6,0.9-1.2,1.4-1.7c0.6,0.2,1.2,0,1.7,0.6
								c-0.2,0.8-0.4,1.6-0.6,2.4C82.7,188.4,81.7,189.3,81,188.5z"/>
						</g>
						<g id="XMLID_635_">
							<path id="XMLID_636_" class="st7" d="M73,136.7c-0.7-0.3-1.5-0.6-2.2-0.9c0,0-0.1-0.1-0.2-0.2c0,0,0.1-0.1,0.2-0.2
								c0.4-0.2,0.8-0.3,1.1-0.6c0.8-0.3,1.7,0.8,1.4,1.5C73.2,136.6,73.1,136.7,73,136.7z"/>
						</g>
						<g id="XMLID_633_">
							<path id="XMLID_634_" class="st7" d="M62.7,137c-0.6-0.6-1.2-0.2-1.9-0.1c0-0.1,0-0.2,0-0.4c-0.5-0.5-1-1.1-1.4-1.7
								c-0.5-1-1-2-1.4-3c0.5-0.5,1-1,1.5-1.5c0.4,0.2,0.8,0.4,1.2,0.6c0.2,0.4,0.5,0.8,0.8,1.2c-0.3,1.1,0.6,1,1,1.4
								c0.6,1.6,1.2,0.7,1.5,1.1c0.2,0.2,0.3,0.4,0.5,0.7c-0.1,0.5-0.2,0.9-0.2,1.4C63.6,136.8,63.2,136.9,62.7,137z"/>
						</g>
						<g id="XMLID_631_">
							<path id="XMLID_632_" class="st7" d="M62.6,119.9c0.4,0,0.8,0,1.3,0c0.9,0.4-0.2,0.5-1,1.2C62.7,120.7,62.6,120.3,62.6,119.9
								z"/>
						</g>
						<g id="XMLID_629_">
							<path id="XMLID_630_" class="st7" d="M61.7,116.7c0.1-0.3,0.3-0.5,0.5-0.8c0,0,0-0.1,0-0.1c0.1-0.3,0.2-0.6,0.4-0.8
								c0.2-0.3,0.5-0.5,0.7-0.7c0.5,0.1,0.2-0.3,0.9,0.1c0.5,0.6,0.5,0.8,0.4,1c-0.1,0.2-0.2,0.4,0.2,0.8c-0.1,0.1-1.3-0.1-1.4,0.1
								c0.1,0.2,0.2,0.3,0.3,0.5c0.4,0.4-0.8,0.1-1.8,0.2C61.9,116.8,61.8,116.8,61.7,116.7z"/>
						</g>
						<g id="XMLID_627_">
							<path id="XMLID_628_" class="st9" d="M60.3,116.2c0.1-0.3,0.1-0.5,0.2-0.7c-0.2-0.2-0.4-0.4-0.6-0.6c0.7-0.6,0.8-0.7,1.2-0.8
								c0-0.2,0-0.4,0-0.6c0.1-0.4,0.2-0.9,0.4-1.3c0.7-0.1,1-0.1,0.5-0.5c0.1-0.1,0.3-0.2,0.4-0.3c-0.6-0.7,0.1-0.5,0.3-0.5
								c0.3-0.3,0.7-0.6,1.1-0.8c0.1,0,0.2-0.1,0.4-0.1c0,0,0.1,0,0.1,0c0.3,0.3,0.5,0.7,0.8,1c0.1-0.4,0.6-0.3,0.8-0.9
								c0.1,0,0.1,0,0.1,0c0.2,0,0.4,0,0.6-0.1c0.2,0,0.4,0,0.7-0.1c0.1,0,0.2,0,0.3,0c0.4,0,0.8,0.2,1.2,0.3c0.2,0.3,0.3,0.6,0.4,1
								c-0.1,0.4-0.2,0.8-0.2,1.2c-0.9,0-1.8,0.1-2.5,0.3c-0.2,0-0.4,0-0.6,0.1c-0.3,0.1-0.5,0.3-0.8,0.4c0,0.1-0.1,0.2-0.1,0.3
								c0,0.1,0,0.2-0.1,0.3c-0.1,0.1-0.2,0.1-0.4,0.2c0.5,0.6,0.3,0.5,0,0.3c-0.3-0.1-0.7-0.3-0.5,0c-0.7-0.4-0.4,0.1-0.9-0.1
								c-0.3,0.2-0.5,0.4-0.7,0.7c-0.1,0.3-0.3,0.5-0.4,0.8c0,0,0,0.1,0,0.1c-0.2,0.2-0.4,0.5-0.5,0.8
								C61.2,116.5,60.8,116.4,60.3,116.2z"/>
						</g>
						<g id="XMLID_625_">
							<path id="XMLID_626_" class="st7" d="M65.1,113.8c0-0.1,0-0.2,0.1-0.3c0-0.1,0.1-0.2,0.1-0.3l0.3,0.7c-0.1,0-0.2,0-0.3-0.1
								C65.3,113.9,65.2,113.8,65.1,113.8z"/>
						</g>
						<g id="XMLID_623_">
							<path id="XMLID_624_" class="st7" d="M66,112.8c0.2-0.1,0.4-0.1,0.6-0.1c0.2,1.4-0.2,0.5-0.4,0.5L66,112.8z"/>
						</g>
						<g id="XMLID_621_">
							<path id="XMLID_622_" class="st7" d="M73.4,113.1c0.1-0.1,0.2-0.2,0.3-0.4c0.6,0.2,1.3,0.4,1.9,0.7c0.1,0.2,0.1,0.4,0.1,0.6
								c-1.5,0.7-2.1,1.1-2.8,0.2L73.4,113.1z"/>
						</g>
						<g id="XMLID_619_">
							<path id="XMLID_620_" class="st5" d="M126.4,217.8c-0.2-1.3-0.1-1.7,0.6-2.1c0.4,0.5,0.8,1.1,1.2,1.6
								c-0.1,0.3-0.2,0.5-0.2,0.9C127.4,218.1,127,217.9,126.4,217.8z"/>
						</g>
						<g id="XMLID_617_">
							<path id="XMLID_618_" class="st5" d="M106.5,192.8c-0.7,0-1.3-0.3-1.7-0.6c-0.4-0.4-0.7-0.9-0.8-1.3c0.2-0.1,0.5-0.2,0.8-0.2
								c0.4,0.2,0.8,0.5,1.2,0.8C106.2,191.9,106.3,192.3,106.5,192.8z"/>
						</g>
						<g id="XMLID_615_">
							<path id="XMLID_616_" class="st5" d="M81,188.5c-1.7,0.7-2.7-0.4-3.1-1.1c0.1-0.5,0.2-0.9,0.2-1.4c1.1,0.2,2.8,1,2.8,2.1
								C80.9,188.2,81,188.4,81,188.5z"/>
						</g>
						<g id="XMLID_613_">
							<path id="XMLID_614_" class="st5" d="M65.3,113.2c0.2-0.1,0.4-0.3,0.8-0.4l0.1,0.4c0.4,1.3,0.2,1,0.3,1.5
								c-0.1,0.1-0.2-0.2-0.4-0.4c-0.1-0.2-0.3-0.4-0.4-0.4L65.3,113.2z"/>
						</g>
						<g id="XMLID_611_">
							<path id="XMLID_612_" class="st5" d="M69.3,111.2c0.2,0,0.4,0.1,0.6,0.1c0.4,0.3,0.7,0.6,1,0.9l-0.1,0.8
								c-0.3,0-0.7,0.3-0.9,0.4c-0.3,0.1-0.5-0.1-0.7-1C69.1,112,69.2,111.6,69.3,111.2z"/>
						</g>
						<g id="XMLID_609_">
							<path id="XMLID_610_" class="st5" d="M72.5,112.8c0.3,0.1,0.6,0.2,0.9,0.4l-0.5,1.1c-0.2-0.3-0.5-0.6-0.7-0.8L72.5,112.8z"/>
						</g>
						<g id="XMLID_607_">
							<path id="XMLID_608_" class="st8" d="M128,218.3c0-0.4,0.1-0.6,0.2-0.9c0.4-0.4,0.7-0.9,1.1-1.3c0.2,0.1,0.3,0.3,0.5,0.3
								c0.1,0.9,0.1,1.8,0.2,2.6C128.7,220.6,128.1,219.7,128,218.3z"/>
						</g>
						<g id="XMLID_605_">
							<path id="XMLID_606_" class="st8" d="M122.9,192.4c-0.2-0.4-0.4-0.8-0.6-1.1c-0.6-0.5-1.1-1.1-1.7-1.6
								c-0.1-0.2-0.2-0.3-0.2-0.4c-0.3-0.5-0.6-1-0.9-1.5c-0.3-0.3-0.5-0.4-0.7-0.6c1.3-1.2-0.2-2.9-1.7-5.3
								c-0.7-0.3-1.3-1.1-1.9-1.8c-0.5-0.9-1-1.9-1.5-2.8c0.1-0.2,0.1-0.4,0.1-0.7c1.1,0.9,2.2,2,3.3,3c0.3-0.2,0.5-0.4,0.8-0.6
								c1,1.1,2.1,2.3,3,3.5c0.1,1.3,0.7,2.5,1.5,3.9c0.4,0.6,0.8,1.3,1.2,2c0.4,0.7,0.8,1.3,1.1,2c0.7,1.4-0.3,1.3-1,2.9
								C123.4,193.1,123.2,192.7,122.9,192.4z"/>
						</g>
						<g id="XMLID_603_">
							<path id="XMLID_604_" class="st8" d="M104,190.9c-0.1-0.2-0.3-0.3-0.5-0.5c-1.5,0.4-2.1-1.1-3-1.8c0.2-0.2,0.4-0.4,0.5-0.9
								c0.7,0.3,1.4,0.7,2,1c0.4,0,0.8,0,1.2-0.1c0.3,0.3,0.6,0.7,0.9,1c-0.1,0.4-0.3,0.8-0.3,1.2
								C104.5,190.7,104.2,190.7,104,190.9z"/>
						</g>
						<g id="XMLID_601_">
							<path id="XMLID_602_" class="st8" d="M102,185.7c-0.5-0.7-1-1.4-1.5-2.1c0.1-0.1,0.1-0.1,0.2-0.2c1,0.7,1.6-0.9,2.2,0.4
								c-0.1,0.6-0.2,1.2-0.3,1.8C102.4,185.7,102.2,185.7,102,185.7z"/>
						</g>
						<g id="XMLID_599_">
							<path id="XMLID_600_" class="st8" d="M96.1,184.3c-0.3-0.2-0.6-0.4-1-0.5c-0.2-0.3-0.4-0.5-0.6-0.8c0.3-0.4,0.7-0.7,1.2-1.3
								c0.5,0.6,0.9,1.1,1.5,1.6C96.6,183.7,96.3,184,96.1,184.3z"/>
						</g>
						<g id="XMLID_597_">
							<path id="XMLID_598_" class="st8" d="M89.7,165.2c-0.9,0.5-1,1.1-1.3,0.6c-1.9-0.7,0.1-1.8,0.5-1.8
								C89.1,164.4,89.4,164.8,89.7,165.2z"/>
						</g>
						<g id="XMLID_595_">
							<path id="XMLID_596_" class="st8" d="M87.7,161.9c0.9-0.6,1.1-0.5,1.4-0.5c1.2,0.5,0.2,1.1-0.2,2
								C88.4,162.9,88,162.4,87.7,161.9z"/>
						</g>
						<g id="XMLID_593_">
							<path id="XMLID_594_" class="st8" d="M85.5,161.2c-0.4,1-1.5,1.1-2.3,0.1c0.3-0.1,0.1-0.6-0.2-0.8c-1.1-1.3-1.6-0.2-3-1.4
								c-0.5,1.1-1.1,0.4-1.8-0.2c-0.5-0.4-1.1-0.9-1.6-1.3c-0.5-0.3-1.1-0.6-1.5-0.9c0.2-0.4,0.4-0.9,0.7-1.4
								c-0.1-0.2-0.2-0.4-0.4-0.6c-0.7-0.5-1.3-0.9-2-1.4c-0.6-2.4,2.2,1,1.7-1.5c0.4,0.3,3.1,0.4,1.7,1.8c0.2,0.3,0.5,0.6,0.6,0.8
								c1.3,0.6,1.3-0.1,1.7-0.3c1.6,1,1.8,1.8,3,2.9C80.9,158.8,84.3,159.8,85.5,161.2z"/>
						</g>
						<g id="XMLID_591_">
							<path id="XMLID_592_" class="st8" d="M78.3,149.8c-0.5-0.5-1.2,0.1-1.6-0.7c-0.1-0.3-0.1-0.5,0.1-0.6
								c-0.7-0.6-1.2-1.3-1.8-1.9c1.7-0.6,3.1,1.1,3.6,1.9c0.1,0.1,0.2,0.2,0.3,0.2c0.4,0.2,0.9,0.3,1.3,0.5
								c0.2,0.2,0.4,0.3,0.5,0.4c0.3,0.6,0.6,1.4,0.9,2c0.9,0.3,0.4,0.9,0.4,1.6c-0.9-0.9-2.1-0.1-2.9-1.4
								C78.8,151.1,78.5,150.4,78.3,149.8z"/>
						</g>
						<g id="XMLID_589_">
							<path id="XMLID_590_" class="st8" d="M63.8,134.7c-1.5,0.4-1.1-0.6-1.5-1.1c-0.4-0.5-1.3-0.3-1-1.4c0.5,0,1,0,1.5,0.1
								l0.3,0.4c0.2,0.2,0.5,0.4,0.7,0.6C63.9,133.7,63.9,134.3,63.8,134.7z"/>
						</g>
						<g id="XMLID_587_">
							<path id="XMLID_588_" class="st8" d="M70.8,112.2c0.3-0.3,0.6-0.5,0.9-0.8c0.2,0,0.4,0.1,0.6,0.2c0.1,0.4,0.1,0.7,0.2,1.1
								l-0.3,0.7c-0.3-0.1-0.6-0.2-0.8-0.3c-0.2-0.1-0.5-0.2-0.7-0.2L70.8,112.2z"/>
						</g>
						<g id="XMLID_585_">
							<path id="XMLID_586_" class="st10" d="M76.4,107.9l0.5-1.1c0.9,0.7,1.8-0.7,2.5,0.7c0.2-0.5,1.1-0.7,1.4-1.8
								c1.1,1.1,2.2,1,2.5-0.2c-0.2-0.1-0.4-0.3-1.1-1c1.4-0.7,3.4,1.7,5.4,2.5c1.2-0.5,2.8,0.5,5.1,1.7l-1.1,1.8
								c-0.4-0.2-0.8-0.4-1.2-0.6c-0.4,0.4-0.8,0.7-1.1,1c-0.1,0.1-0.2,0.2-0.4,0.4c0.2,0.2,0.4,0.4,0.6,0.6
								c0.2,0.2,0.3,0.3,0.4,0.5c0.4-0.2,0.6-0.8,1.2-0.6c0.3,0.5,0.6,1.1,0.9,1.7c0.4-0.2,0.9-0.5,1.3-0.7c0.6,0.8,1.1,1.6,1.7,2.5
								l0.4-0.3c0.9,0.8,1.9,1.6,2.8,2.5c0.3,0.4,0.7,0.7,1,1.1c0.5-0.2,1-0.4,1.4-0.6c0.3,1.1,0.6,2.1,0.9,3.2
								c0.2,0.1,0.4,0.3,0.6,0.4c0.6,0.1,1.2,0.1,1.9,0.2l1.3,2.1c0.7,0.6,1.5,1.2,2.2,1.7c-0.3,0.7-0.6,1.4-0.8,2.1
								c-0.5,0.2-1.1,0.3-1.7,0.5c0.2,0.6,0.4,1.1,0.7,1.7c-0.2,0.3-0.4,0.6-0.7,0.8c-0.1,0.6-0.1,1.2-0.2,1.7
								c-0.6-0.1-1.2-0.1-1.8-0.2c-0.7,0.6-1.4,1.2-2.1,1.9c-0.1-0.3-0.3-0.6-0.5-0.9c0.4-0.7,0.7-1.4,1-2.1c0.3,0.1,0.7,0.1,1,0.2
								l0.1-0.8c-0.3-0.7-0.5-1.3-0.8-2c0.4-0.2,0.2-1,0.6-1.5c-0.4-0.2-0.8-0.4-1.2-0.6c-0.2-0.4-0.5-0.8-0.7-1.2c-0.7,0-1.4,0-2,0
								c-0.1-0.1-0.1-0.2-0.2-0.3l-1.1,0.6c-0.2-0.3-0.5-0.8-0.7-1.1c0.4-0.7-0.2-1.2-1.7-1.7c-0.5-0.7-0.9-1.4-1.4-2.1
								c-0.4-0.5-0.8-1.1-1.1-1.5c-0.6-0.3-0.9,0.4-1.4,0.6c-0.1,0-0.3,0-0.4-0.1c-0.5-0.5-1.1-0.9-1.7-1.3
								c-0.7-0.8-1.5-1.5-2.2-2.2c-0.6-0.8-1.2-1.6-1.9-2.3c-0.3-0.5-0.6-0.9-1-1.3c0-0.3,0.1-0.6,0.1-0.9c-0.3-0.4-0.6-0.7-0.9-1.1
								c0.1-0.4,0.3-0.7,0.3-1.3c-0.6,0.1-1.2,0.1-1.8,0.2c-0.3,1.1-1.5,0.7-1.8,1.7c-0.1,0-0.2,0-0.3,0.1c-0.2-0.3-0.4-0.5-0.7-0.7
								c-0.1-0.5-0.3-0.9-0.5-1.4C77.4,108.8,76.9,108.3,76.4,107.9z"/>
						</g>
						<g id="XMLID_583_">
							<path id="XMLID_584_" class="st8" d="M106.6,127.7c0.3,0.5,0.9,0.6,2,1.9c0.5,1.7-0.8,1.1-1.2,1.4c-0.6-0.4-1.3-0.5-1.8-1.1
								c-0.3-0.5-0.5-1.1-0.7-1.7C105.5,128.1,106.1,127.9,106.6,127.7z"/>
						</g>
						<g id="XMLID_581_">
							<path id="XMLID_582_" class="st11" d="M103,188.5c-0.6-0.3-1.3-0.6-2-1c0,0-0.2-0.2-0.2-0.2c0.4-0.6,0.8-1.1,1.2-1.6
								c0.2-0.1,0.4-0.1,0.6-0.1c0.4,0.2,0.9,0.5,1.4,0.7l0.5,0.5c-0.1,0.5-0.1,1.1-0.2,1.6C103.8,188.5,103.4,188.5,103,188.5z"/>
						</g>
						<g id="XMLID_579_">
							<path id="XMLID_580_" class="st10" d="M117,179.7c-1.1-0.8-2.3-1.6-3.4-2.3c0.1-0.2,0.1-0.4,0.1-0.7
								c-0.6-0.8-1.2-1.6-1.8-2.4c-1.2,0.1-2-1-2.7-1.6c-0.7-0.7-1.3-1.4-2-2.1c-0.5-0.2-1-0.4-1.6-0.7c-0.2-0.5-0.2-0.9-0.4-1.3
								c-0.5-0.5-1-1-1.4-1.4c-0.7-0.7-1.4-1.3-2.1-1.9c0.3-0.1,0.7-0.3,1-0.5c0.5,0.7,0.9,1.3,1.4,2c0.8-1.3-0.4-1.8-1.1-2.4
								c0.2-0.2,0.3-0.4,0.5-0.6c1.1,0.4,2.2,0.8,3.2,1.2c0.6,0.8,1.2,1.7,1.8,2.5c1,1,1.9,2.1,2.9,3.2c-0.7,0.1-1.4,0.1-2,0.2
								c0.1,0.4,0.3,0.8,0.6,1.2c0.8,0.5,1.5,0.9,2.3,1.4c0.3-0.2,0.7-0.3,1.1-0.4c0.6,0.8,1.3,1.5,2,2.4c0.9,1.2,1.8,2.4,2.7,3.7
								C117.6,179.3,117.3,179.5,117,179.7z"/>
						</g>
						<g id="XMLID_577_">
							<path id="XMLID_578_" class="st11" d="M112.2,173.4c-0.8-0.5-1.5-0.9-2.3-1.4c-0.2-0.4-0.4-0.8-0.6-1.2
								c0.6-0.1,1.3-0.2,2-0.2c0.6,0.8,1.3,1.7,1.9,2.5C112.9,173.1,112.5,173.3,112.2,173.4z"/>
						</g>
						<g id="XMLID_575_">
							<path id="XMLID_576_" class="st11" d="M104.1,166.7c-0.5-0.7-0.9-1.4-1.4-2c-0.3,0.2-0.6,0.4-1,0.5c-0.7-0.5-1.4-1.1-2.1-1.6
								c-1-0.7-1.8-1.4-2.8-2.1c-0.3-0.7-0.6-1.4-1-1.7c-0.6-0.3-1.1-0.5-1.6-0.9c-2.1-1.3-4.2-2.7-6.2-4c-0.1-0.1-0.2-0.2-0.3-0.2
								c-0.7-1.5-1.1-1.8-1.7-2.3l-0.5,0.6l-0.5-0.4c-0.8-1.1-1.1-1.5-1-2c-1.3,0.5-2-0.4-2.3-1c-0.3,0-0.5,0-0.8,0
								c-0.2-0.1-0.3-0.3-0.5-0.4c-0.4-0.2-0.9-0.3-1.3-0.5c-0.1,0-0.2-0.1-0.3-0.2c0-0.6,0.2-1.1,0.3-1.8c0.1,0,0.3,0,0.4,0.1
								l1.3,1.1c0.2-0.3,0.4-0.5,0.7-0.8c0.6,0.2,1.3,0.5,2,0.7c0.1,0.3,0.3,0.4,0.4,0.6c0.1,0.1,0.2,0.1,0.3,0.2
								c2.7,0.6,2.4,1.9,3.4,2.7c1.2,0.8,2.5,1.7,3.8,2.5c-0.4,2,0.9,1.4,1.6,1.8c0.7,0.4,1.5,0.8,2.2,1.3c2.3,0.7,3.4,2.9,5.6,4.4
								l3.1,2.4c-0.1,0.2-0.3,0.4-0.5,0.6C103.7,164.9,104.9,165.4,104.1,166.7z"/>
						</g>
						<g id="XMLID_573_">
							<path id="XMLID_574_" class="st11" d="M72.9,141.1c-0.3,0.3-0.5,0.5-0.7,0.7c-1.1-0.8-2.3-1.7-3.4-2.5
								c-0.1-0.3-0.2-0.6-0.2-1c0.1-0.5,0.2-1,0.3-1.5c-0.6-0.3-1.1-0.7-1.6-1c-0.4-0.7-0.8-1.4-1.1-2.1c-0.9,0-1.8-0.8-2.2-0.4
								c-0.3-0.2-0.5-0.4-0.7-0.6l-0.3-0.4c-0.1-0.5-0.1-1.1-0.1-1.5c-0.9-0.4-1-1.7-1.8-2.1c0-0.5,0-1,0.1-1.5
								c0-0.8-1.2-0.8-0.5-1.7c-0.3-0.7-0.5-1.4-0.8-2.1c-0.2-0.3-0.5-0.6-0.8-0.9c0.1-0.2,0.1-0.3,0.2-0.4c-0.4-0.4-0.7-0.8-1-1.2
								c0.1-0.3,0.2-0.6,0.4-0.8c-0.3-0.3-0.8-0.6-1.1-1c0.3-0.3,0.5-0.6,0.8-0.9c-0.4-0.4-0.6-0.9-0.7-1.3
								c-0.1-0.4-0.1-0.9-0.5-1.3c-0.3-0.2-0.2-1.5,0.6-1.1c0.8-0.2,0.2-1.8,1.7-0.9c-0.2,0.9,0.8,0.9,0.5,1.3
								c-0.9,0.8-0.9,1.2-0.5,1.6c0.2,0.3,0.6,0.6,0.8,0.9c-0.3,0.3-0.7,0.5-1.1,0.8c0,0.5-0.1,1,0.8,1.4c0.4-0.6,1-1.1,1.5-1.5
								c1,0.1,1.2,0.1,1.5,0.1c-0.4,0.6-0.4,1.1-0.4,1.8c0,0.4,0.1,0.8,0.2,1.2c0.1,0.5,0.1,1.1,0.3,1.8c0,0,0,0.1,0.1,0.2
								c1.3,0.9,1.6,1.7,1.9,4.1c0.3,0.9,0.7,1.8,1.2,2.8c-0.6-0.1-1.2-0.3-1.8-0.4c0,0.4-0.1,0.9-0.1,1.3c0.6,0.8,1.9,0.5,2.6,1.1
								c1.8,0,3.4,1.7,3.8,3.4c0,0.2,0,0.3,0,0.4c0.1,0.5,0.2,0.9,0.2,1.4c0.5,0.5,1,0.9,0.9,1.7c0.4,0.3,0.8,0.6,1.3,0.9
								c0.2,0.2,0.3,0.3,0.5,0.5C73.3,140.7,73.1,140.9,72.9,141.1z"/>
						</g>
						<g id="XMLID_571_">
							<path id="XMLID_572_" class="st11" d="M58.4,112.4c0.3-0.2,0.6-0.4,0.9-0.6c0.3,0,0.5,0,0.7-0.1c-0.1-0.2-0.1-0.4-0.2-0.5
								c0.3-0.4,0.7-0.8,1.1-1.1c-0.6-0.6,0.3-0.4,0-0.9c0.4-0.4,0.9,0.5,1.3,0.3c-0.3-0.7-0.4-0.9-0.5-1.1c0.3-0.2,0.6-0.3,1.1-0.5
								c0-1,0.3-1.4,0.7-1c0.2,0.3,0.4,0.6,0.5,0.9c1.1,0.1,1.5-0.3,1.9-0.9c0.4-0.1,0.9-0.1,1.3-0.1c0.3,0.3,0.6,0.5,0.8,0.7
								c0.3-0.5,0.5-1,0.8-1.5c0.2,0.3,0.5,0.7,0.7,1c0.2,0,0.5,0.1,1,0.1c0.2-0.2,0.3-0.4,0.5-0.7c1,0.2,1.8,0.4,2.8,0.7
								c-0.1,0.9-0.2,1.8-0.3,2.8c-0.3-0.2-0.5-0.4-0.8-0.6c-0.7-1.2-1.2-0.5-1.4-0.1c-0.6,0.4-0.7-0.2-0.9-1
								c-0.3,0.1-0.6,0.2-0.9,0.4c-0.4-0.3-0.8-0.6-1.2-0.8c-0.3,0.4-0.7,0.8-0.9,1.3c-0.6-0.2-0.8-0.1-1.1,0.9c0,0-0.1,0-0.1,0
								c-0.2,0.6-0.6,0.5-0.8,0.9c-0.2-0.4-0.5-0.7-0.8-1c0,0-0.1,0-0.1,0c-0.1,0-0.2,0.1-0.4,0.1c-0.4,0.3-0.8,0.5-1.1,0.8
								c-0.2,0-0.9-0.2-0.3,0.5c-0.1,0.1-0.3,0.2-0.4,0.3c0.4,0.4,0.2,0.4-0.5,0.5c-0.2,0.4-0.3,0.8-0.4,1.3
								c-0.3-0.1-0.6-0.3-0.9-0.5c-0.2,0.1-0.5,0.2-0.7,0.3C59.2,113,58.8,112.7,58.4,112.4z"/>
						</g>
						<g id="XMLID_569_">
							<path id="XMLID_570_" class="st12" d="M75.7,108.2c0.1,0.6,0.1,1.2,0.2,1.7c-0.8,0.9-1.3,1.3-1.1,1.7c0.4,0.7,0.7-0.7,1.1,0
								c0.1,0.2,0.3,0.3,0.4,0.5c-0.3,0.5-0.5,0.9-0.7,1.3c-0.6-0.3-1.3-0.5-1.9-0.7c-0.2-0.7-0.5-1.3-0.8-1.9
								c0.1-0.3,0.2-0.6,0.3-0.9c-0.3-0.2-0.5-0.4-0.8-0.6c0.3-0.8,0.7-1.5,1.1-2.2C74.3,107.4,75.1,107.8,75.7,108.2z"/>
						</g>
						<g id="XMLID_567_">
							<path id="XMLID_568_" class="st11" d="M76.4,107.9c0.5,0.4,1,0.9,1.4,1.3c-0.6,0.2-1.1,0.5-1.7,0.7c0,0-0.1-0.1-0.2-0.1
								c-0.1-0.6-0.1-1.1-0.2-1.7C76,108.1,76.2,108,76.4,107.9z"/>
						</g>
						<g id="XMLID_565_">
							<path id="XMLID_566_" class="st11" d="M79.3,111.4c0.4-1,1.6-0.7,1.8-1.7c0.6-0.1,1.2-0.1,1.8-0.2c-0.1,0.6-0.2,1-0.3,1.3
								c0.3,0.3,0.6,0.7,0.9,1.1c0,0.3,0,0.6-0.1,0.9c-0.5,0-1,0.1-1.4,0.1c-0.8-0.4-1.5-0.8-2.3-1.1
								C79.6,111.6,79.4,111.5,79.3,111.4z"/>
						</g>
						<g id="XMLID_563_">
							<path id="XMLID_564_" class="st11" d="M90.6,119.8c0.9-1.3,2-0.5,2.9,0.2c-0.2,0.2-0.3,0.5-0.4,0.7c0.5,0.7,0.9,1.3,1.4,2.1
								c1.5,0.5,2.1,1,1.7,1.7c0.2,0.4,0.5,0.8,0.7,1.1l1.1-0.6c0,0.1,0.1,0.2,0.2,0.3c0.1,0.4,0.2,0.9,0.3,1.4
								c-0.4,0.2-0.7,0.4-1.1,0.6c-1-0.4-2-1.4-2.8-2.6c-0.6-0.3-1.2-0.5-1.7-0.8c-0.2-0.9-0.4-1.7-0.6-2.6
								C91.8,120.8,91.2,120.3,90.6,119.8z"/>
						</g>
						<g id="XMLID_561_">
							<path id="XMLID_562_" class="st11" d="M94.2,118c0.9,0,1.3,0.9,1.7,1.5c-0.4,0.3-0.8,0.5-1.3,0.8c-0.2-0.3-0.3-0.5-0.5-0.8
								C94.2,119.1,94.2,118.5,94.2,118z"/>
						</g>
						<g id="XMLID_559_">
							<path id="XMLID_560_" class="st11" d="M100.9,126.4c0.4,0.2,0.8,0.4,1.2,0.6c-0.4,0.5-0.2,1.3-0.6,1.5c0.3,0.7,0.6,1.3,0.8,2
								l-0.1,0.8c-0.3-0.1-0.7-0.1-1-0.2c-0.4,0.7-0.7,1.4-1,2.1c-0.4-0.5-0.7-0.9-1.1-1.4c0.3-0.4,0.6-0.8,1-1.3
								c-0.3-0.6-0.7-1.2-1-1.7l0.5-1.5C100,126.9,100.5,126.6,100.9,126.4z"/>
						</g>
						<g id="XMLID_557_">
							<path id="XMLID_558_" class="st10" d="M106.4,189.8c-0.4-0.1-0.8-0.2-1.2-0.3c-0.3-0.3-0.6-0.7-0.9-1
								c0.1-0.5,0.1-1.1,0.2-1.6c1,0.7,1.8,1.3,2.7,2c-0.1,0.3-0.1,0.6-0.2,1C106.8,189.9,106.6,189.8,106.4,189.8z"/>
						</g>
						<g id="XMLID_555_">
							<path id="XMLID_556_" class="st10" d="M99.4,186.3c-0.8-0.2-1.6-0.4-2.4-0.5c-0.3-0.5-0.6-1-0.9-1.5c0.3-0.3,0.6-0.6,1-1.1
								c0.4,0.3,0.8,0.5,1.2,0.7c0.7-0.1,1.5-0.2,2.2-0.3c0.5,0.7,1,1.4,1.5,2.1c-0.4,0.5-0.8,1.1-1.2,1.6
								C100.4,187,99.9,186.6,99.4,186.3z"/>
						</g>
						<g id="XMLID_553_">
							<path id="XMLID_554_" class="st10" d="M96.8,161.5c-0.8,0.3-1.5-0.6-2.3-1.1c-2.2-0.9-4.2-4.1-6.5-3.9
								c-1.3-0.5,0.3-0.9-0.3-1.8l-2.2-1.7l0.5-0.6c0.7,0.9,1.3,1.7,2,2.5c2,1.3,4.1,2.7,6.2,4c0.6,0.4,1.1,0.6,1.6,0.9
								C96.2,160.1,96.4,160.8,96.8,161.5z"/>
						</g>
						<g id="XMLID_551_">
							<path id="XMLID_552_" class="st10" d="M82.8,153.8c-0.3-0.2-0.5-0.4-0.8-0.6c0-0.7,0.5-1.3-0.4-1.6c-0.4-0.7-0.7-1.4-0.9-2
								c0.3,0,0.6,0,0.8,0c1.3,0.7,1.9,0.6,2.3,1c-0.1,0.5,0.2,1,1,2C84.1,153.1,84.1,154.4,82.8,153.8z"/>
						</g>
						<g id="XMLID_549_">
							<path id="XMLID_550_" class="st10" d="M74.9,146.5c-0.2,0-0.3,0-0.4,0c-0.6-0.6-1.2-1.3-1.8-2c-0.2-0.8-0.4-1.7-0.6-2.6
								c0.3-0.3,0.5-0.5,0.7-0.7c1.4,1.4,3,2.7,4.6,4c0.5,0.5,0.9,1,1.4,1.5c-0.1,0.6-0.2,1.2-0.3,1.8
								C78,147.5,76.6,145.9,74.9,146.5z"/>
						</g>
						<g id="XMLID_547_">
							<path id="XMLID_548_" class="st10" d="M66.8,137.7c-0.1-0.3-0.3-0.6-0.4-0.8c-0.5-0.5-0.9-1.1-2.1-1.4
								c-0.2-0.2-0.3-0.4-0.5-0.7c0-0.5,0-1,0.1-1.5c0.4-0.4,1.3,0.5,2.2,0.4c0.3,0.7,0.7,1.4,1.1,2.1c0.5,0.3,1,0.7,1.6,1
								c-0.2,0.5-0.2,1-0.3,1.5C67.9,138.1,67.4,137.9,66.8,137.7z"/>
						</g>
						<g id="XMLID_545_">
							<path id="XMLID_546_" class="st10" d="M61.4,132.2c-0.2-0.4-0.5-0.8-0.8-1.2c-0.4-0.2-0.8-0.4-1.2-0.6
								c-0.1-0.3-0.1-0.5-0.2-0.8c-0.6-0.2-1.1-1.4-0.2-1.4c-0.5-0.3-0.8-0.7-0.9-1.2c-0.1-0.4-0.1-0.9-0.2-1.3c0-0.9-0.1-1.6-1-2.3
								c0.3-0.2,0.6-0.3,0.9-0.5l-0.4-1c-0.7-0.1-1.3-0.5-1.6-0.6c0-0.1,0-0.3-0.1-0.5c-0.1-0.4-0.1-0.8-0.1-1.2
								c0.1-0.4,0.3-0.7,0.4-1c-0.2-0.1-0.5-0.2-0.7-0.2c-0.1-1.5,0.6-3.3,0.5-4.5c-0.2-0.3-0.5-0.6,0-1.2c0.4,0,0.7,0,1.1,0
								c0.1-0.2,0.2-0.3,0.2-0.5c0.1-0.6,0.3-1.3,0.5-1.8c0.2-0.8,0.7-1.3,1.2-1.7c0.5-0.4,0.9-0.8,1.3-1.3
								c-0.1-0.3,0.1-0.4,0.3-0.6c0.2-0.2,0.4-0.4,0.4-1c0.7,1,1.1,0.1,2.6,0.3c0.8,0.1,1.5,0.1,2.2,0.3c0.4-0.1,0.5-0.5,0.6-0.9
								c0.1-0.4,0.4-0.7,1.3-0.3c0.4,0.1,0.7,0.3,1.1,0.5c0.7,0.2,1.5,0.4,2.2,0.7c-0.2,0.2-0.3,0.4-0.5,0.7c-0.4,0-0.7-0.1-1-0.1
								c-0.2-0.3-0.5-0.7-0.7-1c-0.3,0.5-0.5,1-0.8,1.5c-0.2-0.2-0.5-0.5-0.8-0.7c-0.4,0-0.9,0.1-1.3,0.1c-0.4,0.6-0.9,1-1.9,0.9
								c-0.1-0.3-0.3-0.6-0.5-0.9c-0.3-0.4-0.7,0-0.7,1c-0.4,0.2-0.8,0.3-1.1,0.5c0.1,0.2,0.3,0.4,0.5,1.1c-0.4,0.1-1-0.7-1.3-0.3
								c0.2,0.5-0.7,0.3,0,0.9c-0.4,0.3-0.7,0.7-1.1,1.1c0.1,0.2,0.2,0.4,0.2,0.5c-0.2,0-0.4,0-0.7,0.1c-0.3,0.2-0.6,0.4-0.9,0.6
								c0.4,0.3,0.8,0.6,1.2,1l-0.1,0.2c-1.6-1-0.9,0.7-1.7,0.9c-0.8-0.4-0.9,0.9-0.6,1.1c0.3,0.4,0.4,0.9,0.5,1.3
								c0.1,0.4,0.3,0.9,0.7,1.3c-0.3,0.3-0.5,0.6-0.8,0.9c0.3,0.4,0.7,0.7,1.1,1c-0.2,0.2-0.2,0.5-0.4,0.8c0.3,0.4,0.6,0.8,1,1.2
								c0,0.1-0.1,0.3-0.2,0.4c0.3,0.3,0.5,0.6,0.8,0.9c0.2,0.7,0.5,1.4,0.8,2.1c-0.7,0.9,0.5,0.9,0.5,1.7c-0.1,0.5,0,1-0.1,1.5
								c0.8,0.4,0.9,1.7,1.8,2.1c0.1,0.5,0.1,1,0.1,1.5C62.4,132.2,61.9,132.2,61.4,132.2z"/>
						</g>
						<g id="XMLID_543_">
							<path id="XMLID_544_" class="st10" d="M52.7,127.2c-0.2-0.5-0.4-0.9-0.5-1.4c0.5-0.2,1.1-0.3,1.7-0.5c0,0.1,0,0.2,0.1,0.3
								c0,0.4,0.1,0.8,0.1,1.1C53.5,126.9,53.1,127,52.7,127.2z"/>
						</g>
						<g id="XMLID_541_">
							<path id="XMLID_542_" class="st10" d="M52.8,123.9c0.4-0.9,0.5-1.3,1-1.3c0.1,0.5,0.2,1,0.1,1.6
								C53.5,124.1,53.1,124.1,52.8,123.9z"/>
						</g>
						<g id="XMLID_539_">
							<path id="XMLID_540_" class="st10" d="M52.6,113.3c-0.6-0.6-0.1-1,0-1.6c0.1-0.3,0.3-0.6,0.4-0.9c0.4,0.1,0.8,0.2,1.2,0.3
								c-0.1,0.5-0.3,1-0.4,1.6C53.7,113.1,53.2,113.2,52.6,113.3z"/>
						</g>
						<g id="XMLID_537_">
							<path id="XMLID_538_" class="st10" d="M54.4,110.8c0.1-0.6,0.3-1.2,0.5-1.8c0.7-0.3,1-0.1,1.4,0.2c-0.6,0.6-0.8,1.3-1,2.1
								C54.9,111,54.7,110.9,54.4,110.8z"/>
						</g>
						<g id="XMLID_535_">
							<path id="XMLID_536_" class="st10" d="M67.9,100.7c0.3,0.6,0.5,1.2,0.8,1.8c-0.6,0-1.2,0-1.7,0
								C66.2,101.8,67.1,100.6,67.9,100.7z"/>
						</g>
						<g id="XMLID_533_">
							<path id="XMLID_534_" class="st10" d="M70.7,101.8c0.4,0.2,0.8,0.3,1.2,0.4c-0.1,1.3-1.2,1.4-1.5,0
								C70.5,102.2,70.7,102,70.7,101.8z"/>
						</g>
						<g id="XMLID_531_">
							<path id="XMLID_532_" class="st10" d="M77.3,103.5c0.5,0.1-0.1,0.6-0.1,1c-0.9,0.2-1.7-0.6-1.8-1.3
								C75.5,101.6,76.6,103.4,77.3,103.5z"/>
						</g>
						<g id="XMLID_529_">
							<path id="XMLID_530_" class="st10" d="M93.1,109.3c0.9-0.3,1.3,0.6,1.9,0.6c0.6,1,0.9,1.8-0.1,2.2c-0.6-0.3-1.1-0.5-1.6-0.8
								C93.3,110.6,93.2,109.9,93.1,109.3z"/>
						</g>
						<g id="XMLID_527_">
							<path id="XMLID_528_" class="st12" d="M92.6,155.6c-0.7-0.5-2,0.1-1.6-1.8C91.5,154.4,92.1,155,92.6,155.6z"/>
						</g>
						<g id="XMLID_525_">
							<path id="XMLID_526_" class="st9" d="M81.2,147l-1.3-1.1c-1.3-0.7-1.9-0.8-2.4-0.8c-1.6-1.3-3.2-2.7-4.6-4
								c0.3-0.3,0.6-0.5,0.9-0.9c-0.1-0.1-0.3-0.3-0.5-0.5c0.2-0.2,0.4-0.4,0.7-0.7c1.7,0.7,2.5,1.1,2.6,1.8c2,1.7,4.1,3.4,6.2,5.1
								c0.9,0.3,0.4,0.9,0.4,1.6C82.5,147.5,81.8,147.2,81.2,147z"/>
						</g>
						<g id="XMLID_523_">
							<path id="XMLID_524_" class="st12" d="M80.5,147.8l-1.3-1.1c-0.1-0.1-0.3-0.1-0.4-0.1c-0.5-0.5-0.9-1-1.4-1.5
								c0.5,0,1.1,0.1,2.4,0.8l1.3,1.1C80.9,147.3,80.7,147.5,80.5,147.8z"/>
						</g>
						<g id="XMLID_521_">
							<path id="XMLID_522_" class="st12" d="M73.3,139.8c-0.5-0.3-0.9-0.6-1.3-0.9c0.1-0.8-0.5-1.1-0.9-1.7
								c-0.1-0.5-0.1-0.9-0.2-1.4c0.7,0.3,1.5,0.6,2.2,0.9c0.3,0.8,0.6,1.6,1,2.4C73.7,139.4,73.5,139.6,73.3,139.8z"/>
						</g>
						<g id="XMLID_519_">
							<path id="XMLID_520_" class="st12" d="M67,132c-0.7-0.6-2.1-0.3-2.6-1.1c0-0.4,0.1-0.9,0.1-1.3c0.6,0.1,1.2,0.3,1.8,0.4
								C66.5,130.7,66.7,131.3,67,132z"/>
						</g>
						<g id="XMLID_517_">
							<path id="XMLID_518_" class="st12" d="M60.1,119.5c-0.8-0.4-0.8-0.9-0.8-1.4c0.4-0.3,0.7-0.6,1.1-0.8
								c-0.3-0.2-0.6-0.5-0.8-0.9c-0.4-0.3-0.4-0.8,0.5-1.6c0.2,0.2,0.4,0.4,0.6,0.6c-0.1,0.3-0.2,0.5-0.2,0.7
								c0.5,0.2,0.9,0.3,1.4,0.5c0,0.1,0.1,0.2,0.2,0.2c-0.2,0.2-0.3,0.4-0.4,0.6c0,0.2,0,0.3,0,0.5C61,118.4,60.5,118.9,60.1,119.5
								z"/>
						</g>
						<g id="XMLID_515_">
							<path id="XMLID_516_" class="st12" d="M61.5,112.3c0.7-0.1,1-0.1,0.5-0.5C62.5,112.1,62.3,112.1,61.5,112.3z"/>
						</g>
						<g id="XMLID_513_">
							<path id="XMLID_514_" class="st12" d="M65.9,110.1c-0.2,0.6-0.6,0.5-0.8,0.9c-0.2-0.4-0.5-0.7-0.8-1c0.3,0.3,0.5,0.7,0.8,1
								C65.2,110.5,65.7,110.7,65.9,110.1z"/>
						</g>
						<g id="XMLID_511_">
							<path id="XMLID_512_" class="st12" d="M71.1,109.3c0.2-0.4,0.7-1.1,1.4,0.1C72,109.3,71.6,109.2,71.1,109.3z"/>
						</g>
						<g id="XMLID_509_">
							<path id="XMLID_510_" class="st9" d="M76.1,110c0.1,0.3,0.2,0.5,0.4,0.8c0.6,0,1.2-0.1,1.8-0.1c0.3,0.2,0.5,0.5,0.7,0.7
								c0.1-0.1,0.2-0.1,0.3-0.1c0.2,0.1,0.3,0.2,0.4,0.3c0.1,0.7,0.2,1.4,0.3,2.1l0.3,0.3c0.6,0.2,1.1,0.5,1.7,0.7
								c0,0.2-0.1,0.3-0.2,0.6c0.1,0.5,0.3,1.1,0.4,1.7c-1.1,0.5-1.5-0.4-2.3-0.4c-0.5-0.4-1.1-0.8-1.7-1.1
								c-0.2-0.1-0.4-0.3-0.5-0.4c0.1-0.3,0.2-0.5,0.3-0.8c-0.1-0.3-0.3-0.6-0.4-0.9c-0.4,0.2-0.7,0.5-1,0.8
								c-0.2-0.1-0.5-0.2-0.8-0.2c0-0.2-0.1-0.4-0.1-0.6c0.3-0.5,0.5-0.9,0.7-1.3c-0.1-0.2-0.3-0.3-0.4-0.5c-0.4-0.7-0.7,0.7-1.1,0
								c-0.2-0.4,0.2-0.8,1.1-1.7C76,109.9,76.1,110,76.1,110z"/>
						</g>
						<g id="XMLID_507_">
							<path id="XMLID_508_" class="st12" d="M77.6,113.5c0.1,0.3,0.3,0.6,0.4,0.9c-0.1,0.2-0.2,0.5-0.3,0.8
								c-0.4-0.3-0.8-0.6-1.2-0.8C76.9,114,77.2,113.8,77.6,113.5z"/>
						</g>
						<g id="XMLID_505_">
							<path id="XMLID_506_" class="st12" d="M79.7,111.6c0.9-0.3,1.4,0.5,2.3,1.1c0.5,0,1-0.1,1.4-0.1c0.4,0.4,0.7,0.8,1,1.3
								c0.7,0.7,1.3,1.5,1.9,2.3c-0.8,0.5-1.7,1.1-2.5,1.6c-0.5-0.3-1-0.6-1.6-0.9c-0.1-0.6-0.3-1.2-0.4-1.7
								c0.1-0.2,0.1-0.4,0.2-0.6c-0.5-0.3-1.1-0.5-1.7-0.7l-0.3-0.3C79.9,113,79.8,112.3,79.7,111.6z"/>
						</g>
						<g id="XMLID_503_">
							<path id="XMLID_504_" class="st9" d="M83.8,117.9c0.9-0.5,1.7-1.1,2.5-1.6c0.8,0.7,1.5,1.4,2.2,2.2c0.6,0.4,1.1,0.8,1.7,1.3
								c0.1,0.5,0.1,1,0.1,1.4c0.1,0.6-0.9,0.9-1.4,1.4c-0.6,0-0.9-0.3-1.1-0.6c0.1-0.9,0.3-1.8,0.4-2.8c-0.8,0.3-1.5,0.5-2.3,0.8
								C85.2,119.1,84.5,118.5,83.8,117.9z"/>
						</g>
						<g id="XMLID_501_">
							<path id="XMLID_502_" class="st12" d="M88.1,119.1c-0.1,1-0.2,1.9-0.4,2.8c-0.6-0.7-1.3-1.4-1.9-2.1
								C86.6,119.6,87.4,119.4,88.1,119.1z"/>
						</g>
						<g id="XMLID_499_">
							<path id="XMLID_500_" class="st12" d="M90.6,119.8c0.5,0.5,1.1,1,1.7,1.5c0.2,0.9,0.4,1.7,0.6,2.6c-0.9,0.1-1.9,0.2-2.8,0.4
								c-0.4-0.6-0.8-1.2-1.2-1.7c0.5-0.4,1.5-0.8,1.4-1.4c0-0.4,0-0.9-0.1-1.4C90.3,119.8,90.5,119.8,90.6,119.8z"/>
						</g>
						<g id="XMLID_497_">
							<path id="XMLID_498_" class="st12" d="M100.2,125.2c0.2,0.4,0.5,0.8,0.7,1.2c-0.5,0.3-0.9,0.5-1.3,0.7
								c-0.4-0.2-0.8-0.3-1.2-0.5c0-0.5-0.2-1-0.3-1.4C98.8,125.2,99.6,125.2,100.2,125.2z"/>
						</g>
						<g id="XMLID_495_">
							<path id="XMLID_496_" class="st9" d="M92.9,123.9c0.6,0,0.8,0.4,1.3,0.7c0.2,0.1,0.3,0.1,0.4,0.1c0.8,0.6,1.6,1.3,2.4,2
								c0.1,0.2,0.3,0.4,0.4,0.6c0.4-0.2,0.7-0.4,1.1-0.6c0.4,0.2,0.8,0.3,1.2,0.5l-0.5,1.5c-0.3,0-0.6,0-0.9,0.1c0,0.6,0,1.3,0,2
								c0.3,0.3,0.6,0.7,0.9,1.1c0.4,0.5,0.7,0.9,1.1,1.4c0.2,0.3,0.4,0.6,0.5,0.9c-0.4,1.8-1.2,1.7-1.7,2.1c-1-0.4-1.2-2.5-2.3-2
								c-0.5-0.9-1.1-2-1.7-2.9c-0.4-0.7-0.9-1.5-1.3-2.2c-1.1-0.8-1.3-1.1-1.6-1.7c-0.7-1-1.3-2.1-2-3C91,124.1,92,124,92.9,123.9z
								"/>
						</g>
						<g id="XMLID_493_">
							<path id="XMLID_494_" class="st12" d="M99.1,128.6c0.3,0.6,0.7,1.2,1,1.7c-0.3,0.5-0.6,0.9-1,1.3c-0.3-0.4-0.6-0.7-0.9-1.1
								c0-0.7,0-1.3,0-2C98.5,128.6,98.8,128.6,99.1,128.6z"/>
						</g>
						<g id="XMLID_491_">
							<path id="XMLID_492_" class="st9" d="M69.8,111.3c0-2.5,1.1-1.1,1.3-2c0.5,0,0.9,0,1.4,0.1c0.3,0.2,0.6,0.4,0.8,0.6
								c-0.1,0.3-0.2,0.6-0.3,0.9c0.3,0.6,0.6,1.3,0.8,1.9c-0.1,0.1-0.2,0.2-0.3,0.4c-0.3-0.2-0.6-0.3-0.9-0.4
								c-0.1-0.4-0.1-0.7-0.2-1.1c-0.2-0.1-0.4-0.1-0.6-0.2c-0.3,0.2-0.6,0.5-0.9,0.8C70.5,111.9,70.2,111.6,69.8,111.3z"/>
						</g>
						<g id="XMLID_489_">
							<path id="XMLID_490_" class="st8" d="M113.6,177.4c-1.9-0.4-4-2.9-6.1-4.2c-0.7-1-1.4-2-2.2-3c-2-0.6-4.1-2.7-5.8-3
								c-0.4-2-3.9-3.1-5.8-4.9c-1.6,0.2-1.8-1.8-3-2.5c-2.2-1.6-4.6-3.8-6.7-4.7c-0.4-0.4-0.8-0.8-1.2-1.3c1.3,0.5,1.2-0.7,2-1.3
								l0.5,0.4l2.2,1.7c0.1,0,0.2,0.1,0.3,0.2c2.4,1.6,4.3,4.7,6.6,5.4l2.3,1.1c1,0.7,1.8,1.4,2.8,2.1c0.7,0.5,1.4,1.1,2.1,1.6
								c0.7,0.6,1.4,1.3,2.1,1.9c0.5,0.5,1,0.9,1.4,1.4c0.2,0.5,0.2,0.9,0.4,1.3c0.6,0.3,1.1,0.5,1.6,0.7c0.7,0.7,1.4,1.5,2,2.1
								c0.7,0.5,1.5,1.7,2.7,1.6c0.6,0.8,1.2,1.6,1.8,2.4C113.7,177,113.7,177.2,113.6,177.4z"/>
						</g>
						<g id="XMLID_487_">
							<path id="XMLID_488_" class="st11" d="M112.2,173.4c-0.1,0.2-0.2,0.5-0.2,0.8C112,173.9,112.1,173.6,112.2,173.4z"/>
						</g>
						<g id="XMLID_485_">
							<path id="XMLID_486_" class="st10" d="M78.8,146.6c0.1,0,0.3,0,0.4,0.1C79.1,146.6,78.9,146.6,78.8,146.6z"/>
						</g>
						<g id="XMLID_483_">
							<path id="XMLID_484_" class="st10" d="M93.1,120.7c0.1-0.3,0.3-0.5,0.4-0.7C93.4,120.2,93.2,120.5,93.1,120.7z"/>
						</g>
						<g id="XMLID_481_">
							<path id="XMLID_482_" class="st12" d="M64.5,129.6c-2.4-1.3-2.1-3.2-3.4-4.3c0-0.3,0.1-0.7,0.1-1c0-0.4-0.1-0.7-0.1-1.1
								c0.7-0.1,1.3-0.2,2-0.3c0,0,0,0.1,0.1,0.2c-0.1,0.3-0.1,0.7-0.1,1c0,0.4-0.1,0.7-0.1,1.1c0.2,0.4,0.4,0.8,0.6,1.2
								c0.1,0.7,0.8,0.6,1.1,1C64.6,128.1,64.5,128.9,64.5,129.6z"/>
						</g>
						<g id="XMLID_479_">
							<path id="XMLID_480_" class="st12" d="M60,114.9c0.3-0.4-0.7-0.4-0.5-1.3l0.1-0.2c0.2-0.1,0.5-0.2,0.7-0.3
								c0.3,0.1,0.6,0.3,0.9,0.5c0,0.2,0,0.4,0,0.6C60.8,114.2,60.7,114.3,60,114.9z"/>
						</g>
						<g id="XMLID_477_">
							<path id="XMLID_478_" class="st12" d="M66,110c0.2-1,0.4-1.1,1.1-0.9c0.3-0.4,0.6-0.9,0.9-1.3c0.4,0.3,0.9,0.5,1.2,0.8
								c0.3-0.2,0.6-0.3,0.9-0.4c0.2,0.7,0.4,1.3,0.9,1c-0.1,1-1.3-0.5-1.3,2c-0.2,0-0.4-0.1-0.6-0.1c-0.1-0.4-0.3-0.7-0.4-1
								c-0.4-0.1-0.8-0.3-1.2-0.3c-0.1,0-0.2,0-0.3,0c-0.2,0-0.4,0-0.7,0.1C66.4,110,66.2,110,66,110z"/>
						</g>
						<g id="XMLID_475_">
							<path id="XMLID_476_" class="st12" d="M65.9,110.1c0.1,0,0.1,0,0.1,0C66,110,65.9,110.1,65.9,110.1z"/>
						</g>
						<g id="XMLID_473_">
							<path id="XMLID_474_" class="st12" d="M76.1,110c0.6-0.2,1.1-0.5,1.7-0.7c0.2,0.5,0.4,0.9,0.5,1.4c-0.6,0-1.2,0-1.8,0.1
								C76.3,110.5,76.2,110.3,76.1,110z"/>
						</g>
						<g id="XMLID_471_">
							<path id="XMLID_472_" class="st12" d="M76,109.9c0,0,0.1,0.1,0.2,0.1C76.1,110,76,109.9,76,109.9z"/>
						</g>
						<g id="XMLID_469_">
							<path id="XMLID_470_" class="st9" d="M90.2,119.7c0.1,0.1,0.3,0.1,0.4,0.1C90.5,119.8,90.3,119.8,90.2,119.7z"/>
						</g>
					</g>
				</g>
			</g>
		</g>
	</g>
</g>
</svg>
