<?xml version="1.0" encoding="utf-8"?>
<!-- Generator: Adobe Illustrator 19.0.0, SVG Export Plug-In . SVG Version: 6.00 Build 0)  -->
<svg version="1.1" id="Layer_1" xmlns="http://www.w3.org/2000/svg" xmlns:xlink="http://www.w3.org/1999/xlink" x="0px" y="0px"
	 viewBox="0 0 255.1 255.1" style="enable-background:new 0 0 255.1 255.1;" xml:space="preserve">
<style type="text/css">
	.st0{fill:#A3D39C;}
	.st1{fill:#C5E1B4;}
	.st2{fill:none;stroke:#F6FAF4;stroke-width:0.5;stroke-miterlimit:10;}
</style>
<rect id="XMLID_8424_" class="st0" width="255.1" height="255.1"/>
<g id="XMLID_64_">
	<g id="XMLID_1743_">
		<path id="XMLID_1747_" class="st1" d="M118.1,184.2c1,24.8,2,49.5,3,74.3c0,0.8,1.3,0.8,1.2,0c-1-24.8-2-49.5-3-74.3
			C119.3,183.4,118,183.4,118.1,184.2L118.1,184.2z"/>
	</g>
</g>
<g id="XMLID_65_">
	<g id="XMLID_522_">
		<path id="XMLID_526_" class="st1" d="M119,186.7c0.3-4-1.9-7.7-5.5-9.5c-0.7-0.3-1.4,0.7-0.6,1.1c3.2,1.6,5.1,4.8,4.9,8.4
			C117.7,187.5,118.9,187.5,119,186.7L119,186.7z"/>
	</g>
</g>
<g id="XMLID_66_">
	<g id="XMLID_516_">
		<path id="XMLID_520_" class="st1" d="M114.6,179.5c-0.1-2.1,0.2-4.1,0.9-6.1c0.3-0.8-0.9-1.1-1.2-0.3c-0.8,2.1-1.1,4.2-1,6.4
			C113.4,180.3,114.6,180.3,114.6,179.5L114.6,179.5z"/>
	</g>
</g>
<g id="XMLID_67_">
	<g id="XMLID_510_">
		<path id="XMLID_514_" class="st1" d="M113.7,173c-6.1,1.3-12.2,2.1-18.2-0.2c-0.8-0.3-1.1,0.9-0.3,1.2c6.1,2.4,12.5,1.5,18.8,0.2
			C114.9,174.1,114.5,172.9,113.7,173L113.7,173z"/>
	</g>
</g>
<g id="XMLID_68_">
	<g id="XMLID_504_">
		<path id="XMLID_508_" class="st1" d="M112,178.8c-7.7,1.5-15.8,2.8-22.5-2.2c-0.6-0.5-1.3,0.6-0.6,1.1c7,5.2,15.5,3.9,23.5,2.3
			C113.1,179.9,112.8,178.7,112,178.8L112,178.8z"/>
	</g>
</g>
<g id="XMLID_69_">
	<g id="XMLID_647_">
		<g id="XMLID_651_">
			<g id="XMLID_652_">
				<g id="XMLID_653_">
					<path id="XMLID_740_" class="st1" d="M91.7,175.1c0,0-0.1,0.2-0.1,0.2C91.6,175.3,91.7,175,91.7,175.1z"/>
					<polygon id="XMLID_739_" class="st1" points="92,174.7 92,174.8 92.1,174.6 					"/>
					<path id="XMLID_738_" class="st1" d="M92.2,174.8c0.1-0.3-0.1,0-0.1-0.1l0-0.1l-0.1,0.3C92.1,174.9,92.2,174.7,92.2,174.8z"/>
					<path id="XMLID_737_" class="st1" d="M92,175.5C92,175.4,92,175.4,92,175.5C92,175.5,92,175.5,92,175.5
						C92,175.5,92,175.5,92,175.5z"/>
					<path id="XMLID_736_" class="st1" d="M92,175.5C91.9,175.5,91.9,175.6,92,175.5L92,175.5z"/>
					<path id="XMLID_735_" class="st1" d="M92.1,175.5l-0.1,0.1c0,0.1,0,0.1,0,0.2C92,175.7,92,175.6,92.1,175.5z"/>
					<path id="XMLID_734_" class="st1" d="M92.2,175.3L92.2,175.3C92.2,175.3,92.2,175.3,92.2,175.3z"/>
					<path id="XMLID_733_" class="st1" d="M92.1,175.4L92.1,175.4C92.2,175.2,92.2,175.1,92.1,175.4
						C92.2,175.2,92.1,175.3,92.1,175.4z"/>
					<path id="XMLID_732_" class="st1" d="M92.1,175.3c0-0.1,0-0.1,0.1-0.2C92.1,175.1,92,175.4,92.1,175.3z"/>
					<path id="XMLID_731_" class="st1" d="M92.3,174.5l0-0.1L92.3,174.5C92.3,174.4,92.3,174.6,92.3,174.5z"/>
					<path id="XMLID_730_" class="st1" d="M92.2,175.7c0-0.1,0.1-0.2,0.1-0.3l0,0.1C92.2,175.6,92.2,175.6,92.2,175.7z"/>
					<path id="XMLID_729_" class="st1" d="M92.3,175.4l0.1-0.1C92.3,175.3,92.3,175.4,92.3,175.4z"/>
					<polygon id="XMLID_728_" class="st1" points="92.3,174.9 92.2,175.1 92.4,174.9 					"/>
					<polygon id="XMLID_727_" class="st1" points="92.3,175.8 92.2,175.9 92.3,175.7 					"/>
					<path id="XMLID_726_" class="st1" d="M92.3,175.8c-0.1,0.1-0.1,0.2-0.1,0.3C92.2,176.1,92.3,176,92.3,175.8
						C92.3,175.9,92.3,175.9,92.3,175.8z"/>
					<path id="XMLID_725_" class="st1" d="M92.4,175.7c0,0,0,0.1-0.1,0.1C92.4,175.8,92.4,175.8,92.4,175.7z"/>
					<path id="XMLID_724_" class="st1" d="M92.4,175.4c0,0-0.1,0.2-0.1,0.2L92.4,175.4L92.4,175.4z"/>
					<path id="XMLID_723_" class="st1" d="M92.4,175.4L92.4,175.4C92.4,175.4,92.4,175.4,92.4,175.4
						C92.4,175.4,92.4,175.4,92.4,175.4z"/>
					<path id="XMLID_722_" class="st1" d="M92.4,175.4L92.4,175.4C92.4,175.4,92.4,175.4,92.4,175.4z"/>
					<path id="XMLID_721_" class="st1" d="M92.3,175.1c0.1-0.1,0.1-0.2,0.2-0.4C92.5,174.8,92.4,174.9,92.3,175.1z"/>
					<path id="XMLID_720_" class="st1" d="M92.4,175.1L92.4,175.1c0,0-0.1,0.1-0.1,0.1L92.4,175.1z"/>
					<polygon id="XMLID_719_" class="st1" points="92.5,175.1 92.4,175.1 92.4,175.1 					"/>
					<path id="XMLID_718_" class="st1" d="M92.5,175.5C92.5,175.4,92.5,175.4,92.5,175.5c0.1-0.1,0.1-0.2,0.1-0.2
						C92.5,175.4,92.4,175.5,92.5,175.5z"/>
					<path id="XMLID_717_" class="st1" d="M92.4,175.4C92.4,175.4,92.4,175.4,92.4,175.4C92.4,175.4,92.4,175.4,92.4,175.4z"/>
					<polygon id="XMLID_716_" class="st1" points="92.7,175.5 92.7,175.4 92.7,175.5 					"/>
					<path id="XMLID_715_" class="st1" d="M92.5,175.3C92.5,175.3,92.5,175.3,92.5,175.3C92.5,175.3,92.5,175.3,92.5,175.3
						C92.5,175.3,92.5,175.3,92.5,175.3z"/>
					<path id="XMLID_714_" class="st1" d="M92.5,175.6c0,0,0-0.1,0-0.1C92.5,175.6,92.5,175.7,92.5,175.6z"/>
					<path id="XMLID_713_" class="st1" d="M92.4,175.5L92.4,175.5C92.4,175.5,92.4,175.5,92.4,175.5z"/>
					<path id="XMLID_712_" class="st1" d="M92.4,175.5c0,0,0-0.1,0.1-0.1C92.5,175.4,92.4,175.4,92.4,175.5
						C92.4,175.4,92.4,175.5,92.4,175.5z"/>
					<path id="XMLID_711_" class="st1" d="M93.2,174.2c-0.1,0.2-0.2,0.3-0.1,0.1c-0.1,0.1-0.3,0.7-0.4,1.1c0-0.1,0.1-0.2,0.1-0.3
						c0-0.1,0-0.3,0.1-0.4c0.1-0.1,0,0.1,0,0.2C93,174.7,93.1,174.6,93.2,174.2l-0.1,0.2C93.1,174.3,93.2,174.2,93.2,174.2z"/>
					<path id="XMLID_710_" class="st1" d="M92.7,175.4L92.7,175.4c0,0.1,0,0.1-0.1,0.3C92.6,175.6,92.7,175.5,92.7,175.4L92.7,175.4
						L92.7,175.4z"/>
					<path id="XMLID_709_" class="st1" d="M92.6,175.4c0.1-0.2,0.1-0.3,0.2-0.5c0,0-0.1,0.2-0.1,0.2
						C92.7,175.1,92.6,175.2,92.6,175.4C92.6,175.4,92.6,175.4,92.6,175.4c0,0,0,0.1,0,0.1l0,0l0,0l0,0
						C92.5,175.5,92.5,175.5,92.6,175.4L92.6,175.4C92.6,175.4,92.6,175.4,92.6,175.4C92.6,175.4,92.6,175.4,92.6,175.4l0,0.1l0,0
						L92.6,175.4C92.6,175.4,92.6,175.4,92.6,175.4z"/>
					<path id="XMLID_708_" class="st1" d="M92.7,174.3C92.7,174.3,92.7,174.3,92.7,174.3C92.7,174.3,92.7,174.3,92.7,174.3z"/>
					<path id="XMLID_707_" class="st1" d="M92.7,174.4C92.7,174.4,92.6,174.5,92.7,174.4C92.6,174.4,92.7,174.4,92.7,174.4
						c0,0-0.1,0.1-0.1,0.2l0,0c0,0.1-0.1,0.3-0.1,0.4C92.6,174.7,92.6,174.6,92.7,174.4z"/>
					<path id="XMLID_706_" class="st1" d="M92.7,174.9L92.7,174.9l0.1-0.3l0,0.1C92.7,174.6,92.7,174.8,92.7,174.9z"/>
					<polygon id="XMLID_705_" class="st1" points="92.7,175.6 92.6,175.8 92.7,175.5 					"/>
					<polygon id="XMLID_704_" class="st1" points="92.7,175.6 92.7,175.7 92.7,175.6 					"/>
					<path id="XMLID_703_" class="st1" d="M96.3,173.8L96.3,173.8L96.3,173.8z"/>
					<path id="XMLID_702_" class="st1" d="M96.2,173.8L96.2,173.8C96.2,173.9,96.2,173.8,96.2,173.8z"/>
					<path id="XMLID_701_" class="st1" d="M94.2,176c0,0.2-0.1,0.5,0,0.3L94.2,176C94.2,176,94.2,176,94.2,176z"/>
					<path id="XMLID_700_" class="st1" d="M95.4,174.9L95.4,174.9c0,0,0,0.1,0,0.1C95.3,175,95.4,174.9,95.4,174.9z"/>
					<path id="XMLID_699_" class="st1" d="M95.5,174l0,0.1C95.5,174.1,95.5,174,95.5,174z"/>
					<path id="XMLID_698_" class="st1" d="M96.8,173.6l0-0.2C96.8,173.4,96.8,173.5,96.8,173.6z"/>
					<path id="XMLID_697_" class="st1" d="M93.3,175.7c0,0.1,0,0.1,0,0.1C93.4,175.7,93.4,175.5,93.3,175.7z"/>
					<path id="XMLID_696_" class="st1" d="M96.1,176.1c0,0,0-0.1,0-0.1C96.1,176,96.1,176.1,96.1,176.1z"/>
					<path id="XMLID_695_" class="st1" d="M93.4,175.8C93.4,175.8,93.4,175.8,93.4,175.8C93.4,175.8,93.4,175.8,93.4,175.8
						C93.3,175.9,93.3,176,93.4,175.8z"/>
					<path id="XMLID_694_" class="st1" d="M98.4,173.8C98.4,173.8,98.4,173.8,98.4,173.8C98.4,173.8,98.4,173.8,98.4,173.8z"/>
					<path id="XMLID_693_" class="st1" d="M99.2,175.9C99.1,175.9,99.1,175.9,99.2,175.9C99.1,175.9,99.1,175.9,99.2,175.9z"/>
					<path id="XMLID_692_" class="st1" d="M92.9,175.7C92.9,175.7,92.9,175.8,92.9,175.7L92.9,175.7z"/>
					<path id="XMLID_691_" class="st1" d="M93.1,174.9C93.1,174.9,93.2,174.8,93.1,174.9C93.2,174.9,93.1,174.9,93.1,174.9z"/>
					<path id="XMLID_690_" class="st1" d="M93.9,174.6L93.9,174.6C93.9,174.5,93.9,174.5,93.9,174.6z"/>
					<path id="XMLID_689_" class="st1" d="M92.9,175.6C92.9,175.7,92.9,175.7,92.9,175.6C92.9,175.7,92.9,175.7,92.9,175.6z"/>
					<path id="XMLID_688_" class="st1" d="M92.9,175.7C92.9,175.7,92.9,175.7,92.9,175.7C92.9,175.7,92.9,175.8,92.9,175.7z"/>
					<path id="XMLID_687_" class="st1" d="M92.9,175.7C92.9,175.7,92.9,175.7,92.9,175.7C92.9,175.7,92.9,175.7,92.9,175.7
						C92.9,175.7,92.9,175.7,92.9,175.7z"/>
					<path id="XMLID_686_" class="st1" d="M97.5,174.4C97.5,174.4,97.5,174.4,97.5,174.4C97.5,174.3,97.5,174.4,97.5,174.4z"/>
					<polygon id="XMLID_685_" class="st1" points="95,173.8 95,173.8 95,173.8 					"/>
					<path id="XMLID_684_" class="st1" d="M95,173.7c-0.1,0.3-0.1,0.2-0.1,0.2l-0.1,0.6L95,173.7z"/>
					<path id="XMLID_677_" class="st1" d="M96.5,173.8l0-0.2c0.1-0.3,0.1-0.2,0.1-0.5c0,0.7-0.1,0.1-0.2,0.7l0-0.1c0,0,0,0,0,0
						c0-0.3-0.1,0.5-0.1,0.4c0-0.1,0-0.2,0-0.2l0,0.2c0,0,0-0.1,0-0.1l-0.1,0l0,0c0,0.1-0.1,0.3-0.1,0.3c0-0.1,0-0.1,0-0.2l0,0.2
						c0-0.2,0-0.3,0.1-0.3c0-0.7,0,0.2-0.1-0.2l0-0.1c0-0.4,0-0.2,0-0.5c0,0.1,0,0.6-0.1,0.8c0-0.1,0-0.1,0,0.1c0-0.2,0-0.2,0-0.2
						l0-0.3c0,0.1,0,0.3-0.1,0.4c0,0,0-0.3,0-0.5c0-0.1,0,0.4-0.1,0.5c0-0.1-0.1,0-0.1,0.2c0-0.1,0-0.2,0-0.3l-0.1,0.3
						c0,0,0-0.1,0-0.1c0,0.1,0,0.3-0.1,0.4c-0.1,0.3,0-0.5-0.1-0.1c0-0.1,0-0.2,0-0.3c-0.1,0.3-0.1,0.2-0.2,0.5l0-0.2
						c0,0.2-0.1,0.5-0.1,0.7c0,0.1,0,0.2,0,0.3l-0.1,0.2c0-0.1,0-0.2,0.1-0.3l0,0.1c0-0.1,0-0.3,0.1-0.5c0,0.1,0,0.1,0,0.2
						c0-0.2,0.1-0.4,0.1-0.6c0,0,0,0.1,0,0.1c0-0.1,0-0.1,0-0.1c0,0,0,0,0,0.1l0-0.4l0,0.1l0-0.2c-0.1,0.3-0.2,0.9-0.3,1
						c0.1-0.3,0.1-0.4,0.1-0.7c0,0.3,0.1-0.1,0.1-0.1c0,0,0-0.2,0-0.2l-0.1,0.3c0-0.2,0-0.2,0-0.3c-0.1,0.5-0.1,0.3-0.2,0.5
						c0-0.2,0.1-0.3,0.1-0.3c0-0.4-0.1,0.6-0.1,0.2c0,0,0,0,0-0.1c0,0.1-0.1,0,0-0.1l0,0c0-0.1-0.1,0-0.2,0.4c0-0.1,0.1-0.5,0.1-0.6
						l-0.4,1.4c0.1-0.4,0.2-1.2,0.3-1.4c0-0.1,0-0.1-0.1,0c0,0.1-0.1,0.5-0.1,0.6c0.1-0.4,0-0.2,0.1-0.6c0,0.1-0.1,0.6-0.2,0.6
						c0-0.1,0.1-0.6,0.1-0.6l-0.2,0.5c0-0.1,0.1-0.5,0.1-0.6c0,0.1,0,0-0.1,0l0,0.1c0-0.1-0.2,0.8-0.3,0.7c0-0.1,0.2-0.7,0.2-0.8
						c-0.1,0.3-0.4,1.3-0.5,1.5l0-0.2l-0.1,0.2c0.1-0.4,0.4-1.3,0.5-1.6c0-0.1,0-0.2,0-0.2c0-0.2,0.1-0.2,0.1-0.2l0-0.1
						c-0.1,0.3-0.1,0.3-0.2,0.6l0.2-0.3c-0.1,0.3-0.3,0.9-0.3,0.8c0-0.1,0.2-0.6,0.2-0.7c0,0.1-0.1,0.2-0.1,0.1l0.1-0.2
						c0-0.1-0.2,0.4-0.1,0.1c0,0,0.1-0.4,0-0.2c-0.1,0.4-0.4,1.5-0.5,1.8c0,0,0-0.4,0.1-0.6c0.1-0.3,0.2-0.7,0.3-0.9
						c0,0.1-0.1,0.2-0.1,0.2c0-0.1,0.1-0.3,0-0.2c-0.1,0.3,0,0-0.1,0.3c-0.1,0.1,0-0.1,0-0.1c0,0.2-0.2,0.7-0.3,0.8
						c0-0.1,0-0.2,0.1-0.2c0,0,0-0.2-0.1-0.2c0-0.1,0-0.2,0.1-0.3c0,0.1-0.1,0.2-0.1,0.2c0.1-0.3,0,0,0.1-0.4
						c-0.1,0.2-0.1,0.3-0.2,0.4c-0.1,0.3,0,0.1,0.1,0c-0.1,0.4-0.3,0.8-0.4,1c-0.1,0.1,0.1-0.3,0-0.2c-0.1-0.1-0.3,0.7-0.3,0.4
						c0.1-0.3,0.2-0.5,0.2-0.7c0.1-0.1,0,0.2,0,0.2l0-0.1c0-0.1,0.1-0.1,0.1-0.1c0.1-0.2-0.1-0.1-0.1-0.3c0,0.1-0.1,0.2-0.1,0.3l0,0
						c-0.1,0.2-0.1,0.3-0.1,0.4c-0.1,0.1-0.2,0.4-0.2,0.2l0.1-0.3c0,0.1,0,0.2,0,0.1c-0.1,0.1,0.1-0.4-0.1,0l0,0.2
						c-0.1,0.1-0.2,0.4-0.2,0.3c-0.1,0.3,0,0-0.1,0.3c0.1-0.4,0.1,0,0.2-0.4c-0.1,0.4,0,0.2-0.1,0.5c0-0.1,0.1-0.2,0.1-0.1
						c0,0,0-0.1,0-0.1l0,0l0,0c0,0,0,0,0,0c0,0,0-0.1,0-0.2c0.1-0.2,0.1-0.2,0.2-0.3c0,0.1,0,0.1-0.1,0.2l0.1-0.2
						c-0.1,0.2-0.1,0.4-0.2,0.5l0,0c0,0.1,0,0.2,0,0.1c0,0.1,0.1-0.2,0.1-0.1l0.1-0.1l0,0.1c0,0,0.2-0.3,0.2,0.1c0,0,0.1-0.1,0.1,0
						l0,0.2c0-0.1,0,0.2,0.1,0c-0.1,0.5,0.1,0.1,0.1,0.2l0.1-0.2c0,0,0.1,0,0.1-0.1l0.1-0.2c0.1-0.2,0,0.2,0.1,0.2c0,0.1,0,0.1,0,0
						c-0.1,0.5,0.2-0.3,0.2,0c0-0.1,0,0,0,0c0,0,0,0,0,0l0,0c0,0,0,0.1,0,0.1c0-0.1,0-0.1,0-0.1c0,0,0,0,0.1-0.1l0,0.2l0,0
						c0,0.1,0-0.1,0.1-0.3c0,0,0-0.1,0.1-0.1c-0.1,0.4,0.1-0.1,0,0.3c0.1-0.2,0.1-0.1,0.2-0.5c0,0.1,0,0.1,0,0.1c0,0.1,0,0.1,0.1,0
						l-0.1,0.3l0.1-0.4c0,0.2,0,0.3-0.1,0.5c0.1-0.3,0.1-0.1,0.2-0.5l0,0.2c0,0,0.1-0.3,0.1-0.1c0,0.4,0.2,0.1,0.2,0.4
						c0.1-0.6,0,0.3,0.1-0.2c0,0.1,0,0.2-0.1,0.3c0.1-0.1,0,0.2,0.1-0.1c0,0.1,0,0.2-0.1,0.3c0,0,0-0.1,0,0c0,0.1,0,0.1,0,0.2
						c0.1,0,0.1-0.4,0.2-0.8c0,0.2,0,0.2,0.1-0.1c0,0.1,0,0.3-0.1,0.3c0,0,0.1,0.2,0.1-0.1c0,0.1,0,0,0,0c0,0,0,0.1,0.1,0l0-0.1
						c0.1-0.4,0-0.1,0.1-0.1l0,0c0,0.3,0-0.1,0.1,0.2l0-0.2c0.1-0.5,0,0.3,0.1,0.1l0-0.1c0-0.2,0,0.7,0,0.8c0,0,0,0.1,0,0.1
						c0,0.3,0-0.3,0.1-0.4c0,0.2-0.1,0.4,0,0.5c0,0.1,0.1-0.5,0.2-0.2c0-0.1,0-0.3,0-0.4c0,0,0,0.5,0.1,0.1l0,0.1
						c0-0.1,0.1-0.2,0.1-0.4c0,0.8,0.2-0.4,0.1,0.4l0.1,0l0,0.1c0,0.1,0.1-0.1,0.1-0.3c0,0.1,0,0.1,0,0.2c0.1,0.2,0.1,0.1,0.1-0.3
						l0,0.2c0-0.1,0.1,0.4,0.2,0.1c0,0,0,0.1,0,0.1c0.1-0.3,0.2,0.7,0.2-0.2l0.1-0.2c-0.1-0.1,0-0.4,0-0.5c0-0.1,0.1,0.3,0,0.3l0,0
						c0,0.5,0.1,0.2,0.1,0.5c0.1,0,0.3,0.2,0.4,0.3l0-0.4l0,0c0,0.1,0,0.3,0,0.3c0,0.2,0-0.2,0-0.3c0.1,0.1,0,0.4,0,0.4l0,0l0,0
						c0-0.1,0-0.3,0-0.3c0,0.1,0,0.2,0,0.2c0,0,0,0,0,0l0.1,0l0-0.3c0-0.1,0,0,0-0.3c0.1,0.5,0.2,0.2,0.2,0.3c0-0.2,0.1-0.2,0.1-0.2
						c0-0.1,0-0.4,0-0.3c0,0.7,0.1,0.3,0.1,0.8c0-0.3,0.1-0.1,0-0.5c0,0.1,0,0.2,0.1,0.4c0-0.3,0.2,0.2,0.2,0.1c0-0.1,0-0.2,0-0.4
						l0.1,0.4c0,0,0-0.5,0-0.2c0-0.1,0-0.2,0-0.2c0.2,0.4,0.3-0.4,0.6,0.4c0-0.2,0-0.2,0-0.2c0,0,0-0.2-0.1-0.3l0.1,0.3
						c0-0.3,0.1,0,0-0.3l0,0.1c0-0.4-0.2-0.8-0.2-1.3c0,0.4-0.2-0.6-0.1,0c0-0.1,0-0.2,0-0.3c0,0.2,0,0.2,0,0.2l0-0.1
						c-0.1,0.1-0.1-0.1-0.2-0.3l0,0.2c0,0,0-0.1-0.1-0.2c0,0.4,0.1,0,0.1,0.4c-0.1-0.5-0.1,0-0.2-0.5c0,0,0,0.3,0,0.3l0-0.1l0,0.2
						c0,0-0.1-0.2-0.1-0.3c0,0,0,0,0,0c0-0.2-0.1,0.1-0.1,0l0,0.1c-0.1,0.1-0.2,0-0.2,0.3l0,0.1c0,0.2-0.1-0.1-0.1,0l0,0
						c0,0.1,0,0.2,0,0.2c0-0.1,0-0.3,0-0.4c0,0.2,0,0.2,0,0.6l0-0.2c0,0.2,0,0.3,0,0.3c0-0.2,0-0.3,0-0.5c-0.1-0.4-0.1,0.4-0.1-0.2
						c0,0.5,0.1,0.3,0.1,0.4c0,0.2,0,0.4,0,0.3c0,0-0.1-0.7-0.1-0.6c0,0,0,0,0,0c0-0.1,0,0.2-0.1,0c0,0.3,0,0,0,0.4l0-0.1
						c0,0.1,0,0.6-0.1,0.3c0-0.1,0-0.2,0-0.2c0-0.1,0,0.1,0,0c0-0.4,0.1-0.1,0.1-0.4c0-0.2,0,0.3,0-0.1c0,0.5-0.1-0.1-0.1,0.4l0-0.2
						c0,0,0,0.1,0,0.1l0-0.3c0,0.3-0.1-0.2-0.1-0.1c0.1,0,0,0.3,0,0.5c-0.1,0.3,0-0.6-0.1-0.5c0,0,0,0.1,0,0.3c0,0,0-0.1,0-0.3
						c-0.1,0,0,0.2,0,0.4c0-0.3,0,0.1,0,0.2l0-0.2c-0.1-0.2,0,0.5-0.1,0.3l0-0.3l0,0.1l0-0.3c0,0.2,0,0.2-0.1,0.1c0,0.2,0,0.4,0,0.4
						c0-0.1,0-0.2,0-0.2c0-0.2,0-0.3,0-0.1c0-0.1,0-0.2,0-0.2c0-0.2,0,0-0.1,0c0,0,0,0,0,0.1l-0.1,0.3c0-0.1,0-0.2,0-0.2
						c0,0,0,0.1,0,0.2c0-0.2,0-0.4,0-0.5l-0.1,0.2c0-0.1,0-0.2,0-0.3c0-0.1-0.1,0.4-0.1,0.2c0,0,0,0.1,0,0.1c0,0-0.1-0.3-0.1,0
						l0-0.4c0,0.1,0,0.4-0.1,0.6c0,0.1,0-0.3,0-0.4C96.5,173.8,96.5,174.1,96.5,173.8C96.5,173.8,96.5,173.8,96.5,173.8z
						 M96.1,173.9C96.1,173.9,96.1,173.7,96.1,173.9C96.1,174.1,96.1,174,96.1,173.9z M95.4,174.4C95.4,174.3,95.4,174.4,95.4,174.4
						C95.4,174.5,95.4,174.5,95.4,174.4z M93.1,175.6L93.1,175.6C93.1,175.7,93.1,175.6,93.1,175.6z M93.1,175.5
						C93.1,175.5,93.1,175.5,93.1,175.5C93.1,175.5,93.1,175.5,93.1,175.5C93.1,175.5,93.1,175.4,93.1,175.5z M97.7,176L97.7,176
						C97.7,175.9,97.7,176,97.7,176z"/>
					<path id="XMLID_676_" class="st1" d="M95.5,174.1c0,0,0,0.1,0,0.1C95.5,174.2,95.5,174.1,95.5,174.1z"/>
					<polygon id="XMLID_675_" class="st1" points="96.7,173.7 96.7,173.7 96.8,173.6 					"/>
					<path id="XMLID_674_" class="st1" d="M94.3,173.7c0,0,0,0.1,0,0.1C94.3,173.8,94.3,173.7,94.3,173.7z"/>
					<path id="XMLID_673_" class="st1" d="M92.8,175.8L92.8,175.8c0,0,0-0.1,0-0.1C92.8,175.7,92.8,175.8,92.8,175.8z"/>
					<path id="XMLID_672_" class="st1" d="M93,174.3C93,174.3,93,174.3,93,174.3l-0.1,0.1C93,174.4,93,174.4,93,174.3z"/>
					<path id="XMLID_671_" class="st1" d="M93,175c0.1-0.2,0-0.1,0-0.1l0,0C92.9,175.2,92.9,175.1,93,175z"/>
					<path id="XMLID_670_" class="st1" d="M93,174.9C93,174.9,93,174.9,93,174.9C92.9,175,93,175,93,174.9z"/>
					<path id="XMLID_669_" class="st1" d="M93,175.6c0-0.1-0.1,0.2-0.1,0.2C92.9,176,93.1,175.5,93,175.6z"/>
					<polygon id="XMLID_668_" class="st1" points="93.2,174.4 93.1,174.6 93.2,174.4 					"/>
					<path id="XMLID_667_" class="st1" d="M93.3,174.6L93.3,174.6C93.3,174.6,93.2,174.6,93.3,174.6
						C93.3,174.6,93.3,174.7,93.3,174.6z"/>
					<path id="XMLID_666_" class="st1" d="M93.2,174.6C93.2,174.6,93.2,174.6,93.2,174.6C93.2,174.6,93.2,174.6,93.2,174.6z"/>
					<polygon id="XMLID_665_" class="st1" points="93.3,174.3 93.3,174.4 93.3,174.4 					"/>
					<path id="XMLID_664_" class="st1" d="M93.6,174.8L93.6,174.8c0.1-0.1,0.1-0.2,0.1-0.2C93.6,174.6,93.6,174.7,93.6,174.8z"/>
					<path id="XMLID_663_" class="st1" d="M93.7,174.1c0,0.1,0,0.1,0,0.2l0.1-0.3L93.7,174.1z"/>
					<path id="XMLID_662_" class="st1" d="M93.8,174c0-0.1,0.1-0.2,0.1-0.2C93.8,173.9,93.8,174,93.8,174z"/>
					<polygon id="XMLID_661_" class="st1" points="94.1,174.5 94.1,174.5 94,175 					"/>
					<path id="XMLID_660_" class="st1" d="M94.8,173.4c0-0.1-0.1,0.3-0.1,0.1c0,0.1,0,0.1,0,0.2C94.7,173.7,94.7,173.8,94.8,173.4z"
						/>
					<path id="XMLID_659_" class="st1" d="M94.7,173.8C94.7,173.8,94.7,173.9,94.7,173.8C94.7,173.9,94.7,173.8,94.7,173.8z"/>
					<polygon id="XMLID_658_" class="st1" points="99.3,176.1 99.3,176.2 99.3,176.1 					"/>
					<path id="XMLID_657_" class="st1" d="M99.3,175.7l0.1,0.3L99.3,175.7C99.3,175.8,99.3,175.8,99.3,175.7z"/>
					<path id="XMLID_656_" class="st1" d="M96.1,173.3L96.1,173.3c0,0.2,0,0.2,0,0.2L96.1,173.3z"/>
					<polygon id="XMLID_655_" class="st1" points="96.3,173.5 96.3,173.5 96.3,173.8 					"/>
					<path id="XMLID_654_" class="st1" d="M96.6,173.2C96.6,173.2,96.6,173.2,96.6,173.2C96.6,173.2,96.6,173.5,96.6,173.2z"/>
				</g>
			</g>
		</g>
	</g>
</g>
<g id="XMLID_70_">
	<g id="XMLID_498_">
		<path id="XMLID_502_" class="st1" d="M91.8,174.5c-0.8,1.8-1.1,3.7-1,5.7c0,0.8,1.3,0.8,1.2,0c-0.1-1.9,0.2-3.6,0.9-5.3
			C93.3,174.1,92.1,173.8,91.8,174.5L91.8,174.5z"/>
	</g>
</g>
<g id="XMLID_72_">
	<g id="XMLID_1737_">
		<path id="XMLID_1741_" class="st1" d="M91.2,179.5c-4.2,0.9-6.5,4.2-7.4,8.3c-1.5,6.9-1.1,14.6-1.5,21.7
			c-0.8,16.1-1.2,32.1-1.2,48.2c0,0.8,1.2,0.8,1.2,0c0.1-12.8,0.3-25.6,0.8-38.4c0.2-6.2,0.5-12.5,0.9-18.7
			c0.4-6.4-0.8-18.2,7.5-19.9C92.3,180.6,91.9,179.4,91.2,179.5L91.2,179.5z"/>
	</g>
</g>
<g id="XMLID_74_">
	<g id="XMLID_492_">
		<path id="XMLID_496_" class="st1" d="M112.5,173.7c3.9-5.3,5.4-11,8.5-16.6c2.7-4.9,9-9,10.1-14.6c0.1-0.4-0.2-0.8-0.6-0.8
			c-2.7,0.3-4.8,1.2-6.8,2.9c-1.7,1.4-3,3.9-4.9,5.1c-3.1,2-4.4,0.7-7.2,1c-5.4,0.6-8.6,5.3-8.3,10.5c0.1,0.8,1.3,0.8,1.2,0
			c-0.3-5,3-9.5,8.4-9.3c2.2,0.1,3.3,1,5.3-0.1c1.3-0.7,2.3-2.1,3.2-3.2c1-1.1,2-2.2,3.1-3.2c0.7-0.5,1.5-1,2.2-1.5
			c2.4,0.1,2.8,0.8,1.2,2.1c-1.1,2.4-3.7,4.5-5.4,6.6c-1.5,2-2.8,3.9-3.8,6.2c-2.2,5.1-4,9.7-7.3,14.2
			C110.9,173.7,112,174.3,112.5,173.7L112.5,173.7z"/>
	</g>
</g>
<g id="XMLID_76_">
	<g id="XMLID_486_">
		<path id="XMLID_490_" class="st1" d="M117.5,152.1c1.4-5.1,3.6-9.8,5.4-14.7c1.1-3.2,2.8-7.9,1.7-11.3c-0.1-0.3-0.3-0.4-0.6-0.5
			c-2.8-0.2-4.8,5.2-5.6,7.1c-2.5,6-3.4,12.5-6,18.4c-0.3,0.7,0.8,1.4,1.1,0.6c3.1-7.3,3.7-15.8,8-22.5c3.4-5.2,1.8,1.7,1.3,3.8
			c-0.5,2.1-1.3,4.2-2,6.2c-1.6,4.1-3.4,8.1-4.5,12.4C116.1,152.5,117.3,152.8,117.5,152.1L117.5,152.1z"/>
	</g>
</g>
<g id="XMLID_78_">
	<g id="XMLID_480_">
		<path id="XMLID_484_" class="st1" d="M113.4,150.4c-0.6-1.8,1.4-5.3,2-7c0.8-2.1,1.5-4.2,2.3-6.4c0.3-0.8-0.9-1.1-1.2-0.3
			c-1,2.8-2,5.5-3,8.3c-0.6,1.7-1.9,3.8-1.3,5.7C112.4,151.5,113.6,151.1,113.4,150.4L113.4,150.4z"/>
	</g>
</g>
<g id="XMLID_80_">
	<g id="XMLID_474_">
		<path id="XMLID_478_" class="st1" d="M112.4,150c0.5-6.2,1-12.4,1.5-18.6c0.3-3.2,2.2-9.4-0.7-11.8c-0.2-0.2-0.5-0.2-0.8-0.1
			c-2.8,1.3-2.3,7.4-2.6,9.9c-0.6,6.9-1.3,13.9-1.9,20.8c-0.1,0.8,1.2,0.8,1.2,0c0.4-4.6,0.8-9.3,1.3-13.9c0.2-2.3,0.4-4.6,0.6-6.9
			c0.1-1,0.7-9.7,2.1-5.4c0.5,1.4-0.3,4-0.5,5.6c-0.2,2.5-0.4,5-0.6,7.4c-0.4,4.3-0.7,8.7-1.1,13C111.1,150.8,112.3,150.8,112.4,150
			L112.4,150z"/>
	</g>
</g>
<g id="XMLID_82_">
	<g id="XMLID_468_">
		<path id="XMLID_472_" class="st1" d="M107.9,151.2c0.1-6.9,0.1-13.9,0-20.8c0-1.4,0.6-6-2.1-5.8c-2.1,0.1-2.4,4-2.5,5.5
			c-0.5,6.7-0.2,13.6-0.3,20.3c0,0.8,1.2,0.8,1.2,0c0.1-3.8,0.1-7.6,0.2-11.4c0-2.3-0.8-8.5,1.2-9.3c2.1-0.8,1.1,2.2,1.1,3.6
			c0,2,0,4,0,6c0,4,0,7.9-0.1,11.9C106.6,152,107.9,152,107.9,151.2L107.9,151.2z"/>
	</g>
</g>
<g id="XMLID_84_">
	<g id="XMLID_462_">
		<path id="XMLID_466_" class="st1" d="M103,150.6c-1.4-5.1-2.9-10.3-4.3-15.4c-0.3-1.2-0.5-4.7-2.6-4.2c-2.2,0.5-1.4,6.2-1.3,7.5
			c0.3,5.1,1.7,10.1,3.1,15c0.2,0.8,1.4,0.4,1.2-0.3c-0.7-2.6-5.6-17.8-2.6-18.9c1.1-0.4,1.1,1.9,1.4,2.8c0.4,1.5,0.9,3.1,1.3,4.6
			c0.9,3.1,1.7,6.2,2.6,9.2C102,151.7,103.2,151.4,103,150.6L103,150.6z"/>
	</g>
</g>
<g id="XMLID_87_">
	<g id="XMLID_456_">
		<path id="XMLID_460_" class="st1" d="M96,149.9c-0.7,8.5-6.1,17.4-1.1,25.5c0.4,0.7,1.5,0.1,1.1-0.6c-4.8-7.8,0.7-16.7,1.3-24.9
			C97.3,149.1,96.1,149.1,96,149.9L96,149.9z"/>
	</g>
</g>
<g id="XMLID_90_">
	<g id="XMLID_1731_">
		<path id="XMLID_1735_" class="st1" d="M164.8,208.5c-0.1-1.4,0.1-2.7,0.6-3.9c-0.4-0.1-0.8-0.1-1.2-0.2
			c-2.2,18.4-11.9,34.9-14.8,53.1c-0.1,0.8,1.1,1.1,1.2,0.3c3-18.4,12.6-34.9,14.9-53.5c0.1-0.7-1-0.8-1.2-0.2
			c-0.5,1.5-0.7,2.7-0.7,4.3C163.6,209.3,164.8,209.3,164.8,208.5L164.8,208.5z"/>
	</g>
</g>
<g id="XMLID_92_">
	<g id="XMLID_1725_">
		<path id="XMLID_1729_" class="st1" d="M165.4,200.9c4.4,7.3,13.5,4.3,20.3,3.2c0.8-0.1,0.5-1.3-0.3-1.2c-6.1,1-14.8,4.2-18.9-2.6
			C166.1,199.5,165,200.2,165.4,200.9L165.4,200.9z"/>
	</g>
</g>
<g id="XMLID_94_">
	<g id="XMLID_1719_">
		<path id="XMLID_1723_" class="st1" d="M182.3,202.9c-0.7,17-2.1,34-4.2,50.8c-0.1,0.8,1.1,0.8,1.2,0c2.1-16.9,3.5-33.8,4.2-50.8
			C183.6,202.1,182.4,202.1,182.3,202.9L182.3,202.9z"/>
	</g>
</g>
<g id="XMLID_96_">
	<g id="XMLID_1713_">
		<path id="XMLID_1717_" class="st1" d="M182,209.4c-2.9,0.7-5.9,1.1-8.9,1c-2.3-0.1-8.7-0.7-8.2-4.3c0.1-0.8-1.2-0.8-1.2,0
			c-0.4,2.9,3.2,4.5,5.5,5.1c4.3,1,8.9,0.5,13.2-0.6C183.1,210.4,182.8,209.2,182,209.4L182,209.4z"/>
	</g>
</g>
<g id="XMLID_98_">
	<g id="XMLID_1707_">
		<path id="XMLID_1711_" class="st1" d="M179.7,244.2c-0.4,3.2-0.7,6.3-1.1,9.5c-0.1,0.8,1.2,0.8,1.2,0c0.4-3.2,0.7-6.3,1.1-9.5
			C181.1,243.4,179.8,243.4,179.7,244.2L179.7,244.2z"/>
	</g>
</g>
<g id="XMLID_100_">
	<g id="XMLID_448_">
		<path id="XMLID_452_" class="st1" d="M166.9,202.6c-1.1-5.4-4.2-9.5-7.9-13.4c-1.5-1.6-6.7-5.3-7.1-7.5c-1.1-6.2,7.4,2.5,8.5,3.8
			c0.5,0.6,1.4-0.3,0.9-0.9c-1.1-1.4-11.6-11.5-12-5c-0.2,2.6,5,6.5,6.5,8c4.4,4.5,8.7,8.9,9.9,15.3
			C165.8,203.7,167,203.4,166.9,202.6L166.9,202.6z"/>
	</g>
</g>
<g id="XMLID_102_">
	<g id="XMLID_442_">
		<path id="XMLID_446_" class="st1" d="M160.4,185c2.3-0.5,4.6-0.2,6.7,0.8c2.1,1.1,4.8,3.5,4.1,6.1c-0.2,0.8,1,1.1,1.2,0.3
			c0.8-2.8-1.4-5.3-3.5-6.8c-2.6-1.8-5.7-2.3-8.7-1.6C159.3,183.9,159.6,185.1,160.4,185L160.4,185z"/>
	</g>
</g>
<g id="XMLID_104_">
	<g id="XMLID_436_">
		<path id="XMLID_440_" class="st1" d="M162.2,183.7c-1.8-5.7-5.7-10.1-8.8-15.1c-0.3-0.5-0.6-1-0.9-1.6c1.4-1.9,2.6-1.9,3.8,0
			c1.4,1.3,2.5,3,3.6,4.5c2.4,3.1,4.7,6.3,7.1,9.4c0.5,0.6,1.6,0,1.1-0.6c-3.3-4.4-6.4-9.2-10.1-13.3c-1.2-1.4-4.5-4.8-6.7-3.3
			c-1.9,1.4,0.5,4.7,1.4,6c3,4.7,6.6,8.8,8.3,14.2C161.2,184.8,162.4,184.5,162.2,183.7L162.2,183.7z"/>
	</g>
</g>
<g id="XMLID_106_">
	<g id="XMLID_430_">
		<path id="XMLID_434_" class="st1" d="M166.7,178c-1.1-7-3.2-13.8-6.5-20.2c-0.4-0.8-0.8-1.5-1.2-2.2c2.3,0.4,4,1.6,5.2,3.6
			c1.1,1.5,1.8,3.2,2.5,4.9c1.3,3.4,2.1,7,3.1,10.4c0.2,0.8,1.4,0.4,1.2-0.3c-1.8-6.6-4.1-20.5-13.4-20.4c-0.5,0-0.8,0.5-0.5,0.9
			c4.3,7.3,7.1,15.2,8.4,23.6C165.7,179.2,166.9,178.8,166.7,178L166.7,178z"/>
	</g>
</g>
<g id="XMLID_108_">
	<g id="XMLID_424_">
		<path id="XMLID_428_" class="st1" d="M171.8,175.7c-0.3-3.7-0.8-7.4-1.4-11c-0.1-0.8-1.4-0.5-1.2,0.3c0.6,3.5,1.1,7.1,1.4,10.7
			C170.7,176.5,171.9,176.5,171.8,175.7L171.8,175.7z"/>
	</g>
</g>
<g id="XMLID_110_">
	<g id="XMLID_418_">
		<path id="XMLID_422_" class="st1" d="M166.8,159.7c1.5-1,5.7,7.5,6.1,8.6c1,2.7,1.6,5.6,2.3,8.5c0.2,0.8,1.4,0.5,1.2-0.3
			c-1-4.8-2.1-9.7-4.9-13.7c-0.8-1.1-3.6-5.2-5.3-4.1C165.5,159.1,166.1,160.2,166.8,159.7L166.8,159.7z"/>
	</g>
</g>
<g id="XMLID_112_">
	<g id="XMLID_412_">
		<path id="XMLID_416_" class="st1" d="M175.4,171.2c0.1-2.1-0.3-4.8,0.2-6.9c0-0.6,0-1.1,0-1.7c0.7,0.3,1.4,0.6,2,1
			c0.7,0.8,0.6,2.9,0.8,3.9c1,5.7,1.4,11.4,1.6,17.2c0,0.8,1.3,0.8,1.2,0c-0.1-5-0.4-9.9-1.2-14.8c-0.4-2.7-0.4-8.4-3.2-10.1
			c-0.8-0.5-1.6-0.7-2.3,0c-0.5,0.5-0.2,2.3-0.2,2.8c0,2.9,0,5.7-0.2,8.6C174.1,172,175.4,172,175.4,171.2L175.4,171.2z"/>
	</g>
</g>
<g id="XMLID_114_">
	<g id="XMLID_406_">
		<path id="XMLID_410_" class="st1" d="M180.9,183.6c1.2,6.2,4.5,15.2-1.5,19.9c-0.6,0.5,0.3,1.4,0.9,0.9c6.5-5,3.1-14.5,1.8-21.1
			C181.9,182.4,180.7,182.8,180.9,183.6L180.9,183.6z"/>
	</g>
</g>
<g id="XMLID_116_">
	<g id="XMLID_400_">
		<path id="XMLID_404_" class="st1" d="M176,175.2c-5.3,1-10.4,2.6-15.4,4.8c-0.7,0.3-0.1,1.4,0.6,1.1c4.8-2.2,9.8-3.7,15.1-4.6
			C177.1,176.2,176.8,175,176,175.2L176,175.2z"/>
	</g>
</g>
<g id="XMLID_118_">
	<g id="XMLID_1700_">
		<path id="XMLID_1705_" class="st1" d="M87.5,251.5c-8.8-14.6-17.1-29.5-25-44.6c-0.4-0.7-1.5-0.1-1.1,0.6
			c7.9,15.1,16.3,30,25,44.6C86.8,252.8,87.9,252.2,87.5,251.5L87.5,251.5z"/>
	</g>
</g>
<g id="XMLID_120_">
	<g id="XMLID_1694_">
		<path id="XMLID_1698_" class="st1" d="M62.6,211.2c2.1-3.6,2.7-7.6,3.3-11.7c0.4-2.6,0.9-5.2,2-7.6c0.5-1.1,1.5-2.1,1.1-3.3
			c-0.5-1.5-1.9-1.6-3.3-0.9c-3,1.5-4.3,6.2-5.1,9.1c-0.2,0.8,1,1.1,1.2,0.3c0.4-1.6,1-4.1,2-5.4c0.4-0.4,2.9-2.9,3.5-1.6
			c0.1,0.1-2.1,5.4-2.2,5.7c-1.2,5-1.1,10.1-3.8,14.7C61.1,211.3,62.2,211.9,62.6,211.2L62.6,211.2z"/>
	</g>
</g>
<g id="XMLID_122_">
	<g id="XMLID_394_">
		<path id="XMLID_398_" class="st1" d="M61.8,193.7c0,1.4-0.4,2.3-1.9,2.4c-0.6,0.1-1.1,0-1.7,0c-0.9,0.1-1.7,0.5-2.4,1.1
			c-1.5,1.3-2.1,3.2-1.6,5.1c0.2,0.8,1.4,0.4,1.2-0.3c-0.4-1.4,0.1-2.8,1.1-3.7c1.2-1.1,2.5-0.7,3.9-0.9c1.9-0.3,2.6-1.9,2.6-3.6
			C63,192.9,61.8,192.9,61.8,193.7L61.8,193.7z"/>
	</g>
</g>
<g id="XMLID_124_">
	<g id="XMLID_388_">
		<path id="XMLID_392_" class="st1" d="M62,196.5c0.1-4.9,0.4-9.9-0.1-14.8c-0.1-1.5-0.4-3.7-2.4-3.7c-2.2,0-2.1,2.6-2.2,4.1
			c-0.2,4.8-0.2,9.6-0.1,14.4c0,0.8,1.3,0.8,1.2,0c0-2.6-0.1-5.2,0-7.8c0-1.2-0.6-7.3,0.2-7.8c0.7,0.3,1.3,0.6,2,0.9
			c0,0.9,0,1.8,0.1,2.7c0,1.3,0,2.7,0,4c0,2.7,0,5.4,0,8.1C60.8,197.3,62,197.3,62,196.5L62,196.5z"/>
	</g>
</g>
<g id="XMLID_126_">
	<g id="XMLID_382_">
		<path id="XMLID_386_" class="st1" d="M58,195.2c-2.5-6.9-5.3-13.7-7.9-20.5c-0.2-0.5-0.8-0.6-1.1-0.1c-1.8,2.8-1,6.2,0,9.1
			c1.6,4.5,3.8,8.8,5.7,13.1c0.3,0.7,1.4,0.1,1.1-0.6c-1.3-3-2.6-5.9-3.9-8.9c-1.5-3.5-4.2-8.3-1.8-12.1c-0.4,0-0.8-0.1-1.1-0.1
			c2.7,6.8,5.5,13.6,7.9,20.5C57.1,196.3,58.3,196,58,195.2L58,195.2z"/>
	</g>
</g>
<g id="XMLID_128_">
	<g id="XMLID_376_">
		<path id="XMLID_380_" class="st1" d="M54.7,196c-2.7-4.2-5.9-8.1-9.5-11.6c-0.3-0.3-0.9-0.2-1,0.3c-1.8,5.8,4.3,9.3,6.5,13.8
			c0.3,0.7,1.4,0.1,1.1-0.6c-2-4.2-8-7.7-6.4-12.9c-0.3,0.1-0.7,0.2-1,0.3c3.6,3.4,6.7,7.2,9.3,11.3C54,197.3,55.1,196.7,54.7,196
			L54.7,196z"/>
	</g>
</g>
<g id="XMLID_130_">
	<g id="XMLID_370_">
		<path id="XMLID_374_" class="st1" d="M49.2,197.6c-0.8-1.5-5.4-8.9-7.6-6.5c-1.2,1.3,0.1,3.5,0.9,4.6c1.7,2.5,3.6,4.8,5.5,7.2
			c0.5,0.6,1.6,0,1.1-0.6c-1-1.3-2-2.7-3-4c-0.9-1.2-2.1-2.4-2.8-3.7c-0.1-0.2-0.2-0.4-0.3-0.6c-0.1-1.6,0.3-2,1-1.1
			c0.5,0.2,1.1,1.1,1.5,1.5c1.1,1.2,2,2.5,2.7,3.9C48.5,199,49.6,198.3,49.2,197.6L49.2,197.6z"/>
	</g>
</g>
<g id="XMLID_132_">
	<g id="XMLID_1688_">
		<path id="XMLID_1692_" class="st1" d="M46.5,199.4c0.2,6.7,1,14.6,7.9,17.8c0.7,0.3,1.4-0.7,0.6-1.1c-6.5-3-7.1-10.4-7.3-16.7
			C47.7,198.6,46.5,198.6,46.5,199.4L46.5,199.4z"/>
	</g>
</g>
<g id="XMLID_134_">
	<g id="XMLID_1682_">
		<path id="XMLID_1686_" class="st1" d="M51.9,214.7c4.5,14.1,8.9,28.1,13.4,42.2c0.2,0.8,1.5,0.4,1.2-0.3
			c-4.5-14.1-8.9-28.1-13.4-42.2C52.9,213.6,51.7,213.9,51.9,214.7L51.9,214.7z"/>
	</g>
</g>
<g id="XMLID_160_">
	<g id="XMLID_1676_">
		<path id="XMLID_1680_" class="st1" d="M145.7,216.2c-1,14.1-1.5,28.3-1.4,42.5c0,0.8,1.3,0.8,1.2,0c0-14.2,0.4-28.3,1.4-42.5
			C147,215.4,145.7,215.4,145.7,216.2L145.7,216.2z"/>
	</g>
</g>
<g id="XMLID_162_">
	<g id="XMLID_1670_">
		<path id="XMLID_1674_" class="st1" d="M133.4,217.1c-0.5-0.6-1.2,6.4-1.2,6.6c-0.1,1.3-0.2,2.6-0.3,4c-0.3,3.6-0.5,7.2-0.8,10.9
			c-0.5,6.9-1,13.8-1.5,20.8c-0.1,0.8,1.2,0.8,1.2,0c0.5-7.6,1.1-15.2,1.6-22.7c0.3-3.6,0.5-7.2,0.8-10.9c0.2-2.5,1.3-6.2,0.3-8.6
			c-0.2-0.4-0.7-0.6-1-0.3c-0.1,0.1-0.1,0.1-0.2,0.2c-0.3,0.2-0.2,0.6,0,0.9c0,0,0.1,0.1,0.1,0.1C133.1,218.6,134,217.7,133.4,217.1
			L133.4,217.1z"/>
	</g>
</g>
<g id="XMLID_164_">
	<g id="XMLID_1664_">
		<path id="XMLID_1668_" class="st1" d="M133.8,216.9c-2.7-2.8-4.9-5.5-7-8.8c-1.6-2.5-3.7-4.3-6.3-5.7c-0.7-0.4-1.3,0.7-0.6,1.1
			c3.4,1.8,5.3,4.4,7.2,7.6c1.6,2.5,3.8,4.6,5.9,6.7C133.5,218.4,134.3,217.5,133.8,216.9L133.8,216.9z"/>
	</g>
</g>
<g id="XMLID_166_">
	<g id="XMLID_364_">
		<path id="XMLID_368_" class="st1" d="M120.7,201.6c1.9,1,3.9,1.9,5.8,2.9c0.7,0.4,1.4-0.7,0.6-1.1c-1.9-1-3.9-1.9-5.8-2.9
			C120.6,200.1,120,201.2,120.7,201.6L120.7,201.6z"/>
	</g>
</g>
<g id="XMLID_262_">
	<g id="XMLID_356_">
		<path id="XMLID_362_" class="st1" d="M127.7,203.2c-0.6-2.4-1.1-4.8-1.7-7.2c-0.4-1.7-2.1-5.9-1.5-7.4c0.1-0.1,2.5,5.3,2.8,6.2
			c0.9,2.5,1.7,5,2.5,7.6c0.2,0.8,1.4,0.4,1.2-0.3c-1.2-3.9-2.5-7.8-4-11.6c-0.6-1.6-1.2-3.7-3.1-4.2c-0.3-0.1-0.5,0.1-0.7,0.3
			c-1.1,1.5,0.5,4.6,0.8,6.2c0.8,3.6,1.7,7.2,2.5,10.8C126.7,204.3,127.9,204,127.7,203.2L127.7,203.2z"/>
	</g>
</g>
<g id="XMLID_358_">
	<g id="XMLID_350_">
		<path id="XMLID_354_" class="st1" d="M131.4,200.2c0.1-3.1-0.3-6.1-0.9-9.1c-0.3-1.8-2-10.2-1.3-10.1c1.4,0.3,2.3,7.5,2.6,8.8
			c0.7,3.4,1.5,6.8,2.8,10.1c0.3,0.7,1.5,0.4,1.2-0.3c-2-5.2-2.6-10.6-4.1-15.9c-0.3-0.9-1-5.7-3-5.4c-2.1,0.3-1,4.5-0.8,5.6
			c0.6,5.5,2.5,10.7,2.3,16.4C130.2,201,131.4,201,131.4,200.2L131.4,200.2z"/>
	</g>
</g>
<g id="XMLID_454_">
	<g id="XMLID_344_">
		<path id="XMLID_348_" class="st1" d="M136.9,198.2c-0.1-3.5-0.2-7-0.3-10.5c0-0.2-0.4-3.5,0.4-3.5c0.8,0,0.9,4.6,0.9,5.4
			c0.2,2.7,0.2,9.2,3.2,10.4c0.7,0.3,1.1-0.9,0.3-1.2c-1.1-0.4-1.6-4.3-1.8-5.4c-0.4-2.1-0.3-4.2-0.6-6.3c-0.2-1.9-0.6-3.9-2.2-5
			c-0.2-0.1-0.5-0.1-0.6,0c-1.5,1.1-0.9,3.2-0.8,4.9c0.1,3.7,0.2,7.4,0.3,11.1C135.7,199,136.9,199,136.9,198.2L136.9,198.2z"/>
	</g>
</g>
<g id="XMLID_550_">
	<g id="XMLID_338_">
		<path id="XMLID_342_" class="st1" d="M142.2,199c0.2-1.9,0.4-3.8,0.7-5.7c0-0.4,0.1-3.2,0.5-3.4c1.3-0.7,1.3,1.1,1.3,1.8
			c0.2,3.8-0.1,7.5-0.7,11.3c-0.1,0.8,1.1,1.1,1.2,0.3c0.6-3.3,0.9-6.6,0.8-10c0-1.4,0.4-4.7-1.3-5.6c-3.6-1.9-3.6,9.7-3.7,11.2
			C140.8,199.8,142.1,199.8,142.2,199L142.2,199z"/>
	</g>
</g>
<g id="XMLID_646_">
	<g id="XMLID_1658_">
		<path id="XMLID_1662_" class="st1" d="M145,200.9c2.6,6,3.6,11.1-0.5,16.8c-0.5,0.7,0.6,1.3,1.1,0.6c4.4-6,3.3-11.5,0.5-18
			C145.8,199.5,144.7,200.1,145,200.9L145,200.9z"/>
	</g>
</g>
<g id="XMLID_742_">
	<g id="XMLID_1652_">
		<path id="XMLID_1656_" class="st1" d="M150.2,225c-0.7,6.4-3.5,12.4-4.8,18.7c-0.2,0.8,1,1.1,1.2,0.3c1.3-6.4,4.1-12.5,4.8-19
			C151.5,224.2,150.2,224.2,150.2,225L150.2,225z"/>
	</g>
</g>
<g id="XMLID_838_">
	<g id="XMLID_1646_">
		<path id="XMLID_1650_" class="st1" d="M151,226.7c-1.2-2.1-3.4-3.7-5.1-5.4c-0.6-0.6-1.5,0.3-0.9,0.9c1.6,1.6,3.7,3.1,4.9,5.1
			C150.3,228,151.4,227.4,151,226.7L151,226.7z"/>
	</g>
</g>
<g id="XMLID_934_">
	<g id="XMLID_1640_">
		<path id="XMLID_1644_" class="st1" d="M149.2,208.7c-0.1-0.8-1.1-5.6-0.5-6c0.2-0.1,1.2,3.3,1.3,3.7c0.6,2.7,1,5.4,2.3,8
			c0.4,0.7,1.4,0.1,1.1-0.6c-1.5-2.9-1.7-6.1-2.6-9.2c-0.4-1.2-1-4-2.7-3.9c-0.3,0-0.5,0.2-0.6,0.5c-0.5,2.3,0.2,5.3,0.5,7.6
			C148,209.5,149.3,209.5,149.2,208.7L149.2,208.7z"/>
	</g>
</g>
<g id="XMLID_1030_">
	<g id="XMLID_1634_">
		<path id="XMLID_1638_" class="st1" d="M151.5,213c4.3,0.6,0.7-13.3,3.9-15.3c-0.3-0.2-0.6-0.4-0.9-0.5c0.5,4.6-0.1,9.4-0.2,14
			c0,0.8,1.2,0.8,1.2,0c0.2-4.6,0.7-9.4,0.2-14c0-0.5-0.5-0.8-0.9-0.5c-1.6,1-1.8,2.7-2.1,4.5c-0.1,1.1-0.4,10.7-0.9,10.6
			C151.1,211.7,150.7,212.9,151.5,213L151.5,213z"/>
	</g>
</g>
<g id="XMLID_1126_">
	<g id="XMLID_1628_">
		<path id="XMLID_1632_" class="st1" d="M156.4,211.9c0.4-2.9-0.1-8.9,2.9-10.4c-0.3-0.1-0.6-0.1-0.9-0.2c0.9,1.8-0.5,5.2-0.9,7.1
			c-0.4,2-0.6,3.9-0.6,6c0,0.8,1.3,0.8,1.2,0c-0.1-3.1,0.7-6,1.2-9c0.3-1.6,0.8-3.2,0-4.7c-0.2-0.3-0.6-0.4-0.9-0.2
			c-3.6,1.8-3.1,8.1-3.6,11.5C155.1,212.7,156.3,212.7,156.4,211.9L156.4,211.9z"/>
	</g>
</g>
<g id="XMLID_1222_">
	<g id="XMLID_1622_">
		<path id="XMLID_1626_" class="st1" d="M159.3,214c1-3.4,2.4-6.5,4.4-9.4c0.4-0.7-0.6-1.3-1.1-0.6c-2,3-3.5,6.3-4.5,9.7
			C157.8,214.5,159.1,214.8,159.3,214L159.3,214z"/>
	</g>
</g>
<g id="XMLID_1318_">
	<g id="XMLID_1616_">
		<path id="XMLID_1620_" class="st1" d="M159.4,215.1c-2.7-1.5-7.9-2.6-10.2,0.3c-0.5,0.6,0.4,1.5,0.9,0.9c1.9-2.4,6.4-1.3,8.7-0.1
			C159.4,216.6,160.1,215.5,159.4,215.1L159.4,215.1z"/>
	</g>
</g>
<g id="XMLID_1414_">
	<g id="XMLID_1610_">
		<path id="XMLID_1614_" class="st1" d="M207,254c0,0.2-0.1,0.5-0.1,0.7c0.4,0.1,0.8,0.1,1.2,0.2c0.3-4.1,0.5-8.2,0.8-12.2
			c0-0.8-1.2-0.8-1.2,0c-0.3,4.1-0.5,8.2-0.8,12.2c0,0.7,1,0.8,1.2,0.2c0.2-0.5,0.2-0.5,0.1-1.1C208.2,253.2,207,253.2,207,254
			L207,254z"/>
	</g>
</g>
<g id="XMLID_1510_">
	<g id="XMLID_1413_">
		<path id="XMLID_1608_" class="st1" d="M207.3,242.4c-1.5-0.7-1.9-2.3-3-3.5c-0.5-0.5-1.1-0.7-1.6-1.1c-1-0.8-1.2-1.5-1.9-2.4
			c-0.5-0.6-1-1.1-1.6-1.5c-0.6-0.4-3-1-1.5-2.2c1-0.8,3.3,0.3,4.1,1c0.7,0.6,1.1,1.4,1.7,2c0.6,0.5,1.5-0.3,0.9-0.9
			c-1.9-1.8-3.2-3.8-6.2-3.4c-1.3,0.2-3.4,1.3-2.4,2.9c0.5,0.8,1.8,1,2.5,1.5c1.5,1,1.8,2.5,3,3.6c0.5,0.5,1.2,0.7,1.8,1.1
			c0.7,0.5,1,1.3,1.5,2c0.6,0.8,1.2,1.5,2.1,2C207.4,243.9,208.1,242.8,207.3,242.4L207.3,242.4z"/>
	</g>
</g>
<g id="XMLID_1606_">
	<g id="XMLID_928_">
		<path id="XMLID_932_" class="st1" d="M202.8,232.6c0.9,0.7,1.7,1.5,2.4,2.3c0.5,0.6,1.4-0.3,0.9-0.9c-0.7-0.9-1.5-1.6-2.4-2.3
			C203,231.2,202.1,232.1,202.8,232.6L202.8,232.6z"/>
	</g>
</g>
<g id="XMLID_1702_">
	<g id="XMLID_922_">
		<path id="XMLID_926_" class="st1" d="M206.8,234c-0.4-2.2-0.8-4.4-1.2-6.6c-0.2-1.1-0.4-2.2-0.6-3.3c-0.1-0.7-0.3-1.5-0.4-2.2
			c0.4-1,0.7-1.2,1.1-0.4c1.1,0.7,1.6,4.7,1.8,5.8c0.5,2.1,0.8,4.3,1.1,6.5c0.1,0.8,1.3,0.5,1.2-0.3c-0.5-3.5-1-7.2-2.1-10.6
			c-0.4-1.4-1.4-3.5-3-3.6c-1.8-0.2-1.4,1.7-1.2,3c0.7,4,1.5,8,2.2,12C205.7,235.1,206.9,234.8,206.8,234L206.8,234z"/>
	</g>
</g>
<g id="XMLID_1798_">
	<g id="XMLID_916_">
		<path id="XMLID_920_" class="st1" d="M210.5,231.7c0-2.9,0.1-5.8,0.3-8.6c0.1-1.4,0.3-2.8,0.5-4.2c0.1-0.9,0.3-1.8,0.4-2.8
			c1.2-0.4,1.6-0.1,1.3,0.8c0.7,1.8-0.7,6.2-1,8.2c-0.4,2.9-0.7,5.8-1.1,8.8c-0.1,0.8,1.2,0.8,1.2,0c0.6-4.9,1.3-9.8,1.8-14.7
			c0.1-1.3,1.1-5.5-1.3-5.8c-4.2-0.5-3.5,16-3.4,18.3C209.3,232.5,210.5,232.5,210.5,231.7L210.5,231.7z"/>
	</g>
</g>
<g id="XMLID_1894_">
	<g id="XMLID_910_">
		<path id="XMLID_914_" class="st1" d="M214.4,232.4c0.1-1.8,0-3.6,0-5.4c0-0.7,0-1.5,0-2.2c0.1-1.1-0.2-2.9,1.1-2.8
			c1.1,0.1,0.6,1.1,0.6,2c-0.1,1-0.1,1.9-0.2,2.9c-0.1,1.9-0.3,3.8-0.5,5.7c-0.1,0.8,1.2,0.8,1.2,0c0.4-3.4,0.9-7,0.8-10.5
			c0-1.1-0.3-2.4-1.6-2.5c-4.2-0.2-2.5,10.6-2.7,12.8C213.1,233.2,214.4,233.2,214.4,232.4L214.4,232.4z"/>
	</g>
</g>
<g id="XMLID_1990_">
	<g id="XMLID_904_">
		<path id="XMLID_908_" class="st1" d="M217.4,232.9c0.8-2.4,1.5-4.8,2.3-7.2c0.2-0.6,1.4-3.7,2.7-2.6c0.5,0.5-1.3,4.9-1.5,5.3
			c-1.6,3.6-3.9,6.8-4.9,10.7c-0.2,0.8,1,1.1,1.2,0.3c1.1-4.2,3.7-7.6,5.2-11.5c0.6-1.5,2.2-5.8,0.7-7.3c-3.6-3.5-6.6,10.6-7,12
			C215.9,233.3,217.1,233.7,217.4,232.9L217.4,232.9z"/>
	</g>
</g>
<g id="XMLID_2086_">
	<g id="XMLID_898_">
		<path id="XMLID_902_" class="st1" d="M218.8,235.6c0.5,3.4-0.5,6.8-2.8,9.4c-0.5,0.6,0.3,1.5,0.9,0.9c2.6-2.9,3.7-6.7,3.1-10.6
			C219.9,234.4,218.7,234.8,218.8,235.6L218.8,235.6z"/>
	</g>
</g>
<g id="XMLID_2182_">
	<g id="XMLID_892_">
		<path id="XMLID_896_" class="st1" d="M216.9,243.4c0.5,3.7,0.5,7.4,0.1,11.2c-0.1,0.8,1.2,0.8,1.2,0c0.4-3.7,0.4-7.4-0.1-11.2
			C218.1,242.6,216.8,242.6,216.9,243.4L216.9,243.4z"/>
	</g>
</g>
<g id="XMLID_2278_">
	<g id="XMLID_886_">
		<path id="XMLID_890_" class="st1" d="M215.8,244.5c-3.1-1-6.4-0.4-9,1.7c-0.6,0.5,0.3,1.4,0.9,0.9c2.2-1.8,5.1-2.2,7.7-1.3
			C216.2,246,216.6,244.8,215.8,244.5L215.8,244.5z"/>
	</g>
</g>
<g id="XMLID_2374_">
	<g id="XMLID_880_">
		<path id="XMLID_884_" class="st1" d="M191.9,213.1c-3.7,15.3-8.3,30.3-13.8,45.1c-0.3,0.8,0.9,1.1,1.2,0.3
			c5.6-14.7,10.2-29.8,13.8-45.1C193.3,212.6,192.1,212.3,191.9,213.1L191.9,213.1z"/>
	</g>
</g>
<g id="XMLID_2470_">
	<g id="XMLID_874_">
		<path id="XMLID_878_" class="st1" d="M193.2,213.5c0-2.5-0.1-5-0.3-7.5c-0.3-3.2-1.3-4.5,2.7-4.8c5.6-0.5,11.1,1.5,13.9,6.7
			c0.4,0.7,1.5,0.1,1.1-0.6c-3.8-7.1-11.8-8.3-19-6.6c-0.4,0.1-0.5,0.4-0.4,0.8c0.6,4,0.9,8,0.9,12.1
			C192,214.4,193.2,214.4,193.2,213.5L193.2,213.5z"/>
	</g>
</g>
<g id="XMLID_2566_">
	<g id="XMLID_868_">
		<path id="XMLID_872_" class="st1" d="M208.5,206c-0.1,2.4-1.6,5.1-2.3,7.5c-0.7,2.3-1.2,4.7-1.7,7.1c-0.2,0.8,1.1,1.1,1.2,0.3
			c0.5-2.7,1.2-5.4,2-8.1c0.7-2.2,2-4.5,2.1-6.8C209.8,205.2,208.6,205.2,208.5,206L208.5,206z"/>
	</g>
</g>
<g id="XMLID_2662_">
	<g id="XMLID_862_">
		<path id="XMLID_866_" class="st1" d="M200.8,238.5c0,2.7-0.6,5.5-1,8.2c-0.2,1.8-0.1,5.9-1.2,7.4c-0.5,0.7,0.6,1.3,1.1,0.6
			c1.3-1.8,1-5.6,1.3-7.7c0.4-2.8,1.1-5.7,1-8.5C202.1,237.7,200.8,237.7,200.8,238.5L200.8,238.5z"/>
	</g>
</g>
<g id="XMLID_2758_">
	<g id="XMLID_332_">
		<path id="XMLID_336_" class="st1" d="M192.8,199.2c-1.5-2.4-3.4-4.4-5.2-6.6c-1.7-2-2.1-4.3-4.1-6.1c-0.6-0.5-1.5,0.3-0.9,0.9
			c1.8,1.6,2.2,3.7,3.6,5.5c1.8,2.4,3.9,4.4,5.4,7C192.2,200.6,193.3,199.9,192.8,199.2L192.8,199.2z"/>
	</g>
</g>
<g id="XMLID_2854_">
	<g id="XMLID_326_">
		<path id="XMLID_330_" class="st1" d="M182.2,183.5c1.6,0.9,2.4,2.2,3.5,3.5c0.3,0.4,0.5,0.7,1,0.9c1.2,0.5,2.6-0.3,3.9-0.1
			c1.7,0.3,2.1,2.3,2.7,3.7c0.3,0.7,1.4,0.1,1.1-0.6c-1.1-2.6-1.4-4.5-4.5-4.3c-0.6,0-1.7,0.3-2.3,0.2c-0.9-0.3-1.1-0.9-1.7-1.6
			c-0.9-1.1-1.8-2-3.1-2.8C182.1,182,181.5,183.1,182.2,183.5L182.2,183.5z"/>
	</g>
</g>
<g id="XMLID_2950_">
	<g id="XMLID_320_">
		<path id="XMLID_324_" class="st1" d="M190.4,186.7c-1.4-3.7-3-7.3-5-10.7c-0.3-0.5-1.7-2.1-0.7-1.7c0.9,0.3,1.3,1.5,1.8,2.3
			c1.3,2.1,2.3,4.3,3.1,6.7c0.3,0.8,1.5,0.4,1.2-0.3c-0.6-1.7-5-13.4-7.8-10.6c-1.1,1.1,0.6,3,1.2,3.9c2.1,3.4,3.8,7,5.2,10.8
			C189.5,187.8,190.7,187.5,190.4,186.7L190.4,186.7z"/>
	</g>
</g>
<g id="XMLID_3046_">
	<g id="XMLID_314_">
		<path id="XMLID_318_" class="st1" d="M192.1,182c-0.6-2.6-1.2-5.2-1.8-7.8c-0.2-1.1-0.5-2.2-0.7-3.2c-0.2-0.7-1.5-4.5-0.3-3.5
			c1.4,1.1,2.1,4.8,2.7,6.5c0.9,2.5,1.7,4.9,2.6,7.4c0.3,0.8,1.5,0.4,1.2-0.3c-1.2-3.5-2.4-7-3.7-10.4c-0.7-2-1.1-4.7-3-5.9
			c-0.3-0.2-0.7-0.1-0.9,0.2c-1,2.1-0.4,4.1,0.1,6.4c0.8,3.7,1.7,7.4,2.5,11C191.1,183.1,192.3,182.8,192.1,182L192.1,182z"/>
	</g>
</g>
<g id="XMLID_3142_">
	<g id="XMLID_308_">
		<path id="XMLID_312_" class="st1" d="M196.8,181.5c-0.4-2.9-0.7-5.8-0.9-8.7c-0.1-1.5-0.2-2.9-0.3-4.4c-0.1-1-0.1-1.9-0.2-2.9
			c1.3-0.6,1.8-0.3,1.6,1c1,1.9,0.5,6,0.8,8.2c0.4,2.9,0.9,5.7,1.5,8.6c0.2,0.8,1.4,0.5,1.2-0.3c-1.2-5.3-1.5-10.5-2.2-15.9
			c-0.2-1.3-0.4-4.2-2.1-4.4c-4.5-0.6-1,16.6-0.7,18.9C195.7,182.3,196.9,182.3,196.8,181.5L196.8,181.5z"/>
	</g>
</g>
<g id="XMLID_3238_">
	<g id="XMLID_302_">
		<path id="XMLID_306_" class="st1" d="M202.8,182.9c0.1-2.7,0.3-5.3,0.8-7.9c0.2-1.1,0.3-4.7,1.5-1.1c0.3,1,0.1,2.4,0,3.4
			c-0.2,4.4-0.8,8.6-0.2,13c0.1,0.8,1.3,0.5,1.2-0.3c-0.7-4.5,0.2-8.8,0.3-13.3c0-1.2,0.5-5.5-1.4-6c-3.6-1.1-3.4,10.5-3.4,12.3
			C201.5,183.7,202.8,183.7,202.8,182.9L202.8,182.9z"/>
	</g>
</g>
<g id="XMLID_3334_">
	<g id="XMLID_296_">
		<path id="XMLID_300_" class="st1" d="M205.7,188c0.4,2.1,1.2,4,1.4,6.1c0.3,2.5-0.2,4.9-1.2,7.3c-0.3,0.7,0.9,1.1,1.2,0.3
			c1-2.3,1.5-4.7,1.3-7.2c-0.2-2.4-1.1-4.5-1.5-6.9C206.7,186.9,205.5,187.3,205.7,188L205.7,188z"/>
	</g>
</g>
<g id="XMLID_3430_">
	<g id="XMLID_290_">
		<path id="XMLID_294_" class="st1" d="M202.8,185.9c-1.4-3.8-5.4-4.6-9-4.6c-0.8,0-0.8,1.2,0,1.2c3,0,6.6,0.4,7.8,3.7
			C201.9,187,203.1,186.6,202.8,185.9L202.8,185.9z"/>
	</g>
</g>
<g id="XMLID_3526_">
	<g id="XMLID_4390_">
		<path id="XMLID_4585_" class="st2" d="M73.7,185"/>
	</g>
</g>
<g id="XMLID_3622_">
	<g id="XMLID_856_">
		<path id="XMLID_860_" class="st1" d="M72.6,187.4c4.3,7.8,8,15.9,11.2,24.3c0.3,0.7,1.5,0.4,1.2-0.3c-3.2-8.5-6.9-16.7-11.3-24.6
			C73.3,186,72.2,186.6,72.6,187.4L72.6,187.4z"/>
	</g>
</g>
<g id="XMLID_3718_">
	<g id="XMLID_284_">
		<path id="XMLID_288_" class="st1" d="M73.4,186.5c-3.7-0.9-7.7-1.6-11.2-3.2c-0.7-0.3-1.4,0.8-0.6,1.1c3.6,1.6,7.6,2.4,11.5,3.3
			C73.8,187.9,74.1,186.7,73.4,186.5L73.4,186.5z"/>
	</g>
</g>
<g id="XMLID_3814_">
	<g id="XMLID_278_">
		<path id="XMLID_282_" class="st1" d="M62.6,181.8c2.1-0.1,5.8-3.5,6.9-0.1c0.2,0.8,1.4,0.4,1.2-0.3c-0.4-1.4-1.5-2.4-3-2.5
			c-1.9-0.1-3.2,1.6-5.1,1.7C61.8,180.6,61.8,181.8,62.6,181.8L62.6,181.8z"/>
	</g>
</g>
<g id="XMLID_3910_">
	<g id="XMLID_272_">
		<path id="XMLID_276_" class="st1" d="M66.5,178.3c-2.2-1.4-4.3-2.7-6.5-4.1c-0.9-0.6-5.6-2.9-5.3-4.1c0.5-1.7,10.3,5.3,11.4,6.1
			c0.6,0.5,1.3-0.6,0.6-1.1c-2.7-2-5.3-4.1-8.5-5.4c-1-0.4-4.4-2.3-5.1-0.5c-0.6,1.6,1.6,2.9,2.6,3.6c3.3,2.3,6.8,4.3,10.2,6.5
			C66.6,179.8,67.2,178.7,66.5,178.3L66.5,178.3z"/>
	</g>
</g>
<g id="XMLID_4006_">
	<g id="XMLID_266_">
		<path id="XMLID_270_" class="st1" d="M67.8,174.4c-4.3-4.2-8.6-8.6-10.6-14.4c-0.2,0.3-0.4,0.5-0.6,0.8c2.6,0,5.7,5.2,7.4,6.9
			c2.1,2.1,4.4,4,6.9,5.6c0.7,0.4,1.3-0.6,0.6-1.1c-3.4-2.3-6.3-4.9-8.9-7.9c-1.5-1.7-3.5-4.8-6-4.8c-0.4,0-0.7,0.4-0.6,0.8
			c2.1,6,6.5,10.6,10.9,15C67.5,175.8,68.4,175,67.8,174.4L67.8,174.4z"/>
	</g>
</g>
<g id="XMLID_4102_">
	<g id="XMLID_139_">
		<path id="XMLID_264_" class="st1" d="M71.1,172.9c-1.3-4.7-4-8.9-4.7-13.7c-0.3,0.2-0.7,0.4-1,0.6c3.8,3.9,4.8,9.5,8.7,13.4
			c0.6,0.6,1.5-0.3,0.9-0.9c-3.9-3.8-4.9-9.5-8.7-13.4c-0.5-0.5-1.1,0-1,0.6c0.7,4.9,3.4,9,4.7,13.7C70.1,174,71.3,173.7,71.1,172.9
			L71.1,172.9z"/>
	</g>
</g>
<g id="XMLID_4198_">
	<g id="XMLID_123_">
		<path id="XMLID_135_" class="st1" d="M75.3,172.4c-0.7-2.4-1.3-4.8-1.7-7.3c-0.1-0.8-0.2-1.5-0.3-2.3c-0.4-1.4-0.3-1.6,0.4-0.7
			c1.1,0.7,1.2,2.6,1.4,3.8c0.8,4,2,7.9,3.6,11.7c0.3,0.7,1.4,0.1,1.1-0.6c-1.7-3.9-2.7-7.8-3.6-11.9c-0.3-1.4-0.9-4.5-2.8-4.8
			c-3.6-0.5,0.3,11,0.7,12.5C74.4,173.5,75.6,173.1,75.3,172.4L75.3,172.4z"/>
	</g>
</g>
<g id="XMLID_4294_">
	<g id="XMLID_101_">
		<path id="XMLID_119_" class="st1" d="M78.8,174c1.6,4.5,3.4,9.1,7.8,11.7c0.7,0.4,1.3-0.7,0.6-1.1c-4-2.4-5.7-6.7-7.2-10.9
			C79.8,172.9,78.6,173.2,78.8,174L78.8,174z"/>
	</g>
</g>
<g id="XMLID_4681_">
	<g id="XMLID_850_">
		<path id="XMLID_854_" class="st1" d="M35.6,232.9c0.4,7.8,0.8,15.7,1.1,23.5c0,0.8,1.3,0.8,1.2,0c-0.4-7.8-0.8-15.7-1.1-23.5
			C36.8,232.1,35.5,232.1,35.6,232.9L35.6,232.9z"/>
	</g>
</g>
<g id="XMLID_4779_">
	<g id="XMLID_844_">
		<path id="XMLID_848_" class="st1" d="M35.9,232.6c-2.3-2.2-5.7-3.9-7.4-6.5c-1.6-2.6-3.2-5.1-5.3-7.4c-0.1,0.3-0.2,0.7-0.3,1
			c3.1-0.7,5.7,3.5,6.9,5.8c0.4,0.7,1.4,0.1,1.1-0.6c-1.5-2.9-4.5-7.2-8.3-6.4c-0.5,0.1-0.6,0.7-0.3,1c1.2,1.4,2.4,2.8,3.4,4.3
			c0.9,1.3,1.5,2.9,2.4,4.1c0.6,0.7,1.2,1.1,2,1.6c1.8,1.1,3.4,2.4,4.9,3.9C35.6,234.1,36.5,233.2,35.9,232.6L35.9,232.6z"/>
	</g>
</g>
<g id="XMLID_4876_">
	<g id="XMLID_741_">
		<path id="XMLID_842_" class="st1" d="M31.2,222.7c-1.3-4.2-3.9-7.7-5.8-11.7c-1.6-3.4,1-0.6,1.8,0.3c0.8,0.9,1.5,1.8,2.2,2.8
			c1.4,2,2.6,4.2,3.7,6.4c0.4,0.7,1.5,0.1,1.1-0.6c-1.6-3-3.3-6.1-5.5-8.8c-0.8-0.9-3.1-4.1-4.7-3.1c-1.5,1,0.2,3.3,0.7,4.4
			c1.8,3.5,4.1,6.7,5.2,10.5C30.2,223.8,31.4,223.5,31.2,222.7L31.2,222.7z"/>
	</g>
</g>
<g id="XMLID_4974_">
	<g id="XMLID_257_">
		<path id="XMLID_549_" class="st1" d="M34,219.5c-1-3.1-1.9-6.2-2.7-9.3c-0.4-1.6-0.8-3.1-1.2-4.7c-0.5-1.9-0.6-2.6,0.9-0.7
			c2.9,4,3.6,9.8,5.8,14.3c0.4,0.7,1.4,0.1,1.1-0.6c-1.9-3.8-2.8-8-4.6-11.8c-0.7-1.5-2.3-5.7-4.4-5.6c-0.2,0-0.4,0.1-0.5,0.3
			c-0.8,1.7,0.7,4.8,1.1,6.5c1,4.1,2.2,8.1,3.4,12C33.1,220.6,34.3,220.3,34,219.5L34,219.5z"/>
	</g>
</g>
<g id="XMLID_5071_">
	<g id="XMLID_251_">
		<path id="XMLID_255_" class="st1" d="M37.7,218.4c-0.1-2.1-0.2-4.3-0.3-6.4c-0.1-1.1-0.2-2.1-0.2-3.2c0-0.6-0.1-3.3,0.6-0.8
			c1.1,3.8,0.5,7.9,1.6,11.7c0.2,0.8,1.4,0.4,1.2-0.3c-1-3.2-0.8-6.5-1.3-9.8c-0.1-0.9-0.5-4.3-2.1-4.3c-1.1,0-1.3,1.3-1.4,2.2
			c-0.2,3.6,0.4,7.3,0.6,10.9C36.5,219.2,37.8,219.2,37.7,218.4L37.7,218.4z"/>
	</g>
</g>
<g id="XMLID_5169_">
	<g id="XMLID_245_">
		<path id="XMLID_249_" class="st1" d="M41.3,219.2c0.1-1.9,0.3-3.8,0.9-5.6c0.1-0.5,0.2-2,1.1-1.4c0.3,0.2-0.5,3.3-0.6,3.7
			c-0.6,3.2-1.1,6.4-1,9.7c0,0.8,1.3,0.8,1.2,0c0-4.1,0.9-8.1,1.5-12.1c0.2-1.5,0.4-3.2-1.3-3.6c-0.3-0.1-0.5,0.1-0.7,0.3
			c-1.8,2.4-2.1,6.2-2.2,9.1C40,220,41.2,220,41.3,219.2L41.3,219.2z"/>
	</g>
</g>
<g id="XMLID_5266_">
	<g id="XMLID_239_">
		<path id="XMLID_243_" class="st1" d="M42.4,220.6c1.3,4.6,2.5,9.3,0.8,14c-0.3,0.8,0.9,1.1,1.2,0.3c1.9-4.9,0.6-9.8-0.8-14.6
			C43.4,219.5,42.2,219.8,42.4,220.6L42.4,220.6z"/>
	</g>
</g>
<g id="XMLID_5364_">
	<g id="XMLID_233_">
		<path id="XMLID_237_" class="st1" d="M43.9,232.8c2.2,7.4,4.5,14.7,6.7,22.1c0.2,0.8,1.4,0.4,1.2-0.3c-2.2-7.4-4.5-14.7-6.7-22.1
			C44.9,231.7,43.7,232,43.9,232.8L43.9,232.8z"/>
	</g>
</g>
<g id="XMLID_5462_">
	<g id="XMLID_227_">
		<path id="XMLID_231_" class="st1" d="M70.8,220.5c-1.5-2-2.8-4.1-4-6.2c-0.1-0.2-0.9-1.5-0.8-1.6c0.6,0.1,1.2,0.1,1.8,0.2
			c0.2,0.3,0.3,0.7,0.5,1c0.6,1.3,1.1,2.5,1.6,3.8c0.3,0.7,1.5,0.4,1.2-0.3c-0.7-1.7-2.7-9-6-6.7c-1.5,1-0.1,2.8,0.5,3.9
			c1.2,2.3,2.6,4.5,4.2,6.5C70.2,221.8,71.3,221.1,70.8,220.5L70.8,220.5z"/>
	</g>
</g>
<g id="XMLID_5559_">
	<g id="XMLID_221_">
		<path id="XMLID_225_" class="st1" d="M70.8,215.9c-0.7-1.8-1.2-3.7-1.7-5.6c-0.3-1.1-0.5-2.2-0.7-3.3c-0.1-0.5-0.2-1.1-0.3-1.7
			c0.5,0.2,0.8,0.5,1,1c0.8,1.4,0.9,3.3,1.4,4.8c0.5,1.7,1.2,3.3,2,4.8c0.4,0.7,1.5,0.1,1.1-0.6c-0.9-1.7-1.6-3.4-2.1-5.3
			c-0.4-1.4-0.6-2.9-1.2-4.2c-0.6-1.2-1.7-2.9-3.2-2.2c-0.2,0.1-0.3,0.3-0.3,0.5c-0.1,1.8,0.6,3.8,1,5.5c0.5,2.2,1.2,4.3,1.9,6.4
			C69.9,216.9,71.1,216.6,70.8,215.9L70.8,215.9z"/>
	</g>
</g>
<g id="XMLID_5657_">
	<g id="XMLID_215_">
		<path id="XMLID_219_" class="st1" d="M74.1,215.4c-0.7-3.5-2.1-9.6-0.5-13.1c-0.3,0-0.7,0.1-1,0.1c1.8,1.5,1.3,5.9,1.5,8
			c0.2,2.1,0.5,4.2,0.9,6.3c0.1,0.8,1.3,0.5,1.2-0.3c-0.6-3.5-1-6.9-1.2-10.4c-0.1-1.7-0.2-3.3-1.5-4.4c-0.3-0.2-0.8-0.3-1,0.1
			c-0.9,1.9-0.6,4.1-0.6,6.1c0.1,2.7,0.4,5.3,0.9,7.9C73,216.5,74.2,216.1,74.1,215.4L74.1,215.4z"/>
	</g>
</g>
<g id="XMLID_5754_">
	<g id="XMLID_209_">
		<path id="XMLID_213_" class="st1" d="M77.1,216.5c0-1.8,0-3.7,0.1-5.5c0.1-1.1-0.2-2.6,0.6-3.4c0.4-1,0.5-0.9,0.5,0.3
			c0.1,0.7,0.2,1.4,0.2,2.1c0.1,3.7-0.7,7.4-0.5,11.1c0,0.8,1.3,0.8,1.2,0c-0.2-3.7,0.5-7.4,0.5-11.1c0-1.1,0.2-4.1-1.2-4.5
			c-3.5-1.1-2.7,9.8-2.7,11C75.9,217.3,77.1,217.3,77.1,216.5L77.1,216.5z"/>
	</g>
</g>
<g id="XMLID_5852_">
	<g id="XMLID_203_">
		<path id="XMLID_207_" class="st1" d="M78.3,216.9c-2.8-0.6-7.6-1.5-9.6,1.3c-0.5,0.7,0.6,1.3,1.1,0.6c1.5-2,6.2-1.1,8.2-0.7
			C78.8,218.3,79.1,217.1,78.3,216.9L78.3,216.9z"/>
	</g>
</g>
<g id="XMLID_5949_">
	<g id="XMLID_197_">
		<path id="XMLID_201_" class="st1" d="M79,218.2c-0.2,2.6-0.2,5.4-0.7,8c-0.4,2-1.1,3.9-1.1,6c0,0.8,1.3,0.8,1.2,0
			c0-2.4,0.9-4.5,1.3-6.8c0.4-2.4,0.4-4.8,0.6-7.2C80.4,217.4,79.1,217.4,79,218.2L79,218.2z"/>
	</g>
</g>
<g id="XMLID_6047_">
	<g id="XMLID_191_">
		<path id="XMLID_195_" class="st1" d="M57.5,236.4c-0.8,6.3-2.2,12.3-4.3,18.3c-0.3,0.8,0.9,1.1,1.2,0.3c2.1-6.1,3.5-12.3,4.3-18.6
			C58.8,235.6,57.6,235.6,57.5,236.4L57.5,236.4z"/>
	</g>
</g>
<g id="XMLID_6144_">
	<g id="XMLID_185_">
		<path id="XMLID_189_" class="st1" d="M124.5,228c-0.1-0.4-0.1-0.8-0.2-1.3c-0.4,0.1-0.8,0.2-1.2,0.3c1.6,6.5,3.5,12.8,5.7,19.1
			c0.3,0.8,1.5,0.4,1.2-0.3c-2.3-6.3-4.2-12.6-5.7-19.1c-0.2-0.8-1.3-0.4-1.2,0.3c0.1,0.4,0.1,0.8,0.2,1.3
			C123.4,229.2,124.6,228.8,124.5,228L124.5,228z"/>
	</g>
</g>
<g id="XMLID_6242_">
	<g id="XMLID_179_">
		<path id="XMLID_183_" class="st1" d="M123.7,227.4c3.2-2.8,6-5.7,8-9.5c0.4-0.7-0.7-1.3-1.1-0.6c-1.9,3.7-4.7,6.5-7.8,9.3
			C122.2,227,123.1,227.9,123.7,227.4L123.7,227.4z"/>
	</g>
</g>
<g id="XMLID_6339_">
	<g id="XMLID_173_">
		<path id="XMLID_177_" class="st1" d="M128.4,215.8c-1.3,1-2.7,1.9-4,2.9c-0.6,0.5,0,1.5,0.6,1.1c1.3-1,2.7-1.9,4-2.9
			C129.6,216.5,129,215.4,128.4,215.8L128.4,215.8z"/>
	</g>
</g>
<g id="XMLID_6437_">
	<g id="XMLID_167_">
		<path id="XMLID_171_" class="st1" d="M124.6,216.9c0.5-3,0.6-6.1,0.5-9.2c0-0.8-1.3-0.8-1.2,0c0.2,3,0,5.9-0.4,8.8
			C123.3,217.3,124.5,217.7,124.6,216.9L124.6,216.9z"/>
	</g>
</g>
<g id="XMLID_6535_">
	<g id="XMLID_142_">
		<path id="XMLID_147_" class="st1" d="M122.1,215.2c-0.3-3.1-0.7-6.2-1.1-9.3c-0.1-0.8-1.3-0.5-1.2,0.3c0.4,3,0.8,6,1.1,9
			C120.9,216,122.2,216,122.1,215.2L122.1,215.2z"/>
	</g>
</g>
<g id="XMLID_2_">
	<g id="XMLID_152_">
		<path id="XMLID_156_" class="st1" d="M210.1,59c-13.2,18.1-20.8,39.6-33.9,57.9c-1.9,2.6,2.5,5.1,4.3,2.5
			c13.1-18.2,20.7-39.7,33.9-57.9C216.3,58.9,212,56.5,210.1,59L210.1,59z"/>
	</g>
</g>
<g id="XMLID_42_">
	<g id="XMLID_159_">
		<path id="XMLID_261_" class="st1" d="M243.6,101.1c0-0.1,0-0.2,0-0.3c-0.8,0.8-1.7,1.7-2.5,2.5c0.1,0,0.3,0,0.4,0
			c-0.8-0.8-1.7-1.7-2.5-2.5c0,0.3-4.7,4.1-5.2,4.7c-1.4,1.4-2.8,2.8-4.2,4.2c-3.3,3.2-6.6,6.5-9.9,9.7
			c-6.6,6.5-13.2,12.9-19.7,19.4c-2.3,2.3,1.2,5.8,3.5,3.5c7.8-7.6,15.5-15.2,23.3-22.9c3.8-3.7,7.5-7.4,11.3-11.1
			c2-2,5.9-4.4,6-7.5c0-1.3-1.2-2.5-2.5-2.5c-0.1,0-0.3,0-0.4,0c-1.3,0-2.5,1.1-2.5,2.5c0,0.1,0,0.2,0,0.3
			C238.7,104.3,243.7,104.3,243.6,101.1L243.6,101.1z"/>
	</g>
</g>
<g id="XMLID_71_">
	<g id="XMLID_1724_">
		<path id="XMLID_1748_" class="st1" d="M235.1,124.9c-7.1,5.9-14.3,11.7-21.4,17.6c-2.5,2,1.1,5.6,3.5,3.5
			c7.1-5.9,14.3-11.7,21.4-17.6C241.1,126.4,237.6,122.9,235.1,124.9L235.1,124.9z"/>
	</g>
</g>
<g id="XMLID_85_">
	<g id="XMLID_1751_">
		<path id="XMLID_1755_" class="st1" d="M234.6,173.9c10.9-2.6,21.8-4.9,32.8-7c3.2-0.6,1.8-5.4-1.3-4.8c-11,2.1-21.9,4.4-32.8,7
			C230.1,169.8,231.5,174.6,234.6,173.9L234.6,173.9z"/>
	</g>
</g>
<g id="XMLID_103_">
	<g id="XMLID_1758_">
		<path id="XMLID_1762_" class="st1" d="M230.7,198.5c12.8,1.3,25.5,3.3,38.1,5.8c3.1,0.6,4.5-4.2,1.3-4.8
			c-13-2.6-26.2-4.6-39.4-5.9C227.5,193.2,227.5,198.2,230.7,198.5L230.7,198.5z"/>
	</g>
</g>
<g id="XMLID_105_">
	<g id="XMLID_1765_">
		<path id="XMLID_1769_" class="st1" d="M239.8,216.8c7.2,2.9,14.7,5.2,22.2,7c3.1,0.7,4.5-4.1,1.3-4.8c-7.6-1.8-15-4.1-22.2-7
			C238.1,210.8,236.8,215.7,239.8,216.8L239.8,216.8z"/>
	</g>
</g>
<g id="XMLID_136_">
	<g id="XMLID_1772_">
		<path id="XMLID_1776_" class="st1" d="M146.3,104c2.7-20.5,5.5-41,8.2-61.5c0.4-3.2-4.6-3.1-5,0c-2.7,20.5-5.5,41-8.2,61.5
			C140.9,107.2,145.9,107.1,146.3,104L146.3,104z"/>
	</g>
</g>
<g id="XMLID_140_">
	<g id="XMLID_1779_">
		<path id="XMLID_1783_" class="st1" d="M165.9,114.6c4-11.4,8-22.8,12.1-34.1c1.1-3-3.8-4.3-4.8-1.3c-4,11.4-8,22.8-12.1,34.1
			C160,116.3,164.8,117.6,165.9,114.6L165.9,114.6z"/>
	</g>
</g>
<g id="XMLID_150_">
	<g id="XMLID_1786_">
		<path id="XMLID_1790_" class="st1" d="M117.3,98c-4.3-21.1-9.1-42.1-14.4-62.9c-0.8-3.1-5.6-1.8-4.8,1.3
			c5.3,20.9,10.1,41.8,14.4,62.9C113.1,102.5,117.9,101.1,117.3,98L117.3,98z"/>
	</g>
</g>
<g id="XMLID_157_">
	<g id="XMLID_1793_">
		<path id="XMLID_1797_" class="st1" d="M126.7,91.5c0.3-12.1-0.1-24.2-1.1-36.2c-0.3-3.2-5.3-3.2-5,0c1,12.1,1.4,24.1,1.1,36.2
			C121.6,94.7,126.6,94.7,126.7,91.5L126.7,91.5z"/>
	</g>
</g>
<g id="XMLID_357_">
	<g id="XMLID_1801_">
		<path id="XMLID_1805_" class="st1" d="M85.3,103.5C71.2,84.3,57.1,65,43,45.7c-1.9-2.6-6.2-0.1-4.3,2.5
			C52.7,67.5,66.8,86.8,81,106C82.9,108.6,87.3,106.1,85.3,103.5L85.3,103.5z"/>
	</g>
</g>
<g id="XMLID_1749_">
	<g id="XMLID_1808_">
		<path id="XMLID_1812_" class="st1" d="M90,96.1c-1.9-4.5-3.8-9-5.8-13.6c-1.4-3.3-2.5-8.4-5-11c-1-1-2.6-0.9-3.5,0
			c0,0-0.1,0.1-0.1,0.1c-0.8,0.7-1,2.1-0.4,3c0,0,0.1,0.1,0.1,0.1c1.7,2.7,6.1,0.2,4.3-2.5c0,0-0.1-0.1-0.1-0.1c-0.1,1-0.3,2-0.4,3
			c0,0,0.1-0.1,0.1-0.1c-1.2,0-2.4,0-3.5,0c1.3,1.3,2,4.8,2.8,6.6c0.7,1.7,1.4,3.4,2.2,5.1c1.7,4,3.4,7.9,5,11.9
			C86.9,101.6,91.3,99,90,96.1L90,96.1z"/>
	</g>
</g>
<g id="XMLID_1756_">
	<g id="XMLID_1815_">
		<path id="XMLID_1819_" class="st1" d="M100.2,99.5c-2.1-6.9-4.3-13.8-6.6-20.7c-1-3-5.9-1.7-4.8,1.3c2.3,6.9,4.5,13.8,6.6,20.7
			C96.3,103.9,101.2,102.6,100.2,99.5L100.2,99.5z"/>
	</g>
</g>
<g id="XMLID_1763_">
	<g id="XMLID_1822_">
		<path id="XMLID_1826_" class="st1" d="M63.7,122.2C49.8,110.3,35.3,99.3,20.3,89c-2.7-1.8-5.2,2.5-2.5,4.3
			c14.7,10,28.9,20.8,42.4,32.3C62.6,127.8,66.2,124.2,63.7,122.2L63.7,122.2z"/>
	</g>
</g>
<g id="XMLID_1770_">
	<g id="XMLID_1829_">
		<path id="XMLID_1833_" class="st1" d="M39.4,125.5c0,0,0.1,0.1,0.1,0.1c1.1,0.9,2.4,1,3.5,0c0.1,0,0.1-0.1,0.2-0.1
			c0.8-0.6,1-2.2,0.4-3c-1.7-2.3-4.9-3.7-7.2-5.2c-3-2-6.1-3.9-9.1-5.9c-2.7-1.8-5.2,2.6-2.5,4.3c2.5,1.6,5,3.3,7.6,4.9
			c1.2,0.8,2.4,1.5,3.5,2.3c0.8,0.5,2.9,1.4,3.4,2.1c0.1-1,0.3-2,0.4-3c-0.1,0-0.1,0.1-0.2,0.1c1.2,0,2.4,0,3.5,0
			c0,0-0.1-0.1-0.1-0.1C40.4,120,36.9,123.5,39.4,125.5L39.4,125.5z"/>
	</g>
</g>
<g id="XMLID_1777_">
	<g id="XMLID_1836_">
		<path id="XMLID_1840_" class="st1" d="M40.5,145.4c-14.9-6.8-30.2-12.3-46-16.4c-3.1-0.8-4.4,4-1.3,4.8c15.4,4,30.4,9.3,44.8,15.9
			C40.9,151,43.4,146.7,40.5,145.4L40.5,145.4z"/>
	</g>
</g>
<g id="XMLID_1784_">
	<g id="XMLID_1843_">
		<path id="XMLID_1847_" class="st1" d="M22.3,145.8c-5.8-1.7-11.7-3.5-17.5-5.2c-3.1-0.9-4.4,3.9-1.3,4.8
			c5.8,1.7,11.7,3.5,17.5,5.2C24.1,151.5,25.4,146.7,22.3,145.8L22.3,145.8z"/>
	</g>
</g>
<g id="XMLID_1791_">
	<g id="XMLID_1850_">
		<path id="XMLID_1854_" class="st1" d="M23.5,168.7c-11.8-3.1-23.5-6.5-35.2-10.2c-3.1-1-4.4,3.8-1.3,4.8
			c11.6,3.7,23.4,7.1,35.2,10.2C25.3,174.4,26.6,169.6,23.5,168.7L23.5,168.7z"/>
	</g>
</g>
<g id="XMLID_1799_">
	<g id="XMLID_1857_">
		<path id="XMLID_1861_" class="st1" d="M68.5,115.1c-7.6-8.6-15.6-16.9-23.9-24.9c-2.3-2.2-5.9,1.3-3.5,3.5
			c8.3,7.9,16.3,16.2,23.9,24.9C67.1,121.1,70.7,117.5,68.5,115.1L68.5,115.1z"/>
	</g>
</g>
<g id="XMLID_1806_">
	<g id="XMLID_1864_">
		<path id="XMLID_1868_" class="st1" d="M45.7,139c-6.3-4.5-12.9-8.7-19.6-12.6c-2.8-1.6-5.3,2.7-2.5,4.3
			c6.7,3.9,13.2,8.2,19.6,12.6C45.8,145.2,48.3,140.8,45.7,139L45.7,139z"/>
	</g>
</g>
<g id="XMLID_1813_">
	<g id="XMLID_1871_">
		<path id="XMLID_1875_" class="st1" d="M14.7,187.9c-9.4-1-18.7-2.8-27.8-5.4c-3.1-0.9-4.4,3.9-1.3,4.8c9.6,2.7,19.3,4.5,29.1,5.6
			C17.8,193.2,17.8,188.2,14.7,187.9L14.7,187.9z"/>
	</g>
</g>
<g id="XMLID_1820_">
	<g id="XMLID_1878_">
		<path id="XMLID_1882_" class="st1" d="M10.7,200.3c-4.9,0-9.6-0.5-14.3-1.6c-3.1-0.7-4.5,4.1-1.3,4.8c5.2,1.2,10.4,1.8,15.7,1.8
			C13.9,205.3,13.9,200.3,10.7,200.3L10.7,200.3z"/>
	</g>
</g>
<g id="XMLID_1827_">
	<g id="XMLID_1885_">
		<path id="XMLID_1889_" class="st1" d="M5.2,210.3c-4,0-8,0.2-12,0.6c-3.2,0.3-3.2,5.3,0,5c4-0.4,8-0.6,12-0.6
			C8.4,215.2,8.4,210.2,5.2,210.3L5.2,210.3z"/>
	</g>
</g>
<g id="XMLID_1834_">
	<g id="XMLID_1892_">
		<path id="XMLID_1897_" class="st1" d="M205.8,98.1c-8.6,8.3-17.3,16.6-25.9,24.9c-2.3,2.2,1.2,5.8,3.5,3.5
			c8.6-8.3,17.3-16.6,25.9-24.9C211.7,99.4,208.1,95.9,205.8,98.1L205.8,98.1z"/>
	</g>
</g>
<g id="XMLID_1841_">
	<g id="XMLID_1900_">
		<path id="XMLID_1904_" class="st1" d="M259.7,133c-12.3,7.9-24.5,15.7-36.8,23.6c-2.7,1.7-0.2,6.1,2.5,4.3
			c12.3-7.9,24.5-15.7,36.8-23.6C264.9,135.6,262.4,131.2,259.7,133L259.7,133z"/>
	</g>
</g>
<g id="XMLID_1848_">
	<g id="XMLID_1907_">
		<path id="XMLID_1911_" class="st1" d="M246.8,151.5c-6.5,4.4-13.4,8.3-20.4,11.7c-2.9,1.4-0.4,5.7,2.5,4.3
			c7.1-3.4,13.9-7.3,20.4-11.7C252,154,249.5,149.7,246.8,151.5L246.8,151.5z"/>
	</g>
</g>
<g id="XMLID_1855_">
	<g id="XMLID_1914_">
		<path id="XMLID_1918_" class="st1" d="M234.2,186c6.8,0.5,13.7,1.1,20.5,1.6c3.2,0.2,3.2-4.8,0-5c-6.8-0.5-13.7-1.1-20.5-1.6
			C231,180.8,231,185.8,234.2,186L234.2,186z"/>
	</g>
</g>
<g id="XMLID_73_">
	<g id="XMLID_529_">
		<path id="XMLID_533_" class="st1" d="M171.1,220.9c-2.1,5.5-4.5,10.9-7.2,16.3c-1.4,2.9,2.9,5.4,4.3,2.5
			c2.9-5.7,5.4-11.5,7.7-17.4C177.1,219.2,172.2,217.9,171.1,220.9L171.1,220.9z"/>
	</g>
</g>
<g id="XMLID_75_">
	<g id="XMLID_536_">
		<path id="XMLID_540_" class="st1" d="M172.6,226.5c0.6-1.4,0.9-2.2,1-3.8c0.2-2.1-2.9-3.4-4.3-1.8c-3.4,3.9-4.5,8.8-7,13.2
			c1.6,0.4,3.1,0.8,4.7,1.3c0.6-5.6,3.4-10.5,4-16.1c0.3-3-3.9-3-4.9-0.7c-2,4.8-3.9,9.7-5.9,14.5c1.6,0.4,3.2,0.9,4.8,1.3
			c0.9-6.4,4.1-12.2,3.9-18.8c-0.1-2.9-3.9-3.3-4.9-0.7c-2.1,5.6-4.2,11.1-6.3,16.7c-1.1,3,3.6,4.3,4.8,1.3
			c2.7-6.7,4.8-13.4,6.6-20.4c0.8-3.1-4-4.5-4.8-1.3c-1.7,7-3.9,13.7-6.6,20.4c1.6,0.4,3.2,0.9,4.8,1.3c2.1-5.6,4.2-11.1,6.3-16.7
			c-1.6-0.2-3.3-0.4-4.9-0.7c0.2,6.1-2.9,11.5-3.7,17.4c-0.4,3.2,3.6,4.3,4.8,1.3c2-4.8,3.9-9.7,5.9-14.5c-1.6-0.2-3.3-0.4-4.9-0.7
			c-0.6,5.6-3.5,10.5-4,16.1c-0.3,2.6,3.5,3.3,4.7,1.3c2.3-4,3.3-8.7,6.3-12.2c-1.4-0.6-2.8-1.2-4.3-1.8c-0.1,0.4-0.2,0.8-0.3,1.3
			C167,226.8,171.3,229.4,172.6,226.5L172.6,226.5z"/>
	</g>
</g>
<g id="XMLID_77_">
	<g id="XMLID_543_">
		<path id="XMLID_547_" class="st1" d="M174.2,222.6c3.7-0.2,8.9-4.6,8.3-8.8c-0.2-1.8-1.6-2.7-3.3-3c-1.2-0.2-3.9,0.6-4.6,0.6
			c-2,0.1-4-0.5-6-0.4c-1.1,0-2.1,0.7-2.4,1.8c-0.8,2.8,0.8,7.1,3.5,8.5c3.1,1.6,5.3-1.7,6.9-4c1.3-1.8-0.9-4.2-2.8-3.7
			c-1.9,0.5-2.4,1-3.6,2.6c-1.2,1.6,0.4,3.8,2.2,3.8c1.6,0,2.1-0.1,3.6-0.5c-1.1-0.8-2.1-1.6-3.2-2.4c-0.6,5.3-1.1,10.5-1.7,15.8
			c-0.3,3.2-1.9,7.7,0.9,10.1c0.9,0.8,2,0.9,3,0.4c3-1.4,3.8-5,4.6-7.9c1.5-5.4,2.7-10.8,3.6-16.3c0.4-2.3-2.3-4.4-4.2-2.4
			c-3.1,3.4-3.9,7.4-4.5,11.9c-0.4,3.2,4.6,3.1,5,0c0.4-3,0.9-6,3-8.3c-1.4-0.8-2.8-1.6-4.2-2.4c-0.6,3.7-1.4,7.3-2.2,10.9
			c-0.5,2.2-1.3,9.1-3.7,10.3c1,0.1,2,0.3,3,0.4c-0.9-0.8,0.8-9,0.9-10.3c0.4-4,0.8-8,1.3-12.1c0.2-1.7-1.7-2.8-3.2-2.4
			c-0.8,0.1-1.5,0.2-2.3,0.3c0.7,1.3,1.4,2.5,2.2,3.8c0.2-0.1,0.4-0.2,0.6-0.3c-0.9-1.2-1.9-2.4-2.8-3.7c-0.6,0.9-1.3,1.7-2.2,2.4
			c0.8,0,1.7,0,2.5,0c-1.1-0.8-1.7-1.8-1.6-3c-0.8,0.6-1.6,1.2-2.4,1.8c1.7-0.1,3.4,0.4,5.1,0.4c0.8,0,4.4-0.8,5-0.4
			c-0.4-0.7-0.8-1.4-1.2-2.2c0,1-2.7,3.7-3.3,3.8C171,217.8,171,222.8,174.2,222.6L174.2,222.6z"/>
	</g>
</g>
<g id="XMLID_79_">
	<g id="XMLID_552_">
		<path id="XMLID_556_" class="st1" d="M182.6,211.3c-0.2-0.4-0.6-0.6-1-0.6c0.1,0.4,0.3,0.7,0.4,1.1c0.2-0.2,0.3-0.3,0.5-0.5
			c0.5-0.5,0-1.2-0.6-1c-0.8,0.1-1.5,0.4-2.1,0.8c-0.7,0.4-0.1,1.5,0.6,1.1c0.6-0.4,1.1-0.6,1.8-0.7c-0.2-0.3-0.4-0.7-0.6-1
			c-0.2,0.2-0.3,0.3-0.5,0.5c-0.4,0.4-0.1,1.1,0.4,1.1c0,0,0,0-0.1,0C181.9,212.6,183,212,182.6,211.3L182.6,211.3z"/>
	</g>
</g>
<g id="XMLID_83_">
	<g id="XMLID_559_">
		<path id="XMLID_563_" class="st1" d="M165.8,210.3c-0.1-0.3-0.2-0.5-0.1-0.8c-0.4-0.1-0.8-0.1-1.2-0.2c-0.1,0.9-0.3,1.8-0.8,2.7
			c-0.4,0.7,0.7,1.4,1.1,0.6c0.5-1.1,0.8-2.2,0.9-3.3c0.1-0.7-1.1-0.9-1.2-0.2c-0.1,0.6,0,1.2,0.3,1.8
			C165.1,211.7,166.1,211,165.8,210.3L165.8,210.3z"/>
	</g>
</g>
<g id="XMLID_89_">
	<g id="XMLID_566_">
		<path id="XMLID_570_" class="st1" d="M166.3,201.9C166.3,201.8,166.3,201.8,166.3,201.9c-0.2-0.1-0.5-0.1-0.7-0.1c0,0,0,0,0.1,0
			c-0.1-0.2-0.1-0.4-0.2-0.6c-0.1,0.3-0.4,0.6-0.6,1c-0.1,0.3-0.3,0.6-0.4,1c-0.2,0.7-0.3,1.5-0.2,2.2c0.1,0.8,1.3,0.8,1.2,0
			c-0.1-0.7,0-1.4,0.2-2.1c0.2-0.6,0.6-1.1,0.9-1.7c0.1-0.2,0-0.5-0.2-0.6c0,0,0,0-0.1,0c-0.2-0.2-0.5-0.2-0.8-0.1c0,0,0,0,0,0
			C164.9,201.2,165.6,202.2,166.3,201.9L166.3,201.9z"/>
	</g>
</g>
<g id="XMLID_503_">
	<g id="XMLID_573_">
		<path id="XMLID_577_" class="st1" d="M166.5,250c9.7,0,9.7-15,0-15C156.8,235,156.8,250,166.5,250L166.5,250z"/>
	</g>
</g>
<g id="XMLID_515_">
	<g id="XMLID_580_">
		<path id="XMLID_584_" class="st1" d="M172.3,239.6c0-0.3-0.1-0.6-0.1-0.9c-0.5-3.2-4.2-5.5-7.2-5.5c-3.5,0-6.1,2.4-7.2,5.5
			c-1.4,3.8-2.1,7.8-2,11.9c0,6.1,6.3,8.8,11.3,6.5c3.7-1.7,5.6-5.6,7-9.2c0.6-1.6,1.1-3.3,1.4-5c0.2-1.3,0.4-2.6,0.5-3.9
			c0-0.2,0-2.7-0.2-1.6c-1.7,1.7-3.5,3.5-5.2,5.2c-0.7,0-1.3,0-2,0c0.8,0.2,1.6,0.3,2.4,0.3c1.4,0,2.9-0.3,4.2-1
			c0.7-0.4,1.3-1,1.8-1.6c-0.5,0.5,2.7-3.7,1.1-1.9c-2.4,0.6-4.9,1.3-7.3,1.9c0.1,0,0.3,0.1,0.4,0.1c-1.5-1.1-3-2.3-4.5-3.4
			c-1.1-2.3,1.2,2.2,1.9,2.7c-0.7-1.8-1.5-3.5-2.2-5.3c-0.4,3.6-0.7,7.2-1.2,10.7c-0.5,3.7-1.2,7.5,1.2,10.8
			c2.4,3.3,6.5,4.9,10.3,2.7c3.2-1.9,5.1-7,2.7-10.3c0.1,1.3,0.2,1.6,0.3,0.8c0.2-1.1,0.3-2.3,0.5-3.4c0.2-1.9,0.5-3.8,0.7-5.7
			c0.4-3.8,1.6-8.5-1.9-11.2c0.6,1.1,1.3,2.2,1.9,3.3c-0.8-3-2.8-5.5-6-6.3c-2.5-0.6-5.6-0.1-7.3,1.9c-0.1,0.1-2.3,3.2-1.5,2.2
			c1.8-0.7,3.5-1.5,5.3-2.2c1.1,0-2-0.2-2.4-0.2c-0.8,0-1.6,0.2-2.4,0.4c-3.1,1-5,3.5-5.4,6.6c-0.3,2,0,4-0.5,6.1
			c-0.2,0.8-0.5,1.7-0.8,2.5c-0.2,0.7-1,1.1-0.3,0.8c3.8,2.2,7.5,4.3,11.3,6.5c0-2.8,0.5-5.2,1.5-7.9c-4.8,0-9.6,0-14.5,0
			c0,0.3,0.1,0.6,0.1,0.9c0.6,4,5.6,6.2,9.2,5.2C171.3,247.7,172.9,243.7,172.3,239.6L172.3,239.6z"/>
	</g>
</g>
<g id="XMLID_527_">
	<g id="XMLID_587_">
		<path id="XMLID_591_" class="st1" d="M164.5,238.3c0-0.3,0.1-0.7,0.1-1c-3.2,0-6.4,0-9.6,0c0.1,0.5-0.7,2.7-0.8,3.1
			c-0.3,1.4-0.7,2.8-1,4.3c-0.5,2.5-0.6,5.8-1.7,8.2c-2.7,5.8,5.9,10.9,8.6,5c1.8-3.8,2.1-7.9,3-12c0.8-3.8,2.3-7.4,1.5-11.3
			c-1-4.7-8.7-4.8-9.6,0c-0.2,1.2-0.4,2.4-0.5,3.7C154.2,244.7,164.2,244.7,164.5,238.3L164.5,238.3z"/>
	</g>
</g>
<g id="XMLID_534_">
	<g id="XMLID_594_">
		<path id="XMLID_598_" class="st1" d="M207.8,248.8c0.3,1,0.2-0.7,0.1,0.3c0,0.5,0,1-0.1,1.4c0,0.9-0.1,1.8-0.1,2.7
			c3.3,0,6.7,0,10,0c0-0.1,0-0.2,0-0.3c0.1-2.6-2.4-5.1-5-5c-2.8,0.1-4.9,2.2-5,5c0,0.1,0,0.2,0,0.3c-0.1,2.6,2.4,5.1,5,5
			c2.8-0.1,4.9-2.2,5-5c0.1-2.3,0.5-4.8-0.2-7.1c-0.8-2.5-3.5-4.3-6.2-3.5C208.8,243.4,206.9,246.1,207.8,248.8L207.8,248.8z"/>
	</g>
</g>
<g id="XMLID_541_">
	<g id="XMLID_601_">
		<path id="XMLID_605_" class="st1" d="M216.6,246.3c3.7-4.5-4.6-3.8-7-4c-2.3-0.2-2.8,0-3.2,2.2c-0.7,3.6-1.3,7.2-1.9,10.7
			c-0.1,0.5,0.6,1.2,1,0.6c1.1-1.4,1.6-3.1,2-4.9c0.5-1.9,0.3-5.6,2.6-6.1c0.6-0.1,0.6-1.1,0-1.2c-1.6-0.3-2.1,0.8-2.7,2.1
			c-1.1,2.4-1.7,5-2.1,7.6c-0.1,0.4,0.2,0.8,0.6,0.8c0.3,0,0.7,0,1,0.1c-0.2-0.2-0.4-0.4-0.6-0.6c0,0.5,0.1,1.1,0.1,1.6
			c0,0.8,1.3,0.8,1.2,0c0-0.5-0.1-1.1-0.1-1.6c0-0.4-0.3-0.6-0.6-0.6c-0.3,0-0.7,0-1-0.1c0.2,0.3,0.4,0.5,0.6,0.8
			c0.2-1.2,1.6-9.1,3.3-8.8c0-0.4,0-0.8,0-1.2c-1.9,0.4-2.2,0.4-2.5,2.3c-0.5,2.8-0.8,6.7-2.6,9c0.3,0.2,0.7,0.4,1,0.6
			c0.6-3.5,0.9-7.3,1.9-10.7c0.3-0.9,0.1-1.2,1.1-1.4c0.7-0.1,1.6,0.1,2.3,0.2c0.9,0.1,1.8,0.2,2.8,0.3c0.6,0.1,3.3,0,2,1.5
			C215.2,246,216.1,246.9,216.6,246.3L216.6,246.3z"/>
	</g>
</g>
<g id="XMLID_548_">
	<g id="XMLID_608_">
		<path id="XMLID_612_" class="st1" d="M57.7,250.5c-0.1,0.2-0.2,0.5-0.2,0.7c1.2,0.2,2.5,0.3,3.7,0.5c0-1-0.1-1.7-0.3-2.7
			c-0.3-1.9-3.1-1.6-3.6,0c-0.2,0.8-0.5,1.5-0.7,2.3c1.2,0.2,2.5,0.3,3.7,0.5c0.1-2.2,0.3-4.3,0.4-6.5c0.1-2.2-3.1-2.5-3.7-0.5
			c-0.9,2.9-1.7,5.8-2.6,8.7c-0.3,1,0.4,2,1.3,2.3c0.7,0.2,1.1,0.1,1.7,0.1c2-0.1,3-0.6,4.9,0.4c1.8,0.9,3.3-0.9,2.6-2.6
			c-1.2-2.9-2.4-5.8-3.3-8.7c-0.3-1-0.7-2.1-0.9-3.1c-0.2-1.3,0.1-2.4,0.1-3.6c-1.2,0.2-2.5,0.3-3.7,0.5c0.8,3.1,1.8,6,3.1,9
			c0.9,2.2,4.2,0.3,3.2-1.9c-1.1-2.6-2-5.3-2.7-8.1c-0.5-2-3.7-1.6-3.7,0.5c0,1.1-0.3,2.2-0.2,3.4c0.2,1.5,0.6,3,1.1,4.4
			c1.1,3.3,2.3,6.5,3.7,9.6c0.9-0.9,1.7-1.7,2.6-2.6c-1.3-0.6-2.5-1.1-3.9-1.2c-1-0.1-2.9,0.6-3.6,0.4c0.4,0.8,0.9,1.5,1.3,2.3
			c0.9-2.9,1.7-5.8,2.6-8.7c-1.2-0.2-2.5-0.3-3.7-0.5c-0.1,2.2-0.3,4.3-0.4,6.5c-0.1,2.2,3.1,2.5,3.7,0.5c0.2-0.8,0.5-1.5,0.7-2.3
			c-1.2,0-2.4,0-3.6,0c0,0.6,0.1,1.1,0.1,1.7c0,2.2,3,2.5,3.7,0.5c0.1-0.2,0.2-0.5,0.2-0.7C62.1,249.2,58.5,248.2,57.7,250.5
			L57.7,250.5z"/>
	</g>
</g>
<g id="XMLID_557_">
	<g id="XMLID_615_">
		<path id="XMLID_619_" class="st1" d="M59.3,237c-0.2-0.3,0-1.9,0-2.3c0-0.7-1.1-0.9-1.2-0.2c-0.2,1.2-0.3,2.4-0.5,3.6
			c0.4,0,0.8,0,1.2,0c-0.1-1.6,0.6-3.2,0-4.7c-0.2-0.6-1.2-0.6-1.2,0.2c0,1.8,0,3.6,0,5.4c0,0.8,1.3,0.8,1.2,0c0-1.8,0-3.6,0-5.4
			c-0.4,0.1-0.8,0.1-1.2,0.2c0.5,1.4-0.1,2.9,0,4.4c0,0.8,1.2,0.8,1.2,0c0.1-1.1,0.3-2.2,0.4-3.3c-0.4-0.1-0.8-0.1-1.2-0.2
			c0,1-0.3,2.3,0.3,3.2C58.9,238.5,59.8,237.6,59.3,237L59.3,237z"/>
	</g>
</g>
<g id="XMLID_564_">
	<g id="XMLID_622_">
		<path id="XMLID_626_" class="st1" d="M77.4,231.7c-0.1,1.8,0.3,3.6,1,5.2c0.3,0.7,1.4,0.1,1.1-0.6c-0.6-1.5-0.9-3-0.9-4.6
			C78.6,230.9,77.4,230.9,77.4,231.7L77.4,231.7z"/>
	</g>
</g>
<g id="XMLID_571_">
	<g id="XMLID_629_">
		<path id="XMLID_633_" class="st1" d="M123.4,229.6c-0.5,0.4-1.2,0.5-1.8,0.4c-0.7-0.1-1.2,0.6-1.2,1.2c0,0.7,0.6,1.2,1.2,1.2
			c1.3,0.2,2.6-0.3,3.6-1.1c0.5-0.4,0.4-1.3,0-1.8C124.7,229.1,123.9,229.2,123.4,229.6L123.4,229.6z"/>
	</g>
</g>
<g id="XMLID_578_">
	<g id="XMLID_636_">
		<path id="XMLID_640_" class="st1" d="M122.3,231.9c1.6,6.6,4.6,12.9,7.1,19.2c0.8-0.3,1.5-0.6,2.3-1c-2.5-3.6-4.8-7.3-6.8-11.2
			c-0.7-1.4-2.5-0.3-2.3,1c0.6,4.1,1.2,8.1,1.8,12.2c0.8-0.3,1.5-0.6,2.3-1c-1.8-2.9-1.8-6.5-3.2-9.6c-0.5-1.1-2.4-0.6-2.3,0.6
			c0.3,4,0.8,8,1.3,12.1c0.8-0.1,1.6-0.2,2.5-0.3c-0.2-1.4-0.4-2.8-0.6-4.1c-0.2-1.5-2.3-0.9-2.5,0.3c-0.2,1.5-0.2,2.8-0.1,4.2
			c0.1,1.6,2.4,1.6,2.5,0c0.1-1.8,0-3.4-0.2-5.1c-0.2-1.6-2.6-1.6-2.5,0c0.2,2,0.5,5.3,3,5.8c0.6,0.1,1.1-0.1,1.4-0.6
			c1.5-2.2,1.1-5.2,0.6-7.6c-0.3-1.4-2.5-1.1-2.5,0.3c0,2.9,0.7,5.2,2.1,7.7c0.5,0.9,2,0.8,2.3-0.3c0.7-3,0.2-5.4-0.7-8.3
			c-0.5-1.5-2.9-0.9-2.4,0.7c0.8,2.4,1.6,4.7,2.6,7c0.6,1.3,2.2,0.4,2.3-0.6c0.1-1.4,0.1-2.6,0-4c-0.2-1.6-2.6-1.6-2.5,0
			c0.1,1.9,0.2,3.7,0.4,5.5c0.4-0.4,0.8-0.8,1.2-1.2c-1.7-0.1-3.1-0.1-4.7,0.1c-1.6,0.2-1.6,2.7,0,2.5c1.7-0.2,3.1-0.2,4.7-0.1
			c0.6,0,1.3-0.6,1.2-1.2c-0.2-1.8-0.3-3.7-0.4-5.5c-0.8,0-1.7,0-2.5,0c0.2,1.4,0.2,2.6,0,4c0.8-0.2,1.6-0.4,2.3-0.6
			c-0.9-2.1-1.7-4.2-2.4-6.4c-0.8,0.2-1.6,0.4-2.4,0.7c0.8,2.4,1.4,4.3,0.7,7c0.8-0.1,1.5-0.2,2.3-0.3c-1.2-2.1-1.8-4-1.8-6.4
			c-0.8,0.1-1.6,0.2-2.5,0.3c0.6,2.9,0.6,3.5-0.1,1.8c-0.8,0-1.7,0-2.5,0c0.2,1.8,0.3,3.4,0.2,5.1c0.8,0,1.7,0,2.5,0
			c-0.1-1.5,0-2.8,0.1-4.2c-0.8,0.1-1.6,0.2-2.5,0.3c0.2,1.4,0.4,2.8,0.6,4.1c0.2,1.4,2.6,1.1,2.5-0.3c-0.5-4-0.9-8-1.3-12.1
			c-0.8,0.2-1.6,0.4-2.3,0.6c1.4,3.2,1.3,6.6,3.2,9.6c0.8,1.3,2.5,0.4,2.3-1c-0.6-4.1-1.2-8.1-1.8-12.2c-0.8,0.3-1.5,0.6-2.3,1
			c2,3.9,4.2,7.6,6.8,11.2c0.8,1.1,2.9,0.5,2.3-1c-2.5-6.3-5.5-12.6-7.1-19.2C124.3,229.6,121.9,230.3,122.3,231.9L122.3,231.9z"/>
	</g>
</g>
<g id="XMLID_585_">
	<g id="XMLID_643_">
		<path id="XMLID_745_" class="st1" d="M123.8,235c-0.1-0.9-0.2-1.9-0.3-2.8c-0.2-1.5-2.4-1-2.5,0.3c-0.2,2.8,0,6.3,0.8,9.1
			c0.3,1.1,2.2,1.3,2.4,0c0.3-1.5,0.4-3.1,0.3-4.6c0-1.3-2.2-1.8-2.5-0.3c-0.1,0.8-0.1,1.5,0,2.4c0.2,1.6,2.6,0.9,2.4-0.7
			c0-0.3,0-0.7,0-1c-0.8-0.1-1.6-0.2-2.5-0.3c0,1.3,0,2.6-0.2,4c0.8,0,1.6,0,2.4,0c-0.7-2.5-0.9-5.8-0.7-8.4
			c-0.8,0.1-1.6,0.2-2.5,0.3c0.1,0.7,0.2,1.4,0.2,2.2C121.5,236.6,124,236.7,123.8,235L123.8,235z"/>
	</g>
</g>
<g id="XMLID_592_">
	<g id="XMLID_748_">
		<path id="XMLID_752_" class="st1" d="M145.4,216.3c-0.5,0.2-1.1,0.4-1.6,0.6c-0.6,0.2-1.1,0.8-0.9,1.5c0.2,0.6,0.9,1.1,1.5,0.9
			c0.5-0.2,1.1-0.4,1.6-0.6c0.6-0.2,1.1-0.8,0.9-1.5C146.7,216.6,146,216.1,145.4,216.3L145.4,216.3z"/>
	</g>
</g>
<g id="XMLID_599_">
	<g id="XMLID_755_">
		<path id="XMLID_759_" class="st1" d="M141.7,217.3c-0.5,0-0.9,0-1.4,0c-1.6,0-1.6,2.5,0,2.5c0.5,0,0.9,0,1.4,0
			C143.3,219.8,143.3,217.3,141.7,217.3L141.7,217.3z"/>
	</g>
</g>
<g id="XMLID_606_">
	<g id="XMLID_762_">
		<path id="XMLID_766_" class="st1" d="M138.9,217.4c-0.7-0.1-1.3-0.3-2-0.6c-0.6-0.3-1.4,0.3-1.5,0.9c-0.2,0.7,0.2,1.3,0.9,1.5
			c0.6,0.3,1.3,0.5,2,0.6c0.7,0.1,1.3-0.2,1.5-0.9C139.9,218.3,139.5,217.5,138.9,217.4L138.9,217.4z"/>
	</g>
</g>
<g id="XMLID_613_">
	<g id="XMLID_769_">
		<path id="XMLID_773_" class="st1" d="M135.4,217.7c-0.6-0.1-1.1-0.3-1.6-0.7c-0.6-0.4-1.4-0.1-1.7,0.4c-0.4,0.6-0.1,1.3,0.4,1.7
			c0.7,0.5,1.4,0.8,2.2,0.9c0.7,0.1,1.3-0.2,1.5-0.9C136.4,218.7,136,217.9,135.4,217.7L135.4,217.7z"/>
	</g>
</g>
<g id="XMLID_620_">
	<g id="XMLID_776_">
		<path id="XMLID_780_" class="st1" d="M81.7,178.9c0.1,0.2,0.2,0.4,0.3,0.6c-0.1,0.2-0.2,0.4-0.4,0.6c-0.2,0.2-0.5,0.1-0.7-0.1
			c-0.1-0.1-0.2-0.2-0.2-0.4c0-0.1,0.2-0.4,0.3-0.4c0.2,0,0.4,0,0.7,0c0.1,0.1,0.3,0.2,0.4,0.3c0.1,0.2,0.1,0.4,0.2,0.6
			c0,0,0-0.1,0-0.1c-0.1-0.7-0.5-1.2-1.2-1.2c-0.6,0-1.3,0.6-1.2,1.2c0.1,0.6,0.3,1.1,0.9,1.4c0.6,0.3,1.4,0.2,1.9-0.3
			c0.8-0.7,1-2,0.3-2.8c-0.7-0.9-2-1-2.8-0.2c-0.9,0.8-0.6,2.2,0.4,2.9c0.6,0.4,1.4,0.1,1.7-0.4C82.5,180,82.3,179.2,81.7,178.9
			L81.7,178.9z"/>
	</g>
</g>
<g id="XMLID_627_">
	<g id="XMLID_783_">
		<path id="XMLID_787_" class="st1" d="M79.2,181.9c-0.3,0.3-0.5,0.5-0.8,0.8c-0.1-0.1-0.3-0.1-0.4-0.2c0,0,0,0-0.1,0
			c0,0,0,0.2,0.1,0.2c0.2-0.2,0.1-0.4,0.4-0.5c0.3-0.1,0.3,0.1,0.5,0.2c0,0,0-0.1,0,0c0,0,0,0.3,0,0c0.5-1.5-1.9-2.2-2.4-0.7
			c-0.3,1,0,2.2,1,2.7c1,0.5,2.3,0.1,2.8-0.9c0.4-1-0.1-2.5-1.1-3c-1.1-0.6-2.6,0.2-2.6,1.5C76.7,183.5,79.2,183.6,79.2,181.9
			L79.2,181.9z"/>
	</g>
</g>
<g id="XMLID_634_">
	<g id="XMLID_790_">
		<path id="XMLID_794_" class="st1" d="M74.5,185.3c0.2,0.2,0.2,0.2,0.3,0.4c0-0.1,0,0.1,0,0.1c0-0.1,0.1-0.2,0,0
			c0.1-0.2,0.2-0.4,0.3-0.6c0.5-0.6,0.5-0.1,0.8,0c-0.1-0.1-0.1-0.1,0,0c0-0.1,0-0.2,0-0.1c0,0.1,0,0.1,0-0.1c0,0.1,0,0.1,0,0
			c0,0.1,0,0.1,0,0c-0.1,0.1,0,0.1,0.1,0c0.5-0.4,0.4-1.3,0-1.8c-0.5-0.5-1.3-0.4-1.8,0c-1.4,1.2-1,3.8,0.8,4.3
			c1.2,0.3,2.3-0.4,2.3-1.7c0-0.9-0.4-1.8-1.1-2.4c-0.5-0.4-1.3-0.5-1.8,0C74,184,74,184.8,74.5,185.3L74.5,185.3z"/>
	</g>
</g>
<g id="XMLID_641_">
	<g id="XMLID_797_">
		<path id="XMLID_801_" class="st1" d="M72.1,188.1C72.3,188.1,72.2,188.1,72.1,188.1c0-0.1,0.1-0.1,0.1,0.1c0,0,0.1,0.5,0.1,0.5
			c0.1-0.3,0.2-0.5,0.3-0.8c0,0,0.1-0.1,0.1-0.1c0,0,0.1,0,0.1,0c0.1,0,0,0-0.1-0.1c0,0,0.1,0.1,0.1,0.1c0,0-0.1-0.2,0,0
			c0-0.2,0-0.2,0-0.1c-0.1,0.1,0,0.1,0.1-0.1c0.5-0.4,0.5-1.3,0-1.8c-0.5-0.5-1.3-0.5-1.8,0c-0.8,0.7-1.1,2-0.6,3
			c0.5,1,1.7,1.5,2.8,1.3c2.7-0.7,1-4.9-1.4-4.7c-0.7,0.1-1.2,0.5-1.2,1.2C70.8,187.5,71.4,188.2,72.1,188.1L72.1,188.1z"/>
	</g>
</g>
<g id="XMLID_746_">
	<g id="XMLID_804_">
		<path id="XMLID_808_" class="st1" d="M139.1,196.6c-0.7,0.2-1.4,0.2-2.1,0c-0.8-0.3-1.1,0.9-0.3,1.2c0.9,0.3,1.9,0.3,2.8,0
			C140.2,197.6,139.9,196.4,139.1,196.6L139.1,196.6z"/>
	</g>
</g>
<g id="XMLID_753_">
	<g id="XMLID_811_">
		<path id="XMLID_815_" class="st1" d="M139.5,197.6c-0.7,0.2-2,0.5-2.5-0.2c0.1,0.1,0.1,0.3,0.2,0.4c0-0.1,0-0.1,0-0.2
			c-0.1-0.8-1.3-0.8-1.2,0c0.2,1.6,2.9,1.5,4,1.1C140.6,198.5,140.2,197.3,139.5,197.6L139.5,197.6z"/>
	</g>
</g>
<g id="XMLID_760_">
	<g id="XMLID_818_">
		<path id="XMLID_822_" class="st1" d="M112.6,148.3c-1.2-0.9-2.6-1.1-3.9-0.4c-0.7,0.4-0.1,1.4,0.6,1.1c0.8-0.4,1.7-0.3,2.4,0.2
			C112.4,149.7,113.3,148.8,112.6,148.3L112.6,148.3z"/>
	</g>
</g>
<g id="XMLID_767_">
	<g id="XMLID_825_">
		<path id="XMLID_829_" class="st1" d="M112.9,146.5c-1-0.8-2.2-1.1-3.4-0.9c-0.3,0-0.5,0.3-0.5,0.6c0,0.5,0,1.1,0.4,1.5
			c0.3,0.4,0.9,0.6,1.4,0.4c0.5-0.2,0.8-0.7,0.7-1.2c-0.1-0.7-0.8-0.8-1.4-0.7c-0.8,0.1-0.5,1.3,0.3,1.2c0.1,0,0.1,0,0.2,0.1
			c-0.1-0.1-0.3-0.3-0.4-0.4c0.2,0,0.3-0.1,0.1-0.1c0-0.1-0.1-0.1-0.1-0.2c-0.1-0.2,0-0.4,0-0.6c-0.2,0.2-0.3,0.4-0.5,0.6
			c0.8-0.1,1.6,0.1,2.2,0.6C112.6,147.9,113.5,147,112.9,146.5L112.9,146.5z"/>
	</g>
</g>
<g id="XMLID_774_">
	<g id="XMLID_832_">
		<path id="XMLID_836_" class="st1" d="M139.5,24c-0.2,24.3-0.6,48.5-1.3,72.7c0,1.6,2.5,1.6,2.5,0c0.7-24.2,1.2-48.5,1.3-72.7
			C142,22.3,139.5,22.3,139.5,24L139.5,24z"/>
	</g>
</g>
<g id="XMLID_781_">
	<g id="XMLID_935_">
		<path id="XMLID_939_" class="st1" d="M166.8,77.8c-3.2,8.4-4.4,17.3-7.8,25.6c-0.6,1.5,1.8,2.1,2.4,0.7c3.4-8.3,4.6-17.3,7.8-25.6
			C169.8,76.9,167.4,76.3,166.8,77.8L166.8,77.8z"/>
	</g>
</g>
<g id="XMLID_788_">
	<g id="XMLID_942_">
		<path id="XMLID_946_" class="st1" d="M159.4,62.2c-1.8,8.6-3.7,17.1-5.6,25.7c-0.4,1.6,2.1,2.2,2.4,0.7c1.9-8.5,3.8-17.1,5.6-25.7
			C162.1,61.3,159.7,60.6,159.4,62.2L159.4,62.2z"/>
	</g>
</g>
<g id="XMLID_795_">
	<g id="XMLID_949_">
		<path id="XMLID_953_" class="st1" d="M192.4,65.6c-2.2,7.4-4.8,14.6-7.6,21.8c-0.6,1.5,1.8,2.1,2.4,0.7c2.9-7.1,5.4-14.4,7.6-21.8
			C195.3,64.7,192.9,64.1,192.4,65.6L192.4,65.6z"/>
	</g>
</g>
<g id="XMLID_802_">
	<g id="XMLID_956_">
		<path id="XMLID_960_" class="st1" d="M224,96.3c-7,5.8-13.7,11.9-20.3,18.2c-1.2,1.1,0.6,2.9,1.8,1.8c6.5-6.3,13.3-12.4,20.3-18.2
			C227,97,225.2,95.3,224,96.3L224,96.3z"/>
	</g>
</g>
<g id="XMLID_809_">
	<g id="XMLID_963_">
		<path id="XMLID_967_" class="st1" d="M83.1,35.6c3.2,8.5,6.9,16.9,11,25c0.7,1.4,2.9,0.2,2.2-1.3c-4-8-7.5-16.1-10.7-24.4
			C84.9,33.4,82.5,34.1,83.1,35.6L83.1,35.6z"/>
	</g>
</g>
<g id="XMLID_816_">
	<g id="XMLID_970_">
		<path id="XMLID_974_" class="st1" d="M19.7,47.7C28.3,56.9,37.1,66,46,74.9c1.1,1.1,2.9-0.6,1.8-1.8c-8.9-9-17.7-18-26.3-27.2
			C20.3,44.8,18.6,46.5,19.7,47.7L19.7,47.7z"/>
	</g>
</g>
<g id="XMLID_823_">
	<g id="XMLID_977_">
		<path id="XMLID_981_" class="st1" d="M57,90.9c2.7,4.8,5.8,9.2,9.4,13.3c1.1,1.2,2.8-0.6,1.8-1.8c-3.5-3.9-6.5-8.2-9.1-12.8
			C58.4,88.2,56.3,89.5,57,90.9L57,90.9z"/>
	</g>
</g>
<g id="XMLID_830_">
	<g id="XMLID_984_">
		<path id="XMLID_988_" class="st1" d="M36.2,157.7c-8.2-0.6-16.4-1.1-24.6-1.7c-1.6-0.1-1.6,2.4,0,2.5c8.2,0.6,16.4,1.1,24.6,1.7
			C37.8,160.3,37.8,157.8,36.2,157.7L36.2,157.7z"/>
	</g>
</g>
<g id="XMLID_837_">
	<g id="XMLID_991_">
		<path id="XMLID_995_" class="st1" d="M217.4,153.2c3.3-3.1,6.8-6,10.4-8.6c1.3-0.9,0-3.1-1.3-2.2c-3.8,2.8-7.5,5.8-10.9,9
			C214.4,152.5,216.2,154.3,217.4,153.2L217.4,153.2z"/>
	</g>
</g>
<g id="XMLID_940_">
	<g id="XMLID_998_">
		<path id="XMLID_1002_" class="st1" d="M233.3,50.6c0.5-0.5,1-1,1.6-1.5c-0.6-0.6-1.1-1.1-1.7-1.7c-5.3,7.2-11.8,13.4-16.3,21.2
			c-0.8,1.4,1.4,2.7,2.2,1.3c4.5-7.8,11-14,16.3-21.2c0.8-1-0.7-2.4-1.7-1.7c-1.1,0.7-1.8,1.4-2.5,2.4
			C230.2,50.7,232.3,51.9,233.3,50.6L233.3,50.6z"/>
	</g>
</g>
<g id="XMLID_947_">
	<g id="XMLID_1005_">
		<path id="XMLID_1009_" class="st1" d="M195.4,18.3c-2.3,4.2-4.7,8.3-7,12.5c-0.8,1.4,1.4,2.7,2.2,1.3c2.3-4.2,4.7-8.3,7-12.5
			C198.3,18.2,196.2,16.9,195.4,18.3L195.4,18.3z"/>
	</g>
</g>
<g id="XMLID_954_">
	<g id="XMLID_1012_">
		<path id="XMLID_1016_" class="st1" d="M257.5,62c0,0,0-0.1,0-0.1c-0.3,0.5-0.6,1-0.9,1.5c0.1,0,0.1,0,0.2,0c-0.5-0.5-1-1-1.5-1.5
			c-0.4,2-3.3,4.4-4.4,5.9c-1.1,1.4-2.2,2.8-3.3,4.2c-2.4,3-4.7,6-7.1,9c-1,1.2,0.8,3,1.8,1.8c3-3.8,6-7.6,9-11.4
			c1.8-2.3,5.9-6,6.5-8.8c0.2-1-0.6-1.7-1.5-1.5c-0.1,0-0.1,0-0.2,0c-0.7,0.1-1,0.9-0.9,1.5c0,0,0,0.1,0,0.1
			C255.4,64.2,257.9,63.5,257.5,62L257.5,62z"/>
	</g>
</g>
<g id="XMLID_961_">
	<g id="XMLID_1019_">
		<path id="XMLID_1023_" class="st1" d="M248.8,78.8c-2.2,2.2-4.1,4.6-5.7,7.2c-0.8,1.4,1.3,2.6,2.2,1.3c1.5-2.5,3.3-4.7,5.3-6.7
			C251.7,79.5,249.9,77.7,248.8,78.8L248.8,78.8z"/>
	</g>
</g>
<g id="XMLID_968_">
	<g id="XMLID_1026_">
		<path id="XMLID_1031_" class="st1" d="M256,110.1c-3.1,1.4-6.1,3-9,4.8c-1.4,0.9-0.1,3,1.3,2.2c2.9-1.8,5.9-3.4,9-4.8
			C258.7,111.6,257.5,109.4,256,110.1L256,110.1z"/>
	</g>
</g>
<g id="XMLID_975_">
	<g id="XMLID_1034_">
		<path id="XMLID_1038_" class="st1" d="M168.7,4.6c-0.8,3.9-1.3,7.9-1.5,11.8c-0.1,1.6,2.4,1.6,2.5,0c0.3-3.8,0.7-7.5,1.5-11.2
			C171.4,3.7,169,3,168.7,4.6L168.7,4.6z"/>
	</g>
</g>
<g id="XMLID_982_">
	<g id="XMLID_1041_">
		<path id="XMLID_1045_" class="st1" d="M174.2,16.6c-1,4.4-1.8,8.8-2.5,13.2c-0.2,1.6,2.2,2.3,2.4,0.7c0.7-4.4,1.5-8.9,2.5-13.2
			C177,15.7,174.6,15.1,174.2,16.6L174.2,16.6z"/>
	</g>
</g>
<g id="XMLID_989_">
	<g id="XMLID_1048_">
		<path id="XMLID_1052_" class="st1" d="M109.9-2.5c1.1,7.7,2.4,15.3,3.8,23c0.3,1.6,2.7,0.9,2.4-0.7c-1.4-7.6-2.7-15.3-3.8-23
			C112.1-4.7,109.7-4,109.9-2.5L109.9-2.5z"/>
	</g>
</g>
<g id="XMLID_996_">
	<g id="XMLID_1055_">
		<path id="XMLID_1059_" class="st1" d="M108.2,8.1c-1.2-4.4-2.9-8.6-5.2-12.5c-0.8-1.4-3-0.1-2.2,1.3c2.2,3.7,3.9,7.7,5,11.9
			C106.2,10.3,108.6,9.7,108.2,8.1L108.2,8.1z"/>
	</g>
</g>
<g id="XMLID_1003_">
	<g id="XMLID_1062_">
		<path id="XMLID_1066_" class="st1" d="M50.3,18.6c-2.2-2.6-4.3-5.2-6.5-7.7c-1-1.2-2.8,0.5-1.8,1.8c2.2,2.6,4.3,5.2,6.5,7.7
			C49.6,21.6,51.3,19.8,50.3,18.6L50.3,18.6z"/>
	</g>
</g>
<g id="XMLID_1010_">
	<g id="XMLID_1069_">
		<path id="XMLID_1073_" class="st1" d="M65.2,31.4c-2.4-7-5.2-13.7-8.5-20.3c-0.7-1.4-2.9-0.2-2.2,1.3c3.2,6.4,5.9,12.9,8.2,19.7
			C63.3,33.5,65.7,32.9,65.2,31.4L65.2,31.4z"/>
	</g>
</g>
<g id="XMLID_1017_">
	<g id="XMLID_1076_">
		<path id="XMLID_1080_" class="st1" d="M33.7,26.8c-1.8-2.6-3.8-5-6-7.2c-1.1-1.2-2.9,0.6-1.8,1.8c2,2.1,3.9,4.3,5.6,6.7
			C32.5,29.4,34.7,28.1,33.7,26.8L33.7,26.8z"/>
	</g>
</g>
<g id="XMLID_1024_">
	<g id="XMLID_1083_">
		<path id="XMLID_1087_" class="st1" d="M17.8,74.6C12.1,69.5,6.2,64.6,0.1,60c-1.3-1-2.5,1.2-1.3,2.2c5.9,4.5,11.6,9.2,17.2,14.2
			C17.2,77.4,19,75.7,17.8,74.6L17.8,74.6z"/>
	</g>
</g>
<g id="XMLID_1032_">
	<g id="XMLID_1090_">
		<path id="XMLID_1094_" class="st1" d="M23.1,69.8c-2.6-3.3-5.3-6.5-8.3-9.5c-1.1-1.2-2.9,0.6-1.8,1.8c2.9,3,5.7,6.2,8.3,9.5
			C22.3,72.8,24.1,71.1,23.1,69.8L23.1,69.8z"/>
	</g>
</g>
<g id="XMLID_1039_">
	<g id="XMLID_1097_">
		<path id="XMLID_1101_" class="st1" d="M216.1,20.8c2.9-5.1,6.1-10,9.7-14.6c1-1.3-1.2-2.5-2.2-1.3c-3.5,4.7-6.8,9.5-9.7,14.6
			C213.2,20.9,215.3,22.2,216.1,20.8L216.1,20.8z"/>
	</g>
</g>
<g id="XMLID_1046_">
	<g id="XMLID_1104_">
		<path id="XMLID_1108_" class="st1" d="M219.8,22.8c-1.1,1.6-2.2,3.2-3.3,4.7c-0.9,1.3,1.3,2.6,2.2,1.3c1.1-1.6,2.2-3.2,3.3-4.7
			C222.9,22.7,220.7,21.5,219.8,22.8L219.8,22.8z"/>
	</g>
</g>
<g id="XMLID_1053_">
	<g id="XMLID_1111_">
		<path id="XMLID_1115_" class="st1" d="M207,32.1c-0.7,0.9-1.5,1.8-2.2,2.8c-0.4,0.5-0.5,1.3,0,1.8c0.4,0.4,1.3,0.5,1.8,0
			c0.7-0.9,1.5-1.8,2.2-2.8c0.4-0.5,0.5-1.3,0-1.8C208.4,31.6,207.5,31.6,207,32.1L207,32.1z"/>
	</g>
</g>
<g id="XMLID_1060_">
	<g id="XMLID_1118_">
		<path id="XMLID_1122_" class="st1" d="M249.8,40.3c-0.9,1-1.8,2-2.8,3c-1.1,1.2,0.7,3,1.8,1.8c0.9-1,1.8-2,2.8-3
			C252.6,40.9,250.9,39.1,249.8,40.3L249.8,40.3z"/>
	</g>
</g>
<g id="XMLID_1067_">
	<g id="XMLID_1125_">
		<path id="XMLID_1130_" class="st1" d="M178.3,45.6c-1.2,1.5-2.4,3-3.5,4.5c-0.4,0.5-0.5,1.2,0,1.8c0.4,0.4,1.4,0.5,1.8,0
			c1.2-1.5,2.4-3,3.5-4.5c0.4-0.5,0.5-1.2,0-1.8C179.6,45.1,178.7,45,178.3,45.6L178.3,45.6z"/>
	</g>
</g>
<g id="XMLID_1074_">
	<g id="XMLID_1133_">
		<path id="XMLID_1137_" class="st1" d="M126.2,9c-0.2,1.8-0.3,3.7-0.5,5.5c-0.1,1.6,2.4,1.6,2.5,0c0.2-1.8,0.3-3.7,0.5-5.5
			C128.8,7.4,126.3,7.4,126.2,9L126.2,9z"/>
	</g>
</g>
<g id="XMLID_1081_">
	<g id="XMLID_1140_">
		<path id="XMLID_1144_" class="st1" d="M123.7,36c0,1.3,0,2.7,0,4c0,1.6,2.5,1.6,2.5,0c0-1.3,0-2.7,0-4
			C126.2,34.4,123.7,34.3,123.7,36L123.7,36z"/>
	</g>
</g>
<g id="XMLID_1088_">
	<g id="XMLID_1147_">
		<path id="XMLID_1151_" class="st1" d="M78.7,10.8c0.3,1.3,0.5,2.7,0.8,4c0.3,1.6,2.7,0.9,2.4-0.7c-0.3-1.3-0.5-2.7-0.8-4
			C80.8,8.5,78.4,9.2,78.7,10.8L78.7,10.8z"/>
	</g>
</g>
<g id="XMLID_1095_">
	<g id="XMLID_1154_">
		<path id="XMLID_1158_" class="st1" d="M69.1,58.8c0.6,1.3,1.2,2.7,1.8,4c0.3,0.6,1.2,0.8,1.7,0.4c0.6-0.4,0.7-1.1,0.4-1.7
			c-0.6-1.3-1.2-2.7-1.8-4c-0.3-0.6-1.2-0.8-1.7-0.4C68.9,57.5,68.8,58.2,69.1,58.8L69.1,58.8z"/>
	</g>
</g>
<g id="XMLID_1102_">
	<g id="XMLID_1161_">
		<path id="XMLID_1165_" class="st1" d="M133.2,95.6c-0.7,1.8-1.1,3.7-1.3,5.6c-0.2,1.6,2.3,1.6,2.5,0c0.2-1.7,0.6-3.3,1.2-4.9
			C136.1,94.8,133.7,94.1,133.2,95.6L133.2,95.6z"/>
	</g>
</g>
<g id="XMLID_1109_">
	<g id="XMLID_1168_">
		<path id="XMLID_1172_" class="st1" d="M164.6,122.3c-0.9,1.9-1.6,3.8-2.2,5.8c-0.4,1.6,2,2.2,2.4,0.7c0.5-1.8,1.1-3.5,2-5.2
			C167.5,122.2,165.3,120.9,164.6,122.3L164.6,122.3z"/>
	</g>
</g>
<g id="XMLID_1116_">
	<g id="XMLID_1175_">
		<path id="XMLID_1179_" class="st1" d="M205.6,125.6c-1,1.9-2.2,3.8-3.5,5.5c-1,1.3,1.2,2.5,2.2,1.3c1.3-1.7,2.5-3.6,3.5-5.5
			C208.5,125.4,206.3,124.1,205.6,125.6L205.6,125.6z"/>
	</g>
</g>
<g id="XMLID_1123_">
	<g id="XMLID_1182_">
		<path id="XMLID_1186_" class="st1" d="M187.9,133.1c-1.4,2.4-2.7,4.8-4.1,7.2c-0.8,1.4,1.4,2.7,2.2,1.3c1.4-2.4,2.7-4.8,4.1-7.2
			C190.8,132.9,188.6,131.7,187.9,133.1L187.9,133.1z"/>
	</g>
</g>
<g id="XMLID_1131_">
	<g id="XMLID_1189_">
		<path id="XMLID_1193_" class="st1" d="M215.8,161.6c-1.1,1.1-2.2,2.2-3.2,3.2c-1.1,1.1,0.6,2.9,1.8,1.8c1.1-1.1,2.2-2.2,3.2-3.2
			C218.7,162.2,216.9,160.4,215.8,161.6L215.8,161.6z"/>
	</g>
</g>
<g id="XMLID_1138_">
	<g id="XMLID_1196_">
		<path id="XMLID_1200_" class="st1" d="M75.3,109.4c1.6,2.9,3.3,5.8,5.3,8.5c0.9,1.3,3.1,0,2.2-1.3c-2-2.7-3.7-5.5-5.3-8.5
			C76.7,106.7,74.5,107.9,75.3,109.4L75.3,109.4z"/>
	</g>
</g>
<g id="XMLID_1145_">
	<g id="XMLID_1203_">
		<path id="XMLID_1207_" class="st1" d="M48.3,133.4c1.8,1.9,3.5,3.8,5.3,5.7c1.1,1.2,2.9-0.6,1.8-1.8c-1.8-1.9-3.5-3.8-5.3-5.7
			C49,130.4,47.2,132.2,48.3,133.4L48.3,133.4z"/>
	</g>
</g>
<g id="XMLID_1152_">
	<g id="XMLID_1210_">
		<path id="XMLID_1214_" class="st1" d="M60.5,135.3c0.9,1.2,1.8,2.3,2.8,3.5c0.4,0.5,1.3,0.4,1.8,0c0.5-0.5,0.4-1.2,0-1.8
			c-0.9-1.2-1.8-2.3-2.7-3.5c-0.4-0.5-1.3-0.4-1.8,0C60,134.1,60.1,134.8,60.5,135.3L60.5,135.3z"/>
	</g>
</g>
<g id="XMLID_1159_">
	<g id="XMLID_1217_">
		<path id="XMLID_1221_" class="st1" d="M32.6,166.7c1.9,1.1,3.8,2.2,5.7,3.3c1.4,0.8,2.7-1.4,1.3-2.2c-1.9-1.1-3.8-2.2-5.7-3.3
			C32.4,163.8,31.2,165.9,32.6,166.7L32.6,166.7z"/>
	</g>
</g>
<g id="XMLID_1166_">
	<g id="XMLID_1225_">
		<path id="XMLID_1229_" class="st1" d="M30.7,182.3c-4.4-1.3-8.8-2.3-13.2-3.3c-1.6-0.3-2.2,2.1-0.7,2.4c4.5,0.9,8.9,2,13.2,3.3
			C31.6,185.1,32.3,182.7,30.7,182.3L30.7,182.3z"/>
	</g>
</g>
<g id="XMLID_1173_">
	<g id="XMLID_1232_">
		<path id="XMLID_1236_" class="st1" d="M19.2,196.6c-2.7-0.6-5.5-1.2-8.2-1.8c-1.6-0.3-2.2,2.1-0.7,2.4c2.7,0.6,5.5,1.2,8.2,1.8
			C20.1,199.3,20.8,196.9,19.2,196.6L19.2,196.6z"/>
	</g>
</g>
<g id="XMLID_1180_">
	<g id="XMLID_1239_">
		<path id="XMLID_1243_" class="st1" d="M11.5,105.5c-3.7-1.2-7.4-2.6-11-4.2c-1.5-0.6-2.7,1.5-1.3,2.2c3.8,1.7,7.7,3.2,11.6,4.5
			C12.4,108.4,13,106,11.5,105.5L11.5,105.5z"/>
	</g>
</g>
<g id="XMLID_1187_">
	<g id="XMLID_1246_">
		<path id="XMLID_1250_" class="st1" d="M14.2,96.5c-1.5-0.6-2.9-1.3-4.2-2.2c-1.3-0.9-2.6,1.3-1.3,2.2c1.5,1,3.1,1.8,4.8,2.4
			C15.1,99.5,15.7,97.1,14.2,96.5L14.2,96.5z"/>
	</g>
</g>
<g id="XMLID_1194_">
	<g id="XMLID_1253_">
		<path id="XMLID_1257_" class="st1" d="M18.5,104.7c-1.5-0.5-2.9-1.2-4.2-2.1c-1.4-0.9-2.6,1.3-1.3,2.2c1.5,1,3.1,1.7,4.8,2.3
			C19.4,107.7,20,105.3,18.5,104.7L18.5,104.7z"/>
	</g>
</g>
<g id="XMLID_1201_">
	<g id="XMLID_1260_">
		<path id="XMLID_1264_" class="st1" d="M8.8,31.3c-2.7-2.2-4.9-4.8-6.5-7.9c-0.7-1.4-2.9-0.2-2.2,1.3c1.7,3.3,4,6.1,6.9,8.4
			C8.3,34.1,10.1,32.3,8.8,31.3L8.8,31.3z"/>
	</g>
</g>
<g id="XMLID_1208_">
	<g id="XMLID_1267_">
		<path id="XMLID_1271_" class="st1" d="M12.4,30.1c1.1,1.6,2.3,3.2,3.6,4.6c1.1,1.2,2.9-0.6,1.8-1.8c-1.2-1.2-2.3-2.6-3.2-4
			C13.6,27.5,11.5,28.7,12.4,30.1L12.4,30.1z"/>
	</g>
</g>
<g id="XMLID_1215_">
	<g id="XMLID_1274_">
		<path id="XMLID_1278_" class="st1" d="M24.1,31.6c0.5,0.9,1,1.8,1.5,2.8c0.8,1.4,2.9,0.2,2.2-1.3c-0.5-0.9-1-1.8-1.5-2.8
			C25.5,28.9,23.3,30.2,24.1,31.6L24.1,31.6z"/>
	</g>
</g>
<g id="XMLID_1223_">
	<g id="XMLID_1281_">
		<path id="XMLID_1285_" class="st1" d="M238.9,205.9c3.5,0.2,6.9,1,10.2,2.3c1.5,0.6,2.1-1.8,0.7-2.4c-3.5-1.4-7.1-2.1-10.8-2.4
			C237.3,203.3,237.3,205.8,238.9,205.9L238.9,205.9z"/>
	</g>
</g>
<g id="XMLID_1230_">
	<g id="XMLID_1288_">
		<path id="XMLID_1292_" class="st1" d="M236.9,223.8c3,0.8,5.8,2.1,8.4,3.9c1.3,0.9,2.6-1.3,1.3-2.2c-2.8-1.9-5.8-3.2-9-4.1
			C236,220.9,235.3,223.3,236.9,223.8L236.9,223.8z"/>
	</g>
</g>
<g id="XMLID_1237_">
	<g id="XMLID_1295_">
		<path id="XMLID_1299_" class="st1" d="M235.6,230.2c5.4,2.9,10.8,5.9,16.2,8.8c1.4,0.8,2.7-1.4,1.3-2.2
			c-5.4-2.9-10.8-5.9-16.2-8.8C235.4,227.3,234.1,229.5,235.6,230.2L235.6,230.2z"/>
	</g>
</g>
<g id="XMLID_1244_">
	<g id="XMLID_1302_">
		<path id="XMLID_1306_" class="st1" d="M12.7,221.7c-3.4,0.3-6.7,0.6-10.1,0.9c-2.1,0.2-4,0.4-5.6,1.9c-1.2,1.1,0.6,2.9,1.8,1.8
			c1.7-1.5,4.9-1.3,7-1.5c2.3-0.2,4.6-0.4,6.9-0.6C14.3,224.1,14.3,221.6,12.7,221.7L12.7,221.7z"/>
	</g>
</g>
</svg>
