<?xml version="1.0" encoding="utf-8"?>
<!-- Generator: Adobe Illustrator 19.0.0, SVG Export Plug-In . SVG Version: 6.00 Build 0)  -->
<svg version="1.1" id="Layer_1" xmlns="http://www.w3.org/2000/svg" xmlns:xlink="http://www.w3.org/1999/xlink" x="0px" y="0px"
	 viewBox="0 0 865 202" style="enable-background:new 0 0 865 202;" xml:space="preserve">
<style type="text/css">
	.st0{fill:#A3D39C;stroke:#010101;stroke-miterlimit:10;}
	.st1{fill:#C5E1B4;}
	.st2{fill:none;stroke:#F6FAF4;stroke-width:0.5;stroke-miterlimit:10;}
</style>
<g id="Layer_1_1_">
	<rect id="XMLID_14_" x="-5" y="-5.3" class="st0" width="874" height="210"/>
</g>
<g id="XMLID_64_">
	<g id="XMLID_1665_">
		<path id="XMLID_1669_" class="st1" d="M406.2,122c1.1,27.3,2.2,54.7,3.3,82c0,0.8,1.3,0.8,1.2,0c-1.1-27.3-2.2-54.7-3.3-82
			C407.4,121.2,406.2,121.2,406.2,122L406.2,122z"/>
	</g>
</g>
<g id="XMLID_65_">
	<g id="XMLID_1659_">
		<path id="XMLID_1663_" class="st1" d="M407.1,124.8c0.3-4.4-2.1-8.5-6.1-10.4c-0.7-0.3-1.4,0.7-0.6,1.1c3.6,1.7,5.7,5.4,5.4,9.3
			C405.8,125.6,407,125.6,407.1,124.8L407.1,124.8z"/>
	</g>
</g>
<g id="XMLID_66_">
	<g id="XMLID_1653_">
		<path id="XMLID_1657_" class="st1" d="M402.2,116.7c-0.2-2.3,0.2-4.6,1-6.7c0.3-0.8-0.9-1.1-1.2-0.3c-0.9,2.3-1.2,4.6-1.1,7.1
			C401,117.5,402.3,117.5,402.2,116.7L402.2,116.7z"/>
	</g>
</g>
<g id="XMLID_67_">
	<g id="XMLID_1647_">
		<path id="XMLID_1651_" class="st1" d="M401.4,109.7c-6.7,1.4-13.5,2.3-20.1-0.2c-0.8-0.3-1.1,0.9-0.3,1.2
			c6.8,2.6,13.8,1.7,20.8,0.2C402.5,110.7,402.2,109.5,401.4,109.7L401.4,109.7z"/>
	</g>
</g>
<g id="XMLID_68_">
	<g id="XMLID_1641_">
		<path id="XMLID_1645_" class="st1" d="M399.5,116.1c-8.5,1.7-17.5,3.2-24.9-2.4c-0.6-0.5-1.3,0.6-0.6,1.1
			c7.7,5.7,17.1,4.3,25.9,2.5C400.6,117.1,400.3,115.9,399.5,116.1L399.5,116.1z"/>
	</g>
</g>
<g id="XMLID_69_">
	<g id="XMLID_1762_">
		<g id="XMLID_1767_">
			<g id="XMLID_1768_">
				<g id="XMLID_1769_">
					<path id="XMLID_1870_" class="st1" d="M377,111.8c0,0-0.1,0.2-0.1,0.2C377,112,377.1,111.7,377,111.8z"/>
					<polygon id="XMLID_1869_" class="st1" points="377.4,111.4 377.4,111.5 377.5,111.3 					"/>
					<path id="XMLID_1868_" class="st1" d="M377.6,111.5c0.1-0.3-0.1,0-0.1-0.1l0-0.1l-0.1,0.3C377.5,111.6,377.6,111.4,377.6,111.5
						z"/>
					<path id="XMLID_1867_" class="st1" d="M377.4,112.3C377.4,112.1,377.5,112.2,377.4,112.3C377.4,112.2,377.4,112.2,377.4,112.3
						C377.4,112.2,377.4,112.3,377.4,112.3z"/>
					<path id="XMLID_1866_" class="st1" d="M377.4,112.2C377.3,112.2,377.3,112.4,377.4,112.2L377.4,112.2z"/>
					<path id="XMLID_1865_" class="st1" d="M377.5,112.2l-0.1,0.1c0,0.1,0,0.1,0,0.2C377.4,112.4,377.5,112.3,377.5,112.2z"/>
					<path id="XMLID_1864_" class="st1" d="M377.6,112L377.6,112C377.6,112.1,377.6,112.1,377.6,112z"/>
					<path id="XMLID_1863_" class="st1" d="M377.5,112.1L377.5,112.1C377.6,112,377.6,111.9,377.5,112.1
						C377.6,112,377.6,112.1,377.5,112.1z"/>
					<path id="XMLID_1862_" class="st1" d="M377.5,112.1c0-0.1,0-0.1,0.1-0.2C377.5,111.8,377.5,112.1,377.5,112.1z"/>
					<path id="XMLID_1861_" class="st1" d="M377.7,111.2l0-0.1L377.7,111.2C377.7,111.1,377.7,111.3,377.7,111.2z"/>
					<path id="XMLID_1860_" class="st1" d="M377.6,112.4c0-0.1,0.1-0.2,0.1-0.3l-0.1,0.1C377.6,112.3,377.6,112.3,377.6,112.4z"/>
					<path id="XMLID_1859_" class="st1" d="M377.7,112.2l0.1-0.1C377.7,112,377.7,112.1,377.7,112.2z"/>
					<polygon id="XMLID_1858_" class="st1" points="377.8,111.6 377.6,111.9 377.8,111.6 					"/>
					<polygon id="XMLID_1857_" class="st1" points="377.7,112.5 377.6,112.7 377.7,112.4 					"/>
					<path id="XMLID_1856_" class="st1" d="M377.8,112.5c-0.1,0.1-0.1,0.2-0.1,0.3C377.7,112.8,377.8,112.7,377.8,112.5
						C377.8,112.6,377.8,112.6,377.8,112.5z"/>
					<path id="XMLID_1854_" class="st1" d="M377.9,112.4c0,0,0,0.1-0.1,0.1C377.8,112.6,377.9,112.5,377.9,112.4z"/>
					<path id="XMLID_1853_" class="st1" d="M377.8,112.1c0,0-0.1,0.2-0.1,0.2L377.8,112.1L377.8,112.1z"/>
					<path id="XMLID_1852_" class="st1" d="M377.8,112.1L377.8,112.1C377.8,112.1,377.8,112.1,377.8,112.1
						C377.8,112.1,377.8,112.1,377.8,112.1z"/>
					<path id="XMLID_1851_" class="st1" d="M377.8,112.1L377.8,112.1C377.8,112.1,377.8,112.1,377.8,112.1z"/>
					<path id="XMLID_1850_" class="st1" d="M377.8,111.8c0.1-0.1,0.1-0.2,0.2-0.4C377.9,111.6,377.9,111.7,377.8,111.8z"/>
					<path id="XMLID_1849_" class="st1" d="M377.9,111.9L377.9,111.9c0,0-0.1,0.1-0.1,0.1L377.9,111.9z"/>
					<polygon id="XMLID_1847_" class="st1" points="377.9,111.8 377.9,111.9 377.9,111.9 					"/>
					<path id="XMLID_1846_" class="st1" d="M377.9,112.2C378,112.2,378,112.2,377.9,112.2c0.1-0.1,0.1-0.2,0.1-0.2
						C377.9,112.1,377.9,112.2,377.9,112.2z"/>
					<path id="XMLID_1845_" class="st1" d="M377.9,112.2C377.9,112.2,377.9,112.2,377.9,112.2C377.9,112.1,377.9,112.1,377.9,112.2z
						"/>
					<polygon id="XMLID_1844_" class="st1" points="378.2,112.2 378.2,112.2 378.1,112.2 					"/>
					<path id="XMLID_1843_" class="st1" d="M378,112C378,112,378,112,378,112C377.9,112.1,378,112.1,378,112
						C378,112,378,112,378,112z"/>
					<path id="XMLID_1842_" class="st1" d="M378,112.4c0,0,0-0.1,0-0.1C378,112.3,377.9,112.4,378,112.4z"/>
					<path id="XMLID_1840_" class="st1" d="M377.9,112.2L377.9,112.2C377.8,112.3,377.8,112.2,377.9,112.2z"/>
					<path id="XMLID_1839_" class="st1" d="M377.9,112.2c0,0,0-0.1,0.1-0.1C377.9,112.1,377.9,112.1,377.9,112.2
						C377.9,112.2,377.9,112.2,377.9,112.2z"/>
					<path id="XMLID_1838_" class="st1" d="M378.7,110.9c-0.1,0.2-0.2,0.3-0.1,0.1c-0.1,0.1-0.3,0.7-0.4,1.1c0-0.1,0.1-0.2,0.1-0.3
						c0-0.1,0-0.3,0.1-0.4c0.1-0.1,0,0.1,0,0.2C378.5,111.4,378.6,111.4,378.7,110.9l-0.1,0.2C378.6,111.1,378.7,111,378.7,110.9z"
						/>
					<path id="XMLID_1837_" class="st1" d="M378.1,112.1L378.1,112.1c0,0.1,0,0.1-0.1,0.3C378.1,112.3,378.1,112.3,378.1,112.1
						L378.1,112.1L378.1,112.1z"/>
					<path id="XMLID_1836_" class="st1" d="M378,112.1c0.1-0.2,0.1-0.3,0.2-0.5c0,0-0.1,0.2-0.1,0.2C378.2,111.8,378,112,378,112.1
						C378,112.1,378,112.1,378,112.1c0,0,0,0.1,0,0.1l0,0l0,0l0,0C378,112.2,378,112.2,378,112.1L378,112.1
						C378,112.2,378,112.2,378,112.1C378,112.2,378,112.2,378,112.1l0,0.1l0,0L378,112.1C378.1,112.1,378.1,112.1,378,112.1z"/>
					<path id="XMLID_1835_" class="st1" d="M378.1,111C378.1,111,378.1,111,378.1,111C378.1,111,378.2,111,378.1,111z"/>
					<path id="XMLID_1833_" class="st1" d="M378.1,111.1C378.1,111.2,378.1,111.2,378.1,111.1C378.1,111.2,378.1,111.1,378.1,111.1
						c0,0-0.1,0.1-0.1,0.2l0,0c0,0.1-0.1,0.3-0.1,0.4C378,111.5,378.1,111.3,378.1,111.1z"/>
					<path id="XMLID_1832_" class="st1" d="M378.1,111.6L378.1,111.6l0.1-0.3l0,0.1C378.2,111.4,378.1,111.5,378.1,111.6z"/>
					<polygon id="XMLID_1831_" class="st1" points="378.1,112.3 378,112.5 378.2,112.2 					"/>
					<polygon id="XMLID_1830_" class="st1" points="378.2,112.3 378.1,112.5 378.2,112.4 					"/>
					<path id="XMLID_1829_" class="st1" d="M382.1,110.7L382.1,110.7L382.1,110.7z"/>
					<path id="XMLID_1828_" class="st1" d="M382,110.6L382,110.6C382,110.7,382,110.6,382,110.6z"/>
					<path id="XMLID_1826_" class="st1" d="M379.8,112.7c0,0.2-0.1,0.5,0,0.3L379.8,112.7C379.8,112.8,379.8,112.8,379.8,112.7z"/>
					<path id="XMLID_1825_" class="st1" d="M381.1,111.7L381.1,111.7c0,0,0,0.1,0,0.1C381.1,111.8,381.1,111.7,381.1,111.7z"/>
					<path id="XMLID_1824_" class="st1" d="M381.2,110.8l0,0.1C381.2,110.9,381.2,110.8,381.2,110.8z"/>
					<path id="XMLID_1823_" class="st1" d="M382.6,110.5l0-0.2C382.6,110.2,382.6,110.3,382.6,110.5z"/>
					<path id="XMLID_1822_" class="st1" d="M378.9,112.4c0,0.1,0,0.1,0,0.1C378.9,112.5,378.9,112.3,378.9,112.4z"/>
					<path id="XMLID_1821_" class="st1" d="M381.9,112.9c0,0,0-0.1,0-0.1C381.9,112.8,381.9,112.9,381.9,112.9z"/>
					<path id="XMLID_1819_" class="st1" d="M378.9,112.6C378.9,112.6,378.9,112.6,378.9,112.6C378.9,112.6,378.9,112.6,378.9,112.6
						C378.9,112.7,378.9,112.7,378.9,112.6z"/>
					<path id="XMLID_1818_" class="st1" d="M384.4,110.6C384.4,110.6,384.4,110.6,384.4,110.6C384.4,110.6,384.4,110.6,384.4,110.6z
						"/>
					<path id="XMLID_1817_" class="st1" d="M385.2,112.7C385.2,112.7,385.2,112.7,385.2,112.7C385.2,112.7,385.2,112.7,385.2,112.7z
						"/>
					<path id="XMLID_1816_" class="st1" d="M378.4,112.5C378.4,112.5,378.4,112.5,378.4,112.5L378.4,112.5z"/>
					<path id="XMLID_1815_" class="st1" d="M378.6,111.6C378.6,111.6,378.6,111.6,378.6,111.6C378.6,111.6,378.6,111.6,378.6,111.6z
						"/>
					<path id="XMLID_1814_" class="st1" d="M379.4,111.3L379.4,111.3C379.4,111.3,379.4,111.3,379.4,111.3z"/>
					<path id="XMLID_1812_" class="st1" d="M378.4,112.4C378.4,112.4,378.4,112.4,378.4,112.4C378.4,112.4,378.4,112.4,378.4,112.4z
						"/>
					<path id="XMLID_1811_" class="st1" d="M378.4,112.5C378.4,112.5,378.4,112.5,378.4,112.5C378.4,112.5,378.4,112.5,378.4,112.5z
						"/>
					<path id="XMLID_1810_" class="st1" d="M378.4,112.5C378.4,112.5,378.4,112.5,378.4,112.5C378.4,112.5,378.4,112.5,378.4,112.5
						C378.4,112.5,378.4,112.5,378.4,112.5z"/>
					<path id="XMLID_1809_" class="st1" d="M383.4,111.2C383.4,111.2,383.4,111.2,383.4,111.2C383.5,111.1,383.5,111.2,383.4,111.2z
						"/>
					<polygon id="XMLID_1808_" class="st1" points="380.6,110.6 380.6,110.6 380.6,110.6 					"/>
					<path id="XMLID_1807_" class="st1" d="M380.7,110.5c-0.1,0.3-0.1,0.2-0.1,0.2l-0.1,0.6L380.7,110.5z"/>
					<path id="XMLID_1797_" class="st1" d="M382.3,110.6l0-0.2c0.1-0.3,0.1-0.2,0.1-0.5c0,0.7-0.1,0.1-0.2,0.7l0-0.1c0,0,0,0,0,0
						c0-0.3-0.1,0.5-0.1,0.4c0-0.1,0-0.2,0-0.2l-0.1,0.2c0,0,0-0.1,0-0.1l-0.1,0l0,0c0,0.1-0.1,0.3-0.1,0.3c0-0.1,0-0.1,0-0.2l0,0.2
						c0-0.2,0-0.3,0.1-0.3c0-0.7,0,0.2-0.1-0.2l0-0.1c0-0.4,0-0.2,0-0.5c0,0.1,0,0.6,0,0.8c0-0.1,0-0.1,0,0.1c0-0.2,0-0.2,0-0.2
						l0-0.3c0,0.1-0.1,0.3-0.1,0.4c0,0,0-0.3,0-0.5c0-0.1,0,0.4-0.1,0.5c0-0.1-0.1,0-0.1,0.2c0-0.1,0-0.2,0-0.3l-0.1,0.3
						c0,0,0-0.1,0-0.1c0,0.1,0,0.3-0.1,0.4c-0.1,0.3,0-0.5-0.1-0.1c0-0.1,0-0.2,0-0.3c-0.1,0.3-0.1,0.2-0.2,0.5l0-0.2
						c0,0.2-0.1,0.5-0.2,0.7c0,0.1,0,0.2,0,0.3l-0.1,0.2c0-0.1,0-0.2,0.1-0.3l0,0.1c0-0.1,0-0.3,0.1-0.5c0,0.1,0,0.1,0,0.2
						c0-0.2,0.1-0.4,0.1-0.6c0,0,0,0.1,0,0.1c0-0.1,0-0.1,0-0.1c0,0,0,0,0,0.1l0-0.4l0,0.1l0-0.2c-0.1,0.3-0.2,0.9-0.3,1
						c0.1-0.3,0.1-0.4,0.1-0.7c0,0.3,0.1-0.1,0.1-0.1c0,0,0-0.2,0-0.2l-0.1,0.3c0-0.2,0-0.2,0-0.3c-0.1,0.5-0.1,0.3-0.2,0.5
						c0-0.2,0.1-0.3,0.1-0.3c0-0.4-0.2,0.6-0.1,0.2c0,0,0,0,0-0.1c0,0.1-0.1,0,0-0.1l0,0c0-0.1-0.2,0-0.3,0.4c0-0.1,0.1-0.5,0.1-0.6
						l-0.4,1.4c0.1-0.4,0.2-1.2,0.3-1.4c0-0.1,0-0.1-0.1,0c0,0.1-0.1,0.5-0.1,0.6c0.1-0.4,0-0.2,0.1-0.6c0,0.1-0.1,0.6-0.2,0.6
						c0-0.1,0.1-0.6,0.1-0.6l-0.2,0.5c0-0.1,0.1-0.5,0.1-0.6c0,0.1,0,0-0.1,0l0,0.1c0-0.1-0.2,0.8-0.3,0.7c0-0.1,0.2-0.7,0.2-0.8
						c-0.1,0.3-0.4,1.3-0.5,1.5l0-0.2l-0.1,0.2c0.1-0.4,0.4-1.3,0.5-1.6c0-0.1,0-0.2,0-0.2c0-0.2,0.1-0.2,0.1-0.2l0-0.1
						c-0.1,0.3-0.1,0.3-0.2,0.6l0.2-0.3c-0.1,0.3-0.3,0.9-0.3,0.8c0-0.1,0.2-0.6,0.2-0.7c0,0.1-0.1,0.2-0.1,0.1l0.1-0.2
						c0-0.1-0.2,0.4-0.1,0.1c0,0,0.1-0.4,0-0.2c-0.1,0.4-0.4,1.5-0.5,1.8c0,0,0-0.4,0.1-0.6c0.1-0.3,0.2-0.7,0.3-0.9
						c0,0.1-0.1,0.2-0.1,0.2c0-0.1,0.1-0.3,0-0.2c-0.1,0.3,0,0-0.1,0.3c-0.1,0.1,0-0.1,0-0.1c0,0.2-0.2,0.7-0.3,0.8
						c0-0.1,0-0.2,0.1-0.2c-0.1,0,0-0.2-0.1-0.2c0-0.1,0-0.2,0.1-0.3c0,0.1-0.1,0.2-0.1,0.2c0.1-0.3,0,0,0.1-0.4
						c-0.1,0.2-0.1,0.2-0.2,0.4c-0.1,0.3,0,0.1,0.1,0c-0.1,0.4-0.3,0.8-0.4,1c-0.1,0.1,0.1-0.3,0-0.2c-0.1-0.1-0.3,0.7-0.3,0.4
						c0.1-0.3,0.2-0.5,0.2-0.7c0.1-0.1,0,0.2,0,0.2l0-0.1c0-0.1,0.1-0.1,0.1-0.1c0-0.2-0.1-0.1-0.1-0.3c0,0.1-0.1,0.2-0.1,0.3l0,0
						c0,0.2-0.1,0.3-0.1,0.4c-0.1,0.1-0.2,0.4-0.2,0.2l0.1-0.3c0,0.1,0,0.2,0,0.1c-0.1,0.1,0.1-0.4-0.1,0l0,0.2
						c-0.1,0.1-0.2,0.4-0.2,0.3c-0.1,0.3,0,0-0.1,0.3c0.1-0.4,0.1,0.1,0.2-0.4c-0.1,0.4,0,0.2-0.1,0.5c0-0.1,0-0.2,0.1-0.1
						c0,0,0-0.1,0-0.1l0,0l0,0c0,0,0,0,0,0c0,0,0-0.1,0-0.2c0.1-0.2,0.1-0.2,0.2-0.3c0,0.1,0,0.1-0.1,0.2l0.1-0.2
						c-0.1,0.2-0.1,0.4-0.2,0.5l0,0c0,0.1,0,0.2,0.1,0.1c0,0.1,0.1-0.2,0.1-0.1l0.1-0.1l0,0.1c0.1,0,0.2-0.3,0.2,0.1
						c0,0,0.1-0.1,0.1,0l0,0.2c0-0.1,0,0.2,0.1,0c-0.1,0.5,0.1,0.1,0.1,0.2l0.1-0.2c0,0,0.1,0,0.1-0.1l0.1-0.2
						c0.1-0.2,0,0.2,0.1,0.2c0,0.1,0,0.1,0,0c-0.1,0.5,0.2-0.3,0.2,0c0-0.1,0,0,0,0c0,0,0,0,0,0l0,0c0,0,0,0.1,0,0.1
						c0-0.1,0-0.1,0-0.1c0,0,0,0,0.1-0.1l0,0.2l0,0c0,0.1,0-0.1,0.1-0.3c0,0,0-0.1,0.1-0.1c-0.1,0.4,0.1-0.1,0,0.3
						c0.1-0.2,0.1-0.1,0.2-0.5c0,0.1,0,0.1,0,0.1c0,0.1,0,0.1,0.1,0l-0.1,0.3l0.1-0.4c0,0.2,0,0.3-0.1,0.5c0.1-0.3,0.1-0.1,0.2-0.5
						l0,0.2c0,0,0.1-0.3,0.1-0.1c0,0.4,0.2,0.1,0.2,0.5c0.1-0.6,0,0.3,0.1-0.2c0,0.1,0,0.2-0.1,0.3c0.1-0.1,0,0.2,0.1-0.1
						c0,0.1,0,0.2-0.1,0.3c0,0,0-0.1,0,0c0,0.1,0,0.1,0,0.2c0.1,0,0.1-0.4,0.2-0.8c0,0.2,0,0.2,0.1-0.1c0,0.1,0,0.3-0.1,0.3
						c0,0,0.1,0.2,0.1-0.1c0,0.1,0,0,0,0c0,0,0,0.1,0.1,0l0-0.1c0.1-0.4,0-0.1,0.1-0.1l0,0c0,0.3,0-0.1,0.1,0.2l0-0.2
						c0.1-0.5,0,0.3,0.1,0.1l0-0.1c0-0.2,0,0.7,0,0.8c0,0,0,0.1,0,0.1c0,0.3,0-0.3,0.1-0.4c0,0.2-0.1,0.4,0,0.5
						c0,0.1,0.2-0.5,0.2-0.2c0-0.1,0-0.3,0-0.4c0,0,0,0.5,0.1,0.1l0,0.1c0-0.1,0.1-0.2,0.1-0.4c0,0.8,0.2-0.4,0.1,0.4l0.1,0l0,0.1
						c0,0.1,0.1-0.1,0.1-0.3c0,0.1,0,0.1,0,0.2c0.1,0.2,0.1,0.1,0.2-0.3l0,0.2c0-0.1,0.1,0.4,0.2,0.1c0,0,0,0.1,0,0.1
						c0.1-0.3,0.2,0.7,0.2-0.2l0.1-0.2c-0.1-0.1,0-0.4,0-0.5c0-0.1,0.1,0.3,0,0.3l0,0c0,0.5,0.1,0.2,0.1,0.5c0.1,0,0.3,0.2,0.4,0.3
						l0-0.4l0,0c0,0.1,0,0.3,0,0.3c0,0.2,0.1-0.2,0-0.3c0.1,0.1,0,0.4,0,0.4l0,0l0,0c0-0.2,0-0.3,0.1-0.3c0,0.1,0,0.2,0,0.2
						c0,0,0,0,0,0l0.1,0l0-0.3c0-0.1,0.1,0,0-0.3c0.1,0.5,0.2,0.2,0.3,0.3c0-0.2,0.1-0.2,0.1-0.2c0-0.1,0-0.4,0-0.3
						c0,0.7,0.1,0.3,0.2,0.8c-0.1-0.3,0.1-0.1,0-0.5c0,0.1,0,0.2,0.1,0.4c0.1-0.3,0.2,0.2,0.3,0.1c0-0.1,0-0.2,0-0.4l0.1,0.4
						c0,0,0-0.5,0-0.2c0-0.1,0-0.2,0-0.2c0.2,0.4,0.3-0.4,0.6,0.4c-0.1-0.2,0-0.2,0-0.2c0,0,0-0.2-0.1-0.3l0.1,0.3
						c0-0.3,0.1,0,0-0.3l0,0.1c0-0.4-0.2-0.8-0.2-1.3c0,0.4-0.2-0.6-0.1,0c0-0.1,0-0.2,0-0.3c0,0.2,0,0.2,0,0.2l0-0.1
						c-0.1,0.1-0.1-0.1-0.2-0.3l0,0.2c0,0,0-0.1-0.1-0.2c0,0.4,0.1,0,0.1,0.4c-0.1-0.5-0.1,0-0.2-0.5c0,0,0,0.3,0,0.3l0-0.1l0,0.2
						c0,0-0.1-0.2-0.1-0.3c0,0,0,0,0,0c0-0.2-0.1,0.1-0.1,0l0,0.1c-0.1,0.1-0.2,0-0.2,0.3l0,0.1c0,0.2-0.1-0.1-0.1,0l0,0
						c0,0.1,0,0.2,0,0.2c0-0.1,0-0.3,0-0.4c-0.1,0.2,0,0.2,0,0.6l0-0.2c0,0.2,0,0.3,0,0.3c0-0.2,0-0.3,0-0.5
						c-0.1-0.4-0.1,0.4-0.1-0.2c0,0.5,0.1,0.3,0.1,0.4c0,0.2,0,0.4,0,0.3c0,0-0.1-0.7-0.1-0.6c0,0,0,0,0,0c0-0.1,0,0.2-0.1,0
						c0,0.3,0,0,0,0.4l0.1-0.1c0,0.1,0,0.6-0.1,0.3c0-0.1,0-0.2,0-0.2c0-0.1,0,0.1,0,0c0-0.4,0.1-0.1,0.1-0.4c0-0.2-0.1,0.3,0-0.1
						c0,0.5-0.1-0.1-0.1,0.4l0-0.2c0,0,0,0.2,0,0.1l0-0.3c0,0.3-0.1-0.2-0.1-0.1c0.1,0,0,0.3,0,0.5c-0.1,0.3-0.1-0.6-0.1-0.5
						c0,0,0,0.1,0,0.3c0,0,0-0.1,0-0.3c-0.1,0,0,0.2,0,0.4c0-0.3,0,0.1-0.1,0.2l0-0.2c-0.1-0.2,0,0.5-0.1,0.3l0-0.3l0,0.1l0-0.3
						c0,0.2,0,0.2-0.1,0.1c0,0.2,0,0.4,0,0.4c0-0.1,0-0.2,0-0.2c0-0.2,0-0.3,0-0.1c0-0.1,0-0.2,0-0.2c0-0.2-0.1,0-0.1,0
						c0,0,0,0,0,0.1l-0.1,0.3c0-0.1,0-0.2,0-0.2c0,0,0,0.1,0,0.2c0-0.2,0-0.4,0-0.5l-0.1,0.2c0-0.1,0-0.2,0-0.3
						c0-0.1-0.1,0.4-0.1,0.2c0,0,0,0.1,0,0.1c0,0-0.1-0.3-0.1,0l0-0.4c0,0.1,0,0.4-0.1,0.6c0,0.1,0-0.3,0-0.4
						C382.4,110.6,382.3,110.9,382.3,110.6C382.3,110.6,382.3,110.6,382.3,110.6z M381.9,110.7C381.9,110.7,381.9,110.5,381.9,110.7
						C381.9,110.9,381.9,110.8,381.9,110.7z M381.1,111.2C381.1,111.1,381.1,111.2,381.1,111.2C381.1,111.3,381.1,111.3,381.1,111.2
						z M378.6,112.3L378.6,112.3C378.6,112.4,378.6,112.4,378.6,112.3z M378.6,112.2C378.6,112.3,378.6,112.3,378.6,112.2
						C378.6,112.3,378.6,112.3,378.6,112.2C378.6,112.2,378.6,112.2,378.6,112.2z M383.6,112.8L383.6,112.8
						C383.6,112.7,383.6,112.8,383.6,112.8z"/>
					<path id="XMLID_1796_" class="st1" d="M381.2,110.9c0,0,0,0.1,0,0.1C381.2,111,381.2,110.9,381.2,110.9z"/>
					<polygon id="XMLID_1795_" class="st1" points="382.6,110.5 382.6,110.5 382.6,110.5 					"/>
					<path id="XMLID_1794_" class="st1" d="M379.9,110.5c0,0,0,0.1,0,0.1C379.9,110.5,379.9,110.5,379.9,110.5z"/>
					<path id="XMLID_1793_" class="st1" d="M378.2,112.5L378.2,112.5c0,0,0-0.1,0-0.1C378.3,112.5,378.3,112.5,378.2,112.5z"/>
					<path id="XMLID_1792_" class="st1" d="M378.5,111C378.5,111.1,378.5,111,378.5,111l-0.1,0.1C378.5,111.2,378.5,111.1,378.5,111
						z"/>
					<path id="XMLID_1790_" class="st1" d="M378.5,111.8c0.1-0.2,0-0.1,0-0.1l0,0C378.4,111.9,378.4,111.9,378.5,111.8z"/>
					<path id="XMLID_1789_" class="st1" d="M378.5,111.7C378.5,111.7,378.4,111.7,378.5,111.7C378.4,111.8,378.4,111.7,378.5,111.7z
						"/>
					<path id="XMLID_1788_" class="st1" d="M378.5,112.3c0-0.1-0.1,0.2-0.1,0.2C378.4,112.7,378.6,112.2,378.5,112.3z"/>
					<polygon id="XMLID_1787_" class="st1" points="378.7,111.1 378.6,111.4 378.7,111.2 					"/>
					<path id="XMLID_1786_" class="st1" d="M378.8,111.4L378.8,111.4C378.8,111.3,378.7,111.3,378.8,111.4
						C378.7,111.4,378.7,111.4,378.8,111.4z"/>
					<path id="XMLID_1785_" class="st1" d="M378.7,111.4C378.7,111.4,378.7,111.4,378.7,111.4C378.7,111.4,378.7,111.4,378.7,111.4z
						"/>
					<polygon id="XMLID_1783_" class="st1" points="378.7,111.1 378.7,111.1 378.8,111.2 					"/>
					<path id="XMLID_1782_" class="st1" d="M379.1,111.5L379.1,111.5c0.1-0.1,0.1-0.2,0.1-0.2C379.1,111.4,379.1,111.4,379.1,111.5z
						"/>
					<path id="XMLID_1781_" class="st1" d="M379.2,110.8c0,0.1,0,0.1,0,0.2l0.1-0.3L379.2,110.8z"/>
					<path id="XMLID_1780_" class="st1" d="M379.3,110.8c0-0.1,0.1-0.2,0.1-0.2C379.3,110.6,379.3,110.7,379.3,110.8z"/>
					<polygon id="XMLID_1779_" class="st1" points="379.7,111.3 379.7,111.3 379.5,111.8 					"/>
					<path id="XMLID_1778_" class="st1" d="M380.4,110.2c0-0.1-0.1,0.3-0.1,0.1c0,0.1,0,0.1,0,0.2
						C380.3,110.5,380.3,110.6,380.4,110.2z"/>
					<path id="XMLID_1776_" class="st1" d="M380.3,110.6C380.3,110.6,380.3,110.6,380.3,110.6C380.3,110.6,380.3,110.6,380.3,110.6z
						"/>
					<polygon id="XMLID_1775_" class="st1" points="385.4,112.9 385.4,113 385.4,112.9 					"/>
					<path id="XMLID_1774_" class="st1" d="M385.4,112.5l0.1,0.3L385.4,112.5C385.4,112.6,385.4,112.6,385.4,112.5z"/>
					<path id="XMLID_1773_" class="st1" d="M381.9,110.1L381.9,110.1c0,0.2,0,0.2,0,0.2L381.9,110.1z"/>
					<polygon id="XMLID_1772_" class="st1" points="382.1,110.3 382.1,110.3 382.1,110.6 					"/>
					<path id="XMLID_1771_" class="st1" d="M382.4,110C382.4,110,382.4,110,382.4,110C382.4,110,382.4,110.3,382.4,110z"/>
				</g>
			</g>
		</g>
	</g>
</g>
<g id="XMLID_70_">
	<g id="XMLID_1634_">
		<path id="XMLID_1638_" class="st1" d="M377.2,111.3c-0.8,2-1.2,4.1-1.1,6.3c0,0.8,1.3,0.8,1.2,0c-0.1-2.1,0.3-4,1-5.9
			C378.7,110.9,377.5,110.6,377.2,111.3L377.2,111.3z"/>
	</g>
</g>
<g id="XMLID_72_">
	<g id="XMLID_1628_">
		<path id="XMLID_1632_" class="st1" d="M376.4,116.9c-4.7,0.9-7.1,4.7-8.1,9.1c-1.7,7.8-1.3,16.5-1.7,24.4
			c-0.8,17.6-1.3,35.2-1.4,52.8c0,0.8,1.2,0.8,1.2,0c0.1-14.3,0.4-28.6,0.9-42.9c0.3-7,0.6-13.9,1-20.9c0.4-7-0.8-19.6,8.2-21.4
			C377.6,117.9,377.2,116.7,376.4,116.9L376.4,116.9z"/>
	</g>
</g>
<g id="XMLID_74_">
	<g id="XMLID_1622_">
		<path id="XMLID_1626_" class="st1" d="M399.9,110.3c2.3-3,4.2-6.2,5.8-9.7c1.3-3,2.2-6.3,3.9-9.2c3-5,10-9.6,10.8-15.6
			c0.1-0.4-0.2-0.8-0.6-0.8c-2.9,0.3-5.3,1.3-7.5,3.2c-1.6,1.4-2.8,3.1-4.4,4.5c-2.6,2.3-5.2,2.1-8.3,2.2
			c-6.3,0.2-10.2,5.6-9.8,11.6c0.1,0.8,1.3,0.8,1.2,0c-0.4-6.5,4.4-10.7,10.7-10.1c1.5,0.2,2.7,0.6,4.2-0.1c1.8-0.8,3.2-3,4.5-4.4
			c0.9-1,1.8-1.9,2.8-2.8c1.5-1.2,7.2-3.7,4,0.6c-3.4,4.5-7.8,8.5-10.1,13.8c-2.5,5.7-4.5,11.1-8.3,16.1
			C398.4,110.3,399.5,110.9,399.9,110.3L399.9,110.3z"/>
	</g>
</g>
<g id="XMLID_76_">
	<g id="XMLID_1616_">
		<path id="XMLID_1620_" class="st1" d="M405.5,86.4c1.5-5.5,3.9-10.6,5.8-16c1.3-3.6,3.2-8.9,2-12.7c-0.1-0.3-0.3-0.4-0.6-0.5
			c-3.2-0.3-5.4,6.2-6.4,8.4c-2.6,6.4-3.6,13.4-6.3,19.8c-0.3,0.7,0.8,1.4,1.1,0.6c3.5-8.1,4.1-17.6,9-25.1c1-1.6,1.4-3,2.2-0.8
			c0.4,1.1-0.4,3.3-0.6,4.5c-0.5,2.3-1.3,4.6-2.1,6.9c-1.8,4.8-3.9,9.5-5.3,14.5C404,86.9,405.3,87.2,405.5,86.4L405.5,86.4z"/>
	</g>
</g>
<g id="XMLID_78_">
	<g id="XMLID_1610_">
		<path id="XMLID_1614_" class="st1" d="M400.9,84.6c-0.6-2,1.6-5.9,2.2-7.7c0.8-2.3,1.7-4.7,2.5-7c0.3-0.8-0.9-1.1-1.2-0.3
			c-1.1,3.1-2.2,6.1-3.3,9.2c-0.7,1.9-2.1,4.2-1.4,6.2C400,85.7,401.2,85.4,400.9,84.6L400.9,84.6z"/>
	</g>
</g>
<g id="XMLID_80_">
	<g id="XMLID_1603_">
		<path id="XMLID_1608_" class="st1" d="M399.8,84.2c0.6-7,1.1-14.1,1.7-21.1c0.3-3.4,2.3-9.9-0.8-12.4c-0.2-0.2-0.5-0.2-0.8-0.1
			c-3.2,1.5-2.6,8.5-2.8,11.3c-0.7,7.5-1.4,15-2,22.5c-0.1,0.8,1.2,0.8,1.2,0c0.5-5,0.9-10,1.4-15c0.2-2.5,0.5-5,0.7-7.5
			c0.1-1.4,0.4-8.7,1.8-7.9c1.5,0.9,0.5,4.3,0.4,6.2c-0.2,2.6-0.4,5.1-0.6,7.7c-0.4,5.4-0.9,10.9-1.3,16.3
			C398.5,85,399.8,85,399.8,84.2L399.8,84.2z"/>
	</g>
</g>
<g id="XMLID_82_">
	<g id="XMLID_1597_">
		<path id="XMLID_1601_" class="st1" d="M394.9,85.5c0-3.4,2.1-29.8-2.3-29.4c-2.3,0.2-2.6,4.3-2.7,6c-0.6,7.4-0.3,15-0.4,22.5
			c0,0.8,1.2,0.8,1.2,0c0.1-4.4,0.1-8.9,0.2-13.3c0-1.9,0.1-3.8,0.1-5.7c0-1.6-0.5-10.5,1.8-6c1.8,3.4,0.8,9,0.8,12.8
			c0,4.4,0,8.8-0.1,13.2C393.6,86.3,394.8,86.3,394.9,85.5L394.9,85.5z"/>
	</g>
</g>
<g id="XMLID_84_">
	<g id="XMLID_1591_">
		<path id="XMLID_1595_" class="st1" d="M389.4,84.9c-1.6-5.7-3.2-11.3-4.7-17c-0.3-1.2-0.6-5.1-2.7-4.6c-2.4,0.6-1.5,6.8-1.4,8.2
			c0.3,5.7,1.9,11.1,3.5,16.6c0.2,0.8,1.4,0.4,1.2-0.3c-0.8-2.9-6.2-19.7-2.8-20.9c1.3-0.5,1.3,2,1.6,3.1c0.5,1.7,0.9,3.4,1.4,5.1
			c0.9,3.4,1.9,6.8,2.8,10.2C388.4,86,389.7,85.7,389.4,84.9L389.4,84.9z"/>
	</g>
</g>
<g id="XMLID_87_">
	<g id="XMLID_1585_">
		<path id="XMLID_1589_" class="st1" d="M381.8,84c-0.7,9.4-6.8,19.1-1.3,28.1c0.4,0.7,1.5,0.1,1.1-0.6c-5.3-8.7,0.8-18.4,1.4-27.5
			C383.1,83.2,381.9,83.2,381.8,84L381.8,84z"/>
	</g>
</g>
<g id="XMLID_90_">
	<g id="XMLID_1579_">
		<path id="XMLID_1583_" class="st1" d="M457.7,148.9c-0.2-1.5,0.1-3,0.7-4.4c-0.4-0.1-0.8-0.1-1.2-0.2
			c-2.4,20.4-13.1,38.5-16.4,58.7c-0.1,0.8,1.1,1.1,1.2,0.3c3.3-20.3,14-38.5,16.4-59c0.1-0.7-1-0.8-1.2-0.2c-0.6,1.7-0.7,3-0.7,4.7
			C456.5,149.7,457.7,149.7,457.7,148.9L457.7,148.9z"/>
	</g>
</g>
<g id="XMLID_92_">
	<g id="XMLID_1573_">
		<path id="XMLID_1577_" class="st1" d="M458.5,140.3c4.8,8.1,14.9,4.7,22.3,3.5c0.8-0.1,0.5-1.3-0.3-1.2
			c-6.8,1.1-16.4,4.6-20.9-2.9C459.2,139,458.1,139.7,458.5,140.3L458.5,140.3z"/>
	</g>
</g>
<g id="XMLID_94_">
	<g id="XMLID_1567_">
		<path id="XMLID_1571_" class="st1" d="M477.2,142.6c-0.7,18.8-2.3,37.5-4.6,56.2c-0.1,0.8,1.1,0.8,1.2,0
			c2.4-18.6,3.9-37.4,4.6-56.2C478.5,141.8,477.2,141.8,477.2,142.6L477.2,142.6z"/>
	</g>
</g>
<g id="XMLID_96_">
	<g id="XMLID_1561_">
		<path id="XMLID_1565_" class="st1" d="M476.8,149.9c-3.2,0.8-6.5,1.3-9.8,1.1c-2.6-0.1-9.7-0.8-9.2-4.8c0.1-0.8-1.2-0.8-1.2,0
			c-0.4,3.2,3.5,4.9,6,5.5c4.7,1.1,9.9,0.6,14.5-0.6C477.9,150.9,477.6,149.7,476.8,149.9L476.8,149.9z"/>
	</g>
</g>
<g id="XMLID_98_">
	<g id="XMLID_1555_">
		<path id="XMLID_1559_" class="st1" d="M474.3,188.3c-0.4,3.5-0.8,7-1.2,10.5c-0.1,0.8,1.2,0.8,1.2,0c0.4-3.5,0.8-7,1.2-10.5
			C475.7,187.5,474.4,187.5,474.3,188.3L474.3,188.3z"/>
	</g>
</g>
<g id="XMLID_100_">
	<g id="XMLID_1549_">
		<path id="XMLID_1553_" class="st1" d="M460,142.3c-1.2-6.1-4.9-10.9-9.1-15.3c-1.6-1.6-7.1-5.6-7.5-8c-1.3-7,8.5,2.9,9.6,4.2
			c0.5,0.6,1.4-0.3,0.9-0.9c-2.5-3.1-5.8-7-10-7.5c-1.7-0.2-3.2-0.1-3.2,2c0,3,5.7,7.3,7.6,9.2c4.7,4.8,9.2,9.7,10.6,16.5
			C459,143.4,460.2,143.1,460,142.3L460,142.3z"/>
	</g>
</g>
<g id="XMLID_102_">
	<g id="XMLID_1543_">
		<path id="XMLID_1547_" class="st1" d="M452.9,122.7c2.5-0.6,5.1-0.3,7.4,0.9c2.3,1.2,5.4,3.9,4.5,6.8c-0.2,0.8,1,1.1,1.2,0.3
			c0.9-3-1.5-5.8-3.9-7.5c-2.8-1.9-6.3-2.5-9.6-1.8C451.7,121.7,452.1,122.9,452.9,122.7L452.9,122.7z"/>
	</g>
</g>
<g id="XMLID_104_">
	<g id="XMLID_1537_">
		<path id="XMLID_1541_" class="st1" d="M454.8,121.4c-2-6.3-6.3-11.1-9.7-16.6c-0.4-0.6-0.7-1.1-1-1.7c1.6-2.2,3-2.2,4.3-0.1
			c1.5,1.5,2.7,3.3,4,5c2.6,3.5,5.2,7,7.8,10.4c0.5,0.6,1.6,0,1.1-0.6c-3.7-4.9-7.1-10.1-11.1-14.7c-1.3-1.5-5-5.3-7.3-3.6
			c-2.1,1.5,0.6,5.1,1.5,6.6c3.3,5.2,7.3,9.7,9.2,15.7C453.8,122.5,455,122.2,454.8,121.4L454.8,121.4z"/>
	</g>
</g>
<g id="XMLID_106_">
	<g id="XMLID_1531_">
		<path id="XMLID_1535_" class="st1" d="M459.9,115.2c-1.2-7.9-3.6-15.5-7.3-22.5c-0.4-0.8-0.8-1.5-1.3-2.3c2.1,0.3,3.7,1.2,4.9,2.7
			c1.6,1.7,2.6,3.9,3.4,6c1.6,4,2.6,8.2,3.7,12.3c0.2,0.8,1.4,0.4,1.2-0.3c-2-7.2-4.6-22.6-14.7-22.5c-0.5,0-0.8,0.5-0.5,0.9
			c4.8,8.1,7.9,16.8,9.3,26C458.8,116.3,460,116,459.9,115.2L459.9,115.2z"/>
	</g>
</g>
<g id="XMLID_108_">
	<g id="XMLID_1525_">
		<path id="XMLID_1529_" class="st1" d="M465.5,112.6c-0.3-4.1-0.8-8.1-1.6-12.1c-0.1-0.8-1.4-0.5-1.2,0.3c0.7,3.9,1.2,7.8,1.5,11.8
			C464.3,113.4,465.6,113.4,465.5,112.6L465.5,112.6z"/>
	</g>
</g>
<g id="XMLID_110_">
	<g id="XMLID_1519_">
		<path id="XMLID_1523_" class="st1" d="M460,94.9c1.7-1.1,6.4,8.3,6.9,9.6c1.1,3,1.8,6.2,2.5,9.4c0.2,0.8,1.4,0.5,1.2-0.3
			c-1.1-5.2-2.3-10.7-5.5-15.2c-0.9-1.2-3.9-5.7-5.8-4.5C458.7,94.3,459.3,95.3,460,94.9L460,94.9z"/>
	</g>
</g>
<g id="XMLID_112_">
	<g id="XMLID_1513_">
		<path id="XMLID_1517_" class="st1" d="M469.5,107.6c0.1-2.2-0.7-6.7,0.2-8.5c-0.3-1.2,0.1-1.3,1.2-0.4c0.9,0,1.4,0.4,1.3,1.2
			c0.6,1,0.6,3.3,0.8,4.3c1,6.1,1.5,12.2,1.6,18.3c0,0.8,1.3,0.8,1.2,0c-0.1-5-0.4-10-1.1-15c-0.5-3.5-0.4-9.4-3.2-12
			c-0.8-0.7-2-1.5-2.9-0.5c-0.6,0.6-0.2,2.3-0.2,3c0,3.2,0,6.3-0.2,9.5C468.2,108.4,469.4,108.4,469.5,107.6L469.5,107.6z"/>
	</g>
</g>
<g id="XMLID_114_">
	<g id="XMLID_1506_">
		<path id="XMLID_1511_" class="st1" d="M475.6,121.2c1.3,6.9,5,16.9-1.7,22c-0.6,0.5,0.3,1.4,0.9,0.9c7.2-5.6,3.4-16,2-23.3
			C476.7,120.1,475.4,120.4,475.6,121.2L475.6,121.2z"/>
	</g>
</g>
<g id="XMLID_116_">
	<g id="XMLID_1500_">
		<path id="XMLID_1504_" class="st1" d="M470.1,112c-5.9,1.1-11.5,2.8-17,5.3c-0.7,0.3-0.1,1.4,0.6,1.1c5.4-2.4,10.9-4.1,16.7-5.1
			C471.3,113.1,470.9,111.9,470.1,112L470.1,112z"/>
	</g>
</g>
<g id="XMLID_118_">
	<g id="XMLID_1494_">
		<path id="XMLID_1498_" class="st1" d="M372.3,196.3c-9.7-16.2-18.9-32.6-27.6-49.3c-0.4-0.7-1.5-0.1-1.1,0.6
			c8.7,16.7,18,33.1,27.6,49.3C371.7,197.6,372.7,197,372.3,196.3L372.3,196.3z"/>
	</g>
</g>
<g id="XMLID_120_">
	<g id="XMLID_1488_">
		<path id="XMLID_1492_" class="st1" d="M344.8,151.7c2.3-4,2.9-8.4,3.7-12.9c0.5-2.9,1-5.7,2.2-8.4c0.5-1.1,1.7-2.3,1.3-3.6
			c-0.5-1.7-2-1.7-3.5-0.9c-3.3,1.7-4.7,6.8-5.6,10c-0.2,0.8,1,1.1,1.2,0.3c0.5-1.8,1.1-4.6,2.3-6c0.4-0.5,3.3-3.1,4-1.7
			c0.1,0.2-2.3,5.9-2.4,6.3c-1.3,5.6-1.3,11.2-4.2,16.3C343.3,151.8,344.4,152.4,344.8,151.7L344.8,151.7z"/>
	</g>
</g>
<g id="XMLID_122_">
	<g id="XMLID_1482_">
		<path id="XMLID_1486_" class="st1" d="M344,132.5c0,1.5-0.5,2.6-2.2,2.8c-0.6,0.1-1.2-0.1-1.8,0c-1,0.1-1.9,0.5-2.7,1.2
			c-1.6,1.4-2.3,3.5-1.8,5.6c0.2,0.8,1.4,0.4,1.2-0.3c-0.4-1.5,0.1-3.1,1.3-4.2c1.4-1.3,2.8-0.8,4.4-1c2.1-0.3,2.8-2,2.8-4
			C345.3,131.7,344,131.7,344,132.5L344,132.5z"/>
	</g>
</g>
<g id="XMLID_124_">
	<g id="XMLID_1476_">
		<path id="XMLID_1480_" class="st1" d="M344.2,135.5c0.1-5.4,0.4-10.9-0.1-16.3c-0.1-1.6-0.4-4.1-2.6-4.1c-2.4,0-2.3,2.8-2.3,4.5
			c-0.2,5.3-0.2,10.6-0.1,15.9c0,0.8,1.3,0.8,1.2,0c0-2.9-0.1-5.8,0-8.7c0-1.4,0-2.9,0.1-4.3c0-0.4-0.1-4.1,0.1-4.3
			c0.8,0.3,1.6,0.7,2.4,1c0,1,0,2,0.1,3c0,1.5,0,3,0,4.4c0,3,0,5.9,0,8.9C342.9,136.3,344.2,136.3,344.2,135.5L344.2,135.5z"/>
	</g>
</g>
<g id="XMLID_126_">
	<g id="XMLID_1470_">
		<path id="XMLID_1474_" class="st1" d="M339.8,134.2c-2.8-7.6-5.8-15.1-8.8-22.6c-0.2-0.5-0.8-0.6-1.1-0.1c-1.9,3.1-1.1,6.8,0,10
			c1.8,4.9,4.2,9.7,6.2,14.4c0.3,0.7,1.4,0.1,1.1-0.6c-1.4-3.3-2.9-6.5-4.3-9.8c-1.7-3.9-4.6-9.3-2-13.4c-0.4,0-0.8-0.1-1.1-0.1
			c2.9,7.5,6,15,8.8,22.6C338.8,135.2,340,134.9,339.8,134.2L339.8,134.2z"/>
	</g>
</g>
<g id="XMLID_128_">
	<g id="XMLID_1464_">
		<path id="XMLID_1468_" class="st1" d="M336.1,135.1c-3-4.7-6.5-8.9-10.5-12.8c-0.3-0.3-0.9-0.2-1,0.3c-2,6.4,4.7,10.2,7.2,15.2
			c0.3,0.7,1.4,0.1,1.1-0.6c-2.2-4.6-8.9-8.5-7-14.3c-0.3,0.1-0.7,0.2-1,0.3c3.9,3.8,7.4,7.9,10.3,12.5
			C335.4,136.4,336.5,135.7,336.1,135.1L336.1,135.1z"/>
	</g>
</g>
<g id="XMLID_130_">
	<g id="XMLID_1458_">
		<path id="XMLID_1462_" class="st1" d="M330,136.9c-0.9-1.6-5.9-9.8-8.2-7.2c-1.3,1.4,0.2,3.8,1,5c1.9,2.7,4,5.3,6,7.9
			c0.5,0.6,1.6,0,1.1-0.6c-1.1-1.5-2.2-2.9-3.4-4.4c-1-1.3-2.3-2.6-3.1-4.1c-0.1-0.2-0.3-0.4-0.4-0.6c0-1.9,0.4-2.3,1.2-1.3
			c0.6,0.3,1.2,1.2,1.7,1.6c1.2,1.3,2.2,2.8,3,4.3C329.3,138.2,330.4,137.6,330,136.9L330,136.9z"/>
	</g>
</g>
<g id="XMLID_132_">
	<g id="XMLID_1452_">
		<path id="XMLID_1456_" class="st1" d="M327.2,138.8c0.3,7.4,1.1,16.1,8.7,19.6c0.7,0.3,1.4-0.7,0.6-1.1
			c-7.2-3.3-7.9-11.5-8.1-18.5C328.4,138,327.1,138,327.2,138.8L327.2,138.8z"/>
	</g>
</g>
<g id="XMLID_134_">
	<g id="XMLID_1446_">
		<path id="XMLID_1450_" class="st1" d="M333.1,155.6c4.9,15.5,9.9,31.1,14.8,46.6c0.2,0.8,1.5,0.4,1.2-0.3
			c-4.9-15.5-9.9-31.1-14.8-46.6C334.1,154.5,332.9,154.9,333.1,155.6L333.1,155.6z"/>
	</g>
</g>
<g id="XMLID_160_">
	<g id="XMLID_1440_">
		<path id="XMLID_1444_" class="st1" d="M436.7,157.3c-1.1,15.6-1.6,31.3-1.6,46.9c0,0.8,1.3,0.8,1.2,0c0-15.7,0.5-31.3,1.6-46.9
			C438,156.5,436.8,156.5,436.7,157.3L436.7,157.3z"/>
	</g>
</g>
<g id="XMLID_162_">
	<g id="XMLID_1434_">
		<path id="XMLID_1438_" class="st1" d="M423.1,158.4c-0.5-0.5-1.2,6.4-1.2,6.7c-0.1,2-0.3,4-0.4,6c-0.3,3.7-0.5,7.3-0.8,11
			c-0.5,7.6-1.1,15.3-1.6,22.9c-0.1,0.8,1.2,0.8,1.2,0c0.6-8.3,1.2-16.6,1.8-24.9c0.3-4,0.6-8,0.8-12c0.2-2.6,1.4-7.2,0.4-9.7
			c-0.2-0.4-0.7-0.6-1-0.3c-0.1,0.1-0.1,0.1-0.2,0.2c-0.3,0.2-0.2,0.6,0,0.9c0,0,0.1,0.1,0.1,0.1C422.7,159.9,423.6,159,423.1,158.4
			L423.1,158.4z"/>
	</g>
</g>
<g id="XMLID_164_">
	<g id="XMLID_1428_">
		<path id="XMLID_1432_" class="st1" d="M423.5,158.2c-3-3.1-5.4-6.1-7.8-9.8c-1.7-2.7-4.1-4.8-7-6.3c-0.7-0.4-1.3,0.7-0.6,1.1
			c3.8,2,5.8,4.8,8,8.4c1.7,2.8,4.2,5.1,6.5,7.4C423.1,159.6,424,158.7,423.5,158.2L423.5,158.2z"/>
	</g>
</g>
<g id="XMLID_166_">
	<g id="XMLID_1422_">
		<path id="XMLID_1426_" class="st1" d="M409.1,141.1c2.1,1.1,4.3,2.1,6.4,3.2c0.7,0.4,1.4-0.7,0.6-1.1c-2.1-1.1-4.3-2.1-6.4-3.2
			C409,139.7,408.4,140.8,409.1,141.1L409.1,141.1z"/>
	</g>
</g>
<g id="XMLID_262_">
	<g id="XMLID_1416_">
		<path id="XMLID_1420_" class="st1" d="M416.8,143c-0.6-2.6-1.2-5.3-1.8-7.9c-0.4-1.8-2.3-6.7-1.6-8.2c0.3-0.7,1.4,2.4,1.7,3
			c0.5,1.3,1,2.5,1.4,3.8c1,2.8,1.9,5.6,2.7,8.4c0.2,0.8,1.4,0.4,1.2-0.3c-1.3-4.3-2.8-8.6-4.4-12.8c-0.7-1.7-1.3-4.1-3.4-4.6
			c-0.3-0.1-0.5,0.1-0.7,0.3c-1.2,1.6,0.5,5.1,0.9,6.8c0.9,4,1.8,7.9,2.7,11.9C415.7,144.1,416.9,143.7,416.8,143L416.8,143z"/>
	</g>
</g>
<g id="XMLID_358_">
	<g id="XMLID_1409_">
		<path id="XMLID_1413_" class="st1" d="M420.9,139.7c0.1-3.4-0.3-6.7-1-10c-0.4-2-2.3-11.4-1.3-11.2c1.6,0.3,2.6,8.2,2.9,9.7
			c0.8,3.8,1.6,7.5,3.1,11.1c0.3,0.7,1.5,0.4,1.2-0.3c-2.2-5.7-2.9-11.7-4.5-17.6c-0.4-1.4-1-5.9-3.2-6c-2.2-0.1-1,5.3-0.9,6.2
			c0.7,6.1,2.7,11.9,2.5,18.1C419.6,140.5,420.8,140.5,420.9,139.7L420.9,139.7z"/>
	</g>
</g>
<g id="XMLID_454_">
	<g id="XMLID_1403_">
		<path id="XMLID_1407_" class="st1" d="M426.9,137.4c-0.1-3.9-0.2-7.7-0.4-11.6c0-0.3-0.5-4,0.6-3.9c0.9,0.1,1,5.1,1,6
			c0.2,2.9,0.3,10.2,3.4,11.4c0.7,0.3,1.1-0.9,0.3-1.2c-1.3-0.5-1.8-4.7-2.1-6c-0.4-2.3-0.4-4.6-0.6-6.9c-0.2-2-0.7-4.2-2.4-5.5
			c-0.2-0.1-0.5-0.1-0.6,0c-1.6,1.2-0.9,3.5-0.9,5.4c0.1,4.1,0.3,8.2,0.4,12.3C425.6,138.2,426.9,138.2,426.9,137.4L426.9,137.4z"/>
	</g>
</g>
<g id="XMLID_550_">
	<g id="XMLID_1397_">
		<path id="XMLID_1401_" class="st1" d="M432.7,138.4c0.2-2.1,0.5-4.2,0.7-6.3c0.1-0.4,0.1-3.5,0.5-3.7c1.5-0.9,1.5,1.2,1.6,2
			c0.2,4.2-0.1,8.3-0.8,12.5c-0.1,0.8,1.1,1.1,1.2,0.3c0.6-3.6,1-7.3,0.9-11c0-1.5,0.4-5.2-1.4-6.1c-3.9-2.1-3.9,10.7-4,12.4
			C431.4,139.2,432.6,139.2,432.7,138.4L432.7,138.4z"/>
	</g>
</g>
<g id="XMLID_646_">
	<g id="XMLID_1391_">
		<path id="XMLID_1395_" class="st1" d="M436,140.4c2.8,6.7,4,12.3-0.6,18.6c-0.5,0.7,0.6,1.3,1.1,0.6c4.9-6.6,3.7-12.6,0.6-19.9
			C436.8,139,435.7,139.6,436,140.4L436,140.4z"/>
	</g>
</g>
<g id="XMLID_742_">
	<g id="XMLID_1385_">
		<path id="XMLID_1389_" class="st1" d="M441.7,167.1c-0.8,7.1-3.9,13.7-5.3,20.7c-0.2,0.8,1,1.1,1.2,0.3c1.4-7.1,4.6-13.8,5.3-21
			C443,166.3,441.7,166.3,441.7,167.1L441.7,167.1z"/>
	</g>
</g>
<g id="XMLID_46_">
	<g id="XMLID_1379_">
		<path id="XMLID_1383_" class="st1" d="M442.4,168.9c-1.3-2.3-3.7-4.1-5.6-5.9c-0.6-0.6-1.5,0.3-0.9,0.9c1.8,1.7,4.1,3.5,5.4,5.7
			C441.7,170.3,442.8,169.6,442.4,168.9L442.4,168.9z"/>
	</g>
</g>
<g id="XMLID_45_">
	<g id="XMLID_1373_">
		<path id="XMLID_1377_" class="st1" d="M440.5,149c-0.1-1-1.2-6.1-0.6-6.6c0.4-0.3,1.4,3.6,1.6,4.1c0.7,3,1.1,6,2.6,8.8
			c0.4,0.7,1.4,0.1,1.1-0.6c-1.6-3.2-1.8-6.8-2.9-10.1c-0.4-1.3-1.1-4.4-2.9-4.3c-0.3,0-0.5,0.2-0.6,0.5c-0.6,2.5,0.2,5.8,0.5,8.3
			C439.3,149.8,440.5,149.8,440.5,149L440.5,149z"/>
	</g>
</g>
<g id="XMLID_1030_">
	<g id="XMLID_1367_">
		<path id="XMLID_1371_" class="st1" d="M443.1,153.7c4.6,0.7,0.7-14.7,4.3-16.9c-0.3-0.2-0.6-0.4-0.9-0.5
			c0.6,5.1-0.1,10.4-0.2,15.5c0,0.8,1.2,0.8,1.2,0c0.2-5.1,0.8-10.4,0.2-15.5c0-0.5-0.5-0.8-0.9-0.5c-1.8,1.1-2,3-2.3,4.9
			c-0.2,1.2-0.4,11.9-1.1,11.8C442.7,152.4,442.3,153.6,443.1,153.7L443.1,153.7z"/>
	</g>
</g>
<g id="XMLID_1126_">
	<g id="XMLID_1361_">
		<path id="XMLID_1365_" class="st1" d="M448.4,152.6c0.4-3.2-0.1-9.9,3.3-11.6c-0.3-0.1-0.6-0.1-0.9-0.2c1,2-0.5,5.8-0.9,7.9
			c-0.4,2.2-0.7,4.3-0.6,6.6c0,0.8,1.3,0.8,1.2,0c-0.1-3.4,0.7-6.7,1.4-10c0.3-1.7,0.9-3.5,0-5.1c-0.2-0.3-0.6-0.4-0.9-0.2
			c-4,2-3.4,8.9-3.9,12.6C447.1,153.4,448.3,153.4,448.4,152.6L448.4,152.6z"/>
	</g>
</g>
<g id="XMLID_1222_">
	<g id="XMLID_1355_">
		<path id="XMLID_1359_" class="st1" d="M451.6,154.9c1.1-3.7,2.7-7.2,4.9-10.4c0.4-0.7-0.6-1.3-1.1-0.6c-2.2,3.3-3.9,6.9-5,10.7
			C450.2,155.4,451.4,155.7,451.6,154.9L451.6,154.9z"/>
	</g>
</g>
<g id="XMLID_1318_">
	<g id="XMLID_1349_">
		<path id="XMLID_1353_" class="st1" d="M451.7,156.2c-3-1.6-8.7-2.8-11.2,0.3c-0.5,0.6,0.4,1.5,0.9,0.9c2.1-2.7,7.2-1.5,9.7-0.1
			C451.8,157.6,452.4,156.5,451.7,156.2L451.7,156.2z"/>
	</g>
</g>
<g id="XMLID_1414_">
	<g id="XMLID_1343_">
		<path id="XMLID_1347_" class="st1" d="M504.5,199.1c0,0.3-0.1,0.6-0.1,0.8c0.4,0.1,0.8,0.1,1.2,0.2c0.3-4.5,0.6-9,0.8-13.5
			c0-0.8-1.2-0.8-1.2,0c-0.3,4.5-0.6,9-0.8,13.5c0,0.7,1,0.8,1.2,0.2c0.2-0.6,0.2-0.6,0.1-1.2C505.7,198.3,504.4,198.3,504.5,199.1
			L504.5,199.1z"/>
	</g>
</g>
<g id="XMLID_1510_">
	<g id="XMLID_1337_">
		<path id="XMLID_1341_" class="st1" d="M504.7,186.4c-1.7-0.8-2.1-2.6-3.3-3.8c-0.5-0.6-1.2-0.7-1.8-1.2c-1.1-0.9-1.3-1.7-2.1-2.7
			c-0.5-0.6-1.1-1.2-1.8-1.6c-0.7-0.5-3.4-1.2-1.6-2.5c1.2-0.9,3.7,0.3,4.5,1.1c0.7,0.7,1.2,1.5,1.9,2.2c0.6,0.5,1.5-0.3,0.9-0.9
			c-2.1-2-3.5-4.2-6.8-3.8c-1.4,0.2-3.7,1.4-2.6,3.2c0.5,0.9,1.9,1.1,2.7,1.6c1.7,1.1,2,2.7,3.4,4c0.6,0.5,1.4,0.7,2,1.2
			c0.7,0.6,1.1,1.4,1.7,2.2c0.6,0.9,1.3,1.7,2.3,2.2C504.8,187.8,505.5,186.7,504.7,186.4L504.7,186.4z"/>
	</g>
</g>
<g id="XMLID_1606_">
	<g id="XMLID_1331_">
		<path id="XMLID_1335_" class="st1" d="M499.7,175.4c1,0.8,1.8,1.6,2.6,2.6c0.5,0.6,1.4-0.3,0.9-0.9c-0.8-1-1.6-1.8-2.6-2.6
			C500,174,499.1,174.9,499.7,175.4L499.7,175.4z"/>
	</g>
</g>
<g id="XMLID_1702_">
	<g id="XMLID_1325_">
		<path id="XMLID_1329_" class="st1" d="M504.1,177c-0.4-2.4-0.9-4.8-1.3-7.2c-0.2-1.2-0.4-2.4-0.7-3.6c-0.1-0.8-0.3-1.6-0.4-2.4
			c0.5-1.2,0.9-1.4,1.3-0.5c1.3,0.8,1.7,5.2,2,6.5c0.5,2.4,0.9,4.7,1.2,7.1c0.1,0.8,1.3,0.5,1.2-0.3c-0.6-3.9-1.1-7.9-2.3-11.7
			c-0.5-1.4-1.5-3.9-3.3-4c-2-0.1-1.5,1.8-1.3,3.2c0.8,4.4,1.6,8.9,2.5,13.3C503,178.1,504.2,177.8,504.1,177L504.1,177z"/>
	</g>
</g>
<g id="XMLID_1798_">
	<g id="XMLID_1319_">
		<path id="XMLID_1323_" class="st1" d="M508.2,174.5c0-3.2,0.1-6.4,0.3-9.5c0.1-1.6,0.3-3.1,0.5-4.7c0.2-1.6,0.8-5,2-2.1
			c0.8,2-0.8,6.9-1.1,9c-0.4,3.2-0.8,6.5-1.2,9.7c-0.1,0.8,1.2,0.8,1.2,0c0.7-5.4,1.4-10.8,2-16.2c0.2-1.4,1.3-6-1.4-6.3
			c-4.5-0.6-3.7,17.7-3.7,20.2C506.9,175.3,508.2,175.3,508.2,174.5L508.2,174.5z"/>
	</g>
</g>
<g id="XMLID_1894_">
	<g id="XMLID_1312_">
		<path id="XMLID_1316_" class="st1" d="M512.6,175.2c0.1-2,0-3.9,0-5.9c0-0.8,0-1.6,0-2.5c0.1-1.3-0.2-3.3,1.3-3.1
			c1.3,0.1,0.8,1.1,0.7,2.2c-0.1,1.1-0.1,2.1-0.2,3.2c-0.2,2.1-0.4,4.2-0.6,6.3c-0.1,0.8,1.2,0.8,1.2,0c0.4-3.8,1-7.8,0.9-11.6
			c0-1.2-0.3-2.6-1.7-2.7c-4.5-0.3-2.7,11.7-2.9,14.1C511.2,176,512.5,176,512.6,175.2L512.6,175.2z"/>
	</g>
</g>
<g id="XMLID_1990_">
	<g id="XMLID_1306_">
		<path id="XMLID_1310_" class="st1" d="M515.8,175.8c0.9-2.7,1.7-5.3,2.6-8c0.2-0.7,0.5-1.5,0.7-2.2c0.8-0.2,1.6-0.5,2.4-0.7
			c0.6,0.6-1.4,5.4-1.6,5.8c-1.8,4-4.3,7.5-5.4,11.9c-0.2,0.8,1,1.1,1.2,0.3c1.2-4.6,4-8.4,5.8-12.8c0.6-1.6,2.5-6.4,0.8-8
			c-3.9-3.7-7.2,11.8-7.6,13.3C514.3,176.2,515.5,176.5,515.8,175.8L515.8,175.8z"/>
	</g>
</g>
<g id="XMLID_2086_">
	<g id="XMLID_1300_">
		<path id="XMLID_1304_" class="st1" d="M517.5,178.7c0.6,3.8-0.5,7.5-3.1,10.4c-0.5,0.6,0.3,1.5,0.9,0.9c2.9-3.2,4.1-7.3,3.4-11.6
			C518.6,177.6,517.4,177.9,517.5,178.7L517.5,178.7z"/>
	</g>
</g>
<g id="XMLID_2182_">
	<g id="XMLID_1294_">
		<path id="XMLID_1298_" class="st1" d="M515.4,187.3c0.6,4.1,0.6,8.2,0.1,12.3c-0.1,0.8,1.2,0.8,1.2,0c0.5-4.1,0.4-8.2-0.1-12.3
			C516.6,186.5,515.3,186.5,515.4,187.3L515.4,187.3z"/>
	</g>
</g>
<g id="XMLID_2278_">
	<g id="XMLID_1288_">
		<path id="XMLID_1292_" class="st1" d="M514.1,188.7c-3.4-1.1-7-0.4-9.8,1.8c-0.6,0.5,0.3,1.4,0.9,0.9c2.5-2,5.6-2.5,8.6-1.5
			C514.5,190.2,514.9,188.9,514.1,188.7L514.1,188.7z"/>
	</g>
</g>
<g id="XMLID_2374_">
	<g id="XMLID_1282_">
		<path id="XMLID_1286_" class="st1" d="M487.8,153.9c-4,16.9-9.1,33.5-15.3,49.8c-0.3,0.8,0.9,1.1,1.2,0.3
			c6.1-16.3,11.2-32.9,15.3-49.8C489.2,153.5,488,153.1,487.8,153.9L487.8,153.9z"/>
	</g>
</g>
<g id="XMLID_2470_">
	<g id="XMLID_1276_">
		<path id="XMLID_1280_" class="st1" d="M489.1,154.4c0-2.8-0.1-5.5-0.4-8.3c-0.3-3.5-1.4-5,3-5.4c6.2-0.6,12.3,1.7,15.4,7.4
			c0.4,0.7,1.5,0.1,1.1-0.6c-4.1-7.8-13-9.1-20.9-7.2c-0.4,0.1-0.5,0.4-0.4,0.8c0.6,4.4,1,8.9,1,13.4
			C487.9,155.2,489.1,155.2,489.1,154.4L489.1,154.4z"/>
	</g>
</g>
<g id="XMLID_2566_">
	<g id="XMLID_1270_">
		<path id="XMLID_1274_" class="st1" d="M506.1,146.1c-0.1,2.7-1.8,5.7-2.6,8.3c-0.8,2.6-1.4,5.2-1.9,7.9c-0.2,0.8,1.1,1.1,1.2,0.3
			c0.6-3,1.3-6,2.2-9c0.8-2.5,2.2-5,2.3-7.5C507.4,145.3,506.2,145.3,506.1,146.1L506.1,146.1z"/>
	</g>
</g>
<g id="XMLID_2662_">
	<g id="XMLID_1264_">
		<path id="XMLID_1268_" class="st1" d="M497.6,182c0,3-0.7,6.1-1.1,9.1c-0.3,2-0.1,6.5-1.3,8.2c-0.5,0.7,0.6,1.3,1.1,0.6
			c1.4-1.9,1.1-6.2,1.5-8.5c0.4-3.1,1.2-6.3,1.1-9.4C498.9,181.2,497.6,181.2,497.6,182L497.6,182z"/>
	</g>
</g>
<g id="XMLID_2758_">
	<g id="XMLID_1258_">
		<path id="XMLID_1262_" class="st1" d="M488.7,138.6c-1.7-2.7-3.7-4.9-5.7-7.3c-1.9-2.3-2.3-4.8-4.6-6.8c-0.6-0.5-1.5,0.3-0.9,0.9
			c2,1.8,2.5,4.1,4,6.1c2,2.6,4.3,4.9,6,7.7C488.1,139.9,489.1,139.3,488.7,138.6L488.7,138.6z"/>
	</g>
</g>
<g id="XMLID_2854_">
	<g id="XMLID_1252_">
		<path id="XMLID_1256_" class="st1" d="M477,121.2c1.7,1,2.6,2.4,3.9,3.9c0.3,0.4,0.6,0.8,1.1,1c1.3,0.5,2.9-0.3,4.3-0.1
			c1.9,0.3,2.4,2.6,3,4.1c0.3,0.7,1.4,0.1,1.1-0.6c-1.2-2.9-1.5-4.9-4.9-4.7c-2.2,0.1-3,0.3-4.4-1.6c-1-1.2-2-2.2-3.4-3
			C477,119.7,476.4,120.8,477,121.2L477,121.2z"/>
	</g>
</g>
<g id="XMLID_2950_">
	<g id="XMLID_1246_">
		<path id="XMLID_1250_" class="st1" d="M486,124.8c-1.5-4.1-3.3-8-5.6-11.8c-0.4-0.7-1.9-2.2-0.8-2c1,0.2,1.5,1.7,2,2.5
			c1.4,2.3,2.5,4.8,3.4,7.4c0.3,0.8,1.5,0.4,1.2-0.3c-0.6-1.8-5.6-14.8-8.5-11.7c-1.1,1.2,0.7,3.3,1.3,4.2c2.3,3.8,4.2,7.8,5.7,12
			C485.1,125.8,486.3,125.5,486,124.8L486,124.8z"/>
	</g>
</g>
<g id="XMLID_3046_">
	<g id="XMLID_1239_">
		<path id="XMLID_1243_" class="st1" d="M487.9,119.6c-0.7-2.9-1.3-5.7-2-8.6c-0.3-1.2-0.5-2.4-0.8-3.6c-0.2-0.8-1.8-4.9-0.2-3.9
			c1.6,1.1,2.3,5.3,3,7.2c1,2.7,1.9,5.4,2.9,8.2c0.3,0.8,1.5,0.4,1.2-0.3c-1.3-3.9-2.7-7.7-4.1-11.5c-0.8-2.2-1.2-5.2-3.2-6.5
			c-0.3-0.2-0.7-0.1-0.9,0.2c-1.1,2.3-0.4,4.5,0.1,7c0.9,4.1,1.9,8.1,2.8,12.2C486.9,120.7,488.1,120.3,487.9,119.6L487.9,119.6z"/>
	</g>
</g>
<g id="XMLID_3142_">
	<g id="XMLID_1232_">
		<path id="XMLID_1236_" class="st1" d="M493.1,119c-0.4-3.2-0.8-6.4-1-9.7c-0.1-1.6-0.3-3.2-0.4-4.8c-0.1-1.1-0.1-2.2-0.2-3.2
			c1.5-0.7,2.1-0.3,1.9,1.1c1.1,2.2,0.6,6.6,0.9,9c0.4,3.2,1,6.3,1.7,9.4c0.2,0.8,1.4,0.5,1.2-0.3c-1.3-5.8-1.7-11.6-2.4-17.6
			c-0.2-1.4-0.4-4.5-2.3-4.8c-4.8-0.7-1,18.3-0.7,20.9C491.9,119.8,493.2,119.8,493.1,119L493.1,119z"/>
	</g>
</g>
<g id="XMLID_3238_">
	<g id="XMLID_1225_">
		<path id="XMLID_1229_" class="st1" d="M499.7,120.5c0.1-2.9,0.3-5.9,0.8-8.8c0.2-1.2,0.4-5.2,1.8-1.2c0.4,1.1,0.1,2.6,0,3.7
			c-0.2,4.8-0.9,9.5-0.2,14.3c0.1,0.8,1.3,0.5,1.2-0.3c-0.7-5,0.2-9.8,0.3-14.7c0-1.3,0.5-6-1.5-6.6c-3.9-1.2-3.6,11.6-3.7,13.6
			C498.4,121.3,499.6,121.3,499.7,120.5L499.7,120.5z"/>
	</g>
</g>
<g id="XMLID_3334_">
	<g id="XMLID_1217_">
		<path id="XMLID_1221_" class="st1" d="M503,126.2c0.4,2.3,1.3,4.5,1.6,6.8c0.3,2.8-0.2,5.5-1.3,8.1c-0.3,0.7,0.9,1.1,1.2,0.3
			c1.1-2.5,1.6-5.2,1.4-8c-0.2-2.6-1.2-5-1.7-7.6C504,125.1,502.8,125.4,503,126.2L503,126.2z"/>
	</g>
</g>
<g id="XMLID_3430_">
	<g id="XMLID_1210_">
		<path id="XMLID_1214_" class="st1" d="M499.7,123.8c-1.5-4.2-5.9-5-9.9-5c-0.8,0-0.8,1.2,0,1.2c3.3,0,7.4,0.5,8.7,4.1
			C498.8,124.9,500,124.6,499.7,123.8L499.7,123.8z"/>
	</g>
</g>
<g id="XMLID_3526_">
	<g id="XMLID_1203_">
		<path id="XMLID_1207_" class="st2" d="M357.1,122.9"/>
	</g>
</g>
<g id="XMLID_3622_">
	<g id="XMLID_1196_">
		<path id="XMLID_1200_" class="st1" d="M356,125.4c4.8,8.7,8.9,17.6,12.3,26.9c0.3,0.7,1.5,0.4,1.2-0.3
			c-3.5-9.4-7.6-18.4-12.5-27.2C356.7,124.1,355.6,124.7,356,125.4L356,125.4z"/>
	</g>
</g>
<g id="XMLID_3718_">
	<g id="XMLID_1189_">
		<path id="XMLID_1193_" class="st1" d="M356.8,124.5c-4.1-1-8.5-1.8-12.4-3.5c-0.7-0.3-1.4,0.8-0.6,1.1c4,1.8,8.4,2.6,12.7,3.6
			C357.2,125.9,357.5,124.7,356.8,124.5L356.8,124.5z"/>
	</g>
</g>
<g id="XMLID_3814_">
	<g id="XMLID_1182_">
		<path id="XMLID_1186_" class="st1" d="M344.9,119.2c2.4-0.1,6.5-4,7.7-0.1c0.2,0.8,1.4,0.4,1.2-0.3c-0.5-1.5-1.7-2.6-3.3-2.7
			c-2.1-0.1-3.6,1.8-5.6,1.9C344.1,118,344.1,119.3,344.9,119.2L344.9,119.2z"/>
	</g>
</g>
<g id="XMLID_3910_">
	<g id="XMLID_1175_">
		<path id="XMLID_1179_" class="st1" d="M349.2,115.5c-2.4-1.5-4.8-3-7.2-4.5c-1.1-0.7-6.2-3.3-5.8-4.5c0.7-2,11.4,5.8,12.6,6.7
			c0.6,0.5,1.3-0.6,0.6-1.1c-3-2.3-5.8-4.5-9.3-6c-1.1-0.5-4.8-2.6-5.6-0.6c-0.7,1.7,1.7,3.2,2.8,3.9c3.6,2.5,7.5,4.8,11.3,7.2
			C349.2,117,349.9,115.9,349.2,115.5L349.2,115.5z"/>
	</g>
</g>
<g id="XMLID_4006_">
	<g id="XMLID_1168_">
		<path id="XMLID_1172_" class="st1" d="M350.6,111.2c-4.8-4.7-9.5-9.5-11.7-15.9c-0.2,0.3-0.4,0.5-0.6,0.8c2.9,0.1,6.3,5.8,8.2,7.7
			c2.3,2.3,4.9,4.4,7.6,6.2c0.7,0.4,1.3-0.6,0.6-1.1c-3.7-2.5-6.9-5.4-9.9-8.8c-1.6-1.8-3.9-5.2-6.6-5.3c-0.4,0-0.7,0.4-0.6,0.8
			c2.3,6.7,7.1,11.7,12.1,16.5C350.3,112.6,351.2,111.7,350.6,111.2L350.6,111.2z"/>
	</g>
</g>
<g id="XMLID_4102_">
	<g id="XMLID_1161_">
		<path id="XMLID_1165_" class="st1" d="M354.2,109.5c-1.4-5.2-4.4-9.8-5.2-15.2c-0.3,0.2-0.7,0.4-1,0.6c4.2,4.3,5.4,10.5,9.7,14.8
			c0.6,0.6,1.5-0.3,0.9-0.9c-4.3-4.2-5.5-10.5-9.7-14.8c-0.5-0.5-1.1,0-1,0.6c0.8,5.4,3.8,10,5.2,15.2
			C353.2,110.6,354.4,110.3,354.2,109.5L354.2,109.5z"/>
	</g>
</g>
<g id="XMLID_4198_">
	<g id="XMLID_1154_">
		<path id="XMLID_1158_" class="st1" d="M358.9,108.9c-0.8-2.6-1.5-5.3-1.9-8c-0.1-0.9-0.2-1.7-0.3-2.6c-0.4-1.5-0.3-1.8,0.5-0.8
			c1.3,0.7,1.4,2.9,1.6,4.2c0.9,4.5,2.2,8.7,4,12.9c0.3,0.7,1.4,0.1,1.1-0.6c-1.9-4.3-3-8.6-4-13.1c-0.3-1.5-1-4.9-3-5.2
			c-3.8-0.5,0.4,12.1,0.9,13.7C357.9,110,359.1,109.7,358.9,108.9L358.9,108.9z"/>
	</g>
</g>
<g id="XMLID_4294_">
	<g id="XMLID_1147_">
		<path id="XMLID_1151_" class="st1" d="M362.9,110.7c1.8,5,3.8,10,8.5,12.8c0.7,0.4,1.3-0.7,0.6-1.1c-4.5-2.6-6.3-7.4-8-12.1
			C363.8,109.6,362.6,109.9,362.9,110.7L362.9,110.7z"/>
	</g>
</g>
<g id="XMLID_4681_">
	<g id="XMLID_1140_">
		<path id="XMLID_1144_" class="st1" d="M315.1,175.7c0.4,8.7,0.8,17.3,1.3,26c0,0.8,1.3,0.8,1.2,0c-0.4-8.7-0.8-17.3-1.3-26
			C316.3,174.9,315,174.9,315.1,175.7L315.1,175.7z"/>
	</g>
</g>
<g id="XMLID_4779_">
	<g id="XMLID_1133_">
		<path id="XMLID_1137_" class="st1" d="M315.3,175.5c-2.5-2.5-6.3-4.3-8.2-7.2c-1.8-2.9-3.5-5.6-5.9-8.2c-0.1,0.3-0.2,0.7-0.3,1
			c3.4-0.8,6.4,3.8,7.7,6.4c0.4,0.7,1.4,0.1,1.1-0.6c-1.6-3.2-5-7.9-9.1-7c-0.5,0.1-0.6,0.7-0.3,1c1.4,1.5,2.7,3.1,3.8,4.8
			c1,1.4,1.6,3.2,2.6,4.5c0.6,0.8,1.4,1.2,2.2,1.8c2,1.3,3.7,2.7,5.4,4.3C315,176.9,315.9,176.1,315.3,175.5L315.3,175.5z"/>
	</g>
</g>
<g id="XMLID_4876_">
	<g id="XMLID_1125_">
		<path id="XMLID_1130_" class="st1" d="M310.1,164.5c-1.4-4.7-4.3-8.5-6.4-12.9c-1.7-3.7,1.2-0.8,2.1,0.2c0.9,1,1.7,2,2.4,3.1
			c1.6,2.3,2.8,4.7,4.1,7.1c0.4,0.7,1.5,0.1,1.1-0.6c-1.8-3.4-3.6-6.7-6.1-9.7c-0.8-1-3.4-4.5-5.2-3.4c-1.6,1,0.3,3.6,0.8,4.8
			c2,3.9,4.5,7.4,5.8,11.7C309.2,165.6,310.4,165.3,310.1,164.5L310.1,164.5z"/>
	</g>
</g>
<g id="XMLID_4974_">
	<g id="XMLID_1118_">
		<path id="XMLID_1122_" class="st1" d="M313.2,161c-1.1-3.4-2.1-6.9-3-10.3c-0.5-1.7-0.9-3.5-1.3-5.2c-0.5-2.2-0.5-2.9,1.1-0.8
			c3.3,4.3,4,10.9,6.4,15.8c0.4,0.7,1.4,0.1,1.1-0.6c-2.1-4.2-3.1-8.8-5-13.1c-0.7-1.6-2.6-6.3-4.8-6.2c-0.2,0-0.4,0.1-0.5,0.3
			c-0.9,1.9,0.8,5.3,1.2,7.2c1.1,4.5,2.4,8.9,3.8,13.3C312.3,162.1,313.5,161.8,313.2,161L313.2,161z"/>
	</g>
</g>
<g id="XMLID_5071_">
	<g id="XMLID_1111_">
		<path id="XMLID_1115_" class="st1" d="M317.3,159.7c-0.1-2.3-0.3-4.7-0.4-7c-0.1-1.2-0.2-2.4-0.2-3.5c0-0.7,0-3.6,0.8-1
			c1.3,4.2,0.6,8.7,1.8,13c0.2,0.8,1.4,0.4,1.2-0.3c-1.1-3.5-0.8-7.2-1.4-10.8c-0.1-1-0.5-4.7-2.3-4.7c-1.2,0-1.4,1.4-1.4,2.3
			c-0.2,3.9,0.4,8.1,0.6,12.1C316.1,160.5,317.4,160.5,317.3,159.7L317.3,159.7z"/>
	</g>
</g>
<g id="XMLID_5169_">
	<g id="XMLID_1104_">
		<path id="XMLID_1108_" class="st1" d="M321.3,160.6c0.1-2.1,0.4-4.2,1-6.2c0.2-0.6,0.4-2.4,1.3-1.5c0.3,0.3-0.6,3.6-0.7,4.1
			c-0.6,3.6-1.2,7.1-1.1,10.7c0,0.8,1.3,0.8,1.2,0c0-4.6,1.1-8.9,1.7-13.4c0.2-1.7,0.5-3.5-1.4-3.9c-0.3-0.1-0.5,0.1-0.7,0.3
			c-2,2.6-2.3,6.9-2.5,10C320,161.4,321.2,161.4,321.3,160.6L321.3,160.6z"/>
	</g>
</g>
<g id="XMLID_5266_">
	<g id="XMLID_1097_">
		<path id="XMLID_1101_" class="st1" d="M322.6,162.1c1.5,5.1,2.8,10.3,0.8,15.5c-0.3,0.8,0.9,1.1,1.2,0.3c2-5.4,0.7-10.8-0.8-16.1
			C323.6,161,322.4,161.4,322.6,162.1L322.6,162.1z"/>
	</g>
</g>
<g id="XMLID_5364_">
	<g id="XMLID_1090_">
		<path id="XMLID_1094_" class="st1" d="M324.3,175.6c2.5,8.1,4.9,16.3,7.4,24.4c0.2,0.8,1.4,0.4,1.2-0.3
			c-2.5-8.1-4.9-16.3-7.4-24.4C325.3,174.5,324.1,174.8,324.3,175.6L324.3,175.6z"/>
	</g>
</g>
<g id="XMLID_5462_">
	<g id="XMLID_1083_">
		<path id="XMLID_1087_" class="st1" d="M353.9,162.1c-1.6-2.2-3.1-4.5-4.4-6.9c-0.1-0.2-1-1.6-0.9-1.7c0.7,0,1.4,0.1,2.1,0.1
			c0.2,0.4,0.4,0.8,0.5,1.2c0.6,1.4,1.2,2.8,1.8,4.2c0.3,0.7,1.5,0.4,1.2-0.3c-0.8-1.9-2.9-9.8-6.5-7.4c-1.6,1.1-0.1,3,0.5,4.2
			c1.3,2.5,2.9,4.9,4.6,7.2C353.3,163.4,354.3,162.8,353.9,162.1L353.9,162.1z"/>
	</g>
</g>
<g id="XMLID_5559_">
	<g id="XMLID_1076_">
		<path id="XMLID_1080_" class="st1" d="M353.9,157c-0.7-2-1.4-4.1-1.9-6.2c-0.3-1.2-0.6-2.4-0.8-3.6c-0.1-0.6-0.2-1.2-0.3-1.8
			c0.7,0.1,1.1,0.5,1.2,1.1c0.9,1.5,1,3.7,1.5,5.4c0.6,1.9,1.3,3.6,2.2,5.3c0.4,0.7,1.5,0.1,1.1-0.6c-1-1.9-1.8-3.8-2.4-5.9
			c-0.4-1.5-0.6-3.2-1.3-4.6c-0.6-1.3-1.8-3.1-3.4-2.4c-0.2,0.1-0.3,0.3-0.3,0.5c-0.1,1.9,0.6,4.2,1.1,6c0.6,2.4,1.3,4.8,2.1,7.1
			C352.9,158,354.2,157.7,353.9,157L353.9,157z"/>
	</g>
</g>
<g id="XMLID_5657_">
	<g id="XMLID_1069_">
		<path id="XMLID_1073_" class="st1" d="M357.5,156.4c-0.7-3.9-2.3-10.7-0.6-14.5c-0.3,0-0.7,0.1-1,0.1c2,1.7,1.4,6.5,1.7,8.9
			c0.2,2.3,0.6,4.6,1,6.9c0.1,0.8,1.3,0.5,1.2-0.3c-0.7-3.8-1.1-7.7-1.3-11.5c-0.1-1.9-0.2-3.6-1.7-4.8c-0.3-0.2-0.8-0.3-1,0.1
			c-0.9,2.1-0.7,4.5-0.6,6.7c0.1,2.9,0.5,5.8,1,8.7C356.4,157.5,357.6,157.2,357.5,156.4L357.5,156.4z"/>
	</g>
</g>
<g id="XMLID_5754_">
	<g id="XMLID_1062_">
		<path id="XMLID_1066_" class="st1" d="M360.9,157.7c0-2,0-4,0.1-6.1c0.1-1.2-0.2-2.9,0.8-3.8c0.5-1.1,0.7-1,0.6,0.4
			c0.1,0.8,0.2,1.6,0.2,2.3c0.1,4.1-0.7,8.2-0.5,12.3c0,0.8,1.3,0.8,1.2,0c-0.2-4.1,0.6-8.2,0.5-12.3c0-1.1,0.2-4.4-1.3-4.9
			c-3.7-1.2-2.9,10.8-2.9,12.1C359.6,158.5,360.9,158.5,360.9,157.7L360.9,157.7z"/>
	</g>
</g>
<g id="XMLID_5852_">
	<g id="XMLID_1055_">
		<path id="XMLID_1059_" class="st1" d="M362.2,158.2c-3.1-0.6-8.4-1.6-10.5,1.4c-0.5,0.7,0.6,1.3,1.1,0.6c1.7-2.3,6.8-1.2,9.1-0.8
			C362.7,159.6,363,158.4,362.2,158.2L362.2,158.2z"/>
	</g>
</g>
<g id="XMLID_5949_">
	<g id="XMLID_1048_">
		<path id="XMLID_1052_" class="st1" d="M363.1,159.5c-0.2,2.9-0.2,6-0.8,8.8c-0.5,2.2-1.2,4.3-1.2,6.6c0,0.8,1.3,0.8,1.2,0
			c0-2.6,1-5,1.4-7.5c0.4-2.6,0.4-5.3,0.6-7.9C364.4,158.7,363.2,158.7,363.1,159.5L363.1,159.5z"/>
	</g>
</g>
<g id="XMLID_6047_">
	<g id="XMLID_1041_">
		<path id="XMLID_1045_" class="st1" d="M339.3,179.6c-0.9,6.9-2.5,13.7-4.7,20.2c-0.3,0.8,0.9,1.1,1.2,0.3
			c2.3-6.7,3.9-13.5,4.8-20.6C340.6,178.8,339.4,178.8,339.3,179.6L339.3,179.6z"/>
	</g>
</g>
<g id="XMLID_6144_">
	<g id="XMLID_1034_">
		<path id="XMLID_1038_" class="st1" d="M413.1,170.4c-0.1-0.5-0.2-0.9-0.2-1.4c-0.4,0.1-0.8,0.2-1.2,0.3c1.7,7.1,3.8,14.2,6.3,21.1
			c0.3,0.8,1.5,0.4,1.2-0.3c-2.5-6.9-4.6-13.9-6.3-21.1c-0.2-0.8-1.3-0.4-1.2,0.3c0.1,0.5,0.2,0.9,0.2,1.4
			C412.1,171.5,413.3,171.2,413.1,170.4L413.1,170.4z"/>
	</g>
</g>
<g id="XMLID_6242_">
	<g id="XMLID_1026_">
		<path id="XMLID_1031_" class="st1" d="M412.3,169.6c3.5-3.1,6.6-6.3,8.8-10.5c0.4-0.7-0.7-1.3-1.1-0.6c-2.1,4.1-5.2,7.2-8.6,10.3
			C410.8,169.3,411.7,170.1,412.3,169.6L412.3,169.6z"/>
	</g>
</g>
<g id="XMLID_6339_">
	<g id="XMLID_1019_">
		<path id="XMLID_1023_" class="st1" d="M417.5,157c-1.5,1.1-2.9,2.1-4.4,3.2c-0.6,0.5,0,1.5,0.6,1.1c1.5-1.1,2.9-2.1,4.4-3.2
			C418.8,157.6,418.2,156.5,417.5,157L417.5,157z"/>
	</g>
</g>
<g id="XMLID_6437_">
	<g id="XMLID_817_">
		<path id="XMLID_1016_" class="st1" d="M413.3,158.1c0.5-3.4,0.7-6.7,0.5-10.1c0-0.8-1.3-0.8-1.2,0c0.2,3.3,0,6.5-0.5,9.8
			C412,158.5,413.2,158.8,413.3,158.1L413.3,158.1z"/>
	</g>
</g>
<g id="XMLID_6535_">
	<g id="XMLID_810_">
		<path id="XMLID_814_" class="st1" d="M410.6,156.2c-0.3-3.4-0.8-6.9-1.2-10.3c-0.1-0.8-1.3-0.5-1.2,0.3c0.5,3.3,0.8,6.6,1.2,10
			C409.4,157,410.6,157,410.6,156.2L410.6,156.2z"/>
	</g>
</g>
<g id="XMLID_44_">
	<g id="XMLID_803_">
		<path id="XMLID_807_" class="st1" d="M668.6,50.2c-24,6.4-45.4,19.7-69.3,26.3c-3.1,0.9-1.8,5.7,1.3,4.8
			C624.6,74.7,646,61.4,670,55C673.1,54.2,671.8,49.4,668.6,50.2L668.6,50.2z"/>
	</g>
</g>
<g id="XMLID_43_">
	<g id="XMLID_796_">
		<path id="XMLID_800_" class="st1" d="M596.7-5c0-0.1,0-0.2,0-0.3c-0.8,0.8-1.7,1.7-2.5,2.5c0.1,0,0.3,0,0.4,0
			c-0.8-0.8-1.7-1.7-2.5-2.5c0,0.4-4.7,4.2-5.3,4.7c-1.9,1.8-3.8,3.7-5.6,5.5c-3.5,3.5-7,6.9-10.6,10.4
			c-7.3,7.1-14.5,14.3-21.8,21.4c-2.3,2.3,1.2,5.8,3.5,3.5c8.4-8.3,16.9-16.6,25.3-24.9c4-3.9,8-7.8,12-11.8c2.2-2.2,7.4-5.4,7.4-9
			c0-1.3-1.2-2.5-2.5-2.5c-0.1,0-0.3,0-0.4,0c-1.3,0-2.5,1.1-2.5,2.5c0,0.1,0,0.2,0,0.3C591.8-1.8,596.8-1.8,596.7-5L596.7-5z"/>
	</g>
</g>
<g id="XMLID_71_">
	<g id="XMLID_789_">
		<path id="XMLID_793_" class="st1" d="M582.7,29.8c-7.9,6.5-15.8,13-23.6,19.5c-2.5,2,1.1,5.6,3.5,3.5c7.9-6.5,15.8-13,23.6-19.5
			C588.7,31.3,585.2,27.8,582.7,29.8L582.7,29.8z"/>
	</g>
</g>
<g id="XMLID_85_">
	<g id="XMLID_782_">
		<path id="XMLID_786_" class="st1" d="M608.7,108.5c12-2.9,24.1-5.4,36.2-7.7c3.2-0.6,1.8-5.4-1.3-4.8c-12.1,2.3-24.2,4.9-36.2,7.7
			C604.2,104.4,605.5,109.2,608.7,108.5L608.7,108.5z"/>
	</g>
</g>
<g id="XMLID_103_">
	<g id="XMLID_775_">
		<path id="XMLID_779_" class="st1" d="M577.2,141.6c14.1,1.5,28.2,3.6,42.1,6.4c3.1,0.6,4.5-4.2,1.3-4.8c-14.4-2.9-28.9-5-43.4-6.6
			C574,136.2,574.1,141.2,577.2,141.6L577.2,141.6z"/>
	</g>
</g>
<g id="XMLID_105_">
	<g id="XMLID_768_">
		<path id="XMLID_772_" class="st1" d="M559.7,163.2c8,3.2,16.2,5.8,24.6,7.7c3.1,0.7,4.5-4.1,1.3-4.8c-8.4-2-16.6-4.5-24.6-7.7
			C558,157.2,556.7,162,559.7,163.2L559.7,163.2z"/>
	</g>
</g>
<g id="XMLID_136_">
	<g id="XMLID_761_">
		<path id="XMLID_765_" class="st1" d="M437.1,33.4c3-22.6,6.1-45.3,9.1-67.9c0.4-3.2-4.6-3.1-5,0c-3,22.6-6.1,45.3-9.1,67.9
			C431.7,36.5,436.7,36.5,437.1,33.4L437.1,33.4z"/>
	</g>
</g>
<g id="XMLID_140_">
	<g id="XMLID_754_">
		<path id="XMLID_758_" class="st1" d="M469,26.1c4.4-12.6,8.9-25.1,13.3-37.7c1.1-3-3.8-4.3-4.8-1.3c-4.4,12.6-8.9,25.1-13.3,37.7
			C463.1,27.8,467.9,29.1,469,26.1L469,26.1z"/>
	</g>
</g>
<g id="XMLID_157_">
	<g id="XMLID_739_">
		<path id="XMLID_744_" class="st1" d="M415.4,19.5c0.3-13.4-0.1-26.7-1.2-40c-0.3-3.2-5.3-3.2-5,0c1.1,13.3,1.5,26.7,1.2,40
			C410.3,22.7,415.3,22.7,415.4,19.5L415.4,19.5z"/>
	</g>
</g>
<g id="XMLID_357_">
	<g id="XMLID_127_">
		<path id="XMLID_137_" class="st1" d="M375.6,30.1c-15.7-21.2-31.2-42.5-46.7-63.9c-1.9-2.6-6.2-0.1-4.3,2.5
			c15.5,21.4,31.1,42.7,46.7,63.9C373.2,35.1,377.5,32.7,375.6,30.1L375.6,30.1z"/>
	</g>
</g>
<g id="XMLID_1749_">
	<g id="XMLID_727_">
		<path id="XMLID_731_" class="st1" d="M240,151.9c-5.3,0.9-10.6,1.8-15.9,2.8c-3.9,0.7-9.8,0.6-13.1,2.6c-1.2,0.7-1.6,2.2-0.9,3.4
			c0,0.1,0.1,0.1,0.1,0.2c0.5,0.9,1.8,1.5,2.8,1.1c0,0,0.1,0,0.1-0.1c3-1.1,1.7-5.9-1.3-4.8c0,0-0.1,0-0.1,0.1
			c0.9,0.4,1.9,0.8,2.8,1.1c0-0.1-0.1-0.1-0.1-0.2c-0.3,1.1-0.6,2.3-0.9,3.4c1.7-1,5.3-0.9,7.3-1.3c2.2-0.4,4.4-0.8,6.5-1.1
			c4.7-0.8,9.3-1.6,14-2.4C244.5,156.2,243.2,151.4,240,151.9L240,151.9z"/>
	</g>
</g>
<g id="XMLID_1756_">
	<g id="XMLID_721_">
		<path id="XMLID_725_" class="st1" d="M394.9,25c-2.3-7.7-4.8-15.3-7.3-22.9c-1-3-5.9-1.7-4.8,1.3c2.6,7.6,5,15.2,7.3,22.9
			C391,29.4,395.9,28.1,394.9,25L394.9,25z"/>
	</g>
</g>
<g id="XMLID_1763_">
	<g id="XMLID_715_">
		<path id="XMLID_719_" class="st1" d="M332.9,41.8c-15.3-13-31.3-25.2-47.9-36.5c-2.7-1.8-5.2,2.5-2.5,4.3
			c16.3,11.1,31.9,23,46.9,35.8C331.8,47.4,335.4,43.8,332.9,41.8L332.9,41.8z"/>
	</g>
</g>
<g id="XMLID_1770_">
	<g id="XMLID_709_">
		<path id="XMLID_713_" class="st1" d="M294.5,42.9c0,0,0.1,0.1,0.1,0.1c1.1,0.9,2.4,1,3.5,0c0.1-0.1,0.1-0.1,0.2-0.2
			c0.8-0.6,1-2.2,0.4-3c-1.8-2.5-5.3-4-7.9-5.6c-3.3-2.2-6.7-4.3-10-6.5c-2.7-1.8-5.2,2.6-2.5,4.3c2.8,1.8,5.6,3.6,8.4,5.4
			c1.3,0.8,2.6,1.7,3.9,2.5c1,0.6,3.2,1.5,3.9,2.4c0.1-1,0.3-2,0.4-3c-0.1,0.1-0.1,0.1-0.2,0.2c1.2,0,2.4,0,3.5,0
			c0,0-0.1-0.1-0.1-0.1C295.5,37.4,292,40.9,294.5,42.9L294.5,42.9z"/>
	</g>
</g>
<g id="XMLID_1777_">
	<g id="XMLID_703_">
		<path id="XMLID_707_" class="st1" d="M301.5,70.7c-16.4-7.5-33.4-13.5-50.8-18.1c-3.1-0.8-4.4,4-1.3,4.8
			c17,4.4,33.6,10.3,49.6,17.6C301.9,76.4,304.4,72.1,301.5,70.7L301.5,70.7z"/>
	</g>
</g>
<g id="XMLID_1784_">
	<g id="XMLID_697_">
		<path id="XMLID_701_" class="st1" d="M269,80.4c-6.5-1.9-12.9-3.8-19.4-5.7c-3.1-0.9-4.4,3.9-1.3,4.8c6.5,1.9,12.9,3.8,19.4,5.7
			C270.7,86.1,272,81.3,269,80.4L269,80.4z"/>
	</g>
</g>
<g id="XMLID_1791_">
	<g id="XMLID_691_">
		<path id="XMLID_695_" class="st1" d="M281.2,107.7c-13.5-0.5-27-1.2-40.4-2.4c-3.2-0.3-3.2,4.7,0,5c13.5,1.1,26.9,1.9,40.4,2.4
			C284.4,112.8,284.4,107.8,281.2,107.7L281.2,107.7z"/>
	</g>
</g>
<g id="XMLID_1799_">
	<g id="XMLID_685_">
		<path id="XMLID_689_" class="st1" d="M220.2,47.8c-11.7-4.9-23.7-9.2-35.8-13c-3.1-1-4.4,3.9-1.3,4.8c12.1,3.8,24.1,8.1,35.8,13
			C221.8,53.8,223.1,49,220.2,47.8L220.2,47.8z"/>
	</g>
</g>
<g id="XMLID_1806_">
	<g id="XMLID_147_">
		<path id="XMLID_156_" class="st1" d="M233,90.4c-8.4-2-16.8-3.6-25.3-4.9c-3.1-0.5-4.5,4.3-1.3,4.8c8.5,1.3,16.9,2.9,25.3,4.9
			C234.8,96,236.2,91.2,233,90.4L233,90.4z"/>
	</g>
</g>
<g id="XMLID_1813_">
	<g id="XMLID_674_">
		<path id="XMLID_678_" class="st1" d="M244.3,116.4c-10.7,1.1-21.3,1.2-32,0.5c-3.2-0.2-3.2,4.8,0,5c10.7,0.7,21.4,0.6,32-0.5
			C247.5,121.1,247.5,116.1,244.3,116.4L244.3,116.4z"/>
	</g>
</g>
<g id="XMLID_1820_">
	<g id="XMLID_667_">
		<path id="XMLID_671_" class="st1" d="M281.8,157c-5.4,0-10.6-0.6-15.9-1.8c-3.1-0.7-4.5,4.1-1.3,4.8c5.7,1.3,11.4,2,17.2,1.9
			C285,162,285.1,157,281.8,157L281.8,157z"/>
	</g>
</g>
<g id="XMLID_1827_">
	<g id="XMLID_139_">
		<path id="XMLID_145_" class="st1" d="M261.5,176.5c-25.8,5.8-51.7,11.7-77.4,17.9c-3.1,0.7-1.8,5.6,1.3,4.8
			c25.8-6.2,51.6-12.1,77.4-17.9C266,180.7,264.6,175.8,261.5,176.5L261.5,176.5z"/>
	</g>
</g>
<g id="XMLID_1834_">
	<g id="XMLID_655_">
		<path id="XMLID_659_" class="st1" d="M517.2,14.8c-9.5,9.2-19.1,18.3-28.6,27.5c-2.3,2.2,1.2,5.8,3.5,3.5
			c9.5-9.2,19.1-18.3,28.6-27.5C523.1,16.1,519.6,12.5,517.2,14.8L517.2,14.8z"/>
	</g>
</g>
<g id="XMLID_1841_">
	<g id="XMLID_649_">
		<path id="XMLID_653_" class="st1" d="M565.8,70.3c-15.2,5.4-30.3,10.8-45.5,16.2c-3,1.1-1.7,5.9,1.3,4.8
			c15.2-5.4,30.3-10.8,45.5-16.2C570.1,74,568.8,69.2,565.8,70.3L565.8,70.3z"/>
	</g>
</g>
<g id="XMLID_1848_">
	<g id="XMLID_642_">
		<path id="XMLID_647_" class="st1" d="M587,94c-8.2,2-16.5,3.5-25,4.4c-3.2,0.3-3.2,5.3,0,5c8.9-0.9,17.6-2.4,26.3-4.5
			C591.4,98.1,590.1,93.3,587,94L587,94z"/>
	</g>
</g>
<g id="XMLID_1855_">
	<g id="XMLID_635_">
		<path id="XMLID_639_" class="st1" d="M565.9,122.7c7.6,0.6,15.1,1.2,22.7,1.8c3.2,0.2,3.2-4.8,0-5c-7.6-0.6-15.1-1.2-22.7-1.8
			C562.7,117.4,562.7,122.4,565.9,122.7L565.9,122.7z"/>
	</g>
</g>
<g id="XMLID_73_">
	<g id="XMLID_628_">
		<path id="XMLID_632_" class="st1" d="M465,162.6c-2.4,6.1-5,12.1-8,18c-1.4,2.9,2.9,5.4,4.3,2.5c3.2-6.3,6-12.7,8.5-19.2
			C470.9,160.9,466.1,159.6,465,162.6L465,162.6z"/>
	</g>
</g>
<g id="XMLID_75_">
	<g id="XMLID_621_">
		<path id="XMLID_625_" class="st1" d="M466.2,168.5c0.7-1.6,0.9-2.3,1-4.1c0.2-2.1-2.9-3.4-4.3-1.8c-3.7,4.3-4.9,9.7-7.7,14.6
			c1.6,0.4,3.1,0.8,4.7,1.3c0.6-6.1,3.8-11.6,4.5-17.8c0.3-3-3.9-3-4.9-0.7c-2.2,5.3-4.3,10.7-6.5,16c1.6,0.2,3.3,0.4,4.9,0.7
			c0.9-6.9,4.5-12.9,4.2-20c-0.1-2.9-3.9-3.3-4.9-0.7c-2.3,6.2-4.7,12.3-7,18.5c-1.1,3,3.6,4.3,4.8,1.3c2.9-7.4,5.3-14.8,7.2-22.5
			c0.8-3.1-4-4.5-4.8-1.3c-1.9,7.7-4.3,15.2-7.2,22.5c1.6,0.4,3.2,0.9,4.8,1.3c2.3-6.2,4.7-12.3,7-18.5c-1.6-0.2-3.3-0.4-4.9-0.7
			c0.3,6.9-3.3,13.2-4.2,20c-0.4,3,4,3,4.9,0.7c2.2-5.3,4.3-10.7,6.5-16c-1.6-0.2-3.3-0.4-4.9-0.7c-0.7,6.1-3.8,11.6-4.5,17.8
			c-0.3,2.6,3.5,3.3,4.7,1.3c2.6-4.4,3.6-9.7,7-13.5c-1.4-0.6-2.8-1.2-4.3-1.8c-0.1,0.5-0.2,1-0.4,1.5
			C460.6,168.9,464.9,171.5,466.2,168.5L466.2,168.5z"/>
	</g>
</g>
<g id="XMLID_77_">
	<g id="XMLID_614_">
		<path id="XMLID_618_" class="st1" d="M468.2,164.1c3.8-0.2,10-5.3,8.9-9.8c-0.5-2-2.2-2.5-4-2.7c-1.8-0.2-3.7,0.6-5.5,0.6
			c-1.9,0-3.7-0.6-5.6-0.5c-1.1,0-2.1,0.7-2.4,1.8c-0.9,3,0.9,7.6,3.7,9.1c3.3,1.7,5.6-2,7.3-4.3c1.4-2-0.9-4-2.8-3.7
			c-1.8,0.3-2.9,1.1-3.8,2.7c-0.9,1.6,0.3,3.8,2.2,3.8c1.8,0,2.2-0.1,4-0.5c-1.1-0.8-2.1-1.6-3.2-2.4c-0.7,6.9-1.5,13.9-2.2,20.8
			c-0.3,2.6-1.4,7.9,2.7,8.2c3.5,0.3,5.1-4.2,6-6.9c2-6.5,3.4-13.3,4.6-20c0.4-2.3-2.3-4.4-4.2-2.4c-3.4,3.7-4.3,8.1-4.9,12.9
			c-0.4,3.2,4.6,3.1,5,0c0.5-3.4,1-6.8,3.4-9.4c-1.4-0.8-2.8-1.6-4.2-2.4c-0.7,4-1.5,8-2.4,11.9c-0.6,2.6-1.5,10.4-4.2,11.7
			c0.8,0,1.7,0,2.5,0c0.1,0.1,1.3-9.7,1.5-11.2c0.5-4.4,0.9-8.8,1.4-13.3c0.2-1.7-1.7-2.8-3.2-2.4c-0.9,0.1-1.8,0.2-2.6,0.3
			c0.7,1.3,1.4,2.5,2.2,3.8c0.3-0.1,0.5-0.3,0.8-0.4c-0.9-1.2-1.9-2.4-2.8-3.7c-0.7,1.1-1.5,2-2.6,2.7c0.8,0,1.7,0,2.5,0
			c-1.4-1-2-2.2-1.8-3.6c-0.8,0.6-1.6,1.2-2.4,1.8c1.8-0.1,3.7,0.5,5.6,0.5c0.9,0,4.9-1,5.7-0.5c-0.4-0.7-0.8-1.4-1.2-2.2
			c0,1.3-3.1,4.4-4,4.4C465,159.3,464.9,164.3,468.2,164.1L468.2,164.1z"/>
	</g>
</g>
<g id="XMLID_79_">
	<g id="XMLID_607_">
		<path id="XMLID_611_" class="st1" d="M477.4,152c-0.2-0.4-0.6-0.6-1.1-0.6c0.1,0.4,0.3,0.7,0.4,1.1c0.2-0.2,0.3-0.4,0.5-0.5
			c0.5-0.5,0-1.2-0.6-1c-0.8,0.2-1.6,0.5-2.3,0.9c-0.7,0.4-0.1,1.5,0.6,1.1c0.6-0.4,1.3-0.7,2-0.8c-0.2-0.3-0.4-0.7-0.6-1
			c-0.2,0.2-0.3,0.4-0.5,0.5c-0.4,0.4-0.1,1.1,0.4,1.1c0,0,0,0,0,0C476.7,153.3,477.8,152.7,477.4,152L477.4,152z"/>
	</g>
</g>
<g id="XMLID_83_">
	<g id="XMLID_600_">
		<path id="XMLID_604_" class="st1" d="M458.8,150.9c-0.2-0.3-0.2-0.6-0.2-1c-0.4-0.1-0.8-0.1-1.2-0.2c-0.1,1.1-0.4,2.1-0.8,3
			c-0.4,0.7,0.7,1.4,1.1,0.6c0.6-1.1,0.9-2.4,1-3.6c0.1-0.7-1.1-0.9-1.2-0.2c-0.1,0.7,0,1.3,0.3,1.9
			C458.1,152.2,459.2,151.6,458.8,150.9L458.8,150.9z"/>
	</g>
</g>
<g id="XMLID_89_">
	<g id="XMLID_593_">
		<path id="XMLID_597_" class="st1" d="M459.4,141.4C459.4,141.4,459.4,141.4,459.4,141.4c-0.2-0.1-0.5-0.1-0.7-0.1c0,0,0,0,0.1,0
			c-0.1-0.2-0.1-0.4-0.2-0.6c-0.1,0.4-0.5,0.7-0.6,1.1c-0.2,0.3-0.3,0.7-0.4,1.1c-0.2,0.8-0.3,1.6-0.2,2.4c0.1,0.8,1.3,0.8,1.2,0
			c-0.1-0.8,0-1.6,0.3-2.3c0.2-0.7,0.7-1.2,1-1.9c0.1-0.2,0-0.5-0.2-0.6c0,0,0,0-0.1,0c-0.2-0.2-0.5-0.2-0.8-0.1c0,0,0,0-0.1,0
			C458,140.7,458.7,141.8,459.4,141.4L459.4,141.4z"/>
	</g>
</g>
<g id="XMLID_503_">
	<g id="XMLID_586_">
		<path id="XMLID_590_" class="st1" d="M459.7,193.8c9.7,0,9.7-15,0-15C450,178.8,450,193.8,459.7,193.8L459.7,193.8z"/>
	</g>
</g>
<g id="XMLID_515_">
	<g id="XMLID_579_">
		<path id="XMLID_583_" class="st1" d="M465.3,183.4c-0.1-0.3-0.1-0.7-0.2-1c-0.5-3.2-4.2-5.5-7.2-5.5c-3.5,0-6.1,2.4-7.2,5.5
			c-1.5,4.1-2.2,8.5-2.2,12.9c0,6.1,6.3,8.8,11.3,6.5c3.9-1.8,5.9-5.9,7.4-9.7c0.7-1.8,1.2-3.6,1.6-5.5c0.3-1.8,0.2-5.1,0.3-6.1
			c-1.7,1.7-3.5,3.5-5.2,5.2c-0.6,0-1.2,0-1.8,0c0.8,0.2,1.6,0.3,2.4,0.3c1.5,0,2.9-0.3,4.2-1c0.7-0.4,1.3-1,1.9-1.6
			c-0.5,0.5,2.6-3.6,1.3-2c-2.4,0.6-4.9,1.3-7.3,1.9c0.1,0,0.3,0.1,0.4,0.1c-1.5-1.1-3-2.3-4.5-3.4c-1-2,1.3,2.3,1.9,2.8
			c-0.7-1.8-1.5-3.5-2.2-5.3c-0.4,4-0.8,8.1-1.4,12.1c-0.5,3.9-1.3,7.8,1.3,11.3c2.4,3.3,6.5,4.9,10.3,2.7c3.2-1.9,5.1-7,2.7-10.3
			c0.1,1.1,0.2,1.2,0.2,0.3c0.2-1.2,0.3-2.4,0.5-3.6c0.3-2.1,0.5-4.2,0.8-6.2c0.5-3.9,1.8-9-1.9-11.9c0.6,1.1,1.3,2.2,1.9,3.3
			c-0.8-3.1-2.8-5.6-6-6.4c-2.5-0.6-5.6-0.1-7.3,1.9c-0.2,0.3-2,3-1.6,2.5c1.8-0.7,3.5-1.5,5.3-2.2c-4.2-0.1-9.7,0.7-10.5,6.9
			c-0.3,2.5,0.3,9.8-2.2,10.9c3.8,2.2,7.5,4.3,11.3,6.5c0-3.2,0.6-5.9,1.7-8.9c-4.8,0-9.6,0-14.5,0c0.1,0.3,0.1,0.7,0.2,1
			c0.6,4,5.6,6.2,9.2,5.2C464.3,191.5,465.9,187.4,465.3,183.4L465.3,183.4z"/>
	</g>
</g>
<g id="XMLID_527_">
	<g id="XMLID_572_">
		<path id="XMLID_576_" class="st1" d="M456.9,181.7c0-0.4,0.1-0.9,0.1-1.3c-3.2,0-6.4,0-9.6,0c0.2,0.8-0.8,3-0.9,3.7
			c-0.4,1.6-0.7,3.1-1.1,4.7c-0.6,2.9-0.7,6.5-1.9,9.1c-2.7,5.8,5.9,10.9,8.6,5c1.9-4.1,2.3-8.7,3.3-13.1c0.9-4,2.5-8,1.7-12.2
			c-1-4.7-8.7-4.8-9.6,0c-0.3,1.3-0.4,2.6-0.5,3.9C446.6,188.2,456.6,188.1,456.9,181.7L456.9,181.7z"/>
	</g>
</g>
<g id="XMLID_534_">
	<g id="XMLID_565_">
		<path id="XMLID_569_" class="st1" d="M505.7,193.2c0.3,1,0.2-0.6,0.1,0.4c0,0.5,0,1.1-0.1,1.6c0,1-0.1,2-0.1,3c3.3,0,6.7,0,10,0
			c0-0.1,0-0.2,0-0.3c0.1-2.6-2.4-5.1-5-5c-2.8,0.1-4.9,2.2-5,5c0,0.1,0,0.2,0,0.3c-0.1,2.6,2.4,5.1,5,5c2.8-0.1,4.9-2.2,5-5
			c0.1-2.5,0.5-5.2-0.3-7.7c-0.8-2.5-3.5-4.3-6.2-3.5C506.7,187.8,504.9,190.5,505.7,193.2L505.7,193.2z"/>
	</g>
</g>
<g id="XMLID_541_">
	<g id="XMLID_558_">
		<path id="XMLID_562_" class="st1" d="M514.9,190.5c0.7-0.9,1.6-2.4,0.6-3.4c-0.6-0.5-2-0.4-2.7-0.4c-1.9-0.2-3.7-0.4-5.6-0.5
			c-2.5-0.2-3,0-3.5,2.4c-0.7,3.9-1.4,7.9-2.1,11.9c-0.1,0.5,0.6,1.2,1,0.6c1.2-1.6,1.7-3.4,2.2-5.4c0.5-2.1,0.3-6.3,2.9-6.8
			c0.6-0.1,0.6-1.1,0-1.2c-1.7-0.3-2.3,0.9-2.9,2.3c-1.2,2.7-1.9,5.5-2.3,8.3c-0.1,0.4,0.2,0.8,0.6,0.8c0.4,0,0.8,0,1.1,0.1
			c-0.2-0.2-0.4-0.4-0.6-0.6c0,0.6,0.1,1.2,0.1,1.8c0,0.8,1.3,0.8,1.2,0c0-0.6-0.1-1.2-0.1-1.8c0-0.4-0.3-0.6-0.6-0.6
			c-0.4,0-0.8,0-1.1-0.1c0.2,0.3,0.4,0.5,0.6,0.8c0.2-1.4,1.7-10.2,3.7-9.8c0-0.4,0-0.8,0-1.2c-2,0.4-2.4,0.4-2.7,2.5
			c-0.5,3.1-0.9,7.4-2.9,10c0.3,0.2,0.7,0.4,1,0.6c0.7-3.9,1-8.1,2.1-11.9c0.3-1,0.1-1.3,1.2-1.6c0.8-0.1,1.8,0.1,2.5,0.2
			c1,0.1,2,0.2,3.1,0.3c0.7,0.1,3.7,0,2.2,1.8C513.5,190.2,514.4,191.1,514.9,190.5L514.9,190.5z"/>
	</g>
</g>
<g id="XMLID_548_">
	<g id="XMLID_551_">
		<path id="XMLID_555_" class="st1" d="M339.6,195.2c-0.1,0.3-0.2,0.5-0.3,0.8c1.2,0.2,2.5,0.3,3.7,0.5c0-1.1-0.1-1.8-0.3-2.9
			c-0.3-1.9-3.1-1.6-3.6,0c-0.3,0.8-0.5,1.7-0.8,2.5c1.2,0.2,2.5,0.3,3.7,0.5c0.2-2.4,0.3-4.8,0.5-7.1c0.1-2.2-3.1-2.5-3.7-0.5
			c-1,3.2-1.9,6.4-2.9,9.6c-0.3,1,0.4,2,1.3,2.3c0.7,0.2,1.1,0.1,1.8,0.1c2.3-0.1,3.4-0.6,5.6,0.4c1.8,0.9,3.3-0.9,2.6-2.6
			c-1.4-3.2-2.6-6.4-3.7-9.7c-0.4-1.1-0.8-2.3-1-3.5c-0.3-1.5,0.2-2.6,0.1-4.1c-1.2,0.2-2.5,0.3-3.7,0.5c0.9,3.4,2,6.6,3.4,9.9
			c0.9,2.2,4.2,0.3,3.2-1.9c-1.2-2.9-2.2-5.9-3-9c-0.5-2-3.7-1.6-3.7,0.5c0,1.2-0.3,2.4-0.2,3.7c0.2,1.6,0.7,3.3,1.2,4.8
			c1.2,3.6,2.6,7.1,4.1,10.6c0.9-0.9,1.7-1.7,2.6-2.6c-1.4-0.7-2.7-1.2-4.3-1.3c-1.1-0.1-3.1,0.7-4,0.4c0.4,0.8,0.9,1.5,1.3,2.3
			c1-3.2,1.9-6.4,2.9-9.6c-1.2-0.2-2.5-0.3-3.7-0.5c-0.2,2.4-0.3,4.8-0.5,7.1c-0.1,2.2,3.1,2.5,3.7,0.5c0.3-0.8,0.5-1.7,0.8-2.5
			c-1.2,0-2.4,0-3.6,0c0.1,0.6,0.1,1.3,0.2,1.9c0,2.2,3,2.5,3.7,0.5c0.1-0.3,0.2-0.5,0.3-0.8C344,193.9,340.4,192.9,339.6,195.2
			L339.6,195.2z"/>
	</g>
</g>
<g id="XMLID_557_">
	<g id="XMLID_543_">
		<path id="XMLID_547_" class="st1" d="M341.2,180.3c-0.3-0.3,0-2.2,0-2.6c0-0.7-1.1-0.9-1.2-0.2c-0.2,1.3-0.4,2.6-0.5,3.9
			c0.4,0,0.8,0,1.2,0c-0.1-1.8,0.6-3.5,0-5.2c-0.2-0.6-1.2-0.6-1.2,0.2c0,2,0,4,0,6c0,0.8,1.3,0.8,1.2,0c0-2,0-4,0-6
			c-0.4,0.1-0.8,0.1-1.2,0.2c0.6,1.6-0.1,3.2,0,4.8c0,0.8,1.2,0.8,1.2,0c0.1-1.2,0.3-2.4,0.5-3.6c-0.4-0.1-0.8-0.1-1.2-0.2
			c0,1.1-0.3,2.5,0.4,3.4C340.8,181.8,341.6,180.9,341.2,180.3L341.2,180.3z"/>
	</g>
</g>
<g id="XMLID_564_">
	<g id="XMLID_536_">
		<path id="XMLID_540_" class="st1" d="M361.3,174.5c-0.1,2,0.3,3.9,1.1,5.7c0.3,0.7,1.4,0.1,1.1-0.6c-0.7-1.6-1-3.3-1-5.1
			C362.5,173.6,361.3,173.6,361.3,174.5L361.3,174.5z"/>
	</g>
</g>
<g id="XMLID_571_">
	<g id="XMLID_529_">
		<path id="XMLID_533_" class="st1" d="M412.1,172.2c-0.6,0.5-1.4,0.6-2.1,0.5c-0.7-0.1-1.2,0.6-1.2,1.2c0,0.7,0.6,1.2,1.2,1.2
			c1.4,0.2,2.8-0.3,3.9-1.2c0.5-0.4,0.4-1.3,0-1.8C413.4,171.7,412.7,171.8,412.1,172.2L412.1,172.2z"/>
	</g>
</g>
<g id="XMLID_578_">
	<g id="XMLID_522_">
		<path id="XMLID_526_" class="st1" d="M411,174.6c1.8,7.3,5.1,14.3,7.9,21.2c0.8-0.3,1.5-0.6,2.3-1c-2.8-4-5.3-8.1-7.5-12.4
			c-0.7-1.4-2.5-0.3-2.3,1c0.7,4.5,1.4,9,2,13.4c0.8-0.3,1.5-0.6,2.3-1c-2-3.2-2-7.1-3.6-10.6c-0.5-1.1-2.4-0.6-2.3,0.6
			c0.4,4.5,0.8,8.9,1.4,13.3c0.8-0.1,1.6-0.2,2.5-0.3c-0.2-1.5-0.5-3-0.7-4.6c-0.2-1.5-2.3-0.9-2.5,0.3c-0.2,1.6-0.2,3.1-0.2,4.7
			c0.1,1.6,2.4,1.6,2.5,0c0.1-2,0.1-3.7-0.2-5.7c-0.2-1.6-2.6-1.6-2.5,0c0.2,2.2,0.6,5.8,3.2,6.2c0.6,0.1,1.1-0.1,1.4-0.6
			c1.6-2.4,1.2-5.6,0.7-8.3c-0.3-1.4-2.5-1.1-2.5,0.3c0,3.2,0.7,5.7,2.3,8.4c0.5,0.9,2,0.8,2.3-0.3c0.8-3.3,0.2-5.9-0.8-9.1
			c-0.5-1.5-2.9-0.9-2.4,0.7c0.8,2.6,1.8,5.2,2.9,7.7c0.6,1.3,2.2,0.4,2.3-0.6c0.2-1.6,0.1-2.9,0-4.4c-0.2-1.6-2.6-1.6-2.5,0
			c0.1,2,0.2,4.1,0.4,6.1c0.4-0.4,0.8-0.8,1.2-1.2c-1.8-0.1-3.4-0.1-5.2,0.1c-1.6,0.2-1.6,2.7,0,2.5c1.8-0.2,3.4-0.3,5.2-0.1
			c0.6,0,1.3-0.6,1.2-1.2c-0.2-2-0.4-4-0.4-6.1c-0.8,0-1.7,0-2.5,0c0.2,1.5,0.2,2.8,0,4.4c0.8-0.2,1.6-0.4,2.3-0.6
			c-1-2.3-1.9-4.7-2.7-7.1c-0.8,0.2-1.6,0.4-2.4,0.7c0.9,2.7,1.5,4.8,0.8,7.8c0.8-0.1,1.5-0.2,2.3-0.3c-1.4-2.3-2-4.4-2-7.2
			c-0.8,0.1-1.6,0.2-2.5,0.3c0.9,3.2,0.8,3.9-0.4,2c-0.8,0-1.7,0-2.5,0c0.2,2,0.3,3.7,0.2,5.7c0.8,0,1.7,0,2.5,0
			c-0.1-1.6,0-3.1,0.2-4.7c-0.8,0.1-1.6,0.2-2.5,0.3c0.2,1.5,0.5,3,0.7,4.6c0.2,1.4,2.6,1.1,2.5-0.3c-0.6-4.4-1-8.9-1.4-13.3
			c-0.8,0.2-1.6,0.4-2.3,0.6c1.6,3.5,1.5,7.3,3.6,10.6c0.8,1.3,2.5,0.4,2.3-1c-0.7-4.5-1.4-9-2-13.4c-0.8,0.3-1.5,0.6-2.3,1
			c2.2,4.3,4.7,8.4,7.5,12.4c0.8,1.1,2.9,0.5,2.3-1c-2.8-7-6.1-13.9-7.9-21.2C413,172.4,410.6,173,411,174.6L411,174.6z"/>
	</g>
</g>
<g id="XMLID_585_">
	<g id="XMLID_516_">
		<path id="XMLID_520_" class="st1" d="M412.4,178.1c-0.1-1-0.2-2.1-0.4-3.1c-0.2-1.5-2.4-1-2.5,0.3c-0.2,3.1,0,7,0.9,10
			c0.3,1.1,2.2,1.3,2.4,0c0.3-1.7,0.4-3.4,0.4-5.1c0-1.3-2.2-1.8-2.5-0.3c-0.1,0.9-0.1,1.7,0,2.6c0.2,1.6,2.6,0.9,2.4-0.7
			c0-0.4,0-0.8,0-1.2c-0.8-0.1-1.6-0.2-2.5-0.3c0.1,1.5,0,2.9-0.3,4.4c0.8,0,1.6,0,2.4,0c-0.8-2.8-1-6.4-0.8-9.3
			c-0.8,0.1-1.6,0.2-2.5,0.3c0.1,0.8,0.2,1.6,0.3,2.4C410,179.7,412.5,179.7,412.4,178.1L412.4,178.1z"/>
	</g>
</g>
<g id="XMLID_592_">
	<g id="XMLID_509_">
		<path id="XMLID_513_" class="st1" d="M436.3,157.6c-0.6,0.2-1.2,0.4-1.8,0.7c-0.6,0.2-1.1,0.8-0.9,1.5c0.2,0.6,0.9,1.1,1.5,0.9
			c0.6-0.2,1.2-0.4,1.8-0.7c0.6-0.2,1.1-0.8,0.9-1.5C437.7,157.8,437,157.3,436.3,157.6L436.3,157.6z"/>
	</g>
</g>
<g id="XMLID_599_">
	<g id="XMLID_502_">
		<path id="XMLID_507_" class="st1" d="M432.2,158.7c-0.5,0-1,0-1.5,0c-1.6,0-1.6,2.5,0,2.5c0.5,0,1,0,1.5,0
			C433.8,161.2,433.8,158.7,432.2,158.7L432.2,158.7z"/>
	</g>
</g>
<g id="XMLID_606_">
	<g id="XMLID_496_">
		<path id="XMLID_500_" class="st1" d="M429.1,158.8c-0.8-0.1-1.5-0.3-2.2-0.6c-0.6-0.3-1.4,0.3-1.5,0.9c-0.2,0.7,0.2,1.3,0.9,1.5
			c0.7,0.3,1.4,0.5,2.2,0.6c0.7,0.1,1.3-0.2,1.5-0.9C430.1,159.7,429.8,158.9,429.1,158.8L429.1,158.8z"/>
	</g>
</g>
<g id="XMLID_613_">
	<g id="XMLID_490_">
		<path id="XMLID_494_" class="st1" d="M425.2,159.2c-0.7-0.1-1.3-0.4-1.8-0.8c-0.6-0.4-1.4-0.1-1.7,0.4c-0.4,0.6-0.1,1.3,0.4,1.7
			c0.7,0.5,1.6,0.9,2.4,1c0.7,0.1,1.3-0.2,1.5-0.9C426.3,160.1,425.9,159.3,425.2,159.2L425.2,159.2z"/>
	</g>
</g>
<g id="XMLID_620_">
	<g id="XMLID_484_">
		<path id="XMLID_488_" class="st1" d="M365.9,116.2c0.6,0.4,0.1,1.5-0.5,1.1c-0.1-0.1-0.2-0.2-0.2-0.4c0-0.5,1.1-0.3,1.2,0
			c0.1,0.2,0.1,0.4,0.2,0.6c0,0,0-0.1,0-0.1c-0.1-0.7-0.5-1.2-1.2-1.2c-0.6,0-1.3,0.6-1.2,1.2c0.1,0.6,0.3,1.2,0.9,1.5
			c0.6,0.3,1.2,0.2,1.8-0.1c1-0.7,1.3-2.2,0.5-3.1c-0.7-0.9-2.1-1-2.9-0.2c-0.8,0.9-0.6,2.3,0.4,2.9
			C366,119.2,367.3,117,365.9,116.2L365.9,116.2z"/>
	</g>
</g>
<g id="XMLID_627_">
	<g id="XMLID_478_">
		<path id="XMLID_482_" class="st1" d="M363.1,119.5c0,0.4-0.2,0.6-0.5,0.7c-0.2,0.1-0.4,0.1-0.6-0.1c0,0,0-0.2,0,0
			c0,0,0.1,0.3,0.1,0.3c-0.1,0,0.2-0.5,0.2-0.5c0.1-0.1,0.3-0.1,0.4,0c0.1,0.1,0,0.1,0.1,0.2c0,0,0-0.1,0-0.1c0,0.1,0,0.1,0,0
			c0.5-1.5-1.9-2.2-2.4-0.7c-0.3,1.1,0.1,2.3,1.1,2.8c1.1,0.6,2.6,0,2.9-1.1c0.3-1-0.2-2.4-1.1-3c-1.1-0.7-2.8,0.1-2.7,1.5
			C360.6,121.1,363.1,121.1,363.1,119.5L363.1,119.5z"/>
	</g>
</g>
<g id="XMLID_634_">
	<g id="XMLID_472_">
		<path id="XMLID_476_" class="st1" d="M358.1,123.1c0.2,0.2,0.3,0.4,0.4,0.6c0-0.1,0-0.1,0,0c0,0.4,0.2,0.2,0.7-0.6
			c0.1,0,0.1,0,0.2,0.1c0,0.1,0,0,0-0.1c0,0.1,0,0.1,0,0c0,0.2,0-0.1,0-0.1c0,0.3,0-0.2,0,0.1c0.1-0.1,0.1-0.1,0,0
			c0.1-0.1,0.1-0.1,0.2-0.2c0.5-0.4,0.4-1.3,0-1.8c-0.5-0.5-1.2-0.4-1.8,0c-1.4,1.2-1.1,3.9,0.8,4.5c1.2,0.4,2.3-0.4,2.4-1.6
			c0.1-1-0.4-2-1.1-2.6c-0.5-0.4-1.3-0.5-1.8,0C357.7,121.8,357.6,122.6,358.1,123.1L358.1,123.1z"/>
	</g>
</g>
<g id="XMLID_641_">
	<g id="XMLID_466_">
		<path id="XMLID_470_" class="st1" d="M355.3,126.2C355.5,126.2,355.5,126.1,355.3,126.2c0-0.1,0-0.1,0.2,0
			c-0.1-0.1,0.1,0.2,0.1,0.2c0,0.1,0,0.4,0.1,0.5c0-0.3,0.1-0.6,0.4-0.7c0,0,0.1,0,0.1,0c-0.1,0-0.2,0-0.1,0c-0.1-0.1-0.2-0.1-0.1,0
			c-0.1-0.1-0.1-0.1-0.1,0c0,0.1,0,0.1,0-0.1c0,0.1,0-0.1,0-0.1c-0.1,0.1,0.1,0,0.1-0.1c0.5-0.4,0.5-1.3,0-1.8
			c-0.5-0.5-1.3-0.4-1.8,0c-0.9,0.7-1.1,2-0.7,3c0.5,1.1,1.7,1.7,2.9,1.5c2.9-0.6,1.2-5.2-1.3-4.9c-0.7,0.1-1.2,0.5-1.2,1.2
			C354.1,125.5,354.7,126.2,355.3,126.2L355.3,126.2z"/>
	</g>
</g>
<g id="XMLID_746_">
	<g id="XMLID_460_">
		<path id="XMLID_464_" class="st1" d="M429.4,135.8c-0.8,0.3-1.6,0.3-2.4,0c-0.8-0.3-1.1,0.9-0.3,1.2c1,0.4,2,0.4,3,0
			C430.5,136.7,430.2,135.5,429.4,135.8L429.4,135.8z"/>
	</g>
</g>
<g id="XMLID_753_">
	<g id="XMLID_453_">
		<path id="XMLID_458_" class="st1" d="M429.8,136.8c-0.8,0.3-2.3,0.5-2.9-0.2c0.1,0.1,0.1,0.3,0.2,0.4c0-0.1,0-0.1,0-0.2
			c-0.1-0.8-1.3-0.8-1.2,0c0.2,1.7,3.1,1.5,4.3,1.1C430.9,137.7,430.6,136.5,429.8,136.8L429.8,136.8z"/>
	</g>
</g>
<g id="XMLID_760_">
	<g id="XMLID_447_">
		<path id="XMLID_451_" class="st1" d="M400.1,82.4c-1.3-1-2.8-1.2-4.3-0.5c-0.7,0.4-0.1,1.4,0.6,1.1c0.9-0.4,2-0.3,2.7,0.3
			C399.9,83.8,400.8,82.9,400.1,82.4L400.1,82.4z"/>
	</g>
</g>
<g id="XMLID_767_">
	<g id="XMLID_441_">
		<path id="XMLID_445_" class="st1" d="M400.4,80.4c-1.1-0.9-2.3-1.2-3.7-1c-0.3,0-0.5,0.3-0.5,0.6c0,0.6,0,1.2,0.4,1.6
			c0.4,0.4,0.9,0.7,1.5,0.5c0.5-0.2,0.8-0.7,0.7-1.3c-0.1-0.7-0.8-0.8-1.4-0.7c-0.8,0.1-0.5,1.3,0.3,1.2c0.1,0,0.2,0,0.3,0.1
			c-0.1-0.1-0.3-0.3-0.4-0.4c0.2,0,0.2,0,0-0.1c-0.1-0.1-0.1-0.2-0.1-0.2c-0.1-0.2,0-0.4,0-0.6c-0.2,0.2-0.3,0.4-0.5,0.6
			c0.9-0.2,1.8,0.1,2.5,0.7C400.1,81.8,401,80.9,400.4,80.4L400.4,80.4z"/>
	</g>
</g>
<g id="XMLID_774_">
	<g id="XMLID_435_">
		<path id="XMLID_439_" class="st1" d="M668.5,16.2c-24.5,10.6-49.1,20.9-73.8,30.9c-1.5,0.6-0.8,3,0.7,2.4
			c24.9-10.1,49.7-20.5,74.4-31.2C671.2,17.8,670,15.6,668.5,16.2L668.5,16.2z"/>
	</g>
</g>
<g id="XMLID_781_">
	<g id="XMLID_429_">
		<path id="XMLID_433_" class="st1" d="M663.9,0c-8.7,4.8-16,11.5-24.8,16.1c-1.4,0.7-0.2,2.9,1.3,2.2c8.8-4.6,16.2-11.3,24.8-16.1
			C666.5,1.3,665.3-0.8,663.9,0L663.9,0z"/>
	</g>
</g>
<g id="XMLID_788_">
	<g id="XMLID_423_">
		<path id="XMLID_427_" class="st1" d="M451.9-12.8c-2,9.5-4.1,18.9-6.2,28.4c-0.4,1.6,2.1,2.2,2.4,0.7c2.1-9.4,4.2-18.9,6.2-28.4
			C454.7-13.7,452.3-14.4,451.9-12.8L451.9-12.8z"/>
	</g>
</g>
<g id="XMLID_795_">
	<g id="XMLID_417_">
		<path id="XMLID_421_" class="st1" d="M488.4-9c-2.4,8.2-5.3,16.2-8.4,24.1c-0.6,1.5,1.8,2.1,2.4,0.7c3.2-7.9,6-15.9,8.4-24.1
			C491.3-9.9,488.8-10.5,488.4-9L488.4-9z"/>
	</g>
</g>
<g id="XMLID_802_">
	<g id="XMLID_411_">
		<path id="XMLID_415_" class="st1" d="M546.9,24.6c-7.7,6.5-15.2,13.2-22.4,20.2c-1.2,1.1,0.6,2.9,1.8,1.8
			c7.2-7,14.7-13.7,22.4-20.2C549.9,25.3,548.1,23.5,546.9,24.6L546.9,24.6z"/>
	</g>
</g>
<g id="XMLID_809_">
	<g id="XMLID_52_">
		<path id="XMLID_125_" class="st1" d="M161.3,130.5c19.4,1.8,38.9,2.5,58.4,2.2c1.6,0,1.6-2.5,0-2.5c-19.5,0.3-39-0.4-58.4-2.2
			C159.7,127.9,159.7,130.4,161.3,130.5L161.3,130.5z"/>
	</g>
</g>
<g id="XMLID_816_">
	<g id="XMLID_399_">
		<path id="XMLID_403_" class="st1" d="M304.5-5c9.6,10.1,19.3,20.2,29.1,30c1.1,1.1,2.9-0.6,1.8-1.8c-9.8-9.9-19.5-19.9-29.1-30
			C305.2-8,303.4-6.2,304.5-5L304.5-5z"/>
	</g>
</g>
<g id="XMLID_42_">
	<g id="XMLID_393_">
		<path id="XMLID_397_" class="st1" d="M348.6,20.8c2.9,5.2,6.4,10.1,10.4,14.6c1.1,1.2,2.8-0.6,1.8-1.8c-3.9-4.4-7.2-9.1-10-14.1
			C350,18.2,347.8,19.4,348.6,20.8L348.6,20.8z"/>
	</g>
</g>
<g id="XMLID_41_">
	<g id="XMLID_390_">
		<path id="XMLID_673_" class="st1" d="M260.7,68.9c-8.6-2.9-17.2-5.8-25.8-8.6c-1.5-0.5-2.2,1.9-0.7,2.4c8.6,2.9,17.2,5.8,25.8,8.6
			C261.5,71.8,262.2,69.4,260.7,68.9L260.7,68.9z"/>
	</g>
</g>
<g id="XMLID_40_">
	<g id="XMLID_381_">
		<path id="XMLID_385_" class="st1" d="M536.5,94.8c4.8-1.2,9.7-2.1,14.7-2.7c1.6-0.2,1.6-2.7,0-2.5c-5.2,0.6-10.3,1.6-15.4,2.8
			C534.3,92.8,534.9,95.2,536.5,94.8L536.5,94.8z"/>
	</g>
</g>
<g id="XMLID_38_">
	<g id="XMLID_369_">
		<path id="XMLID_373_" class="st1" d="M627.6,159.6c-4.9-2-9.7-4.1-14.6-6.1c-1.5-0.6-2.1,1.8-0.7,2.4c4.9,2,9.7,4.1,14.6,6.1
			C628.4,162.6,629.1,160.2,627.6,159.6L627.6,159.6z"/>
	</g>
</g>
<g id="XMLID_37_">
	<g id="XMLID_163_">
		<path id="XMLID_203_" class="st1" d="M552-4.4c0,0,0-0.1,0-0.1c-0.3,0.5-0.6,1-0.9,1.5c0.1,0,0.1,0,0.2-0.1
			c-0.5-0.4-1.1-0.8-1.6-1.2c-0.2,1.7-2.8,4.5-3.7,5.9c-1.1,1.8-2.2,3.5-3.4,5.3c-2.4,3.8-4.9,7.6-7.3,11.3
			c-0.9,1.4,1.3,2.6,2.2,1.3c2.9-4.5,5.9-9.1,8.8-13.6c1.8-2.8,5.6-6.9,6-10.2c0.1-0.8-0.9-1.4-1.6-1.2c-0.1,0-0.1,0-0.2,0.1
			c-0.6,0.2-1.1,0.9-0.9,1.5c0,0,0,0.1,0,0.1C550.1-2.2,552.5-2.8,552-4.4L552-4.4z"/>
	</g>
</g>
<g id="XMLID_36_">
	<g id="XMLID_356_">
		<path id="XMLID_745_" class="st1" d="M656.4,71.7c-3.4,0.7-6.6,1.7-9.7,3.1c-1.5,0.7-0.2,2.8,1.3,2.2c2.9-1.3,5.9-2.3,9.1-2.9
			C658.7,73.8,658,71.4,656.4,71.7L656.4,71.7z"/>
	</g>
</g>
<g id="XMLID_35_">
	<g id="XMLID_349_">
		<path id="XMLID_353_" class="st1" d="M559,61.1c-3.4,1.5-6.7,3.3-9.9,5.3c-1.4,0.9-0.1,3,1.3,2.2c3.2-2,6.5-3.8,9.9-5.3
			C561.7,62.6,560.4,60.4,559,61.1L559,61.1z"/>
	</g>
</g>
<g id="XMLID_1024_">
	<g id="XMLID_301_">
		<path id="XMLID_305_" class="st1" d="M222.8,24.1c-6.3-5.6-12.8-11-19.5-16c-1.3-1-2.5,1.2-1.3,2.2c6.6,4.9,12.9,10.2,19,15.7
			C222.2,26.9,224,25.2,222.8,24.1L222.8,24.1z"/>
	</g>
</g>
<g id="XMLID_1032_">
	<g id="XMLID_297_">
		<path id="XMLID_633_" class="st1" d="M190.8,89.2c-4.5-1.1-9-2-13.6-2.6c-1.6-0.2-2.3,2.2-0.7,2.4c4.6,0.6,9.1,1.5,13.6,2.6
			C191.7,92,192.4,89.6,190.8,89.2L190.8,89.2z"/>
	</g>
</g>
<g id="XMLID_1039_">
	<g id="XMLID_289_">
		<path id="XMLID_293_" class="st1" d="M639.7,132.2c6.3,0.6,12.6,1.6,18.8,3c1.6,0.4,2.2-2.1,0.7-2.4c-6.4-1.5-12.9-2.5-19.5-3.1
			C638.1,129.6,638.1,132.1,639.7,132.2L639.7,132.2z"/>
	</g>
</g>
<g id="XMLID_1046_">
	<g id="XMLID_284_">
		<path id="XMLID_318_" class="st1" d="M589.2,174.4c-2.1-0.2-4.2-0.3-6.3-0.5c-1.6-0.1-1.6,2.4,0,2.5c2.1,0.2,4.2,0.3,6.3,0.5
			C590.8,177,590.8,174.5,589.2,174.4L589.2,174.4z"/>
	</g>
</g>
<g id="XMLID_1060_">
	<g id="XMLID_271_">
		<path id="XMLID_275_" class="st1" d="M614.1,61.5c-1,1.1-2,2.2-3,3.3c-1.1,1.2,0.7,3,1.8,1.8c1-1.1,2-2.2,3-3.3
			C617,62,615.2,60.3,614.1,61.5L614.1,61.5z"/>
	</g>
</g>
<g id="XMLID_1067_">
	<g id="XMLID_269_">
		<path id="XMLID_386_" class="st1" d="M557.4,107.1c-2.1,0.4-4.1,0.7-6.2,1.1c-1.6,0.3-0.9,2.7,0.7,2.4c2.1-0.4,4.1-0.7,6.2-1.1
			C559.7,109.3,559,106.8,557.4,107.1L557.4,107.1z"/>
	</g>
</g>
<g id="XMLID_1102_">
	<g id="XMLID_234_">
		<path id="XMLID_238_" class="st1" d="M424.4,21.2c-0.7,2-1.2,4-1.4,6.1c-0.2,1.6,2.3,1.6,2.5,0c0.2-1.9,0.7-3.7,1.3-5.5
			C427.3,20.4,424.9,19.7,424.4,21.2L424.4,21.2z"/>
	</g>
</g>
<g id="XMLID_1116_">
	<g id="XMLID_222_">
		<path id="XMLID_226_" class="st1" d="M502.9,57.3c-1.1,2.1-2.4,4.2-3.9,6.1c-1,1.3,1.2,2.5,2.2,1.3c1.5-1.9,2.7-4,3.9-6.1
			C505.8,57.1,503.7,55.8,502.9,57.3L502.9,57.3z"/>
	</g>
</g>
<g id="XMLID_1131_">
	<g id="XMLID_267_">
		<path id="XMLID_591_" class="st1" d="M573.1,128.9c-5.3,0.2-10.7,0.4-16,0.5c-1.6,0.1-1.6,2.6,0,2.5c5.3-0.2,10.7-0.4,16-0.5
			C574.7,131.4,574.7,128.9,573.1,128.9L573.1,128.9z"/>
	</g>
</g>
<g id="XMLID_1145_">
	<g id="XMLID_198_">
		<path id="XMLID_202_" class="st1" d="M254.8,12c1.9,2.1,3.9,4.2,5.8,6.3c1.1,1.2,2.9-0.6,1.8-1.8c-1.9-2.1-3.9-4.2-5.8-6.3
			C255.5,9,253.7,10.8,254.8,12L254.8,12z"/>
	</g>
</g>
<g id="XMLID_1152_">
	<g id="XMLID_192_">
		<path id="XMLID_196_" class="st1" d="M305,40.2c1,1.3,2,2.6,3,3.9c0.4,0.5,1.3,0.4,1.8,0c0.5-0.5,0.4-1.2,0-1.8
			c-1-1.3-2-2.6-3-3.9c-0.4-0.5-1.3-0.4-1.8,0C304.5,38.9,304.6,39.7,305,40.2L305,40.2z"/>
	</g>
</g>
<g id="XMLID_1159_">
	<g id="XMLID_186_">
		<path id="XMLID_190_" class="st1" d="M284.3,80.1c2.1,1.2,4.2,2.4,6.3,3.6c1.4,0.8,2.7-1.4,1.3-2.2c-2.1-1.2-4.2-2.4-6.3-3.6
			C284.1,77.1,282.9,79.3,284.3,80.1L284.3,80.1z"/>
	</g>
</g>
<g id="XMLID_1166_">
	<g id="XMLID_180_">
		<path id="XMLID_184_" class="st1" d="M273.6,95.9c-4.8-1.4-9.7-2.6-14.6-3.6c-1.6-0.3-2.2,2.1-0.7,2.4c4.9,1,9.8,2.2,14.6,3.6
			C274.4,98.8,275.1,96.4,273.6,95.9L273.6,95.9z"/>
	</g>
</g>
<g id="XMLID_1173_">
	<g id="XMLID_174_">
		<path id="XMLID_178_" class="st1" d="M263.5,136.7c-3-0.7-6.1-1.3-9.1-2c-1.6-0.3-2.2,2.1-0.7,2.4c3,0.7,6.1,1.3,9.1,2
			C264.4,139.5,265.1,137.1,263.5,136.7L263.5,136.7z"/>
	</g>
</g>
<g id="XMLID_1180_">
	<g id="XMLID_168_">
		<path id="XMLID_172_" class="st1" d="M255.5,42.5c-4.1-1.4-8.2-2.9-12.2-4.7c-1.5-0.6-2.7,1.5-1.3,2.2c4.2,1.9,8.4,3.5,12.8,4.9
			C256.4,45.4,257,43,255.5,42.5L255.5,42.5z"/>
	</g>
</g>
<g id="XMLID_1187_">
	<g id="XMLID_165_">
		<path id="XMLID_389_" class="st1" d="M279.6,120.3c-1.7,0.3-3.5,0.3-5.2,0.2c-1.6-0.1-1.6,2.4,0,2.5c2,0.2,3.9,0,5.9-0.3
			C281.8,122.4,281.1,120,279.6,120.3L279.6,120.3z"/>
	</g>
</g>
<g id="XMLID_1194_">
	<g id="XMLID_151_">
		<path id="XMLID_155_" class="st1" d="M276,75.8c-1.7-0.6-3.2-1.4-4.7-2.3c-1.4-0.9-2.6,1.3-1.3,2.2c1.7,1.1,3.4,1.9,5.3,2.6
			C276.9,78.8,277.6,76.4,276,75.8L276,75.8z"/>
	</g>
</g>
<g id="XMLID_1223_">
	<g id="XMLID_121_">
		<path id="XMLID_1640_" class="st1" d="M548.8,147.3c3.9,0.2,7.6,1.1,11.3,2.5c1.5,0.6,2.1-1.8,0.7-2.4c-3.8-1.5-7.8-2.4-11.9-2.6
			C547.1,144.7,547.2,147.2,548.8,147.3L548.8,147.3z"/>
	</g>
</g>
<g id="XMLID_1230_">
	<g id="XMLID_109_">
		<path id="XMLID_119_" class="st1" d="M544.2,171c3.3,0.9,6.4,2.3,9.3,4.3c1.3,0.9,2.6-1.3,1.3-2.2c-3-2-6.3-3.6-9.9-4.5
			C543.3,168.2,542.7,170.6,544.2,171L544.2,171z"/>
	</g>
</g>
<g id="XMLID_1237_">
	<g id="XMLID_81_">
		<path id="XMLID_93_" class="st1" d="M556.3,187c6,3.2,11.9,6.5,17.9,9.7c1.4,0.8,2.7-1.4,1.3-2.2c-6-3.2-11.9-6.5-17.9-9.7
			C556.2,184,554.9,186.2,556.3,187L556.3,187z"/>
	</g>
</g>
<g id="XMLID_1244_">
	<g id="XMLID_62_">
		<path id="XMLID_1664_" class="st1" d="M284.3,190.7c-3.7,0.3-7.4,0.7-11.1,1c-2.3,0.2-4.3,0.5-6.1,2.1c-1.2,1.1,0.6,2.9,1.8,1.8
			c1.9-1.7,5.4-1.5,7.8-1.7c2.5-0.2,5.1-0.5,7.6-0.7C285.9,193.1,285.9,190.6,284.3,190.7L284.3,190.7z"/>
	</g>
</g>
<g id="XMLID_7_">
	<g id="XMLID_206_">
		<path id="XMLID_213_" class="st1" d="M670.9,123.1c17.8,3.6,35.7,6.3,53.8,8.3c3.2,0.4,3.2-4.6,0-5c-17.6-2-35.1-4.7-52.5-8.2
			C669.1,117.7,667.8,122.5,670.9,123.1L670.9,123.1z"/>
	</g>
</g>
<g id="XMLID_8_">
	<g id="XMLID_218_">
		<path id="XMLID_228_" class="st1" d="M619.1,167.4c-1.3-0.3-2.5-0.7-3.8-1c-3.1-0.8-4.4,3.8-1.3,4.8c25.2,8.1,50.4,16.2,75.6,24.3
			c3.1,1,4.4-3.8,1.3-4.8c-25.2-8.1-50.4-16.2-75.6-24.3c-0.4,1.6-0.9,3.2-1.3,4.8c1.3,0.3,2.5,0.7,3.8,1
			C620.8,173,622.2,168.2,619.1,167.4L619.1,167.4z"/>
	</g>
</g>
<g id="XMLID_31_">
	<g id="XMLID_231_">
		<path id="XMLID_241_" class="st1" d="M714,73.2c10.6-1.2,21.3-2.1,32-2.7c3.2-0.2,3.2-5.2,0-5c-10.7,0.6-21.4,1.5-32,2.7
			C710.8,68.5,710.8,73.5,714,73.2L714,73.2z"/>
	</g>
</g>
<g id="XMLID_32_">
	<g id="XMLID_244_">
		<path id="XMLID_249_" class="st1" d="M727,15.5c5.1-1.5,10.1-3.2,15-5.2c2.9-1.2,1.7-6-1.3-4.8c-4.9,2-9.9,3.7-15,5.2
			C722.6,11.6,723.9,16.4,727,15.5L727,15.5z"/>
	</g>
</g>
<g id="XMLID_33_">
	<g id="XMLID_253_">
		<path id="XMLID_257_" class="st1" d="M709.3,46.9c5.2,0.5,10.4,0.7,15.7,0.4c3.2-0.2,3.2-5.2,0-5c-5.2,0.3-10.4,0.1-15.7-0.4
			C706.1,41.6,706.2,46.6,709.3,46.9L709.3,46.9z"/>
	</g>
</g>
<g id="XMLID_34_">
	<g id="XMLID_260_">
		<path id="XMLID_266_" class="st1" d="M158.3,59.9c-19.4-5.6-39.1-10-59-13.5c-3.1-0.5-4.5,4.3-1.3,4.8c19.9,3.4,39.6,7.9,59,13.5
			C160.1,65.6,161.4,60.8,158.3,59.9L158.3,59.9z"/>
	</g>
</g>
<g id="XMLID_51_">
	<g id="XMLID_277_">
		<path id="XMLID_281_" class="st1" d="M160.7,105.2c-6-0.2-11.9-1.1-17.6-2.7c-3.1-0.9-4.4,4-1.3,4.8c6.2,1.7,12.5,2.7,19,2.9
			C163.9,110.3,163.9,105.3,160.7,105.2L160.7,105.2z"/>
	</g>
</g>
<g id="XMLID_146_">
	<g id="XMLID_294_">
		<path id="XMLID_310_" class="st1" d="M175,153.4c-4.9,0.1-9.8,0.2-14.7,0.4c-3.2,0.1-3.2,5.1,0,5c4.9-0.1,9.8-0.2,14.7-0.4
			C178.2,158.4,178.2,153.4,175,153.4L175,153.4z"/>
	</g>
</g>
<g id="XMLID_204_">
	<g id="XMLID_314_">
		<path id="XMLID_319_" class="st1" d="M170.3,164.2c-26.8,1.8-53.5,4.7-80,8.7c-3.2,0.5-1.8,5.3,1.3,4.8
			c26.1-3.9,52.3-6.7,78.7-8.5C173.5,169,173.6,164,170.3,164.2L170.3,164.2z"/>
	</g>
</g>
<g id="XMLID_214_">
	<g id="XMLID_322_">
		<path id="XMLID_326_" class="st1" d="M190.3,22.8c-14.5-6.4-29.3-12.1-44.3-17.1c-3.1-1-4.4,3.8-1.3,4.8
			c14.6,4.8,29,10.3,43.1,16.6C190.7,28.4,193.2,24.1,190.3,22.8L190.3,22.8z"/>
	</g>
</g>
<g id="XMLID_229_">
	<g id="XMLID_329_">
		<path id="XMLID_333_" class="st1" d="M105.7,92.9c-21.2-2.8-42.6-4.5-64-5.2c-3.2-0.1-3.2,4.9,0,5c21.4,0.7,42.8,2.4,64,5.2
			C108.8,98.3,108.8,93.3,105.7,92.9L105.7,92.9z"/>
	</g>
</g>
<g id="XMLID_242_">
	<g id="XMLID_337_">
		<path id="XMLID_341_" class="st1" d="M129.7,83.9c-10.9-3.9-22.2-6.7-33.7-8.3c-3.1-0.4-4.5,4.4-1.3,4.8
			c11.5,1.6,22.7,4.4,33.7,8.3C131.4,89.8,132.7,85,129.7,83.9L129.7,83.9z"/>
	</g>
</g>
<g id="XMLID_250_">
	<g id="XMLID_345_">
		<path id="XMLID_363_" class="st1" d="M102,136.1c-11.2,0.6-22.4,0.8-33.7,0.7c-3.2,0-3.2,5,0,5c11.2,0.1,22.5-0.1,33.7-0.7
			C105.2,141,105.2,136,102,136.1L102,136.1z"/>
	</g>
</g>
<g id="XMLID_258_">
	<g id="XMLID_366_">
		<path id="XMLID_377_" class="st1" d="M735,116.6c21.6,1,43,3.2,64.3,6.9c3.1,0.5,4.5-4.3,1.3-4.8c-21.7-3.7-43.6-6-65.7-7
			C731.8,111.5,731.8,116.5,735,116.6L735,116.6z"/>
	</g>
</g>
<g id="XMLID_270_">
	<g id="XMLID_405_">
		<path id="XMLID_409_" class="st1" d="M710,162.5c12.9,4.4,25.8,8.9,38.7,13.3c3.1,1,4.4-3.8,1.3-4.8c-12.9-4.4-25.8-8.9-38.7-13.3
			C708.3,156.6,706.9,161.5,710,162.5L710,162.5z"/>
	</g>
</g>
<g id="XMLID_282_">
	<g id="XMLID_662_">
		<path id="XMLID_679_" class="st1" d="M745.7,30.7c14-3.7,28.1-6.7,42.4-8.9c3.2-0.5,1.8-5.3-1.3-4.8c-14.3,2.3-28.4,5.2-42.4,8.9
			C741.3,26.7,742.6,31.5,745.7,30.7L745.7,30.7z"/>
	</g>
</g>
<g id="XMLID_311_">
	<g id="XMLID_682_">
		<path id="XMLID_733_" class="st1" d="M769,78.7c-14.9,0.1-29.8,0.8-44.7,2.3c-1.6,0.2-1.6,2.7,0,2.5c14.9-1.4,29.8-2.2,44.7-2.3
			C770.6,81.2,770.6,78.7,769,78.7L769,78.7z"/>
	</g>
</g>
<g id="XMLID_320_">
	<g id="XMLID_736_">
		<path id="XMLID_749_" class="st1" d="M716.6,27.8c-9.2,2.8-18.4,5.8-27.5,9c-1.5,0.5-0.9,2.9,0.7,2.4c9.1-3.2,18.3-6.2,27.5-9
			C718.8,29.8,718.1,27.4,716.6,27.8L716.6,27.8z"/>
	</g>
</g>
<g id="XMLID_327_">
	<g id="XMLID_1017_">
		<path id="XMLID_1088_" class="st1" d="M714.4,2.6c-4,2.4-8.1,4.6-12.4,6.6c-1.5,0.7-0.2,2.8,1.3,2.2c4.2-2,8.3-4.2,12.4-6.6
			C717,3.9,715.8,1.8,714.4,2.6L714.4,2.6z"/>
	</g>
</g>
<g id="XMLID_334_">
	<g id="XMLID_1123_">
		<path id="XMLID_1215_" class="st1" d="M806.7,98.8c-7.3,0-14.7,0-22,0c-1.6,0-1.6,2.5,0,2.5c7.3,0,14.7,0,22,0
			C808.3,101.2,808.3,98.8,806.7,98.8L806.7,98.8z"/>
	</g>
</g>
<g id="XMLID_343_">
	<g id="XMLID_1672_">
		<path id="XMLID_1676_" class="st1" d="M810,153.5c-8.6-1-17.1-2.2-25.7-3.7c-1.6-0.3-2.3,2.1-0.7,2.4c8.7,1.5,17.5,2.7,26.3,3.7
			C811.6,156.1,811.6,153.6,810,153.5L810,153.5z"/>
	</g>
</g>
<g id="XMLID_364_">
	<g id="XMLID_1679_">
		<path id="XMLID_1683_" class="st1" d="M741.7,154.1c-3.4-0.2-6.7-0.9-10-2c-1.5-0.5-2.2,1.9-0.7,2.4c3.5,1.2,7,1.8,10.7,2
			C743.3,156.7,743.3,154.2,741.7,154.1L741.7,154.1z"/>
	</g>
</g>
<g id="XMLID_378_">
	<g id="XMLID_1686_">
		<path id="XMLID_1690_" class="st1" d="M709.3,105.4c-3.1,0-6.2,0-9.3,0c-1.6,0-1.6,2.5,0,2.5c3.1,0,6.2,0,9.3,0
			C710.9,107.9,710.9,105.4,709.3,105.4L709.3,105.4z"/>
	</g>
</g>
<g id="XMLID_626_">
	<g id="XMLID_1693_">
		<path id="XMLID_1697_" class="st1" d="M714.7,177c-9.6-3-19.4-5.1-29.4-6.5c-1.6-0.2-2.3,2.2-0.7,2.4c10,1.4,19.8,3.5,29.4,6.5
			C715.6,179.9,716.2,177.5,714.7,177L714.7,177z"/>
	</g>
</g>
<g id="XMLID_680_">
	<g id="XMLID_1700_">
		<path id="XMLID_1705_" class="st1" d="M838,188.3c-9-4-18.1-7.7-27.3-11.1c-1.5-0.6-2.2,1.9-0.7,2.4c9,3.3,17.9,6.9,26.7,10.8
			C838.2,191.1,839.4,188.9,838,188.3L838,188.3z"/>
	</g>
</g>
<g id="XMLID_734_">
	<g id="XMLID_1708_">
		<path id="XMLID_1712_" class="st1" d="M839,45.7c-6.2,0.2-12.4,0.4-18.7,0.6c-1.6,0.1-1.6,2.6,0,2.5c6.2-0.2,12.4-0.4,18.7-0.6
			C840.6,48.2,840.6,45.7,839,45.7L839,45.7z"/>
	</g>
</g>
<g id="XMLID_750_">
	<g id="XMLID_1715_">
		<path id="XMLID_1719_" class="st1" d="M794.7,56.4c-1.6,0.1-3.1,0.2-4.7,0.3c-1.6,0.1-1.6,2.6,0,2.5c1.6-0.1,3.1-0.2,4.7-0.3
			C796.3,58.8,796.3,56.3,794.7,56.4L794.7,56.4z"/>
	</g>
</g>
<g id="XMLID_1095_">
	<g id="XMLID_1722_">
		<path id="XMLID_1726_" class="st1" d="M820,87.4c-1.3,0-2.7,0-4,0c-1.6,0-1.6,2.5,0,2.5c1.3,0,2.7,0,4,0
			C821.6,89.9,821.6,87.4,820,87.4L820,87.4z"/>
	</g>
</g>
<g id="XMLID_1670_">
	<g id="XMLID_1729_">
		<path id="XMLID_1733_" class="st1" d="M122.6,30.9c-12.3-4.5-25-7.4-38-8.6c-1.6-0.2-1.6,2.3,0,2.5c12.8,1.2,25.2,4.1,37.3,8.5
			C123.5,33.9,124.1,31.5,122.6,30.9L122.6,30.9z"/>
	</g>
</g>
<g id="XMLID_1677_">
	<g id="XMLID_1736_">
		<path id="XMLID_1740_" class="st1" d="M148.6,40.3c-1.8-0.9-3.6-1.8-5.3-2.7c-1.4-0.7-2.7,1.4-1.3,2.2c1.8,0.9,3.6,1.8,5.3,2.7
			C148.8,43.2,150.1,41,148.6,40.3L148.6,40.3z"/>
	</g>
</g>
<g id="XMLID_1684_">
	<g id="XMLID_1743_">
		<path id="XMLID_1747_" class="st1" d="M103,68.5c-6.3-1.6-12.7-3.2-19-4.7c-1.6-0.4-2.2,2-0.7,2.4c6.3,1.6,12.7,3.2,19,4.7
			C103.9,71.3,104.6,68.9,103,68.5L103,68.5z"/>
	</g>
</g>
<g id="XMLID_1691_">
	<g id="XMLID_1751_">
		<path id="XMLID_1755_" class="st1" d="M54.4,54.6c-10.6-2.9-21.2-5.8-31.7-8.7c-1.6-0.4-2.2,2-0.7,2.4c10.6,2.9,21.2,5.8,31.7,8.7
			C55.3,57.4,55.9,55,54.4,54.6L54.4,54.6z"/>
	</g>
</g>
<g id="XMLID_1698_">
	<g id="XMLID_1759_">
		<path id="XMLID_1872_" class="st1" d="M63.4,7.7c-2.3-0.7-4.7-1.5-7-2.2c-1.5-0.5-2.2,1.9-0.7,2.4c2.3,0.7,4.7,1.5,7,2.2
			C64.2,10.6,64.9,8.2,63.4,7.7L63.4,7.7z"/>
	</g>
</g>
<g id="XMLID_1706_">
	<g id="XMLID_1875_">
		<path id="XMLID_1879_" class="st1" d="M71.7,82.5c-2.6-0.1-5.1-0.2-7.7-0.4c-1.6-0.1-1.6,2.4,0,2.5c2.6,0.1,5.1,0.2,7.7,0.4
			C73.3,85,73.3,82.5,71.7,82.5L71.7,82.5z"/>
	</g>
</g>
<g id="XMLID_1713_">
	<g id="XMLID_1882_">
		<path id="XMLID_1886_" class="st1" d="M137.7,117.8c-8.8,0.3-17.6,0.4-26.3,0.3c-1.6,0-1.6,2.5,0,2.5c8.8,0.1,17.6,0.1,26.3-0.3
			C139.3,120.2,139.3,117.7,137.7,117.8L137.7,117.8z"/>
	</g>
</g>
<g id="XMLID_1720_">
	<g id="XMLID_1889_">
		<path id="XMLID_1893_" class="st1" d="M80,162.4c-12.4-0.1-24.6,1.3-36.7,4.3c-1.6,0.4-0.9,2.8,0.7,2.4c11.8-2.9,23.8-4.4,36-4.2
			C81.6,164.9,81.6,162.4,80,162.4L80,162.4z"/>
	</g>
</g>
<g id="XMLID_1727_">
	<g id="XMLID_1897_">
		<path id="XMLID_1901_" class="st1" d="M92.7,132.7c-2.6-0.5-5.3-0.9-8-0.9c-1.6,0-1.6,2.5,0,2.5c2.5,0.1,4.9,0.4,7.3,0.9
			C93.6,135.5,94.3,133.1,92.7,132.7L92.7,132.7z"/>
	</g>
</g>
<g id="XMLID_1734_">
	<g id="XMLID_1904_">
		<path id="XMLID_1908_" class="st1" d="M131.6,183.6c-11.4,3.1-22.8,5.9-34.3,8.5c-1.6,0.4-0.9,2.8,0.7,2.4
			c11.5-2.6,22.9-5.4,34.3-8.5C133.8,185.6,133.2,183.2,131.6,183.6L131.6,183.6z"/>
	</g>
</g>
<g id="XMLID_1741_">
	<g id="XMLID_1911_">
		<path id="XMLID_1915_" class="st1" d="M134.3,185.5c-2.3,0.4-4.6,1.3-6.6,2.5c-1.4,0.8-0.1,3,1.3,2.2c1.9-1.1,3.9-1.8,6-2.2
			C136.6,187.6,135.9,185.2,134.3,185.5L134.3,185.5z"/>
	</g>
</g>
<g id="XMLID_1748_">
	<g id="XMLID_1918_">
		<path id="XMLID_1922_" class="st1" d="M188,177.9c-2.7,1.5-5.6,2.6-8.7,3.2c-1.6,0.3-0.9,2.7,0.7,2.4c3.3-0.6,6.4-1.8,9.3-3.4
			C190.7,179.3,189.5,177.2,188,177.9L188,177.9z"/>
	</g>
</g>
<g id="XMLID_1757_">
	<g id="XMLID_1925_">
		<path id="XMLID_1929_" class="st1" d="M64.7,183.7c-3.9,0.3-7.6,1.1-11.3,2.4c-1.5,0.5-0.9,2.9,0.7,2.4c3.5-1.2,7-2,10.7-2.3
			C66.3,186.1,66.3,183.6,64.7,183.7L64.7,183.7z"/>
	</g>
</g>
</svg>
