<?xml version="1.0" encoding="utf-8"?>
<!-- Generator: Adobe Illustrator 19.0.0, SVG Export Plug-In . SVG Version: 6.00 Build 0)  -->
<svg version="1.1" id="Layer_1" xmlns="http://www.w3.org/2000/svg" xmlns:xlink="http://www.w3.org/1999/xlink" x="0px" y="0px"
	 viewBox="-46 82.9 109.5 131" style="enable-background:new -46 82.9 109.5 131;" xml:space="preserve">
<style type="text/css">
	.st0{fill:#ED6D24;stroke:#F68850;stroke-width:0.5;stroke-miterlimit:10;}
	.st1{fill:#F9A986;}
	.st2{fill:#EC6D25;}
	.st3{fill:#94B0DA;}
</style>
<ellipse id="XMLID_1_" class="st0" cx="10.1" cy="131.4" rx="22.5" ry="22.1"/>
<g id="XMLID_2_">
	<g id="XMLID_299_">
		<path id="XMLID_303_" class="st1" d="M0.2,128.1c0.1,1.2,0.2,2.5,0.3,3.7c0.7-0.3,1.4-0.6,2.1-0.9c-0.7-0.9-0.5-2.1,0.1-3
			c-0.8-0.1-1.5-0.2-2.3-0.3c0.2,0.7,0.3,1.3,0.3,2.1c-0.1,1.6,2.4,1.6,2.5,0c0.1-0.9-0.1-1.8-0.4-2.7c-0.4-1.1-1.6-1.2-2.3-0.3
			c-1.3,1.9-1.1,4.3,0.3,6c0.7,0.8,2.2,0.2,2.1-0.9c-0.1-1.2-0.2-2.5-0.3-3.7C2.5,126.5,0,126.5,0.2,128.1L0.2,128.1z"/>
	</g>
</g>
<g id="XMLID_3_">
	<g id="XMLID_277_">
		<path id="XMLID_297_" class="st1" d="M14.3,130.4c0-0.5,0-1.8,0.6-2c0.5-0.2,0.8,0.6,0.9,1c0.3,0.6,0.8,1.1,1.5,0.9
			c0.6-0.2,1.1-0.9,0.9-1.5c-0.7-1.6-1.8-3.3-3.8-2.8s-2.6,2.7-2.6,4.5C11.8,132,14.3,132,14.3,130.4L14.3,130.4z"/>
	</g>
</g>
<g id="XMLID_4_">
	<g id="XMLID_270_">
		<path id="XMLID_275_" class="st1" d="M1.5,141.3c1.2,3.5,4.4,6,8.2,5.7c4.2-0.4,6.4-3.7,7.6-7.4c0.5-1.5-1.9-2.2-2.4-0.7
			c-0.8,2.5-2,4.9-4.7,5.5c-2.8,0.6-5.3-1.2-6.2-3.8C3.4,139.2,0.9,139.8,1.5,141.3L1.5,141.3z"/>
	</g>
</g>
<g id="XMLID_5_">
	<g id="XMLID_263_">
		<path id="XMLID_268_" class="st1" d="M13.7,103.7c-2.2-3.6-6.2-5.7-10.4-4.6c-1.9,0.5-3.6,1.8-4.8,3.4c-0.4,0.5-0.7,1.1-1,1.7
			c-1.3,2.1-0.4,1.2-2.7,2c-4,1.3-7.4,3.2-8.2,7.7c-0.4,2.1,0.5,4.2,0,6.1c-0.7,2.6-1.9,4-1.5,7c0.2,1.6,2.7,1.6,2.5,0
			c-0.3-2.5,0.1-4.4,1.9-6.5c0.3-0.3,0.5-0.8,0.3-1.2c-1.9-4.7,0.4-9.4,5.4-10.5c1-0.2,2.3,0,3.2-0.7c0.8-0.6,0.7-1.3,1.1-2
			c1.5-2.6,2.7-4.7,6.2-4.6c2.6,0,4.6,1.1,6,3.4C12.4,106.3,14.6,105,13.7,103.7L13.7,103.7z"/>
	</g>
</g>
<g id="XMLID_6_">
	<g id="XMLID_247_">
		<path id="XMLID_259_" class="st1" d="M10.2,110.2c-2.3,5.5-8.5,5.5-13.4,5.4c-0.7,0-1.2,0.6-1.2,1.2c-0.1,5.5-8.7,6.7-9.9,12.2
			c0.8,0,1.6,0,2.4,0c-0.7-3.9,0.5-7.5,2.6-10.8c1.7-2.6,4.3-6.8,7.6-7.4c1.5-0.3,1-2.4-0.3-2.5c-4.9-0.3-8.9,2.7-10,7.5
			c-0.3,1.1,1.2,2.2,2.1,1.2c1.2-1.4,2.3-2.9,3.4-4.4c-0.8-0.1-1.5-0.2-2.3-0.3c0.5,2.7,0.2,4.9-0.7,7.5c0.8,0.2,1.6,0.4,2.4,0.7
			c0.6-1.9,1.4-3.5,2.4-5.2c-0.8-0.2-1.6-0.4-2.3-0.6c0.4,3.6-2.9,5.8-4.6,8.6c-0.8,1.2,1,2.5,2,1.5c2.2-2,3.4-4.1,4.2-7
			c0.4-1.5-1.5-2-2.3-1c-1.1,1.5-1.9,2.8-2.6,4.5c0.8,0.2,1.6,0.4,2.4,0.7c0.8-2.3,1.7-4.5,2.9-6.6c0.8-1.4-1.3-2.6-2.2-1.3
			c-0.8,1.4-1.7,2.8-2.5,4.2c0.7,0.4,1.4,0.8,2.2,1.3c0.7-1.1,1.3-2.3,2.2-3.3c0.5-0.9,1.2-1.5,2.2-1.8c1.8-0.5,2-1.4,0.5-2.9
			c-0.4-1.4-2.3-1-2.5,0.3c-0.4,4.7,5.2,6.2,7.3,2.1c0.5-1-0.3-2-1.4-1.8c-1.6,0.3-1.5,0.3-2.6,1.5c-0.6,0.7-0.4,1.8,0.6,2.1
			c2.1,0.7,3.7,0,4.9-1.8c0.5-0.8-0.2-1.8-1.1-1.9c-1.9-0.1-1.5-0.1-3.4,0.4c-1.1,0.3-1.2,1.7-0.3,2.3c2,1.4,4.4,1.1,6.3-0.5
			c2.9-2.5,2.9-6.6,2.7-10.1c-0.1-1-1.4-1.7-2.1-0.9c-1.7,1.9-4.2,5.3-2.6,8c1.1,1.8,3,1.8,4.6,0.8c2.8-1.8,5.9-11.3-0.2-9.9
			c-4.5,1-6.7,11.4-0.7,11.1c5-0.3,5.4-9.2,1.2-10.9c-4.8-2-10,5.6-7.1,9.6c4.1,5.6,9.6-4.1,7.7-8.2c-2.8-6-10.5,0.2-10.5,4.8
			c-0.1,4.8,5.9,7.1,8.2,2.4c2.9-5.9-5.1-12.1-8-5.2c-2.7,6.5,5.5,11.3,9.7,5.8c-0.8-0.1-1.5-0.2-2.3-0.3c-0.5,0.4-1,0.8-1.5,1.1
			c-1.4-0.8-2.7,1.4-1.3,2.2c3.1,1.7,6-0.5,5.2-4c-0.3-1.1-1.7-1.1-2.3-0.3c0.3-0.5-9.6-5.2-2.2-2.8c3,0.8,3.3,1,0.9,0.6
			c-3.3-0.3-2.1-0.5,3.7-0.5c-5.3,0.7,0.6-1,0.1-1.6c0,2.4-0.6,2.9-1.7,1.7c-1.5-0.6-1.2-1.5,0.7-2.7c-0.7-0.3-1.4-0.6-2.1-0.9
			c0.1,0.9,0.1,1.8,0.1,2.7c0.2,2.8-1.6,4.8-5.3,5.8c-0.1,0.8-0.2,1.5-0.3,2.3c0.9-0.1,1.8-0.2,2.7-0.3c-0.4-0.6-0.7-1.3-1.1-1.9
			c-0.7,0.2-1.4,0.4-2.1,0.7c0.2,0.7,0.4,1.4,0.6,2.1c0.5-0.3,1-0.6,1.5-0.9c-0.5-0.6-0.9-1.2-1.4-1.8c-0.9-0.3-1.8-0.5-2.7-0.8
			c-0.8,0.1-1.6,0.2-2.5,0.3c0.6,2.4,2.4,4.4,5.1,4.5c1.9,0.1,4.4-1.3,3.9-3.6C3.3,111,0,110.7-1.8,111c-3.9,0.7-6.1,4.1-8,7.3
			c-0.8,1.4,1.3,2.6,2.2,1.3c0.8-1.4,1.7-2.8,2.5-4.2c-0.7-0.4-1.4-0.8-2.2-1.3c-1.3,2.3-2.3,4.7-3.2,7.2c-0.5,1.6,1.8,2.1,2.4,0.7
			c0.5-1.5,1.3-2.8,2.3-3.9c-0.8-0.3-1.5-0.6-2.3-1c-0.7,2.4-1.8,4.1-3.6,5.9c0.7,0.5,1.3,1,2,1.5c2.1-3.3,5.5-5.5,4.9-9.8
			c-0.1-1.2-1.6-1.8-2.3-0.6c-1.2,1.9-2,3.7-2.6,5.8c-0.5,1.6,1.9,2.2,2.4,0.7c1.1-3,1.2-5.6,0.7-8.8c-0.2-1.2-1.7-1.1-2.3-0.3
			c-0.9,1.4-1.9,2.7-3,3.9c0.7,0.4,1.4,0.8,2.1,1.2c0.9-3.8,3.7-5.9,7.6-5.7c-0.1-0.8-0.2-1.6-0.3-2.5c-4.2,0.8-6.9,5.2-9.1,8.6
			c-2.6,3.9-3.8,8.1-2.9,12.7c0.2,1.2,2.2,1.2,2.4,0c1.3-6,9.8-6,10-12.9c-0.4,0.4-0.8,0.8-1.2,1.2c6.4,0.1,13-0.6,15.8-7.2
			C13.3,109.4,10.9,108.8,10.2,110.2L10.2,110.2z"/>
	</g>
</g>
<g id="XMLID_7_">
	<g id="XMLID_249_">
		<path id="XMLID_253_" class="st1" d="M-9.9,115.8c-0.8,2.9-1.8,5.6-3.1,8.3c-0.7,1.4,1.5,2.7,2.2,1.3c1.4-2.8,2.5-5.8,3.3-8.8
			C-7.1,114.9-9.5,114.2-9.9,115.8L-9.9,115.8z"/>
	</g>
</g>
<g id="XMLID_8_">
	<g id="XMLID_240_">
		<path id="XMLID_245_" class="st1" d="M11.3,104.2c6.6-1.3,12.1,2.8,13.2,9.3c0.1,0.4,0.5,0.8,0.9,0.9c4.3,1.1,6.7,4.8,6.1,9.1
			c-0.2,1.6,2.3,1.6,2.5,0c0.4-2.9-0.3-5.6-2.2-7.9c-0.9-1.2-2-2-3.3-2.8c-2-1.2-1.7-1.5-2.6-3.6c-2.7-6-9-8.6-15.2-7.4
			C9.1,102.1,9.7,104.5,11.3,104.2L11.3,104.2z"/>
	</g>
</g>
<g id="XMLID_10_">
	<g id="XMLID_233_">
		<path id="XMLID_238_" class="st1" d="M10.2,109.1c1.4,4,4.4,6.4,8.1,8.2c5.8,2.8,11.3,4.6,14,11.2c0.6,1.5,3,0.8,2.4-0.7
			c-1.5-3.7-3.8-6.8-7.2-8.9c-5.1-3.3-12.6-4-14.9-10.5C12.1,106.9,9.7,107.5,10.2,109.1L10.2,109.1z"/>
	</g>
</g>
<g id="XMLID_12_">
	<g id="XMLID_227_">
		<path id="XMLID_231_" class="st1" d="M14.4,108.4c3.2,1.9,5.4,4.4,6.8,7.9c0.7-0.4,1.4-0.8,2.1-1.2c-3.6-3.8-7-7.8-10.2-11.9
			c-0.6,0.6-1.2,1.2-1.8,1.8c2,2.5,3.6,5.2,4.7,8.3c0.8-0.3,1.5-0.6,2.3-1c-1.9-2.9-3.7-5.6-6.7-7.5c-1.1-0.7-2.2,0.7-1.7,1.7
			c1.4,3,3.2,5.5,5.8,7.6c0.9,0.7,2.5,0.1,2.1-1.2s-1.2-2.9-1.5-4.2c-0.9-1.3-0.8-1.7,0.1-1.2c0.8,0.2,1.5,0.7,2.1,1.4
			c2,2,3,4.7,3.8,7.3c0.8-0.2,1.6-0.4,2.4-0.7c-1.1-3-2.5-5.7-4.3-8.3c-0.6,0.6-1.1,1.1-1.7,1.7c3.4,1.4,4.6,4.6,5.6,7.9
			c0.5,1.5,2.7,0.9,2.4-0.7c-0.6-3-2.8-10.3-6.9-10c-4.4,0.3-3.2,5.5-1.7,7.9c0.1-0.6,0.3-1.1,0.4-1.7c-0.4,0.2-0.7,0.4-1.1,0.6
			c0.6,0.2,1.2,0.5,1.8,0.7c-2.3-5.7,3-1,3.6-0.5c1,0.9,1.9,1.9,2.7,2.9c1.9,2.3,3.5,4.8,4.7,7.5c0.7-0.4,1.4-0.8,2.2-1.3
			c-1-1.7-1.8-3.4-2.4-5.2c-0.5-1.5-2.9-0.9-2.4,0.7c0.7,2,1.6,3.9,2.7,5.8c0.8,1.4,2.8,0.2,2.2-1.3c-2.4-5-6.2-10.7-11.2-13.6
			c-3.8-2.2-5.7,2.5-4.4,5.6c0.3,0.7,1.1,1.2,1.8,0.7c0.4-0.2,0.7-0.4,1.1-0.6c0.6-0.3,0.8-1.1,0.4-1.7c-1.3-1.2-0.8-2.1,1.4-2.5
			c0.4,0.5,0.7,1,1,1.6c0.8,1.6,1.3,3.2,1.7,5c0.8-0.2,1.6-0.4,2.4-0.7c-1.3-3.9-2.8-7.7-6.8-9.4c-1-0.4-2.5,0.6-1.7,1.7
			c1.8,2.4,3.1,4.9,4.1,7.7c0.5,1.5,2.9,0.9,2.4-0.7c-1.1-3.9-3.8-10.3-8.5-11c-5.5-0.8-1.6,6.8-0.9,8.9c0.7-0.4,1.4-0.8,2.1-1.2
			c-2.4-2-4.1-4.3-5.4-7.1c-0.6,0.6-1.1,1.1-1.7,1.7c2.6,1.7,4.2,4.1,5.8,6.6c0.7,1.1,2.8,0.4,2.3-1c-1.3-3.4-3-6.5-5.3-9.4
			c-1-1.3-2.8,0.5-1.8,1.8c3.3,4.1,6.7,8.1,10.2,11.9c0.8,0.9,2.6,0,2.1-1.2c-1.6-4-4.2-7.1-7.9-9.4C14.3,105.4,13,107.6,14.4,108.4
			L14.4,108.4z"/>
	</g>
</g>
<g id="XMLID_19_">
	<g id="XMLID_189_">
		<path id="XMLID_225_" class="st1" d="M10.2,101.8c1.2-2.1,7.1-0.6,8.7-0.1c3,1,5.8,2.9,7.9,5.3c4,4.7,5.3,10.8,4.7,16.8
			c0.8,0,1.7,0,2.5,0c-0.7-9.2-6.6-18.2-14.6-22.8c-2.5-1.4-6.9-2.4-8.8,0.7c-1.8,2.9,1.3,5.2,3.6,6.2c0.5,0.2,1.2,0.3,1.5-0.2
			c0.5-0.6,0.9-1.2,1.4-1.8c1-1.3-1.2-2.5-2.2-1.3c-0.4,0.6-0.4,0.3-0.9,0.5c0.8-2.7,1.9-3.5,3.5-2.2c0.8,0.3,1.6,0.8,2.2,1.4
			c1.9,1.4,3.7,3.1,5.3,4.8c3.6,4.1,6,9.1,6.4,14.6c0.1,1.6,2.4,1.6,2.5,0c0.7-8.1-1.9-16.5-8.7-21.5c-3.5-2.6-14.3-7.1-17.3-1.8
			C7.3,101.9,9.4,103.2,10.2,101.8L10.2,101.8z"/>
	</g>
</g>
<g id="XMLID_26_">
	<g id="XMLID_219_">
		<path id="XMLID_223_" class="st1" d="M31.1,122.2c0.9,2.9,1.3,5.8,1,8.8c-0.1,1.6,2.4,1.6,2.5,0c0.3-3.2-0.1-6.4-1.1-9.5
			C33,120,30.6,120.6,31.1,122.2L31.1,122.2z"/>
	</g>
</g>
<g id="XMLID_33_">
	<g id="XMLID_212_">
		<path id="XMLID_217_" class="st1" d="M34.2,133.1c3.4,0,3.6,5.7,5.4,7.7c1.6,1.8,3.8,2.6,6.1,2.6c-0.1-0.8-0.2-1.6-0.3-2.5
			c-3.9,0.9-9.2,2.1-11.6-2.1c-0.8-1.4-3-0.1-2.2,1.3c3.1,5.3,9.4,4.5,14.5,3.3c1.4-0.3,1.1-2.5-0.3-2.5c-4.6,0-4.9-3.7-6.6-7
			c-1-2-2.7-3.4-5-3.4C32.6,130.6,32.6,133.1,34.2,133.1L34.2,133.1z"/>
	</g>
</g>
<g id="XMLID_40_">
	<g id="XMLID_205_">
		<path id="XMLID_210_" class="st1" d="M32.9,132c0.4,2.4,0.8,4.9-0.2,7.2c0.8,0.3,1.5,0.6,2.3,1c0.3-2.3,0.5-4.5,0.4-6.8
			c0-1.6-2.3-1.6-2.5,0c-0.2,1.7-0.7,3.3-1.4,4.8c0.8,0.2,1.6,0.4,2.3,0.6c0-2.3,1-4.4,0.8-6.7c-0.8,0.1-1.6,0.2-2.5,0.3
			c0.9,2.4-0.2,10.6,4.2,10.5c4.1,0,1.5-8,0.6-9.8c-0.6-1.2-2.3-0.5-2.3,0.6c-0.2,3.7,1.1,7.2,3.8,9.8c0.9,0.9,2.4,0,2.1-1.2
			c-0.5-1.7-1.2-3.3-2.1-4.8c-0.6-0.9-2-0.7-2.3,0.3c-0.3,0.8-0.2,1.2,0.2,1.9c0.7,1.5,2.8,0.2,2.2-1.3c0,0,0,0,0.1,0
			c-0.8,0.1-1.5,0.2-2.3,0.3c0.8,1.3,1.4,2.7,1.8,4.2c0.7-0.4,1.4-0.8,2.1-1.2c-2.2-2.2-3.3-4.9-3.1-8c-0.8,0.2-1.6,0.4-2.3,0.6
			c0.7,1.3,1.1,2.7,1.2,4.2c0.1,1.7-0.1,1.6-0.6-0.1c-0.6-2.2-0.1-4.5-0.9-6.8c-0.5-1.2-2.6-1.2-2.5,0.3c0.2,2.3-0.8,4.4-0.8,6.7
			c0,1.2,1.8,1.8,2.3,0.6c0.9-2,1.5-3.9,1.7-6.1c-0.8,0-1.7,0-2.5,0c0,2.1-0.1,4.1-0.4,6.2c-0.2,1.3,1.7,2.4,2.3,1
			c1.3-3,1-6,0.4-9.1C35,129.7,32.6,130.4,32.9,132L32.9,132z"/>
	</g>
</g>
<g id="XMLID_47_">
	<g id="XMLID_198_">
		<path id="XMLID_203_" class="st1" d="M-13.3,135.2c-1.3,0.3-2.3,1.2-3,2.3c-0.3,0.6-0.6,1.2-0.8,1.8c-0.2,0.6-0.5,1.1-0.8,1.6
			c-0.2,0.2-1.3,1.1-1.2,1.3c-0.8-1.4-2.9-0.2-2.2,1.3c2.2,4.3,8.9,5.2,11.2,0.6c0.7-1.4-1.4-2.7-2.2-1.3c-1.5,2.9-5.6,2.1-6.9-0.6
			c-0.7,0.4-1.4,0.8-2.2,1.3c1,1.7,3.2,0.9,4.4-0.1c0.8-0.7,1.4-1.6,1.8-2.6c0.5-1.3,0.9-2.9,2.4-3.3
			C-11,137.3-11.7,134.8-13.3,135.2L-13.3,135.2z"/>
	</g>
</g>
<g id="XMLID_54_">
	<g id="XMLID_191_">
		<path id="XMLID_196_" class="st1" d="M-14.3,137c-0.3,2.8,0.6,5.4,2.5,7.4c1,1.1,2.5-0.3,2-1.5c-0.8-1.6-1.4-3.3-1.8-5
			c-0.3-1.2-2.1-1.2-2.4,0c-0.2,1,0.2,4.8-1.4,4.6c0.4,0.4,0.8,0.8,1.2,1.2c0.1-0.2,0.1-0.5,0.2-0.7c-0.7-0.4-1.4-0.8-2.1-1.2
			c-0.1,0.7-0.3,1.2-0.8,1.8c0.8,0.3,1.5,0.6,2.3,1c0.2-0.9,0.4-1.8,0.6-2.7c0.2-1.6-2.2-2.3-2.4-0.7c-0.1,0.9-0.3,1.8-0.6,2.7
			c-0.4,1.5,1.5,2,2.3,1c0.6-0.7,0.9-1.5,1-2.4c0.2-1.1-1.2-2.3-2.1-1.2c-0.6,0.8-0.9,1.4-0.9,2.4c0,0.7,0.6,1.2,1.2,1.2
			c1.3,0.2,2.4-0.6,3-1.7c0.8-1.5,0.4-3.1,0.7-4.7c-0.8,0-1.6,0-2.4,0c0.5,2,1.2,3.8,2.1,5.6c0.7-0.5,1.3-1,2-1.5
			c-1.5-1.6-2-3.6-1.7-5.7C-11.6,135.4-14.1,135.4-14.3,137L-14.3,137z"/>
	</g>
</g>
<g id="XMLID_61_">
	<g id="XMLID_176_">
		<path id="XMLID_186_" class="st1" d="M4.9,101.2c-6.1-6.3-15.4,9.9-17.8,13.9c0.8,0.3,1.5,0.6,2.3,1c1.5-4.1,4.2-7.4,8-9.6
			c1.6-0.9,4.7-1.2,5.9-2.8c1.9-2.7-1.2-4.6-3.7-4.2c-5.1,0.8-9.4,7-11.9,11.1c-3.5,5.8-4.9,12.3-3.4,19c0.3,1.6,2.7,0.9,2.4-0.7
			c-1.3-6,0-11.8,3.2-17.1c1.4-2.3,3.1-4.6,5.1-6.5c0.9-0.9,1.9-1.8,2.9-2.5c2.8-0.4,3.2-0.4,1.1,0.2c-2.5,1.7-5.1,2.6-7.3,4.9
			c-2.1,2.2-3.5,4.7-4.6,7.5c-0.5,1.4,1.6,2.1,2.3,1C-9.3,114.2,0,99.6,3.3,103C4.2,104.1,6,102.4,4.9,101.2L4.9,101.2z"/>
	</g>
</g>
<g id="XMLID_68_">
	<g id="XMLID_177_">
		<path id="XMLID_182_" class="st1" d="M-16.5,130c0.4,2.3,1.2,4.5,2.1,6.6c0.5,1.1,2.5,0.6,2.3-0.6c-0.3-2.4-0.7-4.7-1.2-7.1
			c-0.3-1.6-2.7-0.9-2.4,0.7c0.5,2.1,0.8,4.2,1.1,6.4c0.8-0.2,1.6-0.4,2.3-0.6c-0.9-1.9-1.5-3.9-1.9-6
			C-14.4,127.7-16.8,128.4-16.5,130L-16.5,130z"/>
	</g>
</g>
<g id="XMLID_75_">
	<g id="XMLID_170_">
		<path id="XMLID_175_" class="st2" d="M-24.1,126.3c0.1,0,0.1,0,0.2-0.1c0.3-0.2,0.4-0.6,0.2-0.9c-0.2-0.5-1.2-0.5-1.6-0.5
			c-0.7-0.1-1.5-0.2-2.2-0.4c-0.8-0.2-1.1,1.1-0.3,1.2c0.6,0.1,1.2,0.2,1.9,0.3c0.3,0,0.6,0.1,0.9,0.1c0.1,0,0.3,0.1,0.4,0.1
			c0.3,0,0.1,0.2-0.1-0.2c0.1-0.3,0.1-0.6,0.2-0.9c0,0,0.1,0,0.1-0.1C-25.2,125.2-24.9,126.4-24.1,126.3L-24.1,126.3z"/>
	</g>
</g>
<g id="XMLID_82_">
	<g id="XMLID_163_">
		<path id="XMLID_168_" class="st2" d="M-24.7,127.4c-1.4,0-2.8,0.1-4.2,0.1c-0.8,0-0.8,1.3,0,1.2c1.4,0,2.8-0.1,4.2-0.1
			C-23.9,128.6-23.9,127.3-24.7,127.4L-24.7,127.4z"/>
	</g>
</g>
<g id="XMLID_89_">
	<g id="XMLID_151_">
		<path id="XMLID_161_" class="st2" d="M-24.5,130.6c-1.3,0.4-2.5,0.8-3.8,1.2c-0.7,0.2-0.4,1.4,0.4,1.2c1.3-0.4,2.5-0.8,3.8-1.2
			C-23.4,131.6-23.7,130.4-24.5,130.6L-24.5,130.6z"/>
	</g>
</g>
<g id="XMLID_96_">
	<g id="XMLID_143_">
		<path id="XMLID_149_" class="st3" d="M-16.8,161c0,0,0-0.1-0.1-0.1c-0.3-0.7-0.8-1-1.5-0.9c-0.1,0-0.1,0-0.2,0
			c-0.4,0.1-0.8,0.5-0.9,0.9c-0.3,1.6,1.3,3.6,2.2,4.9c1.2,1.9,2.7,3.8,4.2,5.5c1.1,1.2,2.8-0.6,1.8-1.8c-1.2-1.3-2.3-2.7-3.3-4.2
			c-0.5-0.7-0.9-1.4-1.3-2.1c-0.1-0.2-1.1-1.8-1.1-1.6c-0.3,0.3-0.6,0.6-0.9,0.9c0.1,0,0.1,0,0.2,0c-0.5-0.3-1-0.6-1.5-0.9
			c0,0,0,0.1,0.1,0.1C-18.7,163.2-16.2,162.5-16.8,161L-16.8,161z"/>
	</g>
</g>
<g id="XMLID_103_">
	<g id="XMLID_135_">
		<path id="XMLID_141_" class="st3" d="M-10,160.4c-1,5.3-2.4,10.4-4,15.5c-0.5,1.5,1.9,2.2,2.4,0.7c1.7-5.1,3-10.2,4-15.5
			C-7.3,159.5-9.7,158.8-10,160.4L-10,160.4z"/>
	</g>
</g>
<g id="XMLID_110_">
	<g id="XMLID_128_">
		<path id="XMLID_133_" class="st3" d="M-6.1,170.3c1.8-0.7,1.9,4.2,0.3,3.9c-1.6-0.3,0.2-3.9,0.6-4.5c0.9-1.4-1.3-2.6-2.2-1.3
			c-1.1,1.7-1.9,3.9-1.3,5.9c0.6,1.9,2.6,3,4.4,2c3.5-2,1.9-10.2-2.6-8.4C-8.2,168.4-7.6,170.8-6.1,170.3L-6.1,170.3z"/>
	</g>
</g>
<g id="XMLID_117_">
	<g id="XMLID_121_">
		<path id="XMLID_126_" class="st3" d="M-1.1,168.3c-1,2.4-1.9,8.1,1.7,8.8c3.8,0.8,4.7-5.3,4.7-7.9c0-1.6-2.5-1.6-2.5,0
			c0,0.8-0.5,5.9-1.8,5.3c-0.6-0.2-0.5-2-0.5-2.4c0.1-1.1,0.4-2.2,0.8-3.2C1.9,167.5-0.5,166.8-1.1,168.3L-1.1,168.3z"/>
	</g>
</g>
<g id="XMLID_124_">
	<g id="XMLID_114_">
		<path id="XMLID_119_" class="st3" d="M20,169c0.2-2.1-2.1-3.4-4-2.6c-2.2,1-3.2,3.9-3.1,6.1c0.1,2.1,1.7,4.1,3.9,2.9
			c2.1-1.1,3.5-3.7,4.3-5.8c-0.8,0-1.6,0-2.4,0c0.7,1.9,1.3,3.8,2,5.7c0.5,1.5,2.9,0.9,2.4-0.7c-0.7-1.9-1.3-3.8-2-5.7
			c-0.4-1.2-2-1.2-2.4,0c-0.4,1-1.6,4-2.9,4c-0.5,0-0.4-0.2-0.4-0.7s0.1-1,0.2-1.5c0.1-0.4,0.3-0.8,0.5-1.1
			c-0.1,0.2,1.5-1.8,1.4-0.7C17.3,170.6,19.8,170.6,20,169L20,169z"/>
	</g>
</g>
<g id="XMLID_131_">
	<g id="XMLID_107_">
		<path id="XMLID_112_" class="st3" d="M21.8,168.8c0.5,1.5,1,3.1,1.6,4.6c0.4,1.3,2.5,1.1,2.5-0.3c0-1.8-0.1-5.3,2.4-5.6
			c1.6-0.2,1.6-2.7,0-2.5c-4.2,0.5-4.9,4.6-4.9,8.1c0.8-0.1,1.6-0.2,2.5-0.3c-0.5-1.5-1-3.1-1.6-4.6
			C23.7,166.6,21.3,167.2,21.8,168.8L21.8,168.8z"/>
	</g>
</g>
<g id="XMLID_138_">
	<g id="XMLID_100_">
		<path id="XMLID_105_" class="st3" d="M31.8,168.6c-0.1,0-0.3,0-0.4,0c-1.3-0.1-1.7,1.7-0.6,2.3c2.7,1.6,5.8-0.2,6.4-3.2
			c0.6-3.1-1.7-5.2-4.7-3.8c-3,1.4-4,5.6-2.8,8.5c1.2,3,4.5,4.5,7.5,3.6c1.5-0.4,0.9-2.9-0.7-2.4c-2.9,0.9-5.3-1.8-4.7-4.7
			c0.2-0.8,1.4-3.6,2.7-2.9c1.4,0.7-0.6,3.7-2.4,2.7c-0.2,0.8-0.4,1.6-0.6,2.3c0.1,0,0.3,0,0.4,0C33.4,171.2,33.4,168.7,31.8,168.6
			L31.8,168.6z"/>
	</g>
</g>
<g id="XMLID_145_">
	<g id="XMLID_93_">
		<path id="XMLID_98_" class="st3" d="M-13.5,183.9c-1.4-1.9-4-2.5-6.1-1.3c-2.2,1.3-3.1,4.1-2.8,6.5c0.3,2.4,2.5,4.2,4.9,3
			c2.7-1.3,3.6-5.1,3.7-7.8c-0.8,0-1.7,0-2.5,0c0.3,2.5,0.9,4.9,2,7.2c0.7,1.5,2.8,0.2,2.2-1.3c-0.9-1.9-1.4-3.9-1.6-5.9
			c-0.2-1.6-2.5-1.6-2.5,0s-0.3,3.2-1.2,4.5c-0.3,0.4-0.9,1.2-1.5,1.1c-0.8-0.1-0.9-1.1-0.9-1.7c0-1.1,0.3-2.3,1.1-3.1
			c0.8-0.9,2.5-1.2,3.3-0.1C-14.7,186.5-12.6,185.2-13.5,183.9L-13.5,183.9z"/>
	</g>
</g>
<g id="XMLID_152_">
	<g id="XMLID_86_">
		<path id="XMLID_91_" class="st3" d="M-12,184.4c-0.2,2.3,0,4.6,0.5,6.9c0.3,1.4,2.6,1.1,2.5-0.3c-0.1-0.7-0.2-1.4-0.2-2.1
			c0-1.3,0.2-1.9,1.5-2.2c1.4-0.3,1.4,0.1,1.8,1.4c0.3,1,0.5,2.1,0.6,3.1c0.2,1.6,2.3,1.6,2.5,0c0.1-1,0.3-1.9,0.8-2.8
			c0.2-0.4,0.4-0.7,0.7-1.1c0.3-0.6,0.4-0.6,0.6,0.1c0.7,0.9,0.4,4,0.4,5.1c0.1,1.6,2.6,1.6,2.5,0c-0.1-1.9,0.4-8.5-2.8-8.6
			c-3-0.1-4.5,5.1-4.7,7.4c0.8,0,1.7,0,2.5,0c-0.3-2.7-1-7.8-4.8-7.6c-3.8,0.3-4.2,4.5-3.9,7.4c0.8-0.1,1.6-0.2,2.5-0.3
			c-0.5-2.1-0.6-4.1-0.4-6.2C-9.4,182.8-11.9,182.8-12,184.4L-12,184.4z"/>
	</g>
</g>
<g id="XMLID_159_">
	<g id="XMLID_79_">
		<path id="XMLID_84_" class="st3" d="M9.9,186.1c0.4-0.8,0.3-1.8-0.5-2.4c-1-0.6-2.2-0.2-3.1,0.3c-2.1,1.1-3.5,3.3-3.2,5.6
			c0.3,2,2.2,4.2,4.4,3.8c2.7-0.5,2.9-4.9,3.4-7c-0.8,0-1.6,0-2.4,0c0.8,2.3,1.6,4.5,2.4,6.8c0.5,1.5,3,0.9,2.4-0.7
			c-0.8-2.3-1.6-4.5-2.4-6.8c-0.4-1.1-2.1-1.3-2.4,0c-0.3,1.2-0.6,2.3-0.9,3.5c-0.1,0.4-0.1,0.9-0.4,1.2c-0.5,0.6-1.1,0.2-1.4-0.4
			c-0.5-0.8-0.4-1.9,0.1-2.7c0.3-0.4,0.7-0.8,1.1-1.1c0.1-0.1,0.3-0.1,0.4-0.2c0.6-0.1,0.7-0.3,0.2-0.6c0-0.3,0.1-0.6,0.1-1
			c0,0.1-0.1,0.2-0.1,0.3C7.1,186.3,9.2,187.6,9.9,186.1L9.9,186.1z"/>
	</g>
</g>
<g id="XMLID_166_">
	<g id="XMLID_72_">
		<path id="XMLID_77_" class="st3" d="M13.5,186.4c0.9,0,1.9,0,2.8,0c0.8,0,1.8-0.2,2.5,0.1c-0.2-0.2-0.5-0.4-0.7-0.6
			c0.1,0.1-2.2,3-2.4,3.3c-0.6,0.9-1.3,1.9-0.8,3c1.1,2.2,5,1.2,6.7,0.7c1.6-0.4,0.9-2.8-0.7-2.4c-1,0.3-2.2,0.2-3.2,0.5
			c-0.2,0-0.4,0-0.6,0c0,0.3,0,0.4,0.2,0.1c0.2-0.4,0.5-0.7,0.8-1.1c0.8-1.1,2.2-2.5,2.5-3.9c0.2-1.2-0.6-2-1.7-2.2
			c-1.7-0.2-3.6,0-5.4,0C11.8,183.9,11.8,186.4,13.5,186.4L13.5,186.4z"/>
	</g>
</g>
<g id="XMLID_173_">
	<g id="XMLID_65_">
		<path id="XMLID_70_" class="st3" d="M22.8,184.6c0,2.5,0,5,0,7.6c0,1.6,2.5,1.6,2.5,0c0-2.5,0-5,0-7.6
			C25.3,182.9,22.8,182.9,22.8,184.6L22.8,184.6z"/>
	</g>
</g>
<g id="XMLID_180_">
	<g id="XMLID_58_">
		<path id="XMLID_63_" class="st3" d="M23.6,182c1.6,0,1.6-2.5,0-2.5S22,182,23.6,182L23.6,182z"/>
	</g>
</g>
<g id="XMLID_187_">
	<g id="XMLID_51_">
		<path id="XMLID_56_" class="st3" d="M26.9,186c0.2,2.2,0.5,4.4,1,6.6c0.3,1.5,2.3,1,2.5-0.3c0.1-0.6,1.1-4.8,1.6-4.5
			c0.4,0.2,0.8,1.9,0.9,2.3c0.3,0.9,0.5,1.9,0.7,2.9c0.3,1.6,2.7,0.9,2.4-0.7c-0.4-2.1-1.2-7.4-4.3-7.1c-2.7,0.3-3.6,4.9-3.8,7.1
			c0.8-0.1,1.6-0.2,2.5-0.3c-0.4-2-0.7-4-0.9-6C29.3,184.4,26.8,184.3,26.9,186L26.9,186z"/>
	</g>
</g>
<g id="XMLID_194_">
	<g id="XMLID_44_">
		<path id="XMLID_49_" class="st3" d="M43.3,186.8c1-1.6-0.2-3.6-2-3.8c-2.1-0.3-4,1.7-4.8,3.5c-0.8,1.7-0.6,4,1,5.2
			c1.5,1.1,3.7,0.7,4.7-0.9c0.9-1.4-1.3-2.6-2.2-1.3c-0.3,0.4-0.8,0.3-1.1,0c-0.5-0.4-0.4-1.2-0.3-1.7c0.2-0.6,0.6-1.1,1-1.6
			c0.2-0.2,0.4-0.4,0.7-0.6c-0.2,0.1,0.9-0.4,0.8-0.1C40.3,186.9,42.5,188.1,43.3,186.8L43.3,186.8z"/>
	</g>
</g>
<g id="XMLID_201_">
	<g id="XMLID_41_">
		<path id="XMLID_276_" class="st3" d="M41.4,185.2c0.1,2.5,0.1,5.1,0.1,7.6c0,1.1-0.1,2.3-0.1,3.4c0,0.5-0.1,0.9-0.1,1.4
			c0.4,2.5-0.9,3.2-3.7,1.8c-0.5-1.5-2.9-0.9-2.4,0.7c1,3.3,4.6,6.6,7.4,2.6c1.3-1.8,1.2-4.4,1.4-6.5c0.2-3.7,0.1-7.3,0-11
			C43.9,183.5,41.4,183.5,41.4,185.2L41.4,185.2z"/>
	</g>
</g>
<g id="XMLID_208_">
	<g id="XMLID_298_">
		<path id="XMLID_311_" class="st3" d="M47.4,171.4c-0.1,4.8-0.3,9.6-0.8,14.3c-0.2,1.6,2.3,1.6,2.5,0c0.5-4.8,0.7-9.5,0.8-14.3
			C50,169.8,47.5,169.8,47.4,171.4L47.4,171.4z"/>
	</g>
</g>
<g id="XMLID_215_">
	<g id="XMLID_312_">
		<path id="XMLID_316_" class="st3" d="M47.5,193.8c1.6,0,1.6-2.5,0-2.5S45.9,193.8,47.5,193.8L47.5,193.8z"/>
	</g>
</g>
<g id="XMLID_17_">
	<g id="XMLID_319_">
		<path id="XMLID_323_" class="st1" d="M16.2,108.9c-0.5,0.1,0.3,0,0.3,0s0.8,0,0.3,0c0.2,0,0.5,0.1,0.7,0.2c0.1,0,0.7,0.3,0.3,0.1
			c1.2,0.5,2.4,0.4,3.2-0.6c0.7-0.9,0.8-2.5-0.2-3.3s-2.1-1.6-3.1-2.5c-1,1.3-2,2.6-3,3.9c0.6,0.4,1.2,0.8,1.8,1.2
			c1.1,0.7,2.8,0.3,3.4-0.9c0.7-1.3,0.3-2.7-0.9-3.4c-0.6-0.4-1.2-0.8-1.8-1.2c-1-0.7-2.5-0.3-3.2,0.6c-0.7,0.9-0.8,2.5,0.2,3.3
			c1,0.8,2.1,1.6,3.1,2.5c1-1.3,2-2.6,3-3.9c-1.9-0.8-3.6-1-5.6-0.8c-1.3,0.2-2.1,1.9-1.7,3.1C13.6,108.6,14.8,109.1,16.2,108.9
			L16.2,108.9z"/>
	</g>
</g>
<g id="XMLID_18_">
	<g id="XMLID_326_">
		<path id="XMLID_330_" class="st1" d="M28.7,116.3c-2.6-1-5-2.5-7.1-4.4c-2.4-2.1-5.9,1.4-3.5,3.5c2.8,2.5,5.9,4.3,9.3,5.6
			c1.3,0.5,2.7-0.5,3.1-1.7C30.8,118,29.9,116.8,28.7,116.3L28.7,116.3z"/>
	</g>
</g>
<g id="XMLID_20_">
	<g id="XMLID_333_">
		<path id="XMLID_337_" class="st1" d="M10.8,101.6c-1.3-0.9-2.8-1.3-4.3-1.4c-1.3-0.1-2.6,1.2-2.5,2.5c0.1,1.4,1.1,2.4,2.5,2.5
			c0.1,0,0.3,0,0.4,0c-0.3,0-0.4,0-0.1,0c0.2,0.1,0.4,0.1,0.6,0.2c0.6,0.2-0.4-0.2,0.1,0.1c0.2,0.1,0.5,0.3,0.7,0.4
			c1.1,0.7,2.8,0.2,3.4-0.9C12.3,103.7,11.9,102.4,10.8,101.6L10.8,101.6z"/>
	</g>
</g>
<g id="XMLID_21_">
	<g id="XMLID_340_">
		<path id="XMLID_344_" class="st1" d="M2.8,108.4c-2.6,0-5.2,1.1-7,3.1c-0.9,1-1,2.5,0,3.5c0.9,0.9,2.6,1,3.5,0
			c0.9-1.1,2.1-1.6,3.4-1.6C6,113.4,6,108.4,2.8,108.4L2.8,108.4z"/>
	</g>
</g>
<g id="XMLID_22_">
	<g id="XMLID_347_">
		<path id="XMLID_351_" class="st1" d="M-7.9,112.5c-0.9,1.1-1.5,2.5-1.7,3.9c-0.2,1.3,0.1,2.7-0.4,3.9c-1.1,2.6,3.3,4.4,4.6,1.9
			c1.2-2.3,2.5-4.6,3.9-6.8c1.7-2.8-2.6-5.3-4.3-2.5c-1.4,2.2-2.7,4.5-3.9,6.8c1.5,0.6,3,1.3,4.6,1.9c0.5-1.2,0.3-2.4,0.4-3.6
			c0.1-1.2,0.5-2.1,1.2-3c0.8-1.1,0.2-2.8-0.9-3.4C-5.7,110.9-7.1,111.4-7.9,112.5L-7.9,112.5z"/>
	</g>
</g>
<g id="XMLID_23_">
	<g id="XMLID_354_">
		<path id="XMLID_358_" class="st1" d="M-16.4,140.3c-0.3,1.1-0.6,2.2-0.9,3.3c-0.4,1.3,0.4,2.8,1.7,3.1c1.3,0.3,2.7-0.4,3.1-1.7
			c0.3-1.1,0.6-2.2,0.9-3.3c0.4-1.3-0.4-2.8-1.7-3.1C-14.6,138.3-16,139-16.4,140.3L-16.4,140.3z"/>
	</g>
</g>
</svg>
